<?xml version="1.0" encoding="iso-8859-1"?>
<!-- Generator: Adobe Illustrator 19.0.0, SVG Export Plug-In . SVG Version: 6.00 Build 0)  -->
<svg version="1.1" id="Capa_1" xmlns="http://www.w3.org/2000/svg" xmlns:xlink="http://www.w3.org/1999/xlink" x="0px" y="0px"
	 viewBox="0 0 197.973 197.973" style="enable-background:new 0 0 197.973 197.973;" xml:space="preserve">
<path style="fill:#777777;" d="M40.16,20.48L20.238,92.385c-2.15,9.11,1.683,18.514,9.914,24.327l51.031,36.035l51.031-36.035
	c8.233-5.813,12.064-15.217,9.914-24.327l-19.922-75.319L40.16,20.48z"/>
<path d="M81.183,156.16c-0.691,0-1.382-0.21-1.975-0.626l-51.031-36.033c-9.438-6.666-13.756-17.357-11.267-27.901l19.954-72.03
	c0.396-1.43,1.669-2.441,3.154-2.5l82.046-3.413c1.519-0.171,3.036,0.986,3.447,2.54l19.922,75.317
	c2.51,10.631-1.807,21.32-11.245,27.986l-51.031,36.033C82.565,155.95,81.874,156.16,81.183,156.16z M42.79,23.788L23.531,93.295
	c-1.804,7.653,1.478,15.607,8.595,20.634l49.055,34.64l49.055-34.64c7.117-5.026,10.399-12.979,8.564-20.76l-19.2-72.576
	L42.79,23.788z"/>
<path style="fill:#FCAD3A;" d="M152.974,194.56H9.392v-24.112c0-16.577,12.582-30.013,28.1-30.013l43.691-9.021l43.689,9.021
	c15.52,0,28.1,13.438,28.1,30.013v24.112H152.974z"/>
<path d="M152.974,197.973H9.392c-1.888,0-3.418-1.527-3.418-3.413v-24.113c0-18.304,13.945-33.22,31.16-33.423l43.356-8.953
	c0.457-0.094,0.928-0.094,1.386,0l43.356,8.953c17.215,0.203,31.16,15.119,31.16,33.423v24.113
	C156.392,196.446,154.861,197.973,152.974,197.973z M12.81,191.147h136.743v-20.7c0-14.667-11.073-26.6-24.684-26.6
	c-0.232,0-0.464-0.024-0.693-0.07L81.181,134.9l-42.996,8.876c-0.229,0.046-0.461,0.07-0.693,0.07
	c-13.611,0-24.684,11.933-24.684,26.6v20.7H12.81z"/>
<path style="fill:#EAC583;" d="M98.275,135.68L98.275,135.68c-10.761,5.373-23.426,5.373-34.186,0l0,0v-29.867h34.186V135.68z"/>
<path d="M81.183,143.101c-6.397,0-12.791-1.458-18.621-4.367c-1.159-0.58-1.889-1.76-1.889-3.053v-29.867
	c0-1.886,1.531-3.413,3.418-3.413h34.186c1.888,0,3.418,1.527,3.418,3.413v29.867c0,1.294-0.73,2.473-1.889,3.053
	C93.974,141.643,87.579,143.101,81.183,143.101z M67.507,133.501c8.697,3.707,18.652,3.707,27.349,0v-24.274H67.507V133.501z
	 M98.275,135.68h0.034H98.275z"/>
<path style="fill:#FFDD95;" d="M94.138,112.64H68.229c-15.502,0-28.068-12.566-28.068-28.068V28.715
	c0-4.548,3.686-8.235,8.235-8.235h65.577c4.548,0,8.235,3.686,8.235,8.235v55.858C122.206,100.074,109.64,112.64,94.138,112.64z"/>
<path d="M94.116,116.053H68.25c-17.374,0-31.508-14.114-31.508-31.461V28.706c0-6.417,5.229-11.639,11.66-11.639h65.565
	c6.431,0,11.66,5.224,11.66,11.639v55.886C125.624,101.939,111.49,116.053,94.116,116.053z M48.401,23.893
	c-2.659,0-4.823,2.161-4.823,4.813v55.886c0,13.583,11.068,24.634,24.672,24.634h25.866c13.604,0,24.672-11.051,24.672-24.634
	V28.706c0-2.654-2.164-4.813-4.823-4.813H48.401z"/>
<path style="fill:#777777;" d="M98.854,47.787H40.158V17.649c0-7.861,6.373-14.235,14.235-14.235h67.811v21.023
	C122.206,37.332,111.751,47.787,98.854,47.787z"/>
<path d="M98.836,51.2H40.16c-1.888,0-3.418-1.527-3.418-3.413v-30.15C36.741,7.914,44.665,0,54.405,0h67.801
	c1.888,0,3.418,1.527,3.418,3.413v21.04C125.624,39.2,113.608,51.2,98.836,51.2z M43.578,44.373h55.258
	c10.999,0,19.951-8.936,19.951-19.92V6.827H54.405c-5.97,0-10.827,4.85-10.827,10.81L43.578,44.373L43.578,44.373z"/>
<path style="fill:#9DFB45;" d="M143.227,134.267c5.074-6.917,45.353-14.79,45.353-14.79s-15.193,26.221-20.267,33.138
	c-5.074,6.917-14.804,8.417-21.731,3.35C139.655,150.898,138.153,141.184,143.227,134.267z"/>
<path d="M155.73,162.383c-3.997,0-7.88-1.26-11.167-3.663c-4.087-2.99-6.765-7.39-7.538-12.39c-0.773-5.001,0.451-9.999,3.446-14.08
	c5.443-7.417,37.699-14.217,47.454-16.123c1.314-0.263,2.659,0.28,3.439,1.367c0.78,1.091,0.848,2.533,0.178,3.693
	c-0.625,1.077-15.345,26.464-20.47,33.447c-2.993,4.081-7.4,6.753-12.406,7.526C157.684,162.311,156.704,162.383,155.73,162.383z
	 M181.75,124.387c-16.66,3.683-33.466,8.764-35.765,11.897c-1.915,2.609-2.698,5.809-2.203,9.006
	c0.495,3.197,2.207,6.009,4.821,7.924c2.615,1.91,5.813,2.7,9.02,2.2c3.202-0.493,6.019-2.203,7.934-4.813
	C168.897,146.043,176.922,132.589,181.75,124.387z"/>
<rect x="105.114" y="170.667" style="fill:#FFFFFF;" width="37.598" height="23.893"/>
<path d="M142.717,197.973h-37.605c-1.888,0-3.418-1.527-3.418-3.413v-23.893c0-1.886,1.531-3.413,3.418-3.413h37.605
	c1.888,0,3.418,1.527,3.418,3.413v23.893C146.135,196.446,144.606,197.973,142.717,197.973z M108.53,191.147h30.768V174.08H108.53
	V191.147z"/>
<path d="M133.975,184.576c-1.739,0-3.229-1.319-3.398-3.084c-2.301-23.649,23.023-42.764,24.102-43.563
	c1.512-1.126,3.654-0.814,4.78,0.696c1.128,1.51,0.816,3.651-0.696,4.777c-0.232,0.174-23.308,17.633-21.383,37.431
	c0.184,1.877-1.191,3.546-3.072,3.727C134.197,184.569,134.086,184.576,133.975,184.576z"/>
<g>
</g>
<g>
</g>
<g>
</g>
<g>
</g>
<g>
</g>
<g>
</g>
<g>
</g>
<g>
</g>
<g>
</g>
<g>
</g>
<g>
</g>
<g>
</g>
<g>
</g>
<g>
</g>
<g>
</g>
</svg>
