<?xml version="1.0" encoding="utf-8"?>
<!-- Generator: Adobe Illustrator 23.1.0, SVG Export Plug-In . SVG Version: 6.00 Build 0)  -->
<svg version="1.1" id="Layer_1" xmlns="http://www.w3.org/2000/svg" xmlns:xlink="http://www.w3.org/1999/xlink" x="0px" y="0px"
	 viewBox="0 0 1366 768" style="enable-background:new 0 0 1366 768;" xml:space="preserve">
<style type="text/css">
	.st0{fill:#EBEBEB;}
	.st1{fill:#BA68C8;}
	.st2{fill:#FFFFFF;}
	.st3{opacity:0.1;enable-background:new    ;}
	.st4{opacity:0.4;fill:#FFFFFF;enable-background:new    ;}
	.st5{fill:#E0E0E0;}
	.st6{fill:#37474F;}
	.st7{fill:#455A64;}
	.st8{fill:#263238;}
	.st9{opacity:0.2;fill:#FFFFFF;enable-background:new    ;}
	.st10{fill:#F5F5F5;}
	.st11{clip-path:url(#SVGID_2_);}
	.st12{fill:#FFA8A7;}
	.st13{fill:#F28F8F;}
</style>
<g id="freepik--Floor--inject-105">
	<path id="freepik--SUELO--inject-105" class="st0" d="M419.86,710.05c148.16,70.6,388.26,70.6,536.42,0s147.98-184.97,0-255.58
		s-388.18-70.59-536.27,0S271.88,639.48,419.86,710.05z"/>
</g>
<g id="freepik--Cloud--inject-105">
	<path id="freepik--nube--inject-105" class="st0" d="M897.24,185.28l6.81-5.23v-14.98c0-11.86,9.45-25.64,19.74-31.57l0,0
		c10.28-5.94,18.63-1.13,18.63,10.75v2.16c2.16-3.51,5.11-6.47,8.62-8.64l0,0c7.4-4.27,13.41-0.81,13.41,7.73v1l13.61-7.86
		c4.86-2.81,8.82-0.54,8.82,5.09c-0.34,6.21-3.62,11.88-8.82,15.28l-80.81,46.65c-4.86,2.81-8.82,0.54-8.82-5.09
		C888.75,194.35,892.03,188.68,897.24,185.28z"/>
</g>
<g id="freepik--Plants--inject-105">
	<g id="freepik--HOJAS--inject-105">
		<path class="st1" d="M408.93,592.48c-0.96-0.17-1.98-0.46-3.13-0.76c-3.87-1.04-7.67-2.27-11.41-3.7
			c-7.46-2.71-14.49-6.46-20.88-11.15c-3.51-2.49-6.51-5.63-8.84-9.25c-2.33-3.66-3.16-8.08-2.31-12.34
			c0.96-4.29,4.32-7.63,8.62-8.56c1.98-0.31,4.03,0,6.01-0.35c2.08-0.17,3.81-1.66,4.27-3.7c0.01-1.13-0.3-2.25-0.89-3.22
			c-3.59-6.58-6.69-13.43-9.25-20.48c-2.15-6.29-2.27-13.09-0.37-19.46c1.62-6.33,5.08-12.05,9.95-16.41
			c2.22-1.85,5.29-3.44,7.97-2.28c1.73,0.88,2.98,2.47,3.44,4.35c0.41,1.86,0.62,3.76,0.63,5.66c0.26,4.1,1.05,8.14,2.33,12.04
			c0.57,2.44,1.97,4.6,3.96,6.12c3.44,2.15,8.18,0.46,11.84,2.2c3.66,1.74,4.92,5.73,5.09,9.51s-0.59,7.58-0.17,11.34
			c0.07,1.18,0.45,2.33,1.09,3.33c1.02,1.09,2.2,2.02,3.5,2.76c3.46,2.86,5.43,7.13,5.36,11.62c-0.11,4.42-0.96,8.8-2.5,12.95
			c-1.7,5.8-2.94,11.73-3.7,17.72c-0.6,3.67-2.16,7.12-4.51,10.01C413.6,592.29,411.19,593.1,408.93,592.48z"/>
		<path class="st2" d="M415.07,589.41c-0.22,0-0.43-0.12-0.54-0.31c-21.59-36.4-28.41-62.04-30.35-77.15
			c-2.13-16.46,0.87-24.18,1-24.49c0.13-0.33,0.5-0.49,0.82-0.36c0.33,0.13,0.49,0.5,0.36,0.82c0,0.13-3,7.88-0.91,24.05
			c1.85,14.96,8.77,40.38,30.17,76.5c0.18,0.3,0.08,0.68-0.21,0.86c0,0-0.01,0-0.01,0.01C415.3,589.38,415.18,589.41,415.07,589.41z
			"/>
		<path class="st2" d="M403.53,568.3L403.53,568.3c-26.3-2.89-33.74-11.52-34.05-11.89c-0.24-0.25-0.24-0.64,0-0.89
			c0.23-0.25,0.62-0.26,0.86-0.02c0.01,0.01,0.02,0.02,0.02,0.02l0,0c0,0.09,7.51,8.62,33.2,11.45c0.35,0.06,0.59,0.39,0.53,0.75
			c-0.05,0.27-0.26,0.48-0.53,0.53L403.53,568.3z"/>
		<path class="st2" d="M396.11,551.91c-0.14,0-0.28-0.05-0.39-0.13c-0.28-0.21-0.33-0.61-0.12-0.88c0,0,0,0,0-0.01
			c8.34-10.97,8.88-28.95,8.9-29.13c0-0.34,0.27-0.61,0.61-0.61c0.01,0,0.03,0,0.04,0c0.34,0,0.61,0.27,0.61,0.61
			c0,0.01,0,0.03,0,0.04c0,0.76-0.55,18.5-9.14,29.85C396.51,551.82,396.31,551.91,396.11,551.91z"/>
		<path class="st1" d="M935.19,480.05c2.55-17.2,2.59-38.2-10.04-68.87s-8.71-46.74,4.83-51.13c13.54-4.38,43.54,18.9,42.43,58.06
			c-1.09,37.81-26.64,69.03-26.64,69.03L935.19,480.05z"/>
		<path class="st3" d="M935.19,480.05c2.55-17.2,2.59-38.2-10.04-68.87s-8.71-46.74,4.83-51.13c13.54-4.38,43.54,18.9,42.43,58.06
			c-1.09,37.81-26.64,69.03-26.64,69.03L935.19,480.05z"/>
		<path class="st2" d="M941.79,485.12c-0.08,0.02-0.16,0.02-0.24,0c-0.31-0.12-0.47-0.47-0.35-0.79c0.01-0.01,0.01-0.03,0.02-0.04
			c0.13-0.31,13.97-32.63,12.95-61.97c-1.15-33.76-19.85-52.33-20.03-52.51c-0.25-0.25-0.25-0.65-0.01-0.9
			c0.25-0.25,0.65-0.25,0.9-0.01c0.18,0.18,19.24,19.07,20.35,53.38c1.02,29.6-12.95,62.19-13.06,62.5
			C942.21,484.98,942.01,485.1,941.79,485.12z"/>
		<path class="st1" d="M935.93,495.31c0,0,7.14-41.58,32.48-65.48c25.34-23.9,67.59-28.45,80.83-15.69
			c13.24,12.76,4.75,25.17-13.91,29.48c-21.09,4.86-34.02,13.37-21.09,19.88c12,6.03,10.65,19.11-1.85,25.38
			c-19.98,10.03-56.05,0.48-64.74,20.2L935.93,495.31z"/>
		<path class="st2" d="M941.3,504.12h-0.2c-0.33-0.12-0.5-0.48-0.39-0.81c5.84-16.26,14.84-31.2,26.49-43.97
			c9.13-9.87,19.81-18.18,31.63-24.58c11.74-6.48,24.52-10.86,37.77-12.95c0.35-0.03,0.66,0.22,0.7,0.57
			c0.04,0.34-0.2,0.66-0.55,0.7c0,0-0.01,0-0.01,0c-13.11,2.11-25.76,6.49-37.36,12.95c-18.5,10.04-43.6,29.97-57.53,67.79
			C941.73,504.01,941.52,504.12,941.3,504.12z"/>
		<path class="st2" d="M954.15,477.96c-0.27,0-0.52-0.17-0.61-0.43c-0.11-0.33,0.06-0.69,0.39-0.81
			c21.62-7.55,52.62-3.59,52.94-3.55c0.35,0.05,0.59,0.36,0.55,0.71c-0.05,0.35-0.36,0.59-0.71,0.55c-0.3,0-31.02-3.96-52.35,3.5
			C954.29,477.96,954.22,477.97,954.15,477.96z"/>
	</g>
</g>
<g id="freepik--social-media--inject-105">
	<g id="freepik--redes-sociales--inject-105">
		<path class="st1" d="M435.49,51.55c-0.31-5.79-3.37-11.09-8.23-14.26l-6.71-3.88c-5.17-2.63-11.29-2.63-16.46,0l-53.11,30.65
			c-2.53,1.59-4.6,3.82-5.99,6.46c-1.2,2.1-1.96,4.42-2.22,6.83c0,0.33,0,0.67,0,1v61.3c0.32,5.8,3.38,11.1,8.25,14.26l6.7,3.88
			l0.85,0.44l0.31,0.13l0.57,0.24l0.44,0.17l0.48,0.17l0.54,0.15l0.41,0.11l0.63,0.15h0.31l0.76,0.13h0.15
			c3.79,0.62,7.68,0.01,11.1-1.76l52.99-30.58c4.87-3.17,7.93-8.48,8.25-14.28L435.49,51.55z"/>
		<path class="st4" d="M368.33,83.6c-0.95,1.58-1.66,3.28-2.11,5.07c1.1-4.62,3.95-8.64,7.94-11.23l53.11-30.65
			c4.55-2.63,8.25-0.5,8.25,4.75c-0.32-5.8-3.38-11.1-8.25-14.26l-6.71-3.88c-5.17-2.63-11.29-2.63-16.46,0l-53.11,30.65
			c-2.53,1.59-4.6,3.82-5.99,6.46l0.17-0.3L368.33,83.6z"/>
		<path class="st3" d="M372.45,158.55l-0.39,0.11l0,0l-0.67,0.13l0,0h-0.63h-0.65c-0.76-0.06-1.5-0.33-2.11-0.8l0,0l-0.3-0.28
			l-0.17-0.15l-0.22-0.28l-0.18-0.24l-0.18-0.3l-0.17-0.3c0,0,0-0.2-0.13-0.31c-0.06-0.11-0.11-0.23-0.15-0.35l-0.3-0.3v-0.37
			c0-0.11,0-0.22,0-0.33c-0.01-0.18-0.01-0.36,0-0.54c-0.01-0.1-0.01-0.2,0-0.3c0-0.28,0-0.57,0-0.89V91.72
			c0-0.66,0.06-1.33,0.17-1.98l0,0c0-0.24,0-0.5,0.15-0.74v-0.3c0.42-1.78,1.11-3.49,2.03-5.07l-23.42-13.43l-0.17,0.3
			c-1.2,2.1-1.96,4.42-2.22,6.83c0,0.33,0,0.67,0,1v61.3c0.32,5.8,3.38,11.1,8.25,14.26l6.7,3.88l0.85,0.44l0.31,0.13l0.57,0.24
			l0.44,0.17l0.48,0.17l0.54,0.15l0.41,0.11l0.63,0.15h0.31l0.76,0.13h0.15C366.29,159.93,369.48,159.62,372.45,158.55z"/>
		<path class="st2" d="M412.29,107.76c3.55-7.92,5.36-16.51,5.33-25.19c1.73-2.69,3.19-5.55,4.35-8.53
			c-1.49,1.75-3.17,3.33-5.01,4.72c1.87-2.61,3.17-5.57,3.83-8.71c-1.6,2.23-3.46,4.25-5.55,6.03c-1.89-1.41-4.49-1.41-6.38,0
			c-5.55,3.26-9.77,12.65-8.49,19.2c-7.25,3.7-13.69,2.77-17.98-1.85c-2.29,6.55-1.18,12.76,2.7,13.97
			c-1.19,0.71-2.58,1.01-3.96,0.83c0,5.55,2.79,8.82,6.99,7.51c-1.11,1.11-2.46,1.96-3.94,2.48c1.11,3.98,4.33,5.55,8.16,3.38
			c-2.98,5.3-7.49,9.57-12.95,12.26c3.85,1.07,8.43,0.35,13.37-2.5c8.62-4.98,15.24-13.98,19.48-23.73"/>
		<path class="st1" d="M435.49,274.75c-0.34-5.77-3.39-11.03-8.23-14.19l-6.71-3.88c-5.17-2.63-11.29-2.63-16.46,0l-53.09,30.65
			c-2.53,1.59-4.6,3.82-5.99,6.46c-1.2,2.1-1.96,4.42-2.22,6.83c0,0.33,0,0.67,0,1v61.3c0.33,5.76,3.37,11.02,8.19,14.19l6.7,3.88
			l0.85,0.43l0.31,0.15l0.57,0.24l0.44,0.17l0.48,0.17l0.54,0.15l0.41,0.11l0.63,0.15h0.31l0.76,0.13h0.15
			c3.8,0.59,7.69-0.06,11.1-1.85l53.03-30.48c4.87-3.17,7.93-8.48,8.25-14.28L435.49,274.75z"/>
		<path class="st4" d="M368.33,306.81c-0.93,1.58-1.61,3.29-2.03,5.07c1.09-4.61,3.9-8.63,7.86-11.23L427.26,270
			c4.55-2.63,8.25-0.5,8.25,4.75c-0.34-5.77-3.4-11.04-8.25-14.19l-6.71-3.88c-5.17-2.63-11.29-2.63-16.46,0l-53.09,30.65
			c-2.53,1.59-4.6,3.82-5.99,6.46l0.17-0.3L368.33,306.81z"/>
		<path class="st3" d="M372.45,381.76l-0.39,0.11l0,0c-0.22,0.07-0.44,0.12-0.67,0.15l0,0h-0.63h-0.65c-0.76-0.06-1.5-0.33-2.11-0.8
			l0,0l-0.3-0.28l-0.17-0.15l-0.22-0.3l-0.18-0.22l-0.18-0.3l-0.17-0.3c0-0.11,0-0.2-0.13-0.31c-0.06-0.12-0.11-0.24-0.15-0.37
			l-0.11-0.31l-0.11-0.44c0,0,0-0.2,0-0.31c-0.01-0.18-0.01-0.36,0-0.54c-0.01-0.1-0.01-0.2,0-0.3c0-0.28,0-0.59,0-0.91v-61.26
			c0-0.66,0.06-1.33,0.17-1.98l0,0c0-0.26,0-0.5,0.15-0.74v-0.3c0.42-1.78,1.11-3.49,2.03-5.07l-23.18-13.39l-0.17,0.3
			c-1.2,2.1-1.96,4.42-2.22,6.83c0,0.33,0,0.67,0,1v61.3c0.25,5.72,3.17,10.99,7.9,14.22l6.7,3.88l0.85,0.43l0.31,0.15l0.57,0.24
			l0.44,0.17l0.48,0.17l0.54,0.15l0.41,0.11l0.63,0.15h0.31l0.76,0.13h0.15C366.26,383.15,369.47,382.83,372.45,381.76z"/>
		<path class="st2" d="M400.7,303.11c5.44-3.14,6.09-3.48,8.23-4.59c1.13-0.68,2.39-1.11,3.7-1.26c0.84-0.09,1.67,0.16,2.33,0.68
			c0.74,0.56,1.28,1.35,1.54,2.24c0.48,1.5,0.71,3.07,0.7,4.64c0.09,2.79,0.11,3.7,0.11,10.89s0,8.1-0.11,11.1
			c-0.03,1.83-0.27,3.66-0.7,5.44c-0.33,1.39-0.85,2.74-1.54,4c-0.61,1.23-1.4,2.37-2.33,3.38c-1.09,1.2-2.33,2.24-3.7,3.11
			c-2.15,1.37-2.79,1.85-8.23,4.9c-5.44,3.05-6.07,3.5-8.21,4.61c-1.13,0.67-2.39,1.09-3.7,1.24c-0.84,0.09-1.68-0.16-2.35-0.68
			c-0.73-0.57-1.26-1.35-1.52-2.24c-0.48-1.49-0.71-3.06-0.7-4.62c0-2.81-0.13-3.7-0.13-10.89s0-8.12,0.13-11.1
			c0.03-1.87,0.26-3.73,0.7-5.55c0.34-1.39,0.85-2.73,1.52-4c0.63-1.23,1.42-2.37,2.35-3.38c1.08-1.2,2.33-2.25,3.7-3.11
			c2.15-1.37,2.79-1.85,8.21-4.9 M400.7,298.13c-5.55,3.18-6.22,3.7-8.38,4.99c-1.83,1.14-3.49,2.53-4.94,4.12
			c-1.47,1.55-2.71,3.3-3.7,5.2c-1.03,1.95-1.82,4.02-2.35,6.16c-0.58,2.34-0.89,4.73-0.94,7.14c0,2.94-0.13,3.88-0.13,11.25
			s0,8.29,0.13,11.1c0,2.05,0.32,4.09,0.94,6.05c0.41,1.36,1.23,2.56,2.35,3.44c1.05,0.82,2.38,1.2,3.7,1.05
			c1.74-0.17,3.42-0.71,4.94-1.59c2.16-1.13,2.85-1.5,8.38-4.68c5.53-3.18,6.22-3.7,8.4-5.01c3.64-2.25,6.59-5.45,8.55-9.25
			c1.03-1.95,1.81-4.02,2.33-6.16c0.58-2.33,0.91-4.72,0.96-7.12c0-2.96,0.11-3.9,0.11-11.26s0-8.27-0.11-11.1
			c0-2.05-0.33-4.08-0.96-6.03c-0.41-1.36-1.22-2.57-2.33-3.46c-1.05-0.82-2.38-1.19-3.7-1.04c-1.74,0.16-3.43,0.71-4.94,1.59
			c-2.18,1.11-2.87,1.48-8.4,4.68 M400.6,311.4c-5.77,3.33-10.45,12.26-10.45,19.96c0,7.69,4.68,11.23,10.45,7.9
			c5.77-3.33,10.45-12.26,10.45-19.96C411.06,311.6,406.38,308.07,400.6,311.4 M400.6,334.37c-3.7,2.16-6.77-0.13-6.77-5.12
			s3.03-10.8,6.77-12.95c3.74-2.15,6.79,0.13,6.79,5.14s-3.03,10.78-6.79,12.95 M413.9,303.18c0-1.85-1.09-2.63-2.44-1.85
			c-1.51,1.08-2.42,2.82-2.44,4.68c0,1.85,1.09,2.61,2.44,1.85c1.51-1.08,2.41-2.81,2.44-4.66"/>
		<path class="st1" d="M527.9,132.03c-0.29-5.78-3.32-11.08-8.16-14.26l-6.71-3.88c-5.18-2.63-11.3-2.63-16.48,0l-53.09,30.65
			c-4.54,3.01-7.54,7.87-8.19,13.28c0,0.33,0,0.67,0,1v61.3c0.31,5.79,3.37,11.09,8.23,14.26l6.71,3.88l0.85,0.44l0.31,0.13
			l0.57,0.24l0.43,0.17l0.5,0.17l0.52,0.15l0.43,0.11l0.63,0.15h0.31l0.76,0.13h0.15c3.79,0.62,7.68,0,11.1-1.76l52.98-30.58
			c4.86-3.18,7.92-8.48,8.23-14.28L527.9,132.03z"/>
		<path class="st4" d="M460.76,164.08c-0.92,1.58-1.61,3.29-2.05,5.07c1.09-4.61,3.91-8.63,7.88-11.23l53.16-30.65
			c4.55-2.63,8.23-0.5,8.23,4.75c-0.31-5.79-3.37-11.09-8.23-14.26l-6.71-3.88c-5.18-2.63-11.3-2.63-16.48,0l-53.09,30.65
			c-2.52,1.6-4.58,3.82-5.97,6.46l0.15-0.3L460.76,164.08z"/>
		<path class="st3" d="M464.88,239.03l-0.41,0.11l0,0c-0.21,0.07-0.43,0.12-0.65,0.15l0,0h-0.61h-0.81
			c-0.76-0.06-1.48-0.33-2.09-0.8l0,0l-0.3-0.28l-0.17-0.15l-0.24-0.3l-0.17-0.22c-0.07-0.09-0.13-0.19-0.18-0.3l-0.17-0.3
			c0-0.09,0-0.2-0.15-0.31l-0.13-0.35l-0.11-0.33c0-0.14-0.04-0.28-0.11-0.44c-0.01-0.1-0.01-0.21,0-0.31
			c-0.01-0.18-0.01-0.36,0-0.54c-0.01-0.1-0.01-0.2,0-0.3c-0.02-0.3-0.02-0.59,0-0.89V172.2c0.01-0.66,0.07-1.32,0.17-1.98l0,0
			c0-0.26,0-0.5,0.13-0.74c0.01-0.1,0.01-0.2,0-0.3c0.44-1.78,1.13-3.49,2.05-5.07l-23.2-13.39l-0.15,0.3
			c-1.21,2.09-1.97,4.42-2.22,6.83c0,0.33,0,0.67,0,1v61.3c0.31,5.79,3.37,11.09,8.23,14.26l6.71,3.88l0.85,0.44l0.31,0.13
			l0.57,0.24l0.43,0.17l0.5,0.17l0.52,0.15l0.43,0.11l0.63,0.15h0.31l0.76,0.13h0.15C458.85,240.41,461.97,240.09,464.88,239.03z"/>
		<path class="st2" d="M487.39,216.76l8.86-5.12v-29.6l6.18-3.57l0.65-10.28l-6.83,3.94v-5.64c0-2.33,0.35-3.46,2.03-4.42l4.79-2.77
			v-10.28l-6.12,3.55c-6.18,3.26-9.92,9.81-9.56,16.8v7.97l-4.64,2.61v10.03l4.61-2.65L487.39,216.76z"/>
	</g>
</g>
<g id="freepik--Device--inject-105">
	<g id="freepik--MÓVIL--inject-105">
		<path id="freepik--sombra-movil--inject-105" class="st5" d="M407.95,602.76l212.22,122.49c5.06,2.57,11.04,2.57,16.09,0
			l330.95-191.06c4.44-2.57,4.44-6.71,0-9.25L754.99,402.38c-5.05-2.57-11.02-2.57-16.07,0L407.95,593.51
			C403.51,596.03,403.51,600.17,407.95,602.76z"/>
		<path class="st6" d="M414.63,573.17l206.21,119.07c5.11,2.59,11.15,2.59,16.26,0l326.94-188.73c4.49-2.59,4.49-6.79,0-9.38
			L757.8,375.06c-5.11-2.59-11.15-2.59-16.26,0L414.63,563.92C410.13,566.42,410.13,570.62,414.63,573.17z"/>
		<path class="st7" d="M620.83,692.27l-206.21-119.1c-4.01-2.31-4.44-5.92-1.28-8.51c-4.07,3.22-6.56,8.03-6.86,13.21v7.64
			c0.31,5.73,3.34,10.96,8.14,14.09l206.21,119.05c2.5,1.33,5.3,2,8.14,1.94v-26.38C626.14,694.27,623.34,693.6,620.83,692.27z"/>
		<path class="st8" d="M964.03,529.92c4.8-3.13,7.82-8.36,8.12-14.08v-7.64c-0.3-5.18-2.8-9.99-6.86-13.21
			c3.16,2.59,2.76,6.2-1.26,8.51L637.09,692.27c-2.5,1.33-5.29,2-8.12,1.94v26.41c2.83,0.05,5.62-0.62,8.12-1.94L964.03,529.92z"/>
		<path class="st8" d="M525.29,628.16c7.1,3.61,15.49,3.61,22.59,0c6.23-3.7,6.23-9.43,0-13.04c-7.1-3.59-15.48-3.59-22.59,0
			C519.13,618.73,519.13,624.57,525.29,628.16z"/>
		<path class="st2" d="M652.92,667L455.54,552.97c-2.68-1.55-2.68-4.09,0-5.64l257.11-148.5c3.06-1.55,6.68-1.55,9.75,0
			l197.38,114.04c2.7,1.55,2.7,4.07,0,5.55L662.67,666.93C659.62,668.51,656,668.53,652.92,667z"/>
		<path class="st8" d="M846,442.97c1.8,0.91,3.92,0.91,5.72,0c0.91-0.46,1.29-1.57,0.83-2.48c-0.18-0.36-0.47-0.65-0.83-0.83
			c-1.8-0.91-3.92-0.91-5.72,0C844.41,440.56,844.41,442.04,846,442.97z"/>
		<path class="st8" d="M855.14,468.9c3.59,1.81,7.84,1.81,11.43,0c3.16-1.85,3.16-4.79,0-6.6c-3.59-1.83-7.84-1.83-11.43,0
			C851.97,464.03,851.97,467.07,855.14,468.9z"/>
		<path class="st8" d="M847.14,457.39c2.11-1.2,2-3.24-0.26-4.53l-37.62-21.73c-2.45-1.3-5.38-1.36-7.88-0.15
			c-2.11,1.22-2,3.26,0.26,4.55l37.62,21.73C841.72,458.56,844.65,458.61,847.14,457.39z"/>
		<path class="st0" d="M709.32,429.5c-2.7,1.55-2.7,4.07,0,5.55l150.38,86.84c3.07,1.55,6.7,1.55,9.77,0l33.29-19.18l-160.15-92.49
			L709.32,429.5z"/>
		<path class="st0" d="M710.43,444.58l-12-6.92c-1.02-0.52-2.22-0.52-3.24,0l-7.57,4.37c-0.91,0.52-0.91,1.35,0,1.85l1.04,0.61
			l-3.83,2.03c-0.44,0.24-0.41,0.39,0.11,0.35l6.73-0.65l7.95,4.59c1.03,0.5,2.23,0.5,3.26,0l7.55-4.37
			c0.52-0.2,0.78-0.77,0.58-1.29C710.91,444.89,710.7,444.68,710.43,444.58z"/>
		<path class="st0" d="M713.97,462.63l-0.89-1.85c-1.15-2.42-1.85-5.72,1.48-7.62c2.56-1.3,5.58-1.3,8.14,0
			c1.74,1,2.13,2.5,1.17,3.7c2.16-0.59,4.46-0.35,6.46,0.67c1.29,0.42,2,1.81,1.58,3.1c-0.24,0.75-0.83,1.34-1.58,1.58
			c-3.26,1.85-8.95,1.52-13.15,0.87L713.97,462.63z"/>
		<path class="st0" d="M549.16,527.59l150.4,86.84c3.07,1.55,6.7,1.55,9.77,0l117.12-67.64c2.68-1.55,2.68-4.07,0-5.55l-150.4-86.92
			c-3.07-1.55-6.7-1.55-9.77,0l-117.12,67.64C546.45,523.52,546.45,526.04,549.16,527.59z"/>
		<path class="st0" d="M550.3,537.04l-12.06-6.94c-1.03-0.5-2.23-0.5-3.26,0l-7.57,4.37c-0.51,0.21-0.76,0.79-0.55,1.3
			c0.1,0.25,0.3,0.45,0.55,0.55l1.05,0.61l-3.83,2.02c-0.46,0.24-0.41,0.41,0,0.35l6.73-0.63l7.95,4.59c1.03,0.5,2.23,0.5,3.26,0
			l7.57-4.38c0.52-0.15,0.82-0.69,0.68-1.21C550.75,537.39,550.56,537.16,550.3,537.04z"/>
		<path class="st0" d="M553.74,555.08l-0.87-1.85c-1.17-2.42-1.85-5.72,1.48-7.64c2.55-1.3,5.57-1.3,8.12,0
			c1.85,1.02,2.15,2.52,1.17,3.7c2.17-0.57,4.47-0.33,6.47,0.67c1.3,0.44,2,1.84,1.56,3.14c-0.25,0.73-0.82,1.31-1.56,1.56
			c-3.26,1.85-8.95,1.52-13.17,0.87L553.74,555.08z"/>
		<path class="st0" d="M506.15,546.79c3.07-1.55,6.7-1.55,9.77,0l150.38,86.83c2.7,1.55,2.7,4.09,0,5.64l-30.69,17.72L475.5,564.49
			L506.15,546.79z"/>
		<path class="st5" d="M673.27,526.8l-85.6,22.99l0,0l111.93,64.63c3.07,1.55,6.7,1.55,9.77,0l2.42-1.41l48.3-70.86l-102.57,20.12
			L673.27,526.8z"/>
		<path class="st5" d="M715.43,477.08l-39.38-22.75c-3.07-1.55-6.7-1.55-9.77,0l-44.02,25.43c2.02,3.83,6.18,7.4,12.49,10.49
			c18.5,8.84,48.61,8.84,67.16,0C709.67,486.55,714.17,481.88,715.43,477.08z"/>
		<path class="st9" d="M905.34,469.07l-197.4-114.02c-3.06-1.55-6.68-1.55-9.75,0l-257.11,148.5c-2.68,1.55-2.68,4.07,0,5.55
			l41.73,24.05l155.73,89.95c3.06,1.55,6.68,1.55,9.75,0l231.44-133.72l25.6-14.8C908.04,473.15,908.04,470.62,905.34,469.07z"/>
		<path class="st2" d="M905.82,468.25L742.6,373.92l-34.18-19.68c-3.36-1.72-7.33-1.72-10.69,0l-257.11,148.5
			c-2,0.77-3,3.02-2.23,5.02c0.39,1.03,1.21,1.84,2.23,2.23l41.73,24.05l155.78,90.01c3.36,1.73,7.34,1.73,10.69,0l231.42-133.72
			l25.62-14.8c2.01-0.79,3-3.05,2.21-5.06c-0.4-1.01-1.2-1.82-2.21-2.21H905.82z M904.87,473.89l-25.62,14.8L647.84,622.41
			c-2.78,1.39-6.05,1.39-8.82,0l-155.73-89.93l-41.71-24.05c-1.11-0.28-1.78-1.41-1.49-2.52c0.19-0.73,0.76-1.31,1.49-1.49
			l257.11-148.5c2.78-1.38,6.04-1.38,8.82,0l34.2,19.7l163.22,94.34c1.11,0.28,1.78,1.41,1.49,2.52c-0.19,0.73-0.76,1.31-1.49,1.49
			L904.87,473.89z"/>
	</g>
</g>
<g id="freepik--speech-bubble--inject-105">
	<path class="st1" d="M816.75,6.67c2.72-1.57,4.94-0.3,4.94,2.85v363.64c-0.19,3.48-2.03,6.66-4.94,8.56l-141.91,81.94l-16.65,55.49
		c-1.5,5.03-4.49,5.25-6.68,0.46l-15.24-33.65l-41.43,23.92c-2.72,1.57-4.94,0.3-4.94-2.85V143.4c0.19-3.48,2.02-6.66,4.94-8.56
		L816.75,6.67z"/>
	<path class="st2" d="M798.63,287.39c-0.34,4.78-2.95,9.1-7.01,11.63l-77.97,45.02c-3.87,2.22-7.01,0.65-7.01-3.55
		c0.36-4.77,2.96-9.09,7.01-11.63l78-45C795.5,281.62,798.63,283.21,798.63,287.39z"/>
	<path class="st2" d="M784.25,332.35c-0.35,4.77-2.96,9.09-7.01,11.63l-64.76,37.44c-3.87,2.24-6.99,0.65-6.99-3.55
		c0.35-4.77,2.94-9.08,6.99-11.62l64.83-37.44C781.18,326.58,784.25,328.17,784.25,332.35z"/>
	<path class="st2" d="M667.44,396.32l-0.17-2.18c-3.53,8.92-8.86,15.32-14.8,18.74c-10.49,6.07-19.87,0.68-19.87-15.37
		c0-15.13,7.4-31.72,18.92-38.33c7.57-4.37,12.73-1.15,13.58,0.76v-3.7c0-2.05,2.09-4.92,4.64-6.4c2.55-1.48,4.66-0.13,4.66,3.03
		v34.31c0,4.37,1.63,5.25,3.94,3.9c4.22-2.42,8.1-12.8,8.1-24.62c0-22.83-11.97-33.46-31.06-22.44
		c-17.89,10.32-32.07,36.4-32.07,59.19c0,22.36,13.41,30.89,30.96,20.77c5.04-3.13,9.51-7.1,13.21-11.75c2-2.44,4.18-3.18,5.14-1.44
		s0.37,5.33-1.61,7.77c-4.68,5.87-10.31,10.92-16.65,14.95c-21.85,12.6-38.36,1.61-38.36-26.03c0-28.23,17.29-59.88,39.47-72.69
		s38.44-1.42,38.44,27.14c0,17.31-6.79,32.48-16.43,38.03C672.18,402.88,668.39,402.2,667.44,396.32z M642.68,391.12
		c0,8.84,4.29,13.69,10.84,9.91c6.55-3.77,11.1-13.47,11.1-22.4c0-8.6-4.38-12.95-11.19-9.03
		C646.97,373.27,642.68,382.65,642.68,391.12L642.68,391.12z"/>
</g>
<g id="freepik--Character--inject-105">
	<path class="st2" d="M705.75,123.69c38.31-22.2,69.35-4.18,69.35,40.05s-31.04,98.04-69.35,120.12
		c-38.31,22.09-69.35,4.18-69.35-40.05S667.44,145.88,705.75,123.69z"/>
	<path class="st10" d="M705.75,123.69c38.31-22.2,69.35-4.18,69.35,40.05s-31.04,98.04-69.35,120.12
		c-38.31,22.09-69.35,4.18-69.35-40.05S667.44,145.88,705.75,123.69z"/>
	<g>
		<defs>
			<path id="SVGID_1_" d="M705.75,123.69c38.31-22.2,69.35-4.18,69.35,40.05s-31.04,98.04-69.35,120.12
				c-38.31,22.09-69.35,4.18-69.35-40.05S667.44,145.88,705.75,123.69z"/>
		</defs>
		<clipPath id="SVGID_2_">
			<use xlink:href="#SVGID_1_"  style="overflow:visible;"/>
		</clipPath>
		<g class="st11">
			<path class="st8" d="M680.47,182.41c-3.18,0.55-6.02,2.31-7.92,4.92c-3.4,4.38-2.7,10.64,0,24.71l10.52-1.61L680.47,182.41z"/>
			<path class="st8" d="M741.8,161.7c2.36-0.63,4.59-1.68,6.59-3.11c3.24-2.72,4.07,0.74,2.29,4.4c-2.38,5.27-6.77,9.38-12.19,11.39
				c-0.11-0.44-3.03-7.4-3.03-7.4L741.8,161.7z"/>
			<path class="st8" d="M686.52,255.02c0,0-19.61,12.65-23.86,17.11s-6.01,18.35-7.58,35.35c0,0,22.33,9.42,57.34-7.92
				c35.02-17.33,38.18-31.04,38.18-31.04s-4.53-20.59-6.22-26.3c-2.13-7.23-6.23-12.45-30.11-1.61L686.52,255.02z"/>
			<path class="st12" d="M685.41,209.83c-1.57,1.35-3.79-1.05-5.72-2.55c-1.92-1.5-8.21-2.57-11.36,4.88
				c-3.14,7.45,4.07,14.59,8.32,16.43c2.97,1.25,6.41,0.63,8.75-1.59l1.11,28.02c0,0,5.55,9.6,20.72,7.6
				c15.17-2,12-17.24,7.05-22.01v-5.77c0,0,7.82-0.52,11.51-2.48c1.98-1.05,6.68-8.01,9.71-15.19c6.26-13.22,7.68-28.21,4.03-42.38
				c-5.42-21.6-30.19-15.67-44.95-2.42C679.82,185.61,685.41,209.83,685.41,209.83z"/>
			<path class="st8" d="M746.08,140.02c-1.33-4.37-2.15-3.59-12.86,3.94c-8.18,5.76-17.31,10.04-26.97,12.63
				c-7.55,2.29-17.87,4.11-23.18,11.1c-2.28,3.01-3.45,6.72-3.29,10.49c-0.45-0.42-1-0.72-1.59-0.87c-2.61-0.7-5.81,1.2-7.16,4.27
				l9.25,2.46c-0.72,5.33-2.79,21.77-0.54,23.21c1.94,1.24,4.92,5.4,5.72,5.18c2.65-0.76,3.7-12.49,5.14-19.59
				c1.57-8.08,2.18-11.1,5.09-11.43c9.43-1.49,18.72-3.8,27.75-6.9c9.99-3.9,12.86-7.21,12.86-7.21l5.33-3.38
				C746.43,156.94,748.05,148.26,746.08,140.02z"/>
			<path class="st13" d="M714.24,234.84c0,0-14,0.94-18.89-0.35c-2.81-0.67-5.25-2.43-6.77-4.88c0.69,2.57,2.01,4.93,3.85,6.86
				c3.57,3.7,21.81,2.11,21.81,2.11V234.84z"/>
			<path class="st13" d="M710.67,218.58l6.4,0.68c-0.54,1.95-2.32,3.3-4.35,3.29C710.95,222.37,710.04,220.59,710.67,218.58z"/>
			<polygon class="st13" points="719.92,193.61 720.85,210.23 729.67,204.89 			"/>
			<path class="st8" d="M710.88,199.52c-0.04,1.71-1.16,3.2-2.79,3.7c-1.11,0.38-2.32-0.21-2.7-1.32c-0.09-0.27-0.13-0.56-0.11-0.84
				c0.04-1.71,1.18-3.2,2.81-3.7c1.1-0.38,2.3,0.2,2.68,1.3C710.86,198.94,710.9,199.23,710.88,199.52z"/>
			<path class="st8" d="M707.9,189.7l-5.99,4.92c-0.8-1.84-0.21-3.98,1.41-5.16c1.1-1.21,2.97-1.31,4.18-0.21
				C707.64,189.39,707.78,189.54,707.9,189.7z"/>
			<path class="st8" d="M735.9,184.52l-5.55-2.74c0.86-1.77,2.9-2.63,4.77-2.02c1.51,0.99,1.93,3.02,0.93,4.53
				C736.01,184.38,735.96,184.45,735.9,184.52z"/>
			<path class="st8" d="M734.31,192.44c-0.05,1.7-1.17,3.19-2.79,3.7c-1.11,0.38-2.32-0.21-2.7-1.32c-0.09-0.27-0.13-0.56-0.11-0.84
				c0.04-1.71,1.18-3.2,2.81-3.7c1.1-0.38,2.3,0.2,2.68,1.3C734.3,191.85,734.34,192.15,734.31,192.44z"/>
		</g>
	</g>
</g>
</svg>
