<?xml version="1.0" encoding="utf-8"?>
<!-- Generator: Adobe Illustrator 23.1.0, SVG Export Plug-In . SVG Version: 6.00 Build 0)  -->
<svg version="1.1" id="Layer_1" xmlns="http://www.w3.org/2000/svg" xmlns:xlink="http://www.w3.org/1999/xlink" x="0px" y="0px"
	 viewBox="0 0 1366 768" style="enable-background:new 0 0 1366 768;" xml:space="preserve">
<style type="text/css">
	.st0{fill:#F5F5F5;}
	.st1{fill:#EBEBEB;}
	.st2{fill:#BA68C8;}
	.st3{opacity:0.2;enable-background:new    ;}
	.st4{fill:#FFFFFF;}
	.st5{fill:#37474F;}
	.st6{fill:#263238;}
	.st7{fill:#455A64;}
	.st8{opacity:0.8;fill:#FFFFFF;enable-background:new    ;}
	.st9{fill:#E0E0E0;}
	.st10{fill:#FAFAFA;}
	.st11{opacity:0.5;fill:#FFFFFF;enable-background:new    ;}
	.st12{opacity:0.1;enable-background:new    ;}
	.st13{opacity:0.4;fill:#FFFFFF;enable-background:new    ;}
	.st14{clip-path:url(#SVGID_2_);}
	.st15{fill:#FFA8A7;}
	.st16{opacity:0.3;enable-background:new    ;}
	.st17{fill:#F28F8F;}
</style>
<g id="freepik--Floor--inject-101">
	<ellipse id="freepik--floor--inject-101" class="st0" cx="678.35" cy="525.1" rx="395.65" ry="228.42"/>
</g>
<g id="freepik--Clouds--inject-101">
	<g id="freepik--clouds--inject-101">
		<path class="st1" d="M456.66,41.31l-14.22,8.19c0.08-0.62,0.12-1.25,0.12-1.87v-4.12c0-7.34-5.15-10.31-11.48-6.63
			c-2.74,1.67-5.09,3.91-6.87,6.58c-1.03-9.21-8.26-12.64-17.04-7.58c-9.5,5.48-17.18,18.9-17.18,29.77v6.17
			c-0.06,2.46,0.44,4.89,1.46,7.13l-11.8,6.87c-3.76,2.45-6.13,6.55-6.37,11.03c0,4.07,2.85,5.72,6.37,3.69l77.02-44.53
			c3.76-2.45,6.13-6.55,6.37-11.03C463.03,40.92,460.18,39.27,456.66,41.31z"/>
		<path class="st1" d="M517.47,82.72l-10.72,6.18c0.05-0.47,0.08-0.94,0.09-1.41v-3.11c0-5.53-3.88-7.77-8.68-5
			c-2.06,1.26-3.82,2.96-5.15,4.96c-0.79-6.87-6.25-9.55-12.87-5.72c-7.66,4.99-12.49,13.34-12.99,22.47v4.66
			c-0.04,1.85,0.34,3.69,1.1,5.38l-8.9,5.15c-2.84,1.85-4.62,4.95-4.81,8.33c0,3.08,2.15,4.31,4.81,2.78l58.12-33.55
			c2.84-1.85,4.62-4.95,4.81-8.33C522.28,82.43,520.14,81.19,517.47,82.72z"/>
	</g>
</g>
<g id="freepik--Plants--inject-101">
	<g id="freepik--plants--inject-101">
		<path class="st2" d="M426.85,603.85l17.75-10.31c0,0,4.35-37.98,1.44-67.4c-4.05-41.33-30.75-91.05-62.6-79.39
			c-31.85,11.67,14.59,53.88,24.89,88.91C418.64,570.7,426.85,603.85,426.85,603.85z"/>
		<path class="st3" d="M426.85,603.85l17.75-10.31c0,0,4.35-37.98,1.44-67.4c-4.05-41.33-30.75-91.05-62.6-79.39
			c-31.85,11.67,14.59,53.88,24.89,88.91C418.64,570.7,426.85,603.85,426.85,603.85z"/>
		<path class="st4" d="M436.18,599.54L436.18,599.54c-0.59-0.02-1.05-0.51-1.03-1.1c0,0,0,0,0,0
			c3.11-91.86-42.61-138.06-43.07-138.5c-0.47-0.37-0.55-1.05-0.18-1.52c0.37-0.47,1.05-0.55,1.52-0.18
			c0.07,0.05,0.13,0.11,0.18,0.18c0.46,0.45,46.85,47.33,43.71,140.1c-0.02,0.59-0.51,1.05-1.1,1.03
			C436.19,599.54,436.18,599.54,436.18,599.54z"/>
		<path class="st2" d="M417.38,611.19l12.63-7.28c0,0,2.15-26.06-10.63-57.74c-11.13-27.49-38.72-50.42-52.6-45.63
			c-13.88,4.79-13.55,14.65-6.87,24.98S407.95,560.46,417.38,611.19z"/>
		<path class="st4" d="M424.05,608.42L424.05,608.42c-0.6,0-1.08-0.48-1.08-1.08l0,0c0.26-58.07-54.27-97.32-54.82-97.72
			c-0.44-0.39-0.47-1.07-0.07-1.5c0.33-0.37,0.88-0.46,1.31-0.21c0.55,0.4,55.99,40.3,55.73,99.49
			C425.1,607.97,424.62,608.42,424.05,608.42z"/>
	</g>
</g>
<g id="freepik--Device--inject-101">
	<g id="freepik--device--inject-101">
		<path class="st5" d="M758.11,530.46l-109.95,63.57l-0.26-0.14l-41.83-24.17c-7.43-4.78-11.4-13.45-10.14-22.2l15.46-80.61
			l109.95-63.57l-15.46,80.61c-1.26,8.75,2.7,17.42,10.14,22.2L758.11,530.46z"/>
		<polygon class="st6" points="611.45,466.91 596.05,546.82 706.04,483.34 720.27,409.43 713.32,408.04 		"/>
		<path class="st6" d="M648.13,594.01l-42.07-24.29c-7.43-4.78-11.39-13.45-10.14-22.2l15.46-80.61l-18.33-10.6l-17.73,92.22
			c-2.35,12.2,4.54,27.26,15.29,33.47l57.47,33.17L648.13,594.01z"/>
		<polygon class="st7" points="758.11,530.46 648.13,594.01 648.13,615.19 758.11,551.64 		"/>
		<path class="st7" d="M865.71,8.11c5.05,2.92,9.16,10.31,9.16,16.58V362.2c-0.37,6.88-4.01,13.16-9.78,16.92L444.41,622.03
			c-5.39,3.11-13.88,3.26-18.9,0.34c-5.02-2.92-9.17-10.31-9.17-16.58V268.28c0.38-6.88,4.01-13.17,9.78-16.94L846.76,8.45
			C852.16,5.32,860.64,5.17,865.71,8.11z"/>
		<path class="st6" d="M443.24,622.61c-5.39,2.53-13.07,2.47-17.8-0.24c-5.07-2.92-9.17-10.31-9.17-16.58V268.28
			c0.12-3.4,1.11-6.72,2.87-9.64l18.4,10.6c-1.76,2.91-2.75,6.22-2.87,9.62v337.52C434.62,622.17,438.38,624.76,443.24,622.61z"/>
		<path class="st5" d="M874.87,362.2V24.75c0-6.24-4.36-8.76-9.78-5.65L444.41,261.94c-5.77,3.76-9.4,10.05-9.78,16.92v337.52
			c0,6.24,4.38,8.76,9.78,5.65l420.68-242.91C870.86,375.36,874.49,369.08,874.87,362.2z"/>
		<path class="st2" d="M853.39,36.26l-401.79,232.1c-4.61,3.01-7.52,8.04-7.82,13.54v299.67c0,4.98,3.44,7.01,7.82,4.52l401.8-232.1
			c4.61-3.01,7.52-8.04,7.82-13.54V40.78C861.23,35.8,857.72,33.77,853.39,36.26z"/>
		<path class="st8" d="M853.39,36.26l-401.79,232.1c-4.61,3.01-7.52,8.04-7.82,13.54v299.67c0,4.98,3.44,7.01,7.82,4.52l401.8-232.1
			c4.61-3.01,7.52-8.04,7.82-13.54V40.78C861.23,35.8,857.72,33.77,853.39,36.26z"/>
		<g id="freepik--Window--inject-101">
			<path class="st0" d="M472.43,549.24c-2.13,0-3.44-1.72-3.44-4.66V307.26l367-211.86v236.33c-0.29,5.11-2.99,9.77-7.27,12.58
				L475.43,548.29C474.53,548.86,473.5,549.19,472.43,549.24z"/>
			<path class="st9" d="M835.13,96.91v234.85c-0.3,4.81-2.84,9.21-6.87,11.85L475.01,547.56c-0.78,0.49-1.66,0.77-2.58,0.82
				c-2.3,0-2.54-2.65-2.54-3.8V307.76L835.13,96.91 M836.85,93.94L468.17,306.8v237.79c0,3.44,1.72,5.51,4.26,5.51
				c1.22-0.04,2.41-0.41,3.44-1.07l353.27-203.96c4.55-2.96,7.42-7.92,7.71-13.35V93.9V93.94z"/>
			<polygon class="st2" points="468.17,306.76 468.17,340.14 836.85,127.28 836.85,93.9 			"/>
			<path class="st10" d="M699.5,186.24v7.18c0,1.46,1.05,2.06,2.32,1.34l113.39-65.46v-12.47l-113.39,65.46
				C700.47,183.18,699.61,184.64,699.5,186.24z"/>
			<path class="st7" d="M827.31,109.83c1.27-0.74,2.3-0.14,2.3,1.34v7.18c-0.09,1.62-0.95,3.11-2.3,4l-12.15,7.01v-12.52
				L827.31,109.83z"/>
			<path class="st10" d="M826.4,119.67l-1.34-0.41c0.13-0.56,0.2-1.14,0.21-1.72c0.12-1.11-0.34-2.21-1.24-2.89
				c-0.61-0.37-1.37-0.37-1.98,0c-1.75,1.34-2.75,3.43-2.7,5.64c-0.12,1.12,0.34,2.22,1.24,2.9c0.26,0.15,0.56,0.23,0.86,0.22
				c0.39-0.01,0.78-0.12,1.12-0.33c1.03-0.71,1.79-1.73,2.18-2.92l1.36,0.41h0.15c0.22,0,0.41-0.15,0.48-0.36
				C826.77,119.98,826.63,119.76,826.4,119.67z M822.06,122.28c-0.3,0.18-0.67,0.18-0.96,0c-0.56-0.52-0.83-1.27-0.74-2.03
				c-0.03-1.84,0.79-3.6,2.22-4.76c0.18-0.11,0.39-0.18,0.6-0.19c0.12-0.03,0.24-0.03,0.36,0c0.55,0.52,0.83,1.27,0.74,2.03
				C824.35,119.24,823.53,121.07,822.06,122.28z"/>
			<path class="st5" d="M468.17,290.63c0.29-5.42,3.15-10.38,7.7-13.35L829.13,73.32c4.26-2.46,7.71-0.46,7.71,4.45V93.9
				L468.17,306.76L468.17,290.63z"/>
			<path class="st2" d="M793.47,102.23c-2.13,1.39-3.47,3.71-3.61,6.25c0,2.32,1.61,3.25,3.61,2.1c2.15-1.39,3.49-3.72,3.62-6.27
				C797.09,102.06,795.48,101.08,793.47,102.23z"/>
			<path class="st2" d="M806.13,94.95c-2.14,1.38-3.49,3.71-3.62,6.25c0,2.3,1.61,3.25,3.62,2.1c2.13-1.39,3.47-3.72,3.61-6.27
				C809.74,94.73,808.12,93.8,806.13,94.95z"/>
			<path class="st2" d="M818.78,87.67c-2.13,1.39-3.47,3.71-3.61,6.25c0,2.3,1.61,3.25,3.61,2.1c2.13-1.4,3.47-3.73,3.61-6.27
				C822.37,87.44,820.77,86.6,818.78,87.67z"/>
		</g>
		<path class="st2" d="M629.8,314.61l45.42-26.22c2.87-1.72,5.15-0.33,5.15,3.01v52.43c-0.19,3.65-2.1,7-5.15,9.02l-45.42,26.22
			c-2.87,1.72-5.15,0.31-5.15-3.01v-52.38C624.81,320.01,626.73,316.64,629.8,314.61z"/>
		<path class="st7" d="M642.27,379.93l27.49-15.84c2.06-1.2,3.71-0.34,3.71,1.87c-0.19,2.53-1.56,4.83-3.71,6.18l-27.49,15.84
			c-2.06,1.19-3.73,0.34-3.73-1.87C638.72,383.58,640.11,381.28,642.27,379.93z"/>
		<path class="st10" d="M652.11,312.69c4.83-2.78,8.73-0.53,8.73,5.03c-0.33,6.14-3.57,11.75-8.73,15.1
			c-4.81,2.78-8.71,0.53-8.71-5.03C643.73,321.66,646.97,316.05,652.11,312.69z"/>
		<path class="st10" d="M669.31,342.43c0-9.12-6.43-13.19-14.33-8.59l-4.95,2.87c-7.92,4.57-14.33,15.67-14.33,24.81v2.46
			l33.6-19.38V342.43z"/>
		<path class="st2" d="M713.58,266.2l45.41-26.22c2.89-1.72,5.15-0.33,5.15,3.01v52.43c-0.19,3.65-2.1,7-5.15,9.02l-45.41,26.22
			c-2.87,1.72-5.15,0.31-5.15-3.01v-52.43C708.62,271.56,710.53,268.22,713.58,266.2z"/>
		<path class="st3" d="M713.58,266.2l45.41-26.22c2.89-1.72,5.15-0.33,5.15,3.01v52.43c-0.19,3.65-2.1,7-5.15,9.02l-45.41,26.22
			c-2.87,1.72-5.15,0.31-5.15-3.01v-52.43C708.62,271.56,710.53,268.22,713.58,266.2z"/>
		<path class="st7" d="M726.06,331.52l27.49-15.84c2.04-1.19,3.71-0.34,3.71,1.87c-0.18,2.53-1.56,4.83-3.71,6.18l-27.49,15.84
			c-2.06,1.19-3.73,0.34-3.73-1.87C722.51,335.16,723.9,332.87,726.06,331.52z"/>
		<path class="st10" d="M735.9,264.28c4.83-2.78,8.73-0.53,8.73,5.03c-0.33,6.14-3.57,11.75-8.73,15.1
			c-4.81,2.78-8.71,0.53-8.71-5.03C727.52,273.24,730.76,267.64,735.9,264.28z"/>
		<path class="st10" d="M753.1,294.01c0-9.12-6.43-13.19-14.33-8.59l-4.95,2.87c-7.92,4.57-14.33,15.67-14.33,24.81v2.46l33.6-19.36
			V294.01z"/>
		<path class="st2" d="M546.1,362.91l45.42-26.22c2.87-1.72,5.15-0.31,5.15,3.01v52.43c-0.18,3.66-2.1,7.01-5.15,9.02l-45.42,26.22
			c-2.87,1.72-5.15,0.33-5.15-3.01v-52.43C541.13,368.27,543.05,364.93,546.1,362.91z"/>
		<path class="st11" d="M546.1,362.91l45.42-26.22c2.87-1.72,5.15-0.31,5.15,3.01v52.43c-0.18,3.66-2.1,7.01-5.15,9.02l-45.42,26.22
			c-2.87,1.72-5.15,0.33-5.15-3.01v-52.43C541.13,368.27,543.05,364.93,546.1,362.91z"/>
		<path class="st7" d="M558.57,428.22l27.49-15.84c2.06-1.19,3.71-0.34,3.71,1.87c-0.18,2.53-1.56,4.83-3.71,6.18l-27.49,15.84
			c-2.06,1.19-3.73,0.34-3.73-1.87C555.02,431.87,556.41,429.57,558.57,428.22z"/>
		<path class="st10" d="M568.41,360.98c4.83-2.78,8.73-0.52,8.73,5.03c-0.33,6.14-3.57,11.76-8.73,15.12
			c-4.81,2.77-8.71,0.52-8.71-5.05C560.04,369.95,563.27,364.34,568.41,360.98z"/>
		<path class="st10" d="M585.61,390.69c0-9.14-6.43-13.19-14.33-8.59l-4.9,2.87c-7.92,4.57-14.33,15.69-14.33,24.82v2.46l33.6-19.4
			L585.61,390.69z"/>
	</g>
</g>
<g id="freepik--User--inject-101">
	<path class="st2" d="M981.59,254.33l-18.25-10.53c-18.4-10.31-43.62-8.85-71.57,7.28c-26.15,15.07-49.99,40.22-67.96,69.32
		c-20.79,33.5-33.86,72.29-33.86,107.07c0,32.44,11.36,55.18,29.72,65.85l18.43,10.57c18.55,11.82,44.67,10.77,73.87-6
		c56.25-32.49,101.84-111.46,101.84-176.4C1013.75,287.61,1001.38,264.36,981.59,254.33z"/>
	<path class="st12" d="M837.38,503.45l-17.71-10.14c-18.37-10.65-29.7-33.43-29.7-65.87c0-34.77,13.07-73.53,33.84-107.03
		l20.07,11.67c-20.79,33.5-33.83,72.24-33.83,106.98C810.05,470.07,820.42,492.24,837.38,503.45z"/>
	<path class="st13" d="M980.85,253.9c-18.14-8.8-42.35-6.56-68.93,8.76c-26.18,15.14-50.03,40.3-68.05,69.42l-20.07-11.67
		c17.99-29.21,41.85-54.25,67.98-69.32c27.93-16.15,53.17-17.68,71.59-7.3L980.85,253.9z"/>
	<path class="st10" d="M866.23,498.03c-7.41,0.16-14.7-1.84-20.99-5.74l-0.29-0.19l-0.58-0.33c-13.42-9.14-20.8-27.83-20.8-52.73
		c0-30.92,11.56-67.19,31.75-99.64c17.52-28.31,39.98-51.32,63.26-64.77c13.66-7.89,27.02-12.03,38.6-12.03
		c5.88-0.09,11.71,1.14,17.06,3.59l0.62,0.34l0.31,0.15c15.65,7.92,24.62,27.92,24.62,54.87c0,60.49-42.61,134.28-94.99,164.5
		C891.09,493.87,877.81,498.03,866.23,498.03z"/>
	<g>
		<defs>
			<path id="SVGID_1_" d="M866.23,498.03c-7.41,0.16-14.7-1.84-20.99-5.74l-0.29-0.19l-0.58-0.33c-13.42-9.14-20.8-27.83-20.8-52.73
				c0-30.92,11.56-67.19,31.75-99.64c17.52-28.31,39.98-51.32,63.26-64.77c13.66-7.89,27.02-12.03,38.6-12.03
				c5.88-0.09,11.71,1.14,17.06,3.59l0.62,0.34l0.31,0.15c15.65,7.92,24.62,27.92,24.62,54.87c0,60.49-42.61,134.28-94.99,164.5
				C891.09,493.87,877.81,498.03,866.23,498.03z"/>
		</defs>
		<clipPath id="SVGID_2_">
			<use xlink:href="#SVGID_1_"  style="overflow:visible;"/>
		</clipPath>
		<g class="st14">
			<path class="st6" d="M916.37,400.12L916.37,400.12c-25.92,6.87-46.95-8.45-46.95-34.36v-16.61c0-21.97,17.82-44.55,39.79-50.44
				l14.31-3.83c21.97-5.89,39.79,7.15,39.79,29.12v16.61C963.24,366.51,942.3,393.16,916.37,400.12z"/>
			<path class="st15" d="M844.7,560.77c0.17-2.75,4.55-32.81,7.58-49.82l29.41,2.53l-10.72,62l-19.29-1.25
				C843.98,574.51,844.58,563.48,844.7,560.77z"/>
			<polygon class="st15" points="980.2,465.61 1000.92,530.46 975.01,544.65 959.48,483.65 			"/>
			<path class="st2" d="M934.84,410.06c13.74-3.44,28.98-1.72,34.21,9.28c5.22,11,16.65,50.49,16.65,50.49
				c-7.11,9.58-17.51,16.18-29.21,18.54L934.84,410.06z"/>
			<path class="st16" d="M934.84,410.06c13.74-3.44,28.98-1.72,34.21,9.28c5.22,11,16.65,50.49,16.65,50.49
				c-7.11,9.58-17.51,16.18-29.21,18.54L934.84,410.06z"/>
			<path class="st0" d="M906.29,418.28l-11.48,3.62c-12.49,6.87-16.99,17.9-22.23,32.11c-3.82,10.09-4.17,21.16-1,31.47l14.62,44.93
				c0,0-6.87,20.93-14.79,41.11c36.68,13.74,82.46-10.89,93.51-31.1c0.48-3.8-0.15-20.12,0.72-39.12
				c0.96-20.27,3.33-43.5,0.62-55.15c-5.07-21.6-14.53-40.61-33.4-35.56L906.29,418.28z"/>
			<path class="st2" d="M894.81,421.9c-12.51,5.39-30.92,13.23-37.23,49.29c-6.43,36.54-7.66,45.17-7.66,45.17
				s10.94,9.67,31.71,3.99C881.64,520.34,899.95,447.07,894.81,421.9z"/>
			<path class="st16" d="M894.81,421.9c-12.51,5.39-30.92,13.23-37.23,49.29c-6.43,36.54-7.66,45.17-7.66,45.17
				s10.94,9.67,31.71,3.99C881.64,520.34,899.95,447.07,894.81,421.9z"/>
			<path class="st6" d="M875.31,470.54L875.31,470.54c14.69-3.93,26.61-19.04,26.61-33.72v-47.24l0,0
				c-14.71,3.95-26.61,19.05-26.61,33.74V470.54z"/>
			<path class="st9" d="M882.19,518.07c2.32-9.74,4.76-20.82,7.06-32.64c0,0-0.1,24.43-3.71,42.95L882.19,518.07z"/>
			<path class="st15" d="M947.9,310.25c4.95,2.04,11.08,14.81,10.48,45.17c-0.52,25.77-7.7,33.96-11.3,36.75
				c-3.61,2.78-10.57,3.54-17.32,4.05v15.36c0,0,9.35,10.03,8.74,17.18c-0.6,7.15-13.49,12.32-22.23,7.78
				c-5.77-3.31-10.69-7.94-14.35-13.5v-37.07c0,0-4.57,8.26-12.03,4.54c-7.46-3.73-7.75-17.82-3.44-24.05
				c4.31-6.24,13.74-7.15,15.46-0.58c0,0,10.77-2.42,25.13-15.46C938.58,339.94,945.97,325.69,947.9,310.25z"/>
			<path class="st6" d="M933.64,355.6c0.08,1.82-0.97,3.49-2.65,4.21c-1.53,0.48-2.85-0.58-2.92-2.41
				c-0.09-1.81,0.96-3.49,2.63-4.21C932.32,352.72,933.55,353.78,933.64,355.6z"/>
			<path class="st17" d="M934.38,377.1l6.48,0.65c-0.33,2.1-2.08,3.69-4.21,3.81C934.86,381.37,933.85,379.38,934.38,377.1z"/>
			<path class="st6" d="M956.49,339.61l-5.65-3.01c1.03-2.13,3.13-3.2,4.69-2.35C957.09,335.09,957.5,337.43,956.49,339.61z"/>
			<path class="st6" d="M955.18,347.51c0.09,1.82-0.97,3.49-2.65,4.19c-1.53,0.5-2.83-0.58-2.92-2.41
				c-0.09-1.81,0.96-3.48,2.63-4.19C953.79,344.61,955.1,345.69,955.18,347.51z"/>
			<polygon class="st17" points="942.04,349.2 942.49,368.44 951.3,362.92 			"/>
			<path class="st17" d="M929.76,396.22c-7.13,0.82-21.78-0.1-24.05-6.18c0.8,2.93,2.63,5.47,5.15,7.16
				c4.38,3.16,18.9,4.14,18.9,4.14V396.22z"/>
		</g>
	</g>
	<path class="st5" d="M886.89,466.48l-14.04-8.11l0,0h-0.15l0,0c-6.98-3.95-16.54-3.44-27.14,2.75
		c-9.91,5.72-18.9,15.26-25.77,26.29c-7.87,12.71-12.83,27.49-12.83,40.61c0,12.28,4.31,20.93,11.27,24.96l0,0l14.26,8.14
		c7.03,4.48,16.96,4.09,27.99-2.28c21.32-12.32,38.62-42.26,38.62-66.88C899.09,479.11,894.4,470.28,886.89,466.48z"/>
	<path class="st6" d="M832.19,560.94l-13.97-7.97l0,0c-6.98-4.04-11.27-12.68-11.27-24.98c0-13.18,4.95-27.88,12.83-40.58L834.7,496
		c-7.89,12.71-12.83,27.38-12.83,40.56C821.83,548.28,825.8,556.7,832.19,560.94z"/>
	<path class="st7" d="M886.6,466.28c-6.87-3.33-16.05-2.49-26.13,3.33c-10.08,5.82-18.9,15.27-25.77,26.32l-14.91-8.59
		c6.87-11.05,15.87-20.62,25.77-26.29c10.6-6.12,20.17-6.7,27.14-2.77l0,0h0.15l0,0L886.6,466.28z"/>
	<path class="st0" d="M877.22,499.38l-12.87,7.44v-20.62c0-3.32-1.72-4.98-3.88-3.75c-2.16,1.24-3.88,4.91-3.88,8.23v20.62
		l-12.88,7.44c-2.16,1.72-3.4,4.34-3.35,7.1c0,2.85,1.51,4.29,3.35,3.21l12.88-7.42v20.62c0,3.32,1.72,4.98,3.88,3.75
		c2.16-1.24,3.88-4.93,3.88-8.23v-20.62l12.87-7.44c2.17-1.71,3.41-4.34,3.35-7.1C880.57,499.76,879.06,498.32,877.22,499.38z"/>
</g>
</svg>
