<?xml version="1.0" encoding="utf-8"?>
<!-- Generator: Adobe Illustrator 23.1.0, SVG Export Plug-In . SVG Version: 6.00 Build 0)  -->
<svg version="1.1" id="Layer_1" xmlns="http://www.w3.org/2000/svg" xmlns:xlink="http://www.w3.org/1999/xlink" x="0px" y="0px"
	 viewBox="0 0 1366 768" style="enable-background:new 0 0 1366 768;" xml:space="preserve">
<style type="text/css">
	.st0{fill:#F5F5F5;}
	.st1{fill:#E0E0E0;}
	.st2{fill:#BA68C8;}
	.st3{opacity:0.15;enable-background:new    ;}
	.st4{fill:#FFFFFF;}
	.st5{opacity:0.2;enable-background:new    ;}
	.st6{opacity:0.7;fill:#FFFFFF;enable-background:new    ;}
	.st7{opacity:0.05;enable-background:new    ;}
	.st8{opacity:0.9;fill:#FFFFFF;enable-background:new    ;}
	.st9{opacity:0.75;fill:#FFFFFF;enable-background:new    ;}
	.st10{opacity:0.4;enable-background:new    ;}
	.st11{opacity:0.3;enable-background:new    ;}
	.st12{fill:#37474F;}
	.st13{fill:#455A64;}
	.st14{fill:#EBEBEB;}
	.st15{opacity:0.1;enable-background:new    ;}
	.st16{opacity:0.7;}
	.st17{fill:#FAFAFA;}
	.st18{fill:#FFA8A7;}
	.st19{fill:#263238;}
	.st20{fill:#B16668;}
	.st21{fill:#F28F8F;}
	.st22{fill:#F0F0F0;}
	.st23{opacity:0.5;fill:#FFFFFF;enable-background:new    ;}
	.st24{font-family:'Arial-BoldMT';}
	.st25{font-size:20.8103px;}
</style>
<g id="freepik--Floor--inject-120">
	<ellipse id="freepik--floor--inject-120" class="st0" cx="684" cy="547.06" rx="390" ry="213.48"/>
</g>
<g id="freepik--Shadows--inject-120">
	<path id="freepik--Shadow--inject-120" class="st1" d="M386.74,597.07l-85.97-49.55c-4.02-2.32-4.02-6.09,0-8.41l190.99-110.4
		c4.58-2.32,9.99-2.32,14.57,0l85.97,49.55c4.02,2.33,4.02,6.09,0,8.41l-190.97,110.4C396.74,599.38,391.32,599.38,386.74,597.07z"
		/>
	<path id="freepik--shadow--inject-120" class="st1" d="M414.85,611.47l9.14,5.3c1.35,0.68,2.95,0.68,4.3,0L598.8,518.3
		c0.69-0.23,1.06-0.97,0.83-1.65c-0.13-0.39-0.44-0.7-0.83-0.83l-9.15-5.28c-1.35-0.7-2.95-0.7-4.3,0l-170.51,98.45
		C413.65,609.72,413.65,610.79,414.85,611.47z"/>
	<path class="st1" d="M707.18,648.2l9.14,5.28c1.35,0.7,2.95,0.7,4.3,0l95.53-55.08c1.19-0.68,1.19-1.79,0-2.48l-9.15-5.28
		c-1.35-0.68-2.95-0.68-4.3,0l-95.52,55.08C705.9,646.42,705.9,647.53,707.18,648.2z"/>
	<path class="st1" d="M901.46,535.57l9.15,5.28c1.35,0.68,2.95,0.68,4.3,0l95.53-55.08c0.69-0.23,1.06-0.97,0.83-1.65
		c-0.13-0.39-0.44-0.7-0.83-0.83l-9.15-5.28c-1.35-0.7-2.95-0.7-4.3,0l-95.53,55.08c-0.69,0.23-1.06,0.97-0.83,1.65
		C900.76,535.13,901.06,535.44,901.46,535.57z"/>
	<ellipse class="st1" cx="605.05" cy="661.53" rx="85.9" ry="49.6"/>
</g>
<g id="freepik--Plants--inject-120">
	<g id="freepik--plants--inject-120">
		<path class="st2" d="M383.77,571.04c4.52-51.24-5.07-76.81-16.04-95.55c-8.51-14.53-23.18-27.65-31.54-32.51
			c-8.36-4.87-19.7-5.43-26.87-0.28c-6.62,4.68-6.26,10.26-4.73,16.21c2.96,11.47,28.42,29.52,37.36,39.05
			c15.21,16.19,27.88,34.65,28.61,79.76L383.77,571.04z"/>
		<path class="st3" d="M383.77,571.04c4.52-51.24-5.07-76.81-16.04-95.55c-8.51-14.53-23.18-27.65-31.54-32.51
			c-8.36-4.87-19.7-5.43-26.87-0.28c-6.62,4.68-6.26,10.26-4.73,16.21c2.96,11.47,28.42,29.52,37.36,39.05
			c15.21,16.19,27.88,34.65,28.61,79.76L383.77,571.04z"/>
		<path class="st4" d="M376.89,563.81L376.89,563.81c-0.48-0.06-0.83-0.49-0.78-0.98c7.45-62.91-41.24-105.42-56.86-113.15
			c-0.46-0.21-0.65-0.76-0.44-1.22c0.21-0.46,0.76-0.65,1.22-0.44c15.91,7.88,65.41,51.1,57.84,114.94c0,0.48-0.39,0.86-0.87,0.85
			C376.96,563.82,376.92,563.82,376.89,563.81z"/>
		<path class="st2" d="M376.09,581.34c-0.4,0.36-3.81,2.25-4.29,2.48c-5.51,2.65-13.24,3.05-20.2,3.19c-4.62,0-10.84,0.18-14.75-2.6
			c-2.08-1.3-3.17-3.74-2.73-6.16c0.65-2.48,3.39-4.29,3.21-6.84c-5.18-0.79-10.74,1.46-15.59-0.53c-3.51-1.63-6.41-4.33-8.28-7.71
			c-1.43-2.11-1.99-4.69-1.57-7.2c0.79-2.63,3.82-3.76,6.46-4.62c0.7-0.19,1.36-0.52,1.94-0.96c0.57-0.48,0.8-1.25,0.6-1.97
			c-0.33-0.83-1.34-1.11-2.23-1.24c-1.89-0.26-3.82-0.28-5.69-0.66c-1.9-0.29-3.65-1.21-4.97-2.62c-1.29-1.89-1.96-4.13-1.94-6.42
			c-0.35-3.85-0.46-7.72-0.35-11.59c-0.05-3.32-0.31-6.64-0.78-9.93c8.97-3.66,19.14-4.6,28.72-4.24c5.36,0.2,13.24,1.32,16.55,6.34
			c0.85,1.44,1.33,3.08,1.41,4.75c0.01,0.77-0.04,1.55-0.13,2.32c0,0.46-0.18,2.33,0.79,1.32c0.2-0.24,0.33-0.52,0.4-0.83l2.4-7.9
			c0.18-0.8,0.57-1.55,1.13-2.15c1.31-1.16,5.33-1.13,9.93,1.46c3.06,1.88,5.39,4.74,6.62,8.11c2.14,5.25,2.19,11.07,2.2,16.74
			c0.89-1.84,1.8-3.67,2.7-5.53c3.16-6.46,7.5,3.63,8.06,5.86c1.59,7,1.68,14.25,0.26,21.29
			C384.1,570.37,381.36,576.61,376.09,581.34z"/>
		<path class="st4" d="M374.22,581.57c-0.3-0.04-0.54-0.25-0.63-0.53c-7.8-24.3-44.8-56.23-58.97-61.07
			c-0.4-0.14-0.61-0.57-0.47-0.97s0.57-0.61,0.97-0.47c14.4,4.97,52.01,37.4,59.94,62c0.13,0.4-0.09,0.83-0.49,0.96c0,0,0,0-0.01,0
			C374.46,581.55,374.34,581.58,374.22,581.57z"/>
		<path class="st4" d="M329.36,559.36c-0.4-0.01-0.72-0.35-0.71-0.75c0.01-0.25,0.14-0.48,0.36-0.61c9.32-4.32,19.86-5.26,29.8-2.65
			c-1.07-9.24-0.17-18.61,2.65-27.48v-0.22c0.12-0.38,0.51-0.59,0.89-0.5c0.37,0.09,0.6,0.47,0.51,0.84c0,0.01-0.01,0.02-0.01,0.03
			v0.22c-2.88,9.03-3.72,18.58-2.45,27.98c0.06,0.4-0.21,0.77-0.61,0.83c-0.11,0.02-0.22,0.01-0.32-0.02
			c-9.87-2.89-20.46-2.1-29.8,2.22C329.58,559.32,329.47,559.35,329.36,559.36z"/>
	</g>
	<g>
		<path class="st2" d="M982.24,443.83c0-18.51-0.08-37.13,9.65-63.3c8.18-21.97,29.37-42.4,43.04-41.27
			c12.71,1.04,15.33,16.72,3.69,30.49c-5.36,6.34-14.82,13.76-23.03,23.57c-9.6,11.46-17.07,27.56-18.72,35.96
			c-1.12,7.13-1.86,14.31-2.23,21.52L982.24,443.83z"/>
		<path class="st5" d="M982.24,443.83c0-18.51-0.08-37.13,9.65-63.3c8.18-21.97,29.37-42.4,43.04-41.27
			c12.71,1.04,15.33,16.72,3.69,30.49c-5.36,6.34-14.82,13.76-23.03,23.57c-9.6,11.46-17.07,27.56-18.72,35.96
			c-1.12,7.13-1.86,14.31-2.23,21.52L982.24,443.83z"/>
		<path class="st4" d="M988.27,438.11c0.35-0.1,0.59-0.41,0.6-0.78c0.66-38.9,27.25-77.32,44.25-87.32c0.39-0.23,0.52-0.73,0.3-1.13
			c-0.23-0.39-0.72-0.52-1.11-0.29c-0.01,0-0.01,0.01-0.02,0.01c-17.32,10.18-44.38,49.22-45.04,88.71
			c-0.01,0.45,0.35,0.82,0.79,0.83c0,0,0,0,0,0L988.27,438.11z"/>
		<path class="st2" d="M999.36,453.44c0.86-6.47,6.97-17.86,18.01-28.14c12.22-11.37,28.8-18.21,31.7-26.09
			c3.48-9.47-5.28-16.92-19.24-14.12c-16.77,3.31-35.14,24.48-38.77,63.52L999.36,453.44z"/>
		<path class="st4" d="M995.7,447.32c0.31-0.08,0.55-0.33,0.61-0.65c6.85-34.07,29.8-49.03,41.1-52.2c0.43-0.12,0.69-0.57,0.57-1
			c0,0,0-0.01,0-0.01c-0.1-0.42-0.51-0.68-0.93-0.58c-0.03,0.01-0.05,0.01-0.08,0.02c-12.4,3.49-35.26,18.67-42.26,53.45
			c-0.08,0.44,0.21,0.87,0.65,0.96C995.47,447.34,995.58,447.34,995.7,447.32z"/>
	</g>
</g>
<g id="freepik--Gears--inject-120">
	<g id="freepik--gears--inject-120">
		<path class="st2" d="M753.53,53.05L753.53,53.05c-0.34-0.16-0.74-0.1-1.03,0.15l-2.02,1.54l-0.4,1.29
			c-0.18,0.85,0.11,1.73,0.74,2.32c0.37,0.35,0.72,0.72,1.04,1.11c0.46,0.64,1.35,0.78,1.99,0.33c0.01,0,0.01-0.01,0.02-0.01
			l4.72-3.58c0.27-0.25,0.67-0.31,1.01-0.17L753.53,53.05z M747.17,71.7c-0.96-3.96-3.64-5.79-6.94-5.3
			c0.38,0.72,0.66,1.49,0.84,2.28c1.51,6.27-1.9,15.54-7.63,20.69c-1.69,1.68-3.83,2.83-6.16,3.31c2.27,4.12,7.32,4.19,12.25-0.25
			C745.25,87.22,748.68,77.95,747.17,71.7z M745.52,44.59L745.52,44.59c-0.13-0.06-0.26-0.1-0.4-0.13l-3.77-0.58
			c-0.85-0.11-1.68,0.34-2.05,1.11l-3.08,6.85c-0.18,0.36-0.43,0.68-0.73,0.94l0,0c-0.17,0.17-0.36,0.32-0.56,0.43l1.34,3.58
			c0.23,0.66,0.95,1,1.6,0.77c0.07-0.02,0.14-0.05,0.2-0.09c0.72-0.35,1.47-0.65,2.23-0.89c0.48-0.18,0.91-0.44,1.29-0.78
			c0.3-0.27,0.55-0.6,0.73-0.96l3.05-6.9c0.4-0.74,1.2-1.16,2.04-1.06l3.77,0.6c0.13,0.01,0.26,0.05,0.38,0.1L745.52,44.59z
			 M739.27,109.78c-0.18-0.14-0.32-0.33-0.38-0.55l-1.54-4.09c-0.23-0.66-0.96-1.02-1.62-0.78c-0.07,0.02-0.13,0.05-0.2,0.09
			c-0.72,0.36-1.47,0.66-2.23,0.91c-0.25,0.08-0.48,0.2-0.7,0.35l0.2,0.53c0.09,0.26,0.27,0.48,0.51,0.61l0,0L739.27,109.78z
			 M728.1,49.06c-0.14-0.06-0.28-0.09-0.43-0.08c-0.25,0.03-0.48,0.14-0.66,0.31l-5.28,4.75c-0.08,0.06-0.15,0.14-0.22,0.22
			c-0.05,0.06-0.09,0.12-0.13,0.18c-0.18,0.28-0.33,0.59-0.43,0.91v0.22l0,0c-0.09,0.29-0.12,0.6-0.1,0.91l0.7,5.28
			c0.06,0.93-0.19,1.85-0.71,2.62c-0.84,1.16-1.66,2.37-2.35,3.61c-0.29,0.44-0.7,0.8-1.18,1.03c-0.15,0.07-0.3,0.14-0.46,0.18
			h-0.23h-0.33h-3.59h-0.08h-0.3h-0.25l0,0c-0.1,0.03-0.2,0.07-0.28,0.13c-0.18,0.1-0.34,0.21-0.5,0.35
			c-0.23,0.22-0.41,0.48-0.53,0.78l-2.86,7.76c-0.25,0.68,0.04,1.44,0.68,1.79l4.14,2.02c0.16,0.32,0.21,0.69,0.15,1.04
			c-0.19,1.21-0.32,2.42-0.38,3.64c-0.08,0.93-0.44,1.81-1.04,2.52l0,0l-4.59,4.82c-0.09,0.09-0.16,0.18-0.23,0.28l0,0
			c-0.07,0.1-0.13,0.22-0.18,0.33c-0.27,0.57-0.36,1.21-0.25,1.84l1.29,5.31c0.06,0.29,0.23,0.55,0.48,0.71l6.08,2.98
			c-0.24-0.16-0.41-0.41-0.46-0.7l-1.42-4.87c-0.07-0.34-0.07-0.7,0-1.04c0.09-0.54,0.32-1.04,0.68-1.46l4.59-4.8l0,0
			c0.6-0.71,0.97-1.59,1.04-2.52c0.06-1.22,0.19-2.44,0.4-3.64c0.12-0.83-0.36-1.64-1.14-1.94l-2.98-1.04
			c-0.75-0.26-1.15-1.08-0.88-1.83c0-0.01,0-0.01,0.01-0.02l2.88-7.78c0.11-0.29,0.29-0.56,0.51-0.78c0.39-0.38,0.91-0.6,1.46-0.63
			h3.61c0.35-0.01,0.7-0.1,1.01-0.26c0.48-0.23,0.88-0.59,1.18-1.03c0.73-1.24,1.52-2.45,2.35-3.59c0.53-0.77,0.78-1.7,0.7-2.63
			l-0.68-5.28c-0.03-0.31,0-0.63,0.08-0.93c0.12-0.57,0.41-1.1,0.83-1.51l5.28-4.75c0.28-0.3,0.72-0.4,1.09-0.23L728.1,49.06z
			 M723.45,105.91c0.18-0.84-0.09-1.72-0.73-2.3c-0.37-0.35-0.72-0.73-1.04-1.13c-0.47-0.64-1.36-0.78-2-0.31l-2.7,2.04l-1.66,5.68
			c-0.19,0.57,0.06,1.2,0.6,1.47l0,0l6.16,3.08c-0.54-0.28-0.79-0.91-0.6-1.49L723.45,105.91z"/>
		<path class="st6" d="M753.53,53.05L753.53,53.05c-0.34-0.16-0.74-0.1-1.03,0.15l-2.02,1.54l-0.4,1.29
			c-0.18,0.85,0.11,1.73,0.74,2.32c0.37,0.35,0.72,0.72,1.04,1.11c0.46,0.64,1.35,0.78,1.99,0.33c0.01,0,0.01-0.01,0.02-0.01
			l4.72-3.58c0.27-0.25,0.67-0.31,1.01-0.17L753.53,53.05z M747.17,71.7c-0.96-3.96-3.64-5.79-6.94-5.3
			c0.38,0.72,0.66,1.49,0.84,2.28c1.51,6.27-1.9,15.54-7.63,20.69c-1.69,1.68-3.83,2.83-6.16,3.31c2.27,4.12,7.32,4.19,12.25-0.25
			C745.25,87.22,748.68,77.95,747.17,71.7z M745.52,44.59L745.52,44.59c-0.13-0.06-0.26-0.1-0.4-0.13l-3.77-0.58
			c-0.85-0.11-1.68,0.34-2.05,1.11l-3.08,6.85c-0.18,0.36-0.43,0.68-0.73,0.94l0,0c-0.17,0.17-0.36,0.32-0.56,0.43l1.34,3.58
			c0.23,0.66,0.95,1,1.6,0.77c0.07-0.02,0.14-0.05,0.2-0.09c0.72-0.35,1.47-0.65,2.23-0.89c0.48-0.18,0.91-0.44,1.29-0.78
			c0.3-0.27,0.55-0.6,0.73-0.96l3.05-6.9c0.4-0.74,1.2-1.16,2.04-1.06l3.77,0.6c0.13,0.01,0.26,0.05,0.38,0.1L745.52,44.59z
			 M739.27,109.78c-0.18-0.14-0.32-0.33-0.38-0.55l-1.54-4.09c-0.23-0.66-0.96-1.02-1.62-0.78c-0.07,0.02-0.13,0.05-0.2,0.09
			c-0.72,0.36-1.47,0.66-2.23,0.91c-0.25,0.08-0.48,0.2-0.7,0.35l0.2,0.53c0.09,0.26,0.27,0.48,0.51,0.61l0,0L739.27,109.78z
			 M728.1,49.06c-0.14-0.06-0.28-0.09-0.43-0.08c-0.25,0.03-0.48,0.14-0.66,0.31l-5.28,4.75c-0.08,0.06-0.15,0.14-0.22,0.22
			c-0.05,0.06-0.09,0.12-0.13,0.18c-0.18,0.28-0.33,0.59-0.43,0.91v0.22l0,0c-0.09,0.29-0.12,0.6-0.1,0.91l0.7,5.28
			c0.06,0.93-0.19,1.85-0.71,2.62c-0.84,1.16-1.66,2.37-2.35,3.61c-0.29,0.44-0.7,0.8-1.18,1.03c-0.15,0.07-0.3,0.14-0.46,0.18
			h-0.23h-0.33h-3.59h-0.08h-0.3h-0.25l0,0c-0.1,0.03-0.2,0.07-0.28,0.13c-0.18,0.1-0.34,0.21-0.5,0.35
			c-0.23,0.22-0.41,0.48-0.53,0.78l-2.86,7.76c-0.25,0.68,0.04,1.44,0.68,1.79l4.14,2.02c0.16,0.32,0.21,0.69,0.15,1.04
			c-0.19,1.21-0.32,2.42-0.38,3.64c-0.08,0.93-0.44,1.81-1.04,2.52l0,0l-4.59,4.82c-0.09,0.09-0.16,0.18-0.23,0.28l0,0
			c-0.07,0.1-0.13,0.22-0.18,0.33c-0.27,0.57-0.36,1.21-0.25,1.84l1.29,5.31c0.06,0.29,0.23,0.55,0.48,0.71l6.08,2.98
			c-0.24-0.16-0.41-0.41-0.46-0.7l-1.42-4.87c-0.07-0.34-0.07-0.7,0-1.04c0.09-0.54,0.32-1.04,0.68-1.46l4.59-4.8l0,0
			c0.6-0.71,0.97-1.59,1.04-2.52c0.06-1.22,0.19-2.44,0.4-3.64c0.12-0.83-0.36-1.64-1.14-1.94l-2.98-1.04
			c-0.75-0.26-1.15-1.08-0.88-1.83c0-0.01,0-0.01,0.01-0.02l2.88-7.78c0.11-0.29,0.29-0.56,0.51-0.78c0.39-0.38,0.91-0.6,1.46-0.63
			h3.61c0.35-0.01,0.7-0.1,1.01-0.26c0.48-0.23,0.88-0.59,1.18-1.03c0.73-1.24,1.52-2.45,2.35-3.59c0.53-0.77,0.78-1.7,0.7-2.63
			l-0.68-5.28c-0.03-0.31,0-0.63,0.08-0.93c0.12-0.57,0.41-1.1,0.83-1.51l5.28-4.75c0.28-0.3,0.72-0.4,1.09-0.23L728.1,49.06z
			 M723.45,105.91c0.18-0.84-0.09-1.72-0.73-2.3c-0.37-0.35-0.72-0.73-1.04-1.13c-0.47-0.64-1.36-0.78-2-0.31l-2.7,2.04l-1.66,5.68
			c-0.19,0.57,0.06,1.2,0.6,1.47l0,0l6.16,3.08c-0.54-0.28-0.79-0.91-0.6-1.49L723.45,105.91z"/>
		<path class="st7" d="M753.53,53.05L753.53,53.05c-0.34-0.16-0.74-0.1-1.03,0.15l-2.02,1.54l-0.4,1.29
			c-0.18,0.85,0.11,1.73,0.74,2.32c0.37,0.35,0.72,0.72,1.04,1.11c0.46,0.64,1.35,0.78,1.99,0.33c0.01,0,0.01-0.01,0.02-0.01
			l4.72-3.58c0.27-0.25,0.67-0.31,1.01-0.17L753.53,53.05z M747.17,71.7c-0.96-3.96-3.64-5.79-6.94-5.3
			c0.38,0.72,0.66,1.49,0.84,2.28c1.51,6.27-1.9,15.54-7.63,20.69c-1.69,1.68-3.83,2.83-6.16,3.31c2.27,4.12,7.32,4.19,12.25-0.25
			C745.25,87.22,748.68,77.95,747.17,71.7z M745.52,44.59L745.52,44.59c-0.13-0.06-0.26-0.1-0.4-0.13l-3.77-0.58
			c-0.85-0.11-1.68,0.34-2.05,1.11l-3.08,6.85c-0.18,0.36-0.43,0.68-0.73,0.94l0,0c-0.17,0.17-0.36,0.32-0.56,0.43l1.34,3.58
			c0.23,0.66,0.95,1,1.6,0.77c0.07-0.02,0.14-0.05,0.2-0.09c0.72-0.35,1.47-0.65,2.23-0.89c0.48-0.18,0.91-0.44,1.29-0.78
			c0.3-0.27,0.55-0.6,0.73-0.96l3.05-6.9c0.4-0.74,1.2-1.16,2.04-1.06l3.77,0.6c0.13,0.01,0.26,0.05,0.38,0.1L745.52,44.59z
			 M739.27,109.78c-0.18-0.14-0.32-0.33-0.38-0.55l-1.54-4.09c-0.23-0.66-0.96-1.02-1.62-0.78c-0.07,0.02-0.13,0.05-0.2,0.09
			c-0.72,0.36-1.47,0.66-2.23,0.91c-0.25,0.08-0.48,0.2-0.7,0.35l0.2,0.53c0.09,0.26,0.27,0.48,0.51,0.61l0,0L739.27,109.78z
			 M728.1,49.06c-0.14-0.06-0.28-0.09-0.43-0.08c-0.25,0.03-0.48,0.14-0.66,0.31l-5.28,4.75c-0.08,0.06-0.15,0.14-0.22,0.22
			c-0.05,0.06-0.09,0.12-0.13,0.18c-0.18,0.28-0.33,0.59-0.43,0.91v0.22l0,0c-0.09,0.29-0.12,0.6-0.1,0.91l0.7,5.28
			c0.06,0.93-0.19,1.85-0.71,2.62c-0.84,1.16-1.66,2.37-2.35,3.61c-0.29,0.44-0.7,0.8-1.18,1.03c-0.15,0.07-0.3,0.14-0.46,0.18
			h-0.23h-0.33h-3.59h-0.08h-0.3h-0.25l0,0c-0.1,0.03-0.2,0.07-0.28,0.13c-0.18,0.1-0.34,0.21-0.5,0.35
			c-0.23,0.22-0.41,0.48-0.53,0.78l-2.86,7.76c-0.25,0.68,0.04,1.44,0.68,1.79l4.14,2.02c0.16,0.32,0.21,0.69,0.15,1.04
			c-0.19,1.21-0.32,2.42-0.38,3.64c-0.08,0.93-0.44,1.81-1.04,2.52l0,0l-4.59,4.82c-0.09,0.09-0.16,0.18-0.23,0.28l0,0
			c-0.07,0.1-0.13,0.22-0.18,0.33c-0.27,0.57-0.36,1.21-0.25,1.84l1.29,5.31c0.06,0.29,0.23,0.55,0.48,0.71l6.08,2.98
			c-0.24-0.16-0.41-0.41-0.46-0.7l-1.42-4.87c-0.07-0.34-0.07-0.7,0-1.04c0.09-0.54,0.32-1.04,0.68-1.46l4.59-4.8l0,0
			c0.6-0.71,0.97-1.59,1.04-2.52c0.06-1.22,0.19-2.44,0.4-3.64c0.12-0.83-0.36-1.64-1.14-1.94l-2.98-1.04
			c-0.75-0.26-1.15-1.08-0.88-1.83c0-0.01,0-0.01,0.01-0.02l2.88-7.78c0.11-0.29,0.29-0.56,0.51-0.78c0.39-0.38,0.91-0.6,1.46-0.63
			h3.61c0.35-0.01,0.7-0.1,1.01-0.26c0.48-0.23,0.88-0.59,1.18-1.03c0.73-1.24,1.52-2.45,2.35-3.59c0.53-0.77,0.78-1.7,0.7-2.63
			l-0.68-5.28c-0.03-0.31,0-0.63,0.08-0.93c0.12-0.57,0.41-1.1,0.83-1.51l5.28-4.75c0.28-0.3,0.72-0.4,1.09-0.23L728.1,49.06z
			 M723.45,105.91c0.18-0.84-0.09-1.72-0.73-2.3c-0.37-0.35-0.72-0.73-1.04-1.13c-0.47-0.64-1.36-0.78-2-0.31l-2.7,2.04l-1.66,5.68
			c-0.19,0.57,0.06,1.2,0.6,1.47l0,0l6.16,3.08c-0.54-0.28-0.79-0.91-0.6-1.49L723.45,105.91z"/>
		<path class="st2" d="M717.41,92.63l-4.59,4.8c-0.36,0.41-0.59,0.92-0.68,1.46l-6.08-2.98c0.05-0.28,0.13-0.55,0.23-0.81
			c0.05-0.12,0.11-0.23,0.18-0.33l0,0c0.07-0.1,0.15-0.2,0.23-0.28l4.59-4.82L717.41,92.63z"/>
		<path class="st2" d="M723.37,72.05c-0.31,0.16-0.66,0.26-1.01,0.26h-3.61c-0.55,0.03-1.06,0.25-1.46,0.63l-6.08-2.9
			c0.15-0.13,0.32-0.25,0.5-0.35c0.09-0.06,0.18-0.11,0.28-0.13l0,0h0.25h0.3h0.08h3.59h0.33h0.23c0.15,0,0.3-0.13,0.45-0.2l0,0
			L723.37,72.05z"/>
		<path class="st2" d="M759.65,56.03c-0.34-0.13-0.73-0.06-1.01,0.18l-4.72,3.58c-0.63,0.47-1.52,0.33-1.99-0.3
			c0-0.01-0.01-0.01-0.01-0.02c-0.32-0.4-0.67-0.77-1.04-1.11c-0.64-0.59-0.92-1.47-0.74-2.32l0.4-1.29l2.02-1.54
			c0.27-0.25,0.67-0.31,1.01-0.17l0,0L759.65,56.03z"/>
		<path class="st2" d="M751.56,47.55c-0.12-0.05-0.25-0.09-0.38-0.1l-3.77-0.58c-0.85-0.1-1.67,0.35-2.05,1.11l-3.05,6.9
			c-0.18,0.36-0.43,0.69-0.73,0.96l-6.09-3.01c0.3-0.27,0.55-0.59,0.73-0.94l3.05-6.9c0.38-0.77,1.2-1.22,2.05-1.11l3.77,0.58
			c0.14,0.03,0.27,0.08,0.4,0.13l0,0L751.56,47.55z"/>
		<path class="st2" d="M734.19,52.1c-0.38-0.16-0.82-0.07-1.09,0.23l-5.28,4.75c-0.42,0.41-0.71,0.93-0.83,1.51l-6.09-2.98V55.4
			c0.1-0.32,0.25-0.63,0.43-0.91c0.04-0.06,0.08-0.12,0.13-0.18c0.06-0.08,0.14-0.15,0.22-0.22l5.36-4.75
			c0.18-0.18,0.41-0.29,0.66-0.31c0.15-0.01,0.3,0.02,0.43,0.08L734.19,52.1z"/>
		<path class="st8" d="M717.41,92.63l-4.59,4.8c-0.36,0.41-0.59,0.92-0.68,1.46l-6.08-2.98c0.05-0.28,0.13-0.55,0.23-0.81
			c0.05-0.12,0.11-0.23,0.18-0.33l0,0c0.07-0.1,0.15-0.2,0.23-0.28l4.59-4.82L717.41,92.63z"/>
		<path class="st8" d="M723.37,72.05c-0.31,0.16-0.66,0.26-1.01,0.26h-3.61c-0.55,0.03-1.06,0.25-1.46,0.63l-6.08-2.9
			c0.15-0.13,0.32-0.25,0.5-0.35c0.09-0.06,0.18-0.11,0.28-0.13l0,0h0.25h0.3h0.08h3.59h0.33h0.23c0.15,0,0.3-0.13,0.45-0.2l0,0
			L723.37,72.05z"/>
		<path class="st8" d="M759.65,56.03c-0.34-0.13-0.73-0.06-1.01,0.18l-4.72,3.58c-0.63,0.47-1.52,0.33-1.99-0.3
			c0-0.01-0.01-0.01-0.01-0.02c-0.32-0.4-0.67-0.77-1.04-1.11c-0.64-0.59-0.92-1.47-0.74-2.32l0.4-1.29l2.02-1.54
			c0.27-0.25,0.67-0.31,1.01-0.17l0,0L759.65,56.03z"/>
		<path class="st8" d="M751.56,47.55c-0.12-0.05-0.25-0.09-0.38-0.1l-3.77-0.58c-0.85-0.1-1.67,0.35-2.05,1.11l-3.05,6.9
			c-0.18,0.36-0.43,0.69-0.73,0.96l-6.09-3.01c0.3-0.27,0.55-0.59,0.73-0.94l3.05-6.9c0.38-0.77,1.2-1.22,2.05-1.11l3.77,0.58
			c0.14,0.03,0.27,0.08,0.4,0.13l0,0L751.56,47.55z"/>
		<path class="st8" d="M734.19,52.1c-0.38-0.16-0.82-0.07-1.09,0.23l-5.28,4.75c-0.42,0.41-0.71,0.93-0.83,1.51l-6.09-2.98V55.4
			c0.1-0.32,0.25-0.63,0.43-0.91c0.04-0.06,0.08-0.12,0.13-0.18c0.06-0.08,0.14-0.15,0.22-0.22l5.36-4.75
			c0.18-0.18,0.41-0.29,0.66-0.31c0.15-0.01,0.3,0.02,0.43,0.08L734.19,52.1z"/>
		<path class="st2" d="M761.44,62.09l-1.29-5.28c-0.05-0.49-0.48-0.85-0.97-0.81c-0.21,0.02-0.4,0.11-0.55,0.26l-4.72,3.58
			c-0.63,0.47-1.52,0.33-1.99-0.3c0-0.01-0.01-0.01-0.01-0.02c-0.32-0.39-0.67-0.76-1.04-1.11c-0.63-0.59-0.91-1.47-0.74-2.32
			l2.07-6.97c0.23-0.66-0.12-1.37-0.78-1.6c-0.08-0.03-0.16-0.05-0.24-0.06l-3.76-0.6c-0.85-0.1-1.67,0.35-2.05,1.11l-3.05,6.9
			c-0.44,0.78-1.16,1.37-2,1.66c-0.77,0.26-1.52,0.56-2.25,0.91c-0.61,0.34-1.37,0.13-1.71-0.48c-0.04-0.06-0.07-0.13-0.09-0.2
			l-1.54-4.09c-0.09-0.5-0.57-0.84-1.07-0.76c-0.23,0.04-0.44,0.17-0.58,0.36l-5.28,4.75c-0.64,0.64-0.97,1.53-0.91,2.43l0.7,5.28
			c0.06,0.93-0.19,1.86-0.71,2.63c-0.83,1.14-1.66,2.35-2.35,3.59c-0.49,0.75-1.31,1.23-2.2,1.29h-3.59
			c-0.87,0.06-1.63,0.6-1.97,1.41l-2.81,7.96c-0.28,0.74,0.09,1.58,0.83,1.86c0.01,0,0.02,0.01,0.03,0.01l2.98,1.04
			c0.78,0.3,1.24,1.1,1.13,1.92c-0.19,1.21-0.32,2.43-0.38,3.66c-0.08,0.93-0.44,1.81-1.04,2.52l-4.64,4.87
			c-0.59,0.69-0.84,1.61-0.68,2.5l1.29,5.31c0.03,0.48,0.45,0.85,0.94,0.81c0.22-0.02,0.42-0.11,0.57-0.27l4.73-3.58
			c0.64-0.46,1.53-0.32,2,0.31c0.32,0.4,0.67,0.77,1.04,1.13c0.64,0.58,0.91,1.46,0.73,2.3l-2.07,6.97
			c-0.23,0.65,0.1,1.36,0.75,1.59c0.1,0.03,0.19,0.06,0.29,0.07l3.77,0.58c0.85,0.11,1.67-0.34,2.04-1.11l3.06-6.9
			c0.45-0.77,1.16-1.36,2-1.66c0.77-0.26,1.52-0.56,2.25-0.91c0.62-0.33,1.39-0.1,1.73,0.52c0.03,0.06,0.06,0.12,0.08,0.18
			l1.54,4.09c0.09,0.5,0.58,0.83,1.08,0.74c0.23-0.04,0.43-0.17,0.57-0.36l5.28-4.75c0.64-0.64,0.97-1.53,0.89-2.43l-0.68-5.28
			c-0.06-0.92,0.18-1.84,0.7-2.62c0.84-1.16,1.66-2.37,2.37-3.61c0.49-0.74,1.3-1.22,2.19-1.29h3.61c0.9-0.1,1.67-0.72,1.94-1.59
			l2.86-7.78c0.28-0.76-0.11-1.59-0.87-1.87c0,0-0.01,0-0.01,0l-2.98-1.04c-0.77-0.3-1.24-1.1-1.13-1.92
			c0.2-1.21,0.33-2.42,0.4-3.64c0.08-0.93,0.44-1.82,1.04-2.53l4.64-4.87C761.39,63.91,761.63,62.98,761.44,62.09z M739.54,92.36
			c-5.73,5.15-11.59,4.24-13.11-2.04c-1.52-6.27,1.9-15.53,7.63-20.68c5.73-5.15,11.59-4.25,13.11,2.02
			C748.69,77.95,745.25,87.22,739.54,92.36z"/>
		<path class="st9" d="M761.44,62.09l-1.29-5.28c-0.05-0.49-0.48-0.85-0.97-0.81c-0.21,0.02-0.4,0.11-0.55,0.26l-4.72,3.58
			c-0.63,0.47-1.52,0.33-1.99-0.3c0-0.01-0.01-0.01-0.01-0.02c-0.32-0.39-0.67-0.76-1.04-1.11c-0.63-0.59-0.91-1.47-0.74-2.32
			l2.07-6.97c0.23-0.66-0.12-1.37-0.78-1.6c-0.08-0.03-0.16-0.05-0.24-0.06l-3.76-0.6c-0.85-0.1-1.67,0.35-2.05,1.11l-3.05,6.9
			c-0.44,0.78-1.16,1.37-2,1.66c-0.77,0.26-1.52,0.56-2.25,0.91c-0.61,0.34-1.37,0.13-1.71-0.48c-0.04-0.06-0.07-0.13-0.09-0.2
			l-1.54-4.09c-0.09-0.5-0.57-0.84-1.07-0.76c-0.23,0.04-0.44,0.17-0.58,0.36l-5.28,4.75c-0.64,0.64-0.97,1.53-0.91,2.43l0.7,5.28
			c0.06,0.93-0.19,1.86-0.71,2.63c-0.83,1.14-1.66,2.35-2.35,3.59c-0.49,0.75-1.31,1.23-2.2,1.29h-3.59
			c-0.87,0.06-1.63,0.6-1.97,1.41l-2.81,7.96c-0.28,0.74,0.09,1.58,0.83,1.86c0.01,0,0.02,0.01,0.03,0.01l2.98,1.04
			c0.78,0.3,1.24,1.1,1.13,1.92c-0.19,1.21-0.32,2.43-0.38,3.66c-0.08,0.93-0.44,1.81-1.04,2.52l-4.64,4.87
			c-0.59,0.69-0.84,1.61-0.68,2.5l1.29,5.31c0.03,0.48,0.45,0.85,0.94,0.81c0.22-0.02,0.42-0.11,0.57-0.27l4.73-3.58
			c0.64-0.46,1.53-0.32,2,0.31c0.32,0.4,0.67,0.77,1.04,1.13c0.64,0.58,0.91,1.46,0.73,2.3l-2.07,6.97
			c-0.23,0.65,0.1,1.36,0.75,1.59c0.1,0.03,0.19,0.06,0.29,0.07l3.77,0.58c0.85,0.11,1.67-0.34,2.04-1.11l3.06-6.9
			c0.45-0.77,1.16-1.36,2-1.66c0.77-0.26,1.52-0.56,2.25-0.91c0.62-0.33,1.39-0.1,1.73,0.52c0.03,0.06,0.06,0.12,0.08,0.18
			l1.54,4.09c0.09,0.5,0.58,0.83,1.08,0.74c0.23-0.04,0.43-0.17,0.57-0.36l5.28-4.75c0.64-0.64,0.97-1.53,0.89-2.43l-0.68-5.28
			c-0.06-0.92,0.18-1.84,0.7-2.62c0.84-1.16,1.66-2.37,2.37-3.61c0.49-0.74,1.3-1.22,2.19-1.29h3.61c0.9-0.1,1.67-0.72,1.94-1.59
			l2.86-7.78c0.28-0.76-0.11-1.59-0.87-1.87c0,0-0.01,0-0.01,0l-2.98-1.04c-0.77-0.3-1.24-1.1-1.13-1.92
			c0.2-1.21,0.33-2.42,0.4-3.64c0.08-0.93,0.44-1.82,1.04-2.53l4.64-4.87C761.39,63.91,761.63,62.98,761.44,62.09z M739.54,92.36
			c-5.73,5.15-11.59,4.24-13.11-2.04c-1.52-6.27,1.9-15.53,7.63-20.68c5.73-5.15,11.59-4.25,13.11,2.02
			C748.69,77.95,745.25,87.22,739.54,92.36z"/>
		<path class="st2" d="M688.49,70.05L688.49,70.05c-0.47-0.22-1.03-0.14-1.41,0.22l-2.78,2.1l-0.53,1.8
			c-0.26,1.16,0.13,2.38,1.01,3.18c0.51,0.48,0.99,0.99,1.42,1.54c0.65,0.89,1.89,1.08,2.78,0.43c0,0,0,0,0.01,0l6.51-4.97
			c0.37-0.34,0.91-0.43,1.37-0.23L688.49,70.05z M679.66,95.71c-1.31-5.45-4.97-7.96-9.54-7.28c0.51,1,0.9,2.06,1.16,3.16
			c2.09,8.62-2.63,21.39-10.53,28.49c-2.33,2.28-5.27,3.83-8.46,4.47c3.11,5.68,10.06,5.78,16.87-0.35
			c7.88-7.04,12.58-19.8,10.5-28.44V95.71z M677.38,58.46L677.38,58.46c-0.17-0.09-0.36-0.15-0.55-0.18l-5.2-0.81
			c-1.17-0.14-2.3,0.48-2.81,1.54l-4.22,9.5c-0.24,0.49-0.58,0.93-0.99,1.29l0,0c-0.23,0.24-0.49,0.44-0.78,0.61l1.84,4.97
			c0.32,0.91,1.31,1.38,2.22,1.06c0.09-0.03,0.18-0.07,0.27-0.12c1-0.49,2.03-0.91,3.1-1.24c0.65-0.25,1.25-0.61,1.77-1.08
			c0.41-0.37,0.75-0.81,0.99-1.31l4.2-9.52c0.53-1.05,1.65-1.66,2.81-1.54l5.21,0.83c0.18,0.02,0.36,0.07,0.53,0.15L677.38,58.46z
			 M668.82,148.35c-0.25-0.19-0.43-0.45-0.53-0.74l-2.12-5.64c-0.25-0.88-1.16-1.39-2.04-1.14c-0.16,0.04-0.3,0.11-0.44,0.2
			c-1,0.49-2.03,0.91-3.1,1.26c-0.34,0.11-0.66,0.27-0.96,0.48l0.28,0.71c0.1,0.37,0.36,0.68,0.71,0.84l0,0L668.82,148.35z
			 M653.42,64.72c-0.18-0.08-0.38-0.12-0.58-0.12c-0.34,0.04-0.66,0.19-0.91,0.43l-7.28,6.62c-0.1,0.1-0.2,0.2-0.28,0.31
			c-0.07,0.07-0.13,0.15-0.18,0.23c-0.26,0.39-0.46,0.81-0.6,1.26c0.01,0.1,0.01,0.2,0,0.3l0,0c-0.11,0.41-0.15,0.84-0.12,1.26
			l0.94,7.27c0.08,1.28-0.26,2.55-0.96,3.63c-1.19,1.6-2.29,3.26-3.31,4.97c-0.39,0.63-0.97,1.12-1.66,1.41
			c-0.2,0.11-0.42,0.19-0.65,0.25l-0.33,0.08c-0.14,0.02-0.29,0.02-0.43,0l-4.97,0.08h-0.13c-0.13-0.02-0.27-0.02-0.4,0l-0.35,0.1
			l0,0c-0.14,0.05-0.26,0.12-0.38,0.2c-0.25,0.14-0.48,0.3-0.7,0.48c-0.31,0.3-0.56,0.66-0.73,1.06l-3.94,10.71
			c-0.35,0.94,0.05,1.99,0.94,2.45l5.69,2.8c0.2,0.45,0.28,0.94,0.22,1.42c-0.26,1.65-0.44,3.3-0.53,4.97
			c-0.1,1.28-0.61,2.5-1.44,3.48l0,0l-6.32,6.62c-0.12,0.11-0.22,0.24-0.3,0.38l0,0c-0.09,0.15-0.17,0.3-0.23,0.46
			c-0.39,0.78-0.51,1.66-0.35,2.52l1.79,7.33c0.07,0.4,0.3,0.75,0.65,0.98l8.36,4.11c-0.33-0.22-0.55-0.56-0.63-0.94l-1.92-7.2
			c-0.1-0.47-0.1-0.97,0-1.44c0.12-0.74,0.44-1.43,0.93-2l6.31-6.62l0,0c0.82-0.99,1.32-2.2,1.44-3.48
			c0.08-1.66,0.26-3.32,0.53-4.97c0.16-1.14-0.49-2.24-1.56-2.67l-4.09-1.42c-1.04-0.36-1.59-1.51-1.23-2.55c0,0,0-0.01,0.01-0.01
			l3.96-10.71c0.15-0.41,0.4-0.77,0.73-1.06c0.53-0.53,1.24-0.84,1.99-0.88l4.97-0.08c0.49-0.03,0.97-0.15,1.41-0.38
			c0.68-0.31,1.25-0.8,1.66-1.42c1.01-1.66,2.1-3.31,3.31-4.97c0.72-1.06,1.06-2.33,0.96-3.61l-0.93-7.27
			c-0.05-0.43-0.02-0.86,0.1-1.27c0.17-0.79,0.57-1.52,1.14-2.09l7.28-6.62c0.38-0.42,0.99-0.55,1.51-0.33L653.42,64.72z
			 M647.03,143.04c0.24-1.17-0.14-2.38-1.01-3.19c-0.52-0.47-1-0.98-1.42-1.54c-0.65-0.88-1.89-1.07-2.78-0.43l-3.71,2.81
			l-2.32,7.81c-0.28,0.79,0.08,1.66,0.83,2.04l0,0l8.41,4.14c-0.76-0.37-1.12-1.26-0.83-2.05L647.03,143.04z"/>
		<path class="st6" d="M688.49,70.05L688.49,70.05c-0.47-0.22-1.03-0.14-1.41,0.22l-2.78,2.1l-0.53,1.8
			c-0.26,1.16,0.13,2.38,1.01,3.18c0.51,0.48,0.99,0.99,1.42,1.54c0.65,0.89,1.89,1.08,2.78,0.43c0,0,0,0,0.01,0l6.51-4.97
			c0.37-0.34,0.91-0.43,1.37-0.23L688.49,70.05z M679.66,95.71c-1.31-5.45-4.97-7.96-9.54-7.28c0.51,1,0.9,2.06,1.16,3.16
			c2.09,8.62-2.63,21.39-10.53,28.49c-2.33,2.28-5.27,3.83-8.46,4.47c3.11,5.68,10.06,5.78,16.87-0.35
			c7.88-7.04,12.58-19.8,10.5-28.44V95.71z M677.38,58.46L677.38,58.46c-0.17-0.09-0.36-0.15-0.55-0.18l-5.2-0.81
			c-1.17-0.14-2.3,0.48-2.81,1.54l-4.22,9.5c-0.24,0.49-0.58,0.93-0.99,1.29l0,0c-0.23,0.24-0.49,0.44-0.78,0.61l1.84,4.97
			c0.32,0.91,1.31,1.38,2.22,1.06c0.09-0.03,0.18-0.07,0.27-0.12c1-0.49,2.03-0.91,3.1-1.24c0.65-0.25,1.25-0.61,1.77-1.08
			c0.41-0.37,0.75-0.81,0.99-1.31l4.2-9.52c0.53-1.05,1.65-1.66,2.81-1.54l5.21,0.83c0.18,0.02,0.36,0.07,0.53,0.15L677.38,58.46z
			 M668.82,148.35c-0.25-0.19-0.43-0.45-0.53-0.74l-2.12-5.64c-0.25-0.88-1.16-1.39-2.04-1.14c-0.16,0.04-0.3,0.11-0.44,0.2
			c-1,0.49-2.03,0.91-3.1,1.26c-0.34,0.11-0.66,0.27-0.96,0.48l0.28,0.71c0.1,0.37,0.36,0.68,0.71,0.84l0,0L668.82,148.35z
			 M653.42,64.72c-0.18-0.08-0.38-0.12-0.58-0.12c-0.34,0.04-0.66,0.19-0.91,0.43l-7.28,6.62c-0.1,0.1-0.2,0.2-0.28,0.31
			c-0.07,0.07-0.13,0.15-0.18,0.23c-0.26,0.39-0.46,0.81-0.6,1.26c0.01,0.1,0.01,0.2,0,0.3l0,0c-0.11,0.41-0.15,0.84-0.12,1.26
			l0.94,7.27c0.08,1.28-0.26,2.55-0.96,3.63c-1.19,1.6-2.29,3.26-3.31,4.97c-0.39,0.63-0.97,1.12-1.66,1.41
			c-0.2,0.11-0.42,0.19-0.65,0.25l-0.33,0.08c-0.14,0.02-0.29,0.02-0.43,0l-4.97,0.08h-0.13c-0.13-0.02-0.27-0.02-0.4,0l-0.35,0.1
			l0,0c-0.14,0.05-0.26,0.12-0.38,0.2c-0.25,0.14-0.48,0.3-0.7,0.48c-0.31,0.3-0.56,0.66-0.73,1.06l-3.94,10.71
			c-0.35,0.94,0.05,1.99,0.94,2.45l5.69,2.8c0.2,0.45,0.28,0.94,0.22,1.42c-0.26,1.65-0.44,3.3-0.53,4.97
			c-0.1,1.28-0.61,2.5-1.44,3.48l0,0l-6.32,6.62c-0.12,0.11-0.22,0.24-0.3,0.38l0,0c-0.09,0.15-0.17,0.3-0.23,0.46
			c-0.39,0.78-0.51,1.66-0.35,2.52l1.79,7.33c0.07,0.4,0.3,0.75,0.65,0.98l8.36,4.11c-0.33-0.22-0.55-0.56-0.63-0.94l-1.92-7.2
			c-0.1-0.47-0.1-0.97,0-1.44c0.12-0.74,0.44-1.43,0.93-2l6.31-6.62l0,0c0.82-0.99,1.32-2.2,1.44-3.48
			c0.08-1.66,0.26-3.32,0.53-4.97c0.16-1.14-0.49-2.24-1.56-2.67l-4.09-1.42c-1.04-0.36-1.59-1.51-1.23-2.55c0,0,0-0.01,0.01-0.01
			l3.96-10.71c0.15-0.41,0.4-0.77,0.73-1.06c0.53-0.53,1.24-0.84,1.99-0.88l4.97-0.08c0.49-0.03,0.97-0.15,1.41-0.38
			c0.68-0.31,1.25-0.8,1.66-1.42c1.01-1.66,2.1-3.31,3.31-4.97c0.72-1.06,1.06-2.33,0.96-3.61l-0.93-7.27
			c-0.05-0.43-0.02-0.86,0.1-1.27c0.17-0.79,0.57-1.52,1.14-2.09l7.28-6.62c0.38-0.42,0.99-0.55,1.51-0.33L653.42,64.72z
			 M647.03,143.04c0.24-1.17-0.14-2.38-1.01-3.19c-0.52-0.47-1-0.98-1.42-1.54c-0.65-0.88-1.89-1.07-2.78-0.43l-3.71,2.81
			l-2.32,7.81c-0.28,0.79,0.08,1.66,0.83,2.04l0,0l8.41,4.14c-0.76-0.37-1.12-1.26-0.83-2.05L647.03,143.04z"/>
		<path class="st7" d="M688.49,70.05L688.49,70.05c-0.47-0.22-1.03-0.14-1.41,0.22l-2.78,2.1l-0.53,1.8
			c-0.26,1.16,0.13,2.38,1.01,3.18c0.51,0.48,0.99,0.99,1.42,1.54c0.65,0.89,1.89,1.08,2.78,0.43c0,0,0,0,0.01,0l6.51-4.97
			c0.37-0.34,0.91-0.43,1.37-0.23L688.49,70.05z M679.66,95.71c-1.31-5.45-4.97-7.96-9.54-7.28c0.51,1,0.9,2.06,1.16,3.16
			c2.09,8.62-2.63,21.39-10.53,28.49c-2.33,2.28-5.27,3.83-8.46,4.47c3.11,5.68,10.06,5.78,16.87-0.35
			c7.88-7.04,12.58-19.8,10.5-28.44V95.71z M677.38,58.46L677.38,58.46c-0.17-0.09-0.36-0.15-0.55-0.18l-5.2-0.81
			c-1.17-0.14-2.3,0.48-2.81,1.54l-4.22,9.5c-0.24,0.49-0.58,0.93-0.99,1.29l0,0c-0.23,0.24-0.49,0.44-0.78,0.61l1.84,4.97
			c0.32,0.91,1.31,1.38,2.22,1.06c0.09-0.03,0.18-0.07,0.27-0.12c1-0.49,2.03-0.91,3.1-1.24c0.65-0.25,1.25-0.61,1.77-1.08
			c0.41-0.37,0.75-0.81,0.99-1.31l4.2-9.52c0.53-1.05,1.65-1.66,2.81-1.54l5.21,0.83c0.18,0.02,0.36,0.07,0.53,0.15L677.38,58.46z
			 M668.82,148.35c-0.25-0.19-0.43-0.45-0.53-0.74l-2.12-5.64c-0.25-0.88-1.16-1.39-2.04-1.14c-0.16,0.04-0.3,0.11-0.44,0.2
			c-1,0.49-2.03,0.91-3.1,1.26c-0.34,0.11-0.66,0.27-0.96,0.48l0.28,0.71c0.1,0.37,0.36,0.68,0.71,0.84l0,0L668.82,148.35z
			 M653.42,64.72c-0.18-0.08-0.38-0.12-0.58-0.12c-0.34,0.04-0.66,0.19-0.91,0.43l-7.28,6.62c-0.1,0.1-0.2,0.2-0.28,0.31
			c-0.07,0.07-0.13,0.15-0.18,0.23c-0.26,0.39-0.46,0.81-0.6,1.26c0.01,0.1,0.01,0.2,0,0.3l0,0c-0.11,0.41-0.15,0.84-0.12,1.26
			l0.94,7.27c0.08,1.28-0.26,2.55-0.96,3.63c-1.19,1.6-2.29,3.26-3.31,4.97c-0.39,0.63-0.97,1.12-1.66,1.41
			c-0.2,0.11-0.42,0.19-0.65,0.25l-0.33,0.08c-0.14,0.02-0.29,0.02-0.43,0l-4.97,0.08h-0.13c-0.13-0.02-0.27-0.02-0.4,0l-0.35,0.1
			l0,0c-0.14,0.05-0.26,0.12-0.38,0.2c-0.25,0.14-0.48,0.3-0.7,0.48c-0.31,0.3-0.56,0.66-0.73,1.06l-3.94,10.71
			c-0.35,0.94,0.05,1.99,0.94,2.45l5.69,2.8c0.2,0.45,0.28,0.94,0.22,1.42c-0.26,1.65-0.44,3.3-0.53,4.97
			c-0.1,1.28-0.61,2.5-1.44,3.48l0,0l-6.32,6.62c-0.12,0.11-0.22,0.24-0.3,0.38l0,0c-0.09,0.15-0.17,0.3-0.23,0.46
			c-0.39,0.78-0.51,1.66-0.35,2.52l1.79,7.33c0.07,0.4,0.3,0.75,0.65,0.98l8.36,4.11c-0.33-0.22-0.55-0.56-0.63-0.94l-1.92-7.2
			c-0.1-0.47-0.1-0.97,0-1.44c0.12-0.74,0.44-1.43,0.93-2l6.31-6.62l0,0c0.82-0.99,1.32-2.2,1.44-3.48
			c0.08-1.66,0.26-3.32,0.53-4.97c0.16-1.14-0.49-2.24-1.56-2.67l-4.09-1.42c-1.04-0.36-1.59-1.51-1.23-2.55c0,0,0-0.01,0.01-0.01
			l3.96-10.71c0.15-0.41,0.4-0.77,0.73-1.06c0.53-0.53,1.24-0.84,1.99-0.88l4.97-0.08c0.49-0.03,0.97-0.15,1.41-0.38
			c0.68-0.31,1.25-0.8,1.66-1.42c1.01-1.66,2.1-3.31,3.31-4.97c0.72-1.06,1.06-2.33,0.96-3.61l-0.93-7.27
			c-0.05-0.43-0.02-0.86,0.1-1.27c0.17-0.79,0.57-1.52,1.14-2.09l7.28-6.62c0.38-0.42,0.99-0.55,1.51-0.33L653.42,64.72z
			 M647.03,143.04c0.24-1.17-0.14-2.38-1.01-3.19c-0.52-0.47-1-0.98-1.42-1.54c-0.65-0.88-1.89-1.07-2.78-0.43l-3.71,2.81
			l-2.32,7.81c-0.28,0.79,0.08,1.66,0.83,2.04l0,0l8.41,4.14c-0.76-0.37-1.12-1.26-0.83-2.05L647.03,143.04z"/>
		<path class="st2" d="M638.66,124.68l-6.31,6.62c-0.49,0.57-0.81,1.26-0.93,2l-8.38-4.11c0.07-0.38,0.18-0.75,0.33-1.11
			c0.06-0.16,0.14-0.32,0.23-0.46l0,0c0.08-0.14,0.18-0.27,0.3-0.38l6.32-6.62L638.66,124.68z"/>
		<path class="st2" d="M646.89,96.27c-0.44,0.23-0.92,0.36-1.41,0.38l-4.97,0.08c-0.75,0.04-1.45,0.35-1.99,0.88l-8.39-4.14
			c0.21-0.18,0.45-0.35,0.7-0.48c0.12-0.08,0.25-0.15,0.38-0.2l0,0l0.35-0.1c0.13-0.02,0.27-0.02,0.4,0h0.13l4.97-0.08
			c0.14,0.02,0.29,0.02,0.43,0l0.33-0.08l0.63-0.25l0,0L646.89,96.27z"/>
		<path class="st2" d="M696.86,74.2c-0.47-0.18-1-0.09-1.37,0.25l-6.51,4.97c-0.89,0.64-2.13,0.44-2.78-0.45
			c-0.43-0.55-0.91-1.06-1.44-1.52c-0.88-0.81-1.26-2.03-0.99-3.19l0.53-1.77l2.78-2.12c0.39-0.34,0.93-0.43,1.41-0.23l0,0
			L696.86,74.2z"/>
		<path class="st2" d="M685.66,62.53c-0.17-0.08-0.35-0.13-0.53-0.15l-5.21-0.83c-1.17-0.12-2.29,0.49-2.81,1.54l-4.2,9.52
			c-0.24,0.5-0.58,0.94-0.99,1.31l-8.39-4.16c0.42-0.36,0.75-0.8,0.99-1.29l4.22-9.5c0.51-1.06,1.64-1.68,2.81-1.54l5.2,0.81
			c0.23,0.03,0.44,0.11,0.65,0.22l0,0L685.66,62.53z"/>
		<path class="st2" d="M661.8,68.79c-0.52-0.22-1.13-0.09-1.51,0.33l-7.28,6.62c-0.58,0.57-0.97,1.29-1.14,2.09l-8.39-4.12
			c0.01-0.1,0.01-0.2,0-0.3c0.14-0.45,0.34-0.87,0.6-1.26c0.05-0.08,0.11-0.16,0.18-0.23c0.08-0.11,0.18-0.22,0.28-0.31l7.28-6.62
			c0.25-0.24,0.57-0.39,0.91-0.43c0.2,0,0.4,0.03,0.58,0.12L661.8,68.79z"/>
		<path class="st8" d="M638.66,124.68l-6.31,6.62c-0.49,0.57-0.81,1.26-0.93,2l-8.38-4.11c0.07-0.38,0.18-0.75,0.33-1.11
			c0.06-0.16,0.14-0.32,0.23-0.46l0,0c0.08-0.14,0.18-0.27,0.3-0.38l6.32-6.62L638.66,124.68z"/>
		<path class="st8" d="M646.89,96.27c-0.44,0.23-0.92,0.36-1.41,0.38l-4.97,0.08c-0.75,0.04-1.45,0.35-1.99,0.88l-8.39-4.14
			c0.21-0.18,0.45-0.35,0.7-0.48c0.12-0.08,0.25-0.15,0.38-0.2l0,0l0.35-0.1c0.13-0.02,0.27-0.02,0.4,0h0.13l4.97-0.08
			c0.14,0.02,0.29,0.02,0.43,0l0.33-0.08l0.63-0.25l0,0L646.89,96.27z"/>
		<path class="st8" d="M696.86,74.2c-0.47-0.18-1-0.09-1.37,0.25l-6.51,4.97c-0.89,0.64-2.13,0.44-2.78-0.45
			c-0.43-0.55-0.91-1.06-1.44-1.52c-0.88-0.81-1.26-2.03-0.99-3.19l0.53-1.77l2.78-2.12c0.39-0.34,0.93-0.43,1.41-0.23l0,0
			L696.86,74.2z"/>
		<path class="st8" d="M685.66,62.53c-0.17-0.08-0.35-0.13-0.53-0.15l-5.21-0.83c-1.17-0.12-2.29,0.49-2.81,1.54l-4.2,9.52
			c-0.24,0.5-0.58,0.94-0.99,1.31l-8.39-4.16c0.42-0.36,0.75-0.8,0.99-1.29l4.22-9.5c0.51-1.06,1.64-1.68,2.81-1.54l5.2,0.81
			c0.23,0.03,0.44,0.11,0.65,0.22l0,0L685.66,62.53z"/>
		<path class="st8" d="M661.8,68.79c-0.52-0.22-1.13-0.09-1.51,0.33l-7.28,6.62c-0.58,0.57-0.97,1.29-1.14,2.09l-8.39-4.12
			c0.01-0.1,0.01-0.2,0-0.3c0.14-0.45,0.34-0.87,0.6-1.26c0.05-0.08,0.11-0.16,0.18-0.23c0.08-0.11,0.18-0.22,0.28-0.31l7.28-6.62
			c0.25-0.24,0.57-0.39,0.91-0.43c0.2,0,0.4,0.03,0.58,0.12L661.8,68.79z"/>
		<path class="st2" d="M699.33,82.53l-1.77-7.33c-0.07-0.67-0.67-1.17-1.34-1.1c-0.28,0.03-0.55,0.15-0.75,0.35l-6.49,4.97
			c-0.88,0.65-2.13,0.46-2.78-0.42c0,0,0,0,0-0.01c-0.44-0.55-0.91-1.06-1.42-1.54c-0.89-0.8-1.28-2.03-1.01-3.19l2.85-9.6
			c0.33-0.85-0.09-1.81-0.94-2.14c-0.15-0.06-0.32-0.1-0.48-0.11l-5.2-0.79c-1.17-0.14-2.3,0.47-2.81,1.52l-4.22,9.5
			c-0.59,1.12-1.57,1.97-2.76,2.38c-1.05,0.35-2.08,0.77-3.08,1.26c-0.85,0.47-1.92,0.16-2.38-0.69c-0.05-0.08-0.08-0.17-0.12-0.26
			l-2.14-5.68c-0.16-0.69-0.85-1.11-1.53-0.95c-0.26,0.06-0.49,0.2-0.67,0.4l-7.28,6.62c-0.87,0.87-1.32,2.08-1.24,3.31l0.94,7.28
			c0.08,1.28-0.26,2.54-0.96,3.61c-1.16,1.66-2.25,3.31-3.31,4.97c-0.67,1.03-1.79,1.69-3.01,1.79l-4.97,0.08
			c-1.2,0.08-2.25,0.82-2.73,1.92l-3.94,10.71c-0.39,1.02,0.12,2.16,1.13,2.54c0.02,0.01,0.04,0.01,0.06,0.02l4.11,1.44
			c1.07,0.42,1.72,1.52,1.56,2.67c-0.26,1.65-0.44,3.3-0.53,4.97c-0.1,1.28-0.61,2.5-1.44,3.48l-6.39,6.62
			c-0.8,0.95-1.14,2.2-0.93,3.43l1.77,7.35c0.07,0.67,0.68,1.16,1.35,1.08c0.28-0.03,0.54-0.16,0.73-0.35l6.51-4.97
			c0.88-0.65,2.11-0.46,2.75,0.42c0,0,0.01,0.01,0.01,0.01c0.44,0.55,0.92,1.07,1.44,1.54c0.87,0.81,1.25,2.02,1.01,3.18l-2.85,9.62
			c-0.33,0.85,0.09,1.81,0.94,2.14c0.15,0.06,0.32,0.1,0.48,0.11l5.2,0.79c1.17,0.14,2.3-0.48,2.81-1.54l4.2-9.49
			c0.6-1.11,1.59-1.96,2.78-2.38c1.05-0.35,2.08-0.77,3.08-1.26c0.85-0.47,1.92-0.16,2.38,0.69c0.05,0.08,0.08,0.17,0.12,0.26
			l2.1,5.64c0.18,0.69,0.88,1.1,1.57,0.93c0.25-0.06,0.47-0.2,0.64-0.4l7.28-6.62c0.86-0.88,1.31-2.08,1.24-3.31l-0.94-7.27
			c-0.09-1.28,0.24-2.55,0.96-3.61c1.16-1.66,2.25-3.31,3.31-4.97c0.67-1.03,1.79-1.69,3.01-1.79l4.97-0.08
			c1.2-0.07,2.26-0.82,2.71-1.94l3.96-10.71c0.38-1.01-0.12-2.14-1.13-2.52c-0.03-0.01-0.05-0.02-0.08-0.03l-4.09-1.44
			c-1.07-0.42-1.72-1.52-1.56-2.67c0.26-1.65,0.44-3.3,0.53-4.97c0.1-1.28,0.61-2.5,1.44-3.48l6.39-6.72
			C699.17,84.91,699.51,83.71,699.33,82.53z M669.1,124.25c-7.88,7.1-15.97,5.84-18.06-2.8c-2.09-8.64,2.63-21.4,10.51-28.49
			c7.88-7.09,15.97-5.84,18.06,2.8C681.7,104.4,677.05,117.16,669.1,124.25z"/>
		<path class="st9" d="M699.33,82.53l-1.77-7.33c-0.07-0.67-0.67-1.17-1.34-1.1c-0.28,0.03-0.55,0.15-0.75,0.35l-6.49,4.97
			c-0.88,0.65-2.13,0.46-2.78-0.42c0,0,0,0,0-0.01c-0.44-0.55-0.91-1.06-1.42-1.54c-0.89-0.8-1.28-2.03-1.01-3.19l2.85-9.6
			c0.33-0.85-0.09-1.81-0.94-2.14c-0.15-0.06-0.32-0.1-0.48-0.11l-5.2-0.79c-1.17-0.14-2.3,0.47-2.81,1.52l-4.22,9.5
			c-0.59,1.12-1.57,1.97-2.76,2.38c-1.05,0.35-2.08,0.77-3.08,1.26c-0.85,0.47-1.92,0.16-2.38-0.69c-0.05-0.08-0.08-0.17-0.12-0.26
			l-2.14-5.68c-0.16-0.69-0.85-1.11-1.53-0.95c-0.26,0.06-0.49,0.2-0.67,0.4l-7.28,6.62c-0.87,0.87-1.32,2.08-1.24,3.31l0.94,7.28
			c0.08,1.28-0.26,2.54-0.96,3.61c-1.16,1.66-2.25,3.31-3.31,4.97c-0.67,1.03-1.79,1.69-3.01,1.79l-4.97,0.08
			c-1.2,0.08-2.25,0.82-2.73,1.92l-3.94,10.71c-0.39,1.02,0.12,2.16,1.13,2.54c0.02,0.01,0.04,0.01,0.06,0.02l4.11,1.44
			c1.07,0.42,1.72,1.52,1.56,2.67c-0.26,1.65-0.44,3.3-0.53,4.97c-0.1,1.28-0.61,2.5-1.44,3.48l-6.39,6.62
			c-0.8,0.95-1.14,2.2-0.93,3.43l1.77,7.35c0.07,0.67,0.68,1.16,1.35,1.08c0.28-0.03,0.54-0.16,0.73-0.35l6.51-4.97
			c0.88-0.65,2.11-0.46,2.75,0.42c0,0,0.01,0.01,0.01,0.01c0.44,0.55,0.92,1.07,1.44,1.54c0.87,0.81,1.25,2.02,1.01,3.18l-2.85,9.62
			c-0.33,0.85,0.09,1.81,0.94,2.14c0.15,0.06,0.32,0.1,0.48,0.11l5.2,0.79c1.17,0.14,2.3-0.48,2.81-1.54l4.2-9.49
			c0.6-1.11,1.59-1.96,2.78-2.38c1.05-0.35,2.08-0.77,3.08-1.26c0.85-0.47,1.92-0.16,2.38,0.69c0.05,0.08,0.08,0.17,0.12,0.26
			l2.1,5.64c0.18,0.69,0.88,1.1,1.57,0.93c0.25-0.06,0.47-0.2,0.64-0.4l7.28-6.62c0.86-0.88,1.31-2.08,1.24-3.31l-0.94-7.27
			c-0.09-1.28,0.24-2.55,0.96-3.61c1.16-1.66,2.25-3.31,3.31-4.97c0.67-1.03,1.79-1.69,3.01-1.79l4.97-0.08
			c1.2-0.07,2.26-0.82,2.71-1.94l3.96-10.71c0.38-1.01-0.12-2.14-1.13-2.52c-0.03-0.01-0.05-0.02-0.08-0.03l-4.09-1.44
			c-1.07-0.42-1.72-1.52-1.56-2.67c0.26-1.65,0.44-3.3,0.53-4.97c0.1-1.28,0.61-2.5,1.44-3.48l6.39-6.72
			C699.17,84.91,699.51,83.71,699.33,82.53z M669.1,124.25c-7.88,7.1-15.97,5.84-18.06-2.8c-2.09-8.64,2.63-21.4,10.51-28.49
			c7.88-7.09,15.97-5.84,18.06,2.8C681.7,104.4,677.05,117.16,669.1,124.25z"/>
	</g>
</g>
<g id="freepik--Device--inject-120">
	<g id="freepik--Mobile--inject-120">
		<path class="st2" d="M549.12,68.49l-167.79,96.89c-5.4,3.11-8.81,8.77-9.04,15v390.15c0,6.14,3.79,13.33,8.48,16.02
			c4.68,2.7,12.8,2.4,18.11-0.66l167.2-96.54c5.68-3.72,9.25-9.91,9.63-16.69V83.84c0-6.14-5.13-10.35-9.82-13.04
			S554.45,65.41,549.12,68.49z"/>
		<path class="st10" d="M396.57,586.99c-5.15,2-11.77,1.9-15.81-0.43c-4.67-2.7-8.48-9.93-8.48-16.02V180.38
			c0.09-2.92,0.93-5.77,2.43-8.28l15.54,8.86c-2.69,3.15-4.26,7.1-4.49,11.24v386.14C385.78,585.75,390.46,589.25,396.57,586.99z"/>
		<path class="st11" d="M575.69,83.03c-0.36-5.51-4.54-7.66-9.6-4.75L394.3,177.47c-1.53,0.93-2.88,2.1-4.02,3.48l-15.54-8.82
			c1.37-2.54,3.36-4.69,5.78-6.26l168.6-97.39c5.33-3.06,12.12-0.38,16.79,2.32C570.57,73.49,575.37,77.08,575.69,83.03z"/>
		<path class="st2" d="M566.08,78.33L394.3,177.47c-5.01,3.27-8.17,8.74-8.51,14.72v386.18c0,8.28,5.89,11.69,13.08,7.53
			l167.2-96.54c5.68-3.72,9.25-9.91,9.63-16.69V83.84C575.72,77.71,571.43,75.21,566.08,78.33z"/>
		<path class="st5" d="M566.08,78.33L394.3,177.47c-5.01,3.27-8.17,8.74-8.51,14.72v386.18c0,8.28,5.89,11.69,13.08,7.53
			l167.2-96.54c5.68-3.72,9.25-9.91,9.63-16.69V83.84C575.72,77.71,571.43,75.21,566.08,78.33z"/>
		<path class="st12" d="M567.03,109.78v350.1c-0.36,6.44-3.75,12.33-9.15,15.86l-154.88,89.39c-4.97,2.93-9.15,0.56-9.15-5.28
			V206.89c0.29-5.25,2.59-10.2,6.42-13.81l0.88-0.78c0.58-0.47,1.2-0.9,1.85-1.27l20.74-11.99l1.66-0.98l2.05-1.14l4.97-2.81
			c3.59-1.97,7.48-0.91,7.48,3.31v13.08c0,4.29,3.21,5.91,7.17,3.63l64.78-37.76c4.17-2.56,6.87-6.95,7.28-11.82v-14.9
			c0.09-3.3,1.72-6.37,4.42-8.28l30.99-17.76l0.91-0.53C561.81,99.33,567.03,102.33,567.03,109.78z"/>
		<path class="st13" d="M554.53,451.29V103.54l-30.99,17.83c-2.7,1.91-4.33,4.98-4.42,8.28v14.9c-0.36,4.88-3.02,9.3-7.17,11.9
			l-64.78,37.76c-1.58,1.18-3.69,1.35-5.43,0.43c-1.08-0.73-11.31-7.7-12.61-8.66c-1.17-0.98-1.78-2.47-1.66-3.99v-4.97l-2.05,1.14
			l-1.66,0.98l-20.74,11.99c-0.65,0.38-1.27,0.8-1.85,1.27l-0.88,0.78c-3.83,3.61-6.13,8.55-6.42,13.81v347.65l151.54-87.49
			C550.8,463.61,554.18,457.73,554.53,451.29z"/>
		<path class="st13" d="M467.29,170.85l23.28-13.43c1.39-0.81,2.52-0.23,2.52,1.27c-0.13,1.71-1.06,3.26-2.52,4.17l-23.28,13.43
			c-1.39,0.81-2.52,0.23-2.52-1.26C464.9,173.32,465.83,171.77,467.29,170.85z"/>
		<path class="st13" d="M502.5,150.49c1.31-0.74,2.37-0.15,2.37,1.36c-0.09,1.66-0.97,3.18-2.37,4.09
			c-1.31,0.74-2.35,0.15-2.35-1.36C500.23,152.91,501.11,151.39,502.5,150.49z"/>
		<path class="st13" d="M511.94,145.04c1.31-0.74,2.37-0.13,2.37,1.36c-0.09,1.66-0.97,3.18-2.37,4.09
			c-1.29,0.76-2.35,0.15-2.35-1.36C509.68,147.47,510.55,145.95,511.94,145.04z"/>
		<path class="st13" d="M445.9,183.18c1.31-0.76,2.37-0.15,2.37,1.36c-0.09,1.66-0.97,3.18-2.37,4.09
			c-1.29,0.74-2.35,0.13-2.35-1.37C443.65,185.6,444.52,184.09,445.9,183.18z"/>
		<path class="st13" d="M455.35,177.73c1.29-0.76,2.35-0.15,2.35,1.36c-0.09,1.66-0.96,3.17-2.35,4.09
			c-1.31,0.74-2.37,0.13-2.37-1.36C453.07,180.16,453.95,178.64,455.35,177.73z"/>
	</g>
	<g id="freepik--Window--inject-120">
		<path class="st14" d="M587.57,133.14c-2.1-1.23-4.97-1.06-8.18,0.78l0,0l-31.92,18.21c-2.73,1.93-4.38,5.06-4.42,8.41v14.73
			c-0.36,4.89-3.02,9.31-7.17,11.92l-61.25,35.67v-8.41c0.12-1.5-0.61-2.94-1.89-3.74c-1.47-0.83-9.6-5.55-10.74-6.19
			c-1.82-0.84-3.94-0.68-5.61,0.41l-7.09,3.96l-1.66,0.98l-20.74,11.99c-0.65,0.38-1.27,0.8-1.85,1.27l-0.88,0.78
			c-3.83,3.61-6.13,8.55-6.42,13.81v353.08c-0.24,2.31,0.78,4.56,2.67,5.91c1.66,0.98,9.12,5.26,10.78,6.22
			c1.66,0.96,3.94,0.81,6.47-0.65l154.88-89.39c5.4-3.53,8.8-9.42,9.15-15.86V146.81c0-3.69-1.31-6.27-3.43-7.48L587.57,133.14z"/>
		<path class="st0" d="M472.52,210.63c-1.77-0.63-3.73-0.42-5.31,0.58l-7.07,3.97l-1.66,0.98l-20.74,11.99
			c-0.65,0.38-1.27,0.8-1.85,1.27l-0.88,0.78c-1.28,1.23-2.39,2.62-3.31,4.14l-10.91-6.21c0.92-1.52,2.03-2.91,3.31-4.14l0.88-0.78
			c0.58-0.47,1.2-0.9,1.85-1.27l20.74-11.99l1.66-0.98l7.09-3.96c1.67-1.1,3.79-1.26,5.61-0.43L472.52,210.63z"/>
		<path class="st0" d="M598.32,139.33c-2.09-1.23-4.97-1.06-8.18,0.79l-31.9,18.21c-1.37,0.86-2.47,2.09-3.16,3.56l-10.74-6.21
			c0.69-1.46,1.78-2.7,3.15-3.56l31.92-18.21c3.18-1.84,6.08-2,8.18-0.79L598.32,139.33z"/>
		<path class="st15" d="M555.08,161.97c-0.8,1.49-1.24,3.16-1.27,4.85v14.73c-0.18,3.21-1.42,6.27-3.53,8.71l-10.76-6.21
			c2.1-2.44,3.34-5.5,3.54-8.71v-14.73c0.04-1.69,0.48-3.36,1.27-4.85L555.08,161.97z"/>
		<path class="st2" d="M590.14,140.12L590.14,140.12l-31.92,18.21c-2.73,1.94-4.37,5.06-4.42,8.41v14.73
			c-0.36,4.88-3.02,9.3-7.17,11.9l-64.76,37.86c-3.96,2.28-7.17,0.66-7.17-3.63v-13.08c0-4.22-3.91-5.28-7.5-3.31l-7.07,3.96
			l-1.66,0.98l-20.74,11.99c-0.65,0.38-1.27,0.8-1.85,1.27l-0.88,0.78c-3.83,3.61-6.13,8.55-6.42,13.81v353
			c0,5.84,4.11,8.28,9.15,5.28l154.88-89.39c5.4-3.53,8.8-9.42,9.15-15.86V146.81C601.73,139.44,596.51,136.45,590.14,140.12z"/>
		<g class="st16">
			<path class="st4" d="M590.14,140.12L590.14,140.12l-31.92,18.21c-2.73,1.94-4.37,5.06-4.42,8.41v14.73
				c-0.36,4.88-3.02,9.3-7.17,11.9l-64.76,37.86c-3.96,2.28-7.17,0.66-7.17-3.63v-13.08c0-4.22-3.91-5.28-7.5-3.31l-7.07,3.96
				l-1.66,0.98l-20.74,11.99c-0.65,0.38-1.27,0.8-1.85,1.27l-0.88,0.78c-3.83,3.61-6.13,8.55-6.42,13.81v353
				c0,5.84,4.11,8.28,9.15,5.28l154.88-89.39c5.4-3.53,8.8-9.42,9.15-15.86V146.81C601.73,139.44,596.51,136.45,590.14,140.12z"/>
		</g>
		<polygon class="st2" points="428.52,394.83 487.68,317.19 556.15,361.3 540.24,344.35 563.3,309.42 601.99,335.38 601.99,414.24 
			428.52,514.4 		"/>
		<path class="st2" d="M541.47,278.37c5.58-3.31,10.1-0.61,10.1,5.81c-0.39,7.1-4.14,13.6-10.1,17.48
			c-5.56,3.21-10.08,0.6-10.08-5.83C531.77,288.74,535.52,282.25,541.47,278.37z"/>
		<path class="st17" d="M601.73,497V395.79c-22.53-12.23-53.27-10.05-87.14,9.52c-33.36,19.25-63.63,51.81-86.08,89.39v102.39
			c0,5.84,4.11,8.28,9.15,5.28l154.88-89.39C597.98,509.43,601.4,503.49,601.73,497z"/>
		<path class="st14" d="M598.41,394.11V497c-0.37,5.25-3.13,10.05-7.5,13l-154.9,89.39c-0.73,0.47-1.57,0.75-2.43,0.81
			c-1.52,0-1.66-2.02-1.66-3.23V489.2c-1.11,1.77-2.22,3.58-3.31,5.41V597c0,4.14,2.05,6.54,4.97,6.54
			c1.45-0.06,2.87-0.49,4.11-1.26l154.88-89.39c5.4-3.53,8.8-9.42,9.15-15.86V395.79C600.73,395.26,599.57,394.69,598.41,394.11z"/>
		<path class="st13" d="M484.54,474.29l73.53-42.44c1.97-1.14,3.58-0.33,3.58,1.8c-0.18,2.45-1.51,4.66-3.59,5.96l-73.52,42.44
			c-1.97,1.14-3.58,0.33-3.58-1.8C481.13,477.8,482.46,475.59,484.54,474.29z"/>
		<path class="st13" d="M491.26,489.81l60.08-34.68c1.99-1.14,3.59-0.33,3.59,1.82c-0.18,2.44-1.52,4.65-3.59,5.94l-60.08,34.68
			c-1.97,1.14-3.58,0.33-3.58-1.8C487.86,493.33,489.19,491.12,491.26,489.81z"/>
		<path class="st13" d="M491.26,450.99l60.08-34.68c1.99-1.14,3.59-0.33,3.59,1.8c-0.18,2.45-1.51,4.66-3.59,5.96l-60.08,34.68
			c-1.97,1.14-3.58,0.33-3.58-1.8C487.86,454.51,489.19,452.3,491.26,450.99z"/>
		<path class="st2" d="M501.13,528.95v2.85c0,4.59,3.21,6.42,7.17,4.14l32.74-18.92c4.23-2.76,6.89-7.37,7.17-12.42v-2.86
			c0-4.57-3.21-6.42-7.17-4.14l-32.74,18.9C504.05,519.27,501.39,523.89,501.13,528.95z"/>
		<path class="st13" d="M512.9,518.83c0.34-0.21,0.73-0.33,1.13-0.36c0.3-0.03,0.61,0.03,0.88,0.18c0.25,0.14,0.45,0.34,0.58,0.6
			c0.14,0.27,0.21,0.56,0.22,0.86c0.02,0.09,0.02,0.18,0,0.26c-0.03,0.07-0.07,0.14-0.13,0.18l-1.24,0.71
			c-0.07,0.02-0.14,0.02-0.22,0c-0.06-0.01-0.12-0.04-0.17-0.08l-0.1-0.1c-0.05-0.05-0.1-0.08-0.17-0.1c-0.1-0.03-0.2-0.03-0.3,0
			c-0.15,0.03-0.29,0.08-0.41,0.17l-0.35,0.23c-0.11,0.09-0.21,0.19-0.3,0.3c-0.08,0.11-0.16,0.22-0.22,0.35
			c-0.03,0.14-0.03,0.28,0,0.41c-0.04,0.1-0.04,0.21,0,0.31c0.09,0.06,0.19,0.09,0.3,0.08c0.2,0,0.39-0.03,0.58-0.08l0.88-0.22
			c0.29-0.09,0.6-0.14,0.91-0.13c0.24,0.01,0.47,0.09,0.65,0.25c0.2,0.17,0.34,0.41,0.4,0.66c0.1,0.37,0.14,0.75,0.13,1.13
			c0,0.49-0.08,0.99-0.23,1.46c-0.14,0.48-0.35,0.94-0.61,1.36c-0.26,0.43-0.57,0.83-0.93,1.18c-0.35,0.35-0.75,0.65-1.18,0.89
			c-0.36,0.23-0.77,0.37-1.19,0.43c-0.31,0.03-0.63-0.03-0.91-0.17c-0.26-0.14-0.48-0.36-0.61-0.63c-0.14-0.31-0.22-0.64-0.22-0.98
			c-0.01-0.09-0.01-0.18,0-0.26c0.04-0.07,0.09-0.12,0.15-0.17l1.24-0.73c0.07-0.02,0.14-0.02,0.22,0c0.05-0.01,0.1-0.01,0.15,0
			l0.12,0.13l0.2,0.15c0.11,0.04,0.22,0.04,0.33,0c0.17-0.02,0.33-0.08,0.48-0.17c0.31-0.18,0.6-0.4,0.84-0.66
			c0.21-0.22,0.33-0.51,0.33-0.81c0.02-0.11-0.03-0.22-0.12-0.28c-0.12-0.04-0.26-0.04-0.38,0c-0.21,0.02-0.42,0.07-0.63,0.13
			l-0.91,0.23c-0.49,0.2-1.05,0.1-1.44-0.25c-0.34-0.49-0.5-1.08-0.46-1.67c0.01-0.45,0.07-0.89,0.18-1.32
			c0.14-0.46,0.32-0.9,0.55-1.32c0.24-0.42,0.52-0.82,0.84-1.18C512.08,519.43,512.47,519.1,512.9,518.83z"/>
		<path class="st13" d="M521.67,513.92c0.05-0.04,0.13-0.04,0.18,0c0.03,0.07,0.03,0.16,0,0.23v1.56c0.02,0.1,0.02,0.21,0,0.31
			c-0.04,0.09-0.1,0.17-0.18,0.23l-1.66,0.96v7.53c0,0.11-0.03,0.22-0.08,0.31c-0.04,0.09-0.1,0.17-0.18,0.23l-1.24,0.71
			c-0.05,0.05-0.13,0.05-0.18,0c-0.03-0.07-0.03-0.16,0-0.23v-7.52l-1.66,0.96c-0.05,0.05-0.13,0.05-0.18,0
			c-0.06-0.06-0.09-0.15-0.08-0.23v-1.56c0-0.11,0.03-0.22,0.08-0.31c0.04-0.09,0.1-0.17,0.18-0.23L521.67,513.92z"/>
		<path class="st13" d="M525.64,511.62c0.13,0,0.23,0,0.28,0c0.07,0.07,0.13,0.15,0.15,0.25l2.07,8.03c0.01,0.07,0.01,0.13,0,0.2
			c0.02,0.09,0.02,0.18,0,0.26c-0.03,0.07-0.08,0.14-0.15,0.18l-1.21,0.7c-0.12,0.08-0.22,0.08-0.26,0
			c-0.05-0.05-0.08-0.11-0.1-0.18l-0.26-1.06l-2.53,1.46l-0.26,1.37c-0.02,0.1-0.06,0.2-0.1,0.3c-0.06,0.12-0.16,0.22-0.28,0.28
			l-1.19,0.7c0,0-0.12,0-0.15,0c-0.03-0.06-0.03-0.12,0-0.18c0,0,0-0.13,0-0.25l2.09-10.43c0.02-0.14,0.07-0.28,0.13-0.41
			c0.06-0.14,0.17-0.25,0.3-0.33L525.64,511.62z M524.1,518.92l1.54-0.88l-0.78-3.08L524.1,518.92z"/>
		<path class="st13" d="M531.8,508.07c0.34-0.22,0.73-0.37,1.13-0.45c0.28-0.06,0.58-0.02,0.83,0.13c0.27,0.17,0.46,0.44,0.55,0.74
			c0.13,0.45,0.19,0.91,0.18,1.37c0.01,0.68-0.09,1.36-0.3,2c-0.18,0.6-0.47,1.16-0.84,1.66l1.19,2.81c0.01,0.04,0.01,0.09,0,0.13
			c0.02,0.09,0.02,0.18,0,0.26c-0.04,0.07-0.09,0.13-0.15,0.18l-1.29,0.74c-0.13,0.08-0.22,0.08-0.28,0l-0.13-0.2l-1.04-2.53
			l-0.88,0.51v3.15c0.02,0.1,0.02,0.21,0,0.31c-0.04,0.09-0.1,0.17-0.18,0.23l-1.24,0.71c-0.05,0.05-0.13,0.05-0.18,0
			c-0.03-0.07-0.03-0.16,0-0.23v-9.47c-0.02-0.11-0.02-0.22,0-0.33c0.03-0.09,0.1-0.17,0.18-0.22L531.8,508.07z M530.72,513.14
			l1.08-0.63c0.27-0.15,0.49-0.36,0.66-0.61c0.18-0.3,0.26-0.65,0.25-0.99c0-0.41-0.08-0.65-0.25-0.71
			c-0.23-0.04-0.47,0.01-0.66,0.15l-1.08,0.63V513.14z"/>
		<path class="st13" d="M540.41,503.09c0.08,0,0.13,0,0.18,0c0.03,0.07,0.03,0.16,0,0.23v1.56c0.02,0.11,0.02,0.22,0,0.33
			c-0.04,0.09-0.1,0.16-0.18,0.22l-1.66,0.96v7.53c0.02,0.1,0.02,0.21,0,0.31c-0.04,0.09-0.11,0.17-0.18,0.23l-1.26,0.71
			c-0.05,0.05-0.13,0.05-0.18,0c-0.03-0.08-0.03-0.17,0-0.25v-7.52l-1.66,0.96c0,0-0.12,0-0.17,0c-0.04-0.08-0.04-0.17,0-0.25v-1.56
			c-0.03-0.1-0.03-0.21,0-0.31c0.03-0.09,0.09-0.16,0.17-0.22L540.41,503.09z"/>
		<path class="st13" d="M471.86,264.51l86.53-49.96c3.96-2.28,7.17-0.66,7.17,3.64c-0.36,4.88-3.02,9.3-7.17,11.9l-86.53,49.96
			c-3.96,2.28-7.17,0.66-7.17-3.64C465.05,271.53,467.71,267.11,471.86,264.51z"/>
	</g>
</g>
<g id="freepik--Lines--inject-120">
	<g id="freepik--lines--inject-120">
		<path class="st13" d="M812.16,219.83c-0.39,0-0.77-0.1-1.11-0.28c-0.83-0.55-1.3-1.52-1.21-2.52c0.1-2.36,1.33-4.53,3.31-5.83
			c1.06-0.86,2.61-0.7,3.47,0.36c0.44,0.54,0.63,1.25,0.52,1.94c-0.1,2.36-1.34,4.53-3.31,5.83
			C813.33,219.64,812.75,219.81,812.16,219.83z M814.88,211.95c-0.37,0.02-0.73,0.13-1.04,0.33c-1.61,1.07-2.63,2.82-2.75,4.75
			c-0.2,0.67,0.18,1.37,0.85,1.57c0.45,0.14,0.95,0,1.27-0.34c1.61-1.07,2.63-2.82,2.75-4.75c0.05-0.55-0.17-1.09-0.6-1.44
			C815.21,211.98,815.05,211.94,814.88,211.95L814.88,211.95z"/>
		<path class="st13" d="M854.86,195.18c-0.38,0-0.76-0.1-1.09-0.3c-0.83-0.55-1.29-1.51-1.21-2.5c0.1-2.36,1.33-4.53,3.31-5.83l0,0
			c1.04-0.86,2.59-0.71,3.45,0.33c0.45,0.55,0.64,1.27,0.52,1.97c-0.1,2.36-1.33,4.52-3.31,5.81
			C856.03,194.99,855.45,195.17,854.86,195.18z M857.59,187.3c-0.38,0.01-0.74,0.13-1.06,0.33l0,0c-1.61,1.07-2.62,2.83-2.73,4.75
			c-0.2,0.67,0.18,1.37,0.85,1.57c0.45,0.14,0.95,0,1.27-0.34c1.6-1.07,2.61-2.83,2.73-4.75c0.06-0.55-0.16-1.09-0.58-1.44
			C857.92,187.34,857.75,187.3,857.59,187.3z"/>
		<path class="st13" d="M816.57,214.07c-0.22,0-0.42-0.12-0.53-0.31c-0.18-0.28-0.1-0.65,0.18-0.82c0.01-0.01,0.02-0.01,0.04-0.02
			l36.6-21.07c0.3-0.16,0.67-0.06,0.84,0.23c0.17,0.29,0.07,0.67-0.22,0.84c0,0-0.01,0-0.01,0.01l-36.58,21.16
			C816.78,214.1,816.67,214.1,816.57,214.07z"/>
		<path class="st13" d="M759.4,348.92c-0.39,0-0.77-0.1-1.11-0.28c-0.83-0.55-1.3-1.52-1.21-2.52c0.1-2.36,1.33-4.53,3.31-5.83l0,0
			c1.06-0.86,2.61-0.7,3.47,0.36c0.44,0.54,0.63,1.25,0.52,1.94c-0.1,2.36-1.33,4.53-3.31,5.83
			C760.57,348.74,760,348.91,759.4,348.92z M762.12,341.04c-0.37,0.02-0.73,0.14-1.04,0.33l0,0c-1.61,1.07-2.63,2.82-2.75,4.75
			c-0.2,0.67,0.18,1.37,0.85,1.57c0.45,0.14,0.95,0,1.27-0.34c1.61-1.07,2.63-2.82,2.75-4.75c0.06-0.55-0.16-1.09-0.58-1.44
			C762.46,341.08,762.29,341.04,762.12,341.04L762.12,341.04z"/>
		<path class="st13" d="M811.24,463.44c-0.38,0.01-0.76-0.09-1.09-0.28c-0.83-0.55-1.3-1.52-1.21-2.52c0.1-2.36,1.33-4.53,3.31-5.83
			l0,0c0.82-0.57,1.88-0.65,2.78-0.22c0.82,0.57,1.27,1.53,1.19,2.52c-0.1,2.36-1.33,4.53-3.31,5.83
			C812.4,463.26,811.83,463.43,811.24,463.44z M813.97,455.56c-0.38,0.02-0.74,0.13-1.06,0.33l0,0c-1.6,1.07-2.61,2.83-2.73,4.75
			c-0.2,0.67,0.18,1.37,0.85,1.57c0.45,0.14,0.95,0,1.27-0.34c1.61-1.07,2.62-2.83,2.73-4.75c0.06-0.55-0.16-1.09-0.58-1.44
			C814.3,455.6,814.13,455.56,813.97,455.56L813.97,455.56z"/>
		<path class="st13" d="M890.55,417.69c-0.39,0-0.77-0.1-1.11-0.28c-0.83-0.56-1.29-1.52-1.19-2.52c0.09-2.37,1.32-4.54,3.31-5.83
			l0,0c1.06-0.86,2.61-0.7,3.47,0.36c0.44,0.54,0.63,1.25,0.52,1.94c-0.1,2.36-1.33,4.53-3.31,5.83
			C891.73,417.51,891.14,417.68,890.55,417.69z M892.2,410.14c-1.61,1.06-2.62,2.82-2.73,4.75c-0.06,0.55,0.16,1.09,0.58,1.44
			c0.52,0.19,1.09,0.11,1.54-0.22c1.6-1.07,2.61-2.83,2.73-4.75c0.06-0.55-0.16-1.09-0.58-1.44
			C893.22,409.73,892.65,409.82,892.2,410.14z"/>
		<path class="st13" d="M760.76,359.07c-0.11,0-0.22-0.03-0.31-0.08c-0.18-0.11-0.3-0.31-0.3-0.53v-10.58
			c0-0.34,0.27-0.61,0.61-0.61c0.34,0,0.62,0.27,0.63,0.61v9.5l90.55-52.26c0.29-0.17,0.67-0.08,0.84,0.21
			c0.06,0.1,0.09,0.21,0.09,0.32v45.82c0.01,0.34-0.26,0.62-0.6,0.63c-0.01,0-0.01,0-0.02,0c-0.35,0-0.63-0.28-0.63-0.63
			c0,0,0,0,0,0v-44.7l-90.55,52.29C760.97,359.09,760.87,359.09,760.76,359.07z"/>
		<path class="st13" d="M852.26,380.26c-0.16,0-0.32-0.07-0.43-0.18l-9.12-8.86c-0.19-0.18-0.25-0.47-0.13-0.71l9.12-19.32
			c0.09-0.18,0.25-0.31,0.45-0.35c0.2-0.03,0.4,0.03,0.55,0.17l9.12,8.79c0.2,0.18,0.25,0.47,0.13,0.71l-9.09,19.38
			c-0.08,0.18-0.25,0.31-0.45,0.35L852.26,380.26z M843.88,370.64l8.18,7.95l8.58-18.21l-8.19-7.86L843.88,370.64z"/>
		<path class="st13" d="M821.75,404.91c-0.34,0-0.61-0.27-0.61-0.61v-21.14c0-0.22,0.11-0.42,0.3-0.53l21.39-12.38
			c0.29-0.17,0.67-0.08,0.84,0.21c0,0,0,0,0,0.01c0.17,0.29,0.08,0.67-0.21,0.84c0,0,0,0-0.01,0l-21.07,12.22v20.78
			c0,0.34-0.27,0.61-0.61,0.61C821.76,404.91,821.75,404.91,821.75,404.91z"/>
		<path class="st2" d="M815.85,411.21l11.8-6.8c1.79-1.04,3.31-0.2,3.31,1.87v3.13c-0.14,2.3-1.37,4.4-3.31,5.64l-11.8,6.8
			c-1.8,1.04-3.31,0.2-3.31-1.87v-3.13C812.68,414.56,813.91,412.45,815.85,411.21z"/>
		<path class="st2" d="M876.86,376.1l11.8-6.8c1.79-1.04,3.31-0.2,3.31,1.87v3.08c-0.14,2.3-1.37,4.39-3.31,5.63l-11.8,6.82
			c-1.79,1.03-3.31,0.2-3.31-1.89v-3.08C873.69,379.43,874.92,377.34,876.86,376.1z"/>
		<path class="st13" d="M815.66,457.75c-0.22,0-0.43-0.12-0.55-0.31c-0.17-0.29-0.07-0.67,0.22-0.84c0,0,0.01,0,0.01-0.01l5.79-3.31
			v-31.02c-0.06-0.34,0.18-0.67,0.52-0.72c0.34-0.06,0.67,0.18,0.72,0.52c0.01,0.07,0.01,0.14,0,0.2v31.35
			c0,0.22-0.12,0.42-0.31,0.53l-6.09,3.53C815.87,457.72,815.77,457.74,815.66,457.75z"/>
		<path class="st13" d="M882.75,369.68c-0.34-0.01-0.61-0.29-0.61-0.63V349l-20.44,11.77c-0.3,0.17-0.69,0.07-0.86-0.23c0,0,0,0,0,0
			c-0.13-0.3,0-0.65,0.3-0.79l21.39-12.3c0.19-0.12,0.43-0.12,0.61,0c0.2,0.11,0.32,0.32,0.31,0.55v21.12
			C883.41,369.46,883.1,369.72,882.75,369.68C882.75,369.68,882.75,369.68,882.75,369.68z"/>
		<path class="st13" d="M882.75,418.99c-0.11,0.01-0.21-0.02-0.3-0.08c-0.2-0.1-0.32-0.31-0.31-0.53v-31.7
			c-0.06-0.34,0.18-0.67,0.52-0.72c0.34-0.06,0.67,0.18,0.72,0.52c0.01,0.07,0.01,0.14,0,0.2v30.63l5.16-2.98
			c0.3-0.16,0.67-0.07,0.86,0.22c0.17,0.3,0.06,0.68-0.23,0.86l-6.11,3.51C882.97,418.97,882.86,419,882.75,418.99z"/>
		<path class="st13" d="M969.86,199.17c-0.39,0-0.77-0.1-1.11-0.3c-0.83-0.55-1.3-1.52-1.21-2.52c0.1-2.36,1.33-4.52,3.31-5.81l0,0
			c1.06-0.86,2.61-0.7,3.47,0.36c0.44,0.54,0.63,1.25,0.52,1.94c-0.1,2.36-1.33,4.52-3.31,5.81
			C971.03,198.97,970.45,199.15,969.86,199.17z M971.51,191.62c-1.61,1.06-2.62,2.81-2.75,4.73c-0.05,0.55,0.17,1.09,0.6,1.44
			c0.51,0.21,1.09,0.13,1.52-0.22c1.61-1.06,2.63-2.81,2.75-4.73c0.05-0.55-0.17-1.09-0.6-1.44
			C972.53,191.2,971.94,191.28,971.51,191.62z"/>
		<path class="st13" d="M1006.46,44.26c-0.39,0-0.77-0.1-1.11-0.3c-0.83-0.55-1.29-1.51-1.21-2.5c0.1-2.36,1.33-4.53,3.31-5.83
			c1.06-0.86,2.61-0.7,3.47,0.36c0.44,0.54,0.63,1.25,0.52,1.94c-0.1,2.36-1.33,4.53-3.31,5.83
			C1007.63,44.07,1007.05,44.24,1006.46,44.26z M1009.17,36.38c-0.37,0.02-0.73,0.14-1.04,0.33c-1.61,1.07-2.63,2.82-2.75,4.75
			c-0.07,0.55,0.16,1.09,0.6,1.42c0.51,0.21,1.09,0.13,1.52-0.2c1.61-1.07,2.63-2.82,2.75-4.75c0.06-0.55-0.16-1.09-0.58-1.44
			C1009.52,36.41,1009.35,36.37,1009.17,36.38L1009.17,36.38z"/>
		<path class="st13" d="M1006.46,79.58c-0.39,0-0.77-0.1-1.11-0.3c-0.83-0.55-1.29-1.51-1.21-2.5c0.1-2.36,1.33-4.53,3.31-5.83
			c1.06-0.86,2.61-0.7,3.47,0.36c0.44,0.54,0.63,1.25,0.52,1.94c-0.1,2.36-1.33,4.52-3.31,5.81
			C1007.63,79.39,1007.05,79.57,1006.46,79.58z M1009.17,71.7c-0.37,0.01-0.73,0.13-1.04,0.33c-1.61,1.06-2.62,2.81-2.75,4.73
			c-0.2,0.67,0.18,1.37,0.85,1.57c0.45,0.14,0.95,0,1.27-0.34c1.61-1.06,2.63-2.81,2.75-4.73c0.06-0.55-0.16-1.09-0.58-1.44
			C1009.52,71.74,1009.35,71.7,1009.17,71.7z"/>
		<path class="st13" d="M1006.46,114.91c-0.39,0-0.77-0.1-1.11-0.3c-0.83-0.55-1.3-1.52-1.21-2.52c0.1-2.36,1.33-4.52,3.31-5.81
			c1.06-0.86,2.61-0.7,3.47,0.36c0.44,0.54,0.63,1.25,0.52,1.94c-0.1,2.36-1.33,4.52-3.31,5.81
			C1007.63,114.71,1007.05,114.89,1006.46,114.91z M1009.17,107.03c-0.37,0.01-0.73,0.13-1.04,0.33c-1.61,1.06-2.63,2.81-2.75,4.73
			c-0.2,0.67,0.18,1.37,0.85,1.57c0.45,0.14,0.95,0,1.27-0.34c1.61-1.06,2.63-2.81,2.75-4.73c0.06-0.55-0.16-1.09-0.58-1.44
			C1009.52,107.07,1009.35,107.03,1009.17,107.03L1009.17,107.03z"/>
		<path class="st13" d="M1006.46,150.22c-0.39,0.01-0.77-0.09-1.11-0.28c-0.83-0.55-1.3-1.52-1.21-2.52
			c0.1-2.36,1.33-4.53,3.31-5.83c0.82-0.57,1.89-0.64,2.78-0.2c0.83,0.55,1.29,1.51,1.21,2.5c-0.1,2.36-1.33,4.53-3.31,5.83
			C1007.63,150.04,1007.05,150.21,1006.46,150.22z M1009.17,142.34c-0.37,0.02-0.73,0.14-1.04,0.35c-1.61,1.06-2.63,2.81-2.75,4.73
			c-0.2,0.67,0.18,1.37,0.85,1.57c0.45,0.14,0.95,0,1.27-0.34c1.61-1.07,2.63-2.82,2.75-4.75c0.05-0.54-0.16-1.07-0.58-1.42
			C1009.52,142.39,1009.35,142.34,1009.17,142.34L1009.17,142.34z"/>
		<path class="st13" d="M974.26,193.53c-0.35-0.01-0.62-0.31-0.6-0.65c0.01-0.21,0.12-0.4,0.29-0.51l11.9-6.87V52.02
			c0-0.22,0.11-0.43,0.3-0.55l18.31-10.56c0.29-0.17,0.67-0.07,0.84,0.22c0,0,0,0.01,0.01,0.01c0.18,0.28,0.1,0.65-0.18,0.82
			c-0.01,0.01-0.02,0.01-0.04,0.02l-17.99,10.4v133.54c0,0.22-0.12,0.43-0.31,0.55l-12.2,7.04
			C974.47,193.54,974.37,193.55,974.26,193.53z"/>
		<path class="st13" d="M986.46,87.86c-0.34,0.01-0.62-0.25-0.63-0.59c-0.01-0.24,0.12-0.46,0.34-0.57l18.29-10.56
			c0.29-0.17,0.67-0.07,0.84,0.22c0,0,0,0.01,0.01,0.01c0.17,0.29,0.08,0.67-0.21,0.84c0,0,0,0-0.01,0l-18.31,10.56
			C986.68,87.83,986.57,87.86,986.46,87.86z"/>
		<path class="st13" d="M986.46,123.12c-0.34,0.01-0.62-0.25-0.63-0.59c-0.01-0.24,0.12-0.46,0.34-0.57l18.29-10.53
			c0.29-0.17,0.67-0.07,0.84,0.22c0,0,0,0.01,0.01,0.01c0.17,0.29,0.08,0.67-0.21,0.84c0,0,0,0-0.01,0l-18.31,10.51
			C986.68,123.08,986.57,123.12,986.46,123.12z"/>
		<path class="st13" d="M986.46,158.38c-0.34,0.01-0.62-0.25-0.63-0.59c-0.01-0.24,0.12-0.46,0.34-0.57l18.29-10.56
			c0.29-0.17,0.67-0.07,0.84,0.22c0,0,0,0.01,0.01,0.01c0.17,0.29,0.08,0.67-0.21,0.84c0,0,0,0-0.01,0l-18.31,10.56
			C986.68,158.35,986.57,158.38,986.46,158.38z"/>
		<path class="st13" d="M625.22,469.57c-0.22-0.01-0.42-0.12-0.53-0.31c-0.17-0.29-0.07-0.67,0.22-0.84c0,0,0.01,0,0.01-0.01
			l40.03-23.18V243.77c0-0.22,0.12-0.43,0.31-0.53l26.9-15.53c0.29-0.17,0.67-0.07,0.84,0.22c0.17,0.3,0.06,0.68-0.23,0.86
			l-26.59,15.35v201.51c0,0.23-0.12,0.44-0.31,0.55l-40.34,23.29C625.43,469.54,625.33,469.57,625.22,469.57z"/>
		<path class="st13" d="M694.16,231.04c-0.39,0.01-0.77-0.09-1.11-0.28c-0.83-0.55-1.3-1.52-1.21-2.52c0.1-2.36,1.33-4.53,3.31-5.83
			l0,0c1.07-0.85,2.62-0.67,3.47,0.4c0.43,0.54,0.61,1.23,0.51,1.9c-0.1,2.36-1.33,4.53-3.31,5.83
			C695.32,230.85,694.75,231.02,694.16,231.04z M695.82,223.49c-1.6,1.07-2.61,2.83-2.73,4.75c-0.06,0.55,0.16,1.09,0.58,1.44
			c0.52,0.19,1.09,0.11,1.54-0.22c1.61-1.07,2.62-2.83,2.73-4.75c0.06-0.55-0.16-1.09-0.58-1.44
			C696.84,223.09,696.27,223.17,695.82,223.49z"/>
		<path class="st13" d="M620.81,475.28c-0.39,0-0.77-0.1-1.11-0.3c-0.83-0.55-1.3-1.52-1.21-2.52c0.1-2.36,1.33-4.52,3.31-5.81
			c1.06-0.86,2.61-0.7,3.47,0.36c0.44,0.54,0.63,1.25,0.52,1.94c-0.1,2.36-1.33,4.52-3.31,5.81
			C621.98,475.08,621.41,475.26,620.81,475.28z M623.54,467.38c-0.38,0.02-0.74,0.14-1.06,0.35c-1.61,1.06-2.63,2.81-2.75,4.73
			c-0.05,0.55,0.17,1.09,0.6,1.44c0.52,0.19,1.09,0.11,1.54-0.22c1.6-1.07,2.6-2.82,2.73-4.73c0.06-0.55-0.16-1.09-0.58-1.44
			c-0.14-0.1-0.31-0.16-0.48-0.17V467.38z"/>
	</g>
</g>
<g id="freepik--Character--inject-120">
	<g id="freepik--character--inject-120">
		<path class="st18" d="M562.81,631.9c0,0-2.45-51.76,0.26-71.51c2.33-16.93,5.53-24.65,6.01-28.49c0,0,2.63-39.86,2.98-73.7
			c0.17-16.29,1.66-27.88,10.58-47.23l56.1,12.75c1.16,8.59,6.39,66.78,7.33,117.62c0.81,44.53-0.46,83.5-0.46,83.5v2.35
			c0,2.6,0.56,4.42,2.23,8.59c2.11,5.37,5.12,10.34,8.89,14.7c1.19,1.27,9.37,8.44,10.45,9.93c3.51,4.09-3.76,6.41-9.17,5.68
			c-5.71-0.76-14.57-2.93-17.08-6.41c-1.66-2.3-2.93-10.41-4.65-12.76c-5.81-7.91-8.19-11.32-8.28-13.84c0-4.57,1.49-6.39,2.05-8.96
			c-0.48-5.4-12.12-49.76-12.32-65.46c-0.1-7.48,0.41-17.8,0.41-17.8l-9.04-51.81c-3.49,12.93-9.82,37.06-11.87,49.4
			c-2.53,15.06-11.09,58.95-16.55,78.9c-1.6,5.15-2.8,10.41-3.59,15.74c0,0-0.18,1.74-0.18,1.75c-0.12,2.23-1.09,26.06-1.97,31.07
			c-1.84,10.5-11.17,9.17-12.66,0.7c-1.27-7.23,0.31-29.58,0.35-32.33L562.81,631.9z"/>
		<path class="st12" d="M562.81,631.9c-2.63,0-0.89,10.23-1.57,16.77c-0.73,7.04-3.03,12.15-3.69,17.91
			c-0.9,5.03-0.12,10.21,2.2,14.75c1.82,4.2,11.04,9.93,14.55,3.96c3.2-5.95,4.54-12.72,3.86-19.43
			c-0.41-6.77-0.83-11.74-0.96-16.89c-0.13-4.54,3.31-15.2,0-15.84l-0.18,1.75c-1.23,2.45-12.9,4.14-14.29-0.56L562.81,631.9z"/>
		<path class="st19" d="M627.43,638.64c-0.81,3.31,0,12.27,0,12.27c1.48,2.44,3.78,4.28,6.49,5.18l2.27-12.51L627.43,638.64z"/>
		<polygon points="633.96,656.08 645.11,652.41 647.8,642.51 635.26,648.85 		"/>
		<path class="st12" d="M645.56,627.18v-2.35c1.52,0.74,4.85,12.95,9.37,21.32c4.12,7.65,12.28,11.92,14.9,15.25
			c3.54,4.45-3.31,10.18-14.4,7.81c-5.5-1.18-13.81-4.68-16.06-8.39c-2.25-3.71-3.03-10.51-4.87-13.24
			c-1.84-2.73-6.22-5.86-7.15-8.96c-0.74-2.81-0.74-5.75,0-8.56c0.86-2.83,1.66-6.24,2.58-5.93v2.14c0.73,1.51,3.41,3.31,8.99,3.58
			C641.77,629.99,644.27,629.58,645.56,627.18z"/>
		<path class="st2" d="M638.06,416.73c0,0,6.85,49.36,8.08,86.66c1.23,37.3,0.13,85.4,0.13,85.4s-3.86,2.75-12.32,3.13
			c-8.46,0.38-11.41-2.45-11.41-2.45s-5.18-16.9-5.99-28.79c-0.51-6.44-0.51-12.91,0-19.35l-7.57-49.75c0,0-9.06,47.18-10.15,53.11
			c-1.09,5.93-11.42,48.49-11.42,48.49c-4.4,2.89-9.66,4.2-14.9,3.71c-8.09-1.08-11.46-4.97-11.46-4.97s-0.45-21.69,1.13-33.67
			c1.57-11.99,5.5-21.19,6.04-29.04c0.55-7.85,0.23-49.84,1.13-66.83c1.03-19.07,1.47-23.26,9.93-46.73L638.06,416.73z"/>
		<path class="st10" d="M638.06,416.73c0,0,6.85,49.36,8.08,86.66c1.23,37.3,0.13,85.4,0.13,85.4s-3.86,2.75-12.32,3.13
			c-8.46,0.38-11.41-2.45-11.41-2.45s-5.18-16.9-5.99-28.79c-0.51-6.44-0.51-12.91,0-19.35l-7.57-49.75c0,0-9.06,47.18-10.15,53.11
			c-1.09,5.93-11.42,48.49-11.42,48.49c-4.4,2.89-9.66,4.2-14.9,3.71c-8.09-1.08-11.46-4.97-11.46-4.97s-0.45-21.69,1.13-33.67
			c1.57-11.99,5.5-21.19,6.04-29.04c0.55-7.85,0.23-49.84,1.13-66.83c1.03-19.07,1.47-23.26,9.93-46.73L638.06,416.73z"/>
		<path class="st3" d="M608.99,491.58l6.29-31.17c0,0,10.98-2.86,16.11-9.57c0,0-1.42,7.43-12.71,12.18l-6.62,31.06l2.28,32.08
			L608.99,491.58z"/>
		<path class="st18" d="M716.08,304.61c-5.83-8.01-8.66-6.47-11.01,1.77c-1.23,4.09-2.74,8.1-4.52,11.99
			c-0.46-2.32-1.19-4.58-2.17-6.74c-0.68-1.76-2.55-2.75-4.39-2.33c-0.7,0.3,0.2,2.85,0,5.91c-0.2,3.92-0.88,6.62,0,10.71
			c0.25,2.32-0.05,4.67-0.89,6.85c-4.44,7.86-20.36,29.8-20.36,29.8c-3.11-1.84-13.09-7.35-26.49-13.94
			c-11.49-5.68-12.65-6.52-20.63-6.87l-0.43,22.32c13.01,5.58,23.46,10.96,44.55,18.82c6.62,2.45,11.94,2.9,15.33-2.23
			c3.39-5.13,13.44-22.02,20.61-34.76c4.04-7.18,7.57-14.63,9.54-18.49C722.07,313.94,718.17,307.47,716.08,304.61z"/>
		<path class="st13" d="M599.57,341.54l-17.98,2.3c1.63,10.94,0.49,22.12-3.31,32.51l5.91,26.93c-0.22,3.13-5.79,11.27-9.93,24.19
			c9.49,12.68,50.59,15.45,65.75,4.3c-1.18-14.48-2.45-22-2.91-26.49l0.31-17.35c18.99-15.59-3.31-38.57-11.75-46.12h-7.88
			L599.57,341.54z"/>
		<path class="st18" d="M479.29,365.89c0.35-0.75,1.08-1.24,1.9-1.31c0.81-0.05,1.62,0.03,2.4,0.25c4.72,1.03,9.53,1.58,14.35,1.66
			c1.27,0,2.8-0.1,3.46-1.21c0.66-1.11-0.18-2.95-0.79-4.37c-0.68-1.61-0.87-3.39-0.56-5.12c0.2-1.01,1.14-2.98,2.42-1.47
			c1.79,2.29,3.82,4.37,6.08,6.21c3.99,3.39,5.3,6.22,9.2,9.5c10.13,7.33,20.72,14,31.7,19.96c14.14-22.91,21.12-45.39,32.15-46.2
			c5.86,5.64,5.51,24.95-0.56,34.18c-6.62,9.93-14.9,22.07-20.28,28.32c-4.19,4.82-10.11,7.8-17.99,2.5
			c-10.18-6.8-19.55-14.62-23.89-17.94c-2.81-2.17-5.94-4.97-9.22-6.46c-1.66-0.82-3.46-1.34-5.3-1.54
			c-2.09-0.18-4.19-0.31-6.31-0.43c-3.2-0.16-6.37-0.67-9.45-1.54c-1.51-0.3-2.91-1-4.06-2.02c-0.73-0.84-1.29-1.81-1.66-2.86
			c-0.35-0.91-0.99-1.66-1.37-2.55c-0.6-1.28-0.51-2.78,0.23-3.99c-0.71-0.35-1.36-0.82-1.9-1.39
			C479.28,367.49,479.08,366.66,479.29,365.89z"/>
		<path class="st19" d="M597.74,336.32c0-2.9-9.78-10.93-14.63-18.21c-4.49-6.8-9.73-24.42,4.22-32.35
			c-0.35-11.34,5.58-14.82,14.45-17.91c7.05-2.47,21.39-2.17,31.85,3.18c3.55,1.68,6.43,4.53,8.14,8.06
			c1.13,2.56,1.19,5.46,0.17,8.06c-0.58,1.99-0.08,2.12,1.04,3.68c0.9,1.19,1.3,2.68,1.13,4.16c-0.43,3.18-3.48,3.97-3.84,5.55
			c-0.19,0.84,0.34,1.67,1.18,1.86c0.54,0.12,1.11-0.06,1.48-0.47c-0.33,1.74-2.01,2.89-3.76,2.55c-0.01,0-0.01,0-0.02,0
			c-3.43-0.18-6.49-4.85-6.49-4.85L597.74,336.32z"/>
		<path class="st18" d="M628.97,284.77c4.4,1.92,8.58,8.64,8.53,27.48c0,15.96-4.97,19.98-7.43,21.17
			c-2.47,1.19-7.28,0.58-11.99-0.13v9.17c0,0,4.78,7.09,2.48,13.14c-19.62-3.43-22.73-13.67-22.73-13.67l-0.35-20.92
			c-2.33,1.41-5.28,1.25-7.45-0.4c-4.19-3.1-5.33-9.32-2.38-12.55s6.72-3.49,10.13,0.12c0,0,7.15,0.99,16.55-4.97
			S628.03,290.9,628.97,284.77z"/>
		<path class="st19" d="M629.37,306.77c0,1.17,0.95,2.12,2.12,2.12c1.17,0,2.12-0.95,2.12-2.12c0-1.14-0.9-2.07-2.04-2.12
			c-1.18-0.04-2.16,0.89-2.2,2.07C629.37,306.74,629.37,306.76,629.37,306.77z"/>
		<path class="st19" d="M612.5,307.77c0.01,1.25,1.03,2.26,2.29,2.25s2.26-1.03,2.25-2.29c-0.01-1.21-0.97-2.2-2.19-2.25
			C613.58,305.47,612.53,306.49,612.5,307.77z"/>
		<path class="st20" d="M615.22,320.25l7.66,2.37c-0.44,2.11-2.5,3.47-4.62,3.04c-0.12-0.02-0.23-0.05-0.35-0.09
			C615.77,324.77,614.59,322.45,615.22,320.25z"/>
		<path class="st21" d="M619.54,325.7c-0.02-2.08-1.71-3.76-3.79-3.76c-0.21-0.02-0.42-0.02-0.63,0c0.18,1.64,1.3,3.03,2.86,3.56
			C618.48,325.68,619.01,325.75,619.54,325.7z"/>
		<path class="st19" d="M635,302.88l-5.46-2.17c0.51-1.47,2.12-2.24,3.58-1.73c0.06,0.02,0.13,0.05,0.19,0.07
			C634.8,299.69,635.54,301.36,635,302.88z"/>
		<path class="st19" d="M597.92,305.58v8.87c2.29,0.06,4.2-1.76,4.26-4.05c0-0.08,0-0.16,0-0.24
			C602.18,307.76,600.32,305.76,597.92,305.58z"/>
		<polygon class="st21" points="622.27,305.62 623.97,318.58 629.74,315.78 		"/>
		<path class="st21" d="M618.08,333.26c-4.97-0.58-15.13-3.43-16.79-7.57c0.66,2.08,1.94,3.92,3.66,5.26
			c3.08,2.63,13.14,5.38,13.14,5.38L618.08,333.26z"/>
	</g>
</g>
<g id="freepik--Screens--inject-120">
	<g id="freepik--window--inject-120">
		<path class="st1" d="M796.82,100.79c-1.82-0.84-3.96-0.63-5.58,0.55l0,0l-15.61,9.01c-1.86,1.32-2.98,3.45-3.01,5.73V126
			c-0.25,3.32-2.05,6.32-4.87,8.1l-29.43,17.23v-5.71c0.08-1.02-0.42-2.01-1.29-2.55l-7.3-4.22c-1.24-0.55-2.68-0.45-3.82,0.28
			l-4.82,2.7l-1.16,0.66l-7.78,4.55c-0.43,0.26-0.85,0.55-1.26,0.86l-0.6,0.53c-2.61,2.46-4.17,5.82-4.37,9.4v195.55
			c-0.16,1.57,0.53,3.1,1.8,4.02l7.33,4.24c1.44,0.66,3.12,0.49,4.4-0.45l80.83-46.67c3.68-2.4,5.99-6.41,6.22-10.79V110.11
			c0.21-1.99-0.67-3.95-2.32-5.1L796.82,100.79z"/>
		<path class="st22" d="M736.82,142.89c-1.2-0.43-2.53-0.28-3.61,0.4L728.4,146l-1.16,0.66l-7.85,4.54
			c-0.45,0.26-0.87,0.55-1.27,0.88l-0.6,0.53c-0.88,0.84-1.65,1.78-2.28,2.81l-7.3-4.22c0.63-1.04,1.39-1.99,2.27-2.83l0.6-0.53
			c0.4-0.31,0.82-0.6,1.26-0.86l7.86-4.54l1.16-0.68l4.82-2.68c1.14-0.76,2.58-0.87,3.82-0.3L736.82,142.89z"/>
		<path class="st22" d="M804.12,105.01c-1.82-0.84-3.95-0.64-5.56,0.55l-15.61,9.01c-0.93,0.59-1.67,1.44-2.14,2.43l-7.32-4.22
			c0.47-1,1.21-1.84,2.14-2.43l15.63-9.01c1.62-1.18,3.75-1.39,5.56-0.55L804.12,105.01z"/>
		<path class="st15" d="M780.81,117c-0.56,1.02-0.86,2.15-0.88,3.31v9.93c-0.13,2.19-0.97,4.27-2.4,5.93l-7.32-4.22
			c1.42-1.66,2.27-3.74,2.4-5.93v-9.93c0.03-1.16,0.33-2.29,0.88-3.31L780.81,117z"/>
		<path class="st17" d="M798.55,105.56L798.55,105.56l-15.61,9.01c-1.83,1.34-2.92,3.46-2.93,5.73v9.93
			c-0.24,3.33-2.05,6.34-4.88,8.09l-31.87,18.66c-2.68,1.56-4.87,0.45-4.87-2.47v-8.89c0-2.88-2.65-3.61-5.1-2.25l-4.82,2.68
			l-1.16,0.66l-7.86,4.55c-0.44,0.26-0.86,0.55-1.26,0.86l-0.6,0.53c-2.61,2.46-4.17,5.82-4.37,9.4v195.55c0,3.97,2.8,5.6,6.22,3.59
			l80.83-46.67c3.68-2.4,5.99-6.41,6.22-10.79V110.11C806.5,105.09,802.89,103.04,798.55,105.56z"/>
		<path class="st1" d="M802.06,105.99c2.67,0,2.88,3.15,2.88,4.12v193.68c-0.24,3.85-2.27,7.36-5.48,9.5l-80.83,46.62
			c-0.61,0.39-1.31,0.61-2.04,0.65c-1.75,0-1.94-2.05-1.94-2.95V162.06c0.19-3.15,1.57-6.11,3.86-8.28l0.22-0.18l0.33-0.3
			c0.34-0.27,0.7-0.52,1.08-0.73l7.85-4.55l1.14-0.66l4.82-2.68c0.5-0.29,1.07-0.45,1.66-0.46c0.86,0,1.26,0.45,1.26,1.41v8.86
			c-0.27,2.29,1.36,4.36,3.64,4.64c0.15,0.02,0.3,0.03,0.44,0.03c1.08-0.03,2.13-0.34,3.05-0.91l31.82-18.66
			c3.29-2.04,5.38-5.54,5.63-9.4v-9.93c0.03-1.74,0.86-3.37,2.25-4.42l15.61-9.02c0.83-0.52,1.78-0.81,2.76-0.86 M802.06,104.43
			c-1.24,0.05-2.45,0.42-3.51,1.08l-15.61,9.01c-1.84,1.35-2.93,3.49-2.93,5.78v9.93c-0.24,3.33-2.05,6.34-4.88,8.09l-31.87,18.66
			c-0.69,0.43-1.47,0.68-2.28,0.71c-1.54,0-2.58-1.16-2.58-3.18v-8.89c0.16-1.45-0.89-2.74-2.33-2.9c-0.14-0.02-0.29-0.02-0.43-0.01
			c-0.82,0.02-1.63,0.25-2.33,0.66l-4.82,2.68l-1.16,0.66l-7.86,4.55c-0.44,0.26-0.86,0.55-1.26,0.86l-0.6,0.53
			c-2.61,2.46-4.17,5.82-4.37,9.4v195.55c0,2.81,1.41,4.45,3.44,4.45c0.99-0.04,1.95-0.33,2.78-0.86l80.83-46.67
			c3.68-2.4,5.99-6.41,6.22-10.79V110.11c0-3.56-1.79-5.63-4.37-5.63L802.06,104.43z"/>
		<polygon class="st2" points="724.16,182.35 797.35,140.07 797.35,210.51 724.16,252.79 		"/>
		<polygon class="st5" points="724.16,252.79 724.16,224.62 748.54,192.91 779.05,210.51 772.78,204.24 784.53,186.56 797.35,197.3 
			797.35,210.51 		"/>
		<path class="st5" d="M773.16,170.14c3.31-1.89,5.94-0.35,5.94,3.44c-0.22,4.18-2.43,8-5.94,10.28c-3.31,1.9-5.93,0.36-5.93-3.43
			C767.46,176.25,769.66,172.43,773.16,170.14z"/>
		<path class="st2" d="M730.24,256.3c3.31-1.94,6.11-0.36,6.11,3.53c-0.23,4.29-2.49,8.21-6.09,10.56
			c-3.31,1.95-6.09,0.36-6.11-3.53C724.38,262.57,726.64,258.65,730.24,256.3z"/>
		<path class="st13" d="M744.39,248.14l32.76-18.89c1.09-0.61,1.95-0.12,1.94,1.13v0.65c-0.11,1.35-0.84,2.57-1.97,3.31
			l-32.71,18.89c-1.08,0.61-1.95,0.12-1.95-1.14v-0.63C742.54,250.1,743.26,248.88,744.39,248.14z"/>
		<path class="st2" d="M743.88,258.77l50.11-28.9c0.79-0.46,1.42-0.08,1.42,0.83v0.46c-0.08,1-0.61,1.92-1.44,2.48l-50.08,28.9
			c-0.79,0.46-1.44,0-1.44-0.83v-0.46C742.51,260.24,743.03,259.32,743.88,258.77z"/>
		<path class="st2" d="M725.68,343.86c-0.07,0.01-0.13,0.01-0.2,0c-0.12-0.06-0.19-0.18-0.18-0.31v-7.02l-1.79,1.03
			c-0.14,0.1-0.33,0.1-0.46,0c-0.1-0.14-0.1-0.33,0-0.46l6.92-11.8c0.09-0.18,0.31-0.25,0.49-0.15c0,0,0,0,0,0l6.92,3.82
			c0.12,0.06,0.2,0.19,0.2,0.33c0,0.13-0.07,0.26-0.18,0.33l-2.15,1.24v7.37c0,0.13-0.07,0.25-0.18,0.31l-9.15,5.28
			C725.84,343.86,725.76,343.87,725.68,343.86z M725.68,335.45c0.06-0.01,0.12-0.01,0.18,0c0.12,0.07,0.19,0.2,0.18,0.33v7.02
			l8.41-4.85v-7.45c0-0.14,0.08-0.26,0.2-0.33l1.75-1.03l-6.01-3.31l-6.03,10.26l1.13-0.65H725.68z"/>
		<path class="st2" d="M791.29,306L791.29,306l-1.41-0.26c-2.91-0.59-4.99-3.16-4.97-6.13c-0.18-2.65,0.84-5.25,2.78-7.07
			c0.64-0.58,1.54-0.77,2.37-0.51c0.49,0.21,0.89,0.58,1.13,1.06c0.39-1.9,1.6-3.54,3.31-4.47c0.64-0.27,1.38-0.17,1.94,0.25
			c1,1.02,1.44,2.47,1.18,3.87c-0.61,4.05-2.19,7.88-4.62,11.17l-1.37,1.94C791.54,305.94,791.41,306,791.29,306z M789.33,292.62
			c-0.45,0.03-0.87,0.2-1.21,0.5c-1.74,1.66-2.64,4.01-2.47,6.41c-0.06,2.61,1.75,4.9,4.3,5.45l1.16,0.23l1.24-1.74
			c2.35-3.18,3.9-6.88,4.49-10.79c0.22-1.15-0.1-2.35-0.88-3.23c-0.35-0.27-0.82-0.32-1.23-0.13c-1.74,1.09-2.88,2.92-3.08,4.97
			c0,0,0,0.08,0,0.12c0,0.08-0.03,0.17-0.08,0.23c-0.05,0.15-0.19,0.26-0.35,0.26l0,0c-0.19,0-0.36-0.14-0.38-0.33
			c-0.02-0.78-0.44-1.49-1.11-1.89C789.61,292.63,789.47,292.61,789.33,292.62z"/>
		<path class="st2" d="M755.8,326.46c-0.06,0.02-0.12,0.02-0.18,0c-0.12-0.06-0.2-0.18-0.2-0.31v-2.04
			c0.04-2.51,1.27-4.86,3.31-6.32l1.79-1.04c0.72-0.49,1.65-0.55,2.43-0.17c0.9,0.66,1.39,1.75,1.27,2.86v2.04
			c0,0.13-0.07,0.26-0.18,0.33l-8.1,4.65C755.9,326.47,755.84,326.47,755.8,326.46z M761.99,317c-0.37,0.01-0.74,0.12-1.06,0.31l0,0
			l-1.8,1.04c-1.82,1.32-2.91,3.43-2.95,5.68v1.39l7.33-4.24v-1.82c0.1-0.85-0.24-1.69-0.91-2.22
			C762.41,317.05,762.2,317,761.99,317z M760.73,317L760.73,317z"/>
		<path class="st2" d="M758.78,315.58c-0.31,0-0.61-0.08-0.88-0.23c-0.79-0.58-1.22-1.53-1.13-2.5c0.02-2.18,1.09-4.22,2.88-5.46
			c0.63-0.44,1.45-0.5,2.14-0.15c0.79,0.58,1.21,1.53,1.11,2.5c-0.02,2.18-1.08,4.21-2.86,5.46
			C759.65,315.43,759.22,315.57,758.78,315.58z M760.91,307.77c-0.31,0.01-0.61,0.1-0.88,0.26c-1.56,1.11-2.49,2.9-2.52,4.82
			c-0.08,0.7,0.2,1.39,0.74,1.84c0.45,0.21,0.99,0.16,1.39-0.13c1.55-1.12,2.48-2.91,2.5-4.82c0.09-0.7-0.19-1.4-0.74-1.84
			C761.26,307.81,761.09,307.76,760.91,307.77L760.91,307.77z"/>
		<path class="st2" d="M794.1,243.14l-66.7,38.52c-1.94,1.24-3.17,3.33-3.31,5.63v6.62c0,2.07,1.46,2.91,3.31,1.87l66.71-38.49
			c1.94-1.24,3.17-3.33,3.31-5.63v-6.62C797.35,242.94,795.89,242.11,794.1,243.14z"/>
		<path class="st23" d="M794.1,243.14l-66.7,38.52c-1.94,1.24-3.17,3.33-3.31,5.63v6.62c0,2.07,1.46,2.91,3.31,1.87l66.71-38.49
			c1.94-1.24,3.17-3.33,3.31-5.63v-6.62C797.35,242.94,795.89,242.11,794.1,243.14z"/>
		<path class="st2" d="M794.1,264.28l-66.7,38.52c-1.94,1.24-3.17,3.33-3.31,5.63v6.62c0,2.07,1.46,2.91,3.31,1.87l66.71-38.49
			c1.94-1.24,3.17-3.33,3.31-5.63v-6.62C797.35,264.08,795.89,263.25,794.1,264.28z"/>
		<path class="st6" d="M794.1,264.28l-66.7,38.52c-1.94,1.24-3.17,3.33-3.31,5.63v6.62c0,2.07,1.46,2.91,3.31,1.87l66.71-38.49
			c1.94-1.24,3.17-3.33,3.31-5.63v-6.62C797.35,264.08,795.89,263.25,794.1,264.28z"/>
	</g>
	<g>
		<path class="st1" d="M954.08,9.97c-1.82-0.84-3.95-0.64-5.56,0.55l0,0l-15.61,9.01c-1.86,1.32-2.98,3.45-3.01,5.73v9.93
			c-0.26,3.34-2.11,6.36-4.97,8.11L895.5,60.51V54.8c0.09-1.02-0.4-2.01-1.27-2.55l-7.3-4.2c-1.24-0.57-2.68-0.47-3.82,0.28
			l-4.82,2.68l-1.16,0.68l-7.71,4.54c-0.44,0.26-0.86,0.55-1.26,0.88l-0.6,0.53c-2.61,2.45-4.17,5.81-4.37,9.39v195.55
			c-0.16,1.57,0.52,3.1,1.8,4.02l7.33,4.24c1.44,0.66,3.13,0.49,4.4-0.45l80.83-46.67c3.67-2.4,5.98-6.4,6.22-10.78V19.26
			c0.21-1.99-0.68-3.94-2.32-5.1L954.08,9.97z"/>
		<path class="st22" d="M894.11,52.15c-1.2-0.44-2.53-0.3-3.61,0.38l-4.82,2.71l-1.16,0.66l-7.86,4.55
			c-0.45,0.24-0.87,0.53-1.26,0.86l-0.6,0.53c-0.88,0.83-1.65,1.78-2.28,2.81l-7.32-4.22c0.64-1.03,1.41-1.98,2.28-2.81
			c0.2-0.18,0.38-0.36,0.6-0.53c0.39-0.33,0.81-0.62,1.26-0.88l7.86-4.54l1.16-0.66l4.82-2.7c1.14-0.74,2.58-0.85,3.82-0.3
			L894.11,52.15z"/>
		<path class="st22" d="M961.4,14.2c-1.82-0.84-3.95-0.64-5.56,0.55l-15.61,8.96c-0.94,0.58-1.68,1.42-2.15,2.42l-7.3-4.07
			c0.46-1,1.2-1.84,2.14-2.42l15.61-9.17c1.62-1.17,3.75-1.38,5.56-0.55C955.39,10.74,960.07,13.45,961.4,14.2z"/>
		<path class="st15" d="M938.07,26.18c-0.54,1.02-0.84,2.15-0.86,3.31v9.93c-0.13,2.19-0.97,4.27-2.4,5.93l-7.32-4.22
			c1.42-1.66,2.27-3.74,2.4-5.93v-9.93c0.03-1.16,0.33-2.29,0.88-3.31L938.07,26.18z"/>
		<path class="st17" d="M955.84,14.74L955.84,14.74l-15.61,8.96c-1.85,1.34-2.95,3.49-2.95,5.78v9.93
			c-0.26,3.34-2.11,6.36-4.97,8.11l-31.85,18.64c-2.7,1.56-4.88,0.46-4.88-2.47V54.8c0-2.88-2.65-3.59-5.08-2.25l-4.82,2.7
			l-1.16,0.66l-7.86,4.54c-0.44,0.26-0.86,0.55-1.26,0.88c-0.22,0.17-0.4,0.35-0.6,0.53c-2.61,2.45-4.17,5.81-4.37,9.39V266.8
			c0,3.99,2.78,5.6,6.22,3.59l80.83-46.67c3.67-2.4,5.98-6.4,6.22-10.78V19.26C963.77,14.28,960.17,12.24,955.84,14.74z"/>
		<path class="st1" d="M959.33,15.17c2.68,0,2.88,3.15,2.88,4.12v193.68c-0.23,3.85-2.26,7.36-5.48,9.49l-80.83,46.67
			c-0.6,0.39-1.3,0.61-2.02,0.65c-1.75,0-1.95-2.05-1.95-2.95V71.24c0.19-3.15,1.58-6.11,3.87-8.28l0.22-0.2l0.33-0.3
			c0.34-0.27,0.69-0.51,1.06-0.73l7.86-4.55l1.14-0.65l4.8-2.7c0.5-0.29,1.07-0.45,1.66-0.46c0.86,0,1.26,0.45,1.26,1.41v8.89
			c-0.3,2.28,1.3,4.38,3.59,4.68c0.15,0.02,0.31,0.03,0.47,0.04c1.08-0.03,2.13-0.35,3.05-0.91l31.85-18.66
			c3.29-2.03,5.38-5.53,5.63-9.39v-9.93c0.03-1.75,0.87-3.38,2.27-4.42l15.61-9.01c0.82-0.53,1.77-0.83,2.75-0.88 M959.33,13.7
			c-1.24,0.05-2.44,0.42-3.49,1.08l-15.61,8.92c-1.85,1.34-2.95,3.49-2.95,5.78v9.93c-0.26,3.34-2.11,6.36-4.97,8.11l-31.85,18.64
			c-0.69,0.43-1.47,0.68-2.28,0.71c-1.54,0-2.6-1.16-2.6-3.18V54.8c0.18-1.44-0.83-2.76-2.28-2.95c-0.16-0.02-0.31-0.03-0.47-0.02
			c-0.82,0.02-1.62,0.25-2.33,0.66l-4.82,2.7l-1.16,0.66l-7.86,4.54c-0.44,0.26-0.86,0.55-1.26,0.88c-0.22,0.17-0.4,0.35-0.6,0.53
			c-2.61,2.45-4.17,5.81-4.37,9.39v195.6c0,2.83,1.39,4.45,3.44,4.45c0.99-0.03,1.95-0.33,2.78-0.86l80.83-46.67
			c3.67-2.4,5.98-6.4,6.22-10.78V19.26c0-3.56-1.79-5.63-4.39-5.63V13.7z"/>
		<polygon class="st2" points="881.43,91.54 954.63,49.26 954.63,133.95 881.43,176.21 		"/>
		<polygon class="st5" points="881.43,176.21 881.43,148.04 906.57,105.03 936.32,130.42 930.23,119.84 939.58,105.03 
			954.63,117.31 954.63,133.95 		"/>
		<path class="st5" d="M930.44,77.76c3.31-1.89,5.94-0.35,5.94,3.44c-0.2,4.21-2.41,8.06-5.94,10.36c-3.31,1.9-5.94,0.36-5.94-3.43
			C924.72,83.93,926.92,80.08,930.44,77.76z"/>
		<path class="st2" d="M882.95,253.06c-0.06,0.02-0.12,0.02-0.18,0c-0.12-0.07-0.18-0.2-0.18-0.33v-7.02l-1.8,1.04
			c-0.19,0.1-0.42,0.02-0.51-0.16c-0.06-0.11-0.06-0.24,0-0.35l6.94-11.82c0.09-0.17,0.3-0.24,0.47-0.15c0.01,0,0.02,0.01,0.03,0.02
			l6.92,3.81c0.12,0.07,0.19,0.19,0.2,0.33c0,0.14-0.07,0.27-0.2,0.33l-2.15,1.24v7.45c0,0.14-0.07,0.27-0.2,0.33l-9.14,5.28H882.95
			z M882.95,244.63c0.07-0.01,0.13-0.01,0.2,0c0.12,0.07,0.18,0.2,0.18,0.33v7.02l8.39-4.85v-7.45c0-0.13,0.07-0.26,0.18-0.33
			l1.77-1.01l-6.03-3.31l-6.01,10.28l1.13-0.66C882.82,244.62,882.89,244.62,882.95,244.63z"/>
		<path class="st2" d="M917.12,233.31L917.12,233.31l-1.41-0.28c-2.9-0.59-4.99-3.15-4.97-6.11c-0.17-2.65,0.84-5.24,2.76-7.07
			c0.64-0.6,1.56-0.79,2.38-0.51c0.49,0.21,0.89,0.58,1.13,1.06c0.39-1.9,1.6-3.54,3.31-4.47c0.64-0.27,1.38-0.18,1.94,0.23
			c1,1.03,1.43,2.48,1.16,3.89c-0.6,4.04-2.18,7.88-4.6,11.17l-1.39,1.94C917.36,233.26,917.24,233.32,917.12,233.31z
			 M915.16,219.95c-0.45,0.03-0.87,0.2-1.21,0.5c-1.74,1.66-2.65,4.01-2.48,6.41c-0.03,2.6,1.76,4.86,4.29,5.43l1.16,0.23l1.24-1.75
			c2.34-3.18,3.88-6.89,4.47-10.79c0.23-1.15-0.09-2.34-0.86-3.23c-0.36-0.26-0.84-0.3-1.24-0.12c-1.37,0.5-2.7,2.67-3.08,4.97
			c0.01,0.04,0.01,0.09,0,0.13c0,0.08-0.03,0.17-0.08,0.23c-0.05,0.15-0.19,0.24-0.35,0.25l0,0c-0.18,0-0.34-0.13-0.36-0.31
			c-0.02-0.78-0.44-1.49-1.11-1.89C915.42,219.95,915.29,219.94,915.16,219.95L915.16,219.95z"/>
		<path class="st2" d="M943.75,217.94c-0.06,0.02-0.13,0.02-0.2,0c-0.11-0.06-0.19-0.18-0.18-0.31v-2.04
			c0.04-2.51,1.27-4.86,3.31-6.32l1.8-1.04l0,0c0.72-0.49,1.65-0.55,2.43-0.17c0.9,0.66,1.39,1.75,1.27,2.86v2.04
			c0,0.14-0.07,0.27-0.2,0.33l-8.1,4.59C943.86,217.92,943.81,217.94,943.75,217.94z M948.88,208.81l-1.8,1.04
			c-1.83,1.32-2.92,3.42-2.96,5.68v1.39l7.33-4.24v-1.82c0.11-0.84-0.23-1.68-0.89-2.22c-0.54-0.25-1.17-0.18-1.66,0.17H948.88z"/>
		<path class="st2" d="M946.71,207.07c-0.31,0-0.61-0.08-0.88-0.23c-0.79-0.58-1.21-1.53-1.11-2.5c0.02-2.18,1.09-4.22,2.88-5.46
			c0.62-0.44,1.44-0.49,2.12-0.15c0.79,0.58,1.22,1.53,1.13,2.5c-0.02,2.18-1.09,4.22-2.88,5.46
			C947.59,206.92,947.16,207.05,946.71,207.07z M948.85,199.25c-0.31,0.02-0.61,0.11-0.88,0.26c-1.55,1.12-2.47,2.91-2.5,4.82
			c-0.08,0.7,0.2,1.4,0.74,1.85c0.46,0.2,0.98,0.14,1.39-0.15c1.55-1.12,2.48-2.91,2.5-4.82c0.08-0.7-0.2-1.39-0.74-1.84
			c-0.15-0.09-0.32-0.13-0.5-0.13H948.85z"/>
		<path class="st13" d="M884.67,181.38l48.4-27.94c1.79-1.04,3.31-0.3,3.31,1.66c-0.17,2.23-1.4,4.23-3.31,5.4l-48.4,27.93
			c-1.8,1.04-3.31,0.31-3.31-1.66C881.54,184.54,882.77,182.54,884.67,181.38z"/>
		<path class="st13" d="M884.67,195.48l63.85-36.88c1.8-1.04,3.31-0.3,3.31,1.66c-0.17,2.23-1.4,4.24-3.31,5.4l-63.85,36.83
			c-1.8,1.03-3.31,0.3-3.31-1.66C881.55,198.62,882.78,196.63,884.67,195.48z"/>
		<path class="st2" d="M887.52,209.63c3.31-1.95,6.09-0.38,6.09,3.51c-0.23,4.29-2.49,8.21-6.09,10.56
			c-3.31,1.95-6.09,0.36-6.09-3.51C881.64,215.9,883.91,211.97,887.52,209.63z"/>
		<path class="st13" d="M901.67,201.46l32.76-18.84c1.08-0.61,1.94-0.12,1.92,1.13v0.53c-0.1,1.35-0.83,2.58-1.97,3.31l-32.71,18.89
			c-1.08,0.61-1.94,0.12-1.94-1.13v-0.65C899.84,203.38,900.56,202.18,901.67,201.46z"/>
		<path class="st2" d="M901.14,212.08l50.13-28.92c0.79-0.46,1.42-0.08,1.41,0.83v0.46c-0.08,1.01-0.62,1.92-1.46,2.48l-50.08,28.9
			c-0.79,0.46-1.42,0.1-1.42-0.83v-0.46C899.77,213.55,900.3,212.63,901.14,212.08z"/>
	</g>
	<g>
		<path class="st1" d="M796.82,358.09c-1.82-0.85-3.95-0.65-5.58,0.53l0,0l-15.61,9.02c-1.86,1.32-2.98,3.45-3.01,5.73v9.93
			c-0.25,3.32-2.05,6.32-4.87,8.1l-29.43,17.18v-5.79c0.09-1.02-0.41-2-1.29-2.53l-7.3-4.09c-1.24-0.57-2.68-0.47-3.82,0.28
			l-4.82,2.7l-1.16,0.66l-7.78,4.49c-0.45,0.25-0.87,0.54-1.27,0.86l-0.6,0.53c-2.6,2.46-4.17,5.81-4.37,9.39v195.57
			c-0.16,1.57,0.53,3.1,1.8,4.02l7.33,4.24c1.44,0.66,3.12,0.49,4.4-0.45l80.83-46.67c3.68-2.4,5.99-6.41,6.22-10.79V367.31
			c0.21-1.99-0.67-3.94-2.32-5.08L796.82,358.09z"/>
		<path class="st22" d="M736.82,400.21c-1.2-0.43-2.53-0.28-3.61,0.4l-4.82,2.7l-1.16,0.66l-7.85,4.55
			c-0.44,0.26-0.87,0.55-1.27,0.86l-0.6,0.53c-0.87,0.84-1.64,1.79-2.28,2.81l-7.3-4.22c0.63-1.04,1.39-1.98,2.27-2.81l0.6-0.53
			c0.4-0.32,0.82-0.61,1.26-0.86l7.86-4.55l1.16-0.66l4.82-2.7c1.14-0.75,2.59-0.85,3.82-0.28L736.82,400.21z"/>
		<path class="st22" d="M804.12,362.26c-1.81-0.86-3.95-0.65-5.56,0.53l-15.59,9.02c-0.94,0.58-1.68,1.42-2.15,2.42l-7.32-4.22
			c0.47-0.99,1.21-1.83,2.14-2.42l15.63-9.02c1.62-1.17,3.75-1.37,5.56-0.53L804.12,362.26z"/>
		<path class="st15" d="M780.81,374.23c-0.55,1.02-0.85,2.15-0.88,3.31v9.93c-0.13,2.19-0.97,4.27-2.4,5.93l-7.32-4.22
			c1.42-1.66,2.27-3.74,2.42-5.93v-9.93c0.03-1.16,0.32-2.29,0.86-3.31L780.81,374.23z"/>
		<path class="st17" d="M798.55,362.79L798.55,362.79l-15.61,9.02c-1.86,1.32-2.98,3.45-3.01,5.73v9.93
			c-0.25,3.32-2.05,6.32-4.87,8.1l-31.88,18.66c-2.68,1.56-4.87,0.45-4.87-2.47v-8.97c0-2.86-2.65-3.59-5.1-2.25l-4.82,2.7
			l-1.16,0.66l-7.86,4.55c-0.44,0.25-0.86,0.54-1.26,0.86l-0.6,0.53c-2.61,2.46-4.17,5.82-4.37,9.4v195.62
			c0,3.97,2.8,5.58,6.22,3.59l80.83-46.67c3.68-2.4,5.99-6.41,6.22-10.79V367.31C806.5,362.35,802.89,360.29,798.55,362.79z"/>
		<path class="st1" d="M802.06,363.22c2.67,0,2.88,3.16,2.88,4.12v193.68c-0.24,3.85-2.27,7.36-5.48,9.49l-80.83,46.67
			c-0.61,0.39-1.31,0.62-2.04,0.66c-1.75,0-1.94-2.07-1.94-2.95V419.34c0.19-3.15,1.57-6.11,3.86-8.28l0.22-0.18l0.33-0.3
			c0.34-0.28,0.7-0.53,1.08-0.74l7.85-4.54l1.14-0.66l4.82-2.68c0.5-0.29,1.07-0.45,1.66-0.46c0.86,0,1.26,0.45,1.26,1.39v8.91
			c-0.27,2.29,1.36,4.36,3.65,4.64c0.15,0.02,0.3,0.03,0.44,0.03c1.08-0.03,2.13-0.34,3.05-0.91l31.87-18.64
			c3.29-2.04,5.38-5.54,5.63-9.4v-9.93c0.03-1.75,0.87-3.38,2.27-4.42l15.61-9.02c0.83-0.52,1.77-0.82,2.75-0.88 M802.11,361.77
			c-1.24,0.05-2.45,0.41-3.51,1.06l-15.61,9.02c-1.86,1.32-2.98,3.45-3.01,5.73v9.93c-0.25,3.32-2.05,6.32-4.87,8.1l-31.88,18.66
			c-0.69,0.43-1.48,0.67-2.28,0.7c-1.54,0-2.58-1.14-2.58-3.16v-9.01c0.15-1.45-0.9-2.74-2.35-2.89c-0.14-0.01-0.28-0.02-0.42-0.01
			c-0.82,0.02-1.62,0.24-2.33,0.65l-4.82,2.7l-1.16,0.66l-7.86,4.55c-0.44,0.25-0.86,0.54-1.26,0.86l-0.6,0.53
			c-2.61,2.46-4.17,5.82-4.37,9.4v195.62c0,2.81,1.41,4.45,3.44,4.45c0.99-0.04,1.95-0.33,2.78-0.86l80.83-46.67
			c3.68-2.4,5.99-6.41,6.22-10.79V367.31c0-3.56-1.79-5.61-4.37-5.61L802.11,361.77z"/>
		<path class="st2" d="M725.68,601.11c-0.07,0.01-0.13,0.01-0.2,0c-0.12-0.06-0.19-0.18-0.18-0.31v-7.02l-1.79,1.03
			c-0.15,0.13-0.38,0.11-0.51-0.04c-0.11-0.14-0.11-0.33,0-0.47l6.92-11.82c0.11-0.17,0.32-0.22,0.5-0.13l6.94,3.82
			c0.12,0.06,0.19,0.18,0.18,0.31c0.01,0.14-0.06,0.26-0.18,0.33l-2.15,1.26v7.43c0.01,0.14-0.06,0.26-0.18,0.33l-9.15,5.28
			C725.81,601.12,725.74,601.12,725.68,601.11z M725.68,592.7c0.06-0.02,0.12-0.02,0.18,0c0.12,0.06,0.19,0.18,0.18,0.31v7.02
			l8.41-4.85v-7.45c0-0.13,0.08-0.25,0.2-0.31l1.75-1.03l-6.01-3.31l-6.03,10.28l1.13-0.65L725.68,592.7z"/>
		<path class="st2" d="M759.83,581.37L759.83,581.37l-1.41-0.26c-2.91-0.58-5-3.15-4.97-6.13c-0.19-2.65,0.83-5.24,2.76-7.05
			c0.64-0.59,1.54-0.79,2.37-0.53c0.49,0.21,0.89,0.58,1.13,1.06c0.41-1.9,1.61-3.53,3.31-4.47c0.64-0.26,1.38-0.16,1.94,0.25
			c1,1.02,1.44,2.47,1.18,3.87c-0.61,4.05-2.19,7.88-4.62,11.17l-1.37,1.94C760.07,581.32,759.96,581.38,759.83,581.37z M757.9,568
			c-0.45,0.03-0.88,0.21-1.22,0.5c-1.73,1.67-2.63,4.01-2.47,6.41c-0.05,2.61,1.75,4.89,4.3,5.45l1.16,0.23l1.24-1.66
			c2.35-3.18,3.9-6.88,4.49-10.79c0.22-1.15-0.1-2.35-0.88-3.23c-0.35-0.27-0.82-0.32-1.23-0.13c-1.74,1.09-2.88,2.92-3.08,4.97
			c0.01,0.04,0.01,0.08,0,0.12c0,0.08-0.03,0.17-0.08,0.23c-0.05,0.15-0.19,0.26-0.35,0.26l0,0c-0.19-0.01-0.35-0.14-0.38-0.33
			c-0.02-0.78-0.44-1.49-1.11-1.89C758.17,568.06,758.04,568.02,757.9,568L757.9,568z"/>
		<path class="st2" d="M786.47,566c-0.06,0.02-0.12,0.02-0.18,0c-0.12-0.07-0.18-0.2-0.18-0.33v-2.02c0.04-2.52,1.27-4.87,3.31-6.34
			l1.79-1.03c0.72-0.51,1.66-0.57,2.43-0.17c0.9,0.66,1.39,1.75,1.27,2.86V561c0.01,0.14-0.06,0.26-0.18,0.33l-8.1,4.62L786.47,566z
			 M792.66,556.54c-0.38,0.02-0.74,0.13-1.06,0.33l0,0l-1.8,1.04c-1.83,1.32-2.92,3.43-2.95,5.68v1.42l7.33-4.24v-1.8
			c0.1-0.86-0.25-1.7-0.93-2.23C793.08,556.63,792.87,556.56,792.66,556.54L792.66,556.54z"/>
		<path class="st2" d="M789.45,555.09c-0.31,0.01-0.61-0.07-0.88-0.23c-0.8-0.57-1.23-1.52-1.13-2.5c0.03-2.18,1.1-4.21,2.88-5.46
			c0.64-0.43,1.45-0.48,2.14-0.13c0.79,0.58,1.21,1.53,1.11,2.5c-0.02,2.17-1.09,4.21-2.86,5.46
			C790.33,554.95,789.89,555.08,789.45,555.09z M791.6,547.31c-0.31,0.01-0.62,0.11-0.88,0.28c-1.55,1.11-2.48,2.89-2.5,4.8
			c-0.1,0.71,0.19,1.41,0.74,1.85c0.45,0.2,0.98,0.15,1.37-0.15c1.55-1.11,2.47-2.9,2.5-4.8c0.09-0.71-0.19-1.41-0.74-1.85
			C791.95,547.35,791.78,547.3,791.6,547.31z"/>
		<path class="st2" d="M744.54,461.29l29.57-17.12c1.09-0.65,1.99-0.18,1.99,0.99c-0.09,1.36-0.83,2.59-1.99,3.31l-29.57,17.07
			c-1.09,0.63-1.99,0.18-1.99-0.99C742.67,463.21,743.4,462.01,744.54,461.29z"/>
		<path class="st2" d="M739.82,472.76l39-22.53c1.09-0.63,1.99-0.18,1.99,1.01c-0.09,1.36-0.83,2.59-1.99,3.31l-39,22.51
			c-1.09,0.65-1.99,0.2-1.99-0.99C737.93,474.72,738.67,473.49,739.82,472.76z"/>
		<path class="st13" d="M726.1,496.63l32.76-18.87c1.08-0.63,1.94-0.12,1.92,1.13v0.63c-0.11,1.35-0.85,2.57-1.99,3.31l-32.69,18.95
			c-1.08,0.63-1.95,0.12-1.95-1.13v-0.65C724.22,498.64,724.95,497.39,726.1,496.63z"/>
		<path class="st1" d="M725.77,509.05l69.96-40.39c0.89-0.51,1.66-0.1,1.66,0.94v6.8c-0.07,1.15-0.68,2.2-1.66,2.81l-69.94,40.41
			c-0.89,0.51-1.66,0.08-1.66-0.94v-6.82C724.19,510.72,724.8,509.67,725.77,509.05z"/>
		<path class="st1" d="M725.77,537.14l69.96-40.38c0.89-0.53,1.66-0.1,1.66,0.93v6.8c-0.07,1.15-0.69,2.2-1.66,2.83l-69.94,40.39
			c-0.89,0.51-1.66,0.1-1.66-0.94v-6.82C724.2,538.81,724.81,537.77,725.77,537.14z"/>
		<path class="st13" d="M726.1,524.74l32.76-18.89c1.08-0.63,1.94-0.12,1.92,1.13v0.65c-0.12,1.35-0.85,2.57-1.99,3.31l-32.69,18.87
			c-1.08,0.63-1.95,0.12-1.95-1.13v-0.63C724.24,526.7,724.96,525.48,726.1,524.74z"/>
		<path class="st2" d="M726.11,558.15l26.59-15.36c1.08-0.63,1.95-0.12,1.95,1.13v9.52c-0.1,1.35-0.82,2.57-1.95,3.31l-26.59,15.36
			c-1.09,0.63-1.95,0.12-1.95-1.13v-9.58C724.27,560.07,724.99,558.87,726.11,558.15z"/>
		<path class="st2" d="M768.79,533.57l26.6-15.38c1.08-0.61,1.94-0.12,1.94,1.13v9.58c-0.07,1.38-0.79,2.64-1.94,3.39l-26.6,15.36
			c-1.08,0.61-1.94,0.12-1.94-1.13v-9.65C766.94,535.53,767.66,534.3,768.79,533.57z"/>
		<text transform="matrix(0.65 -0.38 0 1 736.9103 452.7794)" class="st13 st24 st25">Sign in</text>
	</g>
	<g>
		<path class="st1" d="M990.7,246.02c-1.82-0.84-3.95-0.64-5.58,0.53l0,0l-15.61,9.02c-1.86,1.32-2.98,3.45-3.01,5.73v9.93
			c-0.25,3.32-2.05,6.32-4.87,8.1l-29.43,17.23v-5.73c0.08-1.02-0.42-2-1.29-2.53l-7.3-4.22c-1.24-0.56-2.68-0.46-3.82,0.28
			l-4.82,2.7l-1.16,0.66l-7.86,4.55c-0.44,0.26-0.86,0.55-1.26,0.86l-0.6,0.53c-2.61,2.46-4.17,5.82-4.37,9.4v195.55
			c-0.16,1.57,0.53,3.1,1.8,4.02l7.33,4.24c1.44,0.66,3.12,0.49,4.4-0.45l80.83-46.67c3.68-2.4,5.99-6.41,6.22-10.79V255.29
			c0.21-1.99-0.68-3.93-2.32-5.08L990.7,246.02z"/>
		<path class="st22" d="M930.66,288.18c-1.2-0.43-2.53-0.28-3.61,0.4l-4.82,2.7l-1.16,0.68l-7.86,4.54
			c-0.44,0.26-0.86,0.56-1.26,0.88l-0.6,0.53c-0.89,0.83-1.66,1.78-2.28,2.81l-7.32-4.24c0.64-1.03,1.41-1.97,2.28-2.81l0.6-0.53
			c0.4-0.32,0.82-0.6,1.26-0.86l7.86-4.55l1.16-0.66l4.82-2.68c1.14-0.76,2.58-0.87,3.82-0.3L930.66,288.18z"/>
		<path class="st22" d="M998,250.24c-1.81-0.85-3.95-0.64-5.56,0.55l-15.61,9.01c-0.93,0.59-1.68,1.44-2.15,2.43l-7.3-4.24
			c0.47-0.99,1.21-1.83,2.14-2.42l15.61-9.01c1.62-1.18,3.76-1.39,5.58-0.55L998,250.24z"/>
		<path class="st15" d="M974.67,262.23c-0.55,1.02-0.84,2.15-0.86,3.31v9.93c-0.13,2.19-0.97,4.27-2.4,5.93l-7.32-4.22
			c1.42-1.66,2.27-3.74,2.4-5.93v-9.93c0.03-1.16,0.33-2.29,0.88-3.31L974.67,262.23z"/>
		<path class="st17" d="M992.44,250.79L992.44,250.79l-15.61,9.01c-1.86,1.32-2.98,3.45-3.01,5.73v9.93
			c-0.25,3.32-2.06,6.33-4.88,8.1l-31.87,18.66c-2.68,1.56-4.87,0.45-4.87-2.47v-8.91c0-2.86-2.65-3.59-5.1-2.25l-4.82,2.7
			l-1.16,0.66l-7.86,4.55c-0.44,0.26-0.86,0.54-1.26,0.86l-0.6,0.53c-2.61,2.46-4.17,5.82-4.37,9.4v195.55c0,3.97,2.8,5.6,6.22,3.59
			l80.83-46.67c3.68-2.4,5.99-6.41,6.22-10.79V255.29C1000.32,250.32,996.77,248.27,992.44,250.79z"/>
		<path class="st1" d="M995.95,251.22c2.67,0,2.86,3.15,2.86,4.11v193.68c-0.24,3.85-2.26,7.36-5.46,9.5l-80.9,46.63
			c-0.62,0.38-1.31,0.6-2.04,0.65c-1.75,0-1.94-2.05-1.94-2.95V307.29c0.19-3.15,1.57-6.11,3.86-8.28l0.2-0.18l0.35-0.3
			c0.33-0.28,0.69-0.53,1.08-0.74l7.85-4.54l1.14-0.66l4.8-2.68c0.51-0.29,1.07-0.45,1.66-0.46c0.86,0,1.26,0.45,1.26,1.39v8.91
			c-0.27,2.29,1.36,4.36,3.64,4.64c0.15,0.02,0.3,0.03,0.44,0.03c1.08-0.03,2.13-0.34,3.05-0.91l31.87-18.64
			c3.28-2.04,5.38-5.54,5.63-9.4v-9.93c0.03-1.74,0.86-3.37,2.25-4.42l15.61-9.02c0.83-0.52,1.78-0.81,2.76-0.86 M995.91,249.71
			c-1.24,0.05-2.45,0.42-3.51,1.08l-15.61,9.01c-1.86,1.32-2.98,3.45-3.01,5.73v9.93c-0.25,3.32-2.06,6.33-4.88,8.1l-31.87,18.66
			c-0.69,0.43-1.47,0.68-2.28,0.71c-1.54,0-2.58-1.16-2.58-3.18v-8.91c0.15-1.45-0.9-2.74-2.35-2.89c-0.14-0.01-0.28-0.02-0.42-0.01
			c-0.82,0.02-1.62,0.24-2.33,0.65l-4.82,2.7l-1.16,0.66l-7.86,4.55c-0.44,0.26-0.86,0.54-1.26,0.86l-0.6,0.53
			c-2.61,2.46-4.17,5.82-4.37,9.4v195.55c0,2.81,1.41,4.45,3.44,4.45c0.99-0.04,1.95-0.33,2.78-0.86l80.83-46.67
			c3.68-2.4,5.99-6.41,6.22-10.79V255.29c0-3.54-1.79-5.61-4.37-5.61L995.91,249.71z"/>
		<path class="st2" d="M919.57,489.09h-0.2c-0.12-0.06-0.19-0.18-0.18-0.31v-7.02l-1.8,1.03c-0.17,0.11-0.39,0.06-0.5-0.11
			c-0.08-0.12-0.08-0.28,0.01-0.4l6.92-11.8c0.09-0.18,0.31-0.25,0.49-0.15c0,0,0,0,0,0l6.92,3.82c0.13,0.06,0.21,0.19,0.2,0.33
			c0,0.13-0.07,0.26-0.18,0.33l-2.17,1.24v7.45c0,0.13-0.07,0.25-0.18,0.31l-9.15,5.28L919.57,489.09z M919.57,480.68h0.18
			c0.11,0.06,0.19,0.18,0.18,0.31v7.02l8.41-4.85v-7.43c0-0.13,0.07-0.26,0.18-0.33l1.77-1.03l-6.01-3.31l-6.03,10.26l1.13-0.65
			H919.57z"/>
		<path class="st2" d="M953.72,469.35L953.72,469.35l-1.54-0.35c-2.91-0.59-4.99-3.16-4.97-6.13c-0.18-2.65,0.84-5.24,2.78-7.05
			c0.64-0.59,1.54-0.79,2.37-0.53c0.49,0.21,0.88,0.59,1.13,1.06c0.4-1.9,1.61-3.53,3.31-4.45c0.64-0.27,1.38-0.19,1.94,0.23
			c1,1.03,1.44,2.48,1.18,3.89c-0.6,4.04-2.19,7.87-4.62,11.16l-1.37,1.94C953.88,469.22,953.81,469.31,953.72,469.35z
			 M951.76,455.99c-0.45,0.03-0.87,0.2-1.21,0.5c-1.74,1.65-2.65,4-2.48,6.39c-0.05,2.62,1.76,4.9,4.32,5.45l1.16,0.23l1.24-1.74
			c2.36-3.17,3.89-6.88,4.47-10.79c0.27-1.18-0.05-2.41-0.86-3.31c-0.35-0.27-0.82-0.32-1.22-0.13c-1.74,1.09-2.88,2.92-3.08,4.97
			c0,0,0,0.08,0,0.12c0,0.09-0.03,0.17-0.08,0.23c-0.05,0.15-0.19,0.26-0.35,0.26l0,0c-0.19,0-0.35-0.13-0.38-0.31
			c-0.02-0.78-0.44-1.5-1.11-1.9C952.04,455.94,951.9,455.95,951.76,455.99L951.76,455.99z"/>
		<path class="st2" d="M980.32,453.97c-0.06,0.02-0.12,0.02-0.18,0c-0.12-0.06-0.2-0.18-0.2-0.31v-2.04
			c0.04-2.52,1.27-4.87,3.31-6.34l1.79-1.03c0.72-0.5,1.65-0.56,2.43-0.17c0.9,0.66,1.39,1.75,1.27,2.86v2.04
			c0,0.13-0.07,0.25-0.18,0.31l-8.1,4.67C980.42,453.99,980.37,453.99,980.32,453.97z M986.51,444.52
			c-0.38,0.02-0.74,0.13-1.06,0.33l0,0l-1.82,0.98c-1.82,1.32-2.91,3.43-2.95,5.68v1.37l7.33-4.22v-1.82
			c0.1-0.85-0.24-1.69-0.91-2.22c-0.18-0.07-0.37-0.11-0.56-0.1L986.51,444.52z M985.25,444.52L985.25,444.52z"/>
		<path class="st2" d="M983.33,443.1c-0.31,0.01-0.61-0.07-0.88-0.22c-0.79-0.58-1.22-1.53-1.13-2.5c0.02-2.18,1.09-4.22,2.88-5.46
			c0.63-0.44,1.45-0.5,2.14-0.15c0.79,0.58,1.21,1.53,1.11,2.5c-0.02,2.18-1.09,4.21-2.86,5.46
			C984.21,442.96,983.78,443.09,983.33,443.1z M985.47,435.28c-0.31,0.01-0.62,0.11-0.88,0.28c-1.56,1.11-2.49,2.9-2.52,4.82
			c-0.08,0.7,0.2,1.39,0.74,1.84c0.45,0.2,0.98,0.15,1.39-0.13c1.55-1.12,2.47-2.91,2.5-4.82c0.09-0.71-0.19-1.41-0.74-1.85
			C985.81,435.33,985.64,435.29,985.47,435.28L985.47,435.28z"/>
		<path class="st2" d="M938.42,349.29l29.55-17.07c1.11-0.63,1.99-0.18,1.99,0.99c-0.09,1.36-0.83,2.59-1.99,3.31l-29.55,17.05
			c-1.09,0.65-1.99,0.18-1.99-0.99C936.53,351.23,937.27,350,938.42,349.29z"/>
		<path class="st2" d="M933.7,360.74l38.99-22.51c1.11-0.63,1.99-0.18,1.99,1.01c-0.09,1.36-0.83,2.59-1.99,3.31l-38.99,22.5
			c-1.09,0.63-1.99,0.18-1.99-1.01C931.82,362.68,932.55,361.46,933.7,360.74z"/>
		<path class="st13" d="M919.98,384.58l32.76-18.89c1.08-0.63,1.94-0.12,1.92,1.13v0.65c-0.12,1.35-0.85,2.57-1.99,3.31
			l-32.69,18.87c-1.09,0.63-1.95,0.12-1.95-1.13v-0.63C918.12,386.54,918.84,385.31,919.98,384.58z"/>
		<path class="st1" d="M919.65,397.03l69.96-40.39c0.89-0.51,1.66-0.1,1.66,0.94v6.8c-0.07,1.15-0.68,2.2-1.66,2.81l-69.94,40.41
			c-0.91,0.51-1.66,0.1-1.66-0.94v-6.82C918.08,398.7,918.69,397.65,919.65,397.03z"/>
		<path class="st1" d="M919.65,425.12l69.96-40.38c0.89-0.53,1.66-0.1,1.66,0.93v6.82c-0.07,1.15-0.69,2.19-1.66,2.81l-69.94,40.39
			c-0.91,0.51-1.66,0.1-1.66-0.94v-6.8C918.08,426.8,918.69,425.75,919.65,425.12z"/>
		<path class="st13" d="M919.98,412.72l32.76-18.89c1.08-0.61,1.94-0.12,1.92,1.13v0.65c-0.12,1.35-0.85,2.57-1.99,3.31
			l-32.69,18.87c-1.09,0.63-1.95,0.13-1.95-1.13v-0.63C918.12,414.68,918.84,413.46,919.98,412.72z"/>
		<path class="st2" d="M919.98,446.13l26.6-15.36c1.08-0.63,1.94-0.12,1.94,1.13v9.58c-0.09,1.35-0.82,2.58-1.95,3.31l-26.59,15.36
			c-1.08,0.63-1.94,0.12-1.94-1.13v-9.58C918.14,448.09,918.85,446.87,919.98,446.13z"/>
		<path class="st2" d="M962.67,421.48l26.59-15.38c1.09-0.63,1.95-0.13,1.95,1.13v9.58c-0.1,1.35-0.82,2.57-1.95,3.31l-26.59,15.36
			c-1.08,0.61-1.95,0.12-1.95-1.13v-9.58C960.82,423.43,961.54,422.21,962.67,421.48z"/>
		<text transform="matrix(0.65 -0.38 0 1 928.0934 342.8438)" class="st13 st24 st25">Sign up</text>
	</g>
</g>
</svg>
