<?xml version="1.0" encoding="utf-8"?>
<!-- Generator: Adobe Illustrator 23.1.0, SVG Export Plug-In . SVG Version: 6.00 Build 0)  -->
<svg version="1.1" id="Layer_1" xmlns="http://www.w3.org/2000/svg" xmlns:xlink="http://www.w3.org/1999/xlink" x="0px" y="0px"
	 viewBox="0 0 1366 768" style="enable-background:new 0 0 1366 768;" xml:space="preserve">
<style type="text/css">
	.st0{fill:#F5F5F5;}
	.st1{fill:#E0E0E0;}
	.st2{fill:#EBEBEB;}
	.st3{fill:#FFFFFF;}
	.st4{fill:#263238;}
	.st5{fill:#FFC100;}
	.st6{opacity:0.3;}
	.st7{fill:#FFBE9D;}
	.st8{fill:#455A64;}
	.st9{fill:#BA7F72;}
	.st10{fill:#8B5D54;}
	.st11{fill:#FAFAFA;}
</style>
<g id="freepik--background-complete--inject-2">
	<path class="st0" d="M1016.34,316c1.08-7.85-9.99-14.29-18.31-14.96c-3.96-0.33-8.07,0.28-11.83-1.03
		c-8.17-2.83-11.44-13.35-19.34-16.69c-5.93-2.52-12.77-0.28-18.52,2.62s-11.44,6.54-17.88,6.95c-5.59,0.36-11.67-1.63-16.56,1.03
		c-3.64,2.03-5.56,6.23-8.92,8.71s-7.57,2.94-11.65,3.15c-4.09,0.21-8.3,0.26-12.01,1.96c-3.71,1.7-6.8,5.64-6.01,9.64L1016.34,316z
		"/>
	<path class="st1" d="M750.98,233.98l1.47,2.45c1.66,2.75,4.07,4.97,6.95,6.41l2.58,1.26l-2.47,1.49c-2.75,1.66-4.97,4.07-6.39,6.95
		l-1.27,2.57l-1.47-2.45c-1.66-2.76-4.08-4.98-6.96-6.41l-2.57-1.26l2.47-1.49c2.75-1.66,4.97-4.07,6.39-6.95L750.98,233.98z"/>
	<path class="st1" d="M336.94,389.26l1.49,2.47c1.66,2.75,4.07,4.97,6.95,6.39l2.57,1.27l-2.45,1.47c-2.76,1.66-4.98,4.08-6.41,6.96
		l-1.27,2.57l-1.47-2.47c-1.66-2.75-4.07-4.97-6.95-6.39l-2.57-1.27l2.45-1.47c2.75-1.67,4.97-4.07,6.41-6.95L336.94,389.26z"/>
	<path class="st1" d="M549.41,113.47l1.26,12.52c0.24,3.02,1.57,5.85,3.74,7.96l0.15,0.13c2.18,1.88,4.94,2.96,7.81,3.06l9.81,0.49
		l-10.17,1.81c-2.64,0.43-5.08,1.69-6.96,3.6l-0.6,0.64c-1.75,2.06-2.8,4.61-3.01,7.31l-1.13,12.49l-1.24-11.82
		c-0.25-2.99-1.57-5.79-3.73-7.88l-0.39-0.36c-2.01-1.71-4.5-2.75-7.13-2.99l-10.44-1.1l9.81-1.19c2.91-0.3,5.62-1.61,7.67-3.71
		l0.36-0.39c1.77-2.06,2.83-4.64,3.02-7.36L549.41,113.47z"/>
	<path class="st1" d="M344.1,109.76l0.93,9.22c0.19,2.23,1.18,4.32,2.79,5.87l0.1,0.1c1.6,1.38,3.64,2.17,5.75,2.24l7.29,0.38
		l-7.5,1.34c-1.94,0.32-3.74,1.24-5.13,2.63l-0.44,0.47c-1.29,1.51-2.06,3.4-2.21,5.38l-0.83,9.22l-0.92-8.71
		c-0.18-2.2-1.16-4.26-2.75-5.8l-0.29-0.28c-1.49-1.25-3.32-2.01-5.25-2.19l-7.7-0.82l7.21-0.87c2.15-0.22,4.15-1.19,5.66-2.75
		c0.1-0.08,0.18-0.18,0.26-0.28c1.28-1.51,2.04-3.38,2.19-5.34L344.1,109.76z"/>
	<path class="st1" d="M962.4,385.87l0.93,9.22c0.17,2.23,1.14,4.31,2.75,5.87l0.11,0.1c1.6,1.38,3.64,2.17,5.75,2.24l7.29,0.38
		l-7.5,1.34c-1.95,0.32-3.74,1.24-5.13,2.63l-0.44,0.47c-1.29,1.52-2.06,3.4-2.22,5.38l-0.82,9.22L962.2,414
		c-0.19-2.2-1.18-4.26-2.76-5.8l-0.29-0.28c-1.48-1.25-3.3-2.01-5.23-2.19l-7.71-0.82l7.22-0.87c2.15-0.22,4.15-1.2,5.66-2.75
		l0.26-0.28c1.3-1.53,2.08-3.43,2.22-5.43L962.4,385.87z"/>
	<path class="st1" d="M1045.86,206.19l0.92,9.22c0.18,2.23,1.16,4.31,2.76,5.87l0.11,0.1c1.6,1.39,3.64,2.18,5.75,2.24l7.27,0.38
		l-7.49,1.34c-1.95,0.32-3.75,1.24-5.15,2.63l-0.43,0.49c-1.3,1.51-2.08,3.39-2.22,5.38l-0.83,9.2l-0.92-8.71
		c-0.18-2.2-1.16-4.26-2.75-5.8l-0.29-0.28c-1.48-1.25-3.31-2.01-5.25-2.19l-7.7-0.8l7.21-0.88c2.15-0.25,4.14-1.24,5.62-2.81
		l0.28-0.29c1.29-1.53,2.07-3.43,2.22-5.43L1045.86,206.19z"/>
	<path class="st1" d="M818.94,43.32l0.75,1.23c0.82,1.38,2.03,2.48,3.47,3.19l1.29,0.64l-1.23,0.74c-1.41,0.82-2.54,2.03-3.27,3.48
		l-0.64,1.29l-0.74-1.23c-0.82-1.41-2.03-2.54-3.48-3.27l-1.27-0.64l1.23-0.74c1.4-0.83,2.53-2.03,3.27-3.48L818.94,43.32z"/>
	<path class="st1" d="M723.04,169.22l0.74,1.23c0.83,1.4,2.03,2.53,3.48,3.27l1.27,0.62l-1.23,0.75c-1.4,0.82-2.54,2.02-3.27,3.47
		l-0.62,1.29l-0.75-1.23c-0.8-1.41-2.01-2.55-3.47-3.27l-1.29-0.64l1.23-0.74c1.41-0.82,2.54-2.03,3.27-3.48L723.04,169.22z"/>
	<path class="st1" d="M1019.41,60.49l0.74,1.23c0.82,1.41,2.03,2.54,3.48,3.27l1.27,0.64l-1.23,0.74c-1.4,0.83-2.53,2.03-3.27,3.48
		l-0.62,1.27l-0.75-1.23c-0.82-1.38-2.03-2.48-3.47-3.19l-1.29-0.64l1.23-0.74c1.4-0.82,2.54-2.03,3.27-3.48L1019.41,60.49z"/>
	<path class="st1" d="M595.16,261.16l0.75,1.23c0.81,1.41,2.01,2.54,3.47,3.27l1.29,0.64l-1.23,0.74c-1.41,0.82-2.54,2.03-3.27,3.48
		l-0.64,1.29l-0.74-1.23c-0.82-1.41-2.03-2.54-3.48-3.27l-1.27-0.64l1.23-0.74c1.4-0.83,2.53-2.03,3.27-3.48L595.16,261.16z"/>
	<circle class="st2" cx="695.45" cy="77.85" r="71.85"/>
	<path class="st1" d="M705.33,142.95c-39.72-0.11-71.83-32.4-71.72-72.12c0.06-21.51,9.75-41.87,26.41-55.49
		c-34.74,19.25-47.31,63.01-28.06,97.76c19.25,34.74,63.01,47.31,97.76,28.06c3.93-2.18,7.64-4.71,11.1-7.58
		C730,139.74,717.77,142.97,705.33,142.95z"/>
	
		<ellipse transform="matrix(0.1607 -0.987 0.987 0.1607 555.8184 771.7231)" class="st0" cx="731.7" cy="59.03" rx="15.71" ry="15.71"/>
	<path class="st0" d="M753.18,99.02c0,5.94-4.82,10.75-10.76,10.75c-5.94,0-10.75-4.82-10.75-10.75c0-5.94,4.82-10.75,10.76-10.75
		l0,0C748.37,88.26,753.18,93.08,753.18,99.02z"/>
	<path class="st3" d="M760.2,58.86c-0.16-0.29-0.29-0.59-0.41-0.9c-0.26-0.59-0.57-1.5-1.08-2.62c-1.34-3.19-2.91-6.27-4.69-9.23
		c-11.85-19.97-32.86-32.75-56.05-34.08c-3.44-0.24-6.9-0.24-10.35,0c-1.23,0-2.17,0.21-2.81,0.26c-0.33,0.04-0.67,0.04-1,0
		c0.32-0.1,0.64-0.17,0.96-0.21c0.65-0.08,1.63-0.29,2.81-0.41c3.46-0.39,6.94-0.5,10.41-0.34c23.48,0.99,44.82,13.94,56.52,34.32
		c1.76,3,3.26,6.15,4.49,9.4c0.46,1.14,0.72,2.08,0.93,2.68C760.09,58.09,760.18,58.47,760.2,58.86z"/>
	<path class="st3" d="M761.36,89.46c0.98-3.41,1.62-6.92,1.9-10.46c-0.01-3.55-0.4-7.09-1.14-10.56c0.57,0.9,0.96,1.91,1.14,2.96
		c1.32,5,1.13,10.29-0.54,15.18C762.44,87.61,761.98,88.59,761.36,89.46z"/>
	<path class="st2" d="M467.46,212.73c1.08-7.85-9.99-14.3-18.31-14.97c-3.96-0.31-8.07,0.29-11.83-1.01
		c-8.17-2.84-11.44-13.35-19.34-16.7c-5.93-2.5-12.77-0.28-18.52,2.62c-5.75,2.89-11.44,6.54-17.88,6.96
		c-5.59,0.36-11.67-1.72-16.56,1.01c-3.64,2.04-5.56,6.24-8.92,8.71s-7.57,2.94-11.65,3.17c-4.09,0.23-8.3,0.26-12.01,1.96
		c-3.71,1.7-6.78,5.62-6.01,9.64L467.46,212.73z"/>
	<path class="st0" d="M535.8,35.83c0.77-5.64-7.18-10.26-13.08-10.74c-2.84-0.23-5.8,0.2-8.5-0.74c-5.84-2.04-8.17-9.59-13.88-12
		c-4.27-1.8-9.17-0.2-13.3,1.88c-4.14,2.08-8.17,4.71-12.83,5c-4,0.26-8.37-1.24-11.88,0.72c-2.62,1.47-3.99,4.48-6.39,6.26
		c-2.52,1.56-5.44,2.35-8.4,2.27c-2.94-0.07-5.86,0.41-8.63,1.41c-2.66,1.23-4.9,4.05-4.33,6.93L535.8,35.83z"/>
	<path class="st2" d="M985.92,161.33c0.77-5.62-7.18-10.26-13.08-10.74c-2.84-0.23-5.8,0.21-8.5-0.74
		c-5.84-2.04-8.17-9.58-13.88-11.98c-4.25-1.8-9.17-0.2-13.29,1.88c-4.12,2.08-8.17,4.69-12.83,4.99c-4.02,0.26-8.38-1.23-11.9,0.74
		c-2.62,1.45-3.99,4.48-6.39,6.26c-2.51,1.55-5.42,2.33-8.37,2.26c-2.94-0.07-5.87,0.41-8.63,1.42c-2.66,1.21-4.9,4.04-4.32,6.91
		L985.92,161.33z"/>
</g>
<g id="freepik--Floor--inject-2">
	<path class="st4" d="M1069,642.6c0,0.25-172.88,0.44-386.08,0.44S296.8,642.9,296.8,642.6c0-0.29,172.85-0.42,386.12-0.42
		S1069,642.42,1069,642.6z"/>
</g>
<g id="freepik--Plant--inject-2">
	<path class="st4" d="M963,643.75c-0.73-1.31-1.36-2.68-1.88-4.09c-1.46-3.31-3.1-6.54-4.9-9.68c-1.78-3.14-3.72-6.19-5.82-9.12
		c-0.94-1.17-1.79-2.41-2.55-3.71c1.14,0.99,2.16,2.12,3.04,3.35c4.51,5.73,8.13,12.11,10.72,18.93
		C962.24,640.81,962.71,642.26,963,643.75z"/>
	<path class="st4" d="M961.84,592.87c0.27,0.62,0.47,1.28,0.59,1.95c0.33,1.27,0.77,3.12,1.27,5.39c1.03,4.56,2.34,10.89,3.63,17.9
		c1.29,7.01,2.32,13.4,2.99,17.98c0.33,2.3,0.59,4.18,0.74,5.49c0.12,0.67,0.16,1.35,0.15,2.03c-0.23-0.64-0.39-1.3-0.47-1.98
		c-0.28-1.45-0.6-3.27-1-5.44c-0.87-4.77-1.99-11.05-3.27-17.98l-3.38-17.98c-0.39-2.17-0.74-3.99-1.01-5.44
		C961.94,594.15,961.86,593.51,961.84,592.87z"/>
	<path class="st4" d="M983.4,616.73c-3.67,8.49-5.06,17.79-4,26.99c-0.47-1.29-0.74-2.64-0.82-4c-0.35-3.26-0.28-6.56,0.21-9.81
		c0.49-3.27,1.38-6.47,2.66-9.51C981.92,619.08,982.58,617.85,983.4,616.73z"/>
	<path class="st5" d="M1025.18,582.31c2.85,1.36,5.02,3.82,6.01,6.82c0.98,2.98,1.25,6.14,0.8,9.23c-0.67,6-4.09,12.05-7.75,16.84
		c-5.05-4.41-6.21-12.1-6.54-16.02c-0.54-6.23,2.26-17.78,7.49-16.87"/>
	<path class="st5" d="M1030.12,625.08c-0.7-3.5,0.55-7.11,3.27-9.41c2.69-2.28,6.18-3.37,9.69-3.04c1.63-0.02,3.19,0.68,4.27,1.91
		c0.77,1.33,0.77,2.97,0,4.3c-0.8,1.31-1.92,2.39-3.27,3.12c-4.36,2.75-9.1,4.61-14.04,3.12"/>
	<path class="st4" d="M1023.64,643.45c0.02-0.41,0.08-0.82,0.18-1.23c0.16-0.87,0.36-1.99,0.6-3.27c0.56-3.7,1.72-7.29,3.43-10.62
		c1.77-3.36,4.4-6.18,7.63-8.17c0.98-0.59,2.02-1.05,3.11-1.39c0.39-0.11,0.7-0.16,0.9-0.21c0.2-0.05,0.33,0,0.33,0
		c-5.04,1.63-9.21,5.23-11.57,9.97c-1.69,3.3-2.87,6.83-3.51,10.48c-0.31,1.39-0.56,2.52-0.75,3.27
		C1023.91,642.68,1023.79,643.07,1023.64,643.45z"/>
	<path class="st4" d="M1023.84,591.31c0.02,0.18,0.02,0.36,0,0.54l0.1,1.54c0,1.34,0.15,3.27,0.23,5.69
		c0.15,4.81,0.28,11.44,0.25,18.76c-0.03,7.32-0.21,13.97-0.41,18.76c-0.1,2.4-0.2,4.35-0.28,5.69c0,0.64-0.08,1.14-0.1,1.54
		s0,0.54,0,0.54c-0.03-0.18-0.03-0.36,0-0.54c0-0.39,0-0.92,0-1.55c0-1.39,0.08-3.27,0.13-5.67c0.11-4.81,0.25-11.44,0.28-18.76
		c0.03-7.32,0-13.96-0.11-18.76c0-2.35,0-4.28-0.08-5.69c0-0.62,0-1.14,0-1.54C1023.81,591.67,1023.81,591.49,1023.84,591.31z"/>
	<path class="st5" d="M1021.39,628.73c-1.23-7.37-5.94-13.69-12.65-16.98c-1.63-0.8-3.89-1.32-5.28-0.08
		c-1.39,1.24-1.08,3.51-0.39,5.26c3.02,7.39,10.19,12.24,18.18,12.29"/>
	<path class="st4" d="M1009.55,617.43c0.37,0.12,0.72,0.28,1.06,0.47c0.41,0.19,0.82,0.4,1.21,0.64c0.53,0.29,1.04,0.61,1.54,0.96
		c0.61,0.41,1.2,0.85,1.77,1.32c0.66,0.53,1.29,1.1,1.88,1.72c1.36,1.38,2.55,2.92,3.56,4.58c0.98,1.67,1.77,3.45,2.35,5.3
		c0.23,0.87,0.46,1.63,0.59,2.47c0.14,0.72,0.24,1.46,0.29,2.19c0.07,0.6,0.09,1.21,0.08,1.81c0.03,0.46,0.03,0.92,0,1.37
		c0,0.39-0.04,0.78-0.13,1.16c-0.1,0,0-1.63-0.21-4.32c-0.1-0.67-0.18-1.39-0.36-2.16c-0.16-0.81-0.37-1.61-0.62-2.4
		c-1.13-3.68-3.13-7.05-5.82-9.81c-0.62-0.62-1.21-1.21-1.81-1.63c-0.55-0.48-1.12-0.93-1.72-1.34
		C1011.02,618.22,1009.5,617.51,1009.55,617.43z"/>
	<path class="st4" d="M682.02,718.49c-0.68-1.53-1.26-3.1-1.73-4.71c-2.68-7.61-6.19-14.91-10.46-21.76
		c-0.95-1.38-1.82-2.83-2.6-4.32c1.18,1.21,2.22,2.55,3.11,3.99c4.58,6.73,8.11,14.1,10.48,21.89
		C681.39,715.17,681.79,716.82,682.02,718.49z"/>
	<path class="st4" d="M686.54,715.98c-0.23,0-1.77-8.71-3.42-19.53c-1.65-10.82-2.81-19.61-2.58-19.61s1.77,8.71,3.42,19.61
		S686.77,715.94,686.54,715.98z"/>
	<path class="st4" d="M695.45,682.37c0.11,0-0.52,2.03-1.32,5.28c-1.05,4.23-1.78,8.54-2.17,12.88c-0.38,4.35-0.43,8.72-0.15,13.08
		c0.23,3.27,0.49,5.41,0.36,5.43c-0.18-0.46-0.31-0.93-0.38-1.42c-0.2-0.93-0.39-2.27-0.57-3.96c-0.48-4.39-0.51-8.81-0.11-13.21
		c0.39-4.39,1.2-8.73,2.44-12.96c0.49-1.63,0.93-2.91,1.29-3.79C695.19,682.81,695.39,682.34,695.45,682.37z"/>
	<path class="st4" d="M339.74,604.55c0.39,0.36,0.73,0.78,1,1.24c0.85,1.18,1.63,2.4,2.35,3.66c4.78,8.35,7.49,17.72,7.89,27.33
		c0.08,1.45,0.08,2.9,0,4.35c0.01,0.55-0.05,1.1-0.18,1.63c-0.15,0-0.11-2.27-0.39-5.9c-0.39-4.74-1.26-9.43-2.58-13.99
		c-1.34-4.52-3.11-8.9-5.31-13.08C340.87,606.53,339.66,604.63,339.74,604.55z"/>
	<path class="st4" d="M357.95,593.36c0.21,0.61,0.34,1.24,0.39,1.88c0.21,1.23,0.46,3.01,0.74,5.21c0.57,4.4,1.26,10.49,1.83,17.24
		c0.57,6.75,0.95,12.86,1.14,17.29c0.1,2.22,0.15,4.02,0.16,5.25c0.07,0.65,0.07,1.3,0,1.95c-0.16-0.63-0.26-1.27-0.28-1.91
		c-0.11-1.42-0.25-3.17-0.42-5.25c-0.38-4.61-0.85-10.61-1.39-17.26c-0.54-6.65-1.14-12.63-1.63-17.24
		c-0.2-2.08-0.34-3.82-0.47-5.23C357.92,594.65,357.9,594,357.95,593.36z"/>
	<path class="st4" d="M378.3,615.62c-4.89,7.94-7.18,17.22-6.54,26.53c-0.4-1.33-0.6-2.7-0.6-4.09c-0.16-3.33,0.17-6.67,0.96-9.91
		c0.8-3.24,2.06-6.34,3.74-9.22C376.5,617.71,377.32,616.6,378.3,615.62z"/>
	<path class="st5" d="M395.95,682.81c2.85,1.36,5.02,3.82,6.01,6.82c0.97,2.98,1.24,6.14,0.8,9.23c-0.69,5.98-4.09,12.05-7.75,16.82
		c-5.05-4.4-6.21-12.08-6.54-16.02c-0.54-6.21,2.26-17.78,7.49-16.85"/>
	<path class="st5" d="M400.88,725.57c-0.7-3.5,0.55-7.11,3.27-9.41c2.7-2.26,6.19-3.35,9.69-3.02c1.63-0.02,3.2,0.68,4.27,1.91
		c0.8,1.35,0.8,3.03,0,4.38c-0.8,1.31-1.92,2.39-3.27,3.12c-4.36,2.75-9.1,4.59-14.04,3.11"/>
	<path class="st4" d="M394.41,743.94c0.02-0.41,0.08-0.82,0.18-1.23c0.16-0.87,0.36-1.98,0.6-3.27c0.57-3.71,1.72-7.3,3.43-10.64
		c1.78-3.35,4.41-6.17,7.63-8.17c0.98-0.58,2.02-1.04,3.11-1.37c0.3-0.09,0.6-0.17,0.9-0.23c0.11-0.02,0.22-0.02,0.33,0
		c-5.03,1.63-9.2,5.22-11.57,9.95c-1.69,3.3-2.88,6.83-3.51,10.48c-0.31,1.41-0.56,2.53-0.75,3.27
		C394.68,743.15,394.57,743.55,394.41,743.94z"/>
	<path class="st4" d="M394.59,691.8c0.03,0.18,0.03,0.36,0,0.54l0.1,1.55c0,1.34,0.15,3.27,0.23,5.69
		c0.15,4.79,0.28,11.44,0.25,18.76c-0.03,7.32-0.21,13.96-0.41,18.76c-0.1,2.4-0.2,4.33-0.28,5.67c0,0.64,0,1.16-0.11,1.55
		c0.03,0.18,0.03,0.36,0,0.54c-0.02-0.18-0.02-0.36,0-0.54c0-0.41,0-0.92,0-1.55c0-1.39,0-3.27,0.15-5.69
		c0.11-4.79,0.25-11.44,0.28-18.75c0.03-7.31,0-13.96-0.11-18.76c0-2.35,0-4.28-0.1-5.69v-1.55
		C394.58,692,394.59,691.8,394.59,691.8z"/>
	<path class="st5" d="M392.16,729.23c-1.24-7.37-5.96-13.69-12.67-16.98c-1.63-0.8-3.87-1.34-5.26-0.08
		c-1.39,1.26-1.08,3.51-0.41,5.26c3.03,7.37,10.17,12.21,18.14,12.29"/>
	<path class="st4" d="M380.31,717.94c0.38,0.11,0.74,0.26,1.08,0.46c0.42,0.19,0.82,0.41,1.21,0.65c0.53,0.29,1.04,0.61,1.54,0.96
		c0.61,0.41,1.2,0.85,1.77,1.32c0.65,0.51,1.28,1.06,1.88,1.63c1.35,1.39,2.54,2.93,3.56,4.58c0.98,1.67,1.77,3.46,2.34,5.31
		c0.25,0.81,0.45,1.64,0.6,2.47c0.14,0.72,0.24,1.46,0.29,2.19c0.07,0.6,0.09,1.21,0.08,1.81c0.03,0.46,0.03,0.92,0,1.37
		c-0.01,0.39-0.05,0.78-0.13,1.16c-0.1,0,0-1.63-0.23-4.32c-0.07-0.73-0.19-1.45-0.34-2.16c-0.16-0.82-0.37-1.62-0.62-2.42
		c-1.15-3.65-3.15-6.98-5.82-9.73c-0.58-0.57-1.18-1.12-1.81-1.63c-0.59-0.52-1.18-0.95-1.72-1.36
		C381.79,718.7,380.27,718.02,380.31,717.94z"/>
</g>
<g id="freepik--character-2--inject-2">
	<g class="st6">
		<path d="M931.34,649.73c-9.99-10.62-25.07-14.58-39.42-17.11c-52.16-9.21-105.73-6.35-156.62,8.35l-11.44,1.63
			c20.1,27.39,37.05,50.24,65.38,69.12s63.25,29.63,96.61,23.23c19.35-3.71,38.23-13.76,48.69-30.47S944.89,664.08,931.34,649.73z"
			/>
	</g>
	<path class="st7" d="M825.1,462.29l-49.43,24.13l-18.57-44.26c0,0-3.91,1.06-13.52-17.41c-9.61-18.47-26.36-49.62-26.36-49.62l0,0
		c17.65-20.47,44.72-30.22,71.36-25.69l3.92,0.69L825.1,462.29z"/>
	<path class="st7" d="M797.97,376.02c0.26-0.29,11.33-10.44,17.31,2.48c5.98,12.93-8.68,16.51-8.88,16.15
		C806.21,394.29,797.97,376.02,797.97,376.02z"/>
	<path class="st7" d="M734.79,404.49c-0.39,0-13.66,2.88-6.85,15.38c6.82,12.5,18.42,2.86,18.26,2.48
		C746.04,421.98,734.79,404.49,734.79,404.49z"/>
	<path class="st4" d="M801.52,372.45c3.4,11.64,6.54,17.05,8.37,25.07c2.78,12.7,1.34,24.26-6.34,35.16s-21.92,17.98-34.8,14.86
		c-8.94-2.17-16.34-5.93-21.35-13.47c-5-7.53-13.08-21.25-17.13-29.24c-7.4-14.45-15.4-27.79-15.4-27.79l39.23-29.11l31.5,1.72
		L801.52,372.45z"/>
	<path class="st4" d="M785.06,450.04c0.08,0.33,3.87-0.57,7.85-3.15c3.97-2.58,6.36-5.62,6.1-5.84s-2.97,2.3-6.8,4.76
		C788.37,448.26,784.94,449.73,785.06,450.04z"/>
	<path class="st4" d="M808.56,391.61c-4.23-11.56-9.71-24.52-13.73-36.84c-1.5-4.66-3.06-11.69-5.64-15.82
		c-2.58-4.14-5.28-8.43-9.25-11.44c-5.21-3.72-11.82-4.88-17.98-3.15c-6.19,1.79-11.28,6.23-13.88,12.13
		c-5.7-2.89-12.57-2.2-17.57,1.78c-4.85,4.07-6.78,10.65-4.9,16.69c-4.68-1.19-9.6,0.68-12.31,4.67c-2.53,4-2.11,9.2,1.05,12.73
		c-2.84,2.07-4.49,5.4-4.41,8.91c0.17,3.45,2.08,6.58,5.08,8.29c3.48,1.96,7.88,1.78,11.44,3.5c4.21,2.06,6.76,6.46,6.44,11.13"/>
	<path class="st8" d="M729.07,382.18c0,0,0.29,0.42,1.08,0.96c1.17,0.75,2.48,1.25,3.86,1.44c2.21,0.35,4.47-0.04,6.44-1.1
		c2.58-1.37,4.5-3.73,5.33-6.54l-1.03,0.23c2.17,2.63,5.56,3.95,8.94,3.47c3.83-0.41,7.22-2.67,9.09-6.05
		c1.67-2.92,2.36-6.3,1.98-9.64l-0.98,0.64c3.83,2.04,8.4,2.14,12.31,0.26c3.08-1.48,5.43-4.13,6.54-7.36
		c0.74-2.03,0.92-4.22,0.52-6.34c-0.09-0.76-0.36-1.49-0.77-2.14c-0.1,0,0.16,0.78,0.33,2.21c0.2,2.05-0.1,4.12-0.85,6.03
		c-1.16,2.9-3.4,5.25-6.24,6.54c-3.58,1.63-7.71,1.5-11.18-0.36l-1.11-0.64l0.13,1.27c0.32,3.06-0.32,6.15-1.85,8.83
		c-1.63,3.01-4.62,5.04-8.03,5.43c-2.96,0.46-5.95-0.63-7.91-2.89l-0.72-0.96l-0.31,1.18c-0.69,2.54-2.36,4.71-4.64,6.03
		c-1.79,1.02-3.85,1.46-5.9,1.24C732.32,383.68,730.61,383.09,729.07,382.18z"/>
	<path class="st8" d="M726.62,377.1c-0.59-1.78-0.76-3.68-0.51-5.54c0.38-2.03,1.45-3.86,3.04-5.18c2-1.65,4.59-2.4,7.16-2.08
		l1.41,0.2l-0.74-1.19c-0.72-1.18-1.2-2.5-1.39-3.87c-0.44-3.06,0.38-6.16,2.29-8.6c1.64-1.98,3.9-3.36,6.41-3.92
		c2.36-0.46,4.79-0.39,7.11,0.21c-0.51-0.43-1.13-0.73-1.78-0.87c-1.79-0.52-3.68-0.61-5.51-0.26c-6.45,1.11-10.82,7.19-9.81,13.66
		c0.23,1.55,0.79,3.03,1.63,4.35l0.67-0.98c-2.96-0.37-5.93,0.55-8.17,2.52c-1.76,1.52-2.88,3.64-3.15,5.95
		c-0.19,1.46-0.01,2.94,0.52,4.32C726.18,376.72,726.56,377.14,726.62,377.1z"/>
	<path class="st8" d="M754.18,363.69c0.13-0.16-0.39-0.7-0.83-1.77c-0.55-1.41-0.75-2.93-0.56-4.43c0.18-1.55,0.45-3.1,0.78-4.63
		c0.34-0.98,1.18-0.83,1.24-0.95c0.07-0.11,0-0.31-0.54-0.38c-0.65,0-1.25,0.37-1.55,0.95c-0.33,0.7-0.58,1.44-0.75,2.19
		c-0.25,0.89-0.42,1.81-0.51,2.73c-0.23,1.71,0.14,3.44,1.05,4.9C753.26,363.5,754.1,363.82,754.18,363.69z"/>
	<path class="st8" d="M771.62,334.89c0.1-0.11-0.51-1-1.98-1.93c-0.9-0.54-1.91-0.88-2.96-1c-1.36-0.12-2.73,0.24-3.86,1.01
		c-1.9,1.4-3.19,3.47-3.63,5.79c-0.38,1.63-0.41,2.68-0.23,2.71c0.18,0.03,0.56-0.93,1.13-2.47c0.63-1.95,1.84-3.66,3.47-4.9
		c1.7-1.08,3.83-1.18,5.62-0.26C770.64,334.44,771.47,335.04,771.62,334.89z"/>
	<path class="st8" d="M792.05,392.15c0.34,0,1.19-4.64,0.46-10.38s-2.66-10.04-2.97-9.89s0.98,4.49,1.63,10.07
		C791.82,387.52,791.66,392.13,792.05,392.15z"/>
	<path class="st8" d="M787.83,398.1c0.36,0,0.67-3.27,0.28-7.37s-1.29-7.24-1.63-7.16c-0.34,0.08,0,3.27,0.29,7.31
		C787.07,394.91,787.51,398.12,787.83,398.1z"/>
	<path class="st8" d="M752.09,417.17c-0.31,0.08,1.75,5.66,7.11,10.43s11.18,6.36,11.23,6.03c0.05-0.33-5.23-2.39-10.31-7.01
		S752.46,417.04,752.09,417.17z"/>
	<path class="st8" d="M741.74,410.82c-0.34,0,0.28,5.38,4.22,10.48s8.97,7.21,9.06,6.9c0.08-0.31-4.3-2.81-7.98-7.7
		S742.05,410.7,741.74,410.82z"/>
	<path class="st3" d="M716.1,373.84c0,0.13-0.64,0.46-1.47,1.27c-1.07,1.06-1.76,2.45-1.98,3.94c-0.16,1.5,0.18,3.01,0.96,4.3
		c0.6,1,1.19,1.49,1.1,1.63c-0.1,0.15-0.78-0.26-1.63-1.26c-2.19-2.78-1.7-6.81,1.08-9c0.01-0.01,0.02-0.02,0.03-0.03
		C715.26,373.89,716.06,373.74,716.1,373.84z"/>
	<path class="st3" d="M723.03,357.07c-0.7,0.5-1.45,0.91-2.26,1.21c-1.85,0.78-3.52,1.95-4.9,3.42c-1.26,1.5-1.79,3.48-1.45,5.41
		c0.24,0.79,0.58,1.54,1.01,2.24c0,0.08-1.06-0.44-1.63-2.08c-0.57-2.15-0.04-4.44,1.41-6.13c1.43-1.57,3.25-2.75,5.26-3.42
		C721.26,357.34,722.14,357.12,723.03,357.07z"/>
	<path class="st3" d="M738.24,337.38c0,0.15-1.18,0.29-2.93,1.01c-2.26,0.95-4.23,2.48-5.7,4.45c-1.44,1.99-2.31,4.34-2.52,6.78
		c-0.16,1.9,0,3.07-0.1,3.11c-0.42-0.99-0.6-2.07-0.51-3.14c0.09-5.35,3.54-10.06,8.61-11.75
		C736.09,337.41,737.18,337.25,738.24,337.38z"/>
	<path class="st3" d="M760.83,328.4c0.11,0.23-2.39,1.63-5.02,3.81c-2.63,2.17-4.38,4.45-4.59,4.3c2.07-3.83,5.5-6.74,9.61-8.17
		V328.4z"/>
	<path class="st3" d="M739.5,366.88c-0.87-0.95-1.48-2.12-1.77-3.38c-1.93-6.26,0.97-13,6.85-15.89c1.12-0.65,2.4-1,3.69-1.03
		c0,0.15-1.42,0.42-3.42,1.63c-5.36,3-8.04,9.23-6.54,15.18C738.85,365.57,739.63,366.81,739.5,366.88z"/>
	<path class="st3" d="M761.93,344.77c-0.56-3.41,1.49-6.71,4.81-7.7c-1.16,1.01-2.22,2.15-3.14,3.38
		C762.89,341.83,762.33,343.27,761.93,344.77z"/>
	<path class="st4" d="M703.92,602.66c2.42,3.4,20.04,52.53,47.4,73.18s52.71,33.88,91.99,32.61c39.28-1.27,59.9-11.9,74.53-17.64
		c39.47-15.51,25.56-46.03,25.56-46.03l-68.86-17.33l-93.17-49.51c0,0-33.69-31.77-46.03-36.27s-28.47,14.97-31.89,32.28
		C700.05,591.26,703.92,602.66,703.92,602.66z"/>
	<path class="st8" d="M763.99,659.18c-0.16-0.53-0.24-1.08-0.23-1.63c-0.14-1.49-0.19-2.98-0.16-4.48
		c0.09-9.9,2.36-19.65,6.65-28.57c0.83-1.63,1.63-3.04,2.12-3.92c0.24-0.49,0.56-0.95,0.93-1.36c0.13,0-1,2.11-2.5,5.54
		c-3.93,8.95-6.15,18.56-6.54,28.33C764.02,656.84,764.13,659.18,763.99,659.18z"/>
	<path class="st8" d="M754.65,637.86c0.53-1.66,1.23-3.27,2.09-4.79c1.92-3.75,4.07-7.37,6.44-10.85c2.37-3.48,4.97-6.8,7.78-9.94
		c1.1-1.35,2.34-2.59,3.69-3.69c-1,1.43-2.09,2.8-3.27,4.09c-2.04,2.48-4.77,5.98-7.54,10.04c-2.76,4.05-5.03,7.85-6.54,10.66
		C756.53,634.92,755.64,636.42,754.65,637.86z"/>
	<path class="st7" d="M844.47,244.42l-2.39-16.9c0,0-7.45-6.96-9.22-9.81c-1.77-2.84-10.71-2.08-10.71-2.08l-2.57-26.87
		c0,0-1.16-4.77-5.49-1.88c-4.33,2.89-2.08,34.44-2.08,34.44l-1.01,7.32c0,0-8.55-10.66-13.39-9.15c-4.84,1.5,1.63,7.11,2.7,10.23
		c1.06,3.12,20.04,20.84,20.04,20.84l16.57,33.23h3.51l11.67,8.25L863.48,275L844.47,244.42z"/>
	<path class="st8" d="M747.33,472.71c0,0-17.21,11.05-22.77,28.73c-2.63,8.34-0.88,44.49,1.77,77.38
		c0.67,8.29,1.81,40.86,8.32,45.95c0.15,0.11,4.07,5.43,13.8,5.43c18.08,0,20.74-11.88,26.15-29.11l-1.29-20.59
		c0,0,7.32-69.22,4.66-81.2C775.3,487.31,747.33,472.71,747.33,472.71z"/>
	<path class="st8" d="M836.1,413.27l-18.83,14.33c0,0-2.68,21.02-27.31,34.32c-7.26,3.76-15.68,4.61-23.54,2.37l-19.09,8.4
		l-8.5,65.71l39.59,59.76l4.9,22.88l0.6,8.17c-1.49,9.77-0.53,19.75,2.79,29.06c5.54,15.32,11.08,34.73,82.08,34.55
		c62.01-0.15,78.46-40.5,79.06-45.16s-16.77-48.64-20.1-59.69c-3.33-11.05-38.54-130.65-38.54-130.65l-14.14-31.69L836.1,413.27z"/>
	<path class="st8" d="M844.09,326.54L817.27,427.6l35.22,12.54l17.98,8.74l5.92-30.6c0,0,14.2-78.46,14.3-91.42
		c0.11-16.34-37.59-75.51-37.59-75.51s-21.25-3.27-27.79,17.98L844.09,326.54z"/>
	<path class="st4" d="M839.29,667.59c-0.93-0.08-1.85-0.24-2.75-0.47c-1.1-0.18-2.2-0.44-3.27-0.75c-1.24-0.36-2.66-0.67-4.18-1.26
		c-1.67-0.55-3.3-1.19-4.9-1.91c-1.78-0.7-3.56-1.63-5.48-2.63c-4.08-2.24-7.96-4.81-11.62-7.68c-6.56-5.3-12.49-11.33-17.67-17.98
		c-1.99-2.53-3.55-4.64-4.54-6.15c-0.57-0.75-1.08-1.54-1.52-2.37c0.65,0.68,1.25,1.4,1.78,2.17c1.08,1.44,2.7,3.48,4.74,5.97
		c5.29,6.5,11.24,12.43,17.75,17.7c3.61,2.85,7.43,5.42,11.44,7.67c1.88,0.98,3.64,1.95,5.38,2.68c1.73,0.74,3.35,1.42,4.9,1.99
		s2.91,0.96,4.12,1.36c1.21,0.39,2.27,0.67,3.15,0.88C837.53,667.01,838.42,667.27,839.29,667.59z"/>
	<path class="st4" d="M911.12,543.31c0.03,0.34,0.03,0.68,0,1.01c0,0.75-0.11,1.63-0.2,2.88c-0.16,2.52-0.52,6.15-1.03,10.61
		c-1.39,11.64-3.39,23.2-5.97,34.63c-2.59,11.44-5.77,22.73-9.55,33.83c-1.45,4.25-2.7,7.67-3.61,10.02l-1.08,2.68
		c-0.11,0.32-0.26,0.62-0.42,0.92c0.05-0.33,0.14-0.65,0.26-0.96c0.25-0.72,0.54-1.63,0.92-2.75c0.83-2.37,1.99-5.82,3.37-10.1
		c2.76-8.55,6.26-20.46,9.28-33.82c3.02-13.35,5.02-25.63,6.19-34.54c0.59-4.45,1.03-8.06,1.31-10.54l0.36-2.88
		C910.97,543.97,911.03,543.63,911.12,543.31z"/>
	<path class="st4" d="M897.64,513.12c-0.15,0.96-0.38,1.91-0.67,2.84c-0.46,1.81-1.23,4.41-2.26,7.62
		c-2.62,8.39-6.48,16.33-11.44,23.59c-2.79,3.93-5.78,7.71-8.96,11.33l-7.68,8.92l-5.23,5.95c-0.62,0.76-1.29,1.47-2.01,2.12
		c0.52-0.82,1.11-1.6,1.75-2.34c1.16-1.47,2.89-3.56,5.03-6.13s4.77-5.62,7.62-8.97c2.84-3.35,5.95-7.13,8.84-11.31
		c4.88-7.2,8.76-15.04,11.52-23.29c1.08-3.15,1.95-5.72,2.5-7.52C896.9,514.97,897.23,514.03,897.64,513.12z"/>
	<path class="st3" d="M753.38,558.57c-4.56,0.43-9.15,0.57-13.73,0.42c-4.59,0.15-9.18,0.01-13.75-0.42
		c4.57-0.42,9.16-0.56,13.75-0.42C744.23,558.01,748.82,558.15,753.38,558.57z"/>
	<path class="st3" d="M897.26,481.21l-0.39,0.2l-1.14,0.49l-4.46,1.81c-3.87,1.63-9.46,3.86-16.34,6.75
		c-13.78,5.77-32.69,14.14-53.1,24.21c-20.41,10.07-38.7,19.74-51.91,26.71l-15.66,8.27l-4.33,2.21l-1.13,0.56
		c-0.12,0.08-0.25,0.13-0.39,0.16c0,0,0.11-0.1,0.34-0.23l1.1-0.64l4.18-2.35l15.53-8.5c13.08-7.11,31.37-16.87,51.83-26.95
		c20.46-10.08,39.41-18.36,53.25-23.99c6.93-2.83,12.57-5.02,16.48-6.54l4.51-1.63l1.18-0.41
		C896.94,481.27,897.1,481.23,897.26,481.21z"/>
	<path class="st3" d="M876.44,412.55c-0.49-0.6-0.92-1.25-1.29-1.93c-0.77-1.27-1.91-3.09-3.27-5.34s-3.27-4.9-5.44-7.57
		c-2.34-2.98-5.04-5.67-8.03-8.01c-5.58-4.08-12.11-6.67-18.98-7.52c-2.63-0.29-4.77-0.54-6.26-0.57c-0.77-0.01-1.54-0.09-2.3-0.23
		c0.77-0.12,1.55-0.16,2.32-0.11c2.11-0.01,4.22,0.1,6.33,0.33c7.02,0.69,13.73,3.25,19.42,7.42c3.05,2.37,5.8,5.12,8.17,8.17
		c1.92,2.48,3.7,5.06,5.33,7.75c1.36,2.29,2.44,4.17,3.12,5.49C875.92,411.1,876.22,411.81,876.44,412.55z"/>
	<path class="st3" d="M858.82,568.14c-0.22,0.18-0.45,0.35-0.7,0.49l-2.12,1.26c-1.85,1.1-4.58,2.57-8.01,4.32
		c-8.93,4.49-18.19,8.32-27.69,11.44c-9.5,3.14-19.22,5.57-29.08,7.29c-3.79,0.64-6.86,1.08-8.99,1.31l-2.47,0.25
		c-0.05,0.24-0.28,0.4-0.52,0.35c-0.24-0.05-0.4-0.28-0.35-0.52c0.05-0.24,0.28-0.4,0.52-0.35c0.18,0.03,0.32,0.17,0.35,0.35
		l2.44-0.41c2.11-0.33,5.17-0.85,8.92-1.63c19.61-3.73,38.65-10.03,56.62-18.71c3.45-1.63,6.21-3.07,8.17-4.07l2.21-1.13
		C858.34,568.26,858.58,568.18,858.82,568.14z"/>
	<path class="st3" d="M911.12,533.63c0,0-0.31,0.44-0.96,1.1c-0.65,0.65-1.63,1.63-2.88,2.71c-3.22,2.95-6.7,5.6-10.4,7.93
		c-3.73,2.25-7.65,4.18-11.72,5.75c-1.63,0.6-2.83,1.06-3.73,1.36c-0.44,0.2-0.92,0.33-1.41,0.36c1.58-0.87,3.22-1.63,4.9-2.27
		c3.94-1.72,7.76-3.7,11.44-5.92c3.64-2.32,7.13-4.88,10.44-7.65C908.18,535.78,909.62,534.66,911.12,533.63z"/>
	<path class="st3" d="M895.58,603.82c-0.24,0.26-0.51,0.49-0.8,0.69l-2.39,1.81c-1.05,0.78-2.32,1.73-3.86,2.76
		c-1.54,1.03-3.27,2.27-5.23,3.5c-3.91,2.55-8.68,5.39-14.11,8.32s-11.57,5.82-18.14,8.55c-6.57,2.73-12.99,4.9-18.89,6.72
		s-11.29,3.12-15.85,4.05c-2.27,0.54-4.36,0.87-6.18,1.21c-1.81,0.34-3.4,0.59-4.69,0.75l-2.97,0.41c-0.35,0.05-0.7,0.05-1.05,0
		c0.34-0.11,0.68-0.19,1.03-0.25l2.94-0.56c1.27-0.21,2.84-0.51,4.64-0.9s3.89-0.75,6.15-1.32c4.53-1.01,9.81-2.42,15.76-4.22
		s12.24-4.05,18.81-6.75c6.57-2.7,12.63-5.64,18.08-8.47c5.44-2.83,10.23-5.64,14.15-8.17c1.99-1.19,3.73-2.39,5.28-3.38
		s2.88-1.9,3.94-2.65l2.48-1.63C894.97,604.11,895.27,603.95,895.58,603.82z"/>
	<path class="st3" d="M927.8,586.23c-6.97,5.42-14.29,10.38-21.9,14.86C912.87,595.67,920.18,590.7,927.8,586.23z"/>
	<path class="st3" d="M943.39,631.55c0,0-0.08,0.11-0.29,0.31l-0.92,0.87l-3.61,3.27l-2.62,2.35c-0.96,0.85-2.12,1.63-3.27,2.58
		c-2.42,1.78-5.02,4.02-8.25,6l-4.99,3.27c-1.72,1.16-3.66,2.08-5.59,3.19l-2.97,1.63c-1.01,0.61-2.05,1.16-3.12,1.63l-6.65,3.06
		c-20.04,8.64-41.77,12.6-63.57,11.6l-7.31-0.51c-1.17-0.07-2.34-0.22-3.5-0.42l-3.35-0.49c-2.21-0.36-4.35-0.52-6.37-1l-5.8-1.27
		c-3.73-0.7-6.95-1.9-9.81-2.7c-1.44-0.46-2.79-0.8-3.99-1.26l-3.27-1.26l-4.53-1.8l-1.18-0.47c-0.14-0.05-0.27-0.11-0.39-0.2
		c0.15,0.02,0.29,0.06,0.42,0.11l1.21,0.41l4.58,1.63l3.27,1.19c1.21,0.42,2.57,0.75,4,1.18c2.89,0.77,6.11,1.91,9.81,2.57
		l5.79,1.21c2.01,0.46,4.15,0.62,6.34,0.95l3.27,0.46c1.15,0.19,2.3,0.31,3.47,0.36l7.27,0.47c21.69,0.92,43.32-3.02,63.29-11.54
		l6.64-3.01c1.07-0.46,2.11-0.98,3.12-1.55l2.96-1.63c1.93-1.1,3.87-1.99,5.59-3.12l5-3.27c3.27-1.93,5.85-4.14,8.29-5.87
		c1.19-0.92,2.35-1.63,3.27-2.52l2.66-2.29l3.71-3.15l0.98-0.8C943.11,631.66,943.25,631.59,943.39,631.55z"/>
	<path class="st3" d="M868.84,426.51c0,0,0,0.13-0.16,0.38l-0.57,1.1c-0.54,0.93-1.21,2.39-2.34,4.1c-3.05,4.94-6.6,9.56-10.58,13.8
		c-5.91,6.29-12.49,11.92-19.61,16.79c-8.69,5.96-17.85,11.21-27.39,15.69c-10.13,4.81-19.99,8.86-28.93,12.6
		c-8.94,3.74-16.98,7.16-23.6,10.28s-11.9,5.84-15.48,7.83c-1.81,0.96-3.17,1.8-4.12,2.3l-1.08,0.59l-0.38,0.18
		c0.1-0.1,0.22-0.18,0.34-0.25l1.03-0.67c0.92-0.56,2.26-1.44,4.04-2.45c3.53-2.08,8.78-4.9,15.38-8.07
		c6.6-3.17,14.63-6.69,23.55-10.46c8.92-3.78,18.83-7.81,28.91-12.72c9.5-4.47,18.64-9.67,27.33-15.56
		c7.1-4.82,13.67-10.37,19.61-16.56c3.99-4.18,7.58-8.72,10.72-13.57c1.18-1.63,1.88-3.11,2.47-4l0.64-1.05
		C868.69,426.69,868.76,426.59,868.84,426.51z"/>
	<path class="st3" d="M887.87,351.42c-0.11,0.11-2.14-1.83-5.79-4.46c-2.13-1.55-4.35-2.97-6.65-4.25c-2.83-1.55-5.76-2.9-8.78-4.05
		c-5.47-2.07-11.2-3.4-17.03-3.96c-4.48-0.41-7.29-0.29-7.29-0.46c0.65-0.13,1.3-0.19,1.96-0.2c1.79-0.11,3.59-0.11,5.38,0
		c2.66,0.16,5.3,0.5,7.91,1.03c3.2,0.67,6.35,1.58,9.41,2.71c3.03,1.19,5.96,2.61,8.78,4.23c2.31,1.33,4.53,2.82,6.64,4.45
		c1.44,1.08,2.8,2.26,4.09,3.51C887.01,350.4,887.47,350.88,887.87,351.42z"/>
	<path class="st3" d="M876.44,293.16c0,0.15-2.22,0.1-5.77,0.47c-4.62,0.49-9.15,1.54-13.52,3.12c-4.35,1.62-8.5,3.75-12.34,6.36
		c-2.94,2.01-4.61,3.48-4.71,3.37c-0.1-0.11,0.34-0.44,1.06-1.14c1.04-0.96,2.13-1.87,3.27-2.71c7.62-5.63,16.7-8.96,26.15-9.59
		c1.42-0.09,2.85-0.09,4.27,0C875.39,292.99,875.92,293.03,876.44,293.16z"/>
	<path class="st4" d="M873.02,422.57c0.24,0.3,0.45,0.63,0.62,0.98l1.63,2.91c0.65,1.27,1.41,2.88,2.29,4.72s1.77,4.02,2.81,6.37
		c3.99,9.51,8.84,22.88,13.81,37.85c4.97,14.97,9.09,28.57,11.98,38.46c1.45,4.9,2.58,8.96,3.27,11.74c0.36,1.34,0.64,2.4,0.85,3.27
		c0.1,0.37,0.19,0.75,0.25,1.13c-0.17-0.34-0.31-0.71-0.41-1.08c-0.26-0.8-0.59-1.86-1-3.17l-3.61-11.65
		c-3.04-9.81-7.29-23.44-12.23-38.38c-4.94-14.94-9.71-28.33-13.55-37.89c-1-2.37-1.86-4.54-2.68-6.41
		c-0.82-1.86-1.55-3.43-2.17-4.77l-1.47-2.97C873.25,423.32,873.12,422.95,873.02,422.57z"/>
	<path class="st4" d="M735.63,529.95c0,0,0.18,0.21,0.46,0.65l1.19,1.91l4.35,7.09c3.69,5.97,8.99,14.09,14.94,23
		s11.31,17,15.07,22.88c1.88,2.97,3.37,5.39,4.36,7.08c0.45,0.78,0.82,1.44,1.13,1.96c0.26,0.46,0.38,0.7,0.34,0.72
		c-0.19-0.19-0.35-0.4-0.49-0.62l-1.26-1.88l-4.56-6.86c-3.97-5.93-9.35-13.94-15.27-22.8c-5.92-8.86-11.18-17.1-14.71-23.16
		c-1.8-3.02-3.27-5.49-4.12-7.24l-1.06-1.99C735.71,530.21,735.6,529.97,735.63,529.95z"/>
	<path class="st3" d="M772.98,596.72c0,0.25-9.97-0.26-22.25-1.11s-22.18-1.72-22.16-1.95c0.02-0.23,9.97,0.26,22.23,1.11
		C763.06,595.63,772.99,596.49,772.98,596.72z"/>
	<g class="st6">
		<path d="M863.66,569.87v0.31l-20.58,23.16c27.47-10.4,46.67-35.49,49.53-64.73C884.8,543.57,875.06,557.44,863.66,569.87z"/>
	</g>
	<g class="st6">
		<path d="M839.29,667.59c-18.08-3.48-37.41-18.49-49.8-32.1c9.95,17.77,27.18,33.65,46.78,39.23c19.87,5.47,41.09,2.94,59.12-7.04
			C876.96,669.78,857.37,671.09,839.29,667.59z"/>
	</g>
	<path class="st4" d="M876,317.6c0,0.13-1.49,0-3.84,0.15c-3.05,0.22-6.05,0.92-8.88,2.09c-2.82,1.21-5.42,2.86-7.7,4.9
		c-1.77,1.63-2.68,2.73-2.79,2.63c0.6-1.16,1.4-2.19,2.37-3.06c2.24-2.23,4.89-4.01,7.8-5.23c2.91-1.22,6.03-1.87,9.19-1.91
		C873.44,317.07,874.75,317.22,876,317.6z"/>
</g>
<g id="freepik--character-1--inject-2">
	<path class="st3" d="M729.55,419.17c0,0.08-0.74-0.31-1.49-1.32c-0.95-1.34-1.41-2.97-1.32-4.61c0.13-1.63,0.81-3.17,1.93-4.36
		c0.85-0.92,1.63-1.23,1.63-1.14s-0.51,0.59-1.16,1.52c-0.87,1.2-1.39,2.62-1.49,4.1c-0.07,1.48,0.28,2.95,1,4.25
		C729.12,418.55,729.65,419.07,729.55,419.17z"/>
	<path class="st3" d="M809.83,375.38c-2.03-1.73-4.93-2-7.26-0.69c0-0.08,0.18-0.52,0.83-0.96c0.89-0.55,1.95-0.79,2.99-0.69
		c1.04,0.11,2.02,0.54,2.79,1.24C809.77,374.86,809.92,375.33,809.83,375.38z"/>
	<path class="st3" d="M815.11,244.6c-1.09-0.71-2.09-1.55-2.97-2.5c-2.26-2.16-4.41-4.44-6.44-6.82c-2.37-2.79-4.36-5.44-5.72-7.42
		c-0.8-1-1.47-2.1-2.01-3.27c0.92,0.91,1.75,1.91,2.48,2.97c1.49,1.88,3.53,4.46,5.9,7.22s4.59,5.2,6.21,6.95
		C813.51,242.61,814.36,243.57,815.11,244.6z"/>
	<path class="st3" d="M816.93,186.58c0,0.08-0.46,0.18-1.06,0.7c-0.79,0.81-1.36,1.81-1.63,2.91c-0.99,3.75-1.65,7.58-1.96,11.44
		c-0.31,3.85-0.31,7.71,0,11.56c0.21,1.59,0.33,3.2,0.38,4.81c-0.52-1.53-0.85-3.13-0.98-4.74c-0.47-3.88-0.54-7.79-0.21-11.69
		c0.32-3.89,1.07-7.72,2.24-11.44c0.36-1.18,1.08-2.21,2.04-2.97C816.05,186.82,816.47,186.62,816.93,186.58z"/>
	<g class="st6">
		<path d="M645.86,730.18c-2.99-3.91-7.47-6.54-10.36-10.44c-7.8-10.67-1.29-25.4,4.27-37.38c5.56-11.98,8.78-28.91-2.29-36.15
			c-6.91-4.53-16.02-2.6-24.08-0.72c-54.15,12.5-110.2,14.43-165.08,5.67l-6.36-2.66c3.87,17.37,7.88,35.08,17,50.34
			s24.52,27.95,42.2,29.21c12.03,0.85,23.73-3.5,35.57-5.74c11.83-2.24,25.51-1.83,34.11,6.62c9.12,8.96,11.67,25.84,24.21,28.36
			c13.5,2.71,24.09-14.94,37.84-13.99c4.3,0.29,9.04,2.37,12.63,0C649.69,740.57,648.85,734.13,645.86,730.18z"/>
	</g>
	<path class="st9" d="M593.92,719.42l-2.4,10.95c0,0-12.49,19.16-11.87,22.07c0.62,2.91,2.91,1.45,2.91,1.45l8.34-10.82
		c0,0-7.29,12.49-6.24,14.99c0.41,1.13,1.66,1.71,2.79,1.29c0.17-0.06,0.33-0.15,0.48-0.25c1.32,1.54,3.23,2.45,5.26,2.5
		c2.1-0.1,4.09-0.99,5.56-2.5c2.23,0.34,4.5,0.2,6.67-0.42c2.5-1.03,7.7-6.86,11.87-12.9c2.5-3.62,4.79-7.37,6.86-11.25
		c2.02-1.07,4.5-0.65,6.05,1.03c2.71,2.93,10.84,9.17,14.17,8.55c3.33-0.62,2.91-2.06,2.91-2.06s-10.62-11.9-12.29-14.81
		c-1.67-2.91-8.17-4.81-11.03-7.5c-1.5-1.22-2.54-2.92-2.94-4.82L593.92,719.42z"/>
	<path class="st10" d="M612.37,737.7c-0.37,1.15-0.89,2.25-1.54,3.27c-1.06,1.91-2.6,4.51-4.41,7.31c-1.81,2.79-3.58,5.25-4.9,7
		c-0.65,0.99-1.43,1.9-2.3,2.7c-0.2-0.15,2.86-4.59,6.54-10.17S612.16,737.58,612.37,737.7z"/>
	<path class="st10" d="M602.99,733.53c-0.4,1.4-0.95,2.74-1.63,4.02c-1.18,2.42-2.91,5.69-5.02,9.22c-2.11,3.53-4.18,6.54-5.75,8.78
		c-0.79,1.23-1.71,2.36-2.75,3.38c0.64-1.3,1.39-2.55,2.24-3.73c1.45-2.26,3.43-5.38,5.52-8.88c2.09-3.5,3.92-6.72,5.21-9.06
		C601.43,735.96,602.15,734.71,602.99,733.53z"/>
	<path class="st10" d="M597.24,733.38c-0.57,1.84-1.41,3.58-2.5,5.16c-0.84,1.74-1.94,3.34-3.27,4.74c0.59-1.83,1.44-3.57,2.52-5.17
		C594.83,736.39,595.92,734.79,597.24,733.38z"/>
	<path class="st4" d="M617.72,355.8c8.29,20.73,4.81,41.43,5.28,62.83c0.15,6.23,11.74,14.71,14.14,20.55
		c3.61,8.71-1.45,11.64,3.87,19.43c5.15,7.54,7.36,18.21,2.01,25.6c-6.54,9.01-19.88,8.5-30.91,7.06
		c-9.78-41.99-7.99-85.85,5.18-126.9"/>
	<path class="st4" d="M493.46,563.98c0,0-19.78-23.81-27.67-25.99c-21.25-5.72-47.74,0.33-47.74,24.73
		c0,24.4,12.95,60.48,12.95,60.48s13.53,52.86,29.57,66.1c16.03,13.24,23,16.74,59.25,18.83c23.81,1.24,47.65-1.74,70.41-8.81
		c5.57-1.63,25.19-17.34,45.44-44.52c20.25-27.18,46.14-56.47,49.62-71.79c3.48-15.32-3.11-38.61-23.75-44
		c-20.64-5.39-53.82,23.77-53.82,23.77l-87.18,14.99L493.46,563.98z"/>
	<path class="st8" d="M475.06,582.5c-0.75-1.68-1.38-3.4-1.9-5.17c-1.08-3.27-2.58-7.63-4.43-12.45c-1.85-4.82-3.71-9.09-5.18-12.13
		c-0.88-1.59-1.67-3.22-2.37-4.9c0,0,0.36,0.39,0.87,1.19c0.51,0.8,1.23,1.99,2.04,3.48c2.06,3.92,3.88,7.97,5.44,12.11
		c1.85,4.9,3.27,9.32,4.2,12.57C474.33,578.93,474.77,580.7,475.06,582.5z"/>
	<path class="st8" d="M657.12,547.8c-0.55,0.03-1.09-0.01-1.63-0.1c-1.41,0.06-2.79,0.4-4.07,1c-4.2,2.11-8.06,4.83-11.44,8.09
		c-4.15,3.68-7.67,7.27-10.25,9.81c-1.32,1.46-2.74,2.82-4.25,4.09c0.26-0.47,0.58-0.89,0.96-1.26c0.65-0.78,1.63-1.9,2.86-3.27
		c2.47-2.68,5.93-6.36,10.1-10.07c3.45-3.33,7.45-6.04,11.82-8.03c1.36-0.57,2.83-0.83,4.3-0.75
		C656.08,547.38,656.62,547.55,657.12,547.8z"/>
	<path class="st3" d="M680.04,562.64c-0.44-0.6-0.82-1.23-1.14-1.9c-0.7-1.24-1.63-3.06-3.02-5.2c-1.54-2.53-3.39-4.85-5.49-6.93
		c-2.6-2.5-5.81-4.26-9.32-5.1c-3.53-0.78-7.17-0.89-10.74-0.31c-2.93,0.47-5.81,1.2-8.61,2.17c-2.4,0.8-4.33,1.54-5.67,2.03
		c-0.68,0.29-1.39,0.52-2.11,0.69c0.63-0.4,1.3-0.73,1.99-1c1.29-0.57,3.27-1.41,5.59-2.29c2.81-1.07,5.73-1.87,8.7-2.37
		c3.66-0.65,7.42-0.57,11.05,0.25c3.65,0.88,6.99,2.73,9.66,5.36c2.13,2.14,3.97,4.56,5.46,7.19c1.29,2.21,2.21,4.07,2.81,5.36
		C679.55,561.25,679.84,561.93,680.04,562.64z"/>
	<path class="st3" d="M485.13,554.9c-2.11-2.75-4.46-5.31-7.03-7.65c-12.85-11.46-31.58-13.47-46.57-4.99
		c-3.01,1.74-5.86,3.74-8.52,5.98c0.13-0.21,0.29-0.39,0.47-0.56c0.34-0.33,0.8-0.87,1.5-1.45c1.9-1.72,3.98-3.22,6.21-4.49
		c15.15-8.93,34.35-6.88,47.27,5.05c1.9,1.73,3.61,3.64,5.12,5.72c0.56,0.72,0.9,1.34,1.16,1.73
		C484.9,554.44,485.03,554.66,485.13,554.9z"/>
	<path class="st5" d="M518.57,259.74l-29.27,103.68l5.64,108.84l-5.98,79.73l-32.56,71.2c0,0-12.88,37.87,34.46,53.02
		s88.26,9.81,98.84,0c10.58-9.81,28.78-148.46,28.78-148.46l30.32-65.85c0,0-7.6-11.44-29.57-18.99
		c-21.97-7.55-76.49-11.34-76.49-11.34l-7.91-66.36l18.36-98.74C553.17,266.46,532.53,257.81,518.57,259.74z"/>
	<path class="st5" d="M617.52,513.02c0,0-33.33,64.38-34.1,78.01s7.34,129.89,7.34,129.89l33.57-2.66c0,0-6.06-83.36-3.79-102.24
		c2.27-18.88,3.02-49.98,12.11-71.2c9.09-21.22,24.7-65.18,16.26-82.93L617.52,513.02z"/>
	<g class="st6">
		<path d="M619.5,497.57c-4.2-4.53-11.03-5.18-17.19-5.52L529.52,488l-13.7,12.9c-3.04,9.34-3.83,19.26-2.29,28.96l8.37-6.24
			c0.38,4.25,1.56,8.38,3.48,12.19l13.22-11.65c20.87,17.88,51.45,18.56,73.09,1.63c4.5-3.22,8.02-7.62,10.17-12.72
			C623.76,507.92,623.22,501.61,619.5,497.57z"/>
	</g>
	<path class="st4" d="M617.52,513.02c0,0,0,0.15-0.21,0.41l-0.65,1.14c-0.6,1.06-1.47,2.52-2.55,4.38
		c-2.17,3.84-5.23,9.43-8.61,16.54c-8.71,18.62-15.49,38.08-20.24,58.07c-0.38,1.45-0.67,2.91-1.01,4.36
		c-0.15,0.72-0.34,1.44-0.46,2.16c-0.11,0.72-0.23,1.41-0.25,2.14c-0.2,2.89-0.13,5.79-0.11,8.61c0.08,5.66,0.31,11.13,0.52,16.34
		c0.52,10.4,1,19.76,1.39,27.66c0.39,7.89,0.74,14.19,0.96,18.65c0,2.16,0.15,3.84,0.2,5.07c0,0.54,0,0.98,0,1.32
		c0.02,0.15,0.02,0.31,0,0.46c-0.02-0.15-0.02-0.31,0-0.46l-0.11-1.31c-0.1-1.23-0.21-2.91-0.38-5.07
		c-0.29-4.46-0.7-10.8-1.21-18.63s-1.08-17.23-1.63-27.66c-0.25-5.2-0.47-10.67-0.57-16.34c0-2.83-0.1-5.72,0.1-8.68
		c0.05-0.75,0.14-1.5,0.26-2.24c0.13-0.74,0.31-1.45,0.46-2.17c0.34-1.45,0.64-2.93,1.01-4.38c4.73-20.03,11.59-39.5,20.46-58.07
		c3.45-7.09,6.54-12.65,8.86-16.44c1.14-1.9,2.09-3.27,2.71-4.3l0.72-1.11C617.34,513.13,617.52,513,617.52,513.02z"/>
	<path class="st4" d="M577.82,600.97c-0.2,0.19-0.43,0.36-0.67,0.49l-1.98,1.32c-1.73,1.13-4.28,2.66-7.5,4.49
		c-16.8,9.48-34.88,16.47-53.68,20.76c-3.61,0.82-6.54,1.39-8.58,1.72l-2.35,0.36c-0.27,0.07-0.55,0.1-0.83,0.08
		c0.25-0.12,0.52-0.2,0.8-0.25l2.32-0.52c2.01-0.42,4.9-1.1,8.5-1.98c18.65-4.58,36.64-11.54,53.53-20.69
		c3.27-1.75,5.84-3.27,7.62-4.27l2.08-1.16C577.3,601.17,577.55,601.05,577.82,600.97z"/>
	<g class="st6">
		<path d="M483.13,631c31.76,8.89,67.39-3.4,90.13-27.25C545.46,620.14,515.4,630.64,483.13,631z"/>
	</g>
	<g class="st6">
		<path d="M582.97,602.13c-1.78,19.86-3.53,52.79-3.27,72.72c0.1,9.81,0.96,18.55,8.17,25.17
			C586.24,671.48,583.77,630.88,582.97,602.13z"/>
	</g>
	<path class="st3" d="M547.6,266.44c-3.94-0.45-7.85-1.18-11.69-2.17c-3.88-0.72-7.7-1.72-11.44-2.99
		c3.94,0.45,7.85,1.18,11.69,2.17C540.03,264.17,543.86,265.17,547.6,266.44z"/>
	<path class="st3" d="M546.62,293.08c0.46-4.06,1.2-8.09,2.21-12.05c0.74-4.02,1.76-7.97,3.04-11.85
		c-0.45,4.06-1.19,8.08-2.21,12.03C548.93,285.24,547.92,289.21,546.62,293.08z"/>
	<path class="st3" d="M642.12,505.81c0.15-0.72,0.37-1.43,0.65-2.11c0.52-1.5,1.18-3.4,1.98-5.67c2.3-6.16,3.56-12.66,3.73-19.24
		c0-6.58-2.31-12.94-6.54-17.98c-1.87-1.97-4.04-3.63-6.44-4.9c0.19,0.02,0.38,0.08,0.56,0.16c0.51,0.19,1.02,0.42,1.5,0.67
		c1.8,0.95,3.43,2.19,4.82,3.68c4.5,5.07,6.99,11.62,6.98,18.4c-0.15,6.67-1.5,13.26-4,19.45c-0.9,2.39-1.63,4.28-2.24,5.59
		C642.84,504.54,642.51,505.2,642.12,505.81z"/>
	<path class="st9" d="M524.47,259.74l6.67-20.86c0,0-8.63-21.17-6.67-23.13c1.96-1.96,17.98-14.51,17.98-14.51s4.15-28.8,5.88-29.8
		c1.47-0.85,4.72-0.85,4.9,5.1c0.18,5.95,0.15,27.05,0.15,27.05s9.51,9.41,9.51,15.28c0,5.87-5.1,24.32-5.1,24.32l-7.19,21.84
		L524.47,259.74z"/>
	<path class="st10" d="M542.24,210.48c0,0-0.51-0.33-0.8-1.19c-0.31-1.11-0.39-2.27-0.23-3.42c0.11-1.59,0.55-3.15,1.29-4.56
		c0.28,0-0.11,2.16-0.44,4.66c-0.14,1.05-0.14,2.12,0,3.17C542.14,209.94,542.33,210.41,542.24,210.48z"/>
	<path class="st10" d="M556.06,216.77c-0.81-2.1-1.36-4.3-1.63-6.54c-0.52-2.15-0.88-4.33-1.08-6.54c1.01,2.02,1.66,4.2,1.91,6.44
		C555.81,212.3,556.08,214.53,556.06,216.77z"/>
	<path class="st10" d="M536.32,218.3c-1-1.63-1.69-3.44-2.01-5.33c-0.31-1.34-0.35-2.73-0.1-4.09c0.21-1.03,0.56-1.63,0.65-1.63
		c-0.12,1.84-0.03,3.68,0.28,5.49C535.8,215.77,536.6,218.22,536.32,218.3z"/>
	<path class="st10" d="M530.25,220.49c-0.95-1.16-1.52-2.59-1.63-4.09c-0.18-1.05-0.18-2.12,0-3.17c0.13-0.8,0.41-1.26,0.51-1.23
		c0.1,0.03,0,1.95,0.39,4.25C529.87,217.65,530.11,219.07,530.25,220.49z"/>
	<path class="st3" d="M552.42,176.77c-0.25,0,0-1.29-0.8-2.5s-1.83-1.63-1.77-1.91s0.38-0.15,0.9,0c0.69,0.28,1.27,0.79,1.63,1.44
		c0.38,0.63,0.54,1.37,0.46,2.11C552.73,176.45,552.52,176.77,552.42,176.77z"/>
	<path class="st3" d="M556.42,239.5c0.27-1.66,0.66-3.3,1.19-4.9c1.11-3.82,1.81-7.75,2.06-11.72c0.19-3.94-0.59-7.87-2.29-11.44
		c-0.8-1.43-1.69-2.81-2.66-4.14c0.39,0.23,0.74,0.53,1.03,0.88c0.85,0.9,1.58,1.9,2.17,2.97c1.92,3.63,2.81,7.7,2.6,11.8
		c-0.24,4.04-1.03,8.02-2.34,11.85C557.75,236.43,557.16,238,556.42,239.5z"/>
	<path class="st3" d="M539.65,204.56c-2.15,2.27-4.54,4.3-7.13,6.05c-2.4,1.98-5.01,3.69-7.78,5.1c2.28-2.1,4.71-4.04,7.27-5.79
		C534.43,207.95,536.98,206.16,539.65,204.56z"/>
	<path class="st4" d="M568.49,324.81c20.86-2.52,42.79,9.43,49.2,26.77c7.21,19.61-4.12,40.72-2.29,61.21
		c1.13,12.55,7.18,24.52,7.6,37.15c0.46,13.08-5.16,26.46-0.95,39.03c1.63,4.63,4.41,9.3,3.12,13.99
		c-1.5,5.44-7.96,8.53-13.78,10.97c-12.55,5.25-25.6,10.56-39.52,10.79c-13.93,0.23-29.01-6.05-33.34-17.51l-14.33,9.53
		c-0.84-3.27-1.66-6.54-2.47-9.81c-2.69,2.94-5.94,5.32-9.56,6.98c-1.03-14.99-2.04-30.12,0.57-44.96
		c1.93-11,10.51-23.18,12.28-34.24c3.19-19.81,0.25-38.31,4.58-58.02c4.33-19.71,12.19-43.48,33.85-50.9L568.49,324.81z"/>
	<path class="st8" d="M564.25,353.41c-0.08-1.35,0.01-2.71,0.28-4.04c0.46-3.22,1.12-6.41,1.98-9.55c0.85-3.14,1.9-6.22,3.15-9.22
		c0.45-1.28,1.05-2.5,1.8-3.63c-0.29,1.32-0.71,2.6-1.24,3.84c-0.82,2.34-1.9,5.59-2.89,9.23c-1,3.64-1.63,6.98-2.19,9.41
		C564.95,350.81,564.65,352.12,564.25,353.41z"/>
	<path class="st8" d="M605.1,373.43c0.33-2.89,0.42-5.8,0.29-8.71c-0.83-14.36-10.24-26.8-23.83-31.51c-2.77-0.9-5.6-1.59-8.47-2.08
		c0.2-0.03,0.4-0.03,0.6,0c0.41,0,1,0,1.75,0.13c2.14,0.25,4.26,0.72,6.31,1.39c14.07,4.48,23.81,17.33,24.32,32.09
		c0.1,2.15-0.02,4.31-0.36,6.44c-0.1,0.75-0.26,1.32-0.34,1.72C605.29,373.29,605.13,373.43,605.1,373.43z"/>
	<path class="st8" d="M590.52,395.29c-0.31-0.72-0.54-1.48-0.69-2.26c-0.36-1.49-0.78-3.64-1.16-6.33
		c-0.82-5.38-1.06-12.9-2.29-21.04c-0.89-6.97-3.4-13.63-7.34-19.45c-1.76-2.31-3.8-4.39-6.06-6.21c0,0,0.2,0,0.54,0.28
		c0.5,0.3,0.99,0.64,1.45,1c1.71,1.32,3.24,2.86,4.54,4.58c3.43,4.28,6.46,11.44,7.71,19.61c1.26,8.17,1.37,15.72,2.04,21.08
		c0.29,2.68,0.62,4.9,0.88,6.34C590.33,393.69,590.45,394.48,590.52,395.29z"/>
	<path class="st4" d="M611.44,396.33c1.18,0.08,2.24,1.63,3.27,4.02c1.03,2.39,2.37,5.75,4.15,9.81c1.78,4.05,4.09,8.88,6.65,14.63
		c3.09,6.57,5.45,13.46,7.01,20.55c0.42,2.02,0.73,4.06,0.92,6.11c0.16,2.04,0.21,4.1,0.16,6.15c-0.19,3.54-0.61,7.07-1.27,10.56
		c-0.52,3.04-1.01,5.67-1.27,8.01c-0.11,1.19-0.23,2.21-0.25,3.19c-0.06,0.96-0.06,1.93,0,2.89c0.2,2.95,0.94,5.84,2.17,8.53
		c0.92,2.04,1.91,3.5,1.49,4.63c-0.42,1.13-2.35,1.8-5.64,0.54c-4.39-2.09-7.81-5.77-9.56-10.3c-0.64-1.42-1.15-2.89-1.54-4.4
		c-0.4-1.61-0.68-3.25-0.85-4.9c-0.31-3.26-0.38-6.54-0.21-9.81c0.11-3.27,0.28-6.29,0.2-9.12c0-1.41-0.2-2.81-0.34-4.27
		c-0.15-1.45-0.39-2.94-0.75-4.51c-1.19-6.15-3.27-12.44-5.05-18.5c-1.76-5.58-2.97-11.33-3.61-17.15
		c-0.47-4.17-0.16-8.4,0.92-12.45C609.09,397.67,610.28,396.25,611.44,396.33z"/>
	<path class="st8" d="M564.25,353.41c-1.41,1.53-2.71,3.17-3.87,4.9c-0.6,0.95-1.15,1.93-1.63,2.94c-0.61,1.2-1.16,2.42-1.63,3.68
		c-1.12,3.07-1.99,6.22-2.58,9.43c-1.42,8.4-2.11,16.9-2.06,25.42c-0.11,9.61,0.25,20.2,0.23,31.33
		c-0.02,11.13-0.44,21.8-2.84,31.24c-1.24,4.41-2.76,8.73-4.54,12.95c-1.63,3.97-3.14,7.65-4.33,11.08
		c-1.11,3.07-1.97,6.22-2.58,9.43c-0.44,2.42-0.63,4.88-0.56,7.34c0.06,1.55,0.24,3.1,0.54,4.63c0.1,0.49,0.18,0.88,0.23,1.19
		c0.02,0.14,0.02,0.28,0,0.42c-0.06-0.13-0.1-0.26-0.13-0.39l-0.31-1.19c-0.39-1.52-0.63-3.07-0.7-4.64
		c-0.13-2.49,0.01-4.98,0.41-7.44c0.57-3.24,1.4-6.44,2.48-9.55c1.16-3.47,2.66-7.18,4.25-11.15c1.74-4.2,3.22-8.5,4.45-12.88
		c2.32-9.3,2.68-19.96,2.75-31.06s-0.33-21.69-0.16-31.33c-0.02-8.56,0.74-17.09,2.26-25.51c0.63-3.23,1.54-6.4,2.71-9.48
		c0.47-1.26,1.02-2.49,1.63-3.69c0.51-1.01,1.09-2,1.72-2.94c0.5-0.76,1.05-1.49,1.63-2.19c0.4-0.53,0.85-1.02,1.34-1.47
		c0.34-0.36,0.64-0.64,0.87-0.87C564.02,353.38,564.24,353.4,564.25,353.41z"/>
	<path class="st8" d="M525.01,493.1c0.06-0.14,0.13-0.27,0.21-0.39c0.16-0.29,0.39-0.65,0.65-1.1l1.1-1.75
		c0.41-0.7,0.85-1.55,1.36-2.47c2.79-5.3,4.94-10.91,6.41-16.72c2.11-8.63,3.37-17.45,3.76-26.33c0.29-5.02,0.51-10.3,0.54-15.74
		c0.03-5.44-0.26-11.11-0.38-16.92c-0.36-10.91,0.04-21.83,1.19-32.69c0.86-8.92,3.17-17.65,6.85-25.83
		c1.52-3.1,3.43-5.98,5.69-8.58l1.5-1.63l1.52-1.34c0.91-0.77,1.86-1.49,2.86-2.14c1.37-0.89,2.84-1.63,4.36-2.22l1.19-0.46
		c0.14-0.06,0.28-0.11,0.42-0.13l-0.39,0.21l-1.16,0.52c-1.48,0.66-2.9,1.45-4.25,2.35c-0.97,0.66-1.89,1.38-2.76,2.16l-1.49,1.36
		l-1.45,1.63c-2.19,2.6-4.04,5.46-5.49,8.53c-3.55,8.14-5.76,16.8-6.54,25.65c-1.11,10.86-1.49,21.78-1.13,32.69
		c0.11,5.79,0.34,11.44,0.36,16.93c0.02,5.49-0.28,10.75-0.59,15.79c-0.43,8.92-1.76,17.77-3.96,26.43
		c-1.53,5.84-3.78,11.46-6.7,16.74c-0.54,0.92-1,1.73-1.44,2.44l-1.16,1.72c-0.31,0.42-0.54,0.77-0.74,1.05
		C525.26,492.95,525.14,493.03,525.01,493.1z"/>
	<path class="st8" d="M627.9,444.18c-0.59-0.3-1.14-0.67-1.63-1.11c-1.05-0.75-2.52-1.86-4.33-3.27
		c-4.74-3.67-9.15-7.75-13.17-12.19c-4.03-4.49-7.21-9.68-9.37-15.32c-0.63-1.71-1.13-3.47-1.47-5.26
		c-0.16-0.65-0.24-1.31-0.23-1.98c0.16,0,0.56,2.79,2.26,7.03c2.27,5.47,5.45,10.52,9.4,14.94c3.99,4.42,8.32,8.53,12.93,12.29
		l4.14,3.5C626.95,443.21,627.45,443.67,627.9,444.18z"/>
	<path class="st8" d="M572.28,353.82c1.44,1.6,2.65,3.39,3.61,5.31c2.63,5.27,4.22,11,4.67,16.87c0.83,7.4,0.13,16.25-0.1,26
		c-0.16,5.09,0.15,10.18,0.93,15.22c0.94,5.39,2.35,10.69,4.2,15.84c3.73,10.62,8.27,20.41,11.15,29.81
		c2.86,8.25,4.06,16.99,3.53,25.71c-0.4,5.88-2.07,11.6-4.9,16.77c-1.04,1.89-2.31,3.64-3.79,5.21c0,0,0.08-0.13,0.23-0.36l0.74-1
		c0.93-1.28,1.78-2.62,2.53-4c2.69-5.17,4.26-10.85,4.61-16.67c0.42-8.64-0.83-17.27-3.69-25.43c-2.89-9.32-7.45-19.09-11.2-29.76
		c-1.87-5.2-3.28-10.55-4.23-15.99c-0.77-5.08-1.07-10.23-0.88-15.36c0.28-9.81,1.05-18.58,0.28-25.94
		c-0.4-5.81-1.88-11.5-4.36-16.77c-0.71-1.42-1.51-2.78-2.4-4.09l-0.7-1.01C572.33,353.95,572.26,353.82,572.28,353.82z"/>
	<path class="st3" d="M620.41,404.42c-0.03-0.46-0.03-0.92,0-1.37c0-0.98,0-2.29,0.08-3.94c0.08-3.42,0.25-8.37,0-14.47
		c-0.1-7.16-1.02-14.29-2.75-21.25c-2.06-8.49-6.17-16.35-11.96-22.88c-5.94-6.44-13.84-10.73-22.47-12.21
		c-11.95-1.84-24.11,1.66-33.25,9.58l-1.63,1.54c-0.46,0.46-0.83,0.87-1.14,1.19c-0.31,0.34-0.63,0.66-0.98,0.96
		c0.24-0.39,0.53-0.75,0.85-1.08c0.29-0.34,0.64-0.78,1.1-1.26l1.63-1.63c3.6-3.28,7.76-5.89,12.29-7.68
		c6.75-2.66,14.08-3.5,21.25-2.42c8.83,1.46,16.91,5.82,22.98,12.39c5.89,6.65,10.05,14.65,12.11,23.29
		c1.68,7,2.55,14.17,2.58,21.36c0.1,6.13-0.16,11.08-0.34,14.5c-0.1,1.63-0.18,2.96-0.25,3.94
		C620.53,403.47,620.49,403.95,620.41,404.42z"/>
	<path class="st3" d="M583.46,370.72c-1.18-4.39-2.65-8.7-4.4-12.9c-2.01-4.07-4.28-8.01-6.8-11.78c1.03,0.88,1.92,1.91,2.66,3.04
		c3.87,5.26,6.59,11.26,7.99,17.64C583.28,368.02,583.46,369.37,583.46,370.72z"/>
	<path class="st3" d="M595.88,359.92c-0.28,0.13-1.63-6.15-6.69-11.95c-3.08-3.4-6.7-6.28-10.71-8.52c1.33,0.33,2.61,0.89,3.76,1.63
		c5.79,3.36,10.25,8.62,12.63,14.87C595.42,357.22,595.76,358.55,595.88,359.92z"/>
</g>
<g id="freepik--speech-bubble--inject-2">
	<path class="st11" d="M473.16,353.79l-11.18-19.7c15.28-24.81,7.56-57.31-17.25-72.59c-24.81-15.28-57.31-7.56-72.59,17.25
		c-15.28,24.81-7.56,57.31,17.25,72.59c18.7,11.52,42.59,10.25,59.96-3.19l0,0L473.16,353.79z"/>
	<path class="st4" d="M473.16,353.79l-23.86-5.39h-0.25l0.15-0.2l0,0l0.23,0.23c-3.34,2.6-6.98,4.79-10.84,6.54
		c-4.59,2.06-9.46,3.45-14.45,4.12c-2.76,0.39-5.55,0.53-8.34,0.42c-1.44-0.08-2.91-0.11-4.38-0.25l-4.45-0.67
		c-13.27-2.59-25.05-10.15-32.94-21.13c-4.38-6.08-7.42-13.02-8.91-20.37c-1.53-7.81-1.3-15.87,0.67-23.59
		c1.99-8.02,5.86-15.45,11.29-21.67l2.16-2.37c0.7-0.78,1.63-1.45,2.32-2.17c0.69-0.72,1.52-1.47,2.39-2.09l2.5-1.8
		c0.82-0.65,1.7-1.23,2.62-1.73l2.66-1.63l2.81-1.36c0.91-0.48,1.86-0.9,2.83-1.26c7.5-2.96,15.57-4.2,23.62-3.63
		c7.58,0.52,14.96,2.68,21.62,6.34c11.97,6.68,20.93,17.69,25.02,30.78c1.63,5.57,2.4,11.35,2.29,17.15
		c-0.26,9.26-2.98,18.29-7.88,26.15v-0.16l11.03,19.78l-11.31-19.61v-0.08v-0.08c2.16-3.55,3.9-7.34,5.18-11.29
		c1.54-4.76,2.38-9.71,2.5-14.71c0.09-5.75-0.69-11.47-2.32-16.98c-4.08-12.94-12.96-23.82-24.81-30.42
		c-6.6-3.64-13.92-5.79-21.44-6.31c-7.95-0.55-15.93,0.68-23.34,3.61c-0.95,0.36-1.89,0.77-2.79,1.24l-2.76,1.34l-2.63,1.63
		c-0.9,0.51-1.76,1.09-2.58,1.72l-2.5,1.86c-0.85,0.6-1.63,1.37-2.37,2.06c-0.74,0.69-1.63,1.37-2.29,2.16l-2.12,2.34
		c-5.36,6.15-9.19,13.49-11.16,21.41c-1.86,7.58-2.04,15.47-0.52,23.13c1.45,7.25,4.43,14.11,8.74,20.12
		c7.78,10.88,19.42,18.38,32.54,20.97l4.4,0.69c1.47,0.13,2.91,0.16,4.33,0.25c2.76,0.12,5.53-0.01,8.27-0.38
		c4.95-0.66,9.78-2.01,14.35-4.04c3.84-1.72,7.47-3.88,10.8-6.44l0.98-0.74l-0.75,0.96l0,0l-0.1-0.26L473.16,353.79z"/>
	<path class="st4" d="M402.26,306.49c0.01,2.96-2.38,5.37-5.34,5.38c-2.96,0.01-5.37-2.38-5.38-5.34c-0.01-2.95,2.37-5.36,5.33-5.38
		c2.95-0.03,5.37,2.34,5.39,5.3C402.26,306.45,402.26,306.47,402.26,306.49z"/>
	<path class="st4" d="M423.69,306.49c0.01,2.96-2.38,5.37-5.34,5.38c-2.96,0.01-5.37-2.38-5.38-5.34c-0.01-2.96,2.38-5.37,5.34-5.38
		c0.01,0,0.01,0,0.02,0C421.28,301.14,423.68,303.53,423.69,306.49z"/>
	<path class="st4" d="M445.03,303.82c1.47,2.56,0.59,5.83-1.97,7.3c-2.56,1.47-5.83,0.59-7.3-1.97c-1.47-2.56-0.59-5.82,1.96-7.29
		C440.28,300.38,443.55,301.26,445.03,303.82C445.03,303.82,445.03,303.82,445.03,303.82z"/>
</g>
<g id="freepik--Stars--inject-2">
	<path class="st4" d="M473,134.28l0.57,0.96c0.65,1.08,1.59,1.94,2.71,2.5l1,0.49l-0.95,0.57c-1.08,0.65-1.95,1.6-2.5,2.73l-0.51,1
		l-0.57-0.96c-0.65-1.08-1.59-1.94-2.71-2.5l-1-0.49l0.95-0.57c1.08-0.65,1.94-1.59,2.5-2.71L473,134.28z"/>
	<path class="st4" d="M1038.3,120.5l0.59,0.96c0.65,1.08,1.59,1.94,2.71,2.5l1,0.49l-0.96,0.59c-1.04,0.65-1.88,1.59-2.42,2.7
		l-0.51,1l-0.57-0.96c-0.65-1.08-1.59-1.94-2.71-2.5l-1-0.49l0.95-0.57c1.08-0.65,1.95-1.59,2.5-2.71L1038.3,120.5z"/>
	<path class="st4" d="M664.58,195.5l0.74,1.23c0.81,1.41,2.02,2.54,3.47,3.27l1.29,0.64l-1.23,0.74c-1.4,0.83-2.53,2.03-3.27,3.48
		l-0.64,1.27l-0.74-1.23c-0.82-1.4-2.03-2.54-3.48-3.27l-1.27-0.62l1.23-0.75c1.4-0.82,2.54-2.02,3.27-3.47L664.58,195.5z"/>
	<path class="st4" d="M585.89,25.06l0.74,1.23c0.82,1.4,2.03,2.54,3.48,3.27l1.27,0.64l-1.23,0.74c-1.4,0.82-2.54,2.02-3.27,3.47
		l-0.64,1.29l-0.74-1.23c-0.82-1.4-2.02-2.54-3.47-3.27l-1.29-0.64l1.23-0.74c1.4-0.83,2.53-2.03,3.27-3.48L585.89,25.06z"/>
	<path class="st4" d="M897.41,10.05l0.74,1.23c0.83,1.4,2.03,2.53,3.48,3.27l1.29,0.64l-1.23,0.74c-1.41,0.82-2.54,2.03-3.27,3.48
		l-0.64,1.27l-0.74-1.23c-0.83-1.4-2.03-2.53-3.48-3.27l-1.27-0.62l1.23-0.75c1.41-0.81,2.54-2.01,3.27-3.47L897.41,10.05z"/>
	<path class="st4" d="M814.92,138.48l0.57,5.62c0.1,1.35,0.68,2.62,1.63,3.58l0,0c0.97,0.85,2.21,1.33,3.5,1.37l4.45,0.23
		l-4.56,0.82c-1.19,0.2-2.29,0.77-3.14,1.63c-0.1,0.08-0.18,0.18-0.26,0.28c-0.79,0.92-1.26,2.06-1.36,3.27l-0.51,5.61l-0.56-5.3
		c-0.1-1.34-0.68-2.6-1.63-3.55l-0.18-0.16c-0.9-0.77-2.01-1.24-3.19-1.34l-4.71-0.49l4.4-0.54c1.31-0.12,2.53-0.7,3.45-1.63
		l0.16-0.18c0.79-0.92,1.26-2.06,1.36-3.27L814.92,138.48z"/>
	<path class="st4" d="M386.65,32.07l0.56,5.62c0.1,1.35,0.68,2.62,1.63,3.58l0,0c0.98,0.85,2.22,1.33,3.51,1.37l4.45,0.21
		l-4.58,0.82c-1.19,0.2-2.29,0.77-3.14,1.63l-0.26,0.29c-0.79,0.92-1.26,2.06-1.36,3.27l-0.41,5.67l-0.54-5.26
		c-0.1-1.34-0.68-2.6-1.63-3.55c-0.07-0.05-0.13-0.1-0.18-0.16c-0.93-0.77-2.07-1.24-3.27-1.34l-4.69-0.49l4.4-0.54
		c1.31-0.12,2.53-0.7,3.45-1.63l0.16-0.16c0.78-0.92,1.25-2.07,1.36-3.27L386.65,32.07z"/>
	<path class="st4" d="M673.94,306.57l0.74,1.23c0.82,1.4,2.03,2.54,3.48,3.27l1.27,0.62l-1.23,0.75c-1.4,0.82-2.54,2.02-3.27,3.47
		l-0.64,1.29l-0.74-1.23c-0.8-1.41-2.01-2.55-3.47-3.27l-1.29-0.64l1.23-0.74c1.4-0.83,2.53-2.03,3.27-3.48L673.94,306.57z"/>
	<path class="st4" d="M931.52,224.53l0.74,1.23c0.82,1.4,2.02,2.54,3.47,3.27l1.29,0.62l-1.23,0.75c-1.4,0.82-2.54,2.02-3.27,3.47
		l-0.64,1.29l-0.74-1.23c-0.82-1.4-2.03-2.54-3.48-3.27l-1.27-0.64l1.23-0.74c1.4-0.83,2.53-2.03,3.27-3.48L931.52,224.53z"/>
</g>
</svg>
