<?xml version="1.0" encoding="utf-8"?>
<!-- Generator: Adobe Illustrator 23.1.0, SVG Export Plug-In . SVG Version: 6.00 Build 0)  -->
<svg version="1.1" id="Layer_1" xmlns="http://www.w3.org/2000/svg" xmlns:xlink="http://www.w3.org/1999/xlink" x="0px" y="0px"
	 viewBox="0 0 1366 768" style="enable-background:new 0 0 1366 768;" xml:space="preserve">
<style type="text/css">
	.st0{fill:#37474F;}
	.st1{fill:#BA68C8;}
	.st2{opacity:0.3;enable-background:new    ;}
	.st3{opacity:0.2;enable-background:new    ;}
	.st4{fill:#455A64;}
	.st5{opacity:0.2;}
	.st6{opacity:0.1;enable-background:new    ;}
	.st7{opacity:0.4;enable-background:new    ;}
	.st8{opacity:0.05;enable-background:new    ;}
	.st9{opacity:0.3;fill:#FFFFFF;enable-background:new    ;}
	.st10{fill:#F5F5F5;}
	.st11{fill:#FF9192;}
	.st12{fill:#FFA8A7;}
	.st13{fill:#263238;}
	.st14{fill:#E0E0E0;}
	.st15{opacity:0.1;}
	.st16{fill:#FFFFFF;}
	.st17{opacity:0.7;fill:#FFFFFF;enable-background:new    ;}
	.st18{opacity:0.5;}
	.st19{fill:#E6E6E6;}
</style>
<g id="freepik--Background--inject-338">
	<path class="st0" d="M393.87,196.58C462.99,115.54,553.8,50.13,657.4,25.41S877.6,20.7,958.08,90.45
		c73.98,64.1,110.82,162.37,122.24,259.58c7.46,63.52-1.36,133.61-18,195.14c-9.51,34.9-24.44,68.86-48.06,96.24
		c-60.47,70.02-165.56,91.93-253.31,99.69c-68.43,6.03-137.93,6.71-205.25-7.01c-67.32-13.71-138.22-37.72-188.37-84.71
		S289.08,531.43,289,462.73C288.92,372.65,335.33,265.04,393.87,196.58z"/>
</g>
<g id="freepik--Floor--inject-338">
	<path class="st1" d="M555.27,358.77c3.88-19.19-2.55-39.02-16.95-52.29c13.17,14.43,17.95,34.64,12.64,53.44
		C552.26,359.67,553.98,359.02,555.27,358.77z"/>
	<path class="st1" d="M547.24,357.99c-2.45-15.69-15.18-27.76-30.98-29.39c14.06,3.55,24.75,14.97,27.37,29.24
		C544.88,357.91,546.07,357.93,547.24,357.99z"/>
	<path class="st2" d="M555.27,358.77c3.88-19.19-2.55-39.02-16.95-52.29c13.17,14.43,17.95,34.64,12.64,53.44
		C552.26,359.67,553.98,359.02,555.27,358.77z"/>
	<path class="st3" d="M547.24,357.99c-2.45-15.69-15.18-27.76-30.98-29.39c14.06,3.55,24.75,14.97,27.37,29.24
		C544.88,357.91,546.07,357.93,547.24,357.99z"/>
	<path class="st1" d="M552.51,359.13c0.32-11.56-3.35-22.88-10.39-32.05c-7.33-9.04-17.54-15.31-28.92-17.77
		c20.51,8.58,33.72,28.78,33.36,51.01L552.51,359.13z"/>
	<path class="st3" d="M513.2,309.31c20.51,8.58,33.72,28.78,33.36,51.01l2.87-0.59C548.47,341.18,538.34,317.48,513.2,309.31z"/>
	<path class="st3" d="M538.32,306.48c11.65,12.78,16.82,30.19,14.03,47.26c-0.78-9.69-4.33-18.94-10.24-26.65
		c-7.33-9.04-17.54-15.31-28.92-17.77c18.39,7.64,31.1,24.76,33.09,44.57c-3.87-13.78-15.78-23.79-30.02-25.23
		c14.06,3.55,24.75,14.97,27.37,29.24l2.93,0.12c0,0.79,0,1.58,0,2.36l4.46-0.91c0,0.17,0,0.34-0.12,0.5
		c1.29-0.25,3.02-0.91,4.31-1.16C559.13,339.62,552.72,319.77,538.32,306.48z"/>
	<path class="st1" d="M942.31,424.4c-11.05-23.33-8.38-52.3,6.3-73.54c-12.86,22.88-12.97,50.78-0.3,73.76
		C946.53,424.66,944.07,424.29,942.31,424.4z"/>
	<path class="st1" d="M952.59,420.94c-1.56-21.28,11.43-40.94,31.62-47.84c-17.31,8.91-27.83,27.1-26.94,46.55
		C955.74,420.09,954.09,420.51,952.59,420.94z"/>
	<path class="st2" d="M942.31,424.4c-11.05-23.33-8.38-52.3,6.3-73.54c-12.86,22.88-12.97,50.78-0.3,73.76
		C946.53,424.66,944.07,424.29,942.31,424.4z"/>
	<path class="st3" d="M952.59,420.94c-1.56-21.28,11.43-40.94,31.62-47.84c-17.31,8.91-27.83,27.1-26.94,46.55
		C955.74,420.09,954.09,420.51,952.59,420.94z"/>
	<path class="st1" d="M946.05,424.04c-3.93-15.03-2.56-30.95,3.87-45.09c6.44-13.98,18.59-25.31,32.44-32.02
		c-24.27,17.42-35.47,47.88-28.26,76.88C951.66,423.86,948.48,423.98,946.05,424.04z"/>
	<path class="st3" d="M982.41,346.93c-24.27,17.42-35.47,47.88-28.26,76.88c-1.17,0-2.55,0-3.91,0.12
		C945.86,399.32,951.93,365.22,982.41,346.93z"/>
	<path class="st3" d="M948.61,350.85c-11.35,20.26-12.83,44.58-4.02,66.07c-1.89-12.88-0.04-26.03,5.33-37.89
		c6.44-13.98,18.59-25.31,32.44-32.02c-21.72,15.56-33.16,41.77-29.79,68.28c0.9-19.2,13.44-35.9,31.63-42.11
		c-17.28,8.9-27.8,27.05-26.94,46.47l-3.79,1.06c0.2,1.02,0.39,2.06,0.64,3.1c-1.83,0-4.07,0.12-6.1,0.18c0.1,0.2,0.2,0.4,0.32,0.6
		c-1.78,0-4.24-0.27-6-0.2C931.26,401.06,933.96,372.09,948.61,350.85z"/>
	<path class="st4" d="M944.32,402.08c142.49,82.23,143.16,215.53,1.68,297.74s-371.61,82.23-514.02,0s-143.14-215.53-1.68-297.74
		S801.91,319.87,944.32,402.08z"/>
</g>
<g id="freepik--Shadows--inject-338">
	<g class="st5">
		<path d="M728.1,644.03c37.22,21.49,37.4,56.31,0.45,77.78c-36.95,21.47-97.09,21.49-134.29,0c-37.2-21.49-37.4-56.29-0.44-77.78
			C630.79,622.54,690.91,622.56,728.1,644.03z"/>
	</g>
	<g class="st5">
		<path d="M579.45,582.46c37.22,21.49,37.4,56.31,0.44,77.78c-36.96,21.47-97.08,21.49-134.28,0s-37.4-56.29-0.44-77.78
			S542.25,560.98,579.45,582.46z"/>
	</g>
</g>
<g id="freepik--Rocks--inject-338">
	<polygon class="st4" points="368.04,556.17 407.59,534.63 421.63,536.54 438.83,552.23 439.44,562.85 446.41,573.57 447.33,586.31 
		426.8,589.35 424.16,591.68 410.22,594.09 402.72,600.36 386.75,596.12 381.99,587.82 364.5,580.35 352.57,571.45 355.6,563.45 
		361.27,556.27 	"/>
	<polygon class="st6" points="368.04,556.17 361.27,556.27 355.6,563.45 368.04,573.57 393.22,583.68 398.89,583.68 408.09,569.92 
		397.26,580.85 370.67,570.44 361.77,563.25 362.68,557.58 	"/>
	<polygon class="st6" points="384.42,547.26 376.44,557.58 390.29,560.62 406.06,569.92 391.81,556.17 383.61,556.17 384.92,551.21 
		393.49,542.31 	"/>
	<polygon class="st2" points="381.84,567.51 390.18,567.51 390.29,560.62 376.44,557.58 	"/>
	<polygon class="st7" points="399.94,578.15 390.18,567.51 390.29,560.62 406.06,569.92 	"/>
	<polygon class="st3" points="407.59,534.63 406.06,548.04 411.32,556.17 419.49,549.2 421.63,536.54 	"/>
	<polygon class="st6" points="413.2,560.25 422.52,550.61 421.63,536.54 419.49,549.2 411.32,556.17 	"/>
	<polygon class="st2" points="408.09,569.92 413.2,560.25 422.52,550.61 421.63,536.54 438.83,552.23 430.27,558.64 416.92,561.05 	
		"/>
	<polygon class="st7" points="402.72,600.36 398.89,583.68 408.09,569.92 416.92,561.05 430.27,558.64 438.83,552.23 439.44,562.85 
		430.53,559.51 419.15,564.07 412.43,570.74 	"/>
	<polygon class="st2" points="410.22,594.09 408.62,582.34 402.72,600.36 	"/>
	<polygon class="st7" points="424.16,591.68 427.1,581.86 434.89,566.89 443.39,586.9 426.8,589.35 	"/>
	<polygon class="st2" points="430.53,559.51 434.89,566.89 443.39,586.9 447.33,586.31 446.41,573.57 439.44,562.85 	"/>
	<polygon class="st3" points="410.22,594.09 424.16,591.68 427.1,581.86 434.89,566.89 430.53,559.51 419.15,564.07 412.43,570.74 
		408.62,582.34 	"/>
	<polygon class="st2" points="393.22,583.68 386.75,596.12 402.72,600.36 398.89,583.68 	"/>
	<polygon class="st7" points="381.99,587.82 387.72,581.47 393.22,583.68 386.75,596.12 	"/>
	<polygon class="st2" points="371.07,583.16 376.09,576.81 387.72,581.47 381.99,587.82 	"/>
	<polygon class="st7" points="364.5,580.35 368.04,573.57 376.09,576.81 371.07,583.16 	"/>
	<polygon class="st2" points="355.6,563.45 368.04,573.57 364.5,580.35 352.57,571.45 	"/>
	<polygon class="st8" points="384.92,551.21 383.61,556.17 391.81,556.17 406.06,569.92 399.94,578.15 408.09,569.92 413.2,560.25 
		411.32,556.17 406.06,548.04 407.59,534.63 393.49,542.31 	"/>
	<polygon class="st4" points="788.69,422.1 812.79,408.97 821.36,410.13 831.85,419.7 832.22,426.17 836.48,432.71 837.03,440.47 
		824.51,442.33 822.9,443.76 814.4,445.23 809.83,449.05 800.09,446.46 797.19,441.41 786.53,436.85 779.25,431.42 781.09,426.54 
		784.55,422.17 	"/>
	<polygon class="st6" points="788.69,422.1 784.55,422.17 781.09,426.54 788.69,432.71 804.04,438.88 807.5,438.88 813.1,430.48 
		806.51,437.15 790.28,430.8 784.85,426.42 785.42,422.97 	"/>
	<polygon class="st6" points="798.66,416.67 793.8,422.97 802.25,424.81 811.87,430.48 803.17,422.1 798.18,422.1 798.98,419.08 
		804.19,413.65 	"/>
	<polygon class="st2" points="797.1,429.01 802.18,429.01 802.25,424.81 793.8,422.97 	"/>
	<polygon class="st7" points="808.13,435.49 802.18,429.01 802.25,424.81 811.87,430.48 	"/>
	<polygon class="st3" points="812.79,408.97 811.87,417.15 815.07,422.1 820.05,417.84 821.36,410.13 	"/>
	<polygon class="st6" points="816.23,424.6 821.9,418.71 821.36,410.13 820.05,417.84 815.07,422.1 	"/>
	<polygon class="st2" points="813.1,430.48 816.23,424.6 821.9,418.71 821.36,410.13 831.85,419.7 826.62,423.61 818.49,425.08 	"/>
	<polygon class="st7" points="809.83,449.05 807.5,438.88 813.1,430.48 818.49,425.08 826.62,423.61 831.85,419.7 832.22,426.17 
		826.79,424.14 819.85,426.91 815.76,430.98 	"/>
	<polygon class="st2" points="814.4,445.23 813.43,438.06 809.83,449.05 	"/>
	<polygon class="st7" points="822.9,443.76 824.7,437.77 829.44,428.64 834.64,440.84 824.51,442.33 	"/>
	<polygon class="st2" points="826.79,424.14 829.44,428.64 834.64,440.84 837.03,440.47 836.48,432.71 832.22,426.17 	"/>
	<polygon class="st3" points="814.4,445.23 822.9,443.76 824.7,437.77 829.44,428.64 826.79,424.14 819.85,426.91 815.76,430.98 
		813.43,438.06 	"/>
	<polygon class="st2" points="804.04,438.88 800.09,446.46 809.83,449.05 807.5,438.88 	"/>
	<polygon class="st7" points="797.19,441.41 800.67,437.52 804.04,438.88 800.09,446.46 	"/>
	<polygon class="st2" points="790.53,438.56 793.6,434.69 800.67,437.52 797.19,441.41 	"/>
	<polygon class="st7" points="786.53,436.85 788.69,432.71 793.6,434.69 790.53,438.56 	"/>
	<polygon class="st2" points="781.09,426.54 788.69,432.71 786.53,436.85 779.25,431.42 	"/>
	<polygon class="st8" points="798.98,419.08 798.18,422.1 803.17,422.1 811.87,430.48 808.13,435.49 813.1,430.48 816.23,424.6 
		815.07,422.1 811.87,417.15 812.79,408.97 804.19,413.65 	"/>
	<path class="st1" d="M957.13,608.17c15.84-19.31,20.12-47.12,11.28-70.49c6.73,24.49,0.32,50.71-16.95,69.33
		C953.11,607.44,955.59,607.7,957.13,608.17z"/>
	<path class="st1" d="M948.29,602.54c6.45-19.6-1.12-41.09-18.44-52.3c14.18,12.44,19.8,32.01,14.37,50.07
		C945.53,601,946.99,601.77,948.29,602.54z"/>
	<path class="st2" d="M957.13,608.17c15.84-19.31,20.12-47.12,11.28-70.49c6.73,24.49,0.32,50.71-16.95,69.33
		C953.11,607.44,955.59,607.7,957.13,608.17z"/>
	<path class="st3" d="M948.29,602.54c6.45-19.6-1.12-41.09-18.44-52.3c14.18,12.44,19.8,32.01,14.37,50.07
		C945.53,601,946.99,601.77,948.29,602.54z"/>
	<path class="st1" d="M953.71,607.02c7.2-13.2,9.64-28.48,6.91-43.27c-2.77-14.63-11.52-28.11-22.97-37.65
		c18.73,22.03,22.12,53.26,8.55,78.79C948.48,605.49,951.45,606.35,953.71,607.02z"/>
	<path class="st3" d="M937.65,526.1c18.73,22.03,22.12,53.26,8.55,78.79l3.65,1.02C959.66,583.82,961.94,550.39,937.65,526.1z"/>
	<path class="st3" d="M968.41,537.68c5.91,21.67,1.58,44.86-11.73,62.95c4.82-11.66,6.16-24.47,3.87-36.88
		c-2.77-14.63-11.52-28.11-22.97-37.65c16.76,19.68,21.37,46.97,12,71.06c3.66-18.23-4.21-36.85-19.83-46.94
		c14.23,12.41,19.88,32,14.47,50.09l3.35,1.88c-0.44,0.92-0.85,1.86-1.34,2.77l5.7,1.59l-0.44,0.5c1.68,0.47,4.04,0.74,5.67,1.21
		C972.97,588.86,977.21,561.05,968.41,537.68z"/>
	<polygon class="st4" points="876.63,604.27 906.84,576.52 919.7,575.13 938.34,585.21 941.22,594.46 949.75,602.39 953.36,613.45 
		935.87,620.66 934.06,623.29 922.26,628.51 917.03,635.7 901.96,635.47 895.94,629.18 878.83,626.41 866.32,621.18 867.24,613.45 
		870.66,605.86 	"/>
	<polygon class="st6" points="876.63,604.27 870.66,605.86 867.24,613.45 880.47,619.66 904.94,623.04 909.96,621.8 915.07,607.62 
		907.89,619.66 882.09,616.3 872.64,611.91 872.2,606.7 	"/>
	<polygon class="st6" points="889.14,592.79 884.36,603.68 897.28,603.31 913.28,608.06 897.63,599.04 890.39,600.85 890.48,596.17 
		896.08,586.41 	"/>
	<polygon class="st2" points="891.33,611.24 898.71,609.41 897.28,603.31 884.36,603.68 	"/>
	<polygon class="st7" points="909.67,616.67 898.71,609.41 897.28,603.31 913.28,608.06 	"/>
	<polygon class="st3" points="906.84,576.52 908.46,588.71 914.9,594.75 920.57,586.78 919.7,575.13 	"/>
	<polygon class="st6" points="917.47,597.93 923.57,587.37 919.7,575.13 920.57,586.78 914.9,594.75 	"/>
	<polygon class="st2" points="915.07,607.62 917.47,597.93 923.57,587.37 919.7,575.13 938.34,585.21 932.18,592.75 920.92,597.83 	
		"/>
	<polygon class="st7" points="917.03,635.7 909.96,621.8 915.07,607.62 920.92,597.83 932.18,592.75 938.34,585.21 941.22,594.46 
		932.62,593.47 923.55,599.99 919.09,607.37 	"/>
	<polygon class="st2" points="922.26,628.51 918.29,618.47 917.03,635.7 	"/>
	<polygon class="st7" points="934.06,623.29 934.5,613.97 938.09,599.04 950,614.85 935.87,620.66 	"/>
	<polygon class="st2" points="932.62,593.47 938.09,599.04 950,614.85 953.36,613.45 949.75,602.39 941.22,594.46 	"/>
	<polygon class="st3" points="922.26,628.51 934.06,623.29 934.5,613.97 938.09,599.04 932.62,593.47 923.55,599.99 919.09,607.37 
		918.29,618.47 	"/>
	<polygon class="st2" points="904.94,623.04 901.96,635.47 917.03,635.7 909.96,621.8 	"/>
	<polygon class="st7" points="895.94,629.18 899.6,622.31 904.94,623.04 901.96,635.47 	"/>
	<polygon class="st2" points="885.26,627.45 888.3,620.75 899.6,622.31 895.94,629.18 	"/>
	<polygon class="st7" points="878.83,626.41 880.47,619.66 888.3,620.75 885.26,627.45 	"/>
	<polygon class="st2" points="867.24,613.45 880.47,619.66 878.83,626.41 866.32,621.18 	"/>
	<polygon class="st8" points="890.48,596.17 890.39,600.85 897.63,599.04 913.28,608.06 909.67,616.67 915.07,607.62 917.47,597.93 
		914.9,594.75 908.46,588.71 906.84,576.52 896.08,586.41 	"/>
	<polygon class="st4" points="934.41,614.38 956.12,594.44 965.36,593.44 978.75,600.68 980.82,607.34 986.95,613.04 989.53,620.98 
		976.98,626.16 975.67,628.06 967.2,631.81 963.43,636.97 952.62,636.79 948.28,632.28 935.99,630.3 927,626.53 927.66,620.98 
		930.12,615.52 	"/>
	<polygon class="st6" points="934.41,614.38 930.12,615.52 927.66,620.98 937.16,625.44 954.76,627.87 958.35,626.98 962.02,616.79 
		956.88,625.44 938.34,623.03 931.55,619.88 931.23,616.14 	"/>
	<polygon class="st6" points="943.4,606.13 939.96,613.96 949.25,613.69 960.73,617.11 949.5,610.62 944.3,611.93 944.35,608.56 
		948.38,601.55 	"/>
	<polygon class="st2" points="944.98,619.39 950.27,618.08 949.25,613.69 939.96,613.96 	"/>
	<polygon class="st7" points="958.15,623.29 950.27,618.08 949.25,613.69 960.73,617.11 	"/>
	<polygon class="st3" points="956.12,594.44 957.28,603.21 961.91,607.54 965.98,601.82 965.36,593.44 	"/>
	<polygon class="st6" points="963.75,609.83 968.13,602.24 965.36,593.44 965.98,601.82 961.91,607.54 	"/>
	<polygon class="st2" points="962.02,616.79 963.75,609.83 968.13,602.24 965.36,593.44 978.75,600.68 974.33,606.11 966.23,609.75 
			"/>
	<polygon class="st7" points="963.43,636.97 958.35,626.98 962.02,616.79 966.23,609.75 974.33,606.11 978.75,600.68 980.82,607.34 
		974.63,606.62 968.13,611.31 964.91,616.61 	"/>
	<polygon class="st2" points="967.2,631.81 964.34,624.59 963.43,636.97 	"/>
	<polygon class="st7" points="975.67,628.06 975.99,621.37 978.57,610.62 987.14,621.97 976.98,626.16 	"/>
	<polygon class="st2" points="974.63,606.62 978.57,610.62 987.14,621.97 989.53,620.98 986.95,613.04 980.82,607.34 	"/>
	<polygon class="st3" points="967.2,631.81 975.67,628.06 975.99,621.37 978.57,610.62 974.63,606.62 968.13,611.31 964.91,616.61 
		964.34,624.59 	"/>
	<polygon class="st2" points="954.76,627.87 952.62,636.79 963.43,636.97 958.35,626.98 	"/>
	<polygon class="st7" points="948.28,632.28 950.91,627.33 954.76,627.87 952.62,636.79 	"/>
	<polygon class="st2" points="940.62,631.04 942.8,626.21 950.91,627.33 948.28,632.28 	"/>
	<polygon class="st7" points="935.99,630.3 937.16,625.44 942.8,626.21 940.62,631.04 	"/>
	<polygon class="st2" points="927.66,620.98 937.16,625.44 935.99,630.3 927,626.53 	"/>
	<polygon class="st8" points="944.35,608.56 944.3,611.93 949.5,610.62 960.73,617.11 958.15,623.29 962.02,616.79 963.75,609.83 
		961.91,607.54 957.28,603.21 956.12,594.44 948.38,601.55 	"/>
</g>
<g id="freepik--character-1--inject-338">
	<path class="st1" d="M442.4,536.86c-11.05,3.65-8.28,22.58-17.89,58.37c-11.6,43.27,25.73,53.51,38.66,59.18
		c12.92,5.67,34.05,14.2,74.4-2.83c40.35-17.03,74.08-37.2,63.05-61.79c-11.03-24.59-26.82-18.59-41.29-17.33
		s-55.17,10.06-55.17,10.06C455.91,538.09,462.91,529.1,442.4,536.86z"/>
	<path class="st9" d="M442.4,536.86c-11.05,3.65-8.28,22.58-17.89,58.37c-11.6,43.27,25.73,53.51,38.66,59.18
		c12.92,5.67,34.05,14.2,74.4-2.83c40.35-17.03,74.08-37.2,63.05-61.79c-11.03-24.59-26.82-18.59-41.29-17.33
		s-55.17,10.06-55.17,10.06C455.91,538.09,462.91,529.1,442.4,536.86z"/>
	<path class="st2" d="M573.51,578.52c-15.22,1.02-50.42,17.57-50.42,17.57l-1.11-4.88C541.19,582.86,569.72,574.97,573.51,578.52z"
		/>
	<path class="st10" d="M535.68,533.26c4.58-12.56-6.3-16.18-6.71-45.03l0,0c-0.12-4.68-0.78-9.33-1.98-13.86
		c-14.63-0.85-30.79-1.12-41.2-4.21c-10.41-3.08-26.65-3.82-33.24,17.8c-14.25,46.82,7.69,72.37-24.26,105.61
		c-1.19,12.76,54.4,43.59,83.48,22.93c13.71-8.28,19.14-23.89,19.14-23.89c-4.82-10.36-7.88-21.45-9.04-32.82
		c-0.58-6.29,1.92-12.46,6.71-16.58C531.76,540.55,534.2,537.13,535.68,533.26z"/>
	<polygon class="st11" points="514.57,427.65 522.6,434.35 517.96,438.29 	"/>
	<path class="st12" d="M513.73,423.64c-3.52-7.17-8.3-13.41-14.47-15.19c4.7,8.81,6.2,18.98,4.22,28.77
		c-1.4-2.27-3.49-4.04-5.97-5.03c-2.5-1.1-5.41-0.68-7.51,1.07c-1.31,1.35-2.06,3.15-2.1,5.03c-0.16,5.34,4.05,9.8,9.39,9.95
		c2.31,0.07,4.56-0.69,6.36-2.14c1.1,7.26-2.19,14.49-8.38,18.44c-4.02,2.47-8.69,3.7-13.41,3.54l1.68,10.8
		c11.38,5.72,23.22-5.3,23.22-5.3l-1.79-10.56c16.46-5.03,17.85-5.78,16.38-15.31C519.92,439.38,517.36,431.28,513.73,423.64z"/>
	<path class="st13" d="M456.42,455.63c4.94,5.27,11.15,9.2,18.04,11.4c2.4,0.69,4.88,1.06,7.38,1.11c4.72,0.17,9.39-1.06,13.41-3.54
		c6.19-3.95,9.48-11.18,8.38-18.44c-4.16,3.35-10.25,2.7-13.6-1.46c-1.45-1.8-2.21-4.05-2.14-6.36c0.03-1.88,0.78-3.68,2.1-5.03
		c2.1-1.76,5.01-2.17,7.51-1.07c2.48,0.99,4.57,2.76,5.97,5.03c1.97-9.79,0.48-19.96-4.22-28.77c6.17,1.78,10.95,8.01,14.47,15.19
		c1.66-6.58-0.08-13.55-4.64-18.57c-5.36-5.54-12.81-8.58-20.52-8.38c-7.66,0.23-15.14,2.35-21.79,6.15
		c-4.2,2.13-8.01,4.96-11.25,8.38c-3.26,3.51-5.33,7.97-5.92,12.72C445.1,430.06,449.03,448.17,456.42,455.63z"/>
	<path class="st2" d="M471.81,448.7c12.92-10.18,9.15-35.96-13.73-39.98c-0.89,0.77-1.73,1.59-2.51,2.46
		c-3.26,3.51-5.33,7.97-5.92,12.72c-4.54,6.15-0.62,24.26,6.71,31.72c4.48,4.72,9.95,8.39,16.03,10.73
		c-1.59-2.27-2.88-4.74-3.82-7.34C467.29,455.23,468.6,451.07,471.81,448.7z"/>
	<path class="st13" d="M422.97,509.55c2.83-1.75,4.9-4.49,5.8-7.69c0.88-3.18,1.19-6.49,0.92-9.77c-0.45-9.52-2.9-18.83-4.91-28.13
		c-2.01-9.3-3.62-18.91-2.28-28.35c1.34-9.44,5.82-18.84,13.81-24.04c11.87-7.69,27.72-4.3,35.4,7.57c0.29,0.45,0.56,0.9,0.83,1.37
		c3.3,6.06,3.04,13.43-0.67,19.24c-3.82,5.87-10.53,9.2-17.52,8.67c3.35,8.92,6.5,18.44,7.73,27.81c1.22,9.37,0.15,19.43-4.79,27.56
		c-4.95,8.13-14.27,13.9-23.72,12.94C429.21,516.28,424.18,513.78,422.97,509.55z"/>
	<path class="st2" d="M458.76,443.09c3.23,1.94,7.28,1.86,10.44-0.18l0,0c-3.94,3.95-9.39,5.98-14.95,5.58
		c-1.44-5.34-3.19-10.58-5.26-15.71C453.38,434.91,454.72,440.39,458.76,443.09z"/>
	<path class="st12" d="M604.54,370.74l-6.47-3.76c-0.92-0.54-2.06-0.54-2.98,0L589,370.7l4.54-10.33c0.46-1,0.03-2.19-0.97-2.65
		c-1-0.46-2.19-0.03-2.65,0.97l-5.38,10.83c-0.89,1.78-1.27,3.77-1.12,5.75l0.94,13.41l-29.89,46.94l-38.25,37.52
		c-27.22,26.82,1.96,40.84,13.63,26.4c11.67-14.43,44-52.94,44-52.94l21.44-54.16c2.9-0.25,7.33-4.63,7.8-10.88
		c1.6,0,2.9-1.3,2.9-2.9v-5.45C605.97,372.19,605.42,371.25,604.54,370.74z"/>
	<path class="st3" d="M603.08,381.6v-5.92C605.81,377.79,603.55,380.71,603.08,381.6z"/>
	<path class="st14" d="M547.16,489.77c-4.16-10.39-15.32-21.39-26.18-24.06l-13.19,14.65c-5.88,6.53-5.61,16.52,0.62,22.71l0,0
		c6.11,6.06,15.85,6.4,22.36,0.79L547.16,489.77z"/>
</g>
<g id="freepik--character-2--inject-338">
	<path class="st13" d="M578.24,592.58c-11.05,3.65-13.56,31.08-10.06,67.96c3.5,36.88,24.27,43.2,37.2,48.87
		c12.92,5.67,34.05,14.2,74.4-2.83c40.35-17.03,74.08-37.2,63.05-61.79S716,626.2,701.53,627.45s-55.17,10.06-55.17,10.06
		C598.09,593.09,598.76,584.82,578.24,592.58z"/>
	<path class="st2" d="M715.68,633.44c-15.29,1.11-50.44,17.65-50.44,17.65l-1.11-4.88C683.36,637.85,711.89,629.97,715.68,633.44z"
		/>
	<path class="st1" d="M632.45,519.85c-23.47-5.21-33.73-2.68-46.33,24.42c-8.13,17.48-16.6,39.61-21.57,53.14
		c-2.53,6.85,0.81,14.48,7.56,17.27l9.05,3.76L632.45,519.85z"/>
	<path class="st3" d="M632.45,519.85c-23.47-5.21-33.73-2.68-46.33,24.42c-8.13,17.48-16.6,39.61-21.57,53.14
		c-2.53,6.85,0.81,14.48,7.56,17.27l9.05,3.76L632.45,519.85z"/>
	<path class="st1" d="M683.21,518.17c-23.03,17.62-40.35,4.66-50.76,1.68c-10.41-2.98-23.87,0.23-35.71,17.74
		c-11.84,17.5-23.18,66.9-26.25,111.13c-1.19,12.76,54.4,43.59,83.48,22.93c13.71-8.28,19.14-23.89,19.14-23.89
		C666.97,606.1,692.92,554.61,683.21,518.17z"/>
	<g class="st15">
		<path d="M683.21,518.17c-23.03,17.62-40.35,4.66-50.76,1.68c-10.41-2.98-23.87,0.23-35.71,17.74
			c-11.84,17.5-23.18,66.9-26.25,111.13c-1.19,12.76,54.4,43.59,83.48,22.93c13.71-8.28,19.14-23.89,19.14-23.89
			C666.97,606.1,692.92,554.61,683.21,518.17z"/>
	</g>
	<path class="st13" d="M660.75,461.64c1.26-2.41-1.07-4.68-1.07-4.68c1.59-0.1,3.05-0.89,4.01-2.16c0.97-1.23,1.16-2.9,0.5-4.32
		c-0.71-1.4-2.26-2.16-3.81-1.86c2.45-1.68,3.31-4.9,2.03-7.58c-1.42-2.32-3.99-3.67-6.71-3.5c-2.67,0.2-5.25,1.01-7.56,2.36
		c-0.23-3.1-2.66-5.57-5.75-5.87c-2.61,0.07-5,1.44-6.39,3.65c-1.34,2.19-2.3,4.6-2.83,7.11c-12.36-1.77-23.82,6.83-25.58,19.19
		c-0.18,1.29-0.26,2.59-0.22,3.89c-4.03,3.23-6.19,8.26-5.77,13.41c0.57,4.97,2.66,9.65,5.97,13.41c3.3,3.76,7.02,7.14,11.08,10.06
		l5.67,4.31c2.36,1.81,8.38,6.24,10.75,8.05c7.96,0.62,15.69-2.82,20.55-9.15c4.6-6.35,7.13-13.96,7.24-21.79
		C662.99,477.94,662.28,469.73,660.75,461.64z"/>
	<path class="st12" d="M669.47,475.04l7.39,6.14l-3.82,3.35C672,481.25,670.81,478.09,669.47,475.04z"/>
	<path class="st12" d="M660.75,461.64c3.42,4.11,6.35,8.61,8.72,13.41c1.34,3.08,2.53,6.23,3.57,9.44
		c1.45,4.51,2.57,9.11,3.35,13.78c0.59,2.5,0.55,5.11-0.13,7.59c-1.12,2.7-3.26,4.85-5.95,5.98c-2.68,1.11-5.5,1.87-8.38,2.25
		l-2.31,16.88c-8.87,5.92-26.59-0.23-26.59-10.71l1.99-3.22c4.92-1.09,9.4-3.63,12.87-7.28c5.36-6.14,5.03-12.62,2.93-15.51
		c-0.62,2.07-2.41,3.57-4.56,3.81c-2.05,0.19-4.1-0.47-5.65-1.83c-1.48-1.39-2.68-3.05-3.54-4.89c-1.33-2.12-1.87-4.64-1.53-7.12
		c0.89-3.03,3.56-5.19,6.71-5.41c3.08-0.15,6.09,0.92,8.38,2.97c0.73,0.62,1.41,1.3,2.05,2.03c0.68,0.63,1.74,0.59,2.37-0.09
		c0.35-0.37,0.51-0.88,0.43-1.39c-1.01-3.83-3.06-7.31-5.92-10.06c1.32,0.13,2.65-0.04,3.89-0.5c1.32-0.5,2.36-1.56,2.85-2.88
		c0.42-1.36-0.07-2.84-1.22-3.69C658.87,465.72,660.75,461.64,660.75,461.64z"/>
	<path class="st12" d="M748.61,431.27l5.72-10.48l-1.14-16.06c-0.17-2.38,0.3-4.77,1.37-6.91l6.45-13.03
		c0.57-1.13,1.92-1.63,3.08-1.14l0,0c1.22,0.51,1.79,1.92,1.28,3.14c-0.01,0.01-0.01,0.03-0.02,0.04l-5.43,12.39l7.29-4.46
		c1.11-0.65,2.48-0.65,3.59,0l7.76,4.51c1.05,0.64,1.69,1.79,1.68,3.02v6.55c0,1.93-1.56,3.49-3.49,3.5l0,0
		c-0.55,7.49-5.87,12.76-9.35,13.06l-5.6,13.86L748.61,431.27z"/>
	<path class="st3" d="M776.82,412.31v-7.17C780.11,407.72,777.44,411.15,776.82,412.31z"/>
	<path class="st1" d="M672.45,522.29l45.95-45.16l28.65-47.52c15-2.6,18.44,8.7,18.44,8.7l-22.88,56.78c0,0-40.65,50.19-54.65,67.52
		C673.96,579.94,639.73,554.43,672.45,522.29z"/>
	<path class="st3" d="M672.45,522.29l45.95-45.16l28.65-47.52c15-2.6,18.44,8.7,18.44,8.7l-22.88,56.78c0,0-40.65,50.19-54.65,67.52
		C673.96,579.94,639.73,554.43,672.45,522.29z"/>
</g>
<g id="freepik--Stars--inject-338">
	<path class="st1" d="M587.91,201.05c5.38,0,5.4-8.38,0-8.38C582.51,192.67,582.5,201.05,587.91,201.05z"/>
	<path class="st1" d="M748.84,253.59c5.38,0,5.4-8.38,0-8.38S743.43,253.59,748.84,253.59z"/>
	<path class="st1" d="M830.41,78.13c5.4,0,5.41-8.38,0-8.38C825,69.75,825.01,78.13,830.41,78.13z"/>
	<path class="st1" d="M700.78,85.96c5.4,0,5.4-8.38,0-8.38S695.38,85.96,700.78,85.96z"/>
	<path class="st1" d="M602.43,308.34c5.4,0,5.41-8.38,0-8.38S597.03,308.34,602.43,308.34z"/>
	<path class="st1" d="M448.2,319.52c5.4,0,5.41-8.38,0-8.38C442.79,311.14,442.81,319.52,448.2,319.52z"/>
	<path class="st1" d="M464.97,182.06c5.4,0,5.41-8.38,0-8.38C459.55,173.68,459.57,182.06,464.97,182.06z"/>
	<path class="st1" d="M885.18,147.41c5.4,0,5.4-8.38,0-8.38S879.78,147.41,885.18,147.41z"/>
	<path class="st1" d="M1008.11,360.88c5.4,0,5.41-8.38,0-8.38C1002.69,352.5,1002.71,360.88,1008.11,360.88z"/>
	<path class="st1" d="M886.3,355.28c5.38,0,5.4-8.38,0-8.38C880.9,346.9,880.89,355.28,886.3,355.28z"/>
	<path class="st1" d="M867.29,254.7c5.4,0,5.41-8.38,0-8.38C861.88,246.32,861.89,254.7,867.29,254.7z"/>
	<path class="st1" d="M992.47,237.93c5.4,0,5.4-8.38,0-8.38C987.07,229.55,987.07,237.93,992.47,237.93z"/>
	<path class="st1" d="M873.44,290.19c1.39,0,2.51-1.13,2.51-2.51c0-1.39-1.13-2.51-2.51-2.51s-2.51,1.13-2.51,2.51
		C870.93,289.06,872.06,290.19,873.44,290.19z"/>
	<path class="st1" d="M834.89,213.91c1.39,0,2.51-1.13,2.51-2.51c0-1.39-1.13-2.51-2.51-2.51c-1.39,0-2.51,1.13-2.51,2.51
		C832.37,212.79,833.5,213.91,834.89,213.91z"/>
	<path class="st1" d="M720.9,239.06c1.39,0,2.51-1.13,2.51-2.51c0-1.39-1.13-2.51-2.51-2.51s-2.51,1.13-2.51,2.51
		C718.38,237.93,719.51,239.06,720.9,239.06z"/>
	<path class="st1" d="M783.76,277.61c1.39,0,2.51-1.13,2.51-2.51s-1.13-2.51-2.51-2.51s-2.51,1.13-2.51,2.51
		S782.37,277.61,783.76,277.61z"/>
	<path class="st1" d="M795.49,159.43c1.39,0,2.51-1.13,2.51-2.51s-1.13-2.51-2.51-2.51s-2.51,1.13-2.51,2.51
		S794.11,159.43,795.49,159.43z"/>
	<path class="st1" d="M673.12,75.61c1.39,0,2.51-1.13,2.51-2.51c0-1.39-1.13-2.51-2.51-2.51s-2.51,1.13-2.51,2.51
		C670.61,74.49,671.73,75.61,673.12,75.61z"/>
	<path class="st1" d="M713.35,172.84c1.39,0,2.51-1.13,2.51-2.51c0-1.39-1.13-2.51-2.51-2.51s-2.51,1.13-2.51,2.51
		C710.84,171.72,711.96,172.84,713.35,172.84z"/>
	<path class="st1" d="M661.39,127.58c1.39,0,2.51-1.13,2.51-2.51c0-1.39-1.13-2.51-2.51-2.51s-2.51,1.13-2.51,2.51
		C658.87,126.45,660,127.58,661.39,127.58L661.39,127.58z"/>
	<path class="st1" d="M590.98,151.05c1.39,0,2.51-1.13,2.51-2.51s-1.13-2.51-2.51-2.51s-2.51,1.13-2.51,2.51
		S589.59,151.05,590.98,151.05z"/>
	<path class="st1" d="M538.17,212.24c1.39,0,2.51-1.13,2.51-2.51s-1.13-2.51-2.51-2.51c-1.39,0-2.51,1.13-2.51,2.51
		S536.78,212.24,538.17,212.24z"/>
	<path class="st1" d="M621.99,261.69c1.39,0,2.51-1.13,2.51-2.51s-1.13-2.51-2.51-2.51c-1.39,0-2.51,1.13-2.51,2.51
		S620.6,261.69,621.99,261.69z"/>
	<path class="st1" d="M560.8,275.1c1.39,0,2.51-1.13,2.51-2.51c0-1.39-1.13-2.51-2.51-2.51s-2.51,1.13-2.51,2.51
		C558.29,273.97,559.42,275.1,560.8,275.1z"/>
	<path class="st1" d="M415.8,234.03c1.39,0,2.51-1.13,2.51-2.51c0-1.39-1.13-2.51-2.51-2.51c-1.39,0-2.51,1.13-2.51,2.51
		C413.29,232.9,414.41,234.03,415.8,234.03z"/>
	<path class="st1" d="M408.26,327.07c1.39,0,2.51-1.13,2.51-2.51c0-1.39-1.13-2.51-2.51-2.51c-1.39,0-2.51,1.13-2.51,2.51
		C405.74,325.94,406.87,327.07,408.26,327.07z"/>
	<path class="st1" d="M502.13,342.15c1.39,0,2.51-1.13,2.51-2.51c0-1.39-1.13-2.51-2.51-2.51c-1.39,0-2.51,1.13-2.51,2.51
		C499.62,341.03,500.74,342.15,502.13,342.15z"/>
	<path class="st1" d="M874.28,72.26c1.39,0,2.51-1.13,2.51-2.51s-1.13-2.51-2.51-2.51s-2.51,1.13-2.51,2.51
		S872.89,72.26,874.28,72.26z"/>
	<path class="st1" d="M817.29,53.82c1.39,0,2.51-1.13,2.51-2.51c0-1.39-1.13-2.51-2.51-2.51c-1.39,0-2.51,1.13-2.51,2.51
		C814.77,52.69,815.9,53.82,817.29,53.82z"/>
	<path class="st1" d="M807.23,99.08c1.39,0,2.51-1.13,2.51-2.51c0-1.39-1.13-2.51-2.51-2.51s-2.51,1.13-2.51,2.51
		C804.71,97.96,805.84,99.08,807.23,99.08z"/>
	<path class="st1" d="M916.19,125.07c1.39,0,2.51-1.13,2.51-2.51c0-1.39-1.13-2.51-2.51-2.51s-2.51,1.13-2.51,2.51
		C913.68,123.94,914.8,125.07,916.19,125.07z"/>
	<path class="st1" d="M908.65,172.84c1.39,0,2.51-1.13,2.51-2.51c0-1.39-1.13-2.51-2.51-2.51s-2.51,1.13-2.51,2.51
		C906.13,171.72,907.26,172.84,908.65,172.84z"/>
	<path class="st1" d="M998.33,214.75c1.39,0,2.51-1.13,2.51-2.51c0-1.39-1.13-2.51-2.51-2.51l0,0c-1.39,0-2.51,1.13-2.51,2.51
		C995.82,213.62,996.94,214.75,998.33,214.75z"/>
	<path class="st1" d="M1020.13,270.91c1.39,0,2.51-1.13,2.51-2.51c0-1.39-1.13-2.51-2.51-2.51s-2.51,1.13-2.51,2.51
		C1017.61,269.78,1018.74,270.91,1020.13,270.91z"/>
	<path class="st1" d="M946.37,270.07c1.39,0,2.51-1.13,2.51-2.51c0-1.39-1.13-2.51-2.51-2.51s-2.51,1.13-2.51,2.51
		C943.85,268.94,944.98,270.07,946.37,270.07z"/>
	<path class="st1" d="M1010.91,394.96c1.39,0,2.51-1.13,2.51-2.51c0-1.39-1.13-2.51-2.51-2.51c-1.39,0-2.51,1.13-2.51,2.51
		C1008.39,393.83,1009.52,394.96,1010.91,394.96L1010.91,394.96z"/>
	<path class="st1" d="M643.78,65.55c1.39,0,2.51-1.13,2.51-2.51c0-1.39-1.13-2.51-2.51-2.51l0,0c-1.39,0-2.51,1.13-2.51,2.51
		C641.27,64.43,642.4,65.55,643.78,65.55z"/>
	<path class="st1" d="M942.18,239.06c0.46,0,0.84-0.38,0.84-0.84s-0.38-0.84-0.84-0.84c-0.46,0-0.84,0.38-0.84,0.84
		S941.71,239.06,942.18,239.06z"/>
	<path class="st1" d="M886.86,260.01c0.46,0,0.84-0.38,0.84-0.84c0-0.46-0.38-0.84-0.84-0.84c-0.46,0-0.84,0.38-0.84,0.84
		C886.02,259.64,886.39,260.01,886.86,260.01z"/>
	<path class="st1" d="M804.71,280.13c0.46,0,0.84-0.38,0.84-0.84c0-0.46-0.38-0.84-0.84-0.84s-0.84,0.38-0.84,0.84
		C803.88,279.75,804.25,280.13,804.71,280.13z"/>
	<path class="st1" d="M801.36,226.48c0.46,0,0.84-0.38,0.84-0.84s-0.38-0.84-0.84-0.84s-0.84,0.38-0.84,0.84
		S800.9,226.48,801.36,226.48z"/>
	<path class="st1" d="M741.01,286c0.46,0,0.84-0.38,0.84-0.84c0-0.46-0.38-0.84-0.84-0.84s-0.84,0.38-0.84,0.84
		C740.17,285.62,740.55,286,741.01,286z"/>
	<path class="st1" d="M670.61,252.47c0.46,0,0.84-0.38,0.84-0.84s-0.38-0.84-0.84-0.84c-0.46,0-0.84,0.38-0.84,0.84
		S670.14,252.47,670.61,252.47z"/>
	<path class="st1" d="M668.09,315.33c0.46,0,0.84-0.38,0.84-0.84c0-0.46-0.38-0.84-0.84-0.84c-0.46,0-0.84,0.38-0.84,0.84
		C667.25,314.96,667.63,315.33,668.09,315.33z"/>
	<path class="st1" d="M709.16,195.47c0.46,0,0.84-0.38,0.84-0.84s-0.38-0.84-0.84-0.84c-0.46,0-0.84,0.38-0.84,0.84
		S708.7,195.47,709.16,195.47z"/>
	<path class="st1" d="M627.86,175.36c0.46,0,0.84-0.38,0.84-0.84s-0.38-0.84-0.84-0.84c-0.46,0-0.84,0.38-0.84,0.84
		S627.4,175.36,627.86,175.36z"/>
	<path class="st1" d="M730.12,138.48c0.46,0,0.84-0.38,0.84-0.84s-0.38-0.84-0.84-0.84s-0.84,0.38-0.84,0.84
		S729.65,138.48,730.12,138.48z"/>
	<path class="st1" d="M757.78,69.75c0.46,0,0.84-0.38,0.84-0.84c0-0.46-0.38-0.84-0.84-0.84c-0.46,0-0.84,0.38-0.84,0.84
		C756.94,69.37,757.31,69.75,757.78,69.75z"/>
	<path class="st1" d="M724.25,54.66c0.46,0,0.84-0.38,0.84-0.84c0-0.46-0.38-0.84-0.84-0.84s-0.84,0.38-0.84,0.84
		C723.41,54.28,723.79,54.66,724.25,54.66z"/>
	<path class="st1" d="M681.5,93.21c0.46,0,0.84-0.38,0.84-0.84c0-0.46-0.38-0.84-0.84-0.84s-0.84,0.38-0.84,0.84
		C680.66,92.84,681.04,93.21,681.5,93.21z"/>
	<path class="st1" d="M604.39,96.57c0.46,0,0.84-0.38,0.84-0.84c0-0.46-0.38-0.84-0.84-0.84c-0.46,0-0.84,0.38-0.84,0.84
		C603.55,96.19,603.93,96.57,604.39,96.57z"/>
	<path class="st1" d="M578.41,108.3c0.46,0,0.84-0.38,0.84-0.84s-0.38-0.84-0.84-0.84c-0.46,0-0.84,0.38-0.84,0.84
		S577.94,108.3,578.41,108.3z"/>
	<path class="st1" d="M598.52,135.96c0.46,0,0.84-0.38,0.84-0.84c0-0.46-0.38-0.84-0.84-0.84c-0.46,0-0.84,0.38-0.84,0.84
		C597.68,135.59,598.06,135.96,598.52,135.96z"/>
	<path class="st1" d="M552.42,142.67c0.46,0,0.84-0.38,0.84-0.84s-0.38-0.84-0.84-0.84c-0.46,0-0.84,0.38-0.84,0.84
		S551.96,142.67,552.42,142.67z"/>
	<path class="st1" d="M555.78,174.52c0.46,0,0.84-0.38,0.84-0.84s-0.38-0.84-0.84-0.84c-0.46,0-0.84,0.38-0.84,0.84
		S555.31,174.52,555.78,174.52z"/>
	<path class="st1" d="M502.13,164.46c0.46,0,0.84-0.38,0.84-0.84s-0.38-0.84-0.84-0.84c-0.46,0-0.84,0.38-0.84,0.84
		S501.67,164.46,502.13,164.46z"/>
	<path class="st1" d="M466.09,241.57c0.46,0,0.84-0.38,0.84-0.84s-0.38-0.84-0.84-0.84s-0.84,0.38-0.84,0.84
		S465.63,241.57,466.09,241.57z"/>
	<path class="st1" d="M508,125.9c0.46,0,0.84-0.38,0.84-0.84s-0.38-0.84-0.84-0.84c-0.46,0-0.84,0.38-0.84,0.84
		S507.54,125.9,508,125.9z"/>
	<path class="st1" d="M442.62,178.71c0.46,0,0.84-0.38,0.84-0.84s-0.38-0.84-0.84-0.84c-0.46,0-0.84,0.38-0.84,0.84
		S442.16,178.71,442.62,178.71z"/>
	<path class="st1" d="M456.87,209.72c0.46,0,0.84-0.38,0.84-0.84s-0.38-0.84-0.84-0.84s-0.84,0.38-0.84,0.84
		S456.41,209.72,456.87,209.72z"/>
	<path class="st1" d="M421.67,259.17c0.46,0,0.84-0.38,0.84-0.84c0-0.46-0.38-0.84-0.84-0.84s-0.84,0.38-0.84,0.84
		C420.83,258.8,421.2,259.17,421.67,259.17z"/>
	<path class="st1" d="M383.95,292.7c0.46,0,0.84-0.38,0.84-0.84c0-0.46-0.38-0.84-0.84-0.84s-0.84,0.38-0.84,0.84
		C383.11,292.33,383.49,292.7,383.95,292.7z"/>
	<path class="st1" d="M346.23,363.95c0.46,0,0.84-0.38,0.84-0.84c0-0.46-0.38-0.84-0.84-0.84c-0.46,0-0.84,0.38-0.84,0.84
		C345.39,363.57,345.77,363.95,346.23,363.95z"/>
	<path class="st1" d="M370.54,393.28c0.46,0,0.84-0.38,0.84-0.84c0-0.46-0.38-0.84-0.84-0.84c-0.46,0-0.84,0.38-0.84,0.84
		C369.7,392.91,370.08,393.28,370.54,393.28z"/>
	<path class="st1" d="M406.58,358.92c0.46,0,0.84-0.38,0.84-0.84c0-0.46-0.38-0.84-0.84-0.84c-0.46,0-0.84,0.38-0.84,0.84
		C405.74,358.54,406.12,358.92,406.58,358.92z"/>
	<path class="st1" d="M429.21,363.95c0.46,0,0.84-0.38,0.84-0.84c0-0.46-0.38-0.84-0.84-0.84s-0.84,0.38-0.84,0.84
		C428.37,363.57,428.75,363.95,429.21,363.95z"/>
	<path class="st1" d="M494.59,297.73c0.46,0,0.84-0.38,0.84-0.84c0-0.46-0.38-0.84-0.84-0.84c-0.46,0-0.84,0.38-0.84,0.84
		C493.75,297.35,494.13,297.73,494.59,297.73z"/>
	<path class="st1" d="M828.18,311.98c0.46,0,0.84-0.38,0.84-0.84c0-0.46-0.38-0.84-0.84-0.84s-0.84,0.38-0.84,0.84
		C827.35,311.6,827.72,311.98,828.18,311.98z"/>
	<path class="st1" d="M927.93,337.96c0.46,0,0.84-0.38,0.84-0.84c0-0.46-0.38-0.84-0.84-0.84c-0.46,0-0.84,0.38-0.84,0.84
		C927.09,337.59,927.46,337.96,927.93,337.96z"/>
	<path class="st1" d="M970.67,376.52c0.46,0,0.84-0.38,0.84-0.84c0-0.46-0.38-0.84-0.84-0.84c-0.46,0-0.84,0.38-0.84,0.84
		C969.84,376.14,970.21,376.52,970.67,376.52z"/>
	<path class="st1" d="M989.11,306.95c0.46,0,0.84-0.38,0.84-0.84c0-0.46-0.38-0.84-0.84-0.84s-0.84,0.38-0.84,0.84
		C988.28,306.57,988.65,306.95,989.11,306.95z"/>
	<path class="st1" d="M1061.2,324.55c0.46,0,0.84-0.38,0.84-0.84c0-0.46-0.38-0.84-0.84-0.84s-0.84,0.38-0.84,0.84
		C1060.36,324.18,1060.73,324.55,1061.2,324.55z"/>
	<path class="st1" d="M1056.17,397.47c0.46,0,0.84-0.38,0.84-0.84c0-0.46-0.38-0.84-0.84-0.84s-0.84,0.38-0.84,0.84
		C1055.33,397.1,1055.7,397.47,1056.17,397.47z"/>
	<path class="st1" d="M858.36,167.53c0.46,0,0.84-0.38,0.84-0.84s-0.38-0.84-0.84-0.84c-0.46,0-0.84,0.38-0.84,0.84
		S857.89,167.53,858.36,167.53z"/>
	<path class="st1" d="M870.65,199.95c0.46,0,0.84-0.38,0.84-0.84s-0.38-0.84-0.84-0.84c-0.46,0-0.84,0.38-0.84,0.84
		S870.18,199.95,870.65,199.95z"/>
	<path class="st1" d="M834.89,111.65c0.46,0,0.84-0.38,0.84-0.84c0-0.46-0.38-0.84-0.84-0.84c-0.46,0-0.84,0.38-0.84,0.84
		C834.05,111.28,834.43,111.65,834.89,111.65z"/>
	<path class="st1" d="M942.18,106.07c0.46,0,0.84-0.38,0.84-0.84c0-0.46-0.38-0.84-0.84-0.84c-0.46,0-0.84,0.38-0.84,0.84
		C941.34,105.7,941.71,106.07,942.18,106.07z"/>
	<path class="st1" d="M969,160.82c0.46,0,0.84-0.38,0.84-0.84s-0.38-0.84-0.84-0.84s-0.84,0.38-0.84,0.84S968.53,160.82,969,160.82z
		"/>
	<path class="st1" d="M764.48,34.54c0.46,0,0.84-0.38,0.84-0.84c0-0.46-0.38-0.84-0.84-0.84s-0.84,0.38-0.84,0.84
		C763.64,34.17,764.02,34.54,764.48,34.54z"/>
	<path class="st1" d="M754.42,197.7c0.46,0,0.84-0.38,0.84-0.84s-0.38-0.84-0.84-0.84c-0.46,0-0.84,0.38-0.84,0.84
		S753.96,197.7,754.42,197.7z"/>
	<path class="st1" d="M649.37,212.24c0.46,0,0.84-0.38,0.84-0.84s-0.38-0.84-0.84-0.84s-0.84,0.38-0.84,0.84
		S648.9,212.24,649.37,212.24z"/>
	<path class="st1" d="M591.26,237.93c0.46,0,0.84-0.38,0.84-0.84s-0.38-0.84-0.84-0.84c-0.46,0-0.84,0.38-0.84,0.84
		S590.8,237.93,591.26,237.93z"/>
	<g class="st5">
		<path class="st16" d="M587.91,201.05c5.38,0,5.4-8.38,0-8.38C582.51,192.67,582.5,201.05,587.91,201.05z"/>
		<path class="st16" d="M748.84,253.59c5.38,0,5.4-8.38,0-8.38S743.43,253.59,748.84,253.59z"/>
		<path class="st16" d="M830.41,78.13c5.4,0,5.41-8.38,0-8.38C825,69.75,825.01,78.13,830.41,78.13z"/>
		<path class="st16" d="M700.78,85.96c5.4,0,5.4-8.38,0-8.38S695.38,85.96,700.78,85.96z"/>
		<path class="st16" d="M602.43,308.34c5.4,0,5.41-8.38,0-8.38S597.03,308.34,602.43,308.34z"/>
		<path class="st16" d="M448.2,319.52c5.4,0,5.41-8.38,0-8.38C442.79,311.14,442.81,319.52,448.2,319.52z"/>
		<path class="st16" d="M464.97,182.06c5.4,0,5.41-8.38,0-8.38C459.55,173.68,459.57,182.06,464.97,182.06z"/>
		<path class="st16" d="M885.18,147.41c5.4,0,5.4-8.38,0-8.38S879.78,147.41,885.18,147.41z"/>
		<path class="st16" d="M1008.11,360.88c5.4,0,5.41-8.38,0-8.38C1002.69,352.5,1002.71,360.88,1008.11,360.88z"/>
		<path class="st16" d="M886.3,355.28c5.38,0,5.4-8.38,0-8.38C880.9,346.9,880.89,355.28,886.3,355.28z"/>
		<path class="st16" d="M867.29,254.7c5.4,0,5.41-8.38,0-8.38C861.88,246.32,861.89,254.7,867.29,254.7z"/>
		<path class="st16" d="M992.47,237.93c5.4,0,5.4-8.38,0-8.38C987.07,229.55,987.07,237.93,992.47,237.93z"/>
		<path class="st16" d="M873.44,290.19c1.39,0,2.51-1.13,2.51-2.51c0-1.39-1.13-2.51-2.51-2.51s-2.51,1.13-2.51,2.51
			C870.93,289.06,872.06,290.19,873.44,290.19z"/>
		<path class="st16" d="M834.89,213.91c1.39,0,2.51-1.13,2.51-2.51c0-1.39-1.13-2.51-2.51-2.51c-1.39,0-2.51,1.13-2.51,2.51
			C832.37,212.79,833.5,213.91,834.89,213.91z"/>
		<path class="st16" d="M720.9,239.06c1.39,0,2.51-1.13,2.51-2.51c0-1.39-1.13-2.51-2.51-2.51s-2.51,1.13-2.51,2.51
			C718.38,237.93,719.51,239.06,720.9,239.06z"/>
		<path class="st16" d="M783.76,277.61c1.39,0,2.51-1.13,2.51-2.51s-1.13-2.51-2.51-2.51s-2.51,1.13-2.51,2.51
			S782.37,277.61,783.76,277.61z"/>
		<path class="st16" d="M795.49,159.43c1.39,0,2.51-1.13,2.51-2.51s-1.13-2.51-2.51-2.51s-2.51,1.13-2.51,2.51
			S794.11,159.43,795.49,159.43z"/>
		<path class="st16" d="M673.12,75.61c1.39,0,2.51-1.13,2.51-2.51c0-1.39-1.13-2.51-2.51-2.51s-2.51,1.13-2.51,2.51
			C670.61,74.49,671.73,75.61,673.12,75.61z"/>
		<path class="st16" d="M713.35,172.84c1.39,0,2.51-1.13,2.51-2.51c0-1.39-1.13-2.51-2.51-2.51s-2.51,1.13-2.51,2.51
			C710.84,171.72,711.96,172.84,713.35,172.84z"/>
		<path class="st16" d="M661.39,127.58c1.39,0,2.51-1.13,2.51-2.51c0-1.39-1.13-2.51-2.51-2.51s-2.51,1.13-2.51,2.51
			C658.87,126.45,660,127.58,661.39,127.58L661.39,127.58z"/>
		<path class="st16" d="M590.98,151.05c1.39,0,2.51-1.13,2.51-2.51s-1.13-2.51-2.51-2.51s-2.51,1.13-2.51,2.51
			S589.59,151.05,590.98,151.05z"/>
		<path class="st16" d="M538.17,212.24c1.39,0,2.51-1.13,2.51-2.51s-1.13-2.51-2.51-2.51c-1.39,0-2.51,1.13-2.51,2.51
			S536.78,212.24,538.17,212.24z"/>
		<path class="st16" d="M621.99,261.69c1.39,0,2.51-1.13,2.51-2.51s-1.13-2.51-2.51-2.51c-1.39,0-2.51,1.13-2.51,2.51
			S620.6,261.69,621.99,261.69z"/>
		<path class="st16" d="M560.8,275.1c1.39,0,2.51-1.13,2.51-2.51c0-1.39-1.13-2.51-2.51-2.51s-2.51,1.13-2.51,2.51
			C558.29,273.97,559.42,275.1,560.8,275.1z"/>
		<path class="st16" d="M415.8,234.03c1.39,0,2.51-1.13,2.51-2.51c0-1.39-1.13-2.51-2.51-2.51c-1.39,0-2.51,1.13-2.51,2.51
			C413.29,232.9,414.41,234.03,415.8,234.03z"/>
		<path class="st16" d="M408.26,327.07c1.39,0,2.51-1.13,2.51-2.51c0-1.39-1.13-2.51-2.51-2.51c-1.39,0-2.51,1.13-2.51,2.51
			C405.74,325.94,406.87,327.07,408.26,327.07z"/>
		<path class="st16" d="M502.13,342.15c1.39,0,2.51-1.13,2.51-2.51c0-1.39-1.13-2.51-2.51-2.51c-1.39,0-2.51,1.13-2.51,2.51
			C499.62,341.03,500.74,342.15,502.13,342.15z"/>
		<path class="st16" d="M874.28,72.26c1.39,0,2.51-1.13,2.51-2.51s-1.13-2.51-2.51-2.51s-2.51,1.13-2.51,2.51
			S872.89,72.26,874.28,72.26z"/>
		<path class="st16" d="M817.29,53.82c1.39,0,2.51-1.13,2.51-2.51c0-1.39-1.13-2.51-2.51-2.51c-1.39,0-2.51,1.13-2.51,2.51
			C814.77,52.69,815.9,53.82,817.29,53.82z"/>
		<path class="st16" d="M807.23,99.08c1.39,0,2.51-1.13,2.51-2.51c0-1.39-1.13-2.51-2.51-2.51s-2.51,1.13-2.51,2.51
			C804.71,97.96,805.84,99.08,807.23,99.08z"/>
		<path class="st16" d="M916.19,125.07c1.39,0,2.51-1.13,2.51-2.51c0-1.39-1.13-2.51-2.51-2.51s-2.51,1.13-2.51,2.51
			C913.68,123.94,914.8,125.07,916.19,125.07z"/>
		<path class="st16" d="M908.65,172.84c1.39,0,2.51-1.13,2.51-2.51c0-1.39-1.13-2.51-2.51-2.51s-2.51,1.13-2.51,2.51
			C906.13,171.72,907.26,172.84,908.65,172.84z"/>
		<path class="st16" d="M998.33,214.75c1.39,0,2.51-1.13,2.51-2.51c0-1.39-1.13-2.51-2.51-2.51l0,0c-1.39,0-2.51,1.13-2.51,2.51
			C995.82,213.62,996.94,214.75,998.33,214.75z"/>
		<path class="st16" d="M1020.13,270.91c1.39,0,2.51-1.13,2.51-2.51c0-1.39-1.13-2.51-2.51-2.51s-2.51,1.13-2.51,2.51
			C1017.61,269.78,1018.74,270.91,1020.13,270.91z"/>
		<path class="st16" d="M946.37,270.07c1.39,0,2.51-1.13,2.51-2.51c0-1.39-1.13-2.51-2.51-2.51s-2.51,1.13-2.51,2.51
			C943.85,268.94,944.98,270.07,946.37,270.07z"/>
		<path class="st16" d="M1010.91,394.96c1.39,0,2.51-1.13,2.51-2.51c0-1.39-1.13-2.51-2.51-2.51c-1.39,0-2.51,1.13-2.51,2.51
			C1008.39,393.83,1009.52,394.96,1010.91,394.96L1010.91,394.96z"/>
		<path class="st16" d="M643.78,65.55c1.39,0,2.51-1.13,2.51-2.51c0-1.39-1.13-2.51-2.51-2.51l0,0c-1.39,0-2.51,1.13-2.51,2.51
			C641.27,64.43,642.4,65.55,643.78,65.55z"/>
		<path class="st16" d="M942.18,239.06c0.46,0,0.84-0.38,0.84-0.84s-0.38-0.84-0.84-0.84c-0.46,0-0.84,0.38-0.84,0.84
			S941.71,239.06,942.18,239.06z"/>
		<path class="st16" d="M886.86,260.01c0.46,0,0.84-0.38,0.84-0.84c0-0.46-0.38-0.84-0.84-0.84c-0.46,0-0.84,0.38-0.84,0.84
			C886.02,259.64,886.39,260.01,886.86,260.01z"/>
		<path class="st16" d="M804.71,280.13c0.46,0,0.84-0.38,0.84-0.84c0-0.46-0.38-0.84-0.84-0.84s-0.84,0.38-0.84,0.84
			C803.88,279.75,804.25,280.13,804.71,280.13z"/>
		<path class="st16" d="M801.36,226.48c0.46,0,0.84-0.38,0.84-0.84s-0.38-0.84-0.84-0.84s-0.84,0.38-0.84,0.84
			S800.9,226.48,801.36,226.48z"/>
		<path class="st16" d="M741.01,286c0.46,0,0.84-0.38,0.84-0.84c0-0.46-0.38-0.84-0.84-0.84s-0.84,0.38-0.84,0.84
			C740.17,285.62,740.55,286,741.01,286z"/>
		<path class="st16" d="M670.61,252.47c0.46,0,0.84-0.38,0.84-0.84s-0.38-0.84-0.84-0.84c-0.46,0-0.84,0.38-0.84,0.84
			S670.14,252.47,670.61,252.47z"/>
		<path class="st16" d="M668.09,315.33c0.46,0,0.84-0.38,0.84-0.84c0-0.46-0.38-0.84-0.84-0.84c-0.46,0-0.84,0.38-0.84,0.84
			C667.25,314.96,667.63,315.33,668.09,315.33z"/>
		<path class="st16" d="M709.16,195.47c0.46,0,0.84-0.38,0.84-0.84s-0.38-0.84-0.84-0.84c-0.46,0-0.84,0.38-0.84,0.84
			S708.7,195.47,709.16,195.47z"/>
		<path class="st16" d="M627.86,175.36c0.46,0,0.84-0.38,0.84-0.84s-0.38-0.84-0.84-0.84c-0.46,0-0.84,0.38-0.84,0.84
			S627.4,175.36,627.86,175.36z"/>
		<path class="st16" d="M730.12,138.48c0.46,0,0.84-0.38,0.84-0.84s-0.38-0.84-0.84-0.84s-0.84,0.38-0.84,0.84
			S729.65,138.48,730.12,138.48z"/>
		<path class="st16" d="M757.78,69.75c0.46,0,0.84-0.38,0.84-0.84c0-0.46-0.38-0.84-0.84-0.84c-0.46,0-0.84,0.38-0.84,0.84
			C756.94,69.37,757.31,69.75,757.78,69.75z"/>
		<path class="st16" d="M724.25,54.66c0.46,0,0.84-0.38,0.84-0.84c0-0.46-0.38-0.84-0.84-0.84s-0.84,0.38-0.84,0.84
			C723.41,54.28,723.79,54.66,724.25,54.66z"/>
		<path class="st16" d="M681.5,93.21c0.46,0,0.84-0.38,0.84-0.84c0-0.46-0.38-0.84-0.84-0.84s-0.84,0.38-0.84,0.84
			C680.66,92.84,681.04,93.21,681.5,93.21z"/>
		<path class="st16" d="M604.39,96.57c0.46,0,0.84-0.38,0.84-0.84c0-0.46-0.38-0.84-0.84-0.84c-0.46,0-0.84,0.38-0.84,0.84
			C603.55,96.19,603.93,96.57,604.39,96.57z"/>
		<path class="st16" d="M578.41,108.3c0.46,0,0.84-0.38,0.84-0.84s-0.38-0.84-0.84-0.84c-0.46,0-0.84,0.38-0.84,0.84
			S577.94,108.3,578.41,108.3z"/>
		<path class="st16" d="M598.52,135.96c0.46,0,0.84-0.38,0.84-0.84c0-0.46-0.38-0.84-0.84-0.84c-0.46,0-0.84,0.38-0.84,0.84
			C597.68,135.59,598.06,135.96,598.52,135.96z"/>
		<path class="st16" d="M552.42,142.67c0.46,0,0.84-0.38,0.84-0.84s-0.38-0.84-0.84-0.84c-0.46,0-0.84,0.38-0.84,0.84
			S551.96,142.67,552.42,142.67z"/>
		<path class="st16" d="M555.78,174.52c0.46,0,0.84-0.38,0.84-0.84s-0.38-0.84-0.84-0.84c-0.46,0-0.84,0.38-0.84,0.84
			S555.31,174.52,555.78,174.52z"/>
		<path class="st16" d="M502.13,164.46c0.46,0,0.84-0.38,0.84-0.84s-0.38-0.84-0.84-0.84c-0.46,0-0.84,0.38-0.84,0.84
			S501.67,164.46,502.13,164.46z"/>
		<path class="st16" d="M466.09,241.57c0.46,0,0.84-0.38,0.84-0.84s-0.38-0.84-0.84-0.84s-0.84,0.38-0.84,0.84
			S465.63,241.57,466.09,241.57z"/>
		<path class="st16" d="M508,125.9c0.46,0,0.84-0.38,0.84-0.84s-0.38-0.84-0.84-0.84c-0.46,0-0.84,0.38-0.84,0.84
			S507.54,125.9,508,125.9z"/>
		<path class="st16" d="M442.62,178.71c0.46,0,0.84-0.38,0.84-0.84s-0.38-0.84-0.84-0.84c-0.46,0-0.84,0.38-0.84,0.84
			S442.16,178.71,442.62,178.71z"/>
		<path class="st16" d="M456.87,209.72c0.46,0,0.84-0.38,0.84-0.84s-0.38-0.84-0.84-0.84s-0.84,0.38-0.84,0.84
			S456.41,209.72,456.87,209.72z"/>
		<path class="st16" d="M421.67,259.17c0.46,0,0.84-0.38,0.84-0.84c0-0.46-0.38-0.84-0.84-0.84s-0.84,0.38-0.84,0.84
			C420.83,258.8,421.2,259.17,421.67,259.17z"/>
		<path class="st16" d="M383.95,292.7c0.46,0,0.84-0.38,0.84-0.84c0-0.46-0.38-0.84-0.84-0.84s-0.84,0.38-0.84,0.84
			C383.11,292.33,383.49,292.7,383.95,292.7z"/>
		<path class="st16" d="M346.23,363.95c0.46,0,0.84-0.38,0.84-0.84c0-0.46-0.38-0.84-0.84-0.84c-0.46,0-0.84,0.38-0.84,0.84
			C345.39,363.57,345.77,363.95,346.23,363.95z"/>
		<path class="st16" d="M370.54,393.28c0.46,0,0.84-0.38,0.84-0.84c0-0.46-0.38-0.84-0.84-0.84c-0.46,0-0.84,0.38-0.84,0.84
			C369.7,392.91,370.08,393.28,370.54,393.28z"/>
		<path class="st16" d="M406.58,358.92c0.46,0,0.84-0.38,0.84-0.84c0-0.46-0.38-0.84-0.84-0.84c-0.46,0-0.84,0.38-0.84,0.84
			C405.74,358.54,406.12,358.92,406.58,358.92z"/>
		<path class="st16" d="M429.21,363.95c0.46,0,0.84-0.38,0.84-0.84c0-0.46-0.38-0.84-0.84-0.84s-0.84,0.38-0.84,0.84
			C428.37,363.57,428.75,363.95,429.21,363.95z"/>
		<path class="st16" d="M494.59,297.73c0.46,0,0.84-0.38,0.84-0.84c0-0.46-0.38-0.84-0.84-0.84c-0.46,0-0.84,0.38-0.84,0.84
			C493.75,297.35,494.13,297.73,494.59,297.73z"/>
		<path class="st16" d="M828.18,311.98c0.46,0,0.84-0.38,0.84-0.84c0-0.46-0.38-0.84-0.84-0.84s-0.84,0.38-0.84,0.84
			C827.35,311.6,827.72,311.98,828.18,311.98z"/>
		<path class="st16" d="M927.93,337.96c0.46,0,0.84-0.38,0.84-0.84c0-0.46-0.38-0.84-0.84-0.84c-0.46,0-0.84,0.38-0.84,0.84
			C927.09,337.59,927.46,337.96,927.93,337.96z"/>
		<path class="st16" d="M970.67,376.52c0.46,0,0.84-0.38,0.84-0.84c0-0.46-0.38-0.84-0.84-0.84c-0.46,0-0.84,0.38-0.84,0.84
			C969.84,376.14,970.21,376.52,970.67,376.52z"/>
		<path class="st16" d="M989.11,306.95c0.46,0,0.84-0.38,0.84-0.84c0-0.46-0.38-0.84-0.84-0.84s-0.84,0.38-0.84,0.84
			C988.28,306.57,988.65,306.95,989.11,306.95z"/>
		<path class="st16" d="M1061.2,324.55c0.46,0,0.84-0.38,0.84-0.84c0-0.46-0.38-0.84-0.84-0.84s-0.84,0.38-0.84,0.84
			C1060.36,324.18,1060.73,324.55,1061.2,324.55z"/>
		<path class="st16" d="M1056.17,397.47c0.46,0,0.84-0.38,0.84-0.84c0-0.46-0.38-0.84-0.84-0.84s-0.84,0.38-0.84,0.84
			C1055.33,397.1,1055.7,397.47,1056.17,397.47z"/>
		<path class="st16" d="M858.36,167.53c0.46,0,0.84-0.38,0.84-0.84s-0.38-0.84-0.84-0.84c-0.46,0-0.84,0.38-0.84,0.84
			S857.89,167.53,858.36,167.53z"/>
		<path class="st16" d="M870.65,199.95c0.46,0,0.84-0.38,0.84-0.84s-0.38-0.84-0.84-0.84c-0.46,0-0.84,0.38-0.84,0.84
			S870.18,199.95,870.65,199.95z"/>
		<path class="st16" d="M834.89,111.65c0.46,0,0.84-0.38,0.84-0.84c0-0.46-0.38-0.84-0.84-0.84c-0.46,0-0.84,0.38-0.84,0.84
			C834.05,111.28,834.43,111.65,834.89,111.65z"/>
		<path class="st16" d="M942.18,106.07c0.46,0,0.84-0.38,0.84-0.84c0-0.46-0.38-0.84-0.84-0.84c-0.46,0-0.84,0.38-0.84,0.84
			C941.34,105.7,941.71,106.07,942.18,106.07z"/>
		<path class="st16" d="M969,160.82c0.46,0,0.84-0.38,0.84-0.84s-0.38-0.84-0.84-0.84s-0.84,0.38-0.84,0.84
			S968.53,160.82,969,160.82z"/>
		<path class="st16" d="M764.48,34.54c0.46,0,0.84-0.38,0.84-0.84c0-0.46-0.38-0.84-0.84-0.84s-0.84,0.38-0.84,0.84
			C763.64,34.17,764.02,34.54,764.48,34.54z"/>
		<path class="st16" d="M754.42,197.7c0.46,0,0.84-0.38,0.84-0.84s-0.38-0.84-0.84-0.84c-0.46,0-0.84,0.38-0.84,0.84
			S753.96,197.7,754.42,197.7z"/>
		<path class="st16" d="M649.37,212.24c0.46,0,0.84-0.38,0.84-0.84s-0.38-0.84-0.84-0.84s-0.84,0.38-0.84,0.84
			S648.9,212.24,649.37,212.24z"/>
		<path class="st16" d="M591.26,237.93c0.46,0,0.84-0.38,0.84-0.84s-0.38-0.84-0.84-0.84c-0.46,0-0.84,0.38-0.84,0.84
			S590.8,237.93,591.26,237.93z"/>
	</g>
</g>
<g id="freepik--Moon--inject-338">
	<circle class="st1" cx="423.76" cy="78.63" r="73.64"/>
	<circle class="st17" cx="423.76" cy="78.63" r="73.64"/>
	<path class="st1" d="M496.63,68.02c-3.12-3.64-8.08-6.32-10.14-10.78c-0.66-1.7-1.22-3.43-1.68-5.2c-0.46-1.77-1.52-3.33-3-4.41
		c-1.56-1.04-3.66-0.76-4.89,0.65c-1.36,1.98,0.2,4.68,2.1,6.14c1.89,1.46,4.27,2.58,5.21,4.78c1.04,2.39-0.06,5.16-2.44,6.2
		c-2.39,1.04-5.16-0.06-6.2-2.44c-0.17-0.39-0.29-0.8-0.34-1.22c-0.22-1.53,0.13-3.47-1.21-4.26c-2.03-1.17-4.26,2.46-6.5,1.68
		c-1.68-0.54-1.68-3.03-0.96-4.66c0.72-1.63,1.99-3.35,1.54-5.03c-0.65-2.48-3.91-2.85-6.3-3.76c-2.73-1.02-4.84-3.22-7.38-4.69
		c-2.53-1.48-6.1-2.01-8.11,0c-2.33,2.43-1.24,6.87-3.6,9.25c-1.36,1.36-3.69,1.83-4.36,3.64c-0.82,2.21,1.68,4.36,4.09,4.53
		c2.41,0.17,4.68-0.72,7.04-0.54c2.36,0.18,4.91,2.3,4.11,4.51c-0.8,1.52-2.46,2.38-4.16,2.15c-1.68,0-3.35-0.64-5.03-0.55
		c-1.68,0.08-3.49,1.16-3.57,2.83c-0.13,2.6,3.87,4.39,3.02,6.86c-0.62,1.68-3.24,1.68-4.71,0.64s-2.35-2.87-3.77-4.06
		c-1.42-1.19-3.94-1.51-4.84,0.1c-1.26,2.3,2.23,5.3,0.82,7.51c-0.82,0.98-2.16,1.33-3.35,0.87c-1.17-0.45-2.29-1.01-3.35-1.68
		c-1.76-1-3.83-1.26-5.78-0.74c-1.93,0.62-3.34,2.3-3.6,4.31c-0.22,2.06,1.15,3.96,3.19,4.38c1.29,0.02,2.58-0.21,3.79-0.67
		c1.25-0.45,2.64-0.16,3.6,0.75c0.67,1.21,0.61,2.69-0.15,3.84c-0.77,1.12-1.23,2.42-1.34,3.77c0.15,2.53,3.55,3.77,5.85,2.72
		c2.2-1.31,3.82-3.41,4.53-5.87c0.7-2.46,1.9-4.74,3.54-6.71c2.36-2.31,6.71-2.6,8.8,0c1.44,1.83,1.41,4.39,1.31,6.71
		c-0.08,1.56-0.15,3.12-0.22,4.69c-0.12,2.35-0.3,4.93-1.93,6.71c-1.04,0.84-2.54,0.8-3.54-0.1c-1.02-0.91-2.1-1.73-3.25-2.46
		c-2.01-0.94-4.41-0.07-5.35,1.94c-0.38,0.82-0.48,1.75-0.27,2.63c0.72,3.08,4.78,4.61,5.23,7.74c0.19,2.1-1.15,4.03-3.19,4.58
		c-2.03,0.45-4.15-0.28-5.46-1.89c-1.27-1.62-1.84-3.69-1.56-5.73c0.19-0.91,0.31-1.83,0.37-2.75c0.03-0.95-0.43-1.84-1.22-2.36
		c-0.96-0.43-2.08-0.23-2.85,0.49c-0.76,0.7-1.39,1.52-1.88,2.43c-1.1,2.03-2.97,3.52-5.2,4.14c-2.25,0.4-4.91-1.36-4.64-3.62
		c0.33-1.46,1.3-2.7,2.65-3.35c1.33-0.65,2.52-1.54,3.54-2.62c0.99-1.18,0.86-2.93-0.3-3.94c-1.26-0.77-2.92,0.1-3.97,1.14
		c-1.06,1.04-2.05,2.36-3.5,2.62c-1.46,0.25-2.83-0.45-3.91,0.35c-1.07,0.8-0.82,2.63-1.22,4.01c-0.83,1.91-2.57,3.27-4.63,3.6
		c-2.03,0.3-3.98,0.99-5.75,2.01c-1.68,1.24-2.38,3.94-0.84,5.28c0.4,1.19,2.92,2.01,4.16,1.81c1.24-0.2,2.7-0.49,3.6,0.39
		c1.68,1.58-0.62,4.56,0.5,6.52c0.91,1.56,3.35,1.31,4.74,0.1c1.18-1.37,2.24-2.85,3.15-4.41c1.11-1.44,3.1-2.55,4.69-1.68
		c1.59,0.87,1.68,3.59,0.62,5.25c-1.27,1.52-2.67,2.94-4.17,4.24c-1.32,1.49-2.15,3.82-0.96,5.43c1.18,1.23,2.93,1.72,4.58,1.27
		c1.64-0.46,3.33-0.7,5.03-0.72c2.77,0.27,4.83,2.58,7.04,4.26c2.21,1.68,5.67,2.75,7.58,0.72c1.15-1.57,1.38-3.64,0.6-5.43
		c-0.8-1.74-1.45-3.55-1.94-5.4c-0.42-2.34,0.5-4.72,2.4-6.15c1.98-1.36,4.66-1.07,6.3,0.69c0.87,1.29,1.35,2.8,1.39,4.36
		c0.04,1.54,0.44,3.06,1.16,4.43c0.8,1.38,2.5,1.96,3.97,1.34c1.37-0.8,1.51-2.68,1.68-4.26s0.64-3.5,2.18-3.84
		c1.54-0.34,3.15,1.81,3.03,3.65c-0.12,1.84-1.09,3.52-1.19,5.36c-0.1,1.84,1.39,3.99,3.15,3.49c1.37-0.39,1.86-2.08,1.91-3.5
		c-0.17-1.42,0.11-2.87,0.8-4.12c1.14-1.44,3.35-1.34,5.15-1.01s3.86,0.75,5.33-0.34c1.81-1.36,1.68-4.07,1.48-6.34
		c-0.2-2.26,0.42-5.18,2.65-5.65c2.77-0.57,5.03,3.35,7.71,2.8c2.16-0.4,2.87-3.05,4.04-4.89c0.54-0.83,1.25-1.54,2.08-2.08
		c6.66-13.42,9.07-28.55,6.91-43.37L496.63,68.02z"/>
	<path class="st1" d="M391.59,59.35c1.59,0.16,3.07,0.86,4.21,1.98c1.12,1.11,2.37,2.09,3.72,2.92c1.94,1,4.24,1.05,6.22,0.13
		c2-0.95,3.45-2.77,3.92-4.93c0.47-2.2-0.12-4.48,0-6.71s1.34-4.88,3.59-5.03c1.4-1.02,3.36-0.71,4.38,0.69
		c0.06,0.08,0.11,0.16,0.16,0.25c0.77,1.59,0.77,3.44,0,5.03c-0.77,1.59-1.63,3.14-2.56,4.64c-0.92,1.5-1.27,3.29-0.97,5.03
		c0.74,2.95,4.09,4.43,7.11,4.76c1.3,0.21,2.62,0.11,3.87-0.28c1.27-0.4,2.27-1.38,2.68-2.65c0.8-3.02-2.88-5.98-1.89-8.95
		c0.99-2.97,6.12-3.35,6.86-6.42c0.4-1.68-0.65-3.35,0-5.03c0.65-1.68,1.99-2.08,3.35-2.7s2.78-1.53,2.95-2.98
		c0.22-1.89-1.84-3.22-3.67-3.77c-1.83-0.55-3.97-1.01-4.84-2.72c-0.58-1.88,0.2-3.92,1.89-4.93c3.23-1.97,7.45-0.95,9.42,2.28
		c0.01,0.02,0.02,0.03,0.03,0.05c0.84,1.56,1.12,3.55,2.56,4.58c1.28,0.72,2.81,0.86,4.21,0.39c1.37-0.5,2.79-0.83,4.24-0.99
		c2.97,0,5.43,2.15,7.51,4.27c0.74,0.77,1.51,1.56,2.33,2.26c1.41,1.2,3.53,1.02,4.72-0.4c0.66-0.79,0.93-1.83,0.72-2.84
		c-0.29-1.18-0.76-2.31-1.39-3.35c-1.78-2.62-4.32-4.63-7.28-5.77c-1.78-0.72-3.62-1.28-5.5-1.68c-2.08-0.45-3.95-1.57-5.31-3.2
		c-3.72-4.63-10.48-5.36-15.11-1.65c-0.99,0.79-1.83,1.75-2.48,2.84c-0.56,1.1-1.24,2.12-2.05,3.05c-0.83,0.97-2.22,1.24-3.35,0.65
		c-1.68-1.16-0.8-4.31-2.56-5.3c-1.27-0.49-2.7,0.15-3.18,1.42c-0.01,0.02-0.01,0.04-0.02,0.05c-0.37,1.29-0.37,2.65,0,3.94
		c0.36,1.28,0.36,2.64,0,3.92c-0.81,1.47-2.18,2.54-3.81,2.95c-1.62,0.38-3.17,1.02-4.59,1.88c-2.56,1.89-3.35,5.77-6.22,7.11
		c-2.29,1.04-5,0.02-6.03-2.27c-0.61-1.35-0.53-2.9,0.22-4.18c0.75-1.26,2.06-2.1,2.92-3.35c0.85-1.26,0.97-3.2-0.35-3.86
		c-1.32-0.65-2.95,0.74-3.64,2.15c-0.69,1.41-1.36,3.24-2.9,3.62c-1.54,0.39-2.77-0.62-4.02-1.39s-3.05-1.24-4.01-0.13
		c-0.96,1.11,0,3.07,0.64,4.61c0.82,2.09,0.44,4.46-0.99,6.19c-1.53,1.67-3.99,2.11-6,1.07c-1.94-1.21-2.54-3.76-1.33-5.7
		c0,0,0.01-0.01,0.01-0.01c0.44-0.62,1.07-1.07,1.53-1.68c0.54-0.59,0.67-1.44,0.34-2.16c-0.62-0.71-1.64-0.89-2.46-0.45
		c-0.85,0.35-1.56,0.99-2.41,1.31c-2.13,0.55-4.31-0.73-4.86-2.86c-0.03-0.1-0.05-0.19-0.06-0.29c-0.25-2.27,1.04-4.43,3.15-5.3
		c2.11-0.79,4.48-0.57,6.4,0.6c1.09,0.64,2.23,1.53,3.47,1.29c1.93-0.35,2.48-3.03,4.24-3.87c1.41-0.4,2.91-0.29,4.24,0.32
		c1.41,0.39,3.2,0.42,3.97-0.82c0.53-1.32,0.19-2.83-0.85-3.81c-1.04-0.93-1.78-2.15-2.13-3.5c-0.17-1.68,1.32-3.24,1.68-5.03
		c0.18-1.46-0.47-2.9-1.68-3.74c-12.84,5.57-23.83,14.68-31.68,26.27c0.24,0.62,0.6,1.19,1.06,1.68c0.94,0.81,1.94,1.57,2.97,2.26
		c1.05,0.71,1.67,1.89,1.68,3.15c-0.15,1-0.77,1.86-1.68,2.31c-0.9,0.43-1.9,0.63-2.9,0.59c-2.13-0.02-4.22-0.56-6.09-1.58
		c-2.57,5.19-4.51,10.67-5.78,16.33c0.94-0.25,1.81-0.7,2.75-0.92c0.96-0.3,2.02-0.09,2.78,0.57c0.74,0.75,0.75,1.94,1.21,2.9
		c1.24,1.91,3.73,2.56,5.75,1.51c1.92-1.08,3.53-2.64,4.68-4.53c1.13-1.87,2.73-3.42,4.63-4.51c2.02-1.05,4.5-0.39,5.73,1.53
		c0.65,1.77,0.17,3.75-1.21,5.03c-1.35,1.24-2.8,2.37-4.34,3.35c-1.56,1-2.61,2.6-2.92,4.43c-0.13,1.81,1.51,3.77,3.35,3.35
		c1.84-0.42,2.25-2.13,2.77-3.64c0.52-1.51,1.39-3.25,2.98-3.35c1.12,0.02,2.17,0.58,2.82,1.49c0.62,0.91,1.36,1.74,2.21,2.45
		c1.75,1.2,4.14,0.75,5.33-1.01c0.75-1.1,0.88-2.52,0.33-3.74c-0.74-1.68-2.67-2.85-2.62-4.66
		C388.49,60.51,389.93,59.26,391.59,59.35z"/>
	<g class="st18">
		<path class="st16" d="M496.63,68.02c-3.12-3.64-8.08-6.32-10.14-10.78c-0.66-1.7-1.22-3.43-1.68-5.2c-0.46-1.77-1.52-3.33-3-4.41
			c-1.56-1.04-3.66-0.76-4.89,0.65c-1.36,1.98,0.2,4.68,2.1,6.14c1.89,1.46,4.27,2.58,5.21,4.78c1.04,2.39-0.06,5.16-2.44,6.2
			c-2.39,1.04-5.16-0.06-6.2-2.44c-0.17-0.39-0.29-0.8-0.34-1.22c-0.22-1.53,0.13-3.47-1.21-4.26c-2.03-1.17-4.26,2.46-6.5,1.68
			c-1.68-0.54-1.68-3.03-0.96-4.66c0.72-1.63,1.99-3.35,1.54-5.03c-0.65-2.48-3.91-2.85-6.3-3.76c-2.73-1.02-4.84-3.22-7.38-4.69
			c-2.53-1.48-6.1-2.01-8.11,0c-2.33,2.43-1.24,6.87-3.6,9.25c-1.36,1.36-3.69,1.83-4.36,3.64c-0.82,2.21,1.68,4.36,4.09,4.53
			c2.41,0.17,4.68-0.72,7.04-0.54c2.36,0.18,4.91,2.3,4.11,4.51c-0.8,1.52-2.46,2.38-4.16,2.15c-1.68,0-3.35-0.64-5.03-0.55
			c-1.68,0.08-3.49,1.16-3.57,2.83c-0.13,2.6,3.87,4.39,3.02,6.86c-0.62,1.68-3.24,1.68-4.71,0.64s-2.35-2.87-3.77-4.06
			c-1.42-1.19-3.94-1.51-4.84,0.1c-1.26,2.3,2.23,5.3,0.82,7.51c-0.82,0.98-2.16,1.33-3.35,0.87c-1.17-0.45-2.29-1.01-3.35-1.68
			c-1.76-1-3.83-1.26-5.78-0.74c-1.93,0.62-3.34,2.3-3.6,4.31c-0.22,2.06,1.15,3.96,3.19,4.38c1.29,0.02,2.58-0.21,3.79-0.67
			c1.25-0.45,2.64-0.16,3.6,0.75c0.67,1.21,0.61,2.69-0.15,3.84c-0.77,1.12-1.23,2.42-1.34,3.77c0.15,2.53,3.55,3.77,5.85,2.72
			c2.2-1.31,3.82-3.41,4.53-5.87c0.7-2.46,1.9-4.74,3.54-6.71c2.36-2.31,6.71-2.6,8.8,0c1.44,1.83,1.41,4.39,1.31,6.71
			c-0.08,1.56-0.15,3.12-0.22,4.69c-0.12,2.35-0.3,4.93-1.93,6.71c-1.04,0.84-2.54,0.8-3.54-0.1c-1.02-0.91-2.1-1.73-3.25-2.46
			c-2.01-0.94-4.41-0.07-5.35,1.94c-0.38,0.82-0.48,1.75-0.27,2.63c0.72,3.08,4.78,4.61,5.23,7.74c0.19,2.1-1.15,4.03-3.19,4.58
			c-2.03,0.45-4.15-0.28-5.46-1.89c-1.27-1.62-1.84-3.69-1.56-5.73c0.19-0.91,0.31-1.83,0.37-2.75c0.03-0.95-0.43-1.84-1.22-2.36
			c-0.96-0.43-2.08-0.23-2.85,0.49c-0.76,0.7-1.39,1.52-1.88,2.43c-1.1,2.03-2.97,3.52-5.2,4.14c-2.25,0.4-4.91-1.36-4.64-3.62
			c0.33-1.46,1.3-2.7,2.65-3.35c1.33-0.65,2.52-1.54,3.54-2.62c0.99-1.18,0.86-2.93-0.3-3.94c-1.26-0.77-2.92,0.1-3.97,1.14
			c-1.06,1.04-2.05,2.36-3.5,2.62c-1.46,0.25-2.83-0.45-3.91,0.35c-1.07,0.8-0.82,2.63-1.22,4.01c-0.83,1.91-2.57,3.27-4.63,3.6
			c-2.03,0.3-3.98,0.99-5.75,2.01c-1.68,1.24-2.38,3.94-0.84,5.28c0.4,1.19,2.92,2.01,4.16,1.81c1.24-0.2,2.7-0.49,3.6,0.39
			c1.68,1.58-0.62,4.56,0.5,6.52c0.91,1.56,3.35,1.31,4.74,0.1c1.18-1.37,2.24-2.85,3.15-4.41c1.11-1.44,3.1-2.55,4.69-1.68
			c1.59,0.87,1.68,3.59,0.62,5.25c-1.27,1.52-2.67,2.94-4.17,4.24c-1.32,1.49-2.15,3.82-0.96,5.43c1.18,1.23,2.93,1.72,4.58,1.27
			c1.64-0.46,3.33-0.7,5.03-0.72c2.77,0.27,4.83,2.58,7.04,4.26c2.21,1.68,5.67,2.75,7.58,0.72c1.15-1.57,1.38-3.64,0.6-5.43
			c-0.8-1.74-1.45-3.55-1.94-5.4c-0.42-2.34,0.5-4.72,2.4-6.15c1.98-1.36,4.66-1.07,6.3,0.69c0.87,1.29,1.35,2.8,1.39,4.36
			c0.04,1.54,0.44,3.06,1.16,4.43c0.8,1.38,2.5,1.96,3.97,1.34c1.37-0.8,1.51-2.68,1.68-4.26s0.64-3.5,2.18-3.84
			c1.54-0.34,3.15,1.81,3.03,3.65c-0.12,1.84-1.09,3.52-1.19,5.36c-0.1,1.84,1.39,3.99,3.15,3.49c1.37-0.39,1.86-2.08,1.91-3.5
			c-0.17-1.42,0.11-2.87,0.8-4.12c1.14-1.44,3.35-1.34,5.15-1.01s3.86,0.75,5.33-0.34c1.81-1.36,1.68-4.07,1.48-6.34
			c-0.2-2.26,0.42-5.18,2.65-5.65c2.77-0.57,5.03,3.35,7.71,2.8c2.16-0.4,2.87-3.05,4.04-4.89c0.54-0.83,1.25-1.54,2.08-2.08
			c6.66-13.42,9.07-28.55,6.91-43.37L496.63,68.02z"/>
		<path class="st16" d="M391.59,59.35c1.59,0.16,3.07,0.86,4.21,1.98c1.12,1.11,2.37,2.09,3.72,2.92c1.94,1,4.24,1.05,6.22,0.13
			c2-0.95,3.45-2.77,3.92-4.93c0.47-2.2-0.12-4.48,0-6.71s1.34-4.88,3.59-5.03c1.4-1.02,3.36-0.71,4.38,0.69
			c0.06,0.08,0.11,0.16,0.16,0.25c0.77,1.59,0.77,3.44,0,5.03c-0.77,1.59-1.63,3.14-2.56,4.64c-0.92,1.5-1.27,3.29-0.97,5.03
			c0.74,2.95,4.09,4.43,7.11,4.76c1.3,0.21,2.62,0.11,3.87-0.28c1.27-0.4,2.27-1.38,2.68-2.65c0.8-3.02-2.88-5.98-1.89-8.95
			c0.99-2.97,6.12-3.35,6.86-6.42c0.4-1.68-0.65-3.35,0-5.03c0.65-1.68,1.99-2.08,3.35-2.7s2.78-1.53,2.95-2.98
			c0.22-1.89-1.84-3.22-3.67-3.77c-1.83-0.55-3.97-1.01-4.84-2.72c-0.58-1.88,0.2-3.92,1.89-4.93c3.23-1.97,7.45-0.95,9.42,2.28
			c0.01,0.02,0.02,0.03,0.03,0.05c0.84,1.56,1.12,3.55,2.56,4.58c1.28,0.72,2.81,0.86,4.21,0.39c1.37-0.5,2.79-0.83,4.24-0.99
			c2.97,0,5.43,2.15,7.51,4.27c0.74,0.77,1.51,1.56,2.33,2.26c1.41,1.2,3.53,1.02,4.72-0.4c0.66-0.79,0.93-1.83,0.72-2.84
			c-0.29-1.18-0.76-2.31-1.39-3.35c-1.78-2.62-4.32-4.63-7.28-5.77c-1.78-0.72-3.62-1.28-5.5-1.68c-2.08-0.45-3.95-1.57-5.31-3.2
			c-3.72-4.63-10.48-5.36-15.11-1.65c-0.99,0.79-1.83,1.75-2.48,2.84c-0.56,1.1-1.24,2.12-2.05,3.05c-0.83,0.97-2.22,1.24-3.35,0.65
			c-1.68-1.16-0.8-4.31-2.56-5.3c-1.27-0.49-2.7,0.15-3.18,1.42c-0.01,0.02-0.01,0.04-0.02,0.05c-0.37,1.29-0.37,2.65,0,3.94
			c0.36,1.28,0.36,2.64,0,3.92c-0.81,1.47-2.18,2.54-3.81,2.95c-1.62,0.38-3.17,1.02-4.59,1.88c-2.56,1.89-3.35,5.77-6.22,7.11
			c-2.29,1.04-5,0.02-6.03-2.27c-0.61-1.35-0.53-2.9,0.22-4.18c0.75-1.26,2.06-2.1,2.92-3.35c0.85-1.26,0.97-3.2-0.35-3.86
			c-1.32-0.65-2.95,0.74-3.64,2.15c-0.69,1.41-1.36,3.24-2.9,3.62c-1.54,0.39-2.77-0.62-4.02-1.39s-3.05-1.24-4.01-0.13
			c-0.96,1.11,0,3.07,0.64,4.61c0.82,2.09,0.44,4.46-0.99,6.19c-1.53,1.67-3.99,2.11-6,1.07c-1.94-1.21-2.54-3.76-1.33-5.7
			c0,0,0.01-0.01,0.01-0.01c0.44-0.62,1.07-1.07,1.53-1.68c0.54-0.59,0.67-1.44,0.34-2.16c-0.62-0.71-1.64-0.89-2.46-0.45
			c-0.85,0.35-1.56,0.99-2.41,1.31c-2.13,0.55-4.31-0.73-4.86-2.86c-0.03-0.1-0.05-0.19-0.06-0.29c-0.25-2.27,1.04-4.43,3.15-5.3
			c2.11-0.79,4.48-0.57,6.4,0.6c1.09,0.64,2.23,1.53,3.47,1.29c1.93-0.35,2.48-3.03,4.24-3.87c1.41-0.4,2.91-0.29,4.24,0.32
			c1.41,0.39,3.2,0.42,3.97-0.82c0.53-1.32,0.19-2.83-0.85-3.81c-1.04-0.93-1.78-2.15-2.13-3.5c-0.17-1.68,1.32-3.24,1.68-5.03
			c0.18-1.46-0.47-2.9-1.68-3.74c-12.84,5.57-23.83,14.68-31.68,26.27c0.24,0.62,0.6,1.19,1.06,1.68c0.94,0.81,1.94,1.57,2.97,2.26
			c1.05,0.71,1.67,1.89,1.68,3.15c-0.15,1-0.77,1.86-1.68,2.31c-0.9,0.43-1.9,0.63-2.9,0.59c-2.13-0.02-4.22-0.56-6.09-1.58
			c-2.57,5.19-4.51,10.67-5.78,16.33c0.94-0.25,1.81-0.7,2.75-0.92c0.96-0.3,2.02-0.09,2.78,0.57c0.74,0.75,0.75,1.94,1.21,2.9
			c1.24,1.91,3.73,2.56,5.75,1.51c1.92-1.08,3.53-2.64,4.68-4.53c1.13-1.87,2.73-3.42,4.63-4.51c2.02-1.05,4.5-0.39,5.73,1.53
			c0.65,1.77,0.17,3.75-1.21,5.03c-1.35,1.24-2.8,2.37-4.34,3.35c-1.56,1-2.61,2.6-2.92,4.43c-0.13,1.81,1.51,3.77,3.35,3.35
			c1.84-0.42,2.25-2.13,2.77-3.64c0.52-1.51,1.39-3.25,2.98-3.35c1.12,0.02,2.17,0.58,2.82,1.49c0.62,0.91,1.36,1.74,2.21,2.45
			c1.75,1.2,4.14,0.75,5.33-1.01c0.75-1.1,0.88-2.52,0.33-3.74c-0.74-1.68-2.67-2.85-2.62-4.66
			C388.49,60.51,389.93,59.26,391.59,59.35z"/>
	</g>
</g>
<g id="freepik--Cloud--inject-338">
	<path class="st19" d="M1034.27,53.2c-6.55-3.79-12.1-1.93-13.86,3.96c-1.58-3.23-4.03-5.96-7.07-7.88
		c-5.15-2.97-9.32-0.59-9.34,5.31v2.72l-6.91-3.99c-3.59-2.08-6.52-0.4-6.52,3.74c0.24,4.57,2.65,8.74,6.49,11.23l58.4,33.73
		c3.6,2.08,6.54,0.42,6.54-3.72c-0.24-4.57-2.65-8.75-6.49-11.25l-6.91-3.99v-5.03C1048.66,68.91,1042.22,57.79,1034.27,53.2z"/>
</g>
</svg>
