<?xml version="1.0" encoding="utf-8"?>
<!-- Generator: Adobe Illustrator 23.1.0, SVG Export Plug-In . SVG Version: 6.00 Build 0)  -->
<svg version="1.1" id="Layer_1" xmlns="http://www.w3.org/2000/svg" xmlns:xlink="http://www.w3.org/1999/xlink" x="0px" y="0px"
	 viewBox="0 0 1366 768" style="enable-background:new 0 0 1366 768;" xml:space="preserve">
<style type="text/css">
	.st0{fill:#EBEBEB;}
	.st1{fill:#F0F0F0;}
	.st2{fill:#E6E6E6;}
	.st3{fill:#FAFAFA;}
	.st4{fill:#F5F5F5;}
	.st5{fill:#E0E0E0;}
	.st6{fill:#263238;}
	.st7{opacity:0.1;fill:#FFFFFF;enable-background:new    ;}
	.st8{fill:#FFFFFF;}
	.st9{opacity:0.6;fill:#FFFFFF;enable-background:new    ;}
	.st10{opacity:0.8;fill:#FFFFFF;enable-background:new    ;}
	.st11{opacity:0.4;fill:#FFFFFF;enable-background:new    ;}
	.st12{opacity:0.2;fill:#407BFF;enable-background:new    ;}
	.st13{fill:#407BFF;}
	.st14{opacity:0.5;fill:#FFFFFF;enable-background:new    ;}
	.st15{fill:#FFB573;}
	.st16{fill:#ED893E;}
	.st17{opacity:0.2;enable-background:new    ;}
</style>
<g id="freepik--background-complete--inject-335">
	<rect x="175.71" y="668.85" class="st0" width="1012.29" height="0.51"/>
	<rect x="1019.51" y="701.43" class="st0" width="67.05" height="0.51"/>
	<rect x="660.88" y="695.25" class="st0" width="61.18" height="0.51"/>
	<rect x="875.99" y="682.64" class="st0" width="141.5" height="0.51"/>
	<rect x="281.92" y="686.04" class="st0" width="338.39" height="0.51"/>
	<rect x="638.32" y="686.04" class="st0" width="12.82" height="0.51"/>
	<path class="st0" d="M655.53,578.55H264.61c-6.38-0.01-11.54-5.18-11.54-11.56V17.46c0.06-6.34,5.2-11.45,11.54-11.46h390.93
		c6.38,0,11.56,5.18,11.56,11.56c0,0,0,0,0,0l0,0v549.43C667.09,573.38,661.92,578.55,655.53,578.55z M264.61,6.4
		c-6.1,0.01-11.03,4.96-11.03,11.05v549.53c0,6.1,4.94,11.04,11.03,11.05h390.93c6.1-0.02,11.03-4.96,11.05-11.05V17.46
		c-0.02-6.1-4.96-11.03-11.05-11.05H264.61z"/>
	<path class="st0" d="M1093.47,578.55H702.52c-6.38-0.02-11.54-5.18-11.56-11.56V17.46c0.07-6.34,5.22-11.45,11.56-11.46h390.95
		c6.33,0.02,11.46,5.13,11.52,11.46v549.53C1105,573.37,1099.85,578.54,1093.47,578.55L1093.47,578.55z M702.52,6.4
		c-6.1,0.02-11.03,4.96-11.05,11.05v549.53c0.02,6.1,4.96,11.03,11.05,11.05h390.95c6.1-0.02,11.03-4.96,11.05-11.05V17.46
		c-0.02-6.1-4.96-11.03-11.05-11.05H702.52z"/>
	<rect x="1031.16" y="179.12" class="st1" width="96.9" height="138.91"/>
	<rect x="1027.79" y="179.12" class="st2" width="3.36" height="138.91"/>
	<rect x="1040.87" y="188.86" class="st3" width="77.44" height="119.47"/>
	<path class="st4" d="M274.38,661.32h-7.27V220.36c-0.02-1.98,1.56-3.61,3.54-3.64l0,0c2,0,3.62,1.62,3.62,3.62l0,0l0,0v440.98
		H274.38z"/>
	<path class="st1" d="M293.13,668.85h-44.74v-5.79c0-5.08,4.12-9.19,9.19-9.19c0,0,0,0,0,0h26.32c5.08-0.02,9.21,4.07,9.23,9.15
		c0,0.01,0,0.03,0,0.04l0,0V668.85L293.13,668.85z"/>
	<path class="st5" d="M231.56,345.42h78.41l-7.21-118.84c-0.99-16.91-14.97-30.12-31.91-30.17l0,0c-16.97,0-31,13.23-32.01,30.17
		L231.56,345.42z"/>
	<rect x="1013.52" y="345.06" class="st1" width="66.53" height="78.17"/>
	<rect x="1010.16" y="345.06" class="st2" width="3.36" height="78.17"/>
	<rect x="1023.24" y="354.78" class="st3" width="47.07" height="58.73"/>
	
		<ellipse transform="matrix(0.1415 -0.9899 0.9899 0.1415 -261.0097 932.5893)" class="st1" cx="407.18" cy="616.78" rx="52.11" ry="52.11"/>
	<circle class="st1" cx="1008.14" cy="593.64" r="75.25"/>
	<circle class="st4" cx="1008.14" cy="593.64" r="60.39"/>
</g>
<g id="freepik--Shadow--inject-335">
	<ellipse id="freepik--path--inject-335" class="st4" cx="681.85" cy="737.36" rx="392.55" ry="22.92"/>
</g>
<g id="freepik--Window--inject-335">
	<rect x="350.47" y="54.59" class="st6" width="635.72" height="431.01"/>
	<path class="st7" d="M986.19,424.71v60.9H350.47v-60.9c92.26-9.74,241.7,57.13,356.33,30.37S927.66,424.71,986.19,424.71z"/>
	<path class="st8" d="M572.28,182.56c-4.39,1.33-7.82,4.76-9.15,9.15c-1.31-4.39-4.74-7.83-9.13-9.15c4.38-1.32,7.81-4.75,9.13-9.13
		C564.45,177.82,567.89,181.25,572.28,182.56z"/>
	<circle class="st8" cx="697.44" cy="215.4" r="5.45"/>
	<circle class="st8" cx="858.54" cy="160.33" r="7.33"/>
	<path class="st8" d="M548.82,306.31c-3.52,1.05-6.28,3.81-7.33,7.33c-1.07-3.51-3.82-6.26-7.33-7.33c3.51-1.07,6.26-3.82,7.33-7.33
		C542.54,302.5,545.3,305.25,548.82,306.31z"/>
	<path class="st9" d="M753.83,330.97c-2.19,0.67-3.9,2.39-4.58,4.58c-0.66-2.19-2.37-3.9-4.56-4.58c2.19-0.65,3.9-2.36,4.56-4.56
		C749.93,328.6,751.64,330.3,753.83,330.97z"/>
	<path class="st9" d="M488.81,141.87c-2.18,0.67-3.89,2.39-4.56,4.58c-0.67-2.19-2.39-3.9-4.58-4.58c2.19-0.67,3.9-2.39,4.58-4.58
		C484.91,139.49,486.62,141.2,488.81,141.87z"/>
	<path class="st10" d="M599.37,390.89c-2.2,0.66-3.92,2.38-4.58,4.58c-0.66-2.2-2.38-3.92-4.58-4.58c2.19-0.67,3.9-2.39,4.58-4.58
		C595.47,388.51,597.18,390.22,599.37,390.89z"/>
	<path class="st11" d="M944.12,370.87c-1.57,0.47-2.8,1.7-3.26,3.28c-0.47-1.58-1.7-2.81-3.28-3.28c1.57-0.47,2.8-1.69,3.28-3.26
		C941.33,369.18,942.55,370.4,944.12,370.87z"/>
	<path class="st11" d="M661.83,297.54c-1.56,0.49-2.78,1.72-3.26,3.28c-0.48-1.57-1.71-2.8-3.28-3.28c1.58-0.46,2.81-1.69,3.28-3.26
		C659.04,295.84,660.27,297.07,661.83,297.54z"/>
	<circle class="st11" cx="952.01" cy="206.7" r="3.26"/>
	<circle class="st11" cx="637.98" cy="170.92" r="3.26"/>
	<path class="st11" d="M467.49,346.03c-1.58,0.46-2.81,1.69-3.28,3.26c-0.47-1.56-1.7-2.79-3.26-3.26c1.57-0.47,2.8-1.7,3.26-3.28
		C464.68,344.33,465.91,345.56,467.49,346.03z"/>
	<path class="st11" d="M770.73,179.3c-1.56,0.48-2.79,1.7-3.28,3.26c-0.47-1.56-1.7-2.79-3.26-3.26c1.58-0.49,2.81-1.75,3.26-3.34
		C767.92,177.55,769.15,178.81,770.73,179.3z"/>
	<rect x="350.47" y="54.59" class="st12" width="635.72" height="54.66"/>
	<rect x="350.47" y="104.19" class="st13" width="635.72" height="10.12"/>
	<rect x="996.31" y="149.06" class="st13" width="2.02" height="15.18"/>
	<rect x="996.31" y="84.61" class="st13" width="2.02" height="48.59"/>
	<path class="st13" d="M991.25,490.67H345.41V49.53h645.84V490.67z M355.53,480.54h625.6V59.65h-625.6V480.54z"/>
	<path class="st13" d="M1026.68,41.88h-716.7c-1.68,0-3.04-1.36-3.04-3.04s1.36-3.04,3.04-3.04h716.7c1.68,0,3.04,1.36,3.04,3.04
		S1028.36,41.88,1026.68,41.88z"/>
	<path class="st8" d="M492.19,227.69h-0.53c-9.29,0-16.83,7.52-16.83,16.82c0,4.16,1.54,8.17,4.32,11.26
		c-9.29-0.29-16.58-8.05-16.29-17.34c0.29-9.29,8.05-16.58,17.34-16.29c4.59,0.14,8.92,2.16,11.99,5.57L492.19,227.69z"/>
	<rect x="326.78" y="26.69" class="st13" width="26.4" height="508.39"/>
	<rect x="326.78" y="26.69" class="st14" width="26.4" height="508.39"/>
	<rect x="370.15" y="26.69" class="st13" width="26.4" height="508.39"/>
	<rect x="370.15" y="26.69" class="st14" width="26.4" height="508.39"/>
	<rect x="401.83" y="26.69" class="st13" width="26.4" height="508.39"/>
	<rect x="401.83" y="26.69" class="st14" width="26.4" height="508.39"/>
	<rect x="349.98" y="26.69" class="st13" width="26.4" height="529.31"/>
	<rect x="349.98" y="26.69" class="st9" width="26.4" height="529.31"/>
	<rect x="390.96" y="26.69" class="st13" width="26.4" height="529.31"/>
	<rect x="390.96" y="26.69" class="st9" width="26.4" height="529.31"/>
</g>
<g id="freepik--Character--inject-335">
	<path class="st15" d="M867.33,374.48c-5.45-5.61-14.41-5.74-20.02-0.3l-0.28,0.28c-1.15,1.11-2.65,2.53-4.05,3.81l-4.31,4.05
		c-2.9,2.61-5.89,5.16-8.89,7.67c-6.07,5.05-12.26,9.87-18.55,14.48c-6.3,4.62-12.84,8.89-19.46,12.92
		c-6.05,3.62-12.28,6.94-18.67,9.94c-2.74-0.39-5.38-1.29-7.79-2.65c-4.63-2.51-8.99-5.48-13.02-8.87
		c-4.33-3.52-8.54-7.45-12.69-11.52c-4.15-4.07-8.26-8.44-12.15-12.61l-0.2-0.22c-2.58-2.93-7.05-3.21-9.97-0.62
		c-2.49,2.19-3.11,5.82-1.51,8.72c2.91,5.69,6.18,11.18,9.8,16.44c3.63,5.35,7.61,10.45,11.92,15.27
		c4.57,5.19,9.74,9.81,15.41,13.77c3.26,2.25,6.76,4.11,10.45,5.55c4.46,1.74,9.23,2.51,14.01,2.25c1.09-0.07,2.17-0.3,3.2-0.69
		l0.49-0.18c8.22-3.12,16.24-6.76,23.99-10.91c7.67-4.07,15.1-8.56,22.27-13.46c7.17-4.84,14.05-10.02,20.69-15.49
		c3.3-2.77,6.56-5.57,9.76-8.46c1.6-1.46,3.22-2.9,4.78-4.41c1.56-1.52,3.06-3,4.8-4.8C872.78,388.88,872.79,379.99,867.33,374.48z"
		/>
	<path class="st13" d="M866.78,357.45c-25.87,0.59-50.98,34.13-50.98,34.13l22.96,42.62c0,0,24.13-12.43,34.68-22.07
		C893.46,393.83,881.6,357.1,866.78,357.45z"/>
	<path class="st15" d="M728.05,381.4c-0.43-2.45-2.04-4.54-4.31-5.57c-1.72-0.79-3.66-1.34-5.22-2.02l-4.27-2.87
		c-5.56-5.14-10.64-10.78-15.14-16.86c-1.82-2.55-4.56,1.23-2.21,5.79c2.29,3.6,4.9,6.99,7.79,10.12l-6.86,10.12
		c-1.3,1.95-1.1,4.52,0.47,6.26l7.96,9.72c3.27,5.98,8.83,10.37,15.41,12.15l9.9-7.81L728.05,381.4z"/>
	<path class="st15" d="M862.04,308.64c-2.51,15.87-12.39,38.47-3.6,52.32c0,0-10.51,14.56-46.87,22.27
		c-15.63-23.04-0.53-27.92-0.53-27.92c14.17-2.02,13.69-12.31,14.66-26.06L862.04,308.64z"/>
	<path class="st6" d="M810.17,271.22c-0.57,2.02-2.02,3.32-3.4,2.96s-1.9-2.31-1.32-4.31s2.02-3.32,3.4-2.94
		S810.76,269.2,810.17,271.22z"/>
	<path class="st6" d="M809.4,267.17l-4.41-2.77C804.99,264.4,806.39,268.81,809.4,267.17z"/>
	<path class="st6" d="M811.53,255.39c-0.31-0.31-0.42-0.76-0.3-1.17c0.2-0.64,0.87-1.01,1.52-0.83c3.82,0.99,6.92,3.76,8.32,7.45
		c0.2,0.64-0.16,1.32-0.81,1.52c0,0,0,0,0,0l0,0c-0.64,0.21-1.32-0.14-1.53-0.77c0-0.01,0-0.01-0.01-0.02
		c-1.14-2.9-3.62-5.07-6.64-5.83C811.86,255.67,811.67,255.55,811.53,255.39z"/>
	<path class="st16" d="M807.98,270.94c0,0-5.89,7.63-10.81,10.71c2.02,3.22,6.74,3.38,6.74,3.38L807.98,270.94z"/>
	<path class="st15" d="M878.95,284.54c-8.6,24.15-11.72,34.56-27.76,43.59c-24.15,13.59-51.93-2.25-50.72-28.47
		c1.09-23.61,14.96-59.12,41.83-61.97c19.19-2.12,36.47,11.72,38.59,30.91C881.49,274,880.82,279.45,878.95,284.54L878.95,284.54z"
		/>
	<path class="st4" d="M821.65,282.66c-7.65,14.96,8.22,48.35,34.11,48.31c29.6,0,47.48-49.1,38.69-57.8
		c3.24-29.62-22.07-45.98-64.79-43.04C807.2,213.82,790.74,262.41,821.65,282.66z"/>
	<path class="st4" d="M831.96,315.26c-5.69,7.25,8.1,24.66,27.27,23.91c22.84-0.91,10.41-18.34,10.41-18.34L831.96,315.26z"/>
	<path class="st4" d="M894.43,273.67h-0.24c-0.24-0.14-0.33-0.44-0.2-0.69c6.42-11.22,2.39-19.84-2.02-25.1
		c-11.84-13.83-39.18-19.5-58.45-12.15c-0.26,0.09-0.55-0.04-0.65-0.3c-0.11-0.23,0-0.51,0.23-0.62c0.01,0,0.02-0.01,0.03-0.01l0,0
		c19.64-7.51,47.48-1.72,59.58,12.39c6.68,7.79,7.47,17.13,2.25,26.32C894.84,273.67,894.63,273.73,894.43,273.67z"/>
	<path class="st4" d="M829.65,230.12c-6.56-6.4-20.81-6.64-29.88,8.81C808.13,233.75,829.65,230.12,829.65,230.12z"/>
	<path class="st13" d="M881.32,265.05c17.82-9.54,18.61-15.51,27.31-12.15c8.71,3.36,13.58,23.16,0.71,25.65
		c-12.88,2.49-23.67,1.15-26.32-1.26S877.14,267.17,881.32,265.05z"/>
	<path class="st15" d="M830.8,286.83c-2.36,4.36-6.35,7.6-11.09,9.03c-6.3,1.84-8.81-3.22-7.11-9.21
		c1.52-5.39,5.91-13.4,12.27-12.61S833.7,281.45,830.8,286.83z"/>
	<path class="st13" d="M812.05,518.5l40.31,68.25c-26.12,32.09-77.32,53.04-123.24,0.18c-55.96-64.4-96.86-136.44-59.34-153
		C714.93,414.02,812.05,518.5,812.05,518.5z"/>
	<path class="st11" d="M812.05,518.5l40.31,68.25c-26.12,32.09-77.32,53.04-123.24,0.18c-55.96-64.4-96.86-136.44-59.34-153
		C714.93,414.02,812.05,518.5,812.05,518.5z"/>
	<path class="st6" d="M886.58,575.76c15.93,13.5,44.3,39.52,40.49,42.52c-18.87,14.98-38.97-18-59.44-12.84
		C870.5,590.88,886.58,575.76,886.58,575.76z"/>
	<path class="st13" d="M897.49,510.02c13.1,39.26,22.41,116.68-47.64,116.68c-114.92,0-211.85,1.82-221.17-38.12
		c-9.31-39.95,145.97-48.04,145.97-48.04s3.48-18.22,6.52-34.3C856.41,496.19,897.49,510.02,897.49,510.02z"/>
	<path class="st9" d="M897.49,510.02c13.1,39.26,22.41,116.68-47.64,116.68c-114.92,0-211.85,1.82-221.17-38.12
		c-9.31-39.95,145.97-48.04,145.97-48.04s3.48-18.22,6.52-34.3C856.41,496.19,897.49,510.02,897.49,510.02z"/>
	<path class="st13" d="M798.04,355.18c17.13-4.78,53.98-10.12,87.46,5.85c18,8.65,20.57,31.26,18.22,51.08
		c-5.43,45.03-6.2,63.77-6.2,97.87c-9.94,25.19-113.7,22.11-116.31-3.77c-5.75-40.65-15.08-88.21-8.56-115.4
		C778.47,366.38,787.78,358.04,798.04,355.18z"/>
	<path class="st8" d="M780.57,502.02c-3.44,3.28-5.04,11.76-1.66,16.2c4.05,5.32,30.47,21.68,74.91,18.77
		c53.94-3.54,51.95-20.25,43.67-31.22c-7.27,8.44-25.33,18.22-64.65,15.02C793.53,517.59,780.57,502.02,780.57,502.02z"/>
	<path class="st15" d="M802.7,363.28c-7.26-2.91-15.51,0.61-18.42,7.88v0.2c-0.69,1.66-1.54,3.7-2.35,5.57l-2.51,5.75
		c-1.7,3.83-3.48,7.61-5.32,11.4c-3.66,7.53-7.57,14.92-11.72,22.05c-2.02,3.56-4.25,7.03-6.5,10.41c-2.25,3.38-4.56,6.64-6.98,9.76
		c-4.01,5.24-8.62,10-13.73,14.17c-3.27,0.34-6.57,0.47-9.86,0.36c-4.8-0.16-9.82-0.55-14.86-1.19c-5.04-0.65-10.12-1.38-15.33-2.25
		c-5.2-0.87-10.39-1.86-15.41-2.77h-0.26c-3.85-0.72-7.55,1.81-8.27,5.65c-0.57,3.05,0.9,6.11,3.64,7.57
		c4.96,2.63,10.06,5,15.27,7.11c5.18,2.02,10.49,4.05,15.93,5.61c5.55,1.72,11.2,3.08,16.93,4.05c6.26,1.11,12.63,1.42,18.97,0.91
		c1.65-0.15,3.25-0.69,4.66-1.58l0.59-0.36c8.5-5.5,16.1-12.29,22.51-20.12c6.12-7.16,11.68-14.78,16.62-22.8
		c4.87-7.78,9.34-15.81,13.38-24.05c2.01-4.05,3.93-8.18,5.77-12.39c0.91-2.02,1.82-4.17,2.69-6.3s1.68-4.17,2.57-6.6
		C813.33,374.12,809.79,366.14,802.7,363.28z"/>
	<path class="st13" d="M795.33,356.25c-24.3,8.77-34.92,50.96-34.92,50.96c2.96,11.22,16.6,24.92,32.74,30.71
		c0,0,19.15-19.33,25.87-31.93C833.25,379.33,809.4,351.27,795.33,356.25z"/>
	<path class="st15" d="M649.2,453.33l-0.83-11.7c-0.21-2.79,1.88-5.22,4.67-5.43c0,0,0.01,0,0.01,0l0,0l8.44-0.53
		c3.29-0.22,6.56,0.59,9.37,2.31l17.37,10.59l-2.98,12.25c-11.97,1.38-18.22-0.55-18.22-0.55l-13.52-2.41
		C651.19,457.54,649.41,455.66,649.2,453.33z"/>
	<path class="st4" d="M928.51,232.19c-30.21,0-49.2,19.13-21.2,72.4c25.87,49.22-45.27,38.85-7.47,88.33
		c-4.31-29.24,64.56-39.01,53.02-75.5c-10.51-33.2,1.11-31.36,4.33-50.61C961.06,243.63,948.77,232.21,928.51,232.19z"/>
	<path class="st4" d="M876.21,353.91c-0.02-0.09-0.02-0.18,0-0.26c0.09-0.27,0.37-0.42,0.65-0.34c12.33,3.87,19.88-1.9,24.07-7.45
		c10.97-14.52,10.67-42.52-0.67-59.66c-0.16-0.23-0.09-0.55,0.14-0.71c0.23-0.16,0.55-0.09,0.71,0.14
		c11.54,17.57,11.82,46.02,0.61,60.86c-5.66,7.99-15.98,11.18-25.17,7.79C876.39,354.21,876.27,354.07,876.21,353.91z"/>
	<path class="st13" d="M554.91,620.28h436.12c9.03,0,16.36,7.32,16.36,16.36v79.02c0,9.03-7.32,16.36-16.36,16.36H554.91
		c-9.03,0-16.36-7.32-16.36-16.36v-79.02C538.55,627.6,545.88,620.28,554.91,620.28z"/>
	<rect x="557.3" y="732.02" class="st6" width="431.34" height="5.67"/>
	<path class="st17" d="M554.91,620.28h79.55c9.03,0,16.36,7.32,16.36,16.36v79.02c0,9.03-7.32,16.36-16.36,16.36h-79.55
		c-9.03,0-16.36-7.32-16.36-16.36v-79.02C538.55,627.6,545.88,620.28,554.91,620.28z"/>
	<path class="st13" d="M1011.98,650.28c-0.01,15.39-12.49,27.87-27.88,27.88c-1.77,0-3.54-0.17-5.28-0.51
		c-24.19-4.76-48.76-7.3-73.41-7.59c-53.17,0-87.99,16.91-126.23,16.91s-63.13-12.86-123.2-12.86c-37.86,0-59.73,4.41-91.27,7.69
		c-15.31,1.54-28.97-9.62-30.51-24.93c0-0.01,0-0.02,0-0.03c-0.1-0.92-0.15-1.85-0.14-2.77v-16.64c0-12.35,8.44-22.37,18.85-22.37
		h440.23c10.41,0,18.85,10.02,18.85,22.37V650.28z"/>
	<path class="st10" d="M1011.98,650.28c-0.01,15.39-12.49,27.87-27.88,27.88c-1.77,0-3.54-0.17-5.28-0.51
		c-24.19-4.76-48.76-7.3-73.41-7.59c-53.17,0-87.99,16.91-126.23,16.91s-63.13-12.86-123.2-12.86c-37.86,0-59.73,4.41-91.27,7.69
		c-15.31,1.54-28.97-9.62-30.51-24.93c0-0.01,0-0.02,0-0.03c-0.1-0.92-0.15-1.85-0.14-2.77v-16.64c0-12.35,8.44-22.37,18.85-22.37
		h440.23c10.41,0,18.85,10.02,18.85,22.37V650.28z"/>
</g>
<g id="freepik--Cat--inject-335">
	<path class="st6" d="M403.27,739.69c-24.01-34.94,26.79-73.25,38.33-108.11s35.55-21.48,37.39,10.37s2.29,74.3-6.92,97.75
		C449.2,742.22,426.13,742.22,403.27,739.69z"/>
	<path class="st6" d="M472.41,732.73c3.46,0.5,5.86,3.71,5.37,7.17c-0.03,0.27-0.09,0.54-0.16,0.81c-4.24,0.77-8.6,0.71-12.82-0.18
		L472.41,732.73z"/>
	<path class="st6" d="M427.1,739.69c-24.92,2.92-76,16.76-64.22-14.07c11.78-30.83,8.64-43.65,1.03-53.31
		c-6.4-8.1,5.89-12.31,13.16-2.02c7.27,10.28,6.07,24.01-5.63,53.81C362.09,747.75,421.05,727.26,427.1,739.69z"/>
	
		<ellipse transform="matrix(0.9816 -0.1908 0.1908 0.9816 -108.0949 99.3831)" class="st6" cx="462.02" cy="611" rx="28.55" ry="24.66"/>
	<path class="st6" d="M468.14,588.51c1.9-10.41,11.92-21.48,11.92-21.48s9.9,27.19,4.88,34.98
		C470.22,595.6,468.14,588.51,468.14,588.51z"/>
	<path class="st6" d="M449.61,596.51c-6.07-8.56-19.96-14.29-19.96-14.29s2.69,28.81,10.57,33.69
		C450.77,603.82,449.61,596.51,449.61,596.51z"/>
	<path class="st6" d="M509.76,619.59c-0.18,0-0.34-0.09-0.43-0.24c-4.58-6.58-11.9-10.73-19.9-11.3c-0.28-0.01-0.5-0.25-0.49-0.53
		c0,0,0,0,0,0l0,0c0.01-0.28,0.25-0.5,0.53-0.49c0,0,0,0,0,0c8.34,0.59,15.96,4.92,20.73,11.78c0.13,0.24,0.06,0.55-0.16,0.71
		C509.96,619.57,509.86,619.59,509.76,619.59z"/>
	<path class="st6" d="M507.25,625c-0.21,0-0.4-0.13-0.47-0.32c-3.17-7.38-9.5-12.92-17.23-15.08c-0.26-0.06-0.43-0.32-0.37-0.58
		c0,0,0,0,0-0.01l0,0c0.06-0.26,0.32-0.43,0.58-0.37c0,0,0,0,0.01,0l0,0c8.05,2.24,14.65,8.02,17.94,15.71
		c0.08,0.26-0.05,0.54-0.3,0.65H507.25z"/>
	<path class="st6" d="M502.66,626.86c-0.22,0-0.42-0.15-0.49-0.36c-2.67-7.57-8.63-13.53-16.2-16.2c-0.26-0.1-0.41-0.38-0.32-0.65
		c0.08-0.26,0.35-0.4,0.61-0.32c0,0,0,0,0,0l0,0c7.88,2.77,14.07,8.97,16.84,16.84c0.08,0.27-0.08,0.55-0.34,0.63L502.66,626.86z"/>
	<path class="st6" d="M426.94,626.42h-0.18c-0.24-0.14-0.32-0.45-0.18-0.69c4.76-6.87,12.39-11.21,20.73-11.78
		c0.27-0.01,0.5,0.19,0.53,0.47c0.01,0.28-0.2,0.53-0.49,0.55c-8.01,0.53-15.34,4.69-19.9,11.3
		C427.32,626.4,427.12,626.47,426.94,626.42z"/>
	<path class="st6" d="M429.37,631.82h-0.16c-0.26-0.08-0.4-0.35-0.32-0.61c0,0,0,0,0,0l0,0c3.27-7.69,9.86-13.48,17.92-15.71
		c0.27-0.06,0.54,0.1,0.61,0.36c0.08,0.25-0.06,0.53-0.31,0.61c-0.02,0.01-0.04,0.01-0.05,0.01l0,0
		c-7.72,2.16-14.06,7.7-17.23,15.06C429.73,631.73,429.56,631.84,429.37,631.82z"/>
	<path class="st6" d="M433.96,633.62h-0.12c-0.26-0.09-0.42-0.36-0.36-0.63c2.77-7.88,8.97-14.08,16.84-16.86
		c0.26-0.09,0.55,0.04,0.65,0.3l0,0c0.1,0.24-0.02,0.51-0.26,0.61c0,0,0,0,0,0l0,0c-7.58,2.66-13.54,8.62-16.2,16.2
		C434.44,633.48,434.21,633.64,433.96,633.62z"/>
</g>
</svg>
