<?xml version="1.0" encoding="utf-8"?>
<!-- Generator: Adobe Illustrator 23.1.0, SVG Export Plug-In . SVG Version: 6.00 Build 0)  -->
<svg version="1.1" id="Layer_1" xmlns="http://www.w3.org/2000/svg" xmlns:xlink="http://www.w3.org/1999/xlink" x="0px" y="0px"
	 viewBox="0 0 1366 768" style="enable-background:new 0 0 1366 768;" xml:space="preserve">
<style type="text/css">
	.st0{fill:#92E3A9;}
	.st1{opacity:0.7;fill:#FFFFFF;enable-background:new    ;}
	.st2{opacity:0.5;fill:#FFFFFF;enable-background:new    ;}
	.st3{fill:none;stroke:#263238;stroke-linecap:round;stroke-linejoin:round;}
	.st4{fill:#263238;}
	.st5{fill:#263238;stroke:#263238;stroke-linecap:round;stroke-linejoin:round;}
	.st6{fill:none;stroke:#FFFFFF;stroke-linecap:round;stroke-linejoin:round;}
	.st7{fill:#FFFFFF;stroke:#263238;stroke-linecap:round;stroke-linejoin:round;}
	.st8{fill:#FFFFFF;}
	.st9{fill:#92E3A9;stroke:#263238;stroke-linecap:round;stroke-linejoin:round;}
	.st10{opacity:0.1;enable-background:new    ;}
	.st11{opacity:0.3;enable-background:new    ;}
	.st12{opacity:0.31;fill:none;stroke:#FFFFFF;stroke-linecap:round;stroke-linejoin:round;enable-background:new    ;}
</style>
<g id="freepik--background-simple--inject-2">
	<path class="st0" d="M974.76,52.51C917.23,19.12,846.07,2.08,778.67,11.64c-40.1,5.68-77.43,24.14-108.95,49.13
		c-74.85,59.33-125.58,140.47-214.26,183.03c-51.54,24.73-105.48,37.57-138.56,87.83c-65.96,100.04-27.12,239.35,58.82,314.79
		c92.29,80.93,225.4,105.66,344.41,88.5c195.22-28.15,341.71-206.9,362.38-398.77c7.85-73.02,6.09-156.78-36.51-219.74
		C1028.9,91.07,1004.01,69.51,974.76,52.51z"/>
	<path class="st1" d="M974.76,52.51C917.23,19.12,846.07,2.08,778.67,11.64c-40.1,5.68-77.43,24.14-108.95,49.13
		c-74.85,59.33-125.58,140.47-214.26,183.03c-51.54,24.73-105.48,37.57-138.56,87.83c-65.96,100.04-27.12,239.35,58.82,314.79
		c92.29,80.93,225.4,105.66,344.41,88.5c195.22-28.15,341.71-206.9,362.38-398.77c7.85-73.02,6.09-156.78-36.51-219.74
		C1028.9,91.07,1004.01,69.51,974.76,52.51z"/>
</g>
<g id="freepik--Shadow--inject-2">
	<ellipse class="st0" cx="699.3" cy="698.65" rx="364.06" ry="62.35"/>
	<ellipse class="st2" cx="699.3" cy="698.65" rx="364.06" ry="62.35"/>
</g>
<g id="freepik--Floor--inject-2">
	<line class="st3" x1="303.33" y1="638.14" x2="1096.61" y2="638.14"/>
	<line class="st3" x1="331.26" y1="528.79" x2="599.82" y2="528.79"/>
	<rect x="361.1" y="536.27" class="st3" width="229.92" height="44.04"/>
	<rect x="361.1" y="587.79" class="st3" width="229.92" height="44.04"/>
	<path class="st3" d="M481.12,558.3c-0.01,2.79-2.28,5.04-5.07,5.03c-2.79-0.01-5.04-2.28-5.03-5.07c0.01-2.78,2.27-5.03,5.05-5.03
		c2.79,0,5.05,2.26,5.05,5.05C481.12,558.29,481.12,558.29,481.12,558.3z"/>
	<path class="st3" d="M481.12,609.8c0,2.79-2.26,5.05-5.05,5.05c-2.79,0-5.05-2.26-5.05-5.05c0-2.79,2.26-5.05,5.05-5.05l0,0
		C478.86,604.75,481.12,607.01,481.12,609.8z"/>
	<rect x="329.33" y="527.73" class="st4" width="25.88" height="110.59"/>
	<line class="st3" x1="599.82" y1="638.34" x2="599.82" y2="528.79"/>
	<line class="st3" x1="330.41" y1="638.34" x2="599.82" y2="638.34"/>
	<g id="freepik--Plant--inject-226--inject-2">
		<path class="st0" d="M999.81,304.36c0,0,0-8.66-12.17-20.81c-12.17-12.15-19.88-19.07-19.88-19.07s-6.09,19.88,5.19,32.03
			c8.28,8.55,17.27,16.38,26.88,23.41L999.81,304.36z"/>
		<path class="st0" d="M982.2,358.48c0,0,0-8.66-12.17-20.79s-19.88-19.07-19.88-19.07s-6.09,19.88,5.19,32.03
			c8.28,8.56,17.28,16.41,26.9,23.45L982.2,358.48z"/>
		<path class="st0" d="M999.06,319.11c0,0,0.89-8.62,14.2-19.39c13.31-10.77,21.89-16.9,21.89-16.9s3.94,20.47-8.56,31.34
			c-9.15,7.62-18.91,14.48-29.19,20.49L999.06,319.11z"/>
		<path class="st0" d="M977.78,383.04c0,0,1.81-8.48,16.23-17.81c14.42-9.33,23.49-14.46,23.49-14.46s1.76,20.77-11.81,30.26
			c-9.92,6.62-20.37,12.4-31.26,17.26L977.78,383.04z"/>
		<path class="st0" d="M981.78,452.74c0,0,0-8.66,12.17-20.81c12.17-12.15,19.94-19.07,19.94-19.07s6.09,19.88-5.21,32.03
			c-8.28,8.56-17.28,16.41-26.88,23.47L981.78,452.74z"/>
		<path class="st0" d="M981.57,469.74c0,0,1.24-8.58-9.07-22.31s-17.02-21.7-17.02-21.7s-8.82,18.86,0.59,32.45
			c7,9.63,14.79,18.66,23.29,27L981.57,469.74z"/>
		<path class="st0" d="M969.61,520.14c0,0,0-8.68,12.17-20.81s19.88-19.07,19.88-19.07s6.09,19.9-5.19,32.05
			c-8.27,8.54-17.25,16.37-26.84,23.41L969.61,520.14z"/>
		<path class="st0" d="M977.7,565.87c0,0-2.19-8.38,6.49-23.18c8.68-14.81,14.44-23.51,14.44-23.51s10.91,17.75,3.08,32.33
			c-5.84,10.38-12.55,20.25-20.06,29.49L977.7,565.87z"/>
		<path class="st3" d="M1000.9,302.13c-0.6,9.03-1.71,18.01-3.31,26.92c-4.81,24.77-16.8,40.77-21.58,63.15
			c-4.79,22.37,8.97,51.22,5.27,79.98s-14.89,44.79-11.68,63.92c3.2,19.13,19.98,71.14,19.98,71.14"/>
		<path class="st0" d="M920.36,420.14c0,0-0.93-5.44,5.36-14.36s10.43-14.2,10.43-14.2s5.96,11.83,0.2,20.67
			c-4.29,6.25-9.08,12.13-14.34,17.59L920.36,420.14z"/>
		<path class="st0" d="M937.27,452.17c0,0-0.95-5.44,5.36-14.36s10.43-14.2,10.43-14.2s5.96,11.85,0.22,20.67
			c-4.29,6.25-9.09,12.14-14.36,17.59L937.27,452.17z"/>
		<path class="st0" d="M922.42,429.31c0,0-1.5-5.29-11.03-10.61c-9.53-5.31-15.48-8.11-15.48-8.11s-0.24,13.25,8.78,18.7
			c6.55,3.79,13.41,7.02,20.51,9.66L922.42,429.31z"/>
		<path class="st0" d="M942.71,467.1c0,0-2.03-5.13-12.17-9.41s-16.23-6.53-16.23-6.53s1.1,13.27,10.67,17.69
			c6.93,3.07,14.1,5.55,21.44,7.42L942.71,467.1z"/>
		<path class="st0" d="M947.78,511.22c0,0-0.95-5.44-9.88-11.72c-8.93-6.29-14.56-9.8-14.56-9.8s-1.64,13.16,6.73,19.55
			c6.13,4.44,12.62,8.38,19.39,11.76L947.78,511.22z"/>
		<path class="st0" d="M949.75,521.87c0,0-1.68-5.23,3.25-14.97s8.32-15.48,8.32-15.48s7.59,10.87,3.16,20.43
			c-3.33,6.81-7.23,13.32-11.66,19.47L949.75,521.87z"/>
		<path class="st0" d="M964.98,565.7c0,0,0.63-5.52,9.17-12.17s14-10.63,14-10.63s2.39,13.04-5.62,19.9
			c-5.86,4.79-12.11,9.08-18.68,12.84L964.98,565.7z"/>
		<path class="st0" d="M962.71,552.19c0,0-0.93-5.44-9.86-11.72c-8.93-6.29-14.56-9.8-14.56-9.8s-1.64,13.14,6.73,19.53
			c6.12,4.46,12.61,8.39,19.39,11.76L962.71,552.19z"/>
		<path class="st0" d="M962.61,581.73c0,0,0.47-5.52-6.63-13.85c-7.1-8.34-11.56-13.14-11.56-13.14s-4.91,12.29,1.56,20.61
			c4.81,5.84,10.09,11.27,15.8,16.23L962.61,581.73z"/>
		<path class="st3" d="M919.42,418.86c1.36,5.61,3.04,11.14,5.01,16.57c5.7,15.01,14.95,23.75,20.28,37.26
			c5.33,13.51,0,33.12,5.36,50.71c5.36,17.59,14.2,26.37,14.2,38.82s-4.83,46.78-4.83,46.78"/>
		<path class="st5" d="M934.8,602.96h79.43v29.25c0,2.14-1.73,3.87-3.87,3.87l0,0h-71.62c-2.14,0-3.87-1.73-3.87-3.87l0,0v-29.25
			H934.8z"/>
		<path class="st5" d="M1013.54,613.31h-78.68c-3.43,0-6.22-2.78-6.23-6.21l0,0c0.02-3.42,2.8-6.19,6.23-6.19h78.68
			c3.43,0,6.21,2.78,6.21,6.21l0,0C1019.74,610.54,1016.96,613.31,1013.54,613.31z"/>
		<line class="st6" x1="937.98" y1="613.57" x2="995.1" y2="613.57"/>
		<line class="st6" x1="1000.48" y1="613.57" x2="1009.89" y2="613.57"/>
		<path class="st4" d="M999.81,304.36c0,0,0-8.66-12.17-20.81c-12.17-12.15-19.88-19.07-19.88-19.07s-6.09,19.88,5.19,32.03
			c8.28,8.55,17.27,16.38,26.88,23.41L999.81,304.36z"/>
		<path class="st4" d="M982.2,358.48c0,0,0-8.66-12.17-20.79s-19.88-19.07-19.88-19.07s-6.09,19.88,5.19,32.03
			c8.28,8.56,17.28,16.41,26.9,23.45L982.2,358.48z"/>
		<path class="st4" d="M999.06,319.11c0,0,0.89-8.62,14.2-19.39c13.31-10.77,21.89-16.9,21.89-16.9s3.94,20.47-8.56,31.34
			c-9.15,7.62-18.91,14.48-29.19,20.49L999.06,319.11z"/>
		<path class="st4" d="M977.78,383.04c0,0,1.81-8.48,16.23-17.81c14.42-9.33,23.49-14.46,23.49-14.46s1.76,20.77-11.81,30.26
			c-9.92,6.62-20.37,12.4-31.26,17.26L977.78,383.04z"/>
		<path class="st4" d="M981.78,452.74c0,0,0-8.66,12.17-20.81c12.17-12.15,19.94-19.07,19.94-19.07s6.09,19.88-5.21,32.03
			c-8.28,8.56-17.28,16.41-26.88,23.47L981.78,452.74z"/>
		<path class="st4" d="M969.61,520.14c0,0,0-8.68,12.17-20.81s19.88-19.07,19.88-19.07s6.09,19.9-5.19,32.05
			c-8.27,8.54-17.25,16.37-26.84,23.41L969.61,520.14z"/>
		<path class="st4" d="M920.36,420.14c0,0-0.93-5.44,5.36-14.36s10.43-14.2,10.43-14.2s5.96,11.83,0.2,20.67
			c-4.29,6.25-9.08,12.13-14.34,17.59L920.36,420.14z"/>
		<path class="st4" d="M972.51,447.42c-10.28-13.73-17.02-21.7-17.02-21.7s-0.37,0.81-0.85,2.15c-0.41-1.43-0.94-2.83-1.58-4.18
			c0,0-4.06,5.19-10.43,14.2c-6.37,9.01-5.36,14.36-5.36,14.36l1.64,9.78c4.72-4.9,9.07-10.15,13-15.7
			c0.33,4.28,1.76,8.39,4.16,11.95c7,9.63,14.79,18.66,23.29,27l2.21-15.46C981.57,469.82,982.81,461.16,972.51,447.42z"/>
		<path class="st4" d="M922.42,429.31c0,0-1.5-5.29-11.03-10.61c-9.53-5.31-15.48-8.11-15.48-8.11s-0.24,13.25,8.78,18.7
			c6.55,3.79,13.41,7.02,20.51,9.66L922.42,429.31z"/>
		<path class="st4" d="M942.71,467.1c0,0-2.03-5.13-12.17-9.41s-16.23-6.53-16.23-6.53s1.1,13.27,10.67,17.69
			c6.93,3.07,14.1,5.55,21.44,7.42L942.71,467.1z"/>
		<path class="st4" d="M947.78,511.22c0,0-0.95-5.44-9.88-11.72c-8.93-6.29-14.56-9.8-14.56-9.8s-1.64,13.16,6.73,19.55
			c6.13,4.44,12.62,8.38,19.39,11.76L947.78,511.22z"/>
		<path class="st4" d="M949.75,521.87c0,0-1.68-5.23,3.25-14.97s8.32-15.48,8.32-15.48s7.59,10.87,3.16,20.43
			c-3.33,6.81-7.23,13.32-11.66,19.47L949.75,521.87z"/>
		<path class="st4" d="M998.63,519.17c0,0-5.76,8.68-14.44,23.51c-1.05,1.79-2.03,3.49-2.7,5.09c-2.07,1.56-4.52,3.45-7.34,5.68
			c-8.54,6.73-9.17,12.17-9.17,12.17l-1.14,9.86c4.85-2.77,9.52-5.84,14-9.19l3.81,14.58c7.5-9.23,14.22-19.09,20.06-29.45
			C1009.55,536.92,998.63,519.17,998.63,519.17z"/>
		<path class="st4" d="M962.71,552.19c0,0-0.93-5.44-9.86-11.72c-8.93-6.29-14.56-9.8-14.56-9.8s-1.64,13.14,6.73,19.53
			c6.12,4.46,12.61,8.39,19.39,11.76L962.71,552.19z"/>
		<path class="st4" d="M962.61,581.73c0,0,0.47-5.52-6.63-13.85c-7.1-8.34-11.56-13.14-11.56-13.14s-4.91,12.29,1.56,20.61
			c4.81,5.84,10.09,11.27,15.8,16.23L962.61,581.73z"/>
	</g>
</g>
<g id="freepik--Chat--inject-2">
	<path class="st7" d="M644.53,376.33l-26.78-10.87v74.38c0,10.64-8.63,19.27-19.27,19.27c-0.01,0-0.01,0-0.02,0h-238.1
		c-10.64,0-19.27-8.63-19.27-19.27V142.86c-0.01-10.64,8.61-19.28,19.25-19.29c0.01,0,0.01,0,0.02,0h238.1
		c10.65,0,19.29,8.64,19.29,19.29V333.2L644.53,376.33z"/>
	<polygon class="st4" points="365.46,205.17 375.48,191.15 375.48,147.36 535.46,147.36 535.46,227.83 375.48,227.83 375.48,205.92 
			"/>
	<circle class="st8" cx="456.78" cy="187.6" r="26.82"/>
	<polygon class="st9" points="451.87,202.69 451.87,172.21 471.16,187.44 	"/>
	<polygon class="st9" points="597.9,413.25 587.85,404.54 587.85,377.36 427.89,377.36 427.89,427.32 587.85,427.32 587.85,413.73 	
		"/>
	<path class="st4" d="M486.8,392.7v18.26h-3.39v-7.85h-9.49v7.85h-3.39V392.7h3.39v7.57h9.49v-7.57H486.8z"/>
	<path class="st4" d="M503.13,402.84v8.11h-3.1v-1.7c-1.04,1.34-2.69,2.05-4.38,1.89c-3.2,0-5.21-1.76-5.21-4.2s1.56-4.16,5.8-4.16
		h3.55v-0.2c0-1.91-1.14-3.04-3.47-3.04c-1.53-0.02-3.02,0.47-4.24,1.38l-1.28-2.37c1.73-1.2,3.8-1.8,5.9-1.72
		C500.79,396.9,503.13,398.8,503.13,402.84z M499.78,406.65v-1.62h-3.37c-2.23,0-2.82,0.85-2.82,1.87s0.99,1.93,2.66,1.93
		C497.77,408.93,499.19,408.06,499.78,406.65z"/>
	<path class="st4" d="M521.08,403.02v8.01h-3.27v-7.61c0-2.47-1.22-3.67-3.33-3.67c-2.03-0.13-3.79,1.41-3.92,3.45
		c-0.02,0.25-0.01,0.5,0.03,0.75v7.08h-3.27V391.6h3.27v7.08c1.24-1.22,2.93-1.87,4.67-1.79c3.01-0.23,5.62,2.03,5.85,5.03
		C521.13,402.29,521.12,402.66,521.08,403.02z"/>
	<path class="st4" d="M536.96,402.84v8.11h-3.08v-1.7c-1.05,1.34-2.71,2.05-4.4,1.89c-3.2,0-5.21-1.76-5.21-4.2s1.58-4.16,5.82-4.16
		h3.61v-0.2c0-1.91-1.16-3.04-3.49-3.04c-1.53-0.01-3.01,0.47-4.24,1.38l-1.28-2.37c1.73-1.2,3.8-1.8,5.9-1.72
		C534.63,396.9,536.96,398.8,536.96,402.84z M533.7,406.65v-1.62h-3.39c-2.21,0-2.82,0.85-2.82,1.87s0.99,1.93,2.66,1.93
		C531.67,408.94,533.1,408.06,533.7,406.65L533.7,406.65z"/>
	<path class="st4" d="M554.93,403.02v8.01h-3.29v-7.61c0-2.47-1.22-3.67-3.33-3.67c-2.05-0.12-3.8,1.44-3.92,3.49
		c-0.01,0.24,0,0.47,0.03,0.71v7.08h-3.27V391.6h3.25v7.08c1.24-1.22,2.93-1.87,4.67-1.79c3-0.25,5.64,1.99,5.89,4.99
		C554.99,402.26,554.98,402.65,554.93,403.02z"/>
	<polygon class="st9" points="597.9,347.87 587.85,339.17 587.85,311.99 427.89,311.99 427.89,361.93 587.85,361.93 587.85,348.34 	
		"/>
	<circle class="st7" cx="512.88" cy="336.96" r="17.71"/>
	<circle class="st7" cx="464.06" cy="336.96" r="17.71"/>
	<circle class="st7" cx="559.6" cy="336.96" r="17.71"/>
	<polyline class="st3" points="454.38,327.1 459.23,333.12 452.44,333.12 	"/>
	<polyline class="st3" points="472.13,327.1 467.26,333.12 474.08,333.12 	"/>
	<path class="st9" d="M451.26,337.99h24.69c0,0-2.78,12.43-11.89,12.43C453.71,350.43,451.26,337.99,451.26,337.99z"/>
	<polyline class="st3" points="503.65,327.1 508.52,333.12 501.71,333.12 	"/>
	<polyline class="st3" points="521.42,327.1 516.56,333.12 523.37,333.12 	"/>
	<path class="st9" d="M500.55,337.99h24.69c0,0-2.8,12.43-11.89,12.43C502.99,350.43,500.55,337.99,500.55,337.99z"/>
	<polyline class="st3" points="550.37,327.1 555.24,333.12 548.42,333.12 	"/>
	<polyline class="st3" points="568.12,327.1 563.27,333.12 570.07,333.12 	"/>
	<path class="st9" d="M547.27,337.99h24.69c0,0-2.8,12.43-11.91,12.43C549.7,350.43,547.27,337.99,547.27,337.99z"/>
	<polygon class="st9" points="365.46,281.32 375.48,272.61 375.48,245.43 535.46,245.43 535.46,295.39 375.48,295.39 375.48,281.8 	
		"/>
	<path class="st4" d="M447.79,260.63h3.41v15.44h9.57v2.88h-12.98V260.63z"/>
	<path class="st4" d="M461.89,271.95c-0.15-4.11,3.07-7.56,7.18-7.7c4.11-0.15,7.56,3.07,7.7,7.18c0.15,4.11-3.07,7.56-7.18,7.7
		c-0.09,0-0.19,0-0.28,0c-3.88,0.21-7.2-2.76-7.42-6.64C461.89,272.31,461.89,272.13,461.89,271.95z M473.47,271.95
		c-0.18-2.23-2.14-3.9-4.37-3.72c-2.23,0.18-3.9,2.14-3.72,4.37c0.17,2.08,1.88,3.69,3.97,3.73c2.24,0.01,4.06-1.8,4.07-4.04
		c0-0.11,0-0.23-0.01-0.34H473.47z"/>
	<path class="st4" d="M478.77,271.95c-0.16-4.12,3.06-7.59,7.18-7.74c4.12-0.16,7.59,3.06,7.74,7.18s-3.06,7.59-7.18,7.74
		c-0.1,0-0.2,0.01-0.3,0.01c-3.88,0.22-7.21-2.74-7.43-6.62C478.77,272.32,478.76,272.13,478.77,271.95z M490.37,271.95
		c-0.18-2.23-2.14-3.9-4.37-3.72c-2.23,0.18-3.9,2.14-3.72,4.37c0.17,2.06,1.86,3.67,3.93,3.73c2.24,0.06,4.11-1.7,4.17-3.94
		C490.38,272.24,490.38,272.09,490.37,271.95z"/>
	<path class="st4" d="M502.52,272.94l-2.43,2.31v3.69h-3.27v-19.43h3.27v11.74l6.8-6.29h3.91l-5.84,5.86l6.39,8.11h-4.06
		L502.52,272.94z"/>
	<path class="st4" d="M512.88,277.08c0-1.12,0.91-2.03,2.03-2.03c1.12,0,2.03,0.91,2.03,2.03c0,1.12-0.91,2.03-2.03,2.03
		C513.79,279.11,512.88,278.2,512.88,277.08z M513.07,260.63h3.87l-0.67,12.17h-2.58L513.07,260.63z"/>
	<circle class="st7" cx="414.95" cy="271.17" r="17.71"/>
	<polyline class="st3" points="406.21,261.48 410.81,267.18 404.38,267.18 	"/>
	<polyline class="st3" points="423.02,261.48 418.42,267.18 424.87,267.18 	"/>
	<path class="st9" d="M403.27,271.78h23.37c0,0-2.64,11.79-11.26,11.79C405.58,283.57,403.27,271.78,403.27,271.78z"/>
</g>
<g id="freepik--Window--inject-2">
	<line class="st3" x1="671.3" y1="30.85" x2="671.3" y2="343.1"/>
	<line class="st3" x1="636.44" y1="181.66" x2="996.32" y2="181.66"/>
	<line class="st3" x1="923.17" y1="30.85" x2="923.17" y2="277.71"/>
	<line class="st3" x1="824.86" y1="77.89" x2="853.46" y2="49.28"/>
	<line class="st3" x1="833.03" y1="123.24" x2="861.63" y2="94.64"/>
	<line class="st3" x1="816.38" y1="100.52" x2="882.12" y2="34.78"/>
	<line class="st3" x1="971.94" y1="241.3" x2="1000.54" y2="212.7"/>
	<line class="st3" x1="963.46" y1="263.93" x2="1029.2" y2="198.19"/>
</g>
<g id="freepik--Expressions--inject-2">
	
		<ellipse transform="matrix(0.1602 -0.9871 0.9871 0.1602 316.7629 884.5981)" class="st7" cx="678.24" cy="256.14" rx="33.71" ry="33.71"/>
	<polygon class="st0" points="691.33,276.14 678.28,269.33 665.26,276.21 667.71,261.7 657.15,251.46 671.71,249.29 678.18,236.08 
		684.73,249.27 699.3,251.34 688.79,261.64 	"/>
	<circle class="st7" cx="897.94" cy="198.52" r="33.71"/>
	<polyline class="st3" points="880.31,179.9 889.58,191.4 876.58,191.4 	"/>
	<polyline class="st3" points="914.23,179.9 904.96,191.4 917.94,191.4 	"/>
	<path class="st9" d="M874.37,200.69h47.16c0,0-5.33,23.77-22.72,23.77C879.1,224.46,874.37,200.69,874.37,200.69z"/>
	<circle class="st7" cx="758.95" cy="123.53" r="33.71"/>
	<path class="st4" d="M751.45,113.48c0,2.54-0.67,4.56-1.5,4.56s-1.52-2.03-1.52-4.56s0.67-4.54,1.52-4.54
		C750.8,108.94,751.45,110.97,751.45,113.48z"/>
	<path class="st4" d="M771.59,113.48c0,2.54-0.69,4.56-1.52,4.56s-1.52-2.03-1.52-4.56s0.67-4.54,1.52-4.54
		S771.59,110.97,771.59,113.48z"/>
	<path class="st7" d="M737.65,123.53c0,0,5.01,16.98,21.3,17.51c16.29,0.53,20.14-17.51,20.14-17.51"/>
</g>
<g id="freepik--Character--inject-2">
	<path class="st8" d="M555.3,531.87c0,0-45.15,11.52-84.06,64.91c0,0-20.65-4.81-24.02,1.91c-3.37,6.71,18.26,8.66,18.26,8.66
		s26.37,54.77,73.02,60.04c0,0,2.9,18.26,7.22,18.72c4.32,0.47,9.59-17.77,9.59-17.77s56.31-11.3,75.05-43.35
		C630.29,624.93,600.45,535.22,555.3,531.87z"/>
	<path class="st3" d="M498.93,600.19c0,0,22.94-2.15,60.1,25.76"/>
	<path class="st3" d="M509.11,587.08c0,0,17.93,1.28,26.84,15.21"/>
	<path class="st3" d="M555.3,531.87c0,0-45.15,11.52-84.06,64.91c0,0-20.65-4.81-24.02,1.91c-3.37,6.71,18.26,8.66,18.26,8.66
		s26.37,54.77,73.02,60.04c0,0,2.9,18.26,7.22,18.72c4.32,0.47,9.59-17.77,9.59-17.77s56.31-11.3,75.05-43.35
		C630.29,624.93,600.45,535.22,555.3,531.87z"/>
	<path class="st0" d="M771.93,726.7c22.11-1.58,43.55-6.61,62.7-17.02c45.38-24.65,69.92-74.79,77.73-124.22
		c7.67-48.68,13.65-105.05,26.98-143.21c17.1-48.97,7.55-99.78-42.07-127.14c-33.73-18.6-74.79-21.95-112.17-12.62
		c-36.67,9.17-80.79,32.45-103.15,63.63c-26.37,36.98-42.6,78.4-74.38,112.27c-34.3,36.51-75.88,68.74-69.92,124.67
		c6.96,65.46,74.69,100.2,132.17,113.06C701.59,723.23,737.59,729.07,771.93,726.7z"/>
	<path class="st3" d="M771.41,727.96c22.13-1.58,43.55-6.61,62.7-17.02c45.38-24.65,69.92-74.79,77.73-124.22
		c7.67-48.68,13.65-105.05,26.98-143.23c17.1-48.95,7.55-99.76-42.07-127.12c-33.73-18.6-74.79-21.95-112.17-12.62
		c-36.67,9.17-80.79,32.45-103.15,63.63c-26.37,36.98-42.6,78.4-74.38,112.27c-34.3,36.51-75.88,68.74-69.92,124.67
		c6.96,65.46,74.69,100.2,132.17,113.06C701.06,724.49,737.11,730.39,771.41,727.96z"/>
	<path class="st3" d="M873.54,411.4c7.41-7.34,15.57-13.89,24.34-19.53"/>
	<path class="st3" d="M839.54,391.87c0,0,4.71-25.07,20.75-38.54"/>
	<path class="st10" d="M822.3,361.34c14.04-15.64,38.01-38.54,54.77-28.52c7.02,16.61-13.37,33.85-10.55,51.66
		c0.93,5.84,4.28,10.97,7.24,16.09c20.43,35.65,24.98,78.23,12.54,117.39c-3.83,11.85-9.23,23.27-11.1,35.56
		c-2.47,16.33,0,31.93-7.89,47.04c-7.65,14.62-20.08,26.37-32.98,36.33c-43.57,33.92-94.2,51.1-148.58,56.35
		c-19.06,1.82-38.3-0.36-56.47-6.41c-4.54-1.52-9.25-3.43-12.17-7.16c-5.56-6.9-3.14-17.73,2.92-24.18
		c6.07-6.45,14.75-9.61,23.1-12.56c20.41-7.16,41.24-14.52,59.98-25.42c18.74-10.89,35.92-25.96,45.86-45.38
		c10.71-20.93,12.39-45.17,13.33-68.66c1.46-36.25,1.62-72.92-6.39-108.28c-2.88-12.8-2.52-36.51,10.14-45.5
		C779.56,339.96,810.01,354.38,822.3,361.34z"/>
	<path class="st8" d="M871.21,481.6c0,0,2.64-19.88,7.57-19.11c4.93,0.77,9.13,19.11,9.13,19.11s48.68,53.96,35.86,105.38
		c0,0,10.51,13.59,9.15,15.36c-3.65,4.75-17.08,0-17.08,0s-51.56,40.93-97.16,45.19c0,0-6.98,14.2-11.44,13.43
		c-4.46-0.77,0-23.18,0-23.18s-31.89-47.59-22.82-94.71c0,0-11.89-7.79-8.46-12.68s16.02-2.31,16.02-2.31
		S821.69,490.71,871.21,481.6z"/>
	<path class="st3" d="M826.68,547.33c0,0,25.29-4.87,54.44,32.07"/>
	<path class="st3" d="M861.19,544.49c11.32,1.62,26.84,7.46,42.23,24.77"/>
	<path class="st3" d="M871.21,481.6c0,0,2.64-19.88,7.57-19.11c4.93,0.77,9.13,19.11,9.13,19.11s48.68,53.96,35.86,105.38
		c0,0,10.51,13.59,9.15,15.36c-3.65,4.75-17.08,0-17.08,0s-51.56,40.93-97.16,45.19c0,0-6.98,14.2-11.44,13.43
		c-4.46-0.77,0-23.18,0-23.18s-31.89-47.59-22.82-94.71c0,0-11.89-7.79-8.46-12.68s16.02-2.31,16.02-2.31
		S821.69,490.71,871.21,481.6z"/>
	<path class="st0" d="M801.65,572.7c15-33.68,27.61-68.37,37.75-103.82c17.08-59.51,19.9-77.55,19.9-77.55s-33.65-23.33-57.51-30.87
		c-23.85-7.55-89.35-3.79-100.77-2.23c-11.42,1.56-6.69,10.93-6.69,10.93l13.65,49.7l3.53,9.98l0.45,106.57
		C711.95,535.42,731.2,581.3,801.65,572.7z"/>
	<path class="st11" d="M801.65,572.7c15-33.68,27.61-68.37,37.75-103.82c17.08-59.51,19.17-78.66,19.17-78.66
		s-32.92-22.31-56.8-29.76c-23.87-7.44-89.35-3.79-100.77-2.23c-11.42,1.56-6.69,10.93-6.69,10.93l13.65,49.7l3.53,9.98l0.45,106.57
		C711.93,535.42,731.2,581.3,801.65,572.7z"/>
	<path class="st8" d="M450.9,714.33c-11.84,4.7-24.14,8.17-36.69,10.34c-11.49,2.46-23.44,1.62-34.48-2.41
		c-9.47-4.11-17.74-10.54-24.06-18.7c-6.09-7.44-11.56-14.62-14.02-24.12c-0.61-1.73-0.66-3.61-0.14-5.38
		c3.89-10.14,30.93,10.41,36.02,13.18c19.12,10.34,41.28,13.58,62.56,9.15C441.54,702.52,447.93,708.79,450.9,714.33z"/>
	<path class="st3" d="M450.9,714.33c-11.84,4.7-24.14,8.17-36.69,10.34c-11.49,2.46-23.44,1.62-34.48-2.41
		c-9.47-4.11-17.74-10.54-24.06-18.7c-6.09-7.44-11.56-14.62-14.02-24.12c-0.61-1.73-0.66-3.61-0.14-5.38
		c3.89-10.14,30.93,10.41,36.02,13.18c19.12,10.34,41.28,13.58,62.56,9.15C441.54,702.52,447.93,708.79,450.9,714.33z"/>
	<path class="st8" d="M758.26,357.2c0,0,4.06,15.29,20.69,13.71c16.23,2.03,23.29-8.32,23.29-8.32s-2.03-11.62-0.1-19.49
		c1.92-6.91,4.29-13.68,7.1-20.28c0,0,7.93,0.3,12.41-2.56c4.48-2.86,9.94-14.6,9.27-29.01c-0.67-14.4-16.73-35.11-16.73-35.11
		l-21.08-5.23l-28.84,0.89l-5.62,4.65l-9.9,16.98c-0.69,1.73-1.12,3.56-1.28,5.42c0.26,2.84,0.1,5.7-0.47,8.5
		c-0.85,2.33-4.24,7.85-5.05,13.33c-0.81,5.48,3.27,27.4,3.27,27.4s1.64,9.78,7.4,10.63c2.59,1.35,5.4,2.2,8.3,2.52
		c1.39,1.37,1.9,3.39,1.32,5.25C761.26,350.16,759.92,353.76,758.26,357.2z"/>
	<path class="st4" d="M711.39,424.54c0,0-3.29-50.81-15.82-64.08l-21.6,39.31l19.37,29.9L711.39,424.54z"/>
	<path class="st4" d="M779.83,291.76c0,0,10.26-8.46,16.94,2.31C796.76,294.08,787.82,289.71,779.83,291.76z"/>
	<path class="st3" d="M787.19,271.28c0.87,6.14,5.29,11.19,11.26,12.88"/>
	<path class="st3" d="M770.47,284.85c-1.06,2.09-2.5,3.95-4.26,5.5c-1.17,1.1-2.55,1.94-4.06,2.47c-2.03,0.67-4.46,0.49-6.49,1.36
		c-0.21,0.07-0.39,0.2-0.53,0.37c-0.15,0.23-0.23,0.5-0.22,0.77c-0.19,3.17,1.24,6.23,3.79,8.11"/>
	<path class="st4" d="M762.18,287.3c0,0,2.62-12.17-9.47-9.07C757.02,279.75,760.47,283.06,762.18,287.3z"/>
	<path class="st3" d="M756.13,271.28c0,0,9.17-0.12,12.58-4.06"/>
	<path class="st4" d="M752.71,309.55c0,0,7,5.72,14.08,3.45c5.3-1.86,10.42-4.17,15.31-6.92c0,0-9.92,17.83-17.73,16.78
		C756.56,321.8,752.71,309.55,752.71,309.55z"/>
	<path class="st3" d="M801.65,261.88l-31.08-9.09l-11.72,3.65l-10.14,16.98c-0.83,1.68-1.27,3.54-1.28,5.42v5.42
		c-0.02,1.88-0.45,3.73-1.28,5.42l-2.9,5.88c-0.93,1.89-1.37,3.98-1.28,6.09c0.34,9.2,1.53,18.34,3.55,27.32
		c1.2,4.5,7.46,11.48,12.05,12.17c7.4,1.3,21.3-2.03,21.3-2.03c3.21,0,6.27-1.36,8.44-3.73l9.45-10.37"/>
	<path class="st3" d="M807.76,308.11c0,0,13.49-13.08,20.02-8.58s-1.64,20.43-10.02,22.86c-4.66,1.49-9.72-0.57-12.03-4.89"/>
	<path class="st4" d="M811.47,304.32c-1.53,0.2-3.09,0.11-4.58-0.28c-1.53-0.38-2.7-1.62-3-3.16c-0.01-1.4,0.42-2.77,1.24-3.91
		c2.09-3.87,3.52-8.07,4.22-12.41c0.14-0.38,0.14-0.8,0-1.18c-0.27-0.33-0.64-0.56-1.05-0.67c-1.96-0.93-3.4-2.67-3.96-4.77
		c-0.53-2.07-0.75-4.21-0.67-6.35c0-2.9,0-5.78,2.03-7.65l-37.47-11.36l-9.57,3.87c0,0-11.87,0-14.73-11.85
		c-2.86-11.85,8.58-11.72,8.58-11.72s-1.48-12.7,9.72-16.82c11.2-4.12,13.73,14.2,30.43,18.07c16.69,3.87,47.04,2.03,54.24,26.69
		c8.11,27.81,0.81,50.81-20.28,53.75c0,0,6.92-11.1,0.97-15.01C821.63,295.66,811.47,304.32,811.47,304.32z"/>
	<path class="st4" d="M782.5,233.51c0,0-8.82-6.57-7.51-12.8s8.88-7.2,13.53-2.03s6.94,14.52,19.76,18.58
		c12.82,4.06-19.31,5.07-19.31,5.07L782.5,233.51z"/>
	<path class="st12" d="M835.77,283.39c-1.1,4.39-2.73,8.62-4.85,12.62"/>
	<path class="st12" d="M775.1,225.88c0.82,5.02,3.64,9.5,7.81,12.41c4.15,2.84,8.73,5,13.57,6.39c5.36,1.79,10.81,3.33,16.23,4.62
		c4.74,0.78,9.32,2.35,13.55,4.65c6.98,4.4,10.51,13,10.45,21.26c0,0.83,0,1.66-0.1,2.49"/>
	<path class="st12" d="M758.2,225.39c-1.91,8.86,1.41,18.03,8.56,23.61"/>
	<path class="st3" d="M691.45,406.29c0.53,3.06-0.73,5.84-2.78,6.19c-2.05,0.34-4.16-1.87-4.67-4.93c-0.51-3.06,0.73-5.82,2.78-6.19
		C688.83,400.99,690.94,403.23,691.45,406.29z"/>
	<polygon class="st8" points="659.03,390.22 697.63,395.03 707.45,472.66 668.87,464.34 	"/>
	<polygon class="st3" points="659.03,390.22 697.63,395.03 707.45,472.66 668.87,464.34 	"/>
	<polygon class="st4" points="658.34,389.57 664.29,385.92 703.03,390.22 711.51,468.24 707.98,473.43 697.63,395.03 	"/>
	<path class="st3" d="M711.39,482.37l0.57,53.04c0,0,12.47,44.63,89.7,37.28l4.85-6.59"/>
	<polyline class="st3" points="704.57,426.27 711.39,424.54 711.39,436.53 	"/>
	<path class="st8" d="M660.33,406.73c0,0-9.88-0.24-14.2,3.41c-4.32,3.65-10.14,14.5-9.61,22.5c0.53,7.99,1.4,11.99,6.63,16.07
		c5.23,4.08,42.29,0.65,48.4-14.36c-8.52-0.11-17.02,1.06-25.19,3.47c-11.62,3.87,7.16-8.5,7.16-8.5s13.16-6.8,15.88-9.33
		c2.72-2.54,2.13-11.01,2.13-11.01s3.31-4.34,0.69-6.73c-1.99-1.52-4.41-2.38-6.92-2.45l-23.43,11.2L660.33,406.73z"/>
	<path class="st3" d="M661.26,406.92c-4.31-0.84-8.78-0.29-12.76,1.56c-6.96,3.08-11.2,18.9-11.2,18.9c-1.24,4.78-1.24,9.79,0,14.56
		c0,0,4.36,14.1,26.37,7.4"/>
	<path class="st3" d="M649.28,416.96l35.94-17.18c0,0,6.92,1.14,8.11,3.75s-22.94,18.26-34.26,21.01"/>
	<path class="st3" d="M691.45,406.29c0,0,0.3,9.13-1.64,13c-1.95,3.87-21.95,12.17-21.95,12.17"/>
	<path class="st3" d="M673.96,436.53c0,0,14.91-4.5,17.51-2.19s-11.81,7.61-11.81,7.61"/>
	<path class="st4" d="M796.76,573.53c0,0,11.34,33.25-10.97,57.87s-224.55,79.82-343.9,88.01l-6.71-23.12l262.17-109.01l-5.88-5.86
		l-74.04-40.99l-2.94,88.22l-31.74,11.99c0,0-42.46-131.16-44.63-160.41c-2.17-29.25,24.34-45.09,49.74-35.42
		c25.4,9.68,99.21,43.02,123.61,73.79l0.57,16.84C712.04,535.44,720.51,575.34,796.76,573.53z"/>
	<line class="st6" x1="696.54" y1="587.12" x2="726.23" y2="574.24"/>
	<path class="st6" d="M691.55,578.28c-0.06-6.81,0.88-13.59,2.78-20.12"/>
	<path class="st6" d="M587.85,488.12c0,0,27.55,20.3,29.57,52.31"/>
	<path class="st3" d="M762.18,341.52c0.57,4.98-0.3,10.02-2.52,14.52c0,0-54.12-2.9-64.1,4.42l-17.28,29.86"/>
	<path class="st4" d="M775.1,370.3c-15.58-3.83-17.06-13.96-17.06-13.96l-11.5-0.75c0,0,5.11,23.37,26.88,27.16
		c21.77,3.79,42.29-16.04,42.29-16.04c-7.51-3.51-12.66-5.74-12.66-5.74S790.68,374.1,775.1,370.3z"/>
	<path class="st4" d="M862.28,485.05c0,0-40.22,12.92-60.04-16.07l4.2-36.21c5.86-12.5,22.01-40.2,50.61-43.87
		C870.98,399.15,864.15,467.75,862.28,485.05z"/>
	<polygon class="st4" points="815.71,366.71 815.71,366.71 815.71,366.71 	"/>
	<path class="st8" d="M854.19,487.04c0,0-7.3,56.9-32.23,81.14c0,0-30.02-1.28-53.21-16.11s-35.98-46.25-54.2-67.85
		c0,0-23.02,2.27-29.64-1.89c-6.71-4.84-13.12-10.08-19.21-15.68l2.15-7.59l-4.18-7.89V438.8l-3-3.77l-1.64-5.8l6.67,1.24
		l38.95,33.69l2.88,2.54l3.53-3.23l-3.53-30.16c0,0,19.74,15.11,21.56,19.49s3.83,10.67,3.83,10.67s15.84,18.7,27.1,26.94
		c11.26,8.24,31.97,21.4,38.64,28.17c5.55-12.56,10.38-25.43,14.46-38.54C813.13,480.04,829.28,489.6,854.19,487.04z"/>
	<path class="st3" d="M681.51,461.32l-20.83-26.21l-1.64-5.8l8.82,2.03l39.59,35.25l3.53-3.23l-3.53-30.16
		c0,0,16.78,13.65,19.64,16.53c2.86,2.88,5.76,13.63,5.76,13.63c9,10.64,18.99,20.4,29.84,29.15c16.33,12.74,35.64,19.27,48.68,42.8
		"/>
	<polyline class="st3" points="663.68,438.89 663.68,451.26 673.96,466.7 	"/>
	<path class="st3" d="M668,457.77l-2.29,8.93c0,0,14.6,15.09,22.03,17.24c7.42,2.15,26.07,0,26.07,0c1.32-0.14,6.19,6.63,6.94,7.53
		c10.3,11.91,16.86,26.09,25.72,38.93c17.77,25.74,44.42,34.87,75.5,37.83c1.03,0.1,25.42-28.76,32.23-81.14"/>
	<path class="st3" d="M799.54,518.58c6.01-12.27,10.55-25.2,13.51-38.54"/>
	<path class="st3" d="M809.24,321.97c-6.23,13.29-9.01,23.81-7.44,38.54c0,0,51.87,20.16,57.51,30.87s9.05,61.34,2.47,91.99"/>
	<path class="st4" d="M759.52,356.65c0,0,21.6,7.06,27.79-21.18l-6.19,3.51l-18.26,2.86L759.52,356.65z"/>
</g>
</svg>
