<?xml version="1.0" encoding="utf-8"?>
<!-- Generator: Adobe Illustrator 23.1.0, SVG Export Plug-In . SVG Version: 6.00 Build 0)  -->
<svg version="1.1" id="Layer_1" xmlns="http://www.w3.org/2000/svg" xmlns:xlink="http://www.w3.org/1999/xlink" x="0px" y="0px"
	 viewBox="0 0 1366 768" style="enable-background:new 0 0 1366 768;" xml:space="preserve">
<style type="text/css">
	.st0{fill:#F5F5F5;}
	.st1{fill:#E0E0E0;}
	.st2{fill:#FFA8A7;}
	.st3{fill:#37474F;}
	.st4{fill:#BA68C8;}
	.st5{opacity:0.6;fill:#FFFFFF;enable-background:new    ;}
	.st6{fill:#F28F8F;}
	.st7{fill:#455A64;}
	.st8{opacity:0.1;enable-background:new    ;}
	.st9{fill:#263238;}
	.st10{fill:#B16668;}
	.st11{opacity:0.2;enable-background:new    ;}
	.st12{fill:#FAFAFA;}
	.st13{opacity:0.7;fill:#FFFFFF;enable-background:new    ;}
	.st14{opacity:0.4;fill:#FFFFFF;enable-background:new    ;}
	.st15{opacity:0.65;fill:#FFFFFF;enable-background:new    ;}
	.st16{opacity:0.15;enable-background:new    ;}
	.st17{opacity:0.3;fill:#FFFFFF;enable-background:new    ;}
	.st18{opacity:0.5;fill:#FFFFFF;enable-background:new    ;}
	.st19{opacity:0.35;enable-background:new    ;}
	.st20{opacity:0.3;}
	.st21{opacity:0.65;}
	.st22{fill:#FFFFFF;}
	.st23{opacity:0.4;}
	.st24{opacity:0.2;}
	.st25{fill:#FFBDA7;}
	.st26{fill:#F0997A;}
	.st27{opacity:0.1;}
	.st28{fill:#EBEBEB;}
</style>
<g id="freepik--Floor--inject-6">
	<ellipse id="freepik--floor--inject-6" class="st0" cx="680.5" cy="535.33" rx="399.5" ry="222.06"/>
</g>
<g id="freepik--Shadows--inject-6">
	<path id="freepik--Shadow--inject-6" class="st1" d="M563.9,558.68c-66.81,38.57-66.81,101.14,0,139.66
		c66.81,38.52,175.11,38.57,241.9,0s66.81-101.14,0-139.66C738.99,520.16,630.69,520.11,563.9,558.68z"/>
	<path id="freepik--shadow--inject-6" class="st1" d="M396.4,389.71c-52.93,30.56-52.93,80.11,0,110.67s138.74,30.55,191.65,0
		s52.93-80.11,0-110.67S449.32,359.17,396.4,389.71z"/>
	<path class="st1" d="M538.7,498.09c-30.34,17.48-30.34,45.83,0,63.32c30.34,17.48,79.38,17.48,109.66,0s30.34-45.82,0-63.32
		C618.01,480.59,568.99,480.61,538.7,498.09z"/>
	<path class="st1" d="M791.76,486.81c5.26,2.95,33.29,15.63,65.1,4.87c31.81-10.75,43.83-30.78,61.51-39.87
		c17.68-9.09,36.65-14.48,47.74-20.89s-1.18-10.92-16.54-12.31c-15.36-1.38-28.99,5.28-41.84,0.22c-12.85-5.06-61.55-21.56-93-8.24
		c-31.46,13.32-62.94,40.1-63.11,49.48c-0.17,9.84,14.62,17.65,31.54,18.21C785.33,481.76,788.27,484.68,791.76,486.81z"/>
</g>
<g id="freepik--character-2--inject-6">
	<g id="freepik--Character--inject-6">
		<path class="st2" d="M909.94,445.04c-11.51,7.05-20.4,16.5-32.75,23.6c-30.26,17.28-45.51,18.34-63.23,15l32.92-32.47
			c0,0,48.89-20.36,53.22-23.92c3.66-2.98,3.81-10.49,8.88-11.7c5.85-1.4,10.03,1.69,13.79,5.19c3.76,3.51,8.21,4.75,16.98,1.69
			c8.77-3.07,17.23-7.33,20.78-5.63c3.56,1.7,1.18,4.47-14.16,11.55c-8.8,4.06-19.89,9.15-27.21,11.63
			c-4.65,1.58-13.32,7.92-17.5,10.49"/>
		<path class="st3" d="M964.9,418c1.69-2.28-3.67-8.28-13.32-9.36c-6.04-0.73-12.16,0-17.85,2.14c-4.92,1.69-11.48,1.9-15.61,0
			c-7.5-3.49-10-2.73-9.59,2.11c0,0-1.01,5.41,5.34,7.67C920.23,422.82,950.62,422.3,964.9,418z"/>
		<path class="st4" d="M903.49,426.3c3.2,5.51,10.64,3.88,16.86,2.7c5.88-1.11,27.38-6.88,30.21-2.66
			c5.85-2.26,11.61-5.48,14.29-8.33c0,0-1.55-5.92-13.7-3c-7.94,1.9-22.49,2.9-26.97,2.34c-5.88-0.72-13.87-6.05-19.99-3.61
			C901.6,417.39,902.68,420.97,903.49,426.3z"/>
		<path class="st5" d="M903.49,426.3c3.2,5.51,10.64,3.88,16.86,2.7c5.88-1.11,27.38-6.88,30.21-2.66
			c5.85-2.26,11.61-5.48,14.29-8.33c0,0-1.55-5.92-13.7-3c-7.94,1.9-22.49,2.9-26.97,2.34c-5.88-0.72-13.87-6.05-19.99-3.61
			C901.6,417.39,902.68,420.97,903.49,426.3z"/>
		<path class="st2" d="M761.57,438.74c5.41-17.09,20.23-26.97,33.31-38.08s34.09-29.47,34.09-29.47l0,0l71.14-14.53
			c4.6,9.42,10.11,28.83,10.11,42.53c0,12.79-1.96,28.17-24.31,44.77c-13.57,10.11-24.26,21.64-34.46,26.97
			c-11.06,5.8-26.26,18-45.99,10.67c-9.1-3.37-13.49-12.34-11.16-20.23l0,0c-1.57,0.15-3.14,0.24-4.59,0.24c-1.45,0-3.25,0-4.47,0
			c-4.43,0.12-8.85-0.55-13.05-1.97C762.9,456.17,758.43,448.65,761.57,438.74z"/>
		<path class="st6" d="M789.67,461.56c1.45,0,3.02-0.1,4.59-0.25c8.24-17.6,51.2-51.6,53.57-53.64l0.12-0.12l-0.29-0.29l-1.69-2.48
			l0,0c-1.69-3.54-3.69-6.92-5.97-10.11c0.98,4.01,2.32,7.93,4.01,11.7c-5.56,4.97-31.54,26.97-37.76,32.91
			C799.63,445.53,792.84,452.74,789.67,461.56z"/>
		<path class="st6" d="M839.78,475.48c8.88-0.91,30.55-11.43,37.56-23.11c7.54-12.61-5.06-3.37-5.06-3.37
			S849.07,470.75,839.78,475.48z"/>
		<path class="st7" d="M904.7,366.94l-80.41,8.04c0,0-39.68,29.72-53.45,46.9c0,0,14.31,0.39,24.19,7.38
			c9.88,7,12.36,14.62,12.36,14.62s9.19-3.12,23.6,4.55c8.43,4.29,15.07,11.42,18.76,20.13c0,0,7.06-4.43,16.1-9.71
			c11.65-6.74,26.85-16.08,37.44-31.12C914.65,411.61,911.92,378.72,904.7,366.94z"/>
		<path class="st3" d="M845.92,404.79L845.92,404.79c-1.68-3.54-3.67-6.92-5.95-10.11c0.98,4.01,2.32,7.93,4.01,11.7
			c-5.56,4.97-31.54,26.97-37.76,32.91l-0.76,0.72c0.78,1.21,1.43,2.5,1.94,3.84l0,0c14.16-15.07,38.77-34.76,40.46-36.21l0.12-0.12
			l-0.29-0.29L845.92,404.79z"/>
		<path class="st3" d="M869.54,292.6l0.4-0.19c25.79-12.15,36.14-40.76,34.88-67.9c-0.2-8.6-1.96-17.1-5.18-25.08
			c-3.3-8.01-8.97-14.82-16.25-19.52c-5.69-3.39-12.12-5.33-18.73-5.66c-5.97-0.4-13.7-0.3-19.32,2.01
			c-2.44,0.99-2.9,0.78-5.53,0.19c-2.01-0.46-4.08-0.59-6.14-0.37c-5.58,0.79-10.63,3.76-14.03,8.26
			c-4.75,5.85-6.74,15.07-3.67,21.7c1.57,3.37,5.33,8.07,5.14,11.19c-0.29,4.53-3.57,8.07-7.21,12.05s-7.65,6.86-9.41,12.63
			c-1.5,4.96-1.77,15.46,9.32,19.49c-16.15,21.34-0.22,32.92,8.58,35.99c5.88,2.07,12.14,2.83,18.34,2.23
			C850.54,298.4,860.52,296.8,869.54,292.6z"/>
		<path class="st2" d="M813.79,328.84c9.49-9.78,26.65-31.88,26.65-31.88l9.69-33.61c0.24,0.1-4.94,0.12-6.51,0
			c-10.49,0.71-13.49,1.6-20.09,8.73c-5.18,5.68-24.93,32.67-31.81,41.74l-18.22-23.26c-4.37-6.61-3.66-13.99-5.93-19.39
			c-2.28-5.39-5.92-7.77-8.85-12.64c-2.93-4.87-3.64-8.06-6.05-5.58c-2.41,2.48,0.37,9.22,0.74,10.75c0.37,1.53,4.03,6.09-2.11,3.71
			c-6.14-2.38-15.63-13.59-18.07-15.88s-3.73,1.26-3.19,4.06c0.54,2.8-2.07,9.14-1.13,13.79c1.01,4.92,1.69,7.18,6.49,11.97
			c4.43,4.47,15.27,9.93,19.5,15.78c4.23,5.85,13.28,24.04,18.81,35c7.03,13.92,13.01,18.54,20.9,13.82
			C802.51,341.23,810.3,332.45,813.79,328.84z"/>
		<path class="st6" d="M791.76,313.84c3.46,3.27,5.78,7.56,6.62,12.24c0,0,2.04-6.74-5.06-14.31L791.76,313.84z"/>
		<path class="st4" d="M826.11,322.59c-12.9-10.6-8.65-24.43-3.94-33.71c9.42-18.54,19.22-25.93,23.3-25.86l25.66,0.24
			c12.26,1.69,21.75,0.84,24.71,1.53c7.54,1.79,7.7,8.01,7.99,16.03c0.34,8.8,1.26,7.86-1.03,22.42c0,0-3.49,11.28-4.87,16.32
			c-1.38,5.04-3.93,12.86-1.85,21c0.79,3.15,2.93,6.22,6.15,14.9c2.85,7.14,5.04,14.53,6.54,22.07c0,0-17.57,16.28-54.13,11.06
			c-26.97-3.84-32.2-12.71-32.2-12.71l5.06-31.37C826.8,333.53,826.64,329.57,826.11,322.59z"/>
		<path class="st8" d="M842.87,319.84c0,0,10.54,8.43,22.81,4.37c7-2.08,12.4-7.67,14.23-14.73c0,0,1.06,13.96-14.41,18.44
			C857,330.48,847.82,327.2,842.87,319.84z"/>
		<path class="st2" d="M934.88,237.44c-5.48-6.74-20.4-23.84-23.13-27.24c-1.69-2.16-3.93-3.83-6.47-4.84
			c-2.24-0.84-4.27-2.14-5.97-3.83c-1.08-1.05-3.37-5.46-4.3-6.62c-2.76-3.55-6.07-6.63-9.81-9.14c-4.33-3.02-8.43-4.43-12.86-7.32
			c-2.61-1.69-5.8-3.37-2.95-6.22c0.89-0.91,2.03-1.53,3.27-1.79c6.05-1.15,12.59,0.76,20.23,2.75c3.26,0.82,6.46,1.82,9.61,3
			c1.8,0.61,3.51,1.48,5.06,2.58c1.85,1.73,3.39,3.77,4.53,6.03c3.56,5.8,11.67,9.68,16.72,14.09c5.92,5.19,11.8,9.54,18.54,15.27
			c6.07,5.16,13.49,11.8,18.36,18.24c4.15,5.51,2.9,8.8,1.23,11.26c-8.43,12.41-27.17,26.48-33.85,32.03
			c-7.11,5.88-12.1,9.54-18.46,15.17c-4.47,4.25-8.69,8.76-12.64,13.49c-0.82,1.05-2.26,1.38-3.46,0.79
			c-7.37-4.01-12.27-24.53-6.57-37.09c1.45-3.24,2.97-3.37,2.97-3.37c11.61-8.16,40.05-27.21,40.05-27.21"/>
		<path class="st6" d="M934.88,237.44c3.43,4.36,8.03,7.65,13.27,9.47c0,0-7.05,1.69-16.49-7.11L934.88,237.44z"/>
		<path class="st2" d="M830.06,224.18c0.1,20.23,6.59,25.29,9.84,26.84c3.25,1.55,9.63,0.72,15.81-0.19l-0.22,12.14
			c0,0-7.23,7.33-6.74,12.91c0.49,5.58,11.06,6.37,19.15,1.08c4.43-2.95,8.46-6.46,11.99-10.45c0.68-0.77,1.06-1.76,1.08-2.78
			l0.49-28.66c0,0,3.37,3.64,9.37-0.35c5.19-3.17,6.82-9.95,3.65-15.13c-0.17-0.28-0.35-0.55-0.55-0.81
			c-2.55-3.1-9.15-3.37-12.41,1.26c-1.84,3.37-1.69,5.88-4.11,5.48c-2.43-0.4-2.63-3.14-2.8-5.06c-0.17-1.92-0.08-2.58-0.24-5.06
			c-5.98-1.28-12.17-9.61-12.86-15.69c-4.05,1.99-8.51,2.99-13.01,2.93c-6.74-0.46-10.11-1.8-13.49-6.62
			c-0.8,1.1-1.43,2.31-1.87,3.59c-0.93,2.58-1.62,5.24-2.07,7.94C830.28,213.05,829.95,218.61,830.06,224.18z"/>
		<path class="st6" d="M855.71,250.83c6.52-0.74,19.98-4.35,22.15-9.61c-0.86,2.69-2.54,5.05-4.8,6.74
			c-4.06,3.37-17.41,6.98-17.41,6.98L855.71,250.83z"/>
		<path class="st9" d="M852.56,220.01c-0.14,1.55,0.99,2.92,2.54,3.06c0.02,0,0.04,0,0.05,0c1.6,0.17,3.04-0.98,3.21-2.58
			c0.17-1.6-0.98-3.04-2.58-3.21c-1.6-0.17-3.04,0.98-3.21,2.58C852.57,219.92,852.56,219.96,852.56,220.01z"/>
		<path class="st9" d="M833.65,218.8c-0.12,1.42,0.94,2.67,2.36,2.8c1.34,0.16,2.56-0.8,2.71-2.14c0.01-0.11,0.02-0.21,0.02-0.32
			c0.22-1.39-0.72-2.69-2.11-2.92c-1.39-0.22-2.69,0.72-2.92,2.11c-0.03,0.16-0.04,0.32-0.03,0.48H833.65z"/>
		<polygon class="st6" points="846.29,214.45 845.36,233.52 836.46,230.55 		"/>
		<path class="st9" d="M863.06,212.7l-5.06-4.79c-1.33,1.45-1.26,3.69,0.15,5.06c1.35,1.28,3.48,1.23,4.77-0.11
			C862.97,212.8,863.02,212.75,863.06,212.7z"/>
		<path class="st10" d="M855.65,234.66l-8.97,2.92c0.89,2.5,3.58,3.86,6.12,3.08c2.41-0.79,3.72-3.38,2.93-5.79
			C855.7,234.8,855.67,234.73,855.65,234.66z"/>
		<path class="st6" d="M852.8,240.66c1.69-0.55,2.89-2.04,3.08-3.81c-0.49-0.2-1.01-0.3-1.53-0.3c-2.32,0-4.23,1.83-4.33,4.15
			C850.93,240.96,851.9,240.95,852.8,240.66z"/>
		<path class="st9" d="M836.85,206.36l-5.58,4.23c1.05,1.54,3.14,1.94,4.68,0.89c0.05-0.03,0.09-0.06,0.14-0.1
			C837.64,210.18,837.97,207.97,836.85,206.36z"/>
	</g>
</g>
<g id="freepik--character-1--inject-6">
	<g id="freepik--bean-bag--inject-6">
		<path class="st4" d="M415.3,254.03c-25.13,14.51-61.51,48.89-61.51,110.74s29.26,107.89,85.3,128.52
			c29.97,11.01,78.02,11.58,108.9,0.56c31.47-16.1,52.68-32.67,64.23-62.73c11.8-34.89-9.39-71.44-38.32-92.31
			c-28.93-20.87-25.49-44.67-45.95-69.38c-10.99-13.28-27.19-24.65-46.95-26.84C459.43,240.17,434.38,242.99,415.3,254.03z"/>
		<path class="st4" d="M556.3,357.53c-18.54-10.32-22.25-21.59-38.43-63.62s-45.68-38.86-45.68-38.86s-43.34,1.47-53.69,32.35
			c-7.16,21.32-7.01,63.37-0.27,85.97c4.05,13.59,9.57,20.01,9.57,20.01c-21.29-4.2-38.27,10.11-38.27,10.11s17.97-8.53,47.47,3.37
			c17.48,7,37.34,16.64,55.22,23.97c15.17,6.24,23.45,10.82,35.32,20.43c10.84,8.72,17.96,21.25,19.91,35.03
			c0.17,2.38,0.74,4.72,1.69,6.91c18.76-9.68,33.83-19.59,45.31-32.55c0.35-4.18,0.1-8.43,0.22-12.69
			c0.4-15.46,0.61-30.97-0.22-46.42C592.47,366.1,574.94,367.85,556.3,357.53z"/>
		<path class="st8" d="M556.3,357.53c-18.54-10.32-22.25-21.59-38.43-63.62s-45.68-38.86-45.68-38.86s-41.28,1.47-51.65,32.35
			c-7.15,21.32-9.05,63.37-2.31,85.97c4.05,13.59,9.57,20.01,9.57,20.01c-21.29-4.2-38.27,10.11-38.27,10.11s13.81-3.37,44.67,4.11
			c17.01,4.16,34.3,12,51.68,20.5c17.89,8.75,29.79,13.49,41.65,23.09c10.67,8.65,20.23,20.08,21.91,33.71
			c0.21,2.73,0.06,5.48-0.46,8.18c18.76-9.68,33.83-19.59,45.31-32.55c0.35-4.18-0.29-8.53,0.22-12.69
			c2.23-18.54,2.63-23.99,4.37-41.89C601.89,375.74,574.94,367.85,556.3,357.53z"/>
		<path class="st11" d="M534.53,497.69c-35.87,4.2-73.4-4.64-102.83-24.66c-45.11-30.75-64.63-79.31-54.97-136.95
			c8.53-50.89,33.97-78.93,59.52-90.51c-5.68,1.48-11.19,3.51-16.47,6.07c-20.68,15.17-39.08,41.92-46.12,83.93
			c-9.86,58.88,10.11,108.61,56.27,139.92c22.88,15.34,49.44,24.32,76.94,25.99C516.18,500.97,525.43,499.7,534.53,497.69z"/>
	</g>
	<g id="freepik--character--inject-6">
		<path class="st2" d="M577.4,449.02c0,0-5.06,23.6-4.03,32.32c1.11,9.12-0.56,12.49,2.71,22.05c0.71,2.09,2.58,6.19,3.17,7.87
			c0.61,1.3,0.05,2.84-1.25,3.45c-0.14,0.07-0.28,0.12-0.43,0.16c-3.78,1.5-11.6-4.72-16.1-12.19c-4.79-8.72-9.04-17.73-12.73-26.97
			c-0.55-2.15-0.5-4.41,0.12-6.54c0.3-1.23,0.71-2.43,1.23-3.59c0.61-4.16,0-11.8,0.1-17.11L577.4,449.02z"/>
		<path class="st9" d="M542.46,485.35c-0.35,1.01-0.54,2.08-0.54,3.15c0.24,1.82,5.34,7.03,7.32,8.92c2.8,2.52,4.53,6.01,4.84,9.76
			c0.78,5.82,4.3,10.91,8.87,15.02c6.18,5.29,13.82,8.58,21.91,9.44c10.11,1.25,12.56-4.11,12.56-4.11s2.14-5.06,0-6.74
			C595.27,519.09,542.46,485.35,542.46,485.35z"/>
		<path class="st3" d="M550.02,465.62c-0.29,0-0.81,0-1.4,1.08c-0.22,0.39-1.21,4.97-2.26,7.48c-1.05,2.51-4.08,7.43-3.91,11.16
			c3.37,6.74,10.92,10.42,13.08,16.86c2.16,6.44,3.59,14.24,15.39,20.6c11.8,6.36,22.35,5.34,25.76,2.53
			c3.41-2.82,2.34-6.74-4.28-13.62c-7.05-7.2-13.94-24.29-13.94-24.31c-0.92-2.41-1.69-4.87-2.31-7.37c-0.4-2.51-0.6-5.06-0.61-7.6
			c0.01-1.21-0.37-2.39-1.08-3.37c-0.88-0.79-1.98-1.3-3.15-1.45c-1.82-0.49-3.69-0.78-5.58-0.86c-1.9-0.05-3.77,0.54-5.29,1.69
			c-1.08,0.84-1.87,2.02-3.02,2.75c-1.58,0.99-3.59,0.99-5.18,0c-1.59-0.84-2.46-2.61-2.17-4.38
			C550.03,466.41,550.02,466.02,550.02,465.62z"/>
		<path class="st12" d="M563.71,517.32c2.17-5.78,7.36-9.88,13.49-10.64c10.87-1.87,15.61,3,17.83,5.97c2.65,3.52,5.93,10.11,1.8,13
			c-4.47,3.02-10.2,3.37-19.81,0.46S563.71,517.32,563.71,517.32z"/>
		<path class="st12" d="M559.94,484.23c0.34,0.09,0.71,0.02,0.99-0.19c1.53-1.15,10.11-4.57,16.12-0.67
			c0.57-0.66,0.25-1.69-0.84-2.85c-6.74-2.78-14.83,0.4-16.69,1.8c-0.46,0.36-0.55,1.03-0.19,1.49c0.01,0.01,0.01,0.02,0.02,0.03
			C559.51,484.03,559.71,484.16,559.94,484.23z"/>
		<path class="st12" d="M579.36,489.48c0.11-1.09-0.32-2.16-1.15-2.88c-5.35-1.45-11.07-0.67-15.85,2.14
			c-0.46,0.35-0.56,1-0.21,1.46c0.01,0.02,0.03,0.04,0.04,0.05c0.16,0.18,0.36,0.32,0.59,0.39c0.34,0.09,0.71,0.02,0.99-0.19
			C565.18,489.37,573.3,486.1,579.36,489.48z"/>
		<path class="st12" d="M586.28,503.42c-0.24-1.43-0.98-2.74-2.07-3.69c-6.74-2.58-14.6,0.56-16.42,1.92
			c-0.46,0.35-0.56,1-0.21,1.46c0.01,0.02,0.03,0.04,0.04,0.05c0.16,0.18,0.36,0.32,0.59,0.39c0.34,0.09,0.71,0.02,0.99-0.19
			C570.83,502.15,580.27,498.41,586.28,503.42z"/>
		<path class="st12" d="M565.45,497.11c0.34,0.09,0.71,0.02,0.99-0.19c1.52-1.13,9.9-4.48,15.91-0.79c0-1.2-0.54-2.33-1.48-3.07
			c-5.36-1.44-11.07-0.67-15.85,2.14c-0.46,0.36-0.55,1.03-0.19,1.49c0.01,0.01,0.01,0.02,0.02,0.03
			C565.02,496.9,565.22,497.04,565.45,497.11z"/>
		<path class="st7" d="M512.87,340.8c12.44,7.94,52.61,24.22,70.41,38.69c5.16,4.2,9.52,10.62,7.48,23.43
			c-3.81,23.95-11.8,54.74-11.8,54.74l-27.12-10.5l-6.05-26.35L507.38,396L512.87,340.8z"/>
		<path class="st3" d="M579.78,459.35c-16-11.7-67.85-83.86-67.83-83.88c10.75-4.62,16.49-19.32,16.49-19.32
			c-0.29,6.95-2.6,13.66-6.64,19.32c6.74,4.28,21.91,12.56,37.88,23.6c5.19,3.8,8.97,9.21,10.75,15.39
			C574.59,430.64,579.93,456.01,579.78,459.35z"/>
		<path class="st2" d="M587.57,469.1c0,0,9.05,28.03,16.01,38.38c6.96,10.35,10.49,15.34,19.03,22.69c1.87,1.6,5.98,4.47,7.52,5.77
			c1.31,0.92,1.64,2.72,0.72,4.04c-0.11,0.16-0.23,0.3-0.37,0.43c-2.78,3.59-16.44,6.37-25,1.69c-8.56-4.69-17.43-15.9-22.72-19.86
			c-1.99-1.48-3.88-3.03-5.71-4.7c-1.84-1.67-1.69-3.37-2.06-5.43c-0.2-0.98-0.47-3.71-0.47-3.71c-1.69-4.67-5.75-11.8-7.97-16.33
			L587.57,469.1z"/>
		<path class="st9" d="M575.04,530.56c0.09,1.19,0.39,2.36,0.88,3.46c1.05,1.69,8.63,4.79,11.5,5.83c3.97,1.33,7.27,4.13,9.24,7.82
			c3.37,5.6,9.32,9.22,15.83,11.36c8.72,2.63,18.03,2.54,26.7-0.25c10.82-3.24,10.97-9.84,10.97-9.84s-0.12-6.19-2.97-6.84
			C644.34,541.43,575.04,530.56,575.04,530.56z"/>
		<path class="st3" d="M573.91,507.01c-0.29,0.17-0.83,0.4-0.96,1.69c0,0.51,1.01,5.63,1.08,8.66c0.07,3.03-0.83,9.42,1.01,13.17
			c6.52,5.26,15.86,5.73,20.99,11.38c5.12,5.65,10.11,12.88,24.9,14.11c14.78,1.23,25.29-4.6,27.44-9.02
			c2.16-4.42-0.66-8.02-10.5-11.97c-10.43-4.2-25.17-18.54-25.18-18.54c-2.04-2.03-3.94-4.2-5.68-6.49
			c-1.54-2.39-2.89-4.89-4.05-7.48c-0.54-1.21-1.44-2.22-2.58-2.9c-1.26-0.4-2.62-0.4-3.88,0c-2.09,0.33-4.13,0.89-6.09,1.69
			c-1.97,0.78-3.63,2.2-4.7,4.03c-0.53,1.42-1.14,2.81-1.82,4.16c-1.18,1.73-3.24,2.63-5.31,2.33c-2-0.16-3.68-1.57-4.2-3.51
			L573.91,507.01z"/>
		<path class="st12" d="M611.17,553.65c-0.36-6.84,3.07-13.32,8.93-16.86c10.28-6.74,17.31-3.96,20.92-1.94
			c4.3,2.41,10.65,7.74,7.69,12.46c-3.19,5.06-8.9,8.01-20.03,9.41C617.55,558.12,611.17,553.65,611.17,553.65z"/>
		<path class="st12" d="M592.4,521.5c0.4-0.05,0.75-0.28,0.94-0.62c1.05-1.87,8.24-9.22,16.15-7.96c0.29-0.93-0.46-1.77-2.14-2.53
			c-8.13,0.19-14.97,7.1-16.23,9.36c-0.34,0.56-0.17,1.28,0.39,1.62c0.04,0.02,0.08,0.04,0.12,0.06
			C591.88,521.53,592.14,521.56,592.4,521.5z"/>
		<path class="st12" d="M614.54,518.23c-0.39-1.16-1.31-2.06-2.48-2.43c-7.67,0.71-14.01,7.16-15.17,9.32
			c-0.34,0.54-0.18,1.26,0.37,1.6c0.05,0.03,0.1,0.06,0.16,0.08c0.24,0.13,0.51,0.18,0.78,0.13c0.39-0.06,0.73-0.3,0.93-0.64
			C600.07,524.44,606.92,517.48,614.54,518.23z"/>
		<path class="st12" d="M627.97,529.29c-0.9-1.36-2.24-2.36-3.79-2.83c-7.97,0.37-14.67,7.13-15.9,9.34
			c-0.34,0.56-0.17,1.28,0.39,1.62c0.04,0.02,0.08,0.04,0.12,0.06c0.24,0.11,0.51,0.15,0.78,0.12c0.39-0.04,0.74-0.28,0.93-0.62
			C611.6,534.99,619.56,526.88,627.97,529.29z"/>
		<path class="st12" d="M603.85,532.23c0.39-0.06,0.73-0.3,0.93-0.64c1.03-1.84,8.09-9.04,15.9-7.97c-0.54-1.22-1.6-2.12-2.88-2.46
			c-7.69,0.71-14.03,7.16-15.17,9.32c-0.34,0.54-0.18,1.26,0.37,1.6c0.05,0.03,0.1,0.06,0.16,0.08
			C603.37,532.25,603.61,532.27,603.85,532.23z"/>
		<path class="st7" d="M513.5,334.39L513.5,334.39l-82.68,14.9c0,19.2,5.06,32.72,10.52,39.41c5.9,7.15,16.64,15.46,37.83,23.43
			c28.22,10.6,33.82,12.91,43.83,17.06c7.13,2.95,11.55,5.06,17.21,18.88c4.08,9.96,29.67,50.57,29.67,50.57
			c8.8-2.34,16.88-6.84,23.5-13.1c-23.36-67.26-30.34-77.7-40.22-85.35c-8.43-6.56-41.2-24.66-41.2-24.66
			S523.96,354.35,513.5,334.39z"/>
		<path class="st2" d="M562.11,304.74c-8.33-5.55-38.57-29.26-38.57-29.26l-7.55-43.37c9.34,1.35,12.24,4.16,29.11,20.23
			c10.11,9.69,29.55,27.26,29.55,27.26c5.06-4.82,22.62-23.03,26.13-27.85c3.2-4.58,5.74-9.59,7.55-14.88
			c0.78-2.38,1.5-4.79,2.51-7.11c0.91-1.96,1.97-3.84,3.19-5.63c1.15-1.69,2.16-3.79,3.27-5.44c0.17-0.31,0.41-0.58,0.71-0.78
			c0.74-0.32,1.6-0.1,2.11,0.52c0.93,1.62,1.34,3.48,1.18,5.34c-0.17,1.35-0.49,2.68-0.96,3.96c-0.47,1.28-0.67,2.65-0.59,4.01
			c1.63,0.09,3.24-0.45,4.48-1.52c4.31-3.28,8.1-7.19,11.24-11.6c2.16-2.8,3.96-5.82,6.25-8.53c0.39-0.54,0.89-0.98,1.47-1.3
			c0.6-0.3,1.32-0.22,1.84,0.2c0.36,0.49,0.52,1.09,0.47,1.69c0.01,1.84-0.1,3.67-0.32,5.5c1.69,0.89,2.14,3.12,2.38,5.06
			c0.52,4.43,1.03,9.07-0.56,13.27c-1.54,3.45-3.84,6.51-6.74,8.93c-2.67,2.5-5.49,4.85-8.43,7.03c-2.85,2.12-5.98,3.79-8.29,6.54
			c-7.86,9.31-22.82,32.03-33.71,43.98C578.94,312.93,572.39,312.1,562.11,304.74z"/>
		<path class="st3" d="M515,231.71c9.42,0,11.24,2.19,18.71,8.19s32.87,31.34,32.87,31.34c-2.55,10.33-8.86,19.34-17.68,25.29
			l-39.93-29.85L515,231.71z"/>
		<path class="st4" d="M522.73,287.41c4.1-28,7.59-50.57-7.74-55.63l-18.14-2.39l-15.36,0.37c-18.09,1.55-30.9,0.72-36.18,10.91
			c0,0-8.34,3.29-13.03,40.46c-3.43,26.27-3.93,52.85-1.5,79.23c19.67,11.31,76.5,4.57,90.32-16.25
			C518.94,322,519.38,310.38,522.73,287.41z"/>
		<path class="st13" d="M522.73,287.41c4.1-28,7.59-50.57-7.74-55.63l-18.14-2.39l-15.36,0.37c-18.09,1.55-30.9,0.72-36.18,10.91
			c0,0-8.34,3.29-13.03,40.46c-3.43,26.27-3.93,52.85-1.5,79.23c19.67,11.31,76.5,4.57,90.32-16.25
			C518.94,322,519.38,310.38,522.73,287.41z"/>
		<path class="st9" d="M539.94,177.62c1.18-14.62-9.72-27.42-24.33-28.6c-13.58-1.09-25.78,8.27-28.25,21.67l-11.21-9.68
			c-2.85-0.55-5.79,0.23-7.99,2.12c-3.61,3.17-2.58,14.01,0.76,24.81c0,0,2.55,19.39,3.93,22.66c0.94,2.02,2.62,3.6,4.69,4.42
			l0.66-11.6l48.35,1.05l-4.5-3.91C532.04,197.15,539.07,188.15,539.94,177.62z"/>
		<path class="st2" d="M478.79,189.52c-1.69,0.81-2.68-2.55-5.29-4.45c-2.23-1.69-7.6-3.64-11.29,0.94c-4.6,5.71,0,13.82,4.64,16.42
			c6.62,3.67,10.03-0.96,10.03-0.96l-1.15,30.24c8.97,13.87,37.09,16.15,28.3,0.4l0.56-8.21c3.69,0.88,7.45,1.37,11.24,1.47
			c6.24-0.47,10.5-5.06,12.9-11.55c3.84-10.47,5.66-19.03,4.77-40.29c-0.98-23.31-27.81-25.66-43.02-17.68
			C475.26,163.83,478.79,189.52,478.79,189.52z"/>
		<path class="st9" d="M541.34,152.6c-1.92-1.17-4.18-1.65-6.41-1.37c0.6-3.34-0.99-6.69-3.96-8.33c-3.14-1.92-7.13-1.76-10.11,0.4
			c0.88-2.28-1.03-4.85-3.37-5.6c-2.39-0.53-4.89-0.36-7.18,0.51c-3.51,0.96-6.95,2.09-10.49,2.92c-6.22,1.45-12.74,2.01-18.54,4.75
			c-1.39,0.61-2.64,1.48-3.69,2.58c-1.33,1.66-2.07,3.72-2.11,5.85c-0.01,0.7,0.03,1.4,0.1,2.09c-0.36-0.49-0.8-0.92-1.31-1.25
			c-2.32-1.56-5.46-0.95-7.02,1.37c-0.07,0.1-0.13,0.21-0.2,0.31l8.66,5.55c-0.4,1.82-0.81,3.62-1.16,5.44
			c-0.94,4.8-2.41,10.37-1.69,15.29c0.02,0.59,0.17,1.17,0.46,1.69c1.62,1.51,3.07,3.21,4.3,5.06c0.62,0.93,1.33,2.39,2.44,2.83
			c1.22,0.45,2.59-0.03,3.27-1.15c0.26-0.68,0.37-1.4,0.3-2.12c0-3.02,0-6.03,0-9.05c-0.07-0.8,0.06-1.61,0.37-2.36
			c0.62-0.89,1.45-1.62,2.41-2.12c2.27-1.62,3.79-4.09,4.23-6.84c0.06-0.86,0.23-1.72,0.49-2.55c0.24-0.61,0.83-1.55,1.55-1.48
			c1.4,0.12,8.87,2.49,10.75,2.93c9.83,2.29,20.5,3.56,29.74-0.51c3.61-1.58,9.74-5.06,10.74-9.17
			C544.28,156.04,543.26,153.81,541.34,152.6z"/>
		<path class="st6" d="M504.58,223.91c0,0-13.49-3.86-18.14-6.74c-2.71-1.69-4.85-4.16-6.12-7.1c0.5,2.87,1.58,5.61,3.17,8.06
			c3.15,4.77,20.8,9.49,20.8,9.49L504.58,223.91z"/>
		<path class="st9" d="M507.19,189.69c-0.17,1.42-1.47,2.44-2.89,2.27c-1.42-0.17-2.44-1.47-2.27-2.89
			c0.17-1.38,1.39-2.38,2.78-2.28c1.45,0.13,2.51,1.41,2.38,2.86C507.19,189.66,507.19,189.67,507.19,189.69z"/>
		<path class="st9" d="M503.08,179.61l-6.32,2.38c-0.63-1.8,0.27-3.77,2.04-4.47C500.56,176.91,502.47,177.85,503.08,179.61z"/>
		<path class="st10" d="M502.64,206.98l8.6,4.03c-0.97,2.38-3.69,3.52-6.07,2.54c-0.06-0.03-0.12-0.05-0.18-0.08
			C502.62,212.26,501.59,209.43,502.64,206.98z"/>
		<path class="st6" d="M507.66,213.84c-0.11-2.56-2.26-4.55-4.82-4.45c-0.2,0.01-0.4,0.04-0.59,0.08c0.14,1.72,1.18,3.24,2.73,4
			C505.82,213.87,506.75,214,507.66,213.84z"/>
		<path class="st9" d="M531.55,184.36l-5.55-3.59c0.93-1.49,2.89-1.95,4.39-1.02c0.03,0.02,0.06,0.04,0.1,0.06
			C532.01,180.79,532.47,182.8,531.55,184.36z"/>
		<path class="st9" d="M527.91,191.19c-0.17,1.42-1.47,2.44-2.89,2.26c-1.42-0.17-2.44-1.47-2.26-2.89c0.17-1.39,1.4-2.39,2.79-2.27
			C527,188.44,528.06,189.74,527.91,191.19z"/>
		<polygon class="st6" points="514.91,188.35 513.87,205.08 523.91,203.71 		"/>
		<path class="st2" d="M570.93,332.7c-0.13-0.59,1.97-1.26,2.41-1.48c2.76-1.35,5.7-2.85,7.18-5.55c0.52-0.93,0.78-2.24,0-2.95
			s-1.92-0.37-2.88,0c-3.21,1.06-6.5,1.85-9.84,2.36c-3.17,0.55-6.3,1.31-9.37,2.26c-3.15,0.91-5.93,2.71-9.19,3
			c-3.54,0.13-7.08-0.01-10.6-0.4c-16.76-1.26-41.5-4.96-43.14-5.28l-21.91-53.59c0,0-4.47-29.84-16.13-38.77
			c-9.76,1.69-22.82,12.63-20.09,33.29c1.97,14.85,24.58,65.27,27.98,72.49c5.21,11.16,4.96,14.03,26.69,15.17
			c9.84,0.52,30.58-0.17,44.4,0.42l10.3,0.42c3.94,0.13,8.72,0.47,12.66,0.84"/>
		<path class="st3" d="M569.24,348.63l28.13-7.99c1.12-0.38,1.97-1.29,2.28-2.43l9.79-45.06c0.24-1.05-0.42-1.69-1.45-1.37
			l-28.12,7.97c-1.12,0.38-1.97,1.29-2.29,2.43l-9.79,45.06C567.56,348.31,568.2,348.92,569.24,348.63z"/>
		<path class="st4" d="M591.58,309.1c5.18-1.18,8.34,2.29,7.1,7.79c-1.25,5.5-6.42,10.81-11.5,11.9c-5.07,1.1-8.28-2.38-7.1-7.77
			C581.56,315.31,585.92,310.79,591.58,309.1z"/>
		<path class="st7" d="M588.81,325.12c-0.06,0.16-0.15,0.3-0.27,0.42c-0.11,0.11-0.25,0.19-0.4,0.24l-2.38,0.54
			c-0.11,0.03-0.23,0-0.3-0.08c-0.06-0.11-0.06-0.24,0-0.35l0.69-2.02c0.06-0.16,0.16-0.29,0.29-0.4c0.11-0.12,0.25-0.21,0.4-0.25
			l2.38-0.52c0.09-0.06,0.21-0.06,0.3,0c0.05,0.11,0.05,0.23,0,0.34L588.81,325.12z M591.88,311.82c0.61-0.16,1.24-0.2,1.87-0.13
			c0.48,0.04,0.94,0.21,1.33,0.49c0.33,0.27,0.55,0.65,0.62,1.06c0.09,0.53,0.03,1.07-0.17,1.57c-0.16,0.46-0.39,0.91-0.66,1.31
			c-0.27,0.39-0.58,0.76-0.91,1.1c-0.33,0.34-0.67,0.67-1.03,0.98l-1.05,0.86c-0.34,0.29-0.64,0.57-0.93,0.86
			c-0.28,0.27-0.52,0.58-0.71,0.91c-0.08,0.15-0.18,0.3-0.3,0.42c-0.1,0.12-0.24,0.2-0.39,0.24l-2.29,0.52
			c-0.11,0.03-0.23,0-0.3-0.08c-0.06-0.11-0.06-0.24,0-0.35c0.15-0.44,0.38-0.86,0.66-1.23c0.29-0.39,0.61-0.76,0.96-1.1
			c0.34-0.34,0.71-0.67,1.08-0.98l1.06-0.88c0.3-0.25,0.59-0.52,0.86-0.81c0.22-0.23,0.39-0.5,0.51-0.79
			c0.13-0.39,0.1-0.66-0.1-0.83c-0.37-0.16-0.79-0.16-1.16,0c-0.47,0.08-0.92,0.27-1.31,0.54c-0.27,0.21-0.51,0.44-0.72,0.71
			l-0.51,0.66c-0.13,0.2-0.34,0.34-0.57,0.39l-2.29,0.51c-0.08,0.05-0.18,0.05-0.25,0c-0.05-0.09-0.05-0.21,0-0.3
			c0.24-0.57,0.55-1.11,0.93-1.6c0.45-0.61,0.96-1.18,1.52-1.69c0.61-0.55,1.28-1.03,1.99-1.43
			C590.32,312.32,591.08,312.01,591.88,311.82L591.88,311.82z"/>
		<path class="st3" d="M457.8,232.1c-11.04,1.23-16.23,4.5-19.94,11.63c-4.92,9.49-2.65,21.7,0.67,32.45
			c4.15,13.01,9.22,25.72,15.17,38.01c0,0,17.21,0.94,32.84-13.49l-12.22-35.18C474.32,265.53,468.1,242.01,457.8,232.1z"/>
		<path class="st2" d="M559.33,354.9c7.47,0.67,13.62,0.86,20.68-1.84c3.62-1.28,6.86-3.43,9.44-6.27c0.62-0.71,1.15-1.48,1.6-2.31
			c0.31-0.74,0.55-1.51,0.71-2.29c0.25-0.67,0.46-1.43,0.74-2.07c0.38-0.68,0.8-1.34,1.26-1.97c0.82-1.28,1.32-2.75,1.45-4.26
			c-0.42-2.22,0.2-4.52,1.69-6.22c0.79-1.58,0.39-4.05-1.82-3.76c-1.56,0.35-3.03,1.06-4.28,2.06c-2.73,1.83-5.61,3.44-8.6,4.8
			c-2.8,1.26-5.95,2.78-9.09,2.65c-0.51,0-2.01,0-2.16-0.69"/>
	</g>
</g>
<g id="freepik--Table--inject-6">
	<g id="freepik--table--inject-6">
		<path class="st7" d="M535.81,586.78c0.16-1.71,1.23-3.21,2.8-3.91c4.24-2.14,9.25-2.14,13.49,0c1.57,0.7,2.64,2.19,2.8,3.89
			l-2.8,70.35l0,0c-0.13,1.18-0.88,2.21-1.97,2.7c-3,1.52-6.54,1.52-9.54,0c-1.09-0.49-1.84-1.51-1.97-2.7l0,0L535.81,586.78z"/>
		<path class="st9" d="M552.1,582.87c-4.24-2.14-9.25-2.14-13.49,0c-1.57,0.7-2.64,2.2-2.8,3.91l0.93,23.33
			c5.07,5.12,10.67,9.7,16.69,13.65l1.47-37.09C554.71,585,553.64,583.55,552.1,582.87z"/>
		<path class="st7" d="M832.22,586.78c-0.16-1.71-1.23-3.21-2.8-3.91c-4.24-2.14-9.25-2.14-13.49,0c-1.57,0.7-2.64,2.19-2.8,3.89
			l2.8,70.35l0,0c0.13,1.18,0.88,2.21,1.97,2.7c3,1.52,6.54,1.52,9.54,0c1.09-0.49,1.84-1.51,1.97-2.7l0,0L832.22,586.78z"/>
		<path class="st9" d="M829.45,582.87c-4.24-2.14-9.25-2.14-13.49,0c-1.57,0.7-2.64,2.19-2.8,3.89l1.5,37.74
			c5.95-3.77,11.51-8.11,16.6-12.98l0.98-24.75C832.09,585.06,831.02,583.57,829.45,582.87z"/>
		<path class="st7" d="M694.39,639.51c-0.15-1.71-1.23-3.2-2.8-3.89c-4.24-2.16-9.25-2.16-13.49,0c-1.57,0.69-2.64,2.18-2.8,3.89
			l2.8,70.35l0,0c0.14,1.18,0.89,2.2,1.97,2.68c3,1.53,6.55,1.53,9.54,0c1.08-0.48,1.83-1.5,1.97-2.68l0,0L694.39,639.51z"/>
		<path class="st9" d="M693.51,661.69l0.88-22.13c-0.15-1.71-1.23-3.2-2.8-3.89c-4.24-2.16-9.25-2.16-13.49,0
			c-1.57,0.69-2.64,2.18-2.8,3.89l0.88,22.13C681.8,661.89,687.9,661.89,693.51,661.69z"/>
		<path class="st4" d="M855.9,536.96h-0.08c0-25.29-16.54-50.57-49.95-69.84c-66.81-38.57-175.11-38.57-241.9,0
			c-33.41,19.28-49.98,44.55-49.95,69.84h-0.15v13.57l0,0c0.39,24.95,17.13,49.81,50.1,68.84c66.81,38.57,175.11,38.57,241.9,0
			c32.97-19.03,49.71-43.83,50.1-68.84l0,0L855.9,536.96z"/>
		<path class="st14" d="M855.9,536.96h-0.08c0-25.29-16.54-50.57-49.95-69.84c-66.81-38.57-175.11-38.57-241.9,0
			c-33.41,19.28-49.98,44.55-49.95,69.84h-0.15v13.57l0,0c0.39,24.95,17.13,49.81,50.1,68.84c66.81,38.57,175.11,38.57,241.9,0
			c32.97-19.03,49.71-43.83,50.1-68.84l0,0L855.9,536.96z"/>
		<path class="st4" d="M563.9,467.12c-66.81,38.57-66.81,101.14,0,139.68c66.81,38.54,175.11,38.55,241.9,0
			c66.79-38.55,66.81-101.14,0-139.68S630.69,428.55,563.9,467.12z"/>
		<path class="st15" d="M563.9,467.12c-66.81,38.57-66.81,101.14,0,139.68c66.81,38.54,175.11,38.55,241.9,0
			c66.79-38.55,66.81-101.14,0-139.68S630.69,428.55,563.9,467.12z"/>
	</g>
</g>
<g id="freepik--Game--inject-6">
	<polygon class="st16" points="546.16,539.95 684.83,459.89 823.5,539.95 684.83,620.02 	"/>
	<g id="freepik--Board--inject-6">
		<polygon class="st7" points="546.16,536.74 684.83,456.67 823.5,536.74 684.83,616.8 		"/>
		<polygon class="st4" points="684.83,613.21 552.38,536.74 684.83,460.26 817.3,536.74 		"/>
		<polygon class="st8" points="571.3,547.67 590.23,536.74 609.14,547.67 590.23,558.59 		"/>
		<polygon class="st17" points="571.3,525.82 590.23,514.88 609.14,525.82 590.23,536.74 		"/>
		<polygon class="st18" points="590.23,514.88 609.14,503.96 628.07,514.88 609.14,525.82 		"/>
		<polygon class="st5" points="609.14,503.96 628.07,493.03 646.99,503.97 628.07,514.88 		"/>
		<polygon class="st18" points="628.07,493.03 646.99,482.11 665.92,493.03 646.99,503.96 		"/>
		<polygon class="st17" points="646.99,482.11 665.92,471.19 684.83,482.11 665.92,493.03 		"/>
		<polygon class="st17" points="684.83,591.36 703.76,580.44 722.68,591.36 703.76,602.28 		"/>
		<polygon class="st18" points="703.76,580.44 722.68,569.51 741.61,580.44 722.68,591.36 		"/>
		<polygon class="st5" points="722.68,569.51 741.61,558.59 760.52,569.51 741.61,580.44 		"/>
		<polygon class="st18" points="741.61,558.59 760.52,547.67 779.45,558.59 760.52,569.51 		"/>
		<polygon class="st17" points="760.52,547.67 779.45,536.74 798.37,547.67 779.45,558.59 		"/>
		<polygon class="st11" points="590.23,558.59 609.14,547.67 628.07,558.59 609.14,569.51 		"/>
		<polygon class="st11" points="628.07,580.44 646.99,569.51 665.92,580.44 646.99,591.36 		"/>
		<polygon class="st19" points="609.14,569.51 628.07,558.59 646.99,569.51 628.07,580.44 		"/>
		<polygon class="st8" points="646.99,591.36 665.92,580.44 684.83,591.36 665.92,602.28 		"/>
		<polygon class="st8" points="684.83,482.11 703.76,471.19 722.68,482.11 703.76,493.03 		"/>
		<polygon class="st11" points="703.76,493.05 722.68,482.11 741.61,493.05 722.68,503.97 		"/>
		<polygon class="st19" points="722.68,503.97 741.61,493.05 760.52,503.97 741.61,514.9 		"/>
		<polygon class="st11" points="741.61,514.9 760.52,503.97 779.45,514.9 760.52,525.82 		"/>
		<polygon class="st8" points="760.52,525.82 779.45,514.9 798.37,525.82 779.45,536.74 		"/>
		<path class="st12" d="M797.59,548.11l1.55-0.89L781,536.68l18.14-10.49l-1.55-0.89l-18.14,10.49l-17.38-10.03l18.16-10.49
			l-1.55-0.89l-18.16,10.5l-17.36-10.03l18.14-10.49l-1.55-0.89l-18.14,10.49l-17.38-10.03l18.16-10.49l-1.55-0.89l-18.19,10.52
			l-17.36-10.01l18.14-10.49l-1.55-0.89l-18.14,10.47l-17.38-10.03l18.14-10.47l-1.55-0.89l-18.14,10.47l-18.14-10.47l-1.57,0.89
			l18.16,10.47l-17.38,10.03l-18.14-10.47l-1.55,0.89l18.14,10.47l-17.36,10.03l-18.16-10.47l-1.55,0.89l18.16,10.47l-17.36,10.11
			l-18.16-10.47l-1.55,0.89l18.22,10.4l-17.41,9.98L591,514.41l-1.57,0.89l18.16,10.49l-17.38,10.03l-18.14-10.49l-1.55,0.89
			l18.14,10.45l-18.14,10.47l1.55,0.89l18.14-10.47l17.38,10.03l-18.12,10.54l1.55,0.91l18.14-10.49l17.4,10.03l-18.16,10.49
			l1.55,0.89l18.16-10.49l17.36,10.11l-18.14,10.49l1.55,0.89l18.1-10.59l17.36,10.03l-18.14,10.49l1.55,0.89l18.16-10.49
			l17.36,10.03l-18.14,10.49l1.55,0.89l18.14-10.42l18.16,10.49l1.55-0.89l-18.16-10.49l17.38-10.03l18.14,10.49l1.55-0.89
			l-18.14-10.47l17.33-10.11l18.16,10.49l1.55-0.89l-18.16-10.49l17.38-10.11l18.16,10.59l1.55-0.91l-18.12-10.47l17.36-10.03
			l18.16,10.49l1.55-0.91l-18.16-10.47l17.38-10.03L797.59,548.11z M684.83,590.47l-93.05-53.79l93.05-53.74l93.07,53.74
			L684.83,590.47z"/>
		<polygon class="st12" points="684.83,482.11 590.23,536.74 684.83,591.36 779.45,536.74 		"/>
	</g>
	<g id="freepik--Deck--inject-6">
		<path class="st7" d="M712.41,540.27c-0.03-0.34-0.25-0.63-0.56-0.78l-38.92-22.47c-0.84-0.42-1.84-0.42-2.68,0l-25.05,14.46
			c-0.31,0.14-0.52,0.44-0.56,0.78v12.19c0.03,0.34,0.24,0.64,0.56,0.78l38.92,22.47c0.85,0.44,1.85,0.44,2.7,0l25.03-14.46
			c0.31-0.14,0.52-0.44,0.56-0.78V540.27z"/>
		<path class="st3" d="M685.56,555.84v12.17c-0.47,0.02-0.94-0.08-1.37-0.3l-38.94-22.49c-0.31-0.14-0.52-0.44-0.56-0.78v-12.17
			c0.03,0.34,0.25,0.63,0.56,0.78l38.94,22.47C684.61,555.74,685.08,555.85,685.56,555.84z"/>
		<path class="st7" d="M684.12,555.52l-38.92-22.49c-0.74-0.42-0.74-1.11,0-1.55l25.05-14.46c0.84-0.42,1.84-0.42,2.68,0
			l38.92,22.47c0.74,0.44,0.74,1.13,0,1.55l-25.03,14.48C685.97,555.94,684.97,555.94,684.12,555.52z"/>
		<path class="st9" d="M712.41,540.27v12.19c-0.03,0.34-0.24,0.64-0.56,0.78l-25.03,14.48c-0.41,0.21-0.86,0.31-1.31,0.3v-12.17
			c0.46,0,0.91-0.11,1.31-0.32l25.03-14.48C712.17,540.91,712.39,540.61,712.41,540.27z"/>
		<polygon class="st9" points="644.64,534.92 653.29,539.91 644.64,534.42 		"/>
		<polygon class="st9" points="644.64,541.31 653.29,546.3 644.64,540.81 		"/>
		<polygon class="st9" points="644.64,537.67 659.85,546.67 644.64,537.17 		"/>
		<path class="st9" d="M672.22,550.84l12.24,7.06c0.65,0.37,1.44,0.37,2.09,0l11.53-6.74l-11.63,6.03c-0.59,0.32-1.31,0.32-1.9,0
			L672.22,550.84z"/>
		<path class="st9" d="M677.38,557.43l7.08,4.1c0.64,0.38,1.45,0.38,2.09,0l11.53-6.74l-11.63,6.05c-0.6,0.3-1.31,0.3-1.9,0
			L677.38,557.43z"/>
		<path class="st9" d="M672.22,558.05l12.24,7.08c0.64,0.38,1.45,0.38,2.09,0l11.53-6.74l-11.63,6.05c-0.6,0.3-1.31,0.3-1.9,0
			L672.22,558.05z"/>
		<path d="M698.08,554.8l-11.63,6.05c-0.29,0.15-0.62,0.22-0.94,0.22v0.72c0.37,0,0.73-0.1,1.05-0.29L698.08,554.8z"/>
		<path d="M685.56,557.46v0.72c0.37,0,0.73-0.1,1.05-0.29l11.53-6.74l-11.63,6.03C686.22,557.36,685.89,557.46,685.56,557.46z"/>
		<path d="M686.55,565.11l5.18-3.02l-5.28,2.36c-0.29,0.15-0.61,0.23-0.94,0.24v0.64C685.87,565.36,686.23,565.28,686.55,565.11z"/>
		<polygon points="712.41,545.59 703.26,550.84 712.41,546.17 		"/>
		<polygon points="712.41,549.54 703.26,554.8 712.41,550.13 		"/>
		<path class="st16" d="M711.85,539.49l-38.92-22.47c-0.84-0.42-1.84-0.42-2.68,0l-25.05,14.46c-0.17,0.09-0.32,0.23-0.42,0.4
			c0.11,0.16,0.25,0.29,0.42,0.39l38.92,22.49c0.85,0.42,1.85,0.42,2.7,0l25.03-14.48c0.17-0.09,0.31-0.23,0.42-0.39
			C712.18,539.73,712.03,539.59,711.85,539.49z"/>
		<path class="st7" d="M684.12,554.16l-38.92-22.54c-0.74-0.44-0.74-1.13,0-1.55l25.05-14.46c0.84-0.44,1.84-0.44,2.68,0
			l38.92,22.47c0.74,0.42,0.74,1.11,0,1.55l-25.03,14.46C685.98,554.53,684.98,554.56,684.12,554.16z"/>
		<path class="st4" d="M670.39,530.19c5.14-2.61,11.23-2.61,16.37,0c4.53,2.61,4.53,6.84,0,9.46c-5.15,2.6-11.22,2.6-16.37,0
			C665.82,537.03,665.82,532.8,670.39,530.19z"/>
		<path class="st7" d="M672.86,531.25c0.62-0.35,1.27-0.63,1.96-0.84c0.68-0.2,1.38-0.33,2.09-0.39c0.65-0.09,1.32-0.09,1.97,0
			c0.59,0.08,1.16,0.28,1.69,0.57c0.32,0.17,0.6,0.4,0.83,0.69c0.15,0.22,0.25,0.48,0.29,0.74c0.04,0.25,0.04,0.5,0,0.74
			c0,0.25-0.1,0.49-0.13,0.72c-0.02,0.22-0.02,0.45,0,0.67c0.03,0.23,0.14,0.43,0.3,0.59c0.08,0.07,0.13,0.17,0.15,0.27
			c0,0.08,0,0.17-0.15,0.24l-1.97,1.13c-0.28,0.14-0.6,0.14-0.88,0c-0.3-0.15-0.55-0.39-0.72-0.67c-0.13-0.23-0.21-0.49-0.24-0.76
			c-0.04-0.26-0.04-0.52,0-0.78c0-0.25,0.1-0.49,0.15-0.72c0.03-0.21,0.03-0.42,0-0.62c-0.06-0.2-0.2-0.37-0.39-0.47
			c-0.33-0.18-0.71-0.25-1.08-0.22c-0.49,0.06-0.95,0.23-1.37,0.49c-0.49,0.27-0.76,0.52-0.83,0.72c-0.08,0.17-0.08,0.37,0,0.54
			c0,0.15,0.15,0.29,0.22,0.42s0,0.24-0.19,0.35l-1.97,1.15c-0.22,0.11-0.49,0.11-0.71,0c-0.35-0.22-0.65-0.52-0.86-0.88
			c-0.21-0.35-0.31-0.76-0.27-1.16c0.05-0.48,0.23-0.93,0.52-1.31C671.72,531.96,672.26,531.55,672.86,531.25z M685.29,536.79
			c0.14,0.05,0.21,0.21,0.16,0.35c-0.03,0.07-0.09,0.13-0.16,0.16l-2.02,1.18c-0.28,0.14-0.6,0.14-0.88,0l-1.69-0.94
			c-0.14-0.05-0.21-0.21-0.16-0.35c0.03-0.07,0.09-0.13,0.16-0.16l2.04-1.16c0.28-0.14,0.6-0.14,0.88,0L685.29,536.79z"/>
	</g>
	<g id="freepik--Cards--inject-6">
		<path class="st16" d="M711.69,513.48c-0.3,0-0.6-0.05-0.89-0.13l-45.23-13.49c-0.51-0.1-0.94-0.46-1.13-0.94
			c-0.1-0.33-0.01-0.69,0.24-0.93l15.02-16.86c0.49-0.44,1.13-0.67,1.79-0.64c0.3-0.01,0.6,0.03,0.89,0.12l8.43,2.53l-12.14-7.03
			c-0.54-0.2-0.81-0.81-0.61-1.35c0.11-0.28,0.33-0.5,0.61-0.61l23.16-13.33c0.43-0.24,0.91-0.36,1.4-0.35
			c0.49-0.01,0.97,0.12,1.4,0.35l17.7,10.22l-3.64-5.73c-0.14-0.28-0.14-0.6,0-0.88c0.26-0.5,0.77-0.84,1.33-0.89l30.75-6.51
			c0.22-0.03,0.44-0.03,0.66,0c0.73-0.06,1.45,0.24,1.92,0.81l17.51,27.56c0.17,0.26,0.2,0.59,0.08,0.88
			c-0.28,0.5-0.77,0.83-1.33,0.91l-30.73,6.51c-0.22,0.02-0.45,0.02-0.67,0l0,0c-0.79,0.1-1.58-0.22-2.07-0.84l-3.15-4.96
			l-8.93,5.16l3.47,1.03c0.52,0.11,0.94,0.47,1.13,0.96c0.1,0.32,0.01,0.68-0.24,0.91l-15,16.86
			C712.94,513.25,712.33,513.49,711.69,513.48z"/>
		<path class="st7" d="M714.82,495.14l-36.01-20.84c-0.69-0.39-0.69-1.03,0-1.43l23.16-13.37c0.78-0.39,1.7-0.39,2.48,0l35.97,20.77
			c0.4,0.12,0.62,0.55,0.5,0.95c-0.07,0.24-0.26,0.43-0.5,0.5l-23.15,13.37C716.52,495.5,715.6,495.51,714.82,495.14z"/>
		<polygon class="st3" points="693.26,482.7 723.33,491.65 724.21,491.14 692.45,482.23 		"/>
		<polygon class="st3" points="733.15,485.99 732.29,486.49 722.73,470.09 723.25,470.39 		"/>
		<path class="st4" d="M702.08,472.99c4.76-2.45,10.41-2.45,15.17,0c4.18,2.41,4.18,6.32,0,8.73c-4.77,2.43-10.41,2.43-15.17,0
			C697.9,479.36,697.9,475.4,702.08,472.99z"/>
		<path class="st7" d="M704.4,473.97c0.57-0.33,1.17-0.59,1.8-0.78c0.63-0.19,1.27-0.32,1.92-0.37c0.61-0.08,1.23-0.08,1.84,0
			c0.54,0.08,1.06,0.25,1.53,0.52c0.3,0.15,0.56,0.37,0.76,0.64c0.15,0.21,0.24,0.44,0.29,0.69c0.04,0.23,0.04,0.46,0,0.69
			c0,0.22-0.08,0.44-0.12,0.66c-0.03,0.21-0.03,0.42,0,0.62c0.02,0.21,0.11,0.4,0.27,0.54c0.06,0.07,0.11,0.16,0.13,0.25
			c0,0.08,0,0.15-0.13,0.22l-1.82,1.05c-0.12,0.07-0.26,0.1-0.4,0.1c-0.14,0.01-0.28-0.03-0.4-0.1c-0.28-0.13-0.52-0.35-0.67-0.62
			c-0.13-0.21-0.2-0.45-0.22-0.69c-0.04-0.23-0.04-0.47,0-0.71c0-0.25,0.1-0.47,0.13-0.67c0.03-0.19,0.03-0.38,0-0.57
			c-0.04-0.2-0.17-0.36-0.35-0.44c-0.31-0.17-0.66-0.24-1.01-0.2c-0.45,0.05-0.88,0.2-1.26,0.44c-0.32,0.14-0.58,0.38-0.76,0.67
			c-0.06,0.16-0.06,0.33,0,0.49c0.06,0.14,0.13,0.28,0.22,0.4c0,0.1,0,0.22-0.19,0.32l-1.82,1.06c-0.1,0.05-0.21,0.08-0.32,0.08
			c-0.12,0-0.23-0.03-0.34-0.08c-0.33-0.2-0.6-0.48-0.79-0.81c-0.2-0.32-0.29-0.7-0.25-1.08c0.06-0.44,0.22-0.86,0.49-1.21
			C703.33,474.61,703.84,474.23,704.4,473.97z M715.9,479.02c0.13,0.05,0.2,0.2,0.15,0.33c-0.03,0.07-0.08,0.12-0.15,0.15
			l-1.89,1.08c-0.12,0.07-0.26,0.11-0.4,0.1c-0.14,0-0.28-0.03-0.4-0.1l-1.5-0.86c-0.09-0.04-0.16-0.13-0.17-0.24
			c0-0.1,0-0.17,0.17-0.24l1.87-1.08c0.12-0.07,0.26-0.1,0.4-0.1c0.14-0.01,0.28,0.03,0.4,0.1L715.9,479.02z"/>
		<path class="st7" d="M710.84,511.51l-45.23-13.49c-0.86-0.25-1.2-0.86-0.74-1.37l15.02-16.86c0.65-0.55,1.55-0.72,2.36-0.44
			l45.21,13.49c0.86,0.25,1.2,0.86,0.76,1.37l-15,16.86C712.55,511.6,711.66,511.77,710.84,511.51z"/>
		<path class="st4" d="M687.07,492.63c2.71-3.03,9.15-4.21,14.41-2.65s7.3,5.29,4.6,8.31c-2.7,3.02-9.17,4.23-14.41,2.66
			C686.43,499.39,684.36,495.66,687.07,492.63z"/>
		<path class="st7" d="M689.81,493.15c0.39-0.41,0.83-0.76,1.31-1.05c0.53-0.31,1.09-0.54,1.69-0.69c0.58-0.16,1.18-0.26,1.79-0.27
			c0.57,0,1.14,0.08,1.69,0.24c0.38,0.1,0.74,0.27,1.06,0.49c0.24,0.17,0.46,0.37,0.64,0.61c0.15,0.2,0.27,0.42,0.34,0.66
			c0.08,0.22,0.17,0.44,0.24,0.66c0.08,0.2,0.19,0.4,0.3,0.59c0.15,0.2,0.34,0.36,0.56,0.47c0.1,0.05,0.18,0.12,0.25,0.2
			c0,0.08,0,0.15,0,0.24l-1.18,1.33c-0.1,0.08-0.21,0.13-0.34,0.15c-0.14,0.03-0.29,0.03-0.44,0c-0.35-0.09-0.67-0.26-0.96-0.47
			c-0.23-0.17-0.43-0.39-0.57-0.64c-0.14-0.21-0.24-0.45-0.32-0.69c0-0.24-0.15-0.46-0.22-0.66c-0.08-0.2-0.18-0.38-0.3-0.56
			c-0.16-0.17-0.35-0.29-0.57-0.35c-0.35-0.1-0.72-0.1-1.06,0c-0.38,0.1-0.72,0.33-0.96,0.64c-0.3,0.32-0.42,0.57-0.37,0.78
			c0.04,0.18,0.13,0.35,0.27,0.47l0.4,0.32c0.13,0.1,0.13,0.22,0,0.35l-1.18,1.33c-0.07,0.07-0.16,0.11-0.25,0.13
			c-0.12,0.03-0.25,0.03-0.37,0c-0.43-0.13-0.83-0.34-1.18-0.62c-0.34-0.26-0.62-0.59-0.81-0.98c-0.17-0.39-0.22-0.83-0.15-1.25
			C689.19,494.05,689.44,493.55,689.81,493.15z M703.46,496.03c0.11,0.02,0.21,0.09,0.27,0.19c0.06,0.07,0.06,0.18,0,0.25
			l-1.31,1.43c-0.09,0.09-0.21,0.15-0.34,0.17c-0.14,0.03-0.29,0.03-0.44,0l-1.89-0.56c-0.12-0.02-0.22-0.1-0.27-0.2
			c-0.06-0.07-0.06-0.17,0-0.24l1.21-1.37c0.09-0.09,0.21-0.15,0.34-0.17c0.14-0.03,0.28-0.03,0.42,0L703.46,496.03z"/>
		<path class="st7" d="M736.47,491.16l-17.51-27.58c-0.34-0.52,0.13-1.11,1.05-1.3l30.73-6.52c0.8-0.23,1.67-0.01,2.26,0.59
			l17.51,27.58c0.34,0.52-0.13,1.11-1.05,1.31l-30.73,6.51C737.92,491.99,737.05,491.77,736.47,491.16z"/>
		<path class="st4" d="M741.03,468c5.55-1.16,11.7,0.47,13.74,3.67c2.04,3.2-0.83,6.74-6.37,7.92c-5.55,1.18-11.68-0.47-13.72-3.67
			C732.64,472.72,735.49,469.25,741.03,468z"/>
		<path class="st7" d="M742.45,469.47c0.72-0.16,1.45-0.25,2.19-0.27c0.68-0.03,1.36,0.02,2.02,0.13c0.56,0.08,1.1,0.25,1.6,0.51
			c0.41,0.18,0.76,0.47,1.01,0.84c0.17,0.22,0.24,0.5,0.22,0.78c-0.02,0.25-0.1,0.48-0.24,0.69c-0.15,0.23-0.32,0.44-0.52,0.62
			l-0.59,0.57c-0.17,0.17-0.33,0.36-0.47,0.56c-0.13,0.16-0.18,0.36-0.15,0.56c0.03,0.08,0.03,0.17,0,0.25
			c-0.07,0.09-0.17,0.16-0.29,0.17l-2.43,0.51c-0.14,0.03-0.28,0.03-0.42,0c-0.12-0.02-0.23-0.09-0.3-0.19
			c-0.15-0.22-0.21-0.48-0.15-0.74c0.06-0.25,0.16-0.48,0.32-0.67c0.16-0.24,0.36-0.45,0.57-0.64l0.61-0.57
			c0.16-0.16,0.3-0.33,0.42-0.52c0.09-0.15,0.09-0.34,0-0.49c-0.19-0.24-0.47-0.39-0.78-0.42c-0.49-0.06-0.99-0.03-1.47,0.1
			c-0.42,0.06-0.82,0.2-1.18,0.42c-0.16,0.11-0.28,0.27-0.34,0.46c-0.05,0.13-0.08,0.27-0.1,0.4c0,0.11-0.13,0.2-0.4,0.25
			l-2.43,0.52c-0.11,0.02-0.23,0.02-0.34,0c-0.1-0.02-0.19-0.08-0.25-0.17c-0.16-0.28-0.2-0.6-0.13-0.91
			c0.09-0.39,0.28-0.75,0.56-1.05c0.38-0.4,0.83-0.73,1.33-0.98C741,469.86,741.71,469.61,742.45,469.47z M749.19,476.9
			c0.06,0.07,0.06,0.18,0,0.25c-0.08,0.1-0.2,0.16-0.32,0.17l-2.49,0.54c-0.14,0.03-0.29,0.03-0.44,0c-0.12-0.02-0.23-0.09-0.3-0.19
			l-0.72-1.15c-0.06-0.07-0.06-0.18,0-0.25c0.08-0.1,0.19-0.16,0.32-0.17l2.49-0.54c0.14-0.03,0.29-0.03,0.44,0
			c0.12,0.02,0.22,0.09,0.29,0.19L749.19,476.9z"/>
	</g>
	<g id="freepik--black-token--inject-6">
		<path class="st8" d="M734.63,574.18c4.61,2.34,10.07,2.34,14.68,0c4.06-2.34,4.06-6.14,0-8.43c-4.61-2.34-10.07-2.34-14.68,0
			C730.57,568.05,730.57,571.84,734.63,574.18z"/>
		<path class="st7" d="M748.28,564.31c-3.97-2.01-8.66-2.01-12.63,0c-1.47,0.65-2.47,2.04-2.61,3.64v1.69
			c0.14,1.6,1.15,2.99,2.61,3.64c3.97,2.01,8.66,2.01,12.63,0c1.46-0.65,2.46-2.05,2.61-3.64v-1.69
			C750.74,566.35,749.75,564.96,748.28,564.31z"/>
		<path class="st3" d="M735.66,571.6c3.97,2.01,8.66,2.01,12.63,0c3.49-2.02,3.49-5.29,0-7.3c-3.97-2.01-8.66-2.01-12.63,0
			C732.17,566.31,732.17,569.58,735.66,571.6z"/>
		<path class="st16" d="M736.53,570.15c3.4,1.79,7.47,1.79,10.87,0c3.02-1.77,3.02-4.67,0-6.44c-3.4-1.79-7.47-1.79-10.87,0
			C733.52,565.49,733.52,568.38,736.53,570.15z"/>
		<path class="st7" d="M749.45,566.23L749.45,566.23c0-2.93-3.07-8.98-3.07-17.99h-8.82c0,8.97-3.03,15.02-3.07,17.95
			c0.11,1.35,0.95,2.53,2.19,3.08c3.32,1.68,7.25,1.68,10.57,0C748.48,568.73,749.32,567.56,749.45,566.23L749.45,566.23z"/>
		<path class="st3" d="M739.5,568.5c-1.5-1.25-1.77-3.15-0.56-7.62c1.01-4.14,1.58-8.38,1.69-12.64h-3.03
			c0,8.97-3.03,15.02-3.07,17.95c0.11,1.35,0.95,2.53,2.19,3.08c3.32,1.68,7.25,1.68,10.57,0l0.59-0.39
			C745.11,570.12,740.92,569.73,739.5,568.5z"/>
		<path class="st3" d="M738.86,550.16c1.95,0.99,4.27,0.99,6.22,0c0.99-0.32,1.53-1.39,1.21-2.38c-0.19-0.57-0.64-1.02-1.21-1.21
			c-1.95-0.99-4.27-0.99-6.22,0c-0.99,0.32-1.53,1.39-1.21,2.38C737.84,549.53,738.29,549.98,738.86,550.16z"/>
		<ellipse class="st16" cx="741.96" cy="547.45" rx="3.57" ry="2.06"/>
		<path class="st7" d="M746.72,543.77c0,2.63-2.13,4.75-4.75,4.75c-2.63,0-4.75-2.13-4.75-4.75c0-2.63,2.13-4.75,4.75-4.75
			c2.62-0.01,4.74,2.1,4.75,4.72C746.72,543.75,746.72,543.76,746.72,543.77z"/>
		<path class="st3" d="M746.63,544.7c-1.11,2.13-3.62,3.12-5.88,2.33c-2.33-0.94-3.52-3.54-2.71-5.92c-1.47,2.17-0.91,5.13,1.26,6.6
			c2.17,1.47,5.13,0.91,6.6-1.26C746.26,545.92,746.51,545.33,746.63,544.7L746.63,544.7z"/>
	</g>
	<g id="freepik--white-token--inject-6">
		<path class="st8" d="M772.73,530.1c4.61,2.34,10.07,2.34,14.68,0c4.06-2.34,4.06-6.14,0-8.43c-4.61-2.34-10.07-2.34-14.68,0
			C768.66,523.97,768.66,527.76,772.73,530.1z"/>
		<path class="st0" d="M786.38,520.38c-3.97-2.01-8.66-2.01-12.63,0c-1.47,0.65-2.47,2.04-2.61,3.64v1.69
			c0.14,1.6,1.15,2.99,2.61,3.64c3.97,2.01,8.66,2.01,12.63,0c1.46-0.65,2.46-2.05,2.61-3.64v-1.69
			C788.84,522.42,787.84,521.03,786.38,520.38z"/>
		<path class="st1" d="M773.75,527.67c3.97,2.01,8.66,2.01,12.63,0c3.49-2.01,3.49-5.28,0-7.3c-3.97-2.01-8.66-2.01-12.63,0
			C770.26,522.4,770.26,525.67,773.75,527.67z"/>
		<ellipse class="st16" cx="780.06" cy="523.01" rx="7.7" ry="4.57"/>
		<path class="st0" d="M787.54,522.31L787.54,522.31c0-2.95-3.07-9-3.07-17.99h-8.82c0,8.95-3.05,15-3.07,17.95
			c0.12,1.35,0.95,2.53,2.19,3.08c3.33,1.67,7.24,1.67,10.57,0C786.58,524.81,787.41,523.65,787.54,522.31L787.54,522.31z"/>
		<path class="st1" d="M777.51,524.57c-1.5-1.25-1.77-3.15-0.56-7.6c1-4.14,1.57-8.38,1.69-12.64h-3.03c0,8.95-3.05,15-3.07,17.95
			c0.12,1.35,0.95,2.53,2.19,3.08c3.33,1.67,7.24,1.67,10.57,0l0.59-0.39C783.21,526.21,779.01,525.82,777.51,524.57z"/>
		<ellipse class="st1" cx="780.06" cy="504.38" rx="4.4" ry="2.55"/>
		<ellipse class="st16" cx="780.06" cy="503.52" rx="3.57" ry="2.06"/>
		<path class="st0" d="M784.81,499.84c0,2.63-2.13,4.75-4.75,4.75c-2.63,0-4.75-2.13-4.75-4.75c0-2.63,2.13-4.75,4.75-4.75
			C782.68,495.09,784.81,497.22,784.81,499.84L784.81,499.84z"/>
		<path class="st1" d="M784.71,500.79c-1.11,2.12-3.6,3.11-5.87,2.33c-2.33-0.95-3.51-3.55-2.71-5.93
			c-0.53,0.79-0.81,1.72-0.81,2.66c-0.03,2.62,2.06,4.76,4.68,4.79C782.3,504.66,784.28,503.04,784.71,500.79z"/>
	</g>
</g>
<g id="freepik--Food--inject-6">
	<g id="freepik--Soda--inject-6">
		<path class="st1" d="M994.33,470.56c-8.16,4.7-8.16,12.34,0,17.04c8.16,4.7,21.34,4.7,29.48,0c8.14-4.7,8.16-12.34,0-17.04
			C1015.66,465.86,1002.47,465.88,994.33,470.56z"/>
		<g id="freepik--Coffe--inject-6">
			<path class="st4" d="M1030.59,422.28h-43.14l4.4,56.69l0,0c0.19,2.07,1.8,4.11,4.91,5.68c6.57,3.37,17.45,3.37,24.26,0
				c3.2-1.57,4.87-3.61,5.06-5.68l0,0L1030.59,422.28z"/>
			<path class="st4" d="M1024.17,414.9c-8.56-4.08-22.22-4.08-30.51,0c-8.29,4.08-8.28,10.69,0,14.77c8.28,4.08,21.91,4.08,30.51,0
				C1032.77,425.59,1032.82,418.98,1024.17,414.9z"/>
			<g class="st20">
				<path d="M1024.17,414.9c-8.56-4.08-22.22-4.08-30.51,0c-8.29,4.08-8.28,10.69,0,14.77c8.28,4.08,21.91,4.08,30.51,0
					C1032.77,425.59,1032.82,418.98,1024.17,414.9z"/>
			</g>
			<path class="st3" d="M990.54,427.69c0.96,0.77,2.01,1.43,3.12,1.97c8.29,4.08,21.91,4.08,30.51,0c1.15-0.54,2.23-1.2,3.24-1.97
				c-1.14-1.04-2.44-1.89-3.84-2.53c-8.23-3.91-21.34-3.91-29.28,0C992.91,425.81,991.65,426.67,990.54,427.69z"/>
		</g>
	</g>
	<g id="freepik--soda--inject-6">
		<path class="st1" d="M447.57,539.27c-8.14,4.7-8.14,12.34,0,17.04c8.14,4.7,21.36,4.7,29.5,0c8.14-4.7,8.14-12.34,0-17.04
			C468.92,534.57,455.71,534.57,447.57,539.27z"/>
		<g id="freepik--coffe--inject-6">
			<path class="st4" d="M483.89,491.04h-43.14l4.4,56.69l0,0c0.2,2.07,1.82,4.11,4.91,5.68c6.59,3.37,17.46,3.37,24.27,0
				c3.2-1.57,4.87-3.61,5.06-5.68l0,0L483.89,491.04z"/>
			<g class="st21">
				<path class="st22" d="M483.89,491.04h-43.14l4.4,56.69l0,0c0.2,2.07,1.82,4.11,4.91,5.68c6.59,3.37,17.46,3.37,24.27,0
					c3.2-1.57,4.87-3.61,5.06-5.68l0,0L483.89,491.04z"/>
			</g>
			<path class="st4" d="M477.47,483.66c-8.58-4.08-22.23-4.08-30.51,0c-8.28,4.08-8.28,10.69,0,14.77c8.28,4.08,21.91,4.08,30.51,0
				S486.03,487.79,477.47,483.66z"/>
			<g class="st23">
				<path class="st22" d="M477.47,483.66c-8.58-4.08-22.23-4.08-30.51,0c-8.28,4.08-8.28,10.69,0,14.77
					c8.28,4.08,21.91,4.08,30.51,0S486.03,487.79,477.47,483.66z"/>
			</g>
			<g class="st24">
				<path d="M477.47,483.66c-8.58-4.08-22.23-4.08-30.51,0c-8.28,4.08-8.28,10.69,0,14.77c8.28,4.08,21.91,4.08,30.51,0
					S486.03,487.79,477.47,483.66z"/>
			</g>
			<path class="st3" d="M443.84,496.45c0.96,0.78,2.01,1.44,3.12,1.97c8.28,4.08,21.91,4.08,30.51,0c1.15-0.54,2.24-1.2,3.24-1.99
				c-1.15-1.02-2.45-1.87-3.84-2.51c-8.23-3.91-21.34-3.91-29.28,0C446.21,494.57,444.95,495.42,443.84,496.45z"/>
		</g>
	</g>
	<g id="freepik--Pizza--inject-6">
		<path class="st1" d="M894.59,524.52c-37.51,21.66-37.51,56.76,0,78.4c37.51,21.64,98.29,21.66,135.8,0
			c37.51-21.66,37.49-56.74,0-78.4C992.9,502.86,932.13,502.96,894.59,524.52z"/>
		<g id="freepik--Plate--inject-6">
			<path class="st4" d="M1028.47,520.06c-36.78-21.22-96.41-21.22-133.17,0l0,0v-3.83c-19.23,11.11-28.39,25.83-27.51,40.37
				c-0.88,14.55,8.28,29.25,27.49,40.36c36.78,21.24,96.42,21.24,133.17,0S1065.25,541.3,1028.47,520.06z"/>
			<path class="st4" d="M1028.47,516.25c36.78,21.22,36.77,55.63,0,76.89s-96.42,21.24-133.17,0c-36.75-21.24-36.77-55.63,0-76.9
				C932.06,494.95,991.68,495.01,1028.47,516.25z"/>
			<path class="st5" d="M1028.47,516.25c36.78,21.22,36.77,55.63,0,76.89s-96.42,21.24-133.17,0c-36.75-21.24-36.77-55.63,0-76.9
				C932.06,494.95,991.68,495.01,1028.47,516.25z"/>
			<path class="st4" d="M916.7,523.63c-25.29,14.6-25.29,38.25,0,52.85c25.29,14.6,66.27,14.6,91.53,0
				c25.27-14.6,25.29-38.25,0-52.85C982.95,509.03,941.99,509.03,916.7,523.63z"/>
			<path class="st4" d="M916.7,523.63c-25.29,14.6-25.29,38.25,0,52.85c25.29,14.6,66.27,14.6,91.53,0
				c25.27-14.6,25.29-38.25,0-52.85C982.95,509.03,941.99,509.03,916.7,523.63z"/>
			<path class="st4" d="M919.87,525.43c-23.6,13.6-23.6,35.65,0,49.24c23.6,13.59,61.75,13.6,85.3,0c23.55-13.6,23.6-35.64,0-49.24
				C981.57,511.83,943.37,511.83,919.87,525.43z"/>
			<path class="st5" d="M919.87,525.43c-23.6,13.6-23.6,35.65,0,49.24c23.6,13.59,61.75,13.6,85.3,0c23.55-13.6,23.6-35.64,0-49.24
				C981.57,511.83,943.37,511.83,919.87,525.43z"/>
		</g>
		<path class="st8" d="M876.57,552.25c-1.03,7.72,2.38,15.27,5.7,22.34c1.57,4.54,4.98,8.21,9.39,10.11l11.8,6.56
			c1.07,0.71,2.29,1.16,3.56,1.33c2.55,0.15,4.38-2.19,6.47-3.64c16.08-11.24,49.34-31.66,49.34-31.66s0.84,4.55,1.08,6.05
			c0.84,5.36,1.51,10.75,1.99,16.17c0.49,5.53,0.67,11.56-2.51,16.12c-1.21,1.69-2.95,3.37-3.22,5.43c-0.05,2.6,1.59,4.94,4.06,5.77
			c2.43,0.75,4.99,0.96,7.5,0.61c4.87-0.21,9.71-0.77,14.5-1.69c11.23-2.43,21.21-8.63,30.93-14.73c-3.05-3.37-7.43-5.06-11.58-6.91
			c-12.86-6.04-24.74-14-35.21-23.6c14.41,0.88,45.4,2.75,66.22,2.39c1.92,0.01,3.81-0.46,5.5-1.38c2.77-1.34,4-4.61,2.82-7.45
			c-0.68-1.45-1.6-2.76-2.73-3.89l-18.05-20.23c-1.91-2.33-4.08-4.42-6.47-6.25c-2.99-1.95-6.22-3.5-9.61-4.6
			c-10.54-3.93-21.43-7.94-32.67-7.57c-0.72-0.02-1.43,0.13-2.07,0.46c-0.78,0.63-1.3,1.54-1.45,2.53
			c-3.37,12.26,0,25.79-4.57,37.61c-0.26,0.96-0.86,1.8-1.69,2.36c-1.01,0.51-2.56-0.51-3.64-0.84
			c-10.69-3.37-21.02-6.05-31.71-9.41c-4.17-1.17-8.22-2.73-12.09-4.67c-4.1-2.21-7.72-5.26-12-7.11
			C893.14,526.76,878.29,539.47,876.57,552.25z"/>
		<path class="st25" d="M961.88,553.53l0.13,3.37c5.16,0.76,10.37,1.16,15.59,1.18c9.98,0.19,53.47,1.82,55.54,0.47
			c3.37-2.14-0.69-7.15-0.69-7.15h-68.9L961.88,553.53z"/>
		<path class="st25" d="M932.23,571.87c1.58-0.99,13.49-8.06,15.04-9.07c2.53-1.69,5.06-3.29,7.45-5.06
			c0.93-0.71,1.69-1.4,0.81-4.23c-0.92-0.34-1.88-0.58-2.85-0.74c-3.15-0.29-6.32,0.15-9.27,1.28c-6.54,2.11-12.76,5.06-19.13,7.57
			c-4.86,1.64-9.53,3.81-13.91,6.49c-2.76,2.02-5.34,4.27-7.7,6.74c-1.6,1.29-2.74,3.06-3.24,5.06c-0.39,2.85,0.96,7.43,3.83,7.82
			C913.26,583.12,922.94,577.82,932.23,571.87z"/>
		<path class="st26" d="M1015.72,522.31c2.09-1.12,4.58-1.21,6.74-0.24c1.62,0.75,3.07,1.84,4.25,3.19
			c1.69,1.94,3.89,1.82,8.82,5.31c2.77,1.63,4.79,4.28,5.63,7.38c0.78,1.6,0.27,3.67,0.84,5.38c0.57,1.7,2.19,3.03,3,4.72
			c0.81,1.55,1.05,3.34,0.69,5.06c-0.41,1.75-1.79,3.1-3.54,3.49c-0.57,0.1-1.15,0-1.69,0.2c-0.69,0.26-1.34,0.59-1.96,0.99
			c-1.45,0.74-3.59,1.69-5.06,0.84c-1.69-0.98-2.04-2.53-2.04-5.06c-0.72-1.97-2.83-3.94-4.06-5.65l-7.18-9.98
			c-0.56-0.79-9.02-12.81-9.14-12.73L1015.72,522.31z"/>
		<path class="st8" d="M1023.21,542.14c0.35,0.52,0.72,1.03,1.1,1.53c0.86,1.2,1.69,2.41,2.6,3.61c0.25,0.37,0.51,0.72,0.78,1.06
			l0.08,0.1c0.29,0.37,0.62,0.72,0.98,1.03c0.56,0.44,0.99,1.02,1.23,1.69c0.61,0.74,1.11,1.57,1.48,2.46
			c0,2.53,0.32,4.08,2.04,5.06c1.42,0.81,3.56-0.1,5.06-0.84c0.61-0.4,1.27-0.73,1.96-0.99c0.56-0.13,1.13-0.1,1.69-0.2
			c1.75-0.39,3.13-1.74,3.54-3.49c0.36-1.71,0.12-3.5-0.69-5.06c-0.44-0.81-0.95-1.58-1.53-2.29c0.55,1.27,0.23,2.76-0.79,3.69
			c-1.3,0.83-5.44,0.37-7.15-0.52c-1.7-0.89-1.03-3.67-1.55-4.96c-0.52-1.28-2.98-2.24-2.53-4.94c0.46-2.7-1.25-4.8-5.18-6.12
			c-3.93-1.31-4.55-3.02-6.14-4.7s-5.95-2.31-9.1-2.9c0.12-0.08,8.56,11.92,9.14,12.71C1021.2,539.37,1022.21,540.76,1023.21,542.14
			z"/>
		<path class="st25" d="M1011.07,525.26c4.1,2.31,7.88,5.14,11.24,8.43l0.13,0.15l0.44,0.46l0,0c5.44,5.71,8.55,12.29,8.55,19.27
			H961.9l4.94-2.85l1.8-1.05l0.24-0.13L1011.07,525.26z"/>
		<path class="st17" d="M1011.07,525.26c4.1,2.31,7.88,5.14,11.24,8.43l0.13,0.15l0.44,0.46l0,0c5.44,5.71,8.55,12.29,8.55,19.27
			H961.9l4.94-2.85l1.8-1.05l0.24-0.13L1011.07,525.26z"/>
		<path class="st26" d="M961.58,509.54c-0.13-1.5,1.85-2.78,4.47-2.92c2.32-0.11,4.64,0.06,6.91,0.52c3.59,0.66,4.97-0.3,12.76,0.17
			c1.85,0.06,3.69,0.33,5.48,0.79c1.69,0.54,3.52,0.89,5.41,1.28c0.5,0.08,0.99,0.19,1.48,0.32c3.96,1.01,5.87,3.66,9.88,4.6
			l0.96,0.19c0.34,0,0.69,0,1.05,0.08c5.18,0.12,9.02,5.85,6.89,7.06c-2.12,1.21-5.8,3.62-5.8,3.62l-49.19-11.8L961.58,509.54z"/>
		<path class="st8" d="M961.88,513.51c2.97-0.88,6.74-2.28,10.01-1.69c3.27,0.59,5.71,1.53,10.11,0.88
			c3.87-0.76,7.88,0.03,11.16,2.21c3,2.09,5.93,1.79,7.87,2.46c1.94,0.67,4.87,2.92,7.16,2.87c2.29-0.05,5.78-1.43,5.7-2.55
			c-0.08-1.11-2.65-2.65-5.06-3.24c0.34,0,0.69,0,1.05,0.08c5.18,0.12,9.02,5.85,6.89,7.06c-2.12,1.21-5.8,3.62-5.8,3.62
			L961.88,513.51z"/>
		<path class="st25" d="M961.88,513.51c6.14-0.01,12.27,0.47,18.34,1.42h0.29l0.88,0.15l0,0c10.41,1.59,20.45,5.02,29.67,10.11
			l-49.17,28.35v-5.51c-0.01-0.06-0.01-0.12,0-0.19V513.51z"/>
		<path class="st17" d="M961.88,513.51c6.14-0.01,12.27,0.47,18.34,1.42h0.29l0.88,0.15l0,0c10.41,1.59,20.45,5.02,29.67,10.11
			l-49.17,28.35v-5.51c-0.01-0.06-0.01-0.12,0-0.19V513.51z"/>
		<path class="st26" d="M962.22,509.54c0.12-1.5-1.87-2.78-4.48-2.92c-2.31-0.11-4.63,0.06-6.89,0.52
			c-3.61,0.66-5.06-0.3-12.78,0.17c-1.84,0.06-3.68,0.33-5.46,0.79c-1.69,0.54-3.52,0.89-5.43,1.28c-0.49,0.08-0.98,0.19-1.47,0.32
			c-3.98,1.01-5.87,3.66-9.9,4.6l-0.96,0.19c-0.35,0.05-0.7,0.07-1.05,0.08c-5.18,0.12-9.02,5.85-6.89,7.06
			c2.12,1.21,5.8,3.62,5.8,3.62l49.19-11.8L962.22,509.54z"/>
		<path class="st8" d="M961.9,513.51c-2.95-0.88-6.74-2.28-10.01-1.69s-5.71,1.53-10.11,0.88c-3.87-0.76-7.88,0.03-11.16,2.21
			c-2.98,2.09-5.93,1.79-7.86,2.46c-1.92,0.67-4.87,2.92-7.16,2.87c-2.29-0.05-5.8-1.43-5.7-2.55s2.65-2.65,4.97-3.24
			c-0.35,0.05-0.7,0.07-1.05,0.08c-5.18,0.12-9.02,5.85-6.89,7.06c2.12,1.21,5.8,3.62,5.8,3.62L961.9,513.51z"/>
		<path class="st25" d="M961.9,513.51c-6.14,0-12.27,0.47-18.34,1.42h-0.27l-0.88,0.15l0,0c-10.41,1.6-20.45,5.02-29.67,10.11
			l49.19,28.35v-40.04H961.9z"/>
		<path class="st17" d="M961.9,513.51c-6.14,0-12.27,0.47-18.34,1.42h-0.27l-0.88,0.15l0,0c-10.41,1.6-20.45,5.02-29.67,10.11
			l49.19,28.35v-40.04H961.9z"/>
		<path class="st26" d="M885.45,553.8c-2.63,0-6.12-0.86-6.32-2.36c-0.2-1.5,1.4-2.85,2.16-4.2c0.91-1.69,0-3.37,0-5.06
			c0.02-0.79,0.1-1.57,0.25-2.34c0.13-0.72,0.5-1.38,1.05-1.87c1.22-1.34,2.24-2.86,3-4.5c0.21-0.56,0.5-1.09,0.86-1.57
			c1.69-1.96,4.53-2.11,6.12-4.08c0.7-1.24,1.33-2.52,1.9-3.83c0.78-1.06,1.8-1.92,2.98-2.49c0.82-0.51,1.71-0.89,2.65-1.15
			c0.84-0.16,1.69-0.21,2.55-0.13c1.95,0.09,3.87,0.55,5.65,1.37c1.59,0.71,2.97,1.81,4.01,3.2c0.42,0.59,0.25,0.69-0.1,1.16
			l-1.96,2.73l-7,9.68l-7.45,10.37c-1.15,1.69-2.31,3.22-3.46,4.82L885.45,553.8z"/>
		<path class="st8" d="M903.25,538.36l3.27-4.55l5.97-8.29c0.17-0.25,0.19-0.42-0.13-0.86c-1.04-1.39-2.42-2.49-4.01-3.2
			c-1.78-0.81-3.69-1.28-5.65-1.37c-0.85-0.07-1.71-0.03-2.55,0.13c-0.93,0.26-1.82,0.64-2.65,1.15c-1.18,0.58-2.21,1.43-2.98,2.49
			c-0.08,0.12-0.15,0.25-0.2,0.39c1.15-0.85,2.43-1.52,3.78-2.01c1.78-0.66,3.76-0.51,5.41,0.42c0.52,0.3,0.93,0.76,1.16,1.31
			c0.23,0.85,0.11,1.77-0.34,2.53c-1.11,2.28-3.49,2.83-5.23,4.47c-1.2,1.11-0.64,2.8-4.26,4.52c-3.62,1.72-5.06,3.89-3.86,6.44
			c1.2,2.55-0.42,3.93-1.5,5.85c-1.08,1.92,1.35,4.06,2.87,5.77c1.15-1.6,2.31-3.2,3.46-4.82L903.25,538.36z"/>
		<path class="st25" d="M892.35,553.62c0.02-3.66,0.85-7.27,2.44-10.57l0.08-0.17c0.07-0.18,0.16-0.34,0.25-0.51l0,0
			c3.15-6.25,9.02-12.15,17.58-17.09l49.19,28.35h-69.55V553.62z"/>
		<path class="st17" d="M892.35,553.62c0.02-3.66,0.85-7.27,2.44-10.57l0.08-0.17c0.07-0.18,0.16-0.34,0.25-0.51l0,0
			c3.15-6.25,9.02-12.15,17.58-17.09l49.19,28.35h-69.55V553.62z"/>
		<path class="st26" d="M908.07,584.9c-2.09,1.13-4.58,1.22-6.74,0.24c-1.63-0.74-3.08-1.82-4.25-3.17
			c-1.41-1.19-3.01-2.15-4.74-2.82c-3.05-1.57-5.28-3.2-6.2-5.53c-0.38-1.28-0.94-2.49-1.69-3.59c-0.89-1.16-2.19-2.17-2.53-3.46
			c-0.34-1.28,0.08-2.68-0.84-3.96c-0.13-0.18-0.29-0.35-0.46-0.51c-0.19-0.19-0.41-0.35-0.64-0.49c-3.51-2.21,0.57-8.01,3.57-8.01
			h8.77l20.36,28.35L908.07,584.9z"/>
		<path class="st26" d="M886.16,572.28c0.03,3.81,2.04,7.32,5.31,9.27c1.11,0.64,2.34,1.08,3.37,1.79c1.85,1.21,3.14,3.15,4.96,4.43
			c3.05,2.1,7.07,2.1,10.11,0c1.11-0.75,1.95-1.83,2.43-3.08c0.47-1.27,0.31-2.69-0.42-3.83"/>
		<path class="st8" d="M912.71,581.97c-3.15-0.59-7.5-1.11-9.1-2.92c-1.6-1.8-2.14-3.37-6.09-4.74c-3.94-1.37-5.63-3.37-5.18-6.12
			c0.46-2.75-2.02-3.67-2.55-4.96c-0.52-1.28,0.13-4.05-1.55-4.94s-5.85-1.35-7.15-0.52c-1.19,1.14-1.38,2.97-0.46,4.33
			c-0.19-0.19-0.41-0.35-0.64-0.49c-3.51-2.21,0.57-8.01,3.57-8.01h8.77L912.71,581.97z"/>
		<path class="st25" d="M912.71,581.97c-4.1-2.3-7.88-5.13-11.23-8.43l-0.13-0.13l-0.46-0.47l0,0c-5.46-5.71-8.55-12.29-8.55-19.27
			h69.55l-4.94,2.8l-1.82,1.05l-0.24,0.13L912.71,581.97z"/>
		<path class="st17" d="M912.71,581.97c-4.1-2.3-7.88-5.13-11.23-8.43l-0.13-0.13l-0.46-0.47l0,0c-5.46-5.71-8.55-12.29-8.55-19.27
			h69.55l-4.94,2.8l-1.82,1.05l-0.24,0.13L912.71,581.97z"/>
		<path class="st26" d="M1018.37,587.25c0.01,0.11,0.01,0.22,0,0.34c-0.23,2.73-2.16,5.01-4.82,5.68c-2.04,0.59-4.3,0.35-6.25,1.2
			c-1.96,0.84-3.74,3.17-6.07,3.74c-1.8,0.42-3.76-0.24-5.55,0.24c-1.2,0.48-2.36,1.04-3.47,1.69c-3.98,1.69-8.24-0.93-12.17,0.71
			c-1.31,0.54-2.46,1.43-3.79,1.94c-1.63,0.52-3.35,0.73-5.06,0.61c-2.48,0.05-4.96-0.17-7.4-0.66c-0.6-0.1-1.17-0.32-1.69-0.64
			c-1.1-0.83-1.73-2.15-1.69-3.52c-0.05-1.68,0.51-3.32,1.58-4.62c0.62-0.44,1.36-0.71,2.12-0.76l2.95-0.69l12.51-2.98l14.78-3.54
			l12.1-2.88c3.12-0.76,6.52-2.07,9.46,0C1017.33,584.03,1018.23,585.56,1018.37,587.25z"/>
		<path class="st8" d="M1006.03,587.25c3.08-0.91,4-3.37,5.06-5.18l-0.74,0.12l-6.12,1.45l-15.56,3.73l-16.54,3.91l-5.41,1.28
			l-2.04,0.49l0,0l-0.44,0.1c-0.76,0.05-1.5,0.31-2.12,0.76c-1.07,1.3-1.63,2.94-1.58,4.62c-0.04,1.38,0.59,2.69,1.69,3.52
			c0.52,0.32,1.09,0.54,1.69,0.64c2.44,0.49,4.92,0.71,7.4,0.66c1.71,0.12,3.42-0.09,5.06-0.61c0.42-0.16,0.82-0.35,1.21-0.57
			c-1.11,0.23-2.24,0.35-3.37,0.37c-0.88,0.05-1.77-0.06-2.61-0.32c-1.37-0.52-2.46-1.57-3.03-2.92c-0.3-1.3,0.33-2.64,1.53-3.24
			c1.57-0.96,6.37-0.59,8.58-0.89s3.89-1.69,8.58-1.47c4.69,0.22,8.31-0.71,10.62-2.97S1002.91,588.12,1006.03,587.25z"/>
		<path class="st25" d="M1011.07,581.97c-4.67,2.65-9.59,4.81-14.7,6.47l-0.24,0.08l-0.81,0.25l0,0
			c-10.74,3.38-21.95,5.09-33.21,5.06l-0.2-40.29l4.94,2.85l1.8,1.05l0.24,0.13L1011.07,581.97z"/>
		<path class="st17" d="M1011.07,581.97c-4.67,2.65-9.59,4.81-14.7,6.47l-0.24,0.08l-0.81,0.25l0,0
			c-10.74,3.38-21.95,5.09-33.21,5.06l-0.2-40.29l4.94,2.85l1.8,1.05l0.24,0.13L1011.07,581.97z"/>
		<g class="st27">
			<path d="M981.4,515.12c10.41,1.59,20.45,5.02,29.67,10.11l-49.17,28.35v-4.03c0.27,0.93,2.04,0,11.24-5.28
				c12.66-7.3,28.91-17.13,30.11-18.8C1004.45,523.81,988.48,516.45,981.4,515.12z"/>
			<path d="M961.9,548.11v5.43c0-0.29-3.84-30.97-5.97-35.25c-2.12-4.28-21.32-1.58-21.8-1.52c2.7-0.67,5.44-1.24,8.24-1.69l0,0
				l0.88-0.15h0.27c6.07-0.95,12.2-1.42,18.34-1.42v34.59H961.9z"/>
			<path d="M895.13,542.36c3.15-6.25,9.02-12.15,17.58-17.09l49.19,28.35h-6.98c1.6-0.17,0-1.18-9.15-6.49
				c-12.68-7.3-29.7-16.67-32.62-17.36S897.52,538.36,895.13,542.36z"/>
			<path d="M900.89,572.89c-5.46-5.71-8.55-12.29-8.55-19.27h69.55l-4.94,2.85c0.94-0.78-1.4-0.86-14.43-0.86
				c-17.9,0-41.44,0.32-44.35,1.01S897.59,569.03,900.89,572.89z"/>
			<path d="M995.31,588.78c-10.74,3.38-21.95,5.09-33.21,5.06l-0.2-40.29l4.94,2.85c-1.33-0.56-1.5,0.81-1.5,8.31
				c0,10.33,0.57,23.89,1.69,25.57C968.14,591.97,988.62,590.62,995.31,588.78z"/>
		</g>
		<path class="st10" d="M989.48,540.05c0.88,0.46,1.61,1.17,2.09,2.04c0.81,1.69,0.1,3.37-2.09,4.67c-3.66,1.85-7.98,1.85-11.63,0
			c-1.42-0.6-2.35-1.97-2.39-3.51c0.2-1.41,1.1-2.62,2.39-3.2C981.5,538.21,985.82,538.21,989.48,540.05z"/>
		<path class="st10" d="M973.51,564.29c0.88,0.46,1.61,1.17,2.09,2.04c0.79,1.69,0.1,3.37-2.09,4.67c-3.66,1.85-7.98,1.85-11.63,0
			c-1.42-0.61-2.35-1.98-2.41-3.52c0.21-1.4,1.12-2.6,2.41-3.19C965.54,562.44,969.86,562.44,973.51,564.29z"/>
		<path class="st10" d="M1012.27,536.15c1.35-0.01,2.7,0.18,4,0.57c2.55,0.78,4.3,2.33,4.35,4.11c0,2.61-3.56,4.77-8.11,4.8
			c-2.11,0.07-4.2-0.43-6.05-1.45c-1.27-0.61-2.13-1.82-2.29-3.22C1004.16,538.36,1007.72,536.2,1012.27,536.15z"/>
		<path class="st10" d="M923.7,558.35c-0.87-0.46-1.58-1.17-2.06-2.04c-0.79-1.69,0-3.37,2.14-4.67c3.66-1.85,7.98-1.85,11.63,0
			c1.41,0.61,2.33,1.99,2.36,3.52c-0.21,1.41-1.13,2.61-2.43,3.19C931.69,560.21,927.36,560.21,923.7,558.35z"/>
		<path class="st10" d="M922.65,532.97c0.97,0.54,1.74,1.37,2.21,2.38c0.79,1.84-0.13,3.86-2.73,5.24c-4.2,2.01-9.11,1.9-13.22-0.3
			c-1.56-0.74-2.52-2.34-2.44-4.06c0.36-1.6,1.46-2.92,2.97-3.56C913.64,530.65,918.55,530.76,922.65,532.97z"/>
		<path class="st10" d="M947.94,519.3c0.98,0.54,1.78,1.37,2.28,2.38c0.79,1.84-0.15,3.88-2.73,5.24c-4.2,2.01-9.11,1.9-13.22-0.3
			c-1.57-0.72-2.53-2.32-2.44-4.05c0.35-1.6,1.46-2.93,2.97-3.57C938.98,517.02,943.85,517.13,947.94,519.3z"/>
		<path class="st10" d="M954.89,536.54c0.96,0.55,1.73,1.38,2.21,2.38c0.78,1.84-0.15,3.86-2.73,5.24c-4.2,2.01-9.11,1.9-13.22-0.3
			c-1.57-0.73-2.54-2.34-2.46-4.06c0.36-1.6,1.47-2.92,2.98-3.56C945.87,534.22,950.78,534.34,954.89,536.54z"/>
		<path class="st10" d="M987.49,519.04c1.35-0.02,2.69,0.16,3.98,0.56c2.56,0.78,4.32,2.33,4.37,4.11c0,2.61-3.56,4.77-8.11,4.8
			c-2.11,0.07-4.2-0.43-6.05-1.45c-1.27-0.61-2.13-1.82-2.29-3.22C979.31,521.24,982.94,519.08,987.49,519.04z"/>
		<path class="st10" d="M982.94,579.44c0.69-0.82,1.57-1.45,2.56-1.84c2.64-1.06,5.56-1.24,8.31-0.52c4.15,1.06,5.98,3.88,4.11,6.27
			c-1.28,1.38-2.99,2.27-4.85,2.53c-1.99,0.4-4.05,0.34-6.02-0.15C982.9,584.65,981.06,581.84,982.94,579.44z"/>
		<path class="st10" d="M910.97,561.41c1.35-0.02,2.69,0.16,3.98,0.56c2.56,0.79,4.32,2.33,4.37,4.11c0,2.63-3.56,4.77-8.11,4.82
			c-2.11,0.07-4.2-0.44-6.05-1.47c-1.27-0.6-2.13-1.81-2.29-3.2C902.8,563.65,906.39,561.44,910.97,561.41z"/>
	</g>
	<g id="freepik--Popcorn--inject-6">
		<path class="st1" d="M359.91,588.06c-21.17,12.22-21.17,32.03,0,44.27c21.17,12.24,55.49,12.22,76.67,0
			c21.17-12.22,21.17-32.03,0-44.27C415.4,575.82,381.08,575.84,359.91,588.06z"/>
		<path class="st4" d="M334.4,565c0.01,35.26,28.6,63.83,63.86,63.82c35.24-0.01,63.8-28.58,63.82-63.82H334.4z"/>
		<path class="st11" d="M334.4,565c0.01,35.26,28.6,63.83,63.86,63.82c35.24-0.01,63.8-28.58,63.82-63.82H334.4z"/>
		<path class="st4" d="M353.1,538.94c-24.93,14.38-24.93,37.73,0,52.12c24.93,14.4,65.36,14.41,90.29,0
			c24.93-14.41,24.95-37.71,0-52.12C418.44,524.52,378.05,524.54,353.1,538.94z"/>
		<path class="st4" d="M356.84,542.05c-22.88,12.66-22.89,33.21,0,45.89s59.96,12.69,82.85,0c22.89-12.69,22.88-33.23,0-45.9
			C416.82,529.36,379.7,529.38,356.84,542.05z"/>
		<path class="st11" d="M356.84,542.05c-22.88,12.66-22.89,33.21,0,45.89s59.96,12.69,82.85,0c22.89-12.69,22.88-33.23,0-45.9
			C416.82,529.36,379.7,529.38,356.84,542.05z"/>
		<path class="st8" d="M356.84,542.05c-22.88,12.66-22.89,33.21,0,45.89c1.8,0.99,3.64,1.89,5.53,2.7c0-0.1,2.7-13.7,5.97-31.47
			c2.21-12,12.22-23.6,29.35-26.6C382.87,532.65,368.12,535.8,356.84,542.05z"/>
		<path class="st4" d="M448.95,560.85L448.95,560.85L448.95,560.85L448.95,560.85z"/>
		<path class="st22" d="M455.81,562.37c0.56-0.69,0.86-1.54,0.86-2.43c0.02-2.16-1.72-3.93-3.88-3.94
			c-1.08-0.01-2.12,0.43-2.87,1.21c0-0.4,0-0.79,0-1.2c0-6.57-5.33-11.9-11.9-11.9c-2.05,0-4.07,0.53-5.87,1.53
			c1.15-2.6-0.02-5.65-2.63-6.81c-0.68-0.3-1.41-0.45-2.15-0.44c-0.94,0-1.86,0.25-2.66,0.72c0.09-0.61,0.14-1.22,0.15-1.84
			c-0.02-7.45-6.08-13.47-13.53-13.44c-5.02,0.02-9.61,2.82-11.92,7.27c-1.02-2.38-3.78-3.48-6.15-2.46
			c-1.11,0.47-1.99,1.35-2.46,2.46c-3.07-4.96-9.59-6.49-14.55-3.42c-3.11,1.93-5,5.32-5,8.98c0,0.53,0.05,1.05,0.15,1.57
			c-0.7-0.57-1.57-0.88-2.48-0.89c-2.16,0.01-3.91,1.77-3.91,3.93l0,0c-4.48-2.6-10.21-1.07-12.81,3.4
			c-0.61,1.06-1.02,2.23-1.18,3.44c-0.66-0.26-1.36-0.39-2.07-0.39c-0.25-0.02-0.49-0.02-0.74,0c-0.08-0.02-0.17-0.02-0.25,0
			c-0.24,0.02-0.47,0.07-0.69,0.15c-0.17,0.06-0.34,0.13-0.51,0.22c-2.04,1.08-3.39,3.13-3.57,5.43c-0.04,0.25-0.04,0.5,0,0.74
			c-0.01,0.12-0.01,0.25,0,0.37c0.04,0.2,0.1,0.39,0.17,0.57c0,0.22,0.12,0.44,0.2,0.69l0.13,0.34c0.42,0.99,1.07,1.88,1.89,2.58
			c0.23,0.2,0.47,0.39,0.72,0.57c-4.72,1.44-7.99,5.74-8.13,10.67c-0.3,6.22,4.05,9.83,10.28,11.99c2.73,2.39,5.73,4.45,8.93,6.15
			c22.79,12.63,59.74,12.64,82.6,0c3.89-2.08,7.43-4.75,10.5-7.92c2.06-0.44,6.22-1.45,8.56-8.31
			C460.15,568.41,458.84,564.54,455.81,562.37z M448.95,560.85L448.95,560.85L448.95,560.85L448.95,560.85z"/>
		<path class="st28" d="M450.4,580.34c-3.07,3.17-6.61,5.84-10.5,7.92c-22.81,12.63-59.76,12.61-82.6,0
			c-3.21-1.7-6.2-3.76-8.93-6.15c-7.13-0.74-10.59-5.77-10.28-11.99c0.14-4.93,3.41-9.23,8.13-10.67c-0.25-0.18-0.49-0.37-0.72-0.57
			c-0.82-0.7-1.47-1.59-1.89-2.58l-0.13-0.34c-0.08-0.25-0.15-0.47-0.2-0.69c-0.05-0.18-0.08-0.37-0.1-0.56
			c-0.01-0.12-0.01-0.25,0-0.37c-0.04-0.25-0.04-0.5,0-0.74c0.21-2.3,1.58-4.34,3.64-5.39c0.16-0.09,0.33-0.16,0.51-0.22
			c0.22-0.08,0.46-0.13,0.69-0.15c0.08-0.02,0.17-0.02,0.25,0c0.25-0.02,0.49-0.02,0.74,0c0.71,0,1.41,0.13,2.07,0.39
			c0.61-4.69,4.61-8.19,9.34-8.18c-5.8,3.03-6.61,14.16,4.72,15.74c-0.04,1.77,0.79,3.45,2.23,4.48c1.71,0.91,3.72,1.11,5.58,0.57
			c0,0-4.57,7.06,0.84,12.19c3.13,2.98,7.72,3.86,11.73,2.24c0,0,0.27,5.85,3.98,7.82c3.71,1.97,5.71,0.24,5.88,0.1
			c0.17-0.13-1.25,2.11,2.46,3.03c2.14,0.59,4.39-0.54,5.19-2.61c0,0,4.23,7.97,11.53,6.64c4.11-0.61,7.44-3.65,8.43-7.69
			c0.93,1.91,2.95,3.03,5.06,2.82c3.73-0.27,4.4-4.69,4.4-4.69S439,587.94,450.4,580.34z"/>
		<path class="st1" d="M395.34,583.2c-2.12,2.91-6.2,3.56-9.11,1.44c-1.69-1.23-2.68-3.18-2.69-5.27c0-2.94,1.97-5.51,4.8-6.27
			c-2.11,2.9-1.48,6.96,1.42,9.07c1.12,0.81,2.46,1.25,3.84,1.25C394.19,583.42,394.77,583.34,395.34,583.2z"/>
		<path class="st1" d="M402.98,583.62c0.24,2.32-1.45,4.4-3.77,4.64c-2.32,0.24-4.4-1.45-4.64-3.77c-0.1-0.94,0.12-1.89,0.63-2.69
			c0.11,0.88,0.48,1.71,1.08,2.38c1.58,1.74,4.28,1.87,6.02,0.29c0.28-0.25,0.52-0.54,0.72-0.85L402.98,583.62z"/>
		<path class="st1" d="M377.07,552.81c1.97,3.01,1.13,7.04-1.88,9.01c-3.01,1.97-7.04,1.13-9.01-1.88c-0.81-1.24-1.18-2.72-1.03-4.2
			c0.75,1.15,1.84,2.03,3.12,2.51c3.35,1.29,7.12-0.38,8.41-3.73c0.01-0.01,0.01-0.03,0.02-0.04
			C376.89,553.94,377.02,553.38,377.07,552.81z"/>
		<path class="st1" d="M366.96,558.98c1.08,2.07,0.27,4.63-1.8,5.71c-2.07,1.08-4.63,0.27-5.71-1.8c-0.44-0.85-0.58-1.82-0.4-2.76
			c0.41,0.8,1.06,1.44,1.85,1.84c2.1,1.03,4.64,0.17,5.68-1.92C366.75,559.7,366.87,559.35,366.96,558.98z"/>
		<path class="st1" d="M434.38,568.47c0.22,3.59-2.51,6.67-6.1,6.89s-6.67-2.51-6.89-6.1c-0.09-1.48,0.33-2.95,1.19-4.16
			c0.07,1.37,0.58,2.69,1.47,3.74c2.29,2.76,6.38,3.16,9.15,0.89C433.65,569.37,434.05,568.94,434.38,568.47z"/>
		<path class="st1" d="M441.36,565.33c0.24,2.32-1.45,4.4-3.77,4.64c-2.32,0.24-4.4-1.45-4.64-3.77c-0.1-0.94,0.12-1.89,0.63-2.69
			c0.26,2.33,2.37,4.01,4.7,3.74c0.88-0.1,1.71-0.47,2.37-1.06C440.91,565.94,441.16,565.65,441.36,565.33z"/>
		<path class="st1" d="M423.01,558.25c1.22,0.6,2.07,1.75,2.29,3.08c0.39,2.3-1.15,4.49-3.46,4.88c-1.9,0.32-3.77-0.67-4.57-2.42
			c2.09,1.04,4.63,0.18,5.67-1.91c0.39-0.8,0.53-1.69,0.38-2.57C423.27,558.95,423.16,558.59,423.01,558.25z"/>
	</g>
</g>
<g id="freepik--speech-bubbles--inject-6">
	<g>
		<g id="freepik--speech-bubble--inject-6">
			<path class="st4" d="M486.54,123.32l-5.92-11.11l4.75-13.72v-8.43l-14.55,8.43v8.43l6.25,10.84c0.1,0.17,0.26,0.3,0.44,0.37l0,0
				L486.54,123.32z"/>
			<path class="st11" d="M486.54,123.32l-5.92-11.11l4.75-13.72v-8.43l-14.55,8.43v8.43l6.25,10.84c0.1,0.17,0.26,0.3,0.44,0.37l0,0
				L486.54,123.32z"/>
			<path class="st4" d="M515.42,16.63c-0.15-3.08-1.77-5.9-4.35-7.59l-3.56-2.06c-2.75-1.38-5.99-1.38-8.73,0l-50.57,29.23
				c-2.58,1.68-4.2,4.48-4.37,7.55v70.06c0.17,3.07,1.79,5.87,4.37,7.55l3.54,2.04c2.74,1.4,5.99,1.4,8.73,0l19.42-11.24l6.25,10.81
				c0.25,0.45,0.82,0.61,1.26,0.36c0.2-0.11,0.35-0.29,0.42-0.51l6.59-19.05L511,94.21c2.61-1.68,4.25-4.52,4.42-7.62V16.63z"/>
			<path class="st11" d="M443.81,113.83c0.17,3.07,1.79,5.87,4.37,7.55l3.54,2.04c2.49,1.25,5.4,1.38,7.99,0.35
				c-2.06,0.78-3.62-0.39-3.62-2.87V50.88c0.06-1.52,0.5-3,1.28-4.3l-12.27-7.08c-0.79,1.3-1.23,2.78-1.28,4.3L443.81,113.83z"/>
			<path class="st14" d="M515.3,15.4c-0.51-1.85-2.21-2.44-4.21-1.28l-50.57,29.23c-1.3,0.79-2.36,1.91-3.08,3.25l-12.26-7.08
				c0.73-1.33,1.78-2.45,3.07-3.25l50.57-29.25c2.75-1.38,5.99-1.38,8.73,0l3.52,2.02C513.29,10.49,514.82,12.79,515.3,15.4z"/>
		</g>
		<path class="st12" d="M484.67,40.75c1.65-1.02,3.5-1.67,5.43-1.9c3.16-0.44,6.21,1.33,7.38,4.3c0.78,1.87,1.15,3.89,1.08,5.92
			c0.01,1.8-0.2,3.6-0.62,5.34c-0.39,1.64-0.92,3.24-1.57,4.79c-0.61,1.49-1.3,2.93-2.09,4.33c-0.74,1.37-1.48,2.7-2.17,4
			c-0.69,1.3-1.35,2.61-1.9,3.91c-0.55,1.24-0.94,2.55-1.16,3.89c-0.1,0.61-0.26,1.21-0.49,1.79c-0.16,0.47-0.48,0.87-0.89,1.15
			l-6.29,3.62c-0.28,0.25-0.7,0.25-0.98,0c-0.3-0.35-0.45-0.81-0.4-1.26c-0.01-1.71,0.22-3.41,0.69-5.06c0.44-1.63,1-3.23,1.69-4.77
			c0.69-1.52,1.43-3,2.24-4.42s1.55-2.76,2.24-4.03c0.64-1.18,1.2-2.4,1.69-3.66c0.45-1.07,0.69-2.21,0.69-3.37
			c0-1.53-0.37-2.51-1.13-2.95s-1.92-0.2-3.49,0.71c-1.36,0.69-2.52,1.72-3.37,2.98c-0.63,0.99-1.12,2.06-1.47,3.19
			c-0.32,1.03-0.59,1.96-0.81,2.8c-0.17,0.77-0.64,1.43-1.31,1.84l-6.17,3.59c-0.23,0.18-0.56,0.18-0.79,0
			c-0.26-0.29-0.39-0.69-0.34-1.08c0.11-2.18,0.49-4.35,1.13-6.44c0.68-2.51,1.62-4.93,2.8-7.25c1.23-2.41,2.72-4.67,4.45-6.74
			C480.38,43.89,482.39,42.12,484.67,40.75z M489.14,92.3c-0.01,0.58-0.15,1.16-0.4,1.69c-0.2,0.49-0.54,0.9-0.98,1.2l-6.49,3.74
			c-0.28,0.25-0.7,0.25-0.98,0c-0.3-0.35-0.45-0.81-0.4-1.26v-8.02c0.01-0.58,0.15-1.16,0.4-1.69c0.2-0.49,0.54-0.91,0.98-1.2
			l6.49-3.74c0.28-0.25,0.7-0.25,0.98,0c0.3,0.35,0.45,0.81,0.4,1.26V92.3z"/>
	</g>
	<g>
		<g>
			<path class="st4" d="M854.84,120.3l5.92-11.11L856,95.47v-8.43l14.55,8.43v8.43l-6.3,10.72c-0.1,0.17-0.24,0.3-0.42,0.37l0,0
				L854.84,120.3z"/>
			<path class="st11" d="M854.84,120.3l5.92-11.11L856,95.47v-8.43l14.55,8.43v8.43l-6.3,10.72c-0.1,0.17-0.24,0.3-0.42,0.37l0,0
				L854.84,120.3z"/>
			<path class="st4" d="M817.21,36.12c0.17-3.07,1.79-5.88,4.37-7.55l3.54-2.06c2.75-1.38,5.99-1.38,8.73,0l69.38,40.07
				c2.57,1.68,4.18,4.49,4.35,7.55v42.53c-0.16,3.07-1.78,5.87-4.35,7.55l-3.59,2.06c-2.75,1.38-5.99,1.38-8.73,0l-29.53-17.19
				l-6.24,10.81c-0.25,0.45-0.82,0.61-1.26,0.36c-0.2-0.11-0.35-0.29-0.42-0.51l-6.61-19.05l-25.29-14.46
				c-2.58-1.68-4.2-4.5-4.37-7.57L817.21,36.12z"/>
			<path class="st11" d="M907.58,116.66c-0.16,3.07-1.78,5.87-4.35,7.55l-3.59,2.06c-2.49,1.24-5.39,1.37-7.97,0.35
				c2.04,0.78,3.61-0.39,3.61-2.88V81.21c-0.05-1.52-0.49-3-1.28-4.3l12.27-7.08c0.79,1.3,1.23,2.78,1.28,4.3L907.58,116.66z"/>
			<path class="st14" d="M817.35,34.89c0.52-1.85,2.21-2.44,4.21-1.28l69.4,40.05c1.29,0.8,2.35,1.92,3.07,3.25l12.27-7.08
				c-0.73-1.33-1.79-2.46-3.08-3.25L833.9,26.51c-2.75-1.38-5.99-1.38-8.73,0l-3.56,2.06C819.38,30,817.84,32.28,817.35,34.89z"/>
		</g>
		<path class="st22" d="M877.6,85.54c3.45,2.25,5.61,6.01,5.82,10.11c0,3.71-2.6,5.21-5.82,3.37c-3.45-2.25-5.61-6.01-5.82-10.11
			C871.78,85.19,874.36,83.69,877.6,85.54z"/>
		<path class="st22" d="M856.14,73.1c3.45,2.25,5.61,6.01,5.82,10.11c0,3.71-2.6,5.23-5.82,3.37c-3.45-2.25-5.61-6.01-5.82-10.11
			C850.32,72.76,852.92,71.26,856.14,73.1z"/>
		<path class="st22" d="M834.68,60.71c3.45,2.25,5.61,6.01,5.82,10.11c0,3.71-2.6,5.21-5.82,3.37c-3.45-2.25-5.61-6.01-5.82-10.11
			C828.84,60.36,831.46,58.86,834.68,60.71z"/>
	</g>
</g>
</svg>
