<?xml version="1.0" encoding="utf-8"?>
<!-- Generator: Adobe Illustrator 23.1.0, SVG Export Plug-In . SVG Version: 6.00 Build 0)  -->
<svg version="1.1" id="Layer_1" xmlns="http://www.w3.org/2000/svg" xmlns:xlink="http://www.w3.org/1999/xlink" x="0px" y="0px"
	 viewBox="0 0 1366 768" style="enable-background:new 0 0 1366 768;" xml:space="preserve">
<style type="text/css">
	.st0{fill:#92E3A9;}
	.st1{opacity:0.7;fill:#FFFFFF;enable-background:new    ;}
	.st2{opacity:0.18;enable-background:new    ;}
	.st3{fill:#263238;}
	.st4{fill:#FFFFFF;}
	.st5{opacity:0.25;enable-background:new    ;}
</style>
<g id="freepik--background-simple--inject-141">
	<path class="st0" d="M903.88,65.31c-21.69-20.09-47.76-34.85-76.15-43.13C764.81,3.45,697.44,4.76,632.84,11.73
		c-207.65,22.36-188.95,175.29-217.6,227.49s-172.8,95.73-140.47,285.95s251.11,229.98,450.04,233.71
		c198.93,3.73,330.68-82.04,369.31-213.82c21.11-72.14,0.52-143.17-31.69-208.41c-13.26-26.88-29.58-52.87-40.47-80.84
		C993.99,184.29,961.49,117.87,903.88,65.31z"/>
	<path class="st1" d="M903.88,65.31c-21.69-20.09-47.76-34.85-76.15-43.13C764.81,3.45,697.44,4.76,632.84,11.73
		c-207.65,22.36-188.95,175.29-217.6,227.49s-172.8,95.73-140.47,285.95s251.11,229.98,450.04,233.71
		c198.93,3.73,330.68-82.04,369.31-213.82c21.11-72.14,0.52-143.17-31.69-208.41c-13.26-26.88-29.58-52.87-40.47-80.84
		C993.99,184.29,961.49,117.87,903.88,65.31z"/>
</g>
<g id="freepik--Shadow--inject-141">
	<polygon class="st2" points="460.07,363.4 361.34,744.39 1030.42,744.39 927.13,363.4 	"/>
</g>
<g id="freepik--Board--inject-141">
	<path class="st3" d="M578.77,71.94H808.3c9.83,0,17.8,7.97,17.8,17.8v103.42l0,0H560.97l0,0V89.73
		C560.97,79.9,568.94,71.94,578.77,71.94L578.77,71.94z"/>
	<path class="st3" d="M826.1,194.03H560.97c-0.47,0-0.86-0.38-0.86-0.86V89.73c0.02-10.29,8.36-18.64,18.65-18.65H808.3
		c10.29,0.03,18.62,8.37,18.64,18.65v103.42C826.95,193.63,826.57,194.02,826.1,194.03C826.1,194.03,826.1,194.03,826.1,194.03z
		 M561.83,192.31h263.39V89.73c-0.01-9.35-7.59-16.93-16.94-16.94H578.77c-9.35,0.01-16.93,7.59-16.94,16.94V192.31z"/>
</g>
<g id="freepik--Field--inject-141">
	<polygon class="st0" points="450.42,185.82 305.39,673.82 1081.69,673.82 936.65,185.82 	"/>
	<path class="st3" d="M1081.69,674.68h-776.3c-0.27,0.01-0.53-0.12-0.69-0.34c-0.17-0.21-0.23-0.5-0.14-0.76l145.03-488
		c0.11-0.37,0.44-0.62,0.82-0.62h486.23c0.38-0.01,0.72,0.25,0.82,0.62l145.04,488c0.07,0.26,0.02,0.54-0.14,0.76
		C1082.22,674.56,1081.97,674.68,1081.69,674.68z M306.47,672.96h774L936.02,186.68H451.05L306.47,672.96z"/>
	<path class="st4" d="M925.76,185.82l7.51,26.4H775.01c-1.26-9.81-5.45-19.01-12.02-26.4h-2.65c6.73,7.32,11.03,16.54,12.3,26.4
		h-158.2c1.27-9.87,5.57-19.09,12.32-26.4h-2.66c-6.58,7.39-10.77,16.59-12.02,26.4H453.8l7.49-26.4h-2.32L323.03,659.91h740.95
		L928.05,185.82L925.76,185.82z M772.78,213.96c2.37,32.53-32.83,60.74-79.24,60.74s-81.63-28.2-79.24-60.74H772.78z M790.95,655.89
		H596.11l8.06-106.5H782.9L790.95,655.89z M927.48,655.89H794.61l-8.59-109.81H601.08l-8.59,109.81h-132.9l40.68-223.97h386.49
		L927.48,655.89z M605.24,429.15c19.15-29.37,52.46-46.74,88.31-46.74s69.16,17.37,88.31,46.74H605.24z M1059.21,655.89H931.14
		l-41.83-226.74H785.23c-19.65-30.92-54.4-49.23-91.69-49.23s-72.04,18.31-91.62,49.25H497.83l-41.91,226.72H327.84l125.39-441.93
		h158.6c-2.56,33.56,33.7,62.73,81.64,62.73c47.94,0,84.17-29.2,81.63-62.73h158.58L1059.21,655.89z"/>
	<rect x="305.39" y="673.84" class="st3" width="776.23" height="23.53"/>
	<path class="st3" d="M1081.63,698.16H305.39c-0.47,0-0.86-0.38-0.86-0.86v-23.48c0-0.47,0.38-0.86,0.86-0.86h776.23
		c0.47,0.01,0.85,0.39,0.86,0.86v23.55C1082.45,697.82,1082.07,698.16,1081.63,698.16z M306.25,696.44h774.52v-21.76H306.25V696.44z
		"/>
</g>
<g id="freepik--texts-2--inject-141">
	<path class="st3" d="M645.88,634.31v-15.37h2.15v13.83h3.93v1.55L645.88,634.31z"/>
	<path class="st3" d="M657.23,634.49c-0.87,0.05-1.74-0.17-2.49-0.62c-0.63-0.4-1.09-1.01-1.32-1.72c-0.29-0.85-0.43-1.75-0.41-2.65
		v-5.82c-0.02-0.89,0.12-1.77,0.41-2.61c0.24-0.7,0.71-1.3,1.32-1.72c0.76-0.42,1.62-0.62,2.49-0.58c0.86-0.04,1.71,0.17,2.46,0.6
		c0.62,0.41,1.09,1.01,1.32,1.72c0.29,0.83,0.43,1.71,0.41,2.59v5.77c0.02,0.89-0.12,1.78-0.41,2.63c-0.25,0.7-0.71,1.3-1.32,1.72
		C658.96,634.27,658.1,634.51,657.23,634.49z M657.23,632.77c0.46,0.04,0.91-0.08,1.29-0.34c0.3-0.25,0.51-0.61,0.58-1
		c0.11-0.48,0.16-0.98,0.15-1.48v-6.73c0.01-0.5-0.04-0.99-0.15-1.48c-0.07-0.34-0.25-0.64-0.5-0.88c-0.38-0.25-0.83-0.36-1.29-0.33
		c-0.46-0.04-0.92,0.08-1.31,0.33c-0.3,0.24-0.51,0.57-0.6,0.94c-0.11,0.48-0.16,0.98-0.15,1.48v6.73c-0.01,0.5,0.04,0.99,0.15,1.48
		c0.08,0.39,0.29,0.74,0.6,1c0.36,0.22,0.79,0.33,1.22,0.29V632.77z"/>
	<path class="st3" d="M663.52,634.31v-15.37h3.09c0.87-0.03,1.73,0.11,2.54,0.41c0.64,0.24,1.17,0.71,1.49,1.31
		c0.35,0.74,0.52,1.55,0.48,2.37c0,0.54-0.06,1.09-0.19,1.61c-0.11,0.45-0.31,0.87-0.6,1.24c-0.3,0.33-0.68,0.58-1.1,0.72l2.18,7.71
		h-2.08l-2.01-7.21h-1.72v7.21H663.52z M665.66,625.57h0.81c0.51,0.01,1.02-0.07,1.49-0.24c0.36-0.14,0.66-0.42,0.82-0.77
		c0.2-0.48,0.29-1.01,0.27-1.53c0.06-0.69-0.12-1.38-0.5-1.96c-0.54-0.47-1.25-0.68-1.96-0.58h-0.94V625.57z"/>
	<path class="st3" d="M673.36,634.31v-15.37h5.96v1.6h-3.81v5.15h3.09v1.51h-3.09v5.63h3.85v1.55L673.36,634.31z"/>
	<path class="st3" d="M681.06,634.31l0.27-15.37h2.11l2.71,12.47l2.73-12.47h2.08l0.29,15.37h-1.72l-0.17-11.17l-2.59,11.17h-1.22
		l-2.58-11.17l-0.17,11.17H681.06z"/>
	<path class="st3" d="M698.11,634.31v-15.37h2.11v15.37H698.11z"/>
	<path class="st3" d="M702.65,634.31v-15.37h3.81c0.77-0.03,1.54,0.14,2.22,0.5c0.55,0.34,0.97,0.86,1.2,1.46
		c0.27,0.73,0.4,1.51,0.38,2.28c0.02,0.73-0.13,1.45-0.43,2.11c-0.26,0.58-0.7,1.06-1.25,1.37c-0.64,0.34-1.37,0.51-2.1,0.48h-1.72
		v7.16H702.65z M704.79,625.62h1c0.5,0.02,0.99-0.05,1.46-0.21c0.34-0.14,0.61-0.4,0.76-0.74c0.17-0.47,0.25-0.96,0.22-1.46
		c0.02-0.58-0.03-1.15-0.15-1.72c-0.1-0.36-0.35-0.65-0.69-0.81c-0.51-0.18-1.04-0.25-1.58-0.22h-1.01V625.62z"/>
	<path class="st3" d="M715.38,634.49c-0.77,0.03-1.54-0.17-2.2-0.58c-0.6-0.37-1.06-0.92-1.34-1.56c-0.32-0.74-0.5-1.53-0.53-2.34
		l1.89-0.52c0.05,0.53,0.14,1.06,0.26,1.58c0.12,0.46,0.34,0.88,0.65,1.24c0.34,0.33,0.8,0.5,1.27,0.48
		c0.47,0.03,0.93-0.14,1.27-0.46c0.3-0.38,0.46-0.86,0.43-1.34c0.04-0.61-0.13-1.21-0.48-1.72c-0.35-0.47-0.76-0.9-1.2-1.29
		l-2.58-2.27c-0.47-0.4-0.85-0.9-1.12-1.46c-0.26-0.61-0.38-1.28-0.36-1.94c-0.06-0.97,0.29-1.92,0.96-2.61
		c0.72-0.66,1.67-1,2.65-0.94c0.54-0.01,1.08,0.07,1.6,0.24c0.44,0.15,0.85,0.4,1.17,0.74c0.33,0.36,0.58,0.78,0.74,1.24
		c0.18,0.56,0.3,1.13,0.36,1.72l-1.82,0.5c-0.03-0.47-0.1-0.94-0.22-1.39c-0.09-0.4-0.3-0.75-0.6-1.03c-0.73-0.55-1.73-0.55-2.46,0
		c-0.32,0.35-0.48,0.8-0.45,1.27c-0.02,0.4,0.06,0.79,0.22,1.15c0.21,0.35,0.47,0.66,0.77,0.93l2.59,2.28
		c0.6,0.49,1.12,1.07,1.55,1.72c0.46,0.75,0.69,1.61,0.67,2.49c0.01,0.69-0.15,1.37-0.48,1.98c-0.3,0.54-0.76,0.97-1.31,1.25
		C716.71,634.21,716.06,634.44,715.38,634.49z"/>
	<path class="st3" d="M724.7,634.49c-0.9,0.06-1.8-0.18-2.56-0.67c-0.62-0.46-1.05-1.12-1.22-1.87c-0.23-0.92-0.34-1.87-0.33-2.82
		v-10.19h2.04v10.31c0,0.6,0.04,1.21,0.14,1.8c0.06,0.48,0.26,0.93,0.58,1.29c0.79,0.62,1.89,0.62,2.68,0
		c0.31-0.37,0.51-0.81,0.57-1.29c0.09-0.6,0.14-1.2,0.14-1.8v-10.31h2.03v10.19c0.02,0.95-0.09,1.9-0.33,2.82
		c-0.17,0.74-0.6,1.41-1.2,1.87C726.49,634.31,725.6,634.54,724.7,634.49z"/>
	<path class="st3" d="M730.99,634.31l0.29-15.37h2.1l2.71,12.47l2.73-12.47h2.1l0.27,15.37h-1.72l-0.17-11.17l-2.59,11.17h-1.22
		l-2.58-11.17l-0.17,11.17H730.99z"/>
	<path class="st3" d="M387.53,553.1v-15.36h2.13v13.83h3.93v1.53H387.53z"/>
	<path class="st3" d="M398.87,553.27c-0.87,0.04-1.73-0.17-2.49-0.6c-0.61-0.41-1.08-1.02-1.32-1.72c-0.28-0.85-0.41-1.75-0.4-2.65
		v-5.82c-0.02-0.89,0.12-1.77,0.41-2.61c0.22-0.71,0.69-1.32,1.32-1.72c1.56-0.78,3.39-0.78,4.95,0c0.61,0.42,1.07,1.02,1.31,1.72
		c0.29,0.84,0.43,1.72,0.41,2.61v5.84c0.02,0.89-0.12,1.77-0.41,2.61c-0.24,0.7-0.7,1.3-1.31,1.72
		C400.6,553.1,399.74,553.32,398.87,553.27z M398.87,551.56c0.46,0.03,0.91-0.09,1.29-0.34c0.3-0.25,0.51-0.61,0.58-1
		c0.13-0.49,0.2-0.99,0.21-1.49v-6.7c0.01-0.49-0.04-0.98-0.15-1.46c-0.07-0.38-0.28-0.71-0.58-0.94c-0.38-0.25-0.83-0.37-1.29-0.34
		c-0.46-0.03-0.92,0.09-1.31,0.34c-0.31,0.23-0.52,0.57-0.58,0.94c-0.11,0.48-0.16,0.97-0.15,1.46v6.7c-0.01,0.5,0.04,1,0.15,1.49
		c0.07,0.39,0.28,0.74,0.58,1c0.37,0.25,0.81,0.38,1.25,0.38V551.56z"/>
	<path class="st3" d="M405.17,553.1v-15.36h3.09c0.87-0.02,1.73,0.12,2.54,0.41c0.64,0.23,1.17,0.7,1.48,1.31
		c0.35,0.73,0.52,1.54,0.48,2.35c0.01,0.55-0.05,1.1-0.19,1.63c-0.1,0.45-0.31,0.86-0.6,1.22c-0.29,0.35-0.67,0.61-1.1,0.74
		l2.18,7.7H411l-2.01-7.2h-1.72v7.2H405.17z M407.3,544.36h0.82c0.5,0.02,1-0.06,1.48-0.22c0.37-0.15,0.66-0.42,0.84-0.77
		c0.19-0.49,0.28-1.02,0.26-1.55c0.07-0.69-0.11-1.37-0.5-1.94c-0.53-0.47-1.24-0.69-1.94-0.6h-0.96V544.36z"/>
	<path class="st3" d="M415.02,553.1v-15.36h5.96v1.6h-3.81v5.07h3.09v1.53h-3.09v5.63h3.85v1.53L415.02,553.1z"/>
	<path class="st3" d="M422.69,553.1l0.29-15.36h2.1l2.71,12.45l2.73-12.45h2.1l0.27,15.36h-1.72l-0.17-11.15l-2.58,11.15h-1.2
		l-2.58-11.15l-0.17,11.15H422.69z"/>
	<path class="st3" d="M439.72,553.1v-15.36h2.1v15.36H439.72z"/>
	<path class="st3" d="M444.3,553.1v-15.36h3.81c0.76-0.03,1.52,0.14,2.2,0.5c0.55,0.34,0.98,0.85,1.2,1.46
		c0.28,0.73,0.41,1.5,0.4,2.28c0.01,0.73-0.14,1.45-0.43,2.11c-0.28,0.58-0.72,1.05-1.27,1.37c-0.64,0.34-1.36,0.51-2.08,0.48h-1.72
		v7.15H444.3z M446.45,544.41h0.98c0.5,0.02,0.99-0.05,1.46-0.21c0.34-0.12,0.62-0.39,0.76-0.72c0.17-0.47,0.25-0.97,0.22-1.48
		c0.02-0.58-0.03-1.15-0.15-1.72c-0.08-0.37-0.33-0.67-0.67-0.82c-0.51-0.17-1.06-0.25-1.6-0.22h-1V544.41z"/>
	<path class="st3" d="M457.03,553.27c-0.78,0.03-1.55-0.17-2.22-0.57c-0.59-0.39-1.05-0.94-1.34-1.58
		c-0.31-0.74-0.49-1.52-0.53-2.32l1.91-0.52c0.03,0.53,0.12,1.05,0.26,1.56c0.1,0.47,0.33,0.9,0.65,1.25
		c0.34,0.33,0.8,0.5,1.27,0.48c0.47,0.03,0.92-0.14,1.25-0.46c0.31-0.37,0.47-0.85,0.43-1.34c0.03-0.61-0.13-1.21-0.46-1.72
		c-0.36-0.46-0.77-0.88-1.2-1.27l-2.58-2.28c-0.47-0.4-0.85-0.89-1.12-1.44c-0.26-0.61-0.38-1.28-0.36-1.94
		c-0.07-0.97,0.28-1.93,0.96-2.63c0.72-0.65,1.66-0.98,2.63-0.93c0.55-0.01,1.09,0.08,1.61,0.24c0.44,0.14,0.83,0.39,1.15,0.72
		c0.33,0.36,0.58,0.79,0.74,1.25c0.2,0.55,0.32,1.13,0.38,1.72l-1.82,0.5c-0.04-0.48-0.12-0.95-0.24-1.41
		c-0.09-0.39-0.3-0.74-0.58-1.01c-0.35-0.28-0.79-0.42-1.24-0.4c-0.84-0.11-1.61,0.48-1.72,1.31c-0.02,0.13-0.02,0.27,0,0.4
		c-0.01,0.4,0.07,0.8,0.24,1.17c0.2,0.35,0.46,0.66,0.77,0.93l2.59,2.27c0.6,0.53,1.11,1.14,1.53,1.82
		c0.46,0.75,0.69,1.61,0.67,2.49c0.02,0.68-0.15,1.36-0.48,1.96c-0.3,0.54-0.74,0.98-1.29,1.27
		C458.33,553.11,457.68,553.27,457.03,553.27z"/>
	<path class="st3" d="M466.34,553.27c-0.9,0.05-1.8-0.17-2.56-0.65c-0.61-0.47-1.04-1.13-1.22-1.87c-0.22-0.92-0.32-1.87-0.31-2.82
		v-10.19h2.04v10.31c-0.01,0.6,0.04,1.21,0.14,1.8c0.05,0.48,0.25,0.93,0.57,1.29c0.36,0.35,0.84,0.52,1.34,0.48
		c0.5,0.04,0.98-0.13,1.34-0.48c0.32-0.36,0.52-0.81,0.58-1.29c0.09-0.6,0.13-1.2,0.12-1.8v-10.31h2.03v10.19
		c0.01,0.95-0.09,1.89-0.31,2.82c-0.18,0.74-0.6,1.4-1.2,1.87C468.14,553.1,467.24,553.33,466.34,553.27z"/>
	<path class="st3" d="M472.65,553.1l0.27-15.36h2.11l2.71,12.45l2.73-12.45h2.08l0.29,15.36h-1.72l-0.17-11.15l-2.59,11.15h-1.22
		l-2.58-11.15l-0.17,11.15H472.65z"/>
	<path class="st3" d="M461.34,428.67V413.3h2.15v13.74h3.93v1.55L461.34,428.67z"/>
	<path class="st3" d="M472.7,428.84c-0.87,0.05-1.74-0.17-2.49-0.62c-0.63-0.4-1.09-1.01-1.32-1.72c-0.29-0.85-0.43-1.75-0.41-2.65
		v-5.82c-0.02-0.89,0.12-1.77,0.41-2.61c0.24-0.71,0.71-1.31,1.34-1.72c0.75-0.42,1.61-0.62,2.47-0.58c0.86-0.04,1.71,0.17,2.46,0.6
		c0.62,0.41,1.09,1.01,1.32,1.72c0.29,0.83,0.43,1.71,0.41,2.59v5.84c0.02,0.89-0.12,1.78-0.41,2.63c-0.24,0.7-0.71,1.3-1.32,1.72
		C474.42,428.67,473.56,428.89,472.7,428.84z M472.7,427.12c0.46,0.04,0.91-0.08,1.29-0.34c0.3-0.25,0.51-0.6,0.58-0.98
		c0.11-0.49,0.16-0.99,0.15-1.49v-6.73c0.01-0.5-0.04-0.99-0.15-1.48c-0.08-0.37-0.29-0.7-0.58-0.94c-0.38-0.25-0.83-0.36-1.29-0.33
		c-0.46-0.03-0.92,0.08-1.31,0.33c-0.3,0.24-0.51,0.57-0.6,0.94c-0.11,0.48-0.16,0.98-0.15,1.48v6.73c-0.01,0.5,0.04,1,0.15,1.49
		c0.08,0.39,0.29,0.73,0.6,0.98c0.38,0.27,0.84,0.39,1.31,0.36V427.12z"/>
	<path class="st3" d="M478.98,428.67V413.3h3.09c0.87-0.03,1.73,0.11,2.54,0.41c0.64,0.24,1.17,0.71,1.49,1.31
		c0.35,0.74,0.52,1.55,0.48,2.37c0,0.54-0.06,1.09-0.19,1.61c-0.11,0.45-0.31,0.87-0.6,1.24c-0.29,0.34-0.67,0.59-1.1,0.72
		l2.18,7.71h-2.08l-2.01-7.21h-1.72v7.21H478.98z M481.13,419.93h0.82c0.5,0.01,1-0.07,1.48-0.24c0.37-0.14,0.66-0.42,0.82-0.77
		c0.21-0.48,0.3-1,0.27-1.53c0.06-0.69-0.12-1.38-0.5-1.96c-0.54-0.47-1.25-0.68-1.96-0.58h-0.94V419.93z"/>
	<path class="st3" d="M488.83,428.67V413.3h5.96v1.6h-3.81v5.15h3.09v1.51h-3.09v5.63h3.85v1.55L488.83,428.67z"/>
	<path class="st3" d="M496.52,428.67l0.27-15.37h2.06l2.71,12.47l2.73-12.47h2.08l0.29,15.37h-1.72l-0.17-11.17l-2.59,11.17h-1.22
		l-2.58-11.17l-0.17,11.17H496.52z"/>
	<path class="st3" d="M513.53,428.67V413.3h2.11v15.37H513.53z"/>
	<path class="st3" d="M518.11,428.67V413.3h3.81c0.77-0.03,1.54,0.14,2.22,0.5c0.55,0.34,0.97,0.86,1.2,1.46
		c0.27,0.74,0.4,1.52,0.38,2.3c0.02,0.72-0.13,1.44-0.43,2.1c-0.26,0.58-0.7,1.06-1.25,1.37c-0.64,0.35-1.37,0.51-2.1,0.48h-1.72
		v7.16H518.11z M520.26,419.98h0.93c0.49,0.02,0.99-0.05,1.46-0.21c0.34-0.13,0.62-0.4,0.76-0.74c0.17-0.47,0.25-0.96,0.22-1.46
		c0.02-0.58-0.03-1.15-0.15-1.72c-0.1-0.36-0.35-0.65-0.69-0.81c-0.51-0.18-1.04-0.26-1.58-0.22h-1.01L520.26,419.98z"/>
	<path class="st3" d="M530.84,428.84c-0.77,0.03-1.54-0.17-2.2-0.57c-0.59-0.39-1.05-0.94-1.34-1.58c-0.32-0.74-0.5-1.53-0.53-2.34
		l1.89-0.52c0.05,0.53,0.14,1.06,0.26,1.58c0.12,0.46,0.34,0.88,0.65,1.24c0.34,0.33,0.8,0.5,1.27,0.48
		c0.47,0.03,0.93-0.14,1.27-0.46c0.3-0.38,0.46-0.86,0.43-1.34c0.04-0.61-0.13-1.22-0.48-1.72c-0.35-0.47-0.74-0.9-1.19-1.29
		l-2.59-2.27c-0.47-0.4-0.85-0.9-1.12-1.46c-0.26-0.61-0.38-1.28-0.36-1.94c-0.06-0.97,0.3-1.92,0.98-2.61
		c0.71-0.65,1.66-0.99,2.63-0.94c0.54-0.01,1.08,0.07,1.6,0.24c0.44,0.15,0.84,0.41,1.17,0.74c0.33,0.36,0.58,0.78,0.74,1.24
		c0.19,0.56,0.31,1.13,0.36,1.72l-1.82,0.5c-0.03-0.47-0.1-0.94-0.22-1.39c-0.09-0.4-0.3-0.75-0.6-1.03c-0.73-0.52-1.72-0.52-2.46,0
		c-0.32,0.35-0.48,0.8-0.45,1.27c-0.02,0.4,0.06,0.79,0.24,1.15c0.19,0.35,0.45,0.67,0.76,0.93l2.61,2.28
		c0.59,0.53,1.11,1.13,1.53,1.8c0.46,0.75,0.69,1.62,0.67,2.51c0.01,0.68-0.15,1.36-0.48,1.96c-0.3,0.54-0.76,0.97-1.31,1.25
		C532.17,428.62,531.51,428.82,530.84,428.84z"/>
	<path class="st3" d="M540.17,428.84c-0.9,0.06-1.8-0.18-2.56-0.67c-0.62-0.46-1.05-1.12-1.22-1.87c-0.23-0.92-0.34-1.87-0.33-2.82
		V413.3h2.04v10.31c0,0.6,0.04,1.21,0.14,1.8c0.07,0.48,0.27,0.92,0.58,1.29c0.79,0.62,1.89,0.62,2.68,0
		c0.31-0.37,0.51-0.81,0.57-1.29c0.09-0.6,0.14-1.2,0.14-1.8V413.3h2.03v10.19c0.02,0.95-0.09,1.9-0.33,2.82
		c-0.17,0.74-0.6,1.41-1.2,1.87C541.96,428.66,541.07,428.9,540.17,428.84z"/>
	<path class="st3" d="M546.46,428.67l0.29-15.37h2.1l2.71,12.47l2.73-12.47h2.1l0.27,15.37h-1.72l-0.17-11.17l-2.59,11.17h-1.22
		l-2.58-11.17l-0.17,11.17H546.46z"/>
	<path class="st3" d="M645.88,428.67V413.3h2.15v13.74h3.93v1.55L645.88,428.67z"/>
	<path class="st3" d="M657.23,428.84c-0.87,0.05-1.74-0.17-2.49-0.62c-0.63-0.4-1.09-1.01-1.32-1.72c-0.29-0.85-0.43-1.75-0.41-2.65
		v-5.82c-0.02-0.89,0.12-1.77,0.41-2.61c0.24-0.7,0.71-1.3,1.32-1.72c0.76-0.42,1.62-0.62,2.49-0.58c0.86-0.04,1.71,0.17,2.46,0.6
		c0.61,0.41,1.08,1.02,1.32,1.72c0.29,0.83,0.43,1.71,0.41,2.59v5.84c0.02,0.89-0.12,1.78-0.41,2.63c-0.25,0.7-0.71,1.3-1.32,1.72
		C658.95,428.67,658.09,428.89,657.23,428.84z M657.23,427.12c0.46,0.04,0.91-0.08,1.29-0.34c0.3-0.25,0.51-0.6,0.58-0.98
		c0.11-0.49,0.16-0.99,0.15-1.49v-6.73c0.01-0.5-0.04-0.99-0.15-1.48c-0.08-0.37-0.29-0.7-0.58-0.94c-0.38-0.25-0.83-0.36-1.29-0.33
		c-0.46-0.04-0.92,0.08-1.31,0.33c-0.3,0.24-0.51,0.57-0.6,0.94c-0.11,0.48-0.16,0.98-0.15,1.48v6.73c-0.01,0.5,0.04,1,0.15,1.49
		c0.08,0.39,0.29,0.73,0.6,0.98c0.38,0.27,0.84,0.4,1.31,0.36V427.12z"/>
	<path class="st3" d="M663.52,428.67V413.3h3.09c0.87-0.03,1.73,0.11,2.54,0.41c0.64,0.24,1.17,0.71,1.49,1.31
		c0.35,0.74,0.52,1.55,0.48,2.37c0,0.54-0.06,1.09-0.19,1.61c-0.11,0.45-0.31,0.87-0.6,1.24c-0.29,0.34-0.67,0.59-1.1,0.72
		l2.18,7.71h-2.08l-2.01-7.21h-1.72v7.21H663.52z M665.66,419.93h0.81c0.51,0.01,1.02-0.07,1.49-0.24c0.37-0.14,0.66-0.42,0.82-0.77
		c0.2-0.48,0.29-1.01,0.27-1.53c0.06-0.69-0.12-1.38-0.5-1.96c-0.54-0.47-1.25-0.68-1.96-0.58h-0.94V419.93z"/>
	<path class="st3" d="M673.36,428.67V413.3h5.96v1.6h-3.81v5.15h3.09v1.51h-3.09v5.63h3.85v1.55L673.36,428.67z"/>
	<path class="st3" d="M681.06,428.67l0.27-15.37h2.11l2.71,12.47l2.73-12.47h2.08l0.29,15.37h-1.72l-0.17-11.17l-2.59,11.17h-1.22
		l-2.58-11.17l-0.17,11.17H681.06z"/>
	<path class="st3" d="M698.11,428.67V413.3h2.11v15.37H698.11z"/>
	<path class="st3" d="M702.65,428.67V413.3h3.81c0.77-0.03,1.54,0.14,2.22,0.5c0.55,0.34,0.97,0.86,1.2,1.46
		c0.27,0.74,0.4,1.52,0.38,2.3c0.02,0.72-0.13,1.44-0.43,2.1c-0.26,0.58-0.7,1.06-1.25,1.37c-0.64,0.34-1.37,0.51-2.1,0.48h-1.72
		v7.16H702.65z M704.79,419.98h1c0.5,0.02,0.99-0.05,1.46-0.21c0.34-0.13,0.62-0.4,0.76-0.74c0.17-0.47,0.25-0.96,0.22-1.46
		c0.02-0.58-0.03-1.15-0.15-1.72c-0.1-0.36-0.35-0.65-0.69-0.81c-0.51-0.18-1.04-0.25-1.58-0.22h-1.01V419.98z"/>
	<path class="st3" d="M715.38,428.84c-0.77,0.03-1.54-0.17-2.2-0.57c-0.58-0.37-1.04-0.89-1.32-1.51c-0.32-0.74-0.5-1.53-0.53-2.34
		l1.89-0.52c0.05,0.53,0.14,1.06,0.26,1.58c0.12,0.46,0.34,0.88,0.65,1.24c0.34,0.33,0.8,0.5,1.27,0.48
		c0.47,0.03,0.93-0.14,1.27-0.46c0.3-0.38,0.46-0.86,0.43-1.34c0.04-0.61-0.13-1.21-0.48-1.72c-0.35-0.47-0.76-0.9-1.2-1.29
		l-2.58-2.27c-0.47-0.4-0.85-0.9-1.12-1.46c-0.26-0.61-0.38-1.28-0.36-1.94c-0.06-0.97,0.29-1.92,0.96-2.61
		c0.72-0.65,1.67-0.99,2.65-0.94c0.54-0.01,1.08,0.07,1.6,0.24c0.44,0.15,0.84,0.41,1.17,0.74c0.33,0.36,0.58,0.78,0.74,1.24
		c0.18,0.56,0.3,1.13,0.36,1.72l-1.82,0.5c-0.03-0.47-0.1-0.94-0.22-1.39c-0.09-0.4-0.3-0.75-0.6-1.03c-0.73-0.52-1.72-0.52-2.46,0
		c-0.32,0.35-0.48,0.8-0.45,1.27c-0.02,0.4,0.06,0.79,0.22,1.15c0.21,0.35,0.47,0.66,0.77,0.93l2.59,2.28
		c0.6,0.52,1.12,1.13,1.55,1.8c0.46,0.75,0.69,1.62,0.67,2.51c0.01,0.68-0.15,1.36-0.48,1.96c-0.3,0.54-0.76,0.97-1.31,1.25
		C716.71,428.67,716.05,428.84,715.38,428.84z"/>
	<path class="st3" d="M724.7,428.84c-0.9,0.06-1.8-0.18-2.56-0.67c-0.62-0.46-1.05-1.12-1.22-1.87c-0.23-0.92-0.34-1.87-0.33-2.82
		V413.3h2.04v10.31c0,0.6,0.04,1.21,0.14,1.8c0.06,0.48,0.26,0.93,0.58,1.29c0.79,0.62,1.89,0.62,2.68,0
		c0.31-0.37,0.51-0.81,0.57-1.29c0.09-0.6,0.14-1.2,0.14-1.8V413.3h2.03v10.19c0.02,0.95-0.09,1.9-0.33,2.82
		c-0.17,0.74-0.6,1.41-1.2,1.87C726.49,428.66,725.6,428.9,724.7,428.84z"/>
	<path class="st3" d="M730.99,428.67l0.29-15.37h2.1l2.71,12.47l2.73-12.47h2.1l0.27,15.37h-1.72l-0.17-11.17l-2.59,11.17h-1.22
		l-2.58-11.17l-0.17,11.17H730.99z"/>
	<path class="st3" d="M645.88,297.94v-15.46h2.15v13.83h3.93v1.55L645.88,297.94z"/>
	<path class="st3" d="M657.23,298.07c-0.87,0.05-1.74-0.17-2.49-0.62c-0.63-0.4-1.09-1.01-1.32-1.72c-0.29-0.85-0.43-1.75-0.41-2.65
		v-5.82c-0.02-0.89,0.12-1.77,0.41-2.61c0.24-0.7,0.71-1.3,1.32-1.72c0.76-0.41,1.62-0.61,2.49-0.57c0.86-0.05,1.71,0.16,2.46,0.58
		c0.61,0.41,1.08,1.02,1.32,1.72c0.29,0.83,0.43,1.71,0.41,2.59v5.84c0.02,0.89-0.12,1.78-0.41,2.63c-0.25,0.7-0.71,1.3-1.32,1.72
		C658.95,297.9,658.09,298.12,657.23,298.07z M657.23,296.35c0.46,0.04,0.91-0.08,1.29-0.34c0.3-0.25,0.51-0.6,0.58-0.98
		c0.11-0.49,0.16-0.99,0.15-1.49v-6.73c0.01-0.5-0.04-0.99-0.15-1.48c-0.08-0.37-0.29-0.7-0.58-0.94c-0.38-0.25-0.83-0.36-1.29-0.33
		c-0.46-0.04-0.92,0.08-1.31,0.33c-0.3,0.24-0.51,0.57-0.6,0.94c-0.11,0.48-0.16,0.98-0.15,1.48v6.73c-0.01,0.5,0.04,1,0.15,1.49
		c0.08,0.39,0.29,0.73,0.6,0.98c0.38,0.27,0.84,0.4,1.31,0.36V296.35z"/>
	<path class="st3" d="M663.52,297.94v-15.46h3.09c0.87-0.03,1.73,0.11,2.54,0.41c0.64,0.24,1.17,0.71,1.49,1.31
		c0.35,0.74,0.52,1.55,0.48,2.37c0,0.54-0.06,1.09-0.19,1.61c-0.11,0.45-0.31,0.87-0.6,1.24c-0.29,0.34-0.67,0.59-1.1,0.72
		l2.18,7.71h-2.08l-2.01-7.21h-1.72v7.3H663.52z M665.66,289.19h0.81c0.51,0.01,1.02-0.07,1.49-0.24c0.37-0.13,0.67-0.41,0.82-0.77
		c0.2-0.48,0.29-1.01,0.27-1.53c0.06-0.68-0.12-1.37-0.5-1.94c-0.53-0.48-1.25-0.7-1.96-0.6h-0.94V289.19z"/>
	<path class="st3" d="M673.36,297.94v-15.46h5.96v1.72h-3.81v5.15h3.09v1.51h-3.09v5.63h3.85v1.55L673.36,297.94z"/>
	<path class="st3" d="M681.06,297.94l0.27-15.37h2.11l2.71,12.47l2.73-12.47h2.08l0.27,15.37h-1.72l-0.17-11.17l-2.59,11.17h-1.22
		l-2.58-11.17l-0.17,11.17H681.06z"/>
	<path class="st3" d="M698.11,297.94v-15.46h2.11v15.46H698.11z"/>
	<path class="st3" d="M702.65,297.94v-15.46h3.81c0.77-0.04,1.54,0.14,2.22,0.52c0.55,0.33,0.97,0.84,1.2,1.44
		c0.27,0.74,0.4,1.52,0.38,2.3c0.02,0.72-0.13,1.44-0.43,2.1c-0.26,0.58-0.7,1.06-1.25,1.37c-0.64,0.34-1.37,0.51-2.1,0.48h-1.72
		v7.25H702.65z M704.79,289.24h1c0.5,0.02,0.99-0.05,1.46-0.21c0.34-0.13,0.62-0.4,0.76-0.74c0.17-0.47,0.25-0.96,0.22-1.46
		c0.02-0.58-0.03-1.15-0.15-1.72c-0.1-0.36-0.35-0.65-0.69-0.81c-0.51-0.18-1.04-0.25-1.58-0.22h-1.01V289.24z"/>
	<path class="st3" d="M715.38,298.07c-0.77,0.03-1.54-0.17-2.2-0.57c-0.59-0.38-1.06-0.93-1.34-1.58c-0.32-0.74-0.5-1.53-0.53-2.34
		l1.89-0.52c0.05,0.53,0.14,1.06,0.26,1.58c0.11,0.46,0.34,0.88,0.65,1.24c0.34,0.33,0.8,0.5,1.27,0.48
		c0.47,0.03,0.93-0.14,1.27-0.46c0.3-0.37,0.45-0.84,0.43-1.32c0.03-0.61-0.14-1.21-0.48-1.72c-0.35-0.47-0.76-0.9-1.2-1.29
		l-2.58-2.27c-0.47-0.4-0.85-0.9-1.12-1.46c-0.26-0.61-0.38-1.28-0.36-1.94c-0.06-0.97,0.29-1.92,0.96-2.61
		c0.72-0.65,1.68-0.98,2.65-0.93c0.54-0.01,1.08,0.06,1.6,0.22c0.44,0.15,0.84,0.41,1.17,0.74c0.33,0.36,0.58,0.78,0.74,1.24
		c0.18,0.56,0.3,1.13,0.36,1.72l-1.82,0.5c-0.03-0.47-0.1-0.94-0.22-1.39c-0.09-0.4-0.3-0.75-0.6-1.03
		c-0.34-0.28-0.78-0.41-1.22-0.38c-0.45-0.03-0.9,0.13-1.24,0.43c-0.32,0.33-0.49,0.79-0.45,1.25c-0.02,0.4,0.06,0.79,0.22,1.15
		c0.21,0.35,0.47,0.66,0.77,0.93l2.59,2.28c0.6,0.52,1.12,1.13,1.55,1.8c0.46,0.75,0.69,1.62,0.67,2.51
		c0.01,0.68-0.15,1.36-0.48,1.96c-0.3,0.54-0.76,0.97-1.31,1.25C716.7,297.89,716.04,298.06,715.38,298.07z"/>
	<path class="st3" d="M724.7,298.07c-0.9,0.06-1.8-0.17-2.56-0.67c-0.62-0.46-1.05-1.12-1.22-1.87c-0.24-0.92-0.35-1.87-0.33-2.82
		v-10.24h2.04v10.31c0,0.58,0.05,1.15,0.14,1.72c0.06,0.48,0.26,0.93,0.58,1.29c0.79,0.62,1.89,0.62,2.68,0
		c0.31-0.37,0.51-0.81,0.57-1.29c0.09-0.57,0.13-1.14,0.14-1.72v-10.31h2.03v10.31c0.02,0.95-0.09,1.9-0.33,2.82
		c-0.17,0.74-0.6,1.41-1.2,1.87C726.48,297.94,725.59,298.15,724.7,298.07z"/>
	<path class="st3" d="M730.99,297.94l0.29-15.37h2.1l2.71,12.47l2.73-12.56h2.1l0.27,15.37h-1.72l-0.17-11.17l-2.59,11.17h-1.22
		l-2.58-11.17l-0.17,11.17L730.99,297.94z"/>
	<path class="st3" d="M466.6,297.94v-15.46h2.15v13.83h3.92v1.55L466.6,297.94z"/>
	<path class="st3" d="M477.94,298.07c-0.87,0.04-1.73-0.17-2.47-0.62c-0.62-0.41-1.09-1.01-1.34-1.72c-0.28-0.85-0.41-1.75-0.4-2.65
		v-5.82c-0.02-0.89,0.12-1.77,0.41-2.61c0.24-0.7,0.71-1.3,1.32-1.72c0.76-0.41,1.61-0.61,2.47-0.57c0.86-0.05,1.72,0.15,2.47,0.58
		c0.61,0.41,1.08,1.02,1.32,1.72c0.29,0.83,0.42,1.71,0.4,2.59v5.84c0.02,0.89-0.11,1.78-0.4,2.63c-0.25,0.7-0.71,1.3-1.32,1.72
		C479.67,297.91,478.8,298.12,477.94,298.07z M477.94,296.35c0.46,0.04,0.92-0.08,1.31-0.34c0.29-0.26,0.49-0.6,0.58-0.98
		c0.11-0.49,0.16-0.99,0.15-1.49v-6.73c0.01-0.5-0.04-0.99-0.15-1.48c-0.08-0.37-0.29-0.7-0.58-0.94c-0.39-0.25-0.85-0.36-1.31-0.33
		c-0.45-0.03-0.91,0.08-1.29,0.33c-0.31,0.23-0.52,0.57-0.6,0.94c-0.11,0.48-0.16,0.98-0.15,1.48v6.73c-0.01,0.5,0.04,1,0.15,1.49
		c0.08,0.39,0.29,0.73,0.6,0.98c0.38,0.27,0.83,0.39,1.29,0.36V296.35z"/>
	<path class="st3" d="M484.24,297.94v-15.46h3.09c0.87-0.03,1.73,0.11,2.54,0.41c0.64,0.24,1.17,0.71,1.49,1.31
		c0.35,0.74,0.51,1.55,0.48,2.37c0,0.54-0.06,1.09-0.19,1.61c-0.11,0.45-0.32,0.87-0.6,1.24c-0.3,0.34-0.68,0.59-1.12,0.72
		l2.18,7.71h-2.06l-2.01-7.21h-1.72v7.3H484.24z M486.39,289.19h0.81c0.5,0.02,1-0.07,1.48-0.24c0.38-0.13,0.68-0.41,0.84-0.77
		c0.2-0.48,0.29-1.01,0.27-1.53c0.06-0.68-0.12-1.37-0.5-1.94c-0.53-0.48-1.25-0.7-1.96-0.6h-0.94L486.39,289.19z"/>
	<path class="st3" d="M494.08,297.94v-15.46h5.96v1.72h-3.81v5.15h3.09v1.51h-3.09v5.63h3.85v1.55L494.08,297.94z"/>
	<path class="st3" d="M501.76,297.94l0.29-15.37h2.11l2.71,12.47l2.73-12.47h2.08l0.29,15.37h-1.72l-0.17-11.17l-2.65,11.17h-1.22
		l-2.58-11.17l-0.17,11.17H501.76z"/>
	<path class="st3" d="M518.78,297.94v-15.46h2.11v15.46H518.78z"/>
	<path class="st3" d="M523.37,297.94v-15.46h3.81c0.77-0.04,1.54,0.14,2.22,0.52c0.55,0.33,0.97,0.84,1.2,1.44
		c0.27,0.74,0.4,1.52,0.38,2.3c0.02,0.72-0.13,1.44-0.43,2.1c-0.26,0.58-0.7,1.06-1.25,1.37c-0.64,0.34-1.37,0.51-2.1,0.48h-1.72
		v7.25H523.37z M525.52,289.24h0.98c0.5,0.02,0.99-0.05,1.46-0.21c0.35-0.12,0.63-0.39,0.77-0.74c0.16-0.47,0.24-0.96,0.22-1.46
		c0.02-0.58-0.03-1.16-0.17-1.72c-0.09-0.36-0.33-0.66-0.67-0.81c-0.51-0.18-1.04-0.25-1.58-0.22h-1.01L525.52,289.24z"/>
	<path class="st3" d="M536.1,298.07c-0.77,0.03-1.54-0.17-2.2-0.57c-0.59-0.38-1.06-0.93-1.34-1.58c-0.32-0.74-0.5-1.53-0.53-2.34
		l1.89-0.52c0.03,0.53,0.12,1.06,0.26,1.58c0.11,0.46,0.34,0.88,0.65,1.24c0.34,0.33,0.8,0.5,1.27,0.48
		c0.47,0.03,0.93-0.14,1.27-0.46c0.3-0.37,0.45-0.84,0.43-1.32c0.03-0.61-0.14-1.21-0.48-1.72c-0.36-0.47-0.76-0.9-1.2-1.29
		l-2.58-2.27c-0.47-0.4-0.85-0.9-1.12-1.46c-0.26-0.61-0.38-1.28-0.36-1.94c-0.06-0.97,0.29-1.92,0.96-2.61
		c0.72-0.65,1.68-0.98,2.65-0.93c0.54-0.01,1.08,0.06,1.6,0.22c0.44,0.16,0.84,0.41,1.17,0.74c0.33,0.36,0.58,0.78,0.74,1.24
		c0.18,0.56,0.3,1.13,0.36,1.72l-1.82,0.5c-0.04-0.47-0.11-0.93-0.22-1.39c-0.09-0.4-0.3-0.75-0.6-1.03
		c-0.34-0.28-0.78-0.41-1.22-0.38c-0.45-0.03-0.9,0.13-1.24,0.43c-0.32,0.33-0.49,0.79-0.45,1.25c-0.02,0.4,0.06,0.79,0.22,1.15
		c0.2,0.35,0.46,0.67,0.77,0.93l2.59,2.28c0.6,0.52,1.12,1.13,1.55,1.8c0.45,0.76,0.68,1.63,0.65,2.51
		c0.02,0.68-0.14,1.36-0.46,1.96c-0.31,0.53-0.76,0.97-1.31,1.25C537.42,297.89,536.77,298.06,536.1,298.07z"/>
	<path class="st3" d="M545.42,298.07c-0.91,0.06-1.81-0.18-2.58-0.67c-0.6-0.47-1.03-1.13-1.2-1.87c-0.24-0.92-0.35-1.87-0.33-2.82
		v-10.24h2.04v10.31c0,0.58,0.05,1.15,0.14,1.72c0.06,0.48,0.26,0.93,0.58,1.29c0.79,0.62,1.89,0.62,2.68,0
		c0.31-0.37,0.51-0.81,0.57-1.29c0.09-0.57,0.13-1.14,0.14-1.72v-10.31h2.03v10.31c0.02,0.95-0.09,1.9-0.33,2.82
		c-0.17,0.74-0.6,1.41-1.2,1.87C547.21,297.94,546.31,298.15,545.42,298.07z"/>
	<path class="st3" d="M551.71,297.94l0.29-15.37h2.1l2.71,12.47l2.73-12.47h2.1l0.27,15.37h-1.72l-0.17-11.17l-2.61,11.17h-1.2
		l-2.58-11.17l-0.17,11.17H551.71z"/>
	<path class="st3" d="M824.11,297.94v-15.46h2.15v13.83h3.92v1.55L824.11,297.94z"/>
	<path class="st3" d="M835.53,298.07c-0.87,0.04-1.73-0.17-2.47-0.62c-0.63-0.4-1.1-1.01-1.34-1.72c-0.28-0.85-0.41-1.75-0.4-2.65
		v-5.82c-0.02-0.89,0.12-1.77,0.41-2.61c0.23-0.71,0.7-1.31,1.32-1.72c0.77-0.38,1.62-0.54,2.47-0.46c0.86-0.05,1.72,0.16,2.47,0.58
		c0.61,0.41,1.08,1.02,1.32,1.72c0.28,0.84,0.41,1.71,0.4,2.59v5.84c0.01,0.89-0.12,1.78-0.4,2.63c-0.25,0.7-0.71,1.3-1.32,1.72
		C837.25,297.97,836.39,298.15,835.53,298.07z M835.53,296.35c0.46,0.04,0.91-0.08,1.29-0.34c0.31-0.25,0.52-0.59,0.6-0.98
		c0.09-0.49,0.14-0.99,0.14-1.49v-6.73c0-0.5-0.04-0.99-0.14-1.48c-0.09-0.37-0.3-0.71-0.6-0.94c-0.8-0.43-1.77-0.43-2.58,0
		c-0.31,0.23-0.52,0.57-0.6,0.94c-0.11,0.48-0.16,0.98-0.15,1.48v6.73c-0.01,0.5,0.04,1,0.15,1.49c0.08,0.39,0.29,0.73,0.6,0.98
		c0.38,0.27,0.83,0.39,1.29,0.36V296.35z"/>
	<path class="st3" d="M841.75,297.94v-15.46h3.09c0.87-0.02,1.73,0.12,2.54,0.41c0.64,0.24,1.16,0.7,1.48,1.31
		c0.36,0.74,0.53,1.55,0.5,2.37c0,0.54-0.06,1.09-0.19,1.61c-0.12,0.45-0.33,0.87-0.62,1.24c-0.29,0.34-0.67,0.6-1.1,0.72l2.18,7.71
		h-2.08l-2.01-7.21h-1.72v7.3H841.75z M843.89,289.19h0.81c0.5,0.01,1-0.07,1.48-0.24c0.38-0.13,0.68-0.41,0.84-0.77
		c0.19-0.49,0.28-1.01,0.26-1.53c0.06-0.68-0.11-1.37-0.48-1.94c-0.53-0.48-1.25-0.7-1.96-0.6h-0.94L843.89,289.19z"/>
	<path class="st3" d="M851.59,297.94v-15.46h5.96v1.72h-3.81v5.15h3.09v1.51h-3.09v5.63h3.85v1.55L851.59,297.94z"/>
	<path class="st3" d="M859.27,297.94l0.31-15.46h2.1l2.71,12.47l2.73-12.47h2.1l0.27,15.37h-1.72l-0.17-11.17l-2.59,11.17h-1.22
		l-2.58-11.17l-0.17,11.17L859.27,297.94z"/>
	<path class="st3" d="M876.29,297.94v-15.46h2.18v15.46H876.29z"/>
	<path class="st3" d="M880.88,297.94v-15.46h3.81c0.77-0.04,1.54,0.14,2.22,0.52c0.55,0.33,0.97,0.84,1.2,1.44
		c0.26,0.74,0.39,1.52,0.38,2.3c0.02,0.72-0.13,1.44-0.43,2.1c-0.27,0.58-0.7,1.06-1.25,1.37c-0.64,0.34-1.37,0.51-2.1,0.48h-1.72
		v7.25H880.88z M883.02,289.24H884c0.5,0.02,0.99-0.05,1.46-0.21c0.35-0.12,0.63-0.39,0.76-0.74c0.18-0.46,0.26-0.96,0.24-1.46
		c0.01-0.58-0.04-1.15-0.17-1.72c-0.09-0.36-0.33-0.66-0.67-0.81c-0.51-0.18-1.06-0.25-1.6-0.22h-1L883.02,289.24z"/>
	<path class="st3" d="M893.61,298.07c-0.78,0.03-1.55-0.17-2.22-0.57c-0.59-0.39-1.05-0.94-1.34-1.58
		c-0.32-0.74-0.49-1.53-0.52-2.34l1.89-0.52c0.03,0.53,0.12,1.06,0.26,1.58c0.11,0.46,0.33,0.89,0.65,1.24
		c0.34,0.33,0.8,0.5,1.27,0.48c0.47,0.03,0.92-0.14,1.25-0.46c0.31-0.37,0.46-0.84,0.43-1.32c0.04-0.61-0.12-1.21-0.46-1.72
		c-0.36-0.47-0.76-0.9-1.2-1.29l-2.58-2.27c-0.48-0.4-0.86-0.9-1.12-1.46c-0.26-0.61-0.38-1.28-0.36-1.94
		c-0.06-0.97,0.29-1.92,0.96-2.61c0.72-0.65,1.68-0.98,2.65-0.93c0.54-0.01,1.08,0.06,1.6,0.22c0.44,0.15,0.83,0.41,1.15,0.74
		c0.33,0.36,0.58,0.78,0.74,1.24c0.2,0.55,0.32,1.13,0.38,1.72l-1.82,0.5c-0.04-0.47-0.11-0.93-0.22-1.39
		c-0.1-0.39-0.31-0.75-0.6-1.03c-0.34-0.28-0.78-0.41-1.22-0.38c-0.46-0.03-0.91,0.12-1.25,0.43c-0.31,0.34-0.47,0.79-0.45,1.25
		c-0.01,0.4,0.07,0.79,0.24,1.15c0.19,0.36,0.46,0.67,0.77,0.93l2.59,2.28c0.6,0.52,1.12,1.13,1.55,1.8
		c0.51,0.79,0.76,1.72,0.74,2.66c0.02,0.68-0.14,1.36-0.46,1.96c-0.31,0.53-0.76,0.97-1.31,1.25
		C894.98,298,894.29,298.13,893.61,298.07z"/>
	<path class="st3" d="M902.92,298.07c-0.9,0.06-1.8-0.18-2.56-0.67c-0.6-0.47-1.03-1.13-1.22-1.87c-0.22-0.92-0.32-1.87-0.31-2.82
		v-10.24h1.98v10.31c0,0.58,0.05,1.15,0.14,1.72c0.06,0.48,0.26,0.92,0.57,1.29c0.37,0.33,0.85,0.5,1.34,0.46
		c0.5,0.05,0.99-0.12,1.36-0.46c0.31-0.37,0.51-0.81,0.57-1.29c0.09-0.57,0.13-1.14,0.14-1.72v-10.31h2.03v10.31
		c0.01,0.95-0.1,1.9-0.33,2.82c-0.18,0.74-0.6,1.4-1.2,1.87C904.66,297.93,903.79,298.14,902.92,298.07z"/>
	<path class="st3" d="M909.22,297.94l0.27-15.37h2.11l2.71,12.47l2.73-12.47h2.08l0.29,15.37h-1.72l-0.15-11.17l-2.61,11.17h-1.2
		l-2.59-11.17l-0.17,11.17H909.22z"/>
	<path class="st3" d="M845.22,428.67V413.3h2.15v13.74h3.92v1.55L845.22,428.67z"/>
	<path class="st3" d="M856.55,428.84c-0.87,0.04-1.73-0.17-2.47-0.62c-0.62-0.41-1.09-1.01-1.34-1.72c-0.28-0.85-0.41-1.75-0.4-2.65
		v-5.82c-0.02-0.89,0.12-1.77,0.41-2.61c0.23-0.71,0.7-1.31,1.32-1.72c0.76-0.42,1.61-0.62,2.47-0.58c0.87-0.04,1.72,0.17,2.47,0.6
		c0.61,0.41,1.08,1.02,1.32,1.72c0.28,0.84,0.41,1.71,0.4,2.59v5.84c0.01,0.89-0.12,1.78-0.4,2.63c-0.25,0.7-0.71,1.3-1.32,1.72
		C858.28,428.67,857.42,428.89,856.55,428.84z M856.55,427.12c0.46,0.04,0.91-0.08,1.29-0.34c0.31-0.25,0.52-0.59,0.6-0.98
		c0.09-0.49,0.14-0.99,0.14-1.49v-6.73c0-0.5-0.04-0.99-0.14-1.48c-0.09-0.37-0.3-0.71-0.6-0.94c-0.8-0.43-1.77-0.43-2.58,0
		c-0.31,0.23-0.52,0.57-0.6,0.94c-0.11,0.48-0.16,0.98-0.15,1.48v6.73c-0.01,0.5,0.04,1,0.15,1.49c0.08,0.39,0.29,0.73,0.6,0.98
		c0.38,0.27,0.83,0.39,1.29,0.36V427.12z"/>
	<path class="st3" d="M862.86,428.67V413.3h3.09c0.87-0.03,1.73,0.11,2.54,0.41c0.64,0.24,1.17,0.71,1.49,1.31
		c0.35,0.74,0.51,1.55,0.48,2.37c0,0.54-0.06,1.09-0.19,1.61c-0.12,0.45-0.33,0.87-0.62,1.24c-0.29,0.34-0.67,0.6-1.1,0.72
		l2.18,7.71h-2.06l-2.01-7.21h-1.72v7.21H862.86z M865.01,419.93h0.81c0.5,0.01,1-0.07,1.48-0.24c0.37-0.14,0.67-0.41,0.84-0.77
		c0.19-0.49,0.28-1.01,0.26-1.53c0.06-0.69-0.11-1.38-0.48-1.96c-0.54-0.46-1.25-0.68-1.96-0.58h-0.94L865.01,419.93z"/>
	<path class="st3" d="M872.7,428.67V413.3h5.96v1.6h-3.81v5.15h3.09v1.51h-3.09v5.63h3.85v1.55L872.7,428.67z"/>
	<path class="st3" d="M880.38,428.67l0.29-15.37h2.1l2.71,12.47l2.73-12.47h2.1l0.27,15.37h-1.72l-0.17-11.17l-2.59,11.17h-1.22
		l-2.58-11.17l-0.17,11.17H880.38z"/>
	<path class="st3" d="M897.37,428.67V413.3h2.1v15.37H897.37z"/>
	<path class="st3" d="M901.99,428.67V413.3h3.81c0.77-0.03,1.54,0.14,2.22,0.5c0.55,0.34,0.97,0.86,1.2,1.46
		c0.27,0.74,0.4,1.52,0.38,2.3c0.02,0.72-0.13,1.44-0.43,2.1c-0.27,0.57-0.71,1.05-1.25,1.37c-0.64,0.34-1.37,0.51-2.1,0.48h-1.72
		v7.16H901.99z M904.13,419.98h0.98c0.5,0.02,0.99-0.05,1.46-0.21c0.35-0.12,0.63-0.39,0.76-0.74c0.18-0.47,0.26-0.96,0.24-1.46
		c0.02-0.58-0.03-1.16-0.17-1.72c-0.09-0.36-0.33-0.66-0.67-0.81c-0.51-0.18-1.06-0.25-1.6-0.22h-1L904.13,419.98z"/>
	<path class="st3" d="M914.72,428.84c-0.78,0.03-1.55-0.17-2.22-0.57c-0.6-0.36-1.08-0.88-1.39-1.51c-0.32-0.74-0.5-1.53-0.53-2.34
		l1.89-0.52c0.03,0.53,0.12,1.06,0.26,1.58c0.11,0.46,0.34,0.89,0.65,1.24c0.34,0.33,0.8,0.5,1.27,0.48
		c0.47,0.03,0.92-0.14,1.25-0.46c0.31-0.37,0.47-0.85,0.43-1.34c0.04-0.61-0.12-1.21-0.46-1.72c-0.36-0.47-0.76-0.9-1.2-1.29
		l-2.58-2.27c-0.47-0.4-0.85-0.9-1.12-1.46c-0.26-0.61-0.38-1.28-0.36-1.94c-0.06-0.97,0.29-1.92,0.96-2.61
		c0.72-0.65,1.67-0.99,2.65-0.94c0.54-0.01,1.08,0.07,1.6,0.24c0.44,0.15,0.83,0.41,1.15,0.74c0.33,0.36,0.58,0.78,0.74,1.24
		c0.2,0.55,0.32,1.13,0.38,1.72l-1.82,0.5c-0.04-0.47-0.11-0.93-0.22-1.39c-0.1-0.39-0.31-0.75-0.6-1.03
		c-0.34-0.28-0.78-0.41-1.22-0.38c-0.46-0.03-0.9,0.12-1.25,0.41c-0.32,0.35-0.48,0.8-0.45,1.27c-0.01,0.4,0.07,0.79,0.24,1.15
		c0.19,0.36,0.46,0.67,0.77,0.93l2.59,2.28c0.6,0.52,1.12,1.13,1.55,1.8c0.45,0.76,0.67,1.63,0.65,2.51
		c0.02,0.68-0.14,1.36-0.46,1.96c-0.31,0.53-0.76,0.97-1.31,1.25C915.99,428.68,915.36,428.84,914.72,428.84z"/>
	<path class="st3" d="M924.03,428.84c-0.9,0.06-1.8-0.18-2.56-0.67c-0.6-0.47-1.03-1.13-1.2-1.87c-0.23-0.92-0.34-1.87-0.33-2.82
		V413.3h2.04v10.31c0,0.6,0.04,1.21,0.14,1.8c0.06,0.48,0.26,0.92,0.57,1.29c0.37,0.33,0.85,0.5,1.34,0.46
		c0.5,0.05,0.99-0.12,1.36-0.46c0.31-0.37,0.51-0.81,0.57-1.29c0.09-0.6,0.14-1.2,0.14-1.8V413.3h2.03v10.19
		c0.01,0.95-0.1,1.9-0.33,2.82c-0.18,0.74-0.6,1.4-1.2,1.87C925.83,428.67,924.93,428.9,924.03,428.84z"/>
	<path class="st3" d="M930.33,428.67l0.27-15.37h2.11l2.71,12.47l2.73-12.47h2.15l0.27,15.37h-1.72l-0.17-11.17l-2.61,11.17h-1.2
		l-2.59-11.17l-0.15,11.17H930.33z"/>
	<path class="st3" d="M529.9,553.1v-15.36h2.15v13.83h3.92v1.53H529.9z"/>
	<path class="st3" d="M541.23,553.27c-0.86,0.04-1.72-0.17-2.47-0.6c-0.62-0.41-1.09-1.02-1.34-1.72c-0.28-0.85-0.41-1.75-0.4-2.65
		v-5.82c-0.02-0.89,0.12-1.77,0.41-2.61c0.23-0.71,0.7-1.32,1.32-1.72c1.56-0.78,3.39-0.78,4.95,0c0.61,0.41,1.08,1.02,1.32,1.72
		c0.28,0.84,0.41,1.72,0.4,2.61v5.84c0.01,0.89-0.12,1.77-0.4,2.61c-0.24,0.7-0.71,1.3-1.32,1.72
		C542.96,553.1,542.1,553.32,541.23,553.27z M541.23,551.56c0.46,0.03,0.91-0.09,1.29-0.34c0.31-0.25,0.52-0.6,0.6-1
		c0.1-0.49,0.15-0.99,0.14-1.49v-6.7c0.01-0.49-0.03-0.98-0.14-1.46c-0.08-0.38-0.29-0.71-0.6-0.94c-0.8-0.46-1.78-0.46-2.58,0
		c-0.31,0.23-0.53,0.56-0.6,0.94c-0.11,0.48-0.16,0.97-0.15,1.46v6.7c-0.01,0.5,0.04,1,0.15,1.49c0.08,0.39,0.29,0.74,0.6,1
		c0.38,0.26,0.83,0.4,1.29,0.38V551.56z"/>
	<path class="st3" d="M547.54,553.1v-15.36h3.09c0.87-0.03,1.73,0.11,2.54,0.41c0.64,0.24,1.17,0.7,1.49,1.31
		c0.34,0.74,0.51,1.54,0.48,2.35c0,0.55-0.06,1.1-0.19,1.63c-0.11,0.45-0.32,0.87-0.62,1.22c-0.29,0.35-0.67,0.61-1.1,0.74l2.18,7.7
		h-2.06l-2.01-7.2h-1.72v7.2H547.54z M549.68,544.36h0.81c0.5,0.02,1-0.06,1.48-0.22c0.37-0.14,0.67-0.42,0.84-0.77
		c0.19-0.49,0.28-1.02,0.26-1.55c0.06-0.68-0.11-1.37-0.48-1.94c-0.54-0.47-1.25-0.69-1.96-0.6h-0.94V544.36z"/>
	<path class="st3" d="M557.38,553.1v-15.36h5.96v1.6h-3.81v5.07h3.09v1.53h-3.09v5.63h3.85v1.53L557.38,553.1z"/>
	<path class="st3" d="M565.06,553.1l0.29-15.36h2.1l2.71,12.45l2.73-12.45h2.1l0.27,15.36h-1.72l-0.17-11.15l-2.59,11.15h-1.22
		l-2.58-11.15l-0.17,11.15H565.06z"/>
	<path class="st3" d="M582.08,553.1v-15.36h2.1v15.36H582.08z"/>
	<path class="st3" d="M586.67,553.1v-15.36h3.81c0.77-0.03,1.54,0.14,2.22,0.5c0.55,0.34,0.97,0.86,1.2,1.46
		c0.27,0.73,0.4,1.51,0.38,2.28c0.02,0.73-0.13,1.45-0.43,2.11c-0.27,0.57-0.71,1.05-1.25,1.37c-0.64,0.34-1.37,0.51-2.1,0.48h-1.72
		v7.15H586.67z M588.81,544.41h0.98c0.5,0.02,0.99-0.05,1.46-0.21c0.34-0.12,0.62-0.38,0.76-0.72c0.18-0.47,0.26-0.97,0.24-1.48
		c0.02-0.58-0.03-1.16-0.17-1.72c-0.08-0.37-0.33-0.67-0.67-0.82c-0.51-0.17-1.06-0.25-1.6-0.22h-1V544.41z"/>
	<path class="st3" d="M599.4,553.27c-0.78,0.03-1.55-0.17-2.22-0.57c-0.59-0.38-1.05-0.93-1.32-1.58c-0.32-0.73-0.5-1.52-0.53-2.32
		l1.89-0.52c0.03,0.53,0.12,1.05,0.26,1.56c0.11,0.47,0.33,0.9,0.65,1.25c0.34,0.33,0.8,0.5,1.27,0.48
		c0.47,0.03,0.93-0.14,1.27-0.46c0.3-0.38,0.44-0.86,0.41-1.34c0.03-0.61-0.13-1.21-0.46-1.72c-0.36-0.46-0.77-0.88-1.2-1.27
		l-2.58-2.28c-0.47-0.4-0.85-0.89-1.12-1.44c-0.26-0.61-0.38-1.28-0.36-1.94c-0.07-0.97,0.28-1.93,0.96-2.63
		c0.72-0.65,1.68-0.98,2.65-0.93c0.54-0.01,1.08,0.07,1.6,0.24c0.44,0.14,0.83,0.39,1.15,0.72c0.33,0.36,0.58,0.79,0.74,1.25
		c0.2,0.55,0.32,1.13,0.38,1.72l-1.82,0.5c-0.03-0.48-0.11-0.95-0.22-1.41c-0.11-0.39-0.31-0.74-0.6-1.01
		c-0.34-0.28-0.78-0.43-1.22-0.4c-0.46-0.03-0.91,0.12-1.25,0.43c-0.31,0.34-0.47,0.79-0.45,1.25c-0.01,0.4,0.07,0.8,0.24,1.17
		c0.2,0.35,0.46,0.66,0.77,0.93l2.59,2.27c0.6,0.53,1.12,1.14,1.55,1.82c0.45,0.75,0.67,1.62,0.65,2.49
		c0.02,0.68-0.14,1.36-0.46,1.96c-0.31,0.54-0.76,0.98-1.31,1.27C600.72,553.1,600.06,553.27,599.4,553.27z"/>
	<path class="st3" d="M608.79,553.27c-0.9,0.05-1.79-0.18-2.56-0.65c-0.6-0.47-1.03-1.13-1.2-1.87c-0.23-0.92-0.34-1.87-0.33-2.82
		v-10.19h2.04v10.31c0,0.6,0.04,1.21,0.14,1.8c0.05,0.48,0.25,0.93,0.57,1.29c0.36,0.35,0.84,0.52,1.34,0.48
		c0.5,0.05,1-0.13,1.36-0.48c0.32-0.36,0.51-0.81,0.57-1.29c0.09-0.6,0.14-1.2,0.14-1.8v-10.31h2.03v10.19
		c0.02,0.95-0.09,1.9-0.33,2.82c-0.18,0.74-0.6,1.4-1.2,1.87C610.59,553.1,609.69,553.33,608.79,553.27z"/>
	<path class="st3" d="M615.01,553.1l0.27-15.36h2.1l2.71,12.45l2.73-12.45h2.1l0.27,15.36h-1.72l-0.17-11.15l-2.61,11.15h-1.2
		l-2.59-11.15l-0.15,11.15H615.01z"/>
	<path class="st3" d="M766.6,553.1v-15.36h2.15v13.83h3.92v1.53H766.6z"/>
	<path class="st3" d="M777.93,553.27c-0.86,0.04-1.72-0.17-2.47-0.6c-0.62-0.41-1.09-1.02-1.34-1.72c-0.28-0.85-0.41-1.75-0.4-2.65
		v-5.82c-0.02-0.89,0.12-1.77,0.41-2.61c0.23-0.71,0.7-1.31,1.32-1.72c0.75-0.43,1.61-0.63,2.47-0.58c0.86-0.05,1.72,0.15,2.47,0.58
		c0.61,0.41,1.08,1.02,1.32,1.72c0.29,0.84,0.42,1.72,0.4,2.61v5.84c0.02,0.89-0.11,1.77-0.4,2.61c-0.24,0.7-0.71,1.3-1.32,1.72
		C779.66,553.11,778.8,553.32,777.93,553.27z M777.93,551.56c0.46,0.03,0.92-0.09,1.31-0.34c0.29-0.26,0.5-0.61,0.58-1
		c0.11-0.49,0.16-0.99,0.15-1.49v-6.7c0.01-0.49-0.04-0.98-0.15-1.46c-0.08-0.37-0.29-0.7-0.58-0.94c-0.39-0.25-0.84-0.37-1.31-0.34
		c-0.46-0.03-0.91,0.09-1.29,0.34c-0.31,0.23-0.53,0.56-0.6,0.94c-0.11,0.48-0.16,0.97-0.15,1.46v6.7c-0.01,0.5,0.04,1,0.15,1.49
		c0.08,0.39,0.29,0.74,0.6,1c0.38,0.26,0.83,0.4,1.29,0.38V551.56z"/>
	<path class="st3" d="M784.24,553.1v-15.36h3.09c0.87-0.03,1.73,0.11,2.54,0.41c0.64,0.24,1.17,0.7,1.49,1.31
		c0.34,0.74,0.51,1.54,0.48,2.35c0,0.55-0.06,1.1-0.19,1.63c-0.11,0.45-0.32,0.87-0.62,1.22c-0.29,0.35-0.67,0.61-1.1,0.74l2.18,7.7
		h-2.06l-2.01-7.2h-1.72v7.2H784.24z M786.39,544.36h0.81c0.5,0.02,1-0.06,1.48-0.22c0.37-0.14,0.67-0.41,0.84-0.77
		c0.2-0.49,0.29-1.02,0.27-1.55c0.06-0.68-0.12-1.37-0.5-1.94c-0.54-0.47-1.25-0.69-1.96-0.6h-0.94L786.39,544.36z"/>
	<path class="st3" d="M794.08,553.1v-15.36h5.96v1.6h-3.81v5.07h3.09v1.53h-3.09v5.63h3.85v1.53L794.08,553.1z"/>
	<path class="st3" d="M801.76,553.1l0.29-15.36h2.11l2.71,12.45l2.73-12.45h2.08l0.29,15.36h-1.72l-0.17-11.15l-2.59,11.15h-1.17
		l-2.58-11.15l-0.17,11.15H801.76z"/>
	<path class="st3" d="M818.78,553.1v-15.36h2.11v15.36H818.78z"/>
	<path class="st3" d="M823.37,553.1v-15.36h3.81c0.77-0.03,1.54,0.14,2.22,0.5c0.55,0.34,0.97,0.86,1.2,1.46
		c0.27,0.73,0.4,1.51,0.38,2.28c0.02,0.73-0.13,1.45-0.43,2.11c-0.27,0.57-0.71,1.05-1.25,1.37c-0.64,0.34-1.37,0.51-2.1,0.48h-1.72
		v7.15H823.37z M825.52,544.41h0.98c0.5,0.02,0.99-0.05,1.46-0.21c0.3-0.12,0.55-0.34,0.7-0.64c0.16-0.47,0.24-0.98,0.22-1.48
		c0.02-0.58-0.03-1.16-0.17-1.72c-0.08-0.37-0.33-0.67-0.67-0.82c-0.51-0.17-1.06-0.25-1.6-0.22h-1L825.52,544.41z"/>
	<path class="st3" d="M836.1,553.27c-0.77,0.03-1.54-0.17-2.2-0.57c-0.6-0.38-1.07-0.93-1.34-1.58c-0.32-0.73-0.5-1.52-0.53-2.32
		l1.89-0.52c0.03,0.53,0.12,1.05,0.26,1.56c0.11,0.46,0.34,0.89,0.65,1.25c0.34,0.33,0.8,0.5,1.27,0.48
		c0.47,0.03,0.93-0.14,1.27-0.46c0.3-0.38,0.46-0.86,0.43-1.34c0.03-0.61-0.14-1.21-0.48-1.72c-0.36-0.46-0.77-0.88-1.2-1.27
		l-2.58-2.28c-0.47-0.4-0.85-0.89-1.12-1.44c-0.26-0.61-0.38-1.28-0.36-1.94c-0.07-0.97,0.28-1.93,0.96-2.63
		c0.72-0.65,1.68-0.98,2.65-0.93c0.54-0.01,1.08,0.07,1.6,0.24c0.44,0.14,0.84,0.39,1.17,0.72c0.33,0.37,0.58,0.79,0.74,1.25
		c0.18,0.56,0.3,1.13,0.36,1.72l-1.82,0.5c-0.03-0.48-0.11-0.95-0.22-1.41c-0.1-0.39-0.31-0.74-0.6-1.01
		c-0.34-0.28-0.78-0.43-1.22-0.4c-0.45-0.03-0.9,0.13-1.24,0.43c-0.31,0.34-0.47,0.79-0.45,1.25c-0.02,0.4,0.06,0.8,0.22,1.17
		c0.21,0.35,0.47,0.66,0.77,0.93l2.59,2.27c0.6,0.53,1.12,1.14,1.55,1.82c0.45,0.75,0.68,1.61,0.65,2.49
		c0.02,0.68-0.14,1.36-0.46,1.96c-0.31,0.54-0.76,0.98-1.31,1.27C837.42,553.1,836.76,553.27,836.1,553.27z"/>
	<path class="st3" d="M845.41,553.27c-0.9,0.05-1.79-0.18-2.56-0.65c-0.6-0.47-1.03-1.13-1.2-1.87c-0.23-0.92-0.34-1.87-0.33-2.82
		v-10.19h2.04v10.31c0,0.6,0.04,1.21,0.14,1.8c0.05,0.48,0.26,0.93,0.58,1.29c0.35,0.34,0.83,0.52,1.32,0.48
		c0.5,0.05,1-0.13,1.36-0.48c0.32-0.36,0.51-0.81,0.57-1.29c0.09-0.6,0.14-1.2,0.14-1.8v-10.31h2.03v10.19
		c0.02,0.95-0.09,1.9-0.33,2.82c-0.17,0.74-0.6,1.41-1.2,1.87C847.2,553.1,846.31,553.33,845.41,553.27z"/>
	<path class="st3" d="M851.71,553.1l0.29-15.36h2.1l2.71,12.45l2.73-12.45h2.1l0.27,15.36h-1.72l-0.17-11.15l-2.61,11.15h-1.27
		l-2.58-11.15l-0.17,11.15H851.71z"/>
	<path class="st3" d="M908.96,553.1v-15.36h2.15v13.83h3.93v1.53H908.96z"/>
	<path class="st3" d="M920.32,553.27c-0.87,0.04-1.73-0.17-2.49-0.6c-0.62-0.41-1.09-1.01-1.32-1.72c-0.28-0.85-0.42-1.75-0.4-2.65
		v-5.82c-0.03-0.89,0.11-1.77,0.4-2.61c0.24-0.71,0.71-1.32,1.34-1.72c1.55-0.78,3.38-0.78,4.93,0c0.61,0.41,1.08,1.02,1.32,1.72
		c0.29,0.84,0.43,1.72,0.41,2.61v5.84c0.02,0.89-0.12,1.77-0.41,2.61c-0.24,0.7-0.71,1.3-1.32,1.72
		C922.03,553.1,921.18,553.32,920.32,553.27z M920.32,551.56c0.46,0.03,0.91-0.09,1.29-0.34c0.3-0.25,0.51-0.61,0.58-1
		c0.11-0.49,0.16-0.99,0.15-1.49v-6.7c0.01-0.49-0.04-0.98-0.15-1.46c-0.07-0.38-0.28-0.71-0.58-0.94
		c-0.38-0.25-0.83-0.37-1.29-0.34c-0.46-0.03-0.92,0.09-1.31,0.34c-0.31,0.23-0.52,0.57-0.6,0.94c-0.11,0.48-0.16,0.97-0.15,1.46
		v6.7c-0.01,0.5,0.04,1,0.15,1.49c0.08,0.39,0.29,0.74,0.6,1c0.38,0.26,0.84,0.4,1.31,0.38V551.56z"/>
	<path class="st3" d="M926.57,553.1v-15.36h3.09c0.87-0.03,1.73,0.11,2.54,0.41c0.64,0.24,1.17,0.7,1.49,1.31
		c0.35,0.73,0.52,1.54,0.48,2.35c0,0.55-0.06,1.1-0.19,1.63c-0.1,0.45-0.31,0.86-0.6,1.22c-0.29,0.35-0.67,0.6-1.1,0.74l2.18,7.7
		h-2.08l-2.01-7.2h-1.72v7.2H926.57z M928.72,544.36h0.82c0.5,0.02,1-0.06,1.48-0.22c0.36-0.14,0.66-0.42,0.82-0.77
		c0.21-0.49,0.3-1.02,0.27-1.55c0.06-0.68-0.12-1.37-0.5-1.94c-0.54-0.47-1.25-0.69-1.96-0.6h-0.94V544.36z"/>
	<path class="st3" d="M936.44,553.1v-15.36h5.96v1.6h-3.81v5.07h3.09v1.53h-3.09v5.63h3.85v1.53L936.44,553.1z"/>
	<path class="st3" d="M944.14,553.1l0.27-15.36h2.11l2.71,12.45l2.73-12.45h2.08l0.29,15.36h-1.72l-0.17-11.15l-2.59,11.15h-1.22
		l-2.58-11.15l-0.17,11.15H944.14z"/>
	<path class="st3" d="M961.15,553.1v-15.36h2.11v15.36H961.15z"/>
	<path class="st3" d="M965.73,553.1v-15.36h3.78c0.77-0.03,1.53,0.14,2.22,0.5c0.55,0.34,0.97,0.86,1.2,1.46
		c0.27,0.73,0.4,1.51,0.38,2.28c0.02,0.73-0.13,1.45-0.43,2.11c-0.27,0.57-0.71,1.05-1.25,1.37c-0.64,0.34-1.36,0.51-2.08,0.48
		h-1.72v7.15H965.73z M967.88,544.41h1c0.5,0.02,0.99-0.05,1.46-0.21c0.34-0.13,0.61-0.39,0.76-0.72c0.17-0.47,0.25-0.97,0.22-1.48
		c0.02-0.58-0.03-1.15-0.15-1.72c-0.09-0.36-0.33-0.67-0.67-0.82c-0.51-0.17-1.06-0.25-1.6-0.22h-1.01V544.41z"/>
	<path class="st3" d="M978.48,553.27c-0.78,0.03-1.55-0.17-2.22-0.57c-0.59-0.39-1.05-0.94-1.34-1.58c-0.32-0.73-0.5-1.52-0.53-2.32
		l1.91-0.52c0.04,0.53,0.12,1.05,0.24,1.56c0.11,0.46,0.34,0.89,0.65,1.25c0.34,0.33,0.81,0.51,1.29,0.48
		c0.46,0.02,0.92-0.15,1.25-0.46c0.3-0.38,0.46-0.86,0.43-1.34c0.04-0.61-0.13-1.22-0.48-1.72c-0.35-0.46-0.75-0.89-1.19-1.27
		l-2.59-2.28c-0.47-0.4-0.85-0.89-1.12-1.44c-0.26-0.61-0.38-1.28-0.36-1.94c-0.06-0.98,0.29-1.93,0.98-2.63
		c0.72-0.65,1.66-0.98,2.63-0.93c0.54-0.01,1.08,0.07,1.6,0.24c0.44,0.14,0.84,0.39,1.17,0.72c0.33,0.37,0.58,0.79,0.74,1.25
		c0.19,0.56,0.31,1.13,0.36,1.72l-1.82,0.5c-0.03-0.48-0.1-0.95-0.22-1.41c-0.1-0.39-0.31-0.74-0.6-1.01
		c-0.34-0.28-0.78-0.43-1.22-0.4c-0.45-0.03-0.9,0.13-1.24,0.43c-0.31,0.34-0.47,0.79-0.45,1.25c-0.02,0.4,0.06,0.81,0.24,1.17
		c0.2,0.35,0.46,0.66,0.76,0.93l2.61,2.27c0.59,0.54,1.1,1.15,1.53,1.82c0.46,0.75,0.69,1.61,0.67,2.49
		c0.02,0.68-0.15,1.36-0.48,1.96c-0.3,0.54-0.75,0.99-1.31,1.27C979.79,553.1,979.14,553.27,978.48,553.27z"/>
	<path class="st3" d="M987.79,553.27c-0.9,0.06-1.8-0.17-2.56-0.65c-0.62-0.46-1.05-1.12-1.22-1.87c-0.23-0.92-0.34-1.87-0.33-2.82
		v-10.19h2.04v10.31c0,0.6,0.04,1.21,0.14,1.8c0.06,0.48,0.26,0.93,0.58,1.29c0.78,0.64,1.9,0.64,2.68,0
		c0.32-0.36,0.51-0.81,0.57-1.29c0.09-0.6,0.14-1.2,0.14-1.8v-10.31h2.01v10.19c0.02,0.95-0.09,1.9-0.33,2.82
		c-0.17,0.75-0.59,1.41-1.2,1.87C989.56,553.1,988.68,553.33,987.79,553.27z"/>
	<path class="st3" d="M994.07,553.1l0.29-15.36h2.1l2.71,12.45l2.73-12.45h2.1l0.27,15.36h-1.72l-0.17-11.15l-2.59,11.15h-1.22
		L996,541.95l-0.17,11.15H994.07z"/>
</g>
<g id="freepik--t-shirt-11--inject-141">
	<polygon class="st4" points="993.9,468.06 973.99,451.72 966.09,450.52 948.04,450.66 939.24,451.72 919.35,468.06 925.59,476.96 
		937.77,473.69 935.4,522.22 977.86,522.22 975.49,473.69 987.67,476.96 	"/>
	<path class="st3" d="M977.86,523.08H935.4c-0.24,0-0.46-0.1-0.62-0.27c-0.17-0.16-0.26-0.4-0.24-0.64l2.34-47.31l-11.04,2.97
		c-0.35,0.08-0.72-0.05-0.93-0.34l-6.24-8.91c-0.25-0.37-0.19-0.87,0.15-1.15l19.91-16.34c0.13-0.11,0.28-0.17,0.45-0.19l8.78-1.06
		l18.14-0.14l8.06,1.2c0.15,0.02,0.3,0.09,0.41,0.19l19.89,16.34c0.36,0.28,0.43,0.78,0.17,1.15l-6.22,8.88
		c-0.2,0.29-0.57,0.43-0.91,0.34l-11.11-2.94l2.32,47.34c0.02,0.24-0.07,0.47-0.24,0.64C978.3,522.99,978.08,523.08,977.86,523.08z
		 M936.29,521.36h40.66l-2.28-47.63c-0.01-0.27,0.1-0.53,0.31-0.7c0.22-0.17,0.51-0.23,0.77-0.15l11.59,3.11l5.43-7.76l-19.14-15.68
		l-7.68-1.15l-17.9,0.14l-8.45,1.01l-19.08,15.68l5.43,7.76l11.59-3.11c0.46-0.12,0.93,0.15,1.05,0.61
		c0.02,0.08,0.03,0.17,0.03,0.25L936.29,521.36z"/>
	<path class="st3" d="M948.04,450.66l-1.15,0.17c0.45,5.38,5.18,9.37,10.56,8.92c4.84-0.41,8.65-4.31,8.94-9.16h-0.29L948.04,450.66
		z"/>
	<path class="st3" d="M956.63,460.64c-5.51-0.03-10.1-4.25-10.6-9.74c-0.04-0.45,0.28-0.85,0.72-0.91l1.17-0.19h0.12l18.04-0.14
		l0.46,0.09c0.43,0.08,0.73,0.46,0.7,0.89C966.9,456.25,962.25,460.63,956.63,460.64z M947.85,451.55
		c0.85,4.85,5.47,8.09,10.32,7.24c3.76-0.66,6.68-3.64,7.27-7.41L947.85,451.55z"/>
	<path class="st4" d="M948.52,450.66c0.65,4.48,4.81,7.58,9.29,6.93c3.63-0.53,6.47-3.41,6.94-7.05L948.52,450.66z"/>
	<path class="st3" d="M956.63,458.58c-4.45-0.12-8.2-3.37-8.95-7.76c-0.09-0.46,0.2-0.9,0.65-1c0.06-0.01,0.13-0.02,0.19-0.02
		l16.22-0.12l0,0c0.25,0,0.49,0.12,0.65,0.31c0.17,0.19,0.24,0.45,0.19,0.7C964.89,455.14,961.12,458.45,956.63,458.58z
		 M949.62,451.5c1.03,3.87,5.01,6.17,8.87,5.13c2.54-0.68,4.52-2.68,5.16-5.24L949.62,451.5z"/>
	<polygon class="st3" points="925.59,476.96 928.87,476.08 921.95,465.93 919.35,468.06 	"/>
	<path class="st3" d="M925.59,477.81c-0.28,0-0.54-0.14-0.7-0.36l-6.24-8.91c-0.25-0.37-0.19-0.87,0.15-1.15l2.59-2.13
		c0.19-0.14,0.43-0.21,0.67-0.19c0.24,0.04,0.45,0.18,0.58,0.38l6.87,10.15c0.27,0.38,0.18,0.9-0.2,1.17
		c-0.09,0.06-0.18,0.11-0.28,0.13l-3.28,0.89L925.59,477.81z M920.52,468.21l5.43,7.76l1.53-0.41l-5.72-8.38L920.52,468.21z"/>
	<polygon class="st3" points="987.67,476.96 984.39,476.08 991.31,465.93 993.9,468.06 	"/>
	<path class="st3" d="M987.67,477.81h-0.22l-3.28-0.89c-0.46-0.12-0.73-0.59-0.61-1.05c0.02-0.09,0.06-0.18,0.12-0.26l6.87-10.15
		c0.14-0.2,0.35-0.33,0.58-0.38c0.24-0.02,0.48,0.05,0.67,0.19l2.58,2.13c0.36,0.28,0.43,0.78,0.17,1.15l-6.13,8.9
		C988.24,477.69,987.96,477.83,987.67,477.81z M985.78,475.56l1.53,0.41l5.43-7.76l-1.24-1.03L985.78,475.56z"/>
	<path class="st3" d="M956.66,499.35c-1.37,0.09-2.73-0.22-3.92-0.91c-0.86-0.63-1.46-1.54-1.72-2.58
		c-0.33-1.26-0.48-2.55-0.46-3.85h4.69c-0.02,0.73,0.03,1.46,0.14,2.18c0.05,0.45,0.23,0.88,0.53,1.22
		c0.32,0.25,0.73,0.37,1.13,0.33c0.44,0.02,0.85-0.22,1.06-0.6c0.26-0.54,0.39-1.12,0.4-1.72c0-0.72,0-1.6,0-2.63
		c0.01-0.69-0.03-1.38-0.12-2.06c-0.05-0.52-0.23-1.02-0.53-1.44c-0.27-0.37-0.71-0.58-1.17-0.55c-0.46-0.02-0.91,0.18-1.2,0.53
		c-0.36,0.48-0.59,1.04-0.67,1.63h-4.21l0.45-13.6h10.99v4.09h-7.09l-0.27,4.86c0.3-0.34,0.68-0.59,1.12-0.72
		c0.55-0.2,1.13-0.34,1.72-0.4c1.06-0.17,2.14,0.07,3.04,0.65c0.88,0.65,1.53,1.57,1.86,2.61c0.45,1.38,0.67,2.83,0.64,4.28
		c0,1.15-0.08,2.3-0.24,3.44c-0.13,0.96-0.44,1.89-0.91,2.73c-0.47,0.75-1.14,1.34-1.94,1.72
		C958.94,499.08,957.81,499.35,956.66,499.35z"/>
	<ellipse class="st5" cx="954.15" cy="564.32" rx="39.85" ry="4.91"/>
</g>
<g id="freepik--t-shirt-10--inject-141">
	<polygon class="st4" points="851.52,468.06 831.63,451.72 823.73,450.52 805.68,450.66 796.88,451.72 776.99,468.06 783.22,476.96 
		795.4,473.69 793.02,522.22 835.49,522.22 833.12,473.69 845.29,476.96 	"/>
	<path class="st3" d="M835.53,523.08h-42.51c-0.23-0.01-0.46-0.11-0.62-0.27c-0.16-0.17-0.24-0.4-0.22-0.64l2.3-47.31l-11.03,2.97
		c-0.35,0.08-0.72-0.05-0.93-0.34l-6.24-8.91c-0.25-0.37-0.19-0.87,0.15-1.15l19.89-16.34c0.13-0.1,0.28-0.17,0.45-0.19l8.79-1.06
		l18.14-0.14l8.06,1.2c0.15,0.02,0.3,0.09,0.41,0.19l19.89,16.34c0.34,0.29,0.41,0.79,0.15,1.15l-6.24,8.91
		c-0.21,0.29-0.58,0.43-0.93,0.34l-11.03-2.97l2.32,47.34c0,0.23-0.08,0.46-0.24,0.64C835.96,522.99,835.75,523.07,835.53,523.08z
		 M793.96,521.36h40.66l-2.32-47.63c-0.03-0.46,0.33-0.86,0.79-0.89c0.09-0.01,0.18,0,0.27,0.03l11.59,3.11l5.45-7.76l-19.14-15.68
		l-7.68-1.15l-17.92,0.14l-8.43,1.01l-19.1,15.68l5.45,7.76l11.59-3.11c0.26-0.07,0.54-0.01,0.76,0.15c0.21,0.17,0.33,0.43,0.33,0.7
		L793.96,521.36z"/>
	<path class="st3" d="M805.68,450.66l-1.17,0.17c0.45,5.38,5.18,9.37,10.56,8.92c4.84-0.41,8.65-4.31,8.94-9.16h-0.29L805.68,450.66
		z"/>
	<path class="st3" d="M814.26,460.64c-5.52-0.02-10.11-4.24-10.6-9.74c-0.05-0.45,0.27-0.86,0.72-0.91l1.15-0.19h0.14l18.04-0.14
		l0.46,0.09c0.42,0.08,0.72,0.46,0.69,0.89C824.53,456.25,819.89,460.64,814.26,460.64z M805.47,451.55
		c0.78,4.25,4.47,7.34,8.79,7.37c4.39-0.01,8.12-3.21,8.79-7.54L805.47,451.55z"/>
	<path class="st4" d="M806.16,450.66c0.62,4.47,4.74,7.6,9.22,6.98c3.67-0.51,6.55-3.42,7-7.1L806.16,450.66z"/>
	<path class="st3" d="M814.26,458.58c-4.46-0.11-8.21-3.37-8.95-7.76c-0.09-0.46,0.2-0.9,0.65-1c0.06-0.01,0.11-0.02,0.17-0.02
		l16.23-0.12l0,0c0.47-0.01,0.87,0.37,0.87,0.84c0,0.06,0,0.11-0.01,0.17C822.54,455.14,818.77,458.46,814.26,458.58z M807.26,451.5
		c1.03,3.87,5.01,6.17,8.87,5.13c2.54-0.68,4.52-2.68,5.16-5.24L807.26,451.5z"/>
	<polygon class="st3" points="783.22,476.96 786.51,476.08 779.57,465.93 776.99,468.06 	"/>
	<path class="st3" d="M783.22,477.81c-0.28,0-0.54-0.14-0.7-0.36l-6.24-8.91c-0.25-0.37-0.19-0.87,0.15-1.15l2.59-2.13
		c0.19-0.14,0.43-0.21,0.67-0.19c0.24,0.05,0.44,0.18,0.58,0.38l6.87,10.15c0.15,0.23,0.19,0.51,0.1,0.77
		c-0.1,0.26-0.31,0.46-0.58,0.53l-3.28,0.89L783.22,477.81z M778.07,468.21l5.45,7.76l1.53-0.41l-5.72-8.38L778.07,468.21z"/>
	<polygon class="st3" points="845.29,476.96 842.01,476.08 848.94,465.93 851.52,468.06 	"/>
	<path class="st3" d="M845.29,477.81h-0.22l-3.28-0.89c-0.27-0.07-0.48-0.27-0.57-0.53c-0.1-0.26-0.07-0.55,0.09-0.77l6.87-10.15
		c0.13-0.2,0.34-0.34,0.58-0.38c0.24-0.02,0.48,0.05,0.67,0.19l2.58,2.13c0.34,0.29,0.41,0.79,0.15,1.15l-6.24,8.91
		C845.77,477.67,845.54,477.8,845.29,477.81z M843.4,475.56l1.53,0.41l5.45-7.76l-1.25-1.03L843.4,475.56z"/>
	<path class="st3" d="M815.6,498.91v-5.29h-7.25v-3.59l6.15-14.7h5.57v14.67h2.18v3.62h-2.18v5.29H815.6z M812.05,489.99h3.56v-9.81
		L812.05,489.99z"/>
	<ellipse class="st5" cx="816" cy="564.32" rx="39.85" ry="4.91"/>
</g>
<g id="freepik--t-shirt-9--inject-141">
	<polygon class="st4" points="730.8,549.25 710.91,532.92 703.01,531.73 684.95,531.85 676.16,532.92 656.27,549.25 662.5,558.17 
		674.68,554.89 672.31,603.41 714.77,603.41 712.39,554.89 724.57,558.17 	"/>
	<path class="st3" d="M714.77,604.27h-42.43c-0.24,0-0.47-0.09-0.64-0.26c-0.16-0.17-0.24-0.4-0.22-0.64l2.32-47.36l-11.08,3.01
		c-0.35,0.08-0.72-0.05-0.93-0.34l-6.24-8.9c-0.26-0.37-0.19-0.88,0.15-1.17l19.91-16.34c0.12-0.1,0.27-0.17,0.43-0.19l8.79-1.05
		l18.14-0.14l8.06,1.2c0.15,0.02,0.29,0.08,0.41,0.17l19.89,16.34c0.34,0.29,0.41,0.8,0.15,1.17l-6.24,8.9
		c-0.21,0.29-0.58,0.43-0.93,0.34l-11.03-2.97l2.32,47.36c0,0.23-0.08,0.46-0.24,0.64C715.23,604.2,715,604.28,714.77,604.27z
		 M673.21,602.55h40.66l-2.32-47.61c-0.02-0.27,0.1-0.53,0.31-0.7c0.21-0.18,0.5-0.25,0.77-0.17l11.59,3.11l5.43-7.76l-19.1-15.68
		l-7.68-1.15l-17.92,0.14l-8.43,1.03l-19.08,15.67l5.43,7.76l11.59-3.11c0.26-0.08,0.55-0.01,0.76,0.17
		c0.22,0.16,0.35,0.43,0.33,0.7L673.21,602.55z"/>
	<path class="st3" d="M684.95,531.85l-1.15,0.17c0.45,5.38,5.18,9.37,10.56,8.92c4.84-0.41,8.65-4.31,8.94-9.16h-0.29L684.95,531.85
		z"/>
	<path class="st3" d="M693.54,541.85c-5.52-0.02-10.11-4.24-10.6-9.74c-0.04-0.45,0.27-0.86,0.72-0.93l1.15-0.17h0.14l18.04-0.12
		h0.46c0.42,0.08,0.72,0.46,0.69,0.89C703.84,537.42,699.19,541.84,693.54,541.85z M684.75,532.76c0.86,4.85,5.48,8.08,10.33,7.23
		c3.76-0.66,6.68-3.65,7.26-7.42L684.75,532.76z"/>
	<path class="st4" d="M685.44,531.85c0.58,4.48,4.68,7.64,9.16,7.06c3.73-0.48,6.65-3.45,7.08-7.18L685.44,531.85z"/>
	<path class="st3" d="M693.54,539.77c-4.46-0.11-8.21-3.37-8.95-7.76c-0.05-0.25,0.02-0.51,0.17-0.7c0.17-0.19,0.4-0.3,0.65-0.31
		l16.23-0.12l0,0c0.25,0.01,0.49,0.12,0.65,0.31c0.15,0.2,0.22,0.45,0.19,0.7C701.81,536.33,698.04,539.65,693.54,539.77z
		 M686.53,532.69c1.07,3.87,5.06,6.14,8.93,5.08c2.5-0.69,4.44-2.66,5.1-5.16L686.53,532.69z"/>
	<polygon class="st3" points="662.5,558.17 665.78,557.28 658.86,547.12 656.27,549.25 	"/>
	<path class="st3" d="M662.5,559.03c-0.28,0-0.55-0.14-0.7-0.38l-6.24-8.9c-0.26-0.37-0.19-0.88,0.15-1.17l2.59-2.11
		c0.19-0.15,0.43-0.22,0.67-0.19c0.23,0.04,0.44,0.17,0.58,0.36l6.87,10.15c0.27,0.39,0.18,0.92-0.21,1.2
		c-0.08,0.06-0.17,0.1-0.27,0.13l-3.28,0.88L662.5,559.03z M657.35,549.41l5.43,7.76l1.53-0.41l-5.7-8.37L657.35,549.41z"/>
	<polygon class="st3" points="724.57,558.17 721.3,557.28 728.22,547.12 730.8,549.25 	"/>
	<path class="st3" d="M724.57,559.03h-0.22l-3.26-0.88c-0.27-0.07-0.49-0.27-0.58-0.53c-0.1-0.26-0.07-0.56,0.09-0.79l6.87-10.15
		c0.14-0.19,0.35-0.32,0.58-0.36c0.24-0.03,0.48,0.03,0.67,0.19l2.58,2.11c0.34,0.29,0.41,0.8,0.15,1.17l-6.24,8.9
		C725.05,558.89,724.82,559.01,724.57,559.03z M722.69,556.76l1.53,0.41l5.43-7.76l-1.25-1.01L722.69,556.76z"/>
	<path class="st3" d="M692.41,574.93v-18.77l-0.72,0.36l-0.86,0.36l-0.88,0.36l-0.77,0.34v-3.61l0.91-0.48l1.25-0.69
		c0.43-0.23,0.85-0.49,1.25-0.77c0.31-0.2,0.59-0.42,0.86-0.67h3.81v23.57L692.41,574.93z"/>
	<ellipse class="st5" cx="694.73" cy="645.51" rx="39.85" ry="4.91"/>
</g>
<g id="freepik--t-shirt-8--inject-141">
	<polygon class="st4" points="614.82,468.06 594.93,451.72 587.01,450.52 568.97,450.66 560.18,451.72 540.29,468.06 546.52,476.96 
		558.7,473.69 556.32,522.22 598.79,522.22 596.41,473.69 608.59,476.96 	"/>
	<path class="st3" d="M598.79,523.08h-42.48c-0.23-0.01-0.46-0.11-0.62-0.27c-0.16-0.17-0.25-0.4-0.24-0.64l2.32-47.31l-11.03,2.97
		c-0.35,0.09-0.72-0.05-0.93-0.34l-6.24-8.91c-0.25-0.37-0.19-0.87,0.15-1.15l19.89-16.34c0.13-0.1,0.28-0.17,0.45-0.19l8.79-1.06
		l18.14-0.14l8.04,1.2c0.16,0.02,0.31,0.08,0.43,0.19l19.89,16.34c0.34,0.29,0.41,0.79,0.15,1.15l-6.24,8.91
		c-0.21,0.29-0.58,0.43-0.93,0.34l-11.03-2.97l2.32,47.34c0,0.23-0.08,0.46-0.24,0.64C599.24,522.99,599.02,523.08,598.79,523.08z
		 M557.23,521.36h40.66l-2.34-47.63c0-0.27,0.12-0.53,0.33-0.7c0.21-0.17,0.49-0.23,0.76-0.15l11.59,3.11l5.45-7.76l-19.1-15.68
		l-7.68-1.15l-17.92,0.14l-8.45,1.01l-19.08,15.68l5.45,7.76l11.59-3.11c0.26-0.07,0.54-0.01,0.76,0.15c0.2,0.18,0.32,0.43,0.33,0.7
		L557.23,521.36z"/>
	<path class="st3" d="M568.97,450.66l-1.17,0.17c0.45,5.38,5.18,9.37,10.56,8.92c4.84-0.41,8.65-4.31,8.94-9.16h-0.29L568.97,450.66
		z"/>
	<path class="st3" d="M577.55,460.64c-5.51-0.02-10.1-4.25-10.58-9.74c-0.05-0.45,0.27-0.86,0.72-0.91l1.15-0.19h0.12l18.05-0.14
		l0.46,0.09c0.42,0.08,0.71,0.47,0.69,0.89C587.83,456.26,583.17,460.64,577.55,460.64z M568.77,451.55
		c0.85,4.85,5.47,8.09,10.32,7.24c3.76-0.66,6.68-3.64,7.27-7.41L568.77,451.55z"/>
	<path class="st4" d="M569.46,450.66c0.62,4.47,4.74,7.6,9.22,6.98c3.67-0.51,6.55-3.42,7-7.1L569.46,450.66z"/>
	<path class="st3" d="M577.56,458.58c-4.46-0.12-8.21-3.37-8.97-7.76c-0.04-0.25,0.03-0.51,0.19-0.7c0.15-0.2,0.4-0.32,0.65-0.31
		l16.23-0.12l0,0c0.47-0.01,0.86,0.37,0.87,0.84c0,0.06,0,0.11-0.01,0.17C585.84,455.14,582.07,458.46,577.56,458.58z M570.56,451.5
		c1.03,3.87,5.01,6.17,8.87,5.13c2.54-0.68,4.52-2.68,5.16-5.24L570.56,451.5z"/>
	<polygon class="st3" points="546.52,476.96 549.81,476.08 542.87,465.93 540.29,468.06 	"/>
	<path class="st3" d="M546.52,477.81c-0.28,0-0.54-0.14-0.7-0.36l-6.24-8.91c-0.25-0.37-0.19-0.87,0.15-1.15l2.59-2.13
		c0.18-0.15,0.42-0.22,0.65-0.19c0.24,0.04,0.46,0.18,0.6,0.38l6.87,10.15c0.15,0.23,0.19,0.51,0.1,0.77
		c-0.1,0.26-0.31,0.46-0.58,0.53l-3.28,0.89L546.52,477.81z M541.37,468.21l5.45,7.76l1.53-0.41l-5.72-8.38L541.37,468.21z"/>
	<polygon class="st3" points="608.59,476.96 605.3,476.08 612.24,465.93 614.82,468.06 	"/>
	<path class="st3" d="M608.59,477.81h-0.22l-3.28-0.89c-0.27-0.07-0.49-0.27-0.58-0.53c-0.09-0.26-0.05-0.55,0.1-0.77l6.87-10.15
		c0.14-0.2,0.36-0.33,0.6-0.38c0.23-0.02,0.47,0.05,0.65,0.19l2.59,2.13c0.34,0.29,0.41,0.79,0.15,1.15l-6.24,8.91
		C609.08,477.68,608.84,477.8,608.59,477.81z M606.7,475.56l1.53,0.41l5.45-7.76l-1.25-1.03L606.7,475.56z"/>
	<path class="st3" d="M578.83,499.35c-1.36,0.07-2.71-0.25-3.88-0.93c-0.94-0.62-1.65-1.53-2.01-2.59
		c-0.41-1.25-0.61-2.55-0.58-3.86v-0.84h4.86v0.91c-0.02,0.63,0.03,1.27,0.14,1.89c0.06,0.4,0.24,0.77,0.52,1.06
		c0.3,0.24,0.68,0.36,1.06,0.34c0.37,0.03,0.73-0.1,1-0.36c0.26-0.29,0.41-0.66,0.45-1.05c0.09-0.57,0.13-1.14,0.12-1.72
		c0.05-0.91-0.12-1.82-0.48-2.66c-0.43-0.67-1.2-1.03-1.99-0.94h-0.91v-3.44h0.76c0.79,0.11,1.58-0.21,2.08-0.84
		c0.4-0.81,0.58-1.71,0.52-2.61c0.04-0.72-0.09-1.43-0.36-2.1c-0.26-0.5-0.8-0.79-1.36-0.74c-0.56-0.05-1.09,0.29-1.27,0.82
		c-0.22,0.68-0.32,1.39-0.29,2.1v1.22h-4.86v-1.43c-0.03-1.24,0.22-2.47,0.76-3.59c0.49-0.96,1.26-1.74,2.22-2.23
		c1.07-0.52,2.25-0.78,3.44-0.76c1.19-0.03,2.36,0.22,3.44,0.72c0.95,0.47,1.74,1.22,2.25,2.15c0.54,1.06,0.81,2.24,0.79,3.44
		c0.03,1.2-0.26,2.39-0.84,3.44c-0.44,0.81-1.17,1.43-2.04,1.72c0.55,0.2,1.05,0.51,1.46,0.93c0.48,0.48,0.84,1.07,1.05,1.72
		c0.27,0.9,0.4,1.84,0.38,2.78c0.02,1.3-0.19,2.59-0.64,3.81c-0.38,1.07-1.1,1.98-2.04,2.59
		C581.42,499.01,580.14,499.37,578.83,499.35z"/>
	<ellipse class="st5" cx="576.62" cy="564.32" rx="39.85" ry="4.91"/>
</g>
<g id="freepik--t-shirt-7--inject-141">
	<polygon class="st4" points="472.46,468.06 452.57,451.72 444.65,450.52 426.61,450.66 417.82,451.72 397.91,468.06 404.14,476.96 
		416.32,473.69 413.95,522.22 456.41,522.22 454.04,473.69 466.22,476.96 	"/>
	<path class="st3" d="M456.41,523.08h-42.46c-0.24,0-0.46-0.1-0.62-0.27c-0.17-0.16-0.26-0.4-0.24-0.64l2.32-47.31l-11.03,2.94
		c-0.35,0.09-0.71-0.05-0.91-0.34l-6.24-8.91c-0.25-0.37-0.19-0.87,0.15-1.15l19.89-16.34c0.13-0.11,0.28-0.17,0.45-0.19l8.78-1.06
		l18.16-0.14l8.04,1.2c0.15,0.02,0.3,0.09,0.41,0.19l19.98,16.34c0.34,0.29,0.41,0.79,0.15,1.15l-6.24,8.91
		c-0.21,0.29-0.58,0.43-0.93,0.34l-11.13-2.94l2.32,47.34c0.02,0.23-0.06,0.47-0.22,0.64C456.88,523,456.65,523.08,456.41,523.08z
		 M414.86,521.36h40.66l-2.34-47.63c-0.01-0.27,0.11-0.54,0.33-0.7c0.21-0.17,0.49-0.23,0.76-0.15l11.59,3.11l5.43-7.76
		l-19.08-15.68l-7.68-1.15l-17.92,0.14l-8.49,1.01l-19.08,15.68l5.43,7.76l11.59-3.11c0.27-0.07,0.55-0.01,0.77,0.15
		c0.21,0.17,0.32,0.43,0.31,0.7L414.86,521.36z"/>
	<path class="st3" d="M426.59,450.66l-1.15,0.17c0.45,5.38,5.18,9.37,10.56,8.92c4.84-0.41,8.65-4.31,8.94-9.16h-0.29L426.59,450.66
		z"/>
	<path class="st3" d="M435.18,460.64c-5.51-0.03-10.1-4.25-10.6-9.74c-0.03-0.45,0.29-0.85,0.74-0.91l1.15-0.19h0.12l18.05-0.14
		l0.46,0.09c0.42,0.08,0.71,0.47,0.69,0.89C445.46,456.26,440.81,460.64,435.18,460.64z M426.4,451.55
		c0.85,4.85,5.47,8.09,10.32,7.24c3.76-0.66,6.68-3.64,7.27-7.41L426.4,451.55z"/>
	<path class="st4" d="M427.07,450.66c0.65,4.48,4.81,7.58,9.29,6.93c3.63-0.53,6.47-3.41,6.94-7.05L427.07,450.66z"/>
	<path class="st3" d="M435.18,458.58c-4.45-0.12-8.2-3.37-8.95-7.76c-0.09-0.47,0.22-0.91,0.69-1c0.05-0.01,0.1-0.01,0.15-0.01
		l16.23-0.12c0.25,0,0.49,0.11,0.65,0.31c0.17,0.19,0.24,0.45,0.19,0.7C443.46,455.14,439.68,458.46,435.18,458.58z M428.19,451.5
		c1.05,3.86,5.03,6.14,8.9,5.09c2.52-0.68,4.47-2.67,5.12-5.2L428.19,451.5z"/>
	<polygon class="st3" points="404.14,476.96 407.42,476.08 400.5,465.93 397.91,468.06 	"/>
	<path class="st3" d="M404.16,477.81c-0.28,0-0.54-0.13-0.7-0.36l-6.24-8.91c-0.25-0.37-0.19-0.87,0.15-1.15l2.58-2.13
		c0.19-0.15,0.43-0.22,0.67-0.19c0.24,0.04,0.45,0.18,0.58,0.38l6.87,10.15c0.13,0.24,0.13,0.53,0,0.77
		c-0.09,0.27-0.31,0.47-0.58,0.53l-3.28,0.89L404.16,477.81z M399.01,468.21l5.43,7.76l1.53-0.41l-5.72-8.38L399.01,468.21z"/>
	<polygon class="st3" points="466.22,476.96 462.94,476.08 469.86,465.93 472.46,468.06 	"/>
	<path class="st3" d="M466.22,477.81H466l-3.28-0.89c-0.45-0.11-0.73-0.57-0.61-1.02c0.03-0.1,0.07-0.2,0.13-0.28l6.87-10.15
		c0.14-0.2,0.35-0.33,0.58-0.38c0.24-0.02,0.48,0.05,0.67,0.19l2.59,2.13c0.34,0.29,0.41,0.79,0.15,1.15l-6.24,8.91
		C466.72,477.67,466.48,477.8,466.22,477.81z M464.33,475.56l1.53,0.41l5.43-7.76l-1.24-1.03L464.33,475.56z"/>
	<path class="st3" d="M427.61,498.91v-3.44l5.65-8.67c0.41-0.64,0.82-1.25,1.2-1.86c0.37-0.58,0.68-1.2,0.93-1.84
		c0.24-0.62,0.36-1.29,0.36-1.96c0.04-0.53-0.1-1.06-0.4-1.51c-0.28-0.33-0.69-0.51-1.12-0.5c-0.45-0.02-0.89,0.14-1.22,0.45
		c-0.31,0.32-0.51,0.73-0.6,1.17c-0.11,0.53-0.16,1.07-0.15,1.61v1.17h-4.72v-1.25c-0.02-1.27,0.2-2.54,0.67-3.73
		c0.43-1.06,1.17-1.97,2.13-2.59c1.15-0.68,2.48-1.01,3.81-0.94c1.75-0.12,3.48,0.46,4.79,1.63c1.13,1.25,1.72,2.9,1.61,4.59
		c0.01,0.91-0.15,1.81-0.45,2.66c-0.32,0.83-0.72,1.62-1.2,2.37c-0.5,0.76-1.01,1.56-1.58,2.39l-4.31,6.44h6.87v3.81H427.61z"/>
	<ellipse class="st5" cx="433.72" cy="564.32" rx="39.85" ry="4.91"/>
</g>
<g id="freepik--t-shirt-6--inject-141">
	<polygon class="st4" points="930.14,343.61 910.25,327.27 902.33,326.09 884.3,326.21 875.5,327.27 855.61,343.61 861.84,352.52 
		874.02,349.24 871.64,397.77 914.11,397.77 911.73,349.24 923.91,352.52 	"/>
	<path class="st3" d="M914.11,398.63H871.6c-0.23,0-0.45-0.09-0.62-0.26c-0.16-0.17-0.24-0.4-0.24-0.64l2.32-47.34l-11.03,2.95
		c-0.35,0.1-0.73-0.04-0.93-0.34l-6.24-8.9c-0.26-0.37-0.19-0.88,0.15-1.17l20.01-16.34c0.13-0.09,0.29-0.16,0.45-0.19l8.79-1.05
		l18.14-0.14l8.04,1.2c0.16,0.02,0.3,0.08,0.43,0.17l19.89,16.34c0.34,0.29,0.41,0.8,0.15,1.17l-6.24,8.9
		c-0.21,0.3-0.58,0.44-0.93,0.34l-11.03-2.95l2.32,47.34c0,0.23-0.08,0.46-0.24,0.64C914.63,398.56,914.38,398.65,914.11,398.63z
		 M872.55,396.91h40.66l-2.34-47.61c-0.01-0.48,0.37-0.89,0.85-0.9c0.08,0,0.16,0.01,0.23,0.02l11.59,3.11l5.45-7.76l-19.1-15.68
		l-7.68-1.15l-17.92,0.14l-8.45,1.03l-19.08,15.67l5.45,7.76l11.59-3.11c0.26-0.08,0.55-0.01,0.76,0.17
		c0.21,0.17,0.33,0.43,0.33,0.7L872.55,396.91z"/>
	<path class="st3" d="M884.3,326.21l-1.17,0.17c0.45,5.38,5.18,9.37,10.56,8.92c4.84-0.41,8.65-4.31,8.94-9.16h-0.29L884.3,326.21z"
		/>
	<path class="st3" d="M892.87,336.21c-5.51-0.03-10.1-4.25-10.6-9.74c-0.03-0.45,0.29-0.86,0.74-0.93l1.15-0.17h0.12l18.05-0.12
		h0.46c0.42,0.08,0.72,0.46,0.69,0.89C903.18,331.78,898.52,336.2,892.87,336.21z M884.09,327.14c0.86,4.85,5.48,8.08,10.33,7.23
		c3.76-0.66,6.68-3.65,7.26-7.42L884.09,327.14z"/>
	<path class="st4" d="M884.78,326.21c0.62,4.47,4.74,7.6,9.22,6.98c3.67-0.51,6.55-3.42,7-7.1L884.78,326.21z"/>
	<path class="st3" d="M892.87,334.14c-4.45-0.13-8.19-3.38-8.95-7.76c-0.03-0.26,0.03-0.52,0.19-0.72c0.16-0.2,0.4-0.31,0.65-0.31
		l16.23-0.12l0,0c0.26,0,0.5,0.12,0.67,0.31c0.15,0.2,0.22,0.45,0.19,0.7C901.16,330.7,897.38,334.02,892.87,334.14z M885.88,327.14
		c1.03,3.87,5.01,6.17,8.87,5.13c2.54-0.68,4.52-2.68,5.16-5.24L885.88,327.14z"/>
	<polygon class="st3" points="861.84,352.52 865.13,351.63 858.19,341.48 855.61,343.61 	"/>
	<path class="st3" d="M861.84,353.38c-0.28,0-0.55-0.14-0.7-0.38l-6.24-8.9c-0.26-0.37-0.19-0.88,0.15-1.17l2.59-2.11
		c0.18-0.16,0.42-0.23,0.65-0.19c0.24,0.04,0.46,0.17,0.6,0.36l6.87,10.15c0.15,0.23,0.19,0.52,0.1,0.79
		c-0.1,0.26-0.32,0.46-0.58,0.53l-3.28,0.88L861.84,353.38z M856.69,343.76l5.45,7.76l1.53-0.41l-5.72-8.37L856.69,343.76z"/>
	<polygon class="st3" points="923.91,352.52 920.62,351.63 927.56,341.48 930.14,343.61 	"/>
	<path class="st3" d="M923.91,353.38h-0.22l-3.28-0.88c-0.27-0.08-0.48-0.27-0.58-0.53c-0.09-0.27-0.05-0.56,0.1-0.79l6.87-10.15
		c0.14-0.2,0.36-0.33,0.6-0.36c0.23-0.04,0.47,0.03,0.65,0.19l2.59,2.11c0.34,0.29,0.41,0.8,0.15,1.17l-6.24,8.9
		C924.41,353.25,924.16,353.37,923.91,353.38z M922.02,351.12l1.53,0.41l5.45-7.76l-1.25-1.01L922.02,351.12z"/>
	<path class="st3" d="M892.35,369.6c-1.34,0.06-2.66-0.27-3.81-0.94c-0.94-0.62-1.66-1.54-2.03-2.61c-0.65-1.77-0.79-3.68-0.43-5.53
		c0.1-0.53,0.27-1.05,0.5-1.55c0.21-0.46,0.49-0.89,0.84-1.25c0.35-0.37,0.76-0.67,1.22-0.89c-0.67-0.51-1.23-1.17-1.61-1.92
		c-0.5-1-0.76-2.11-0.76-3.23c-0.05-1.18,0.17-2.36,0.65-3.44c0.44-0.93,1.16-1.69,2.06-2.18c1.06-0.55,2.24-0.81,3.44-0.76
		c1.19-0.05,2.38,0.22,3.44,0.77c0.89,0.5,1.59,1.26,2.03,2.18c0.47,1.08,0.68,2.26,0.6,3.44c0.03,1.12-0.22,2.24-0.7,3.25
		c-0.37,0.76-0.92,1.41-1.6,1.91c0.45,0.23,0.87,0.53,1.22,0.89c0.34,0.37,0.63,0.8,0.84,1.25c0.23,0.49,0.4,1.01,0.5,1.55
		c0.13,0.56,0.19,1.14,0.19,1.72c0.06,1.3-0.14,2.6-0.58,3.83c-0.38,1.07-1.1,1.98-2.04,2.61
		C895.11,369.38,893.73,369.7,892.35,369.6z M892.35,366.03c0.46,0.04,0.9-0.19,1.13-0.58c0.25-0.43,0.4-0.9,0.45-1.39
		c0-0.53,0.09-1.01,0.09-1.46c0.04-0.57,0.04-1.15,0-1.72c-0.04-0.49-0.2-0.96-0.46-1.37c-0.47-0.62-1.36-0.73-1.98-0.26
		c-0.1,0.07-0.18,0.16-0.26,0.26c-0.25,0.41-0.41,0.88-0.45,1.36c-0.07,0.57-0.1,1.14-0.1,1.72c0,0.49,0.03,0.99,0.09,1.48
		c0.04,0.49,0.19,0.97,0.45,1.39C891.53,365.8,891.92,366.02,892.35,366.03z M892.35,355.08c0.32,0,0.63-0.14,0.82-0.4
		c0.25-0.35,0.41-0.76,0.48-1.19c0.11-0.64,0.17-1.29,0.15-1.94c0.03-0.65-0.09-1.31-0.36-1.91c-0.19-0.43-0.63-0.71-1.1-0.69
		c-0.47-0.01-0.91,0.26-1.12,0.69c-0.28,0.58-0.42,1.23-0.4,1.87c-0.01,0.66,0.04,1.31,0.17,1.96c0.07,0.44,0.24,0.85,0.5,1.2
		C891.72,354.94,892.03,355.08,892.35,355.08z"/>
	<ellipse class="st5" cx="892.16" cy="441.98" rx="39.85" ry="4.91"/>
</g>
<g id="freepik--t-shirt-5--inject-141">
	<polygon class="st4" points="730.8,343.61 710.91,327.27 703.01,326.09 684.95,326.21 676.16,327.27 656.27,343.61 662.5,352.52 
		674.68,349.24 672.31,397.77 714.77,397.77 712.39,349.24 724.57,352.52 	"/>
	<path class="st3" d="M714.77,398.63h-42.43c-0.24,0-0.47-0.09-0.64-0.26c-0.16-0.17-0.24-0.4-0.22-0.64l2.32-47.34l-11.04,2.95
		c-0.35,0.1-0.73-0.04-0.93-0.34l-6.24-8.9c-0.26-0.37-0.19-0.88,0.15-1.17l19.91-16.34c0.13-0.1,0.27-0.16,0.43-0.19l8.79-1.05
		l18.14-0.14l8.06,1.2c0.15,0.02,0.29,0.08,0.41,0.17l19.89,16.34c0.34,0.29,0.41,0.8,0.15,1.17l-6.24,8.9
		c-0.2,0.3-0.58,0.44-0.93,0.34l-11.03-2.95l2.32,47.34c0,0.23-0.08,0.46-0.24,0.64C715.26,398.55,715.02,398.64,714.77,398.63z
		 M673.21,396.91h40.66l-2.32-47.61c-0.02-0.27,0.1-0.53,0.31-0.7c0.22-0.17,0.5-0.24,0.77-0.17l11.59,3.11l5.43-7.76l-19.1-15.68
		l-7.68-1.15l-17.92,0.14l-8.43,1.03l-19.08,15.67l5.43,7.76l11.59-3.11c0.47-0.11,0.94,0.17,1.06,0.64
		c0.02,0.08,0.03,0.15,0.02,0.23L673.21,396.91z"/>
	<path class="st3" d="M684.95,326.21l-1.15,0.17c0.45,5.38,5.18,9.37,10.56,8.92c4.84-0.41,8.65-4.31,8.94-9.16h-0.29L684.95,326.21
		z"/>
	<path class="st3" d="M693.54,336.21c-5.52-0.02-10.11-4.24-10.6-9.74c-0.04-0.45,0.27-0.86,0.72-0.93l1.17-0.17h0.12l18.04-0.12
		h0.46c0.42,0.08,0.72,0.46,0.69,0.89C703.84,331.78,699.19,336.2,693.54,336.21z M684.75,327.14c0.86,4.85,5.48,8.08,10.33,7.23
		c3.76-0.66,6.68-3.65,7.26-7.42L684.75,327.14z"/>
	<path class="st4" d="M685.44,326.21c0.58,4.48,4.68,7.64,9.16,7.06c3.73-0.48,6.65-3.45,7.08-7.18L685.44,326.21z"/>
	<path class="st3" d="M693.54,334.14c-4.45-0.12-8.2-3.37-8.95-7.76c-0.1-0.45,0.18-0.9,0.63-1.01c0.06-0.01,0.13-0.02,0.19-0.02
		l16.23-0.12l0,0c0.25,0.01,0.49,0.12,0.65,0.31c0.15,0.2,0.22,0.45,0.19,0.7C701.81,330.69,698.04,334.01,693.54,334.14z
		 M686.53,327.14c1.03,3.87,5.01,6.17,8.87,5.13c2.54-0.68,4.52-2.68,5.16-5.24L686.53,327.14z"/>
	<polygon class="st3" points="662.5,352.52 665.78,351.63 658.86,341.48 656.27,343.61 	"/>
	<path class="st3" d="M662.5,353.38c-0.28,0-0.55-0.14-0.7-0.38l-6.24-8.9c-0.26-0.37-0.19-0.88,0.15-1.17l2.59-2.11
		c0.19-0.15,0.43-0.22,0.67-0.19c0.23,0.04,0.44,0.17,0.58,0.36l6.87,10.15c0.15,0.23,0.19,0.52,0.1,0.79
		c-0.1,0.26-0.31,0.46-0.58,0.53l-3.28,0.88L662.5,353.38z M657.35,343.76l5.43,7.76l1.53-0.41l-5.7-8.37L657.35,343.76z"/>
	<polygon class="st3" points="724.57,352.52 721.3,351.63 728.22,341.48 730.8,343.61 	"/>
	<path class="st3" d="M724.57,353.38h-0.22l-3.26-0.88c-0.27-0.07-0.49-0.27-0.58-0.53c-0.1-0.26-0.07-0.56,0.09-0.79l6.87-10.15
		c0.14-0.19,0.35-0.32,0.58-0.36c0.24-0.03,0.48,0.03,0.67,0.19l2.58,2.11c0.34,0.29,0.41,0.8,0.15,1.17l-6.24,8.9
		C725.05,353.24,724.82,353.37,724.57,353.38z M722.69,351.18l1.53,0.41l5.43-7.76l-1.25-1.01L722.69,351.18z"/>
	<path class="st3" d="M688.56,369.22l5.15-19.87h-6.44v-3.69h11.18v3.33l-5.15,20.23H688.56z"/>
	<ellipse class="st5" cx="693.9" cy="441.98" rx="39.85" ry="4.91"/>
</g>
<g id="freepik--t-shirt-4--inject-141">
	<polygon class="st4" points="546.28,343.61 526.38,327.27 518.47,326.09 500.42,326.21 491.63,327.27 471.74,343.61 477.97,352.52 
		490.15,349.24 487.78,397.77 530.24,397.77 527.87,349.24 540.03,352.52 	"/>
	<path class="st3" d="M530.24,398.63h-42.46c-0.24,0-0.47-0.09-0.64-0.26c-0.16-0.17-0.24-0.4-0.22-0.64l2.32-47.34l-10.99,2.95
		c-0.35,0.1-0.73-0.04-0.93-0.34l-6.24-8.9c-0.26-0.37-0.19-0.88,0.15-1.17l19.91-16.34c0.13-0.1,0.27-0.16,0.43-0.19l8.79-1.05
		l18.14-0.14l8.06,1.2c0.15,0.02,0.29,0.08,0.41,0.17l19.89,16.34c0.35,0.29,0.42,0.79,0.17,1.17l-6.25,8.9
		c-0.19,0.31-0.56,0.45-0.91,0.34l-11.04-2.95l2.32,47.34c0.02,0.24-0.07,0.47-0.24,0.64C530.74,398.55,530.49,398.65,530.24,398.63
		z M488.67,396.91h40.66l-2.32-47.61c-0.03-0.47,0.34-0.88,0.81-0.9c0.09-0.01,0.18,0,0.27,0.03l11.59,3.11l5.43-7.76l-19.1-15.68
		l-7.68-1.15l-17.92,0.14l-8.43,1.03l-19.08,15.67l5.43,7.76l11.59-3.11c0.47-0.11,0.94,0.17,1.06,0.64
		c0.02,0.08,0.03,0.15,0.02,0.23L488.67,396.91z"/>
	<path class="st3" d="M500.42,326.21l-1.15,0.17c0.45,5.38,5.18,9.37,10.56,8.92c4.84-0.41,8.65-4.31,8.94-9.16h-0.29L500.42,326.21
		z"/>
	<path class="st3" d="M509.01,336.21c-5.51-0.03-10.1-4.25-10.6-9.74c-0.04-0.45,0.27-0.86,0.72-0.93l1.17-0.17h0.12l18.04-0.12
		h0.46c0.42,0.08,0.72,0.46,0.7,0.89C519.31,331.78,514.65,336.19,509.01,336.21z M500.23,327.14c0.86,4.85,5.48,8.08,10.33,7.23
		c3.76-0.66,6.68-3.65,7.26-7.42L500.23,327.14z"/>
	<path class="st4" d="M500.9,326.21c0.58,4.48,4.68,7.64,9.16,7.06c3.73-0.48,6.65-3.45,7.08-7.18L500.9,326.21z"/>
	<path class="st3" d="M509.01,334.14c-4.45-0.12-8.2-3.37-8.95-7.76c-0.05-0.25,0.01-0.52,0.17-0.72c0.17-0.19,0.41-0.31,0.67-0.31
		l16.22-0.12l0,0c0.25,0.01,0.49,0.12,0.65,0.31c0.16,0.2,0.23,0.45,0.19,0.7C517.27,330.69,513.51,334.01,509.01,334.14z
		 M502,327.14c1.03,3.87,5.01,6.17,8.87,5.13c2.54-0.68,4.52-2.68,5.16-5.24L502,327.14z"/>
	<polygon class="st3" points="477.97,352.52 481.25,351.63 474.33,341.48 471.74,343.61 	"/>
	<path class="st3" d="M477.97,353.38c-0.28,0-0.55-0.14-0.7-0.38l-6.24-8.9c-0.26-0.37-0.19-0.88,0.15-1.17l2.59-2.06
		c0.19-0.15,0.43-0.22,0.67-0.19c0.24,0.04,0.45,0.17,0.58,0.36l6.87,10.15c0.27,0.39,0.18,0.92-0.21,1.2
		c-0.08,0.06-0.17,0.1-0.27,0.13l-3.28,0.88L477.97,353.38z M472.82,343.76l5.43,7.76l1.53-0.41l-5.72-8.37L472.82,343.76z"/>
	<polygon class="st3" points="540.03,352.52 536.77,351.63 543.69,341.48 546.28,343.61 	"/>
	<path class="st3" d="M540.08,353.38h-0.22l-3.28-0.88c-0.27-0.07-0.49-0.27-0.58-0.53c-0.1-0.26-0.07-0.56,0.09-0.79l6.87-10.15
		c0.14-0.19,0.35-0.32,0.58-0.36c0.24-0.03,0.48,0.03,0.67,0.19l2.58,2.11c0.35,0.29,0.42,0.79,0.17,1.17l-6.25,8.9
		C540.56,353.24,540.33,353.37,540.08,353.38z M538.19,351.12l1.53,0.41l5.43-7.76l-1.24-1.01L538.19,351.12z"/>
	<path class="st3" d="M510.37,369.58c-1.32,0.06-2.63-0.3-3.74-1.01c-0.96-0.68-1.69-1.64-2.1-2.75c-0.47-1.28-0.69-2.63-0.67-3.99
		v-8.59c-0.02-1.39,0.16-2.77,0.53-4.11c0.32-1.13,1-2.13,1.94-2.83c1.2-0.76,2.6-1.12,4.02-1.03c1.23-0.06,2.46,0.18,3.57,0.7
		c0.84,0.43,1.5,1.15,1.86,2.03c0.41,1.06,0.6,2.18,0.57,3.32c-0.01,0.07-0.01,0.15,0,0.22v0.19h-4.57
		c0.03-0.71-0.04-1.42-0.21-2.11c-0.15-0.45-0.55-0.69-1.22-0.69c-0.38-0.03-0.75,0.13-1,0.41c-0.28,0.43-0.43,0.92-0.45,1.43
		c-0.1,0.95-0.14,1.9-0.12,2.85v2.1c0.26-0.43,0.66-0.77,1.13-0.94c0.55-0.23,1.13-0.35,1.72-0.36c1.07-0.09,2.13,0.21,2.99,0.84
		c0.77,0.64,1.33,1.5,1.61,2.46c0.34,1.11,0.5,2.27,0.5,3.44c0.02,1.47-0.18,2.93-0.58,4.35c-0.27,1.18-0.92,2.25-1.84,3.04
		C513.15,369.3,511.76,369.67,510.37,369.58z M510.37,365.99c0.38,0.03,0.74-0.14,0.96-0.45c0.24-0.41,0.38-0.87,0.41-1.34
		c0.08-0.73,0.11-1.46,0.1-2.2c0-0.77,0-1.44,0-2.01c-0.02-0.47-0.16-0.92-0.4-1.32c-0.25-0.34-0.66-0.53-1.08-0.48
		c-0.23,0-0.46,0.05-0.67,0.14c-0.2,0.1-0.39,0.22-0.55,0.38c-0.14,0.12-0.26,0.25-0.34,0.41v3.85c0,0.5,0.04,0.99,0.12,1.48
		c0.07,0.41,0.24,0.8,0.5,1.13c0.26,0.28,0.63,0.43,1.01,0.41H510.37z"/>
	<ellipse class="st5" cx="509.13" cy="441.98" rx="39.85" ry="4.91"/>
</g>
<g id="freepik--t-shirt-3--inject-141">
	<polygon class="st4" points="909.03,212.84 889.14,196.5 881.22,195.32 863.18,195.44 854.39,196.5 834.5,212.84 840.73,221.75 
		852.91,218.49 850.52,267 892.99,267 890.62,218.49 902.79,221.75 	"/>
	<path class="st3" d="M893,267.86h-42.48c-0.23,0-0.46-0.09-0.62-0.26c-0.16-0.17-0.24-0.4-0.24-0.64l2.32-47.34l-11.03,2.95
		c-0.35,0.1-0.73-0.04-0.93-0.34l-6.22-8.9c-0.26-0.37-0.19-0.88,0.15-1.17l19.89-16.32c0.13-0.11,0.28-0.17,0.45-0.19l8.79-1.06
		l18.14-0.14l8.04,1.2c0.16,0.02,0.31,0.08,0.43,0.19l19.89,16.32c0.34,0.29,0.41,0.8,0.15,1.17l-6.24,8.9
		c-0.2,0.31-0.58,0.45-0.93,0.34l-11.03-2.95l2.37,47.39c0.02,0.23-0.07,0.46-0.22,0.64C893.51,267.82,893.26,267.9,893,267.86z
		 M851.44,266.14h40.66l-2.34-47.61c-0.01-0.48,0.37-0.89,0.85-0.9c0.08,0,0.16,0.01,0.23,0.02l11.59,3.11l5.45-7.76l-19.1-15.67
		l-7.68-1.17l-17.92,0.14l-8.45,1.03l-19.08,15.67l5.45,7.76l11.59-3.11c0.26-0.06,0.54,0,0.76,0.17c0.21,0.17,0.33,0.43,0.31,0.7
		L851.44,266.14z"/>
	<path class="st3" d="M863.18,195.44l-1.17,0.19c0.46,5.38,5.19,9.37,10.56,8.91c4.84-0.41,8.65-4.32,8.93-9.17h-0.29L863.18,195.44
		z"/>
	<path class="st3" d="M871.76,205.44c-5.51-0.03-10.1-4.25-10.6-9.74c-0.03-0.45,0.29-0.86,0.74-0.93l1.15-0.17h0.12l18.05-0.12
		h0.46c0.42,0.08,0.71,0.47,0.69,0.89C882.06,201.01,877.4,205.43,871.76,205.44z M863.01,196.35c0.86,4.85,5.48,8.08,10.33,7.23
		c3.76-0.66,6.68-3.65,7.26-7.42L863.01,196.35z"/>
	<path class="st4" d="M863.67,195.44c0.61,4.47,4.73,7.6,9.21,6.99c3.67-0.5,6.55-3.42,7.01-7.1L863.67,195.44z"/>
	<path class="st3" d="M871.76,203.46c-4.45-0.12-8.2-3.37-8.95-7.76c-0.07-0.29,0.01-0.6,0.21-0.82c0.16-0.2,0.4-0.31,0.65-0.31
		l16.23-0.1l0,0c0.25,0,0.5,0.1,0.67,0.29c0.16,0.2,0.22,0.46,0.17,0.7C880.11,199.96,876.31,203.35,871.76,203.46z M864.73,196.3
		c1.03,3.87,5.01,6.17,8.87,5.13c2.54-0.68,4.52-2.68,5.16-5.24L864.73,196.3z"/>
	<polygon class="st3" points="840.73,221.75 844.01,220.86 837.08,210.71 834.5,212.84 	"/>
	<path class="st3" d="M840.68,222.61c-0.28,0-0.55-0.14-0.7-0.38l-6.17-8.9c-0.26-0.37-0.19-0.88,0.15-1.17l2.58-2.11
		c0.19-0.15,0.43-0.22,0.67-0.19c0.24,0.03,0.45,0.16,0.58,0.36l6.87,10.15c0.13,0.25,0.13,0.54,0,0.79
		c-0.09,0.26-0.3,0.46-0.57,0.53l-3.28,0.88L840.68,222.61z M835.53,212.99l5.45,7.76l1.51-0.41l-5.58-8.3L835.53,212.99z"/>
	<polygon class="st3" points="902.79,221.75 899.51,220.86 906.45,210.71 909.03,212.84 	"/>
	<path class="st3" d="M902.79,222.61h-0.22l-3.28-0.88c-0.27-0.08-0.48-0.27-0.58-0.53c-0.09-0.27-0.05-0.56,0.1-0.79l6.87-10.15
		c0.14-0.19,0.35-0.32,0.58-0.36c0.24-0.04,0.49,0.03,0.67,0.19l2.59,2.11c0.34,0.29,0.41,0.8,0.15,1.17l-6.24,8.9
		C903.29,222.48,903.05,222.61,902.79,222.61z M900.91,220.35l1.53,0.41l5.45-7.76l-1.25-1.01L900.91,220.35z"/>
	<path class="st3" d="M863.41,239.1v-18.77c-0.23,0.13-0.47,0.24-0.72,0.34l-0.86,0.38l-0.88,0.36c-0.29,0.12-0.55,0.22-0.77,0.34
		v-3.61l0.89-0.48l1.25-0.69c0.43-0.23,0.85-0.49,1.25-0.77c0.31-0.19,0.61-0.42,0.88-0.67h3.81v23.57L863.41,239.1z"/>
	<path class="st3" d="M874.73,239.1v-18.77c-0.23,0.13-0.47,0.25-0.72,0.34l-0.86,0.38l-0.88,0.36l-0.77,0.34v-3.61l0.91-0.48
		l1.24-0.69c0.43-0.23,0.85-0.49,1.25-0.77c0.31-0.19,0.61-0.42,0.88-0.67h3.81v23.57L874.73,239.1z"/>
	<ellipse class="st5" cx="872.96" cy="310.15" rx="39.85" ry="4.91"/>
</g>
<g id="freepik--t-shirt-2--inject-141">
	<polygon class="st4" points="730.8,212.84 710.91,196.5 703.01,195.32 684.95,195.44 676.16,196.5 656.27,212.84 662.5,221.75 
		674.68,218.49 672.31,267 714.77,267 712.39,218.49 724.57,221.75 	"/>
	<path class="st3" d="M714.77,267.86h-42.43c-0.24,0-0.47-0.09-0.64-0.26c-0.16-0.17-0.24-0.4-0.22-0.64l2.32-47.34l-11.04,2.95
		c-0.35,0.1-0.73-0.04-0.93-0.34l-6.24-8.9c-0.26-0.37-0.19-0.88,0.15-1.17l19.91-16.32c0.12-0.11,0.27-0.18,0.43-0.19l8.79-1.06
		l18.14-0.14l8.06,1.2c0.15,0.02,0.3,0.09,0.41,0.19l19.89,16.32c0.34,0.29,0.41,0.8,0.15,1.17l-6.24,8.9
		c-0.2,0.31-0.58,0.45-0.93,0.34l-11.03-2.95l2.28,47.39c0,0.23-0.08,0.46-0.24,0.64C715.22,267.8,715,267.88,714.77,267.86z
		 M673.21,266.14h40.66l-2.32-47.61c-0.02-0.27,0.1-0.53,0.31-0.7c0.22-0.17,0.5-0.24,0.77-0.17l11.59,3.11l5.43-7.76l-19.1-15.67
		l-7.68-1.17l-17.92,0.14l-8.43,1.03l-19.08,15.67l5.43,7.76l11.59-3.11c0.26-0.07,0.55,0,0.76,0.17c0.22,0.17,0.34,0.43,0.33,0.7
		L673.21,266.14z"/>
	<path class="st3" d="M684.95,195.44l-1.15,0.19c0.46,5.38,5.19,9.37,10.57,8.91c4.84-0.41,8.65-4.32,8.93-9.17h-0.29L684.95,195.44
		z"/>
	<path class="st3" d="M693.54,205.44c-5.52-0.02-10.11-4.24-10.6-9.74c-0.04-0.45,0.27-0.86,0.72-0.93l1.17-0.17h0.12l18.04-0.12
		h0.46c0.42,0.08,0.72,0.46,0.69,0.89C703.84,201.01,699.19,205.43,693.54,205.44z M684.75,196.35c0.86,4.85,5.48,8.08,10.33,7.23
		c3.76-0.66,6.68-3.65,7.26-7.42L684.75,196.35z"/>
	<path class="st4" d="M685.44,195.44c0.57,4.48,4.67,7.64,9.15,7.07c3.73-0.48,6.65-3.44,7.08-7.17L685.44,195.44z"/>
	<path class="st3" d="M693.54,203.46c-4.46-0.11-8.21-3.37-8.95-7.76c-0.1-0.45,0.18-0.9,0.63-1.01c0.06-0.01,0.13-0.02,0.19-0.02
		l16.23-0.1l0,0c0.25,0,0.49,0.11,0.65,0.29c0.15,0.2,0.22,0.45,0.19,0.7C701.81,200.01,698.04,203.34,693.54,203.46z
		 M686.53,196.38c1.03,3.87,5.01,6.17,8.87,5.13c2.54-0.68,4.52-2.68,5.16-5.24L686.53,196.38z"/>
	<polygon class="st3" points="662.5,221.75 665.78,220.86 658.86,210.71 656.27,212.84 	"/>
	<path class="st3" d="M662.5,222.61c-0.28,0-0.55-0.14-0.7-0.38l-6.24-8.9c-0.26-0.37-0.19-0.88,0.15-1.17l2.59-2.11
		c0.19-0.15,0.43-0.22,0.67-0.19c0.23,0.04,0.44,0.17,0.58,0.36l6.87,10.15c0.15,0.23,0.19,0.52,0.1,0.79
		c-0.1,0.26-0.31,0.46-0.58,0.53l-3.28,0.88L662.5,222.61z M657.35,212.99l5.43,7.76l1.53-0.41l-5.7-8.3L657.35,212.99z"/>
	<polygon class="st3" points="724.57,221.75 721.3,220.86 728.22,210.71 730.8,212.84 	"/>
	<path class="st3" d="M724.57,222.61h-0.22l-3.26-0.88c-0.27-0.07-0.49-0.27-0.58-0.53c-0.1-0.26-0.07-0.56,0.09-0.79l6.87-10.15
		c0.14-0.19,0.35-0.32,0.58-0.36c0.24-0.03,0.48,0.03,0.67,0.19l2.58,2.11c0.34,0.29,0.41,0.8,0.15,1.17l-6.24,8.9
		C725.05,222.47,724.82,222.6,724.57,222.61z M722.69,220.35l1.53,0.41l5.43-7.76l-1.25-1.01L722.69,220.35z"/>
	<path class="st3" d="M683.49,239.1v-18.77c-0.24,0.13-0.48,0.25-0.74,0.34l-0.86,0.38l-0.88,0.36c-0.27,0.12-0.53,0.22-0.76,0.34
		v-3.61l0.89-0.48l1.25-0.69c0.43-0.23,0.85-0.49,1.25-0.77c0.31-0.2,0.6-0.43,0.88-0.67h3.81v23.57L683.49,239.1z"/>
	<path class="st3" d="M698.95,239.53c-1.24,0.04-2.47-0.26-3.56-0.86c-0.94-0.57-1.69-1.4-2.16-2.39c-0.5-1.1-0.75-2.31-0.72-3.52
		v-10.68c-0.03-1.24,0.2-2.47,0.69-3.61c0.42-1.02,1.17-1.87,2.11-2.44c1.11-0.62,2.37-0.93,3.64-0.88
		c1.26-0.05,2.51,0.25,3.61,0.88c0.94,0.57,1.68,1.43,2.11,2.44c0.47,1.14,0.7,2.37,0.67,3.61v10.68c0.02,1.21-0.22,2.42-0.72,3.52
		c-0.46,0.99-1.21,1.82-2.15,2.39C701.4,239.27,700.18,239.57,698.95,239.53z M698.95,235.19c0.39,0.03,0.76-0.14,1-0.45
		c0.21-0.31,0.34-0.67,0.38-1.05c0.02-0.34,0.02-0.69,0-1.03V222.2c0-0.33,0-0.7,0-1.12c-0.03-0.39-0.15-0.77-0.36-1.1
		c-0.23-0.34-0.63-0.52-1.03-0.48c-0.41-0.04-0.81,0.14-1.05,0.48c-0.21,0.33-0.34,0.71-0.36,1.1c0,0.41,0,0.79,0,1.12v10.46
		c0.01,0.35,0.04,0.69,0.09,1.03c0.05,0.38,0.18,0.73,0.4,1.05c0.22,0.3,0.57,0.48,0.94,0.46V235.19z"/>
	<ellipse class="st5" cx="689.46" cy="310.15" rx="39.85" ry="4.91"/>
</g>
<g id="freepik--t-shirt-1--inject-141">
	<polygon class="st4" points="551.52,212.84 531.63,196.5 523.71,195.32 505.68,195.44 496.88,196.5 476.99,212.84 483.23,221.75 
		495.41,218.49 493.02,267 535.5,267 533.11,218.49 545.29,221.75 	"/>
	<path class="st3" d="M535.5,267.86h-42.48c-0.23,0-0.45-0.09-0.62-0.26c-0.16-0.17-0.24-0.4-0.22-0.64l2.32-47.34l-11.1,2.95
		c-0.35,0.1-0.73-0.04-0.93-0.34l-6.24-8.9c-0.26-0.37-0.19-0.88,0.15-1.17l19.89-16.32c0.13-0.11,0.28-0.17,0.45-0.19l8.79-1.06
		l18.14-0.14l8.06,1.2c0.15,0.02,0.3,0.09,0.41,0.19l19.89,16.32c0.34,0.29,0.41,0.8,0.15,1.17l-6.24,8.9
		c-0.2,0.31-0.58,0.45-0.93,0.34l-11.03-2.95l2.37,47.39c0,0.23-0.08,0.46-0.24,0.64C535.94,267.8,535.72,267.88,535.5,267.86z
		 M493.93,266.14h40.66l-2.32-47.61c-0.02-0.27,0.1-0.53,0.31-0.7c0.21-0.18,0.49-0.25,0.76-0.17l11.59,3.11l5.45-7.76l-19.1-15.67
		l-7.68-1.17l-17.92,0.14l-8.43,1.03l-19.1,15.67l5.45,7.76l11.59-3.11c0.26-0.07,0.55,0,0.76,0.17c0.22,0.17,0.34,0.43,0.33,0.7
		L493.93,266.14z"/>
	<path class="st3" d="M505.73,195.44l-1.15,0.19c0.46,5.38,5.19,9.37,10.56,8.91c4.84-0.41,8.65-4.32,8.93-9.17h-0.31L505.73,195.44
		z"/>
	<path class="st3" d="M514.32,205.44c-5.52-0.02-10.11-4.24-10.6-9.74c-0.05-0.45,0.27-0.87,0.72-0.93l1.15-0.17h0.14l18.04-0.12
		h0.46c0.42,0.08,0.72,0.46,0.69,0.89C524.61,201.01,519.96,205.43,514.32,205.44z M505.52,196.35c0.86,4.85,5.48,8.08,10.33,7.23
		c3.76-0.66,6.68-3.65,7.26-7.42L505.52,196.35z"/>
	<path class="st4" d="M506.16,195.44c0.61,4.47,4.73,7.6,9.21,6.99c3.67-0.5,6.55-3.42,7.01-7.1L506.16,195.44z"/>
	<path class="st3" d="M514.32,203.46c-4.46-0.11-8.21-3.37-8.95-7.76c-0.1-0.45,0.18-0.9,0.63-1.01c0.06-0.01,0.13-0.02,0.19-0.02
		l16.23-0.1c0.26-0.01,0.5,0.1,0.67,0.29c0.15,0.2,0.22,0.45,0.19,0.7C522.6,200.02,518.83,203.35,514.32,203.46z M507.31,196.38
		c1.03,3.87,5.01,6.17,8.87,5.13c2.54-0.68,4.52-2.68,5.16-5.24L507.31,196.38z"/>
	<polygon class="st3" points="483.23,221.75 486.51,220.86 479.57,210.71 476.99,212.84 	"/>
	<path class="st3" d="M483.23,222.61c-0.28,0-0.55-0.14-0.7-0.38l-6.24-8.9c-0.26-0.37-0.19-0.88,0.15-1.17l2.59-2.11
		c0.19-0.15,0.43-0.22,0.67-0.19c0.23,0.04,0.44,0.17,0.58,0.36l6.87,10.15c0.15,0.23,0.19,0.52,0.1,0.79
		c-0.1,0.26-0.32,0.46-0.58,0.53l-3.28,0.88L483.23,222.61z M478.07,212.99l5.45,7.76l1.53-0.41l-5.65-8.3L478.07,212.99z"/>
	<polygon class="st3" points="545.29,221.75 542.02,220.86 548.95,210.71 551.52,212.84 	"/>
	<path class="st3" d="M545.24,222.61h-0.22l-3.26-0.88c-0.27-0.07-0.49-0.27-0.58-0.53c-0.1-0.26-0.07-0.56,0.09-0.79l6.87-10.15
		c0.13-0.2,0.35-0.33,0.58-0.36c0.24-0.03,0.48,0.03,0.67,0.19l2.58,2.11c0.34,0.29,0.41,0.8,0.15,1.17l-6.24,8.9
		C545.72,222.47,545.49,222.6,545.24,222.61z M543.36,220.35l1.51,0.41l5.45-7.76l-1.25-1.01L543.36,220.35z"/>
	<path class="st3" d="M514.16,239.53c-1.23,0.06-2.45-0.17-3.57-0.69c-0.85-0.44-1.52-1.17-1.87-2.06c-0.39-1.07-0.58-2.2-0.55-3.33
		v-0.38h4.53c-0.03,0.71,0.05,1.43,0.26,2.11c0.15,0.46,0.57,0.69,1.24,0.69c0.37,0.03,0.74-0.12,0.98-0.41
		c0.27-0.43,0.42-0.93,0.43-1.44c0.07-0.69,0.1-1.63,0.1-2.83v-2.1c-0.27,0.43-0.68,0.75-1.15,0.93c-0.55,0.23-1.13,0.35-1.72,0.38
		c-1.08,0.07-2.15-0.26-3.01-0.93c-0.79-0.68-1.35-1.59-1.61-2.59c-0.35-1.15-0.51-2.34-0.5-3.54c-0.03-1.45,0.18-2.89,0.62-4.28
		c0.36-1.12,1.09-2.1,2.06-2.77c1.13-0.72,2.45-1.06,3.78-1c1.32-0.06,2.62,0.26,3.76,0.93c0.95,0.63,1.68,1.54,2.08,2.61
		c0.46,1.26,0.68,2.59,0.65,3.93v8.79c0.01,1.39-0.17,2.77-0.53,4.11c-0.32,1.13-1,2.13-1.94,2.83
		C517,239.27,515.58,239.63,514.16,239.53z M514.16,226.67c0.34,0.02,0.68-0.09,0.94-0.31c0.2-0.19,0.39-0.4,0.55-0.62v-3.83
		c0.01-0.51-0.03-1.01-0.12-1.51c-0.05-0.4-0.2-0.77-0.43-1.1c-0.24-0.29-0.61-0.45-1-0.43c-0.38-0.02-0.74,0.15-0.96,0.46
		c-0.25,0.4-0.39,0.87-0.41,1.34c-0.08,0.72-0.11,1.45-0.1,2.18c0,0.77,0,1.43,0,2.01c0.02,0.47,0.15,0.93,0.4,1.34
		c0.29,0.34,0.75,0.49,1.19,0.38L514.16,226.67z"/>
	<ellipse class="st5" cx="515.45" cy="310.15" rx="39.85" ry="4.91"/>
</g>
<g id="freepik--text-1--inject-141">
	<path class="st0" d="M610.66,161.21c-2.07,0.16-4.1-0.56-5.6-1.99c-1.4-1.83-2.1-4.09-1.99-6.39l5-0.76
		c-0.05,1.23,0.16,2.46,0.6,3.61c0.29,0.69,0.97,1.13,1.72,1.12c0.98,0,1.48-0.64,1.48-1.91c0.01-0.68-0.12-1.35-0.38-1.98
		c-0.23-0.56-0.55-1.08-0.94-1.53c-0.48-0.53-1.01-1.03-1.56-1.49l-2.34-2.03c-0.57-0.5-1.03-0.94-1.41-1.34
		c-0.4-0.45-0.76-0.93-1.08-1.44c-0.36-0.57-0.63-1.2-0.79-1.86c-0.18-0.74-0.26-1.49-0.26-2.25c-0.13-1.92,0.59-3.81,1.98-5.15
		c1.51-1.27,3.44-1.92,5.41-1.82c0.72-0.01,1.45,0.08,2.15,0.26c0.6,0.13,1.18,0.36,1.72,0.67c0.44,0.28,0.84,0.64,1.17,1.05
		c0.31,0.39,0.57,0.81,0.79,1.25c0.2,0.46,0.37,0.94,0.5,1.43c0.12,0.47,0.21,0.96,0.26,1.44c0,0.44,0.03,0.9,0.1,1.39l-5.05,0.65
		c0-0.45,0-0.81,0-1.1s0-0.6-0.09-0.93c-0.03-0.27-0.09-0.54-0.17-0.81c-0.08-0.2-0.17-0.39-0.29-0.57
		c-0.12-0.16-0.28-0.29-0.46-0.38c-0.22-0.04-0.45-0.04-0.67,0c-0.47-0.01-0.92,0.23-1.17,0.64c-0.28,0.42-0.42,0.92-0.41,1.43
		c0,0.46,0.06,0.92,0.19,1.36c0.13,0.43,0.35,0.84,0.64,1.19c0.31,0.38,0.55,0.67,0.74,0.86s0.52,0.5,0.96,0.89l2.25,1.98
		c0.56,0.5,1.1,1.02,1.6,1.58c0.46,0.54,0.89,1.12,1.27,1.72c0.41,0.66,0.71,1.37,0.91,2.11c0.21,0.81,0.31,1.64,0.31,2.47
		c0.01,1.8-0.74,3.52-2.06,4.74C614.32,160.59,612.52,161.28,610.66,161.21z"/>
	<path class="st0" d="M619.1,160.84l5-26.42h6.6l4.98,26.42h-5.39l-0.91-5.62h-3.85l-0.89,5.62H619.1z M625.97,151.74h2.82
		l-1.43-10.31L625.97,151.74z"/>
	<path class="st0" d="M638.28,160.84l0.43-26.42h6.25l2.94,15.46l3.14-15.46h6.05l0.43,26.42h-4.17l-0.43-17.5l-3.11,17.54h-3.64
		l-3.26-17.66l-0.4,17.66L638.28,160.84z"/>
	<path class="st0" d="M661.34,160.84v-26.42h8.81c1.95-0.15,3.87,0.56,5.24,1.96c1.25,1.63,1.86,3.66,1.72,5.7
		c0.01,0.89-0.08,1.79-0.26,2.66c-0.23,1.34-0.92,2.55-1.96,3.44c-0.46,0.39-0.99,0.68-1.56,0.88c-0.59,0.22-1.2,0.38-1.82,0.46
		c-0.68,0.09-1.37,0.14-2.06,0.14h-2.25v11.25L661.34,160.84z M667.16,145.52h1.87c0.79,0.12,1.59-0.19,2.1-0.81
		c0.41-0.85,0.59-1.79,0.52-2.73c0-0.45,0-0.84,0-1.15c-0.04-0.31-0.1-0.62-0.19-0.93c-0.09-0.28-0.23-0.54-0.43-0.76
		c-0.22-0.21-0.48-0.37-0.77-0.46c-0.39-0.12-0.79-0.18-1.2-0.17h-1.86L667.16,145.52z"/>
	<path class="st0" d="M679.85,160.84v-26.42h5.82v22.47h6.06v3.95H679.85z"/>
	<path class="st0" d="M694.28,160.84v-26.42h11.87v3.99h-6.03v6.53h4.6v4.05h-4.6v7.9h6.1v3.95H694.28z"/>
	<path class="st0" d="M719.69,160.84v-22.11h-4.05v-4.31h13.91v4.31h-3.95v22.11H719.69z"/>
	<path class="st0" d="M731.81,160.84v-26.42h11.87v3.99h-6.06v6.53h4.6v4.05h-4.6v7.9h6.1v3.95H731.81z"/>
	<path class="st0" d="M745.14,160.84l5-26.42h6.6l4.98,26.42h-5.39l-0.91-5.62h-3.85l-0.89,5.62H745.14z M752.01,151.74h2.82
		l-1.41-10.31L752.01,151.74z"/>
	<path class="st0" d="M764.28,160.84l0.43-26.42h6.25l2.92,15.46l3.16-15.46h6.05l0.43,26.42h-4.17l-0.5-17.5l-3.11,17.54h-3.59
		l-3.25-17.66l-0.36,17.62H764.28z"/>
</g>
<g id="freepik--Shield--inject-141">
	<path class="st4" d="M750.35,40.06l-1.34,6.87c-0.91,4.64-2.09,9.23-3.52,13.74c-7.92,24.62-23.49,46.07-44.45,61.22l-7.09,5.15
		l-0.4,0.29l-0.4-0.29l-7.11-5.15c-3.66-2.66-7.16-5.53-10.5-8.59c-13.37-12.18-23.85-27.2-30.68-43.96
		c-1.17-2.87-2.23-5.81-3.19-8.78c-1.44-4.51-2.61-9.1-3.52-13.74l-1.34-6.87l56.82-24.7L750.35,40.06z"/>
	<path class="st3" d="M693.54,128.17c-0.18,0-0.36-0.05-0.52-0.15l-0.4-0.31l-7.09-5.15c-18.53-13.4-32.93-31.74-41.55-52.92
		c-1.15-2.83-2.23-5.81-3.23-8.83c-1.44-4.51-2.62-9.1-3.54-13.74l-1.34-6.87c-0.08-0.39,0.13-0.79,0.5-0.94l56.82-24.74
		c0.22-0.1,0.47-0.1,0.69,0l56.8,24.7c0.38,0.15,0.59,0.55,0.5,0.94l-1.34,6.87c-0.92,4.64-2.1,9.23-3.54,13.74
		c-7.89,24.88-23.59,46.56-44.76,61.82l-7.47,5.43C693.92,128.12,693.73,128.18,693.54,128.17z M637.7,40.57l1.2,6.17
		c0.88,4.59,2.03,9.12,3.44,13.57c0.96,2.99,2.03,5.93,3.16,8.73c6.84,16.66,17.3,31.58,30.63,43.7c3.3,3.02,6.78,5.85,10.41,8.47
		l7.01,5.05l6.99-5.05c20.86-15.02,36.33-36.35,44.13-60.84c1.41-4.47,2.55-9.02,3.44-13.62l1.2-6.17l-55.76-24.34L637.7,40.57z"/>
	<path class="st0" d="M750.35,40.06l-1.34,6.87c-0.91,4.64-2.09,9.23-3.52,13.74l-51.94-24.58l-51.96,24.48
		c-1.44-4.51-2.61-9.1-3.52-13.74l-1.34-6.87l56.82-24.7L750.35,40.06z"/>
	<path class="st3" d="M745.49,61.48c-0.12,0.03-0.24,0.03-0.36,0L693.59,37.1l-51.53,24.32c-0.22,0.1-0.48,0.1-0.7,0
		c-0.22-0.1-0.39-0.29-0.48-0.52c-1.44-4.51-2.62-9.1-3.54-13.74L636,40.3c-0.08-0.39,0.13-0.79,0.5-0.94l56.7-24.84
		c0.22-0.1,0.47-0.1,0.69,0l56.8,24.7c0.38,0.15,0.59,0.55,0.5,0.94l-1.34,6.87c-0.92,4.64-2.1,9.23-3.54,13.74
		c-0.09,0.23-0.26,0.41-0.48,0.52C745.73,61.38,745.62,61.44,745.49,61.48z M693.54,35.23c0.12-0.03,0.24-0.03,0.36,0l51.05,24.05
		c1.3-4.17,2.37-8.41,3.21-12.69l1.2-6.17l-55.83-24.19L637.7,40.57l1.2,6.17c0.84,4.27,1.91,8.49,3.19,12.64l51.08-24.05
		C693.29,35.27,693.42,35.24,693.54,35.23z"/>
	<path class="st0" d="M723.88,72.55l-48.34,40.81c-13.38-12.2-23.86-27.25-30.68-44.02l71.15-29.84l-49.01,45L723.88,72.55z"/>
	<path class="st3" d="M675.54,114.23c-0.22,0-0.42-0.08-0.58-0.22c-13.47-12.3-24.03-27.44-30.92-44.33
		c-0.18-0.43,0.01-0.92,0.44-1.11c0.01,0,0.02-0.01,0.02-0.01l71.15-29.84c0.44-0.18,0.94,0.03,1.12,0.46
		c0.14,0.33,0.05,0.72-0.21,0.96l-46.7,42.94l53.94-11.32c0.38-0.07,0.76,0.12,0.94,0.46c0.17,0.36,0.08,0.79-0.22,1.05
		l-48.42,40.76C675.93,114.16,675.74,114.22,675.54,114.23z M645.89,69.81c6.73,16.11,16.84,30.58,29.66,42.43l45.19-38.13
		l-53.66,11.25c-0.47,0.09-0.91-0.22-1-0.69c-0.05-0.28,0.04-0.57,0.25-0.77l45.38-41.69L645.89,69.81z"/>
	<path class="st3" d="M693.54,122.81c-0.2,0.03-0.4,0-0.58-0.09l-0.36-0.27l-6.42-4.64c-16.74-12.17-29.74-28.78-37.53-47.96
		c-1.03-2.56-2.01-5.15-2.9-7.99c-1.31-4.09-2.38-8.26-3.21-12.47l-1.2-6.18c-0.09-0.39,0.12-0.79,0.5-0.94l51.38-22.33
		c0.22-0.1,0.47-0.1,0.69,0l51.36,22.33c0.38,0.15,0.59,0.55,0.5,0.94l-1.2,6.18c-5.37,27.5-21,51.94-43.72,68.35l-6.77,4.98
		C693.9,122.81,693.72,122.83,693.54,122.81z M643.15,43.58l1.08,5.5c0.82,4.14,1.88,8.24,3.16,12.26c0.88,2.7,1.84,5.36,2.87,7.88
		c6.15,15.06,15.58,28.55,27.6,39.51c2.99,2.72,6.13,5.28,9.41,7.64l6.29,4.53l6.27-4.55c18.78-13.64,32.74-32.88,39.89-54.97
		c1.28-4.04,2.34-8.15,3.16-12.32l1.06-5.5l-50.4-21.92L643.15,43.58z"/>
</g>
</svg>
