<?xml version="1.0" encoding="utf-8"?>
<!-- Generator: Adobe Illustrator 23.1.0, SVG Export Plug-In . SVG Version: 6.00 Build 0)  -->
<svg version="1.1" id="Layer_1" xmlns="http://www.w3.org/2000/svg" xmlns:xlink="http://www.w3.org/1999/xlink" x="0px" y="0px"
	 viewBox="0 0 1366 768" style="enable-background:new 0 0 1366 768;" xml:space="preserve">
<style type="text/css">
	.st0{fill:#E0E0E0;}
	.st1{fill:#EBEBEB;}
	.st2{fill:#FFFFFF;}
	.st3{fill:#F5F5F5;}
	.st4{fill:#263238;}
	.st5{fill:#FF725E;}
	.st6{fill:#FFBE9D;}
	.st7{fill:#EB996E;}
	.st8{fill:#455A64;}
	.st9{opacity:0.7;}
	.st10{opacity:0.4;}
	.st11{opacity:0.4;enable-background:new    ;}
	.st12{fill:#FAFAFA;}
</style>
<g id="freepik--background-complete--inject-13">
	<circle class="st0" cx="373.39" cy="534.89" r="27.37"/>
	<circle class="st1" cx="426.78" cy="534.44" r="27.37"/>
	<circle class="st1" cx="320" cy="534.44" r="27.37"/>
	<path class="st0" d="M283.63,540.33H462.4c0,0-1.79,73.71-49.82,82.72l-0.77,15.61h-80.45v-15.93
		C331.36,622.72,283.63,610.56,283.63,540.33z"/>
	<path class="st2" d="M412.56,623.04c0,0.27-18.25,0.46-40.76,0.46c-22.51,0-40.76-0.2-40.76-0.46c0-0.27,18.25-0.46,40.76-0.46
		C394.31,622.58,412.56,622.79,412.56,623.04z"/>
	<path class="st2" d="M455.46,578.3c0,0-0.39,0-1.14,0.14l-3.38,0.29c-4.33,0.42-8.71,0.21-12.98-0.63
		c-3.1-0.63-6.06-1.81-8.74-3.49c-3.21-2.02-5.78-4.92-7.4-8.35c-0.86-1.94-1.28-4.05-1.25-6.17c0.08-2.28,0.86-4.48,2.25-6.29
		c0.74-0.95,1.7-1.72,2.79-2.23c1.13-0.48,2.36-0.64,3.58-0.48c2.55,0.5,4.75,2.11,5.99,4.4c1.24,2.39,1.6,5.13,1.04,7.76
		c-0.55,2.69-1.59,5.26-3.07,7.58c-3.16,4.93-7.83,8.69-13.32,10.73c-5.88,2.18-12.35,2.14-18.2-0.11
		c-3.05-1.17-5.86-2.88-8.29-5.06c-2.6-2.17-4.55-5.03-5.63-8.24c-0.5-1.7-0.5-3.5,0-5.2c0.5-1.77,1.69-3.27,3.29-4.17
		c3.45-1.53,7.49-0.61,9.94,2.25c2.32,2.81,3.77,6.23,4.17,9.85c0.55,3.62,0.45,7.31-0.32,10.89c-1.52,7.42-5.62,14.06-11.57,18.74
		c-3.05,2.34-6.54,4.05-10.26,5.02c-3.78,0.94-7.7,1.2-11.57,0.77c-7.77-0.78-14.95-4.49-20.08-10.39c-2.51-2.89-4.2-6.4-4.92-10.15
		c-0.68-3.77,0.14-7.65,2.29-10.82c2.02-3.25,5.59-5.22,9.42-5.2c3.78,0.21,7.14,2.45,8.8,5.85c0.75,1.69,0.88,3.59,0.36,5.36
		c-0.53,1.73-1.5,3.29-2.82,4.52c-2.57,2.33-5.69,3.96-9.06,4.76c-12.59,3.45-26.08,0.06-35.54-8.94c-2.13-2.08-3.78-4.61-4.83-7.4
		c-1-2.72-1.17-5.68-0.48-8.49c0.61-2.75,2.17-5.19,4.4-6.9c2.2-1.56,4.92-2.2,7.58-1.79c2.55,0.32,4.89,1.6,6.53,3.58
		c1.53,1.88,2.38,4.23,2.41,6.65c0.01,2.29-0.73,4.51-2.09,6.35c-1.27,1.69-2.87,3.11-4.7,4.17c-3.27,1.86-6.8,3.21-10.48,4
		c-3.05,0.73-6.15,1.24-9.28,1.54c-4.33,0.44-8.69,0.44-13.01,0c-2.95-0.34-4.49-0.68-4.49-0.68s0.39,0,1.16,0.13
		c0.77,0.13,1.88,0.23,3.34,0.36c4.31,0.38,8.65,0.35,12.96-0.09c3.1-0.33,6.18-0.87,9.21-1.61c3.62-0.79,7.1-2.13,10.32-3.97
		c1.77-1.03,3.31-2.4,4.54-4.04c1.28-1.74,1.97-3.85,1.95-6.01c-0.05-2.29-0.86-4.5-2.31-6.27c-1.55-1.85-3.74-3.04-6.13-3.34
		c-2.53-0.35-5.09,0.29-7.15,1.79c-2.08,1.63-3.52,3.93-4.09,6.51c-0.65,2.68-0.48,5.5,0.48,8.08c1.02,2.69,2.61,5.13,4.67,7.15
		c9.3,8.74,22.49,12,34.79,8.6c3.23-0.76,6.21-2.33,8.67-4.56c1.21-1.13,2.1-2.55,2.59-4.13c0.46-1.59,0.34-3.29-0.34-4.79
		c-1.49-3.12-4.56-5.17-8.01-5.36c-1.71-0.07-3.41,0.37-4.88,1.25c-1.51,0.89-2.79,2.11-3.75,3.58c-2.01,2.97-2.78,6.62-2.13,10.15
		c0.7,3.59,2.32,6.94,4.72,9.71c4.97,5.71,11.93,9.31,19.47,10.06c3.76,0.41,7.56,0.16,11.23-0.75c3.6-0.96,6.98-2.62,9.94-4.88
		c5.84-4.59,9.84-11.12,11.28-18.41c0.75-3.47,0.86-7.05,0.32-10.57c-0.38-3.44-1.74-6.7-3.92-9.39c-2.19-2.6-5.82-3.45-8.94-2.09
		c-1.39,0.77-2.41,2.05-2.86,3.58c-0.46,1.54-0.46,3.18,0,4.72c1.04,3.06,2.9,5.78,5.36,7.87c2.37,2.1,5.09,3.76,8.04,4.9
		c5.67,2.24,11.97,2.33,17.7,0.25c5.34-1.98,9.89-5.64,12.98-10.42c1.45-2.23,2.46-4.71,3-7.31c0.54-2.47,0.21-5.05-0.93-7.31
		c-1.13-2.12-3.15-3.62-5.51-4.09c-1.12-0.17-2.26-0.03-3.31,0.41c-1,0.48-1.88,1.17-2.57,2.04c-1.33,1.71-2.09,3.79-2.16,5.95
		c-0.05,2.04,0.35,4.06,1.16,5.94c1.56,3.35,4.04,6.19,7.15,8.19c2.62,1.71,5.53,2.92,8.58,3.58c4.24,0.87,8.58,1.14,12.89,0.8
		l3.36-0.2C455.07,578.3,455.46,578.3,455.46,578.3z"/>
	<path class="st1" d="M993.21,224.83c-0.7,2.34-12.6,21.11-29.78,27.49s-29.94,13.44-25.17,21.85c4.77,8.4,25.87,3.83,25.87,3.83
		s-42.82,46.48-2.5,73.14c49.14,32.45,100.56-83.65,100.56-83.65L993.21,224.83z"/>
	<path class="st0" d="M1054.02,283.41c-0.13,0.21-16.32-9.44-36.18-21.56c-19.86-12.12-35.84-22.15-35.75-22.36
		c0.09-0.21,16.34,9.44,36.18,21.56C1038.11,273.17,1054.17,283.2,1054.02,283.41z"/>
	<path class="st0" d="M1046.43,297.34c-0.14,0.21-17.64-10.06-39.1-22.94c-21.45-12.87-38.74-23.53-38.61-23.74
		c0.13-0.21,17.64,10.05,39.1,22.94C1029.26,286.49,1046.55,297.2,1046.43,297.34z"/>
	<path class="st0" d="M1037.24,310.53c-0.13,0.21-19.79-11.35-43.89-25.83c-24.1-14.48-43.55-26.4-43.42-26.62
		c0.13-0.21,19.79,11.33,43.91,25.81C1017.95,298.38,1037.36,310.3,1037.24,310.53z"/>
	<path class="st0" d="M1025.78,326.85c-0.14,0.21-15.37-9.08-33.97-20.76s-33.66-21.31-33.52-21.45
		c0.14-0.14,15.36,9.08,33.97,20.76S1025.9,326.64,1025.78,326.85z"/>
	<path class="st0" d="M1012.3,342.6c-0.14,0.21-14.3-8.94-31.68-20.43s-31.3-21.01-31.07-21.22c0.23-0.21,14.3,8.94,31.68,20.45
		C998.6,332.92,1012.44,342.39,1012.3,342.6z"/>
	<path class="st0" d="M995.1,353.55c-0.75-0.26-1.47-0.6-2.15-1c-1.36-0.72-3.29-1.79-5.67-3.11c-4.76-2.66-11.23-6.51-18.23-10.99
		c-7.01-4.49-13.21-8.78-17.63-11.98c-2.2-1.61-3.97-2.93-5.17-3.86c-0.65-0.45-1.25-0.96-1.79-1.54c0.71,0.34,1.39,0.76,2.02,1.23
		l5.36,3.58c4.51,3.06,10.73,7.26,17.75,11.75s13.41,8.4,18.07,11.23l5.51,3.34C993.87,352.58,994.51,353.03,995.1,353.55z"/>
	<path class="st0" d="M954.79,279.07c-3.4-0.87-6.62-2.35-9.49-4.36c-3.04-1.75-5.74-4.04-7.96-6.76c0.18-0.21,3.58,2.93,8.46,5.97
		C950.68,276.96,954.91,278.8,954.79,279.07z"/>
	<path class="st0" d="M1058.92,265.02c-0.15,0.37-0.36,0.71-0.61,1.02l-1.91,2.77c-1.66,2.41-4.13,5.86-7.15,10.08
		c-6.17,8.47-14.87,20.04-24.81,32.55c-9.94,12.51-19.25,23.62-26.1,31.55c-3.41,3.97-6.22,7.15-8.19,9.31
		c-0.93,1.02-1.68,1.79-2.27,2.48c-0.25,0.31-0.53,0.59-0.84,0.84c0.2-0.34,0.43-0.66,0.7-0.95l2.15-2.61l7.94-9.47
		c6.72-8.03,15.93-19.2,25.87-31.7c9.94-12.5,18.72-24.01,25.03-32.38l7.47-9.9l2.04-2.66
		C1058.43,265.63,1058.67,265.32,1058.92,265.02z"/>
	<path class="st0" d="M1045,255.13c0.2,0.16-16.88,22.44-38.13,49.75c-21.26,27.32-38.65,49.34-38.86,49.18
		c-0.21-0.16,16.88-22.42,38.13-49.75C1027.39,276.98,1044.8,254.97,1045,255.13z"/>
	<path class="st0" d="M1025.56,244.12c-0.15,0.39-0.34,0.76-0.55,1.11l-1.79,3.07c-1.54,2.66-3.86,6.47-6.85,11.08
		c-5.97,9.24-14.84,21.6-25.3,34.74c-10.46,13.14-20.34,24.67-27.48,33.04l-8.49,9.85l-2.36,2.66c-0.26,0.32-0.55,0.61-0.86,0.88
		c0.21-0.35,0.45-0.68,0.72-1l2.22-2.77l8.28-10.05c7.01-8.47,16.8-20.08,27.24-33.2c10.44-13.12,19.38-25.39,25.47-34.52
		c3.06-4.56,5.45-8.29,7.15-10.91l1.89-2.99C1025.06,244.76,1025.29,244.43,1025.56,244.12z"/>
	<path class="st0" d="M1009.62,234.98c0.2,0.16-14.3,19.41-32.5,43.01c-18.2,23.6-32.93,42.6-33.23,42.44
		c-0.3-0.16,14.3-19.41,32.5-43.03C994.58,253.79,1009.4,234.82,1009.62,234.98z"/>
	<path class="st0" d="M997.62,227.17c-0.44,0.9-0.96,1.76-1.54,2.57c-0.5,0.8-1.16,1.79-1.97,2.9s-1.7,2.4-2.81,3.72
		c-2.52,3.14-5.22,6.12-8.1,8.94c-7.06,6.96-15.09,12.86-23.85,17.52c-3.57,1.89-7.24,3.57-11.01,5.02
		c-1.59,0.66-3.09,1.11-4.38,1.56c-1.1,0.4-2.22,0.74-3.36,1.02c-0.95,0.3-1.93,0.53-2.91,0.7c0.9-0.43,1.84-0.77,2.81-1.04
		c0.91-0.3,2.02-0.66,3.29-1.16c1.27-0.5,2.75-0.98,4.31-1.68c3.7-1.53,7.33-3.26,10.85-5.17c4.3-2.38,8.45-5.01,12.42-7.9
		c3.94-2.93,7.7-6.1,11.24-9.49c2.89-2.78,5.61-5.73,8.17-8.81c1.14-1.29,2.06-2.54,2.9-3.58c0.84-1.04,1.56-2.02,2.11-2.81
		C996.34,228.66,996.95,227.89,997.62,227.17z"/>
	<rect x="852.41" y="201.52" class="st0" width="228.59" height="24.13"/>
	<path class="st3" d="M924.88,224.83c-0.7,2.34-12.6,21.11-29.78,27.49c-17.18,6.38-29.94,13.44-25.17,21.85
		c4.77,8.4,25.87,3.83,25.87,3.83s-42.82,46.48-2.5,73.14c49.14,32.45,100.51-83.65,100.51-83.65L924.88,224.83z"/>
	<path class="st0" d="M985.7,283.41c-0.13,0.21-16.32-9.44-36.18-21.56c-19.86-12.12-35.84-22.15-35.75-22.36
		c0.09-0.21,16.34,9.44,36.18,21.56C969.79,273.17,985.84,283.2,985.7,283.41z"/>
	<path class="st0" d="M978.15,297.34c-0.14,0.21-17.64-10.06-39.1-22.94c-21.45-12.87-38.79-23.53-38.67-23.69
		c0.13-0.16,17.64,10.05,39.1,22.94S978.15,297.2,978.15,297.34z"/>
	<path class="st0" d="M968.91,310.53c-0.13,0.21-19.79-11.35-43.89-25.83c-24.1-14.48-43.55-26.4-43.41-26.62
		c0.14-0.21,19.79,11.33,43.91,25.81C949.64,298.38,969.04,310.3,968.91,310.53z"/>
	<path class="st0" d="M957.45,326.85c-0.14,0.21-15.37-9.08-33.97-20.76s-33.66-21.31-33.52-21.45c0.14-0.14,15.36,9.08,33.97,20.76
		C942.54,317.08,957.58,326.64,957.45,326.85z"/>
	<path class="st0" d="M943.97,342.6c-0.14,0.21-14.3-8.94-31.68-20.43c-17.38-11.49-31.3-21.01-31.16-21.22
		c0.14-0.21,14.3,8.94,31.68,20.45S944.19,342.39,943.97,342.6z"/>
	<path class="st0" d="M926.77,353.55c-0.75-0.26-1.47-0.6-2.15-1c-1.36-0.72-3.29-1.79-5.67-3.11c-4.76-2.66-11.23-6.51-18.23-10.99
		c-7.01-4.49-13.21-8.78-17.63-11.98c-2.2-1.61-3.97-2.93-5.17-3.86c-0.65-0.45-1.25-0.96-1.79-1.54c0.71,0.34,1.39,0.76,2.02,1.23
		l5.36,3.58c4.51,3.06,10.73,7.26,17.75,11.75s13.41,8.4,18.06,11.23l5.52,3.34C925.54,352.58,926.18,353.03,926.77,353.55z"/>
	<path class="st0" d="M886.46,279.07c-3.4-0.87-6.62-2.35-9.49-4.36c-3.04-1.75-5.74-4.04-7.96-6.76c0.18-0.21,3.58,2.93,8.46,5.97
		C882.35,276.96,886.57,278.8,886.46,279.07z"/>
	<path class="st0" d="M990.67,265.02c-0.15,0.37-0.36,0.71-0.61,1.02l-1.91,2.77c-1.66,2.41-4.13,5.86-7.15,10.08
		c-6.17,8.47-14.87,20.04-24.81,32.55c-9.94,12.51-19.4,23.65-26.3,31.59c-3.41,3.97-6.22,7.15-8.19,9.31
		c-0.93,1.02-1.68,1.79-2.27,2.48c-0.25,0.31-0.53,0.59-0.84,0.84c0.2-0.34,0.43-0.66,0.7-0.95l2.15-2.61l7.96-9.51
		c6.72-8.03,15.93-19.2,25.87-31.7c9.94-12.5,18.72-24.01,25.03-32.38l7.47-9.9l2.04-2.66
		C990.06,265.63,990.35,265.31,990.67,265.02z"/>
	<path class="st0" d="M976.67,255.13c0.2,0.16-16.88,22.44-38.13,49.75c-21.26,27.32-38.65,49.34-38.86,49.18
		c-0.21-0.16,16.88-22.42,38.13-49.75C959.06,276.98,976.47,254.97,976.67,255.13z"/>
	<path class="st0" d="M957.24,244.12c-0.15,0.39-0.34,0.76-0.55,1.11l-1.79,3.07c-1.54,2.66-3.86,6.47-6.85,11.08
		c-5.97,9.24-14.84,21.6-25.3,34.74c-10.46,13.14-20.34,24.67-27.48,33.04l-8.49,9.85l-2.36,2.66c-0.26,0.32-0.55,0.61-0.86,0.88
		c0.21-0.36,0.45-0.69,0.72-1l2.22-2.77l8.28-10.05c7.01-8.47,16.8-20.08,27.24-33.2c10.44-13.12,19.38-25.39,25.47-34.52
		c3.06-4.56,5.45-8.29,7.15-10.91c0.77-1.23,1.41-2.22,1.89-2.99C956.73,244.76,956.97,244.43,957.24,244.12z"/>
	<path class="st0" d="M941.29,234.98c0.2,0.16-14.3,19.41-32.5,43.01s-33.02,42.6-33.23,42.44c-0.21-0.16,14.3-19.41,32.5-43.03
		C926.26,253.79,941.08,234.82,941.29,234.98z"/>
	<path class="st0" d="M929.29,227.17c-0.44,0.9-0.96,1.76-1.54,2.57c-0.5,0.8-1.16,1.79-1.97,2.9c-0.8,1.11-1.7,2.4-2.81,3.72
		c-2.52,3.14-5.22,6.12-8.1,8.94c-7.06,6.96-15.09,12.86-23.85,17.52c-3.57,1.89-7.25,3.57-11.01,5.02
		c-1.59,0.66-3.09,1.11-4.38,1.56c-1.1,0.4-2.22,0.74-3.36,1.02c-0.95,0.3-1.93,0.53-2.91,0.7c0.9-0.43,1.84-0.77,2.81-1.04
		c0.91-0.3,2.02-0.66,3.29-1.16c1.27-0.5,2.75-0.98,4.31-1.68c3.7-1.53,7.33-3.26,10.85-5.17c4.3-2.33,8.46-4.93,12.44-7.78
		c3.94-2.93,7.7-6.1,11.24-9.49c2.89-2.78,5.61-5.73,8.17-8.81c1.14-1.29,2.06-2.54,2.9-3.58c0.84-1.04,1.54-2.02,2.09-2.81
		C928.01,228.74,928.62,227.93,929.29,227.17z"/>
	<rect x="959.53" y="80.74" class="st0" width="14.62" height="14.62"/>
	<rect x="899.05" y="114.81" class="st3" width="136.26" height="85.99"/>
	<path class="st3" d="M899.05,114.85c0,0,20.86-21.79,73.17-20.92c52.31,0.88,63.14,20.92,63.14,20.92H899.05z"/>
	<path class="st0" d="M1034.79,116.23c0,0.25-30.64,0.46-68.42,0.46s-68.42-0.21-68.42-0.46c0-0.25,30.62-0.48,68.42-0.48
		S1034.79,115.96,1034.79,116.23z"/>
	<path class="st0" d="M1034.79,116.23h30.78c2.72,0,4.93,2.21,4.93,4.93c0,0,0,0,0,0v1.89c0,2.73-2.21,4.93-4.93,4.93l0,0h-30.78
		l0,0v-11.78V116.23z"/>
	<path class="st0" d="M899.55,127.99h-30.78c-2.72,0-4.93-2.21-4.93-4.93c0,0,0,0,0,0v-1.89c0-2.73,2.21-4.93,4.93-4.93l0,0h30.78
		l0,0v11.78l0,0V127.99z"/>
	<path class="st0" d="M952.28,76.52h29.8c1.95,0,3.54,1.58,3.54,3.54v1.36c0,1.95-1.58,3.54-3.54,3.54h-29.8
		c-1.95,0-3.54-1.58-3.54-3.54v-1.36C948.75,78.11,950.33,76.52,952.28,76.52z"/>
</g>
<g id="freepik--Table--inject-13">
	<path class="st4" d="M1075.58,638.24c0,0.25-176.5,0.46-394.17,0.46s-394.21-0.21-394.21-0.46s176.46-0.46,394.21-0.46
		S1075.58,637.99,1075.58,638.24z"/>
</g>
<g id="freepik--Character--inject-13">
	<path class="st5" d="M813.54,376.86c-0.72,3.06-15.93,141.57-15.93,141.57L783.85,538l-3.74,29.96l28.6,70.74H597.08
		c0,0-3.34-37.38-3.06-47.37s5.36-46.66,5.36-46.66l-0.48-37.24l-8.01-162.31l71.69-23.13c43.32-7.45,107.07,25.03,107.07,25.03
		L813.54,376.86z"/>
	<path class="st4" d="M786.05,273.62c9.42-0.59,16.64-8.46,21.83-16.34c4.86-7.37,8.94-15.62,9.05-24.44c0-7.65-3-14.95-6.01-21.99
		c-3-7.04-6.24-14.59-11.08-20.79s-11.71-11.24-19.54-12.21"/>
	<path class="st6" d="M675.92,310.53l0.11-2.34l5.52-135.24l3.06-7.67l67.65-9.31c21.44-1.67,40.17,14.36,41.84,35.79
		c0.05,0.58,0.08,1.16,0.1,1.75c0.86,24.62,0.97,54.7-2.47,72.96c-6.86,36.61-35.25,40.53-35.25,40.53s-0.48,9.6-1.02,23.49
		c-0.39,10.48-9.65,40.71-20.15,41.01c-4.51,0.13-16.8-3.79-22.67-4.65C675.65,361.45,675.92,310.53,675.92,310.53z"/>
	<path class="st4" d="M781.7,214.85c-0.04,2.56-2.12,4.63-4.68,4.65c-2.49,0.13-4.62-1.79-4.75-4.28c0-0.04,0-0.08,0-0.11
		c0.04-2.56,2.12-4.63,4.68-4.65c2.49-0.13,4.62,1.79,4.75,4.28C781.7,214.78,781.7,214.82,781.7,214.85z"/>
	<path class="st4" d="M787.24,208.87c-0.61,0.61-4.11-2.15-9.21-2.27s-8.94,2.31-9.42,1.66c-0.27-0.27,0.36-1.38,2.02-2.5
		c2.24-1.47,4.88-2.21,7.56-2.11c2.65,0.06,5.21,0.96,7.31,2.57C787.03,207.47,787.53,208.6,787.24,208.87z"/>
	<path class="st4" d="M731.91,214.37c-0.04,2.56-2.12,4.63-4.68,4.65c-2.49,0.13-4.62-1.79-4.75-4.28c0-0.04,0-0.08,0-0.11
		c0.04-2.56,2.12-4.63,4.68-4.65c2.49-0.13,4.62,1.79,4.75,4.28C731.91,214.3,731.91,214.33,731.91,214.37z"/>
	<path class="st4" d="M737.21,208.44c-0.61,0.61-4.13-2.15-9.21-2.27s-8.94,2.31-9.42,1.66c-0.27-0.27,0.36-1.38,2.02-2.5
		c2.24-1.47,4.88-2.21,7.56-2.11c2.65,0.06,5.21,0.96,7.31,2.57C736.99,207.04,737.49,208.17,737.21,208.44z"/>
	<path class="st4" d="M754.69,246.68c0-0.29,3.16-0.75,8.31-1.25c1.31-0.11,2.54-0.34,2.79-1.22c0.14-1.34-0.13-2.69-0.77-3.88
		l-3.58-9.99c-4.93-14.3-8.49-25.92-7.9-26.12c0.59-0.2,5.04,11.19,9.99,25.42c1.18,3.58,2.32,6.85,3.4,10.05
		c0.78,1.59,0.97,3.41,0.54,5.13c-0.42,0.89-1.22,1.55-2.18,1.79c-0.73,0.17-1.47,0.25-2.22,0.23
		C757.84,247.03,754.69,246.96,754.69,246.68z"/>
	<path class="st7" d="M756.48,306.99c-17.37-0.22-34.34-5.25-49.02-14.53c0,0,11.28,25.65,48.27,23.24L756.48,306.99z"/>
	<path class="st7" d="M752.13,258.89c-1.91-2.51-4.98-3.86-8.12-3.58c-2.28,0.14-4.4,1.2-5.88,2.93c-1.42,1.71-1.64,4.12-0.55,6.06
		c1.64,1.89,4.25,2.59,6.61,1.79c2.43-0.78,4.68-2.04,6.61-3.7c0.58-0.39,1.09-0.89,1.48-1.47c0.39-0.57,0.39-1.32,0-1.89"/>
	<path class="st4" d="M739.55,249.79c0.84,0,0.7,5.49,5.36,9.55s10.51,3.58,10.55,4.38c0,0.34-1.34,1.04-3.84,1.04
		c-3.23-0.04-6.35-1.22-8.8-3.34c-2.35-2.03-3.82-4.9-4.09-7.99C738.6,251.09,739.17,249.75,739.55,249.79z"/>
	<path class="st4" d="M739.06,188.54c-0.54,1.36-5.6,0.57-11.58,1.13c-5.99,0.55-10.87,2.04-11.62,0.79
		c-0.34-0.61,0.54-1.79,2.52-3.16c5.35-3.18,11.88-3.72,17.68-1.47C738.22,186.77,739.3,187.88,739.06,188.54z"/>
	<path class="st4" d="M785.78,194.08c-0.93,1.14-4.4-0.16-8.62-0.32c-4.22-0.16-7.81,0.55-8.6-0.68c-0.34-0.59,0.25-1.79,1.79-2.79
		c4.36-2.56,9.84-2.24,13.87,0.8C785.72,192.33,786.19,193.51,785.78,194.08z"/>
	<path class="st4" d="M675.57,214.28c-7.18,4.4-13.48,10.1-18.57,16.8c-5.86,7.35-9.67,16.86-8.21,26.15
		c2.02,12.89,13.19,22.04,23.58,29.94c5.97,0.86,10.42-5.74,11.35-11.71c0.93-5.97,0.11-12.42,2.93-17.77
		c2.54-4.79,7.54-7.72,10.89-12c6.22-7.94,5.81-19.11,4.29-29.09c-1.52-9.98,0-25.03,12.82-39.33
		C714.64,177.42,683.47,189.59,675.57,214.28z"/>
	<path class="st4" d="M664.52,247.48c5.36-7.74,4-19.09-2.2-26.26s-16.21-10.28-25.65-9.47c-6.86,0.59-13.82,3.29-18.25,8.56
		c-4.43,5.27-5.77,13.41-2.09,19.24c2.04,3.22,5.58,6.26,4.77,9.99c-0.8,3.74-5.04,4.93-8.04,7.04c-5.29,3.97-7.45,10.88-5.36,17.16
		c2.26,6.14,7.5,10.7,13.89,12.1c6.36,1.28,12.97,0.09,18.48-3.33c0,5.74,6.17,10.12,11.87,9.64s10.55-4.65,13.6-9.49
		c4.11-7.03,6.06-15.11,5.61-23.24c-0.45-8.09-1.69-16.11-3.7-23.96"/>
	<path class="st8" d="M673.96,288.94c-0.3-0.14-0.59-0.32-0.84-0.54l-2.32-1.68c-1.98-1.48-4.86-3.58-8.21-6.58
		c-3.98-3.4-7.5-7.3-10.46-11.62c-3.67-5.35-5.79-11.6-6.13-18.07c-0.15-3.36,0.38-6.72,1.56-9.87c1.15-2.92,2.85-5.59,5.01-7.87
		c3.74-3.65,7.86-6.88,12.3-9.64c2.91-1.91,5.69-4.03,8.31-6.33c0.91-0.84,1.59-1.52,2.04-2c0.21-0.25,0.45-0.48,0.72-0.68
		c0,0-0.18,0.3-0.59,0.8c-0.59,0.75-1.23,1.46-1.91,2.13c-2.54,2.43-5.28,4.65-8.19,6.63c-4.34,2.81-8.38,6.05-12.05,9.69
		c-2.07,2.2-3.69,4.78-4.77,7.6c-1.12,3.04-1.63,6.27-1.48,9.51c0.32,6.3,2.35,12.39,5.86,17.63c2.9,4.28,6.32,8.18,10.19,11.6
		c3.27,2.97,6.08,5.2,7.99,6.78l2.2,1.79C673.46,288.43,673.72,288.67,673.96,288.94z"/>
	<path class="st8" d="M647.68,242.28c-0.16,0.09-1.09-1.89-3.45-4.4c-6.18-6.78-15.84-9.15-24.46-5.99
		c-3.24,1.14-4.99,2.45-5.08,2.31c-0.09-0.14,0.36-0.41,1.16-0.98c1.16-0.78,2.39-1.43,3.68-1.95c8.85-3.61,19.01-1.12,25.19,6.17
		c0.91,1.05,1.7,2.2,2.36,3.43C647.36,241.3,647.56,241.78,647.68,242.28z"/>
	<path class="st8" d="M618.98,252.07c-0.11,0,0.55-1.79,2.97-3.29c1.41-0.83,2.96-1.39,4.58-1.64c1.95-0.3,3.91-0.41,5.88-0.34
		c3.56,0.1,7.09,0.66,10.51,1.66c1.44,0.33,2.81,0.88,4.08,1.64c-1.44-0.26-2.86-0.6-4.25-1.02c-3.4-0.8-6.88-1.25-10.37-1.36
		c-3.45-0.33-6.93,0.23-10.1,1.63C621.04,250.09,619.93,251,618.98,252.07z"/>
	<path class="st8" d="M612.83,281.29c0-0.16,2.56-0.11,6.58-0.89c5.22-1.01,10.16-3.09,14.53-6.11c4.33-3.08,7.98-7.01,10.73-11.55
		c2.11-3.49,2.95-5.92,3.11-5.85c-0.08,0.62-0.24,1.22-0.48,1.79c-0.57,1.53-1.26,3.02-2.06,4.45
		c-5.35,9.63-14.84,16.26-25.73,17.98c-1.61,0.25-3.25,0.38-4.88,0.38C614.03,281.52,613.42,281.46,612.83,281.29z"/>
	<path class="st8" d="M649.46,241.78c0-0.09,1.09,0.97,3.34,2.2c3.23,1.68,6.84,2.47,10.48,2.29c2.49-0.09,4.95-0.56,7.29-1.39
		c2.69-1.01,5.2-2.44,7.44-4.24c5.05-4.26,9.08-9.61,11.76-15.64c2.65-6.08,4.92-12.32,6.79-18.68c1.59-5.22,3.57-10.31,5.94-15.23
		c1.61-3.32,3.61-6.43,5.95-9.28c0.84-0.98,1.54-1.79,2.04-2.2c0.24-0.25,0.5-0.48,0.79-0.68c0,0-0.97,1.07-2.54,3.11
		c-2.21,2.9-4.11,6.03-5.65,9.33c-2.27,4.93-4.17,10.01-5.7,15.21c-1.84,6.41-4.1,12.69-6.78,18.81
		c-2.74,6.17-6.88,11.63-12.08,15.93c-2.31,1.83-4.91,3.27-7.69,4.27c-2.43,0.84-4.97,1.3-7.54,1.34
		c-3.75,0.14-7.47-0.77-10.73-2.65c-0.51-0.27-1-0.6-1.45-0.97c-0.35-0.24-0.68-0.51-0.98-0.8
		C649.9,242.29,649.67,242.04,649.46,241.78z"/>
	<path class="st8" d="M701.93,208.56c0.09,0-0.64,1.07-1.47,3.16c-1.06,2.99-1.66,6.11-1.79,9.28c-0.09,4.76-0.63,9.5-1.59,14.16
		c-1.59,5.71-4.85,10.81-9.37,14.64c-4.47,3.91-10.05,6.32-15.96,6.88c-4.8,0.42-9.62-0.33-14.07-2.16
		c-2.99-1.22-5.74-2.93-8.15-5.08c-0.63-0.56-1.23-1.15-1.79-1.79c-0.22-0.22-0.41-0.46-0.57-0.72c0.09,0,0.89,0.89,2.65,2.29
		c2.45,2.01,5.21,3.62,8.17,4.76c4.37,1.7,9.08,2.36,13.75,1.91c5.72-0.59,11.11-2.95,15.43-6.74c4.38-3.71,7.57-8.64,9.15-14.16
		c1-4.6,1.6-9.28,1.79-13.98c0.2-3.22,0.91-6.38,2.11-9.37c0.36-0.8,0.78-1.57,1.25-2.31C701.59,209.07,701.75,208.81,701.93,208.56
		z"/>
	<path class="st8" d="M807.87,254.88c0,0,0.61-0.55,1.56-1.64c1.36-1.54,2.42-3.32,3.13-5.26c1.05-2.86,1.48-5.9,1.27-8.94
		c-0.32-3.74-1.36-7.38-3.06-10.73c-3.58-7.15-8.4-12.64-11.6-16.82c-1.27-1.66-2.43-3.4-3.47-5.22c-0.42-0.65-0.76-1.34-1-2.07
		c0.5,0.59,0.93,1.22,1.31,1.89c0.8,1.22,2.04,2.95,3.68,4.99c3.29,4.06,8.31,9.51,11.92,16.82c1.75,3.43,2.79,7.17,3.07,11.01
		c0.19,3.15-0.33,6.3-1.5,9.22c-0.82,1.98-2.04,3.76-3.58,5.26c-0.41,0.4-0.84,0.76-1.3,1.09
		C808.07,254.81,807.89,254.92,807.87,254.88z"/>
	<path class="st8" d="M802.58,265.36c1.77-1.91,3.26-4.06,4.42-6.4c1.16-2.56,1.76-5.34,1.79-8.15c0-3.45-0.71-6.86-2.07-10.03
		c-1.42-3.18-3.04-6.27-4.83-9.26c-1.56-2.82-2.9-5.36-3.99-7.6c-1.09-2.23-1.91-3.97-2.45-5.22c-0.33-0.63-0.58-1.31-0.73-2
		c0.41,0.56,0.76,1.16,1.05,1.79l2.72,5.08c1.16,2.15,2.56,4.68,4.15,7.49c1.85,2.99,3.5,6.1,4.93,9.31
		c1.42,3.28,2.12,6.83,2.07,10.4c-0.07,2.92-0.76,5.79-2.02,8.42c-0.87,1.75-2.01,3.36-3.38,4.76c-0.37,0.37-0.77,0.72-1.18,1.05
		C802.76,265.27,802.6,265.38,802.58,265.36z"/>
	<path class="st5" d="M673.81,219.02c12.25-20.9,29.37-40.33,52.93-45.96c23.25-5.74,47.83-1.62,67.93,11.39v-41.21l-29.41-94.93
		l-22.9-12.12l-54.13,30.96l-14,114.18L673.81,219.02z"/>
	<g class="st9">
		<path class="st2" d="M673.81,219.02c12.25-20.9,29.37-40.33,52.93-45.96c23.25-5.74,47.83-1.62,67.93,11.39v-41.21l-29.41-94.93
			l-22.9-12.12l-54.13,30.96l-14,114.18L673.81,219.02z"/>
	</g>
	<path class="st4" d="M793.55,144.74c-0.45-0.16-0.89-0.36-1.31-0.61c-0.84-0.41-2.02-1.13-3.58-1.79
		c-4.51-2.2-9.21-3.96-14.05-5.26c-7.17-1.94-14.56-3-21.99-3.16c-4.39-0.1-8.77,0.06-13.14,0.48c-4.68,0.35-9.31,1.19-13.82,2.52
		c-8.64,2.85-16.82,6.94-24.28,12.16c-6.13,4.19-11.68,9.18-16.5,14.82c-3.24,3.84-6.02,8.04-8.31,12.51
		c-0.68,1.56-1.23,2.79-1.66,3.72c-0.16,0.45-0.37,0.88-0.63,1.29c0.11-0.46,0.27-0.91,0.46-1.34c0.34-0.88,0.8-2.18,1.5-3.83
		c2.18-4.56,4.91-8.84,8.12-12.75c4.81-5.75,10.37-10.83,16.54-15.11c7.5-5.31,15.76-9.47,24.49-12.34
		c4.57-1.34,9.27-2.19,14.02-2.54c4.4-0.41,8.81-0.56,13.23-0.43c7.49,0.2,14.94,1.34,22.15,3.38c4.86,1.37,9.56,3.24,14.03,5.58
		c1.61,0.77,2.77,1.54,3.58,2C792.81,144.26,793.19,144.48,793.55,144.74z"/>
	<path class="st4" d="M757.78,133.71c-0.25,0-4.09-21.65-8.56-48.45s-7.9-48.55-7.65-48.59c0.25-0.04,4.09,21.65,8.56,48.45
		C754.6,111.92,758.03,133.67,757.78,133.71z"/>
	<path class="st4" d="M721.9,137.63c-0.25,0,0.14-20.58,0.91-45.96c0.77-25.39,1.57-45.94,1.79-45.94c0.21,0-0.16,20.59-0.91,45.98
		S722.17,137.64,721.9,137.63z"/>
	<path class="st4" d="M691.37,154.73c-0.04-0.33-0.04-0.66,0-0.98c0-0.75,0-1.68,0.11-2.81c0.13-2.43,0.36-5.97,0.7-10.32
		c0.68-8.69,1.79-20.7,3.58-33.97s3.58-25.03,4.99-33.72c0.75-4.31,1.39-7.78,1.89-10.17c0.23-1.11,0.43-2,0.57-2.74
		c0.04-0.33,0.13-0.65,0.27-0.95c0.04,0.33,0.04,0.66,0,0.98c-0.13,0.73-0.25,1.64-0.41,2.77c-0.39,2.54-0.95,5.99-1.59,10.21
		c-1.34,8.62-3.06,20.54-4.72,33.73c-1.66,13.19-2.95,25.17-3.79,33.84c-0.41,4.25-0.75,7.72-0.98,10.28
		c-0.13,1.14-0.21,2.06-0.3,2.81C691.62,154.07,691.52,154.41,691.37,154.73z"/>
	<path class="st4" d="M763,140.66c0.15,1.38,0.15,2.77,0,4.15c-0.21,2.9-0.46,6.24-0.73,9.94c-0.27,3.7-0.54,7.04-0.75,9.94
		c-0.02,1.39-0.2,2.76-0.52,4.11c-0.22-1.37-0.26-2.76-0.14-4.15c0-2.56,0.2-6.08,0.48-9.98c0.29-3.9,0.66-7.4,1-9.94
		C762.4,143.36,762.63,141.99,763,140.66z"/>
	<path class="st5" d="M592.4,547.21c-2.25-3.29-8.31-6.22-12.28-6.65c-13.73-1.5-26.24,4.42-37.08,13l-2.13,3.88
		c-5.83,4.54-11.91,9.73-13.71,16.89c-1.65,7.47-2.48,15.09-2.48,22.74c0.17,4.06,1.82,7.92,4.63,10.85
		c2.59,2.87,6.19,4.62,10.05,4.88c7.29,0.57,14.58-1.07,20.93-4.68c6.31-3.63,11.88-8.42,16.41-14.12
		c8.46-10.34,14.21-22.63,16.73-35.75C594.19,554.63,594.55,550.37,592.4,547.21z"/>
	<g class="st10">
		<path d="M592.4,547.21c-2.25-3.29-8.31-6.22-12.28-6.65c-13.73-1.5-26.24,4.42-37.08,13l-2.13,3.88
			c-5.83,4.54-11.91,9.73-13.71,16.89c-1.65,7.47-2.48,15.09-2.48,22.74c0.17,4.06,1.82,7.92,4.63,10.85
			c2.59,2.87,6.19,4.62,10.05,4.88c7.29,0.57,14.58-1.07,20.93-4.68c6.31-3.63,11.88-8.42,16.41-14.12
			c8.46-10.34,14.21-22.63,16.73-35.75C594.19,554.63,594.55,550.37,592.4,547.21z"/>
	</g>
	<path class="st5" d="M590.92,345.13c-2.16,0.72-109.3,152.56-112.18,162.68c-2.88,10.12-18.56,34.16,3.58,56.74
		c13.73,13.9,28.36,26.88,43.8,38.85c-4.97-38.27,32.7-69.13,58.99-61.12L565,528.63l45.96-61.05"/>
	<path class="st5" d="M813.54,376.86c0,0,16.86,21.08,21.06,34.72c3.58,11.66,22.7,65.59,22.7,65.59l34.81,86.26
		c0,0-5.36,7.62-6.56,14.07c-0.5,2.57-4.92,42.21-15.46,58.99l-55.83-25.03l-7.04-49.97l-9.62-43.07l9.94-115.93L813.54,376.86z"/>
	<path class="st5" d="M656.85,323.21c0,0,14.3-13.19,18.27-15.05c0,0,4.54,15.5,17.88,22.83c13.34,7.33,21.94,15.23,21.94,16.29
		v19.22C714.93,366.49,660.28,351.56,656.85,323.21z"/>
	<path class="st5" d="M665.98,420.98l106.19-6.42l-4.97-60.66l-4.56-10.23l-7.15-12.91c-0.37,4.36-2.13,8.49-5.02,11.78
		c-5.85,5.93-13.38,9.91-21.58,11.41l-2.09,12.51l-53.81-22.22c0,0-7.01,73.3-7.01,74.98"/>
	<path class="st4" d="M728.86,353.9c0.03,0.27,0.03,0.55,0,0.82c-0.09,0.59-0.21,1.39-0.36,2.41c-0.35,2.18-0.83,5.31-1.47,9.39
		v0.16h-0.18l-43.67,1.34l-7.15,0.2l-3.74,0.11c-1.21-0.03-2.42,0.12-3.58,0.46c-2.38,0.83-4.24,2.7-5.06,5.08
		c-0.39,1.23-0.53,2.52-0.41,3.81c0,1.36,0,2.72,0,4.08c0.23,10.94,0.48,22.53,0.73,34.5c0.82,33.57,1.34,63.98,1.18,85.99
		c0,11.01-0.18,19.92-0.32,26.06c-0.09,3.02-0.14,5.36-0.2,7.15c0,0.77,0,1.38,0,1.79c0.02,0.21,0.02,0.42,0,0.63
		c-0.03-0.21-0.03-0.42,0-0.63c0-0.46,0-1.07,0-1.79c0-1.68,0-4.06,0-7.15c0-6.2,0-15.09,0-26.05c0-22.01-0.63-52.4-1.45-85.97
		c-0.23-11.98-0.46-23.56-0.7-34.5v-4.08c-0.11-1.38,0.06-2.77,0.48-4.09c0.9-2.63,2.97-4.7,5.6-5.61c1.26-0.37,2.57-0.53,3.88-0.48
		l3.72-0.09l7.15-0.18l43.69-0.97l-0.2,0.18c0.72-4.06,1.26-7.18,1.64-9.35l0.46-2.4C728.89,354.45,728.86,354.18,728.86,353.9z"/>
	<circle class="st4" cx="675.58" cy="389.91" r="4.54"/>
	<path class="st4" d="M701.06,385.03c0,0.29-5.11,0.95-11.33,2.4c-6.22,1.45-11.14,3.09-11.23,2.84c3.47-1.77,7.18-3.03,11.01-3.75
		C693.27,385.49,697.16,384.99,701.06,385.03z"/>
	<path class="st4" d="M693.35,394.05c-2.67-0.41-5.32-0.97-7.94-1.66c-2.67-0.41-5.32-0.96-7.94-1.66
		C682.95,390.61,688.39,391.74,693.35,394.05z"/>
	<circle class="st4" cx="675.58" cy="441.25" r="4.54"/>
	<path class="st4" d="M701.06,436.39c0,0.27-5.11,0.93-11.33,2.38s-11.14,3.09-11.23,2.84c3.47-1.77,7.18-3.02,11.01-3.74
		C693.27,436.84,697.16,436.34,701.06,436.39z"/>
	<path class="st4" d="M693.35,445.4c-2.67-0.41-5.32-0.97-7.94-1.66c-2.67-0.41-5.32-0.96-7.94-1.66
		C682.95,441.95,688.39,443.09,693.35,445.4z"/>
	<circle class="st4" cx="675.58" cy="492.61" r="4.54"/>
	<path class="st4" d="M701.06,487.73c0,0.27-5.11,0.93-11.33,2.38s-11.14,3.09-11.23,2.84c3.47-1.77,7.18-3.02,11.01-3.74
		C693.27,488.18,697.16,487.68,701.06,487.73z"/>
	<path class="st4" d="M693.35,496.74c-2.67-0.41-5.32-0.97-7.94-1.66c-2.67-0.41-5.32-0.96-7.94-1.66c2.73-0.21,5.48,0.04,8.13,0.75
		C688.32,494.57,690.94,495.44,693.35,496.74z"/>
	<path class="st4" d="M604.52,481.33c0.04-0.44,0.12-0.88,0.25-1.31c0.21-0.93,0.52-2.15,0.89-3.66c0.79-3.2,1.97-7.79,3.31-13.5
		c1.34-5.7,2.82-12.51,3.99-20.2c1.3-8.28,1.85-16.65,1.64-25.03c-0.29-8.38-1.72-16.69-4.25-24.69
		c-2.05-6.53-5.03-12.74-8.83-18.43c-2.56-3.84-5.56-7.37-8.94-10.51c-1.14-1.16-2.2-1.89-2.82-2.48c-0.36-0.27-0.68-0.57-0.97-0.91
		c0.38,0.22,0.73,0.47,1.07,0.75c0.68,0.55,1.79,1.25,2.97,2.38c3.5,3.07,6.6,6.57,9.24,10.4c3.92,5.71,6.99,11.95,9.12,18.54
		c2.6,8.07,4.06,16.45,4.36,24.92c0.2,8.45-0.4,16.9-1.79,25.24c-1.2,7.69-2.77,14.52-4.18,20.22c-1.41,5.7-2.7,10.28-3.58,13.44
		c-0.43,1.5-0.79,2.72-1.05,3.58C604.84,480.51,604.69,480.92,604.52,481.33z"/>
	<path class="st4" d="M602.73,479.79c-0.27-0.77-0.47-1.57-0.61-2.38c-0.34-1.54-0.73-3.79-1.14-6.6
		c-1.04-7.3-1.51-14.67-1.41-22.04c0.11-7.38,0.79-14.74,2.04-22.01c0.48-2.77,0.95-5.02,1.34-6.54c0.15-0.81,0.37-1.61,0.68-2.38
		c-0.03,0.82-0.14,1.64-0.32,2.45c-0.29,1.54-0.64,3.79-1.04,6.58c-1.07,7.26-1.66,14.58-1.79,21.92
		c-0.08,7.33,0.3,14.66,1.14,21.94c0.32,2.81,0.61,5.06,0.84,6.61C602.65,478.15,602.74,478.97,602.73,479.79z"/>
	<path class="st4" d="M501.1,526.38c0.91-0.3,1.83-0.53,2.77-0.7c2.47-0.72,4.87-1.69,7.15-2.9c2.91-1.5,6.22-3.58,9.99-5.85
		c4.03-2.61,8.5-4.47,13.19-5.49c4.81-0.78,9.74,0.03,14.05,2.31c3.45,1.84,6.64,4.14,9.47,6.83c1.91,1.78,3.7,3.67,5.36,5.68
		c0.66,0.71,1.26,1.48,1.79,2.31c-0.71-0.64-1.38-1.33-2-2.06c-1.77-1.88-3.63-3.67-5.58-5.36c-2.85-2.58-6.02-4.78-9.42-6.56
		c-4.16-2.15-8.9-2.9-13.52-2.15c-4.59,1.01-8.97,2.82-12.93,5.36c-3.77,2.18-7.15,4.24-10.14,5.68c-2.35,1.17-4.84,2.06-7.4,2.65
		c-0.7,0.15-1.41,0.25-2.13,0.32C501.55,526.47,501.32,526.44,501.1,526.38z"/>
	<path class="st4" d="M538.13,489.18c0.59,0.15,1.16,0.37,1.7,0.66c0.66,0.26,1.3,0.58,1.91,0.95c0.83,0.45,1.65,0.94,2.43,1.47
		c2.06,1.35,4,2.9,5.77,4.61c4.37,4.21,7.77,9.32,9.96,14.98c0.9,2.31,1.57,4.71,2.02,7.15c0.19,0.93,0.32,1.86,0.41,2.81
		c0.09,0.71,0.14,1.42,0.14,2.13c0.09,0.59,0.09,1.2,0,1.79c-0.18,0-0.25-2.59-1.14-6.63c-0.53-2.36-1.26-4.67-2.16-6.92
		c-1.16-2.73-2.55-5.35-4.17-7.83c-1.66-2.45-3.54-4.74-5.61-6.85c-1.72-1.71-3.57-3.28-5.54-4.68
		C540.41,490.39,538.05,489.34,538.13,489.18z"/>
	<g class="st10">
		<path d="M561.62,523.48c-6.61-15.06-21.12-25.13-37.54-26.06c-2.17-0.21-4.36,0.13-6.36,0.98c-2.03,0.92-3.31,2.96-3.25,5.18
			c0.27,1.02,0.44,2.07,0.5,3.13c-0.27,2.38-3.22,3.24-5.52,3.9c-4.5,1.28-8.5,3.89-11.49,7.49c-1.56,1.79-2.81,4.67-1.32,6.6
			c1.23,1.57,3.58,1.57,5.56,1.22c7.37-1.29,13.93-5.26,20.65-8.51c6.72-3.25,14.3-5.88,21.6-4.24c8.06,1.79,14.05,8.4,19.47,14.64"
			/>
	</g>
	<path class="st4" d="M797.59,518.43c-0.2,0.28-0.42,0.54-0.66,0.79l-2.06,2.11c-0.88,0.91-1.98,2-3.33,3.22
		c-1.34,1.22-2.82,2.66-4.58,4.11c-4.06,3.47-8.29,6.72-12.67,9.76c-10.77,7.47-22.42,13.56-34.7,18.15
		c-5.67,2.07-10.85,3.7-15.27,4.83c-2.2,0.61-4.22,1.02-5.99,1.41c-1.77,0.39-3.29,0.7-4.56,0.89l-2.88,0.46
		c-0.33,0.08-0.68,0.12-1.02,0.11c0.31-0.14,0.64-0.24,0.98-0.29l2.86-0.64c1.23-0.25,2.75-0.59,4.51-1.04
		c1.75-0.45,3.75-0.89,5.92-1.56c4.38-1.2,9.53-2.88,15.14-4.99c12.17-4.64,23.75-10.69,34.5-18.04c4.95-3.4,9.26-6.67,12.75-9.58
		c1.79-1.39,3.29-2.79,4.65-3.97c1.36-1.18,2.52-2.23,3.43-3.11l2.16-1.98C797.03,518.82,797.3,518.61,797.59,518.43z"/>
	<path class="st4" d="M814.26,400.88c0,0.4-0.04,0.8-0.13,1.2c-0.13,0.88-0.3,2.02-0.52,3.43l-1.97,12.51
		c-1.64,10.6-3.81,25.3-6.02,41.53c-2.22,16.23-4.15,30.87-5.6,41.62l-1.68,12.6c-0.21,1.41-0.38,2.56-0.5,3.43
		c-0.04,0.4-0.12,0.8-0.23,1.18c-0.05-0.4-0.05-0.81,0-1.22c0.07-0.88,0.18-2.03,0.32-3.43c0.34-3.11,0.8-7.4,1.39-12.66
		c1.23-10.73,3.07-25.4,5.36-41.65s4.49-30.93,6.29-41.51c0.93-5.36,1.68-9.58,2.29-12.51c0.27-1.39,0.5-2.52,0.68-3.4
		C814.01,401.62,814.11,401.25,814.26,400.88z"/>
	<path class="st4" d="M753.76,577.62c0.24-0.64,0.57-1.24,0.97-1.79c0.68-1.05,1.68-2.57,2.95-4.45c2.56-3.72,6.19-8.8,10.35-14.3
		c4.17-5.51,8.1-10.33,11.03-13.77c1.45-1.79,2.65-3.09,3.58-4.04c0.93-0.95,1.34-1.43,1.39-1.38c-0.31,0.58-0.68,1.12-1.11,1.61
		l-3.36,4.4c-2.77,3.58-6.61,8.44-10.73,13.91c-4.11,5.47-7.87,10.48-10.55,14.11l-3.25,4.17
		C754.67,576.64,754.24,577.16,753.76,577.62z"/>
	<path class="st4" d="M868.83,540.33c-0.98-0.33-1.93-0.73-2.86-1.18c-1.79-0.79-4.47-1.91-7.81-3.07
		c-8.69-3.14-17.88-4.68-27.12-4.56c-2.59,0.06-5.16,0.58-7.56,1.56c-2.22,0.96-4.24,2.32-5.95,4.02c-2.91,2.98-5.19,6.51-6.7,10.39
		c-1.07,2.59-2.02,5.23-2.82,7.92c-0.26,1-0.61,1.98-1.02,2.93c0.15-1.03,0.37-2.04,0.66-3.04c0.7-2.74,1.56-5.43,2.57-8.06
		c1.49-3.96,3.77-7.58,6.72-10.62c1.78-1.8,3.87-3.24,6.19-4.25c2.5-1.02,5.17-1.58,7.87-1.64c9.35-0.17,18.65,1.46,27.39,4.81
		c2.65,0.99,5.24,2.11,7.76,3.38c0.89,0.43,1.57,0.82,2.04,1.07C868.41,540.06,868.63,540.18,868.83,540.33z"/>
	<path class="st4" d="M855.46,512.33c0,0.2-2.81,0.11-7.15,0.88c-2.58,0.45-5.11,1.12-7.58,2c-6.04,2.18-11.58,5.57-16.27,9.96
		c-1.91,1.8-3.66,3.75-5.24,5.85c-2.68,3.58-3.88,6.11-4.06,6.02c0.19-0.62,0.44-1.22,0.77-1.79c0.33-0.7,0.7-1.38,1.11-2.04
		c0.5-0.89,1.05-1.74,1.64-2.57c1.54-2.18,3.27-4.22,5.18-6.08c4.7-4.56,10.37-8.03,16.57-10.14c2.52-0.84,5.12-1.44,7.76-1.79
		c1.13-0.2,2.16-0.23,3.06-0.3c0.77-0.04,1.54-0.04,2.31,0C854.2,512.26,854.83,512.26,855.46,512.33z"/>
	<path class="st5" d="M869.84,625.62c-1.77-11.87-9.45-22.03-20.4-26.96c-8.53-3.81-20.29-4.68-28.39,0
		c-8.1,4.68-18.93,16.2-16.73,25.26l18.57,31.2c9.79,7.09,22.91,7.51,33.13,1.05C865.98,649.38,871.32,637.59,869.84,625.62z"/>
	<g class="st10">
		<path d="M869.84,625.62c-1.77-11.87-9.45-22.03-20.4-26.96c-8.53-3.81-20.29-4.68-28.39,0c-8.1,4.68-18.93,16.2-16.73,25.26
			l18.57,31.2c9.79,7.09,22.91,7.51,33.13,1.05C865.98,649.38,871.32,637.59,869.84,625.62z"/>
	</g>
	<path class="st4" d="M864.04,648.36c0,0,0.66-1.25,1.79-3.47c1.56-3.2,2.64-6.61,3.2-10.12c0.81-5.21,0.35-10.54-1.36-15.54
		c-0.51-1.44-1.11-2.84-1.79-4.2c-0.71-1.41-1.52-2.77-2.41-4.08c-3.71-5.56-9-9.88-15.18-12.42c-7.9-2.99-16.61-2.99-24.51,0
		c-3.34,1.21-6.5,2.89-9.37,4.99c-2.02,1.52-3.06,2.47-3.13,2.4c0.22-0.27,0.46-0.51,0.72-0.73c0.69-0.69,1.41-1.35,2.18-1.95
		c2.83-2.26,5.99-4.07,9.37-5.36c8.03-3.17,16.96-3.22,25.03-0.16c3.17,1.27,6.13,3.02,8.78,5.18c2.64,2.17,4.95,4.72,6.85,7.56
		c0.9,1.35,1.72,2.75,2.45,4.2c0.69,1.4,1.29,2.85,1.79,4.33c1.72,5.12,2.13,10.59,1.2,15.91c-0.64,3.56-1.85,7-3.58,10.17
		c-0.61,1.11-1.2,1.93-1.56,2.48C864.39,647.84,864.24,648.11,864.04,648.36z"/>
	<path class="st4" d="M812.97,604.49c-0.27,0-2.43-12.19-4.86-27.33c-2.43-15.14-4.18-27.44-3.93-27.49s2.43,12.21,4.86,27.35
		C811.47,592.15,813.22,604.45,812.97,604.49z"/>
	<g class="st10">
		<path d="M800.85,533.03l9.49-0.66c6.29-9.66,16.14-16.44,27.41-18.86c2.59-0.68,5.3-0.73,7.92-0.16c2.65,0.61,4.78,2.58,5.61,5.17
			c0.69,2.69-0.9,5.44-3.58,6.19c5.33,1.4,9.84,4.97,12.41,9.85c0.54,1.02,0.93,2.41,0.13,3.24c-0.61,0.46-1.38,0.67-2.15,0.57
			c-4.38,0-8.72-0.98-13.1-1.18c-4.38-0.45-8.79,0.59-12.51,2.95c-3.58,2.56-5.51,6.72-7.15,10.73
			c-6.03,14.44-10.49,29.49-13.3,44.89c-2.2-8.71-2.4-17.88-3.99-26.14c-2.27-11.71-4.47-23.69-7.15-36.54"/>
	</g>
	<g class="st10">
		<path d="M594.96,611.98c11.82,12.6,27.76,18.5,44.84,21.29s34.5,1.79,51.84,0.82c4.25-0.25,9.3-0.98,11.16-4.83
			c1.32-2.74,0.41-5.97-0.64-8.8c-7.62-20.15-22.67-36.43-37.38-52.15c-5.36-5.76-11.12-11.73-18.65-14.05
			c-8.28-2.54-17.68-0.3-25.53-3.95c-9.44-4.38-13.28-15.5-16.2-25.49l-6.01-20.56c1.32,22.4,1.09,40.4,1.09,40.4
			s-6.19,41.4-5.36,50.79C594.94,604.84,594.96,611.98,594.96,611.98z"/>
	</g>
	<path class="st4" d="M712.64,356.41c-0.8-0.09-1.58-0.26-2.34-0.52c-1.5-0.38-3.58-1.04-6.26-1.97c-6.8-2.44-13.32-5.59-19.45-9.4
		c-6.14-3.81-11.86-8.26-17.07-13.26c-1.98-1.93-3.58-3.58-4.52-4.74c-0.57-0.56-1.08-1.19-1.5-1.88c0.64,0.49,1.24,1.04,1.79,1.63
		c1.07,1.11,2.68,2.65,4.72,4.51c10.59,9.7,22.9,17.35,36.29,22.54c2.56,1,4.67,1.79,6.13,2.23
		C711.19,355.77,711.93,356.06,712.64,356.41z"/>
	<path class="st4" d="M762.48,346.48c-0.15,0.48-0.38,0.93-0.68,1.32c-0.68,1.16-1.45,2.28-2.31,3.33
		c-5.64,7.01-13.38,12.02-22.08,14.3c-1.3,0.36-2.63,0.61-3.97,0.77c-0.49,0.11-0.99,0.14-1.48,0.09c0-0.16,2.06-0.5,5.27-1.48
		c4.19-1.31,8.18-3.18,11.87-5.56c3.67-2.4,6.99-5.29,9.87-8.6C761.2,348.16,762.34,346.39,762.48,346.48z"/>
	<path class="st4" d="M770.78,357.51c-2.74,7.01-7.91,12.79-14.57,16.29c2.82-2.34,5.51-4.83,8.06-7.45
		C766.59,363.52,768.77,360.57,770.78,357.51z"/>
	<path class="st6" d="M677,570.09l1.11-0.23c3.97-0.77,17.13-3.16,19.25-1.04c2.48,2.5,20.31,20,20.31,20s-3.43,5.63-14.7,0
		C691.71,583.19,677,570.09,677,570.09z"/>
	<path class="st4" d="M651.72,534.53L651.72,534.53c4.02-2.67,9.44-1.71,12.3,2.18l54.33,72.06l-13.93,10.21l-54.86-71.37
		c-3.06-3.95-2.34-9.63,1.61-12.69C651.34,534.79,651.53,534.66,651.72,534.53z"/>
	<path class="st6" d="M527.49,582.78c0,0,64.52,10.48,73.46,11.17c8.94,0.7,33.41,26.65,40.51,29.14s26.32,2.13,26.32,2.13
		s34.82,1.79,35.9,0s3.2-1.43,0-8.19c-1.98-4.14-4.38-8.07-7.15-11.73c0,0,8.94,11.01,11.39,11.37c2.45,0.36,7.81,1,7.45-3.75
		c-0.36-4.76-9.6-24.31-9.6-24.31s-3.9-9.14-11.01-11.16c-7.12-2.02-38.04-16.93-38.04-16.93h-33.07l-38.58-18.34
		c0,0-23.35-7.51-45.57,17c-4.33,4.87-7.62,10.57-9.67,16.75L527.49,582.78z"/>
	<path class="st7" d="M711.96,603.34c-0.4-0.58-0.73-1.21-0.97-1.88c-0.63-1.43-1.39-3.18-2.29-5.26c-0.89-2.07-2.09-4.93-3.31-7.83
		c-1.01-3.25-2.97-6.11-5.63-8.22c-1.45-1-3-1.85-4.63-2.54l-4.56-2.04c-2.93-1.29-5.58-2.4-7.79-3.33l-5.36-2.2
		c-0.66-0.23-1.3-0.53-1.89-0.89c0.7,0.11,1.38,0.3,2.04,0.55c1.27,0.43,3.13,1.07,5.36,1.91c2.23,0.84,4.95,1.91,7.9,3.16l4.59,2
		c1.69,0.69,3.31,1.57,4.81,2.61c2.81,2.22,4.86,5.26,5.88,8.69c1.16,2.91,2.2,5.58,3.11,7.88c0.91,2.31,1.47,3.9,2.02,5.36
		C711.55,601.98,711.79,602.65,711.96,603.34z"/>
	<path class="st7" d="M679.61,585.43c1.25,0.73,2.39,1.62,3.41,2.65c2.56,2.32,4.95,4.83,7.15,7.49c2.24,2.66,4.29,5.48,6.11,8.44
		c0.83,1.18,1.51,2.46,2,3.81c-0.95-1.07-1.81-2.23-2.56-3.45c-1.52-2.16-3.68-5.11-6.27-8.21c-2.59-3.09-5.1-5.72-6.97-7.6
		C681.43,587.6,680.47,586.56,679.61,585.43z"/>
	<path class="st7" d="M697.97,625.76c-0.48-0.1-0.94-0.28-1.36-0.54c-1.19-0.6-2.32-1.29-3.4-2.07c-3.47-2.66-6.63-5.7-9.42-9.06
		c-3.34-3.84-6.33-7.35-8.44-9.92c-1.22-1.33-2.32-2.76-3.31-4.27c1.38,1.17,2.64,2.45,3.79,3.84c2.25,2.47,5.36,5.9,8.65,9.73
		c2.76,3.31,5.81,6.38,9.12,9.15C696.2,624.69,698.04,625.63,697.97,625.76z"/>
	<path class="st7" d="M678.8,625.72c-1.18-0.4-2.3-0.96-3.33-1.66c-2.57-1.52-5.06-3.2-7.44-5.01c-2.37-1.81-4.65-3.73-6.83-5.77
		c-0.96-0.8-1.82-1.71-2.56-2.72c0.2-0.21,4.43,3.58,9.96,7.76S678.94,625.49,678.8,625.72z"/>
	<path class="st6" d="M784.65,652.54c0,0-5.67-8.76-6.45-11.89c-0.79-3.13,0-18.02-10.44-15.68v1.16c0.27,1.27,0,31.55,0,31.55
		L784.65,652.54z"/>
	<path class="st5" d="M650.88,668.4c0,0-9.64,88.92,94.48,86.33c84.88-2.11,83.4-84.84,83.4-84.84L650.88,668.4z"/>
	<ellipse class="st5" cx="738.26" cy="669.24" rx="97.02" ry="23.45"/>
	<ellipse class="st11" cx="739.71" cy="668.4" rx="89.05" ry="14.82"/>
	<path class="st4" d="M831.99,675.94l-0.43,0.25l-1.2,0.75c-1.05,0.66-2.66,1.57-4.77,2.65c-6,3.01-12.31,5.37-18.81,7.06
		c-9.64,2.43-19.42,4.26-29.28,5.47c-12.09,1.36-24.26,1.96-36.43,1.79c-12.93-0.11-25.26-0.54-36.43-1.52
		c-9.91-0.82-19.75-2.35-29.44-4.58c-6.53-1.5-12.94-3.5-19.16-5.97c-2.22-0.84-3.88-1.66-5.02-2.16l-1.27-0.61
		c-0.3-0.13-0.45-0.21-0.43-0.23c0.16,0.04,0.31,0.1,0.46,0.16l1.32,0.52c1.16,0.45,2.82,1.2,5.06,1.98
		c6.26,2.33,12.68,4.23,19.2,5.67c9.67,2.13,19.48,3.59,29.35,4.36c11.16,0.93,23.45,1.34,36.38,1.45
		c12.13,0.15,24.25-0.44,36.31-1.79c9.83-1.16,19.59-2.91,29.21-5.26c6.48-1.62,12.79-3.88,18.82-6.74
		c2.11-1.04,3.75-1.88,4.83-2.48l1.25-0.68C831.83,675.99,831.97,675.92,831.99,675.94z"/>
	<path class="st6" d="M772.57,666.39c0,0,10.62-35.59,14.3-40.33c3.02-3.92,24.42-20.11,31.77-25.6c1.81-1.37,3.87-2.37,6.06-2.95
		c7.28-1.91,14.55-3.2,26.53,1.98c7.64,3.38,13.55,9.76,16.34,17.63l-39.96,24.83l-1.56,16.8l-32.18-8.21
		c0.16-1.69-0.17-3.39-0.95-4.9C792.93,645.66,782.7,670.43,772.57,666.39z"/>
	<path class="st3" d="M733.99,641.12c-4.06-5.36-7.44-10.53-10.12-14.91c-2.68-4.38-4.59-8.06-5.86-10.73
		c-0.58-1.38-1.28-2.71-2.09-3.97c0.41,1.44,0.95,2.85,1.59,4.2c1.63,3.74,3.47,7.39,5.51,10.92c3.05,5.22,6.37,10.28,9.94,15.16
		c4,5.52,8.71,11.39,13.69,17.45c6.97,8.37,13.41,16.18,18.65,23.03h1.45c-5.24-7.15-11.83-15.25-19-23.87
		C742.75,652.38,738.05,646.57,733.99,641.12z"/>
	<path class="st3" d="M708.46,615.62c0.45,1.42,1.01,2.8,1.68,4.13c1.16,2.65,2.84,6.45,4.83,11.19
		c5.16,12.35,9.65,24.96,13.46,37.79c1.39,5.02,2.88,9.9,4.63,14.43h1.43c-1.79-4.59-3.25-9.56-4.72-14.8
		c-3.8-12.89-8.44-25.51-13.89-37.79c-2.11-4.7-3.93-8.46-5.24-11.03C710.02,618.18,709.29,616.87,708.46,615.62z"/>
	<path class="st3" d="M711.96,611.35c0.53,1.41,1.17,2.77,1.91,4.08c1.32,2.59,3.27,6.31,5.72,10.89
		c4.92,9.14,11.8,21.74,20.18,35.2c4.86,7.83,9.74,15,14.3,21.27h1.5c-4.54-6.45-9.55-13.87-14.55-21.97
		c-8.37-13.43-15.37-25.92-20.51-34.93l-6.11-10.73C713.7,613.82,712.88,612.55,711.96,611.35z"/>
	<path class="st3" d="M790.14,672.45c-3.53-8.35-8.93-15.77-15.79-21.7c-6.14-5.32-12.72-10.1-19.66-14.3
		c-6.42-4.06-12.51-7.74-17.7-11.48c-8.31-5.89-15.86-12.77-22.49-20.51c-2.34-2.74-4.08-4.95-5.22-6.45l-1.32-1.79
		c-0.13-0.21-0.3-0.39-0.48-0.55c0.1,0.23,0.22,0.45,0.38,0.64l1.2,1.79c1.09,1.57,2.74,3.84,5.04,6.65
		c6.51,7.92,14.01,14.96,22.33,20.95c5.24,3.81,11.26,7.56,17.64,11.66c6.87,4.21,13.37,9,19.43,14.3
		c6.7,5.82,11.98,13.1,15.43,21.27c1.03,2.43,1.82,4.96,2.38,7.54l1.39-0.14C792.09,677.64,791.23,675,790.14,672.45z"/>
	<path class="st3" d="M786.87,678.35c-2.33-5.89-5.55-11.39-9.55-16.3c-4.92-5.97-10.5-11.37-16.63-16.09
		c-6.42-5.09-12.84-9.49-18.56-13.62c-5.72-4.13-10.73-7.99-14.8-11.46c-3.19-2.74-6.22-5.66-9.08-8.74
		c-0.99-1.2-2.04-2.34-3.16-3.41c0.16,0.38,0.38,0.73,0.64,1.04c0.45,0.64,1.16,1.57,2.11,2.74c2.72,3.25,5.67,6.3,8.83,9.12
		c4.7,4.16,9.6,8.09,14.69,11.76c5.7,4.2,12.08,8.63,18.45,13.68c6.04,4.66,11.58,9.94,16.5,15.77c3.97,4.78,7.21,10.12,9.62,15.84
		c0.32,0.77,0.59,1.52,0.86,2.25l0.93-0.09C787.51,680.05,787.26,679.23,786.87,678.35z"/>
	<path class="st3" d="M740.05,670.08c-6.86-12.51-12.64-24.17-16.73-32.63l-4.83-10.01c-0.53-1.24-1.16-2.44-1.89-3.58
		c0.35,1.32,0.82,2.61,1.39,3.84c1,2.43,2.48,5.92,4.42,10.21c3.88,8.56,9.53,20.27,16.39,32.88c2.34,4.27,4.65,8.37,6.88,12.23
		h1.54C744.91,678.89,742.5,674.58,740.05,670.08z"/>
	<path class="st3" d="M754.33,654.02c-9.63-9.48-18.74-19.48-27.28-29.94c-3.27-4.02-5.85-7.33-7.65-9.62
		c-0.86-1.27-1.83-2.46-2.88-3.58c0.71,1.33,1.53,2.61,2.45,3.81c1.66,2.4,4.11,5.81,7.31,9.92c8.33,10.72,17.38,20.88,27.07,30.39
		c5.65,5.6,11.39,10.53,16.2,15.37c3.48,3.42,6.63,7.17,9.39,11.19h1.18c-2.76-4.35-5.99-8.39-9.64-12.03
		C765.65,664.54,759.95,659.58,754.33,654.02z"/>
	<path class="st3" d="M724.98,678.64c-2.38-7.15-3.99-14.09-5.49-20.36c-2.9-12.51-5.6-22.76-8.47-29.43
		c-1.35-3.51-3.07-6.86-5.13-9.99c0,0,0,0.25,0.29,0.68l1,1.93c0.84,1.7,2.06,4.22,3.34,7.58c2.7,6.7,5.24,16.84,7.99,29.46
		c1.47,6.29,3.02,13.21,5.36,20.49c0.46,1.38,0.98,2.77,1.5,4.18h1.29C726.09,681.66,725.5,680.12,724.98,678.64z"/>
	<path class="st4" d="M797.02,657.04c0.14-0.02,0.29-0.02,0.43,0c0.42-0.02,0.83-0.02,1.25,0c1.09,0.09,2.7,0.27,4.76,0.55
		c5.82,0.8,11.57,2.08,17.18,3.81c1.85,0.65,3.64,1.45,5.36,2.38c0.97,0.51,1.8,1.23,2.45,2.11c0.65,1.01,0.83,2.25,0.5,3.4
		c-0.39,1.15-1.23,2.1-2.32,2.63c-0.98,0.64-2.01,1.19-3.09,1.64c-2.21,0.95-4.49,1.74-6.81,2.38c-10.3,2.8-20.79,4.82-31.39,6.02
		c-19.25,2.05-38.64,2.59-57.98,1.61c-7.42-0.29-13.41-0.64-17.56-0.89l-4.77-0.34l-1.23-0.11c-0.14,0.03-0.29,0.03-0.43,0h1.68
		l4.77,0.16l17.56,0.59c19.3,0.81,38.64,0.21,57.85-1.79c10.55-1.22,21-3.2,31.27-5.94c2.29-0.62,4.53-1.39,6.72-2.31
		c1.04-0.42,2.04-0.94,2.99-1.56c0.92-0.44,1.65-1.21,2.02-2.16c0.28-0.94,0.14-1.96-0.39-2.79c-0.58-0.79-1.32-1.44-2.18-1.91
		c-1.68-0.92-3.44-1.7-5.24-2.36c-5.57-1.78-11.26-3.14-17.04-4.08c-2.04-0.34-3.58-0.59-4.7-0.73
		C797.54,657.22,797.02,657.08,797.02,657.04z"/>
	<path class="st7" d="M805.69,635.07c0.16,0.21-3.16,2.81-6.97,6.33c-3.81,3.52-6.65,6.63-6.86,6.45
		C795.51,642.66,800.22,638.3,805.69,635.07z"/>
	<path class="st7" d="M804.91,649.16c-1.84-0.7-3.77-1.1-5.74-1.2c-1.96,0.18-3.89,0.67-5.7,1.43c0-0.09,0.39-0.63,1.39-1.2
		c1.3-0.74,2.77-1.14,4.27-1.16c1.51-0.04,3,0.3,4.34,0.98C804.49,648.55,804.98,649.07,804.91,649.16z"/>
</g>
<g id="freepik--Shelves--inject-13">
	<path class="st8" d="M480.62,280.18c-1.04,0.82-57.73,26.28-57.73,26.28s15.61,33.14,45.89,18.38
		C496.44,311.36,480.62,280.18,480.62,280.18z"/>
	<path class="st8" d="M479.99,97.1c1.27,0,2.32,44.01,2.32,98.32s-1.05,98.32-2.32,98.32s-2.34-44-2.34-98.32
		S478.7,97.1,479.99,97.1z"/>
	<path class="st8" d="M439.64,229.87c-1.04,0.82-57.73,26.28-57.73,26.28s15.61,33.14,45.91,18.38
		C455.48,261.05,439.64,229.87,439.64,229.87z"/>
	<path class="st8" d="M439.02,93.77c1.29,0,2.32,33.5,2.32,74.82s-1.04,74.82-2.32,74.82c-1.29,0-2.32-33.5-2.32-74.82
		S437.73,93.77,439.02,93.77z"/>
	<path class="st8" d="M390,180.26c-1.05,0.8-57.74,26.26-57.74,26.26s15.62,33.14,45.91,18.38C405.85,211.39,390,180.26,390,180.26z
		"/>
	<path class="st8" d="M389.39,98.76c1.29,0,2.32,21.26,2.32,47.46s-1.04,47.48-2.32,47.48s-2.32-21.26-2.32-47.48
		S388.1,98.76,389.39,98.76z"/>
	<circle class="st8" cx="547.42" cy="231.28" r="57.92"/>
	<polygon class="st8" points="545.26,179.85 540.72,105.36 562.06,105.36 556.15,179.85 	"/>
	<path class="st4" d="M571.79,271.92l-0.38,0.27l-1.18,0.68c-0.52,0.29-1.14,0.7-1.93,1.07l-2.75,1.23
		c-5.97,2.42-12.37,3.6-18.81,3.47c-9.58-0.16-18.91-3.13-26.82-8.55c-4.65-3.23-8.63-7.34-11.71-12.1
		c-6.67-10.28-9.3-22.67-7.38-34.77c0.87-5.6,2.81-10.97,5.74-15.82c5.04-8.18,12.37-14.71,21.08-18.77
		c5.83-2.74,12.15-4.27,18.59-4.51h2.86c0.88,0,1.61,0.14,2.2,0.18l1.34,0.16c0.15-0.02,0.31-0.02,0.46,0h-0.43h-1.36
		c-0.59,0-1.32-0.11-2.2-0.11h-2.99c-6.36,0.38-12.58,1.99-18.32,4.74c-8.53,4.11-15.68,10.61-20.58,18.72
		c-2.86,4.77-4.76,10.04-5.6,15.54c-1.84,11.88,0.75,24.03,7.28,34.13c3,4.67,6.88,8.72,11.42,11.91
		c13.24,9.07,30.07,11.1,45.09,5.45l2.75-1.16c0.8-0.36,1.43-0.72,1.97-0.98l1.22-0.61L571.79,271.92z"/>
	<polygon class="st8" points="315.2,9 335.7,83.19 422.57,83.19 443.09,9 	"/>
	<path class="st4" d="M439.02,23.68c0,0.27-26.82,0.48-59.87,0.48s-59.87-0.2-59.87-0.48s26.82-0.46,59.87-0.46
		S439.02,23.44,439.02,23.68z"/>
	<path class="st4" d="M454.94,28.13h-17.88l2.86-7.76h14.93c2.14,0,3.88,1.74,3.88,3.88l0,0C458.73,26.36,457.05,28.08,454.94,28.13
		z"/>
	<path class="st4" d="M303.2,28.13h17.79l-2.84-7.76H303.2c-2.14,0-3.88,1.74-3.88,3.88l0,0C299.32,26.39,301.06,28.13,303.2,28.13
		L303.2,28.13z"/>
	<rect x="293.25" y="82.19" class="st5" width="324.42" height="23.19"/>
</g>
<g id="freepik--kitchen-tools--inject-13">
	<path class="st5" d="M1037.36,412.36c-4.97-1.94-10.56,0.51-12.51,5.47l-14.39,38.56l0,0l17.88,6.58l14.52-38.19
		C1044.74,419.84,1042.29,414.3,1037.36,412.36z"/>
	<path class="st12" d="M1036.97,424.55c0,2.27-1.84,4.11-4.11,4.11c-2.27,0-4.11-1.84-4.11-4.11c0-2.27,1.84-4.11,4.11-4.11
		c0.01,0,0.01,0,0.02,0c2.25-0.01,4.08,1.81,4.09,4.06C1036.97,424.52,1036.97,424.54,1036.97,424.55z"/>
	<path class="st12" d="M1026.78,449.83c0.01,2.27-1.82,4.12-4.09,4.13c-2.27,0.01-4.12-1.82-4.13-4.09
		c-0.01-2.27,1.82-4.12,4.09-4.13c0.01,0,0.01,0,0.02,0C1024.93,445.74,1026.77,447.57,1026.78,449.83z"/>
	<polygon class="st0" points="1010.49,456.39 982.77,528.72 1016.89,528.29 1044.73,468.53 	"/>
	<rect x="940.63" y="528.72" class="st5" width="95.64" height="110"/>
	<path class="st2" d="M1036.27,556.11c0,0.27-21.45,0.48-47.82,0.48s-47.84-0.18-47.84-0.48s21.45-0.46,47.82-0.46
		C1014.8,555.65,1036.27,555.86,1036.27,556.11z"/>
	<path class="st2" d="M1036.27,567.96c0,0.25-21.45,0.46-47.82,0.46s-47.84-0.21-47.84-0.46s21.45-0.46,47.82-0.46
		C1014.8,567.5,1036.27,567.69,1036.27,567.96z"/>
	<path class="st2" d="M1036.27,579.8c0,0.27-21.45,0.46-47.82,0.46s-47.82-0.2-47.82-0.46s21.45-0.46,47.82-0.46
		S1036.27,579.55,1036.27,579.8z"/>
	<path class="st2" d="M1036.27,591.65c0,0.25-21.45,0.46-47.82,0.46s-47.82-0.21-47.82-0.46s21.45-0.46,47.82-0.46
		S1036.27,591.38,1036.27,591.65z"/>
	<path class="st2" d="M1036.27,603.48c0,0.25-21.45,0.46-47.82,0.46s-47.82-0.21-47.82-0.46s21.45-0.46,47.82-0.46
		S1036.27,603.23,1036.27,603.48z"/>
	<path class="st2" d="M1036.27,615.41c0,0.27-21.45,0.46-47.82,0.46s-47.84-0.29-47.84-0.46s21.45-0.46,47.82-0.46
		C1014.8,614.94,1036.27,615.07,1036.27,615.41z"/>
	<path class="st8" d="M884.42,468.17l63.95,5.11c0,0,1.79-31.05-28.14-34.34C890.31,435.65,884.42,468.17,884.42,468.17z"/>
	<path class="st8" d="M965.91,528.72c-1.22,0.41-7.87-15.52-14.84-35.59c-6.97-20.08-11.66-36.72-10.44-37.13
		c1.22-0.41,7.85,15.52,14.84,35.59C962.46,511.67,967.12,528.29,965.91,528.72z"/>
</g>
<g id="freepik--Food--inject-13">
	<path class="st8" d="M969.73,739.37c-0.41,0.14-0.84,0.23-1.27,0.29l-3.66,0.61l-2.65,0.41c-0.98,0.13-2.04,0.2-3.18,0.32
		c-2.29,0.2-4.88,0.54-7.76,0.57l-4.52,0.14c-1.57,0-3.22,0-4.92,0c-3.4,0-7.01-0.34-10.73-0.64c-16.55-1.6-32.71-6.01-47.79-13.03
		c-3.41-1.68-6.7-3.24-9.64-4.97c-1.47-0.84-2.91-1.61-4.25-2.45l-3.84-2.52c-2.47-1.5-4.52-3.13-6.38-4.45
		c-0.93-0.68-1.79-1.29-2.57-1.89l-2.07-1.79l-2.84-2.38c-0.34-0.26-0.66-0.56-0.95-0.88c0.39,0.2,0.75,0.44,1.07,0.73l2.95,2.23
		l2.11,1.64c0.79,0.59,1.66,1.18,2.61,1.79c1.88,1.29,3.95,2.86,6.44,4.33l3.83,2.38c1.34,0.82,2.79,1.56,4.25,2.38
		c2.93,1.7,6.2,3.22,9.62,4.88c7.53,3.39,15.29,6.21,23.24,8.44c7.95,2.12,16.06,3.64,24.24,4.54c3.77,0.32,7.37,0.7,10.73,0.72
		c1.7,0,3.33,0.16,4.88,0.13l4.52-0.09c2.86,0,5.45-0.29,7.74-0.43c1.13,0,2.2-0.14,3.16-0.25l2.65-0.32l3.68-0.45
		C968.86,739.32,969.3,739.33,969.73,739.37z"/>
	<path class="st8" d="M893.61,732.33c-13.41-1.79-30.93,3.4-40.97,12.51C866.89,742.92,880.73,738.7,893.61,732.33"/>
	<path class="st8" d="M894.29,732.49c4.92-12.62-2.34-30.39-2.34-30.39C890.54,699.7,891.16,718.49,894.29,732.49"/>
	<path class="st8" d="M873.13,722.47c3.58-9.26-1.63-22.27-1.63-22.27C870.5,698.41,870.91,712.23,873.13,722.47"/>
	<path class="st8" d="M913.24,736.97c3.58-9.26-1.63-22.27-1.63-22.27C910.6,712.91,911.01,726.73,913.24,736.97"/>
	<path class="st8" d="M873.54,722.67c-9.99-1.32-23.03,2.54-30.48,9.3C853.65,730.55,863.95,727.41,873.54,722.67"/>
	<path class="st8" d="M915.28,738.39c-14.18,0.2-31.52,8.24-40.55,19.16C889.2,753.41,902.9,746.94,915.28,738.39"/>
	<path class="st5" d="M969.3,670.68c-8.84-13.28-26.78-16.88-40.06-8.04c-4.7,3.13-8.38,7.57-10.59,12.77
		c-3.25,8.22-3.1,17.4,0.41,25.51c3.56,8.02,9.36,14.85,16.7,19.66c18.9,12.87,46.3,12.28,63.86-2.36
		c6.53-5.36,11.76-12.85,12.96-21.26c2.06-14.48-8.01-27.88-22.49-29.94c-5.75-0.82-11.62,0.28-16.68,3.12"/>
	<path class="st8" d="M969.38,670.65c-1.29-4.75-5.83-7.86-10.73-7.37l6.33,7.53c-3.5,0.48-6.47,2.81-7.78,6.1
		c-0.29,0.77-0.38,1.79,0.36,2.25c0.53,0.17,1.1,0.11,1.57-0.18l7.69-3.18c0.53,4.29,2.1,8.38,4.58,11.92
		c1.76-3.76,2.74-7.84,2.9-12l8.49,3.75c-0.67-2.44-2.06-4.63-3.99-6.27c2.53-0.48,4.96-1.42,7.15-2.77
		c0.66-0.41,1.38-1.11,1.09-1.79c-0.29-0.68-0.93-0.7-1.52-0.75c-5.61-0.53-11.25,0.64-16.18,3.36"/>
	<path class="st8" d="M968.82,673.83c1.32-8.59,0.59-17.37-2.11-25.64c2.02-0.45,4.51-0.75,5.83,0.86c0.65,1.01,0.96,2.21,0.86,3.41
		c0.1,8.13-1.45,16.2-4.54,23.72"/>
	<path class="st2" d="M927.6,704.6c-0.5-0.37-0.95-0.82-1.32-1.32c-1.1-1.32-2.05-2.75-2.84-4.27c-5.52-10.42-3.4-23.24,5.18-31.32
		c1.23-1.19,2.59-2.24,4.06-3.13c0.52-0.35,1.09-0.63,1.68-0.84c-1.85,1.37-3.61,2.85-5.27,4.43c-8.06,8.05-10.09,20.34-5.06,30.55
		C925.09,700.74,926.28,702.71,927.6,704.6z"/>
	<path class="st2" d="M936.12,711.03c-0.09,0.23-1.43,0-2.79-1.02c-1.36-1.02-2.06-2.15-1.79-2.31c0.27-0.16,1.16,0.66,2.4,1.56
		C935.18,710.16,936.21,710.78,936.12,711.03z"/>
	<path class="st8" d="M576.87,572.59c-0.79,0.18,4.99,29.18,4.99,29.18h14.77l6.53-28.01C594.68,570.85,585.56,570.45,576.87,572.59
		z"/>
	<path class="st3" d="M567.96,735.83c0,0-21.74-60.89-18.7-77.41c3.04-16.52,9.56-20,14.78-25.22c5.22-5.22,9.56-9.56,10.87-14.78
		c1.31-5.22,0-26.08,0-26.08s-3.92-6.1-2.61-8.26c1.3-2.16,33.48,0,33.48,0c-0.18,2.65-1.08,5.21-2.61,7.38
		c0,0-0.86,24.35,0.45,26.96c1.3,2.61,21.31,24.8,24.35,36.09s-12.01,81.32-12.01,81.32L567.96,735.83z"/>
	<path class="st4" d="M567.96,735.83h0.84h2.45h9.44l35.27-0.16l-0.29,0.23c1.79-8.85,3.84-18.88,5.88-29.91
		c2.04-11.03,4.17-23.08,5.65-36c0.34-3.24,0.64-6.51,0.72-9.85c0.31-3.35-0.41-6.71-2.06-9.64c-3.32-6.19-7.21-12.07-11.6-17.56
		c-2.18-2.86-4.47-5.7-6.78-8.56c-1.14-1.45-2.31-2.88-3.43-4.38c-0.3-0.39-0.58-0.8-0.84-1.22c-0.18-0.48-0.3-0.98-0.36-1.48
		c-0.14-0.94-0.22-1.89-0.25-2.84c-0.34-7.53-0.11-15.14,0.11-22.88v-0.13v-0.11c0.32-0.54,0.68-1.11,0.98-1.79
		c0.87-1.67,1.39-3.49,1.54-5.36l0.43,0.45c-7.33-0.46-14.59-0.82-21.68-0.95c-3.48-0.13-6.96,0.01-10.42,0.41
		c-0.33,0.05-0.64,0.16-0.93,0.32c-0.16,0.29-0.23,0.62-0.21,0.95c0.05,0.81,0.23,1.61,0.54,2.36c0.61,1.56,1.37,3.05,2.25,4.47
		v0.11v0.11c0.32,5.56,0.55,11.03,0.57,16.41c0.04,2.68-0.06,5.36-0.3,8.03c-0.34,2.67-1.34,5.21-2.91,7.38
		c-1.48,2.1-3.14,4.08-4.95,5.9c-1.79,1.79-3.58,3.58-5.36,5.27c-1.82,1.59-3.54,3.29-5.15,5.09c-1.51,1.78-2.8,3.75-3.83,5.85
		c-1.91,4.08-3.23,8.4-3.92,12.85c-0.22,2.13-0.22,4.27,0,6.4c0.14,2.09,0.43,4.17,0.72,6.19c1.26,7.44,2.9,14.82,4.9,22.1
		c3.58,13.3,6.94,23.78,9.24,30.98c1.18,3.58,2.09,6.31,2.72,8.22c0.3,0.91,0.52,1.63,0.7,2.13s0.21,0.73,0.21,0.73
		c-0.11-0.23-0.21-0.46-0.29-0.7l-0.79-2.11c-0.66-1.79-1.63-4.61-2.84-8.19c-2.41-7.15-5.88-17.61-9.53-30.93
		c-1.79-6.65-3.66-14.02-5.01-22.13c-0.3-2.04-0.59-4.11-0.75-6.26c-0.24-2.17-0.24-4.37,0-6.54c0.68-4.53,2.01-8.94,3.95-13.09
		c1.05-2.16,2.37-4.19,3.92-6.02c1.62-1.83,3.36-3.56,5.2-5.17c1.79-1.66,3.58-3.45,5.27-5.26c1.78-1.8,3.41-3.74,4.86-5.81
		c1.49-2.07,2.44-4.48,2.75-7.01c0.23-2.63,0.33-5.28,0.29-7.92c0-5.36-0.27-10.82-0.59-16.36v0.21c-0.94-1.47-1.73-3.02-2.36-4.65
		c-0.33-0.85-0.53-1.75-0.59-2.66c-0.03-0.53,0.11-1.06,0.41-1.5c0.4-0.36,0.91-0.59,1.45-0.66c3.53-0.42,7.09-0.56,10.64-0.43
		c7.15,0.11,14.3,0.46,21.74,0.95h0.73v0.45c-0.14,2.03-0.69,4.02-1.63,5.83c-0.32,0.61-0.67,1.21-1.05,1.79v-0.23
		c-0.21,7.71-0.45,15.34-0.13,22.79c0.04,0.92,0.12,1.84,0.25,2.75c0.05,0.41,0.14,0.82,0.27,1.22c0.23,0.36,0.46,0.72,0.75,1.09
		c1.09,1.47,2.27,2.9,3.41,4.33c2.31,2.88,4.59,5.72,6.78,8.6c4.43,5.54,8.34,11.48,11.67,17.73c1.69,3.06,2.44,6.55,2.13,10.03
		c0,3.38-0.39,6.69-0.75,9.92c-1.5,12.96-3.7,25.03-5.74,36.04c-2.04,11.01-4.13,21.08-6.04,29.91v0.25h-0.25l-35.41-0.16h-9.39
		h-2.4L567.96,735.83z"/>
	<path class="st5" d="M611.8,729.52c5.51-20.35,9.16-41.15,10.91-62.16c0.2-2.4,0.2-5.17-1.63-6.76c-2.22-1.93-5.6-0.89-8.4,0
		c-8.25,2.62-17.03,3.09-25.51,1.36c-8.24-1.79-16.43-5.47-24.72-4.09c-2.13,0.18-4.1,1.22-5.45,2.88c-1.34,2-1.02,4.63-0.64,7.01
		c3.27,20.45,9.94,43.94,15.36,61.77H611.8z"/>
	<path class="st2" d="M617.25,663.12c-0.45,0.63-0.97,1.2-1.56,1.7c-1.53,1.45-3.18,2.77-4.93,3.95
		c-11.72,8.07-26.62,9.94-39.97,5.02c-1.99-0.71-3.91-1.58-5.76-2.61c-0.7-0.33-1.35-0.76-1.93-1.27c0-0.16,2.9,1.59,7.9,3.27
		c13.18,4.43,27.66,2.61,39.33-4.95C614.84,665.46,617.13,662.98,617.25,663.12z"/>
</g>
</svg>
