<?xml version="1.0" encoding="utf-8"?>
<!-- Generator: Adobe Illustrator 23.1.0, SVG Export Plug-In . SVG Version: 6.00 Build 0)  -->
<svg version="1.1" id="Layer_1" xmlns="http://www.w3.org/2000/svg" xmlns:xlink="http://www.w3.org/1999/xlink" x="0px" y="0px"
	 viewBox="0 0 1366 768" style="enable-background:new 0 0 1366 768;" xml:space="preserve">
<style type="text/css">
	.st0{fill:#EBEBEB;}
	.st1{fill:#DBDBDB;}
	.st2{fill:#263238;}
	.st3{fill:#455A64;}
	.st4{fill:#FFC727;}
	.st5{fill:#C7C7C7;}
	.st6{opacity:0.2;enable-background:new    ;}
	.st7{opacity:0.2;}
	.st8{fill:#EB9481;}
	.st9{fill:#A6A6A6;}
	.st10{opacity:0.1;enable-background:new    ;}
	.st11{fill:#FF9CBD;}
	.st12{fill:#FFFFFF;}
	.st13{opacity:0.1;}
	.st14{fill:#37474F;}
</style>
<g id="freepik--background-complete--inject-7">
	<polygon class="st0" points="291.06,378.67 388.67,378.25 486.28,378.09 681.51,377.81 876.73,378.09 974.35,378.25 
		1071.96,378.67 974.35,379.12 876.73,379.27 681.51,379.56 486.28,379.27 388.67,379.12 	"/>
	<polygon class="st0" points="291.06,317.52 388.67,317.09 486.28,316.94 681.51,316.65 876.73,316.94 974.35,317.09 
		1071.96,317.52 974.35,317.96 876.73,318.12 681.51,318.41 486.28,318.12 388.67,317.96 	"/>
	<polygon class="st0" points="291.06,256.38 388.67,255.94 486.28,255.79 681.51,255.5 876.73,255.79 974.35,255.94 1071.96,256.38 
		974.35,256.81 876.73,256.96 681.51,257.25 486.28,256.96 388.67,256.81 	"/>
	<polygon class="st0" points="291.06,195.23 388.67,194.79 486.28,194.63 681.51,194.34 876.73,194.63 974.35,194.79 
		1071.96,195.23 974.35,195.65 876.73,195.81 681.51,196.12 486.28,195.81 388.67,195.65 	"/>
	<polygon class="st0" points="291.06,134.07 388.67,133.65 486.28,133.48 681.51,133.19 876.73,133.48 974.35,133.63 
		1071.96,134.07 974.35,134.5 876.73,134.65 681.51,134.96 486.28,134.65 388.67,134.5 	"/>
	<polygon class="st0" points="291.06,72.92 388.67,72.5 486.28,72.34 681.51,72.03 876.73,72.32 974.35,72.5 1071.96,72.92 
		974.35,73.34 876.73,73.52 681.51,73.81 486.28,73.5 388.67,73.34 	"/>
	<polygon class="st0" points="291.06,439.89 388.67,439.46 486.28,439.31 681.51,439 876.73,439.31 974.35,439.46 1071.96,439.89 
		974.35,440.31 876.73,440.48 681.51,440.77 486.28,440.46 388.67,440.31 	"/>
	<polygon class="st0" points="291.06,501.1 388.67,500.67 486.28,500.5 681.51,500.21 876.73,500.5 974.35,500.65 1071.96,501.1 
		974.35,501.52 876.73,501.68 681.51,501.98 486.28,501.68 388.67,501.52 	"/>
	<polygon class="st0" points="291.06,562.29 388.67,561.87 486.28,561.71 681.51,561.42 876.73,561.71 974.35,561.87 
		1071.96,562.29 974.35,562.73 876.73,562.89 681.51,563.18 486.28,562.89 388.67,562.73 	"/>
	<polygon class="st0" points="291.06,623.5 388.67,623.08 486.28,622.93 681.51,622.62 876.73,622.93 974.35,623.08 1071.96,623.5 
		974.35,623.95 876.73,624.1 681.51,624.39 486.28,624.1 388.67,623.95 	"/>
	<rect x="291.06" y="439" class="st1" width="780.88" height="61.21"/>
	<polygon class="st0" points="748.18,6 748.66,76.91 748.83,130.14 749.14,468.42 748.83,574.86 748.66,628.09 748.18,681.3 
		747.71,628.09 747.54,574.86 747.21,468.42 747.54,130.14 747.71,76.91 	"/>
	<polygon class="st0" points="681.51,6 681.97,76.91 682.15,130.14 682.47,468.42 682.15,574.86 681.99,628.09 681.51,681.3 
		681.03,628.09 680.87,574.86 680.55,468.42 680.87,130.14 681.05,76.91 	"/>
	<polygon class="st0" points="614.84,6 615.3,76.91 615.48,130.14 615.79,468.42 615.48,574.86 615.3,628.09 614.84,681.3 
		614.36,628.09 614.18,574.86 613.88,468.42 614.18,130.14 614.36,76.91 	"/>
	<polygon class="st0" points="548.15,6 548.62,76.91 548.79,130.14 549.12,468.42 548.79,574.86 548.63,628.09 548.15,681.3 
		547.69,628.09 547.52,574.86 547.19,468.42 547.52,130.14 547.69,76.91 	"/>
	<polygon class="st0" points="948.22,6 948.68,76.91 948.86,130.14 949.19,468.42 948.86,574.86 948.68,628.09 948.22,681.3 
		947.74,628.09 947.57,574.86 947.26,468.42 947.59,130.14 947.74,76.91 	"/>
	<polygon class="st0" points="881.53,6 882.02,76.91 882.17,130.14 882.5,468.42 882.17,574.86 882.02,628.09 881.53,681.3 
		881.07,628.09 880.9,574.86 880.57,468.42 880.9,130.14 881.07,76.91 	"/>
	<polygon class="st0" points="814.87,6 815.33,76.91 815.5,130.14 815.83,468.42 815.5,574.86 815.33,628.09 814.87,681.3 
		814.38,628.09 814.23,574.86 813.9,468.42 814.23,130.14 814.4,76.91 	"/>
	<polygon class="st0" points="1014.89,6 1015.35,76.91 1015.53,130.14 1015.85,468.42 1015.53,574.86 1015.37,628.09 1014.89,681.3 
		1014.43,628.09 1014.25,574.86 1013.93,468.42 1014.25,130.14 1014.43,76.91 	"/>
	<polygon class="st0" points="948.22,6 948.68,76.91 948.86,130.14 949.19,468.42 948.86,574.86 948.68,628.09 948.22,681.3 
		947.74,628.09 947.57,574.86 947.26,468.42 947.59,130.14 947.74,76.91 	"/>
	<polygon class="st0" points="481.48,6 481.95,76.91 482.12,130.14 482.45,468.42 482.12,574.86 481.95,628.09 481.48,681.3 
		481,628.09 480.83,574.86 480.52,468.42 480.85,130.14 481,76.91 	"/>
	<polygon class="st0" points="414.8,6 415.28,76.91 415.43,130.14 415.76,468.42 415.45,574.86 415.28,628.09 414.8,681.3 
		414.33,628.09 414.16,574.86 413.83,468.42 414.16,130.14 414.33,76.91 	"/>
	<polygon class="st0" points="348.13,6 348.59,76.91 348.76,130.14 349.09,468.42 348.76,574.86 348.59,628.09 348.13,681.3 
		347.65,628.09 347.49,574.86 347.16,468.42 347.49,130.14 347.65,76.91 	"/>
	<polygon class="st0" points="301.16,250.95 614.8,250.95 624.89,15.72 291.06,15.72 	"/>
	<path class="st1" d="M451.31,229.33H324.47L316.2,38.47h135.11V229.33z M326.32,227.41h123.06V40.39h-131.1L326.32,227.41z"/>
	<path class="st1" d="M439.86,166.15h-13.17v-68.9h13.17V166.15z M428.62,164.23h9.31V99.18h-9.31V164.23z"/>
	<path class="st1" d="M591.47,229.33H464.63V38.47h135.11L591.47,229.33z M466.56,227.41h123.06l8.1-187.01h-131.1L466.56,227.41z"
		/>
	<path class="st1" d="M489.25,166.15h-13.17v-68.9h13.17V166.15z M478.01,164.23h9.31V99.18h-9.31V164.23z"/>
</g>
<g id="freepik--Shadow--inject-7">
	<ellipse class="st0" cx="681.51" cy="733.45" rx="384.97" ry="25.55"/>
</g>
<g id="freepik--Stove--inject-7">
	<polygon class="st2" points="680.12,676.72 676.75,674.88 686.98,656.03 845.65,656.03 855.91,674.88 852.52,676.72 843.36,659.88 
		689.28,659.88 	"/>
	<polygon class="st2" points="708.1,676.48 704.47,675.13 711.57,656.03 821.07,656.03 828.17,675.13 824.56,676.48 818.39,659.88 
		714.25,659.88 	"/>
	<polygon class="st2" points="1038.53,676.72 1029.37,659.88 875.29,659.88 866.13,676.72 862.76,674.88 872.99,656.03 
		1031.66,656.03 1041.92,674.88 	"/>
	<polygon class="st2" points="1010.57,676.48 1004.4,659.88 900.25,659.88 894.1,676.48 890.48,675.13 897.57,656.03 
		1007.08,656.03 1014.18,675.13 	"/>
	<rect x="668.98" y="671.66" class="st3" width="381.68" height="9.95"/>
</g>
<g id="freepik--Table--inject-7">
	<polygon class="st2" points="284.76,681.3 383.95,680.84 483.12,680.67 681.51,680.34 879.88,680.67 979.07,680.84 1078.26,681.3 
		979.07,681.79 879.88,681.94 681.51,682.27 483.12,681.94 383.95,681.77 	"/>
</g>
<g id="freepik--Shelf--inject-7">
	<rect x="710.78" y="134.27" class="st4" width="308.47" height="23.73"/>
	<rect x="860.42" y="200.92" class="st5" width="9.16" height="115.75"/>
	<path class="st5" d="M889.73,311.62h-49.51l-2.54,69.19h54.66L889.73,311.62z M854.54,372.7h-5.15v-51.19h5.15V372.7z M867.5,372.7
		h-5.13v-51.19h5.13V372.7z M880.45,372.7h-5.13v-51.19h5.13V372.7z"/>
	<polygon class="st2" points="874.9,212.31 855.68,212.31 853.75,140.61 876.83,140.61 	"/>
	<circle class="st4" cx="865.3" cy="149.96" r="3.12"/>
	<rect x="957.34" y="200.92" class="st5" width="9.16" height="93.16"/>
	<path class="st5" d="M988.15,321.01c0,19.43-12.67,37.31-26.22,37.31s-26.24-17.87-26.24-37.31s15.52-29.03,26.24-29.03
		S988.15,301.61,988.15,321.01z"/>
	<polygon class="st2" points="971.82,212.31 952.6,212.31 950.67,140.61 973.75,140.61 	"/>
	<circle class="st4" cx="962.22" cy="149.96" r="3.12"/>
	<path class="st5" d="M710.6,240.65V354.4h69.56V200.63h-14.42v40.02L710.6,240.65z M720.43,256.46c-0.01-2.29,1.84-4.15,4.13-4.16
		c2.29-0.01,4.15,1.84,4.16,4.13c0.01,2.29-1.84,4.15-4.13,4.16c-0.01,0-0.01,0-0.02,0C722.3,260.59,720.44,258.74,720.43,256.46z"
		/>
	<polygon class="st2" points="763.35,212.31 782.57,212.31 784.5,140.61 761.42,140.61 	"/>
	<circle class="st4" cx="772.97" cy="149.96" r="3.12"/>
	<rect x="810.03" y="38.47" class="st4" width="149.76" height="95.8"/>
	<rect x="810.03" y="38.47" class="st6" width="149.76" height="95.8"/>
	<path class="st4" d="M999.49,73.57c-7.46,0-14.36,6.38-21.34,6.38h-18.35v12.82h18.35c6.98,0,13.88,6.42,21.34,6.42
		c8.83,0,15.42-4.94,15.42-12.82S1008.32,73.57,999.49,73.57z M1001.51,91.18c-2.66,0.01-4.83-2.14-4.84-4.8
		c-0.01-2.66,2.14-4.83,4.8-4.84c2.66-0.01,4.83,2.14,4.84,4.8c0,0.01,0,0.03,0,0.04c-0.02,2.63-2.13,4.76-4.76,4.8H1001.51z"/>
	<g class="st7">
		<path d="M999.49,73.57c-7.46,0-14.36,6.38-21.34,6.38h-18.35v12.82h18.35c6.98,0,13.88,6.42,21.34,6.42
			c8.83,0,15.42-4.94,15.42-12.82S1008.32,73.57,999.49,73.57z M1001.51,91.18c-2.66,0.01-4.83-2.14-4.84-4.8
			c-0.01-2.66,2.14-4.83,4.8-4.84c2.66-0.01,4.83,2.14,4.84,4.8c0,0.01,0,0.03,0,0.04c-0.02,2.63-2.13,4.76-4.76,4.8H1001.51z"/>
	</g>
	<path class="st3" d="M850.42,87.76c0,0-19.72,36.88-23.56,41.89c-3.84,5.01-13.15,4.61-18.91,4.61h-47.12
		c-5.78,0-15.08,0.42-18.91-4.61c-3.84-5.03-23.56-41.89-23.56-41.89H850.42z"/>
</g>
<g id="freepik--Character--inject-7">
	<path class="st2" d="M480.1,287.42c-13.5-12.96-58.88-12.03-78.33,9.64c-26.82,29.79,8.46,88.49,51.09,73.84
		S490.45,297.41,480.1,287.42z"/>
	<path class="st2" d="M404.58,355.15c-7.58-10.97-13.25-23.39-14.59-36.01c-1.7-12.51,4.62-24.74,15.81-30.58
		c5.56-3.15,11.51-5.54,17.7-7.11c6.18-1.77,12.54-2.83,18.95-3.16c13.16-0.76,26.24,2.42,37.58,9.14
		c-9.91-9.18-23.81-13.98-37.6-14.23c-6.93-0.15-13.85,0.63-20.57,2.29c-6.81,1.58-13.36,4.11-19.45,7.52
		c-6.38,3.61-11.54,9.03-14.85,15.58c-3.05,6.63-3.97,14.04-2.62,21.21C387.46,333.71,395.11,345.72,404.58,355.15z"/>
	<path class="st8" d="M532.86,375.51c32.64,39.2,59.65,89.17,74.13,101.28c7.56,6.32,117.6,16.06,130.08,18.53
		c19.03,3.74-7.89,101.22-20.71,97.61c-8.37-2.33-134.8-19.82-158.09-46.16c-17.89-20.26-46.16-107.6-53.67-145.97
		C496.27,358.14,519.85,359.88,532.86,375.51z"/>
	<path class="st8" d="M763.5,597.57c-21.82-0.24-43.53-3.16-64.64-8.7c-11.57-3.3-5.78-94.12,6.09-97.52
		c36.63-10.55,86.97-3.03,103.78,10.41C825.55,515.21,785.35,597.55,763.5,597.57z"/>
	<path class="st4" d="M1034.73,440.89c-20.51,12.2-46.04,17.6-68.83,24.04c-12.49,3.51-25.04,6.8-37.65,9.87
		c-5.78,1.43-11.57,2.76-17.35,4.07c-3.51,0.81-8.98,3.07-12.69,2.04c-0.86-0.2-1.51-0.92-1.62-1.79c-0.02-0.24-0.02-0.49,0-0.73
		c-0.13-2.14,59.77-19.68,77.12-41.64c8.77-11.16,16.46-29.54,8.02-42.99c-5.05-8.02-15.27-9.27-23.73-6.9
		c-8.83,2.49-18.16,12.61-9.83,16.7c0.81-1.47,3.53-0.85,2.97,0.98c-1.7,4.36-11.07,6.98-16,1.21c-7.92-9.2-2.26-23.91,4.07-31.04
		c17.68-20.05,60.65-19.74,75,6.79c8.37-6.25,19.43-3.57,23.52,6.03c7.87-7.23,19.28,1,21.21,11.05
		C1062.47,416.31,1049,432.44,1034.73,440.89z"/>
	<path class="st4" d="M929.04,375.26c-1.93-2.27-19.43,1.81-15.25,10.04C917.97,393.54,931.95,378.56,929.04,375.26z"/>
	<path class="st4" d="M919.3,397.08c-2.33-0.83-10.22,9.39-4.88,12.4S921.25,397.78,919.3,397.08z"/>
	<path class="st4" d="M1016.36,374.87c2.26-1,0.93-13.86-5.01-12.36C1005.4,364.02,1014.45,375.67,1016.36,374.87z"/>
	<path class="st4" d="M913.69,392.23c-0.91-1.2-5.48,0.31-3.74,2.91C911.69,397.74,914.79,393.69,913.69,392.23z"/>
	<path class="st4" d="M1014.16,357.83c1.45-0.37,1.93-5.15-1.21-4.57C1009.8,353.84,1012.48,358.26,1014.16,357.83z"/>
	<polygon class="st9" points="857.55,499.27 689.45,554.48 683.34,533.02 853.19,483.9 	"/>
	<path class="st3" d="M1052.85,427.08c0,0,4.43,45.13-11.3,49.63l-84.02,23.91l-84.02,23.91c-15.73,4.47-35.72-36.23-35.72-36.23
		L1052.85,427.08z"/>
	<path class="st8" d="M714.96,489.14c0,0,89.94-36.42,88.01,2.45c-0.58,11.57-16.73,58.3-26.18,55.24
		c-12.2-3.95-9.1-24.72-5.09-37.46c0,0-26.26,15.94-42.82,0.96C722.55,504.53,717.77,497.25,714.96,489.14z"/>
	<path class="st2" d="M802.97,488.35c0.31,4.56-0.05,9.14-1.06,13.59c-0.91,4.48-2.1,8.89-3.59,13.21
		c-2.86,8.7-6.47,17.14-10.8,25.22c-1.16,2.12-2.62,4.07-4.32,5.78c-1,1.01-2.22,1.77-3.57,2.24c-0.72,0.27-1.48,0.42-2.26,0.42
		c-0.76,0-1.52-0.12-2.24-0.37c-2.59-0.89-4.79-2.67-6.19-5.03c-1.23-2.19-2.08-4.57-2.51-7.04c-0.7-4.69-0.6-9.47,0.31-14.13
		c0.79-4.58,1.93-9.09,3.39-13.5l2.35,1.81c-3.07,1.71-6.3,3.12-9.64,4.22c-3.3,1.12-6.7,1.9-10.16,2.33
		c-3.46,0.39-6.95,0.28-10.37-0.33c-3.42-0.61-6.69-1.86-9.64-3.7c3.05,1.39,6.3,2.27,9.64,2.6c3.32,0.27,6.66,0.08,9.93-0.56
		c3.3-0.59,6.53-1.52,9.64-2.78c3.06-1.21,6.01-2.71,8.79-4.47l3.41-2.2l-1.06,4.01c-1.24,4.26-2.18,8.6-2.83,12.99
		c-0.75,4.27-0.79,8.63-0.13,12.92c0.71,4.01,2.74,8.1,6.07,9.14c2.85,1.18,5.92-2.74,8.1-6.38c2.26-3.84,4.32-7.8,6.17-11.86
		c1.93-4.07,3.86-8.16,5.48-12.34C799.11,505.98,802.45,497.42,802.97,488.35z"/>
	<path class="st8" d="M778.72,486.37c-9.54,5.78,2.74,13.73,2.74,13.73s-20.44-7.17-27.97,2.6c-7.25,9.45,7.94,18.53,9.02,19.18
		c-1.1-0.37-20.05-6.46-26.61,4.15c-6.82,11.03,9.99,17.51,11.09,17.93c-1.14,0-16.14-0.14-19.28,9.06
		c-5.42,15.79,32.93,17.12,41.74,27.4c0,0-7.15,16.64-7.5,17.22c0,0,27.92,2.27,41.08-10.35c4.05-3.71,4.93-9.75,2.12-14.46
		c0,0,11.68,1.93,17.1-6.25c2.78-4.2-1.48-12.4-1.48-12.4s9.43,1.18,13.8-6.4c3.51-6.05-1.31-13.32-1.31-13.32
		s9.64-3.07,11.14-10.41C847.6,509.25,799.11,473.99,778.72,486.37z"/>
	<path class="st2" d="M832.64,533.18c0.06,0.06,0.16,0.07,0.22,0.01c0.06-0.06,0.07-0.16,0.01-0.22
		c-13.09-15.42-32.22-28.48-52.05-33.37c-0.66-0.15-1.2,0.83-0.5,1.14C799.79,509.68,816.33,519.16,832.64,533.18z"/>
	<path class="st2" d="M821.05,554.17c0.19,0.15,0.44-0.13,0.27-0.33c-13.5-15.89-35.53-29.92-59.03-32.87
		c-0.79-0.1-1.62,0.62-0.69,0.79C777.06,524.99,806.44,541.57,821.05,554.17z"/>
	<path class="st2" d="M745.27,544.32c22.42,3.68,41.39,14.19,59.34,27.8c0.23,0.17,0.46-0.17,0.31-0.39
		c-6.98-9.04-19.28-16.5-29.4-21.52c-9.28-4.83-19.66-7.13-30.11-6.69C744.98,543.55,744.78,544.23,745.27,544.32z"/>
	<path class="st2" d="M781.45,500.19c-4.05-1.01-8.18-1.66-12.34-1.93c-4.03-0.42-8.1,0.25-11.78,1.93
		c-1.65,0.85-2.92,2.29-3.57,4.03c-0.63,1.77-0.81,3.68-0.5,5.53c0.94,3.67,3.39,6.76,6.75,8.52l7.92,4.61l-9.04-1.56
		c-4.01-0.73-8.11-0.81-12.15-0.21c-3.8,0.36-7.26,2.31-9.54,5.36c-2.11,2.93-1.9,6.94,0.5,9.64c2.69,2.87,6.07,5.01,9.81,6.21
		l10.2,3.66l-10.8-0.12c-3.01-0.04-6.01,0.3-8.93,1.02c-2.79,0.58-5.35,1.97-7.36,3.99c-1.76,1.94-2.26,4.71-1.31,7.15
		c1.47,2.47,3.61,4.48,6.17,5.78c5.51,3.03,11.25,5.61,17.18,7.71c2.95,1.18,5.92,2.35,8.81,3.66c3,1.15,5.73,2.93,7.98,5.22
		c-2.45-2-5.28-3.49-8.31-4.4c-2.97-1.08-6-2.02-9.02-2.97c-6.19-1.74-12.2-4.07-17.95-6.94c-3.15-1.5-5.79-3.88-7.6-6.86
		c-1.64-3.53-1.03-7.7,1.54-10.62c2.42-2.58,5.55-4.39,9-5.19c3.24-0.85,6.58-1.29,9.93-1.29l-0.6,3.55
		c-4.42-1.36-8.41-3.86-11.57-7.23c-1.71-1.93-2.71-4.38-2.81-6.96c0-2.53,0.75-5,2.16-7.09c2.87-3.89,7.27-6.37,12.09-6.81
		c4.45-0.59,8.96-0.44,13.36,0.44l-1.12,3.03c-4.07-2.34-6.89-6.37-7.71-10.99c-0.28-2.31,0.04-4.65,0.94-6.79
		c0.94-2.18,2.64-3.95,4.78-4.97c4.07-1.6,8.5-2.03,12.8-1.23C773.51,497.66,777.56,498.7,781.45,500.19z"/>
	<path class="st4" d="M695.51,483.21l-15.73,106.21c0,0-112.96-19.28-131.41-40.49s-37.23-105.5-46.27-147.97
		c-9.04-42.47,14.54-55.78,40.6-20.47s55.74,89.09,62.64,92.25C612.24,475.9,695.51,483.21,695.51,483.21z"/>
	<path class="st10" d="M650.12,583.71c-34.82-7.27-89.42-20.57-101.76-34.7c-18.47-21.21-37.21-105.5-46.27-147.95
		c-4.59-21.65-0.71-35.72,7.71-39.62C529.37,391.73,609.42,515.75,650.12,583.71z"/>
	<path class="st4" d="M708.75,482.22c-0.27-0.58-32.33-6.15-32.33-6.15s-28.92,51.11-28.92,57.24c0,6.13-0.64,52.69-0.15,53.27
		s39,10.68,39.79,9.64c0.79-1.04,3.39-51.24,3.53-55.08C690.8,537.3,708.75,482.22,708.75,482.22z"/>
	<path class="st6" d="M708.75,482.22c-0.27-0.58-32.33-6.15-32.33-6.15s-28.92,51.11-28.92,57.24c0,6.13-0.64,52.69-0.15,53.27
		s39,10.68,39.79,9.64c0.79-1.04,3.39-51.24,3.53-55.08C690.8,537.3,708.75,482.22,708.75,482.22z"/>
	<path class="st4" d="M588.29,681.61l-23.14-126.45c0,0,23.14-21.21,20.74-59.07c-1.27-20.4-38.25-93.41-58.07-118.97
		c-18.6-23.96-58.8-22.67-83.6,7.4c-80.07,97.13-104.8,226.03-115.1,297.1H588.29z"/>
	<path class="st2" d="M470.53,382.47c6.51,7.57,14.35,13.88,23.14,18.62c8.66,4.84,18.3,7.66,28.21,8.25
		c4.93,0.21,9.86-0.14,14.71-1.04l3.61-0.79h0.39c0.17,0.01,0.34,0.06,0.48,0.15c0.09,0.06,0.18,0.13,0.25,0.21l0.12,0.15
		c0.11,0.15,0.21,0.3,0.31,0.46l0.48,0.85c0.31,0.58,0.58,1.14,0.85,1.72c1.06,2.29,2.02,4.61,2.95,6.92
		c3.65,9.32,6.8,18.82,9.43,28.48c2.68,9.64,4.79,19.43,6.32,29.32c1.55,9.91,2.19,19.94,1.93,29.96
		c-0.15,10.09-1.96,20.09-5.34,29.59c-3.41,9.58-9.52,17.98-17.58,24.18l0.35-0.77l6.9,61.27l6.63,61.31l-7.71-61.17l-7.46-61.21
		v-0.48l0.39-0.29c7.82-6.03,13.72-14.19,17-23.5c3.29-9.33,5.03-19.13,5.15-29.02c0.44-19.82-3.01-39.6-8.16-58.76
		c-2.59-9.59-5.69-19.04-9.29-28.3c-0.91-2.31-1.93-4.61-2.89-6.84c-0.27-0.56-0.52-1.12-0.81-1.66c-0.13-0.25-0.27-0.52-0.42-0.77
		s-0.15-0.23-0.19-0.31l0,0l0,0c0.12,0.07,0.25,0.11,0.39,0.12l0,0l-3.7,0.79c-4.97,0.88-10.04,1.16-15.08,0.85
		c-10.11-0.73-19.92-3.77-28.67-8.89C484.51,396.85,476.83,390.27,470.53,382.47z"/>
	<path class="st2" d="M494.5,460.32c0,3.19-2.59,5.78-5.78,5.78c-3.19,0-5.78-2.59-5.78-5.78c0-3.19,2.59-5.78,5.78-5.78
		C491.91,454.54,494.5,457.13,494.5,460.32z"/>
	<path class="st2" d="M549.04,463.33c0,3.19-2.59,5.78-5.78,5.78c-3.19,0-5.78-2.59-5.78-5.78c0-3.19,2.59-5.78,5.78-5.78
		C546.45,457.55,549.04,460.14,549.04,463.33z"/>
	<path class="st2" d="M486.79,503.55c0,3.19-2.59,5.78-5.78,5.78c-3.19,0-5.78-2.59-5.78-5.78c0-3.19,2.59-5.78,5.78-5.78
		C484.2,497.76,486.79,500.35,486.79,503.55z"/>
	<path class="st2" d="M468.64,555.16c0,3.19-2.59,5.78-5.78,5.78c-3.19,0-5.78-2.59-5.78-5.78s2.59-5.78,5.78-5.78
		C466.05,549.37,468.64,551.96,468.64,555.16z"/>
	<path class="st2" d="M466.79,605.98c0,3.19-2.59,5.78-5.78,5.78c-3.19,0-5.78-2.59-5.78-5.78s2.59-5.78,5.78-5.78
		C464.2,600.19,466.79,602.78,466.79,605.98z"/>
	<path class="st2" d="M545.67,507.9c0,3.19-2.59,5.78-5.78,5.78s-5.78-2.59-5.78-5.78c0-3.19,2.59-5.78,5.78-5.78
		S545.67,504.71,545.67,507.9z"/>
	<path class="st2" d="M527.16,604.9c0,3.19-2.59,5.78-5.78,5.78s-5.78-2.59-5.78-5.78s2.59-5.78,5.78-5.78
		S527.16,601.7,527.16,604.9z"/>
	<circle class="st2" cx="464.15" cy="656.43" r="5.73"/>
	<path class="st2" d="M530.24,655.35c0,3.19-2.59,5.78-5.78,5.78s-5.78-2.59-5.78-5.78c0-3.19,2.59-5.78,5.78-5.78
		S530.24,652.16,530.24,655.35z"/>
	<path class="st2" d="M528.51,557.1c0,3.19-2.59,5.78-5.78,5.78s-5.78-2.59-5.78-5.78s2.59-5.78,5.78-5.78
		S528.51,553.91,528.51,557.1z"/>
	<path class="st8" d="M531.67,360.07c0,0,7.71,35.09,1.29,36.75c-19.51,5.15-46.08-18.45-48.01-22.56
		c-0.48-1.06-3.45-28.78-5.78-50.36c-1.47-13.86-2.6-25.18-2.6-25.18L532,319.31l-0.37,38.04L531.67,360.07z"/>
	<path class="st2" d="M532.07,319.31l-0.37,38.04c-21.44-3.19-40.52-15.35-52.46-33.45c-1.47-13.86-2.6-25.18-2.6-25.18l6.94,2.31
		L532.07,319.31z"/>
	<path class="st8" d="M577.28,262.69c7.71,66.34-31.16,78.43-45.46,80.07c-12.99,1.5-57.4,4.94-71.91-60.25
		c-14.52-65.18,13.9-89.75,43.44-94.72S569.69,196.35,577.28,262.69z"/>
	<path class="st2" d="M565.29,257.54c-1.53-0.17-3.05-0.42-4.55-0.75c-1.64-0.04-3.21-0.62-4.49-1.64
		c-0.69-0.83-0.75-2.02-0.14-2.91c1.49-1.55,3.7-2.18,5.78-1.64c2.14,0.22,4.11,1.22,5.55,2.81c0.89,1.08,0.74,2.67-0.34,3.56
		C566.6,257.39,565.95,257.6,565.29,257.54z"/>
	<path class="st2" d="M519.77,260.47c1.49-0.38,2.96-0.83,4.4-1.37c1.62-0.27,3.11-1.06,4.24-2.26c0.57-0.92,0.45-2.1-0.29-2.89
		c-1.67-1.32-3.93-1.63-5.9-0.83c-2.09,0.51-3.92,1.77-5.13,3.55c-0.72,1.21-0.32,2.77,0.89,3.49
		C518.52,260.48,519.16,260.59,519.77,260.47z"/>
	<path class="st2" d="M530.59,272.94c0-0.17-0.35,0.23-0.33,0.42c0.46,4.51,0.21,9.77-3.86,11.57c-0.13,0-0.1,0.29,0,0.25
		C531.5,284.15,531.75,277.15,530.59,272.94z"/>
	<path class="st2" d="M526.21,268.47c-7.35,0-6.9,14.63-0.12,14.67C532.88,283.18,532.34,268.53,526.21,268.47z"/>
	<path class="st2" d="M523.42,269.34c-1.25,0.87-2.47,2.37-3.99,2.56c-1.52,0.19-3.18-1.25-4.4-2.7c-0.14-0.15-0.25,0-0.25,0.17
		c0,2.81,1.21,5.67,4.24,6c3.03,0.33,4.65-2.26,5.26-5.09C524.32,269.74,523.86,268.99,523.42,269.34z"/>
	<path class="st2" d="M555.85,271.04c0-0.17,0.37,0.21,0.37,0.4c0,4.55,0.66,9.76,4.8,11.18c0.13,0,0.13,0.27,0,0.25
		C555.96,282.33,555.07,275.33,555.85,271.04z"/>
	<path class="st2" d="M559.8,266.2c7.31-0.71,8.19,13.94,1.43,14.59S553.69,266.79,559.8,266.2z"/>
	<path class="st2" d="M562.92,266.91c1.2,0.69,2.43,2.04,3.86,2.04s2.7-1.66,3.62-3.24c0.1-0.15,0.23,0,0.23,0.15
		c0.25,2.8-0.48,5.78-3.14,6.48s-4.38-1.66-5.22-4.42C562.07,267.51,562.42,266.7,562.92,266.91z"/>
	<path class="st2" d="M530.7,308.77c1.08,1.08,2.14,2.56,3.86,2.72c1.69-0.01,3.36-0.37,4.9-1.06c0.08-0.04,0.17-0.01,0.21,0.07
		c0.03,0.05,0.02,0.12-0.02,0.17c-1.34,1.79-3.57,2.71-5.78,2.37c-1.89-0.51-3.28-2.12-3.51-4.07
		C530.2,308.69,530.55,308.61,530.7,308.77z"/>
	<path class="st2" d="M549.02,291.55c0,0,1.21,6.75,1.35,9.95c0,0.29-0.75,0.46-1.83,0.58c0,0,0,0-0.13,0
		c-5.55,1.25-11.34-0.71-15-5.07c-0.1-0.15-0.06-0.35,0.09-0.46c0.11-0.07,0.25-0.08,0.36-0.01c4.2,2.62,9.14,3.81,14.07,3.39
		c0.17-0.89-2.49-11.47-1.93-11.57c2.5,0.12,4.97,0.58,7.35,1.35c-2.14-14.13-6.52-27.8-8.43-41.89c-0.01-0.24,0.19-0.45,0.43-0.46
		c0.16,0,0.32,0.08,0.4,0.22c5.59,14,8.41,30.19,10.99,44.73C557.02,294.17,550.41,291.97,549.02,291.55z"/>
	<path class="st2" d="M546.86,300.67c-1.49,2.5-3.6,4.58-6.13,6.03c-1.4,0.74-3,1.03-4.57,0.83c-3.45-0.48-3.86-3.53-3.59-6.21
		c0.17-1.43,0.5-2.83,1-4.18C537.52,299.7,542.17,300.94,546.86,300.67z"/>
	<path class="st11" d="M540.77,306.7c-1.4,0.74-3,1.03-4.57,0.83c-3.45-0.48-3.86-3.53-3.59-6.21
		C536.18,301.27,540.02,303.25,540.77,306.7z"/>
	<path class="st2" d="M459.14,283.12c11.24,0.87,13.8-22.67,13.8-22.67s22.81,0,30.35-32.78c0,0-0.5,15.27-10.1,27.13
		c0,0,40.22-4.26,57.16-37.92c0,0-6.77,17.14-13.09,23.25c0,0,16.87-4.72,25.06-18.41c0,0,7.06,19.43,12.47,24.79
		c0,0-1.66-70.37-66.86-62.89c0,0-40.83,2.7-55.49,35.03C437.8,250.98,459.14,283.12,459.14,283.12z"/>
	<path class="st8" d="M471.05,286.36c0,0-15.17-20.4-24.48-14.94s2.53,35.36,13.75,39.18c5.76,2.4,12.37-0.33,14.77-6.09
		c0.06-0.14,0.12-0.29,0.17-0.43L471.05,286.36z"/>
	<path class="st2" d="M450.15,279.9c-0.09,0-0.15,0.07-0.15,0.15s0.07,0.15,0.15,0.15c7.89,2.91,12.18,10.03,15.27,17.35
		c-2.39-2.8-5.59-4.3-9.37-1.43c-0.19,0.15,0,0.46,0.23,0.4c2.78-0.97,5.87-0.08,7.71,2.22c1.5,1.88,2.79,3.92,3.86,6.07
		c0.39,0.67,1.62,0.27,1.33-0.52v-0.17C468.97,294.27,460.85,280.6,450.15,279.9z"/>
	<path class="st12" d="M466.48,307.4c0.02,1.28-1,2.33-2.27,2.35c-0.01,0-0.03,0-0.04,0c-1.29,0-2.33-1.04-2.34-2.33
		c0-1.29,1.04-2.33,2.33-2.34c0,0,0,0,0.01,0C465.45,305.08,466.48,306.12,466.48,307.4z"/>
	<path class="st12" d="M459.93,303.43c0.01,0.82-0.65,1.49-1.47,1.5c-0.82,0.01-1.49-0.65-1.5-1.47s0.65-1.49,1.47-1.5
		c0.01,0,0.03,0,0.04,0C459.27,301.96,459.93,302.62,459.93,303.43z"/>
	<path class="st4" d="M450.79,257.52c-0.79-0.52-72.88-99.77-79.05-108.93c-2.76-4.07,19.28-67.48,55.78-84.83
		c26.34-12.63,74.21-2.24,83.04,1.66c10.51,4.67,50.69,132.72,50.69,132.72l-62.77,25.91L450.79,257.52z"/>
	<g class="st13">
		<path d="M455.3,238.78c-1.38-1.18-2.56-2.59-3.47-4.16c-1.06-1.54-2.14-3.08-3.26-4.57c-2.28-2.98-4.78-5.78-7.48-8.39
			c-1.98-2.38-4.69-4.03-7.71-4.7c-1.33-0.14-2.68,0.12-3.86,0.75c-0.79,0.35-1.5,0.83-2.12,1.43c-0.42,0.54-0.67,1.41-1.06,1.93
			c-0.12,0.19,0.21,0.37,0.31,0.17c0.28-0.93,0.91-1.73,1.75-2.22c0.68-0.36,1.41-0.63,2.16-0.81c1.61-0.33,3.29-0.05,4.7,0.79
			c2.62,1.73,4.94,3.88,6.84,6.38c2.14,2.41,4.32,4.82,6.48,7.23s3.72,5.15,6.44,6.46C455.26,239.26,455.53,238.94,455.3,238.78z"/>
		<path d="M462.74,237.99c-4.47-6.26-8.97-12.51-13.5-18.74c-4.79-6.12-8.85-12.77-12.13-19.82c0-0.21-0.42,0-0.33,0.1
			c2.7,7.32,6.23,14.3,10.51,20.82c4.55,6.39,9.61,12.4,15.12,17.99c0.1,0.09,0.25,0.09,0.34-0.01
			C462.84,238.23,462.84,238.08,462.74,237.99z"/>
		<path d="M481.43,218.71c-4.01-5.24-8.54-10.08-13.01-14.92c-3.92-4.27-8.38-8.01-13.26-11.12c-0.19-0.12-0.37,0.17-0.19,0.31
			c4.78,3.47,8.33,8.29,12.26,12.65c4.28,4.76,8.6,9.64,13.32,13.94c0.26,0.22,0.65,0.19,0.87-0.07
			C481.6,219.27,481.6,218.94,481.43,218.71z"/>
		<path d="M496.98,158.21c-3.41-1.47-7.37,0.1-8.84,3.51c-0.17,0.39-0.3,0.8-0.39,1.21c-1.18,4.86,0.87,10.39,2.51,14.92
			c1.81,4.92,4.2,9.6,7.13,13.94c3.34,4.89,7.31,9.31,11.82,13.15c0.15,0.15,0.4,0,0.25-0.23c-6.27-6.85-11.26-14.76-14.75-23.37
			c-1.76-4.21-3.13-8.57-4.09-13.03c-0.79-3.72,0-10.26,5.26-9.64c4.99,0.66,7.52,6.42,11.24,9.16c0,0,0.17,0,0-0.13
			C503.44,164.84,501.59,160.12,496.98,158.21z"/>
		<path d="M533.81,154.74c-2.33,7.36-2.14,15.29,0.56,22.52c1.41,4.03,3.23,7.91,5.44,11.57c2.07,3.91,4.53,7.6,7.33,11.03
			c0.07,0.07,0.18,0.07,0.25,0c0.05-0.05,0.06-0.11,0.04-0.18c-1.62-3.86-4.11-7.27-5.78-11.05c-1.77-3.79-3.26-7.7-4.45-11.7
			c-0.98-3.55-1.71-7.18-2.18-10.84c-0.47-3.7-0.55-7.44-0.23-11.16C534.77,154.43,533.98,154.2,533.81,154.74z"/>
		<path d="M524.67,183.43c-2.6-6.11-5.64-12.04-9.08-17.72c-0.16-0.24-0.49-0.29-0.72-0.13c-0.2,0.14-0.28,0.4-0.18,0.63
			c2.87,5.92,5.38,12.01,7.89,18.08c2.51,6.07,4.57,12.26,7.42,18.08c0.1,0.19,0.35,0,0.33-0.13
			C529.26,195.76,527.36,189.43,524.67,183.43z"/>
	</g>
	<path class="st4" d="M560.05,184.01c-4.22-1.48-55.52,0.52-73.4,11.57c-15.87,9.74-43.71,37.11-50.69,48.51
		c-1.16,1.93,11.57,22.09,15.69,23.83c2.45,1.02,34.18-27.11,51.88-38.67c15.1-9.87,53.98-13.5,63.83-14.04
		C568.88,215.05,562.55,184.86,560.05,184.01z"/>
	<path class="st6" d="M560.05,184.01c-4.22-1.48-55.52,0.52-73.4,11.57c-15.87,9.74-43.71,37.11-50.69,48.51
		c-1.16,1.93,11.57,22.09,15.69,23.83c2.45,1.02,34.18-27.11,51.88-38.67c15.1-9.87,53.98-13.5,63.83-14.04
		C568.88,215.05,562.55,184.86,560.05,184.01z"/>
	<path class="st4" d="M520.89,404.74c0,0-2.66-18.24-4.22-19.78c-1.56-1.54-23.54-12.03-33.95-28.55
		c-2.62-4.16-12.92,10.58-12.92,10.58s7.71,21.07,25.55,32.35s39.18,8.95,43.69,5.78c1.47-1-3.57-31.48-4.09-30.11
		c-1.31,3.64-3.42,6.93-6.17,9.64c-0.79,0.81,2.37,18.68,2.37,18.68L520.89,404.74z"/>
	<path class="st8" d="M446.76,378.54c-37.21,30.69-150.07,154.43-143,194.92c5.26,30.06,38.42,39.04,67,26.39
		c24.89-11.01,82.79-143.92,98.63-181.23C484.47,383.03,483.33,348.4,446.76,378.54z"/>
	<path class="st4" d="M446.76,378.54c-37.21,30.69-150.07,154.43-143,194.92c5.26,30.06,38.42,39.04,67,26.39
		c24.89-11.01,82.79-143.92,98.63-181.23C484.47,383.03,483.33,348.4,446.76,378.54z"/>
	<path class="st2" d="M466.23,429.05c0.05-0.11,0-0.24-0.12-0.29c-0.11-0.05-0.24,0-0.29,0.12c-4.07,9.43-8.23,18.82-12.57,28.13
		s-8.5,18.72-12.86,28.03c-8.68,18.56-17.9,36.84-27.69,54.85c-2.74,5.05-5.55,10.04-8.35,15.06s-5.78,10.03-8.48,15.15
		c0,0.15,0.13,0.29,0.23,0.15c3.03-4.16,5.78-8.58,8.48-12.94s5.36-8.68,7.94-13.09c5.17-8.81,10.26-17.7,15.06-26.72
		c4.8-9.02,9.64-18.37,14.05-27.7c3.64-7.56,7.21-15.21,10.47-22.96c0.73-1.04,1.47-2.1,2.18-3.18c1.43-2.18,2.81-4.4,4.2-6.61
		c2.74-4.34,5.15-8.85,7.71-13.25c0.15-0.27-0.31-0.58-0.48-0.29c-2.76,4.32-5.78,8.5-8.35,12.9l-3.3,5.51l0,0
		C458.52,451.05,462.51,440.08,466.23,429.05z"/>
	<path class="st8" d="M312.61,590.69c-24.52-26.51,7.71-54.79,32.89-55.58c59.17-1.83,145.14,14.05,192.54,30.62
		c16.25,5.67,20.2,98.88,1.79,98.33C507.18,663.2,362.38,644.46,312.61,590.69z"/>
	<path class="st8" d="M514.78,559.07c0,0,6.21,0.89,39.77,0.15c23.14-0.5,80.03,13.11,105.11,73.26
		c9.64,23.14-2.37,39.89-16.62,17.7c-10.03-15.64-15.64-27.34-20.34-31.52c0,0-2.89,28.28-17.22,36.42
		c-12.53,7.13-25.55,13.35-38.96,18.62c-1.52-2.24-2.9-4.57-4.13-6.98c-12.15,5.53-26.39,3.6-36.63-4.95L514.78,559.07z"/>
	<path class="st8" d="M576.76,562.29c9.33,7.71,28.92,24.66,40.01,44c12.4,21.5,30.48,66.23,14.52,75.19
		c-11.68,6.59-20.09-9.89-20.09-9.89s3.57,20.07-8.29,23.71c-10.84,3.32-16.56-9.81-16.56-9.81s0,12.53-10.97,13.73
		c-13.26,1.43-11.26-25.06-25.95-35.26C546.13,661.7,576.76,562.29,576.76,562.29z"/>
	<path class="st2" d="M591.88,615.6c7.58,8.77,19.67,33.12,19.59,55.56c0,0.52-0.4,0.79-0.5,0.33
		c-4.14-19.3-10.62-38.03-19.28-55.78C591.61,615.6,591.8,615.5,591.88,615.6z"/>
	<path class="st2" d="M570.56,628.75c5.78,8.23,17.1,33.89,16.23,56.64c0,0.5-0.42,0.75-0.5,0.27c-3.15-19.48-8.5-38.54-15.94-56.82
		C570.29,628.73,570.48,628.63,570.56,628.75z"/>
	<path class="st4" d="M508.4,546.21l-17.85,63.62l-2.68,60.02c0,0-188.94-47.41-184.33-99.77c1.58-17.66,18.43-41.18,57.84-42.53
		S508.4,546.21,508.4,546.21z"/>
	<path class="st2" d="M508.92,547.74c-4.09-1.16-8.1-2.49-12.22-3.55s-8.04-2.04-12.09-2.97c-8.14-1.93-16.41-3.39-24.64-4.76
		c-16.29-2.72-32.72-4.62-49.2-5.69c-6.03-1.93-12.28-3.3-18.41-4.95c-0.17,0-0.21,0.23,0,0.29c5.01,1.43,9.99,3.1,15.02,4.47
		c-3.86-0.23-7.71-0.44-11.45-0.58c-4.63-0.19-9.27,0-13.9,0c-0.15,0-0.17,0.29,0,0.29c4.11,0.21,8.23,0.71,12.32,1.1
		c4.09,0.39,8.41,0.69,12.59,1.1c8.33,0.81,16.64,1.72,24.91,2.8c16.5,2.18,33.01,4.68,49.32,7.96c4.57,0.93,9.16,1.74,13.73,2.66
		c4.57,0.93,9.31,1.72,13.92,2.74C509.3,548.66,509.42,547.87,508.92,547.74z"/>
	<path class="st2" d="M483.1,668.35c-7.89-2.31-15.67-4.92-23.54-7.31c-7.87-2.39-15.83-4.9-23.66-7.58
		c-15.75-5.36-31.25-11.36-46.83-17.2c-9.02-3.39-18.16-6.44-27.18-9.81c-0.23-0.1-0.4,0.25-0.15,0.35
		c3.86,1.66,7.89,3.43,11.82,5.17c3.93,1.74,7.71,3.28,11.57,4.95c7.71,3.37,15.65,6.52,23.52,9.64
		c15.48,6.18,31.26,11.56,47.29,16.14c8.95,2.54,17.99,4.45,27.09,6.27C483.39,669.04,483.47,668.44,483.1,668.35z"/>
	<path class="st4" d="M518.08,546.46c-0.31-0.66-34.24-5.44-34.24-5.44s-26.99,59-26.61,65.88c0.39,6.88,2.68,59.46,3.22,60.08
		c0.54,0.62,41.53,10.24,42.3,8.98c0.77-1.25,0.27-57.93,0.17-62.29S518.08,546.46,518.08,546.46z"/>
	<path class="st6" d="M517.88,546.46c-0.31-0.66-34.26-5.32-34.26-5.32s-26.86,59.07-26.39,65.97c0.46,6.9,2.85,59.44,3.39,60.06
		c0.54,0.62,41.57,10.1,42.41,8.85c0.85-1.25,0.1-57.93,0-62.29C502.94,609.37,517.88,546.46,517.88,546.46z"/>
</g>
<g id="freepik--Tools--inject-7">
	<path class="st4" d="M1063.38,638.87v82.38c0,5.78-2.2,10.7-4.88,10.7h-31.7h-31.73c-2.68,0-4.84-4.76-4.84-10.64v-82.44
		c0-5.88,2.16-10.64,4.84-10.64H998v-7.71h28.8l0,0h28.77v7.71h2.93C1061.18,628.23,1063.38,632.99,1063.38,638.87z"/>
	<rect x="995.94" y="607.85" class="st14" width="61.64" height="13.86"/>
	<rect x="990.23" y="656.34" class="st0" width="73.15" height="52.04"/>
	<path class="st5" d="M982.1,717.43c0,10.8-4.05,14.52-6.11,14.52h-18.14h-17.02c-2.06,0-6.13-3.7-6.15-14.52
		c0-12.8,9.16-20.47,9.16-27.49c0-4.55-4.41-18.72-2.53-18.72h34.03c1.93,0-2.47,14.15-2.47,18.72
		C972.88,696.98,982.08,704.55,982.1,717.43z"/>
	<path class="st14" d="M943.91,661.81l28.67-0.04c2.29,0,4.15,1.85,4.15,4.14l0.01,8.43c0,0.16-0.13,0.29-0.29,0.29l-36.38,0.05
		c-0.16,0-0.29-0.13-0.29-0.29l-0.01-8.43C939.77,663.68,941.62,661.82,943.91,661.81z"/>
	<path class="st0" d="M415.26,645.5l-8.23-6.63c6.29-7.83,13.5-17.83,14.63-20.98c-1.23-7.92-8.64-34.09-13.34-37.73h-30.85V569.6
		h31.39c14.98,0,23.27,47.18,23.33,47.66C432.48,619.09,433.02,623.43,415.26,645.5z"/>
	<path class="st0" d="M361.7,715.47c-53.35,0-66.24-34.7-60.98-59s42.51-45.17,42.95-53.12c0.44-7.94,0-43.61-1.93-46.04
		c-1.93-2.43-14.13-7.13-17.35-7.13c-3.22,0-3.32-4.09,0-4.09h61.5c3.32,0,3.32,4.09,0,4.09c-3.32,0-5.4,4.07-5.98,8.37
		c-0.42,3.03-1.02,38.19-0.13,44.81c1.06,7.87,37.65,28.78,42.95,53.12C428.04,680.8,415.03,715.47,361.7,715.47z"/>
	<path class="st4" d="M360.39,707.25c-44.86,0-55.7-29.15-51.28-49.59s42.15-43.32,41.41-49.95c-0.13-1.29-0.23-27.32-0.29-30.04
		h22.34c0,2.83,0.15,28.92,0.31,30.04c0.91,6.61,34.3,29.48,38.77,49.95C416.13,678.14,405.23,707.25,360.39,707.25z"/>
	<path class="st9" d="M566.95,713c-0.16,6.03-2.85,11.72-7.4,15.67c-9.64,9.16-26.45,14.27-44.09,13.38
		c-11.95-0.62-27.4-5.78-42.3-10.87c-14.9-5.09-29.44-9.93-39.25-9.83l-116.1,1.08v-7.11h2.72v4.4l113.38-1.06
		c10.28-0.1,24.77,4.8,40.14,9.99c14.75,4.97,29.98,10.12,41.57,10.72c16.93,0.87,33.05-3.97,42.07-12.63
		c4.02-3.44,6.4-8.4,6.57-13.69L566.95,713z"/>
	<path class="st9" d="M565.83,706.71c0.77,2.01,1.17,4.14,1.2,6.29h-2.72c-0.3-5.25-2.77-10.14-6.82-13.5
		c-9.18-8.46-25.39-13.01-42.3-11.82c-11.57,0.79-26.72,6.23-41.37,11.57c-15.25,5.48-29.65,10.64-39.95,10.72l-113.36,1.06v4.4
		h-2.76v-7.09l116.08-1.08c9.81,0,24.02-5.19,39.06-10.58c15.04-5.4,30.15-10.82,42.09-11.57c17.64-1.23,34.7,3.59,44.34,12.55
		C562.15,700.13,564.38,703.23,565.83,706.71z"/>
	<path class="st9" d="M566.95,713c-0.08,2.98-1.42,5.78-3.68,7.71c-7.9,7.71-27.16,12.55-47.89,11.93
		c-11.88-0.37-27.26-3.7-42.13-6.94c-14.86-3.24-29.48-6.42-39.37-6.32l-116.1,1.08v-5.11h2.72v2.39l113.38-1.06
		c10.2-0.1,24.66,3.05,39.97,6.38c14.75,3.22,30,6.54,41.64,6.88c19.72,0.6,38.56-3.99,45.9-11.16c1.71-1.45,2.75-3.54,2.85-5.78
		H566.95z"/>
	<path class="st9" d="M566.39,710.01c0.37,0.95,0.56,1.97,0.56,2.99v1.35l-249.21,2.33v-6.48l116.1-1.08
		c9.89-0.1,24.14-3.47,39.23-7.04c14.81-3.53,30.13-7.15,42.01-7.71c20.71-1,40.04,3.41,48.1,11.03
		C564.59,706.68,565.68,708.26,566.39,710.01z M564.06,711.67c-0.51-1.67-1.48-3.17-2.8-4.32c-7.44-7.02-26.39-11.24-46.1-10.28
		c-11.57,0.56-26.82,4.16-41.53,7.71c-15.23,3.61-29.61,7.02-39.83,7.11l-113.36,1.06v1.02L564.06,711.67z"/>
	<polygon class="st14" points="312.56,727.03 404.21,726.19 403.98,702.84 311.81,703.71 	"/>
</g>
</svg>
