<?xml version="1.0" encoding="utf-8"?>
<!-- Generator: Adobe Illustrator 23.1.0, SVG Export Plug-In . SVG Version: 6.00 Build 0)  -->
<svg version="1.1" id="Layer_1" xmlns="http://www.w3.org/2000/svg" xmlns:xlink="http://www.w3.org/1999/xlink" x="0px" y="0px"
	 viewBox="0 0 1366 768" style="enable-background:new 0 0 1366 768;" xml:space="preserve">
<style type="text/css">
	.st0{fill:#92E3A9;}
	.st1{opacity:0.8;fill:#FFFFFF;enable-background:new    ;}
	.st2{fill:none;stroke:#263238;stroke-width:1.1433;stroke-linecap:round;stroke-linejoin:round;}
	.st3{fill:#FFFFFF;}
	.st4{clip-path:url(#SVGID_2_);}
	.st5{opacity:0.5;fill:#FFFFFF;enable-background:new    ;}
	.st6{fill:#263238;}
	.st7{fill:#263238;stroke:#263238;stroke-width:1.1433;stroke-linecap:round;stroke-linejoin:round;}
	.st8{fill:none;stroke:#FFFFFF;stroke-width:1.1433;stroke-linecap:round;stroke-linejoin:round;}
	.st9{clip-path:url(#SVGID_4_);}
	.st10{clip-path:url(#SVGID_6_);}
	.st11{clip-path:url(#SVGID_8_);}
	.st12{opacity:0.42;enable-background:new    ;}
	.st13{fill:#FFFFFF;stroke:#263238;stroke-width:1.1433;stroke-linecap:round;stroke-linejoin:round;}
	.st14{clip-path:url(#SVGID_10_);}
	.st15{clip-path:url(#SVGID_12_);}
	.st16{clip-path:url(#SVGID_14_);}
	.st17{clip-path:url(#SVGID_16_);}
	.st18{clip-path:url(#SVGID_18_);}
	.st19{clip-path:url(#SVGID_20_);}
	.st20{clip-path:url(#SVGID_22_);}
	.st21{clip-path:url(#SVGID_24_);}
	.st22{opacity:0.65;enable-background:new    ;}
	.st23{clip-path:url(#SVGID_26_);}
	.st24{clip-path:url(#SVGID_28_);}
	.st25{clip-path:url(#SVGID_30_);}
</style>
<g id="freepik--background-simple--inject-17">
	<path class="st0" d="M995.7,102.04c-44.8-56.1-105.99-89.86-182.47-75.21c-75.58,14.43-127.49,85.08-196.63,115.92
		c-73.58,32.82-156.87,14.72-233.35,34.55c-54.05,14.02-97.33,56.14-117.14,116.07c-38.8,117.2-6.43,256.34,81.29,333.15
		c54.71,47.85,125.57,66.38,192.55,53.11c51.44-10.31,99.53-36.45,150.97-47.64c89.35-19.46,183.19,9.55,271.14-22.57
		c93.08-34.02,123.37-133.51,122.77-233.5C1084.28,284.94,1053.77,174.73,995.7,102.04z"/>
	<path class="st1" d="M995.7,102.04c-44.8-56.1-105.99-89.86-182.47-75.21c-75.58,14.43-127.49,85.08-196.63,115.92
		c-73.58,32.82-156.87,14.72-233.35,34.55c-54.05,14.02-97.33,56.14-117.14,116.07c-38.8,117.2-6.43,256.34,81.29,333.15
		c54.71,47.85,125.57,66.38,192.55,53.11c51.44-10.31,99.53-36.45,150.97-47.64c89.35-19.46,183.19,9.55,271.14-22.57
		c93.08-34.02,123.37-133.51,122.77-233.5C1084.28,284.94,1053.77,174.73,995.7,102.04z"/>
</g>
<g id="freepik--Kitchen--inject-17">
	<rect x="281.79" y="164.57" class="st2" width="443.14" height="114.71"/>
	<polygon class="st2" points="724.91,164.49 281.79,164.49 326.09,90.62 680.6,90.62 	"/>
	<line class="st2" x1="326.09" y1="90.62" x2="326.09" y2="9"/>
	<line class="st2" x1="682.71" y1="90.62" x2="682.71" y2="9"/>
	<path class="st2" d="M1039.32,157.99l2.56-95.33c0.14-4.97,4.21-8.92,9.17-8.93l0,0c4.97,0,9.03,3.96,9.15,8.93l2.56,95.88"/>
	<path class="st2" d="M1041.88,62.66l-0.62,22.8h19.54l-0.62-22.8c-0.24-5.06-4.54-8.97-9.6-8.73c-4.73,0.22-8.51,4-8.73,8.73
		L1041.88,62.66z"/>
	<circle class="st2" cx="1050.71" cy="222.53" r="65.27"/>
	
		<ellipse transform="matrix(0.2277 -0.9737 0.9737 0.2277 594.778 1195.0715)" class="st2" cx="1050.75" cy="222.59" rx="51.13" ry="51.13"/>
	<circle class="st2" cx="1050.97" cy="62.95" r="1.67"/>
	<path class="st2" d="M914.04,145.39l2.23-83.74c0.12-4.36,3.7-7.84,8.06-7.83l0,0c4.37,0.01,7.94,3.49,8.06,7.85l2.25,84.32"/>
	<path class="st2" d="M916.26,61.65l-0.54,20.06h17.19l-0.54-20.04c0-4.45-3.61-8.06-8.06-8.06s-8.06,3.61-8.06,8.06L916.26,61.65z"
		/>
	
		<ellipse transform="matrix(0.7071 -0.7071 0.7071 0.7071 127.6835 712.6147)" class="st2" cx="924.04" cy="202.18" rx="57.37" ry="57.37"/>
	<circle class="st2" cx="924.05" cy="202.23" r="44.96"/>
	<circle class="st2" cx="924.26" cy="61.84" r="1.48"/>
	<path class="st2" d="M804.69,134.88l2.06-74.22c0.1-3.87,3.26-6.95,7.13-6.95l0,0c3.87,0,7.03,3.08,7.13,6.95l2.06,74.67"/>
	<path class="st2" d="M806.67,60.68l-0.47,17.75h15.21l-0.47-17.75c0-3.94-3.19-7.13-7.13-7.13
		C809.86,53.55,806.67,56.74,806.67,60.68L806.67,60.68z"/>
	<circle class="st2" cx="813.53" cy="185.16" r="50.8"/>
	<circle class="st2" cx="813.53" cy="185.16" r="39.81"/>
	<path class="st2" d="M815.04,60.91c0-0.72-0.58-1.3-1.3-1.3s-1.3,0.58-1.3,1.3s0.58,1.3,1.3,1.3S815.04,61.63,815.04,60.91z"/>
	<line class="st2" x1="278.96" y1="612.39" x2="1027.26" y2="612.39"/>
	<line class="st2" x1="278.96" y1="559.96" x2="1027.26" y2="559.96"/>
</g>
<g id="freepik--Character--inject-17">
	<path class="st3" d="M463.68,260.64c0,0-10.78,34.1-11.36,48.86c-0.58,14.76,20.45,34.59,32.31,46.01
		c11.85,11.42,32.99,16.49,62.49,15.34c29.5-1.15,55.11-14.76,55.11-14.76s-0.56,90.32,0,111.33S604.51,710,604.51,710h201.11
		c0,0-5.11-207.93-3.42-232.36c1.69-24.43,12.51-95.43,12.51-95.43s75.56,35.21,92.59,35.21s57.95-45.36,56.26-57.37
		c-1.69-12.02-60.8-46.59-81.25-63.64c-20.45-17.05-28.41-33.5-42.61-40.32c-14.2-6.82-78.34-21.03-92.61-22.68
		s-91.45,2.82-112.48,3.96c-21.03,1.13-56.24,36.94-64.75,43.19c-6.56,4.58-13.4,8.76-20.47,12.49c0,0,3.42-3.98-2.27-5.11
		c-2.8-0.63-5.65-1.01-8.51-1.13c0,0-2.85-32.99-5.11-36.37c-2.27-3.38-35.79-11.36-48.28-10.31
		C472.71,241.18,463.68,260.64,463.68,260.64z"/>
	<g>
		<defs>
			<path id="SVGID_1_" d="M463.68,260.64c0,0-10.78,34.1-11.36,48.86c-0.58,14.76,20.45,34.59,32.31,46.01
				c11.85,11.42,32.99,16.49,62.49,15.34c29.5-1.15,55.11-14.76,55.11-14.76s-0.56,90.32,0,111.33S604.51,710,604.51,710h201.11
				c0,0-5.11-207.93-3.42-232.36c1.69-24.43,12.51-95.43,12.51-95.43s75.56,35.21,92.59,35.21s57.95-45.36,56.26-57.37
				c-1.69-12.02-60.8-46.59-81.25-63.64c-20.45-17.05-28.41-33.5-42.61-40.32c-14.2-6.82-78.34-21.03-92.61-22.68
				s-91.45,2.82-112.48,3.96c-21.03,1.13-56.24,36.94-64.75,43.19c-6.56,4.58-13.4,8.76-20.47,12.49c0,0,3.42-3.98-2.27-5.11
				c-2.8-0.63-5.65-1.01-8.51-1.13c0,0-2.85-32.99-5.11-36.37c-2.27-3.38-35.79-11.36-48.28-10.31
				C472.71,241.18,463.68,260.64,463.68,260.64z"/>
		</defs>
		<clipPath id="SVGID_2_">
			<use xlink:href="#SVGID_1_"  style="overflow:visible;"/>
		</clipPath>
		<g class="st4">
			<path class="st0" d="M959.21,372.07c3.07-5.07,4.8-9.36,4.43-12c-1.71-11.94-60.8-46.59-81.25-63.64
				c-20.45-17.05-28.41-33.5-42.61-40.32c-14.2-6.82-78.34-21.03-92.61-22.68c-7.55-0.48-15.12-0.56-22.68-0.23
				c16.8,17.32-29.27,48.51-19.4,49.33c9.88,0.82,54.2-5.92,79.6-16.93c0,0,30.49-0.87,55.91,14.43
				C862.23,292.9,917.99,338.81,959.21,372.07z"/>
			<path class="st0" d="M859.28,401.82c0,0-22.86-22.86-25.4-28.86s14.43-71.12,5.07-55.04c-5.49,9.38-8.91,19.83-10.04,30.64
				c0,0-11.03-42.35-11.87-32.18c-0.85,10.16-0.85,35.58-0.85,35.58s-39.79-45.75-32.99-25.42s14.43,44.04,14.43,44.04
				l-54.36,385.33l22.86-7.63l50.8-361.6L859.28,401.82z"/>
			<path class="st0" d="M602.69,375.65c0,0,0.85-90.71-1.71-86.38c-2.56,4.33-5.07,23.71-5.07,23.71s-12.7-29.65-14.43-19.48
				s2.54,32.18,2.54,32.18s-15.26,5.94-56.74,12.7s-32.99,0-8.47-11.85s43.29-38.94,43.29-51.66c0-12.72-8.47-48.41-34.72-53.42
				c-26.24-5.01-81.31,46.65-85.54,56.82c-4.23,10.16,32.12-4.27,32.12-4.27s5.07,23.73,6.76,31.34c1.69,7.61-9.3,20.33-10.16,23.71
				s20.33-4.23,18.55-1.69c-1.77,2.54-22.02,18.55-17.77,26.26s39.03,21.19,70.36,25.52C562.09,381.46,582.71,380.28,602.69,375.65z
				"/>
			<path class="st5" d="M602.69,375.65c0,0,0.85-90.71-1.71-86.38c-2.56,4.33-5.07,23.71-5.07,23.71s-12.7-29.65-14.43-19.48
				s2.54,32.18,2.54,32.18s-15.26,5.94-56.74,12.7s-32.99,0-8.47-11.85s43.29-38.94,43.29-51.66c0-12.72-8.47-48.41-34.72-53.42
				c-26.24-5.01-81.31,46.65-85.54,56.82c-4.23,10.16,32.12-4.27,32.12-4.27s5.07,23.73,6.76,31.34c1.69,7.61-9.3,20.33-10.16,23.71
				s20.33-4.23,18.55-1.69c-1.77,2.54-22.02,18.55-17.77,26.26s39.03,21.19,70.36,25.52C562.09,381.46,582.71,380.28,602.69,375.65z
				"/>
			<path class="st5" d="M859.28,401.82c0,0-22.86-22.86-25.4-28.86s14.43-71.12,5.07-55.04c-5.49,9.38-8.91,19.83-10.04,30.64
				c0,0-11.03-42.35-11.87-32.18c-0.85,10.16-0.85,35.58-0.85,35.58s-39.79-45.75-32.99-25.42s14.43,44.04,14.43,44.04
				l-54.36,385.33l22.86-7.63l50.8-361.6L859.28,401.82z"/>
			<path class="st6" d="M604.57,710.02H805.7c0,0-1.59-64.12-2.7-125.3L603.44,571.4C604.01,637.44,604.57,710.02,604.57,710.02z"/>
			<path class="st5" d="M959.21,372.07c3.07-5.07,4.8-9.36,4.43-12c-1.71-11.94-60.8-46.59-81.25-63.64
				c-20.45-17.05-28.41-33.5-42.61-40.32c-14.2-6.82-78.34-21.03-92.61-22.68c-7.55-0.48-15.12-0.56-22.68-0.23
				c16.8,17.32-29.27,48.51-19.4,49.33c9.88,0.82,54.2-5.92,79.6-16.93c0,0,30.49-0.87,55.91,14.43
				C862.23,292.9,917.99,338.81,959.21,372.07z"/>
		</g>
	</g>
	<path class="st2" d="M463.68,260.64c0,0-10.78,34.1-11.36,48.86c-0.58,14.76,20.45,34.59,32.31,46.01
		c11.85,11.42,32.99,16.49,62.49,15.34c29.5-1.15,55.11-14.76,55.11-14.76s-0.56,90.32,0,111.33S604.51,710,604.51,710h201.11
		c0,0-5.11-207.93-3.42-232.36c1.69-24.43,12.51-95.43,12.51-95.43s75.56,35.21,92.59,35.21s57.95-45.36,56.26-57.37
		c-1.69-12.02-60.8-46.59-81.25-63.64c-20.45-17.05-28.41-33.5-42.61-40.32c-14.2-6.82-78.34-21.03-92.61-22.68
		s-91.45,2.82-112.48,3.96c-21.03,1.13-56.24,36.94-64.75,43.19c-6.56,4.58-13.4,8.76-20.47,12.49c0,0,3.42-3.98-2.27-5.11
		c-2.8-0.63-5.65-1.01-8.51-1.13c0,0-2.85-32.99-5.11-36.37c-2.27-3.38-35.79-11.36-48.28-10.31
		C472.71,241.18,463.68,260.64,463.68,260.64z"/>
	<polyline class="st2" points="603.44,303.25 602.3,356.09 587.54,298.14 	"/>
	<path class="st2" d="M538.68,286.78c0,0-22.16,28.97-37.56,31.81"/>
	<path class="st2" d="M549.46,293.03c0,0-7.38,14.78-15.34,16.49"/>
	<polyline class="st2" points="824.44,346.42 814.79,382.23 809.1,345.86 	"/>
	<polyline class="st2" points="695.49,279.96 675.59,296.43 658.54,707.18 	"/>
	<path class="st6" d="M684.6,328.53c0,2.04-1.65,3.69-3.69,3.69c-2.04,0-3.69-1.65-3.69-3.69s1.65-3.69,3.69-3.69l0,0
		C682.94,324.85,684.59,326.49,684.6,328.53z"/>
	<path class="st6" d="M725.59,328.53c0,2.04-1.65,3.69-3.69,3.69c-2.04,0-3.69-1.65-3.69-3.69c0-2.04,1.65-3.69,3.69-3.69
		C723.93,324.85,725.57,326.49,725.59,328.53z"/>
	<path class="st6" d="M683.26,399.75c0,2.04-1.65,3.69-3.69,3.69c-2.04,0-3.69-1.65-3.69-3.69c0-2.04,1.65-3.69,3.69-3.69
		C681.61,396.06,683.26,397.72,683.26,399.75L683.26,399.75z"/>
	<path class="st6" d="M724.16,399.75c0,2.04-1.65,3.69-3.69,3.69c-2.04,0-3.69-1.65-3.69-3.69c0-2.04,1.65-3.69,3.69-3.69
		S724.16,397.72,724.16,399.75C724.16,399.75,724.16,399.75,724.16,399.75z"/>
	<path class="st6" d="M681.84,480.51c0,2.04-1.65,3.69-3.69,3.69c-2.04,0-3.69-1.65-3.69-3.69c0-2.04,1.65-3.69,3.69-3.69
		S681.84,478.47,681.84,480.51L681.84,480.51z"/>
	<path class="st6" d="M722.74,480.51c0,2.04-1.65,3.69-3.69,3.69c-2.04,0-3.69-1.65-3.69-3.69c0-2.04,1.65-3.69,3.69-3.69
		C721.09,476.82,722.74,478.47,722.74,480.51C722.74,480.51,722.74,480.51,722.74,480.51z"/>
	<path class="st7" d="M506.87,198.73c0,0-14.78,0-19.89,1.69c-5.11,1.69-23.85,36.37-28.86,48.86c-3.1,8.14-4.27,16.89-3.42,25.56
		l27.27-13.07l7.96,36.37c0,0,43.17-34.08,48.86-45.36c5.69-11.28-7.38-43.19-7.38-43.19L506.87,198.73z"/>
	<path class="st7" d="M696.62,221.45c0,0-27.27,7.38-30.12,21.03s20.45,35.21,25.01,39.17c4.56,3.96,46.57-4.56,65.33-9.09
		s43.75-16.49,43.17-26.14s-11.94-13.63-15.34-21.58s-5.69-12.49-15.92-13.63c-10.19-1-20.45-1.19-30.68-0.58
		C734.08,211.22,696.62,221.45,696.62,221.45z"/>
	<path class="st7" d="M695.49,279.96c0,0-2.84-5.67-13.65-5.11s-19.32,12.49-19.32,12.49S683.55,291.89,695.49,279.96z"/>
	<path class="st7" d="M695.49,279.96c0,0,4.54-8.51,13.63,0.58c9.09,9.09,14.76,24.39,14.76,24.39s-11.92,5.11-23.28-6.82
		C689.24,286.16,695.49,279.96,695.49,279.96z"/>
	<path class="st8" d="M783.56,231.67c0,0,0.58,10.8-19.89,21.58c-14.62,7.39-29.78,13.65-45.36,18.74"/>
	<path class="st8" d="M748.96,246c0,0,15.26-9.79,17.52-16.49s-4.54-10.31-4.54-10.31"/>
	<path class="st8" d="M696.62,277.69c0,0-13.65-16.49-13.65-28.86c0-12.37,5.11-14.2,5.11-14.2"/>
	<path class="st3" d="M697.38,90.06c-5-5.95-9.28-12.46-12.74-19.42c-4.84-10.31-11.52-27.3,1.22-37.6
		c12.74-10.31,61.85-16.99,85.56-13.96s43.69,27.3,62.49,61.27s24.88,60.07,20.62,71.6c-4.27,11.52-21.23,24.26-41.23,23.67
		c-20-0.6-31.54-21.85-43.07-32.76c-11.52-10.91-47.42-33.38-52.18-38.24c-5.61-4.96-11.49-9.62-17.61-13.94L697.38,90.06z"/>
	<g>
		<defs>
			<path id="SVGID_3_" d="M697.38,90.06c-5-5.95-9.28-12.46-12.74-19.42c-4.84-10.31-11.52-27.3,1.22-37.6
				c12.74-10.31,61.85-16.99,85.56-13.96s43.69,27.3,62.49,61.27s24.88,60.07,20.62,71.6c-4.27,11.52-21.23,24.26-41.23,23.67
				c-20-0.6-31.54-21.85-43.07-32.76c-11.52-10.91-47.42-33.38-52.18-38.24c-5.61-4.96-11.49-9.62-17.61-13.94L697.38,90.06z"/>
		</defs>
		<clipPath id="SVGID_4_">
			<use xlink:href="#SVGID_3_"  style="overflow:visible;"/>
		</clipPath>
		<g class="st9">
			<path class="st0" d="M786.38,24.03c9.28,11.3,31.11,39.87,33.11,61.15c2.54,27.09-49.13,13.54-49.13,13.54
				s33.87-20.33,23.71-17.79c-10.16,2.54-18.55-3.38-33.87-3.38S725.48,57.22,725.48,64s1.69,8.47,5.94,14.43
				c4.25,5.96-4.25,0,16.08,28.86c6.18,8.84,10.97,19.21,15.65,29.75c2.8,2.19,5.24,4.12,7.05,5.92
				c11.52,10.91,23.05,32.14,43.07,32.76c20.02,0.62,37.11-12.14,41.23-23.67c4.12-11.52-1.83-37.62-20.62-71.6
				C819.18,53.78,803.74,33.2,786.38,24.03z"/>
			<path class="st5" d="M786.38,24.03c9.28,11.3,31.11,39.87,33.11,61.15c2.54,27.09-49.13,13.54-49.13,13.54
				s33.87-20.33,23.71-17.79c-10.16,2.54-18.55-3.38-33.87-3.38S725.48,57.22,725.48,64s1.69,8.47,5.94,14.43
				c4.25,5.96-4.25,0,16.08,28.86c6.18,8.84,10.97,19.21,15.65,29.75c2.8,2.19,5.24,4.12,7.05,5.92
				c11.52,10.91,23.05,32.14,43.07,32.76c20.02,0.62,37.11-12.14,41.23-23.67c4.12-11.52-1.83-37.62-20.62-71.6
				C819.18,53.78,803.74,33.2,786.38,24.03z"/>
		</g>
	</g>
	<path class="st2" d="M697.38,90.06c-5-5.95-9.28-12.46-12.74-19.42c-4.84-10.31-11.52-27.3,1.22-37.6
		c12.74-10.31,61.85-16.99,85.56-13.96s43.69,27.3,62.49,61.27s24.88,60.07,20.62,71.6c-4.27,11.52-21.23,24.26-41.23,23.67
		c-20-0.6-31.54-21.85-43.07-32.76c-11.52-10.91-47.42-33.38-52.18-38.24c-5.61-4.96-11.49-9.62-17.61-13.94L697.38,90.06z"/>
	<path class="st2" d="M715.53,68.99c0,0-6.02-3.34-16.06-16.06"/>
	<path class="st2" d="M721.01,48.99c-0.3-1.79-0.35-3.62-0.16-5.42"/>
	<path class="st2" d="M730.88,71.67c-3.4-5.19-6.17-10.77-8.25-16.62"/>
	<path class="st2" d="M779.74,98.45c0,0,16.74,3.34,31.46,0.68"/>
	<path class="st2" d="M831.3,129.83c1.53,0,3.09,0,4.66,0"/>
	<path class="st2" d="M803.16,125.89c6.83,1.71,13.79,2.87,20.8,3.46"/>
	<path class="st2" d="M799.93,138.59c0,0,16.64,18.1,28.68,21.44"/>
	<path class="st3" d="M787.19,148.24c0-1.81-9.11-23.05-24.88-38.22s-46.12-18.8-56.43-18.2c-10.31,0.6-15.17,5.46-15.17,5.46
		s-10.91,40.06-16.37,54.01c-4.34,12.02-4.5,25.15-0.45,37.27c3.78,10.78,8.81,21.08,15.01,30.68C698,233.8,698,273.85,698,273.85
		s45.5-20.62,50.96-27.91s2.41-32.76,4.84-44.9c0.5-2.48,1.23-4.9,2.19-7.24c2.95-3.21,5.29-6.93,6.93-10.97
		C762.92,182.83,787.19,150.14,787.19,148.24z"/>
	<g>
		<defs>
			<path id="SVGID_5_" d="M787.19,148.24c0-1.81-9.11-23.05-24.88-38.22s-46.12-18.8-56.43-18.2c-10.31,0.6-15.17,5.46-15.17,5.46
				s-10.91,40.06-16.37,54.01c-4.34,12.02-4.5,25.15-0.45,37.27c3.78,10.78,8.81,21.08,15.01,30.68C698,233.8,698,273.85,698,273.85
				s45.5-20.62,50.96-27.91s2.41-32.76,4.84-44.9c0.5-2.48,1.23-4.9,2.19-7.24c2.95-3.21,5.29-6.93,6.93-10.97
				C762.92,182.83,787.19,150.14,787.19,148.24z"/>
		</defs>
		<clipPath id="SVGID_6_">
			<use xlink:href="#SVGID_5_"  style="overflow:visible;"/>
		</clipPath>
		<g class="st10">
			<path class="st0" d="M773.58,123.23l-13.38-0.8c-3.76,17.22-8.57,34.19-14.43,50.82c-8.47,22.86-20.33,36.41-32.18,40.65
				c-11.85,4.25-25.4-1.69-20.33,5.07c3.01,4.02,21.28,21.19,41.62,36.59c6.82-3.79,12.37-7.32,14.04-9.57
				c5.46-7.28,2.41-32.76,4.84-44.9c0.5-2.48,1.23-4.9,2.19-7.24c2.95-3.21,5.29-6.93,6.93-10.97c0,0,24.26-32.76,24.26-34.59
				C787.19,146.98,782.32,135.33,773.58,123.23z"/>
			<path class="st5" d="M773.58,123.23l-13.38-0.8c-3.76,17.22-8.57,34.19-14.43,50.82c-8.47,22.86-20.33,36.41-32.18,40.65
				c-11.85,4.25-25.4-1.69-20.33,5.07c3.01,4.02,21.28,21.19,41.62,36.59c6.82-3.79,12.37-7.32,14.04-9.57
				c5.46-7.28,2.41-32.76,4.84-44.9c0.5-2.48,1.23-4.9,2.19-7.24c2.95-3.21,5.29-6.93,6.93-10.97c0,0,24.26-32.76,24.26-34.59
				C787.19,146.98,782.32,135.33,773.58,123.23z"/>
		</g>
	</g>
	<path class="st2" d="M787.19,148.24c0-1.81-9.11-23.05-24.88-38.22s-46.12-18.8-56.43-18.2c-10.31,0.6-15.17,5.46-15.17,5.46
		s-10.91,40.06-16.37,54.01c-4.34,12.02-4.5,25.15-0.45,37.27c3.78,10.78,8.81,21.08,15.01,30.68C698,233.8,698,273.85,698,273.85
		s45.5-20.62,50.96-27.91s2.41-32.76,4.84-44.9c0.5-2.48,1.23-4.9,2.19-7.24c2.95-3.21,5.29-6.93,6.93-10.97
		C762.92,182.83,787.19,150.14,787.19,148.24z"/>
	<path class="st2" d="M710.12,134.37c0,0-1.81,7.28-7.88,9.69c-6.06,2.41-13.96,1.83-11.54,6.08c2.41,4.25,11.54,6.66,11.54,6.66"/>
	<path class="st2" d="M693.76,171.97c0,0,10.31,4.25,16.37,1.22"/>
	<path class="st2" d="M730.76,140.43c0,0-1.22,10.31,11.52,8.49"/>
	<path class="st2" d="M690.11,130.72c0,0,6.06,9.71,14.55,3.65"/>
	<path class="st2" d="M733.79,126.47c0,0,10.93-3.65,15.77,9.71"/>
	<path class="st2" d="M710.12,121.62c0,0-7.28-10.93-17.59-3.05"/>
	<path class="st2" d="M710.74,167.12c0,0,0.6,9.09,5.44,10.93"/>
	<path class="st2" d="M765.95,178.65c0,0-16.99,20.62-28.51,24.26"/>
	<path class="st7" d="M764.39,132.53c0,0-7.9,9.42-7.01,17.38s13.15,15.92,16.66,15.92c3.5,0,13.15-14.43,13.15-14.43
		S773.25,136.16,764.39,132.53z"/>
	<path class="st7" d="M710.25,105.54c0,0-6.82,6.82-23.3,6.82c-9.33,0.07-18.64-0.69-27.83-2.27
		C659.12,110.1,696.04,101.01,710.25,105.54z"/>
	<path class="st3" d="M595.07,214.07c4.55,16.96,21.99,27.01,38.94,22.46c14.93-4.01,24.82-18.18,23.42-33.58L595.07,214.07z"/>
	<g>
		<defs>
			<path id="SVGID_7_" d="M595.07,214.07c4.55,16.96,21.99,27.01,38.94,22.46c14.93-4.01,24.82-18.18,23.42-33.58L595.07,214.07z"/>
		</defs>
		<clipPath id="SVGID_8_">
			<use xlink:href="#SVGID_7_"  style="overflow:visible;"/>
		</clipPath>
		<g class="st11">
			<path class="st12" d="M595.07,214.07c4.55,16.96,21.99,27.01,38.94,22.46c14.93-4.01,24.82-18.18,23.42-33.58L595.07,214.07z"/>
		</g>
	</g>
	<path class="st2" d="M595.07,214.07c4.55,16.96,21.99,27.01,38.94,22.46c14.93-4.01,24.82-18.18,23.42-33.58L595.07,214.07z"/>
	<path class="st13" d="M556.29,131.75c2.02-3.87,3.18-8.13,3.4-12.49c0-6.18-2.27-16.49-5.67-15.34c-3.4,1.15-3.4,9.65-2.84,12.49
		c0.24,2.47,0.06,4.97-0.56,7.38c0,0-2.85,5.11-0.58,9.09C552.31,136.86,556.29,131.75,556.29,131.75z"/>
	<path class="st2" d="M595.07,214.07L533.51,81.96c-1.53-3.27-5.42-4.68-8.69-3.15c-0.01,0-0.02,0.01-0.03,0.01l0,0
		c-3.25,1.53-4.65,5.42-3.12,8.67c0.02,0.04,0.04,0.09,0.06,0.13l2.7,5.42"/>
	<path class="st2" d="M532.99,110.66c0,0,0,6.82,2.85,8.54c2.85,1.71,17.61,10.31,18.18,5.11s-10.31-11.94-13.63-13.65
		C537.07,108.95,535.84,109.52,532.99,110.66z"/>
	<path class="st3" d="M535.84,119.19c0,0-9.09,18.16-9.09,26.12v30.12c0,0-35.21,36.92-36.92,46.57c-1.71,9.65-6.18,32.99,0,32.99
		c6.18,0,35.23-27.85,37.5-33.52c2.27-5.67,15.89-43.17,15.89-43.17c1.14-1.84,2.48-3.55,3.98-5.11c2.27-2.29,2.85-17.05,2.85-17.05
		s6.18-0.58,6.18-3.98v-20.41C556.29,127.13,535.84,119.19,535.84,119.19z"/>
	<g>
		<defs>
			<path id="SVGID_9_" d="M535.84,119.19c0,0-9.09,18.16-9.09,26.12v30.12c0,0-35.21,36.92-36.92,46.57
				c-1.71,9.65-6.18,32.99,0,32.99c6.18,0,35.23-27.85,37.5-33.52c2.27-5.67,15.89-43.17,15.89-43.17c1.14-1.84,2.48-3.55,3.98-5.11
				c2.27-2.29,2.85-17.05,2.85-17.05s6.18-0.58,6.18-3.98v-20.41C556.29,127.13,535.84,119.19,535.84,119.19z"/>
		</defs>
		<clipPath id="SVGID_10_">
			<use xlink:href="#SVGID_9_"  style="overflow:visible;"/>
		</clipPath>
		<g class="st14">
			<path class="st0" d="M527.32,221.45c2.27-5.69,15.89-43.17,15.89-43.17c1.14-1.84,2.48-3.55,3.98-5.11
				c2.27-2.29,2.84-17.05,2.84-17.05s6.18-0.58,6.18-3.98v-20.39c0-0.99-0.97-2.06-2.47-3.3L549.63,147l-16.35,1.63
				c2.57,3.78,4.5,7.96,5.71,12.37c1.65,6.54-0.8,17.98-4.89,28.59c-3.86,10.02-42.59,57.09-46.98,62.43
				c0.47,1.92,1.32,3.09,2.72,3.09C496.07,254.97,525.06,227.12,527.32,221.45z"/>
			<path class="st5" d="M527.32,221.45c2.27-5.69,15.89-43.17,15.89-43.17c1.14-1.84,2.48-3.55,3.98-5.11
				c2.27-2.29,2.84-17.05,2.84-17.05s6.18-0.58,6.18-3.98v-20.39c0-0.99-0.97-2.06-2.47-3.3L549.63,147l-16.35,1.63
				c2.57,3.78,4.5,7.96,5.71,12.37c1.65,6.54-0.8,17.98-4.89,28.59c-3.86,10.02-42.59,57.09-46.98,62.43
				c0.47,1.92,1.32,3.09,2.72,3.09C496.07,254.97,525.06,227.12,527.32,221.45z"/>
		</g>
	</g>
	<path class="st2" d="M535.84,119.19c0,0-9.09,18.16-9.09,26.12v30.12c0,0-35.21,36.92-36.92,46.57c-1.71,9.65-6.18,32.99,0,32.99
		c6.18,0,35.23-27.85,37.5-33.52c2.27-5.67,15.89-43.17,15.89-43.17c1.14-1.84,2.48-3.55,3.98-5.11c2.27-2.29,2.85-17.05,2.85-17.05
		s6.18-0.58,6.18-3.98v-20.41C556.29,127.13,535.84,119.19,535.84,119.19z"/>
	<polyline class="st2" points="550.04,156.12 548.33,151.56 542.66,152.14 	"/>
	<line class="st2" x1="534.7" y1="141.91" x2="554.02" y2="142.47"/>
	<line class="st2" x1="535.84" y1="131.11" x2="554.58" y2="135.66"/>
	<path class="st3" d="M922.72,362.34c0,0-49.48,8.51-44.3,19.32l1.71,7.96c0,0-35.79,45.36-34.1,47.15
		c1.69,1.79,65.97,39.77,68.18,39.77c2.21,0,42.61-72.16,51.13-86.36c8.51-14.2,9.67-27.25-1.13-34.08
		c-10.8-6.82-22.68-13.07-22.68-13.07"/>
	<g>
		<defs>
			<path id="SVGID_11_" d="M922.72,362.34c0,0-49.48,8.51-44.3,19.32l1.71,7.96c0,0-35.79,45.36-34.1,47.15
				c1.69,1.79,65.97,39.77,68.18,39.77c2.21,0,42.61-72.16,51.13-86.36c8.51-14.2,9.67-27.25-1.13-34.08
				c-10.8-6.82-22.68-13.07-22.68-13.07"/>
		</defs>
		<clipPath id="SVGID_12_">
			<use xlink:href="#SVGID_11_"  style="overflow:visible;"/>
		</clipPath>
		<g class="st15">
			<path class="st0" d="M964.19,356.09c-10.8-6.82-22.68-13.07-22.68-13.07l-6.91,7.11c7.01,5.98,18.97,17.01,19.56,22.97
				c0.85,8.47-11.85,25.42-13.54,28.86c-1.69,3.44-16.95-23.71-31.34-23.71s0.62,5.36,8.25,13.69c7.63,8.33,8.6,21.87,2.66,30.35
				c-5.57,7.96-65.56,3.96-54.74,26.53c19.63,11.73,47.19,27.77,48.67,27.77c2.27,0,42.61-72.16,51.13-86.36
				C973.78,376.03,975,362.91,964.19,356.09z"/>
			<path class="st5" d="M964.19,356.09c-10.8-6.82-22.68-13.07-22.68-13.07l-6.91,7.11c7.01,5.98,18.97,17.01,19.56,22.97
				c0.85,8.47-11.85,25.42-13.54,28.86c-1.69,3.44-16.95-23.71-31.34-23.71s0.62,5.36,8.25,13.69c7.63,8.33,8.6,21.87,2.66,30.35
				c-5.57,7.96-65.56,3.96-54.74,26.53c19.63,11.73,47.19,27.77,48.67,27.77c2.27,0,42.61-72.16,51.13-86.36
				C973.78,376.03,975,362.91,964.19,356.09z"/>
		</g>
	</g>
	<path class="st2" d="M922.72,362.34c0,0-49.48,8.51-44.3,19.32l1.71,7.96c0,0-35.79,45.36-34.1,47.15
		c1.69,1.79,65.97,39.77,68.18,39.77c2.21,0,42.61-72.16,51.13-86.36c8.51-14.2,9.67-27.25-1.13-34.08
		c-10.8-6.82-22.68-13.07-22.68-13.07"/>
	<path class="st2" d="M887.5,386.19c0,0,17.61-6.8,30.1,5.69c12.49,12.49,14.78,17.61,14.78,17.61
		c-0.89-10.31-6.04-19.77-14.2-26.12"/>
	<path class="st3" d="M822.17,464.03c0,0-5.69,7.38-11.36,10.31c-8.52,4.82-15.73,11.64-21.03,19.87
		c-6.82,10.31-15.34,19.32-10.31,23.3c2.94,2.36,6.54,3.75,10.31,3.98c0,0,3.4,7.96,7.96,8.51c2.26,0.32,4.54,0.51,6.82,0.58
		c0,0,3.96,3.98,6.18,3.98h5.79c0,0,2.27,2.84,7.38,0c5.11-2.85,10.31-19.89,11.94-25.56c1.63-5.67,1.71-17.63,1.71-17.63
		l7.96-11.36l-18.18-18.18L822.17,464.03z"/>
	<g>
		<defs>
			<path id="SVGID_13_" d="M822.17,464.03c0,0-5.69,7.38-11.36,10.31c-8.52,4.82-15.73,11.64-21.03,19.87
				c-6.82,10.31-15.34,19.32-10.31,23.3c2.94,2.36,6.54,3.75,10.31,3.98c0,0,3.4,7.96,7.96,8.51c2.26,0.32,4.54,0.51,6.82,0.58
				c0,0,3.96,3.98,6.18,3.98h5.79c0,0,2.27,2.84,7.38,0c5.11-2.85,10.31-19.89,11.94-25.56c1.63-5.67,1.71-17.63,1.71-17.63
				l7.96-11.36l-18.18-18.18L822.17,464.03z"/>
		</defs>
		<clipPath id="SVGID_14_">
			<use xlink:href="#SVGID_13_"  style="overflow:visible;"/>
		</clipPath>
		<g class="st16">
			<path class="st0" d="M822.17,464.03c-1.39,1.74-2.88,3.4-4.47,4.97l8.12,18.74c0,0-6.18,30.1-10.62,38.41
				c-1.79,3.4-5.53,4.7-9.32,5.55c1.35,1.37,3.05,2.34,4.93,2.78h5.73c0,0,2.27,2.85,7.38,0c5.11-2.84,10.31-19.89,11.94-25.56
				s1.71-17.63,1.71-17.63l7.96-11.36l-18.18-18.18L822.17,464.03z"/>
			<path class="st5" d="M822.17,464.03c-1.39,1.74-2.88,3.4-4.47,4.97l8.12,18.74c0,0-6.18,30.1-10.62,38.41
				c-1.79,3.4-5.53,4.7-9.32,5.55c1.35,1.37,3.05,2.34,4.93,2.78h5.73c0,0,2.27,2.85,7.38,0c5.11-2.84,10.31-19.89,11.94-25.56
				s1.71-17.63,1.71-17.63l7.96-11.36l-18.18-18.18L822.17,464.03z"/>
		</g>
	</g>
	<path class="st2" d="M822.17,464.03c0,0-5.69,7.38-11.36,10.31c-8.52,4.82-15.73,11.64-21.03,19.87
		c-6.82,10.31-15.34,19.32-10.31,23.3c2.94,2.36,6.54,3.75,10.31,3.98c0,0,3.4,7.96,7.96,8.51c2.26,0.32,4.54,0.51,6.82,0.58
		c0,0,3.96,3.98,6.18,3.98h5.79c0,0,2.27,2.84,7.38,0c5.11-2.85,10.31-19.89,11.94-25.56c1.63-5.67,1.71-17.63,1.71-17.63
		l7.96-11.36l-18.18-18.18L822.17,464.03z"/>
	<path class="st7" d="M844.33,429.94c0,0,67.02,35.23,71,37.5c3.98,2.27,5.69,9.09,4.56,16.49c-1.13,7.4,6.8,35.23-1.71,35.23
		c-8.51,0-45.46-11.36-67.04-23.3c-21.58-11.94-32.39-29.54-32.39-31.81S844.33,429.94,844.33,429.94z"/>
	<path class="st3" d="M783.56,154.98l16.39-16.49c8.76-8.76-6.62-25.77-12.18-32.06c-13.06-14.59-29.59-25.63-48.06-32.12
		c-11.19-4-35.52-11.59-41.69,3.53l-10.93,26.68c0,0,29.73-2.41,55.21,10.93C767.79,128.78,783.56,154.98,783.56,154.98z"/>
	<g>
		<defs>
			<path id="SVGID_15_" d="M783.56,154.98l16.39-16.49c8.76-8.76-6.62-25.77-12.18-32.06c-13.06-14.59-29.59-25.63-48.06-32.12
				c-11.19-4-35.52-11.59-41.69,3.53l-10.93,26.68c0,0,29.73-2.41,55.21,10.93C767.79,128.78,783.56,154.98,783.56,154.98z"/>
		</defs>
		<clipPath id="SVGID_16_">
			<use xlink:href="#SVGID_15_"  style="overflow:visible;"/>
		</clipPath>
		<g class="st17">
			<path class="st0" d="M739.69,74.41c-9.5-3.4-28.51-9.34-37.79-1.77c7.48-0.21,19.3,1.92,37.11,10.84
				c37.27,18.55,38.12,24.55,35.56,33.87c-1.05,3.88-5.9,8.91-11.22,13.46c7.71,7.19,14.49,15.3,20.2,24.16l16.39-16.49
				c8.76-8.76-6.62-25.77-12.18-32.06C774.69,91.88,758.15,80.87,739.69,74.41z"/>
			<path class="st5" d="M739.69,74.41c-9.5-3.4-28.51-9.34-37.79-1.77c7.48-0.21,19.3,1.92,37.11,10.84
				c37.27,18.55,38.12,24.55,35.56,33.87c-1.05,3.88-5.9,8.91-11.22,13.46c7.71,7.19,14.49,15.3,20.2,24.16l16.39-16.49
				c8.76-8.76-6.62-25.77-12.18-32.06C774.69,91.88,758.15,80.87,739.69,74.41z"/>
		</g>
	</g>
	<path class="st2" d="M783.56,154.98l16.39-16.49c8.76-8.76-6.62-25.77-12.18-32.06c-13.06-14.59-29.59-25.63-48.06-32.12
		c-11.19-4-35.52-11.59-41.69,3.53l-10.93,26.68c0,0,29.73-2.41,55.21,10.93C767.79,128.78,783.56,154.98,783.56,154.98z"/>
	<path class="st3" d="M765.95,164.09c0,0,18.8-15.17,24.26-6.08c5.46,9.09-7.28,21.85-16.99,21.85s-14.55-3.65-14.55-3.65"/>
	<g>
		<defs>
			<path id="SVGID_17_" d="M765.95,164.09c0,0,18.8-15.17,24.26-6.08c5.46,9.09-7.28,21.85-16.99,21.85s-14.55-3.65-14.55-3.65"/>
		</defs>
		<clipPath id="SVGID_18_">
			<use xlink:href="#SVGID_17_"  style="overflow:visible;"/>
		</clipPath>
		<g class="st18">
			<path class="st0" d="M765.95,164.09c0,0,18.8-15.17,24.26-6.08c5.46,9.09-7.28,21.85-16.99,21.85s-14.55-3.65-14.55-3.65"/>
			<path class="st5" d="M765.95,164.09c0,0,18.8-15.17,24.26-6.08c5.46,9.09-7.28,21.85-16.99,21.85s-14.55-3.65-14.55-3.65"/>
		</g>
	</g>
	<path class="st2" d="M765.95,164.09c0,0,18.8-15.17,24.26-6.08c5.46,9.09-7.28,21.85-16.99,21.85s-14.55-3.65-14.55-3.65"/>
</g>
<g id="freepik--cooking-pots--inject-17">
	<line class="st2" x1="320.55" y1="710.02" x2="985.68" y2="710.02"/>
	<path class="st3" d="M648.89,508.38H448.12v219.31c0,13.19,45.13,23.89,100.81,23.89c55.68,0,100.81-10.7,100.81-23.89
		L648.89,508.38z"/>
	<g>
		<defs>
			<path id="SVGID_19_" d="M648.89,508.38H448.12v219.31c0,13.19,45.13,23.89,100.81,23.89c55.68,0,100.81-10.7,100.81-23.89
				L648.89,508.38z"/>
		</defs>
		<clipPath id="SVGID_20_">
			<use xlink:href="#SVGID_19_"  style="overflow:visible;"/>
		</clipPath>
		<g class="st19">
			<path class="st12" d="M648.89,508.38H448.12v219.31c0,13.19,45.13,23.89,100.81,23.89c55.68,0,100.81-10.7,100.81-23.89
				L648.89,508.38z"/>
			<path class="st6" d="M495.86,508.38V748c15.34,2.16,30.81,3.34,46.3,3.53V508.38H495.86z"/>
			<path class="st6" d="M559.55,508.38v243.06c4.93,0,9.77-0.31,14.43-0.6V508.38H559.55z"/>
			<path class="st3" d="M581.25,508.38v241.95c5.02-0.41,9.83-0.91,14.43-1.48V508.38H581.25z"/>
		</g>
	</g>
	<path class="st2" d="M648.89,508.38H448.12v219.31c0,13.19,45.13,23.89,100.81,23.89c55.68,0,100.81-10.7,100.81-23.89
		L648.89,508.38z"/>
	<path class="st3" d="M548.93,473.35c-25.93,0-52.41,1.69-77.72,7.71c-14.14,3.38-39.91,10.51-33.91,30.92
		c2.68,9.11,13.21,12.62,21.26,15.5c9.94,3.2,20.17,5.46,30.53,6.76c19.79,2.96,39.78,4.39,59.79,4.27
		c25.96,0,52.45-1.69,77.76-7.73c10.31-2.43,23.07-5.07,30.28-13.46c6.44-7.19,5.83-18.25-1.37-24.69c-0.23-0.2-0.46-0.4-0.69-0.59
		c-8.53-6.47-20.39-9.19-30.61-11.48c-16.33-3.48-32.92-5.63-49.6-6.43C566.1,473.61,557.53,473.35,548.93,473.35z"/>
	<g>
		<defs>
			<path id="SVGID_21_" d="M548.93,473.35c-25.93,0-52.41,1.69-77.72,7.71c-14.14,3.38-39.91,10.51-33.91,30.92
				c2.68,9.11,13.21,12.62,21.26,15.5c9.94,3.2,20.17,5.46,30.53,6.76c19.79,2.96,39.78,4.39,59.79,4.27
				c25.96,0,52.45-1.69,77.76-7.73c10.31-2.43,23.07-5.07,30.28-13.46c6.44-7.19,5.83-18.25-1.37-24.69
				c-0.23-0.2-0.46-0.4-0.69-0.59c-8.53-6.47-20.39-9.19-30.61-11.48c-16.33-3.48-32.92-5.63-49.6-6.43
				C566.1,473.61,557.53,473.35,548.93,473.35z"/>
		</defs>
		<clipPath id="SVGID_22_">
			<use xlink:href="#SVGID_21_"  style="overflow:visible;"/>
		</clipPath>
		<g class="st20">
			<path class="st12" d="M548.93,473.35c-25.93,0-52.41,1.69-77.72,7.71c-14.14,3.38-39.91,10.51-33.91,30.92
				c2.68,9.11,13.21,12.62,21.26,15.5c9.94,3.2,20.17,5.46,30.53,6.76c19.79,2.96,39.78,4.39,59.79,4.27
				c25.96,0,52.45-1.69,77.76-7.73c10.31-2.43,23.07-5.07,30.28-13.46c6.44-7.19,5.83-18.25-1.37-24.69
				c-0.23-0.2-0.46-0.4-0.69-0.59c-8.53-6.47-20.39-9.19-30.61-11.48c-16.33-3.48-32.92-5.63-49.6-6.43
				C566.1,473.61,557.53,473.35,548.93,473.35z"/>
		</g>
	</g>
	<path class="st2" d="M548.93,473.35c-25.93,0-52.41,1.69-77.72,7.71c-14.14,3.38-39.91,10.51-33.91,30.92
		c2.68,9.11,13.21,12.62,21.26,15.5c9.94,3.2,20.17,5.46,30.53,6.76c19.79,2.96,39.78,4.39,59.79,4.27
		c25.96,0,52.45-1.69,77.76-7.73c10.31-2.43,23.07-5.07,30.28-13.46c6.44-7.19,5.83-18.25-1.37-24.69c-0.23-0.2-0.46-0.4-0.69-0.59
		c-8.53-6.47-20.39-9.19-30.61-11.48c-16.33-3.48-32.92-5.63-49.6-6.43C566.1,473.61,557.53,473.35,548.93,473.35z"/>
	<ellipse class="st3" cx="548.93" cy="500.71" rx="100.71" ry="21.42"/>
	<g>
		<defs>
			<ellipse id="SVGID_23_" cx="548.93" cy="500.71" rx="100.71" ry="21.42"/>
		</defs>
		<clipPath id="SVGID_24_">
			<use xlink:href="#SVGID_23_"  style="overflow:visible;"/>
		</clipPath>
		<g class="st21">
			<ellipse class="st22" cx="548.93" cy="500.71" rx="100.71" ry="21.42"/>
		</g>
	</g>
	<ellipse class="st2" cx="548.93" cy="500.71" rx="100.71" ry="21.42"/>
	<path class="st6" d="M450.57,568.04c0,0-14.76-25.01-10.31-32.99c4.45-7.98,24.43-0.56,30.12,6.82c5.69,7.38,10.8,27.85,7.96,28.41
		c-2.85,0.56-7.38,1.13-8.54-2.82c-1.15-3.96-6.8-21.03-10.31-23.32s-11.36-6.8-11.36-1.69c0,5.11,8.54,22.68,7.38,25.56
		C454.36,570.91,453.99,571.44,450.57,568.04z"/>
	<path class="st3" d="M840.07,556.23H678.79v176.16c0,10.6,36.26,19.19,80.98,19.19s80.98-8.6,80.98-19.19L840.07,556.23z"/>
	<g>
		<defs>
			<path id="SVGID_25_" d="M840.07,556.23H678.79v176.16c0,10.6,36.26,19.19,80.98,19.19s80.98-8.6,80.98-19.19L840.07,556.23z"/>
		</defs>
		<clipPath id="SVGID_26_">
			<use xlink:href="#SVGID_25_"  style="overflow:visible;"/>
		</clipPath>
		<g class="st23">
			<path class="st12" d="M840.07,556.23H678.79v176.16c0,10.6,36.26,19.19,80.98,19.19s80.98-8.6,80.98-19.19L840.07,556.23z"/>
		</g>
	</g>
	<path class="st2" d="M840.07,556.23H678.79v176.16c0,10.6,36.26,19.19,80.98,19.19s80.98-8.6,80.98-19.19L840.07,556.23z"/>
	<path class="st6" d="M717.15,556.23V748.7c12.3,1.73,24.69,2.68,37.11,2.84V556.23H717.15z"/>
	<path class="st6" d="M768.28,556.23v195.25c3.99-0.11,7.86-0.27,11.63-0.49V556.23H768.28z"/>
	<path class="st3" d="M785.72,556.23v194.35c4.02-0.33,7.92-0.72,11.63-1.18V556.23H785.72z"/>
	<path class="st3" d="M759.77,528.11c-20.84,0-42.1,1.36-62.43,6.18c-11.38,2.7-32.06,8.43-27.23,24.74
		c2.06,7.32,10.6,10.12,17.07,12.37c7.98,2.65,16.18,4.54,24.51,5.65c15.91,2.38,31.99,3.52,48.08,3.42
		c20.84,0,42.12-1.36,62.47-6.18c8.25-1.96,18.55-4.12,24.33-10.82c5.17-5.79,4.66-14.68-1.13-19.85c-0.18-0.16-0.35-0.31-0.54-0.46
		c-6.84-5.17-16.39-7.36-24.57-9.22c-13.12-2.79-26.45-4.53-39.85-5.17C773.58,528.33,766.68,528.11,759.77,528.11z"/>
	<g>
		<defs>
			<path id="SVGID_27_" d="M759.77,528.11c-20.84,0-42.1,1.36-62.43,6.18c-11.38,2.7-32.06,8.43-27.23,24.74
				c2.06,7.32,10.6,10.12,17.07,12.37c7.98,2.65,16.18,4.54,24.51,5.65c15.91,2.38,31.99,3.52,48.08,3.42
				c20.84,0,42.12-1.36,62.47-6.18c8.25-1.96,18.55-4.12,24.33-10.82c5.17-5.79,4.66-14.68-1.13-19.85
				c-0.18-0.16-0.35-0.31-0.54-0.46c-6.84-5.17-16.39-7.36-24.57-9.22c-13.12-2.79-26.45-4.53-39.85-5.17
				C773.58,528.33,766.68,528.11,759.77,528.11z"/>
		</defs>
		<clipPath id="SVGID_28_">
			<use xlink:href="#SVGID_27_"  style="overflow:visible;"/>
		</clipPath>
		<g class="st24">
			<path class="st12" d="M759.77,528.11c-20.84,0-42.1,1.36-62.43,6.18c-11.38,2.7-32.06,8.43-27.23,24.74
				c2.06,7.32,10.6,10.12,17.07,12.37c7.98,2.65,16.18,4.54,24.51,5.65c15.91,2.38,31.99,3.52,48.08,3.42
				c20.84,0,42.12-1.36,62.47-6.18c8.25-1.96,18.55-4.12,24.33-10.82c5.17-5.79,4.66-14.68-1.13-19.85
				c-0.18-0.16-0.35-0.31-0.54-0.46c-6.84-5.17-16.39-7.36-24.57-9.22c-13.12-2.79-26.45-4.53-39.85-5.17
				C773.58,528.33,766.68,528.11,759.77,528.11z"/>
		</g>
	</g>
	<path class="st2" d="M759.77,528.11c-20.84,0-42.1,1.36-62.43,6.18c-11.38,2.7-32.06,8.43-27.23,24.74
		c2.06,7.32,10.6,10.12,17.07,12.37c7.98,2.65,16.18,4.54,24.51,5.65c15.91,2.38,31.99,3.52,48.08,3.42
		c20.84,0,42.12-1.36,62.47-6.18c8.25-1.96,18.55-4.12,24.33-10.82c5.17-5.79,4.66-14.68-1.13-19.85c-0.18-0.16-0.35-0.31-0.54-0.46
		c-6.84-5.17-16.39-7.36-24.57-9.22c-13.12-2.79-26.45-4.53-39.85-5.17C773.58,528.33,766.68,528.11,759.77,528.11z"/>
	<ellipse class="st3" cx="759.77" cy="550.09" rx="80.9" ry="17.21"/>
	<g>
		<defs>
			<ellipse id="SVGID_29_" cx="759.77" cy="550.09" rx="80.9" ry="17.21"/>
		</defs>
		<clipPath id="SVGID_30_">
			<use xlink:href="#SVGID_29_"  style="overflow:visible;"/>
		</clipPath>
		<g class="st25">
			<ellipse class="st22" cx="759.77" cy="550.09" rx="80.9" ry="17.21"/>
		</g>
	</g>
	<ellipse class="st2" cx="759.77" cy="550.09" rx="80.9" ry="17.21"/>
	<path class="st6" d="M680.77,604.16c0,0-11.87-20.08-8.25-26.47c3.63-6.39,19.63-0.45,24.2,5.46c4.58,5.92,8.66,22.37,6.39,22.82
		s-5.94,0.93-6.84-2.27c-0.91-3.2-5.48-16.88-8.25-18.72s-9.13-5.48-9.13-1.36s6.87,18.25,5.94,20.62
		C683.9,606.61,683.51,606.9,680.77,604.16z"/>
	<path class="st2" d="M496.38,407.82c0,12.78,11.57,12.78,11.57,25.54s-11.57,12.76-11.57,25.54s11.57,12.76,11.57,25.54
		c0,12.78-11.57,12.78-11.57,25.54"/>
	<path class="st2" d="M507.94,382.29c0,8.04-4.6,11.01-8,15.32"/>
	<path class="st2" d="M550.19,406.85c0,10.31-11.57,10.31-11.57,20.62c0,10.31,11.57,10.31,11.57,20.62
		c0,10.31-11.57,10.31-11.57,20.62s11.57,10.31,11.57,20.62c0,10.31-11.57,10.31-11.57,20.62"/>
	<path class="st2" d="M592.43,382.29c0,12.76-11.57,12.76-11.57,25.52s11.57,12.78,11.57,25.54s-11.57,12.76-11.57,25.54
		s11.57,12.76,11.57,25.54c0,12.78-11.57,12.78-11.57,25.54"/>
	<path class="st2" d="M728.7,487.76c0.94,1.76,1.41,3.74,1.36,5.73c0,9.61-8.72,9.61-8.72,19.23c0,9.63,8.72,9.63,8.72,19.26
		s-8.72,9.65-8.72,19.28"/>
	<path class="st2" d="M761.91,473.5c0,7.77-8.72,7.77-8.72,15.54s8.72,7.77,8.72,15.54c0,7.77-8.72,7.77-8.72,15.57
		c0,7.79,8.72,7.77,8.72,15.54c0,7.77-8.72,7.77-8.72,15.56"/>
	<path class="st2" d="M789.74,502.83c-2.27,2.52-4.64,4.91-4.64,9.92c0,9.63,8.72,9.63,8.72,19.26c0,9.63-8.72,9.65-8.72,19.28"/>
</g>
</svg>
