<?xml version="1.0" encoding="utf-8"?>
<!-- Generator: Adobe Illustrator 23.1.0, SVG Export Plug-In . SVG Version: 6.00 Build 0)  -->
<svg version="1.1" id="Layer_1" xmlns="http://www.w3.org/2000/svg" xmlns:xlink="http://www.w3.org/1999/xlink" x="0px" y="0px"
	 viewBox="0 0 1366 768" style="enable-background:new 0 0 1366 768;" xml:space="preserve">
<style type="text/css">
	.st0{fill:#EBEBEB;}
	.st1{fill:#E0E0E0;}
	.st2{fill:#E6E6E6;}
	.st3{fill:#F5F5F5;}
	.st4{fill:#F0F0F0;}
	.st5{fill:#FAFAFA;}
	.st6{fill:#407BFF;}
	.st7{opacity:0.7;}
	.st8{fill:#FFFFFF;}
	.st9{opacity:0.9;}
	.st10{opacity:0.1;}
	.st11{opacity:0.1;fill:#FFFFFF;enable-background:new    ;}
	.st12{opacity:0.9;fill:#FFFFFF;enable-background:new    ;}
	.st13{opacity:0.2;}
	.st14{opacity:0.6;fill:#FFFFFF;enable-background:new    ;}
	.st15{fill:#FFC3BD;}
	.st16{opacity:0.5;enable-background:new    ;}
	.st17{opacity:0.2;enable-background:new    ;}
	.st18{fill:#263238;}
	.st19{fill:#ED847E;}
	.st20{opacity:0.8;fill:#FFFFFF;enable-background:new    ;}
	.st21{opacity:0.1;enable-background:new    ;}
	.st22{opacity:0.6;}
	.st23{opacity:0.3;fill:#FFFFFF;enable-background:new    ;}
	.st24{opacity:0.3;}
	.st25{opacity:0.4;fill:#FFFFFF;enable-background:new    ;}
</style>
<g id="freepik--background-complete--inject-3">
	<rect x="1014.23" y="691.09" class="st0" width="65.58" height="0.49"/>
	<rect x="827.62" y="696.47" class="st0" width="17.21" height="0.49"/>
	<rect x="974.25" y="672.72" class="st0" width="38" height="0.49"/>
	<rect x="292.9" y="676.04" class="st0" width="85.51" height="0.49"/>
	<rect x="396.05" y="676.04" class="st0" width="12.53" height="0.49"/>
	<rect x="449.33" y="684.4" class="st0" width="185.48" height="0.49"/>
	<path class="st0" d="M658.28,570.93H275.97c-6.24-0.01-11.29-5.07-11.29-11.31V22.21c0.05-6.2,5.09-11.2,11.29-11.21h382.31
		c6.24,0,11.31,5.06,11.31,11.31c0,0,0,0,0,0v537.32C669.58,565.86,664.52,570.93,658.28,570.93z M275.97,11.4
		c-5.96,0.01-10.79,4.85-10.79,10.81v537.41c0,5.96,4.83,10.8,10.79,10.81h382.31c5.97-0.01,10.8-4.84,10.81-10.81V22.21
		c-0.01-5.97-4.84-10.8-10.81-10.81H275.97z"/>
	<path class="st0" d="M1086.56,570.93H704.23c-6.24-0.01-11.29-5.07-11.31-11.31V22.21c0.07-6.2,5.1-11.2,11.31-11.21h382.33
		c6.19,0.02,11.21,5.02,11.27,11.21v537.41C1097.82,565.85,1092.79,570.9,1086.56,570.93z M704.23,11.4
		c-5.97,0.01-10.8,4.84-10.81,10.81v537.41c0.01,5.97,4.84,10.8,10.81,10.81h382.33c5.97-0.01,10.8-4.84,10.81-10.81V22.21
		c-0.01-5.97-4.84-10.8-10.81-10.81H704.23z"/>
	<rect x="189.03" y="659.23" class="st0" width="989.97" height="0.49"/>
	<rect x="795.59" y="89.84" class="st1" width="255.21" height="564.32"/>
	<path class="st2" d="M1050.8,84.89v574.18h47.02V84.89L1050.8,84.89z"/>
	<path class="st2" d="M750.84,84.89v574.18h47V84.89L750.84,84.89z"/>
	<path class="st3" d="M742.84,84.89v574.18h313.6V84.89L742.84,84.89z M1045.16,94.79v102.96H754.11V94.79L1045.16,94.79z
		 M754.11,423.46V320.5h291.05v102.96H754.11z M1045.16,433.36v102.96H754.11V433.36H1045.16z M754.11,310.6V207.65h291.05V310.6
		H754.11z M754.11,649.17V546.22h291.05v102.96H754.11z"/>
	<rect x="943.49" y="118.81" class="st2" width="10.85" height="79.89"/>
	<rect x="954.34" y="118.81" class="st1" width="10.85" height="79.89"/>
	<rect x="921.79" y="124.41" class="st2" width="21.7" height="74.29"/>
	<rect x="896.94" y="118.81" class="st4" width="14.02" height="79.89"/>
	<rect x="910.96" y="118.81" class="st0" width="10.85" height="79.89"/>
	<rect x="814.65" y="118.81" class="st2" width="14.02" height="79.89"/>
	<rect x="828.67" y="118.81" class="st0" width="10.85" height="79.89"/>
	<rect x="861.2" y="118.81" class="st2" width="14.02" height="79.89"/>
	<rect x="875.22" y="118.81" class="st1" width="10.85" height="79.89"/>
	<rect x="792.95" y="120.69" class="st0" width="21.7" height="78.01"/>
	<rect x="782.12" y="120.69" class="st1" width="10.85" height="78.01"/>
	<rect x="846.77" y="120.69" class="st1" width="14.45" height="78.01"/>
	<rect x="839.52" y="120.69" class="st4" width="7.23" height="78.01"/>
	<rect x="875.22" y="124.41" class="st3" width="21.7" height="74.29"/>
	<rect x="997.74" y="118.81" class="st0" width="14.02" height="79.89"/>
	<rect x="1011.75" y="118.81" class="st2" width="10.85" height="79.89"/>
	<rect x="976.02" y="120.69" class="st1" width="21.7" height="78.01"/>
	<rect x="965.17" y="120.69" class="st0" width="10.85" height="78.01"/>
	<rect x="1029.83" y="120.69" class="st0" width="14.45" height="78.01"/>
	<rect x="1022.6" y="120.69" class="st5" width="7.23" height="78.01"/>
	<rect x="872.05" y="230.67" class="st2" width="10.85" height="79.89"/>
	<rect x="861.22" y="230.67" class="st1" width="10.85" height="79.89"/>
	<rect x="882.9" y="236.3" class="st2" width="21.7" height="74.29"/>
	<rect x="915.45" y="230.67" class="st4" width="14.02" height="79.89"/>
	<rect x="904.6" y="230.67" class="st0" width="10.85" height="79.89"/>
	<rect x="997.72" y="230.67" class="st2" width="14.02" height="79.89"/>
	<rect x="986.87" y="230.67" class="st0" width="10.85" height="79.89"/>
	<rect x="951.17" y="230.67" class="st2" width="14.02" height="79.89"/>
	<rect x="940.32" y="230.67" class="st1" width="10.85" height="79.89"/>
	<rect x="1011.73" y="232.57" class="st0" width="21.7" height="78.01"/>
	<rect x="1033.43" y="232.57" class="st1" width="10.85" height="78.01"/>
	<rect x="965.19" y="232.57" class="st1" width="14.45" height="78.01"/>
	<rect x="979.64" y="232.57" class="st4" width="7.23" height="78.01"/>
	<rect x="929.47" y="236.3" class="st3" width="21.7" height="74.29"/>
	<rect x="814.65" y="230.67" class="st0" width="14.02" height="79.89"/>
	<rect x="803.8" y="230.67" class="st2" width="10.85" height="79.89"/>
	<rect x="828.67" y="232.57" class="st1" width="21.7" height="78.01"/>
	<rect x="850.37" y="232.57" class="st0" width="10.85" height="78.01"/>
	<rect x="782.1" y="232.57" class="st0" width="14.45" height="78.01"/>
	<rect x="796.57" y="232.57" class="st5" width="7.23" height="78.01"/>
	<rect x="872.05" y="344.54" class="st2" width="10.85" height="79.89"/>
	<rect x="861.22" y="344.54" class="st1" width="10.85" height="79.89"/>
	<rect x="882.9" y="350.14" class="st2" width="21.7" height="74.29"/>
	<rect x="915.45" y="344.54" class="st4" width="14.02" height="79.89"/>
	<rect x="904.6" y="344.54" class="st0" width="10.85" height="79.89"/>
	<rect x="997.72" y="344.54" class="st2" width="14.02" height="79.89"/>
	<rect x="986.87" y="344.54" class="st0" width="10.85" height="79.89"/>
	<rect x="951.17" y="344.54" class="st2" width="14.02" height="79.89"/>
	<rect x="940.32" y="344.54" class="st1" width="10.85" height="79.89"/>
	<rect x="1011.73" y="346.42" class="st0" width="21.7" height="78.01"/>
	<rect x="1033.43" y="346.42" class="st1" width="10.85" height="78.01"/>
	<rect x="965.19" y="346.42" class="st1" width="14.45" height="78.01"/>
	<rect x="979.64" y="346.42" class="st4" width="7.23" height="78.01"/>
	<rect x="929.47" y="350.14" class="st3" width="21.7" height="74.29"/>
	<rect x="814.65" y="344.54" class="st0" width="14.02" height="79.89"/>
	<rect x="803.8" y="344.54" class="st2" width="10.85" height="79.89"/>
	<rect x="828.67" y="346.42" class="st1" width="21.7" height="78.01"/>
	<rect x="850.37" y="346.42" class="st0" width="10.85" height="78.01"/>
	<rect x="782.1" y="346.42" class="st0" width="14.45" height="78.01"/>
	<rect x="796.57" y="346.42" class="st5" width="7.23" height="78.01"/>
	<rect x="943.49" y="458.41" class="st2" width="10.85" height="79.89"/>
	<rect x="954.34" y="458.41" class="st1" width="10.85" height="79.89"/>
	<rect x="921.79" y="458.39" class="st2" width="21.7" height="74.29"/>
	<rect x="896.94" y="458.41" class="st4" width="14.02" height="79.89"/>
	<rect x="910.96" y="458.41" class="st0" width="10.85" height="79.89"/>
	<rect x="814.65" y="458.41" class="st2" width="14.02" height="79.89"/>
	<rect x="828.67" y="458.41" class="st0" width="10.85" height="79.89"/>
	<rect x="861.2" y="458.41" class="st2" width="14.02" height="79.89"/>
	<rect x="875.22" y="458.41" class="st1" width="10.85" height="79.89"/>
	<rect x="792.95" y="458.39" class="st0" width="21.7" height="78.01"/>
	<rect x="782.12" y="458.39" class="st1" width="10.85" height="78.01"/>
	<rect x="846.77" y="458.39" class="st1" width="14.45" height="78.01"/>
	<rect x="839.52" y="458.39" class="st4" width="7.23" height="78.01"/>
	<rect x="875.22" y="458.39" class="st3" width="21.7" height="74.29"/>
	<rect x="997.74" y="458.41" class="st0" width="14.02" height="79.89"/>
	<rect x="1011.75" y="458.41" class="st2" width="10.85" height="79.89"/>
	<rect x="976.02" y="458.39" class="st1" width="21.7" height="78.01"/>
	<rect x="965.17" y="458.39" class="st0" width="10.85" height="78.01"/>
	<rect x="1029.83" y="458.39" class="st0" width="14.45" height="78.01"/>
	<rect x="1022.6" y="458.39" class="st5" width="7.23" height="78.01"/>
	<rect x="872.05" y="572.25" class="st2" width="10.85" height="79.89"/>
	<rect x="861.22" y="572.25" class="st1" width="10.85" height="79.89"/>
	<rect x="882.9" y="572.25" class="st2" width="21.7" height="74.29"/>
	<rect x="915.45" y="572.25" class="st4" width="14.02" height="79.89"/>
	<rect x="904.6" y="572.25" class="st0" width="10.85" height="79.89"/>
	<rect x="997.72" y="572.25" class="st2" width="14.02" height="79.89"/>
	<rect x="986.87" y="572.25" class="st0" width="10.85" height="79.89"/>
	<rect x="951.17" y="572.25" class="st2" width="14.02" height="79.89"/>
	<rect x="940.32" y="572.25" class="st1" width="10.85" height="79.89"/>
	<rect x="1011.73" y="572.25" class="st0" width="21.7" height="78.01"/>
	<rect x="1033.43" y="572.25" class="st1" width="10.85" height="78.01"/>
	<rect x="965.19" y="572.25" class="st1" width="14.45" height="78.01"/>
	<rect x="979.64" y="572.25" class="st4" width="7.23" height="78.01"/>
	<rect x="929.47" y="572.25" class="st3" width="21.7" height="74.29"/>
	<rect x="814.65" y="572.25" class="st0" width="14.02" height="79.89"/>
	<rect x="803.8" y="572.25" class="st2" width="10.85" height="79.89"/>
	<rect x="828.67" y="572.25" class="st1" width="21.7" height="78.01"/>
	<rect x="850.37" y="572.25" class="st0" width="10.85" height="78.01"/>
	<rect x="782.1" y="572.25" class="st0" width="14.45" height="78.01"/>
	<rect x="796.57" y="572.25" class="st5" width="7.23" height="78.01"/>
	<path class="st1" d="M482.32,101.34c1.76,9.4,2.93,26.99,2.93,47.16s-1.17,37.76-2.93,47.16c0.98,0.38,1.86,0.97,2.59,1.72
		c3.07,3.07,1.98,9.13,0,11.09c-1.98,1.96-8.02,3.05-11.07,0c-0.65-0.65-0.73-1.82-1.52-2.2c-6.55-3.25-19.07,2.53-32.57,2.53
		c-13.5,0-26.02-5.78-32.57-2.53c-2.63,1.29-3.96,4.49-7.07,4.49c-3.11,0-4.42-3.21-7.05-4.49c-6.55-3.23-19.07,2.53-32.57,2.53
		c-13.5,0-26.02-5.76-32.59-2.53c-0.77,0.38-0.85,1.54-1.5,2.2c-3.05,3.05-9.13,1.98-11.09,0s-3.05-8.02,0-11.09
		c0.77-0.77,2.12-0.83,2.61-1.72c4.59-8.39-2.95-26.99-2.95-47.16s7.54-38.79,2.95-47.16c-0.49-0.91-1.84-0.97-2.61-1.72
		c-3.05-3.07-1.98-9.13,0-11.09c1.98-1.96,8.04-3.07,11.09,0c0.65,0.65,0.73,1.8,1.5,2.2c6.57,3.25,19.09-2.51,32.59-2.51
		s26.02,5.76,32.57,2.53c2.63-1.31,3.96-4.49,7.05-4.49c3.09,0,4.44,3.19,7.07,4.49c6.55,3.23,19.07-2.53,32.57-2.53
		c13.5,0,26.02,5.76,32.57,2.53c0.79-0.4,0.87-1.54,1.52-2.2c3.05-3.07,9.13-1.98,11.07,0c1.94,1.98,3.07,7.92,0,11.09
		C484.17,100.37,483.29,100.95,482.32,101.34z"/>
	<path class="st5" d="M478.74,97.76c1.76,9.4,2.95,27.01,2.95,47.16c0,20.16-1.19,37.78-2.95,47.18c0.98,0.39,1.87,0.98,2.61,1.72
		c3.07,3.05,1.98,9.11,0,11.07c-1.98,1.96-7.92,3.07-11.09,0c-0.65-0.65-0.71-1.8-1.5-2.18c-6.55-3.25-19.07,2.51-32.57,2.51
		c-13.5,0-26.02-5.76-32.57-2.51c-2.63,1.29-3.96,4.47-7.07,4.47s-4.44-3.19-7.05-4.47c-6.57-3.25-19.09,2.51-32.59,2.51
		s-26.02-5.76-32.57-2.51c-0.79,0.38-0.85,1.52-1.5,2.18c-3.07,3.07-9.13,1.98-11.09,0c-1.96-1.98-3.07-8.02,0-11.07
		c0.77-0.77,2.12-0.83,2.61-1.72c4.59-8.39-2.95-27.01-2.95-47.18s7.54-38.77,2.95-47.16c-0.49-0.89-1.84-0.95-2.61-1.72
		c-3.07-3.05-1.98-9.13,0-11.07c1.98-1.94,8.02-3.07,11.09,0c0.65,0.65,0.71,1.8,1.5,2.18c6.55,3.25,19.07-2.51,32.57-2.51
		s26.02,5.76,32.59,2.51c2.61-1.29,3.96-4.47,7.05-4.47c3.09,0,4.44,3.19,7.07,4.47c6.55,3.25,19.07-2.51,32.57-2.51
		c13.5,0,26.08,5.76,32.57,2.51c0.79-0.38,0.85-1.52,1.5-2.18c3.07-3.07,9.13-1.98,11.09,0c1.96,1.98,3.07,7.92,0,11.07
		C480.6,96.79,479.72,97.37,478.74,97.76z"/>
	<rect x="326.2" y="97.72" class="st0" width="140.69" height="94.4"/>
	<rect x="335.88" y="104.24" class="st3" width="121.29" height="81.38"/>
	<circle class="st1" cx="376.35" cy="148.52" r="16.33"/>
	<polygon class="st0" points="439.81,132.17 411.24,156.05 439.81,164.82 	"/>
	<path class="st0" d="M356.06,120.69c18.61-11.42,41.7-3.17,56.86,9.8c2.34,1.98-1.03,5.35-3.37,3.37
		c-13.54-11.58-34.41-19.3-51.1-9.07C355.84,126.39,353.45,122.27,356.06,120.69z"/>
	<polygon class="st0" points="343.62,168.74 352.55,160.01 360.02,168.74 351.82,176.68 	"/>
	<path class="st5" d="M338.38,340.11c0,0,9.4,40.87,5.74,80.88c-2.12,20.97-5.55,41.79-10.28,62.33c0,0,42.73-4.93,93.06-6.61
		c41.29-1.34,82.61,1.72,123.25,9.13l34.27,3.43c0,0-21.15-91.47-3.66-147.11L338.38,340.11z"/>
	<polygon class="st0" points="589.75,355.39 325.25,354.52 325.25,332.44 588.74,328.25 	"/>
	<path class="st3" d="M383.58,332.03l-1.43-1.27l74.17-82.94c2.45-2.73,6.64-2.95,9.37-0.51c0.14,0.13,0.28,0.26,0.41,0.41
		l74.37,79.87l-1.39,1.31l-74.43-79.87c-0.91-0.96-2.18-1.51-3.5-1.5c-1.32,0.02-2.58,0.59-3.46,1.56L383.58,332.03z"/>
	<path class="st1" d="M463.65,248.89c0.01,1.29-1.03,2.35-2.32,2.36c-1.29,0.01-2.35-1.03-2.36-2.32s1.03-2.35,2.32-2.36
		c0.01,0,0.01,0,0.02,0c1.28-0.01,2.33,1.02,2.34,2.3C463.65,248.88,463.65,248.88,463.65,248.89z"/>
	<path class="st0" d="M497.68,384.36c-3.59,2.48-6.64,5.67-8.95,9.37l7.76,6.87c0.45-1.97,1.18-3.86,2.18-5.62
		c1.02-1.78,2.77-3.03,4.79-3.41c1.16-0.12,2.32,0.04,3.41,0.46c3.2,1.38,6.08,3.4,8.45,5.94c3.13-0.4,4.59-4.57,3.25-7.42
		c-1.61-2.74-4.32-4.67-7.44-5.29c2.87-3.33,5.95-6.48,9.23-9.42c-1.45-3.39-6.18-4.26-9.54-2.77c-3.26,1.79-5.99,4.41-7.92,7.58
		c1.05-1.41-6.55-9.9-8.12-10.34c-4.28-1.43-7.4,2.97-9.52,6.06C489.83,378.28,494.04,380.98,497.68,384.36z"/>
	<path class="st1" d="M377.46,459.1l-0.91-0.26L377.46,459.1z M376.59,458.86l-0.97-0.24v-0.2L376.59,458.86z"/>
	<path class="st1" d="M378.97,455.5l-1.74-0.77c1.07-2.44,2.26-4.93,3.52-7.4l0,0c0.59-1.15,1.25-2.36,1.98-3.6l1.66,0.93
		c-0.7,1.23-1.36,2.42-1.98,3.56l-0.85-0.44l0.85,0.44C381.18,450.55,380.02,453.08,378.97,455.5z"/>
	<path class="st1" d="M388.51,437.72l-1.6-1.03l0,0L388.51,437.72z M390.77,434.37l-1.56-1.09c1.64-2.32,3.35-4.51,5.05-6.51
		l0.73,0.63l-0.73-0.63c0.89-1.03,1.8-1.98,2.77-3.05l1.37,1.33c-0.93,0.97-1.82,1.98-2.69,2.97l0,0
		C394.03,429.97,392.37,432.11,390.77,434.37z M483.37,420.51h-0.65c-1.48,0-3.03,0-4.63-0.16v-1.98c1.6,0,3.13,0.12,4.59,0.14h0.61
		c0.89,0,1.84,0,2.81-0.12l0,0c1.31-0.1,2.63-0.28,3.96-0.49l0.32,1.88c-1.37,0.24-2.75,0.42-4.12,0.51v-0.97v0.97
		c-0.95,0.28-1.94,0.3-2.89,0.3V420.51z M473.94,420.11v-1.98h0.2L473.94,420.11z M404.25,419.58l-1.21-1.48h0.14L404.25,419.58z
		 M465.85,419.4c-1.33-0.16-2.69-0.32-4.06-0.51l0.12-0.93l-0.12,0.93c-2.71-0.36-5.43-0.79-8.08-1.27l0.34-1.98
		c2.63,0.49,5.33,0.91,7.92,1.29l0,0l3.96,0.49L465.85,419.4z M498.4,417.62l-0.69-1.78h0.18L498.4,417.62z M407.52,417.2l-1.05-1.6
		c2.31-1.54,4.78-2.84,7.37-3.86l0,0c1.29-0.5,2.62-0.92,3.96-1.27l0.46,1.84c-1.28,0.33-2.53,0.73-3.76,1.21l0,0
		c-2.45,1.01-4.78,2.27-6.97,3.76L407.52,417.2z M449.65,416.81l0.34-1.86h0.16L449.65,416.81z M502.24,415.7l-0.99-1.64
		c2.23-1.25,4.06-3.1,5.31-5.33l0,0c0.57-1.1,0.92-2.29,1.03-3.52l1.98,0.18c-0.15,1.47-0.57,2.9-1.25,4.22l-0.4-0.2l0.4,0.2
		c-1.41,2.58-3.52,4.72-6.08,6.18L502.24,415.7z M441.71,414.97l-3.96-1.07l0.26-0.93l-0.26,0.93l-3.46-1.03
		c-1.41-0.44-2.84-0.78-4.3-1.03l0.32-1.88c1.53,0.26,3.05,0.62,4.53,1.09l3.43,1.01l3.96,1.07L441.71,414.97z M426.01,411.46v-1.98
		h0.18L426.01,411.46z"/>
	<polygon class="st1" points="506.06,397.88 505.98,397.7 507.8,397.15 	"/>
</g>
<g id="freepik--Shadow--inject-3">
	<ellipse id="freepik--path--inject-3" class="st3" cx="684.02" cy="725.14" rx="383.89" ry="22.41"/>
</g>
<g id="freepik--Knowledges--inject-3">
	<path class="st6" d="M808.36,267.62c-8.22,9.35-19.05,15.36-28.67,22.93c-9.62,7.56-18.57,17.96-20,30.83
		c-1.52,13.72,5.8,26.71,7.09,40.45c2.38,25.34-17.98,48.9-41,52.75c-23.03,3.84-46.45-8.91-61.97-27.9
		c-8.16-10.02-14.69-22.12-16.26-35.44c-2.67-22.73,9.27-45.1,7.39-67.93c-2.12-25.74-21.11-45.88-40.49-60.76
		s-41.08-27.9-53.97-49.62c-15.52-26.15-14.87-61.56-1.8-89.26s37.18-47.97,63.79-59.18c26.61-11.21,55.62-13.86,84.09-12.87
		c17.4,0.67,35.01,2.79,51.16,9.9c16.16,7.11,30.83,19.8,38.19,36.97c8.77,20.41,6.26,43.56,1.13,65.99
		c-2.4,10.24-0.58,21.02,5.07,29.9c6.86,10.34,12.42,21.48,16.55,33.18C827.76,214.2,826.35,247.13,808.36,267.62z"/>
	<g class="st7">
		<path class="st8" d="M808.36,267.62c-8.22,9.35-19.05,15.36-28.67,22.93c-9.62,7.56-18.57,17.96-20,30.83
			c-1.52,13.72,5.8,26.71,7.09,40.45c2.38,25.34-17.98,48.9-41,52.75c-23.03,3.84-46.45-8.91-61.97-27.9
			c-8.16-10.02-14.69-22.12-16.26-35.44c-2.67-22.73,9.27-45.1,7.39-67.93c-2.12-25.74-21.11-45.88-40.49-60.76
			s-41.08-27.9-53.97-49.62c-15.52-26.15-14.87-61.56-1.8-89.26s37.18-47.97,63.79-59.18c26.61-11.21,55.62-13.86,84.09-12.87
			c17.4,0.67,35.01,2.79,51.16,9.9c16.16,7.11,30.83,19.8,38.19,36.97c8.77,20.41,6.26,43.56,1.13,65.99
			c-2.4,10.24-0.58,21.02,5.07,29.9c6.86,10.34,12.42,21.48,16.55,33.18C827.76,214.2,826.35,247.13,808.36,267.62z"/>
	</g>
	<circle class="st6" cx="610.92" cy="110.39" r="53.78"/>
	<g class="st9">
		<path class="st8" d="M618.12,60.5l6.77,3.96v6.47c0,0-5.15-0.71-6.77-3.5c0,0,1.39-0.59-2.57-2.97
			C611.59,62.08,612.5,59.31,618.12,60.5z"/>
		<path class="st8" d="M614.38,111.98l-3.96,1.98c0,0-1.17,2.26-0.93,2.18c0.24-0.08-0.87,4.67-0.63,4.75
			c0.24,0.08-2.26,2.1-2.26,2.1l-1.17,2.89v3.35l5.62,7.64l4.12,2.34l-3.58,19.64l1.48,0.53l18.69-13.7l1.25-3.37l5.54-2.18
			l2.95-7.7l3.37-3.96c0.15-1.27,0.15-2.55,0-3.82c-0.32,0-1.8,0.61-1.8,0.61l-2.81-2.1c-2.05-0.43-4.14-0.69-6.24-0.77
			c-0.3,0.32-1.23-3.62-1.23-3.62l-5.46-1.52l-5.68-3.74l-4.14,0.77L614.38,111.98z"/>
		<path class="st8" d="M603.77,102.29h3.03l4.28,2.26l7.92,1.98l0.38,0.63l-7.92-0.12l1.47-0.93l-1.17-0.73h-3.21l0.4-0.4
			l-3.31-1.68c0,0-2.08-0.49-2.14-0.26l-0.87,0.1L603.77,102.29z"/>
		<polygon class="st8" points="609.97,107.19 609.23,106.47 608.03,106.53 608.52,107.19 		"/>
		<path class="st8" d="M628.87,60.5h-0.93l6.57,3.96l1.05,1.15l6.55,3.76l1.29,1.64l1.05,3.62l3.5,2.81l-1.64,1.17l3.74,4.67h1.29
			l0.48-1.98l-2.81-5.84l3.96,2.18C647.09,69.39,638.6,63.35,628.87,60.5z"/>
		<path class="st8" d="M656.3,82.02h-1.01l-1.68-2.22l-1.8,4.91c0,0,1.11,5.72,1.21,6.08s-0.51,1.17-0.51,1.17l0.51,6.32l1.29,2.22
			l0.99,5.37l4.42,6.08l3.56-5.11l0.57,1.25C663.78,98.86,661.17,89.84,656.3,82.02z"/>
		<polygon class="st8" points="630.04,65.63 628.87,65.63 628.87,67.05 630.04,67.76 631.09,67.76 631.09,66.7 		"/>
		<polygon class="st8" points="637.17,68.46 638.91,70.34 639.39,71.9 641.15,73.61 641.84,72.56 643.13,73.61 643.13,72.44 
			642.2,71.03 		"/>
		<path class="st8" d="M624.89,80.85c-3.84,1.39-7.59,3.03-11.23,4.91c-1.86,1.37-2.84,3.64-2.55,5.94l-4.93,2.79l1.17,5.37
			l-1.17,0.71l-1.86-4.44c-3.07-0.47-6.18-0.62-9.29-0.46c-2.73,0.46-3.35,5.94-3.35,5.94l1.64,4.44l3.74,0.24l0.46-2.57l3.96,0.24
			l-2.57,4.91l4.67,0.69l0.48,3.46l4.67,3.56c0,0,0.93,1.17,0,1.62c-0.93,0.46-23.15-12.85-25.24-16.12
			c-2.1-3.27-4.79-12.28-2.69-18.59c1.72-5.13,4.89-9.9,5.94-12.97l0,0l0,0l0,0c0.01-0.09,0.01-0.17,0-0.26
			c0.22-0.99-0.41-1.97-1.41-2.19c-0.01,0-0.02-0.01-0.04-0.01c-0.81-0.24-2.34,0.69-2.34,0.69h-2.97l3.09-1.76l1.29-1.37l0.83-0.73
			l3.03-1.29l-0.04-1.15c1.76-1.06,3.7-1.79,5.72-2.16L591.69,62h2.34l0.48,2.65h4.67c0,0-1.17-0.32,1.64-1.86
			c2.81-1.54,11.92-2.3,11.92-2.3l-2.81,3.96l6.08,3.43l-0.69,2.57l-4.2-1.17v-1.41l-2.59-1.45l-0.22,2.73l-0.95,1.17l-1.17-0.93
			l-3.35,3.27l5.94,5.64l0.93-7.35l8.43,1.86L624.89,80.85z"/>
	</g>
	<path class="st6" d="M793.43,198.88c-2.85-1.74-6.61-2.85-9.42-1.05c-2.81,1.8-3.41,6.16-3.45,9.76
		c-4.93-2.83-11.88-0.22-14.49,4.81c-2.44,5.29-1.57,11.51,2.22,15.94c3.83,4.29,9.08,7.03,14.79,7.72
		c5.52,0.83,9.62-0.32,12.73-4.99c2.24-3.35,5.33-4.93,7.7-7.92C809.35,215.73,799.74,202.74,793.43,198.88z"/>
	<path class="st6" d="M774.06,200.02c0.52-0.55,0.86-1.24,0.99-1.98c1.88,3.7,4.26,7.07,6.43,10.61
		C780.74,207.9,773.53,200.56,774.06,200.02z"/>
	<path class="st6" d="M776.7,197.97c0.17-1.88,0.55-3.74,1.13-5.54c1.41,1.47,2.47,3.23,3.11,5.17c0.48,1.97,0.06,4.05-1.15,5.68
		C777.57,206.22,776.62,199.29,776.7,197.97z"/>
	<path class="st8" d="M770.42,213.29c-0.88,0.19-1.43,1.06-1.24,1.93c0.19,0.88,1.06,1.43,1.93,1.24c0.52-0.11,0.95-0.47,1.15-0.96
		c0.3-0.92-0.21-1.9-1.12-2.19c-0.17-0.05-0.34-0.08-0.52-0.08L770.42,213.29z"/>
	<path class="st8" d="M783.15,232.26c0.28,0.05,0.56,0,0.81-0.14c0.42-0.28,0.3-0.99-0.1-1.35c-0.43-0.29-0.93-0.48-1.45-0.53
		c-3.39-0.75-6.2-3.13-7.48-6.36c-0.26-0.83-0.59-1.64-0.99-2.42c-1.03-1.76-3.5-1.98-3.96,0.22c-0.4,1.64,1.62,3.96,2.59,5.07
		C775.26,229.88,779.05,231.85,783.15,232.26z"/>
	<path class="st6" d="M735.2,53.98c0.02,12.78,10.4,23.13,23.19,23.11c12.78-0.02,23.13-10.4,23.11-23.19
		c-0.02-12.77-10.38-23.11-23.15-23.11C745.55,30.81,735.19,41.19,735.2,53.98L735.2,53.98z M754.48,36.86
		c-0.76,0.29-1.6,0.29-2.36,0c0.36,1.62-1.23,3.05-2.73,3.96c-1.98,1.07-4.12,1.5-4.53-0.24c-0.26-1.03,0.53-2.51,2.51-3.96
		c1.1-0.82,2.5-1.13,3.84-0.85c-0.16-0.97,0.71-1.98,1.98-2.49s2.87,0,3.21,0.95C756.74,35.18,755.91,36.38,754.48,36.86z
		 M765.73,44.78c-1.01,1.47-3.01,1.85-4.49,0.84c-1.39-0.95-1.81-2.81-0.98-4.27c0.89-1.55,2.86-2.08,4.4-1.2
		c1.55,0.89,2.08,2.86,1.2,4.4C765.82,44.63,765.78,44.71,765.73,44.78z M754.9,71.21c0-1.37,1.11-2.47,2.47-2.47
		c1.37,0,2.47,1.11,2.47,2.47c0,1.37-1.11,2.47-2.47,2.47C756.01,73.68,754.9,72.58,754.9,71.21z M754.24,62.72
		c0-1.56,1.27-2.83,2.83-2.83h0.2c-1.07-5.67,2.65-11.14,8.33-12.22c1.73-0.33,3.52-0.21,5.2,0.34c0.91-2.13,3.37-3.13,5.51-2.22
		s3.13,3.37,2.22,5.51c-0.34,0.8-0.91,1.47-1.65,1.92c2.61,5.16,0.54,11.46-4.62,14.07c-0.58,0.29-1.19,0.53-1.82,0.72
		c0.62,1.02,0.3,2.35-0.72,2.97c-1.02,0.62-2.35,0.3-2.97-0.72c-0.35-0.57-0.41-1.27-0.17-1.89c-1.63-0.15-3.19-0.69-4.57-1.56
		c-1.05-0.61-1.98-1.4-2.75-2.34c-0.53,0.67-1.34,1.06-2.2,1.05C755.51,65.5,754.27,64.26,754.24,62.72z M748.03,46.22
		c-0.12-1.16,0.72-2.21,1.89-2.33c0.49-0.05,0.99,0.07,1.4,0.35c0.08-1.78,1.59-3.16,3.37-3.08c1.78,0.08,3.16,1.59,3.08,3.37
		c-0.08,1.78-1.59,3.16-3.37,3.08c-0.84-0.04-1.63-0.4-2.21-1.01c-0.25,0.84-0.99,1.44-1.86,1.52
		C749.17,48.23,748.14,47.38,748.03,46.22z M744.96,65.67c0-0.89,0.72-1.6,1.6-1.6c0.89,0,1.6,0.72,1.6,1.6c0,0.89-0.72,1.6-1.6,1.6
		l0,0C745.68,67.27,744.96,66.55,744.96,65.67z M741.83,47.57c-0.07-1.17,0.82-2.17,1.98-2.25c1.17-0.07,2.17,0.82,2.25,1.98
		c0.07,1.15-0.79,2.14-1.93,2.24C742.95,49.63,741.92,48.75,741.83,47.57z"/>
	<path class="st6" d="M735.2,53.98c0.02,12.78,10.4,23.13,23.19,23.11c12.78-0.02,23.13-10.4,23.11-23.19
		c-0.02-12.77-10.38-23.11-23.15-23.11C745.55,30.81,735.19,41.19,735.2,53.98L735.2,53.98z M754.48,36.86
		c-0.76,0.29-1.6,0.29-2.36,0c0.36,1.62-1.23,3.05-2.73,3.96c-1.98,1.07-4.12,1.5-4.53-0.24c-0.26-1.03,0.53-2.51,2.51-3.96
		c1.1-0.82,2.5-1.13,3.84-0.85c-0.16-0.97,0.71-1.98,1.98-2.49s2.87,0,3.21,0.95C756.74,35.18,755.91,36.38,754.48,36.86z
		 M765.73,44.78c-1.01,1.47-3.01,1.85-4.49,0.84c-1.39-0.95-1.81-2.81-0.98-4.27c0.89-1.55,2.86-2.08,4.4-1.2
		c1.55,0.89,2.08,2.86,1.2,4.4C765.82,44.63,765.78,44.71,765.73,44.78z M754.9,71.21c0-1.37,1.11-2.47,2.47-2.47
		c1.37,0,2.47,1.11,2.47,2.47c0,1.37-1.11,2.47-2.47,2.47C756.01,73.68,754.9,72.58,754.9,71.21z M754.24,62.72
		c0-1.56,1.27-2.83,2.83-2.83h0.2c-1.07-5.67,2.65-11.14,8.33-12.22c1.73-0.33,3.52-0.21,5.2,0.34c0.91-2.13,3.37-3.13,5.51-2.22
		s3.13,3.37,2.22,5.51c-0.34,0.8-0.91,1.47-1.65,1.92c2.61,5.16,0.54,11.46-4.62,14.07c-0.58,0.29-1.19,0.53-1.82,0.72
		c0.62,1.02,0.3,2.35-0.72,2.97c-1.02,0.62-2.35,0.3-2.97-0.72c-0.35-0.57-0.41-1.27-0.17-1.89c-1.63-0.15-3.19-0.69-4.57-1.56
		c-1.05-0.61-1.98-1.4-2.75-2.34c-0.53,0.67-1.34,1.06-2.2,1.05C755.51,65.5,754.27,64.26,754.24,62.72z M748.03,46.22
		c-0.12-1.16,0.72-2.21,1.89-2.33c0.49-0.05,0.99,0.07,1.4,0.35c0.08-1.78,1.59-3.16,3.37-3.08c1.78,0.08,3.16,1.59,3.08,3.37
		c-0.08,1.78-1.59,3.16-3.37,3.08c-0.84-0.04-1.63-0.4-2.21-1.01c-0.25,0.84-0.99,1.44-1.86,1.52
		C749.17,48.23,748.14,47.38,748.03,46.22z M744.96,65.67c0-0.89,0.72-1.6,1.6-1.6c0.89,0,1.6,0.72,1.6,1.6c0,0.89-0.72,1.6-1.6,1.6
		l0,0C745.68,67.27,744.96,66.55,744.96,65.67z M741.83,47.57c-0.07-1.17,0.82-2.17,1.98-2.25c1.17-0.07,2.17,0.82,2.25,1.98
		c0.07,1.15-0.79,2.14-1.93,2.24C742.95,49.63,741.92,48.75,741.83,47.57z"/>
	<path class="st2" d="M744.96,65.67c0,0.89,0.72,1.6,1.61,1.6c0.88,0,1.6-0.72,1.6-1.6c0-0.89-0.72-1.6-1.61-1.6
		C745.68,64.07,744.96,64.78,744.96,65.67z"/>
	<path class="st6" d="M744.74,65.67c0-1.02,0.82-1.84,1.84-1.84s1.84,0.82,1.84,1.84c0,1.02-0.82,1.84-1.84,1.84
		c-0.01,0-0.01,0-0.02,0c-1.01,0-1.82-0.82-1.82-1.82C744.74,65.68,744.74,65.67,744.74,65.67z"/>
	<path class="st6" d="M754.66,71.21c-0.01-1.5,1.19-2.72,2.69-2.73c1.5-0.01,2.72,1.19,2.73,2.69c0.01,1.5-1.19,2.72-2.69,2.73
		c-0.01,0-0.01,0-0.02,0C755.88,73.9,754.67,72.7,754.66,71.21z"/>
	<path class="st6" d="M761.23,46.03c-0.77-0.49-1.32-1.27-1.52-2.16c-0.2-0.89-0.04-1.83,0.44-2.61c1.01-1.63,3.14-2.13,4.77-1.12
		s2.13,3.14,1.12,4.77c-0.49,0.79-1.28,1.35-2.19,1.55c-0.26,0.03-0.52,0.03-0.77,0C762.43,46.48,761.8,46.33,761.23,46.03z"/>
	<path class="st6" d="M748.62,47.85c-0.48-0.4-0.78-0.98-0.83-1.6c-0.06-0.62,0.14-1.24,0.55-1.7c0.39-0.49,0.96-0.79,1.58-0.85
		c0.41-0.02,0.81,0.05,1.19,0.22c0.26-1.89,2-3.2,3.88-2.95c1.62,0.22,2.86,1.55,2.97,3.18c0.17,1.88-1.22,3.55-3.1,3.72
		c-0.01,0-0.02,0-0.03,0c-0.94,0.09-1.87-0.21-2.57-0.83c-0.36,0.78-1.12,1.3-1.98,1.35h-0.22
		C749.54,48.37,749.03,48.18,748.62,47.85z"/>
	<path class="st6" d="M741.61,47.59L741.61,47.59c-0.08-1.3,0.9-2.42,2.2-2.5c1.25-0.08,2.35,0.84,2.49,2.09
		c0.1,1.3-0.86,2.44-2.16,2.55h-0.2C742.73,49.72,741.72,48.8,741.61,47.59z"/>
	<g class="st10">
		<path class="st8" d="M745.89,62.34L745.89,62.34c0.12-0.05,0.18-0.18,0.14-0.3c-1.29-3.78-0.28-11.36-0.28-11.44
			c0.03-0.1-0.02-0.22-0.13-0.25c-0.02-0.01-0.05-0.01-0.07-0.01c-0.12-0.02-0.23,0.06-0.25,0.17c0,0.01,0,0.02,0,0.02
			c0,0.32-1.03,7.78,0.3,11.66c0.03,0.12,0.15,0.18,0.27,0.15C745.87,62.35,745.88,62.34,745.89,62.34z"/>
	</g>
	<path class="st11" d="M743.28,64.46c0.06,0.02,0.12,0.02,0.18,0c0.09-0.08,0.09-0.22,0.01-0.31c0,0-0.01-0.01-0.01-0.01
		c-1.8-1.43-3.1-3.4-3.7-5.62c0-0.13-0.11-0.23-0.24-0.23c-0.13,0-0.23,0.11-0.23,0.24c0,0.04,0.01,0.09,0.04,0.12
		c0.62,2.29,1.96,4.32,3.82,5.8C743.18,64.48,743.23,64.48,743.28,64.46z"/>
	<path class="st11" d="M753.31,67.71c0.13,0,0.24-0.11,0.24-0.24c0-0.13-0.11-0.24-0.24-0.24c-1.12-0.04-2.23-0.22-3.31-0.55
		c-0.13-0.04-0.26,0.03-0.3,0.16c0,0,0,0,0,0c-0.04,0.13,0.03,0.26,0.16,0.3c0,0,0,0,0,0c1.11,0.33,2.26,0.52,3.43,0.57
		L753.31,67.71z"/>
	<path class="st11" d="M744.88,71.72c0.1,0,0.19-0.06,0.22-0.16l0.79-2.91c0.04-0.13-0.03-0.26-0.16-0.3c0,0,0,0,0,0
		c-0.13-0.02-0.25,0.05-0.28,0.18l-0.79,2.89c-0.04,0.13,0.03,0.26,0.16,0.3c0,0,0,0,0,0L744.88,71.72z"/>
	<path class="st11" d="M739.91,67.73L739.91,67.73c1.19-0.07,2.34-0.38,3.41-0.91c0.1-0.08,0.11-0.23,0.03-0.33
		c-0.06-0.07-0.14-0.1-0.23-0.08c-1.01,0.5-2.12,0.8-3.25,0.87c-0.12,0.01-0.22,0.11-0.22,0.24
		C739.67,67.63,739.78,67.73,739.91,67.73z"/>
	<path class="st11" d="M748.76,63.29c0.09,0,0.17-0.04,0.22-0.12c0.91-1.98,4.3-8.65,4.32-8.71c0.06-0.11,0.01-0.26-0.1-0.32
		c-0.09-0.07-0.22-0.07-0.32,0c0,0-3.43,6.75-4.34,8.73c-0.05,0.11-0.01,0.24,0.1,0.29c0.01,0,0.01,0,0.02,0.01L748.76,63.29z"/>
	<path class="st11" d="M753.15,73.84c0.08,0,0.16-0.04,0.2-0.12c0.08-0.09,0.08-0.23,0-0.32c-2.1-1.24-3.85-3-5.07-5.11
		c-0.09-0.08-0.23-0.08-0.32,0c-0.07,0.09-0.07,0.22,0,0.32c1.25,2.19,3.06,4.02,5.23,5.31L753.15,73.84z"/>
	<path class="st6" d="M745.55,41.65c-0.49-0.21-0.83-0.65-0.93-1.17l0,0c-0.3-1.23,0.71-2.81,2.61-4.12
		c1.09-0.77,2.42-1.11,3.74-0.97c0.19-1.17,1.07-2.11,2.22-2.4c0.7-0.22,1.45-0.22,2.16,0c0.61,0.16,1.11,0.6,1.35,1.19
		c0.38,1.11-0.59,2.46-2.16,2.97c-0.7,0.22-1.44,0.22-2.14,0c0,1.98-2.16,3.31-2.89,3.72c-0.93,0.54-1.97,0.86-3.05,0.95
		C746.15,41.84,745.84,41.78,745.55,41.65z"/>
	<path class="st6" d="M766.14,69.13c-0.02-0.17-0.02-0.34,0-0.51c-1.57-0.18-3.08-0.72-4.42-1.56c-0.94-0.59-1.77-1.34-2.47-2.2
		c-1.17,1.22-3.11,1.27-4.34,0.1c-1.22-1.17-1.27-3.11-0.1-4.34c0.55-0.57,1.29-0.91,2.08-0.94c-0.08-0.55-0.12-1.11-0.12-1.66
		c-0.03-5.88,4.71-10.68,10.59-10.71c1.11-0.01,2.21,0.16,3.27,0.49c1.01-2.23,3.64-3.22,5.87-2.21c2.23,1.01,3.22,3.64,2.21,5.87
		c-0.35,0.78-0.92,1.44-1.64,1.9c2.57,5.33,0.32,11.73-5.01,14.3c-0.45,0.22-0.91,0.4-1.39,0.55c0.12,0.3,0.18,0.61,0.18,0.93
		c0.12,1.31-0.84,2.46-2.15,2.58c-1.31,0.12-2.46-0.84-2.58-2.15c-0.01-0.14-0.01-0.29,0-0.43H766.14z"/>
	<g class="st10">
		<path d="M766.14,69.13c-0.02-0.17-0.02-0.34,0-0.51c-1.57-0.18-3.08-0.72-4.42-1.56c-0.94-0.59-1.77-1.34-2.47-2.2
			c-1.17,1.22-3.11,1.27-4.34,0.1c-1.22-1.17-1.27-3.11-0.1-4.34c0.55-0.57,1.29-0.91,2.08-0.94c-0.08-0.55-0.12-1.11-0.12-1.66
			c-0.03-5.88,4.71-10.68,10.59-10.71c1.11-0.01,2.21,0.16,3.27,0.49c1.01-2.23,3.64-3.22,5.87-2.21c2.23,1.01,3.22,3.64,2.21,5.87
			c-0.35,0.78-0.92,1.44-1.64,1.9c2.57,5.33,0.32,11.73-5.01,14.3c-0.45,0.22-0.91,0.4-1.39,0.55c0.12,0.3,0.18,0.61,0.18,0.93
			c0.12,1.31-0.84,2.46-2.15,2.58c-1.31,0.12-2.46-0.84-2.58-2.15c-0.01-0.14-0.01-0.29,0-0.43H766.14z"/>
	</g>
	<path class="st11" d="M766.7,58.52c-0.3-0.19-0.51-0.5-0.57-0.85c-0.16-0.73,0.31-1.44,1.03-1.6c0.01,0,0.01,0,0.02,0
		c0.35-0.07,0.71,0,1.01,0.2c0.31,0.19,0.52,0.5,0.59,0.85c0.06,0.36-0.01,0.72-0.2,1.03c-0.2,0.29-0.51,0.5-0.85,0.57h-0.3
		C767.17,58.73,766.91,58.66,766.7,58.52z"/>
	<g class="st10">
		<path d="M744.96,65.53c0,0.89,0.72,1.6,1.6,1.6c0.89,0,1.6-0.72,1.6-1.6c0-0.89-0.72-1.6-1.6-1.6l0,0
			C745.68,63.92,744.96,64.64,744.96,65.53z"/>
		<path d="M744.74,65.53c0-1.02,0.82-1.84,1.84-1.84s1.84,0.82,1.84,1.84c0,1.02-0.82,1.84-1.84,1.84c-0.01,0-0.01,0-0.02,0
			c-1.01,0-1.82-0.82-1.82-1.82C744.74,65.54,744.74,65.53,744.74,65.53z"/>
		<path d="M754.66,71.09c-0.01-1.5,1.19-2.72,2.69-2.73c1.5-0.01,2.72,1.19,2.73,2.69c0.01,1.5-1.19,2.72-2.69,2.73
			c-0.01,0-0.01,0-0.02,0C755.88,73.78,754.67,72.58,754.66,71.09z"/>
		<path d="M761.23,45.89c-0.78-0.48-1.32-1.25-1.52-2.14c-0.2-0.89-0.04-1.83,0.44-2.61c1.02-1.64,3.17-2.15,4.81-1.13
			c1.64,1.02,2.15,3.17,1.13,4.81c-0.5,0.77-1.27,1.31-2.16,1.52c-0.9,0.19-1.83,0.03-2.61-0.46L761.23,45.89z"/>
		<path d="M748.62,47.73c-0.47-0.41-0.77-0.98-0.83-1.6c-0.06-0.63,0.14-1.25,0.55-1.72c0.4-0.47,0.97-0.77,1.58-0.83
			c0.41-0.03,0.82,0.04,1.19,0.22c0.29-1.88,2.05-3.17,3.93-2.88c1.88,0.29,3.17,2.05,2.88,3.93c-0.29,1.88-2.05,3.17-3.93,2.88
			c-0.64-0.1-1.24-0.38-1.73-0.8c-0.37,0.77-1.13,1.29-1.98,1.35h-0.22C749.54,48.25,749.03,48.06,748.62,47.73z"/>
		<path d="M741.61,47.45L741.61,47.45c-0.11-1.29,0.84-2.42,2.12-2.53c0.01,0,0.01,0,0.02,0c1.29-0.11,2.42,0.85,2.53,2.14
			c0.11,1.29-0.85,2.42-2.14,2.53h-0.2C742.73,49.58,741.72,48.66,741.61,47.45z"/>
		<path d="M745.55,41.53c-0.48-0.22-0.82-0.65-0.93-1.17l0,0c-0.3-1.25,0.71-2.81,2.61-4.12c1.09-0.77,2.42-1.12,3.74-0.99
			c0.2-1.16,1.07-2.1,2.22-2.38c0.68-0.24,1.4-0.27,2.1-0.1c0.62,0.14,1.13,0.58,1.35,1.17c0.38,1.13-0.59,2.46-2.16,2.99
			c-0.7,0.21-1.44,0.21-2.14,0c0,1.98-2.16,3.31-2.89,3.7c-0.93,0.55-1.97,0.89-3.05,0.97C746.12,41.64,745.83,41.61,745.55,41.53z"
			/>
	</g>
	<polygon class="st6" points="708.35,198.78 704.25,181.29 706.57,180.74 709.1,191.55 719.54,169.16 760.1,174.84 759.77,177.2 
		720.94,171.75 	"/>
	<path class="st8" d="M640.46,185.97l-3.17,2.46l6.32,5.54l-2.63,1.98l-6.34-5.56l-3.39,2.61l7.42,6.51l-2.73,1.98l-10.53-9.25
		l14.65-11.23l10.28,9.03l-2.73,1.98L640.46,185.97z"/>
	<path class="st8" d="M649.62,203.69l9.25,8.12l-2.53,1.98l-9.27-8.12L649.62,203.69z M654.81,199.73l9.25,8.12l-2.55,1.98
		l-9.25-8.12L654.81,199.73z"/>
	<path class="st8" d="M686.13,233.05c-0.37,0.44-0.8,0.83-1.27,1.17l-6.24,4.79l-3.03-2.65l5.94-4.61c0.29-0.22,0.55-0.46,0.79-0.73
		c0.79-0.75,0.83-2,0.08-2.8c-0.1-0.1-0.2-0.19-0.32-0.27c-1.48-1.28-3.7-1.18-5.05,0.24l-5.78,4.42l-3.03-2.65l5.94-4.61
		c0.28-0.21,0.54-0.45,0.77-0.71c0.8-0.75,0.84-2,0.09-2.8c-0.09-0.1-0.2-0.19-0.31-0.27c-1.49-1.31-3.75-1.2-5.11,0.24l-5.72,4.4
		l-3.03-2.65l11.27-8.63l2.87,2.51l-1.19,0.89c1.62-0.04,3.18,0.55,4.38,1.64c1.38,1.06,2.04,2.81,1.7,4.51c2-0.22,4,0.43,5.48,1.78
		c2.05,1.36,2.62,4.12,1.26,6.17C686.5,232.64,686.32,232.85,686.13,233.05z"/>
	<path class="st8" d="M685.68,237.17c2.81-3.36,7.8-3.8,11.16-1c0.19,0.16,0.37,0.33,0.55,0.5c2.13,1.54,3.11,4.22,2.47,6.77
		l-3.7-0.97c0.4-1.27-0.03-2.65-1.09-3.46c-1.75-1.51-4.38-1.31-5.89,0.43c-0.07,0.08-0.14,0.17-0.21,0.26
		c-1.15,1.14-1.16,3-0.02,4.14c0.12,0.12,0.25,0.23,0.39,0.33c1.03,0.93,2.47,1.25,3.8,0.85l1.01,3.35
		c-2.56,0.66-5.27-0.04-7.19-1.86C683.64,243.68,683.2,239.98,685.68,237.17z"/>
	<path class="st8" d="M704.17,247.27l3.56,3.15l-1.74,1.35l-6.77-5.94l1.39-1.09l6.43,0.67c1.54,0.14,2.18,0,2.59-0.49
		c0.42-0.49,0.32-1.23-0.55-1.98c-0.72-0.65-1.67-0.96-2.63-0.87l-0.46-2.14c1.82-0.25,3.66,0.37,4.97,1.66
		c1.98,1.68,2.3,3.66,1.09,5.03c-0.77,0.89-1.62,1.29-4.53,1.01L704.17,247.27z"/>
	<path class="st6" d="M732.09,293.6l-25.42-16.14l53.46-27.92L732.09,293.6z M710.63,277.62l20.91,13.25l22.95-36.13L710.63,277.62z
		"/>
	<path class="st6" d="M732.09,293.6l-11.27-7.15l0.49-0.83c2.77-4.66,8.31-6.89,13.54-5.46c1.28,0.35,2.49,0.91,3.58,1.64l0.79,0.55
		L732.09,293.6z M723.61,285.84l7.92,5.03l5.05-7.92c-0.69-0.37-1.42-0.67-2.18-0.89C730.37,280.96,726.08,282.46,723.61,285.84z"/>
	<path class="st6" d="M697.5,360.16c-3.15,0.36-6.32-0.56-8.79-2.55c-2.46-1.99-4.48-4.46-5.94-7.27c-1.61-2.71-2.61-5.74-2.93-8.87
		c-0.31-3.17,0.78-6.32,2.97-8.63c2.32-2.04,5.36-3.05,8.43-2.81c8.8,0.4,15.62,7.86,15.22,16.66c-0.07,1.64-0.4,3.26-0.97,4.8
		C704.11,355.51,702.17,359.47,697.5,360.16z"/>
	<path class="st6" d="M706.11,313.08c12.72,0.99,22.6,11.5,22.81,24.25c0,4.22-1.27,8.55,0,12.57c0.83,2.57,2.63,4.97,2.34,7.64
		c-0.4,3.52-4.14,5.5-7.4,6.89c-3.01,1.49-6.26,2.41-9.6,2.71c-3.4,0.25-6.66-1.42-8.45-4.32c-0.75-1.48-3.5-7.76-5.17-7.72
		s-7.05,3.66-9.03,0.59c-1.21-1.88-2.36-1.64-0.48-2.85c-2.85,0.26,0.3,6.36-2.42,4.75c-7.62-4.49-10.39-15.84-10.89-19.66
		c-0.85-6.67,2.83-13.34,8.14-17.46C691.72,315.93,698.78,313.34,706.11,313.08z"/>
	<g class="st9">
		<path class="st8" d="M706.11,313.08c12.72,0.99,22.6,11.5,22.81,24.25c0,4.22-1.27,8.55,0,12.57c0.83,2.57,2.63,4.97,2.34,7.64
			c-0.4,3.52-4.14,5.5-7.4,6.89c-3.01,1.49-6.26,2.41-9.6,2.71c-3.4,0.25-6.66-1.42-8.45-4.32c-0.75-1.48-3.5-7.76-5.17-7.72
			s-7.05,3.66-9.03,0.59c-1.21-1.88-2.36-1.64-0.48-2.85c-2.85,0.26,0.3,6.36-2.42,4.75c-7.62-4.49-10.39-15.84-10.89-19.66
			c-0.85-6.67,2.83-13.34,8.14-17.46C691.72,315.93,698.78,313.34,706.11,313.08z"/>
	</g>
	<path class="st6" d="M707.52,332.9c0.77,2.63,0.39,5.47-1.05,7.8c-1.23,2.46-3.62,4.13-6.36,4.44c-2.71-0.02-5.14-1.66-6.18-4.16
		c-0.95-2.51-0.69-5.31,0.69-7.6c1.19-1.98,3.96-4.93,6.51-5.21S706.71,330.48,707.52,332.9z"/>
	<path class="st6" d="M711.91,330.6c0.36,2.41,1.71,4.57,3.72,5.94c1.92,1.53,4.48,2,6.81,1.25c2.2-1,3.58-3.23,3.48-5.64
		c-0.14-2.39-1.37-4.58-3.35-5.94c-2.06-1.56-4.67-2.23-7.23-1.84C713,325.5,711.62,328,711.91,330.6z"/>
	<path class="st6" d="M717.18,340.6c0.76,0.31,1.39,0.87,1.8,1.58c0.36,1.17-0.29,2.41-1.46,2.77c-0.07,0.02-0.15,0.04-0.22,0.06
		c-1.27,0.18-2.53-0.39-3.23-1.47c0,0.84-0.33,1.64-0.91,2.24c-0.6,0.61-1.55,0.71-2.26,0.24c-0.5-0.46-0.72-1.15-0.59-1.82
		c0.16-0.65,0.43-1.28,0.79-1.84c0.46-0.81,1.47-3.52,2.4-3.7C714.43,338.48,716.45,340.2,717.18,340.6z"/>
	<path class="st6" d="M726.5,349.27c0,0.65,0.65,1.58,0.55,2.24c-0.77,0.67-1.61,1.25-2.51,1.72c-5.03,2.35-10.3,4.14-15.72,5.35
		c-0.67-1.66-1.92-3.01-3.52-3.8c1.81-0.08,3.44,1.08,3.96,2.81c5.96-1.2,11.69-3.34,16.99-6.34c-0.22-1.19-0.81-3.33,1.13-3.64
		C727.32,347.59,726.82,347.59,726.5,349.27z"/>
	<polygon class="st4" points="710.94,147.04 702.84,144.55 701.52,140.92 714.09,144.8 	"/>
	<path class="st6" d="M733.89,116.73c-1.46,4.68-4.85,8.53-9.31,10.57c-2.98,1.29-5.25,3.8-6.24,6.89l-0.4,1.25l-14.37-4.42
		l0.4-1.27c0.91-3.11,0.45-6.46-1.27-9.21c-4.95-8.12-2.38-18.72,5.74-23.67c4.49-2.74,9.99-3.27,14.93-1.45
		C731.95,98.64,736.55,107.97,733.89,116.73z"/>
	<path class="st12" d="M733.89,116.73c-1.46,4.68-4.85,8.53-9.31,10.57c-2.98,1.29-5.25,3.8-6.24,6.89l-0.4,1.25l-14.37-4.42
		l0.4-1.27c0.91-3.11,0.45-6.46-1.27-9.21c-4.95-8.12-2.38-18.72,5.74-23.67c4.49-2.74,9.99-3.27,14.93-1.45
		C731.95,98.64,736.55,107.97,733.89,116.73z"/>
	
		<rect x="699.9" y="122.4" transform="matrix(0.0976 -0.9952 0.9952 0.0976 517.4368 816.4882)" class="st6" width="18.1" height="1.03"/>
	
		<rect x="709.04" y="125.23" transform="matrix(0.4792 -0.8777 0.8777 0.4792 263.6436 695.7872)" class="st6" width="18.1" height="1.03"/>
	<polygon class="st6" points="715.85,123.84 714.96,119.62 711.85,122.61 709.44,117.14 710.39,116.73 712.21,120.83 715.6,117.56 
		716.57,122.17 720.37,119.8 720.92,120.69 	"/>
	<polygon class="st6" points="718.09,135 715.36,143.89 700.96,139.52 703.7,130.63 	"/>
	
		<rect x="707.49" y="134.76" transform="matrix(0.289 -0.9573 0.9573 0.289 367.1622 778.9484)" class="st6" width="1.03" height="15.05"/>
	
		<rect x="711.54" y="124.14" transform="matrix(0.2892 -0.9573 0.9573 0.2892 380.0845 775.2456)" class="st6" width="1.03" height="15.09"/>
	<g class="st13">
		<rect x="711.54" y="124.14" transform="matrix(0.2892 -0.9573 0.9573 0.2892 380.0845 775.2456)" width="1.03" height="15.09"/>
	</g>
	<g class="st13">
		<rect x="707.49" y="134.76" transform="matrix(0.289 -0.9573 0.9573 0.289 367.1622 778.9484)" width="1.03" height="15.05"/>
	</g>
</g>
<g id="freepik--Sheets--inject-3">
	<rect x="414.35" y="644.3" class="st6" width="96.84" height="24.08"/>
	<rect x="414.66" y="644.42" class="st14" width="96.84" height="24.08"/>
	<rect x="414.35" y="644.42" class="st14" width="74.33" height="24.08"/>
	<polygon class="st6" points="414.84,665.33 511.21,668.32 511.09,665.88 414.78,664.62 	"/>
	<polygon class="st6" points="511.21,654.2 414.98,648.78 414.98,649.59 511.21,656.02 	"/>
	<polygon class="st6" points="511.21,646.92 414.98,649.13 414.98,649.91 511.21,648.76 	"/>
	<polygon class="st6" points="511.46,658.91 415.24,663.61 415.24,662.89 511.46,657.31 	"/>
	<polygon class="st6" points="414.61,644.62 510.81,644.7 510.81,645.49 414.61,645.49 	"/>
	<rect x="421.32" y="572.59" class="st6" width="96.84" height="24.08"/>
	<rect x="421.61" y="572.71" class="st14" width="96.84" height="24.08"/>
	<rect x="421.32" y="572.71" class="st14" width="74.33" height="24.08"/>
	<polygon class="st6" points="421.77,593.62 518.14,596.61 518.04,594.17 421.73,592.9 	"/>
	<polygon class="st6" points="518.14,582.49 421.93,577.06 421.93,577.88 518.14,584.31 	"/>
	<polygon class="st6" points="518.14,575.2 421.93,577.42 421.93,578.21 518.14,577.04 	"/>
	<polygon class="st6" points="518.41,587.2 422.19,591.89 422.19,591.2 518.41,585.6 	"/>
	<rect x="420.09" y="619.89" class="st6" width="96.84" height="24.08"/>
	<rect x="420.41" y="620.01" class="st14" width="96.84" height="24.08"/>
	<rect x="420.31" y="620.01" class="st14" width="74.33" height="24.08"/>
	<polygon class="st6" points="516.53,640.2 420.21,641.47 420.11,643.91 516.47,640.92 	"/>
	<polygon class="st6" points="420.72,620.21 516.95,620.31 516.95,621.1 420.72,621.1 	"/>
	<polygon class="st6" points="420.11,631.61 516.31,625.18 516.31,624.37 420.11,629.79 	"/>
	<polygon class="st6" points="516.95,622.5 420.72,624.72 420.72,625.51 516.95,624.35 	"/>
	<polygon class="st6" points="517.21,634.52 420.98,639.19 420.98,638.5 517.21,632.92 	"/>
	<polygon class="st6" points="513.58,597.2 416.78,597.7 416.64,621.28 513.58,621.28 	"/>
	<rect x="416.76" y="597.2" class="st14" width="96.84" height="24.08"/>
	<rect x="416.64" y="597.2" class="st14" width="74.33" height="24.08"/>
	<polygon class="st6" points="493.88,597.7 416.78,597.7 416.78,600.15 492.24,600.15 	"/>
	<polygon class="st6" points="513.03,607.56 416.78,608.45 416.78,609.16 513.03,609.16 	"/>
	<polygon class="st6" points="416.78,618.7 513.03,614.01 513.03,614.72 416.78,620.31 	"/>
	<polygon class="st6" points="416.78,609.63 513.03,611.55 513.03,612.25 416.78,611.24 	"/>
	<rect x="442.09" y="544.83" class="st6" width="96.23" height="12.12"/>
	<rect x="442.09" y="544.83" class="st14" width="96.23" height="12.12"/>
	<rect x="442.09" y="544.83" class="st14" width="76.68" height="12.12"/>
	<polygon class="st6" points="538.37,553.42 442.15,553.9 442.15,554.26 538.37,554.26 	"/>
	<polygon class="st6" points="442.15,548.89 538.37,546.45 538.37,546.81 442.15,549.72 	"/>
	<polygon class="st6" points="441.83,548.24 538.05,549.23 538.05,549.58 441.83,549.07 	"/>
	<rect x="428.62" y="539.49" class="st6" width="96.22" height="5.84"/>
	<rect x="428.62" y="539.54" class="st14" width="96.22" height="5.8"/>
	<rect x="428.62" y="539.17" class="st14" width="76.68" height="6.16"/>
	<polygon class="st6" points="428.68,543.94 524.89,541.48 524.89,541.86 428.68,544.77 	"/>
	<polygon class="st6" points="428.68,541.01 524.89,542 524.89,542.38 428.68,541.84 	"/>
	<rect x="437.59" y="533.53" class="st6" width="96.22" height="5.84"/>
	<rect x="437.59" y="533.57" class="st14" width="96.22" height="5.8"/>
	<rect x="437.59" y="533.21" class="st14" width="76.68" height="6.16"/>
	<polygon class="st6" points="437.65,536.16 533.9,537.33 533.88,537.7 437.61,536.99 	"/>
	<polygon class="st6" points="437.63,535.05 533.86,536.02 533.86,536.4 437.63,535.86 	"/>
	<rect x="435.57" y="556.95" class="st6" width="96.22" height="15.62"/>
	<rect x="435.57" y="556.95" class="st14" width="96.22" height="15.62"/>
	<rect x="435.57" y="556.95" class="st14" width="74.25" height="15.62"/>
	<polygon class="st6" points="531.18,561.8 434.98,561.26 434.98,560.83 531.18,560.83 	"/>
	<polygon class="st6" points="435.63,564.08 531.86,566.89 531.86,566.47 435.63,563.13 	"/>
	<polygon class="st6" points="531.86,556.97 441.1,556.97 443.1,558.89 531.86,558.89 	"/>
	<polygon class="st6" points="435.97,570.15 532.17,568.99 532.17,568.59 435.97,569.18 	"/>
</g>
<g id="freepik--Character--inject-3">
	<g id="freepik--group--inject-3">
		<path class="st15" d="M687.7,506.97c0.18,6.59,0,12.75-0.32,19.11c-0.32,6.36-0.75,12.63-1.37,18.97
			c-1.19,12.93-3.52,25.73-6.97,38.25l-1.58,4.87l-0.4,1.21l-0.1,0.32l-0.16,0.46l-0.49,1.31c-0.63,1.51-1.44,2.94-2.42,4.26
			c-1.54,2.14-3.43,4.01-5.58,5.52c-1.73,1.27-3.57,2.37-5.5,3.31c-6.42,3-13.23,5.08-20.23,6.18c-12.71,2.08-25.61,2.75-38.47,1.98
			l-0.67-12.63l8.77-1.8c2.95-0.59,5.94-1.33,8.75-1.98c5.8-1.39,11.52-2.87,16.95-4.65c5.02-1.5,9.85-3.59,14.37-6.24
			c1.22-0.65,2.25-1.6,3.01-2.75c0-0.32-0.49,1.01,0-1.07l0.97-3.96c2.26-11.4,3.72-22.95,4.4-34.55
			c0.44-5.94,0.71-11.88,0.99-17.82c0.28-5.94,0.36-12.06,0.44-17.82L687.7,506.97z"/>
		<path class="st15" d="M608.78,600.78l-13.86-10l-4.18,21.09c0,0,13.66,5.94,17.58-0.99L608.78,600.78z"/>
		<polygon class="st15" points="580.86,591.24 578.23,608.84 590.74,611.87 594.9,590.79 		"/>
		<path class="st6" d="M697.74,489.37c3.03,15.84-9.29,53.04-9.29,53.04l-40.07-5.05c6.16-14.1,8.36-34.45,16.12-47.76
			C671.68,477.67,694.43,472.19,697.74,489.37z"/>
		<path class="st16" d="M697.74,489.37c3.03,15.84-9.29,53.04-9.29,53.04l-40.07-5.05c6.16-14.1,8.36-34.45,16.12-47.76
			C671.68,477.67,694.43,472.19,697.74,489.37z"/>
		<path class="st6" d="M755,478.01c5.26,0.69,8.96,5.51,8.28,10.77c0,0,0,0,0,0c0,0.1,0,0.18,0,0.26
			c-2.29,15.45-3.67,31.03-4.14,46.65c-0.42,13.13-0.26,25.6,0.18,36.89c0.95,26.45,3.33,46.47,3.17,53.36l-88.36,7.39
			c-15.46-70.33-10.41-122.36-6.08-141.33c1.37-6.03,6.07-10.73,12.1-12.1c3.39-0.75,7.44-1.56,11.76-2.2
			c1.5-0.14,3.05-0.42,4.59-0.59c12.73-1.02,25.51-1.31,38.27-0.87c2.42,0,4.85,0.22,7.25,0.38C746.66,477,751.21,477.51,755,478.01
			z"/>
		<path class="st16" d="M755,478.01c5.26,0.69,8.96,5.51,8.28,10.77c0,0,0,0,0,0c0,0.1,0,0.18,0,0.26
			c-2.29,15.45-3.67,31.03-4.14,46.65c-0.42,13.13-0.26,25.6,0.18,36.89c0.95,26.45,3.33,46.47,3.17,53.36l-88.36,7.39
			c-15.46-70.33-10.41-122.36-6.08-141.33c1.37-6.03,6.07-10.73,12.1-12.1c3.39-0.75,7.44-1.56,11.76-2.2
			c1.5-0.14,3.05-0.42,4.59-0.59c12.73-1.02,25.51-1.31,38.27-0.87c2.42,0,4.85,0.22,7.25,0.38C746.66,477,751.21,477.51,755,478.01
			z"/>
		<path class="st15" d="M730.05,433.32c-2.18,12.34-4.16,34.93,4.61,42.96c-19.46,15.84-30.93,36.61-35.12,32.69
			c-2.22-1.98-5.39-27.88-3.11-31.94c13.66-3.54,13.11-13.7,10.53-23.22L730.05,433.32z"/>
		<path class="st17" d="M720.66,441.68L707,453.79c0.64,2.21,1.08,4.48,1.31,6.77c5.25-0.85,12.34-6.75,12.77-12.28
			C721.34,446.08,721.2,443.84,720.66,441.68z"/>
		<path class="st18" d="M684.02,402.24c-8.14,1.07-11.38,15.56-1.98,26.51C691.44,439.7,694.94,400.79,684.02,402.24z"/>
		<path class="st15" d="M725.4,410.95c2.44,16.51,4.71,26.06-1.72,36.15c-9.72,15.21-31.44,12.04-38.81-3.43
			c-6.59-13.86-9.52-38.57,5.09-48.43c10.39-7.11,24.57-4.44,31.68,5.95C723.63,404.11,724.91,407.45,725.4,410.95z"/>
		<path class="st18" d="M709.93,413.5c1.09,3.37,4.06,5.8,7.58,6.2c1.87,3.52,2.31,7.63,1.21,11.46l6.1,0.79
			c-0.09-5.09,3.8-9.36,8.87-9.76c-1.66,6.6-3.64,13.14-5.94,19.62c6.6-5.53,11.68-12.65,14.75-20.69c1.59-3.84,2.34-7.98,2.2-12.14
			c-0.19-4.19-2.05-8.14-5.15-10.97c-4.43-3.26-10.15-4.19-15.38-2.51C714.98,398.04,705.79,402.81,709.93,413.5z"/>
		<path class="st15" d="M736.68,423.94c-0.34,4.18-2.33,8.05-5.52,10.77c-4.26,3.58-8.67,0.34-9.4-4.89
			c-0.67-4.69,0.75-12.22,5.94-13.86C732.88,414.31,737.04,418.87,736.68,423.94z"/>
		<path class="st18" d="M701.64,420.85c0.28,1.33-0.2,2.57-1.07,2.75c-0.87,0.18-1.8-0.75-2.1-2.08s0.2-2.55,1.07-2.73
			C700.41,418.61,701.36,419.5,701.64,420.85z"/>
		<path class="st18" d="M686.67,424c0.28,1.33-0.2,2.55-1.07,2.75c-0.87,0.2-1.8-0.75-2.08-2.08c-0.28-1.33,0.2-2.55,1.05-2.73
			C685.42,421.76,686.35,422.67,686.67,424z"/>
		<path class="st19" d="M691.54,423.66c-0.74,4.39-2.07,8.66-3.96,12.69c2.12,0.91,4.52,0.85,6.59-0.16L691.54,423.66z"/>
		<path class="st18" d="M705.26,414.91c-0.27,0.12-0.59,0.08-0.81-0.12c-1.5-1.37-3.57-1.94-5.56-1.52
			c-0.37,0.15-0.8,0.01-1.01-0.34v-0.16c-0.13-0.41,0.1-0.84,0.51-0.97c0,0,0.01,0,0.01,0l0,0c2.5-0.55,5.11,0.14,7.01,1.86
			c0.34,0.27,0.39,0.77,0.12,1.11l0,0C705.44,414.83,705.35,414.87,705.26,414.91z"/>
		<path class="st18" d="M701.72,440.92L701.72,440.92c3.81-1.18,6.81-4.13,8.04-7.92c0.06-0.22-0.07-0.45-0.29-0.51
			c0,0-0.01,0-0.01,0c-0.23-0.05-0.46,0.08-0.53,0.3c-1.18,3.48-3.94,6.19-7.44,7.31c-0.22,0.09-0.33,0.35-0.23,0.57
			C701.32,440.85,701.52,440.96,701.72,440.92z"/>
		<path class="st18" d="M679.09,420.19c-0.15,0.07-0.32,0.07-0.48,0c-0.43-0.1-0.69-0.52-0.59-0.95c0,0,0,0,0,0
			c0.56-2.51,2.3-4.59,4.67-5.58c0.41-0.15,0.86,0.07,1.01,0.48l0,0c0.14,0.4-0.06,0.83-0.46,0.99l0,0
			c-1.85,0.8-3.21,2.42-3.66,4.38C679.59,419.82,679.39,420.1,679.09,420.19z"/>
		<path class="st6" d="M574.56,542.59l20.59,66.35c0,0,20.35-6.41,29.26-0.85c5.51,3.5,10.65,7.57,15.32,12.14l-14.22-72.21
			C625.53,548.02,606.62,525.78,574.56,542.59z"/>
		<path class="st6" d="M625.53,548.04l14.22,72.21c0,0,22.1-23.9,42.35-13.86l6.87,3.54l-8.32-72.27
			C680.65,537.66,654.32,524.32,625.53,548.04z"/>
		<path class="st20" d="M625.53,548.04l14.22,72.21c0,0,22.1-23.9,42.35-13.86l6.87,3.54l-8.32-72.27
			C680.65,537.66,654.32,524.32,625.53,548.04z"/>
		<path class="st20" d="M574.56,542.59l20.59,66.35c0,0,20.35-6.41,29.26-0.85c5.51,3.5,10.65,7.57,15.32,12.14l-14.22-72.21
			C625.53,548.02,606.62,525.78,574.56,542.59z"/>
		<path class="st18" d="M639.7,619.53c-17.19-5.56-33.92-11.4-47.64,0.79c-5.09-19.62-12.65-38.33-18.37-57.75
			c-4.59-15.58-4.61-12.85,3.6-17.38c7.11-3.96,40.31-7.48,47.34,10.73C627.19,562.57,638.48,617.99,639.7,619.53z"/>
		<path class="st18" d="M694.13,616.5c-10.16-8.89-26.14-8.41-36.69,0c-4.51,3.56-10.81,6.06-10.79,5.6l0,0l-14.67-67.48l-0.59,0.44
			c3.01-10.18,18.61-15.13,28.49-15.44c8.78,0.19,17.31,2.94,24.55,7.92C684.43,547.54,691.94,596.94,694.13,616.5z"/>
		<path class="st18" d="M646.65,622.11c0,0-5.94,1.84-8.26-3.01l-14.47-64.9c0,0,2.44,4.26,7.44,0.77l0.59-0.44l14.67,67.48
			C646.65,622.04,646.65,622.07,646.65,622.11z"/>
		<path class="st11" d="M646.65,622.11c0,0-5.94,1.84-8.26-3.01l-14.47-64.9c0,0,2.44,4.26,7.44,0.77l0.59-0.44l14.67,67.48
			C646.65,622.04,646.65,622.07,646.65,622.11z"/>
		<path class="st21" d="M750.6,486.92c-7.42-1.09-10.49,1.56-15.64,11.7c-4.75,9.37-7.37,36.35-7.37,36.35
			c-0.91,14.77-2.79,13.11,11.19,14.18c8.95,0.69,20.27,2.57,20.27,2.57S772.8,490.15,750.6,486.92z"/>
		<path class="st15" d="M771.27,500.9c0.16,6.59,0,12.75-0.32,19.13c-0.32,6.38-0.75,12.61-1.39,18.95
			c-1.19,12.94-3.52,25.76-6.95,38.29l-1.6,4.85l-0.4,1.23v0.3l-0.18,0.48l-0.48,1.29c-0.63,1.52-1.44,2.95-2.42,4.28
			c-1.56,2.12-3.44,3.99-5.58,5.52c-1.74,1.27-3.59,2.37-5.52,3.31c-6.42,2.99-13.23,5.07-20.23,6.18
			c-12.71,2.08-25.61,2.75-38.47,1.98l-0.65-12.61l8.77-1.8c2.93-0.61,5.94-1.35,8.75-1.98c5.78-1.39,11.5-2.87,16.95-4.67
			c5.02-1.49,9.85-3.58,14.37-6.22c1.22-0.66,2.25-1.61,3.01-2.77c0-0.3-0.49,1.03,0-1.05l0.99-3.96c2.25-11.4,3.71-22.95,4.4-34.55
			c0.44-5.94,0.71-11.88,0.99-17.82c0.28-5.94,0.36-12.04,0.44-17.82L771.27,500.9z"/>
		<path class="st15" d="M692.31,594.73l-13.86-10l-4.2,21.07c0,0,13.68,5.94,17.6-0.99L692.31,594.73z"/>
		<polygon class="st15" points="664.43,585.16 661.8,602.76 674.29,605.79 678.47,584.73 		"/>
		<path class="st6" d="M771.67,488.64c9.42,13.01,6.32,56.88,6.32,56.88l-43.74-4.2c0,0-4.53-24.55,1.98-44.29
			C743.26,475.61,760.24,472.84,771.67,488.64z"/>
		<path class="st16" d="M771.67,488.64c9.42,13.01,6.32,56.88,6.32,56.88l-43.74-4.2c0,0-4.53-24.55,1.98-44.29
			C743.26,475.61,760.24,472.84,771.67,488.64z"/>
		<path class="st18" d="M677.03,408.04c-1.72-2.23-3.27-4.59-4.63-7.05c5.76,1.15,6.36-1.82,8.71-9.9
			c2.69-9.13,13.03-14.99,18.51-15.84c38.05-6.16,40.21,15.44,40.59,18.97c0.05,2.66-1.52,5.09-3.96,6.14
			c-2.42,0.97-5,1.44-7.6,1.39c-5.52,0.24-13.74,2.18-19.07,0.79C687.98,396.87,679.66,408.33,677.03,408.04z"/>
	</g>
	<polygon class="st15" points="648.32,691.43 674.12,704.89 686.51,711.36 681.16,725.16 668.91,720.71 638.99,709.82 	"/>
	<polygon class="st17" points="648.32,691.43 674.12,704.89 668.91,720.71 638.99,709.82 	"/>
	<polygon class="st15" points="604.8,728.05 577.12,737.04 563.83,741.38 557.72,727.9 569.48,722.27 598.19,708.51 	"/>
	<polygon class="st17" points="604.8,728.05 577.12,737.04 569.48,722.27 598.19,708.51 	"/>
	<path class="st6" d="M772.12,651.53c-0.49-1.34-1.21-2.6-2.12-3.7c-9.01-10.73-42.07-10.51-62.17-8.39
		c-9.15,0.95-21.07,5.56-33.98,12.1c-1.88-2.9-4.36-5.35-7.29-7.19c-16.73-9.76-39.6-13.31-61.99-12.99
		c32.61-1.05,69.44,1.98,69.44,1.98l87.93-7.29C766.99,633.79,770.45,642.45,772.12,651.53z"/>
	<path class="st21" d="M772.12,651.53c-0.49-1.34-1.21-2.6-2.12-3.7c-9.01-10.73-42.07-10.51-62.17-8.39
		c-9.15,0.95-21.07,5.56-33.98,12.1c-1.88-2.9-4.36-5.35-7.29-7.19c-16.73-9.76-39.6-13.31-61.99-12.99
		c32.61-1.05,69.44,1.98,69.44,1.98l87.93-7.29C766.99,633.79,770.45,642.45,772.12,651.53z"/>
	<path class="st6" d="M678.71,688.14c-4.87,7.68-13.98,11.88-23.01,12.97c-9.03,1.09-18.16-0.49-27.13-2.1l-23.38-4.12l-38.11-6.75
		c-7.17-1.29-14.51-2.61-20.89-6.16c-20.53-11.4-24.69-24.25-14.04-33.66c3.56-2.98,7.64-5.28,12.04-6.79l0.51-0.22
		c12.23-4.27,24.9-7.16,37.78-8.61h0.46c7.18-0.87,14.41-1.36,21.64-1.47c22.45-0.32,45.26,3.23,61.99,12.99
		c2.92,1.84,5.41,4.29,7.29,7.19C681.09,662.08,684.35,679.31,678.71,688.14z"/>
	<path class="st21" d="M678.71,688.14c-4.87,7.68-13.98,11.88-23.01,12.97c-9.03,1.09-18.16-0.49-27.13-2.1l-23.38-4.12l-38.11-6.75
		c-7.17-1.29-14.51-2.61-20.89-6.16c-20.53-11.4-24.69-24.25-14.04-33.66c3.56-2.98,7.64-5.28,12.04-6.79l0.51-0.22
		c12.23-4.27,24.9-7.16,37.78-8.61h0.46c7.18-0.87,14.41-1.36,21.64-1.47c22.45-0.32,45.26,3.23,61.99,12.99
		c2.92,1.84,5.41,4.29,7.29,7.19C681.09,662.08,684.35,679.31,678.71,688.14z"/>
	<path class="st6" d="M538.21,644.58c0,0-22.06,11.09-17.15,33.01c0,0,3.56,13.98,45.2,22.27c41.64,8.3,94.44,17.82,94.44,17.82
		l5.33-17.03c0,0-54.77-47.3-96.21-57.42C559.39,640.58,548.39,641.05,538.21,644.58z"/>
	<polygon class="st6" points="663.03,724.35 649.6,724.09 661.35,691.07 671.96,697.29 	"/>
	<g class="st22">
		<polygon class="st8" points="663.03,724.35 649.6,724.09 661.35,691.07 671.96,697.29 		"/>
	</g>
	<path class="st6" d="M679.05,703.98c0.26,1.13,40.11,11.88,54.96,6.59C780.48,694.08,668.18,656.58,679.05,703.98z"/>
	<path class="st21" d="M679.05,703.98c0.26,1.13,40.11,11.88,54.96,6.59C780.48,694.08,668.18,656.58,679.05,703.98z"/>
	<path class="st6" d="M770.62,678.36c-1.04,3.29-2.37,6.48-3.96,9.54l0,0c-0.3,0.51-0.55,1.05-0.85,1.54
		c-0.72,1.3-1.52,2.56-2.38,3.78l-0.16,0.26c-0.4,0.55-0.77,1.07-1.19,1.6c-11.88,15.3-42.96,21.32-50.33,11.42
		c-3.07-4.64-5.41-9.73-6.91-15.09c-25.08,12.97-51.12,23.97-77.91,32.89c-13.86,4.59-28.49,8.95-43.34,12.51L574.62,718l3.54-2.77
		c4.95-3.96,14.77-11.44,27.09-20.31c19.68-14.22,45.78-31.84,68.66-43.44c12.91-6.53,24.83-11.15,33.98-12.1
		c20.1-2.12,53.16-2.34,62.17,8.39c0.91,1.11,1.63,2.36,2.12,3.7C774.74,658.2,773.85,668.58,770.62,678.36z"/>
	<polygon class="st6" points="572.92,714.49 582.92,705.52 596.84,737.68 584.82,740.37 	"/>
	<g class="st22">
		<polygon class="st8" points="572.92,714.49 582.92,705.52 596.84,737.68 584.82,740.37 		"/>
	</g>
	<path class="st6" d="M663.29,736.05c0.72,0.53,1.64,0.73,2.51,0.55c0.43-0.13,0.86-0.3,1.27-0.49c1.11-0.49,2.08-1.25,2.81-2.22
		l0.67-0.83c0.98-1.25,1.85-2.57,2.61-3.96c0.07-0.16,0.01-0.35-0.14-0.44c-0.17-0.11-0.39-0.11-0.55,0c-0.2,0-0.67,0.28-1.33,0.55
		l-0.3,0.12l0,0l-1.98,0.87c-2.71,1.33-5.94,3.19-6.24,4.63C662.59,735.34,662.85,735.81,663.29,736.05z M663.68,734.98
		c0.06-0.27,0.2-0.51,0.4-0.69c1.91-1.55,4.02-2.83,6.28-3.8l0.53-0.24l0.75-0.3c-0.32,0.51-0.63,0.99-0.95,1.45
		c-0.68,1-1.46,1.93-2.34,2.77c-0.73,0.8-1.67,1.38-2.71,1.66c-0.6,0.14-1.22,0.01-1.7-0.38
		C663.76,735.37,663.66,735.18,663.68,734.98z"/>
	<path class="st6" d="M660.02,728.19c0.91,1.45,5.72,2.12,8.89,1.98c0.54,0,1.09-0.04,1.62-0.12l0,0c0.07,0.02,0.13,0.02,0.2,0
		c0,0,0.14-0.12,0.16-0.2c0.09-0.12,0.09-0.28,0-0.4l0,0l0,0c-2.04-1.94-4.6-3.23-7.37-3.72c-0.97-0.08-1.94,0.19-2.73,0.75
		C659.64,727.14,659.74,727.74,660.02,728.19z M660.91,727.84c0,0-0.24-0.36,0.46-0.85l0.24-0.16c0.55-0.31,1.18-0.44,1.8-0.38
		c2.26,0.41,4.36,1.43,6.08,2.95C666.47,729.72,661.58,728.89,660.91,727.84L660.91,727.84z"/>
	<path class="st18" d="M672.57,722.91l13.23-13.76c0.57-0.57,1.44-0.73,2.18-0.42l16.81,7.25c1.29,0.45,1.98,1.86,1.53,3.15
		c-0.07,0.21-0.17,0.41-0.3,0.59l-0.2,0.24c-17.64,24.35-27.72,31.1-30.15,33.54c-7.13,6.97-13.01,1.54-11.46-1.23
		c6.97-12.43,6.99-16.95,6.49-22.87C670.68,727.1,671.33,724.84,672.57,722.91z"/>
	<path class="st6" d="M547.54,712.14c-0.72,0.55-1.18,1.36-1.29,2.26c-0.01,0.45,0.03,0.9,0.1,1.35c0.13,1.21,0.56,2.37,1.27,3.37
		c0.18,0.3,0.38,0.57,0.59,0.87c0.87,1.31,1.86,2.54,2.95,3.68c0.12,0.13,0.32,0.13,0.45,0.01c0,0,0.01,0,0.01-0.01
		c0.16-0.13,0.24-0.33,0.2-0.53c0-0.2,0-0.71-0.14-1.43c0,0,0-0.22,0-0.34l0,0c0-0.59-0.14-1.31-0.26-1.98
		c-0.44-2.99-1.21-6.69-2.51-7.35C548.47,711.81,547.94,711.85,547.54,712.14z M548.45,712.85c0.24,0.14,0.42,0.35,0.53,0.59
		c0.9,2.29,1.48,4.7,1.72,7.15c0.02,0.18,0.02,0.37,0,0.55c0,0.28,0,0.53,0,0.81c-0.42-0.44-0.77-0.91-1.11-1.33
		c-0.75-0.96-1.42-1.99-1.98-3.07c-0.53-0.94-0.79-2.01-0.75-3.09c0.05-0.61,0.37-1.17,0.87-1.52c0.16-0.22,0.47-0.27,0.69-0.12
		C548.43,712.84,548.44,712.84,548.45,712.85L548.45,712.85z"/>
	<path class="st6" d="M556.03,711.42c-1.66,0.44-3.76,4.81-4.65,7.92c-0.15,0.51-0.27,1.04-0.36,1.56c0,0,0,0,0,0.1
		c-0.02,0.06-0.02,0.13,0,0.2c0.03,0.08,0.07,0.16,0.14,0.22c0.12,0.09,0.29,0.09,0.42,0l0,0l0,0c2.47-1.36,4.48-3.43,5.78-5.94
		c0.37-0.91,0.42-1.92,0.12-2.85C557.14,711.38,556.51,711.28,556.03,711.42z M556.03,712.37c0.1,0,0.42-0.1,0.67,0.69v0.28
		c0.13,0.61,0.07,1.25-0.18,1.82c-1.08,2.03-2.7,3.73-4.67,4.91c0.87-2.95,3.03-7.39,4.24-7.7L556.03,712.37z"/>
	<path class="st18" d="M558.05,726.27l7.15,13.86c0.36,0.72,0.25,1.59-0.28,2.2l-14.26,10.69c-0.8,1.09-2.34,1.33-3.43,0.53
		c-0.2-0.15-0.38-0.33-0.53-0.53l-0.18-0.26c-17.82-24.19-22.02-35.22-23.58-38.35c-4.45-8.91,2.47-12.87,4.65-10.55
		c9.74,10.39,17.23,16.29,23.01,17.62C558.61,724.31,557.5,725.28,558.05,726.27z"/>
	<path class="st18" d="M682.29,432.43h-0.12c-4.56-0.07-8.2-3.82-8.14-8.38c0.07-4.56,3.82-8.2,8.38-8.14
		c4.56,0.07,8.2,3.81,8.14,8.37l0,0C690.48,428.81,686.81,432.43,682.29,432.43z M682.29,417.78c-3.49,0.01-6.32,2.81-6.38,6.3
		c-0.06,3.52,2.75,6.43,6.28,6.49l0,0c3.53,0.03,6.42-2.8,6.45-6.34c0.03-3.53-2.8-6.42-6.34-6.45H682.29z"/>
	<path class="st18" d="M701.34,427.9h-0.14c-4.56-0.07-8.2-3.82-8.14-8.38c0.07-4.56,3.82-8.2,8.38-8.14
		c4.56,0.07,8.2,3.82,8.14,8.38c0,0.01,0,0.01,0,0.02l0,0C709.51,424.28,705.84,427.9,701.34,427.9z M701.34,413.26
		c-3.48,0.01-6.31,2.8-6.38,6.28c-0.07,3.53,2.74,6.45,6.28,6.51c3.53,0.07,6.45-2.74,6.51-6.28c0.07-3.53-2.74-6.45-6.28-6.51
		c-0.01,0-0.01,0-0.02,0H701.34z"/>
	<path class="st18" d="M689.84,421.22l-1.86-0.38c0-0.3,0.63-3.03,2.63-3.62c1.52-0.25,3.06,0.39,3.96,1.64l-1.31,1.31
		c-0.91-0.91-1.68-1.33-2.18-1.17C690.59,419.16,689.96,420.63,689.84,421.22z"/>
	<polygon class="st18" points="708.74,419.26 708.33,417.44 727.12,412.99 730.74,413.78 730.35,415.6 727.12,414.89 	"/>
</g>
<g id="freepik--Books--inject-3">
	<path class="st6" d="M798.73,676.42v12.71c-0.67,0.09-1.15,0.7-1.06,1.37c0.07,0.55,0.51,0.99,1.06,1.06h14.55v-17.64h-14.55
		c-0.69,0-1.25,0.56-1.25,1.25S798.04,676.42,798.73,676.42z"/>
	<path class="st23" d="M798.73,676.42v12.71c-0.67,0.09-1.15,0.7-1.06,1.37c0.07,0.55,0.51,0.99,1.06,1.06h14.55v-17.64h-14.55
		c-0.69,0-1.25,0.56-1.25,1.25S798.04,676.42,798.73,676.42z"/>
	<rect x="798.73" y="676.44" class="st6" width="11.29" height="12.69"/>
	<rect x="798.73" y="676.44" class="st14" width="11.29" height="12.69"/>
	<path class="st6" d="M807.66,675.19h62.35c2.69,0,4.87,3.39,4.87,7.58s-2.18,7.56-4.87,7.56h-62.35V675.19z"/>
	<path class="st12" d="M807.66,675.19h62.35c2.69,0,4.87,3.39,4.87,7.58s-2.18,7.56-4.87,7.56h-62.35V675.19z"/>
	<path class="st6" d="M807.66,691.56c12.81,0,48.85,0.22,61.68,0c8.77-0.16,9.25-16.99,0.63-17.58c-5.94-0.42-12.18,0-18.2,0h-44.11
		c-0.67,0.09-1.15,0.7-1.06,1.37c0.07,0.55,0.51,0.99,1.06,1.06h59.64c2.81,0,4.83,0,5.94,3.35c0.93,2.87,0.63,8.73-3.21,9.37
		c-0.44,0.03-0.88,0.03-1.33,0h-61.04c-0.67,0.09-1.15,0.7-1.06,1.37C806.67,691.06,807.11,691.49,807.66,691.56L807.66,691.56z"/>
	<g class="st13">
		<path class="st8" d="M807.66,691.56c12.81,0,48.85,0.22,61.68,0c8.77-0.16,9.25-16.99,0.63-17.58c-5.94-0.42-12.18,0-18.2,0
			h-44.11c-0.67,0.09-1.15,0.7-1.06,1.37c0.07,0.55,0.51,0.99,1.06,1.06h59.64c2.81,0,4.83,0,5.94,3.35
			c0.93,2.87,0.63,8.73-3.21,9.37c-0.44,0.03-0.88,0.03-1.33,0h-61.04c-0.67,0.09-1.15,0.7-1.06,1.37
			C806.67,691.06,807.11,691.49,807.66,691.56L807.66,691.56z"/>
	</g>
	<path class="st6" d="M800.83,693.56v11.78c-0.62,0.08-1.05,0.65-0.97,1.27c0.07,0.5,0.46,0.9,0.97,0.97h13.46v-16.28h-13.46
		c-0.62,0-1.13,0.51-1.12,1.13C799.71,693.06,800.21,693.56,800.83,693.56z"/>
	<path class="st23" d="M800.83,693.56v11.78c-0.62,0.08-1.05,0.65-0.97,1.27c0.07,0.5,0.46,0.9,0.97,0.97h13.46v-16.28h-13.46
		c-0.62,0-1.13,0.51-1.12,1.13C799.71,693.06,800.21,693.56,800.83,693.56z"/>
	<rect x="800.91" y="693.58" class="st6" width="10.45" height="11.76"/>
	<rect x="800.91" y="693.58" class="st14" width="10.45" height="11.76"/>
	<path class="st6" d="M809.17,692.44h57.73c2.49,0,4.51,3.15,4.51,7.01s-1.98,7.01-4.51,7.01h-57.73V692.44z"/>
	<path class="st12" d="M809.17,692.44h57.73c2.49,0,4.51,3.15,4.51,7.01s-1.98,7.01-4.51,7.01h-57.73V692.44z"/>
	<path class="st6" d="M809.17,707.58c11.88,0,45.24,0.22,57.12,0c8.12-0.14,8.55-15.72,0.59-16.28c-5.56-0.38-11.29,0-16.85,0
		h-40.87c-0.62,0-1.13,0.51-1.13,1.13c0,0.62,0.51,1.13,1.13,1.13h55.24c2.59,0,4.45,0,5.46,3.11c0.87,2.65,0.59,8.08-2.97,8.67
		c-0.4,0.03-0.81,0.03-1.21,0h-56.53c-0.62,0.08-1.05,0.65-0.97,1.27C808.27,707.12,808.66,707.51,809.17,707.58L809.17,707.58z"/>
	<path class="st6" d="M794.2,710.06v14.02c-0.74,0.09-1.26,0.76-1.17,1.5c0.07,0.61,0.56,1.1,1.17,1.17c5.33,0,10.67,0,16.02,0
		V707.3H794.2c-0.76,0-1.38,0.62-1.38,1.38S793.44,710.06,794.2,710.06z"/>
	<path class="st23" d="M794.2,710.06v14.02c-0.74,0.09-1.26,0.76-1.17,1.5c0.07,0.61,0.56,1.1,1.17,1.17c5.33,0,10.67,0,16.02,0
		V707.3H794.2c-0.76,0-1.38,0.62-1.38,1.38S793.44,710.06,794.2,710.06z"/>
	<rect x="794.2" y="710.08" class="st6" width="12.45" height="14"/>
	<rect x="794.2" y="710.08" class="st14" width="12.45" height="14"/>
	<path class="st6" d="M804.02,708.73h68.72c2.97,0,5.37,3.72,5.37,8.34s-2.4,8.36-5.37,8.36h-68.72V708.73z"/>
	<path class="st12" d="M804.02,708.73h68.72c2.97,0,5.37,3.72,5.37,8.34s-2.4,8.36-5.37,8.36h-68.72V708.73z"/>
	<path class="st6" d="M804.02,726.75c14.14,0,53.85,0.26,67.97,0c9.68-0.16,10.2-18.71,0.71-19.36c-6.61-0.46-13.42,0-20.06,0
		h-48.63c-0.74,0.09-1.26,0.76-1.17,1.5c0.07,0.61,0.56,1.1,1.17,1.17h65.73c3.11,0,5.33,0,6.51,3.7c1.05,3.17,0.71,9.62-3.52,10.32
		c-0.48,0.04-0.96,0.04-1.45,0h-67.32c-0.74,0.09-1.26,0.76-1.17,1.5c0.07,0.61,0.56,1.1,1.17,1.17H804.02z"/>
	<g class="st13">
		<path d="M804.02,726.75c14.14,0,53.85,0.26,67.97,0c9.68-0.16,10.2-18.71,0.71-19.36c-6.61-0.46-13.42,0-20.06,0h-48.63
			c-0.74,0.09-1.26,0.76-1.17,1.5c0.07,0.61,0.56,1.1,1.17,1.17h65.73c3.11,0,5.33,0,6.51,3.7c1.05,3.17,0.71,9.62-3.52,10.32
			c-0.48,0.04-0.96,0.04-1.45,0h-67.32c-0.74,0.09-1.26,0.76-1.17,1.5c0.07,0.61,0.56,1.1,1.17,1.17H804.02z"/>
	</g>
	<polygon class="st6" points="371.78,723.6 390.59,694.1 423.3,683.53 469.25,690.71 472,718.17 449.21,722.49 429.63,719.52 
		418.74,715.28 406.19,726.03 388.75,729.06 377.14,727.6 	"/>
	<polygon class="st21" points="371.78,723.6 390.59,694.1 423.3,683.53 469.25,690.71 472,718.17 449.21,722.49 429.63,719.52 
		418.74,715.28 406.19,726.03 388.75,729.06 377.14,727.6 	"/>
	<polygon class="st17" points="429.65,684.52 426.31,718.23 418.74,715.28 410.07,722.71 417.46,685.43 423.3,683.53 	"/>
	<path class="st6" d="M370.59,728.31c0,0,32.53,13.52,49.16-9.9c0,0,34.07,16.71,52.25-0.2l-3.15-5.15c0,0-8.83,14.45-50.47-1.03
		c0,0-17.7,23.09-46.61,11.6L370.59,728.31z"/>
	<path class="st20" d="M370.59,728.31c0,0,32.53,13.52,49.16-9.9c0,0,34.07,16.71,52.25-0.2l-3.15-5.15c0,0-8.83,14.45-50.47-1.03
		c0,0-17.7,23.09-46.61,11.6L370.59,728.31z"/>
	<polygon class="st6" points="395.04,699.13 418.62,680.2 451.91,678.36 494.48,692.59 491.86,714.08 469.27,713.01 451.12,707.03 
		441.51,701.72 427.47,707.52 410.21,706.53 399.42,703.19 	"/>
	<polygon class="st21" points="395.04,699.13 418.62,680.2 451.91,678.36 494.48,692.59 491.86,714.08 469.27,713.01 451.12,707.03 
		441.51,701.72 427.47,707.52 410.21,706.53 399.42,703.19 	"/>
	<polygon class="st17" points="457.81,680.32 448.19,705.4 441.51,701.72 431.81,705.72 445.97,678.67 451.91,678.36 	"/>
	<path class="st6" d="M392.96,702.47c0,0,28.53,16.53,48.88,1.8c0,0,29.4,19.24,49.97,9.78l-1.98-4.51c0,0-11.19,9.35-48.05-10.39
		c-14.44,8.45-32.31,8.45-46.75,0L392.96,702.47z"/>
	<path class="st20" d="M392.96,702.47c0,0,28.53,16.53,48.88,1.8c0,0,29.4,19.24,49.97,9.78l-1.98-4.51c0,0-11.19,9.35-48.05-10.39
		c-14.44,8.45-32.31,8.45-46.75,0L392.96,702.47z"/>
	<path class="st6" d="M671.17,641.81l104.3,4.44c0,0-1.88-12.77-3.25-13.11s-18.49-15.11-38.47-8.08c-4.36,1.5-7.52,2.67-9.78,3.5
		c-2.18-1.03-5.23-2.44-9.44-4.34c-19.32-8.69-37.62,4.57-39.04,4.79C674.06,629.24,671.17,641.81,671.17,641.81z"/>
	<path class="st14" d="M671.17,641.81l104.3,4.44v-0.32c-0.32-1.98-1.98-12.47-3.21-12.79l-0.24-0.12
		c-2.44-1.33-19.01-14.73-38.21-7.92c-4.38,1.52-7.54,2.67-9.8,3.54c-2.18-1.05-5.23-2.46-9.44-4.36
		c-19.32-8.69-37.62,4.57-39.02,4.79C674.14,629.3,671.17,641.81,671.17,641.81z"/>
	<path class="st6" d="M659.25,641.31l105.57,4.47c0,0-1.98-12.93-3.29-13.27c-1.31-0.34-18.79-13.34-39-6.24
		c-4.42,1.54-10.1,8.02-10.1,8.02s-5.11-6.95-9.38-8.85c-19.54-8.79-38,2.67-39.42,2.91C662.2,628.6,659.25,641.31,659.25,641.31z"
		/>
	<path class="st20" d="M659.25,641.31l105.57,4.47c0,0-1.98-12.93-3.29-13.27c-1.31-0.34-18.79-13.34-39-6.24
		c-4.42,1.54-10.1,8.02-10.1,8.02s-5.11-6.95-9.38-8.85c-19.54-8.79-38,2.67-39.42,2.91C662.2,628.6,659.25,641.31,659.25,641.31z"
		/>
	<polygon class="st6" points="711.81,637.81 714.9,644.03 706.96,643.69 	"/>
	<g class="st24">
		<polygon points="711.81,637.81 714.9,644.03 706.96,643.69 		"/>
	</g>
	<path class="st21" d="M761.67,632.58c0.65,1.48,1.15,3.02,1.5,4.59c0.81,3.96,1.64,8.61,1.64,8.61l10.65,0.46v-0.32
		c-0.32-1.98-1.98-12.47-3.21-12.79l-0.24-0.12L761.67,632.58z"/>
	<path class="st18" d="M655.05,645.06l51.72,3.48h0.12c2.28-1.86,5.59-1.73,7.7,0.32l0.1,0.1l53.34,1.56l13.46,0.42l-0.81-4.65
		l-65.75-2.79c-2.14-2.18-5.6-2.33-7.92-0.34l-50.45-2.22L655.05,645.06z"/>
	<g class="st24">
		<polygon points="767.19,645.53 768.04,650.34 781.51,650.76 780.68,646.1 		"/>
	</g>
	<path class="st6" d="M707.34,634.78c0,0-7.72-9.68-17.64-8.36C689.7,626.42,696.63,625.85,707.34,634.78z"/>
	<path class="st25" d="M707.34,634.78c0,0-7.72-9.68-17.64-8.36C689.7,626.42,696.63,625.85,707.34,634.78z"/>
	<path class="st6" d="M726.5,639.89c0,0,11.11-5.44,19.52,0C746.03,639.87,739.99,636.38,726.5,639.89z"/>
	<path class="st25" d="M726.5,639.89c0,0,11.11-5.44,19.52,0C746.03,639.87,739.99,636.38,726.5,639.89z"/>
	<path class="st6" d="M716.37,636.26c0,0,9.05-8.43,18.67-5.68C735.04,630.58,728.27,629,716.37,636.26z"/>
	<path class="st25" d="M716.37,636.26c0,0,9.05-8.43,18.67-5.68C735.04,630.58,728.27,629,716.37,636.26z"/>
	<path class="st6" d="M694.41,634.09c0,0-10.57-6.43-19.44-1.78C674.97,632.3,681.28,629.37,694.41,634.09z"/>
	<path class="st25" d="M694.41,634.09c0,0-10.57-6.43-19.44-1.78C674.97,632.3,681.28,629.37,694.41,634.09z"/>
</g>
<g id="freepik--Globe--inject-3">
	<path class="st6" d="M830.95,632.7c-3.38,0.67-6.83,1.02-10.28,1.03c-14.1,0.07-27.65-5.49-37.62-15.46l-1.52,1.54
		c10.39,10.33,24.46,16.08,39.1,16c3.64-0.01,7.26-0.38,10.83-1.09c-0.41-0.47-0.64-1.08-0.63-1.7
		C830.86,632.91,830.9,632.8,830.95,632.7z"/>
	
		<rect x="826.91" y="630.98" transform="matrix(1 -2.792512e-03 2.792512e-03 1 -1.8012 2.3263)" class="st6" width="10.51" height="30.39"/>
	<g class="st13">
		<rect x="826.91" y="630.98" transform="matrix(1 -2.792512e-03 2.792512e-03 1 -1.8012 2.3263)" width="10.51" height="30.39"/>
	</g>
	<path class="st6" d="M800.22,673.86c0-7.92,14.26-14.37,31.9-14.43c17.64-0.06,31.96,6.34,31.98,14.26l0,0
		c-20.61,5.78-42.4,5.92-63.08,0.4L800.22,673.86z"/>
	
		<rect x="769.87" y="582.1" transform="matrix(0.7026 -0.7115 0.7115 0.7026 -169.9545 759.6855)" class="st6" width="108.18" height="2.18"/>
	<path class="st6" d="M875.83,580.33c0.01-14.69-5.87-28.76-16.31-39.08l-1.52,1.54c20.86,20.66,21.02,54.32,0.36,75.18
		c-7.46,7.53-17,12.66-27.4,14.73c-0.01,0.14-0.01,0.28,0,0.42c0,0.63,0.22,1.23,0.63,1.7c25.83-5.28,44.37-28.02,44.33-54.39
		L875.83,580.33z"/>
	<path class="st6" d="M852.71,610.53c-15.11,15.65-40.04,16.09-55.68,0.98c-15.65-15.11-16.09-40.04-0.98-55.68
		c15.1-15.64,40.02-16.09,55.67-0.99C867.36,569.94,867.81,594.87,852.71,610.53z"/>
	<path class="st6" d="M839.24,597.54l-1.27-1.23c9.07-9.4,16.43-26.55,12.97-41.2l1.72-0.4
		C856.27,569.96,848.65,587.8,839.24,597.54z"/>
	<path class="st6" d="M797.74,611.57l0.36-1.74c14.75,2.95,31.68-5.01,40.71-14.39l1.29,1.23
		C830.69,606.41,813.13,614.64,797.74,611.57z"/>
	<path class="st6" d="M810.93,570.17l-1.29-1.23c9.4-9.74,26.97-18,42.35-14.91l-0.36,1.72C836.89,552.81,820,560.79,810.93,570.17z
		"/>
	<path class="st6" d="M797.07,610.92c-3.6-15.25,3.96-33.08,13.42-42.83l1.27,1.23c-9.07,9.38-16.43,26.55-12.97,41.2L797.07,610.92
		z"/>
	
		<rect x="785.08" y="582.43" transform="matrix(0.6947 -0.7193 0.7193 0.6947 -167.862 771.1785)" class="st6" width="78.76" height="1.78"/>
	
		<rect x="838.14" y="534.87" transform="matrix(0.6947 -0.7193 0.7193 0.6947 -152.548 777.0515)" class="st6" width="1.78" height="66.68"/>
	
		<rect x="823.11" y="544.41" transform="matrix(0.6947 -0.7193 0.7193 0.6947 -168.3388 770.9883)" class="st6" width="1.78" height="78.74"/>
	
		<rect x="808.08" y="566.89" transform="matrix(0.6947 -0.7193 0.7193 0.6947 -184.1207 764.9323)" class="st6" width="1.78" height="64.92"/>
	<g class="st13">
		<path d="M839.24,597.54l-1.27-1.23c9.07-9.4,16.43-26.55,12.97-41.2l1.72-0.4C856.27,569.96,848.65,587.8,839.24,597.54z"/>
		<path d="M797.74,611.57l0.36-1.74c14.75,2.95,31.68-5.01,40.71-14.39l1.29,1.23C830.69,606.41,813.13,614.64,797.74,611.57z"/>
		<path d="M810.93,570.17l-1.29-1.23c9.4-9.74,26.97-18,42.35-14.91l-0.36,1.72C836.89,552.81,820,560.79,810.93,570.17z"/>
		<path d="M797.07,610.92c-3.6-15.25,3.96-33.08,13.42-42.83l1.27,1.23c-9.07,9.38-16.43,26.55-12.97,41.2L797.07,610.92z"/>
		<rect x="785.08" y="582.43" transform="matrix(0.6947 -0.7193 0.7193 0.6947 -167.862 771.1785)" width="78.76" height="1.78"/>
		<rect x="838.14" y="534.87" transform="matrix(0.6947 -0.7193 0.7193 0.6947 -152.548 777.0515)" width="1.78" height="66.68"/>
		<rect x="823.11" y="544.41" transform="matrix(0.6947 -0.7193 0.7193 0.6947 -168.3388 770.9883)" width="1.78" height="78.74"/>
		<rect x="808.08" y="566.89" transform="matrix(0.6947 -0.7193 0.7193 0.6947 -184.1207 764.9323)" width="1.78" height="64.92"/>
	</g>
</g>
</svg>
