<?xml version="1.0" encoding="utf-8"?>
<!-- Generator: Adobe Illustrator 23.1.0, SVG Export Plug-In . SVG Version: 6.00 Build 0)  -->
<svg version="1.1" id="Layer_1" xmlns="http://www.w3.org/2000/svg" xmlns:xlink="http://www.w3.org/1999/xlink" x="0px" y="0px"
	 viewBox="0 0 1366 768" style="enable-background:new 0 0 1366 768;" xml:space="preserve">
<style type="text/css">
	.st0{opacity:0.7;fill:#FFFFFF;enable-background:new    ;}
	.st1{fill:#92E3A9;}
	.st2{fill:none;stroke:#263238;stroke-linecap:round;stroke-linejoin:round;}
	.st3{fill:#263238;}
	.st4{clip-path:url(#SVGID_2_);}
	.st5{opacity:0.6;}
	.st6{fill:#FFFFFF;}
	.st7{fill:#FFFFFF;stroke:#263238;stroke-linecap:round;stroke-linejoin:round;}
	.st8{fill:none;stroke:#FFFFFF;stroke-linecap:round;stroke-linejoin:round;}
	.st9{clip-path:url(#SVGID_4_);}
	.st10{opacity:0.4;fill:#92E3A9;enable-background:new    ;}
	.st11{clip-path:url(#SVGID_6_);}
	.st12{opacity:0.3;fill-opacity:0.7;enable-background:new    ;}
	.st13{clip-path:url(#SVGID_8_);}
	.st14{clip-path:url(#SVGID_10_);}
	.st15{clip-path:url(#SVGID_12_);}
	.st16{clip-path:url(#SVGID_14_);}
	.st17{fill:#92E3A9;stroke:#263238;stroke-linecap:round;stroke-linejoin:round;}
	.st18{clip-path:url(#SVGID_16_);}
	.st19{opacity:0.3;fill:#FFFFFF;fill-opacity:0.7;enable-background:new    ;}
	.st20{clip-path:url(#SVGID_18_);}
</style>
<g id="freepik--background-simple--inject-5">
	<path class="st0" d="M365.39,241.97c0,0-47.08,121.57,19.08,243.99s202.42,187.09,311.48,242.39
		c109.06,55.3,222.31,28.37,276.13-62.21s-19.99-155.23-20.09-284.38s19.33-163.35-50.66-272.46S659.77-23.97,530.02,56.96
		S365.39,241.97,365.39,241.97z"/>
	<path class="st1" d="M358.23,194.81c45.1-87.53,128.85-153.76,233.12-163.08c71.71-6.25,143.18,14.42,200.48,58
		c28.47,21.95,53.76,49.9,70.56,81.79c19.28,36.64,24.91,78.89,44.75,115.36c24.67,45.34,71,64.05,102.12,103.22
		c25.62,32.27,34.41,75.51,31.47,116.61c-5.37,75.02-49.32,146.24-113.98,184.69c-54.66,32.5-120.54,41.47-184.05,38.52
		c-97.94-4.54-195.43-36.84-272.56-97.34S337.58,482.64,324.44,385.5C315.51,319.5,328.49,252.51,358.23,194.81z"/>
	<path class="st0" d="M358.23,194.81c45.1-87.53,128.85-153.76,233.12-163.08c71.71-6.25,143.18,14.42,200.48,58
		c28.47,21.95,53.76,49.9,70.56,81.79c19.28,36.64,24.91,78.89,44.75,115.36c24.67,45.34,71,64.05,102.12,103.22
		c25.62,32.27,34.41,75.51,31.47,116.61c-5.37,75.02-49.32,146.24-113.98,184.69c-54.66,32.5-120.54,41.47-184.05,38.52
		c-97.94-4.54-195.43-36.84-272.56-97.34S337.58,482.64,324.44,385.5C315.51,319.5,328.49,252.51,358.23,194.81z"/>
</g>
<g id="freepik--Elements--inject-5">
	<path class="st2" d="M328.47,226.81c1.99,7.9,1.01-6.64,4.91-24.4c3.9-17.76,10.6-10.57,10.6-10.57"/>
	<line class="st2" x1="327.26" y1="208.66" x2="339.5" y2="203.65"/>
	<path class="st2" d="M349.62,197.62c0,0-7.31,15.2,3.71,21.58"/>
	<path class="st2" d="M360,193.36c0,0,12.09,6.75,4.53,21.24"/>
	<line class="st2" x1="351.73" y1="202.75" x2="360.39" y2="209.07"/>
	<line class="st2" x1="358.51" y1="199.96" x2="351.74" y2="210.75"/>
	
		<ellipse transform="matrix(0.1619 -0.9868 0.9868 0.1619 -36.146 674.836)" class="st2" cx="379.23" cy="358.7" rx="18.42" ry="18.42"/>
	
		<ellipse transform="matrix(0.9796 -0.2009 0.2009 0.9796 -65.2705 88.6744)" class="st2" cx="404.24" cy="365.9" rx="20.43" ry="20.43"/>
	<line class="st2" x1="396.02" y1="351.09" x2="387.54" y2="354.11"/>
	<line class="st2" x1="397.2" y1="354.58" x2="385.01" y2="358.99"/>
	<line class="st2" x1="397.65" y1="358.8" x2="384.04" y2="364.04"/>
	<line class="st2" x1="396.69" y1="364.56" x2="384.28" y2="370.24"/>
	<line class="st2" x1="394.5" y1="368.99" x2="385.07" y2="372.9"/>
	<path class="st2" d="M388.13,330.62c-0.52-1.69-6.5-2.74-6.75,1.69c-0.25,4.42,6.3,0.74,8.16-1.69c0,0-3.38,4.54-1.96,5.44"/>
	<path class="st2" d="M421.23,336.13l-5.3,11.03c0,0,2.65-5.52,5.49-5.07c3.5,0.62,1.17,6.35-3.06,4.24"/>
	<line class="st2" x1="998.22" y1="516.16" x2="1006.54" y2="524.03"/>
	<line class="st2" x1="1006.54" y1="514.1" x2="999.57" y2="524.52"/>
	<line class="st2" x1="1014.73" y1="517.09" x2="1023.07" y2="513.98"/>
	<line class="st2" x1="1027.07" y1="505.3" x2="1032.14" y2="509.78"/>
	<line class="st2" x1="1036.02" y1="499.92" x2="1029.61" y2="521.93"/>
	<polygon class="st2" points="647.44,392.47 669.85,377.06 699.51,379.13 701.37,416.76 679.59,432.32 652.71,430.37 	"/>
	<polyline class="st2" points="652.71,430.37 674.41,414.75 701.37,416.76 	"/>
	<line class="st2" x1="674.41" y1="414.75" x2="669.85" y2="377.06"/>
	<polyline class="st2" points="647.44,392.47 677.04,395.9 699.51,379.13 	"/>
	<line class="st2" x1="677.04" y1="395.9" x2="679.59" y2="432.32"/>
	<polygon class="st2" points="908.96,266.09 899.03,296.94 929.93,292.77 	"/>
	<line class="st2" x1="908.96" y1="266.09" x2="914.48" y2="294.67"/>
	<polyline class="st2" points="913.6,290.1 917.22,289.52 918.06,294.37 	"/>
	<line class="st2" x1="519.82" y1="548.39" x2="535.25" y2="555.98"/>
	<line class="st2" x1="530.27" y1="542.6" x2="525.85" y2="558.73"/>
	<path class="st2" d="M532.42,534.73c0.89-0.93,2.37-0.95,3.29-0.06c0.17,0.16,0.31,0.35,0.42,0.55c1.55,2.43-1.49,7.53-1.49,7.53
		l6.2-2.36"/>
	<path class="st2" d="M640.99,17.25c14.74,8.29-2.14,28.55-2.14,40.37s16.89,10.13,25.33,13.51c3.38,0,10.13,0,9.95,8.58"/>
	<path class="st2" d="M624.56,28c2.57,13.96,18.57,9.02,28.4,12.21c16.89,5.49,7.51,22.91,2.48,33.45
		c-3.02,6.28-6.03,15.1-0.62,21.06"/>
	<line class="st2" x1="626.72" y1="33.42" x2="644.3" y2="18.82"/>
	<line class="st2" x1="633.61" y1="37.78" x2="646.85" y2="26.8"/>
	<line class="st2" x1="641.39" y1="48.89" x2="652.57" y2="40.11"/>
	<line class="st2" x1="639.08" y1="62.03" x2="660.93" y2="46.32"/>
	<line class="st2" x1="647.46" y1="68.16" x2="662.69" y2="56.98"/>
	<line class="st2" x1="653.94" y1="91.91" x2="672.97" y2="76.41"/>
	<line class="st2" x1="654.41" y1="79.72" x2="666.82" y2="70.99"/>
	<circle class="st2" cx="392.82" cy="523.98" r="35.36"/>
	<path class="st2" d="M401.71,489.77c12.33-14.47,22.81-22.66,26.85-19.99c6.15,4.04-4.88,31.59-24.62,61.53
		s-40.73,50.94-46.87,46.89c-4.05-2.65-0.64-15.52,7.8-32.55"/>
	<path class="st2" d="M358.21,531.24c-17.19-4.95-28.16-10.72-27.47-15.33c1-7.29,30.7-8.98,66.17-3.66
		c35.48,5.32,63.37,15.4,62.31,22.66c-0.76,5.07-15.2,7.38-35.71,6.6"/>
	<path class="st2" d="M362.72,505.62c-12.97-23.4-19.45-41.66-15.06-44.51c5.77-3.73,28.1,20.48,49.86,54.03
		c21.77,33.55,34.72,63.88,28.96,67.63c-3.82,2.47-14.88-7.29-28.23-23.91"/>
	<path class="st3" d="M433.54,485.07c-1.76,2.68-5.36,3.43-8.04,1.67c-2.68-1.76-3.43-5.36-1.67-8.04c1.76-2.68,5.34-3.43,8.03-1.68
		c2.69,1.75,3.45,5.35,1.7,8.04C433.54,485.06,433.54,485.07,433.54,485.07z"/>
	<path class="st3" d="M414.3,574.04c-1.76,2.68-5.36,3.43-8.04,1.67c-2.68-1.76-3.43-5.36-1.67-8.04c1.76-2.68,5.34-3.43,8.03-1.68
		c2.69,1.75,3.45,5.35,1.7,8.04C414.31,574.03,414.31,574.04,414.3,574.04z"/>
	<path class="st3" d="M383.27,513.68c-1.76,2.68-5.36,3.43-8.04,1.67c-2.68-1.76-3.43-5.36-1.67-8.04c1.76-2.68,5.34-3.43,8.03-1.68
		C384.27,507.38,385.02,510.99,383.27,513.68z"/>
	<polygon class="st2" points="753.58,260.94 773.47,260.94 783.42,243.71 773.47,226.49 753.58,226.49 743.64,243.71 	"/>
	<polyline class="st2" points="750.69,298.74 740.75,281.52 720.86,281.52 	"/>
	<polygon class="st2" points="723.53,243.71 743.42,243.71 753.36,226.49 743.42,209.25 723.53,209.25 713.58,226.49 	"/>
	<polygon class="st2" points="753.58,226.49 773.47,226.49 783.42,209.25 773.47,192.03 753.58,192.03 743.64,209.25 	"/>
	<circle class="st3" cx="753.36" cy="226.49" r="2.67"/>
	<circle class="st3" cx="711.82" cy="190.32" r="2.67"/>
	<path class="st3" d="M748.03,298.74c0-1.47,1.19-2.67,2.67-2.67c1.47,0,2.67,1.19,2.67,2.67s-1.19,2.67-2.67,2.67l0,0
		C749.22,301.41,748.03,300.22,748.03,298.74z"/>
	<circle class="st3" cx="720.86" cy="281.52" r="2.67"/>
	<path class="st3" d="M802.67,209.74c0-1.48,1.2-2.68,2.68-2.68s2.68,1.2,2.68,2.68c0,1.48-1.2,2.68-2.68,2.68
		c-0.01,0-0.01,0-0.02,0c-1.47,0-2.67-1.19-2.67-2.67C802.67,209.75,802.67,209.75,802.67,209.74z"/>
	<circle class="st3" cx="740.55" cy="281.52" r="2.67"/>
	<path class="st3" d="M780.75,209.74c0-1.48,1.2-2.68,2.68-2.68c1.48,0,2.68,1.2,2.68,2.68c0,1.48-1.2,2.68-2.68,2.68l0,0
		C781.95,212.43,780.75,211.22,780.75,209.74z"/>
	<path class="st3" d="M750.69,260.95c-0.01-1.48,1.19-2.69,2.67-2.7c1.48-0.01,2.69,1.19,2.7,2.67c0.01,1.48-1.19,2.69-2.67,2.7
		c-0.01,0-0.02,0-0.03,0C751.89,263.61,750.7,262.42,750.69,260.95z"/>
	<line class="st2" x1="783.43" y1="209.71" x2="805.33" y2="209.71"/>
	<line class="st2" x1="753.36" y1="260.95" x2="740.55" y2="281.52"/>
	<line class="st2" x1="723.53" y1="209.25" x2="711.82" y2="190.32"/>
	<path class="st2" d="M864.6,141.35c5.77-19.51,26.27-30.65,45.78-24.88c12.53,3.71,22.16,13.77,25.3,26.45"/>
	<path class="st2" d="M895.71,188.36c-18.6-2.13-32.64-17.87-32.64-36.59"/>
	<path class="st2" d="M936.75,151.77c0,20.33-16.48,36.82-36.81,36.83"/>
	<path class="st2" d="M938.85,128.42c11.52-1.47,19.23-0.68,20.43,2.77c2.38,6.86-22.25,21.63-55.03,33.01
		c-32.77,11.38-61.26,15.03-63.66,8.16c-1.27-3.66,5.18-9.59,16.46-16.06"/>
	<polygon class="st2" points="740.55,103.19 744.07,110.34 751.96,111.48 746.25,117.06 747.6,124.91 740.55,121.19 733.49,124.91 
		734.84,117.06 729.13,111.48 737.02,110.34 	"/>
	<path class="st2" d="M491.25,84.16c-0.01,13.22-10.72,23.94-23.94,23.96c-0.78,0-1.54-0.03-2.28-0.1
		c-13.17-1.25-22.84-12.94-21.59-26.12s12.94-22.84,26.12-21.59C481.85,61.48,491.25,71.81,491.25,84.16L491.25,84.16z"/>
	<path class="st2" d="M487.42,88.49c0.01,2.05-1.65,3.72-3.7,3.73c-2.05,0.01-3.72-1.65-3.73-3.7c-0.01-2.05,1.65-3.72,3.7-3.73
		c0.01,0,0.01,0,0.02,0C485.75,84.79,487.41,86.44,487.42,88.49z"/>
	<path class="st2" d="M454.07,97.91c0,1.78-0.79,3.47-2.16,4.61c-3.15-2.6-5.57-5.97-7.04-9.78c0.93-0.57,2-0.87,3.09-0.86
		c3.33-0.05,6.07,2.61,6.11,5.94C454.07,97.85,454.07,97.88,454.07,97.91z"/>
	<path class="st2" d="M483.7,101.67c-4.43,4.19-10.3,6.53-16.4,6.52c-0.78,0-1.54-0.03-2.28-0.1c-0.14-0.65-0.2-1.31-0.2-1.98
		c0-5.5,4.46-9.96,9.97-9.96C478.57,96.16,482.02,98.3,483.7,101.67z"/>
	<circle class="st2" cx="461.5" cy="69.15" r="5.5"/>
	<path class="st2" d="M466.6,84.79c0,1.41-1.14,2.55-2.55,2.55c-1.41,0-2.55-1.14-2.55-2.55c0-1.41,1.14-2.55,2.55-2.55
		S466.6,83.38,466.6,84.79C466.6,84.79,466.6,84.79,466.6,84.79z"/>
	<path class="st2" d="M486.74,70.18c-0.67,0.22-1.37,0.33-2.08,0.32c-3.87,0-7.01-3.14-7.01-7.01c0-0.01,0-0.01,0-0.02
		c-0.02-0.29-0.02-0.59,0-0.88C481.27,64.33,484.4,66.93,486.74,70.18z"/>
	<path class="st2" d="M1037.29,362.2l2.58-5.81l-4.19-2.3c0.15-1.02,0.18-2.06,0.08-3.09l4.29-2.09l-2.28-5.93l-4.59,1.32
		c-0.62-0.83-1.33-1.58-2.13-2.23l1.57-4.53l-5.81-2.58l-2.31,4.19c-1.03-0.13-2.06-0.13-3.09,0l-2.08-4.29l-5.94,2.28l1.33,4.58
		c-0.83,0.63-1.58,1.35-2.25,2.14l-4.51-1.57l-2.52,5.72l4.19,2.31c-0.15,1.02-0.18,2.06-0.08,3.09l-4.31,2.08l2.28,5.94l4.59-1.33
		c0.62,0.83,1.33,1.58,2.13,2.25l-1.55,4.51l5.81,2.58l2.3-4.19c1.02,0.15,2.06,0.18,3.09,0.08l2.09,4.31l5.93-2.28l-1.32-4.59
		c0.82-0.62,1.57-1.33,2.23-2.13L1037.29,362.2z M1019.63,358.96c-3.72-1.66-5.4-6.02-3.74-9.74c1.66-3.72,6.02-5.4,9.74-3.74
		c3.72,1.66,5.4,6.01,3.75,9.74C1027.71,358.93,1023.35,360.6,1019.63,358.96z"/>
	<path class="st2" d="M1006.42,392l3.51-7.89l-5.67-3.14c0.2-1.39,0.24-2.79,0.1-4.19l5.84-2.84l-3.06-8.05l-6.23,1.81
		c-0.83-1.13-1.8-2.15-2.89-3.04l2.13-6.15l-7.95-3.56l-3.12,5.67c-1.39-0.2-2.79-0.24-4.19-0.12l-2.84-5.83l-8.07,3.11l1.81,6.21
		c-1.12,0.85-2.14,1.82-3.04,2.9l-6.13-2.06l-3.51,7.89l5.67,3.14c-0.2,1.39-0.24,2.79-0.1,4.19l-5.84,2.84l3.11,8.05l6.23-1.79
		c0.84,1.13,1.81,2.15,2.89,3.04l-2.13,6.13l7.9,3.51l3.12-5.69c1.39,0.21,2.79,0.25,4.19,0.12l2.84,5.83l8.07-3.09l-1.81-6.23
		c1.12-0.84,2.14-1.81,3.04-2.89L1006.42,392z M982.45,387.59c-5.06-2.25-7.33-8.18-5.08-13.24c2.25-5.06,8.18-7.33,13.24-5.08
		c5.06,2.25,7.33,8.18,5.08,13.24c0,0,0,0.01-0.01,0.01c-2.25,5.05-8.17,7.32-13.22,5.07C982.46,387.6,982.45,387.6,982.45,387.59z"
		/>
</g>
<g id="freepik--Earth--inject-5">
	<path class="st1" d="M656.39,317.15c-2.31,4.38-4.93,8.6-7.82,12.63c-31.02,43.13-89.11,56.76-136.08,31.93
		c-2.35-1.23-4.64-2.55-6.84-3.93s-4.34-2.8-6.4-4.32c-2.5-1.81-4.9-3.73-7.19-5.74l0,0c-0.15-0.11-0.28-0.23-0.41-0.37l0,0
		c-44.05-38.99-48.16-106.3-9.17-150.35c38.99-44.05,106.3-48.16,150.35-9.17c36.77,32.54,46.53,85.99,23.64,129.42L656.39,317.15z"
		/>
	<g>
		<defs>
			<path id="SVGID_1_" d="M656.39,317.15c-2.31,4.38-4.93,8.6-7.82,12.63c-31.02,43.13-89.11,56.76-136.08,31.93
				c-2.35-1.23-4.64-2.55-6.84-3.93s-4.34-2.8-6.4-4.32c-2.5-1.81-4.9-3.73-7.19-5.74l0,0c-0.15-0.11-0.28-0.23-0.41-0.37l0,0
				c-44.05-38.99-48.16-106.3-9.17-150.35c38.99-44.05,106.3-48.16,150.35-9.17c36.77,32.54,46.53,85.99,23.64,129.42L656.39,317.15
				z"/>
		</defs>
		<clipPath id="SVGID_2_">
			<use xlink:href="#SVGID_1_"  style="overflow:visible;"/>
		</clipPath>
		<g class="st4">
			<g class="st5">
				<path class="st6" d="M656.39,317.15c-2.31,4.38-4.93,8.6-7.82,12.63l-2.06-1.69l-3.55-1.87l-3.73-1.96l0.62-4.51l-0.2-4.07
					c-0.22-4.07,2.72-0.74,5.07-1.98c1.83-1.31,3.31-3.05,4.31-5.07c0,0,1.69-5.42,1.13-7.6c-0.91-2.51-1.98-4.96-3.21-7.33
					l-6.04,8.44l-5.07-0.39l-4.8-2.53l-0.62-6.67l-2.47-1.28l-1.03-3.83l-13.32-3.73l-1.52-2.67c-1.52-2.67-7.65-4.04-7.65-4.04
					l1.5-3.48l2.36-3.88c2.38-3.88,4.85,2.57,4.85,2.57l2.82,1.47l5.23-4.39l1.38-6.3l8.53,0.49c-0.34-1.76,0.58-3.51,2.23-4.22
					c2.84-1.11,1.59-7.28,0.51-9.56c-1.08-2.28-5.07-0.44-5.07-0.44s-4.34-6.6-4.93-9.24c-0.59-2.63,8.27-1.69,12.07-4.34
					c3.8-2.65,2.5-7.92,0.64-8.04c-1.86-0.12,3.63-11.99,14.18-8.73c2.94,0.91,4.8,0.59,5.94-0.42
					C672.76,249.45,672.65,286.3,656.39,317.15z"/>
				<path class="st6" d="M582.55,271.47l-3.61,4.54c0,0-1.54-3.66-3.73-1.69l-3.38,3.01l-2.45,6.86l-4.39,2.84l-2.68-1.4l-2.53-1.35
					l-2.75-1.45l-2.63,5.07l-2.14,4.05c1.05,1.99,2.34,3.83,3.87,5.49l4.66,8.22l5.67,2.87c2.37,0.09,4.72,0.37,7.04,0.84l3.9,2.04
					l-1.38,8.44c0,0-2.94,4.78-4.9,3.46l-1.98-1.3l-3.21,11.11l-0.14,6.11c0,0-1.91,0.79-3.83,1.44c-1.92,0.64-0.71,0.3-4.74,1.55
					c-4.04,1.25-3.71,1.2-6.99,2.13c-2.79,0.98-5.48,2.23-8.02,3.75l0.29,5.88l-7.72,1.13l-4.32-2.3l1.06-3.71l0.51-5.81l-0.59-4.34
					l-1.86-3.83l5.2-4.71l-1.15-2.95l-2.95-5.88l-6.25,3.38l-3.21,1.69l-7.26-3.26l-0.79-4.41l-2.43-7.92l-2.26-4.93l-4.02-5.44
					l-1.01-4.68l2.26-4.29l1.2-2.26l-3.7-4.98l-1.01-3.55l-6.23-5.66c0,0,1.81-0.12,1.4-2.63c-0.41-2.52,3.56-6.75,3.56-6.75
					c2.25,1.18,8.98,5.88,8.98,5.88l5.89,0.81c0,0,1.18,0,2.33-2.23c1.34-2.05,2.92-3.94,4.69-5.62c0,0-2.72-9.44-0.78-10.71
					c1.94-1.27,3.92-7.45,3.92-7.45l1.55-2.95c0,0-3.66-1.6-4.36-3.55c-0.69-1.94-9.73,0.64-9.73,0.64l-6.23,4.32l-4.91,3.8
					l-2.13,4.04c0,0-4.34-5.22-4.36-2.3c-0.33,2.99-0.99,5.94-1.96,8.8c0,0,0.89,0.47-0.29,2.74s-2.47,2.14-5.07,2.47
					c-3.39,0.03-6.78-0.2-10.13-0.69c0,0-1.69,6.25-0.52,7.33l1.15,1.05c0,0-1.81,4.54-3.6,3.6l-4.36-2.3l-6.1,2.47l-6.75,7.46
					l-1.5-0.3c-8.62-57.79,30.93-111.73,88.63-120.9c0.39,1.69,0.81,3.28,0.81,3.28l-1.69,8.34l-2.16,4.12l-1.86,3.53l-2.62,4.96
					l6.7,6.18l-1.44,7.31l-3.63,2.28l-1.05,5.49l6.23,12.17l1.69,4.78c-1.04,2.29-1.56,4.78-1.5,7.29c0,0,0.76,4.56,4.09,6.37
					c3.33,1.81,7.7,3.93,7.7,3.93l-0.35,6.75l-1.5,1.69l2.5,7.28c7.62,2.99,6.89,5.49,7.62,2.99l0.74-2.48l5.18-1.87l6.6,7.89
					c1.56-0.02,3.03,0.76,3.88,2.06C583.17,269.04,586.18,266.93,582.55,271.47z"/>
				<path class="st6" d="M493.06,330.29c0.19,2.4-2.85,5.4-2.85,5.4l2.48,1.3l0.76,6.75l-1.87,3.58
					c-13.28-11.73-23.41-26.61-29.46-43.26l1.35-7.16l5.96-0.84c0,0,5.34-3.55,7.7-2.6c2.36,0.95,4.53,6.75,4.53,6.75
					s1.69,7.83,1.47,7.68l0,0h-0.1h0.14l2.43,1.28l0.69,3.09l-3.38,6.42h-5.44c0,0-1.08-0.57-1.18,2.25
					c0.18,1.98,1.21,3.79,2.82,4.95l5.88-1.5l1.57-6.08l5.77-1.13c0,0-0.83,3.73,0.52,4.44l1.37,0.73l0.81,4.46
					C493.78,327.52,493.04,328.85,493.06,330.29z"/>
				<path class="st6" d="M520.98,339.84c-0.52-1.45-0.74-2.72-4.34-4.61c-3.6-1.89-3.38-1.22-4.8,0.35
					c-1.25,1.65-3.36,2.4-5.37,1.91c-2.36-0.52-1.13,2.14-1.13,2.14l0.57,7.21l-6.67,6.59c2.06,1.52,4.19,2.96,6.4,4.32l1.42-4.36
					l11.08,3.24c-2.35-0.69-0.96-3.9-0.96-3.9l-2.36-1.25C514.82,351.49,521.51,341.26,520.98,339.84z"/>
				<path class="st6" d="M590.76,302.36l-3.63-3.66l-4.15,1.3l-1.69,3.38l-1.27,2.43l1.69,3.38l3.38,4.1l1.92-3.68
					c0,0,5.35,0,8.16-3.09S590.76,302.36,590.76,302.36z"/>
				<path class="st6" d="M580.08,285.83l6.75,3.55l0.27-1.59c0.35-1.27,0.97-2.45,1.82-3.46l-5.17-5.47L580.08,285.83z"/>
				<path class="st6" d="M577.79,364.43l-1.94-2.85l-2.26-1.18h-6.91l-3.93,7.46c0,0-3.77-0.51-8.71-0.95
					c-4.95-0.44-3.73,1.6-3.73,1.6l-1.28,4.69c12.48,1.54,25.14,0.86,37.38-2.01c-1.42-0.99-2.9-1.91-4.42-2.74L577.79,364.43z"/>
			</g>
		</g>
	</g>
	<path class="st2" d="M656.39,317.15c-2.31,4.38-4.93,8.6-7.82,12.63c-31.02,43.13-89.11,56.76-136.08,31.93
		c-2.35-1.23-4.64-2.55-6.84-3.93s-4.34-2.8-6.4-4.32c-2.5-1.81-4.9-3.73-7.19-5.74l0,0c-0.15-0.11-0.28-0.23-0.41-0.37l0,0
		c-44.05-38.99-48.16-106.3-9.17-150.35c38.99-44.05,106.3-48.16,150.35-9.17c36.77,32.54,46.53,85.99,23.64,129.42L656.39,317.15z"
		/>
	<path class="st2" d="M586.4,371.2c-12.25,2.87-24.9,3.55-37.38,2.01l1.28-4.69c0,0-1.22-2.04,3.73-1.6
		c4.95,0.44,8.71,0.95,8.71,0.95l3.93-7.46h6.91l2.26,1.18l1.94,2.85l4.19,4.04C583.5,369.29,584.98,370.21,586.4,371.2z"/>
	<path class="st2" d="M656.76,218.52c-1.15,1.01-3.01,1.33-5.94,0.42c-10.55-3.26-16.02,8.59-14.18,8.73
		c1.84,0.14,3.14,5.47-0.64,8.04c-3.78,2.57-12.66,1.69-12.07,4.34s4.93,9.24,4.93,9.24s3.88-1.82,4.98,0.44s2.35,8.44-0.49,9.56
		c-1.64,0.71-2.57,2.46-2.23,4.22l-8.53-0.49l-1.38,6.3l-5.23,4.39l-2.82-1.47c0,0-2.47-6.45-4.85-2.57l-2.36,3.88l-1.5,3.48
		c0,0,6.13,1.37,7.65,4.04l1.52,2.67l13.32,3.73l1.03,3.83l2.47,1.28l0.62,6.67l4.96,2.6l5.07,0.39l6.04-8.44
		c1.23,2.37,2.3,4.82,3.21,7.33c0.59,2.18-1.13,7.6-1.13,7.6c-1,2.02-2.48,3.76-4.31,5.07c-2.41,1.23-5.37-2.09-5.07,1.98l0.2,4.07
		l-0.62,4.51l3.73,1.96l3.55,1.87l2.06,1.69"/>
	<path class="st2" d="M456.8,283.18l1.5,0.3l6.75-7.46l6.1-2.47l4.36,2.3c1.79,0.95,3.6-3.6,3.6-3.6l-1.15-1.05
		c-1.17-1.08,0.52-7.33,0.52-7.33c3.35,0.49,6.74,0.73,10.13,0.69c2.67-0.32,3.93-0.22,5.07-2.47s0.29-2.74,0.29-2.74
		c0.97-2.85,1.63-5.8,1.96-8.8c0-2.92,4.36,2.3,4.36,2.3l2.13-4.04l4.76-3.78l6.23-4.32c0,0,9.03-2.6,9.73-0.64
		c0.69,1.96,4.36,3.55,4.36,3.55l-1.55,2.95c0,0-1.99,6.15-3.92,7.45c-1.92,1.3,0.78,10.71,0.78,10.71
		c-1.78,1.69-3.35,3.57-4.69,5.62c-1.18,2.26-2.33,2.23-2.33,2.23l-5.89-0.81c0,0-6.75-4.69-8.98-5.88c0,0-3.97,4.24-3.56,6.75
		c0.41,2.52-1.4,2.63-1.4,2.63l6.23,5.66l1.01,3.55l3.7,4.98l-1.2,2.26l-2.26,4.29l1.01,4.68l4.02,5.44l2.28,4.91l2.47,7.95
		l0.79,4.41l7.26,3.26l3.21-1.69l6.25-3.38l2.95,5.88l1.15,2.95l-5.2,4.71l1.86,3.83l0.59,4.34l-0.51,5.81l-1.06,3.71l4.32,2.3
		l7.72-1.11l-0.29-5.89c2.54-1.52,5.23-2.77,8.02-3.75c3.28-0.93,2.95-0.88,6.99-2.13c4.04-1.25,2.8-0.91,4.74-1.55
		c1.94-0.64,3.83-1.44,3.83-1.44l0.14-6.11l3.21-11.11l1.98,1.3c1.96,1.32,4.9-3.46,4.9-3.46l1.38-8.44l-3.98-2.08
		c-2.32-0.47-4.67-0.76-7.04-0.84l-5.56-2.92l-4.66-8.22c-1.52-1.65-2.82-3.5-3.87-5.49l2.14-4.05l2.63-5.07l2.75,1.45l2.53,1.35
		l2.68,1.4l4.39-2.84l2.45-6.86l3.38-3.01c2.2-1.99,3.73,1.69,3.73,1.69l3.61-4.54c3.63-4.54,0.62-2.43-1.23-4.76
		c-0.86-1.3-2.32-2.08-3.88-2.06l-6.6-7.89l-5.25,1.99l-0.74,2.48c-0.73,2.5,0,0-7.62-2.99l-2.5-7.28l1.5-1.69l0.35-6.75
		c0,0-4.37-2.14-7.7-3.93s-4.09-6.37-4.09-6.37c-0.05-2.51,0.46-5.01,1.5-7.29l-1.69-4.78l-6.23-12.17l1.05-5.49l3.63-2.28
		l1.44-7.31l-6.52-6.18l2.62-4.96l1.86-3.53l2.16-4.12l1.69-8.34c0,0-0.42-1.55-0.81-3.28"/>
	<path class="st2" d="M492.14,347.69c-0.13-0.15-0.28-0.29-0.44-0.41l0,0l1.87-3.58l-0.76-6.75l-2.48-1.3c0,0,3.04-3.01,2.85-5.4
		c-0.07-1.46,0.66-2.84,1.91-3.6l-0.81-4.46l-1.37-0.73c-1.35-0.71-0.52-4.44-0.52-4.44l-5.77,1.13l-1.57,6.08l-5.88,1.5
		c-1.61-1.16-2.64-2.97-2.82-4.95c0.1-2.82,1.18-2.25,1.18-2.25h5.44l3.38-6.42l-0.69-3.09l-2.43-1.28"/>
	<path class="st2" d="M483.08,307.76L483.08,307.76c0.27,0.15-1.47-7.68-1.47-7.68s-2.16-5.72-4.53-6.75c-2.36-1.03-7.7,2.6-7.7,2.6
		l-5.96,0.84l-1.35,7.16"/>
	<path class="st2" d="M507.07,353.4l-1.42,4.36c-2.25-1.37-4.38-2.81-6.4-4.32l6.67-6.59l-0.57-7.21c0,0-1.23-2.67,1.13-2.14
		c2.01,0.49,4.12-0.26,5.37-1.91c1.38-1.57,1.22-2.25,4.8-0.35c3.58,1.89,3.82,3.16,4.34,4.61c0.52,1.45-6.16,11.7-6.16,11.7
		l2.36,1.25c0,0-1.38,3.21,0.96,3.9L507.07,353.4z"/>
	<path class="st2" d="M582.97,299.99l4.15-1.3l3.63,3.66c0,0,7.18,0.93,4.37,4.05s-8.16,3.09-8.16,3.09l-1.96,3.68l-3.38-4.1
		l-1.69-3.38l1.27-2.43L582.97,299.99z"/>
	<path class="st2" d="M588.93,284.32c-0.85,1.01-1.47,2.19-1.82,3.46l-0.27,1.59l-6.75-3.55l3.68-6.97L588.93,284.32z"/>
</g>
<g id="freepik--Character--inject-5">
	<path class="st3" d="M955.36,682.62c-9.05,7.53-78.77,55.38-178.26,47.67c-5.35-45.29-25.77-231.33-2.55-260.51
		c0,0,56.33-26.86,108.22-15.59c51.89,11.28,72.08,22.09,75.78,31.44C961.36,492.71,957.35,624.45,955.36,682.62z"/>
	<path class="st7" d="M881.05,474.06c-29.89,25.89-68.39,20.41-67.54,0.54c0.14-3.11,3.46-6.96,3.46-6.96l-1.17-1.79l-5.07-7.65
		c-3.7-5.72-8.32-12.92-11.55-18.15c-2.7-4.46,64.65-45.89,64.65-22.07c0,33.57,16.48,39.88,16.48,39.88
		C886.54,460.37,892.33,464.32,881.05,474.06z"/>
	<path class="st8" d="M899.94,525.33c0,0-6.03,20.67-3.17,26.59"/>
	<path class="st8" d="M892.9,465.32c0,19.94-59.49,39.48-76.91,19.47"/>
	<path class="st3" d="M843.97,442.3c0,0-3.98,15.03-22.56,26.76c-0.89-1.52-2.32-2.65-4-3.16c-0.56-0.09-1.13-0.09-1.69,0
		l-5.07-7.65C820.26,451.34,843.97,442.3,843.97,442.3z"/>
	<path class="st7" d="M852.31,423.83c0,0-0.2,14.83-3.38,17.85c-23.56,22.59-46.59,24.38-50.39,18.42
		c-25.58-40.12-19.54-50.66-22.14-57.53c-4.61-12.06-10.27-31.74-7.77-43.67c5.57-26.63,55.72-47.28,82.13-20.5
		c12.66,12.82,16.67,40.63,14,63.79"/>
	<path class="st2" d="M779.64,390.18c0,0-7.04-3.16-8.56,0.61"/>
	<path class="st2" d="M796.71,390.41c0,0,14.64-6.13,21.22,1.32"/>
	<path class="st3" d="M812.97,400.8c0.24,2.2-0.83,4.1-2.4,4.29c-1.57,0.19-3.02-1.49-3.26-3.68c-0.24-2.2,0.83-4.12,2.4-4.29
		C811.28,396.95,812.66,398.6,812.97,400.8z"/>
	<path class="st3" d="M784.26,401.46c0.25,2.2-0.83,4.12-2.4,4.29s-3.02-1.47-3.26-3.66c-0.24-2.2,0.83-4.12,2.4-4.29
		C782.57,397.62,783.99,399.26,784.26,401.46z"/>
	<path class="st7" d="M784.97,395.68c2.04,3.29,0.93,8.92-1.77,16.63s-0.32,10.5,10.05,11.28"/>
	<path class="st2" d="M793.24,436.95c0,0,13.51-1.23,19.69-4.63"/>
	<path class="st3" d="M878.82,360.39c0-10.03-9.89-30.61-27.25-32.93l0,0c-9.98-10.44-24.2-14.27-41.45-10.3
		c-39.88,9.15-52.02,48.53-53.76,55.05c-0.17,0.61-0.25,0.95-0.25,0.95l10.67-2.7l-4.59,8.97l5.59,3.7l-1.28,1.42l6.48,6.25
		l-2.03-11.41c1.25-7.36,9.73-17.66,9.73-17.66c-3.09,4.01-5.02,8.79-5.57,13.83c3.38-8.76,23.64-16.89,23.64-16.89
		c-6.57,5.34-10.13,15.77-10.13,15.77c6.25-7.7,20.89-12.68,30.26-15.33c3.16,7.62,8.17,15.57,15.33,19.98
		c6.75,4.15,6.52,12.73,6.52,12.73c7.27,5.05,12.62,12.4,15.2,20.87l8.17,11.18C864.08,423.85,878.82,405.76,878.82,360.39z"/>
	<path class="st7" d="M844.42,394.67c-2.74-5.86,7.19-21.73,14.23-19.77c3.95,1.11,9.12,8.32,10.13,15.89
		c1.01,7.56-4.34,21.95-10.05,25.07c-3.63,2.03-6.62-3.5-6.62-3.5"/>
	<polygon class="st6" points="413.64,681.27 604.43,636.65 1002.39,682.62 899.93,752.69 	"/>
	<polyline class="st7" points="413.64,681.27 604.43,636.65 1002.39,682.62 	"/>
	<polygon class="st7" points="578.75,690.21 655.98,656.07 753.63,661.12 710.2,698.25 	"/>
	<path class="st3" d="M778.32,468.09c-24.77,10.13-30.11,32.91-72.2,122.93c0,0-18.69,3.83-28.71,26.54
		c-10.01,22.71,6.75,40.64,26.05,40.04c0,0,7.75,6.75,23.64,6.06c15.89-0.69,86.12-108.15,86.12-108.15L778.32,468.09z"/>
	<path class="st8" d="M713.5,596.3c11.08,9.86,17.44,24.33,14.07,40.37"/>
	<path class="st8" d="M724.18,601.04c0,0,13.61,2.97,15.72,20.4"/>
	<path class="st8" d="M764,550.05c-6.43-15.87-8.65-33.12-6.45-50.1"/>
	<path class="st8" d="M762.07,527.08c-1.03,7.09,6.3,44.85,6.25,84.55"/>
	<path class="st3" d="M947.24,475.55c30.98,15.57,34.67,63.47,5.44,120.75c-20.65,40.42-49.15,100.11-67.19,104.12
		s-35.63-7.23-35.63-7.23s-15.2-0.71-19.79-11.52c-12.56-29.53,19.37-66.85,31.86-57.92c0,0,40.12-87.25,47.43-92.75"/>
	<path class="st8" d="M827.2,663.72c-4.1-20.38,27.98-44.43,34.73-39.97c0,0,23.83,1.33,27.39,17.81"/>
	<path class="st8" d="M914.48,668.06c13.95-24.6,38.19-71.76,38.19-71.76"/>
	<path class="st8" d="M861.93,623.75c0,0,16.7-10,29.18-0.54"/>
	<path class="st8" d="M867.64,611.61c0,0,9.22-20.26,18.57-38.84c9.35-18.57,30.77-46.08,39.66-47.41"/>
	<path class="st6" d="M691.66,648.03c-2.01-0.1-3.97-0.63-5.74-1.57c-28.71-14.98-51.03-39.73-64.47-57.49
		c-5.23-6.79-10.04-13.89-14.4-21.26l6.89-29.52c0,0,6.48,16.89,32.54,33.48c26.05,16.6,57.01,22.07,67.02,38.84
		C722.36,625.12,706.74,648.76,691.66,648.03z"/>
	<g>
		<defs>
			<path id="SVGID_3_" d="M691.66,648.03c-2.01-0.1-3.97-0.63-5.74-1.57c-28.71-14.98-51.03-39.73-64.47-57.49
				c-5.23-6.79-10.04-13.89-14.4-21.26l6.89-29.52c0,0,6.48,16.89,32.54,33.48c26.05,16.6,57.01,22.07,67.02,38.84
				C722.36,625.12,706.74,648.76,691.66,648.03z"/>
		</defs>
		<clipPath id="SVGID_4_">
			<use xlink:href="#SVGID_3_"  style="overflow:visible;"/>
		</clipPath>
		<g class="st9">
			<path class="st10" d="M691.66,648.03c-0.32-2.14-0.89-4.23-1.69-6.23c-6.03-15.1-42.5-45.1-42.5-45.1
				c-8.68-0.27-18.22-3.88-25.99-7.73c-5.24-6.79-10.06-13.89-14.44-21.26l6.89-29.52c0,0,6.48,16.89,32.54,33.48
				c26.05,16.6,57.01,22.07,67.02,38.84C722.36,625.12,706.74,648.76,691.66,648.03z"/>
		</g>
	</g>
	<path class="st2" d="M691.66,648.03c-2.01-0.1-3.97-0.63-5.74-1.57c-28.71-14.98-51.03-39.73-64.47-57.49
		c-5.23-6.79-10.04-13.89-14.4-21.26l6.89-29.52c0,0,6.48,16.89,32.54,33.48c26.05,16.6,57.01,22.07,67.02,38.84
		C722.36,625.12,706.74,648.76,691.66,648.03z"/>
	<path class="st7" d="M626.65,565.92c0,0-3.56,15.74-12.95,12.21c-5.07-1.91-14.83-17.04-16.67-24.67L626.65,565.92z"/>
	<path class="st7" d="M585.27,469.02l7.67-3.95c0,0,21.66,0.19,35.1,11.11c12.21,9.93,18.41,25.48,18.41,25.48
		s47.43-26.19,95.88-11.16l19.76,110.11l-90.83,5.94l-56.68-53.85L585.27,469.02z"/>
	<path class="st1" d="M768.32,605.01c0,0-10.65-0.32-24.91,0.15c-21.55,0.68-51.31,3.11-64.92,11.03l-0.64-0.22l-12.46-4.36
		l-0.25-0.37c-2.3-3.38-20.82-29.97-47.28-40.8l-37.42-104.55c0,0,38.84,1.69,60.06,36.78l10.65,3.85c0,0,63.4-18.78,98.9-12.02
		L768.32,605.01z"/>
	<g>
		<defs>
			<path id="SVGID_5_" d="M768.32,605.01c0,0-10.65-0.32-24.91,0.15c-21.55,0.68-51.31,3.11-64.92,11.03l-0.64-0.22l-12.46-4.36
				l-0.25-0.37c-2.3-3.38-20.82-29.97-47.28-40.8l-37.42-104.55c0,0,38.84,1.69,60.06,36.78l10.65,3.85c0,0,63.4-18.78,98.9-12.02
				L768.32,605.01z"/>
		</defs>
		<clipPath id="SVGID_6_">
			<use xlink:href="#SVGID_5_"  style="overflow:visible;"/>
		</clipPath>
		<g class="st11">
			<path class="st12" d="M665.14,611.26c-2.3-3.38-20.82-29.97-47.28-40.8l-37.42-104.55c0,0,38.84,1.69,60.06,36.78L665.14,611.26z
				"/>
			<path class="st12" d="M743.42,605.16c-21.55,0.68-51.31,3.11-64.92,11.03l-0.64-0.22L652.96,510.3c0,0,20.36-4.58,26.63-2.26
				C679.57,508.07,720.98,538.62,743.42,605.16z"/>
		</g>
	</g>
	<path class="st2" d="M768.32,605.01c0,0-10.65-0.32-24.91,0.15c-21.55,0.68-51.31,3.11-64.92,11.03l-0.64-0.22l-12.46-4.36
		l-0.25-0.37c-2.3-3.38-20.82-29.97-47.28-40.8l-37.42-104.55c0,0,38.84,1.69,60.06,36.78l10.65,3.85c0,0,63.4-18.78,98.9-12.02
		L768.32,605.01z"/>
	<line class="st2" x1="651.19" y1="506.54" x2="675.62" y2="607.9"/>
	<line class="st2" x1="665.39" y1="611.63" x2="641.65" y2="510.33"/>
	<path class="st7" d="M605.07,567.8c-5.42-1.5-16.35-34.07-11.35-48.11c0,0,5.94-10.32,8.44-11.03c3.78-1.1,19.05-0.78,18.3,1.79
		c-1.69,5.94-13.41,5.84-13.41,5.84l-3.8,6.96l0.15,3.83c0,0,5.52-4.02,7.55-3.9c1.05,0,6.45,2.7,10.74,4.96
		c3.66,1.94,5.91,3.01,5.07,4.76c-2.72,5.84-14.29,1.69-14.29,1.69l-4.36,6.57c0,0,4.2,0.73,6.04,0.93s17.12,10.38,16.67,11.65
		c-1.81,4.96-16.29-0.41-16.29-0.41l-2.57,2.14c0,0,10.67,2.75,11.82,3.16c1.69,0.62,8.19,5.62,8.09,6.2
		c-0.78,4.39-9.74,1.17-9.74,1.17l-7.85-0.32c-1.2,1.06-2.63,1.8-4.19,2.16"/>
	<path class="st2" d="M603.35,527.08c0,0-5.07,4.26-6.37,5.49c-1.3,1.23-0.98,5.15-0.98,5.15"/>
	<path class="st2" d="M599.69,546.37c0,4.29,2.87,6.89,4.19,8.27c1.32,1.38-2.11,5.15,1.69,7.85"/>
	<path class="st6" d="M849.79,682.31c-10.72,2.92-22.37-15.92-36.59-36.49l0,0c-9.39-13.51-19.89-27.91-31.96-37.15
		c-0.96-0.73-1.94-1.44-2.92-2.11l7.06-35.46c14.66,7.68,23.74,19.99,38.95,32.64c24.48,20.38,46.18,32.89,52.19,41.91
		C882.53,654.67,868.17,677.3,849.79,682.31z"/>
	<g>
		<defs>
			<path id="SVGID_7_" d="M849.79,682.31c-10.72,2.92-22.37-15.92-36.59-36.49l0,0c-9.39-13.51-19.89-27.91-31.96-37.15
				c-0.96-0.73-1.94-1.44-2.92-2.11l7.06-35.46c14.66,7.68,23.74,19.99,38.95,32.64c24.48,20.38,46.18,32.89,52.19,41.91
				C882.53,654.67,868.17,677.3,849.79,682.31z"/>
		</defs>
		<clipPath id="SVGID_8_">
			<use xlink:href="#SVGID_7_"  style="overflow:visible;"/>
		</clipPath>
		<g class="st13">
			<path class="st10" d="M813.2,645.81c-9.39-13.51-19.89-27.91-31.96-37.15c1.59,0.08,3.18-0.16,4.68-0.71
				C785.92,607.95,805,623.43,813.2,645.81z"/>
		</g>
	</g>
	<path class="st2" d="M849.79,682.31c-10.72,2.92-22.37-15.92-36.59-36.49l0,0c-9.39-13.51-19.89-27.91-31.96-37.15
		c-0.96-0.73-1.94-1.44-2.92-2.11l7.06-35.46c14.66,7.68,23.74,19.99,38.95,32.64c24.48,20.38,46.18,32.89,52.19,41.91
		C882.53,654.67,868.17,677.3,849.79,682.31z"/>
	<path class="st6" d="M789.33,605.16c-0.73,1.31-1.94,2.29-3.38,2.74c-0.38,0.15-0.77,0.28-1.17,0.39h-0.32
		c-11.33,2.95-36.83-3.19-36.83-3.19s-16.7-7.94-17.71-9.81c-0.71-1.49-1.33-3.01-1.87-4.56l-0.46-1.33c0,0-6.01-3.38-6.75-6.01
		c-0.74-2.63-2.01-3.38,1.69-3.85c3.7-0.47,23.64,0,23.64,0l-21.7-8.85c0,0-14.37-7.24-15.7-9.79c-1.33-2.55-3.01-4.24,4.34-3.23
		c7.35,1.01,23.39,5.67,23.39,5.67l12.65,2.68l-12.56-5.35c0,0-24.72-2.99-20.04-10.67h14.03c7.95,0.35,15.86,1.36,23.64,3.01
		c4.09,1.25,31.1,18.03,31.1,18.03"/>
	<g>
		<defs>
			<path id="SVGID_9_" d="M789.33,605.16c-0.73,1.31-1.94,2.29-3.38,2.74c-0.38,0.15-0.77,0.28-1.17,0.39h-0.32
				c-11.33,2.95-36.83-3.19-36.83-3.19s-16.7-7.94-17.71-9.81c-0.71-1.49-1.33-3.01-1.87-4.56l-0.46-1.33c0,0-6.01-3.38-6.75-6.01
				c-0.74-2.63-2.01-3.38,1.69-3.85c3.7-0.47,23.64,0,23.64,0l-21.7-8.85c0,0-14.37-7.24-15.7-9.79c-1.33-2.55-3.01-4.24,4.34-3.23
				c7.35,1.01,23.39,5.67,23.39,5.67l12.65,2.68l-12.56-5.35c0,0-24.72-2.99-20.04-10.67h14.03c7.95,0.35,15.86,1.36,23.64,3.01
				c4.09,1.25,31.1,18.03,31.1,18.03"/>
		</defs>
		<clipPath id="SVGID_10_">
			<use xlink:href="#SVGID_9_"  style="overflow:visible;"/>
		</clipPath>
		<g class="st14">
			<path class="st10" d="M784.43,608.35c-11.33,2.95-36.83-3.19-36.83-3.19s-16.7-7.94-17.71-9.81c-0.71-1.49-1.33-3.01-1.87-4.56
				l20.5,2.25c-1.46,2.63-1.46,5.82,0,8.44C750.8,605.58,776.76,609.74,784.43,608.35z"/>
		</g>
	</g>
	<path class="st2" d="M789.33,605.16c-0.73,1.31-1.94,2.29-3.38,2.74c-0.38,0.15-0.77,0.28-1.17,0.39h-0.32
		c-11.33,2.95-36.83-3.19-36.83-3.19s-16.7-7.94-17.71-9.81c-0.71-1.49-1.33-3.01-1.87-4.56l-0.46-1.33c0,0-6.01-3.38-6.75-6.01
		c-0.74-2.63-2.01-3.38,1.69-3.85c3.7-0.47,23.64,0,23.64,0l-21.7-8.85c0,0-14.37-7.24-15.7-9.79c-1.33-2.55-3.01-4.24,4.34-3.23
		c7.35,1.01,23.39,5.67,23.39,5.67l12.65,2.68l-12.56-5.35c0,0-24.72-2.99-20.04-10.67h14.03c7.95,0.35,15.86,1.36,23.64,3.01
		c4.09,1.25,31.1,18.03,31.1,18.03"/>
	<line class="st2" x1="727.56" y1="589.46" x2="752.23" y2="593.09"/>
	<path class="st1" d="M481.64,665l61.83,18.57l113.13-25.82c0,0-69.09-19.62-69.74-19.13C586.23,639.12,481.64,665,481.64,665z"/>
	<g>
		<defs>
			<path id="SVGID_11_" d="M481.64,665l61.83,18.57l113.13-25.82c0,0-69.09-19.62-69.74-19.13C586.23,639.12,481.64,665,481.64,665z
				"/>
		</defs>
		<clipPath id="SVGID_12_">
			<use xlink:href="#SVGID_11_"  style="overflow:visible;"/>
		</clipPath>
		<g class="st15">
			<path class="st12" d="M481.64,665l61.83,18.57l113.13-25.82c0,0-69.09-19.62-69.74-19.13C586.23,639.12,481.64,665,481.64,665z"
				/>
		</g>
	</g>
	<path class="st2" d="M481.64,665l61.83,18.57l113.13-25.82c0,0-69.09-19.62-69.74-19.13C586.23,639.12,481.64,665,481.64,665z"/>
	<path class="st1" d="M482.54,643.22c-4.34,0.3-5.42,15.94-0.89,21.78l99.89-20.74l8-18.95L482.54,643.22z"/>
	<g>
		<defs>
			<path id="SVGID_13_" d="M482.54,643.22c-4.34,0.3-5.42,15.94-0.89,21.78l99.89-20.74l8-18.95L482.54,643.22z"/>
		</defs>
		<clipPath id="SVGID_14_">
			<use xlink:href="#SVGID_13_"  style="overflow:visible;"/>
		</clipPath>
		<g class="st16">
			<path class="st12" d="M482.54,643.22c-4.34,0.3-5.42,15.94-0.89,21.78l99.89-20.74l8-18.95L482.54,643.22z"/>
		</g>
	</g>
	<path class="st2" d="M482.54,643.22c-4.34,0.3-5.42,15.94-0.89,21.78l99.89-20.74l8-18.95L482.54,643.22z"/>
	<path class="st7" d="M651.76,643c0,0-1.49,8.22-0.52,13.29l-107.88,24.42l-56.87-16.75c0,0-5.91-10.45-0.76-18.57l103.91-17.65
		L651.76,643z"/>
	<polygon class="st17" points="482.54,643.22 589.54,625.32 655.98,642.16 544.24,664.43 	"/>
	<polyline class="st2" points="486.34,653.22 542.92,670.07 635.54,651.43 	"/>
	<line class="st2" x1="650.93" y1="653.15" x2="551.34" y2="674.39"/>
	<path class="st2" d="M487.67,659.85c0.86,0.08,42.65,12.95,42.65,12.95"/>
	<line class="st2" x1="642.8" y1="649.25" x2="650.72" y2="647.97"/>
	<line class="st2" x1="541.08" y1="675.93" x2="536.87" y2="674.98"/>
	<path class="st3" d="M485.73,645.38c4.56,5.25,4.88,12.97,0.76,18.57C482.71,658.42,482.42,651.21,485.73,645.38z"/>
	<g>
		<defs>
			<path id="SVGID_15_" d="M485.73,645.38c4.56,5.25,4.88,12.97,0.76,18.57C482.71,658.42,482.42,651.21,485.73,645.38z"/>
		</defs>
		<clipPath id="SVGID_16_">
			<use xlink:href="#SVGID_15_"  style="overflow:visible;"/>
		</clipPath>
		<g class="st18">
			<path class="st19" d="M485.73,645.38c4.56,5.25,4.88,12.97,0.76,18.57C482.71,658.42,482.42,651.21,485.73,645.38z"/>
		</g>
	</g>
	<path class="st2" d="M485.73,645.38c4.56,5.25,4.88,12.97,0.76,18.57C482.71,658.42,482.42,651.21,485.73,645.38z"/>
	<polygon class="st6" points="716.84,670.07 824.82,674.49 814.3,711.66 681.46,706.59 	"/>
	<g>
		<defs>
			<polygon id="SVGID_17_" points="716.84,670.07 824.82,674.49 814.3,711.66 681.46,706.59 			"/>
		</defs>
		<clipPath id="SVGID_18_">
			<use xlink:href="#SVGID_17_"  style="overflow:visible;"/>
		</clipPath>
		<g class="st20">
			<polygon class="st10" points="716.84,670.07 824.82,674.49 814.3,711.66 681.46,706.59 			"/>
		</g>
	</g>
	<polygon class="st2" points="716.84,670.07 824.82,674.49 814.3,711.66 681.46,706.59 	"/>
</g>
</svg>
