<?xml version="1.0" encoding="utf-8"?>
<!-- Generator: Adobe Illustrator 23.1.0, SVG Export Plug-In . SVG Version: 6.00 Build 0)  -->
<svg version="1.1" id="Layer_1" xmlns="http://www.w3.org/2000/svg" xmlns:xlink="http://www.w3.org/1999/xlink" x="0px" y="0px"
	 viewBox="0 0 1366 768" style="enable-background:new 0 0 1366 768;" xml:space="preserve">
<style type="text/css">
	.st0{fill:#92E3A9;}
	.st1{opacity:0.7;fill:#FFFFFF;enable-background:new    ;}
	.st2{opacity:0.2;}
	.st3{fill:none;stroke:#000000;stroke-linecap:round;stroke-linejoin:round;}
	.st4{fill:none;stroke:#263238;stroke-linecap:round;stroke-linejoin:round;}
	.st5{opacity:0.3;}
	.st6{fill:#FFFFFF;stroke:#263238;stroke-linecap:round;stroke-linejoin:round;}
	.st7{fill:#263238;stroke:#263238;stroke-linecap:round;stroke-linejoin:round;}
	.st8{fill:#92E3A9;stroke:#263238;stroke-linecap:round;stroke-linejoin:round;}
	.st9{fill:#BFBFBF;stroke:#263238;stroke-linecap:round;stroke-linejoin:round;}
	.st10{fill:#A1A1A1;stroke:#263238;stroke-linecap:round;stroke-linejoin:round;}
	.st11{opacity:0.2;enable-background:new    ;}
	.st12{fill:#263238;}
	.st13{fill:none;stroke:#7A7A7A;stroke-linecap:round;stroke-linejoin:round;}
</style>
<g id="freepik--background-simple--inject-116">
	<path class="st0" d="M1188.44,655.67c0,0,44.56-80.87,42.91-212.91c-1.65-132.04-80.87-255.82-178.25-290.48
		s-183.2,9.9-298.73,14.85c-115.53,4.95-183.2-140.29-348.24-70.97S241.08,305.77,269.14,373.44s80.87,100.68,23.11,148.54
		c-57.77,47.86-113.88,77.57-130.39,95.73c-9.76,10.52-16.09,23.76-18.15,37.96H1188.44z"/>
	<path class="st1" d="M1188.44,655.67c0,0,44.56-80.87,42.91-212.91c-1.65-132.04-80.87-255.82-178.25-290.48
		s-183.2,9.9-298.73,14.85c-115.53,4.95-183.2-140.29-348.24-70.97S241.08,305.77,269.14,373.44s80.87,100.68,23.11,148.54
		c-57.77,47.86-113.88,77.57-130.39,95.73c-9.76,10.52-16.09,23.76-18.15,37.96H1188.44z"/>
</g>
<g id="freepik--Coins--inject-116">
	<g class="st2">
		<path class="st3" d="M462.24,73.22c-22.31,0.02-40.39,18.12-40.37,40.44c0.02,22.31,18.12,40.39,40.44,40.37
			c22.29-0.02,40.35-18.08,40.37-40.37C502.68,91.33,484.58,73.22,462.24,73.22L462.24,73.22z M466.35,138.3v3.9h-6.85v-3.9
			c-6.02-1.2-9.06-5.86-9.06-13.09v-3.65h7.92v4.18c0,3.81,1.65,5.18,4.34,5.18c2.69,0,4.34-1.37,4.34-5.18
			c0-10.96-16.37-11.55-16.37-26.72c0-7.16,2.97-11.72,8.83-13.02v-3.96h6.85V86c5.94,1.22,8.98,5.79,8.98,13.02v1.65h-7.91v-2.18
			c0-3.81-1.53-5.26-4.19-5.26s-4.19,1.45-4.19,5.26c0,10.96,16.37,11.55,16.37,26.72c0.03,7.23-3.09,11.88-9.03,13.09H466.35z"/>
		<path class="st3" d="M462.24,57c-31.27-0.01-56.63,25.34-56.64,56.61c-0.01,31.27,25.34,56.63,56.61,56.64
			c31.27,0.01,56.63-25.34,56.64-56.61c0-0.01,0-0.02,0-0.03C518.85,82.34,493.51,57,462.24,57z M462.24,160.12
			c-25.69-0.02-46.49-20.86-46.48-46.54c0.02-25.69,20.86-46.49,46.54-46.48c25.69,0.02,46.49,20.86,46.48,46.54
			c0,0.01,0,0.01,0,0.02C508.73,139.33,487.91,160.11,462.24,160.12z"/>
	</g>
	<g class="st2">
		<path class="st3" d="M798.77,80.55c-16.33,0-29.56,13.23-29.56,29.56c0,16.33,13.23,29.56,29.56,29.56
			c16.33,0,29.56-13.23,29.56-29.56C828.31,93.79,815.09,80.57,798.77,80.55z M801.77,128.18v2.84h-4.95v-2.84
			c-4.41-0.89-6.6-4.29-6.6-9.59v-2.67h5.79v3.07c0,2.79,1.24,3.78,3.19,3.78c1.95,0,3.17-0.99,3.17-3.78
			c0-8.02-11.98-8.42-11.98-19.56c0-5.23,2.18-8.58,6.47-9.52V87h4.95v2.9c4.34,0.89,6.6,4.23,6.6,9.52v1.22h-5.79V99
			c0-2.77-1.11-3.85-3.07-3.85s-3.05,1.07-3.05,3.85c0,8.02,11.98,8.42,11.98,19.56C808.41,123.89,806.12,127.29,801.77,128.18z"/>
		<path class="st3" d="M798.77,68.68c-22.88,0-41.43,18.55-41.43,41.43s18.55,41.43,41.43,41.43s41.43-18.55,41.43-41.43
			C840.2,87.23,821.65,68.68,798.77,68.68L798.77,68.68z M798.77,144.14c-18.8,0-34.03-15.24-34.03-34.03s15.24-34.03,34.03-34.03
			c18.8,0,34.03,15.24,34.03,34.03c0,0,0,0,0,0C832.79,128.9,817.56,144.12,798.77,144.14z"/>
	</g>
	<g class="st2">
		<path class="st3" d="M181.47,342.59c-16.33,0-29.56,13.23-29.56,29.56c0,16.33,13.23,29.56,29.56,29.56s29.56-13.23,29.56-29.56
			l0,0C211.01,355.83,197.79,342.61,181.47,342.59z M184.47,390.22v2.84h-4.95v-2.84c-4.41-0.89-6.6-4.29-6.6-9.59v-2.67h5.79v3.07
			c0,2.79,1.22,3.8,3.19,3.8s3.07-1.01,3.07-3.8c0-8.02-11.98-8.42-11.98-19.56c0-5.23,2.18-8.58,6.47-9.52v-2.9h4.95v2.9
			c4.34,0.89,6.6,4.23,6.6,9.52v1.22h-5.76v-1.65c0-2.77-1.12-3.83-3.07-3.83s-3.05,1.06-3.05,3.83c0,8.04,11.97,8.42,11.97,19.56
			C191.09,385.98,188.81,389.28,184.47,390.22z"/>
		<path class="st3" d="M181.47,330.72c-22.88,0.02-41.41,18.58-41.39,41.46c0.02,22.88,18.58,41.41,41.46,41.39
			c22.87-0.02,41.39-18.56,41.39-41.43C222.92,349.26,204.36,330.72,181.47,330.72z M181.47,406.18c-18.8,0-34.03-15.24-34.03-34.03
			c0-18.8,15.24-34.03,34.03-34.03c18.8,0,34.03,15.24,34.03,34.03l0,0C215.48,390.94,200.26,406.17,181.47,406.18z"/>
	</g>
	<g class="st2">
		<path class="st3" d="M1187.48,309.73c-16.33,0-29.56,13.23-29.56,29.56c0,16.33,13.23,29.56,29.56,29.56
			c16.33,0,29.56-13.23,29.56-29.56c0,0,0,0,0,0C1217.03,322.97,1203.8,309.75,1187.48,309.73z M1190.49,357.36v2.84h-4.95v-2.84
			c-4.39-0.89-6.6-4.29-6.6-9.59v-2.67h5.79v3.07c0,2.77,1.22,3.78,3.17,3.78s3.17-1.01,3.17-3.78c0-8.04-11.97-8.42-11.97-19.56
			c0-5.25,2.16-8.58,6.45-9.54v-2.89h4.95v2.89c4.34,0.89,6.6,4.24,6.6,9.54v1.25h-5.79v-1.65c0-2.79-1.11-3.85-3.05-3.85
			s-3.12,1.06-3.12,3.85c0,8.02,11.98,8.42,11.98,19.56C1197.12,353.07,1194.83,356.47,1190.49,357.36z"/>
		<path class="st3" d="M1187.48,297.86c-22.88,0-41.43,18.55-41.43,41.43c0,22.88,18.55,41.43,41.43,41.43
			c22.88,0,41.43-18.55,41.43-41.43v0C1228.91,316.41,1210.36,297.86,1187.48,297.86z M1187.48,373.32
			c-18.8,0.04-34.06-15.17-34.1-33.97c-0.04-18.8,15.17-34.06,33.97-34.1c18.8-0.04,34.06,15.17,34.1,33.97c0,0.02,0,0.04,0,0.07
			C1221.43,358.05,1206.25,373.27,1187.48,373.32L1187.48,373.32z"/>
	</g>
</g>
<g id="freepik--Floor--inject-116">
	<line class="st4" x1="114" y1="656.51" x2="1213.2" y2="656.51"/>
</g>
<g id="freepik--Plants--inject-116">
	<path class="st0" d="M179.51,511.42c4.95,2.13,16.82,1.85,16.83,1.85s-2.57-7.81-2.81-8.25c-2.61-5.48-10.89-14.52-17.64-13.62
		c-4.39,0.72-7.36,4.87-6.63,9.26c0.05,0.28,0.11,0.55,0.18,0.83C170.56,506.04,175.35,509.5,179.51,511.42z"/>
	<path class="st0" d="M183.63,545.91c5.05,0.73,15.71-2.36,16.5-2.61c1.75,6.1,3.92,12.07,6.47,17.87c1.45,3.4,3.04,6.77,4.67,10.13
		c-0.97-1.42-1.85-2.69-2-2.86c-3.98-4.59-14.34-11.14-20.61-8.47c-4.04,1.85-5.81,6.61-3.97,10.65c0.12,0.26,0.26,0.52,0.4,0.77
		c2.31,4.21,7.86,6.29,12.35,6.95c4.49,0.66,13.68-1.78,16.09-2.48l1.91,3.86c3.09,6.14,6.19,12.25,9.04,18.35
		c1.01,2.15,1.93,4.29,2.86,6.44c-0.87-1.25-1.65-2.31-1.65-2.46c-3.98-4.6-14.36-11.14-20.61-8.48c-4.05,1.83-5.85,6.6-4.02,10.66
		c0.12,0.27,0.26,0.53,0.41,0.78c2.31,4.21,7.84,6.29,12.33,6.95c4.49,0.66,12.81-1.57,15.68-2.36c0.87,2.23,1.75,4.47,2.51,6.6
		c0.48,1.52,1.04,2.94,1.44,4.49c0.4,1.55,0.86,3.02,1.27,4.52c0.69,2.9,1.44,5.89,2.05,8.75c0.43,1.98,0.81,3.88,1.2,5.78
		c-0.97-2.15-2.99-6.3-3.2-6.6c-3.3-5.15-12.49-13.2-19.08-11.55c-4.28,1.22-6.76,5.67-5.54,9.95c0.08,0.27,0.17,0.55,0.28,0.81
		c1.65,4.51,6.82,7.41,11.14,8.73c4.79,1.47,15.35,0.13,16.67,0c0.64,3.17,1.22,6.24,1.65,9.16c0.38,2.16,0.73,4.23,1.04,6.22h4.24
		c-0.4-2.23-0.84-4.54-1.32-6.96c-0.63-3.22-1.37-6.6-2.16-10.13c3.19-1.28,6.29-2.74,9.31-4.37c3.48,3.78,12.39,8.25,13.55,8.75
		c-1.2,2.99-2.43,5.88-3.61,8.58c-0.61,1.44-1.22,2.79-1.83,4.14h4.49l1.06-2.57c1.25-3.02,2.53-6.29,3.8-9.64
		c1.27,0.26,11.75,2.39,16.62,1.29c4.42-0.99,9.79-3.5,11.77-7.87c1.96-4,0.31-8.84-3.69-10.8c-0.24-0.12-0.5-0.23-0.75-0.32
		c-6.45-2.16-16.29,5.15-19.81,10.03c-0.21,0.3-2.18,3.68-3.38,5.84c0.51-1.39,1.02-2.71,1.53-4.13c1.04-2.81,1.98-5.64,3-8.68
		c0.45-1.49,0.89-2.99,1.35-4.49s0.79-3.14,1.2-4.72c0.87-3.68,1.65-7.46,2.21-11.27c2.46,0.89,11.24,3.94,15.78,3.63
		c4.54-0.31,10.2-1.98,12.82-6.01c2.55-3.63,1.68-8.64-1.95-11.2c-0.24-0.17-0.49-0.33-0.75-0.47c-6.04-3.12-16.88,2.64-21.18,6.92
		c-0.28,0.26-3.02,3.7-4.49,5.6c0.36-2.29,0.73-4.59,1.02-6.92c0.84-6.75,1.47-13.6,2.15-20.43c0.2-2.1,0.43-4.18,0.64-6.26
		c0.87,0.31,11.22,4.18,16.32,3.81c4.52-0.31,10.2-1.98,12.81-6.01c2.55-3.62,1.68-8.63-1.94-11.18c-0.25-0.17-0.5-0.33-0.76-0.48
		c-6.04-3.12-16.87,2.62-21.18,6.9c-0.33,0.33-4.27,5.26-5.22,6.6c0.5-4.59,1.02-9.16,1.65-13.65c0.91-6.07,2.23-12.06,3.93-17.96
		c0.4,0.15,11.19,4.23,16.41,3.86c4.52-0.33,10.2-1.98,12.82-6.01c2.55-3.64,1.66-8.67-1.98-11.22c-0.23-0.16-0.48-0.31-0.73-0.45
		c-6.06-3.12-16.88,2.62-21.19,6.92c-0.33,0.33-4.57,5.64-5.26,6.6c0.1-0.35,0.17-0.71,0.26-1.04c1.86-5.87,4.24-11.56,7.11-17
		c1.55-3.02,3.2-5.83,4.95-8.53c1.93,0.97,10.79,5.28,15.53,5.46c4.74,0.18,10.35-0.84,13.4-4.56c2.94-3.34,2.61-8.43-0.73-11.37
		c-0.22-0.19-0.44-0.37-0.68-0.53c-5.68-3.76-17.07,0.76-21.82,4.56c-0.26,0.2-2.66,2.59-4.37,4.34c0.78-1.2,1.53-2.46,2.29-3.6
		c2.86-4.27,5.73-8.04,8.25-11.32c1.49-1.86,2.86-3.53,4.14-5.07c2.39,0,12.02-0.33,16.22-2.31c4.21-1.98,8.8-5.51,9.8-10.22
		c1.06-4.32-1.58-8.68-5.9-9.74c-0.28-0.07-0.55-0.12-0.83-0.16c-6.77-0.74-14.85,8.53-17.26,14.08c-0.21,0.48-2.71,8.37-2.57,8.37
		h0.15c-1.29,1.47-2.64,3.04-4.09,4.79c-2.64,3.3-5.6,6.95-8.55,11.17c-3.22,4.54-6.18,9.25-8.86,14.13
		c-3.03,5.45-5.56,11.16-7.58,17.07c0.01,0.07,0.01,0.14,0,0.21c0-2,0-7.58-0.1-8c-0.79-6.01-5.83-17.2-12.53-18.44
		c-4.39-0.69-8.5,2.31-9.19,6.69c-0.05,0.29-0.08,0.59-0.09,0.88c-0.4,4.79,3.07,9.57,6.45,12.59c3.81,3.42,14.41,6.72,15.25,6.96
		c-1.89,6.06-3.39,12.23-4.47,18.49c-0.64,3.63-1.19,7.33-1.65,11.03c0-1.73,0-3.3-0.08-3.48c-0.79-6.02-5.84-17.2-12.53-18.44
		c-4.39-0.69-8.5,2.31-9.19,6.69c-0.05,0.29-0.08,0.59-0.09,0.88c-0.4,4.77,3.07,9.57,6.45,12.59c3.38,3.02,12.41,6.06,14.85,6.82
		c-0.17,1.42-0.36,2.84-0.53,4.26c-0.83,6.83-1.65,13.65-2.57,20.3c-0.35,2.36-0.76,4.65-1.19,6.95c0-1.52,0-2.82,0-3
		c-0.78-6.02-5.83-17.21-12.51-18.45c-4.4-0.68-8.51,2.33-9.19,6.73c-0.04,0.28-0.07,0.56-0.09,0.85c-0.4,4.79,3.07,9.57,6.45,12.59
		c3.38,3.02,11.55,5.78,14.36,6.68c-0.5,2.34-0.99,4.7-1.65,6.95c-0.45,1.52-0.76,3.02-1.27,4.54c-0.51,1.52-0.97,2.99-1.45,4.47
		c-1.02,2.81-2.05,5.71-3.12,8.42c-0.73,1.9-1.45,3.7-2.18,5.5c0.36-2.33,0.99-6.92,1.01-7.31c-0.09-5.34-1.53-10.57-4.19-15.2
		c0.02-0.6-0.02-1.19-0.12-1.78c-0.55-4.41-4.56-7.53-8.96-6.99c-0.32,0.04-0.63,0.1-0.94,0.17c-6.6,1.75-10.74,13.2-11.06,19.34
		c0,0.36,0.21,4.26,0.4,6.73c-0.33-1.44-0.63-2.82-0.99-4.29c-0.69-2.9-1.45-5.79-2.28-8.9c-0.45-1.49-0.91-2.99-1.37-4.49
		c-0.46-1.5-1.06-3.05-1.65-4.6c-1.3-3.55-2.79-7.1-4.37-10.63c2.56-0.61,11.55-2.9,15.17-5.68c3.61-2.77,7.41-7.28,7.38-12.08
		c0.13-4.44-3.36-8.14-7.79-8.27c-0.3-0.01-0.59,0-0.89,0.02c-6.77,0.74-12.64,11.55-13.86,17.46c0,0.36-0.48,4.74-0.64,7.13
		c-0.97-2.11-1.93-4.23-2.97-6.34c-3.02-6.09-6.27-12.15-9.49-18.15c-0.97-1.85-1.95-3.71-2.9-5.58c0.91-0.2,11.67-2.71,15.71-5.81
		c3.6-2.76,7.41-7.28,7.38-12.08c0.13-4.44-3.36-8.14-7.79-8.27c-0.3-0.01-0.59,0-0.89,0.02c-6.77,0.73-12.64,11.55-13.86,17.45
		c-0.1,0.46-0.66,6.73-0.73,8.35c-2.13-4.11-4.21-8.25-6.11-12.35c-2.57-5.56-4.77-11.29-6.6-17.13c0.43-0.1,11.67-2.66,15.81-5.84
		c3.6-2.76,7.41-7.28,7.38-12.08c0.13-4.44-3.35-8.14-7.79-8.28c-0.3-0.01-0.6,0-0.91,0.02c-6.75,0.73-12.63,11.55-13.85,17.45
		c-0.1,0.48-0.71,7.23-0.73,8.47c-0.1-0.33-0.25-0.68-0.35-1.02c-1.69-5.94-2.84-12.01-3.45-18.15c-0.38-3.38-0.54-6.6-0.64-9.8
		c2.15-0.26,11.92-1.55,15.96-4.01s8.17-6.42,8.66-11.19c0.62-4.39-2.43-8.45-6.82-9.07c-0.3-0.04-0.6-0.07-0.91-0.08
		c-6.8,0-13.81,10.03-15.7,15.81c-0.1,0.33-0.78,3.63-1.24,6.04c0-1.42-0.08-2.9,0-4.27c0-5.13,0.33-9.9,0.64-14.01
		c0.21-2.38,0.43-4.51,0.68-6.5c1.96-1.35,9.9-6.92,12.25-10.88c2.34-3.96,4.29-9.46,2.53-13.93c-1.48-4.18-6.07-6.38-10.26-4.9
		c-0.28,0.1-0.55,0.21-0.82,0.34c-6.04,3.12-7.63,15.28-6.6,21.27c0.1,0.53,2.38,8.47,2.48,8.4h0.12c-0.26,1.91-0.53,3.98-0.76,6.22
		c-0.41,4.18-0.84,8.9-0.97,14.05c-0.19,5.56-0.06,11.14,0.4,16.69c0.48,6.21,1.52,12.37,3.1,18.4v0.21
		c-1.07-1.65-4.23-6.29-4.51-6.6c-3.98-4.6-14.34-11.14-20.61-8.48c-4.04,1.85-5.82,6.64-3.96,10.68c0.12,0.26,0.25,0.51,0.4,0.76
		C173.6,543.17,179.14,545.25,183.63,545.91z"/>
	<path class="st0" d="M300.25,513.96c0.1,0,2.16-7.94,2.24-8.47c0.84-6.01-1.09-18.15-7.21-21.08c-4.05-1.82-8.81-0.01-10.63,4.03
		c-0.12,0.27-0.23,0.54-0.32,0.82c-1.65,4.51,0.43,10.03,2.9,13.85C290.14,507.59,300.24,513.94,300.25,513.96z"/>
	<path class="st0" d="M1005.24,461.72c6.6,2.86,22.56,2.49,22.58,2.49c0.02,0-3.45-10.48-3.75-11.11
		c-3.52-7.36-14.62-19.49-23.67-18.27c-5.88,0.95-9.87,6.48-8.92,12.36c0.06,0.4,0.15,0.79,0.26,1.18
		C993.24,454.62,999.66,459.28,1005.24,461.72z"/>
	<path class="st0" d="M1010.77,508.12c6.78,0.99,21.08-3.15,22.22-3.5c2.36,8.18,5.26,16.2,8.68,24c1.96,4.56,4.08,9.08,6.27,13.58
		c-1.3-1.91-2.49-3.61-2.67-3.83c-5.35-6.16-19.26-14.94-27.66-11.37c-5.43,2.49-7.81,8.91-5.32,14.33
		c0.16,0.35,0.34,0.69,0.53,1.02c3.1,5.64,10.53,8.43,16.5,9.31c5.97,0.87,18.37-2.39,21.6-3.3c0.86,1.73,1.65,3.45,2.56,5.17
		c4.13,8.25,8.25,16.5,12.13,24.62c1.37,2.89,2.59,5.78,3.83,8.65c-1.16-1.65-2.15-3.1-2.33-3.3c-5.33-6.17-19.24-14.94-27.65-11.37
		c-5.42,2.47-7.81,8.86-5.34,14.28c0.17,0.36,0.35,0.72,0.55,1.06c3.1,5.64,10.53,8.43,16.5,9.33c5.97,0.89,17.16-2.1,21.01-3.15
		c1.19,2.99,2.38,5.97,3.3,8.93c0.64,2.03,1.4,3.94,1.93,6.02c0.53,2.08,1.14,4.06,1.65,6.07c0.92,3.9,1.91,7.91,2.74,11.73
		c0.58,2.66,1.09,5.2,1.65,7.76c-1.32-2.89-4.01-8.47-4.29-8.91c-4.32-6.9-16.77-17.68-25.6-15.43c-5.74,1.64-9.07,7.62-7.44,13.36
		c0.1,0.37,0.23,0.73,0.37,1.08c2.21,6.06,9.13,9.9,14.95,11.72c6.4,1.96,20.6,0.17,22.36,0c0.86,4.24,1.65,8.37,2.33,12.28
		c0.5,2.89,0.97,5.68,1.4,8.35h5.68c-0.54-2.97-1.12-6.09-1.77-9.34c-0.86-4.31-1.85-8.9-2.9-13.6c4.27-1.7,8.44-3.66,12.48-5.86
		c4.67,5.05,16.64,10.98,18.15,11.72c-1.65,4.01-3.3,7.89-4.84,11.55c-0.84,1.93-1.65,3.75-2.48,5.56h6.02
		c0.46-1.14,0.94-2.26,1.42-3.45c1.65-4.06,3.38-8.43,5.08-12.94c1.65,0.36,15.76,3.22,22.31,1.65c5.94-1.34,13.2-4.7,15.78-10.56
		c2.62-5.35,0.41-11.8-4.94-14.42c-0.33-0.16-0.67-0.31-1.02-0.44c-8.65-2.92-21.85,6.92-26.69,13.47c-0.28,0.38-2.9,4.95-4.52,7.82
		c0.69-1.85,1.37-3.63,2.06-5.53c1.39-3.76,2.64-7.56,4.03-11.65l1.8-6.02c0.64-2.01,1.07-4.21,1.65-6.32
		c1.17-4.95,2.13-10,2.97-15.13c3.3,1.2,15.07,5.3,21.16,4.87c6.09-0.43,13.7-2.66,17.21-8.05c3.42-4.88,2.23-11.61-2.65-15.03
		c-0.32-0.22-0.64-0.43-0.98-0.61c-8.12-4.19-22.64,3.52-28.42,9.28c-0.36,0.35-4.04,4.95-6.02,7.51c0.5-3.09,0.99-6.16,1.37-9.29
		c1.12-9.06,1.98-18.24,2.87-27.41c0.28-2.81,0.58-5.6,0.87-8.4c1.17,0.45,15.05,5.61,21.89,5.13c6.07-0.43,13.7-2.66,17.21-8.05
		c3.42-4.89,2.23-11.63-2.66-15.06c-0.31-0.22-0.64-0.42-0.97-0.61c-8.12-4.18-22.66,3.53-28.42,9.28c-0.45,0.45-5.73,7.05-7,8.8
		c0.66-6.16,1.37-12.3,2.31-18.32c1.23-8.14,2.98-16.19,5.25-24.1c0.54,0.2,15.02,5.66,22.02,5.18c6.07-0.43,13.68-2.66,17.2-8.07
		c3.42-4.88,2.23-11.61-2.65-15.03c-0.32-0.22-0.64-0.43-0.98-0.61c-8.1-4.19-22.64,3.53-28.42,9.28c-0.45,0.45-6.14,7.56-7.08,8.93
		c0.15-0.46,0.23-0.94,0.38-1.4c2.56-7.9,5.82-15.56,9.75-22.88c2.08-4.06,4.29-7.84,6.6-11.45c2.59,1.3,14.49,7.08,20.85,7.33
		c6.07,0.25,13.9-1.14,17.97-6.11c3.94-4.47,3.51-11.29-0.96-15.23c-0.29-0.26-0.6-0.5-0.92-0.73c-7.61-5.05-22.91,1.02-29.28,6.09
		c-0.35,0.28-3.55,3.48-5.86,5.84c1.04-1.65,2.06-3.3,3.09-4.84c3.83-5.74,7.67-10.78,11.12-15.2c1.96-2.51,3.81-4.72,5.56-6.78
		c3.2,0,16.11-0.45,21.75-3.1s11.8-7.41,13.2-13.72c1.43-5.79-2.1-11.64-7.89-13.07c-0.38-0.09-0.76-0.17-1.14-0.22
		c-9.08-0.99-19.81,11.45-23.11,18.9c-0.28,0.64-3.6,11.22-3.43,11.21h0.18c-1.65,1.95-3.53,4.06-5.46,6.4
		c-3.55,4.37-7.53,9.33-11.55,15.02c-4.33,6.08-8.3,12.41-11.9,18.95c-4.06,7.31-7.46,14.96-10.15,22.88
		c-0.04,0.1-0.06,0.2-0.08,0.3c0-2.67,0-10.15-0.15-10.73c-1.06-8.07-7.82-23.11-16.8-24.76c-5.9-0.91-11.42,3.14-12.33,9.04
		c-0.06,0.37-0.1,0.75-0.11,1.13c-0.53,6.42,4.13,12.84,8.66,16.9c5.12,4.57,19.33,8.99,20.45,9.34
		c-2.54,8.11-4.54,16.38-5.99,24.76c-0.87,4.95-1.65,9.82-2.26,14.85c0-2.31,0-4.37-0.12-4.65c-1.06-8.09-7.82-23.11-16.8-24.76
		c-5.89-0.93-11.41,3.09-12.34,8.98c-0.06,0.39-0.1,0.78-0.12,1.17c-0.51,6.42,4.14,12.84,8.68,16.9
		c4.54,4.06,16.64,8.14,19.81,9.16c-0.23,1.9-0.5,3.81-0.73,5.71c-1.09,9.16-2.15,18.3-3.45,27.23c-0.46,3.15-1.02,6.24-1.65,9.33
		c0-2.05,0-3.78-0.12-4.04c-1.04-8.09-7.81-23.11-16.79-24.76c-5.9-0.92-11.43,3.12-12.34,9.02c-0.06,0.38-0.1,0.76-0.12,1.15
		c-0.53,6.42,4.14,12.84,8.68,16.9c4.54,4.06,15.46,7.72,19.26,8.96c-0.66,3.14-1.32,6.29-2.11,9.31c-0.58,2.05-1.01,4.06-1.65,6.09
		c-0.64,2.03-1.3,4.03-1.95,6.01c-1.37,3.76-2.76,7.66-4.19,11.31c-0.97,2.53-1.95,4.95-2.92,7.36c0.5-3.14,1.34-9.28,1.34-9.8
		c-0.09-7.17-2.02-14.19-5.61-20.4c0.02-0.79-0.03-1.59-0.15-2.38c-0.74-5.92-6.14-10.11-12.05-9.37c-0.39,0.05-0.77,0.12-1.15,0.21
		c-8.83,2.34-14.41,17.82-14.85,25.96c0,0.48,0.3,5.71,0.54,9.01c-0.45-1.91-0.86-3.78-1.34-5.74c-0.92-3.91-1.96-7.77-3.05-11.93
		c-0.61-1.99-1.22-4.01-1.83-6.04c-0.56-2.01-1.42-4.09-2.13-6.16c-1.75-4.77-3.75-9.52-5.86-14.26c3.42-0.83,15.48-3.9,20.33-7.63
		c4.85-3.73,9.9-9.75,9.9-16.21c0.16-5.96-4.53-10.92-10.49-11.09c-0.39-0.01-0.77,0-1.16,0.03c-9.08,0.99-16.95,15.45-18.6,23.42
		c-0.1,0.5-0.64,6.35-0.87,9.59c-1.29-2.84-2.57-5.68-3.98-8.52c-4.06-8.15-8.42-16.29-12.72-24.44c-1.32-2.49-2.61-4.95-3.91-7.48
		c1.22-0.28,15.66-3.63,21.09-7.81c4.82-3.7,9.9-9.75,9.9-16.21c0.16-5.96-4.55-10.92-10.51-11.07c-0.39-0.01-0.78,0-1.16,0.03
		c-9.06,0.97-16.93,15.43-18.58,23.4c-0.13,0.61-0.89,9.04-0.97,11.19c-2.86-5.5-5.66-11.01-8.25-16.5
		c-3.47-7.46-6.44-15.14-8.91-22.99c0.58-0.13,15.65-3.56,21.21-7.82c4.84-3.71,9.9-9.77,9.9-16.21
		c0.17-5.95-4.51-10.91-10.46-11.09c-0.4-0.01-0.8,0-1.2,0.03c-9.08,0.97-16.95,15.43-18.6,23.42c-0.12,0.63-0.94,9.69-0.97,11.34
		c-0.13-0.45-0.33-0.91-0.46-1.35c-2.24-7.96-3.77-16.11-4.57-24.34c-0.51-4.54-0.74-8.9-0.87-13.2c2.87-0.35,15.99-2.1,21.46-5.38
		c5.46-3.28,10.98-8.62,11.64-15.04c0.8-5.92-3.34-11.36-9.25-12.17c-0.37-0.05-0.75-0.08-1.13-0.09
		c-9.13,0-18.53,13.48-21.04,21.24c-0.15,0.41-1.06,4.85-1.65,8.09c0-1.91-0.1-3.9,0-5.73c0-6.9,0.45-13.2,0.87-18.82
		c0.28-3.17,0.58-6.04,0.91-8.71c2.64-1.82,13.2-9.28,16.5-14.59c3.3-5.31,5.76-12.71,3.38-18.7c-2-5.62-8.17-8.55-13.79-6.55
		c-0.36,0.13-0.72,0.28-1.07,0.45c-8.12,4.19-10.25,20.52-8.91,28.55c0.13,0.69,3.19,11.34,3.3,11.26l0.15-0.12
		c-0.36,2.57-0.71,5.35-1.02,8.37c-0.56,5.6-1.14,11.92-1.3,18.85c-0.26,7.46-0.08,14.93,0.54,22.36
		c0.64,8.36,2.02,16.65,4.14,24.76c0,0.08,0,0.18,0,0.28c-1.44-2.26-5.66-8.43-6.04-8.86c-5.33-6.17-19.24-14.94-27.65-11.37
		c-5.43,2.49-7.81,8.91-5.32,14.33c0.16,0.35,0.34,0.69,0.53,1.02C997.32,504.45,1004.75,507.24,1010.77,508.12z"/>
	<path class="st0" d="M1167.25,465.2c0.13,0.1,2.9-10.65,3-11.34c1.12-8.07-1.45-24.33-9.67-28.29c-5.44-2.44-11.83-0.02-14.27,5.42
		c-0.16,0.35-0.3,0.71-0.42,1.08c-2.2,6.06,0.59,13.48,3.9,18.58C1153.67,456.7,1167.23,465.2,1167.25,465.2z"/>
	<g class="st5">
		<path class="st3" d="M275.38,344.08c10.73,3.43,35.8,0.25,35.81,0.25c0.26,0-7.11-15.88-7.69-16.83
			c-6.7-10.96-26.11-28.19-40.09-24.76c-10.08,2.43-14.71,13.2-11.4,22.63C255.31,334.78,266.24,341.17,275.38,344.08z"/>
		<path class="st3" d="M436.56,511.56c6.11-6.6,11.55-15.7,10.53-24.64c-1.11-9.9-9.9-17.63-20.09-15.45
			c-14.08,3.02-24.08,26.97-25.37,39.76c0,0.79,0,10.07,0.2,15.17c-2.49-4.24-4.95-8.48-7.63-12.69
			c-7.69-12.16-15.84-24.21-23.93-36.31c-2.49-3.7-4.95-7.41-7.36-11.11c1.12-0.38,9.41-3.3,17.59-7.05"/>
		<path class="st3" d="M419.02,559.01c-1.19-2.77-2.67-5.58-3.98-8.4c-3.52-7.2-7.41-14.33-11.55-21.46
			c8.07-2.78,15.9-6.19,23.44-10.2"/>
		<path class="st3" d="M524.96,428.89c-3.51,2.59-6.7,5.57-9.52,8.9c-0.61,0.74-7.82,11.98-9.52,14.85c0-9.77,0.13-19.51,0.63-29.1
			c0.61-12.96,2.06-25.87,4.32-38.65c0.89,0.23,24.48,6.44,35.37,4.54c9.46-1.65,21.04-6.4,25.68-15.45s1.42-20.18-8.25-23.96
			c-13.4-5.23-34.94,9.23-43.06,19.18c-0.64,0.78-8.4,12.87-9.66,15.17c0.15-0.74,0.2-1.52,0.35-2.26
			c2.64-12.75,6.41-25.23,11.26-37.32c2.61-6.72,5.46-12.97,8.37-19.01c4.27,1.65,23.9,8.75,33.88,8.1
			c9.59-0.61,21.62-4.04,27.22-12.51c5.59-8.47,3.61-19.92-5.56-24.76c-12.74-6.6-35.75,5.31-44.91,14.33
			c-0.51,0.48-4.95,6.02-8.25,10.1c1.35-2.71,2.71-5.51,4.06-8.09c5.05-9.64,10.27-18.15,14.95-25.65
			c2.69-4.24,5.22-8.04,7.63-11.55c4.95-0.61,25.2-3.3,33.62-8.4s17.23-13.4,18.37-23.54c1.14-10.13-5.96-19.34-16.32-19.38
			c-14.39,0-29.28,21.19-33.27,33.42c-0.35,1.06-3.83,18.15-3.58,18.15h0.31c-2.38,3.3-4.95,6.95-7.54,10.94
			c-4.87,7.43-10.28,15.84-15.56,25.4c-5.8,10.25-11,20.82-15.58,31.67c-5.18,12.13-9.27,24.69-12.23,37.55c0,0.15,0,0.31,0,0.46
			c-0.36-4.19-1.77-15.91-1.98-16.8c-2.95-12.49-16.03-34.92-30.37-36.06c-10.33-0.83-18.15,8-17.87,17.96s8.57,19.48,16.34,25.1
			c8.78,6.34,31.79,10.96,33.62,11.34c-2.69,13.15-4.49,26.46-5.4,39.84c-0.56,7.81-0.89,15.68-1.14,23.58
			c-0.43-3.63-0.84-6.87-0.94-7.31c-2.95-12.51-16.03-34.92-30.37-36.06c-10.33-0.83-18.15,8-17.87,17.96
			c0.28,9.95,8.57,19.48,16.34,25.09s27.43,10.05,32.61,11.14c0,3.02-0.15,6.06-0.2,9.08c-0.23,14.54-0.4,29.06-0.99,43.29
			c-0.2,4.95-0.59,9.9-0.96,14.85c-0.4-3.3-0.74-5.93-0.84-6.32c-2.95-12.51-16.01-34.92-30.35-36.08
			c-10.35-0.81-18.15,8.02-17.89,17.96c0.26,9.94,8.57,19.49,16.34,25.1c7.77,5.61,25.53,9.62,31.69,10.93
			c-0.53,5.05-1.06,10.1-1.8,14.95c-0.58,3.3-0.91,6.6-1.65,9.9c-0.74,3.3-1.39,6.5-2.06,9.72c-1.53,6.12-3.09,12.46-4.74,18.42
			c-1.11,4.14-2.26,8.07-3.3,12.02c0.26-4.95,0.58-14.76,0.51-15.58c-1.33-11.23-5.51-21.93-12.15-31.08
			c-0.09-1.25-0.3-2.5-0.63-3.71c-2.57-9.61-12.51-15.91-22.2-12.23c-13.45,5.12-19.71,30.3-19.03,43.14
			c0,0.74,1.39,8.91,2.31,14.05c-1.01-2.92-1.95-5.79-3.02-8.8c-2.08-5.97-4.34-11.87-6.75-18.15"/>
		<path class="st3" d="M354.4,545.42c4.86,1.8,9.99,2.8,15.17,2.99c9.28,0.38,26.59-6.07,32.45-8.37c2.34,4.51,4.69,8.99,6.75,13.47
			c1.34,3.09,2.84,5.96,4.01,9.13s2.44,6.19,3.65,9.24c2.1,5.96,4.31,12.1,6.21,17.97c1.35,4.08,2.57,7.97,3.81,11.9
			c-2.53-4.31-7.66-12.63-8.17-13.29c-7.92-10.1-29.18-24.99-42.68-20.02c-9.74,3.58-13.09,14.85-8.71,23.8s15.93,14.09,25.35,15.94
			c10.36,2.01,32.33-3.09,35.07-3.75c2.01,6.5,3.93,12.86,5.63,18.88c1.27,4.46,2.45,8.75,3.57,12.87l8.91-0.92
			c-1.34-4.59-2.76-9.37-4.31-14.38c-2.03-6.6-4.32-13.65-6.75-20.85c6.42-3.38,12.64-7.13,18.62-11.24
			c8.15,7.18,27.88,14.51,30.43,15.45c-1.9,6.6-3.81,12.89-5.73,18.85c-0.99,3.17-1.98,6.16-2.95,9.11l9.42-0.97
			c0.56-1.87,1.12-3.7,1.65-5.64c1.95-6.6,3.91-13.76,5.86-21.11c2.76,0.28,25.25,2.46,35.27-0.91c9.09-3.07,19.81-9.52,23.11-19.15
			s-1.65-20.18-11.78-22.45c-14.03-3.15-33.14,14.41-39.61,25.48c-0.4,0.64-3.76,8.25-5.83,13.01c0.78-3,1.57-5.93,2.33-9.03
			c1.57-6.12,2.92-12.28,4.42-18.9c0.61-3.3,1.24-6.49,1.85-9.77s1.01-6.77,1.53-10.18c1.04-7.94,1.65-16.03,2.2-24.2
			c5.36,1.34,24.49,5.84,34,4.19c9.51-1.65,21.03-6.4,25.66-15.43c4.64-9.03,1.42-20.2-8.25-23.98
			c-13.4-5.23-34.96,9.23-43.08,19.18c-0.51,0.63-5.53,8.42-8.25,12.76c0.25-4.95,0.53-9.82,0.63-14.85
			c0.3-14.38,0.13-28.93,0-43.46c0-4.46,0-8.9,0-13.34c1.91,0.51,24.53,6.35,35.17,4.49c9.46-1.65,21.03-6.39,25.66-15.43
			c4.64-9.04,1.42-20.18-8.25-23.96c-6.3-2.46-14.41-0.56-22.07,3.17"/>
		<path class="st3" d="M339.2,529.85c0.52,2.37,1.5,4.61,2.89,6.6c1.28,1.84,2.84,3.48,4.62,4.84"/>
		<path class="st3" d="M295.55,415.79c11.44-1.22,28.85-8.25,30.4-8.93c5.01,12.45,10.84,24.54,17.46,36.21
			c3.83,6.83,7.89,13.58,12.05,20.3c-2.36-2.79-4.47-5.26-4.82-5.58c-9.36-8.8-32.63-20.28-45.22-13.34
			c-9.08,4.95-10.68,16.67-4.95,24.86s17.89,11.55,27.46,11.92c9.57,0.36,28.42-6.75,33.36-8.71c1.65,2.56,3.2,5.13,4.84,7.69
			c7.84,12.25,15.71,24.44,23.11,36.64c2.59,4.29,4.95,8.62,7.41,12.94c-2.1-2.46-3.88-4.52-4.19-4.82
			c-9.36-8.8-32.63-20.28-45.22-13.34c-2.86,1.57-5.16,3.99-6.6,6.92"/>
		<path class="st3" d="M361.32,313.36c0.35-1.53,0.54-3.09,0.54-4.65c0-9.9-7.96-18.6-18.27-17.56
			c-14.33,1.47-26.89,24.18-29.56,36.74c-0.15,0.68-0.87,7.79-1.3,12.97c-0.36-3-0.79-6.09-1.07-8.98
			c-1.11-10.83-1.45-20.8-1.65-29.71c-0.1-5.03-0.08-9.57,0-13.83c3.85-3.3,19.19-16.69,23.42-25.57
			c4.23-8.88,6.96-20.85,2.28-29.86c-4.69-9.01-15.65-12.86-24.31-7.16c-12.03,7.89-12.72,33.83-9.31,46.21
			c0.3,1.07,6.83,17.28,7.03,17.12l0.23-0.2c-0.15,4.09-0.25,8.5-0.26,13.29c0,8.86,0.17,18.88,1.04,29.71
			c0.81,11.75,2.3,23.43,4.47,35.01c2.38,12.97,5.9,25.71,10.53,38.06c0,0.15,0.13,0.3,0.18,0.43c-2.61-3.3-10.25-12.3-10.91-12.92
			c-9.36-8.8-32.63-20.28-45.22-13.32c-9.08,4.95-10.68,16.65-4.95,24.84c4.34,6.26,12.25,9.61,19.95,11.06"/>
		<path class="st3" d="M386.72,456.16c2.88-1.5,5.57-3.34,8-5.5c6.98-6.6,14.03-16.93,12.91-27.03c-1.12-10.1-9.9-17.61-20.09-15.43
			c-14.08,3.02-24.08,26.97-25.35,39.74c-0.1,0.97,0.08,14.31,0.28,17.71c-5.36-8.17-10.65-16.36-15.53-24.62
			c-6.65-11.16-12.56-22.73-17.71-34.66c0.86-0.3,23.96-8.14,32-15.73c6.96-6.6,14.01-16.93,12.89-27.03s-9.9-17.63-20.09-15.45
			c-14.08,3.02-24.06,26.97-25.35,39.76c-0.1,1.01,0.1,15.37,0.31,17.96c-0.3-0.68-0.68-1.37-0.96-2.06
			c-4.83-12.09-8.58-24.59-11.19-37.35c-1.53-7.01-2.61-13.81-3.52-20.47c4.46-1.01,24.76-5.89,32.73-11.93
			c3.87-2.89,7.3-6.33,10.17-10.22"/>
		<path class="st3" d="M530.05,323.26c0.25,0.12,2.84-17.16,2.89-18.27c0.45-12.84-6.24-37.96-19.81-42.81
			c-9.74-3.52-19.56,2.95-21.98,12.59c-2.43,9.64,3.12,21.06,9.14,28.52C507.38,312.06,530.03,323.26,530.05,323.26z"/>
	</g>
	<g class="st5">
		<path class="st3" d="M908.53,111.68c8.96,3.61,17.94,6.12,17.96,6.12s-0.38-17.35-0.46-18.5c-1.93-12.69-13.2-36.11-27.31-38.42
			c-10.23-1.65-18.7,6.5-19.29,16.5s6.95,20.1,14.24,26.41"/>
		<path class="st3" d="M1120.18,248.86c1.72,0.78,3.5,1.4,5.33,1.87c9.36,2.13,21.87,2.28,29.71-4.26
			c7.84-6.54,9.14-18.06,1.65-25.28c-10.32-10.03-35.8-5.08-47.15,0.94c-0.89,0.46-12.72,8.6-14.77,10.22
			c0.41-0.63,0.78-1.32,1.19-1.95c7.4-10.72,15.72-20.76,24.89-30.01c4.95-5.18,10.05-9.9,15.09-14.28
			c3.3,3.15,18.62,17.33,28.06,20.63c9.06,3.17,21.46,4.67,29.94-0.96c6.37-4.11,9.41-11.83,7.54-19.18"/>
		<path class="st3" d="M985.82,43.38c4.08-5.56,7.01-12.15,6.49-18.75c-0.81-9.9-9.42-17.91-19.62-16.04
			c-14.16,2.61-24.87,26.24-26.54,38.98c-0.13,1.09-0.41,18.57-0.16,18.5l0.3-0.1c-1.65,3.73-3.53,7.72-5.4,12.15
			c-3.42,8.25-7.18,17.46-10.61,27.84c-3.82,11.14-6.98,22.49-9.47,34c-2.86,12.87-4.56,25.97-5.08,39.15
			c-0.01,0.16-0.01,0.32,0,0.48c-1.12-4.08-4.67-15.32-4.95-16.16c-5.22-11.73-22.18-31.36-36.49-29.84
			c-10.32,1.09-16.32,11.21-14.28,20.94c2.05,9.74,12.02,17.56,20.7,21.65c9.79,4.6,33.26,4.95,35.12,4.95
			c-0.23,13.41,0.43,26.83,1.96,40.16c0.87,7.77,2,15.56,3.3,23.37c-1.09-3.48-2.1-6.6-2.28-7c-5.22-11.75-22.2-31.36-36.51-29.86
			c-10.3,1.11-16.31,11.22-14.26,20.94c2.05,9.72,12.02,17.58,20.7,21.65c8.68,4.08,28.8,4.82,34.1,4.95
			c0.51,2.99,0.97,5.97,1.49,8.96c2.46,14.34,4.95,28.64,7.01,42.73c0.73,4.95,1.25,9.9,1.8,14.85c-0.97-3.1-1.82-5.69-2-6.07
			c-5.2-11.75-22.18-31.36-36.49-29.86c-10.3,1.11-16.31,11.22-14.26,20.94c2.05,9.72,12.02,17.58,20.7,21.65
			c8.4,3.96,26.85,4.75,33.14,4.95c0.41,5.07,0.83,10.12,0.99,15.04c0,3.3,0.31,6.6,0.17,9.9c-0.15,3.3-0.17,6.6-0.23,9.9
			c-0.38,6.3-0.74,12.82-1.25,18.96c-0.35,4.29-0.74,8.35-1.12,12.46c-0.66-4.95-2.16-14.62-2.38-15.42
			c-3.3-12.39-17.18-34.38-31.56-35.04c-10.4-0.5-17.86,8.58-17.36,18.49c0.5,9.9,9.21,19.18,17.16,24.53
			c8.78,5.91,31,9.72,33.78,10.18c-0.68,6.78-1.39,13.37-2.15,19.59c-0.56,4.59-1.14,9.01-1.73,13.2l8.58,2.61
			c0.56-4.73,1.11-9.68,1.65-14.85c0.71-6.88,1.32-14.26,1.88-21.84c7.21-0.62,14.37-1.67,21.46-3.12
			c4.74,9.77,20.07,24.2,22.05,26.04c-4.29,5.3-8.52,10.4-12.59,15.15c-2.15,2.53-4.21,4.95-6.26,7.25l9.06,2.76l3.75-4.54
			c4.39-5.35,8.96-11.17,13.62-17.18c2.41,1.34,22.3,12.08,32.84,12.86c9.57,0.71,21.97-1.06,28.67-8.68
			c6.7-7.63,6.3-19.24-2.15-25.25c-11.7-8.37-36.13,0.4-46.44,8.05c-0.61,0.46-6.6,6.11-10.41,9.74c1.88-2.48,3.75-4.85,5.64-7.41
			c3.81-5.03,7.48-10.18,11.42-15.71l5.5-8.25c1.9-2.74,3.55-5.86,5.36-8.8c4.04-6.92,7.79-14.11,11.42-21.46
			c4.42,3.3,20.3,14.85,29.71,17.07c9.41,2.21,21.87,2.28,29.71-4.26s9.14-18.06,1.65-25.28c-10.32-10.03-35.78-5.08-47.14,0.94
			c-0.71,0.38-8.37,5.61-12.53,8.57c2.15-4.42,4.31-8.83,6.34-13.39c5.86-13.2,11.37-26.61,16.92-40.02
			c1.65-4.11,3.45-8.25,5.18-12.28c1.65,1.2,20.14,15.38,30.67,17.79c9.34,2.15,21.87,2.28,29.71-4.26
			c7.84-6.54,9.14-18.04,1.65-25.27c-10.32-10.03-35.78-5.08-47.14,0.92c-0.86,0.46-11.87,8-14.57,10.07
			c3.81-9.01,7.69-17.94,11.88-26.59c5.59-11.71,11.94-23.05,19-33.93c5.78,4.41,11.81,8.48,18.06,12.2"/>
		<path class="st3" d="M971.79,118.61c6.52-3.05,12.56-7.67,15.25-14.06c3.86-9.16-0.12-20.23-10.02-23.27
			c-13.76-4.23-34.16,11.82-41.51,22.36c-0.41,0.58-3.83,6.85-6.26,11.45c0.84-2.9,1.65-5.93,2.51-8.7
			c3.19-10.4,6.75-19.72,9.9-27.96c1.86-4.67,3.65-8.86,5.36-12.76c4.82-1.53,24.15-7.92,31.49-14.46c0.73-0.64,1.44-1.32,2.15-2.03
			"/>
		<path class="st3" d="M1197.17,179.31c-10.18-9.37-34.15-7.23-45.52-2.72c-0.64,0.26-6.96,3.61-11.55,6.11
			c2.29-1.96,4.64-4.03,6.88-5.86c8.4-6.92,16.5-12.74,23.73-17.84c4.14-2.86,7.94-5.36,11.55-7.67c4.85,1.39,24.51,6.72,34.25,5.31
			s21.21-5.76,26.13-14.66c4.92-8.9,2.01-20.14-7.53-24.2c-13.2-5.64-35.2,8.25-43.62,17.87c-0.73,0.84-10.61,15.27-10.35,15.33h0.3
			c-3.5,2.16-7.21,4.51-11.21,7.16c-7.36,4.95-15.63,10.6-24.21,17.36c-9.33,7.18-18.23,14.89-26.65,23.11
			c-9.48,9.17-18.13,19.16-25.85,29.86l-0.25,0.4c1.3-4.01,4.56-15.35,4.7-16.24c2.13-12.68-1.2-38.41-13.98-45.04
			c-9.19-4.77-19.81,0.36-23.45,9.61c-3.65,9.24,0.33,21.27,5.31,29.48c5.63,9.24,25.04,22.45,26.57,23.5
			c-7.58,11.08-14.4,22.66-20.43,34.66c-3.56,6.98-6.93,14.09-10.22,21.29c1.02-3.52,1.9-6.6,1.96-7.1
			c2.13-12.68-1.19-38.41-13.96-45.04c-9.21-4.77-19.81,0.36-23.45,9.61c-3.65,9.24,0.33,21.27,5.31,29.48
			c4.98,8.2,21.46,19.9,25.73,22.92c-1.24,2.77-2.49,5.51-3.71,8.25c-5.86,13.32-11.65,26.62-17.73,39.51
			c-2.13,4.54-4.41,8.93-6.6,13.34c0.89-3.12,1.65-5.74,1.65-6.16c2.13-12.68-1.2-38.41-13.98-45.02
			c-9.21-4.77-19.81,0.35-23.45,9.59c-3.65,9.24,0.33,21.27,5.31,29.48c4.82,7.94,19.81,18.78,24.95,22.38
			c-2.46,4.44-4.95,8.9-7.48,13.09c-1.82,2.82-3.38,5.66-5.36,8.4l-5.74,8.25c-3.8,5.05-7.67,10.3-11.55,15.13
			c-2.64,3.3-5.23,6.6-7.81,9.77c2.18-4.51,6.27-13.39,6.52-14.18c3.15-10.86,3.46-22.34,0.89-33.36c0.4-1.19,0.69-2.42,0.87-3.66
			c1.35-9.9-5.35-19.52-15.71-19.89c-14.38-0.51-29.92,20.28-34.3,32.37c-0.26,0.71-2.2,8.75-3.3,13.85
			c0.2-3.09,0.45-6.09,0.63-9.29c0.4-6.3,0.59-12.61,0.86-19.39c0-3.3,0-6.6,0-9.9c0-3.3-0.26-6.83-0.38-10.28
			c-0.45-7.99-1.29-16.08-2.31-24.2c5.53,0.35,25.17,1.24,34.2-2.15s19.59-10.22,22.48-19.95c2.89-9.74-2.33-20.1-12.51-22.03
			c-14.14-2.67-32.66,15.51-38.8,26.79c-0.4,0.71-3.9,9.29-5.73,14.06c-0.64-4.95-1.27-9.75-2.1-14.67
			c-2.36-14.18-5.2-28.45-7.97-42.71c-0.84-4.37-1.65-8.73-2.46-13.09c1.98,0.13,25.28,1.65,35.4-2.08
			c8.98-3.3,19.49-10.17,22.38-19.9c2.89-9.74-2.33-20.1-12.51-22.03c-14.14-2.67-32.66,15.51-38.8,26.79
			c-0.46,0.86-5.5,13.2-6.6,16.5c-1.78-9.62-3.47-19.21-4.75-28.73c-1.79-12.85-2.75-25.81-2.87-38.79c0.92,0,25.25,1.82,35.6-2.06
			c8.99-3.3,19.49-10.17,22.38-19.9c2.89-9.74-2.33-20.1-12.51-22.03c-14.14-2.67-32.65,15.5-38.8,26.79
			c-0.48,0.89-5.88,14.19-6.6,16.69c0-0.76-0.08-1.53-0.08-2.29c0.25-13.02,1.66-25.98,4.19-38.75c1.32-7.06,2.97-13.75,4.72-20.22
			c4.49,0.79,25.09,4.18,34.79,1.65c1.2-0.31,2.44-0.66,3.68-1.09"/>
		<path class="st3" d="M1136.34,183.39c0.18,0.2,9.29-14.72,9.75-15.73c5.4-11.65,8.99-37.37-1.65-47.12
			c-7.61-7.03-19.18-4.95-25.15,3.07s-5.3,20.6-2.66,29.82C1119.8,164.28,1136.34,183.37,1136.34,183.39z"/>
	</g>
</g>
<g id="freepik--Device--inject-116">
	<polygon class="st6" points="625.37,279.53 1150.78,279.53 1082.78,656.49 557.38,656.49 	"/>
	<polygon class="st7" points="1140.27,279.53 1107.57,460.81 1077.38,628.19 1072.27,656.51 546.88,656.51 597.65,375.06 
		614.88,279.53 	"/>
	<polygon class="st8" points="629.22,291.35 1121.66,291.35 1057.92,644.67 565.48,644.67 	"/>
	<polygon class="st9" points="570.46,617.04 565.48,644.67 1057.92,644.67 1062.91,617.04 	"/>
	<polygon class="st9" points="1107.07,291.35 1043.33,644.67 1057.92,644.67 1121.66,291.35 	"/>
	<polygon class="st10" points="1098.49,419.75 1110.89,351.01 1096.31,351.01 1083.9,419.75 	"/>
	<rect x="429.81" y="631.54" class="st6" width="644.93" height="24.95"/>
	<rect x="205.22" y="631.54" class="st7" width="316.56" height="24.95"/>
	<polygon class="st9" points="624.71,316.3 1117.16,316.3 1121.66,291.35 629.22,291.35 	"/>
	<polygon class="st6" points="655.71,308.53 890.27,308.53 892.42,296.63 657.86,296.63 	"/>
</g>
<g id="freepik--Ads--inject-116">
	<polygon class="st11" points="644.22,429.12 826.12,429.12 802.58,559.64 620.69,559.64 	"/>
	<polygon class="st6" points="633,417.06 814.91,417.06 791.38,547.56 609.46,547.56 	"/>
	<polygon class="st7" points="812.16,432.26 814.91,417.06 633,417.06 630.26,432.26 	"/>
	<path class="st6" d="M804.83,425c0.01,2.49-2,4.51-4.49,4.52c-2.49,0.01-4.51-2-4.52-4.49c-0.01-2.49,2-4.51,4.49-4.52
		c0.01,0,0.02,0,0.03,0C802.82,420.51,804.83,422.52,804.83,425L804.83,425z"/>
	<path class="st12" d="M703.54,446.75c8.85,1.29,11.64,8.37,9.64,18.44l-0.4,2.03h-7.82l0.51-2.57c1.3-6.6-0.56-10.71-6.6-10.71
		s-9.37,4.08-10.68,10.71c-3.3,16.82,21.84,16.93,17.68,37.96c-1.98,10.07-7.69,17.25-17.05,18.53l-1.12,5.68h-6.85l1.12-5.68
		c-9.06-1.29-11.85-8.37-9.9-18.53l0.91-4.6h7.82l-1.01,5.13c-1.34,6.75,0.69,10.61,6.7,10.61s9.54-3.86,10.86-10.61
		c3.3-16.7-21.72-16.92-17.56-37.96c2.01-10.28,7.53-17.03,16.8-18.44l1.19-5.99h6.85L703.54,446.75z"/>
	<path class="st12" d="M720.54,511.04l-2.05,10.4h-8.04l2.05-10.4H720.54z M718.18,481.71l6.95-35.24h8.35l-6.95,35.24l-5.63,23.11
		h-6.14L718.18,481.71z"/>
	<path class="st12" d="M737.46,511.04l-2.05,10.4h-8.04l2.05-10.4H737.46z M735.11,481.71l6.93-35.24h8.37l-6.95,35.24l-5.6,23.11
		h-6.22L735.11,481.71z"/>
	<polygon class="st11" points="1107.57,460.81 1077.38,628.19 888.98,628.19 919.19,460.81 	"/>
	<polygon class="st6" points="905.37,449.59 1138.65,449.59 1108.46,616.96 875.19,616.96 	"/>
	<polygon class="st7" points="1135.13,469.1 1138.65,449.59 905.37,449.59 901.86,469.1 	"/>
	<path class="st6" d="M1125.72,459.79c0,3.19-2.59,5.78-5.78,5.78c-3.19,0-5.78-2.59-5.78-5.78c0-3.19,2.59-5.78,5.78-5.78
		c0.01,0,0.01,0,0.02,0c3.18,0,5.76,2.58,5.76,5.76C1125.72,459.78,1125.72,459.78,1125.72,459.79z"/>
	<path class="st12" d="M929.4,531.96c3.72-5.12,9.69-8.12,16.03-8.05c12.49,0,16.24,9.16,13.5,23.11l-3.75,19.03
		c-2.92,14.85-11.92,24.56-26.77,24.56c-14.85,0-19.81-9.7-16.95-24.56l1.29-6.6h10.13l-1.42,7.23c-1.65,8.75,0.84,14.01,8.62,14.01
		s12.43-5.26,14.14-14.01l3.71-18.95c1.73-8.75-0.84-14.03-8.62-14.03c-5.96,0-10.65,3.3-13.02,10.41l-0.43,2.23h-10.13l13.29-54
		h38.26l-1.91,9.72h-28.55L929.4,531.96z"/>
	<path class="st12" d="M974.64,515.86c2.92-14.85,12.18-24.43,27.02-24.43s20.47,9.59,17.54,24.43l-9.9,50.12
		c-2.92,14.85-12.2,24.56-27.18,24.56s-20.3-9.7-17.36-24.56L974.64,515.86z M975.32,566.67c-1.65,8.75,0.99,14.01,8.76,14.01
		c7.77,0,12.56-5.26,14.28-14.01l10.18-51.36c1.75-8.9-0.83-14.16-8.75-14.16c-7.92,0-12.56,5.26-14.31,14.16L975.32,566.67z"/>
	<path class="st12" d="M1040.73,500.8l-2.48,12.96c-0.78,3.99-3.19,6.6-7.16,6.6s-5.35-2.64-4.56-6.6l2.56-12.96
		c0.78-3.93,3.17-6.6,7.16-6.6S1041.55,496.88,1040.73,500.8z M1055.58,494.42l-24.28,41.05h-2.76l24.23-41.05H1055.58z
		 M1032.01,500.62l-2.62,13.37c-0.45,2.23,0,3.7,2.2,3.7c2.2,0,3.3-1.47,3.66-3.7l2.64-13.37c0.43-2.23-0.15-3.75-2.2-3.75
		s-3.28,1.52-3.73,3.75L1032.01,500.62z M1057.92,516.1l-2.54,12.91c-0.78,3.98-3.12,6.6-7.16,6.6c-4.04,0-5.35-2.64-4.56-6.6
		l2.54-12.91c0.78-3.93,3.17-6.6,7.15-6.6s5.3,2.67,4.52,6.6L1057.92,516.1z M1049.16,515.94l-2.66,13.3
		c-0.45,2.23,0.13,3.75,2.18,3.75c2.05,0,3.3-1.52,3.68-3.75l2.62-13.3c0.43-2.23-0.15-3.7-2.21-3.7c-2.06,0-3.22,1.47-3.66,3.7
		L1049.16,515.94z"/>
	<path class="st12" d="M1016.38,550.71c1.65-8,6.6-13.2,14.57-13.2s11.03,5.15,9.44,13.2l-5.33,27.08
		c-1.65,7.94-6.6,13.2-14.64,13.2c-8.04,0-10.94-5.23-9.37-13.2L1016.38,550.71z M1016.75,578.11c-0.94,4.79,0.53,7.54,4.72,7.54
		c4.19,0,6.75-2.76,7.71-7.54l5.45-27.69c0.94-4.7-0.45-7.56-4.72-7.56c-4.27,0-6.77,2.86-7.69,7.56L1016.75,578.11z"/>
	<path class="st12" d="M1061.51,562.46l-1.04,5.31h-12.05l-4.47,22.68h-5.84l10.33-52.39h20.8l-1.04,5.31h-14.97l-3.76,19.08
		H1061.51z"/>
	<path class="st12" d="M1086.94,562.46l-1.04,5.31h-12.05l-4.47,22.68h-5.83l10.32-52.39h20.8l-1.04,5.31h-14.97l-3.75,19.08
		H1086.94z"/>
	<polygon class="st11" points="744.06,279.53 726.83,375.06 597.65,375.06 614.88,279.53 	"/>
	<polygon class="st6" points="500.22,182.15 748.61,182.15 716.48,360.38 468.07,360.38 	"/>
	<polygon class="st6" points="642.59,182.15 628.21,199.58 627.19,182.15 622.06,182.15 613.61,197.34 609.55,182.15 603.9,182.15 
		598.59,198.03 590.53,182.15 586.36,182.15 583.77,201.64 568.02,182.27 569.67,208 550.18,192.38 556.88,216.88 534.37,205.64 
		545.87,227.95 521.22,221.5 537.08,240.78 511.21,239.36 530.8,254.85 504.74,258.53 527.32,269.66 502.05,278.29 526.78,284.61 
		503.26,297.86 529.15,299.14 508.31,316.5 534.37,312.69 517.01,333.5 542.24,324.73 529.02,348.19 552.47,334.82 543.89,360.02 
		564.64,342.54 562.16,360.38 567.76,360.38 578.29,347.63 579.05,360.38 587.03,360.38 592.91,349.85 595.72,360.38 604.17,360.38 
		607.91,349.16 613.62,360.38 620.77,360.38 622.75,345.56 634.8,360.38 638.2,360.38 636.83,339.19 656.34,354.8 649.62,330.31 
		672.15,341.57 660.63,319.24 685.3,325.71 669.44,306.43 695.3,307.85 675.7,292.34 701.77,288.67 679.18,277.55 704.45,268.92 
		679.74,262.59 703.24,249.34 677.36,248.05 698.19,230.69 672.13,234.5 689.49,213.69 664.26,222.47 677.48,199 654.04,212.39 
		662.63,187.17 641.88,204.65 645,182.15 	"/>
	<polygon class="st7" points="744.87,202.93 748.61,182.15 500.22,182.15 496.47,202.93 	"/>
	<path class="st6" d="M734.87,193.01c0.01,3.4-2.74,6.16-6.14,6.17c-3.4,0.01-6.16-2.74-6.17-6.14c-0.01-3.4,2.74-6.16,6.14-6.17
		c0.01,0,0.02,0,0.03,0C732.12,186.87,734.87,189.62,734.87,193.01L734.87,193.01z"/>
	<path class="st12" d="M568.55,246.45c8.68,0,11.29,4.14,9.67,12.35l-0.51,2.62c-1.17,5.89-3.56,9.56-8.71,11.07
		c5.12,1.52,6.34,5.81,5.13,11.95l-0.94,4.69c-1.65,8.37-6.6,13.07-15.3,13.07h-12.82l10.98-55.75H568.55z M558.99,296.54
		c4.54,0,7.08-2.39,8.1-7.56l0.97-4.95c1.22-6.21-0.84-8.25-6.17-8.25h-5.41l-4.09,20.78L558.99,296.54z M562.38,270.14
		c4.95,0,7.79-1.65,8.95-7.41l0.64-3.3c0.97-4.95-0.23-7.33-4.69-7.33h-6.14l-3.55,17.99L562.38,270.14z"/>
	<path class="st12" d="M584.76,289.05c-0.99,4.95,0.41,8.05,4.95,8.05c4.54,0,7.05-3.04,8.04-8.05l8.38-42.6h5.83l-8.35,42.28
		c-1.65,8.45-6.6,14.09-15.27,14.09s-11.31-5.64-9.66-14.09l8.33-42.28h6.14L584.76,289.05z"/>
	<path class="st12" d="M620.9,282.22l-4.74-35.77h6.45l3.3,27.4l14.16-27.4h5.89l-18.91,35.77l-3.94,19.99h-6.12L620.9,282.22z"/>
	<path class="st12" d="M647,294.48l-1.52,7.72h-5.97l1.52-7.72H647z M645.25,272.66l5.15-26.21h6.21l-5.17,26.21l-4.18,17.2h-4.62
		L645.25,272.66z"/>
	<polygon class="st11" points="1055.51,279.53 1038.15,375.77 856.24,375.77 873.6,279.53 	"/>
	<polygon class="st6" points="869.43,233.18 1051.34,233.18 1027.79,363.68 845.89,363.68 	"/>
	<polygon class="st7" points="1048.58,248.38 1051.34,233.18 869.43,233.18 866.69,248.38 	"/>
	<circle class="st6" cx="1036.77" cy="241.12" r="4.51"/>
	<path class="st12" d="M921.76,281.69l-3.5,17.71h-4.39l7.76-39.36h4.39l-3.48,17.71h9.67l3.48-17.71h4.39l-7.76,39.36h-4.39
		l3.5-17.71H921.76z"/>
	<path class="st12" d="M942.38,269.54c1.17-6.02,4.95-9.9,10.94-9.9c5.99,0,8.25,3.88,7.1,9.9l-4.01,20.35
		c-1.17,5.96-4.95,9.9-10.99,9.9s-8.25-3.94-7.06-9.9L942.38,269.54z M942.64,290.12c-0.71,3.6,0.4,5.68,3.55,5.68
		c3.15,0,5.08-2.08,5.79-5.68l4.09-20.81c0.71-3.55-0.33-5.68-3.55-5.68s-5.08,2.13-5.78,5.68L942.64,290.12z"/>
	<path class="st12" d="M964.38,299.4l6.96-35.37h-7.25l0.79-3.99h18.9l-0.79,3.99h-7.25l-6.98,35.37L964.38,299.4z"/>
	<path class="st12" d="M909.91,313.21l-0.2,1.07h-4.16l0.25-1.3c0.69-3.53-0.25-5.61-3.38-5.61c-3.14,0-4.95,2.08-5.61,5.56
		c-1.73,8.83,11.32,9.67,9.13,20.75c-1.17,5.96-4.8,9.9-10.81,9.9c-6.01,0-8.07-3.9-6.9-9.9l0.45-2.24h4.11l-0.5,2.48
		c-0.69,3.55,0.36,5.63,3.5,5.63c3.14,0,5.03-2.08,5.73-5.63c1.73-8.78-11.27-9.62-9.08-20.7c1.19-6.07,4.75-9.9,10.65-9.9
		C908.97,303.31,911.17,307.26,909.91,313.21z"/>
	<path class="st12" d="M913.91,335.2l-3.09,7.87h-4.04l15.3-39.36h6.35l-0.23,39.36h-4.37v-7.94L913.91,335.2z M915.21,331.43h8.78
		v-22.73L915.21,331.43z"/>
	<path class="st12" d="M931.63,343.07l7.76-39.36h4.39l-6.96,35.37h11.24l-0.79,3.99H931.63z"/>
	<path class="st12" d="M968.93,321.2l-0.78,3.93h-9.62l-2.81,14.01h11.8l-0.74,3.93h-16.21l7.76-39.36h16.21l-0.79,3.98h-11.8
		l-2.66,13.45L968.93,321.2z"/>
	<path class="st12" d="M976.18,337.67l-1.07,5.46h-4.23l1.07-5.46H976.18z M974.94,322.27l3.65-18.5h4.39l-3.65,18.5l-2.95,12.15
		h-3.3L974.94,322.27z"/>
	<path class="st12" d="M985.06,337.67l-1.07,5.46h-4.21l1.07-5.46H985.06z M983.79,322.27l3.65-18.5h4.39l-3.65,18.5l-2.95,12.15
		h-3.3L983.79,322.27z"/>
</g>
<g id="freepik--Character--inject-116">
	<path class="st6" d="M599.68,720.23c0,0,2.44,14.66,5.15,20.37c2.71,5.71,7.61,12.74,4.34,13.57c-3.27,0.83-7.86-0.83-11.12-4.34
		c-3.72-4.41-7.8-8.5-12.21-12.21c-5.96-4.95-6.78-6.26-5.15-9.77c2.08-3.7,4.44-7.24,7.05-10.6L599.68,720.23z"/>
	<path class="st6" d="M609,754.18c-7.69-3.22-13.2-11.32-18.01-16.31c-3.26-3.35-6.87-6.34-10.78-8.91
		c-0.91,2.76,0.33,4.31,5.61,8.65c4.41,3.72,8.5,7.8,12.21,12.21C601.25,753.29,605.83,754.91,609,754.18z"/>
	<path class="st7" d="M534.86,593.23c0,0-9.23,11.93-12.21,20.35s-1.65,17.36,3.8,20.09c5.45,2.72,79.52,0,79.52,0l-18.15,83.58
		l11.95,2.99c0,0,36.1-82.23,38.54-88.2s6.24-18.45,4.34-21.7c-1.9-3.25-33.11-6.78-33.11-6.78l0.13-8.58l-72.32,0.17L534.86,593.23
		z"/>
	<line class="st13" x1="606.81" y1="630.43" x2="611.03" y2="610.95"/>
	<path class="st8" d="M586.72,437.84c0,0-2.61-9.14-8.81-10.12s-12.06,0-11.4,2.61s0.97,3.58,0.97,3.58s-13.7,0.66-20.88,7.51
		c-7.18,6.85,0.33,21.46,4.24,27.07c3.91,5.61,8.48,10.78,8.81,12.39c0.33,1.62,2.28,7.18-1.65,10.12
		c-3.93,2.94-37.84,18.91-37.18,22.51c0.66,3.6,12.46,81.45,12.46,81.45h76.28c0,0,12.77-85.36,11.12-87
		C619.04,506.33,585.8,491,585.8,491l1.65-9.13c0,0,10.78-1.3,10.45-3.91c-0.33-2.61-2.94-14.69-2.94-14.69l2.61-3.58l-6.59-8.15
		v-5.23L586.72,437.84z"/>
	<path class="st6" d="M585.75,491l1.65-9.13c0,0,10.78-1.3,10.45-3.91c-0.33-2.61-2.94-14.69-2.94-14.69l2.61-3.58l-6.54-8.15v-5.23
		l-4.24-8.47c0,0-2.61-9.14-8.81-10.12c-6.21-0.97-12.06,0-11.4,2.61c0.66,2.61,0.97,3.58,0.97,3.58s-13.7,0.66-20.88,7.51
		c-7.18,6.85,0.33,21.46,4.24,27.07s8.48,10.78,8.81,12.39s2.28,7.18-1.65,10.12c-1.33,0.88-2.71,1.69-4.13,2.43
		c3.71,3.86,11.12,10.5,19.19,11.65c7.33,1.06,14.39-6.06,18.57-11.34L585.75,491z"/>
	<path class="st7" d="M557.69,477.65c0.26,0,0.51-0.1,0.69-0.28c2.76-2.76,6.44-4.41,4.41-6.07c-2.03-1.67,0-6.6,0.92-6.6
		c0.92,0,3.86-0.74,3.86-1.47c-1-2.2-2.3-4.24-3.86-6.07c-1.47-1.85,6.82-9.39,9.01-10.68s-5.69,0.2-6.07-2.94
		s17.99-5.93,19.89-6.22c-0.66-1.96-3.3-8.73-8.63-9.57c-6.19-0.97-12.06,0-11.4,2.61c0.66,2.61,0.97,3.58,0.97,3.58
		s-13.7,0.66-20.88,7.51c-7.18,6.85,0.33,21.46,4.24,27.07C553.27,471.92,555.94,475.24,557.69,477.65z"/>
	<path class="st6" d="M566.82,467.18c0,0-5.55-9.13-8.8-4.95s0.97,11.73,4.95,12.39c2.16,0.44,4.41-0.03,6.21-1.3l3.91,2.94"/>
	<path class="st12" d="M587.27,452.86c0.12,1.17-0.3,2.16-0.96,2.24s-1.3-0.81-1.42-1.98c-0.12-1.17,0.3-2.16,0.94-2.23
		C586.47,450.83,587.13,451.7,587.27,452.86z"/>
	<path class="st4" d="M586.16,466.85c2.32,0.74,4.78,0.92,7.18,0.54"/>
	<path class="st4" d="M581.94,448.48c1.71-1.89,4.41-2.55,6.8-1.65"/>
	<path class="st8" d="M613.52,549.15l4.75,13.2l-10.12,18.07l7.16,6.68L642.14,571c1.36-0.84,1.92-2.53,1.34-4.01l-23.01-59.71
		l-2.57-0.76"/>
	<path class="st4" d="M618.28,562.33c4.76-1.91,10.17-1.29,14.38,1.65"/>
	<path class="st6" d="M605.14,571.72c0,0-5.74,1.49-6.6,1.65s-2.79,3.45-3.78,4.95s-5.76,1.96-3.45,4.27
		c2.31,2.31,5.08-0.33,6.4-1.49c1.32-1.16,2.95-2.62,2.95-2.62l2.97,0.5c0.88,2.02,2.04,3.89,3.45,5.58
		c1.96,2.15,3.19,3.78,7.46,3.3c4.27-0.48,5.86-5.08,2.74-9.52C614.17,573.9,605.14,571.72,605.14,571.72z"/>
	<path class="st6" d="M609.91,570.83c0,0-1.8-3.3-3.78-2.46c-1.98,0.84-4.77,12.16-3.45,13.65c1.32,1.49,2.46-3.61,4.6-6.6
		C608.38,574.03,609.27,572.48,609.91,570.83z"/>
	<path class="st6" d="M609.91,570.83c0,0-5.58,9.37-4.27,12.02c1.3,2.64,2.81,0.17,4.6-2.81c1.8-2.97,3.61-5.58,3.3-7.56
		C613.23,570.5,611.56,570.25,609.91,570.83z"/>
	<path class="st6" d="M613.69,574.53c0,0,3.14,0.31,3.14,2.95s-5.43,7.23-7.25,7.23s-0.5-1.96-0.5-1.96L613.69,574.53z"/>
	<path class="st6" d="M616.66,579.45c0,0,1.47-0.48,1.65,1.32c0.18,1.8-3.94,4.95-6.07,5.43s0-2.79,0-2.79L616.66,579.45z"/>
	<path class="st8" d="M532.77,540.83l-8.55,21.46l10.08,15.79l-4.29,7.97l-29.71-15.1c-1.36-0.84-1.92-2.53-1.34-4.01l21.55-54.23
		l2.01-1.4"/>
	<path class="st4" d="M513.57,562.12c-1.33,0.47-2.58,1.12-3.73,1.93"/>
	<path class="st4" d="M524.22,562.33c-2.09-0.84-4.35-1.2-6.6-1.04"/>
	<path class="st6" d="M531.32,575.45c0,0-4.6,7.56-2.29,10.69c2.31,3.14,9.9-0.99,9.9-0.99s0.81,0.33,3.61-0.99
		c2.81-1.32,4.95-5.43,3.78-8.25C545.15,573.09,531.32,575.45,531.32,575.45z"/>
	<path class="st6" d="M546.88,570.83c1.02,0.97,2.3,1.62,3.68,1.9c1.88,0.18,6.92-0.91,7.91,0c0.99,0.91,0.26,3.68-1.8,4.31
		s-3.6-0.1-5.93-0.26c-2.33-0.17-3.05-0.18-3.05-0.18L546.88,570.83z"/>
	<path class="st6" d="M542.42,571.33c0,0,2.41-1.53,4.18-0.66c1.77,0.87,2.86,6.6,2.86,8.78c0,2.18-0.89,4.16-1.53,4.16
		c-0.99-0.15-1.83-0.81-2.2-1.75c-0.45-1.09-2.43-7.25-2.64-8.33C542.93,572.77,542.71,572.04,542.42,571.33z"/>
	<path class="st6" d="M538.69,572.48c1.49-0.78,3.16-1.16,4.84-1.09c1.75,0.43,2.62,9.66,2.84,11.4c0.21,1.75-0.43,2.86-2.18,1.77
		c-1.75-1.09-2.86-6.16-3.73-7.46S537.6,573.95,538.69,572.48z"/>
	<path class="st6" d="M534.75,574.4c0.85-1.34,2.36-2.1,3.94-1.98c2.41,0.45,4.6,9.44,5.05,10.76c0.45,1.32-1.75,2.41-2.64,1.75
		c-2.12-2.62-4.02-5.41-5.69-8.33C535.18,575.93,534.75,574.4,534.75,574.4z"/>
	<path class="st6" d="M535.81,574.81c-0.42-0.67-1.26-0.95-2-0.66c-0.96,0.28-1.76,0.95-2.2,1.85c-0.73,1.78,1.65,4.95,3.3,7
		c1.65,2.05,3.76,1.88,3.94,0.63C538.46,580.5,537.42,577.5,535.81,574.81z"/>
	<rect x="538.69" y="557.07" class="st6" width="76.8" height="48.57"/>
	<circle class="st6" cx="576.6" cy="574.12" r="5.56"/>
	<path class="st6" d="M542.14,719.37c0,0-0.81,20.09,2.71,27.13c3.52,7.05,8.96,11.67,12.49,4.62c3.53-7.05-1.9-25.24-1.9-28.22
		c-0.03-2.09-0.22-4.17-0.54-6.24l-12.76,1.35L542.14,719.37z"/>
	<path class="st7" d="M529.12,614.93c0,0,1.07,43.42,5.15,68.13s7.87,36.31,7.87,36.31c2.88,0.43,5.8,0.43,8.68,0
		c1.89-0.53,3.6-1.56,4.95-2.99c0,0,4.95-84.95,5.15-92.28c0.2-7.33-0.26-14.38-2.16-16.5s-18.15-3.52-23.88-0.26"/>
</g>
</svg>
