<?xml version="1.0" encoding="utf-8"?>
<!-- Generator: Adobe Illustrator 23.1.0, SVG Export Plug-In . SVG Version: 6.00 Build 0)  -->
<svg version="1.1" id="Layer_1" xmlns="http://www.w3.org/2000/svg" xmlns:xlink="http://www.w3.org/1999/xlink" x="0px" y="0px"
	 viewBox="0 0 1366 768" style="enable-background:new 0 0 1366 768;" xml:space="preserve">
<style type="text/css">
	.st0{fill:#EBEBEB;}
	.st1{fill:#C7C7C7;}
	.st2{fill:#DBDBDB;}
	.st3{opacity:0.2;enable-background:new    ;}
	.st4{fill:#A6A6A6;}
	.st5{opacity:0.6;fill:#FFFFFF;enable-background:new    ;}
	.st6{opacity:0.4;fill:#FFFFFF;enable-background:new    ;}
	.st7{opacity:0.1;enable-background:new    ;}
	.st8{fill:#263238;}
	.st9{fill:#FFC727;}
	.st10{fill:#37474F;}
	.st11{fill:#FFFFFF;}
	.st12{fill:#455A64;}
	.st13{opacity:0.3;fill:#FFFFFF;enable-background:new    ;}
	.st14{opacity:0.2;}
	.st15{fill:#D3766A;}
	.st16{fill:#FF9BBC;}
</style>
<g id="freepik--background-complete--inject-9">
	<path class="st0" d="M419.45,542.06l-21.93,0.45l-11.12,0.2c-3.71,0-7.45,0-11.18,0.08h-0.75v-0.75v-18.68v-0.85h0.85l22.12,0.1
		c7.37,0,14.73,0.18,22.12,0.27h0.38v0.45c0,3.16-0.15,6.31-0.22,9.44L419.45,542.06z M419.45,542.06l-0.25-9.45
		c0-3.11-0.18-6.18-0.22-9.24l0.47,0.45c-7.38,0.08-14.75,0.27-22.12,0.27l-22.12,0.1l0.84-0.82l-0.1,18.68l-0.73-0.73
		c3.64,0,7.27,0,10.92,0l10.99,0.2L419.45,542.06z"/>
	<path class="st0" d="M394.76,565.58l-21.92,0.47l-11.12,0.2c-3.73,0-7.45,0-11.19,0.08h-0.75v-0.75v-18.64v-0.85h0.84l22.12,0.1
		c7.38,0,14.75,0.18,22.12,0.27h0.47v0.45c0,3.16-0.15,6.31-0.22,9.44L394.76,565.58z M394.76,565.58l-0.23-9.44
		c0-3.11-0.18-6.18-0.22-9.24l0.45,0.45c-7.37,0.08-14.73,0.27-22.12,0.27l-22.12,0.1l0.84-0.82l-0.08,18.68l-0.75-0.73
		c3.66,0,7.28,0,10.94,0.08l10.99,0.2L394.76,565.58z"/>
	<path class="st0" d="M445.26,565.58l-21.98,0.5l-11.12,0.2c-3.73,0-7.45,0-11.19,0.08h-0.73v-0.79l-0.1-18.68v-0.85h0.84l22.12,0.1
		c7.38,0,14.75,0.18,22.12,0.27h0.47v0.45c0,3.16-0.15,6.31-0.22,9.44L445.26,565.58z M445.26,565.58l-0.23-9.44
		c0-3.11-0.18-6.18-0.22-9.24l0.45,0.45c-7.37,0.08-14.73,0.27-22.12,0.27l-22.12,0.1l0.84-0.82l-0.08,18.68l-0.75-0.73
		c3.66,0,7.28,0,10.94,0.08l10.99,0.2L445.26,565.58z"/>
	<path class="st0" d="M886.56,389.98l-21.92,0.47l-11.12,0.18c-3.73,0-7.47,0-11.19,0h-0.73v-0.75l-0.1-18.69v-0.84h0.84l22.12,0.1
		c7.37,0,14.75,0.18,22.12,0.28h0.47v0.45c0,3.17-0.13,6.33-0.22,9.44L886.56,389.98z M886.56,389.98l-0.23-9.44
		c0-3.12-0.18-6.2-0.22-9.25l0.45,0.45c-7.37,0-14.75,0.27-22.12,0.28l-22.12,0.1l0.84-0.84l-0.08,18.69l-0.75-0.75
		c3.64,0,7.28,0,10.94,0.1l10.99,0.18L886.56,389.98z"/>
	<path class="st0" d="M1014.21,565.58l-21.92,0.47l-11.12,0.2c-3.73,0-7.47,0-11.19,0.08h-0.73v-0.75l-0.1-18.68v-0.85h0.84
		l22.12,0.1c7.38,0,14.75,0.18,22.12,0.27h0.47v0.45c0,3.16-0.13,6.31-0.22,9.44L1014.21,565.58z M1014.21,565.58l-0.23-9.44
		c-0.08-3.11-0.18-6.18-0.22-9.24l0.45,0.45c-7.37,0.08-14.73,0.27-22.12,0.27l-22.12,0.1l0.84-0.82l-0.08,18.68l-0.75-0.73
		c3.64,0,7.28,0,10.94,0.08l10.99,0.2L1014.21,565.58z"/>
	<path class="st0" d="M989.54,118.24l-21.92,0.47l-11.14,0.18c-3.71,0-7.45,0-11.18,0.1h-0.73v-0.75l-0.13-18.71V98.7h0.84
		l22.12,0.1c7.37,0,14.75,0.2,22.12,0.28h0.47v0.45c0,3.17-0.13,6.33-0.22,9.44L989.54,118.24z M989.54,118.24l-0.23-9.44
		c-0.08-3.12-0.18-6.2-0.22-9.25l0.45,0.45c-7.37,0-14.75,0.27-22.12,0.28l-22.12,0.1l0.84-0.84v18.69l-0.75-0.75
		c3.64,0,7.28,0,10.94,0.1l10.97,0.18L989.54,118.24z"/>
	<path class="st0" d="M1014.21,141.81l-21.92,0.47l-11.11,0.18c-3.73,0-7.47,0-11.19,0.1h-0.73v-0.75l-0.1-18.69v-0.84H970
		l22.12,0.1c7.38,0,14.75,0.2,22.12,0.28h0.47v0.45c0,3.17-0.13,6.33-0.22,9.44L1014.21,141.81z M1014.21,141.81l-0.23-9.44
		c-0.08-3.12-0.18-6.2-0.22-9.25l0.45,0.45c-7.37,0-14.73,0.27-22.12,0.28l-22.12,0.1l0.84-0.84l-0.08,18.69l-0.75-0.75
		c3.64,0,7.28,0,10.94,0.1l10.99,0.18L1014.21,141.81z"/>
	<path class="st0" d="M586.59,262.1l-21.92,0.47l-11.12,0.18c-3.73,0-7.45,0-11.19,0.1h-0.73v-0.75l-0.1-18.69v-0.84h0.84
		l22.12,0.12c7.38,0,14.75,0.18,22.12,0.27h0.47v0.45c0,3.17-0.15,6.33-0.22,9.45L586.59,262.1z M586.59,262.1l-0.23-9.44
		c0-3.11-0.18-6.18-0.22-9.25l0.45,0.47c-7.37,0.08-14.73,0.27-22.12,0.27l-22.12,0.1l0.84-0.84v18.69l-0.75-0.73
		c3.66,0,7.28,0,10.94,0.08l10.99,0.18L586.59,262.1z"/>
	<path class="st0" d="M611.28,285.67l-21.93,0.47l-11.12,0.18c-3.72,0.08-7.45,0-11.18,0.1h-0.75v-0.75l-0.08-18.69v-0.84h0.85
		l22.12,0.12c7.37,0,14.73,0.18,22.12,0.27h0.45v0.45c0,3.17-0.15,6.33-0.22,9.45L611.28,285.67z M611.28,285.67l-0.25-9.44
		c0-3.11-0.18-6.2-0.22-9.25l0.47,0.47c-7.38,0-14.75,0.27-22.12,0.27l-22.12,0.1l0.84-0.84l-0.1,18.69l-0.73-0.73
		c3.64,0,7.27,0,10.92,0l10.99,0.18L611.28,285.67z"/>
	<path class="st0" d="M394.76,118.24l-21.92,0.47l-11.12,0.18c-3.73,0-7.45,0-11.19,0.1h-0.75v-0.75V99.53V98.7h0.84l22.12,0.1
		c7.38,0,14.75,0.2,22.12,0.28h0.47v0.45c0,3.17-0.15,6.33-0.22,9.44L394.76,118.24z M394.76,118.24l-0.23-9.44
		c0-3.12-0.18-6.2-0.22-9.25l0.45,0.45c-7.37,0-14.73,0.27-22.12,0.28l-22.12,0.1l0.92-0.85l-0.17,18.71l-0.75-0.75
		c3.66,0,7.28,0,10.94,0.1l10.99,0.18L394.76,118.24z"/>
	<rect x="404.92" y="11" class="st1" width="1.34" height="156.65"/>
	<polygon class="st0" points="460.62,220.72 456.2,230.46 354.95,230.46 350.54,220.72 393.64,190.89 417.53,190.89 	"/>
	<polygon class="st2" points="420.52,162.14 417.53,190.89 393.64,190.89 390.65,162.14 	"/>
	<polygon class="st2" points="460.62,220.72 456.2,230.46 354.95,230.46 350.53,220.72 	"/>
	<rect x="523.11" y="11" class="st1" width="1.34" height="125.26"/>
	<polygon class="st0" points="578.82,189.32 574.4,199.05 473.15,199.05 468.73,189.32 511.84,159.48 535.71,159.48 	"/>
	<polygon class="st2" points="538.7,130.73 535.71,159.48 511.84,159.48 508.85,130.73 	"/>
	<polygon class="st2" points="578.81,189.32 574.38,199.05 473.14,199.05 468.73,189.32 	"/>
	<path class="st0" d="M408.36,331.03c-64.83,0-64.93,92.17,0,92.17S473.29,331.03,408.36,331.03z"/>
	<path class="st2" d="M447.78,385.76c-3.46,15.85-16.6,29.62-39.44,29.62c-53.87,0-53.79-76.5,0-76.5h1.07
		c-50.63,0.92-50.38,73.38,0.99,73.38C431.36,412.27,443.84,400.21,447.78,385.76z"/>
	<path class="st2" d="M408.74,348.96c0.87,0,1.6,0.67,1.67,1.54v2.56c4.5,0.31,8.82,1.86,12.48,4.49c0.63,0.45,0.99,0.84,0.99,1.49
		c0,0.92-0.74,1.67-1.66,1.68c-0.05,0-0.1,0-0.16-0.01c-0.47,0.02-0.92-0.14-1.27-0.45c-3.06-2.33-6.7-3.78-10.52-4.18v17.91
		c10.67,2.05,15.15,5.71,15.15,11.99c0,6.8-6.23,11.69-15.03,11.88v5.01c0,0.92-0.75,1.67-1.67,1.67c-0.92,0-1.67-0.75-1.67-1.67
		v-5.01c-5.78-0.37-11.3-2.55-15.77-6.23c-0.47-0.29-0.76-0.79-0.79-1.34c0.05-0.93,0.82-1.66,1.75-1.67
		c0.46-0.02,0.92,0.15,1.27,0.45c3.82,3.36,8.61,5.4,13.68,5.83V376.6c-10.52-2.1-14.87-5.65-14.87-12.06
		c0-6.41,6.16-11.43,14.72-11.69v-2.44C407.15,349.56,407.88,348.93,408.74,348.96z M407.2,373.33v-17.51
		c-6.82,0.12-11.29,3.84-11.29,8.47C395.91,368.65,398.22,371.34,407.2,373.33z M410.28,377.25v17.71
		c7.02-0.13,11.58-3.86,11.58-8.72C421.85,381.83,419.4,379.11,410.28,377.25L410.28,377.25z"/>
	<path class="st2" d="M948.88,110.94c-58.36,10.47-42.95,96.88,15.52,86.44S1007.35,100.45,948.88,110.94z"/>
	<path class="st0" d="M954.36,109.96c-55.62,10.02-40.21,96.45,15.52,86.44C1025.61,186.39,1010.09,99.95,954.36,109.96z"/>
	<path class="st2" d="M997.41,155.21c-0.3,15.42-9.27,30.33-28.85,33.84c-46.24,8.35-59.05-63.48-12.88-71.74l0.9-0.15
		c-43.28,8.67-30.87,76.59,13.21,68.67C987.77,182.6,996.46,169.3,997.41,155.21z"/>
	<path class="st2" d="M965.47,126.66c0.81,0.11,1.39,0.86,1.29,1.67l-0.28,2.42c3.91,0.78,7.5,2.7,10.31,5.53
		c0.48,0.35,0.74,0.92,0.68,1.5c-0.13,0.81-0.85,1.38-1.67,1.32c-0.41-0.03-0.8-0.23-1.05-0.55c-2.32-2.48-5.33-4.23-8.64-5.01
		l-2,17c9,3.02,12.48,6.93,11.79,12.9c-0.77,6.43-6.68,10.36-14.32,9.71l-0.57,4.73c-0.17,0.79-0.95,1.3-1.75,1.13
		c-0.68-0.15-1.17-0.76-1.16-1.46l0.55-4.79c-5.03-0.99-9.6-3.63-12.96-7.5c-0.64-0.55-0.71-1.52-0.16-2.17
		c0.33-0.39,0.84-0.58,1.35-0.52c0.34,0.04,0.66,0.2,0.9,0.45c2.83,3.51,6.78,5.95,11.19,6.92l2.17-17.24
		c-8.87-3.07-12.24-6.87-11.53-12.93c0.72-6.06,6.68-10.19,14.03-9.49l0.28-2.32C964.04,127.18,964.7,126.63,965.47,126.66z
		 M961.43,149.64l1.94-16.7c-5.9-0.57-10.21,2.49-10.71,6.87C952.18,144,953.81,146.79,961.43,149.64z M963.65,153.67l-1.97,16.7
		c6.1,0.6,10.46-2.46,10.99-7.07c0.5-4.21-1.32-6.98-9.02-9.71V153.67z"/>
	<path class="st0" d="M998.35,529.75c-0.09,1.83-0.67,3.6-1.67,5.13c0-0.35-0.13-0.7-0.22-1.07c-0.08-0.37-0.18-0.73-0.3-1.1
		c-0.88-2.53-2.24-4.86-3.99-6.88l-0.6-0.68l-0.15-0.18l0,0c-0.1-0.1-0.2-0.2-0.28-0.32c-16.15-20.46-31.54,12.7-31.85,13.46l0,0
		c0,0-0.89-33.07,16.7-33.99C989.86,503.4,999.16,519.52,998.35,529.75z"/>
	<path class="st0" d="M996.71,534.87c-0.4,0.58-0.89,1.09-1.45,1.52c-8.35,6.45-34.28,2-35.88,1.67l0,0
		c24.3,2.34,30.97-6.51,32.14-13.16l0.15,0.18l0.6,0.68c1.74,2.03,3.1,4.36,3.99,6.88c0.12,0.37,0.22,0.75,0.3,1.1
		S996.66,534.52,996.71,534.87z"/>
	<path class="st3" d="M996.71,534.87c-0.4,0.58-0.89,1.09-1.45,1.52c-8.35,6.45-34.28,2-35.88,1.67l0,0
		c24.3,2.34,30.97-6.51,32.14-13.16l0.15,0.18l0.6,0.68c1.74,2.03,3.1,4.36,3.99,6.88c0.12,0.37,0.22,0.75,0.3,1.1
		S996.66,534.52,996.71,534.87z"/>
	<path class="st0" d="M919.64,533.5c0.25,1.83,0.98,3.56,2.12,5.01c0-0.35,0-0.72,0.12-1.09c0.04-0.38,0.11-0.75,0.2-1.12
		c0.64-2.6,1.77-5.06,3.34-7.23l0.52-0.75c0.04-0.07,0.08-0.13,0.13-0.18l0,0l0.25-0.33c14.13-21.92,32.61,9.62,32.99,10.36l0,0
		c0,0-2.27-33.01-19.91-32.24C925.58,506.48,917.85,523.41,919.64,533.5z"/>
	<path class="st0" d="M921.76,538.45c0.45,0.54,0.99,1,1.59,1.37c8.99,5.61,34.31-1.25,35.88-1.67l0,0
		c-23.99,4.64-31.45-3.52-33.26-10.02c-0.05,0.06-0.09,0.12-0.13,0.18l-0.52,0.75c-1.56,2.18-2.7,4.63-3.34,7.23
		c-0.08,0.38-0.15,0.75-0.2,1.12S921.77,538.1,921.76,538.45z"/>
	<path class="st3" d="M921.76,538.45c0.45,0.54,0.99,1,1.59,1.37c8.99,5.61,34.31-1.25,35.88-1.67l0,0
		c-23.99,4.64-31.45-3.52-33.26-10.02c-0.05,0.06-0.09,0.12-0.13,0.18l-0.52,0.75c-1.56,2.18-2.7,4.63-3.34,7.23
		c-0.08,0.38-0.15,0.75-0.2,1.12S921.77,538.1,921.76,538.45z"/>
	<polygon class="st2" points="1006.58,648.04 912.59,648.04 920.35,542.02 997.19,545.31 	"/>
	<polygon class="st4" points="1028.28,648.04 999.1,648.04 995,545.31 1023.07,547.75 	"/>
	<polygon class="st1" points="911.32,542.02 911.32,562.72 995,560.16 995,536.46 	"/>
	<polygon class="st2" points="1026.49,562.72 995,560.16 995,536.46 1028.28,542.02 	"/>
	<polygon class="st0" points="966.49,648.04 946.83,648.04 944.84,539.8 968.08,538.25 	"/>
	<polygon class="st0" points="1011.16,648.04 1017.84,648.04 1017.24,540.19 1007.9,538.62 	"/>
	<path class="st2" d="M924.91,577.44c-0.28,1.69-1.02,3.28-2.12,4.59c0-0.33,0-0.67,0-1.02s-0.1-0.7-0.17-1.07
		c-0.53-2.46-1.53-4.79-2.94-6.87l-0.47-0.7l-0.13-0.18l0,0l-0.23-0.32c-12.73-20.9-30.8,8.25-31.2,8.92l0,0
		c0,0,2.91-30.9,19.44-29.77C919.97,551.93,926.82,568.01,924.91,577.44z"/>
	<path class="st4" d="M922.73,582.03c-0.44,0.49-0.95,0.92-1.52,1.25c-8.57,5.01-32.16-2-33.63-2.44l0,0
		c22.38,4.93,29.6-2.56,31.44-8.62l0.13,0.18l0.47,0.7c1.4,2.09,2.39,4.41,2.94,6.87c0,0.37,0.12,0.72,0.17,1.07
		C922.78,581.39,922.73,581.7,922.73,582.03z"/>
	<path class="st2" d="M851.13,572.04c0.05,1.71,0.54,3.38,1.42,4.84c0-0.33,0.13-0.67,0.23-1c0.09-0.35,0.19-0.69,0.32-1.02
		c0.88-2.35,2.21-4.52,3.91-6.36l0.57-0.63l0.15-0.17l0,0l0.28-0.28c15.64-18.83,29.27,12.66,29.55,13.36l0,0
		c0,0,1.67-31-14.9-32.29C859.73,547.52,850.61,562.42,851.13,572.04z"/>
	<path class="st4" d="M852.57,576.88c0.37,0.55,0.81,1.03,1.32,1.45c7.75,6.25,32.12,2.71,33.63,2.49l0,0
		c-22.87,1.67-28.91-6.85-29.85-13.11l-0.15,0.17l-0.57,0.63c-1.69,1.86-3.02,4.02-3.91,6.36c-0.13,0.33-0.23,0.67-0.32,1.02
		C852.69,576.22,852.57,576.55,852.57,576.88z"/>
	<polygon class="st0" points="844.82,647.81 931.91,647.81 928.72,586.14 853.52,583.45 	"/>
	<polygon class="st5" points="844.82,647.81 931.91,647.81 928.72,586.14 853.52,583.45 	"/>
	<polygon class="st0" points="827.01,647.81 851.77,647.81 855.56,583.45 830.04,588.21 	"/>
	<polygon class="st0" points="933.1,583.68 933.1,605.21 855.56,602.54 855.56,577.92 	"/>
	<polygon class="st6" points="933.1,583.68 933.1,605.21 855.56,602.54 855.56,577.92 	"/>
	<polygon class="st0" points="826.39,605.21 855.56,602.54 855.56,577.92 824.72,583.68 	"/>
	<polygon class="st7" points="826.39,605.21 855.56,602.54 855.56,577.92 824.72,583.68 	"/>
	<polygon class="st2" points="908.11,581.83 907.36,647.81 886.8,647.81 886.46,580.23 	"/>
	<polygon class="st2" points="843.26,580.23 835.53,581.66 835.53,647.81 842,647.81 	"/>
	<path class="st2" d="M436.27,577.44c-0.29,1.69-1.01,3.27-2.1,4.59c0-0.33,0-0.67,0-1.02c-0.03-0.36-0.09-0.72-0.17-1.07
		c-0.53-2.46-1.53-4.79-2.94-6.87c-0.15-0.23-0.3-0.47-0.47-0.7c-0.04-0.07-0.08-0.13-0.13-0.18l0,0c0-0.12-0.15-0.22-0.22-0.32
		c-12.75-20.9-30.82,8.25-31.2,8.92l0,0c0,0,2.92-30.9,19.46-29.77C431.34,551.93,438.19,568.01,436.27,577.44z"/>
	<path class="st4" d="M434.16,582.03c-0.44,0.49-0.96,0.91-1.52,1.25c-8.57,5.01-32.17-2-33.63-2.44l0,0
		c22.38,4.93,29.6-2.56,31.44-8.62c0.05,0.06,0.09,0.12,0.13,0.18c0.17,0.23,0.32,0.47,0.47,0.7c1.41,2.08,2.41,4.41,2.94,6.87
		c0.08,0.35,0.13,0.71,0.17,1.07C434.13,581.36,434.15,581.7,434.16,582.03z"/>
	<path class="st2" d="M362.5,572.04c0.05,1.71,0.54,3.38,1.42,4.84c0-0.33,0.13-0.67,0.22-1s0.2-0.67,0.32-1.02
		c0.89-2.35,2.22-4.52,3.93-6.36l0.57-0.63l0.15-0.17l0,0l0.27-0.28c15.65-18.83,29.28,12.66,29.57,13.36l0,0
		c0,0,1.67-31-14.88-32.29C371.11,547.52,361.99,562.42,362.5,572.04z"/>
	<path class="st4" d="M363.92,576.88c0.36,0.55,0.81,1.04,1.32,1.45c7.75,6.25,32.11,2.71,33.63,2.49l0,0
		c-22.85,1.67-28.9-6.85-29.83-13.11l-0.15,0.17l-0.57,0.63c-1.7,1.86-3.03,4.02-3.93,6.36c-0.12,0.35-0.22,0.68-0.32,1.02
		S363.97,576.55,363.92,576.88z"/>
	<polygon class="st0" points="356.19,647.81 443.29,647.81 440.09,586.14 364.89,583.45 	"/>
	<polygon class="st5" points="356.19,647.81 443.29,647.81 440.09,586.14 364.89,583.45 	"/>
	<polygon class="st0" points="338.38,647.81 363.12,647.81 366.91,583.45 341.39,588.21 	"/>
	<polygon class="st0" points="444.47,583.68 444.47,605.21 366.91,602.54 366.91,577.92 	"/>
	<polygon class="st6" points="444.47,583.68 444.47,605.21 366.91,602.54 366.91,577.92 	"/>
	<polygon class="st0" points="337.75,605.21 366.91,602.54 366.91,577.92 336.1,583.68 	"/>
	<polygon class="st7" points="337.75,605.21 366.91,602.54 366.91,577.92 336.1,583.68 	"/>
	<polygon class="st2" points="419.48,581.83 418.71,647.81 398.17,647.81 397.83,580.23 	"/>
	<polygon class="st2" points="354.64,580.23 346.9,581.66 346.9,647.81 353.37,647.81 	"/>
</g>
<g id="freepik--Floor--inject-9">
	<polygon class="st8" points="333.82,647.96 420.92,647.56 508.01,647.41 682.19,647.14 856.36,647.41 943.46,647.56 
		1030.55,647.96 943.46,648.38 856.36,648.53 682.19,648.8 508.01,648.53 420.92,648.38 	"/>
</g>
<g id="freepik--Shadow--inject-9">
	<ellipse class="st0" cx="682.19" cy="728.52" rx="287.78" ry="26.48"/>
</g>
<g id="freepik--Plant--inject-9">
	<path class="st8" d="M398.5,494.73c0.4-6.84,1.37-13.64,2.89-20.33c1.2-6.16,3.68-11.99,7.27-17.14c3.36-4.74,8.49-7.94,14.23-8.87
		c5.58-0.68,10.81,1.8,15.03,5.31c5.16,4.34,9.12,10.11,12.83,15.7c4.08,6.25,7.78,12.73,11.09,19.41c0.05,0.09,0.02,0.21-0.08,0.26
		s-0.21,0.02-0.26-0.08c-2.87-5.67-6.19-11.11-9.92-16.25c-3.39-4.93-7.21-9.55-11.41-13.81c-3.83-3.74-8.7-7.23-14.25-7.42
		c-5.52,0.07-10.68,2.73-13.93,7.18c-3.71,4.74-5.6,10.69-7.02,16.47c-1.46,6.37-2.42,12.84-2.86,19.36
		c-1.09,13.36-1.39,26.86-1.67,40.29c-0.17,7.6-0.27,15.2-0.35,22.8c0,3.84,0,7.7,0,11.54c0.14,3.72-0.01,7.45-0.45,11.14
		c-0.12,0.75-1.35,0.68-1.47,0c-0.46-3.5-0.63-7.03-0.52-10.56c0-3.64,0-7.3-0.12-10.94c-0.07-7.09-0.09-14.19-0.08-21.3
		C397.35,523.25,397.53,508.95,398.5,494.73z"/>
	<path class="st9" d="M417.63,484.64c0.72-3.79,1.99-8.74,4.14-11.69c3.89-5.28,8.07-2.97,4.19,2.86c-2.86,4.34-4.71,9.26-5.43,14.4
		c0,0,6.51,9.3,14.38,13.88c-0.33-3.57-1.35-9.07-0.65-14.38c1.5-11.51,8.47-10.86,6.68-1.67c-1.28,6.07-1.84,12.27-1.67,18.47
		c2.61,1.7,5.41,3.08,8.35,4.11c-0.45-1.32-0.94-2.92-1.47-4.86c-2.79-10.31,4.09-13.53,4.31-7.73c0.45,4.95,1.34,9.85,2.67,14.63
		c3.78,1.27,6.9,2.14,8.82,2.81c4.95,1.84,9.38,4.86,12.9,8.8c3.57-3.24,6.55-7.09,8.79-11.36c-2.41-2.07-6.21-5.14-11.48-8.87
		c-9.89-6.98-6.45-15.79,1.39-10.31c5.66,3.94,10.02,11.28,12.03,15.03c2.68-6.55,4.2-13.51,4.49-20.58
		c-7.77-7.28-26.98-17.44-21.18-17.44c5.21,0,16.85,7.63,21.13,10.57c-0.1-2-0.32-4-0.65-5.98c-7.32-4.79-31.07-12.24-27.29-14.4
		c4.16-2.36,20.75,5.33,25.76,7.75c-0.95-3.25-2.43-6.33-4.39-9.09c-10.11-13.53-28.4-18.19-36.28-15.62
		c-5.61,1.82-3.98,16.1-5.18,15.62C419.6,450.48,409.33,457,417.63,484.64z M473.02,483.07c1.67-1.94,9.02,3.76,6.88,6.88
		S470.96,485.56,473.02,483.07z M434.28,470.9c1.94,1.25-0.94,8.45-3.94,6.28C427.77,475.37,432.31,469.64,434.28,470.9
		L434.28,470.9z"/>
	<path class="st7" d="M417.63,484.64c0.72-3.79,1.99-8.74,4.14-11.69c3.89-5.28,8.07-2.97,4.19,2.86c-2.86,4.34-4.71,9.26-5.43,14.4
		c0,0,6.51,9.3,14.38,13.88c-0.33-3.57-1.35-9.07-0.65-14.38c1.5-11.51,8.47-10.86,6.68-1.67c-1.28,6.07-1.84,12.27-1.67,18.47
		c2.61,1.7,5.41,3.08,8.35,4.11c-0.45-1.32-0.94-2.92-1.47-4.86c-2.79-10.31,4.09-13.53,4.31-7.73c0.45,4.95,1.34,9.85,2.67,14.63
		c3.78,1.27,6.9,2.14,8.82,2.81c4.95,1.84,9.38,4.86,12.9,8.8c3.57-3.24,6.55-7.09,8.79-11.36c-2.41-2.07-6.21-5.14-11.48-8.87
		c-9.89-6.98-6.45-15.79,1.39-10.31c5.66,3.94,10.02,11.28,12.03,15.03c2.68-6.55,4.2-13.51,4.49-20.58
		c-7.77-7.28-26.98-17.44-21.18-17.44c5.21,0,16.85,7.63,21.13,10.57c-0.1-2-0.32-4-0.65-5.98c-7.32-4.79-31.07-12.24-27.29-14.4
		c4.16-2.36,20.75,5.33,25.76,7.75c-0.95-3.25-2.43-6.33-4.39-9.09c-10.11-13.53-28.4-18.19-36.28-15.62
		c-5.61,1.82-3.98,16.1-5.18,15.62C419.6,450.48,409.33,457,417.63,484.64z M473.02,483.07c1.67-1.94,9.02,3.76,6.88,6.88
		S470.96,485.56,473.02,483.07z M434.28,470.9c1.94,1.25-0.94,8.45-3.94,6.28C427.77,475.37,432.31,469.64,434.28,470.9
		L434.28,470.9z"/>
	<path class="st8" d="M437.24,473.12c1.02-2.02,2.07-4.03,3.24-5.96c1.07-1.92,2.32-3.73,3.74-5.41c-0.33-0.4-0.63-0.8-0.97-1.19
		c-0.33-0.38,0.1-0.38,0.23-0.23c0.38,0.43,0.73,0.87,1.1,1.32c0.08,0.04,0.13,0.1,0.17,0.18c1.39,1.67,2.71,3.34,3.96,5.14
		c2.22,0.51,4.41,1.15,6.56,1.9c2.22,0.75,4.41,1.52,6.56,2.42c0.23,0.1,0.12,0.47-0.1,0.37c-2.14-0.94-4.31-1.85-6.51-2.61
		c-2.2-0.75-4.23-1.25-6.35-1.85c0.68,0.99,1.37,1.95,2.02,2.96c3.99,1.27,7.87,2.85,11.61,4.74c3.91,1.85,7.68,4.03,11.44,6.2
		c0.22,0.12,0,0.45-0.2,0.32c-3.7-2.16-7.5-4.12-11.39-5.9c-3.62-1.67-7.4-3.09-11.06-4.71c9.22,14.4,14.77,31.02,22.17,46.4
		c0.1,0.22-0.25,0.4-0.33,0.18c-2.27-5.4-4.86-10.66-7.33-15.97c-2.2-4.76-4.36-9.55-6.56-14.32c-0.65-1.39-1.32-2.79-1.99-4.18
		c0.4,7.7,0.23,15.52,1.49,23.12c0,0.1-0.08,0.18-0.18,0.18c-0.1,0-0.18-0.08-0.18-0.18c-0.53-8.24-1.99-16.32-1.92-24.59
		c0,0,0,0,0-0.1c-1.57-3.14-3.24-6.25-5.01-9.25c-3.06,7.2-6.26,14.5-7.7,22.23c0,0.23-0.43,0.13-0.37-0.12
		c2.09-7.75,4.01-15.5,7.73-22.67c-1.96-3.26-4.13-6.39-6.5-9.37c-1.02,1.92-2.34,3.73-3.49,5.55c-1.15,1.82-2.27,3.59-3.34,5.43
		c-2.26,3.89-4.19,7.97-5.76,12.19c0,0.23-0.47,0.12-0.37-0.1C433.43,481.22,435.22,477.04,437.24,473.12z"/>
	<path class="st8" d="M364.49,490.62c5.91-5.95,12.81-13.73,21.95-13.71c8.84,0,15.33,7.12,19.08,14.47
		c3.91,7.67,5.31,16.35,6.41,24.81c1.3,10.12,2.08,20.3,2.34,30.5c0.17,5.66,0.13,11.34,0,17c0,5.74-0.43,11.47-1.3,17.14
		c-0.17,0.92-1.67,0.95-1.67,0c-0.27-4.76,0-9.55,0-14.33c0-4.78,0-9.4-0.22-14.1c-0.35-9.5-1.04-18.99-2.15-28.4
		c-0.97-8.24-1.75-16.7-4.23-24.69c-2.22-7.2-6.4-15.42-13.68-18.57c-10.02-4.31-19.66,3.56-26.16,10.21
		C364.61,491.04,364.33,490.79,364.49,490.62z"/>
	<path class="st9" d="M334.27,503.89L334.27,503.89c0,1.22,0.12,2.42,0.2,3.59c2.85-2.12,6.19-3.51,9.71-4.03
		c8.35-0.89,7.87,5.5,2.26,5.76c-3.95,0.05-7.86,0.84-11.53,2.32c1.37,11.09,4.41,20.04,4.88,20.04c7.46-0.4,14.87-1.32,22.2-2.76
		c-2.09-4.44-6.85-10.37-4.43-10.84s5.09,4.79,6.43,10.44c5.49-1.06,10.89-2.54,16.15-4.44c-3.69-3.21-9.42-7.18-7.23-8.89
		c2.19-1.7,6.68,3.91,9.44,7.98c2.48-1,4.83-2.31,6.98-3.89c-5.01-7.32-17.12-8.8-15.53-14.08s12.95,2.04,18.04,11.83
		c6-6.2,7.75-15.03,7.12-22.5c-5.21-0.6-15.25,0.48-14.53-3.26c0.72-3.74,7.98-3.02,13.91-0.85c-0.54-2.97-1.72-5.79-3.46-8.27
		c-5.51-7.05-22.28,1.92-22.28,1.92s1.8-16.85-4.61-19.78c-3.67-1.67-10.19-1.67-16.7,2.19c3.66,0.3,8.1,1.45,9.87,3.99
		c2.27,3.24-1.32,5.01-3.59,3.51c-1.67-1.05-4.61-4.39-10.02-4.83c-2.32,1.94-4.36,4.19-6.06,6.68c-0.62,0.93-1.2,1.89-1.72,2.87
		c6.27-2.81,13.47-2.68,19.64,0.35c7.27,3.62,3.21,11.18-3.06,8.24c-6.26-2.94-12.21-5.81-18.84-4.16
		c-2.34,5.99-3.43,12.39-3.19,18.81c3.24-2.37,6.89-4.12,10.77-5.16c7.23-1.9,9.42,2.42,1.47,3.22
		C342.23,500.38,338.05,501.74,334.27,503.89z M343.09,492.28c-0.5-2.34,4.63-3.01,5.48-1.1
		C349.27,492.8,343.56,494.63,343.09,492.28z M386.98,505.26c0.48-1.27,3.91,0.18,3.59,1.77c-0.43,2.12-4.04-0.48-3.61-1.77
		L386.98,505.26z M362.75,513.48c2.49-1,6.4,5.23,3.67,6.68s-5.75-5.86-3.69-6.68H362.75z"/>
	<path class="st8" d="M340.77,530.5c3.76-6.31,7.48-12.64,11.44-18.83c1.84-2.89,3.78-5.71,5.78-8.49c-0.3,0-0.6-0.15-0.9-0.2
		l-1.5-0.3c-1.15-0.2-2.32-0.37-3.49-0.48s-2.2-0.17-3.34-0.18c-1.18-0.06-2.36,0-3.52,0.18c-0.05,0.02-0.11,0-0.13-0.05
		c-0.02-0.05,0-0.11,0.05-0.13c0.03-0.01,0.05-0.01,0.08,0c1.17,0,2.37-0.1,3.56-0.12c1.19-0.02,2.29,0,3.44,0.08
		c1.07,0.05,2.14,0.16,3.21,0.33l1.67,0.3c0.35,0.05,0.71,0.13,1.05,0.22c2.04-2.81,4.16-5.55,6.35-8.25
		c-6.53-3.17-13.47-5.39-20.63-6.58c-0.12,0,0-0.2,0-0.18c7.27,1.01,14.33,3.15,20.93,6.35c1.2-1.47,2.42-2.96,3.64-4.41
		c1.22-1.45,2.81-3.24,4.04-5.01c0-0.1,0.25,0,0.15,0.12c-1.69,1.87-3.29,3.83-4.78,5.86l0,0c2.69,1.88,5.26,3.94,7.67,6.16
		c2.51,2.22,5.01,4.53,7.33,6.88c0.1,0.08,0,0.22-0.13,0.13c-2.34-2.34-4.78-4.57-7.33-6.68c-2.54-2.12-5.23-4.06-7.78-6.15l0,0
		l-1.75,2.32l-0.89,1.15l0,0c-0.99,1.27-1.95,2.56-2.92,3.84c1.14,1.65,2.11,3.41,2.91,5.25c0.85,1.79,1.67,3.62,2.26,5.46
		c1.35,3.85,2.4,7.8,3.14,11.81c0.02,0.05,0,0.11-0.05,0.13c-0.05,0.02-0.11,0-0.13-0.05c-0.01-0.03-0.01-0.05,0-0.08
		c-0.77-3.94-1.89-7.81-3.34-11.56c-0.73-1.94-1.57-3.81-2.42-5.68c-0.85-1.87-1.67-3.34-2.47-5.01c-0.84,1.14-1.67,2.26-2.51,3.34
		l-0.72,1c0.04,0.04,0.03,0.1-0.01,0.14c-0.02,0.02-0.05,0.03-0.08,0.03l0,0c-2.59,3.62-5.01,7.32-7.45,11.06
		c0.14,0.26,0.25,0.53,0.33,0.82c0.15,0.47,0.3,0.92,0.43,1.39c0.27,0.92,0.49,1.86,0.65,2.81c0.17,0.89,0.28,1.77,0.37,2.67
		c0.02,1.02,0.1,2.04,0.23,3.06c0,0.15-0.22,0.15-0.18,0c0.07-0.95,0-1.91-0.22-2.84c-0.13-0.99-0.32-1.94-0.53-2.91
		c-0.22-0.97-0.43-1.67-0.7-2.57c-0.12-0.43-0.27-0.85-0.4-1.27l-0.27-0.7c-1.12,1.75-2.24,3.52-3.34,5.3
		c-2.17,3.52-4.33,7.07-6.48,10.59C340.94,530.75,340.66,530.58,340.77,530.5z"/>
	<path class="st8" d="M398.89,578.81c0.1-3.57,0.67-7.18,1.05-10.72s0.79-7.13,1.17-10.71c0.48-6.93,1.4-13.83,2.76-20.65
		c1.19-5.86,4.1-11.24,8.35-15.45c2.22-2.21,5.13-3.59,8.25-3.93c3.13-0.09,6.2,0.86,8.74,2.71c2.89,2.13,5.39,4.75,7.37,7.75
		c2.13,2.96,4.05,6.07,5.73,9.3c0,0.13-0.13,0.2-0.2,0.08c-3.17-5.41-7.39-10.13-12.41-13.9c-2.22-1.84-4.94-2.98-7.82-3.26
		c-2.83-0.05-5.56,1.04-7.58,3.02c-4,3.84-6.78,8.76-8.02,14.17c-1.43,6.29-2.45,12.66-3.04,19.08c-0.5,3.78-0.99,7.57-1.49,11.34
		s-0.82,7.62-1.67,11.33c-0.16,0.31-0.54,0.43-0.86,0.27C399.05,579.16,398.92,578.99,398.89,578.81z"/>
	<path class="st9" d="M416.46,551.06c1.1,1.5,2.4,2.84,3.88,3.98c-0.58-3.49-1.29-9.69,0.47-12.98c2.74-5.11,5.96-2.57,4.34,1.89
		c-1.63,4.01-2.52,8.28-2.64,12.61c3.71,2.34,7.7,4.21,11.86,5.6c-0.44-2-0.57-4.06-0.38-6.1c0.55-5.48,4.74-5.38,3.64,0.32
		c-0.4,2.2-0.59,4.44-0.57,6.68c6.05,1.87,12.23,3.26,18.49,4.18c3.19-4.15,5.77-8.73,7.65-13.61c-4.46-1.12-13.48-1.37-13.36-4.56
		c0.25-4.28,8.99-0.99,14.1,2.12c1.17-3.73,1.69-7.62,1.55-11.53c-4.01-1.12-8.13-1.8-12.29-2.04c-9.17-0.79-8.72-6-2.07-5.86
		c4.89,0.08,11.11,3.09,14.05,4.64c-1.92-12.48-11.44-20.48-19.06-20.78c-12.83-0.52-8.22,15.45-8.22,15.45s-8.69-6.11-16.9-5.95
		C412.77,525.29,407.69,538.85,416.46,551.06z M450.72,527.99c-0.28-1.8,5.45-2.24,5.75,0C456.8,530.65,451.02,529.81,450.72,527.99
		z M460.02,546.72c-0.12-1.17,2.36-1.39,2.91,0.1C463.23,547.77,460.02,547.87,460.02,546.72z M429.2,547.8
		c1.94,0.28,3.04,7.2-0.28,7.05c-2.62-0.1-1.44-7.28,0.2-7.05H429.2z"/>
	<path class="st7" d="M416.46,551.06c1.1,1.5,2.4,2.84,3.88,3.98c-0.58-3.49-1.29-9.69,0.47-12.98c2.74-5.11,5.96-2.57,4.34,1.89
		c-1.63,4.01-2.52,8.28-2.64,12.61c3.71,2.34,7.7,4.21,11.86,5.6c-0.44-2-0.57-4.06-0.38-6.1c0.55-5.48,4.74-5.38,3.64,0.32
		c-0.4,2.2-0.59,4.44-0.57,6.68c6.05,1.87,12.23,3.26,18.49,4.18c3.19-4.15,5.77-8.73,7.65-13.61c-4.46-1.12-13.48-1.37-13.36-4.56
		c0.25-4.28,8.99-0.99,14.1,2.12c1.17-3.73,1.69-7.62,1.55-11.53c-4.01-1.12-8.13-1.8-12.29-2.04c-9.17-0.79-8.72-6-2.07-5.86
		c4.89,0.08,11.11,3.09,14.05,4.64c-1.92-12.48-11.44-20.48-19.06-20.78c-12.83-0.52-8.22,15.45-8.22,15.45s-8.69-6.11-16.9-5.95
		C412.77,525.29,407.69,538.85,416.46,551.06z M450.72,527.99c-0.28-1.8,5.45-2.24,5.75,0C456.8,530.65,451.02,529.81,450.72,527.99
		z M460.02,546.72c-0.12-1.17,2.36-1.39,2.91,0.1C463.23,547.77,460.02,547.87,460.02,546.72z M429.2,547.8
		c1.94,0.28,3.04,7.2-0.28,7.05c-2.62-0.1-1.44-7.28,0.2-7.05H429.2z"/>
	<path class="st8" d="M431.81,555.55c0.32-0.87,0.6-1.67,0.87-2.62c-0.25,0.9-0.47,1.79-0.63,2.69
		C432.01,555.72,431.74,555.65,431.81,555.55z"/>
	<path class="st8" d="M435.18,544.38c0.6-1.77,1.29-3.52,1.97-5.26c0.37-0.94,0.75-1.85,1.15-2.77c0.3-0.81,0.68-1.58,1.15-2.31
		c-0.4-0.72-0.75-1.47-1.04-2.24c0,0,0-0.13,0.12,0c0.94,1.22,1.77,2.52,2.49,3.88c0.37,0.62,0.7,1.24,1.05,1.84
		c0.72,0.07,1.44,0.18,2.15,0.33l2.31,0.47l2.27,0.53c0.77,0.18,1.52,0.43,2.29,0.55c0.17,0,0.1,0.3,0,0.23
		c-0.78-0.27-1.59-0.48-2.41-0.62c-0.73-0.17-1.47-0.3-2.22-0.4c-0.75-0.1-1.49-0.2-2.24-0.27l-1.67-0.15
		c0.32,0.55,0.63,1.07,0.94,1.67c0.04,0.09,0.08,0.17,0.13,0.25c0.62,0,1.24,0.07,1.84,0.22l1.99,0.4c1.34,0.3,2.67,0.6,3.99,0.99
		c2.77,0.77,5.51,1.67,8.25,2.56c0.15,0,0,0.27-0.1,0.22c-2.74-0.91-5.53-1.68-8.35-2.29l-3.94-0.89l-1.99-0.42
		c-0.51-0.08-1.02-0.19-1.52-0.33c1.4,2.61,2.74,5.26,3.96,7.97c2.66,5.88,4.89,11.94,7.18,17.99c0,0.15-0.18,0.25-0.23,0.1
		c-2.21-6.06-4.77-11.99-7.67-17.76c-0.52-1.05-1.05-2.09-1.57-3.12c0,0.2-0.08,0.42-0.13,0.63c-0.13,0.7-0.25,1.42-0.38,2.14
		c-0.23,1.44-0.48,2.86-0.68,4.29c-0.61,2.94-0.96,5.92-1.04,8.92c0,0.18-0.28,0.18-0.25,0c0.18-1.44,0.29-2.89,0.32-4.34
		c0.1-1.5,0.2-3.01,0.38-4.49s0.35-2.89,0.58-4.31c0.12-0.72,0.25-1.44,0.38-2.15c0.03-0.54,0.17-1.07,0.4-1.55l-2.26-4.51
		c-0.72-1.42-1.44-2.82-2.17-4.23l-0.99-1.79c-0.23,0.74-0.51,1.46-0.84,2.15l-1,2.44c-0.73,1.79-1.42,3.59-2.1,5.4
		c-0.97,2.57-2.04,5.19-2.84,7.87C433.65,549.62,434.32,546.97,435.18,544.38z"/>
	<path class="st8" d="M432.68,552.86c0-0.2,0.12-0.4,0.18-0.62C432.81,552.46,432.75,552.66,432.68,552.86z"/>
	<polygon class="st10" points="377.44,571.86 378.34,590.95 380.66,640.18 431.44,640.18 433.76,590.95 434.67,571.86 	"/>
	<polygon class="st8" points="377.44,571.86 378.34,590.95 433.76,590.95 434.67,571.86 	"/>
	<rect x="373.81" y="564.12" class="st10" width="64.46" height="15.43"/>
	<rect x="418.41" y="640.18" class="st10" width="8.92" height="8.08"/>
	<rect x="418.41" y="640.18" class="st8" width="8.92" height="4.04"/>
	<rect x="384.77" y="640.18" class="st10" width="8.9" height="8.08"/>
	<rect x="384.77" y="640.18" class="st8" width="8.9" height="4.04"/>
</g>
<g id="freepik--label-2--inject-9">
	<path class="st8" d="M715.78,234.22l-0.5,0.68c-0.68,0.9-16.79,22.17-27.46,19.84c-3.34-0.73-5.31-2.54-5.38-5.01
		c-0.17-4.88,6.4-10.91,14.32-13.16c5.93-1.57,12.04-2.35,18.17-2.34L715.78,234.22z M684.59,245.91c-0.8,1.13-1.24,2.46-1.29,3.84
		c0,2.1,1.67,3.56,4.69,4.23c9.09,1.97,23.1-15.03,26.02-18.81c-5.75,0.05-11.48,0.83-17.04,2.31c-4.97,1.26-9.36,4.22-12.39,8.35
		V245.91z"/>
	<path class="st11" d="M775.83,137.33c-1.05-1.15-2.84-1.22-3.99-0.17c0,0,0,0,0,0l-68.99,63.11c-0.64,0.6-0.98,1.46-0.9,2.34
		l2.24,27.75v0.4l0.08,0.72v0.32l0.85,10.51c0.09,1.3,1.06,2.36,2.34,2.57l10.49,1.79l0.95,0.15l27.83,4.73
		c0.87,0.17,1.76-0.1,2.41-0.7l68.97-63.11c1.16-1.06,1.24-2.85,0.18-4.01c0,0-0.01-0.01-0.01-0.01L775.83,137.33z"/>
	<path class="st0" d="M775.83,137.33c-0.62-0.68-1.53-1.01-2.44-0.89c-0.45,0.06-0.88,0.22-1.25,0.48c-0.37,0.27-0.67,0.6-1.02,0.9
		l-3.99,3.67l-7.98,7.33l-15.99,14.7l-31.95,29.4l-7.98,7.33c-0.66,0.53-1.04,1.34-1.02,2.19l0.22,2.69l0.45,5.41l1.8,21.63
		l0.45,5.41l0.22,2.71l0.12,1.35v0.67c0.02,0.19,0.06,0.39,0.13,0.57c0.27,0.76,0.89,1.34,1.67,1.55c0.8,0.17,1.67,0.3,2.64,0.45
		l5.35,0.9l21.41,3.59l5.35,0.92l2.67,0.45l1.34,0.23l0.67,0.12c0.19,0.03,0.39,0.03,0.58,0c0.39-0.01,0.77-0.12,1.1-0.32
		c0.18-0.09,0.34-0.2,0.48-0.33l0.5-0.47l2-1.82l4.01-3.66l16.05-14.62l32.09-29.23l8.03-7.3l4.01-3.66l2-1.84
		c0.35-0.27,0.64-0.59,0.89-0.95c0.21-0.37,0.34-0.78,0.37-1.2c0.03-0.43-0.05-0.86-0.23-1.25c-0.19-0.39-0.45-0.75-0.77-1.05
		l-1.82-2l-3.66-4.01l-7.3-8.02L775.83,137.33z M775.83,137.33l29.4,31.95l7.35,7.98l3.67,3.99l1.84,2c0.34,0.32,0.62,0.7,0.84,1.12
		c0.2,0.44,0.29,0.92,0.27,1.4c-0.03,0.48-0.17,0.94-0.42,1.35c-0.25,0.4-0.56,0.76-0.94,1.05l-1.99,1.84l-4.01,3.67l-7.98,7.35
		l-31.94,29.38l-15.99,14.7l-3.99,3.67l-1.99,1.84l-0.5,0.47c-0.19,0.17-0.4,0.32-0.62,0.45c-0.45,0.26-0.96,0.41-1.49,0.43
		c-0.25,0.03-0.5,0.03-0.75,0l-0.68-0.12l-1.34-0.22l-2.67-0.45l-5.35-0.9l-21.4-3.79l-5.35-0.92c-0.9-0.17-1.75-0.28-2.71-0.48
		c-1.01-0.28-1.81-1.04-2.15-2.02c-0.08-0.24-0.13-0.49-0.15-0.73v-0.68l-0.12-1.35l-0.2-2.71l-0.42-5.41l-1.67-21.63l-0.42-5.41
		l-0.22-2.72c-0.01-0.99,0.43-1.93,1.2-2.56l8.03-7.32l32.09-29.23l15.94-14.57l8.03-7.32l4.01-3.66c0.35-0.28,0.65-0.62,1.02-0.89
		c0.38-0.26,0.81-0.42,1.27-0.48C774.28,136.31,775.2,136.65,775.83,137.33z"/>
	<path class="st11" d="M713.82,231.84c0.17-0.28,0.37-0.54,0.6-0.77l0,0l0,0c1.68-1.22,4.03-0.85,5.25,0.83
		c1.04,1.43,0.94,3.4-0.24,4.72l0,0c-0.17,0.16-0.35,0.3-0.55,0.42l-0.37,0.18c-1.88,0.86-4.1,0.04-4.96-1.83
		c-0.52-1.13-0.44-2.45,0.2-3.51L713.82,231.84z"/>
	<path class="st0" d="M713.82,231.84c0.17-0.29,0.37-0.55,0.6-0.79l0,0l0,0l0,0c0.74-0.69,1.71-1.07,2.72-1.09
		c1.05-0.01,2.06,0.4,2.81,1.14c1.56,1.57,1.55,4.11-0.02,5.67c-0.05,0.05-0.1,0.1-0.15,0.14l0,0l-0.33,0.25l-0.35,0.23l0,0
		c-0.8,0.47-1.73,0.63-2.64,0.45c-0.87-0.15-1.67-0.59-2.26-1.25C713.04,235.28,712.88,233.34,713.82,231.84z M713.82,231.84
		c-0.42,0.72-0.58,1.56-0.45,2.39c0.26,1.62,1.6,2.85,3.24,2.96c0.74,0.04,1.47-0.15,2.1-0.53l0,0l0.27-0.22l0.28-0.22l0,0
		c0.64-0.6,1.03-1.43,1.09-2.31c0.07-0.9-0.21-1.79-0.77-2.49c-0.59-0.74-1.46-1.2-2.41-1.29c-0.98-0.09-1.95,0.22-2.69,0.87l0,0
		l0,0l0,0C714.23,231.25,714,231.53,713.82,231.84z"/>
	<path class="st8" d="M771.14,143.1l-63.48,58.06c-0.65,0.59-1,1.43-0.95,2.31l1.54,26.64v0.87l0.47,8.03
		c0.07,1.3,1.07,2.37,2.37,2.51l35.23,5.19c0.86,0.13,1.74-0.14,2.37-0.73l63.48-58.06c1.17-1.03,1.29-2.8,0.27-3.98l-37.33-40.76
		c-1.06-1.12-2.83-1.16-3.94-0.1C771.15,143.09,771.14,143.09,771.14,143.1z M774.73,143.53l37.3,40.72c0.86,0.94,0.8,2.4-0.14,3.26
		c-0.03,0.03-0.06,0.06-0.1,0.08l-63.48,58.06c-0.53,0.5-1.25,0.73-1.97,0.63l-35.23-5.19c-0.5-0.07-0.95-0.31-1.29-0.68
		c-0.34-0.37-0.55-0.85-0.57-1.35l-0.47-8v-0.89l-1.54-26.73c-0.04-0.72,0.25-1.42,0.79-1.9l63.48-58.06
		C772.42,142.62,773.85,142.64,774.73,143.53z"/>
</g>
<g id="freepik--label-1--inject-9">
	<path class="st8" d="M550.22,454.19c7.61-0.02,15.18,0.95,22.53,2.89c9.81,2.79,17.92,10.26,17.74,16.3
		c-0.1,3.12-2.47,5.35-6.68,6.26c-13.23,2.87-33.19-23.47-34.03-24.59l-0.63-0.85L550.22,454.19z M572.46,458.13
		c-6.9-1.82-14.01-2.76-21.15-2.81c3.62,4.59,21,25.76,32.26,23.3c3.72-0.8,5.73-2.62,5.81-5.23c-0.06-1.71-0.61-3.36-1.59-4.76
		c-3.75-5.18-9.18-8.9-15.37-10.51H572.46z"/>
	<path class="st11" d="M474.72,334.17c1.28-1.44,3.49-1.57,4.93-0.29c0.03,0.02,0.06,0.05,0.08,0.08l85.47,78.21
		c0.8,0.74,1.21,1.81,1.12,2.89l-2.74,34.38v0.48l-0.08,0.9v0.4l-1.04,13.01c-0.12,1.6-1.32,2.91-2.91,3.17l-13,2.22l-1.17,0.18
		l-34.46,5.86c-1.07,0.2-2.18-0.12-2.97-0.87l-85.61-78.21c-1.44-1.31-1.55-3.54-0.25-4.98c0.01-0.01,0.02-0.02,0.03-0.03
		L474.72,334.17z"/>
	<path class="st0" d="M438.51,373.95l-9.07,9.94l-4.53,5.01l-2.26,2.47c-0.39,0.37-0.72,0.81-0.95,1.3
		c-0.21,0.48-0.31,1.01-0.28,1.54c0.03,0.53,0.18,1.05,0.45,1.5c0.3,0.45,0.67,0.85,1.1,1.19l2.47,2.27l5.01,4.53l10.02,9.05
		l39.59,36.18l20.04,18.09l5.01,4.53l2.47,2.27l0.63,0.57c0.18,0.16,0.38,0.31,0.58,0.43c0.41,0.24,0.88,0.37,1.35,0.38
		c0.24,0.02,0.49,0.02,0.73,0l0.84-0.13l1.67-0.3l3.34-0.57l6.68-1.14l26.53-4.44l6.68-1.12c1.09-0.18,2.26-0.35,3.34-0.55
		c0.96-0.27,1.73-0.99,2.07-1.92c0.08-0.23,0.13-0.47,0.15-0.72v-0.84l0.13-1.67l0.28-3.34l0.55-6.68l2.24-26.73l0.55-6.68
		l0.28-3.34c0.03-1.05-0.44-2.05-1.27-2.71l-9.91-9.1l-39.92-36.58l-19.73-18.22l-9.91-9.1l-5.01-4.56c-0.4-0.39-0.82-0.76-1.27-1.1
		c-0.45-0.33-0.98-0.53-1.54-0.6c-1.13-0.16-2.27,0.25-3.04,1.1L438.51,373.95z M477.76,333.05c0.56,0.07,1.09,0.27,1.55,0.58
		c0.44,0.35,0.87,0.72,1.27,1.12l5.01,4.53l10.02,9.05l19.89,18.11l39.72,36.21l10.02,9.05c0.96,0.77,1.5,1.94,1.47,3.17l-0.25,3.34
		l-0.52,6.68l-2.1,26.81l-0.52,6.68l-0.27,3.34l-0.13,1.67v0.85c-0.02,0.31-0.09,0.62-0.2,0.92c-0.42,1.21-1.42,2.14-2.66,2.49
		c-1.19,0.25-2.22,0.4-3.34,0.6l-6.68,1.15L523.55,474l-6.68,1.12l-3.34,0.55l-1.67,0.27l-0.82,0.15c-0.32,0.03-0.64,0.03-0.95,0
		c-0.65-0.03-1.28-0.21-1.84-0.53c-0.27-0.16-0.53-0.35-0.75-0.57l-0.62-0.57l-2.47-2.27l-5.01-4.56l-19.79-18.21l-39.62-36.26
		l-9.89-9.1l-5.01-4.56l-2.49-2.27c-0.45-0.37-0.84-0.8-1.15-1.29c-0.29-0.51-0.47-1.08-0.52-1.67c-0.01-0.57,0.1-1.15,0.33-1.67
		c0.26-0.52,0.6-1,1.02-1.4l2.29-2.47l4.54-5.01l9.12-9.89l36.41-39.59C475.43,333.31,476.6,332.89,477.76,333.05z"/>
	<path class="st11" d="M551.58,451.27c-0.22-0.35-0.48-0.67-0.77-0.95v-0.08l0,0c-1.9-1.73-4.83-1.6-6.56,0.3
		c-1.73,1.9-1.6,4.83,0.3,6.56l0,0c0.22,0.19,0.45,0.35,0.7,0.5c0.14,0.1,0.29,0.18,0.45,0.23c2.32,1.1,5.09,0.11,6.19-2.2
		c0.68-1.44,0.58-3.13-0.27-4.48L551.58,451.27z"/>
	<path class="st0" d="M551.01,457.08c-0.73,0.82-1.72,1.37-2.81,1.55c-1.14,0.22-2.33,0.03-3.34-0.55l0,0l-0.43-0.3l-0.42-0.3l0,0
		l0,0c-1.03-0.92-1.63-2.22-1.67-3.59c-0.01-1.35,0.52-2.64,1.47-3.59c0.92-0.92,2.17-1.43,3.47-1.42c1.24,0.02,2.43,0.49,3.34,1.34
		l0,0l0.08,0.08l0,0c0.29,0.29,0.54,0.62,0.75,0.97C552.57,453.1,552.39,455.44,551.01,457.08z M550.79,450.32L550.79,450.32
		l-0.08-0.08l0,0c-0.91-0.81-2.12-1.2-3.34-1.09c-1.17,0.14-2.24,0.74-2.97,1.67c-0.69,0.88-1.02,1.98-0.95,3.09
		c0.08,1.09,0.57,2.1,1.35,2.86l0,0l0.37,0.28l0.33,0.25l0,0c1.65,1.03,3.78,0.84,5.23-0.45c0.75-0.67,1.24-1.57,1.4-2.56
		c0.15-1.02-0.04-2.06-0.55-2.96C551.36,450.96,551.1,450.62,550.79,450.32z"/>
	<path class="st8" d="M475.64,341.41l-46.2,50.45c-1.26,1.45-1.12,3.64,0.32,4.91l78.61,71.93c0.79,0.73,1.87,1.07,2.94,0.92
		l43.65-6.43c1.56-0.23,2.74-1.52,2.84-3.09l0.58-10.02V449l1.9-33.01c0.06-1.08-0.37-2.13-1.17-2.86l-78.61-71.94
		C479.09,339.93,476.94,340.03,475.64,341.41z M480.07,341.74l78.61,71.94c0.67,0.6,1.03,1.47,0.97,2.37l-1.9,33.02v1.09l-0.57,9.94
		c-0.04,0.62-0.29,1.21-0.7,1.67c-0.45,0.46-1.03,0.75-1.67,0.84l-43.65,6.43c-0.89,0.12-1.78-0.16-2.44-0.77l-78.54-71.93
		c-1.19-1.04-1.32-2.85-0.28-4.04l46.2-50.46C477.18,340.75,478.93,340.7,480.07,341.74z"/>
</g>
<g id="freepik--label-text-2--inject-9">
	<path class="st12" d="M743.59,215.16c2.95,3.47,2.53,8.68-0.94,11.63c-3.05,2.6-7.53,2.62-10.62,0.06l0,0
		c-0.47-0.45-0.92-0.9-1.35-1.39c-1.62-1.73-2.92-3.74-3.83-5.93c-0.98-2.29-1.22-4.82-0.7-7.25c0.45-1.76,1.38-3.36,2.69-4.63
		c0.74-0.74,1.93-0.74,2.67,0c0,0,0,0,0,0c0.71,0.76,0.71,1.93,0,2.69c-0.8,0.79-1.38,1.77-1.67,2.86c-0.24,1.06-0.24,2.15,0,3.21
		c0.07,0.32,0.17,0.64,0.28,0.95c0.44-1.03,1.1-1.95,1.94-2.71C735.4,211.65,740.53,211.88,743.59,215.16z M740.8,217.71
		c-1.67-1.82-4.49-1.94-6.31-0.28c-1.82,1.67-1.94,4.49-0.28,6.31l0,0c1.67,1.82,4.49,1.94,6.31,0.28
		C742.34,222.35,742.47,219.53,740.8,217.71z"/>
	<path class="st12" d="M745.03,208.88c-1.97-2.09-3.29-4.72-3.78-7.55c-0.97-3.84,1.36-7.73,5.2-8.7c1.36-0.34,2.78-0.28,4.11,0.18
		c5.6,1.64,9.82,6.26,10.96,11.98c0.98,3.82-1.32,7.72-5.15,8.7c-1.37,0.35-2.82,0.29-4.16-0.18
		C749.44,212.56,746.94,211.02,745.03,208.88z M754.93,199.81c-1.41-1.59-3.25-2.75-5.3-3.34c-1.26-0.45-2.67-0.22-3.73,0.6
		c-0.92,1-1.29,2.39-0.99,3.71c0.42,2.09,1.42,4.02,2.89,5.56c1.4,1.59,3.22,2.75,5.26,3.34c1.3,0.43,2.72,0.19,3.81-0.63
		c0.9-1,1.23-2.39,0.9-3.69c-0.4-2.1-1.39-4.04-2.86-5.6V199.81z"/>
	<path class="st12" d="M758.51,188.38L758.51,188.38c-2.31-2.17-2.42-5.79-0.25-8.1c0.08-0.09,0.17-0.17,0.25-0.25
		c2.34-2.08,5.92-1.86,7.99,0.48c0.06,0.07,0.12,0.14,0.17,0.21l0,0c2.3,2.09,2.46,5.65,0.37,7.95c-2.09,2.3-5.65,2.46-7.95,0.37
		c-0.24-0.22-0.45-0.45-0.65-0.7L758.51,188.38z M764.56,182.85L764.56,182.85c-0.95-1.39-2.86-1.75-4.25-0.79c0,0-0.01,0-0.01,0.01
		c-1.19,1.07-0.84,2.87,0.4,4.23l0,0c0.96,1.4,2.88,1.75,4.28,0.79c0,0,0,0,0,0C766.14,185.99,765.79,184.2,764.56,182.85z
		 M772.11,197.45l-2.87-26.24c-0.09-0.46,0.07-0.93,0.43-1.24c0.53-0.52,1.38-0.52,1.9,0c0.2,0.24,0.33,0.54,0.37,0.85l2.87,26.24
		c0.08,0.47-0.09,0.94-0.45,1.25c-0.52,0.49-1.35,0.47-1.84-0.05c-0.01-0.01-0.02-0.02-0.03-0.03
		C772.29,198.02,772.15,197.74,772.11,197.45z M777.33,187.65L777.33,187.65c-2.24-2.14-2.31-5.7-0.17-7.94
		c2.14-2.24,5.7-2.31,7.94-0.17c0.16,0.15,0.31,0.32,0.45,0.49l0,0c2.31,2.18,2.41,5.82,0.23,8.12c-0.07,0.08-0.15,0.15-0.23,0.23
		c-2.37,2.06-5.96,1.8-8.01-0.57c-0.05-0.05-0.09-0.11-0.14-0.17H777.33z M783.36,182.12L783.36,182.12
		c-0.95-1.39-2.86-1.75-4.25-0.79c0,0-0.01,0-0.01,0.01c-1.19,1.07-0.84,2.87,0.42,4.23l0,0c0.96,1.4,2.88,1.75,4.28,0.79
		c0,0,0,0,0,0C784.97,185.27,784.6,183.47,783.36,182.12L783.36,182.12z"/>
</g>
<g id="freepik--label-text-1--inject-9">
	<path class="st10" d="M478.83,389.75c0.13,2.83-0.88,5.59-2.81,7.67c-1.93,2.04-4.58,3.24-7.38,3.34
		c-2.81,0.14-5.57-0.86-7.63-2.77l0,0c-2.06-1.9-3.26-4.55-3.34-7.35c-0.09-1.3,0.88-2.42,2.18-2.52c0.05,0,0.09-0.01,0.14-0.01
		c1.34-0.06,2.47,0.98,2.52,2.32c0,0,0,0,0,0c0.11,3.16,2.76,5.64,5.92,5.53c0.04,0,0.07,0,0.11,0c1.53-0.06,2.96-0.72,4.01-1.84
		c1.07-1.12,1.62-2.64,1.52-4.19c-0.04-1.53-0.71-2.97-1.85-3.98c-1.12-1.06-2.62-1.62-4.16-1.55c-1.34,0.05-2.47-0.99-2.54-2.32
		c0-0.25,0-0.48,0-0.73s0-0.08,0-0.12c0.02-0.07,0.02-0.15,0-0.22c0-0.1,0.1-0.18,0.17-0.25c0.07-0.07,0,0,0-0.1
		c0.14-0.2,0.31-0.39,0.5-0.53l8.45-7.3c0.55-0.44,1.26-0.63,1.95-0.53c0.06,0.01,0.12,0.01,0.18,0h0.15
		c0.37,0.1,0.71,0.29,0.99,0.55l9.32,8.55c0.99,0.92,1.04,2.47,0.12,3.46c-0.92,0.99-2.47,1.04-3.46,0.12l-7.77-7.13l-3.26,2.77
		c0.86,0.45,1.67,1.01,2.39,1.67C477.42,384.18,478.71,386.88,478.83,389.75z"/>
	<path class="st10" d="M484.16,398.99c2.41-2.72,5.57-4.65,9.09-5.56c4.71-1.63,9.85,0.86,11.48,5.57c0.58,1.67,0.65,3.48,0.22,5.19
		c-0.64,3.57-2.32,6.86-4.83,9.47c-2.4,2.71-5.54,4.66-9.04,5.61c-4.72,1.62-9.86-0.9-11.48-5.62c-0.57-1.66-0.64-3.44-0.21-5.14
		C480,404.93,481.66,401.62,484.16,398.99z M496.64,410.44c1.85-1.95,3.11-4.38,3.64-7.02c0.42-1.64-0.02-3.38-1.17-4.63
		c-1.36-1.04-3.14-1.34-4.76-0.82c-5.21,1.59-9.16,5.88-10.31,11.21c-0.39,1.67,0.06,3.43,1.2,4.71c1.36,1.02,3.14,1.3,4.74,0.73
		C492.56,413.9,494.86,412.44,496.64,410.44z"/>
	<path class="st10" d="M501.45,431.78l32.67-6.51c0.57-0.15,1.17,0.01,1.59,0.42c0.7,0.61,0.77,1.66,0.16,2.36
		c-0.01,0.01-0.02,0.02-0.03,0.03c-0.28,0.29-0.64,0.49-1.04,0.57l-32.67,6.48c-0.6,0.15-1.23-0.02-1.67-0.45
		c-0.68-0.62-0.73-1.68-0.11-2.36c0,0,0.01-0.01,0.01-0.01C500.67,432.02,501.04,431.84,501.45,431.78z M511.37,413.7L511.37,413.7
		c2.52-3.1,7.08-3.57,10.18-1.05c0.08,0.07,0.17,0.14,0.25,0.21c2.86,2.7,2.98,7.2,0.28,10.06c-0.09,0.1-0.18,0.19-0.28,0.28l0,0
		c-2.53,3.1-7.1,3.57-10.2,1.04c-0.08-0.07-0.16-0.13-0.24-0.2c-2.85-2.75-2.94-7.28-0.19-10.13
		C511.23,413.84,511.3,413.77,511.37,413.7L511.37,413.7z M514.33,437.27L514.33,437.27c2.37-3.12,6.82-3.74,9.95-1.37
		c3.12,2.37,3.74,6.82,1.37,9.95c-0.25,0.33-0.53,0.64-0.84,0.93l0,0c-2.53,3.1-7.1,3.56-10.2,1.02c-0.08-0.06-0.15-0.12-0.22-0.19
		c-2.87-2.74-2.97-7.29-0.23-10.16C514.2,437.39,514.27,437.33,514.33,437.27L514.33,437.27z M518.97,420.7L518.97,420.7
		c1.67-1.77,1.95-4.16,0.53-5.46c-1.42-1.3-3.71-0.72-5.26,0.99l0,0c-1.67,1.8-1.94,4.14-0.52,5.45
		C515.15,422.97,517.4,422.4,518.97,420.7L518.97,420.7z M521.94,444.25L521.94,444.25c1.67-1.75,1.95-4.14,0.53-5.45
		c-1.42-1.3-3.71-0.72-5.28,0.99l0,0c-1.67,1.8-1.95,4.16-0.53,5.46C518.09,446.56,520.37,445.96,521.94,444.25z"/>
</g>
<g id="freepik--Coupon--inject-9">
	<path class="st9" d="M879.3,623.56c0.01,23.3,18.88,42.2,42.18,42.24v54.19H442.9V665.8c23.34,0.46,42.63-18.08,43.09-41.41
		c0.46-23.34-18.08-42.63-41.41-43.09c-0.56-0.01-1.12-0.01-1.68,0V476.61h478.57v104.68C898.17,581.34,879.3,600.25,879.3,623.56z"
		/>
	<path class="st13" d="M921.47,665.8v54.19H442.9V665.8c23.33,0,42.25-18.91,42.26-42.24H879.3
		C879.3,646.86,898.17,665.75,921.47,665.8z"/>
	<g class="st14">
		<path d="M488.5,625.21h-3.34c-0.92,0-1.67-0.75-1.67-1.67s0.75-1.67,1.67-1.67h3.34c0.92,0,1.67,0.75,1.67,1.67
			S489.43,625.21,488.5,625.21z"/>
		<path d="M860.72,625.21h-6.68c-0.92,0-1.67-0.75-1.67-1.67s0.75-1.67,1.67-1.67h6.68c0.92,0,1.67,0.75,1.67,1.67
			S861.64,625.21,860.72,625.21z M838.82,625.21h-6.68c-0.92,0-1.67-0.75-1.67-1.67s0.75-1.67,1.67-1.67h6.68
			c0.92,0,1.67,0.75,1.67,1.67S839.74,625.21,838.82,625.21z M816.92,625.21h-6.68c-0.92,0-1.67-0.75-1.67-1.67s0.75-1.67,1.67-1.67
			h6.68c0.92,0,1.67,0.75,1.67,1.67S817.84,625.21,816.92,625.21z M795.02,625.21h-6.68c-0.92,0-1.67-0.75-1.67-1.67
			s0.75-1.67,1.67-1.67h6.68c0.92,0,1.67,0.75,1.67,1.67S795.95,625.21,795.02,625.21z M773.14,625.21h-6.68
			c-0.92,0-1.67-0.75-1.67-1.67s0.75-1.67,1.67-1.67h6.68c0.92,0,1.67,0.75,1.67,1.67S774.06,625.21,773.14,625.21z M751.24,625.21
			h-6.68c-0.92,0-1.67-0.75-1.67-1.67s0.75-1.67,1.67-1.67h6.68c0.92,0,1.67,0.75,1.67,1.67S752.16,625.21,751.24,625.21z
			 M729.34,625.21h-6.68c-0.92,0-1.67-0.75-1.67-1.67s0.75-1.67,1.67-1.67h6.68c0.92,0,1.67,0.75,1.67,1.67
			S730.27,625.21,729.34,625.21z M707.44,625.21h-6.68c-0.92,0-1.67-0.75-1.67-1.67s0.75-1.67,1.67-1.67h6.68
			c0.92,0,1.67,0.75,1.67,1.67S708.37,625.21,707.44,625.21z M685.56,625.21h-6.68c-0.92,0-1.67-0.75-1.67-1.67s0.75-1.67,1.67-1.67
			h6.68c0.92,0,1.67,0.75,1.67,1.67S686.48,625.21,685.56,625.21z M663.66,625.21h-6.68c-0.92,0-1.67-0.75-1.67-1.67
			s0.75-1.67,1.67-1.67h6.68c0.92,0,1.67,0.75,1.67,1.67S664.59,625.21,663.66,625.21z M641.76,625.21h-6.68
			c-0.92,0-1.67-0.75-1.67-1.67s0.75-1.67,1.67-1.67h6.68c0.92,0,1.67,0.75,1.67,1.67S642.69,625.21,641.76,625.21z M619.86,625.21
			h-6.68c-0.92,0-1.67-0.75-1.67-1.67s0.75-1.67,1.67-1.67h6.68c0.92,0,1.67,0.75,1.67,1.67S620.79,625.21,619.86,625.21z
			 M597.98,625.21h-6.68c-0.92,0-1.67-0.75-1.67-1.67s0.75-1.67,1.67-1.67h6.68c0.92,0,1.67,0.75,1.67,1.67
			S598.9,625.21,597.98,625.21z M576.08,625.21h-6.68c-0.92,0-1.67-0.75-1.67-1.67s0.75-1.67,1.67-1.67h6.68
			c0.92,0,1.67,0.75,1.67,1.67S577.01,625.21,576.08,625.21z M554.18,625.21h-6.68c-0.92,0-1.67-0.75-1.67-1.67s0.75-1.67,1.67-1.67
			h6.68c0.92,0,1.67,0.75,1.67,1.67S555.11,625.21,554.18,625.21z M532.3,625.21h-6.68c-0.92,0-1.67-0.75-1.67-1.67
			s0.75-1.67,1.67-1.67h6.68c0.92,0,1.67,0.75,1.67,1.67S533.22,625.21,532.3,625.21z M510.4,625.21h-6.68
			c-0.92,0-1.67-0.75-1.67-1.67s0.75-1.67,1.67-1.67h6.68c0.92,0,1.67,0.75,1.67,1.67S511.33,625.21,510.4,625.21z"/>
		<path d="M879.3,625.21h-3.34c-0.92,0-1.67-0.75-1.67-1.67s0.75-1.67,1.67-1.67h3.34c0.92,0,1.67,0.75,1.67,1.67
			S880.22,625.21,879.3,625.21z"/>
	</g>
</g>
<g id="freepik--Symbol--inject-9">
	<path class="st8" d="M627.85,573.63v-0.32c0-15.03,10.31-27.51,25.52-27.51c15.22,0,25.22,12.44,25.22,27.21v0.3
		c0,14.92-10.16,27.53-25.52,27.53C638,600.84,627.85,588.38,627.85,573.63z M664.9,573.63v-0.32c0-8.6-4.91-15.67-11.83-15.67
		c-7.23,0-11.54,7.07-11.54,15.37v0.3c0,8.77,5.01,15.69,11.84,15.69C660.61,588.96,664.9,581.93,664.9,573.63z M645.54,645.45
		l70.56-96.4c1.12-1.79,3.12-2.84,5.23-2.76c3.33-0.06,6.08,2.58,6.15,5.91c0,0.03,0,0.06,0,0.08c-0.03,1.44-0.51,2.84-1.37,3.99
		l-70.64,96.37c-1.21,1.77-3.23,2.81-5.38,2.76c-3.26,0.06-5.94-2.54-6-5.79c0-0.07,0-0.13,0-0.2c0.05-1.45,0.56-2.85,1.45-3.99
		V645.45z M692.89,628.75v-0.32c0-15.03,10.29-27.51,25.51-27.51s25.22,12.44,25.22,27.21v0.3c0,14.92-10.31,27.53-25.52,27.53
		c-15.22,0-25.21-12.54-25.21-27.29V628.75z M729.94,628.75v-0.32c0-8.6-4.93-15.67-11.84-15.67c-7.23,0-11.53,7.07-11.53,15.37v0.3
		c0,8.77,4.91,15.69,11.83,15.69c7.22-0.03,11.54-7.15,11.54-15.45V628.75z"/>
</g>
<g id="freepik--Character--inject-9">
	<path class="st15" d="M936.56,487.43c-1.1-3.34-60.13-81.3-64.14-82.8c-0.45-0.2-26.84,18.57-26.84,18.57
		c-1.09,1.45-51.21-9.15-51.21-9.15l-0.5,60.49l91.34-1.94c0,0,12.33,7.25,23.62,13.16l0,0c4.8,2.7,9.76,5.1,14.85,7.2
		C928.26,494.13,937.76,490.74,936.56,487.43z"/>
	<path class="st11" d="M923.69,492.96c-5.1-2.08-10.06-4.49-14.85-7.2l0,0c-11.28-5.91-23.62-13.16-23.62-13.16l-20.33,0.43
		l-31.82-51.35c6.98,1.24,12.19,1.97,12.54,1.5c0,0,26.36-18.76,26.83-18.56c4.03,1.5,63.04,79.46,64.14,82.79
		S928.26,494.15,923.69,492.96z"/>
	<path class="st4" d="M937.09,487.53c-1.15-3.34-60.44-81.33-64.58-82.89c-1.55-0.58-14.47,7.38-26.94,18.56l38.29,50.11
		c0,0,35.31,18.71,40.09,19.91C928.72,494.43,938.26,490.94,937.09,487.53z"/>
	<path class="st8" d="M933.13,488.74c-10.26-12.83-50.43-65.5-59.58-78.94c-0.08-0.1,0-0.17,0.08,0
		c10.44,12.48,50.11,65.46,59.72,78.83C933.55,488.9,933.35,489.05,933.13,488.74z"/>
	<path class="st8" d="M917.26,490.41c-2.3-2.88-3.3-6.59-2.76-10.24c0.48-3.25,2.18-6.19,4.76-8.22c0.08,0,0.18,0.08,0.12,0.15
		c-4.62,4.96-5.42,12.37-1.95,18.19c0.03,0.05,0.02,0.11-0.03,0.14C917.36,490.46,917.3,490.45,917.26,490.41L917.26,490.41z"/>
	<path class="st8" d="M888.28,476.49c-4.06-5.18-6.82-12.64-5.01-19.14c0-0.25,0.42-0.15,0.47,0c1.08,6.39,2.83,12.66,5.25,18.68
		c0.13,0.19,0.08,0.46-0.12,0.58S888.41,476.69,888.28,476.49z"/>
	<path class="st8" d="M892.93,479.33c-4.06-5.18-6.82-12.64-5.01-19.14c0-0.25,0.42-0.15,0.47,0c1.08,6.39,2.83,12.66,5.25,18.68
		c0.13,0.19,0.08,0.46-0.12,0.58S893.06,479.53,892.93,479.33z"/>
	<path class="st8" d="M897.57,482.17c-4.06-5.18-6.82-12.65-5.01-19.14c0-0.25,0.42-0.15,0.47,0c1.08,6.39,2.83,12.66,5.25,18.68
		c0.13,0.19,0.08,0.46-0.12,0.58S897.7,482.37,897.57,482.17z"/>
	<path class="st8" d="M902.21,485.01c-4.06-5.18-6.82-12.64-5.01-19.14c0-0.25,0.42-0.15,0.47,0c1.08,6.39,2.83,12.66,5.25,18.68
		c0.13,0.19,0.08,0.46-0.12,0.58C902.6,485.26,902.34,485.21,902.21,485.01z"/>
	<path class="st8" d="M863.68,422.61c-4.46-5.86,4.68-12.8,9.14-6.9S868.12,428.5,863.68,422.61z"/>
	<path class="st8" d="M885.98,486.52c1.49-5.6,0.52-11.69,0.25-17.32c0-0.58-0.67-0.79-1.14-0.62c-0.06-0.07-0.16-0.09-0.23-0.03
		c-0.01,0.01-0.02,0.02-0.03,0.03c-4.51,4.03-7.87,9.17-9.76,14.92c-1.04,3.34-0.65,8.35,3.56,9.32S885.11,489.77,885.98,486.52z
		 M881.82,490.04c-6.08,3.81-5.61-4.64-4.74-7.1c0.58-1.57,1.27-3.1,2.07-4.58c1.69-3.04,3.53-6,5.51-8.85
		c0,2.81,0.15,5.58,0.2,8.35C884.92,481.22,885.18,487.95,881.82,490.04z"/>
	<path class="st8" d="M867.37,452.51c-3.11,3.01-0.89,7.45,1.67,9.81c4.58,3.95,10.11,6.63,16.05,7.75c0.13,0,0.2,0,0.22-0.18
		c0.44-0.02,0.79-0.39,0.77-0.84c-0.01-0.12-0.04-0.24-0.1-0.35c-2.71-5.01-5.01-10.67-9.15-14.7
		C874.45,451.72,870.29,449.65,867.37,452.51z M880.36,462.03c1.39,2.42,2.66,4.91,4.14,7.28c-3.17-1.42-6.26-3.01-9.27-4.74
		c-1.44-0.86-2.83-1.81-4.14-2.86c-2-1.67-6.68-8.67,0.4-8.54c3.96,0.07,7.22,5.96,8.87,8.84L880.36,462.03z"/>
	<path class="st10" d="M791.58,395.51h-40.91c0,0-42.88-20.61-77.42-12.31c-39.59,9.52-44.65,59.27-15.03,76.84
		c37.5,22.28,204.37,17.97,204.37,17.97l-36.18-61.1c0,0-55.49-11.69-105.82-10.02l70.99,9.67V395.51z"/>
	<path class="st8" d="M828.82,420.82c-0.02-0.11-0.02-0.21,0-0.32c0.01-0.08,0.01-0.17,0-0.25l-0.15-0.6
		c-0.12-0.4-0.27-0.8-0.42-1.19s-0.33-0.79-0.52-1.17c-0.2-0.38-0.42-0.74-0.67-1.09c0,0,0,0-0.1,0l0,0h-0.08h-0.08
		c-6.11-1.14-47.57-7.07-53.74-7.77s-12.46-1.29-18.69-1.82c-12.44-1.07-24.93-1.52-37.42-1.34c-1.17,0-2.34,0-3.51,0.1
		c-0.25-0.08-0.52-0.12-0.77-0.18c-0.6-0.15-1.2-0.3-1.8-0.42c-1.12-0.22-2.26-0.37-3.34-0.55c-2.37-0.35-4.73-0.6-7.08-1.05
		c-0.06,0-0.12,0.05-0.12,0.12c0,0.06,0.05,0.12,0.12,0.12c2.36,0.52,4.68,1.2,7.05,1.67l2.04,0.43c-4.58,0.23-9.14,0.58-13.71,1
		c-0.13,0-0.15,0.23,0,0.23c6.21-0.37,12.48-0.42,18.71-0.32s12.36,0.25,18.52,0.6c12.49,0.72,24.97,1.84,37.4,3.14
		c6.98,0.72,49.26,6.9,56.28,7.18h0.08c0.05,0.17,0.11,0.33,0.18,0.48c0.2,0.38,0.38,0.75,0.6,1.14s0.4,0.7,0.62,1.05l0.35,0.5
		l0.17,0.25c0,0.08,0.17,0.18,0.18,0.27S828.9,420.95,828.82,420.82z"/>
	<path class="st8" d="M849.46,474.29c-2.22-3.56-4.13-7.38-6.18-11.06c-2.05-3.67-4.09-7.4-6.15-11.09
		c-4.11-7.37-18.84-32.14-20.3-33.86c-0.04-0.06-0.12-0.09-0.18-0.05c-0.06,0.04-0.09,0.12-0.05,0.18
		c0.68,1.92,9.89,18.37,11.99,21.98c4.24,7.32,8.69,14.48,13.08,21.72c1.25,2.07,2.54,4.09,3.81,6.15c1.27,2.05,2.62,4.08,3.79,6.18
		C849.35,474.54,849.55,474.42,849.46,474.29z"/>
	<path class="st8" d="M816.42,424.44c-3.69-0.89-7.47-1.47-11.18-2.17l-11.14-2.02c-7.47-1.39-14.95-2.72-22.43-3.98
		c-14.93-2.52-29.92-4.61-45-6.05c-8.5-0.82-17.04-1.35-25.56-1.99c-0.18,0-0.18,0.28,0,0.28c15.18,0.68,30.35,2.74,45.39,4.91
		s29.73,4.48,44.57,6.98c4.2,0.7,8.39,1.42,12.56,2.15c4.24,0.73,8.5,1.67,12.78,2.19C816.5,424.71,816.57,424.48,816.42,424.44z"/>
	<path class="st15" d="M858.83,686.38c-3.59-0.35-92.99-40.52-95.43-44.22c-0.94-1.4,4.16-14.75,10.76-30.72
		c1.44-3.46,2.92-7.02,4.48-10.61c10.02-23.39,21.06-47.96,21.06-47.96l59.88,26.73l-22.72,47.22l-5.01,10.36
		c0,0,27.36,30.7,29.6,35.08S862.42,686.75,858.83,686.38z"/>
	<path class="st11" d="M858.83,686.38c-3.59-0.35-92.99-40.52-95.43-44.22c-1.14-1.67,6.68-21.08,15.23-41.33l58.23,25.97
		l-5.01,10.36c0,0,27.36,30.7,29.6,35.08S862.42,686.75,858.83,686.38z"/>
	<path class="st4" d="M858.83,686.38c-3.59-0.35-92.99-40.52-95.43-44.22c-0.94-1.4,4.16-14.75,10.76-30.72l57.71,25.72
		c0,0,27.36,30.7,29.6,35.08S862.42,686.75,858.83,686.38z"/>
	<path class="st8" d="M859.15,682.24c-14.82-7.1-75.27-34.36-90.45-40.26c-0.12,0-0.17,0,0,0.1c14.55,7.37,75.17,34.13,90.4,40.41
		C859.37,682.62,859.47,682.39,859.15,682.24z"/>
	<path class="st8" d="M857.16,666.4c-3.33-1.6-7.18-1.74-10.61-0.37c-3.07,1.19-5.56,3.52-6.95,6.5c0,0.08,0.13,0.17,0.18,0
		c3.79-5.62,10.83-8.07,17.29-6.01C857.2,666.64,857.28,666.45,857.16,666.4z"/>
	<path class="st8" d="M837.02,641.28c-5.96-2.77-13.86-3.79-19.79-0.55c-0.23,0.12,0,0.45,0.17,0.43c6.48-0.4,12.99-0.1,19.41,0.9
		c0.23,0.01,0.43-0.17,0.44-0.4C837.24,641.51,837.16,641.35,837.02,641.28z"/>
	<path class="st8" d="M840.88,645.17c-5.96-2.79-13.86-3.79-19.79-0.57c-0.23,0.13,0,0.45,0.17,0.45c6.48-0.4,12.98-0.1,19.39,0.9
		c0.23,0.02,0.43-0.15,0.45-0.38C841.11,645.41,841.03,645.25,840.88,645.17z"/>
	<path class="st8" d="M844.67,649.1c-5.96-2.77-13.88-3.78-19.81-0.55c-0.22,0.12,0,0.45,0.18,0.43c6.48-0.38,12.98-0.08,19.39,0.9
		c0.23,0.02,0.43-0.15,0.45-0.38C844.9,649.34,844.82,649.17,844.67,649.1z"/>
	<path class="st8" d="M848.48,652.94c-5.96-2.77-13.86-3.79-19.79-0.55c-0.23,0.12,0,0.45,0.17,0.43c6.48-0.4,12.98-0.1,19.39,0.9
		c0.23,0.02,0.43-0.15,0.45-0.38C848.71,653.18,848.63,653.02,848.48,652.94z"/>
	<path class="st8" d="M778.9,629.47c-6.68-3.01-11.41,7.47-4.66,10.47S785.75,632.48,778.9,629.47z"/>
	<path class="st8" d="M850.7,628.18c-1.9-3.88-6.83-3.14-9.89-1.37c-5.17,3.15-9.43,7.59-12.34,12.9c-0.05,0.08-0.02,0.18,0.06,0.23
		c0.02,0.01,0.04,0.02,0.06,0.02c0,0.48,0.28,1.09,0.87,0.97c5.6-1.04,11.69-1.44,16.82-4.16
		C849.23,635.18,852.57,631.86,850.7,628.18z M837.54,637.62c-2.74,0.58-5.48,1.02-8.2,1.67c2.41-2.51,4.71-5.11,7.37-7.38
		c1.27-1.1,2.61-2.12,4.01-3.06c2.2-1.39,10.34-3.76,8,3.04C847.56,635.73,840.88,636.94,837.54,637.62z"/>
	<path class="st8" d="M812.56,635.23c4.86,3.16,10.92,4.09,16.42,5.6c0.57,0.15,0.95-0.4,0.94-0.89c0.1-0.02,0.16-0.12,0.14-0.22
		c0-0.01-0.01-0.02-0.01-0.03c-2.45-5.53-6.31-10.33-11.19-13.9c-2.89-2.04-7.73-3.19-10.02,0.52S809.74,633.39,812.56,635.23z
		 M810.49,630.22c-1.75-6.97,6.15-3.91,8.22-2.34c1.32,1.03,2.57,2.15,3.74,3.34c2.46,2.47,4.51,5.26,6.68,7.97
		c-2.66-0.9-5.36-1.59-8.05-2.39c-3.16-0.94-9.64-2.74-10.59-6.61V630.22z"/>
	<path class="st10" d="M779.99,595.34l67.35,30.45c0,0,80.18-153.84,82.25-200.93c1.79-40.09-26.13-55.56-116.31-29.63l-22.1,0.28
		v15.25c9.69,1.27,35.56,5.35,35.56,5.35c18.83,7.1,24.89,10.02,24.59,10.64C804.39,521.56,779.99,595.34,779.99,595.34z"/>
	<path class="st8" d="M862.37,409.84c-2.72,3.62-5.25,7.38-7.65,11.24c-14.62-6.27-30.08-10.34-45.89-12.09
		c-4.43-0.55-8.89-0.94-13.36-1.19c-0.18,0-0.17,0.27,0,0.28c15.89,1.09,31.59,4.08,46.77,8.89c4.19,1.29,8.35,2.79,12.44,4.26
		c-2.89,4.63-5.61,9.37-8.24,14.13c-4.88,8.92-9.28,18.1-13.18,27.49c-2.15,5.19-4.26,10.44-6.11,15.75c0,0.15,0.18,0.25,0.25,0.1
		c8.23-18.34,17.21-36.29,26.94-53.85c2.76-5.01,5.61-9.86,8.35-14.85C862.69,409.88,862.47,409.69,862.37,409.84z"/>
	<path class="st8" d="M848.81,609.52c-3.93-1.54-7.73-3.44-11.58-5.18l-11.58-5.19c-7.68-3.44-34.31-14.48-36.52-15.03
		c-0.15,0-0.22,0.18-0.1,0.27c1.67,1.12,18.88,8.75,22.77,10.42c7.77,3.34,15.62,6.4,23.39,9.57c2.24,0.9,4.49,1.75,6.68,2.64
		s4.53,1.67,6.68,2.67C848.86,609.79,848.94,609.57,848.81,609.52z"/>
	<path class="st8" d="M862.04,416.79c-5.31,10.02-9.84,20.66-14.45,31.09s-9.07,20.85-13.36,31.34
		c-8.63,20.91-16.68,42.07-24.15,63.48c-4.23,12.09-8.18,24.27-12.04,36.48c0,0.17,0.23,0.23,0.28,0
		c7.13-21.58,14.87-43,22.93-64.24c8.07-21.25,16.6-42.23,25.66-63.02c2.54-5.85,5.12-11.67,7.73-17.47
		c2.62-5.81,5.36-11.58,7.82-17.46c0.05-0.12,0-0.25-0.12-0.3C862.23,416.62,862.09,416.68,862.04,416.79L862.04,416.79z"/>
	<path class="st15" d="M800.25,299.68c16.27,30.15,36.5,62.47,50.41,65.15c10.82,2.12,55.22-5.66,73.03-23.47
		c3.93-3.93-28.66-30.37-31.95-28.25c-9.69,6.25-35.33,11.46-36.75,10.21c-1.94-1.67-24.42-23.09-39.99-36.75
		C794.1,268.33,791.83,284.1,800.25,299.68z"/>
	<path class="st15" d="M934.79,338.07c-6.58,6.26-25.06,13.8-30.2,13.91s-19.03-30.85-16.52-35.53s26.31-24.02,35.51-24.82
		C932.78,290.83,941.6,331.57,934.79,338.07z"/>
	<path class="st15" d="M891.54,312.44c3.06-6.67,5.12-13.76,6.13-21.03c0.9-8.7,1.24-21.72,5.93-21.43
		c9.65,0.62,8.8,33.11,8.8,33.11s-2.67,14.28-12.29,14.52C896.51,317.64,893.2,315.64,891.54,312.44z"/>
	<path class="st15" d="M909.61,295.7c1.15,4.66,5.01,3.47,5.01,3.47l26.38-4.63c0,0,18.93-8.77,17.21-14
		c-2.97-9.02-42.41,9.1-46.15,10.12C910.04,291.44,908.97,293.65,909.61,295.7z"/>
	<path class="st1" d="M925.9,289.96c0,0,1.8-9.52,2.71-11.69c0.9-2.17,24.19-32.24,34.39-41.46c2.52-2.26,3.78-3.19,5.01-2.92
		c0,0-30.8,42.9-33.96,47.06c-1.82,2.39-3.71,9.77-3.71,9.77L925.9,289.96z"/>
	<path class="st9" d="M901.55,278.7L901.55,278.7c-3.56,0.43-12.26,0.37-15.23,2.64c-3.18,2.2-4.59,6.18-3.51,9.89
		c0.11,0.39,0.26,0.77,0.45,1.14c0.75,1.43,1.91,2.59,3.34,3.34l0.68,0.33c1.31,0.62,2.71,1.02,4.14,1.19
		c1.39,0.13,2.72,0.18,3.94,0.33c0.78,0.09,1.54,0.28,2.27,0.57l1.99-0.99c0.68-2.02,1.73-3.9,3.09-5.55
		c2.76-2.82,12.04-6.13,15.47-7.52c0.44-0.15,0.87-0.35,1.27-0.6c0.08-0.14,0.12-0.31,0.1-0.47v-0.15c0.01-0.07,0.01-0.13,0-0.2l0,0
		c0-0.15,0-0.32,0-0.48v-0.22c-0.1-0.53-0.25-1.12-0.42-1.67v-0.2c-0.17-0.58-0.37-1.15-0.53-1.57s-0.23-0.5-0.3-0.63l0,0l0,0
		C917.6,277.33,905.1,278.27,901.55,278.7z M900.64,284.08c0.45,0.46,0.76,1.04,0.9,1.67c0.33,1.67-1.17,4.83-6.77,7.02l-0.37,0.13
		l-0.38,0.13h-0.23l-0.4,0.12l-0.73,0.17h-0.47c-0.48,0.05-0.97,0.05-1.45,0h-0.23l-0.62-0.12h-0.27l0,0h-0.13l0,0h-0.12l0,0
		l-0.2-0.08l-0.33-0.15l-0.23-0.12l0,0l-0.2-0.12l0,0l-0.2-0.13l-0.2-0.15l0,0l-0.15-0.13c-0.3-0.26-0.56-0.56-0.79-0.89l0,0
		c-0.15-0.23-0.28-0.47-0.4-0.72c-0.26-0.68-0.37-1.41-0.33-2.14c0.08-1.79,1.07-3.42,2.62-4.33c1.22-0.73,2.59-1.19,4.01-1.35
		C897.37,282.09,899.59,282.94,900.64,284.08z"/>
	<path class="st7" d="M900.64,284.08c1.68,1.31,2.28,3.58,1.47,5.55c-1.24,3.71-8.35,6.18-12.85,5.01c-2.14-0.5-3.58-2.52-3.34-4.71
		c0.01-0.48,0.07-0.96,0.18-1.42c-0.04,0.73,0.07,1.46,0.33,2.14c0.12,0.25,0.25,0.49,0.4,0.72l0,0c0.22,0.33,0.49,0.62,0.79,0.89
		l0.15,0.13l0,0l0.2,0.15l0.2,0.13l0,0l0.2,0.12l0,0l0.23,0.12l0.33,0.15l0.2,0.08l0,0h0.12l0,0h0.13l0,0h0.27l0.62,0.12h0.23
		c0.48,0.05,0.97,0.05,1.45,0h0.47l0.73-0.17l0.4-0.12h0.23l0.38-0.13l0.37-0.13c5.6-2.19,7.1-5.41,6.77-7.02
		C901.24,285.1,901,284.55,900.64,284.08z"/>
	<path class="st7" d="M918.02,277.68c0.42,0.35,1.95,5.16,1.44,5.73c-0.4,0.25-0.83,0.45-1.27,0.6c-0.1-1.52-0.86-2.92-2.09-3.83
		c-1.82-1.67-14.23-1.49-14.55-1.49C905.1,278.27,917.6,277.33,918.02,277.68z"/>
	<path class="st9" d="M925.9,289.96L925.9,289.96c-0.58,0-1,0-1.1,0c-0.87,1.05-6.31,7.97-8.35,10.89c-0.53,0.73-1.34,1.77-2.2,2.97
		l0,0c-2.59,3.56-5.98,8.57-6.16,11.81c-0.25,4.36,2.64,6.83,7.07,6.01c6.08-1.14,10.84-10.81,12.76-15.64
		c1.3-3.73,2.24-7.58,2.82-11.49c0.26-1.17,0.38-2.37,0.35-3.57c-0.27-0.13-0.56-0.23-0.85-0.28
		C928.8,290.34,927.35,290.11,925.9,289.96z M925.52,299.31c1.05,0.68,1.67,1.39,0.79,4.39c-1.37,3.96-3.43,7.66-6.08,10.91
		l-1.3,1.67c-0.19,0.27-0.41,0.52-0.63,0.75c-2.37,2.52-5.8,3.34-7,0.4c-1.47-3.47,6.8-14.72,8.79-16.7s4.23-2.27,5.45-1.47V299.31z
		"/>
	<path class="st7" d="M931.08,290.96c0.03,1.2-0.09,2.4-0.35,3.57c-0.33-1.95-3.07-2.74-4.84-2.2c-2.04,0.6-11.34,11.18-11.69,11.51
		c0.87-1.2,1.67-2.24,2.2-2.97c2.12-2.92,7.55-9.84,8.35-10.89C925.16,289.54,930.68,290.69,931.08,290.96z"/>
	<path class="st2" d="M980.99,251.22c0,0,0.45,1.1-1.42,2.62c-1.87,1.52-24.66,15.37-38.52,22.88l-0.8,0.42l-1.3,0.7l-1.37,0.72
		c-1.09,0.55-1.95,1-2.86,1.37l0,0c-2.43,0.93-4.98,1.52-7.57,1.75c-0.87,0.12-1.84,0.25-2.94,0.37l0,0
		c-1.35,0.17-2.91,0.35-4.68,0.53l-1.14-4.19l3.73-0.62c1.2-0.22,2.54-0.45,3.69-0.7c1-0.17,1.98-0.42,2.94-0.75
		c0.23-0.13,1.99-0.97,4.71-2.27l4.33-2.09l1.2-0.57l0.65-0.32L980.99,251.22z"/>
	<path class="st1" d="M932.41,276.59c0.63,0.15,1.02,0.78,0.87,1.4c0,0,0,0.01,0,0.01c-0.15,0.63-0.78,1.02-1.41,0.88
		s-1.02-0.78-0.88-1.41C931.14,276.84,931.78,276.45,932.41,276.59z"/>
	<path class="st0" d="M932.33,276.95c0.46,0.1,0.75,0.56,0.65,1.02c-0.1,0.46-0.56,0.75-1.02,0.65l0,0
		c-0.45-0.1-0.73-0.54-0.63-0.99c0.08-0.46,0.53-0.77,0.99-0.69C932.32,276.94,932.33,276.94,932.33,276.95z"/>
	<path class="st15" d="M914.54,299.18c0,0-8.5,3.83-7.97,9.12s7.98,3.42,8.52,3.34c-0.45,0.22-8.18,3.93-7.08,9.19
		s8.35,2.51,8.77,2.32c-0.35,0.32-5.01,4.74-3.34,8.55c3.01,6.53,15.38-4.43,21.18-3.83c0,0,0.1,9.94,0.17,10.22
		c0,0,11.99-10.19,12.36-18.06c0.15-2.35-1.36-4.48-3.62-5.13c0,0,4.23-2.86,3.49-7.03c-0.38-2.14-4.14-3.42-4.14-3.42
		c1.9-1.43,2.83-3.81,2.41-6.15c-0.48-2.1-2.22-3.68-4.36-3.96C932.36,292.46,914.54,299.18,914.54,299.18z"/>
	<path class="st8" d="M940.35,294.33c0.1,0,0.1-0.13,0-0.15c-9.03-1.03-18.15,0.72-26.16,5.01c-0.25,0.13-0.85,1.34-0.57,1.19
		C920.91,296.86,931.08,294.79,940.35,294.33z"/>
	<path class="st8" d="M942.99,304.34c0.1,0,0.1-0.17,0-0.17c-9.96-1.03-19.96,1.53-28.2,7.23c-0.28,0.22-0.32,0.68,0,0.47
		C920.55,308.33,934.65,304.72,942.99,304.34z"/>
	<path class="st8" d="M916.36,323.73c8.1-5.5,17.14-7.85,26.73-8.92c0.13,0,0.1-0.2,0-0.22c-4.86-0.75-10.94,0.57-15.58,2
		c-4.33,1.25-8.26,3.61-11.39,6.85C916.04,323.58,916.18,323.85,916.36,323.73z"/>
	<path class="st8" d="M914.37,299.11c-0.3,0.17,0.7,0.57,0.4,0.75c-3.19,1.99-8.72,5.83-7.7,8.8c0.84,2.37,4.61,2.89,6.13,2.54
		l3.84-0.92l-3.34,2.19c-1.47,0.96-2.77,2.16-3.86,3.54c-1.08,1.24-1.59,2.88-1.39,4.51c0.22,1.53,1.46,2.72,3.01,2.86
		c1.69,0.1,3.38-0.24,4.91-0.97l4.28-1.89l-3.34,3.17c-0.95,0.87-1.79,1.87-2.49,2.96c-0.7,1.01-1.09,2.21-1.12,3.44
		c0.02,1.12,0.67,2.13,1.67,2.62c1.2,0.34,2.47,0.34,3.67,0c2.63-0.68,5.2-1.58,7.68-2.67c1.27-0.5,2.54-1.02,3.84-1.47
		c1.28-0.53,2.66-0.78,4.04-0.73c-1.36,0.1-2.69,0.47-3.91,1.09c-1.25,0.55-2.47,1.15-3.69,1.67c-2.45,1.3-5.02,2.35-7.67,3.16
		c-1.43,0.47-2.96,0.51-4.41,0.12c-1.56-0.63-2.61-2.11-2.67-3.79c-0.01-1.52,0.44-3.01,1.27-4.28c0.76-1.23,1.67-2.35,2.72-3.34
		l0.87,1.29c-1.79,0.9-3.78,1.31-5.78,1.2c-1.11-0.09-2.15-0.57-2.94-1.35c-0.76-0.78-1.27-1.78-1.44-2.86
		c-0.26-2.07,0.38-4.15,1.75-5.71c1.22-1.5,2.67-2.79,4.31-3.83l0.55,1.29c-1.97,0.4-6.23,0.27-7.98-3.26
		C904,304.37,912.7,299.83,914.37,299.11z"/>
	<path class="st9" d="M887.05,314.43l19.51,45.32c0,0-44.58,11.41-58.71,5.71c-14.13-5.7-39.22-43.83-49.51-68.49
		c-10.52-25.21,5.5-21.72,16.27-11.34c10.77,10.37,39.89,36.38,40.86,36.63C856.43,322.51,887.05,314.43,887.05,314.43z"/>
	<path class="st3" d="M807.3,314.13c-0.26-0.63-0.76-1.13-1.39-1.4l1.54,2.82C807.54,315.07,807.49,314.58,807.3,314.13z
		 M829.18,304.99c-0.51-1.37-2.02-2.07-3.39-1.56c-1.37,0.51-2.07,2.02-1.56,3.39c0.51,1.37,2.02,2.07,3.39,1.56
		c0.04-0.02,0.08-0.03,0.12-0.05C829.04,307.78,829.67,306.31,829.18,304.99z M827.43,307.66c-0.92,0.38-1.98-0.05-2.36-0.98
		c-0.38-0.92,0.05-1.98,0.98-2.36s1.98,0.05,2.36,0.98C828.79,306.22,828.35,307.28,827.43,307.66z M811.39,293.08
		c-0.57-1.34-2.11-1.98-3.46-1.42c-1.34,0.56-1.98,2.11-1.41,3.45c0.56,1.34,2.11,1.98,3.45,1.41
		C811.32,295.97,811.95,294.42,811.39,293.08z M809.64,295.77c-0.91,0.36-1.94-0.08-2.32-0.99c-0.38-0.92,0.06-1.98,0.99-2.36
		c0.92-0.38,1.98,0.06,2.36,0.99c0.39,0.93-0.05,1.99-0.98,2.38c-0.01,0-0.01,0.01-0.02,0.01L809.64,295.77z M843.05,338.23
		c-0.55-1.34-2.08-1.98-3.42-1.43c-1.34,0.55-1.98,2.08-1.43,3.42c0.55,1.34,2.08,1.98,3.42,1.43c1.31-0.56,1.93-2.07,1.39-3.39
		L843.05,338.23z M841.38,340.91c-0.92,0.38-1.98-0.05-2.36-0.98s0.05-1.98,0.98-2.36l0,0c0.91-0.39,1.96,0.04,2.34,0.94
		c0,0.01,0.01,0.02,0.01,0.02c0.38,0.92-0.05,1.98-0.97,2.36c-0.04,0.02-0.08,0.03-0.12,0.04L841.38,340.91z M865,329.21
		c-0.51-1.37-2.03-2.06-3.39-1.55c-1.37,0.51-2.06,2.03-1.55,3.39c0.51,1.37,2.03,2.06,3.39,1.55c0.04-0.02,0.09-0.03,0.13-0.05
		c1.26-0.6,1.84-2.08,1.3-3.37L865,329.21z M863.33,331.87c-0.92,0.39-1.98-0.04-2.36-0.96c-0.39-0.92,0.04-1.98,0.96-2.36
		c0.92-0.39,1.98,0.04,2.36,0.96c0,0.01,0.01,0.02,0.01,0.03c0.33,0.94-0.17,1.97-1.11,2.3c-0.01,0-0.02,0.01-0.02,0.01
		L863.33,331.87z M886.95,320.18c-0.55-1.34-2.08-1.98-3.42-1.43s-1.98,2.08-1.43,3.42c0.55,1.34,2.08,1.98,3.42,1.43
		c1.33-0.6,1.91-2.17,1.31-3.5c-0.01-0.03-0.02-0.05-0.04-0.08L886.95,320.18z M885.19,322.85c-0.92,0.39-1.98-0.04-2.36-0.96
		c-0.39-0.92,0.04-1.98,0.96-2.36c0.92-0.39,1.98,0.04,2.36,0.96c0,0.01,0.01,0.02,0.01,0.03c0.3,0.93-0.21,1.93-1.14,2.24
		L885.19,322.85z M825.39,326.46c-0.54-1.35-2.08-2.01-3.43-1.46c-1.35,0.54-2.01,2.08-1.46,3.43c0.54,1.35,2.08,2.01,3.43,1.46
		c0.01,0,0.02-0.01,0.02-0.01c1.32-0.6,1.9-2.16,1.29-3.48c-0.01-0.02-0.01-0.03-0.02-0.05L825.39,326.46z M823.64,329.13
		c-0.91,0.38-1.96-0.06-2.33-0.97s0.06-1.96,0.97-2.33c0.91-0.38,1.95,0.06,2.33,0.97c0.31,0.93-0.2,1.93-1.13,2.24
		c0,0-0.01,0-0.01,0L823.64,329.13z M847.29,317.44c-0.56-1.35-2.11-1.99-3.46-1.44c-1.35,0.56-1.98,2.11-1.42,3.45
		s2.11,1.98,3.45,1.42C847.2,320.31,847.84,318.78,847.29,317.44z M845.54,320.11c-0.92,0.36-1.96-0.07-2.36-0.97
		c-0.38-0.92,0.06-1.98,0.98-2.35c0,0,0,0,0,0c0.9-0.38,1.94,0.03,2.32,0.93c0.01,0.01,0.01,0.02,0.01,0.04
		c0.3,0.94-0.2,1.95-1.14,2.27L845.54,320.11z M878.86,362.59c-0.55-1.34-2.09-1.98-3.43-1.43c-1.34,0.55-1.98,2.09-1.43,3.43
		c0.27,0.65,0.79,1.16,1.45,1.4l0,0l2.57-0.37c0.96-0.77,1.24-2.12,0.67-3.21L878.86,362.59z M877.19,365.24
		c-0.92,0.38-1.98-0.06-2.36-0.99c-0.38-0.92,0.06-1.98,0.99-2.36l0,0c0.92-0.38,1.98,0.06,2.36,0.99
		C878.55,363.81,878.11,364.87,877.19,365.24L877.19,365.24z M900.83,353.55c-0.51-1.37-2.02-2.07-3.39-1.56
		c-1.37,0.51-2.07,2.02-1.56,3.39c0.51,1.37,2.02,2.07,3.39,1.56c0.04-0.02,0.08-0.03,0.12-0.05c1.31-0.63,1.86-2.21,1.23-3.52
		c-0.01-0.02-0.02-0.03-0.02-0.05L900.83,353.55z M899.07,356.22c-0.92,0.39-1.98-0.05-2.36-0.97c-0.39-0.92,0.05-1.98,0.97-2.36
		c0.92-0.39,1.98,0.05,2.36,0.97c0,0,0,0,0,0.01c0.2,0.91-0.32,1.83-1.2,2.12L899.07,356.22z M860.92,350.51
		c-0.55-1.34-2.08-1.98-3.42-1.43c-1.34,0.55-1.98,2.08-1.43,3.42c0.55,1.34,2.08,1.98,3.42,1.43
		C860.83,353.39,861.47,351.86,860.92,350.51C860.92,350.51,860.92,350.51,860.92,350.51z M859.25,353.18
		c-0.92,0.37-1.96-0.06-2.36-0.97c-0.38-0.92,0.05-1.98,0.98-2.36c0.92-0.38,1.98,0.05,2.36,0.98
		C860.6,351.75,860.16,352.79,859.25,353.18z M882.87,341.49c-0.52-1.35-2.03-2.03-3.39-1.51s-2.03,2.03-1.51,3.39
		c0.52,1.35,2.03,2.03,3.39,1.51c0.04-0.01,0.07-0.03,0.11-0.05c1.3-0.59,1.89-2.1,1.34-3.41L882.87,341.49z M881.2,344.15
		c-0.91,0.4-1.98-0.01-2.38-0.92c-0.4-0.91,0.01-1.98,0.92-2.38c0.91-0.4,1.98,0.01,2.38,0.92c0.01,0.01,0.01,0.03,0.02,0.04
		c0.33,0.92-0.14,1.93-1.05,2.27L881.2,344.15z"/>
	<path class="st8" d="M885.98,338.5c-1.27-3.11-2.56-6.23-3.86-9.32c-1.3-3.09-2.49-6.28-4.01-9.27c0-0.13-0.3,0-0.27,0
		c0.92,3.11,2.19,6.15,3.34,9.17c1.15,3.02,2.44,6.43,3.67,9.64c2.46,6.35,5.16,12.58,7.97,18.78c0,0.15,0.27,0,0.22-0.1
		C890.75,351.1,888.45,344.76,885.98,338.5z"/>
	<path class="st7" d="M798.33,296.99c10.29,24.62,35.4,62.77,49.51,68.49c4.49,1.4,9.21,1.92,13.9,1.54l-59.45-88.87
		C795.77,276.59,791.65,280.97,798.33,296.99z"/>
	<path class="st9" d="M733.4,395.08c0.2,0.28,96.52,2.32,97.49,1.4c1.37-1.3-7.55-91.87-21.5-114.32
		c-3.49-5.61-19.89-9.77-27.24-2.15C753.71,309.44,732.68,394.09,733.4,395.08z"/>
	<path class="st3" d="M817.16,368.68c-0.54-1.35-2.08-2.01-3.43-1.46c-1.35,0.54-2.01,2.08-1.46,3.43c0.54,1.35,2.08,2.01,3.43,1.46
		c0.01,0,0.02-0.01,0.02-0.01C817.06,371.55,817.7,370.03,817.16,368.68z M815.4,371.36c-0.92,0.38-1.97-0.05-2.36-0.97
		c-0.37-0.92,0.07-1.97,0.99-2.36c0.92-0.37,1.96,0.07,2.34,0.99C816.75,369.93,816.32,370.98,815.4,371.36
		C815.41,371.36,815.4,371.36,815.4,371.36L815.4,371.36z M795.26,377.79c-0.51-1.37-2.02-2.07-3.39-1.56
		c-1.37,0.51-2.07,2.02-1.56,3.39c0.51,1.37,2.02,2.07,3.39,1.56c0.04-0.02,0.08-0.03,0.12-0.05
		C795.11,380.58,795.74,379.11,795.26,377.79L795.26,377.79z M793.5,380.46c-0.92,0.39-1.98-0.05-2.36-0.97
		c-0.39-0.92,0.05-1.98,0.97-2.36c0.92-0.39,1.98,0.05,2.36,0.97c0,0,0,0,0,0.01c0.39,0.9-0.02,1.94-0.91,2.33
		C793.54,380.45,793.52,380.45,793.5,380.46L793.5,380.46z M773.37,386.84c-0.51-1.37-2.02-2.07-3.39-1.56
		c-1.37,0.51-2.07,2.02-1.56,3.39c0.51,1.37,2.02,2.07,3.39,1.56c0.04-0.02,0.08-0.03,0.12-0.05
		C773.24,389.64,773.87,388.16,773.37,386.84z M771.7,389.51c-0.92,0.38-1.98-0.05-2.36-0.98c-0.38-0.92,0.05-1.98,0.98-2.36l0,0
		c0.92-0.38,1.98,0.05,2.36,0.98C773.06,388.07,772.63,389.13,771.7,389.51z M748.12,394.53c-0.48,0.19-0.89,0.53-1.17,0.97h1.1
		c0.12-0.09,0.25-0.16,0.38-0.22c0.6-0.24,1.28-0.14,1.79,0.27h1.14c-0.69-1.12-2.11-1.55-3.31-1L748.12,394.53z M830.09,380.74
		c-0.24,0.59-0.24,1.26,0,1.85c0.03,0.1,0.08,0.19,0.15,0.27c-0.08-0.67-0.15-1.37-0.22-2.1L830.09,380.74z M813.1,389.66
		c-0.56-1.34-2.09-1.97-3.43-1.41s-1.97,2.09-1.41,3.43c0.55,1.33,2.07,1.96,3.4,1.42c1.31-0.58,1.92-2.1,1.37-3.42L813.1,389.66z
		 M811.43,392.35c-0.92,0.37-1.97-0.07-2.36-0.99c-0.38-0.92,0.06-1.98,0.99-2.36c0.92-0.38,1.98,0.06,2.36,0.99
		c0.35,0.95-0.13,2.01-1.09,2.36c-0.01,0-0.02,0.01-0.03,0.01L811.43,392.35z M823.12,329.13c-0.98,0.07-1.84-0.67-1.91-1.65
		c-0.05-0.76,0.38-1.47,1.08-1.77h0.18l-0.15-0.82c-0.12,0.02-0.24,0.05-0.35,0.1c-1.33,0.57-1.96,2.1-1.4,3.44
		c0.45,1.06,1.54,1.7,2.69,1.57c-0.23-0.32-0.28-0.58-0.33-0.85L823.12,329.13z M803.54,335.43c-0.54-1.35-2.08-2.01-3.43-1.46
		c-1.35,0.54-2.01,2.08-1.46,3.43c0.54,1.35,2.08,2.01,3.43,1.46c0.01,0,0.02-0.01,0.02-0.01c1.26-0.62,1.8-2.12,1.24-3.41
		L803.54,335.43z M801.87,338.1c-0.91,0.38-1.96-0.06-2.33-0.97s0.06-1.96,0.97-2.33c0.91-0.38,1.95,0.06,2.33,0.97
		c0.34,0.93-0.13,1.95-1.05,2.3c-0.06,0.02-0.12,0.04-0.18,0.06L801.87,338.1z M781.71,344.53c-0.51-1.36-2.02-2.04-3.38-1.53
		s-2.04,2.02-1.53,3.38c0.51,1.36,2.02,2.04,3.38,1.53c0.03-0.01,0.06-0.02,0.09-0.04c1.19-0.64,1.69-2.08,1.17-3.32L781.71,344.53z
		 M779.96,347.2c-0.92,0.38-1.98-0.06-2.35-0.99c-0.38-0.92,0.06-1.98,0.99-2.35c0.92-0.38,1.97,0.06,2.35,0.98
		c0.34,0.94-0.14,1.97-1.07,2.32c-0.06,0.02-0.12,0.04-0.18,0.06L779.96,347.2z M759.91,353.62c-0.51-1.37-2.02-2.07-3.39-1.56
		c-1.37,0.51-2.07,2.02-1.56,3.39c0.51,1.37,2.02,2.07,3.39,1.56c0.04-0.02,0.08-0.03,0.12-0.05c1.16-0.67,1.63-2.1,1.1-3.32
		L759.91,353.62z M758.16,356.29c-0.92,0.38-1.98-0.05-2.36-0.98c-0.38-0.92,0.05-1.98,0.98-2.36c0.92-0.38,1.98,0.05,2.36,0.98
		C759.52,354.85,759.08,355.91,758.16,356.29z M821.43,347.35c-0.52-1.35-2.03-2.03-3.39-1.51s-2.03,2.03-1.51,3.39
		c0.52,1.35,2.03,2.03,3.39,1.51c0.04-0.01,0.07-0.03,0.11-0.05c1.15-0.68,1.61-2.11,1.07-3.32L821.43,347.35z M819.76,350.01
		c-0.92,0.38-1.97-0.05-2.36-0.97c-0.39-0.92,0.05-1.98,0.97-2.36s1.98,0.05,2.36,0.97S820.69,349.62,819.76,350.01
		C819.77,350.01,819.76,350.01,819.76,350.01z M799.62,356.44c-0.55-1.34-2.08-1.98-3.42-1.43c-1.34,0.55-1.98,2.08-1.43,3.42
		c0.55,1.34,2.08,1.98,3.42,1.43c1.17-0.7,1.63-2.17,1.05-3.41L799.62,356.44z M797.86,359.11c-0.92,0.37-1.97-0.07-2.36-0.99
		c-0.38-0.92,0.06-1.98,0.99-2.36c0.92-0.38,1.98,0.06,2.36,0.99l0,0c0.32,0.95-0.19,1.99-1.15,2.31c-0.08,0.03-0.17,0.05-0.26,0.07
		L797.86,359.11z M777.4,365.54c-0.55-1.35-2.09-2-3.44-1.45c-1.35,0.55-2,2.09-1.45,3.44c0.55,1.35,2.09,2,3.44,1.45
		c0.01,0,0.02-0.01,0.03-0.01C777.32,368.41,777.95,366.88,777.4,365.54z M775.73,368.22c-0.92,0.37-1.97-0.07-2.36-0.99
		c-0.38-0.92,0.06-1.98,0.99-2.36c0.92-0.38,1.98,0.06,2.36,0.99l0,0c0.35,0.95-0.15,2.01-1.1,2.35c0,0,0,0,0,0H775.73z
		 M755.57,374.63c-0.55-1.34-2.08-1.98-3.42-1.43c-1.34,0.55-1.98,2.08-1.43,3.42c0.55,1.34,2.08,1.98,3.42,1.43
		c1.3-0.59,1.88-2.11,1.32-3.42H755.57z M753.9,377.3c-0.92,0.39-1.98-0.04-2.36-0.96c-0.39-0.92,0.04-1.98,0.96-2.36
		s1.98,0.04,2.36,0.96c0,0.01,0.01,0.02,0.01,0.03c0.35,0.92-0.12,1.95-1.04,2.3c-0.04,0.01-0.07,0.03-0.11,0.04L753.9,377.3z
		 M811.59,293.12c-0.57-1.34-2.11-1.97-3.46-1.42c-1.34,0.56-1.98,2.11-1.41,3.45c0.56,1.34,2.11,1.98,3.45,1.41
		C811.52,296,812.15,294.46,811.59,293.12z M809.84,295.8c-0.91,0.36-1.94-0.08-2.32-0.99c-0.38-0.92,0.06-1.98,0.99-2.36
		c0.92-0.38,1.98,0.06,2.36,0.99l0,0c0.34,0.95-0.16,1.99-1.11,2.32c-0.03,0.01-0.06,0.02-0.09,0.03H809.84z M789.79,302.2
		c-0.57-1.34-2.11-1.97-3.46-1.42c-1.34,0.56-1.98,2.11-1.41,3.45c0.56,1.34,2.11,1.98,3.45,1.41
		C789.72,305.09,790.35,303.55,789.79,302.2z M788.12,304.89c-0.92,0.37-1.97-0.07-2.36-0.99c-0.38-0.92,0.06-1.98,0.99-2.36
		c0.92-0.38,1.98,0.06,2.36,0.99c0.32,0.95-0.19,1.99-1.15,2.31c-0.06,0.02-0.12,0.04-0.17,0.05L788.12,304.89z M767.98,311.31
		c-0.54-1.35-2.08-2.01-3.43-1.46c-1.35,0.54-2.01,2.08-1.46,3.43c0.54,1.35,2.08,2.01,3.43,1.46c0.01,0,0.02-0.01,0.02-0.01
		c1.21-0.68,1.69-2.17,1.1-3.42L767.98,311.31z M766.23,313.98c-0.92,0.38-1.98-0.05-2.36-0.98s0.05-1.98,0.98-2.36
		c0.92-0.38,1.98,0.05,2.36,0.98C767.59,312.54,767.15,313.6,766.23,313.98L766.23,313.98z M807.63,314.13
		c-0.51-1.35-2.03-2.04-3.38-1.52s-2.04,2.03-1.52,3.38c0.51,1.35,2.03,2.04,3.38,1.52c0.03-0.01,0.07-0.03,0.1-0.04
		c1.16-0.67,1.63-2.11,1.09-3.34L807.63,314.13z M805.96,316.79c-0.92,0.38-1.97-0.05-2.36-0.97c-0.39-0.91,0.04-1.96,0.94-2.34
		c0.01,0,0.02-0.01,0.02-0.01c0.92-0.38,1.98,0.05,2.36,0.98s-0.05,1.98-0.98,2.36L805.96,316.79z M785.8,323.22
		c-0.55-1.34-2.08-1.98-3.42-1.43c-1.34,0.55-1.98,2.08-1.43,3.42c0.55,1.34,2.08,1.98,3.42,1.43c1.19-0.69,1.65-2.18,1.05-3.42
		L785.8,323.22z M784.05,325.89c-0.92,0.38-1.98-0.06-2.35-0.99c-0.38-0.92,0.06-1.98,0.99-2.35c0.92-0.38,1.97,0.06,2.35,0.98
		c0.32,0.95-0.2,1.98-1.16,2.3c-0.07,0.02-0.14,0.04-0.21,0.06L784.05,325.89z M763.9,332.3c-0.56-1.34-2.09-1.97-3.43-1.41
		c-1.34,0.56-1.97,2.09-1.41,3.43c0.56,1.34,2.09,1.97,3.43,1.41c0,0,0.01,0,0.01,0c1.18-0.7,1.63-2.19,1.02-3.42L763.9,332.3z
		 M762.23,334.98c-0.92,0.36-1.96-0.07-2.36-0.97c-0.39-0.92,0.05-1.98,0.97-2.36c0.92-0.39,1.98,0.05,2.36,0.97
		C763.59,333.53,763.16,334.59,762.23,334.98C762.24,334.97,762.24,334.97,762.23,334.98z M793.97,280.89
		c-0.52-1.35-2.03-2.03-3.39-1.51s-2.03,2.03-1.51,3.39c0.52,1.35,2.03,2.03,3.39,1.51c0.04-0.01,0.07-0.03,0.11-0.05
		c1.1-0.72,1.5-2.15,0.92-3.34L793.97,280.89z M792.3,283.54c-0.92,0.38-1.97-0.05-2.36-0.97c-0.39-0.91,0.04-1.96,0.94-2.34
		c0.01,0,0.02-0.01,0.02-0.01c0.92-0.38,1.98,0.05,2.36,0.98s-0.05,1.98-0.98,2.36l0,0L792.3,283.54z"/>
	<path class="st15" d="M791.88,293.88c-26.18,21.13-64.88,36.16-75.15,33.63c-13.83-3.34-39.3-25.44-51.47-38.1
		c-3.57-3.71,25.92-30.94,29.75-26.98c4.61,4.79,28.13,30.07,28.73,30.32c1.25,0.7,51.68-11.39,60.82-13.65
		C799.48,275.43,803.84,284.25,791.88,293.88z"/>
	<path class="st15" d="M647.98,269.5c3.56,7.8,17.07,20.93,21.55,22.83s27.55-20.31,27.01-25.27c-0.53-4.96-14.53-30.32-22.35-34.28
		C666.37,228.82,644.3,261.41,647.98,269.5z"/>
	<polygon class="st9" points="558.01,319.74 633.03,365.73 668.92,282.61 615.81,250.04 	"/>
	<polygon class="st9" points="615.81,250.04 577.29,331.55 558.01,319.74 	"/>
	<polygon class="st7" points="615.81,250.04 577.29,331.55 558.01,319.74 	"/>
	<path class="st8" d="M650.73,278.72l2.66,0.94c0,0,2.61-7.33,5.13-14.7c2.34-7.31-1.38-15.18-8.52-18.01
		c-4.73-1.95-11.58-1.52-15.25,6.11c-3.94,8.15-5.58,12.13-5.66,12.29l2.61,1.07c0,0,1.67-4.08,5.58-12.14
		c2.84-5.86,7.88-6.3,11.69-4.74c5.76,2.27,8.78,8.61,6.92,14.52C653.34,271.4,650.77,278.63,650.73,278.72z"/>
	<path class="st11" d="M576.63,330.35c-0.87-2.04-1.85-4.03-2.84-6.01s-2.02-3.93-3.09-5.86l-0.15-0.27h-0.28
		c-1.85,0.18-3.71,0.35-5.56,0.6c-1.85,0.25-3.69,0.48-5.53,0.82c1.87,0,3.74,0,5.6-0.15c1.85-0.15,3.71-0.2,5.56-0.35l-0.43-0.23
		c1.04,1.95,2.12,3.88,3.22,5.8C574.23,326.61,575.4,328.51,576.63,330.35z"/>
	<path class="st11" d="M570.27,318.69c3.34-4.68,6.55-9.4,9.77-14.13c3.22-4.73,6.36-9.5,9.55-14.27c3.19-4.76,6.3-9.57,9.39-14.38
		l4.63-7.25c1.5-2.42,3.06-4.84,4.54-7.28c-1.67,2.32-3.34,4.69-4.93,7.03l-4.84,7.1c-3.22,4.73-6.38,9.5-9.57,14.27
		c-3.19,4.76-6.28,9.57-9.37,14.38C576.35,308.97,573.29,313.81,570.27,318.69z"/>
	<path class="st8" d="M648.88,277.23c-1.08,1.76-0.53,4.07,1.24,5.15c1.76,1.08,4.07,0.53,5.15-1.24c1.08-1.76,0.53-4.07-1.24-5.15
		c0,0,0,0,0,0C652.26,274.91,649.96,275.47,648.88,277.23z"/>
	<path class="st8" d="M627.45,264.08c-1.09,1.76-0.54,4.06,1.22,5.15c1.76,1.09,4.06,0.54,5.15-1.22c1.09-1.76,0.54-4.06-1.22-5.15
		c0,0,0,0-0.01,0C630.83,261.79,628.54,262.34,627.45,264.08z"/>
	<path class="st15" d="M684.98,241.27c-0.53,4.53-5.55,1.32-5.55,1.32s6.11,6.35,3.76,10.79c-2.36,4.44-8.18,0.18-8.62-0.1
		c0.32,0.33,5.78,6.33,2.96,10.54c-2.82,4.21-8.17-0.73-8.5-1.07c0.2,0.42,2.77,5.95-0.08,8.67c-5.01,4.68-11.91-9.29-17.21-10.82
		c0,0-3.59,8.67-3.76,8.9s-6.9-13.16-4.44-20.18c0.7-2.12,2.79-3.46,5.01-3.22c0,0-2.71-3.99-0.58-7.38
		c1.09-1.67,4.83-1.54,4.83-1.54c-1.16-1.9-1.16-4.29,0-6.2c1.67-2.32,5.14-1.75,5.14-1.75s-0.47-4.06,1.97-5.9
		C664.87,219.63,686.11,231.61,684.98,241.27z"/>
	<path class="st8" d="M658.53,229.22c0,0,0-0.15,0-0.12c8.26,2.29,15.63,7.04,21.13,13.61c0.18,0.22-0.1,0.58-0.33,0.38
		C673.11,237.49,666.1,232.81,658.53,229.22z"/>
	<path class="st8" d="M652.7,237.07c-0.1,0,0-0.18,0-0.17c9.11,2.61,17,8.39,22.22,16.3c0.17,0.28,0,0.7-0.18,0.4
		C670.96,248.42,659.87,240.33,652.7,237.07z"/>
	<path class="st8" d="M669.17,263.45c-5.14-7.68-12.24-12.93-20.31-17.27c-0.1,0,0-0.2,0-0.18c4.53,1.05,9.39,4.36,12.95,7.25
		c3.35,2.63,5.96,6.08,7.57,10.02C669.51,263.42,669.29,263.6,669.17,263.45z"/>
	<path class="st8" d="M679.43,242.59c1.06,1.32,1.99,2.75,2.79,4.24c0.84,1.42,1.28,3.03,1.29,4.68c-0.04,0.76-0.36,1.47-0.9,2
		c-0.55,0.53-1.22,0.91-1.95,1.12c-1.52,0.27-3.07-0.11-4.29-1.05l-3.04-2.15l2.1,3.07c0.95,1.36,1.66,2.87,2.12,4.46
		c0.52,1.47,0.39,3.08-0.37,4.44c-0.72,1.28-2.24,1.89-3.64,1.44c-1.52-0.5-2.88-1.39-3.96-2.57l-3.09-3.17l1.87,3.99
		c0.53,1.1,0.91,2.27,1.14,3.47c0.25,1.11,0.16,2.27-0.23,3.34c-0.43,0.97-1.36,1.62-2.42,1.67c-1.17-0.11-2.29-0.55-3.22-1.27
		c-2.04-1.52-3.96-3.2-5.75-5.01c-0.94-0.9-1.87-1.8-2.86-2.66c-0.95-0.92-2.09-1.63-3.34-2.07c1.16,0.57,2.19,1.37,3.04,2.34
		c0.9,0.92,1.67,1.87,2.62,2.84c1.69,2,3.57,3.83,5.6,5.48c1.08,0.92,2.41,1.5,3.83,1.67c1.58,0.01,3.03-0.91,3.67-2.36
		c0.55-1.33,0.68-2.8,0.38-4.21c-0.22-1.34-0.62-2.65-1.19-3.89l-1.22,0.82c1.26,1.41,2.86,2.48,4.64,3.09
		c1,0.31,2.08,0.26,3.06-0.13c0.94-0.42,1.73-1.12,2.26-2c0.96-1.72,1.13-3.77,0.47-5.63c-0.53-1.74-1.34-3.38-2.41-4.86l-0.94,0.94
		c1.56,1.11,3.52,1.48,5.38,1.02c0.9-0.3,1.71-0.81,2.36-1.5c0.65-0.72,1.01-1.64,1.04-2.61c-0.08-1.79-0.66-3.53-1.67-5.01
		C681.68,245.11,680.62,243.79,679.43,242.59z"/>
	<path class="st15" d="M694.92,262.31c0,0-0.82-36.38-14.88-29.08c-4.18,2.15-18.76,16.04-16.02,19.03
		c3.52,3.84,10.69-0.82,14.72-4.44c0,0-1.45,12.41,6.88,16C688.75,265.1,692.34,264.52,694.92,262.31z"/>
	<path class="st8" d="M681.24,232.7c-1.74,0.65-3.37,1.56-4.84,2.69c-1.51,1.09-2.94,2.28-4.29,3.56c-2.73,2.53-5.24,5.29-7.5,8.25
		c-0.6,0.79-1.09,1.66-1.44,2.59c-0.21,0.53-0.29,1.1-0.23,1.67c0.01,0.31,0.09,0.62,0.22,0.9c0.13,0.28,0.31,0.54,0.52,0.77
		c0.77,0.81,1.8,1.32,2.91,1.44c1.02,0.1,2.04,0.01,3.02-0.27c1.86-0.53,3.61-1.37,5.18-2.49c1.55-1.06,3.02-2.24,4.39-3.52
		l-1.07-0.57c-0.13,1.42-0.13,2.85,0,4.28c0.15,1.41,0.44,2.79,0.85,4.14c0.44,1.35,1.07,2.63,1.89,3.79
		c0.8,1.15,1.81,2.14,2.97,2.91c-1.04-0.9-1.92-1.97-2.61-3.16c-0.66-1.18-1.15-2.45-1.47-3.76c-0.33-1.31-0.52-2.66-0.58-4.01
		c-0.07-1.34-0.01-2.68,0.17-4.01l0.25-1.67l-1.32,1.07c-1.36,1.18-2.81,2.26-4.33,3.24c-1.45,1-3.05,1.75-4.74,2.24
		c-1.5,0.55-3.17,0.28-4.43-0.7c-0.9-0.87,0-2.66,1-4.08c1.04-1.49,2.16-2.92,3.34-4.29c1.19-1.4,2.37-2.79,3.64-4.11
		C675.2,236.87,678.06,234.55,681.24,232.7z"/>
	<path class="st9" d="M704.34,266.57l-39.59,29.45c0,0,32.84,32.22,47.92,34.36c15.08,2.14,55.93-18.27,77.16-34.44
		c21.72-16.54,6.11-21.51-8.35-17.97c-14.47,3.54-52.75,11.51-53.72,11.23C726.79,288.91,704.34,266.57,704.34,266.57z"/>
	<path class="st3" d="M764.19,309.89c-1.24,0.52-1.88,1.89-1.49,3.17l0.75-0.4l0,0c-0.2-0.97,0.41-1.91,1.38-2.12
		c0.57-0.12,1.17,0.05,1.59,0.45l0.75-0.43C766.43,309.71,765.22,309.44,764.19,309.89z M745.96,321.35c0-0.33-0.07-0.65-0.2-0.95
		c-0.56-1.35-2.1-1.99-3.45-1.43c-1.35,0.56-1.99,2.1-1.43,3.45c0.14,0.33,0.34,0.63,0.6,0.87l0.87-0.37
		c-0.31-0.19-0.55-0.48-0.68-0.82c-0.39-0.91,0.04-1.96,0.94-2.34c0.01,0,0.02-0.01,0.03-0.01c0.91-0.38,1.96,0.06,2.33,0.97
		c0.13,0.32,0.17,0.68,0.1,1.02L745.96,321.35z M720.44,328.03c-0.91,0.35-1.56,1.18-1.67,2.15c0.29-0.02,0.58-0.06,0.87-0.12
		c0.13-0.57,0.53-1.05,1.07-1.27c0.79-0.32,1.69-0.04,2.15,0.67l0.85-0.2c-0.62-1.18-2.04-1.7-3.27-1.2V328.03z M731.25,288.59
		c-0.24,0.96-1.22,1.53-2.17,1.29c-0.44-0.11-0.82-0.39-1.07-0.77c-0.09,0.02-0.19,0.02-0.28,0c-0.29-0.19-0.56-0.4-0.82-0.63
		c0.02,0.23,0.08,0.45,0.17,0.67c0.57,1.33,2.11,1.95,3.44,1.39c0,0,0,0,0,0c0.91-0.33,1.56-1.14,1.67-2.1L731.25,288.59z
		 M710.05,296.22c-0.52-1.35-2.03-2.03-3.39-1.51c-1.35,0.52-2.03,2.03-1.51,3.39c0.52,1.35,2.03,2.03,3.39,1.51
		c0.04-0.01,0.07-0.03,0.11-0.05c1.27-0.56,1.88-2.01,1.4-3.31V296.22z M708.38,298.88c-0.91,0.4-1.98-0.02-2.37-0.94
		s0.02-1.98,0.94-2.37c0.91-0.4,1.98,0.02,2.37,0.94c0,0.01,0.01,0.02,0.01,0.03c0.39,0.91-0.03,1.96-0.94,2.35
		c-0.02,0.01-0.04,0.02-0.06,0.03L708.38,298.88z M688.2,305.31c-0.52-1.35-2.03-2.03-3.39-1.51s-2.03,2.03-1.51,3.39
		c0.52,1.35,2.03,2.03,3.39,1.51c0.04-0.01,0.07-0.03,0.11-0.05c1.25-0.58,1.84-2.02,1.35-3.31L688.2,305.31z M686.53,307.98
		c-0.92,0.36-1.96-0.07-2.36-0.97c-0.38-0.92,0.05-1.97,0.97-2.36c0.91-0.39,1.96,0.04,2.34,0.94c0,0.01,0.01,0.02,0.01,0.02
		c0.37,0.93-0.08,1.99-1.01,2.37c-0.02,0.01-0.04,0.01-0.06,0.02L686.53,307.98z M793.59,280.85c-0.52-1.35-2.03-2.03-3.39-1.51
		c-1.35,0.52-2.03,2.03-1.51,3.39c0.52,1.35,2.03,2.03,3.39,1.51c0.04-0.01,0.07-0.03,0.11-0.05c1.23-0.6,1.8-2.03,1.3-3.31
		L793.59,280.85z M791.92,283.51c-0.92,0.38-1.97-0.05-2.36-0.97c-0.39-0.91,0.04-1.96,0.94-2.34c0.01,0,0.02-0.01,0.03-0.01
		c0.92-0.38,1.98,0.05,2.36,0.98c0.38,0.92-0.05,1.98-0.98,2.36L791.92,283.51z M771.62,289.96c-0.55-1.34-2.09-1.98-3.43-1.43
		c-1.34,0.55-1.98,2.09-1.43,3.43c0.55,1.34,2.09,1.97,3.42,1.42C771.51,292.82,772.15,291.3,771.62,289.96z M769.87,292.63
		c-0.92,0.37-1.96-0.06-2.36-0.97c-0.38-0.92,0.05-1.97,0.97-2.36c0.91-0.39,1.96,0.04,2.34,0.94c0,0.01,0.01,0.02,0.01,0.03
		c0.38,0.92-0.05,1.98-0.97,2.37L769.87,292.63z M749.71,299.05c-0.56-1.34-2.09-1.97-3.43-1.41c-1.34,0.56-1.97,2.09-1.41,3.43
		c0.56,1.34,2.09,1.97,3.43,1.41c0,0,0.01,0,0.01,0c1.31-0.57,1.94-2.08,1.4-3.41V299.05z M748.03,301.72
		c-0.91,0.37-1.95-0.06-2.34-0.97c-0.38-0.92,0.05-1.98,0.98-2.36c0.92-0.38,1.98,0.05,2.36,0.98l0,0
		C749.41,300.29,748.97,301.34,748.03,301.72c-0.01,0-0.03,0.01-0.05,0.02L748.03,301.72z M727.89,308.13
		c-0.54-1.35-2.08-2.01-3.43-1.46c-1.35,0.54-2.01,2.08-1.46,3.43c0.54,1.35,2.08,2.01,3.43,1.46c0.01,0,0.02-0.01,0.02-0.01
		c1.31-0.57,1.93-2.08,1.39-3.41L727.89,308.13z M726.14,310.8c-0.91,0.38-1.96-0.05-2.34-0.96c0,0,0,0,0,0
		c-0.38-0.91,0.06-1.96,0.97-2.33c0.91-0.38,1.96,0.06,2.33,0.97C727.48,309.38,727.05,310.43,726.14,310.8z M705.99,317.24
		c-0.51-1.37-2.03-2.06-3.39-1.55c-1.37,0.51-2.06,2.03-1.55,3.39c0.51,1.37,2.03,2.06,3.39,1.55c0.04-0.02,0.09-0.03,0.13-0.05
		c1.26-0.57,1.86-2.03,1.37-3.32L705.99,317.24z M704.32,319.89c-0.91,0.38-1.96-0.06-2.33-0.97s0.06-1.96,0.97-2.33
		c0.91-0.38,1.95,0.06,2.33,0.97c0.36,0.93-0.09,1.97-1.02,2.34c-0.02,0.01-0.03,0.01-0.05,0.02L704.32,319.89z M713.41,275.39
		c0.28,0.88-0.16,1.83-1.02,2.19c-0.92,0.37-1.97-0.07-2.36-0.99c-0.38-0.91,0.05-1.96,0.96-2.34c0,0,0,0,0,0
		c0.36-0.16,0.77-0.19,1.15-0.08l-0.87-0.87c-0.21,0.03-0.41,0.09-0.6,0.17c-1.34,0.55-1.98,2.09-1.43,3.43
		c0.55,1.34,2.09,1.98,3.43,1.43c0.88-0.35,1.51-1.13,1.67-2.05l0,0L713.41,275.39z M692.21,284.01c-0.56-1.34-2.09-1.97-3.43-1.41
		c-1.34,0.56-1.97,2.09-1.41,3.43c0.56,1.34,2.09,1.97,3.43,1.41c0,0,0.01,0,0.01,0C692.14,286.88,692.76,285.34,692.21,284.01z
		 M690.54,286.68c-0.92,0.37-1.97-0.07-2.36-0.99c-0.38-0.92,0.06-1.98,0.99-2.36c0.92-0.38,1.98,0.06,2.36,0.99
		c0.31,0.94-0.19,1.96-1.12,2.29L690.54,286.68z M670.39,293.1c-0.12-0.3-0.31-0.57-0.53-0.8l-0.68,0.5
		c0.74,0.67,0.8,1.81,0.14,2.55c-0.67,0.74-1.81,0.8-2.55,0.14c-0.18-0.16-0.33-0.36-0.43-0.58l-0.65,0.5
		c0.66,1.29,2.24,1.8,3.53,1.14C670.47,295.91,670.99,294.38,670.39,293.1z"/>
	<path class="st8" d="M693.23,286.62l8.02-6.15c2.67-2.02,5.31-4.18,8.12-6c0.13-0.08,0.3,0,0.18,0.2
		c-2.36,2.22-5.01,4.21-7.48,6.26s-5.33,4.34-8.02,6.5c-5.3,4.26-10.76,8.35-16.29,12.26c-0.13,0.1-0.27-0.1-0.15-0.2
		C682.72,295.1,687.88,290.78,693.23,286.62z"/>
	<path class="st8" d="M775.73,307.68c-1.67,0.4-3.34,0.84-5.01,1.32l-0.9,0.3l1.97-1.2c2.35-1.31,4.63-2.75,6.83-4.31
		c0.1,0,0-0.22-0.12-0.18c-2.56,1.18-5.05,2.5-7.47,3.96c-3.78,2.01-7.44,4.24-10.96,6.68c-0.12,0.1,0,0.27,0.15,0.22
		c2.57-1.08,5.06-2.35,7.45-3.79l0.87-0.25c0.79-0.22,1.67-0.48,2.37-0.75c1.67-0.57,3.19-1.19,4.78-1.84
		C775.86,307.75,775.83,307.66,775.73,307.68z"/>
	<path class="st15" d="M804.24,296.37c-4.09,0.5-13.23-6.51-17.05-12.73c-0.25-0.43,0.18-5.09,0.43-10.77
		c0.15-3.44,0.23-7.28,0-10.79l22.3,4.21c-1.03,4.46-1.51,9.02-1.44,13.6c0.03,0.48,0.11,0.96,0.22,1.44c0,0,0,0.13,0,0.23
		C809.39,284.26,810.64,295.59,804.24,296.37z"/>
	<path class="st8" d="M808.75,281.32c-0.01,0.08-0.01,0.16,0,0.23c-0.75,0.14-1.51,0.22-2.27,0.23
		c-12.78,0.38-16.7-15.17-17.62-19.46l21.05,3.96c-1.03,4.46-1.51,9.02-1.44,13.6C808.53,280.37,808.63,280.85,808.75,281.32z"/>
	<path class="st15" d="M786,236.2c-2.62,7.73,0.79,30.45,6.2,35.65c7.83,7.55,21,8.67,27.51-0.84c6.3-9.19,1.32-38.7-4.76-43.43
		C806.03,220.52,789.88,224.81,786,236.2z"/>
	<path class="st8" d="M804.13,250c0,0-0.1,0.1,0,0.15c0.33,1.52,0.47,3.34-0.82,4.08c0,0,0,0.1,0,0
		C804.83,253.74,804.63,251.37,804.13,250z"/>
	<path class="st8" d="M802.46,248.68c-2.49,0.27-1.67,5.21,0.55,5.01S804.48,248.43,802.46,248.68z"/>
	<path class="st8" d="M812.61,248.43c0,0,0.13,0,0.13,0.12c0.18,1.54,0.65,3.26,2.12,3.56v0.1
		C813.13,252.22,812.48,249.87,812.61,248.43z"/>
	<path class="st8" d="M813.75,246.63c2.42-0.55,3.34,4.34,1.1,4.86S811.71,247.1,813.75,246.63z"/>
	<path class="st8" d="M800.12,246.71c0.62-0.29,1.22-0.61,1.8-0.97c0.69-0.25,1.27-0.71,1.67-1.32c0.18-0.45,0.03-0.97-0.37-1.25
		c-0.84-0.43-1.85-0.38-2.64,0.13c-0.88,0.39-1.57,1.09-1.95,1.97c-0.21,0.59,0.1,1.24,0.69,1.45
		C799.58,246.82,799.86,246.81,800.12,246.71z"/>
	<path class="st8" d="M815.37,241.7c-0.69-0.03-1.37-0.1-2.05-0.22c-0.72,0.03-1.44-0.19-2.02-0.62c-0.34-0.34-0.39-0.87-0.13-1.27
		c0.61-0.73,1.57-1.07,2.51-0.89c0.95,0.05,1.85,0.44,2.54,1.1c0.42,0.47,0.37,1.19-0.1,1.6C815.9,241.6,815.64,241.7,815.37,241.7z
		"/>
	<path class="st8" d="M804.8,264.52c0.42,0.3,0.87,0.73,1.42,0.7c0.57-0.09,1.11-0.31,1.59-0.63c0,0,0.1,0,0.08,0
		c-0.36,0.68-1.05,1.11-1.82,1.12c-0.66-0.08-1.21-0.54-1.4-1.17C804.66,264.53,804.73,264.47,804.8,264.52z"/>
	<path class="st8" d="M805.8,259.69c0.96,1.11,2.35,1.76,3.83,1.79c0.63,0.03,1.27-0.03,1.89-0.18c0.12-0.02,0.24-0.05,0.35-0.1
		l0.33-0.1c0.16-0.06,0.26-0.21,0.25-0.38l0,0c0,0,0-0.1,0-0.15l0,0v-0.13c-0.15-1.19-0.53-2.96-0.53-2.96
		c0.47,0.15,2.81,0.82,2.69,0.2c-0.94-5.29-2.41-10.46-4.39-15.45c0-0.17-0.32-0.08-0.27,0c0.84,4.89,2.52,9.6,3.44,14.52
		c-0.84-0.25-1.7-0.38-2.57-0.38c-0.17,0,0.8,3.34,0.82,3.96l0,0c-1.92,0.49-3.96,0.19-5.65-0.85
		C805.8,259.46,805.6,259.59,805.8,259.69z"/>
	<path class="st8" d="M810.64,260.79c-0.52,0.94-1.27,1.73-2.19,2.29c-0.51,0.29-1.09,0.42-1.67,0.37
		c-1.27-0.13-1.47-1.25-1.39-2.26c0.05-0.52,0.15-1.04,0.32-1.54C807.2,260.55,808.92,260.94,810.64,260.79z"/>
	<path class="st16" d="M808.45,263.08c-0.51,0.29-1.09,0.42-1.67,0.37c-1.27-0.13-1.47-1.25-1.39-2.26
		C806.73,261.05,807.99,261.83,808.45,263.08z"/>
	<path class="st8" d="M785,256.55c4.29-1.37,6-15.99,6-15.99s0.18,6.16,1.32,5.98c1.14-0.18,5.61-8.72,5.93-14.73
		c3.49,2.15,7.24,3.83,11.16,5.01c5.55,1.45,11.61,0.89,11.58,0c0-2.79-2.87-10.02-6.68-12.39c-5.76-4.02-13.23-4.65-19.59-1.67
		c-6.24,2.19-10.89,7.46-12.29,13.91C781.31,241.18,783.43,257.03,785,256.55z"/>
	<path class="st15" d="M790.26,254.75c0,0-5.01-7.35-8.35-5.56s0.38,12.41,4.26,13.9c1.98,0.92,4.34,0.07,5.26-1.92
		c0.02-0.05,0.05-0.1,0.07-0.15L790.26,254.75z"/>
	<path class="st8" d="M783.03,252.19c0,0,0,0.08,0,0.12c2.51,1.29,4.36,3.59,5.09,6.31c-0.56-1.06-1.87-1.47-2.93-0.91
		c-0.15,0.08-0.28,0.17-0.41,0.28v0.15c0.98-0.32,2.06,0.03,2.67,0.87c0.5,0.68,0.92,1.42,1.27,2.19c0.12,0.23,0.57,0.12,0.47-0.17
		l0,0C789.41,257.49,786.77,252.59,783.03,252.19z"/>
	<path class="st9" d="M810.07,221.47c-2.83-1.63-5.89-2.84-9.07-3.59c-3.56-0.77-15.03-0.89-17.94,1.15
		c-2.91,2.04-4.59,12.68-4.79,14.25s-0.35,11.09,2.87,13.68s5.01-13.48,10.87-18.37S810.07,221.47,810.07,221.47z"/>
	<path class="st7" d="M810.07,221.47c0,0-12.18,2.27-18.06,7.13c-5.88,4.86-7.63,20.93-10.87,18.37c-1.48-1.37-2.35-3.27-2.42-5.28
		c1.14-4.63,3.67-11.69,8.05-16.47c4.08-4.41,10.61-6.25,17.44-6.41C806.24,219.53,808.2,220.42,810.07,221.47z"/>
	<path class="st9" d="M781.24,256.63c0.68-4.26,6.06-15.37,11.21-21.53c5.14-6.16,18.94-8.84,20.81-8.57
		c4.54,0.67,5.18,3.06,5.93,2.71s-2.84-5.01-4.06-5.95s-4.51-2.99-6.5-3.12c-1.99-0.13-14.33,0-19.24,4.84s-12.48,18.89-11.69,22.73
		c0.2,0.92,1.34,1.67,1.67,2.91c0.35,1.67,0.53,3.69,0.94,4.91C780.71,256.78,781.18,257,781.24,256.63z"/>
	<path class="st8" d="M793.77,232.23c-1-0.73-1.92-1.54-2.77-2.44c-0.88-0.88-1.66-1.86-2.31-2.92c0,0-0.17,0-0.13,0
		c0.5,1.21,1.2,2.34,2.05,3.34c0.86,0.94,1.89,1.71,3.04,2.27C793.77,232.51,793.87,232.31,793.77,232.23z"/>
	<path class="st8" d="M781.58,252.34c-0.08-0.32-0.27-0.6-0.38-0.92c-0.15-0.35-0.26-0.72-0.32-1.1c-0.03-0.72-0.13-1.43-0.3-2.12
		c-0.24-0.54-0.53-1.05-0.89-1.52c-0.41-0.52-0.63-1.16-0.62-1.82c0-0.1-0.13-0.12-0.13,0c0.08,1.23,0.47,2.41,1.14,3.44
		c0.19,0.75,0.33,1.51,0.4,2.27c0.11,0.72,0.45,1.39,0.97,1.9C781.46,252.52,781.61,252.46,781.58,252.34z"/>
	<path class="st8" d="M783.46,247.85c-0.39-0.5-0.74-1.03-1.07-1.57c-0.3-0.54-0.57-1.09-0.79-1.67c-0.22-0.57-0.4-1.15-0.6-1.67
		s-0.58-1.34-0.8-2.02c0,0-0.17,0-0.13,0c0.22,0.7,0.32,1.45,0.52,2.19c0.19,0.62,0.41,1.23,0.67,1.82
		c0.24,0.58,0.54,1.14,0.89,1.67c0.32,0.54,0.75,1,1.27,1.35C783.41,247.95,783.5,247.88,783.46,247.85z"/>
	<path class="st8" d="M785.4,243.79c-0.84-0.84-1.55-1.79-2.1-2.84c-0.53-1.02-1.02-2.09-1.49-3.14c0,0-0.15,0-0.13,0
		c0.26,1.16,0.65,2.28,1.19,3.34c0.27,0.52,0.6,1,0.97,1.45c0.44,0.45,0.92,0.86,1.45,1.2C785.28,243.8,785.45,243.85,785.4,243.79z
		"/>
	<path class="st8" d="M787.42,239.85c-0.42-0.34-0.78-0.76-1.04-1.24c-0.32-0.52-0.63-1.04-0.94-1.57s-0.58-1.02-0.89-1.52
		c-0.32-0.51-0.53-1.08-0.62-1.67c0-0.08-0.15-0.08-0.15,0c0.01,0.57,0.13,1.14,0.35,1.67c0.21,0.61,0.49,1.2,0.82,1.75
		c0.32,0.58,0.67,1.14,1.07,1.67c0.31,0.48,0.77,0.85,1.3,1.07c0.06,0.01,0.1-0.04,0.11-0.09
		C787.45,239.89,787.44,239.87,787.42,239.85z"/>
	<path class="st8" d="M789.09,234.93c-0.37-0.42-0.73-0.85-1.05-1.3c-0.33-0.45-0.63-0.92-0.94-1.39s-0.63-0.99-0.92-1.49
		c0-0.08-0.17,0-0.13,0c0.18,0.57,0.39,1.13,0.65,1.67c0.28,0.51,0.58,1,0.92,1.47c0.33,0.47,0.69,0.91,1.07,1.34
		c0.36,0.45,0.8,0.82,1.3,1.1c0.08,0,0.18,0,0.13-0.13C789.83,235.75,789.48,235.32,789.09,234.93z"/>
	<path class="st8" d="M797.28,230.09c-0.38-0.57-0.75-1.12-1.19-1.67c-0.44-0.53-0.9-1.04-1.39-1.52c-0.95-0.95-2.01-1.81-3.14-2.54
		c0,0-0.15,0-0.1,0.1c1.89,1.92,3.84,3.76,5.7,5.7C797.23,230.24,797.33,230.16,797.28,230.09z"/>
	<path class="st8" d="M800.18,226.65c-0.39-0.56-0.83-1.07-1.34-1.52c-1.07-0.91-2.24-1.7-3.49-2.36c-0.08,0-0.15,0-0.08,0.1
		c1.05,0.85,2.1,1.67,3.11,2.56c0.5,0.44,0.97,0.91,1.42,1.4c0.45,0.48,0.77,1.07,1.19,1.57 M801.09,228.4
		c-0.18-0.64-0.48-1.24-0.9-1.75L801.09,228.4z"/>
	<path class="st8" d="M803.91,225.28c-0.35-0.54-0.76-1.04-1.22-1.5c-0.87-0.86-1.87-1.57-2.97-2.1c-0.08,0-0.13,0,0,0.12
		c0.99,0.72,1.91,1.52,2.76,2.41c0.43,0.43,0.84,0.9,1.24,1.35c0.4,0.45,0.75,1.02,1.2,1.42c0,0,0.08,0,0,0
		C804.63,226.37,804.3,225.81,803.91,225.28z"/>
	<path class="st8" d="M806.68,223.38c-0.42-0.42-0.87-0.8-1.3-1.19c-0.42-0.39-0.9-0.72-1.42-0.97c0,0-0.12,0.08,0,0.13
		c0.82,0.77,1.67,1.57,2.42,2.36c0.68,0.78,1.28,1.63,1.79,2.54 M808.25,226.25c-0.21-1.1-0.76-2.1-1.57-2.87L808.25,226.25z"/>
	<path class="st8" d="M809.96,222.96c-0.77-0.84-1.69-1.53-2.71-2.04c0,0-0.13,0,0,0.13c0.92,0.59,1.74,1.33,2.42,2.19
		c0.71,0.83,1.33,1.75,1.84,2.72h0.1C811.3,224.85,810.73,223.82,809.96,222.96z"/>
	<path class="st8" d="M814,225.25c-0.09-0.23-0.19-0.46-0.3-0.68c-0.25-0.44-0.53-0.86-0.85-1.25c-0.69-0.76-1.45-1.46-2.27-2.09
		c0,0-0.17,0-0.08,0.12c0.78,0.63,1.49,1.35,2.1,2.14c0.3,0.39,0.57,0.79,0.82,1.22c0.12,0.2,0.22,0.42,0.33,0.63
		c0.07,0.22,0.17,0.44,0.3,0.63 M814.17,225.96c0-0.25-0.06-0.49-0.17-0.72L814.17,225.96z"/>
	<path class="st8" d="M816.55,225.71c-0.2-0.36-0.43-0.71-0.68-1.04c-0.27-0.33-0.53-0.63-0.82-0.94l-0.9-0.9c0,0-0.18,0-0.1,0.1
		c0.3,0.3,0.57,0.62,0.82,0.97l0.73,0.97c0.23,0.33,0.48,0.65,0.72,0.97c0.22,0.35,0.46,0.68,0.72,1c0,0,0.12,0,0.1,0
		C817,226.45,816.8,226.06,816.55,225.71z"/>
</g>
</svg>
