<?xml version="1.0" encoding="utf-8"?>
<!-- Generator: Adobe Illustrator 23.1.0, SVG Export Plug-In . SVG Version: 6.00 Build 0)  -->
<svg version="1.1" id="Layer_1" xmlns="http://www.w3.org/2000/svg" xmlns:xlink="http://www.w3.org/1999/xlink" x="0px" y="0px"
	 viewBox="0 0 1366 768" style="enable-background:new 0 0 1366 768;" xml:space="preserve">
<style type="text/css">
	.st0{fill:#EBEBEB;}
	.st1{fill:#F5F5F5;}
	.st2{fill:#F0F0F0;}
	.st3{fill:#E0E0E0;}
	.st4{fill:#263238;}
	.st5{opacity:0.6;fill:#FFFFFF;enable-background:new    ;}
	.st6{fill:#407BFF;}
	.st7{opacity:0.2;}
	.st8{fill:#FFFFFF;}
	.st9{opacity:0.3;enable-background:new    ;}
	.st10{fill:#EBB376;}
	.st11{opacity:0.2;enable-background:new    ;}
	.st12{fill:#D58745;}
	.st13{fill:#DE5753;}
	.st14{opacity:0.2;fill:#FFFFFF;enable-background:new    ;}
	.st15{opacity:0.3;}
</style>
<g id="freepik--background-complete--inject-6">
	<rect x="181" y="667.36" class="st0" width="1004" height="0.5"/>
	<rect x="1017.89" y="699.67" class="st0" width="66.5" height="0.5"/>
	<rect x="828.64" y="705.13" class="st0" width="17.45" height="0.5"/>
	<rect x="977.35" y="681.04" class="st0" width="38.53" height="0.5"/>
	<rect x="286.34" y="684.41" class="st0" width="86.73" height="0.5"/>
	<rect x="390.96" y="684.41" class="st0" width="12.71" height="0.5"/>
	<rect x="444.99" y="692.89" class="st0" width="188.11" height="0.5"/>
	<path class="st0" d="M656.9,577.81H269.17c-6.32-0.01-11.45-5.14-11.45-11.47V21.31c0.06-6.29,5.16-11.35,11.45-11.37H656.9
		c6.33,0,11.47,5.13,11.47,11.47c0,0,0,0,0,0v544.93C668.36,572.67,663.23,577.81,656.9,577.81z M269.17,10.35
		c-6.05,0.01-10.94,4.92-10.94,10.96v545.03c0,6.05,4.9,10.95,10.94,10.96H656.9c6.05-0.01,10.95-4.91,10.96-10.96V21.31
		c-0.01-6.05-4.91-10.95-10.96-10.96H269.17z"/>
	<path class="st0" d="M1091.25,577.81H703.5c-6.33-0.01-11.45-5.14-11.47-11.47V21.31c0.07-6.29,5.18-11.35,11.47-11.37h387.74
		c6.28,0.02,11.37,5.09,11.43,11.37v545.03C1102.67,572.66,1097.56,577.79,1091.25,577.81z M703.5,10.35
		c-6.05,0.01-10.95,4.91-10.96,10.96v545.03c0.01,6.05,4.91,10.95,10.96,10.96h387.74c6.05-0.01,10.95-4.91,10.96-10.96V21.31
		c-0.01-6.05-4.91-10.95-10.96-10.96H703.5z"/>
	<rect x="798.34" y="162.99" class="st1" width="11.53" height="240.24"/>
	<rect x="749.95" y="101.61" class="st1" width="108.29" height="147.59"/>
	<polygon class="st0" points="567.2,413.55 598.46,271.33 710.01,290.96 683.64,435.72 	"/>
	<polygon class="st2" points="463.57,331.73 552.78,312.17 600.25,446.38 491.42,477.29 	"/>
	<polygon class="st1" points="632.96,438.73 645.51,330.52 768.94,337.73 764.52,450.96 	"/>
	<path class="st2" d="M368.35,659.89h-18.67V347.65h-16.06v312.24h-18.67c-3.68,0-6.67,2.98-6.67,6.67l0,0h66.75
		C375.01,662.88,372.03,659.89,368.35,659.89L368.35,659.89z"/>
	<path class="st3" d="M371.04,361.95c-7.77-17.99-6.99-38.53,2.13-55.88c7.55-14.36,14.58-29.28,13.03-32.43
		c-3.19-6.41-6.37-9.48-22.27-11.35c-10.4-1.22-12.39-7.29-12.53-11.35c-0.04-2.02,0.79-3.95,2.29-5.3
		c14.58-13.29,15.38-43.71-9.26-47.63v-0.42c-0.82,0-1.61,0-2.37,0h-0.8c-0.76,0-1.55,0-2.37,0v0.42
		c-24.64,4.02-23.83,34.34-9.26,47.63c1.47,1.35,2.29,3.27,2.25,5.26c-0.14,4.02-2.13,10.04-12.53,11.35
		c-15.9,1.87-19.08,4.94-22.27,11.35c-1.55,3.15,5.48,18.07,13.03,32.43c9.12,17.35,9.9,37.89,2.13,55.88
		c-8.68,19.59-13.82,40.56-15.18,61.95c-0.18,3.98,2.9,7.35,6.88,7.52c0.11,0,0.22,0.01,0.33,0.01h74.74c3.98,0,7.21-3.22,7.22-7.2
		c0-0.11,0-0.22-0.01-0.33C384.85,402.48,379.71,381.52,371.04,361.95z"/>
	<path class="st2" d="M1051.07,659.89h-18.67V347.65h-16.06v312.24h-18.67c-3.67,0-6.66,2.97-6.67,6.65h66.75
		C1057.72,662.87,1054.74,659.89,1051.07,659.89z"/>
	<path class="st3" d="M1053.76,361.95c-7.77-17.99-6.99-38.53,2.13-55.88c7.55-14.36,14.58-29.28,13.03-32.43
		c-3.19-6.41-6.37-9.48-22.27-11.35c-10.4-1.22-12.39-7.29-12.53-11.35c-0.04-2.02,0.79-3.95,2.29-5.3
		c14.58-13.29,15.38-43.71-9.26-47.63v-0.42c-0.82,0-1.61,0-2.37,0h-0.8c-0.76,0-1.55,0-2.37,0v0.42
		c-24.64,4.02-23.83,34.34-9.26,47.63c1.5,1.35,2.33,3.29,2.29,5.3c-0.14,4.02-2.13,10.04-12.53,11.35
		c-15.9,1.87-19.08,4.94-22.27,11.35c-1.55,3.15,5.48,18.07,13.03,32.43c9.12,17.35,9.9,37.89,2.13,55.88
		c-8.68,19.59-13.82,40.56-15.18,61.95c-0.18,3.98,2.9,7.35,6.88,7.52c0.11,0,0.22,0.01,0.33,0.01h74.74c3.98,0,7.21-3.22,7.22-7.2
		c0-0.11,0-0.22-0.01-0.33C1067.6,402.51,1062.45,381.53,1053.76,361.95z"/>
	<rect x="426" y="393.45" class="st3" width="462.18" height="152.63"/>
	<path class="st3" d="M839.02,659.89c-3.67,0-6.66,2.97-6.67,6.65h66.75c-0.01-3.67-2.99-6.65-6.67-6.65h-18.67V347.65H436.02
		v312.24h-18.67c-3.67,0-6.66,2.97-6.67,6.65h66.75c-0.01-3.67-2.99-6.65-6.67-6.65h-18.67V362.93H857.7v296.96H839.02z"/>
</g>
<g id="freepik--Shadow--inject-6">
	<ellipse id="freepik--path--inject-6" class="st1" cx="683" cy="735.32" rx="389.33" ry="22.73"/>
</g>
<g id="freepik--Board--inject-6">
	<polygon class="st4" points="933.6,738.45 968.14,472.89 974.32,472.89 980.75,472.89 981.11,472.89 985.28,472.89 988.18,472.89 
		1047.89,738.45 1041.37,738.45 987.53,502.65 1005.34,738.45 997.89,738.45 976.87,501.66 941.99,738.45 	"/>
	<polygon class="st5" points="933.6,738.45 968.14,472.89 974.32,472.89 980.75,472.89 981.11,472.89 985.28,472.89 988.18,472.89 
		1047.89,738.45 1041.37,738.45 987.53,502.65 1005.34,738.45 997.89,738.45 976.87,501.66 941.99,738.45 	"/>
	<polygon class="st6" points="869.6,692.46 1016.93,692.46 1051.15,385.52 903.8,385.52 	"/>
	<polygon class="st5" points="869.6,692.46 1016.93,692.46 1051.15,385.52 903.8,385.52 	"/>
	<polygon class="st5" points="921.01,466.12 921.01,434.9 933.6,448.67 966.81,405.76 986.09,448.67 1017.39,425.46 998.32,471.28 
		1017.39,488.49 986.09,498.07 995.04,535.56 961.97,520.26 941.13,555.4 928.42,524.82 907.23,534.52 914.64,504.9 899.82,496.54 
		913.58,488.49 905.1,471.28 	"/>
	<path class="st6" d="M931.79,467.65c1.45-6.37,6.12-9.56,10.94-8.45c4.82,1.1,7.43,5.76,6.02,11.85c-1.45,6.39-5.82,9.7-10.96,8.51
		C932.65,478.37,930.41,473.79,931.79,467.65z M936.21,468.65c-0.96,4.28,0.38,6.33,2.59,6.83c2.21,0.5,4.56-0.82,5.6-5.42
		c0.96-4.22-0.58-6.43-2.63-6.89C939.72,462.71,937.25,464.11,936.21,468.65z M937.15,499.62l-5.76-1.31l32.35-34.14l5.74,1.31
		L937.15,499.62z M953.48,492.63c1.45-6.37,6.12-9.56,10.94-8.45c4.82,1.1,7.43,5.76,6.02,11.85c-1.41,6.08-5.82,9.68-10.96,8.51
		C954.34,503.37,952.07,498.71,953.48,492.63z M957.92,493.63c-0.98,4.26,0.36,6.33,2.57,6.83c2.21,0.5,4.56-0.84,5.6-5.42
		c0.96-4.22-0.58-6.43-2.63-6.89S958.94,489.09,957.92,493.63z"/>
	<g class="st7">
		<path class="st8" d="M931.79,467.65c1.45-6.37,6.12-9.56,10.94-8.45c4.82,1.1,7.43,5.76,6.02,11.85
			c-1.45,6.39-5.82,9.7-10.96,8.51C932.65,478.37,930.41,473.79,931.79,467.65z M936.21,468.65c-0.96,4.28,0.38,6.33,2.59,6.83
			c2.21,0.5,4.56-0.82,5.6-5.42c0.96-4.22-0.58-6.43-2.63-6.89C939.72,462.71,937.25,464.11,936.21,468.65z M937.15,499.62
			l-5.76-1.31l32.35-34.14l5.74,1.31L937.15,499.62z M953.48,492.63c1.45-6.37,6.12-9.56,10.94-8.45c4.82,1.1,7.43,5.76,6.02,11.85
			c-1.41,6.08-5.82,9.68-10.96,8.51C954.34,503.37,952.07,498.71,953.48,492.63z M957.92,493.63c-0.98,4.26,0.36,6.33,2.57,6.83
			c2.21,0.5,4.56-0.84,5.6-5.42c0.96-4.22-0.58-6.43-2.63-6.89S958.94,489.09,957.92,493.63z"/>
	</g>
	<polygon class="st8" points="918.88,581.2 984,582.02 984,592.55 918.88,592.55 	"/>
	<polygon class="st8" points="899.82,605.66 1005.36,605.66 1005.36,619.27 895.04,618.85 	"/>
	<polygon class="st9" points="895.04,642.85 891.87,670.48 918.88,670.48 918.88,642.85 	"/>
	<polygon class="st9" points="935.89,642.85 933.6,670.48 961.97,670.48 961.99,646.98 	"/>
	<polygon class="st9" points="984,646.98 979.26,670.48 1000.2,670.48 1000.2,646.98 	"/>
</g>
<g id="freepik--Character--inject-6">
	<path class="st10" d="M534.21,296.23c18.57-3.33,15.2,62.85,22.47,78.47c7.27,15.62,52.75,55.84,52.75,55.84s19.74,1.65,22.87,3.27
		c3.13,1.63,3.49,13.21,0.92,13.21s-24.1,0.18-27.29-1.55c-3.19-1.73-4.86-8.51-4.86-8.51s-47.79-27.99-57.65-51.69
		c-8.23-19.76-15.94-53.91-18.07-66.02C523.22,307.15,529.51,297.09,534.21,296.23z"/>
	<path class="st6" d="M338.59,534.41c0,0,11.67-11.67,30.72,3.69c19.06,15.36,29.14,36.55,61.71,25.42s82.33,20.08,92.37-2.39
		c0,0-16.87-44.3-49.64-57.97C440.98,489.5,355.54,521.7,338.59,534.41z"/>
	<path class="st10" d="M446.86,468.21c-0.3,7.29-1.04,23.25-2.47,39.68c-1.87,21.95-4.92,44.74-9.56,48.89
		c-0.46,0.42-1,0.9-1.61,1.39c-2.27,1.87-5.5,4.34-9.5,7.27c-10.04,7.37-25,17.65-41.16,28.61l-6.79,4.64
		c-12.05,8.15-24.6,16.49-36.14,24.1c-4.52,3.01-8.9,6.02-13.05,8.65c-19.66,12.99-34.14,22.33-34.14,22.33l6.45,9.22
		c6.68-3.66,13.58-6.9,20.66-9.72l0,0c3.8-1.53,7.85-3.27,12.05-5.22c8.51-3.84,17.91-8.39,27.85-13.35
		c2.93-1.47,6.02-2.95,8.94-4.5c21.77-11.02,45.12-23.65,64.26-35.96c10.09-6.26,19.61-13.39,28.45-21.32
		c5.92-5.58,10.04-10.8,11.35-15.44c4.24-14.06,8.21-36.14,11.14-58.03c1.49-10.88,2.75-21.63,3.82-31.2L446.86,468.21z"/>
	<path class="st6" d="M295.78,648.49c1.45-0.28,4.28,17.51,4.28,17.51s-8.53,13.25-8.63,24.3c-0.1,11.04-7.71,6.59-10.34-5.12
		c-2.63-11.71-4.68-20.64-6.55-28.96C272.67,647.91,280.92,651.38,295.78,648.49z"/>
	<path class="st11" d="M490.77,433.63c0,0-2.71,32.35-7.25,65.74c-2.93,21.85-6.91,44.04-11.14,58.03
		c-1.39,4.64-5.42,9.86-11.35,15.44c-8.83,7.97-18.36,15.14-28.45,21.43c-3.39-9.84-6.43-20.08-8.86-28.77
		c4.02-2.93,7.23-5.4,9.5-7.27c0.6-0.48,1.14-0.96,1.61-1.39c4.64-4.16,7.69-26.95,9.56-48.89c2.01-22.33,2.63-43.81,2.63-43.81
		L490.77,433.63z"/>
	<path class="st4" d="M497.94,403.51l-61.44-10.04c1.89,0.3,13.82-26.1,16.55-35.54c3.75-12.99,6.69-37.85,4.12-53.93v-0.12
		c-0.97-6.58,3.58-12.71,10.16-13.68c0.22-0.03,0.44-0.06,0.66-0.08c4.9-0.38,9.8-0.56,14.74-0.58c9.75-0.12,19.5,0.46,29.18,1.73
		c12.45,2.01,26.51,5.72,26.51,5.72s2.01,0.82,1.04,14.2C538.54,323.74,533.83,364.7,497.94,403.51z"/>
	<path class="st10" d="M520.91,278.88c0,0-7.91,5.12-9.28,8.49c-0.09,0.21-0.15,0.44-0.2,0.66c-0.39,1.92-0.66,3.87-0.8,5.82
		c2.31,6.77-6.35,10.64-6.35,10.64c-15.42-4.64-19.04-12.15-19.04-12.15c12.69-4.98,15.12-29.3,15.12-29.3l6.14,4.74L520.91,278.88z
		"/>
	<path class="st10" d="M532.88,643.07l-16.16-36.02l-21.97-48.91l-3.9-8.51l-17.01-37.13l-20.22-44.18h-46.18
		c6.02,20.48,18.07,43.07,30.68,63.01c12.31,19.58,25.06,36.61,32.89,46.65c4.7,6.02,7.61,9.52,7.61,9.52
		c9.51,21.49,20.23,42.42,32.13,62.69c4.64,8.03,9.22,15.64,13.59,22.69c16.06,26.1,29,44.3,29,44.3l10.04-6.02L532.88,643.07z"/>
	<path class="st6" d="M546.7,711.96c-0.56-1.35,16.35-7.55,16.35-7.55s14.66,5.82,25.5,3.8c10.84-2.03,8.03,6.29-3.03,11.14
		l-27.17,12.05C550.47,734.83,552.48,725.98,546.7,711.96z"/>
	<path class="st6" d="M436.5,393.47c0,0-33.39,16.71-35.42,61.53c-1.2,24.82-62.49,79.42-62.49,79.42s2.53,9,19.8,9.52
		s49.58-18.53,72.29-13.23c22.71,5.3,20.66,13.77,38.67,10.04c18.01-3.73,36.53,0.96,54.02,20.38c0,0,7.89-64.26-25.78-112.01
		c0,0-2.65-12.67,0.3-45.56L436.5,393.47z"/>
	<path class="st5" d="M436.5,393.47c0,0-33.39,16.71-35.42,61.53c-1.2,24.82-62.49,79.42-62.49,79.42s2.53,9,19.8,9.52
		s49.58-18.53,72.29-13.23c22.71,5.3,20.66,13.77,38.67,10.04c18.01-3.73,36.53,0.96,54.02,20.38c0,0,7.89-64.26-25.78-112.01
		c0,0-2.65-12.67,0.3-45.56L436.5,393.47z"/>
	<polygon class="st6" points="437.98,390.14 497.94,403.57 497.12,414.38 431.02,396.93 	"/>
	<path class="st11" d="M479.97,403.23c0,2.22-1.8,4.02-4.02,4.02c-2.22,0-4.02-1.8-4.02-4.02s1.8-4.02,4.02-4.02
		C478.17,399.22,479.97,401.01,479.97,403.23z"/>
	<path class="st11" d="M520.91,278.88c0,0-7.91,5.12-9.28,8.49c-0.09,0.21-0.15,0.44-0.2,0.66c-6.81-5.23-10.58-13.51-10.04-22.09
		l5.14,1.75L520.91,278.88z"/>
	<path class="st4" d="M551.01,256.51c-0.14-0.01-0.27-0.06-0.36-0.16c-0.19-0.2-0.19-0.51,0-0.7c3.05-2.63,12.35-12.39,3.73-26.73
		c-7.45-12.43-23.03-8.25-23.19-8.21c-0.26,0.07-0.53-0.08-0.6-0.34c-0.07-0.26,0.08-0.53,0.34-0.6c0.16,0,16.45-4.44,24.3,8.65
		c9,15-0.72,25.2-3.92,27.97C551.23,256.46,551.12,256.5,551.01,256.51z"/>
	<path class="st4" d="M536.07,221.15c0,0,13.03,0.4,16.63,11.41s0.92,23.37-18.41,36.71c-19.34,13.33-35.74,0.52-43.35-8.41
		c-7.61-8.94-5.64-38.47,15.46-44.18C528.38,210.56,536.07,221.15,536.07,221.15z"/>
	<path class="st10" d="M523.65,224.8c16.57,2.25,20.68,11.85,19.58,29.1c-1.39,21.55-8.19,36.14-28.29,28.67
		C487.64,272.57,496.12,221.07,523.65,224.8z"/>
	<path class="st12" d="M532.64,251.53c0.99,2.65,2.29,5.18,3.88,7.53c-1.17,1.26-2.96,1.76-4.62,1.29L532.64,251.53z"/>
	<path class="st4" d="M522.68,248.9c-0.16,1.37-1.02,2.39-2.01,2.29s-1.53-1.31-1.37-2.67c0.16-1.37,1-2.39,2.01-2.29
		C522.32,246.33,522.82,247.43,522.68,248.9z"/>
	<path class="st4" d="M520.91,246.17l3.11-0.84C524.03,245.32,522.36,247.65,520.91,246.17z"/>
	<path class="st4" d="M539.69,250.42c-0.16,1.37-1.02,2.39-2.01,2.29c-0.98-0.1-1.53-1.31-1.37-2.67c0.16-1.37,1-2.39,1.91-2.29
		C539.13,247.85,539.83,249.06,539.69,250.42z"/>
	<path class="st4" d="M537.92,247.79l3.11-0.84C541.03,246.95,539.27,249.28,537.92,247.79z"/>
	<path class="st4" d="M516.54,239.56c-0.2,0.01-0.39-0.08-0.52-0.22c-0.27-0.28-0.27-0.72,0-1c2.31-1.83,5.35-2.46,8.19-1.69
		c0.38,0.1,0.6,0.49,0.5,0.86c-0.1,0.38-0.49,0.6-0.86,0.5l0,0c-2.38-0.6-4.9-0.1-6.87,1.37
		C516.86,239.49,516.7,239.55,516.54,239.56z"/>
	<path class="st4" d="M542.62,241.25c-0.17,0-0.33-0.07-0.46-0.18c-1.53-1.51-3.67-2.25-5.8-2.01c-0.38,0.08-0.76-0.16-0.84-0.54
		c-0.08-0.38,0.16-0.76,0.54-0.84c2.6-0.31,5.2,0.58,7.05,2.43c0.3,0.25,0.34,0.69,0.1,0.99c-0.14,0.17-0.36,0.27-0.58,0.26V241.25z
		"/>
	<path class="st4" d="M501.72,250.28c0,0,9.62-12.57,9.86-23.23c0,0,34.68-8.94,31.75,24.62c0,0,7.25-29.16-21.14-33.69
		c-28.39-4.54-33.96,37.13-20.94,51.57C501.24,269.54,495.77,258.13,501.72,250.28z"/>
	<path class="st10" d="M503.95,254.14c0.22-4.03-2.88-7.47-6.91-7.69c0,0,0,0,0,0c-5.22-0.14-9.1,10.04,3.33,14.34
		C502.16,261.39,503.42,259.74,503.95,254.14z"/>
	<path class="st4" d="M503.08,220.1c-1.59-6.06-5.56-11.21-11-14.3c-9.5-5.82-19.84-2.13-28.57,17.21s-21.45,15.1-27.01,10.32
		c0,0,1.85,9.26,14.84,13.09c12.99,3.84,20.38-2.75,26.47-13.61c3.13-6.12,10.48-8.76,16.79-6.02L503.08,220.1z"/>
	<path class="st4" d="M531.01,265.28c-0.7,1.96-1.26,3.98-1.67,6.02c-0.37,0.02-0.75,0.02-1.12,0c-5-0.22-7.23-2.01-8.21-3.88
		c-0.45-0.92-0.67-1.94-0.64-2.97c-0.02-0.59,0.06-1.18,0.22-1.75c3.02,1.52,6.34,2.37,9.72,2.49
		C530.39,265.28,531.01,265.28,531.01,265.28z"/>
	<path class="st8" d="M529.31,265.18l-0.54,1.77c-4.72-0.22-8.03-1.02-9.4-2.51c-0.02-0.59,0.06-1.18,0.22-1.75
		C522.61,264.21,525.93,265.06,529.31,265.18z"/>
	<path class="st13" d="M528.22,271.29c-5-0.22-7.23-2.01-8.21-3.88c1.9,0.14,3.76,0.6,5.5,1.37
		C526.66,269.31,527.6,270.19,528.22,271.29z"/>
	<path class="st4" d="M466.62,250.72c-0.21,0.01-0.41-0.13-0.46-0.34c-0.07-0.25,0.06-0.52,0.3-0.62c6.33-2.13,9-8.03,11.59-13.61
		c1.34-3.7,3.39-7.11,6.02-10.04c6.93-6.49,12.43-1.2,12.49-1.14c0.17,0.22,0.12,0.54-0.1,0.7c-0.18,0.13-0.42,0.13-0.6,0
		c-0.2-0.2-4.9-4.68-11.12,1.16c-2.53,2.82-4.52,6.08-5.86,9.62c-2.67,5.84-5.44,11.89-12.15,14.16L466.62,250.72z"/>
	<path class="st6" d="M483.4,267.25c0.5-0.04,0.96-0.31,1.24-0.72l5.7-8.03c0.51-0.73,0.38-1.73-0.3-2.31l-7.75-6.63
		c-0.37-0.3-0.85-0.44-1.33-0.38l-18.67,2.27c-0.89,0.12-1.55,0.91-1.51,1.81l0.78,14.26c0.05,0.94,0.86,1.66,1.8,1.61
		c0.02,0,0.05,0,0.07-0.01L483.4,267.25z M486.46,257.75c-0.02-0.63,0.47-1.16,1.1-1.18c0.01,0,0.03,0,0.04,0
		c0.65-0.01,1.18,0.5,1.2,1.14c-0.09,0.65-0.68,1.11-1.33,1.02c-0.53-0.07-0.95-0.49-1.02-1.02L486.46,257.75z"/>
	<path class="st8" d="M474.61,253.01c1.51-0.24,2.93,0.8,3.17,2.31c0.01,0.07,0.02,0.15,0.03,0.22c0,1.47-1.12,2.55-2.97,2.59
		c-1.85,0.04-3.19-0.98-3.23-2.55C471.56,254.02,472.76,253.03,474.61,253.01z M474.61,254.36c-1.31,0-1.79,0.54-1.79,1.2
		c0,0.66,0.56,1.27,2.01,1.22c1.45-0.04,1.79-0.6,1.79-1.22c0-0.62-0.62-1.24-1.99-1.2H474.61z M465.77,256.81v-1.75l12.05,6.87
		v1.75L465.77,256.81z M468.95,261.01c1.54-0.23,2.97,0.83,3.19,2.37c0.01,0.06,0.02,0.12,0.02,0.18c0,1.45-1.14,2.53-2.99,2.57
		s-3.19-0.98-3.21-2.55c-0.02-1.57,1.16-2.53,3.01-2.63L468.95,261.01z M468.95,262.35c-1.29,0-1.79,0.54-1.77,1.22
		c0.02,0.68,0.56,1.24,2.01,1.22c1.45-0.02,1.81-0.62,1.79-1.24c-0.02-0.62-0.6-1.24-1.99-1.2H468.95z"/>
	<path class="st8" d="M488.77,258.13c-0.28,0.01-0.51-0.2-0.53-0.48c-0.01-0.21,0.11-0.41,0.31-0.49c0.14,0,12.21-6.02,12.27-15.86
		c0-0.28,0.22-0.5,0.5-0.5l0,0c0.28,0,0.5,0.22,0.5,0.5c0,10.42-12.31,16.51-12.83,16.77C488.92,258.11,488.84,258.14,488.77,258.13
		z"/>
	<path class="st6" d="M499.39,240.52l13.33-25.28c10.98,0.48,21.92,1.66,32.75,3.53c0,0,5.14,4.02,2.27,6.69
		c-2.87,2.67-9.04,0.74-10.82-0.78c-1.33-1.51-2.26-3.34-2.71-5.3l-3.19-0.4c0,0,2.97,6.65-1.71,6.49s-13.29-3.11-14.96-7.49
		l-14.5,25.66L499.39,240.52z"/>
	<path class="st10" d="M462.42,291.53c22.83-3.49,24.9,67.07,33.83,83.47c8.94,16.41,64.8,58.63,64.8,58.63s18.21-1.71,22.09,0
		c3.88,1.71,4.28,13.88,1.12,13.88c-3.15,0-23.51,3.63-27.49,1.83s-6.02-8.96-6.02-8.96s-58.71-29.4-70.82-54.22
		c-10.04-20.74-19.58-56.63-22.27-69.36S456.64,292.41,462.42,291.53z"/>
	<path class="st6" d="M494.55,329.34l11.43,21.79c0.74,1.41,2.49,1.96,3.9,1.21c0.38-0.2,0.72-0.49,0.97-0.83l14.34-19.5
		c0.95-1.27,0.69-3.07-0.58-4.02c-0.42-0.31-0.91-0.51-1.43-0.56l-25.82-2.23c-1.59-0.11-2.98,1.09-3.09,2.68
		C494.24,328.38,494.33,328.88,494.55,329.34z"/>
	<path class="st8" d="M492.84,337.81v0.66c0,1.55,1.22,2.84,2.77,2.91l26.63,1.27c1.48,0.07,2.78-0.99,3.01-2.45l0,0
		c0.27-1.56-0.78-3.05-2.34-3.32c-0.1-0.02-0.21-0.03-0.31-0.04l-26.65-2.01c-1.59-0.12-2.98,1.07-3.11,2.66
		C492.84,337.6,492.84,337.71,492.84,337.81z"/>
</g>
<g id="freepik--Cart--inject-6">
	<path class="st6" d="M816.35,355.1c0.15,1.07,0.74,2.02,1.63,2.63l17.73,11.87c1.6,1.09,3.78,0.76,4.98-0.76l13.88-17.23
		c0.64-0.82,0.92-1.86,0.76-2.89l-6.02-40.34c-0.31-1.94-2.06-3.31-4.02-3.15l-30.86,2.55c-2.05,0.16-3.57,1.95-3.41,3.99
		c0,0.06,0.01,0.12,0.02,0.18L816.35,355.1z M837.13,361.12c1.4-0.07,2.58,1.01,2.65,2.4c0,0.01,0,0.02,0,0.02
		c0.08,1.38-0.98,2.57-2.36,2.65c-0.02,0-0.03,0-0.05,0c-1.41-0.04-2.52-1.21-2.48-2.62C834.93,362.32,835.88,361.28,837.13,361.12
		L837.13,361.12z"/>
	<path class="st5" d="M816.35,355.1c0.15,1.07,0.74,2.02,1.63,2.63l17.73,11.87c1.6,1.09,3.78,0.76,4.98-0.76l13.88-17.23
		c0.64-0.82,0.92-1.86,0.76-2.89l-6.02-40.34c-0.31-1.94-2.06-3.31-4.02-3.15l-30.86,2.55c-2.05,0.16-3.57,1.95-3.41,3.99
		c0,0.06,0.01,0.12,0.02,0.18L816.35,355.1z M837.13,361.12c1.4-0.07,2.58,1.01,2.65,2.4c0,0.01,0,0.02,0,0.02
		c0.08,1.38-0.98,2.57-2.36,2.65c-0.02,0-0.03,0-0.05,0c-1.41-0.04-2.52-1.21-2.48-2.62C834.93,362.32,835.88,361.28,837.13,361.12
		L837.13,361.12z"/>
	<path class="st6" d="M846.71,335.12c0.2,4.2-2.15,6.97-5.32,7.11s-5.58-2.29-5.76-6.29c-0.18-4,2.01-6.99,5.32-7.15
		S846.53,331.23,846.71,335.12z M843.8,335.26c-0.12-2.79-1.31-3.84-2.77-3.78c-1.47,0.06-2.67,1.29-2.53,4.32s1.47,3.88,2.81,3.82
		s2.63-1.37,2.49-4.38V335.26z M837.92,316.29l3.8-0.18l-14.14,26.63l-3.78,0.18L837.92,316.29z M829.02,323.41
		c0.2,4.18-2.15,6.95-5.32,7.09s-5.56-2.29-5.76-6.29c-0.2-4,2.01-6.99,5.32-7.15C826.57,316.91,828.84,319.4,829.02,323.41
		L829.02,323.41z M826.11,323.53c-0.12-2.79-1.31-3.84-2.75-3.78c-1.45,0.06-2.69,1.31-2.55,4.32c0.14,3.01,1.47,3.88,2.81,3.82
		S826.25,326.53,826.11,323.53L826.11,323.53z"/>
	<path class="st4" d="M807.26,420.88c-0.55,0.09-1.08-0.29-1.16-0.84c-0.09-0.55,0.29-1.08,0.84-1.16
		c29.96-10.04,29.56-54.8,29.54-55.24c0-0.55,0.45-1,1-1c0.55,0,1,0.45,1,1c0,0.46,0.44,46.75-30.92,57.19
		C807.46,420.86,807.36,420.88,807.26,420.88z"/>
	<path class="st6" d="M744.51,405.9h-0.26c-0.76-0.14-18.94-3.43-23.94-11.79c-1.4-2.25-1.71-5.01-0.82-7.51
		c0.86-2.63,3.49-6.02,11.2-6.89c13.05-1.59,34.9,4.82,38.98,11.41c0.41,0.69,0.19,1.58-0.48,2.01c-0.69,0.4-1.57,0.18-2.01-0.48
		c-3.19-5.14-23.47-11.53-36.14-10.04c-3.39,0.4-7.65,1.57-8.71,4.84c-0.59,1.67-0.39,3.52,0.54,5.02
		c4.3,7.17,21.73,10.34,21.89,10.36c0.82,0.14,1.38,0.91,1.24,1.73c-0.12,0.73-0.76,1.27-1.5,1.26L744.51,405.9z"/>
	<polygon class="st6" points="816.27,384.02 835.61,507.15 774.28,526.16 743.78,518.87 733.78,405.66 761.23,387.05 	"/>
	<polygon class="st14" points="774.28,526.16 761.23,387.05 733.78,405.66 743.78,518.87 	"/>
	<path class="st6" d="M774.2,395.76c-0.42,0-0.82-0.17-1.1-0.48c-0.46-0.48-11.28-12.17-10.76-23.29c0.15-4.03,1.98-7.81,5.06-10.42
		c3.9-3.44,9.43-4.31,14.2-2.23c11.81,4.3,24.1,20.6,25.62,30.46c0.12,0.83-0.45,1.59-1.28,1.72c-0.83,0.12-1.59-0.45-1.72-1.28
		c-1.33-8.98-13.03-24.2-23.65-28.11c-3.71-1.71-8.07-1.1-11.16,1.57c-2.46,2.08-3.92,5.1-4.02,8.31
		c-0.44,9.84,9.86,20.98,10.04,21.1c0.57,0.61,0.53,1.56-0.08,2.13c-0.28,0.26-0.64,0.4-1.02,0.4L774.2,395.76z"/>
	<g class="st7">
		<path class="st8" d="M774.2,395.76c-0.42,0-0.82-0.17-1.1-0.48c-0.46-0.48-11.28-12.17-10.76-23.29
			c0.15-4.03,1.98-7.81,5.06-10.42c3.9-3.44,9.43-4.31,14.2-2.23c11.81,4.3,24.1,20.6,25.62,30.46c0.12,0.83-0.45,1.59-1.28,1.72
			c-0.83,0.12-1.59-0.45-1.72-1.28c-1.33-8.98-13.03-24.2-23.65-28.11c-3.71-1.71-8.07-1.1-11.16,1.57
			c-2.46,2.08-3.92,5.1-4.02,8.31c-0.44,9.84,9.86,20.98,10.04,21.1c0.57,0.61,0.53,1.56-0.08,2.13c-0.28,0.26-0.64,0.4-1.02,0.4
			L774.2,395.76z"/>
	</g>
	<path class="st6" d="M702.08,486.46c-0.98,0-1.94-0.28-2.75-0.82L647.6,451.5c-0.96-0.64-2.1-0.99-3.25-0.98h-95.88l34.04,27.07
		c2.24,1.64,2.72,4.78,1.08,7.02c-1.64,2.24-4.78,2.72-7.02,1.08c-0.11-0.08-0.21-0.16-0.31-0.25l-45.28-36
		c-2.17-1.72-2.54-4.88-0.82-7.05c0.96-1.21,2.41-1.91,3.95-1.9h110.26c3.13-0.01,6.19,0.91,8.8,2.65l51.71,34.14
		c2.31,1.54,2.93,4.65,1.39,6.96c-0.93,1.39-2.49,2.23-4.16,2.23L702.08,486.46z"/>
	<g class="st15">
		<path d="M702.08,486.46c-0.98,0-1.94-0.28-2.75-0.82L647.6,451.5c-0.96-0.64-2.1-0.99-3.25-0.98h-95.88l34.04,27.07
			c2.24,1.64,2.72,4.78,1.08,7.02c-1.64,2.24-4.78,2.72-7.02,1.08c-0.11-0.08-0.21-0.16-0.31-0.25l-45.28-36
			c-2.17-1.72-2.54-4.88-0.82-7.05c0.96-1.21,2.41-1.91,3.95-1.9h110.26c3.13-0.01,6.19,0.91,8.8,2.65l51.71,34.14
			c2.31,1.54,2.93,4.65,1.39,6.96c-0.93,1.39-2.49,2.23-4.16,2.23L702.08,486.46z"/>
	</g>
	<polygon class="st6" points="595.37,562.75 660.93,417.57 728.56,407.95 744.51,432.57 717.44,594.98 641.03,601.4 	"/>
	<polygon class="st5" points="595.37,562.75 660.93,417.57 728.56,407.95 744.51,432.57 717.44,594.98 641.03,601.4 	"/>
	<polygon class="st11" points="728.56,407.95 687.26,545.4 595.37,562.75 641.03,601.4 717.44,594.98 744.51,432.57 	"/>
	<polygon class="st11" points="595.37,562.75 687.26,545.4 717.44,594.98 641.03,601.4 	"/>
	<path class="st4" d="M677.12,435.64h-1.43c-7.33-0.24-11.35-1.91-12.31-5.08c-1.69-5.68,8.03-12.87,10.04-14.26
		c0.66-0.42,1.53-0.26,2.01,0.36c0.43,0.66,0.27,1.54-0.36,2.01c-4.14,2.93-9.6,8.25-8.8,10.94c0.24,0.8,1.65,2.67,9.52,2.93
		c22.65,0.82,33.39-18.07,33.49-18.27c0.34-0.76,1.23-1.1,1.99-0.76c0.76,0.34,1.1,1.23,0.76,1.99c-0.03,0.08-0.07,0.15-0.12,0.22
		C711.81,416.04,700.69,435.64,677.12,435.64z"/>
	<polygon class="st4" points="721.63,605.52 717.44,460 791.33,447.03 825.59,460 820.41,592.63 785.85,610.14 	"/>
	<polygon class="st9" points="791.33,447.03 785.85,610.14 820.41,592.63 825.59,460 	"/>
	<path class="st6" d="M753.38,498.37c-3.86,0.06-7.56-1.48-10.24-4.26c-8.94-9.16-7.77-29.88-7.73-30.76
		c0.06-0.83,0.78-1.45,1.61-1.41c0.82,0.04,1.45,0.74,1.41,1.56c0,0.01,0,0.02,0,0.03c0,0.2-1.14,20.28,6.89,28.47
		c2.24,2.35,5.42,3.57,8.65,3.33c3.01-0.08,5.84-1.45,7.75-3.78c8.51-9.78,6.2-34.56,6.18-34.82c-0.08-0.82,0.52-1.54,1.33-1.62
		c0.01,0,0.02,0,0.03,0c0.8-0.09,1.53,0.49,1.62,1.29c0,0.02,0,0.04,0.01,0.05c0.12,1.06,2.45,26.32-6.91,37.07
		c-2.45,2.95-6.05,4.7-9.88,4.82L753.38,498.37z"/>
	<g class="st15">
		<path d="M753.38,498.37c-3.86,0.06-7.56-1.48-10.24-4.26c-8.94-9.16-7.77-29.88-7.73-30.76c0.06-0.83,0.78-1.45,1.61-1.41
			c0.82,0.04,1.45,0.74,1.41,1.56c0,0.01,0,0.02,0,0.03c0,0.2-1.14,20.28,6.89,28.47c2.24,2.35,5.42,3.57,8.65,3.33
			c3.01-0.08,5.84-1.45,7.75-3.78c8.51-9.78,6.2-34.56,6.18-34.82c-0.08-0.82,0.52-1.54,1.33-1.62c0.01,0,0.02,0,0.03,0
			c0.8-0.09,1.53,0.49,1.62,1.29c0,0.02,0,0.04,0.01,0.05c0.12,1.06,2.45,26.32-6.91,37.07c-2.45,2.95-6.05,4.7-9.88,4.82
			L753.38,498.37z"/>
	</g>
	<path class="st4" d="M858.72,717.1c-3.49-6.02-12.43-7.43-19.94-3.09c-7.51,4.34-10.78,12.79-7.19,18.82
		c3.59,6.02,12.41,7.43,19.92,3.07C859.02,731.54,862.19,723.15,858.72,717.1z"/>
	<path class="st4" d="M670.11,714.01c-7.51,4.36-10.78,12.77-7.29,18.82c3.49,6.04,12.41,7.43,19.92,3.07
		c7.51-4.36,10.78-12.75,7.31-18.79C686.57,711.06,677.62,709.67,670.11,714.01z"/>
	<path class="st6" d="M836.63,720.23H672.96c-2.77,0-5.02-2.25-5.02-5.02s2.25-5.02,5.02-5.02h163.67c1.69,0,3.05-1.37,3.05-3.05
		v-13.03c-0.01-1.43-1.01-2.66-2.41-2.97l-135.34-29.28c-12.18-2.65-20.88-13.4-20.94-25.86v-25.46c0-2.77,2.25-5.02,5.02-5.02
		s5.02,2.25,5.02,5.02V636c0.02,7.72,5.39,14.39,12.93,16.06l135.36,29.28c6,1.33,10.29,6.64,10.32,12.79v13.03
		C849.62,714.35,843.82,720.18,836.63,720.23z"/>
	<g class="st15">
		<path d="M836.63,720.23H672.96c-2.77,0-5.02-2.25-5.02-5.02s2.25-5.02,5.02-5.02h163.67c1.69,0,3.05-1.37,3.05-3.05v-13.03
			c-0.01-1.43-1.01-2.66-2.41-2.97l-135.34-29.28c-12.18-2.65-20.88-13.4-20.94-25.86v-25.46c0-2.77,2.25-5.02,5.02-5.02
			s5.02,2.25,5.02,5.02V636c0.02,7.72,5.39,14.39,12.93,16.06l135.36,29.28c6,1.33,10.29,6.64,10.32,12.79v13.03
			C849.62,714.35,843.82,720.18,836.63,720.23z"/>
	</g>
	<path class="st6" d="M836.49,547.21v-0.34l5.86-32.41l0,0l6.02-33.27c0.48-2.74-1.36-5.35-4.1-5.83c-0.28-0.05-0.56-0.07-0.84-0.07
		h-63.75c-2.77,0-5.02,2.25-5.02,5.02s2.25,5.02,5.02,5.02h18.27l-3.21,23.13H657.24c-2.77,0-5.02,2.25-5.02,5.02
		c0,2.77,2.25,5.02,5.02,5.02h136.2l-3.15,22.59H665.57c-2.77,0-5.02,2.25-5.02,5.02s2.25,5.02,5.02,5.02h123.21l-3.25,23.31H673.6
		c-2.77,0-5.02,2.25-5.02,5.02s2.25,5.02,5.02,5.02h110.44l-2.93,21.08h-12.99c-2.77,0-5.02,2.25-5.02,5.02s2.25,5.02,5.02,5.02
		h51.83c2.43-0.01,4.5-1.75,4.94-4.14l5.6-30.98l0,0L836.49,547.21z M827.4,541.04h-6.99l4.02-22.59h7.17L827.4,541.04z
		 M825.59,551.08l-4.22,23.31h-6.83l4.02-23.31H825.59z M833.3,508.41h-7.17l4.02-23.13h7.29L833.3,508.41z M808.1,485.28h11.91
		l-4.02,23.13h-11.06L808.1,485.28z M803.48,518.45h10.7l-4.02,22.59h-9.88L803.48,518.45z M798.92,551.08h9.52l-4.02,23.31h-8.69
		L798.92,551.08z M794.26,584.43h8.33l-3.69,21.08h-7.47L794.26,584.43z M809.08,605.52l3.71-21.08h6.75l-3.82,21.08H809.08z"/>
	<g class="st15">
		<path d="M836.49,547.21v-0.34l5.86-32.41l0,0l6.02-33.27c0.48-2.74-1.36-5.35-4.1-5.83c-0.28-0.05-0.56-0.07-0.84-0.07h-63.75
			c-2.77,0-5.02,2.25-5.02,5.02s2.25,5.02,5.02,5.02h18.27l-3.21,23.13H657.24c-2.77,0-5.02,2.25-5.02,5.02
			c0,2.77,2.25,5.02,5.02,5.02h136.2l-3.15,22.59H665.57c-2.77,0-5.02,2.25-5.02,5.02s2.25,5.02,5.02,5.02h123.21l-3.25,23.31H673.6
			c-2.77,0-5.02,2.25-5.02,5.02s2.25,5.02,5.02,5.02h110.44l-2.93,21.08h-12.99c-2.77,0-5.02,2.25-5.02,5.02s2.25,5.02,5.02,5.02
			h51.83c2.43-0.01,4.5-1.75,4.94-4.14l5.6-30.98l0,0L836.49,547.21z M827.4,541.04h-6.99l4.02-22.59h7.17L827.4,541.04z
			 M825.59,551.08l-4.22,23.31h-6.83l4.02-23.31H825.59z M833.3,508.41h-7.17l4.02-23.13h7.29L833.3,508.41z M808.1,485.28h11.91
			l-4.02,23.13h-11.06L808.1,485.28z M803.48,518.45h10.7l-4.02,22.59h-9.88L803.48,518.45z M798.92,551.08h9.52l-4.02,23.31h-8.69
			L798.92,551.08z M794.26,584.43h8.33l-3.69,21.08h-7.47L794.26,584.43z M809.08,605.52l3.71-21.08h6.75l-3.82,21.08H809.08z"/>
	</g>
	<path class="st6" d="M783.4,476.87c-0.95-1.04-2.29-1.63-3.69-1.63H575.39c-1.56-0.02-3.04,0.68-4.02,1.89
		c-0.95,1.19-1.3,2.75-0.96,4.24l7.53,33.07l0,0l22.09,97.19c0.48,2.33,2.52,4.01,4.9,4.02H768.1c2.6-0.01,4.76-1.99,5-4.58
		l11.49-130.28C784.77,479.37,784.34,477.94,783.4,476.87z M766.33,574.39h-23.29l1.02-23.29h24.34L766.33,574.39z M637.06,605.52
		l-2.73-21.08h25.08l1.53,21.08H637.06z M666.33,541.06l-1.65-22.61h33.07v22.61H666.33z M697.76,551.1v23.29h-29.02l-1.69-23.29
		H697.76z M707.8,518.45h27.65l-0.98,22.61H707.8V518.45z M707.8,508.41v-23.13h29.12l-1.02,23.13H707.8z M697.76,508.41h-33.79
		l-1.67-23.13h35.46V508.41z M653.9,508.41h-29.4l-2.99-23.13h30.7L653.9,508.41z M654.63,518.45l1.63,22.61h-27.47l-2.93-22.61
		H654.63z M618.6,541.06h-24.24l-5.14-22.61h26.45L618.6,541.06z M596.66,551.1h23.23l3.01,23.29h-20.94L596.66,551.1z
		 M630.03,551.1H657l1.69,23.29h-25.64L630.03,551.1z M669.47,584.43h28.29v21.08h-26.81L669.47,584.43z M707.8,584.43h24.74
		l-0.92,21.08H707.8V584.43z M707.8,574.39V551.1h26.22L733,574.39H707.8z M744.51,541.06l1-22.61h25.84l-2.01,22.61H744.51z
		 M772.16,508.41h-26.1l1.02-23.13h27.23L772.16,508.41z M611.39,485.28l2.99,23.13h-27.45l-5.26-23.13H611.39z M604.23,584.43
		h19.98l2.73,21.08h-17.91L604.23,584.43z M741.67,605.52l0.92-21.08h22.85l-1.85,21.08H741.67z"/>
	<path class="st6" d="M756.31,720.23H592.64c-2.77,0-5.02-2.25-5.02-5.02s2.25-5.02,5.02-5.02h163.67c1.69,0,3.05-1.37,3.05-3.05
		v-13.03c-0.01-1.43-1.01-2.66-2.41-2.97l-135.34-29.28c-12.18-2.65-20.88-13.4-20.94-25.86v-25.46c0-2.77,2.25-5.02,5.02-5.02
		s5.02,2.25,5.02,5.02V636c0.02,7.72,5.39,14.39,12.93,16.06L759,681.34c6,1.33,10.29,6.64,10.32,12.79v13.03
		C769.3,714.35,763.5,720.18,756.31,720.23z"/>
	<ellipse transform="matrix(0.866 -0.5 0.5 0.866 -261.093 475.498)" class="st4" cx="756.74" cy="724.96" rx="15.72" ry="12.63"/>
	<path class="st6" d="M760.51,720.66c1.73,2.97,0.12,7.09-3.57,9.22s-8.03,1.47-9.78-1.51s-0.12-7.09,3.57-9.24
		C754.42,716.98,758.8,717.68,760.51,720.66z"/>
	
		<ellipse transform="matrix(0.866 -0.5 0.5 0.866 -283.6898 391.1658)" class="st4" cx="588.08" cy="724.96" rx="15.72" ry="12.63"/>
	<path class="st6" d="M591.84,720.66c1.73,2.97,0.12,7.09-3.57,9.22s-8.03,1.47-9.78-1.51s-0.12-7.09,3.57-9.24
		C585.75,716.98,590.13,717.68,591.84,720.66z"/>
	<path class="st6" d="M660.09,380.58c0.9,0.6,2.03,0.78,3.07,0.48l20.54-5.66c1.87-0.51,3.03-2.37,2.67-4.28l-4.02-21.75
		c-0.2-1.03-0.81-1.93-1.69-2.49l-34.6-21.69c-1.66-1.04-3.84-0.62-5,0.96l-18.17,25.14c-1.21,1.67-0.83,4.01,0.84,5.21
		c0.04,0.03,0.08,0.06,0.12,0.09L660.09,380.58z M678.16,368.75c0.86-1.1,2.45-1.3,3.55-0.44c1.1,0.86,1.3,2.45,0.44,3.55
		c-0.86,1.1-2.45,1.3-3.55,0.44c-1.09-0.88-1.26-2.47-0.38-3.55H678.16z"/>
	<path class="st8" d="M664.73,344.54c3.29,2.59,3.88,6.18,1.91,8.67s-5.36,2.73-8.51,0.26s-4.02-6.02-2.01-8.67
		S661.55,342.09,664.73,344.54z M662.92,346.85c-2.21-1.73-3.75-1.51-4.66-0.36c-0.9,1.14-0.76,2.87,1.63,4.74
		c2.39,1.87,3.88,1.41,4.72,0.34S665.29,348.67,662.92,346.85z M644.69,338.94l2.35-2.99L658,364.06l-2.33,2.99L644.69,338.94z
		 M644.31,350.32c3.29,2.59,3.88,6.16,2.01,8.67s-5.38,2.73-8.53,0.26s-4.02-6.02-2.01-8.67
		C637.78,347.93,641.15,347.87,644.31,350.32z M642.52,352.63c-2.21-1.73-3.78-1.51-4.68-0.36c-0.9,1.14-0.76,2.87,1.63,4.72
		s3.9,1.43,4.72,0.36S644.85,354.46,642.52,352.63L642.52,352.63z"/>
	<path class="st6" d="M782.68,510.36c-0.46-0.98-1.32-1.72-2.37-2.01l-20.5-5.86c-1.86-0.53-3.82,0.45-4.52,2.25l-7.89,20.68
		c-0.37,0.97-0.31,2.06,0.14,2.99l18.21,36.49c0.87,1.77,2.96,2.55,4.78,1.79l28.57-11.91c1.91-0.77,2.85-2.94,2.08-4.86
		c-0.02-0.06-0.05-0.11-0.07-0.16L782.68,510.36z M761.05,510.98c-1.31,0.49-2.77-0.18-3.26-1.48c-0.49-1.31,0.18-2.77,1.48-3.26
		c1.31-0.49,2.77,0.18,3.26,1.49c0,0,0,0,0,0c0.49,1.3-0.16,2.75-1.45,3.24C761.07,510.97,761.06,510.98,761.05,510.98
		L761.05,510.98z"/>
	<path class="st5" d="M782.68,510.36c-0.46-0.98-1.32-1.72-2.37-2.01l-20.5-5.86c-1.86-0.53-3.82,0.45-4.52,2.25l-7.89,20.68
		c-0.37,0.97-0.31,2.06,0.14,2.99l18.21,36.49c0.87,1.77,2.96,2.55,4.78,1.79l28.57-11.91c1.91-0.77,2.85-2.94,2.08-4.86
		c-0.02-0.06-0.05-0.11-0.07-0.16L782.68,510.36z M761.05,510.98c-1.31,0.49-2.77-0.18-3.26-1.48c-0.49-1.31,0.18-2.77,1.48-3.26
		c1.31-0.49,2.77,0.18,3.26,1.49c0,0,0,0,0,0c0.49,1.3-0.16,2.75-1.45,3.24C761.07,510.97,761.06,510.98,761.05,510.98
		L761.05,510.98z"/>
	<path class="st4" d="M759.93,538.67c-1.47-3.92,0-7.27,2.87-8.39c2.87-1.12,6.02,0.48,7.43,4.24s0.3,7.23-2.87,8.41
		S761.31,542.43,759.93,538.67z M762.66,537.65c0.98,2.63,2.43,3.25,3.8,2.75s2.15-2.01,1.08-4.88c-1.06-2.87-2.59-3.23-3.84-2.77
		C762.46,533.21,761.61,534.86,762.66,537.65L762.66,537.65z M774.08,553.91l-3.55,1.33l5.28-29.68l3.55-1.33L774.08,553.91z
		 M780.35,544.39c-1.47-4.02,0-7.27,2.89-8.39s6.02,0.48,7.41,4.22c1.39,3.73,0.32,7.25-2.85,8.43
		C784.62,549.84,781.77,548.09,780.35,544.39L780.35,544.39z M783.08,543.37c0.98,2.63,2.43,3.25,3.8,2.75
		c1.37-0.5,2.15-2.01,1.08-4.88c-1.06-2.87-2.57-3.23-3.84-2.77C782.86,538.93,782.03,540.58,783.08,543.37L783.08,543.37z"/>
	<path class="st4" d="M590.63,506.58c1.53-0.7,2.69-2.04,3.17-3.65l9.42-31.89c0.85-2.9-0.64-5.96-3.45-7.07l-32.13-12.61
		c-1.52-0.57-3.21-0.51-4.68,0.18l-57.17,27.83c-2.75,1.34-3.99,4.58-2.83,7.41l18.07,44.74c1.2,2.97,4.58,4.41,7.55,3.22
		c0.08-0.03,0.16-0.07,0.24-0.1L590.63,506.58z M589.95,472.85c-0.79-2.07,0.26-4.39,2.33-5.18c2.07-0.79,4.39,0.26,5.18,2.33
		s-0.26,4.39-2.33,5.18c-0.03,0.01-0.06,0.02-0.1,0.04c-2.07,0.74-4.35-0.31-5.12-2.37H589.95z"/>
	<path class="st8" d="M546.78,470.7c6.12-2.25,11.35,0,13.03,4.62c1.69,4.62-0.82,9.36-6.69,11.49c-5.86,2.13-11.28,0.38-13.09-4.6
		C538.22,477.23,540.89,472.83,546.78,470.7z M548.32,474.96c-4.12,1.51-5.1,3.73-4.34,5.86c0.76,2.13,3.17,3.39,7.61,1.77
		c4.02-1.47,5.08-4.02,4.36-5.92C555.23,474.76,552.7,473.37,548.32,474.96L548.32,474.96z M522.8,492.53l-2.01-5.54l46.18,8.67
		l2.01,5.56L522.8,492.53z M537.54,502.47c6.14-2.25,11.37,0,13.05,4.62s-0.82,9.36-6.69,11.49s-11.28,0.38-13.09-4.6
		C529.01,508.99,531.68,504.6,537.54,502.47z M539.11,506.72c-4.12,1.51-5.12,3.73-4.34,5.86c0.78,2.13,3.17,3.39,7.59,1.77
		c4.02-1.47,5.08-4.02,4.38-5.92C546.03,506.52,543.48,505.14,539.11,506.72z"/>
	<path class="st6" d="M595.37,470.82c-0.55,0.06-1.05-0.35-1.1-0.9c-0.06-0.55,0.35-1.05,0.9-1.1c0.64-0.14,64.36-13.19,73.81-39.36
		c0.2-0.52,0.79-0.77,1.3-0.57c0.5,0.2,0.75,0.74,0.59,1.25c-9.84,27.23-72.65,40.16-75.32,40.64L595.37,470.82z"/>
	<path class="st4" d="M715.81,389.32c-18.07,0-33.57-16.06-34.32-16.75c-0.39-0.39-0.4-1.03-0.01-1.42c0,0,0,0,0.01-0.01
		c0.38-0.39,1-0.39,1.39-0.01c0,0,0.01,0.01,0.01,0.01c0.2,0.22,20.66,21.26,40.96,14.9c0.53-0.16,1.08,0.14,1.24,0.66
		c0.18,0.51-0.09,1.07-0.61,1.25c-0.01,0-0.02,0.01-0.04,0.01C721.67,388.86,718.75,389.31,715.81,389.32z"/>
	<path class="st6" d="M760.15,509.42c-0.23-0.01-0.46-0.08-0.64-0.22c-0.24-0.2-5.88-5.02-4.78-16.22c0.05-0.55,0.54-0.96,1.09-0.91
		c0.55,0.05,0.96,0.54,0.91,1.09c-0.98,10.04,3.88,14.32,4.02,14.5c0.42,0.34,0.48,0.96,0.14,1.38c-0.01,0.01-0.01,0.01-0.02,0.02
		C760.69,509.27,760.43,509.41,760.15,509.42z"/>
</g>
</svg>
