<?xml version="1.0" encoding="utf-8"?>
<!-- Generator: Adobe Illustrator 23.1.0, SVG Export Plug-In . SVG Version: 6.00 Build 0)  -->
<svg version="1.1" id="Layer_1" xmlns="http://www.w3.org/2000/svg" xmlns:xlink="http://www.w3.org/1999/xlink" x="0px" y="0px"
	 viewBox="0 0 1366 768" style="enable-background:new 0 0 1366 768;" xml:space="preserve">
<style type="text/css">
	.st0{fill:#EBEBEB;}
	.st1{fill:#F0F0F0;}
	.st2{fill:#F5F5F5;}
	.st3{fill:#FAFAFA;}
	.st4{fill:#407BFF;}
	.st5{opacity:0.7;}
	.st6{fill:#FFFFFF;}
	.st7{opacity:0.25;}
	.st8{opacity:0.1;}
	.st9{opacity:0.2;}
	.st10{opacity:0.3;}
	.st11{opacity:0.2;fill:#FFFFFF;enable-background:new    ;}
	.st12{opacity:0.2;enable-background:new    ;}
	.st13{opacity:0.1;enable-background:new    ;}
	.st14{fill:#263238;}
	.st15{fill:#E2877B;}
	.st16{fill:#2E353A;}
	.st17{opacity:0.4;enable-background:new    ;}
	.st18{opacity:0.1;fill:#FFFFFF;enable-background:new    ;}
	.st19{opacity:0.8;fill:#FFFFFF;enable-background:new    ;}
	.st20{fill:#DC5753;}
	.st21{fill:#E4897B;}
	.st22{opacity:0.8;}
</style>
<g id="freepik--background-complete--inject-176">
	<rect x="181.07" y="669.09" class="st0" width="1006.55" height="0.5"/>
	<rect x="1020.09" y="701.48" class="st0" width="66.67" height="0.5"/>
	<rect x="830.36" y="706.95" class="st0" width="17.49" height="0.5"/>
	<rect x="979.45" y="682.8" class="st0" width="38.63" height="0.5"/>
	<rect x="286.68" y="686.18" class="st0" width="86.95" height="0.5"/>
	<rect x="391.56" y="686.18" class="st0" width="12.74" height="0.5"/>
	<rect x="445.74" y="694.67" class="st0" width="188.59" height="0.5"/>
	<path class="st0" d="M658.18,579.3H269.47c-6.34-0.01-11.47-5.15-11.47-11.49V21.39c0.06-6.3,5.17-11.38,11.47-11.39h388.71
		c6.35,0,11.49,5.15,11.49,11.49c0,0,0,0,0,0v546.31C669.67,574.16,664.53,579.3,658.18,579.3z M269.47,10.4
		c-6.06,0.01-10.97,4.93-10.97,10.99v546.42c0,6.06,4.91,10.98,10.97,10.99h388.71c6.07-0.01,10.98-4.93,10.99-10.99V21.39
		c-0.01-6.07-4.93-10.98-10.99-10.99H269.47z"/>
	<path class="st0" d="M1093.63,579.3H704.9c-6.34-0.01-11.48-5.15-11.49-11.49V21.39c0.07-6.3,5.19-11.38,11.49-11.39h388.73
		c6.29,0.02,11.4,5.1,11.45,11.39v546.42C1105.09,574.14,1099.96,579.28,1093.63,579.3z M704.9,10.4
		c-6.07,0.01-10.98,4.93-10.99,10.99v546.42c0.01,6.07,4.93,10.98,10.99,10.99h388.73c6.07-0.01,10.98-4.93,10.99-10.99V21.39
		c-0.01-6.07-4.93-10.98-10.99-10.99H704.9z"/>
	<path class="st1" d="M378.96,297.41c0.14-0.85,0.21-1.7,0.22-2.56c0.02-8.99-7.25-16.3-16.25-16.33c-0.91,0-1.82,0.07-2.72,0.22
		c-5.29-8.82-16.73-11.68-25.55-6.39c-4.08,2.45-7.07,6.36-8.35,10.94c-1.16-0.37-2.37-0.55-3.58-0.54
		c-6.67,0-12.08,5.41-12.08,12.08c0,0.86,0.1,1.72,0.28,2.56L378.96,297.41z"/>
	<rect x="410.29" y="349.33" class="st2" width="51.78" height="287.93"/>
	<rect x="493" y="260.39" class="st3" width="51.78" height="376.87"/>
	<rect x="906.63" y="301.32" class="st1" width="51.78" height="335.95"/>
	<rect x="575.72" y="356.19" class="st1" width="51.78" height="281.09"/>
	<rect x="823.9" y="306.37" class="st3" width="51.78" height="330.89"/>
	<rect x="741.18" y="198.43" class="st2" width="51.78" height="438.84"/>
	<rect x="327.57" y="415.78" class="st3" width="51.78" height="219.37"/>
	<rect x="989.35" y="152.61" class="st2" width="51.78" height="482.54"/>
	<rect x="658.46" y="278" class="st3" width="51.78" height="359.26"/>
	<path class="st2" d="M1056.77,113.8c0.21-1.17,0.32-2.35,0.32-3.54c0-12.54-10.17-22.71-22.71-22.71c-1.23,0-2.47,0.11-3.68,0.32
		c-7.34-12.27-23.24-16.26-35.51-8.92c-5.69,3.4-9.85,8.86-11.64,15.24c-1.62-0.51-3.31-0.77-5.01-0.76
		c-9.29,0-16.83,7.53-16.83,16.83c0,1.19,0.13,2.38,0.38,3.54L1056.77,113.8z"/>
	<path class="st2" d="M706.71,105.06c0.24-1.49,0.37-3,0.38-4.51c0-15.88-12.87-28.75-28.75-28.75c-0.01,0-0.03,0-0.04,0
		c-1.56,0.01-3.13,0.15-4.67,0.4c-9.3-15.53-29.43-20.58-44.96-11.27c-7.21,4.32-12.48,11.23-14.73,19.33
		c-11.29-3.45-23.24,2.91-26.69,14.21c-0.61,1.99-0.92,4.05-0.93,6.13c0,1.52,0.17,3.03,0.5,4.51L706.71,105.06z"/>
	<path class="st2" d="M554.18,157.8c0.13-0.85,0.21-1.7,0.22-2.56c0.14-8.89-6.95-16.22-15.85-16.36c-1.04-0.02-2.09,0.07-3.12,0.25
		c-5.28-8.82-16.72-11.69-25.54-6.41c-4.08,2.44-7.07,6.36-8.36,10.93c-1.16-0.36-2.37-0.54-3.58-0.54
		c-6.67,0-12.08,5.41-12.08,12.08l0,0c0,0.86,0.1,1.72,0.28,2.56L554.18,157.8z"/>
</g>
<g id="freepik--Shadow--inject-176">
	<ellipse id="freepik--path--inject-176" class="st2" cx="680.44" cy="737.21" rx="390.32" ry="22.79"/>
</g>
<g id="freepik--Graphic--inject-176">
	<polygon class="st4" points="394.16,390.58 391.6,387.05 575.86,253.18 699.29,345.06 798.59,274.54 904.38,340.13 1042.28,166.84 
		1045.56,169.68 905.27,345.76 798.77,279.76 699.23,350.46 697.96,349.51 575.84,258.58 	"/>
	<g class="st5">
		<polygon class="st6" points="394.16,390.58 391.6,387.05 575.86,253.18 699.29,345.06 798.59,274.54 904.38,340.13 
			1042.28,166.84 1045.56,169.68 905.27,345.76 798.77,279.76 699.23,350.46 697.96,349.51 575.84,258.58 		"/>
	</g>
	<circle class="st4" cx="392.87" cy="388.8" r="10.85"/>
	<path class="st4" d="M580.98,257.61c-0.66,4.31-4.69,7.27-9,6.6c-4.31-0.66-7.27-4.69-6.6-9c0.66-4.3,4.68-7.26,8.98-6.61
		c4.31,0.65,7.28,4.67,6.63,8.98C580.98,257.6,580.98,257.61,580.98,257.61z"/>
	<circle class="st4" cx="798.71" cy="278.79" r="6.58"/>
	<path class="st4" d="M709.41,349.31c-0.85,5.61-6.09,9.46-11.69,8.61s-9.46-6.09-8.61-11.69c0.85-5.6,6.08-9.45,11.68-8.61
		C706.4,338.47,710.25,343.7,709.41,349.31z"/>
	<path class="st4" d="M912.47,344.17c-0.65,4.22-4.6,7.11-8.81,6.47s-7.11-4.6-6.47-8.81c0.65-4.21,4.58-7.11,8.8-6.47
		c4.22,0.64,7.12,4.58,6.48,8.8C912.47,344.16,912.47,344.17,912.47,344.17z"/>
	<polygon class="st4" points="1053.53,153.59 1013.35,179.97 1036.64,198.59 	"/>
</g>
<g id="freepik--Coins--inject-176">
	<path class="st4" d="M934.38,737.71L934.38,737.71v-22.35l0,0l-2.01-2.01c-0.64-0.64-1.31-1.29-2.13-2.13H784.02l-1.91,2.01
		l-2.36,2.32l0,0v22.35l0,0l2.36,2.29l1.91,2.01h146.13l2.01-2.01l2.21-2.17V737.71z"/>
	<path class="st4" d="M947.26,706.97L947.26,706.97v-22.35l0,0l-2.11-2.01l-2.11-2.25H796.9l-2.01,1.91l-2.34,2.32l0,0v22.33l0,0
		l2.34,2.32l2.01,1.91h146.13l2.01-2.01l2.21-2.19V706.97z"/>
	<path class="st4" d="M934.38,676.34L934.38,676.34v-22.43l0,0l-2.01-2.01l-2.13-2.13H784.02l-1.91,1.91l-2.36,2.32l0,0v22.35l0,0
		l2.36,2.32l1.91,1.91h146.13l2.01-2.01l2.21-2.19V676.34z"/>
	<path class="st4" d="M922.34,645.54L922.34,645.54v-22.39l0,0l-2.13-2.01l-2.13-2.13H771.98l-1.91,1.91l-2.34,2.32l0,0l0,0v22.33
		l0,0l2.34,2.29l1.91,2.01h146.13l2.01-2.01c0.66-0.66,1.33-1.33,2.21-2.17V645.54z"/>
	<path class="st4" d="M952.43,614.8L952.43,614.8v-22.35l0,0l-2.11-2.01l-2.15-2.13H802.07l-2.01,1.91l-2.34,2.32l0,0v22.33l0,0
		l2.34,2.32l2.01,1.91h146.11l2.01-2.01l2.21-2.19L952.43,614.8z"/>
	<path class="st4" d="M928.36,584.08L928.36,584.08v-22.35l0,0l-2.01-2.01l-2.21-2.15H778l-1.91,2.01l-2.34,2.32l0,0v22.33l0,0
		l2.34,2.32l1.91,1.91h146.13l2.01-2.01l2.19-2.19L928.36,584.08z"/>
	<path class="st4" d="M942.02,553.36L942.02,553.36v-22.39l0,0l-2.13-2.01l-2.13-2.11H791.75l-2.01,1.89l-2.34,2.32l0,0l0,0v22.28
		l0,0l2.34,2.29l2.01,2.01h146.13l2.01-2.01c0.66-0.66,1.33-1.33,2.21-2.17L942.02,553.36z"/>
	<path class="st4" d="M729.72,737.71L729.72,737.71v-22.35l0,0l-2.11-2.01l-2.13-2.13H579.37l-1.91,2.01l-2.34,2.32l0,0v22.35l0,0
		l2.34,2.29l1.91,2.01H725.5l2.01-2.01l2.21-2.17V737.71z"/>
	<path class="st4" d="M742.61,706.97L742.61,706.97v-22.35l0,0l-2.01-2.01l-2.21-2.25H592.27l-2.01,1.91l-2.34,2.32l0,0v22.33l0,0
		l2.34,2.32l2.01,1.91h146.11l2.01-2.01l2.21-2.19V706.97z"/>
	<path class="st4" d="M729.72,676.34L729.72,676.34v-22.43l0,0l-2.11-2.01l-2.13-2.13H579.37l-1.91,1.91
		c-0.72,0.7-1.43,1.39-2.34,2.32l0,0v22.35l0,0l2.34,2.32l1.91,1.91H725.5l2.01-2.01l2.21-2.19V676.34z"/>
	<path class="st4" d="M717.69,645.54L717.69,645.54v-22.39l0,0l-2.13-2.01l-2.13-2.13H567.33l-2.01,1.91l-2.34,2.32l0,0l0,0v22.33
		l0,0l2.34,2.29l2.01,2.01h146.13l2.01-2.01l2.21-2.17V645.54z"/>
	<path class="st4" d="M747.78,614.8L747.78,614.8v-22.35l0,0l-2.01-2.01l-2.15-2.13H597.42l-2.01,1.91l-2.34,2.32l0,0v22.33l0,0
		l2.34,2.32l2.01,1.91h146.11l2.01-2.01l2.21-2.19L747.78,614.8z"/>
	<path class="st4" d="M785,584.08L785,584.08v-22.35l0,0l-2.11-2.01c-0.64-0.64-1.31-1.29-2.13-2.13H634.56l-2.01,2.01l-2.34,2.32
		l0,0v22.33l0,0c0.93,0.91,1.63,1.59,2.34,2.32l2.01,1.91H780.7l2.01-2.01l2.21-2.19L785,584.08z"/>
	<path class="st4" d="M798.67,553.36L798.67,553.36v-22.35l0,0l0,0l-2.11-2.01l-2.13-2.11H648.31l-1.91,1.89l-2.32,2.19l0,0v22.37
		l0,0l2.34,2.29l2.01,2.01h146.13l2.01-2.01l2.21-2.17L798.67,553.36z"/>
	<g class="st7">
		<path d="M729.72,737.71L729.72,737.71v-22.35l0,0l-2.11-2.01l-2.13-2.13H579.37l-1.91,2.01l-2.34,2.32l0,0v22.35l0,0l2.34,2.29
			l1.91,2.01H725.5l2.01-2.01l2.21-2.17V737.71z"/>
	</g>
	<g class="st7">
		<path d="M742.61,706.97L742.61,706.97v-22.35l0,0l-2.01-2.01l-2.21-2.25H592.27l-2.01,1.91l-2.34,2.32l0,0v22.33l0,0l2.34,2.32
			l2.01,1.91h146.11l2.01-2.01l2.21-2.19V706.97z"/>
	</g>
	<g class="st8">
		<path d="M729.72,676.34L729.72,676.34v-22.43l0,0l-2.11-2.01l-2.13-2.13H579.37l-1.91,1.91c-0.72,0.7-1.43,1.39-2.34,2.32l0,0
			v22.35l0,0l2.34,2.32l1.91,1.91H725.5l2.01-2.01l2.21-2.19V676.34z"/>
	</g>
	<g class="st7">
		<path d="M717.69,645.54L717.69,645.54v-22.39l0,0l-2.13-2.01l-2.13-2.13H567.33l-2.01,1.91l-2.34,2.32l0,0l0,0v22.33l0,0
			l2.34,2.29l2.01,2.01h146.13l2.01-2.01l2.21-2.17V645.54z"/>
	</g>
	<g class="st8">
		<path d="M747.78,614.8L747.78,614.8v-22.35l0,0l-2.01-2.01l-2.15-2.13H597.42l-2.01,1.91l-2.34,2.32l0,0v22.33l0,0l2.34,2.32
			l2.01,1.91h146.11l2.01-2.01l2.21-2.19L747.78,614.8z"/>
	</g>
	<g class="st7">
		<path d="M785,584.08L785,584.08v-22.35l0,0l-2.11-2.01c-0.64-0.64-1.31-1.29-2.13-2.13H634.56l-2.01,2.01l-2.34,2.32l0,0v22.33
			l0,0c0.93,0.91,1.63,1.59,2.34,2.32l2.01,1.91H780.7l2.01-2.01l2.21-2.19L785,584.08z"/>
	</g>
	<g class="st8">
		<path d="M798.67,553.36L798.67,553.36v-22.35l0,0l0,0l-2.11-2.01l-2.13-2.11H648.31l-1.91,1.89l-2.32,2.19l0,0v22.37l0,0
			l2.34,2.29l2.01,2.01h146.13l2.01-2.01l2.21-2.17L798.67,553.36z"/>
	</g>
	<g class="st9">
		<path d="M934.38,737.71L934.38,737.71v-22.35l0,0l-2.01-2.01c-0.64-0.64-1.31-1.29-2.13-2.13H784.02l-1.91,2.01l-2.36,2.32l0,0
			v22.35l0,0l2.36,2.29l1.91,2.01h146.13l2.01-2.01l2.21-2.17V737.71z"/>
	</g>
	<g class="st9">
		<path d="M947.26,706.97L947.26,706.97v-22.35l0,0l-2.11-2.01l-2.11-2.25H796.9l-2.01,1.91l-2.34,2.32l0,0v22.33l0,0l2.34,2.32
			l2.01,1.91h146.13l2.01-2.01l2.21-2.19V706.97z"/>
	</g>
	<g class="st10">
		<path d="M934.38,676.34L934.38,676.34v-22.43l0,0l-2.01-2.01l-2.13-2.13H784.02l-1.91,1.91l-2.36,2.32l0,0v22.35l0,0l2.36,2.32
			l1.91,1.91h146.13l2.01-2.01l2.21-2.19V676.34z"/>
	</g>
	<g class="st9">
		<path d="M922.34,645.54L922.34,645.54v-22.39l0,0l-2.13-2.01l-2.13-2.13H771.98l-1.91,1.91l-2.34,2.32l0,0l0,0v22.33l0,0
			l2.34,2.29l1.91,2.01h146.13l2.01-2.01c0.66-0.66,1.33-1.33,2.21-2.17V645.54z"/>
	</g>
	<g class="st10">
		<path d="M952.43,614.8L952.43,614.8v-22.35l0,0l-2.11-2.01l-2.15-2.13H802.07l-2.01,1.91l-2.34,2.32l0,0v22.33l0,0l2.34,2.32
			l2.01,1.91h146.11l2.01-2.01l2.21-2.19L952.43,614.8z"/>
	</g>
	<g class="st9">
		<path d="M928.36,584.08L928.36,584.08v-22.35l0,0l-2.01-2.01l-2.21-2.15H778l-1.91,2.01l-2.34,2.32l0,0v22.33l0,0l2.34,2.32
			l1.91,1.91h146.13l2.01-2.01l2.19-2.19L928.36,584.08z"/>
	</g>
	<g class="st10">
		<path d="M942.02,553.36L942.02,553.36v-22.39l0,0l-2.13-2.01l-2.13-2.11H791.75l-2.01,1.89l-2.34,2.32l0,0l0,0v22.28l0,0
			l2.34,2.29l2.01,2.01h146.13l2.01-2.01c0.66-0.66,1.33-1.33,2.21-2.17L942.02,553.36z"/>
	</g>
	<path class="st4" d="M826.39,469.55v22.33l-4.25,4.25H676.01l-4.25-4.25v-22.33l4.25-4.25h146.13
		C823.82,466.97,824.76,467.88,826.39,469.55z"/>
	<g class="st10">
		<path class="st6" d="M826.39,469.55v22.33l-4.25,4.25H676.01l-4.25-4.25v-22.33l4.25-4.25h146.13
			C823.82,466.97,824.76,467.88,826.39,469.55z"/>
	</g>
	<g class="st10">
		<rect x="671.77" y="477.58" class="st6" width="154.63" height="11.17"/>
	</g>
	<g class="st8">
		<path d="M676.03,496.12h146.09l4.29-4.23H671.77L676.03,496.12z"/>
	</g>
	<g class="st10">
		<path class="st6" d="M822.12,465.3H676.03l-4.27,4.23h154.65L822.12,465.3z"/>
	</g>
	<g class="st8">
		<rect x="740.9" y="465.3" class="st6" width="29.65" height="30.82"/>
	</g>
	<g class="st8">
		<rect x="783.61" y="465.3" class="st6" width="14.82" height="30.82"/>
	</g>
	<path class="st4" d="M853.05,500.27v22.33l-4.25,4.25H702.67l-4.23-4.25v-22.33c1.65-1.67,2.58-2.58,4.25-4.25h146.13
		C850.47,497.69,851.44,498.6,853.05,500.27z"/>
	<g class="st10">
		<path class="st6" d="M853.05,500.27v22.33l-4.25,4.25H702.67l-4.23-4.25v-22.33c1.65-1.67,2.58-2.58,4.25-4.25h146.13
			C850.47,497.69,851.44,498.6,853.05,500.27z"/>
	</g>
	<g class="st10">
		<rect x="698.42" y="508.3" class="st6" width="154.63" height="11.17"/>
	</g>
	<g class="st8">
		<path d="M702.69,526.84h146.09l4.27-4.23H698.44L702.69,526.84z"/>
	</g>
	<g class="st10">
		<path class="st6" d="M848.78,496.02H702.69l-4.29,4.23h154.65L848.78,496.02z"/>
	</g>
	<g class="st8">
		<rect x="767.55" y="496.02" class="st6" width="29.65" height="30.82"/>
	</g>
	<g class="st8">
		<rect x="810.25" y="496.02" class="st6" width="14.82" height="30.82"/>
	</g>
	<path class="st4" d="M842.74,530.99v22.35l-4.25,4.23H692.4l-4.25-4.25v-22.33l4.25-4.25h146.13L842.74,530.99z"/>
	<g class="st10">
		<path class="st6" d="M842.74,530.99v22.35l-4.25,4.23H692.4l-4.25-4.25v-22.33l4.25-4.25h146.13L842.74,530.99z"/>
	</g>
	<g class="st10">
		<rect x="688.11" y="539.02" class="st6" width="154.63" height="11.17"/>
	</g>
	<g class="st8">
		<path d="M692.4,557.56h146.09l4.27-4.23H688.11L692.4,557.56z"/>
	</g>
	<g class="st10">
		<path class="st6" d="M838.47,526.74H692.4l-4.27,4.23h154.63L838.47,526.74z"/>
	</g>
	<g class="st8">
		<rect x="757.24" y="526.74" class="st6" width="29.65" height="30.82"/>
	</g>
	<g class="st8">
		<rect x="799.94" y="526.74" class="st6" width="14.82" height="30.82"/>
	</g>
	<path class="st4" d="M828.99,561.73v22.33l-4.25,4.25H678.61l-4.33-4.25v-22.33l4.25-4.25h146.13L828.99,561.73z"/>
	<g class="st10">
		<path class="st6" d="M828.99,561.73v22.33l-4.25,4.25H678.61l-4.33-4.25v-22.33l4.25-4.25h146.13L828.99,561.73z"/>
	</g>
	<g class="st10">
		<rect x="674.36" y="569.76" class="st6" width="154.63" height="11.17"/>
	</g>
	<g class="st8">
		<path d="M678.63,588.3h146.09l4.27-4.23H674.28L678.63,588.3z"/>
	</g>
	<g class="st10">
		<path class="st6" d="M824.72,557.56H678.63l-4.35,4.13h154.65L824.72,557.56z"/>
	</g>
	<g class="st8">
		<rect x="743.49" y="557.48" class="st6" width="29.65" height="30.82"/>
	</g>
	<g class="st8">
		<rect x="786.19" y="557.48" class="st6" width="14.82" height="30.82"/>
	</g>
	<path class="st4" d="M853.05,592.45v22.33l-4.25,4.25H702.67l-4.23-4.25v-22.33l4.25-4.25h146.13L853.05,592.45z"/>
	<g class="st10">
		<path class="st6" d="M853.05,592.45v22.33l-4.25,4.25H702.67l-4.23-4.25v-22.33l4.25-4.25h146.13L853.05,592.45z"/>
	</g>
	<g class="st10">
		<rect x="698.42" y="600.48" class="st6" width="154.63" height="11.17"/>
	</g>
	<g class="st8">
		<path d="M702.69,619.02h146.09l4.27-4.23H698.44L702.69,619.02z"/>
	</g>
	<g class="st10">
		<path class="st6" d="M848.78,588.2H702.69l-4.29,4.23h154.65L848.78,588.2z"/>
	</g>
	<g class="st8">
		<rect x="767.55" y="588.2" class="st6" width="29.65" height="30.82"/>
	</g>
	<g class="st8">
		<rect x="810.25" y="588.2" class="st6" width="14.82" height="30.82"/>
	</g>
	<path class="st4" d="M822.97,623.17v22.33l-4.27,4.27H672.59l-4.25-4.27v-22.33c1.63-1.67,2.58-2.58,4.25-4.25H818.7
		C820.37,620.59,821.24,621.5,822.97,623.17z"/>
	<g class="st10">
		<path class="st6" d="M822.97,623.17v22.33l-4.27,4.27H672.59l-4.25-4.27v-22.33c1.63-1.67,2.58-2.58,4.25-4.25H818.7
			C820.37,620.59,821.24,621.5,822.97,623.17z"/>
	</g>
	<g class="st10">
		<rect x="668.34" y="631.2" class="st6" width="154.63" height="11.17"/>
	</g>
	<g class="st8">
		<path d="M672.59,649.74H818.7l4.27-4.23H668.24L672.59,649.74z"/>
	</g>
	<g class="st10">
		<path class="st6" d="M818.7,618.92H672.59l-4.27,4.23h154.65L818.7,618.92z"/>
	</g>
	<g class="st8">
		<rect x="737.45" y="618.92" class="st6" width="29.65" height="30.82"/>
	</g>
	<g class="st8">
		<rect x="780.17" y="618.92" class="st6" width="14.82" height="30.82"/>
	</g>
	<path class="st4" d="M834.99,653.91v22.43l-4.25,4.25H684.61l-4.29-4.25v-22.43c1.65-1.67,2.58-2.58,4.25-4.25H830.7
		C832.41,651.33,833.32,652.18,834.99,653.91z"/>
	<g class="st10">
		<path class="st6" d="M834.99,653.91v22.43l-4.25,4.25H684.61l-4.29-4.25v-22.43c1.65-1.67,2.58-2.58,4.25-4.25H830.7
			C832.41,651.33,833.32,652.18,834.99,653.91z"/>
	</g>
	<g class="st10">
		<rect x="680.36" y="661.94" class="st6" width="154.63" height="11.17"/>
	</g>
	<g class="st8">
		<path d="M684.63,680.46h146.09l4.29-4.21H680.32L684.63,680.46z"/>
	</g>
	<g class="st10">
		<path class="st6" d="M830.72,649.66H684.63l-4.31,4.21h154.65L830.72,649.66z"/>
	</g>
	<g class="st8">
		<rect x="749.49" y="649.66" class="st6" width="29.65" height="30.82"/>
	</g>
	<g class="st8">
		<rect x="792.21" y="649.66" class="st6" width="14.82" height="30.82"/>
	</g>
	<path class="st4" d="M869.55,684.63v22.33l-4.25,4.25H719.13l-4.25-4.25v-22.33l4.25-4.25h146.13L869.55,684.63z"/>
	<g class="st10">
		<path class="st6" d="M869.55,684.63v22.33l-4.25,4.25H719.13l-4.25-4.25v-22.33l4.25-4.25h146.13L869.55,684.63z"/>
	</g>
	<g class="st10">
		<rect x="714.89" y="692.66" class="st6" width="154.63" height="11.17"/>
	</g>
	<g class="st8">
		<path d="M719.15,711.2h146.09l4.29-4.23H714.89L719.15,711.2z"/>
	</g>
	<g class="st10">
		<path class="st6" d="M865.25,680.36H719.15l-4.27,4.23h154.67L865.25,680.36z"/>
	</g>
	<g class="st8">
		<rect x="784.02" y="680.38" class="st6" width="29.65" height="30.82"/>
	</g>
	<g class="st8">
		<rect x="826.73" y="680.38" class="st6" width="14.82" height="30.82"/>
	</g>
	<path class="st4" d="M834.99,715.35v22.33l-4.25,4.25H684.61l-4.29-4.25v-22.33c1.65-1.67,2.6-2.58,4.25-4.25H830.7
		C832.41,712.77,833.32,713.68,834.99,715.35z"/>
	<g class="st10">
		<path class="st6" d="M834.99,715.35v22.33l-4.25,4.25H684.61l-4.29-4.25v-22.33c1.65-1.67,2.6-2.58,4.25-4.25H830.7
			C832.41,712.77,833.32,713.68,834.99,715.35z"/>
	</g>
	<g class="st10">
		<rect x="680.36" y="723.38" class="st6" width="154.63" height="11.17"/>
	</g>
	<g class="st8">
		<path d="M684.63,741.92h146.09l4.29-4.23H680.32L684.63,741.92z"/>
	</g>
	<g class="st10">
		<path class="st6" d="M830.72,711.1H684.63l-4.27,4.23h154.65L830.72,711.1z"/>
	</g>
	<g class="st8">
		<rect x="749.49" y="711.1" class="st6" width="29.65" height="30.82"/>
	</g>
	<g class="st8">
		<rect x="792.21" y="711.1" class="st6" width="14.82" height="30.82"/>
	</g>
	<path class="st4" d="M646.72,623.17v22.33l-4.25,4.27H496.35l-4.25-4.27v-22.33l4.25-4.25h146.13L646.72,623.17z"/>
	<g class="st10">
		<path class="st6" d="M646.72,623.17v22.33l-4.25,4.27H496.35l-4.25-4.27v-22.33l4.25-4.25h146.13L646.72,623.17z"/>
	</g>
	<g class="st10">
		<rect x="492.1" y="631.2" class="st6" width="154.63" height="11.17"/>
	</g>
	<g class="st8">
		<path d="M496.37,649.74h146.09l4.27-4.23H492.08L496.37,649.74z"/>
	</g>
	<g class="st10">
		<path class="st6" d="M642.46,618.92H496.37l-4.29,4.23h154.65L642.46,618.92z"/>
	</g>
	<g class="st8">
		<rect x="561.23" y="618.92" class="st6" width="29.65" height="30.82"/>
	</g>
	<g class="st8">
		<rect x="603.93" y="618.92" class="st6" width="14.82" height="30.82"/>
	</g>
	<path class="st4" d="M658.74,653.91v22.43l-4.25,4.25H508.38l-4.25-4.25v-22.43c1.63-1.67,2.58-2.58,4.25-4.25h146.11
		C656.16,651.33,657.11,652.18,658.74,653.91z"/>
	<g class="st10">
		<path class="st6" d="M658.74,653.91v22.43l-4.25,4.25H508.38l-4.25-4.25v-22.43c1.63-1.67,2.58-2.58,4.25-4.25h146.11
			C656.16,651.33,657.11,652.18,658.74,653.91z"/>
	</g>
	<g class="st10">
		<rect x="504.14" y="661.94" class="st6" width="154.63" height="11.17"/>
	</g>
	<g class="st8">
		<path d="M508.38,680.46h146.11l4.27-4.21H504.12L508.38,680.46z"/>
	</g>
	<g class="st10">
		<path class="st6" d="M654.49,649.66H508.38l-4.27,4.21h154.65C657.09,652.18,656.16,651.31,654.49,649.66z"/>
	</g>
	<g class="st8">
		<rect x="573.25" y="649.66" class="st6" width="29.65" height="30.82"/>
	</g>
	<g class="st8">
		<rect x="615.96" y="649.66" class="st6" width="14.82" height="30.82"/>
	</g>
	<path class="st4" d="M670.62,684.63v22.33l-4.25,4.25H520.24l-4.25-4.25v-22.33l4.25-4.25h146.13L670.62,684.63z"/>
	<g class="st10">
		<path class="st6" d="M670.62,684.63v22.33l-4.25,4.25H520.24l-4.25-4.25v-22.33l4.25-4.25h146.13L670.62,684.63z"/>
	</g>
	<g class="st10">
		<rect x="515.99" y="692.66" class="st6" width="154.63" height="11.17"/>
	</g>
	<g class="st8">
		<path d="M520.26,711.2h146.09l4.27-4.23H515.97L520.26,711.2z"/>
	</g>
	<g class="st10">
		<path class="st6" d="M666.35,680.36H520.26l-4.29,4.23h154.65L666.35,680.36z"/>
	</g>
	<g class="st8">
		<rect x="585.12" y="680.38" class="st6" width="29.65" height="30.82"/>
	</g>
	<g class="st8">
		<rect x="627.82" y="680.38" class="st6" width="14.82" height="30.82"/>
	</g>
	<path class="st4" d="M636.03,715.35v22.33l-4.25,4.25H485.72l-4.25-4.25v-22.33l4.25-4.25h146.13L636.03,715.35z"/>
	<g class="st10">
		<path class="st6" d="M636.03,715.35v22.33l-4.25,4.25H485.72l-4.25-4.25v-22.33l4.25-4.25h146.13L636.03,715.35z"/>
	</g>
	<g class="st10">
		<rect x="481.47" y="723.38" class="st6" width="154.63" height="11.17"/>
	</g>
	<g class="st8">
		<path d="M485.74,741.92h146.09l4.27-4.23H481.45L485.74,741.92z"/>
	</g>
	<g class="st10">
		<path class="st6" d="M631.83,711.1H485.74l-4.29,4.23h154.59L631.83,711.1z"/>
	</g>
	<g class="st8">
		<rect x="550.6" y="711.1" class="st6" width="29.65" height="30.82"/>
	</g>
	<g class="st8">
		<rect x="593.3" y="711.1" class="st6" width="14.82" height="30.82"/>
	</g>
	<path class="st4" d="M1031.45,561.73v22.33l-4.25,4.25H881.07l-4.25-4.25v-22.33l4.25-4.25h146.13L1031.45,561.73z"/>
	<g class="st10">
		<path class="st6" d="M1031.45,561.73v22.33l-4.25,4.25H881.07l-4.25-4.25v-22.33l4.25-4.25h146.13L1031.45,561.73z"/>
	</g>
	<g class="st10">
		<rect x="876.82" y="569.76" class="st6" width="154.63" height="11.17"/>
	</g>
	<g class="st8">
		<path d="M881.09,588.3h146.09l4.27-4.23H876.82L881.09,588.3z"/>
	</g>
	<g class="st10">
		<path class="st6" d="M1027.18,557.56H881.09l-4.27,4.21h154.63L1027.18,557.56z"/>
	</g>
	<g class="st8">
		<rect x="945.95" y="557.48" class="st6" width="29.65" height="30.82"/>
	</g>
	<g class="st8">
		<rect x="988.65" y="557.48" class="st6" width="14.82" height="30.82"/>
	</g>
	<path class="st4" d="M1055.5,592.45v22.33l-4.25,4.25H905.12l-4.25-4.25v-22.33l4.25-4.25h146.13L1055.5,592.45z"/>
	<g class="st10">
		<path class="st6" d="M1055.5,592.45v22.33l-4.25,4.25H905.12l-4.25-4.25v-22.33l4.25-4.25h146.13L1055.5,592.45z"/>
	</g>
	<g class="st10">
		<rect x="900.88" y="600.48" class="st6" width="154.63" height="11.17"/>
	</g>
	<g class="st8">
		<path d="M905.14,619.02h146.09l4.27-4.23H900.88L905.14,619.02z"/>
	</g>
	<g class="st10">
		<path class="st6" d="M1051.24,588.2H905.14l-4.27,4.23h154.63L1051.24,588.2z"/>
	</g>
	<g class="st8">
		<rect x="970.01" y="588.2" class="st6" width="29.65" height="30.82"/>
	</g>
	<g class="st8">
		<rect x="1012.7" y="588.2" class="st6" width="14.82" height="30.82"/>
	</g>
	<path class="st4" d="M1025.43,623.17v22.33l-4.27,4.27H875.05l-4.25-4.27v-22.33c1.63-1.67,2.58-2.58,4.25-4.25h146.11
		C1022.83,620.59,1023.78,621.5,1025.43,623.17z"/>
	<g class="st10">
		<path class="st6" d="M1025.43,623.17v22.33l-4.27,4.27H875.05l-4.25-4.27v-22.33c1.63-1.67,2.58-2.58,4.25-4.25h146.11
			C1022.83,620.59,1023.78,621.5,1025.43,623.17z"/>
	</g>
	<g class="st10">
		<rect x="870.8" y="631.2" class="st6" width="154.63" height="11.17"/>
	</g>
	<g class="st8">
		<path d="M875.05,649.74h146.11l4.27-4.23H870.78L875.05,649.74z"/>
	</g>
	<g class="st10">
		<path class="st6" d="M1021.16,618.92H875.05l-4.27,4.23h154.65L1021.16,618.92z"/>
	</g>
	<g class="st8">
		<rect x="939.91" y="618.92" class="st6" width="29.65" height="30.82"/>
	</g>
	<g class="st8">
		<rect x="982.63" y="618.92" class="st6" width="14.82" height="30.82"/>
	</g>
	<path class="st4" d="M1037.45,653.91v22.43l-4.25,4.25H887.07l-4.25-4.25v-22.43l4.25-4.25h146.13
		C1034.87,651.33,1035.82,652.18,1037.45,653.91z"/>
	<g class="st10">
		<path class="st6" d="M1037.45,653.91v22.43l-4.25,4.25H887.07l-4.25-4.25v-22.43l4.25-4.25h146.13
			C1034.87,651.33,1035.82,652.18,1037.45,653.91z"/>
	</g>
	<g class="st10">
		<rect x="882.82" y="661.94" class="st6" width="154.63" height="11.17"/>
	</g>
	<g class="st8">
		<path d="M887.09,680.46h146.09l4.29-4.21H882.82L887.09,680.46z"/>
	</g>
	<g class="st10">
		<path class="st6" d="M1033.18,649.66H887.09l-4.27,4.21h154.65L1033.18,649.66z"/>
	</g>
	<g class="st8">
		<rect x="951.95" y="649.66" class="st6" width="29.65" height="30.82"/>
	</g>
	<g class="st8">
		<rect x="994.67" y="649.66" class="st6" width="14.82" height="30.82"/>
	</g>
	<path class="st4" d="M1050.51,684.63v22.33l-4.25,4.25H900.15l-4.27-4.25v-22.33c1.65-1.67,2.6-2.58,4.27-4.25h146.11
		C1047.93,682.05,1048.88,682.96,1050.51,684.63z"/>
	<g class="st10">
		<path class="st6" d="M1050.51,684.63v22.33l-4.25,4.25H900.15l-4.27-4.25v-22.33c1.65-1.67,2.6-2.58,4.27-4.25h146.11
			C1047.93,682.05,1048.88,682.96,1050.51,684.63z"/>
	</g>
	<g class="st10">
		<rect x="895.88" y="692.66" class="st6" width="154.63" height="11.17"/>
	</g>
	<g class="st8">
		<path d="M900.15,711.2h146.09l4.29-4.23H895.88L900.15,711.2z"/>
	</g>
	<g class="st10">
		<path class="st6" d="M1046.24,680.36H900.15l-4.27,4.23h154.65L1046.24,680.36z"/>
	</g>
	<g class="st8">
		<rect x="965.01" y="680.38" class="st6" width="29.65" height="30.82"/>
	</g>
	<g class="st8">
		<rect x="1007.73" y="680.38" class="st6" width="14.82" height="30.82"/>
	</g>
	<path class="st4" d="M1037.45,715.35v22.33l-4.25,4.25H887.09l-4.27-4.25v-22.33c1.65-1.67,2.6-2.58,4.27-4.25h146.11
		C1034.87,712.77,1035.82,713.68,1037.45,715.35z"/>
	<g class="st10">
		<path class="st6" d="M1037.45,715.35v22.33l-4.25,4.25H887.09l-4.27-4.25v-22.33c1.65-1.67,2.6-2.58,4.27-4.25h146.11
			C1034.87,712.77,1035.82,713.68,1037.45,715.35z"/>
	</g>
	<g class="st10">
		<rect x="882.82" y="723.38" class="st6" width="154.63" height="11.17"/>
	</g>
	<g class="st8">
		<path d="M887.09,741.92h146.09l4.29-4.23H882.82L887.09,741.92z"/>
	</g>
	<g class="st10">
		<path class="st6" d="M1033.18,711.1H887.09l-4.27,4.23h154.65L1033.18,711.1z"/>
	</g>
	<g class="st8">
		<rect x="951.95" y="711.1" class="st6" width="29.65" height="30.82"/>
	</g>
	<g class="st8">
		<rect x="994.67" y="711.1" class="st6" width="14.82" height="30.82"/>
	</g>
</g>
<g id="freepik--plant-3--inject-176">
	<path class="st4" d="M930.85,474.5c0,0-5.09,9.12,3.06,21.54c4.81,7.33,11.39,9.42,15.4,6.8s4.77-9.48,0-16.83
		C941.28,473.54,930.85,474.5,930.85,474.5z"/>
	<path class="st11" d="M930.85,474.5c0,0-5.09,9.12,3.06,21.54c4.81,7.33,11.39,9.42,15.4,6.8s4.77-9.48,0-16.83
		C941.28,473.54,930.85,474.5,930.85,474.5z"/>
	<path class="st4" d="M1003.08,431.12c0,0-17.65-3.91-34.22,15.72c-9.74,11.58-9.94,23.51-3.64,28.87c6.3,5.35,18.12,3.2,27.88-8.29
		C1009.83,447.89,1003.08,431.12,1003.08,431.12z"/>
	<path class="st4" d="M979.91,353.19c0,0-3.93,1.09-5.15,6.76c-0.72,3.34,0.5,5.76,2.32,6.04s4.03-1.27,4.71-4.61
		C982.67,358.52,981.96,355.39,979.91,353.19z"/>
	<path class="st4" d="M948.67,527.91c-2.26-8.03-3.32-16.36-3.14-24.7c0.18-8.09,1.36-16.13,3.52-23.94
		c1.07-3.82,2.32-7.59,3.74-11.25c0.7-1.83,1.45-3.62,2.25-5.42c0.38-0.91,0.81-1.77,1.21-2.66l0.6-1.29l0.58-1.25
		c3.16-6.62,6.16-13.29,8.86-20.13c2.73-6.74,5.1-13.61,7.11-20.59c2.01-6.97,3.41-14.11,4.19-21.32c0.8-7.22,0.57-14.51-0.68-21.66
		c-1.28-7.25-4.02-14.16-8.05-20.31c4.81,5.79,8.4,12.49,10.55,19.71c2.12,7.31,3.2,14.88,3.2,22.49c0.03,7.6-0.59,15.19-1.87,22.69
		c-1.26,7.46-2.92,14.86-4.97,22.14c-2.01,7.29-4.33,14.47-6.78,21.58l-0.46,1.33l-0.22,0.66l-0.2,0.62
		c-0.28,0.83-0.58,1.67-0.83,2.52c-0.52,1.67-1.03,3.36-1.47,5.05c-0.89,3.36-1.61,6.76-2.15,10.17
		c-1.07,6.65-1.32,13.42-0.72,20.13c0.59,6.49,2.15,12.86,4.61,18.9L948.67,527.91z"/>
	<path class="st12" d="M948.67,527.91c-2.26-8.03-3.32-16.36-3.14-24.7c0.18-8.09,1.36-16.13,3.52-23.94
		c1.07-3.82,2.32-7.59,3.74-11.25c0.7-1.83,1.45-3.62,2.25-5.42c0.38-0.91,0.81-1.77,1.21-2.66l0.6-1.29l0.58-1.25
		c3.16-6.62,6.16-13.29,8.86-20.13c2.73-6.74,5.1-13.61,7.11-20.59c2.01-6.97,3.41-14.11,4.19-21.32c0.8-7.22,0.57-14.51-0.68-21.66
		c-1.28-7.25-4.02-14.16-8.05-20.31c4.81,5.79,8.4,12.49,10.55,19.71c2.12,7.31,3.2,14.88,3.2,22.49c0.03,7.6-0.59,15.19-1.87,22.69
		c-1.26,7.46-2.92,14.86-4.97,22.14c-2.01,7.29-4.33,14.47-6.78,21.58l-0.46,1.33l-0.22,0.66l-0.2,0.62
		c-0.28,0.83-0.58,1.67-0.83,2.52c-0.52,1.67-1.03,3.36-1.47,5.05c-0.89,3.36-1.61,6.76-2.15,10.17
		c-1.07,6.65-1.32,13.42-0.72,20.13c0.59,6.49,2.15,12.86,4.61,18.9L948.67,527.91z"/>
	<path class="st4" d="M985.93,508.58l-0.56,6.18l-3.58,40.26c-0.14,1.41-1.32,2.48-2.74,2.5h-45.64c-1.42,0.01-2.61-1.08-2.74-2.5
		l-3.6-40.26l-0.54-6.18H985.93z"/>
	
		<rect x="977.64" y="537.88" transform="matrix(0.0891 -0.996 0.996 0.0891 361.1428 1471.1879)" class="st4" width="14.47" height="0.54"/>
	
		<rect x="984.35" y="524.73" transform="matrix(0.0891 -0.996 0.996 0.0891 375.3246 1460.3864)" class="st4" width="3.42" height="0.54"/>
	<path class="st4" d="M957.97,391.46c0,0-7.13,9.5,0.14,24.72c4.29,8.98,11.37,12.32,16.29,10.07c4.91-2.25,6.82-9.92,2.6-18.94
		C969.83,391.99,957.97,391.46,957.97,391.46z"/>
	<path class="st12" d="M957.97,391.46c0,0-7.13,9.5,0.14,24.72c4.29,8.98,11.37,12.32,16.29,10.07c4.91-2.25,6.82-9.92,2.6-18.94
		C969.83,391.99,957.97,391.46,957.97,391.46z"/>
	<polygon class="st12" points="985.93,508.58 985.37,514.76 927.07,514.76 926.52,508.58 	"/>
	<path class="st4" d="M922.98,500.95h66.47c0.71,0,1.29,0.58,1.29,1.29v8.13c0,0.71-0.58,1.29-1.29,1.29h-66.47
		c-0.71,0-1.29-0.58-1.29-1.29v-8.13C921.69,501.53,922.27,500.95,922.98,500.95z"/>
	<circle class="st4" cx="1002.22" cy="394.82" r="21.64"/>
	<path class="st13" d="M1019.57,400.14c2.4-9.48-3.34-19.12-12.82-21.52c-9.48-2.4-19.12,3.34-21.52,12.82
		c-1.26,4.98-0.3,10.26,2.64,14.48c-6.1-7.94-4.6-19.31,3.33-25.4c7.94-6.1,19.31-4.6,25.4,3.33
		C1020.16,388.48,1021.27,394.55,1019.57,400.14z"/>
	<path class="st3" d="M1008.88,397.9l-2.15,4.65c-0.17,0.35-0.48,0.62-0.85,0.74c-0.36,0.16-0.77,0.16-1.13,0l-4.03-1.89l-1.53,3.22
		c-0.36,0.75-1.26,1.06-2.01,0.7c-0.36-0.17-0.63-0.47-0.77-0.85c-0.15-0.36-0.15-0.77,0-1.13l1.53-3.26l-4.03-1.87
		c-0.35-0.16-0.62-0.46-0.74-0.83c-0.15-0.36-0.15-0.77,0-1.13c0.16-0.35,0.46-0.62,0.83-0.74c0.36-0.16,0.77-0.16,1.13,0l9.34,4.41
		l0.91-1.91l-9.32-4.39c-0.74-0.34-1.06-1.22-0.71-1.95c0.01-0.02,0.02-0.04,0.03-0.06l2.13-4.55c0.16-0.36,0.47-0.64,0.85-0.76
		c0.35-0.16,0.76-0.16,1.11,0l4.03,1.87l1.53-3.22c0.15-0.36,0.44-0.64,0.81-0.76c0.38-0.17,0.81-0.17,1.19,0
		c0.35,0.16,0.61,0.46,0.72,0.83c0.16,0.35,0.16,0.76,0,1.11l-1.51,3.24l4.03,2.01c0.76,0.36,1.09,1.25,0.74,2.01
		c-0.17,0.36-0.49,0.64-0.87,0.76c-0.36,0.15-0.77,0.15-1.13,0l-9.34-4.43l-0.91,1.89l9.32,4.41c0.36,0.16,0.64,0.46,0.76,0.83
		C1008.98,397.19,1009,397.56,1008.88,397.9z"/>
	<circle class="st4" cx="945.3" cy="454.32" r="15.6"/>
	<path class="st13" d="M957.83,458.16c1.74-6.84-2.39-13.8-9.24-15.54c-6.84-1.74-13.8,2.39-15.54,9.24
		c-0.92,3.6-0.22,7.42,1.91,10.47c-4.44-5.72-3.41-13.95,2.31-18.39c5.72-4.44,13.95-3.41,18.39,2.31
		C958.28,449.62,959.09,454.07,957.83,458.16z"/>
	<path class="st3" d="M950.08,456.55l-1.55,3.3c-0.12,0.25-0.34,0.44-0.6,0.52c-0.26,0.11-0.56,0.11-0.83,0l-2.86-1.45l-1.11,2.34
		c-0.12,0.26-0.34,0.46-0.6,0.54c-0.26,0.1-0.55,0.1-0.81,0c-0.25-0.13-0.45-0.35-0.56-0.6c-0.11-0.26-0.11-0.56,0-0.83l1.11-2.34
		l-2.88-1.37c-0.25-0.11-0.45-0.32-0.54-0.58c-0.11-0.26-0.11-0.55,0-0.81c0.11-0.27,0.33-0.47,0.6-0.56c0.26-0.11,0.55-0.11,0.81,0
		l6.74,3.18l0.64-1.39l-6.72-3.16c-0.26-0.12-0.46-0.34-0.54-0.6c-0.11-0.26-0.11-0.55,0-0.81l1.55-3.28
		c0.12-0.25,0.34-0.45,0.6-0.54c0.26-0.11,0.55-0.11,0.81,0l2.86,1.35l1.11-2.34c0.11-0.26,0.32-0.45,0.58-0.54
		c0.27-0.12,0.58-0.12,0.85,0c0.51,0.25,0.73,0.87,0.48,1.39l-1.09,2.34l2.92,1.39c0.26,0.12,0.47,0.33,0.56,0.6
		c0.2,0.54-0.08,1.14-0.63,1.34c-0.01,0-0.01,0-0.02,0.01c-0.26,0.12-0.56,0.12-0.83,0l-6.74-3.18l-0.64,1.37l6.72,3.18
		c0.26,0.12,0.46,0.34,0.54,0.6C950.2,455.9,950.22,456.25,950.08,456.55z"/>
</g>
<g id="freepik--plant-2--inject-176">
	<path class="st4" d="M720.58,354.72c0,0-8.98,14.62,3.54,35.55c7.37,12.34,18.12,16.1,24.78,12.2c6.66-3.91,8.46-15.2,1.17-27.6
		C737.64,353.86,720.58,354.72,720.58,354.72z"/>
	<path class="st11" d="M720.58,354.72c0,0-8.98,14.62,3.54,35.55c7.37,12.34,18.12,16.1,24.78,12.2c6.66-3.91,8.46-15.2,1.17-27.6
		C737.64,353.86,720.58,354.72,720.58,354.72z"/>
	<path class="st4" d="M807.85,315.99c0,0-21.62-4.79-41.87,19.27c-11.96,14.19-12.2,28.83-4.47,35.39
		c7.73,6.56,22.14,4.03,34.22-10.19C816.13,336.52,807.85,315.99,807.85,315.99z"/>
	<path class="st4" d="M782.23,209.82c0,0-6.82,1.89-8.96,11.74c-1.25,5.8,0.89,9.96,4.03,10.67c3.14,0.7,6.84-2.21,8.05-8.05
		C787.64,214.39,782.23,209.82,782.23,209.82z"/>
	<path class="st4" d="M742.37,429.47c-2.77-9.82-4.07-20-3.87-30.2c0.22-9.93,1.67-19.79,4.33-29.35c1.29-4.69,2.84-9.3,4.57-13.79
		c0.87-2.24,1.8-4.46,2.78-6.64c0.46-1.11,0.99-2.17,1.47-3.26l0.74-1.57l0.72-1.53c3.87-8.05,7.53-16.29,10.85-24.56
		c3.35-8.26,6.25-16.69,8.7-25.26c2.47-8.56,4.19-17.31,5.13-26.17c0.99-8.84,0.72-17.78-0.81-26.55
		c-1.62-8.89-5.05-17.36-10.07-24.88c5.9,7.09,10.3,15.31,12.92,24.16c2.6,8.95,3.92,18.22,3.93,27.54
		c0.03,9.32-0.74,18.62-2.29,27.8c-1.53,9.16-3.54,18.23-6.04,27.18c-2.46,8.92-5.29,17.74-8.29,26.43l-0.56,1.63l-0.28,0.81
		l-0.26,0.79c-0.34,1.03-0.7,2.01-1.01,3.08c-0.64,2.01-1.25,4.03-1.79,6.18c-1.1,4.11-1.98,8.28-2.64,12.48
		c-1.33,8.18-1.62,16.5-0.89,24.76c0.72,7.96,2.62,15.77,5.64,23.17L742.37,429.47z"/>
	<path class="st12" d="M742.37,429.47c-2.77-9.82-4.07-20-3.87-30.2c0.22-9.93,1.67-19.79,4.33-29.35c1.29-4.69,2.84-9.3,4.57-13.79
		c0.87-2.24,1.8-4.46,2.78-6.64c0.46-1.11,0.99-2.17,1.47-3.26l0.74-1.57l0.72-1.53c3.87-8.05,7.53-16.29,10.85-24.56
		c3.35-8.26,6.25-16.69,8.7-25.26c2.47-8.56,4.19-17.31,5.13-26.17c0.99-8.84,0.72-17.78-0.81-26.55
		c-1.62-8.89-5.05-17.36-10.07-24.88c5.9,7.09,10.3,15.31,12.92,24.16c2.6,8.95,3.92,18.22,3.93,27.54
		c0.03,9.32-0.74,18.62-2.29,27.8c-1.53,9.16-3.54,18.23-6.04,27.18c-2.46,8.92-5.29,17.74-8.29,26.43l-0.56,1.63l-0.28,0.81
		l-0.26,0.79c-0.34,1.03-0.7,2.01-1.01,3.08c-0.64,2.01-1.25,4.03-1.79,6.18c-1.1,4.11-1.98,8.28-2.64,12.48
		c-1.33,8.18-1.62,16.5-0.89,24.76c0.72,7.96,2.62,15.77,5.64,23.17L742.37,429.47z"/>
	<path class="st4" d="M788.02,405.8l-0.68,7.57l-4.35,49.24c-0.16,1.73-1.6,3.06-3.34,3.06h-55.98c-1.74,0.01-3.21-1.32-3.36-3.06
		l-4.41-49.24l-0.68-7.57H788.02z"/>
	
		<rect x="777.88" y="441.7" transform="matrix(0.0891 -0.996 0.996 0.0891 276.4098 1186.2924)" class="st4" width="17.76" height="0.66"/>
	
		<rect x="786.1" y="425.61" transform="matrix(0.0891 -0.996 0.996 0.0891 293.7412 1173.0746)" class="st4" width="4.19" height="0.66"/>
	<path class="st4" d="M759.26,232.23c0,0-7.29,9.68,0.14,25.22c4.37,9.18,11.62,12.6,16.63,10.23c5.01-2.38,6.97-10.07,2.66-19.35
		C771.35,232.75,759.26,232.23,759.26,232.23z"/>
	<path class="st12" d="M759.26,232.23c0,0-7.29,9.68,0.14,25.22c4.37,9.18,11.62,12.6,16.63,10.23c5.01-2.38,6.97-10.07,2.66-19.35
		C771.35,232.75,759.26,232.23,759.26,232.23z"/>
	<polygon class="st12" points="788.02,405.8 787.34,413.36 715.89,413.36 715.21,405.8 	"/>
	<path class="st4" d="M710.88,396.43h81.45c0.88,0,1.59,0.71,1.59,1.59v9.96c0,0.88-0.71,1.59-1.59,1.59h-81.45
		c-0.88,0-1.59-0.71-1.59-1.59v-9.96C709.29,397.15,710,396.43,710.88,396.43z"/>
	
		<ellipse transform="matrix(0.7991 -0.6013 0.6013 0.7991 -1.5711 540.8587)" class="st4" cx="808.38" cy="272.78" rx="26.53" ry="26.53"/>
	<path class="st13" d="M829.65,279.31c2.96-11.63-4.07-23.45-15.69-26.41c-11.63-2.96-23.45,4.07-26.41,15.69
		c-1.56,6.12-0.37,12.62,3.25,17.8c-7.54-9.71-5.79-23.7,3.92-31.24c9.71-7.54,23.7-5.79,31.24,3.92
		C830.42,264.81,831.8,272.37,829.65,279.31z"/>
	<path class="st3" d="M816.55,276.57l-2.64,5.62c-0.21,0.42-0.58,0.75-1.03,0.91c-0.45,0.19-0.96,0.19-1.41,0l-4.93-2.34l-1.85,4.03
		c-0.21,0.43-0.58,0.76-1.03,0.91c-0.44,0.19-0.93,0.19-1.37,0c-0.44-0.2-0.79-0.57-0.95-1.03c-0.2-0.43-0.2-0.93,0-1.37l1.87-4.03
		l-4.89-2.32c-0.89-0.43-1.27-1.5-0.85-2.39c0.2-0.42,0.56-0.75,1.01-0.91c0.43-0.2,0.93-0.2,1.37,0l11.45,5.42l1.11-2.34
		l-11.31-5.5c-0.44-0.19-0.77-0.56-0.93-1.01c-0.2-0.43-0.2-0.93,0-1.37l2.64-5.6c0.2-0.44,0.57-0.77,1.03-0.93
		c0.44-0.18,0.93-0.18,1.37,0l4.85,2.29l1.87-4.03c0.19-0.43,0.54-0.77,0.99-0.93c0.47-0.18,1-0.14,1.45,0.1
		c0.43,0.19,0.76,0.56,0.91,1.01c0.18,0.44,0.18,0.93,0,1.37l-1.87,4.03l4.97,2.36c0.44,0.2,0.78,0.57,0.95,1.03
		c0.19,0.44,0.19,0.93,0,1.37c-0.2,0.44-0.57,0.78-1.03,0.95c-0.45,0.18-0.96,0.18-1.41,0l-11.45-5.42l-1.09,2.32l11.41,5.4
		c0.44,0.2,0.78,0.57,0.95,1.03C816.85,275.66,816.79,276.16,816.55,276.57z"/>
	
		<ellipse transform="matrix(0.7991 -0.6013 0.6013 0.7991 -35.9068 507.6029)" class="st4" cx="741.46" cy="307.52" rx="26.53" ry="26.53"/>
	<path class="st13" d="M762.74,313.98c2.95-11.63-4.08-23.45-15.71-26.4s-23.45,4.08-26.4,15.71c-1.55,6.12-0.37,12.62,3.25,17.79
		c-7.57-9.7-5.84-23.71,3.86-31.28c9.7-7.57,23.71-5.84,31.28,3.86C763.51,299.42,764.9,307.01,762.74,313.98z"/>
	<path class="st3" d="M749.63,311.32l-2.66,5.62c-0.2,0.43-0.57,0.76-1.03,0.91c-0.44,0.19-0.95,0.19-1.39,0l-4.93-2.32l-1.87,4.03
		c-0.41,0.89-1.47,1.27-2.35,0.86c-0.01,0-0.01-0.01-0.02-0.01c-0.45-0.19-0.8-0.56-0.95-1.03c-0.2-0.43-0.2-0.93,0-1.37l1.87-4.03
		l-4.89-2.32c-0.43-0.2-0.77-0.56-0.93-1.01c-0.18-0.44-0.18-0.93,0-1.37c0.43-0.9,1.49-1.28,2.4-0.87l11.45,5.42l1.09-2.34
		l-11.29-5.58c-0.43-0.2-0.77-0.56-0.93-1.01c-0.19-0.44-0.19-0.93,0-1.37l2.64-5.6c0.41-0.89,1.46-1.28,2.35-0.87
		c0.02,0.01,0.03,0.01,0.05,0.02l4.85,2.27l1.87-4.03c0.19-0.43,0.54-0.77,0.99-0.93c0.46-0.21,0.99-0.21,1.45,0
		c0.42,0.2,0.75,0.57,0.91,1.01c0.19,0.44,0.19,0.93,0,1.37l-1.85,4.03l4.97,2.36c0.43,0.2,0.77,0.57,0.93,1.03
		c0.19,0.44,0.19,0.93,0,1.37c-0.2,0.45-0.58,0.79-1.05,0.95c-0.45,0.18-0.94,0.18-1.39,0l-11.45-5.42l-1.09,2.32l11.41,5.4
		c0.44,0.19,0.78,0.57,0.93,1.03C749.91,310.33,749.88,310.87,749.63,311.32z"/>
</g>
<g id="freepik--plant-1--inject-176">
	<path class="st4" d="M560.3,544.08c0,0-7.47,6.04-4.69,19.55c1.63,7.93,6.58,11.96,10.91,11.09c4.33-0.87,7.33-6.52,5.74-14.47
		C569.6,546.77,560.3,544.08,560.3,544.08z"/>
	<path class="st11" d="M560.3,544.08c0,0-7.47,6.04-4.69,19.55c1.63,7.93,6.58,11.96,10.91,11.09c4.33-0.87,7.33-6.52,5.74-14.47
		C569.6,546.77,560.3,544.08,560.3,544.08z"/>
	<path class="st4" d="M606.78,517.04c0,0-12.52-2.78-24.16,11.15c-6.9,8.21-7.05,16.67-2.58,20.45c4.47,3.78,12.78,2.27,19.75-5.88
		C611.55,528.94,606.78,517.04,606.78,517.04z"/>
	<path class="st4" d="M593.38,463.73c0,0-4.17,1.15-5.48,7.17c-0.77,3.56,0.54,6.04,2.48,6.54c1.93,0.5,4.19-1.35,4.97-4.89
		C596.7,466.53,593.38,463.73,593.38,463.73z"/>
	<path class="st4" d="M565.09,593.38c-1.76-6.26-2.59-12.74-2.46-19.25c0.14-6.31,1.06-12.58,2.76-18.66
		c0.82-2.97,1.79-5.89,2.9-8.76c0.56-1.44,1.15-2.85,1.75-4.23c0.3-0.7,0.64-1.39,0.95-2.01l0.48-1.01l0.46-0.97
		c2.44-5.15,4.77-10.35,6.88-15.62c2.13-5.26,3.98-10.64,5.54-16.1c1.57-5.43,2.66-10.99,3.26-16.61c0.63-5.62,0.45-11.3-0.52-16.87
		c-1.01-5.65-3.17-11.04-6.34-15.82c3.76,4.51,6.55,9.73,8.21,15.36c1.66,5.69,2.5,11.59,2.5,17.51c0.03,5.92-0.45,11.84-1.45,17.67
		c-0.99,5.81-2.29,11.57-3.89,17.25c-1.57,5.68-3.36,11.27-5.27,16.81l-0.36,1.05l-0.18,0.5l-0.16,0.5
		c-0.2,0.64-0.44,1.29-0.64,2.01c-0.4,1.31-0.79,2.62-1.13,3.93c-0.7,2.61-1.26,5.26-1.69,7.93c-0.84,5.2-1.02,10.49-0.54,15.74
		c0.45,5.06,1.66,10.03,3.58,14.74L565.09,593.38z"/>
	<path class="st12" d="M565.09,593.38c-1.76-6.26-2.59-12.74-2.46-19.25c0.14-6.31,1.06-12.58,2.76-18.66
		c0.82-2.97,1.79-5.89,2.9-8.76c0.56-1.44,1.15-2.85,1.75-4.23c0.3-0.7,0.64-1.39,0.95-2.01l0.48-1.01l0.46-0.97
		c2.44-5.15,4.77-10.35,6.88-15.62c2.13-5.26,3.98-10.64,5.54-16.1c1.57-5.43,2.66-10.99,3.26-16.61c0.63-5.62,0.45-11.3-0.52-16.87
		c-1.01-5.65-3.17-11.04-6.34-15.82c3.76,4.51,6.55,9.73,8.21,15.36c1.66,5.69,2.5,11.59,2.5,17.51c0.03,5.92-0.45,11.84-1.45,17.67
		c-0.99,5.81-2.29,11.57-3.89,17.25c-1.57,5.68-3.36,11.27-5.27,16.81l-0.36,1.05l-0.18,0.5l-0.16,0.5
		c-0.2,0.64-0.44,1.29-0.64,2.01c-0.4,1.31-0.79,2.62-1.13,3.93c-0.7,2.61-1.26,5.26-1.69,7.93c-0.84,5.2-1.02,10.49-0.54,15.74
		c0.45,5.06,1.66,10.03,3.58,14.74L565.09,593.38z"/>
	<path class="st4" d="M603.52,570.02l-0.54,6.18l-3.6,40.26c-0.13,1.42-1.32,2.5-2.74,2.5H551c-1.42-0.01-2.59-1.09-2.74-2.5
		l-3.58-40.26l-0.56-6.18H603.52z"/>
	
		<rect x="595.26" y="599.31" transform="matrix(0.0891 -0.996 0.996 0.0891 -48.3688 1146.2754)" class="st4" width="14.47" height="0.54"/>
	
		<rect x="601.96" y="586.18" transform="matrix(0.0891 -0.996 0.996 0.0891 -34.2103 1135.4918)" class="st4" width="3.42" height="0.54"/>
	<path class="st4" d="M570.39,475.69c0,0-6.44,8.6,0.14,22.39c3.89,8.05,10.31,11.17,14.74,9.06c4.43-2.11,6.18-8.98,2.36-17.15
		C581.14,476.15,570.39,475.69,570.39,475.69z"/>
	<path class="st12" d="M570.39,475.69c0,0-6.44,8.6,0.14,22.39c3.89,8.05,10.31,11.17,14.74,9.06c4.43-2.11,6.18-8.98,2.36-17.15
		C581.14,476.15,570.39,475.69,570.39,475.69z"/>
	<polygon class="st12" points="603.52,570.02 602.98,576.2 544.68,576.2 544.12,570.02 	"/>
	<path class="st4" d="M540.57,562.39h66.47c0.71,0,1.29,0.58,1.29,1.29v8.13c0,0.71-0.58,1.29-1.29,1.29h-66.47
		c-0.71,0-1.29-0.58-1.29-1.29v-8.13C539.28,562.97,539.86,562.39,540.57,562.39z"/>
	<circle class="st4" cx="599.64" cy="496.81" r="9.7"/>
	<path class="st13" d="M607.43,499.18c1.09-4.25-1.48-8.59-5.73-9.67s-8.59,1.48-9.67,5.73c-0.58,2.25-0.14,4.64,1.19,6.54
		c-2.65-3.57-1.9-8.61,1.67-11.26c3.57-2.65,8.61-1.9,11.26,1.67C607.64,494.19,608.11,496.78,607.43,499.18z"/>
	<path class="st3" d="M602.64,498.22l-0.97,2.01c-0.08,0.16-0.22,0.27-0.38,0.32c-0.16,0.07-0.34,0.07-0.5,0l-1.81-0.85l-0.68,1.43
		c-0.07,0.17-0.21,0.29-0.38,0.34c-0.15,0.07-0.33,0.07-0.48,0c-0.17-0.07-0.3-0.21-0.36-0.38c-0.06-0.16-0.06-0.34,0-0.5l0.72-1.41
		l-1.79-0.85c-0.16-0.07-0.28-0.2-0.34-0.36c-0.07-0.16-0.07-0.34,0-0.5c0.07-0.17,0.21-0.29,0.38-0.34c0.15-0.07,0.33-0.07,0.48,0
		l4.21,2.01l0.4-0.85l-4.19-2.01c-0.16-0.07-0.28-0.2-0.34-0.36c-0.07-0.16-0.07-0.34,0-0.5l0.97-2.01c0.07-0.16,0.2-0.29,0.36-0.34
		c0.16-0.07,0.34-0.07,0.5,0l1.77,0.83l0.68-1.45c0.08-0.15,0.21-0.26,0.36-0.32c0.17-0.08,0.36-0.08,0.52,0
		c0.16,0.07,0.29,0.21,0.34,0.38c0.06,0.16,0.06,0.34,0,0.5l-0.68,1.43l1.81,0.87c0.16,0.07,0.29,0.21,0.34,0.38
		c0.07,0.16,0.07,0.34,0,0.5c-0.08,0.16-0.22,0.28-0.38,0.34c-0.16,0.06-0.34,0.06-0.5,0l-4.19-2.01l-0.4,0.85l4.17,2.01
		c0.17,0.07,0.29,0.21,0.34,0.38C602.68,497.9,602.69,498.07,602.64,498.22z"/>
	<circle class="st4" cx="567.73" cy="526.1" r="9.7"/>
	<path class="st13" d="M575.5,528.51c1.09-4.25-1.48-8.59-5.73-9.67s-8.59,1.48-9.67,5.73c-0.58,2.25-0.14,4.64,1.19,6.54
		c-2.65-3.57-1.9-8.61,1.67-11.26c3.57-2.65,8.61-1.9,11.26,1.67C575.71,523.52,576.18,526.11,575.5,528.51z"/>
	<path class="st3" d="M570.71,527.51l-0.97,2.01c-0.07,0.16-0.21,0.29-0.38,0.34c-0.16,0.07-0.34,0.07-0.5,0l-1.81-0.85l-0.68,1.45
		c-0.07,0.16-0.2,0.29-0.36,0.34c-0.16,0.06-0.34,0.06-0.5,0c-0.16-0.07-0.28-0.2-0.34-0.36c-0.07-0.16-0.07-0.34,0-0.5l0.68-1.47
		l-1.79-0.85c-0.15-0.07-0.27-0.2-0.32-0.36c-0.08-0.16-0.08-0.35,0-0.5c0.07-0.16,0.2-0.28,0.36-0.34c0.16-0.06,0.34-0.06,0.5,0
		l4.19,2.01l0.4-0.87l-4.17-2.01c-0.16-0.07-0.28-0.2-0.34-0.36c-0.07-0.16-0.07-0.34,0-0.5l0.97-2.01
		c0.08-0.16,0.22-0.27,0.38-0.32c0.15-0.07,0.33-0.07,0.48,0l1.79,0.85l0.68-1.45c0.06-0.16,0.19-0.29,0.36-0.34
		c0.17-0.08,0.36-0.08,0.52,0c0.15,0.07,0.27,0.2,0.32,0.36c0.07,0.16,0.07,0.34,0,0.5l-0.68,1.45l1.83,0.85
		c0.16,0.08,0.28,0.22,0.34,0.38c0.07,0.16,0.07,0.34,0,0.5c-0.07,0.16-0.21,0.29-0.38,0.34c-0.17,0.07-0.36,0.07-0.52,0l-4.19-2.01
		l-0.38,0.85l4.17,2.01c0.16,0.07,0.29,0.2,0.34,0.36C570.78,527.16,570.78,527.35,570.71,527.51z"/>
</g>
<g id="freepik--Character--inject-176">
	<path class="st14" d="M397.72,218.64c22.67,3.46,67.72,81.69,58.72,100.88c-7.75,16.51-24.16,21.98-45.38-25.32
		S397.72,218.64,397.72,218.64z"/>
	<g class="st9">
		<path d="M397.72,218.64c22.67,3.46,67.72,81.69,58.72,100.88c-7.75,16.51-24.16,21.98-45.38-25.32S397.72,218.64,397.72,218.64z"
			/>
	</g>
	<polygon class="st15" points="408.09,723.2 424.44,724.93 427.5,689.7 411.17,687.97 	"/>
	<polygon class="st15" points="326.6,722.01 342.42,722.01 343.73,685.35 327.89,685.35 	"/>
	<path class="st16" d="M344.62,720.18h-19.23c-0.65,0-1.21,0.45-1.35,1.09l-3.12,14.09c-0.26,1.26,0.55,2.5,1.81,2.76
		c0.17,0.02,0.34,0.02,0.5,0c6.22-0.1,10.75-0.48,18.56-0.48c4.81,0,19.33,0.5,25.97,0.5c6.64,0,7.51-6.56,4.79-7.17
		c-12.2-2.66-21.38-6.34-25.28-9.84C346.54,720.48,345.59,720.14,344.62,720.18z"/>
	<path class="st4" d="M345.7,722.38c-0.15-0.04-0.26-0.17-0.28-0.32c-0.02-0.15,0.05-0.29,0.18-0.36c0.56-0.36,5.68-3.5,7.43-2.6
		c0.41,0.19,0.66,0.6,0.64,1.05c0.12,0.76-0.18,1.53-0.79,2.01c-0.89,0.61-1.96,0.89-3.04,0.81
		C348.45,722.91,347.06,722.72,345.7,722.38z M346.79,721.85c1.85,0.62,3.86,0.52,5.64-0.28c0.39-0.34,0.57-0.84,0.5-1.35
		c0-0.3-0.14-0.44-0.24-0.44c-0.15-0.08-0.32-0.12-0.48-0.1C350.28,720.05,348.44,720.78,346.79,721.85z"/>
	<path class="st4" d="M345.6,722.46c-0.11-0.08-0.18-0.21-0.18-0.34c0-0.22,0.4-4.77,2.23-6.26c0.44-0.38,1.02-0.56,1.59-0.48
		c0.59-0.02,1.11,0.4,1.21,0.99c0.32,1.67-2.84,5.15-4.47,6.04h-0.18C345.75,722.44,345.68,722.46,345.6,722.46z M348.16,716.3
		c-1.1,1.43-1.76,3.15-1.87,4.95c1.63-1.23,3.64-3.87,3.44-4.89c0-0.1,0-0.38-0.54-0.38h-0.18
		C348.7,715.98,348.4,716.09,348.16,716.3z"/>
	<path class="st16" d="M426.15,719.68h-19.23c-0.65,0-1.21,0.45-1.35,1.09l-3.12,14.09c-0.26,1.26,0.55,2.5,1.81,2.76
		c0.17,0.02,0.34,0.02,0.5,0c6.22-0.1,10.75-0.48,18.56-0.48c4.81,0,19.33,0.5,25.97,0.5c6.64,0,7.51-6.56,4.79-7.17
		c-12.2-2.66-21.38-6.34-25.28-9.84C428.07,719.98,427.12,719.64,426.15,719.68z"/>
	<path class="st4" d="M427.24,721.87c-0.15-0.04-0.26-0.17-0.28-0.32c-0.02-0.15,0.05-0.29,0.18-0.36c0.56-0.36,5.68-3.5,7.43-2.6
		c0.41,0.19,0.66,0.6,0.64,1.05c0.12,0.76-0.18,1.53-0.79,2.01c-0.89,0.61-1.96,0.89-3.04,0.81
		C429.98,722.41,428.59,722.22,427.24,721.87z M428.32,721.35c1.85,0.62,3.86,0.52,5.64-0.28c0.39-0.34,0.57-0.84,0.5-1.35
		c0-0.3-0.14-0.44-0.24-0.44c-0.15-0.08-0.32-0.12-0.48-0.1C431.81,719.54,429.97,720.28,428.32,721.35z"/>
	<path class="st4" d="M427.13,721.95c-0.11-0.08-0.18-0.21-0.18-0.34c0-0.22,0.4-4.77,2.23-6.26c0.44-0.38,1.02-0.56,1.59-0.48
		c0.59-0.02,1.11,0.4,1.21,0.99c0.32,1.67-2.84,5.15-4.47,6.04h-0.18C427.28,721.93,427.21,721.95,427.13,721.95z M429.67,715.79
		c-1.1,1.43-1.76,3.15-1.87,4.95c1.63-1.23,3.64-3.87,3.44-4.89c0-0.1,0-0.38-0.54-0.38h-0.18
		C430.21,715.48,429.91,715.59,429.67,715.79z"/>
	<polygon class="st12" points="327.89,685.37 343.73,685.37 343.05,704.28 327.2,704.28 	"/>
	<path class="st14" d="M334.43,363.8h83.99c8.05,43.62,31.89,215.24,13.95,352.74l-28.42-1.51c0,0,3.72-201.75-21.38-269.33
		c-2.88,36.11-6.32,74.48-9.3,95c-7.31,50.33-24,176.75-24,176.75l-28.57-1.19c0,0,6.58-120.44,9.34-169.99
		C333.02,492.56,334.31,374.83,334.43,363.8z"/>
	<g class="st10">
		<path d="M334.43,363.8h83.99c8.05,43.62,31.89,215.24,13.95,352.74l-28.42-1.51c0,0,3.72-201.75-21.38-269.33
			c-2.88,36.11-6.32,74.48-9.3,95c-7.31,50.33-24,176.75-24,176.75l-28.57-1.19c0,0,6.58-120.44,9.34-169.99
			C333.02,492.56,334.31,374.83,334.43,363.8z"/>
	</g>
	<path class="st17" d="M421.8,384.09c0,0-24.74,5.74-42.01,0l1.55-13.43h40.26L421.8,384.09z"/>
	<path class="st18" d="M409.34,386.05c-5.29,0.57-10.63,0.72-15.94,0.44v-15.8h15.94V386.05z"/>
	<path class="st12" d="M382.56,445.69c4.13,11.83,7.27,23.98,9.38,36.34c2.36-32.21-7.05-66.21-7.05-66.21L382.56,445.69z"/>
	<path class="st16" d="M345.5,172.44c0,0,0.62,15.42,12.64,11.8S356.21,167.02,345.5,172.44z"/>
	<path class="st15" d="M381.34,210.97c-5.07-4.02-7.25-10.69-5.52-16.93l-21.74-17.53c0,0,2.82,21.54-2.44,32.91
		c0,0,13.11,13.31,23.13,10.27C384.8,216.64,381.34,210.97,381.34,210.97z"/>
	<path class="st12" d="M358.95,187.01l8.62,0.36l8.25,6.66c-0.74,2.94-0.71,6.02,0.1,8.94
		C362.76,200.84,358.95,187.01,358.95,187.01z"/>
	<path class="st4" d="M359.51,226.51l18.12-6.82l15.1,1.13c0,0,16.1,36.44,21.92,74.06c3.74,26.18,5.76,52.59,6.04,79.03
		c-0.56-0.12-22.14,4.61-42.17-2.19c0,0,13.33-56.37,6.04-82.19c-7.29-25.83-24.86-63.01-24.86-63.01"/>
	<path class="st19" d="M359.51,226.51l18.12-6.82l15.1,1.13c0,0,16.1,36.44,21.92,74.06c3.74,26.18,5.76,52.59,6.04,79.03
		c-0.56-0.12-22.14,4.61-42.17-2.19c0,0,13.33-56.37,6.04-82.19c-7.29-25.83-24.86-63.01-24.86-63.01"/>
	<path class="st17" d="M384.58,220.21l-1.09,9.9c0,0,13.37,26.03,18.12,43.44c4.75,17.41,8.64,70.22,8.64,70.22l-8.35,14.49
		l-7.69-14.39c0,0,2.01-42.28-4.15-70.78s-9.54-41.31-9.54-41.31l-9.28-6.7l6.3-5.29L384.58,220.21z"/>
	<polygon class="st6" points="381.34,210.97 375.16,217.13 351.64,209.42 369.16,235.35 377.85,221.44 391.99,225.44 	"/>
	<path class="st14" d="M381.34,210.97c0,0,32.35,7.07,39.28,36.24s10.95,156.54,11.96,166.81c1.01,10.27-19.25,11.54-19.25,11.54
		s1.09-65.89-0.58-83.38c-0.6-6.32-1.51-27.66-4.39-44.29C403.3,268.48,394.46,230.62,381.34,210.97z"/>
	<path class="st14" d="M388.04,213.32c4.41,3.87,14.88,12.08,20.13,20.78l-8.17,4.31l11.17,7.11c0,0-0.93,31.38-3.64,47.83
		c-5.17-28.63-13.71-63.69-26.17-82.38C381.34,210.97,384.01,211.71,388.04,213.32z"/>
	<path class="st18" d="M388.04,213.32c4.41,3.87,14.88,12.08,20.13,20.78l-8.17,4.31l11.17,7.11c0,0-0.93,31.38-3.64,47.83
		c-5.17-28.63-13.71-63.69-26.17-82.38C381.34,210.97,384.01,211.71,388.04,213.32z"/>
	<path class="st16" d="M404.53,140.01c0,0,2.76,15.24-6.5,17.88c0,0-6.22-14.09,0.16-15.24S404.53,140.01,404.53,140.01z"/>
	<path class="st15" d="M398.17,176.74c-1.45,8.37-7.73,25.93-25.51,20.57c-17.78-5.35-18.54-19.37-18.82-23.41
		c-0.28-4.05,3.46-35.47,14.84-38.47c11.37-3,25.16,0.7,29.49,7.21C402.49,149.15,398.17,176.74,398.17,176.74z"/>
	<path class="st16" d="M354.84,163.76c-0.28,0.38,10.53,4.03,10.07-20.9c0,0,35.91,7.43,44.77-4.21
		c10.85-14.23,6.04-16.87-7.31-12.76c0,0-46.02-4.75-51.96,2.86c-7.09,9.08-6.99,33.74-6.99,33.74L354.84,163.76z"/>
	<path class="st16" d="M401.07,130.65c0,0,19.71-19.35-19.14-1.81L401.07,130.65z"/>
	<path class="st15" d="M358.63,165.69c0,0-3.18-8.74-11.29-8.74c-6.54,0-7.47,8.05-4.51,13.79c2.29,4.33,9.74,9.74,14.49,4.03
		S358.63,165.69,358.63,165.69z"/>
	<path class="st16" d="M377.65,163.9c-0.36,1.01,0.12,2.12,1.11,2.54c0.85,0.14,1.67-0.79,1.89-2.01c0.22-1.23-0.3-2.4-1.11-2.54
		C378.74,161.75,377.87,162.63,377.65,163.9z"/>
	<path class="st16" d="M391.7,166.34c-0.3,1.23,0.28,2.38,1.11,2.52c0.83,0.14,1.65-0.76,1.87-2.01s-0.28-2.38-1.11-2.52
		S391.91,165.13,391.7,166.34z"/>
	<path class="st20" d="M387.26,166.18c0.85,4.1,2.25,8.07,4.17,11.8c-1.98,0.93-4.26,0.93-6.24,0L387.26,166.18z"/>
	<path class="st16" d="M374.91,156.43c0.19,0.21,0.47,0.31,0.74,0.28c1.87-0.37,3.8,0.16,5.21,1.43c0.25,0.33,0.71,0.4,1.04,0.15
		c0.33-0.25,0.4-0.71,0.15-1.04c-0.03-0.04-0.07-0.08-0.11-0.11l0,0c-1.75-1.65-4.2-2.36-6.56-1.89c-0.41,0.06-0.68,0.44-0.62,0.85
		l0,0C374.81,156.21,374.86,156.32,374.91,156.43z"/>
	<path class="st16" d="M382.04,184.23L382.04,184.23c-3.76-0.09-7.24-2-9.32-5.13c-0.08-0.21,0.03-0.44,0.24-0.52
		c0.15-0.06,0.32-0.02,0.43,0.09l0,0c1.99,2.84,5.21,4.57,8.68,4.67c0.21,0,0.38,0.17,0.38,0.38l0,0l0,0
		c-0.01,0.21-0.18,0.37-0.38,0.38L382.04,184.23z"/>
	<path class="st16" d="M398.67,158.69c0.14-0.06,0.26-0.16,0.34-0.28c0.16-0.37-0.01-0.79-0.37-0.95c-0.01,0-0.02-0.01-0.03-0.01
		l0,0c-2.23-0.94-4.77-0.75-6.82,0.52c-0.32,0.25-0.4,0.7-0.18,1.05l0,0c0.25,0.32,0.7,0.4,1.05,0.18l0,0
		c1.65-0.96,3.66-1.09,5.42-0.34C398.28,158.88,398.5,158.82,398.67,158.69z"/>
	<path class="st14" d="M351.64,209.42c0,0-22.53,10.71-32.65,17.27c-10.13,6.56,5.76,81.39,6.16,94.62s-11.58,104.08-11.58,104.08
		s34.22,8.92,62.24,2.27c0,0,19.81-75.57,17.37-115.19C390.84,274.34,379.4,236.8,351.64,209.42z"/>
	<path class="st14" d="M334.07,383.91c0,0,23.05-3.5,37.16-11.56c0,0,0,26.17-4.41,40.68c0,0-21.9,3.06-36.01,0.76
		C330.81,413.85,331.69,400.32,334.07,383.91z"/>
	<path class="st13" d="M334.07,383.91c0,0,23.05-3.5,37.16-11.56c0,0,0,3.87-0.22,9.44c-0.4,8.94-38.93,17.98-38.03,10.23
		C333.28,389.47,333.67,386.73,334.07,383.91z"/>
	<path class="st14" d="M342.83,214.49c5.11-2.86,8.82-5.07,8.82-5.07c26.85,26.49,38.41,62.41,41.27,99.27
		c-11.66-28.4-38.75-54.35-38.75-54.35l8.35-12.26l-15.34-1.21C346.88,231.92,345.42,223.05,342.83,214.49z"/>
	<path class="st18" d="M342.83,214.49c5.11-2.86,8.82-5.07,8.82-5.07c26.85,26.49,38.41,62.41,41.27,99.27
		c-11.66-28.4-38.75-54.35-38.75-54.35l8.35-12.26l-15.34-1.21C346.88,231.92,345.42,223.05,342.83,214.49z"/>
	<path class="st14" d="M420.63,372.36l12.08,2.01l-1.53,9.28C431.18,383.65,419.28,383.47,420.63,372.36z"/>
	<path class="st13" d="M420.63,372.36l12.08,2.01l-1.53,9.28C431.18,383.65,419.28,383.47,420.63,372.36z"/>
	<path class="st21" d="M414.25,280.52l-22.59-28.3c-3.18-0.31-6.14-1.73-8.35-4.03c-3.4-3.72-7.17-19.37-5.9-20.25
		c1.27-0.89,16.1-0.97,17.33,0.87c1.23,1.83,6.16,17.7,6.16,17.7l24.8,22.71L414.25,280.52z"/>
	<polygon class="st4" points="412.08,249.78 406.64,245.51 390.76,257.65 395.39,264.56 	"/>
	<g class="st22">
		<polygon class="st6" points="412.08,249.78 406.64,245.51 390.76,257.65 395.39,264.56 		"/>
	</g>
	<path class="st14" d="M450.83,295.52c-11.07-14.09-38.25-47.35-38.25-47.35l-20.73,16.49c0,0,29.21,55.14,40.72,64.52
		C447.69,341.46,466.41,315.31,450.83,295.52z"/>
	<g class="st8">
		<path d="M450.83,295.52c-11.07-14.09-38.25-47.35-38.25-47.35l-20.73,16.49c0,0,29.21,55.14,40.72,64.52
			C447.69,341.46,466.41,315.31,450.83,295.52z"/>
	</g>
	<path class="st4" d="M396.48,420.33c-20.45,0.01-37.03-16.55-37.04-37c-0.01-20.45,16.55-37.03,37-37.04
		c20.45-0.01,37.03,16.55,37.04,37l0,0c0,2.26-0.21,4.51-0.62,6.72C429.6,407.55,414.31,420.29,396.48,420.33z M396.48,353.9
		c-16.25,0.04-29.4,13.24-29.37,29.5c0.04,16.25,13.24,29.4,29.5,29.37c16.25-0.04,29.4-13.24,29.37-29.5
		c-0.03-14.18-10.17-26.33-24.12-28.88l0,0c-1.8-0.32-3.63-0.48-5.46-0.48H396.48z"/>
	<path class="st15" d="M328.67,358.75l31.14,5.72c2.16,2.34,5.12,3.77,8.29,4.03c5.62,0.62,12.96-0.24,13.79-1.77
		c1.19-2.17,3.46-12.78,0.99-12.6c-2.48,0.18-18.68-1.59-18.68-1.59l-30.68-13.47L328.67,358.75z"/>
	<polygon class="st4" points="356.86,342.16 364.61,345.52 355.37,372.18 345.2,367.51 	"/>
	<polygon class="st19" points="356.86,342.16 364.61,345.52 355.37,372.18 345.2,367.51 	"/>
	<path class="st14" d="M318.07,227.56c0,0-19.16,29.47-24.98,63.21c-1.95,10.49-0.94,21.32,2.92,31.26
		c13.55,34.06,53.55,49.99,53.55,49.99l12.46-29.85c0,0-30.64-14.53-35.15-36.64c-1.05-5.09-2.8-7.71-0.6-14.98
		C333.57,266.35,344.96,235.17,318.07,227.56z"/>
	<path class="st13" d="M318.07,227.56c0,0-19.16,29.47-24.98,63.21c-1.95,10.49-0.94,21.32,2.92,31.26
		c13.55,34.06,53.55,49.99,53.55,49.99l12.46-29.85c0,0-30.64-14.53-35.15-36.64c-1.05-5.09-2.8-7.71-0.6-14.98
		C333.57,266.35,344.96,235.17,318.07,227.56z"/>
	<path class="st15" d="M370.77,357.8c4.03-0.46,13.17-6.24,13.69-9.2c0.28-1.61-6.58,0.64-8.88,0.89
		c-6.38,0.72-11.11,1.39-12.84,4.15C361,356.39,364.27,358.69,370.77,357.8z"/>
	<path class="st4" d="M488.41,414.75l-6.93-14.55c-0.47-1.01-1.67-1.44-2.68-0.97c-0.01,0.01-0.03,0.01-0.04,0.02
		c-0.57,0.27-0.98,0.79-1.11,1.41l-2.01,9.46l-19.81,9.96c-3.18,1.61-7.07,0.34-8.69-2.84c0-0.01-0.01-0.01-0.01-0.02
		c-0.66-1.28-0.87-2.75-0.58-4.17l4.55-22.99c0.47-2.35-0.86-4.68-3.12-5.48l-37.97-13.47c-2.24-0.81-4.74,0.14-5.88,2.23
		l-22.61,43.12c-1.23,2.35-0.33,5.26,2.01,6.5c0.2,0,0.38,0.18,0.58,0.24l55.78,19.91c1.62,0.6,3.43,0.28,4.75-0.83l33.16-28.55
		l7.79,3.74c0.97,0.54,2.2,0.19,2.74-0.79c0.01-0.01,0.01-0.03,0.02-0.04C488.72,416.09,488.73,415.36,488.41,414.75z"/>
	<path class="st4" d="M591.36,553.25L591.36,553.25c-0.1,0-0.2-0.1-0.18-0.2c0-1.49,0-3,0-4.53c0-0.1,0.08-0.19,0.18-0.2
		c0.11,0,0.2,0.09,0.2,0.2l0,0l0,0c0,1.55,0,3.12,0,4.55c0,0.1-0.08,0.18-0.18,0.18H591.36z M591.5,544.1
		c-0.09,0.01-0.18-0.05-0.2-0.14v-4.67c0.01-0.1,0.1-0.18,0.2-0.18l0,0c0.1,0,0.18,0.08,0.18,0.18v4.69
		c-0.02,0.07-0.09,0.12-0.16,0.12L591.5,544.1z M591.5,534.9c-0.1-0.02-0.19-0.1-0.2-0.2V530c0.01-0.1,0.1-0.18,0.2-0.18l0,0
		c0.1,0.01,0.18,0.08,0.2,0.18v4.69C591.7,534.8,591.61,534.89,591.5,534.9z M591.5,525.66c-0.1,0-0.19-0.08-0.2-0.18
		c0-1.57,0-3.12,0-4.69c0-0.1,0.08-0.18,0.18-0.18l0,0c0.1,0,0.18,0.08,0.18,0.18c0,1.57,0,3.12,0,4.61c0.01,0.1-0.06,0.19-0.16,0.2
		c-0.01,0-0.03,0-0.04,0l0,0L591.5,525.66z M591.32,516.44c-0.1,0-0.18-0.08-0.18-0.18c0-1.57,0-3.14-0.12-4.69
		c-0.02-0.09,0.03-0.17,0.12-0.2c0.01,0,0.03-0.01,0.05-0.01l0,0c0.1,0.01,0.18,0.08,0.2,0.18c0,1.57,0,3.12,0.12,4.69
		c0,0.1-0.08,0.18-0.18,0.18c-0.01,0-0.01,0-0.02,0L591.32,516.44z M591.04,507.22c-0.1-0.01-0.18-0.08-0.2-0.18
		c0-1.57-0.1-3.12-0.18-4.61c-0.02-0.09,0.03-0.17,0.12-0.2c0.01,0,0.03-0.01,0.05-0.01l0,0c0.1,0,0.19,0.08,0.2,0.18l0.2,4.61
		c0.01,0.11-0.07,0.21-0.18,0.22c0,0,0,0,0,0V507.22z M590.62,498c-0.1-0.01-0.17-0.09-0.18-0.18c0-1.55-0.16-3.12-0.24-4.61
		c-0.02-0.07,0.02-0.15,0.09-0.18c0.01,0,0.02,0,0.03-0.01l0,0c0.1,0,0.18,0.08,0.18,0.18c0,1.55,0.18,3.12,0.26,4.61
		c0.01,0.09-0.05,0.18-0.14,0.2V498z M590.07,488.8c-0.1,0-0.18-0.08-0.18-0.18l-0.32-4.61c-0.02-0.09,0.03-0.17,0.12-0.2
		c0.01,0,0.03-0.01,0.05-0.01l0,0c0.1-0.02,0.2,0.04,0.22,0.13c0,0,0,0.01,0,0.01l0,0l0.32,4.61c0,0.11-0.07,0.2-0.18,0.22
		L590.07,488.8z M589.39,479.58c-0.1,0-0.18-0.08-0.18-0.18c-0.12-1.57-0.26-3.12-0.4-4.59c-0.02-0.1,0.04-0.2,0.13-0.22
		c0,0,0.01,0,0.01,0l0,0c0.1,0,0.19,0.08,0.2,0.18c0.14,1.55,0.28,3.12,0.4,4.59c0,0.1,0,0.2-0.12,0.2l0,0L589.39,479.58z
		 M588.54,470.38c-0.1,0.01-0.19-0.06-0.2-0.16c0,0,0,0,0,0c-0.16-1.57-0.3-3.12-0.48-4.57c-0.01-0.1,0.06-0.2,0.16-0.22l0,0
		c0.09-0.02,0.17,0.03,0.2,0.12c0,0.01,0.01,0.03,0.01,0.05c0.16,1.57,0.34,3.12,0.5,4.59c0.01,0.1-0.06,0.19-0.16,0.2
		C588.56,470.38,588.55,470.38,588.54,470.38L588.54,470.38L588.54,470.38z M587.52,461.24c-0.09,0.01-0.17-0.05-0.18-0.14
		c0-0.01,0-0.01,0-0.02c-0.2-1.55-0.4-3.12-0.6-4.57c0.04-0.11,0.15-0.17,0.26-0.14c0.07,0.02,0.12,0.08,0.14,0.14
		c0.2,1.55,0.38,3.04,0.56,4.57c0.02,0.09-0.03,0.17-0.11,0.2c0,0-0.01,0-0.01,0l0,0L587.52,461.24z M586.31,452.1
		c-0.09,0.01-0.18-0.05-0.2-0.14l0,0c-0.22-1.55-0.46-3.12-0.7-4.55c-0.01-0.1,0.06-0.2,0.16-0.22l0,0c0.1-0.01,0.2,0.06,0.22,0.16
		l0,0c0.24,1.55,0.48,3.02,0.7,4.55c0.01,0.1-0.06,0.2-0.16,0.22l0,0L586.31,452.1z M584.84,442.98c-0.09,0-0.17-0.07-0.18-0.16
		c-0.26-1.55-0.54-3.12-0.83-4.51c-0.02-0.11,0.04-0.22,0.15-0.24c0,0,0.01,0,0.01,0c0,0,0.18,0,0.22,0.16
		c0.28,1.55,0.54,3.02,0.83,4.53c0.01,0.1-0.06,0.2-0.16,0.22l0,0H584.84z M583.13,433.92c-0.09,0-0.16-0.06-0.18-0.14
		c-0.32-1.57-0.64-3.04-0.97-4.51c0-0.1,0.08-0.18,0.18-0.18c0.1,0,0.18,0.08,0.18,0.18c0.34,1.47,0.66,2.98,0.97,4.51
		c0.03,0.08,0,0.18-0.09,0.21c-0.01,0-0.02,0.01-0.04,0.01l0,0L583.13,433.92z M581.12,424.94c-0.09,0-0.17-0.07-0.18-0.16
		c-0.38-1.57-0.76-3.02-1.15-4.45c-0.03-0.11,0.02-0.22,0.12-0.26c0.09-0.03,0.18,0.02,0.22,0.1l0,0c0.38,1.45,0.79,2.98,1.15,4.47
		c0.02,0.1-0.04,0.2-0.14,0.24L581.12,424.94z M578.72,416.02c-0.08,0-0.16-0.06-0.18-0.14c-0.44-1.49-0.89-2.98-1.35-4.41
		c-0.04-0.09,0.01-0.2,0.1-0.24c0.01,0,0.01,0,0.02-0.01l0,0c0.09-0.04,0.2,0.01,0.24,0.1c0,0.01,0,0.01,0.01,0.02l0,0
		c0.46,1.41,0.91,2.92,1.37,4.39c0.03,0.11-0.03,0.22-0.14,0.26L578.72,416.02z M575.88,407.24c-0.08,0-0.15-0.05-0.18-0.12
		c-0.52-1.47-1.07-2.92-1.57-4.33c-0.06-0.06-0.06-0.16,0-0.22l0,0c0.1-0.03,0.2,0.02,0.24,0.12c0.54,1.39,1.09,2.84,1.57,4.31
		c0.03,0.11-0.03,0.22-0.14,0.26L575.88,407.24z M484.45,401L484.45,401c-0.08-0.08-0.08-0.2,0-0.28c0.76-1.23,1.65-2.52,2.58-3.82
		c0.07-0.07,0.18-0.07,0.26-0.01c0,0,0,0,0.01,0.01l0,0c0.06,0.08,0.06,0.19,0,0.26l0,0c-0.93,1.29-1.79,2.58-2.56,3.8
		c-0.06,0.03-0.12,0.03-0.18,0L484.45,401z M572.48,398.63c-0.07-0.01-0.13-0.05-0.16-0.12c-0.62-1.43-1.31-2.84-2.01-4.17
		c-0.06-0.07-0.06-0.17,0-0.24l0,0c0.08-0.06,0.18-0.06,0.26,0c0.66,1.33,1.33,2.74,2.01,4.19c0.04,0.09,0,0.2-0.09,0.24
		c0,0,0,0-0.01,0V398.63z M489.94,393.52L489.94,393.52c-0.08-0.08-0.08-0.2,0-0.28c0.95-1.19,2.01-2.4,2.96-3.52
		c0.08-0.08,0.2-0.08,0.28,0c0.07,0.07,0.07,0.18,0.01,0.26c0,0,0,0-0.01,0.01l0,0c-1.01,1.15-2.01,2.32-2.96,3.52
		c-0.04,0.1-0.16,0.15-0.26,0.11c-0.04-0.02-0.08-0.05-0.1-0.09L489.94,393.52z M568.45,390.4c-0.07,0-0.14-0.04-0.18-0.1
		c-0.76-1.37-1.55-2.68-2.38-3.93c-0.07-0.07-0.07-0.19,0-0.26s0.19-0.07,0.26,0l0,0c0.81,1.25,1.55,2.58,2.4,4.03
		c0.07,0.07,0.07,0.18,0.01,0.26c0,0,0,0-0.01,0.01H568.45z M495.98,386.59c-0.04,0.02-0.08,0.02-0.12,0
		c-0.06-0.07-0.06-0.17,0-0.24l0,0c1.09-1.11,2.19-2.17,3.32-3.22c0.07-0.07,0.18-0.07,0.26-0.01c0,0,0,0,0.01,0.01l0,0
		c0.08,0.08,0.08,0.2,0,0.28c-1.11,1.03-2.21,2.01-3.3,3.2c-0.06,0.05-0.14,0.05-0.2,0l0,0L495.98,386.59z M563.42,382.68
		c-0.05,0.02-0.1,0.02-0.14,0c-0.97-1.25-2.01-2.44-2.94-3.52c-0.08-0.08-0.08-0.2,0-0.28c0.07-0.07,0.18-0.07,0.26-0.01
		c0,0,0,0,0.01,0.01l0,0c1.01,1.09,2.01,2.27,2.96,3.54c0.07,0.07,0.07,0.18,0.01,0.26c0,0,0,0-0.01,0.01l0,0
		c-0.01,0.08-0.09,0.13-0.16,0.11c-0.01,0-0.03-0.01-0.04-0.01L563.42,382.68z M502.75,380.41h-0.14c-0.07-0.07-0.07-0.18-0.01-0.26
		c0,0,0,0,0.01-0.01l0,0c1.21-0.99,2.44-2.01,3.66-2.84c0.07-0.07,0.18-0.07,0.26-0.01c0,0,0,0,0.01,0.01l0,0
		c0.06,0.08,0.06,0.19,0,0.26l0,0c-1.23,0.89-2.46,1.85-3.64,2.84c-0.07,0.05-0.16,0.05-0.22,0H502.75z M557.1,376.02h-0.12
		c-1.14-1.01-2.35-1.95-3.6-2.82c-0.07-0.07-0.07-0.18-0.01-0.26c0,0,0,0,0.01-0.01l0,0c0.08-0.06,0.19-0.06,0.26,0
		c1.27,0.87,2.48,1.81,3.62,2.84c0.07,0.07,0.07,0.18,0.01,0.26c0,0,0,0-0.01,0.01l0,0c-0.06,0.07-0.16,0.07-0.23,0.01
		c-0.01,0-0.01-0.01-0.01-0.01l0,0L557.1,376.02z M510.07,375.04c-0.05,0.02-0.11,0.02-0.16,0c-0.06-0.08-0.06-0.19,0-0.26
		c1.33-0.85,2.68-1.57,4.03-2.34c0.11-0.06,0.24-0.02,0.3,0.08c0.04,0.07,0.04,0.15,0,0.22h-0.1c-1.33,0.7-2.68,1.47-4.03,2.29
		L510.07,375.04z M549.47,371.01L549.47,371.01l-0.77-0.34c-1.14-0.52-2.3-0.99-3.48-1.39c-0.1-0.03-0.15-0.13-0.13-0.22
		c0-0.01,0-0.01,0.01-0.02l0,0c0.02-0.1,0.11-0.16,0.21-0.14c0,0,0.01,0,0.01,0l0,0c1.2,0.4,2.37,0.87,3.52,1.39l0.77,0.36
		c0.06,0.08,0.06,0.18,0,0.26c-0.06,0.04-0.14,0.04-0.2,0L549.47,371.01z M518.23,370.81c-0.08,0.01-0.15-0.03-0.18-0.1
		c-0.05-0.07-0.05-0.17,0-0.24c1.42-0.6,2.87-1.12,4.35-1.57c0.08-0.04,0.18,0,0.21,0.08c0,0.01,0.01,0.01,0.01,0.02l0,0
		c0.02,0.1-0.03,0.2-0.12,0.24l0,0c-1.43,0.44-2.88,0.99-4.33,1.55L518.23,370.81z M527.02,368.09c-0.1,0-0.18-0.08-0.18-0.18
		c0-0.1,0.08-0.18,0.18-0.18c0,0,0,0,0,0c1.51-0.3,3.05-0.5,4.59-0.6c0.1-0.01,0.19,0.06,0.2,0.16c0,0,0,0,0,0l0,0
		c-0.01,0.1-0.08,0.18-0.18,0.2c-1.52,0.1-3.03,0.3-4.53,0.58L527.02,368.09z M540.75,368.09L540.75,368.09
		c-1.5-0.28-3.02-0.48-4.55-0.58c-0.1,0-0.18-0.08-0.18-0.18l0,0c0-0.1,0.08-0.18,0.18-0.18c0.01,0,0.01,0,0.02,0
		c1.54,0.1,3.07,0.3,4.59,0.6c0.1,0.01,0.17,0.1,0.16,0.2c0,0,0,0,0,0l0,0c-0.03,0.1-0.13,0.15-0.22,0.13c-0.01,0-0.01,0-0.02-0.01
		l0,0L540.75,368.09z"/>
	<path class="st4" d="M584.68,551.83L584.68,551.83c-0.1-0.01-0.18-0.1-0.18-0.2l0,0c0-1.55,0.12-3.04,0.18-4.61
		c-0.01-0.09,0.05-0.17,0.14-0.18c0.01,0,0.01,0,0.02,0l0,0c0.1,0,0.18,0.08,0.18,0.18l0,0c0,1.57,0,3.12-0.16,4.61
		c0,0.1-0.08,0.18-0.18,0.18V551.83z M584.98,542.63L584.98,542.63c-0.1-0.02-0.17-0.1-0.18-0.2c0-1.57,0-3.06,0-4.61
		c0-0.12,0.1-0.18,0.22-0.2c0.1,0.02,0.17,0.1,0.18,0.2c0,1.57,0,3.14-0.12,4.61c-0.01,0.11-0.09,0.19-0.2,0.2H584.98z
		 M585.18,533.39L585.18,533.39c0,0-0.16,0-0.18-0.14v-4.65c0-0.1,0.08-0.18,0.18-0.18l0,0c0.1,0,0.19,0.08,0.2,0.18v4.61
		C585.37,533.31,585.29,533.39,585.18,533.39z M585.18,524.19L585.18,524.19c-0.1-0.01-0.18-0.1-0.18-0.2v-4.67
		c0.01-0.1,0.08-0.18,0.18-0.2l0,0c0.11,0,0.2,0.09,0.2,0.2l0,0l0,0v4.61c0,0.1-0.08,0.19-0.18,0.2L585.18,524.19z M585.18,514.97
		c-0.11-0.01-0.19-0.09-0.2-0.2l0,0v-4.61c0-0.1,0.08-0.18,0.18-0.18c0.01,0,0.01,0,0.02,0l0,0c0.1,0,0.18,0.08,0.18,0.18v4.61
		C585.36,514.86,585.28,514.95,585.18,514.97z M585.04,505.75c-0.1-0.02-0.18-0.1-0.2-0.2c0-1.55,0-3.12-0.12-4.61
		c-0.03-0.11,0.04-0.21,0.14-0.24c0.09-0.03,0.2,0.01,0.23,0.11c0,0.01,0.01,0.02,0.01,0.03 M585.1,500.93c0,1.57,0,3.14,0.12,4.61
		c0,0.1-0.08,0.19-0.18,0.2L585.1,500.93z M584.76,496.51c-0.1,0-0.18-0.07-0.2-0.16c0-1.57-0.1-3.14-0.18-4.69
		c-0.01-0.1,0.06-0.19,0.16-0.2c0,0,0,0,0,0l0,0c0.09-0.02,0.17,0.03,0.2,0.12c0,0.01,0.01,0.03,0.01,0.05l0,0l0.2,4.69
		c0,0.1-0.08,0.18-0.18,0.18c-0.01,0-0.01,0-0.02,0L584.76,496.51z M584.34,487.31c-0.1-0.01-0.18-0.1-0.18-0.2
		c0-1.55-0.16-3.12-0.26-4.61c0-0.1,0.07-0.18,0.16-0.2l0,0c0.1,0.01,0.18,0.08,0.2,0.18c0,1.55,0.16,3.12,0.26,4.69
		c-0.01,0.1-0.08,0.18-0.18,0.2l0,0L584.34,487.31z M583.79,478.07c-0.1,0-0.18-0.07-0.2-0.16l-0.32-4.61
		c0.01-0.09,0.09-0.15,0.18-0.15c0.01,0,0.02,0,0.03,0c0.1,0,0.19,0.08,0.2,0.18c0.12,1.57,0.24,3.12,0.34,4.59
		c0.02,0.09-0.03,0.17-0.12,0.2c-0.01,0-0.03,0.01-0.05,0.01l0,0L583.79,478.07z M583.07,468.89c-0.1,0-0.18-0.08-0.18-0.18
		l-0.42-4.59c-0.01-0.1,0.06-0.19,0.16-0.2c0,0,0,0,0,0l0,0c0.09,0,0.17,0.05,0.2,0.14l0,0c0.16,1.55,0.3,3.12,0.44,4.57
		c0,0.11-0.07,0.2-0.18,0.22L583.07,468.89z M582.18,459.73c-0.1,0-0.19-0.08-0.2-0.18c-0.16-1.53-0.34-3.06-0.52-4.59
		c-0.01-0.1,0.06-0.19,0.16-0.2c0,0,0,0,0,0c0.09-0.02,0.17,0.03,0.2,0.12c0,0.01,0.01,0.03,0.01,0.05l0,0
		c0.18,1.55,0.34,3.04,0.52,4.57c0.01,0.1-0.06,0.2-0.16,0.22V459.73z M581.08,450.55c-0.09,0.01-0.18-0.05-0.2-0.14l0,0
		c-0.2-1.57-0.42-3.12-0.64-4.59c-0.01-0.1,0.06-0.19,0.16-0.2c0,0,0,0,0,0l0,0c0.1-0.02,0.2,0.04,0.22,0.13c0,0,0,0.01,0,0.01l0,0
		c0.22,1.57,0.44,3.04,0.64,4.57c0.01,0.1-0.06,0.19-0.16,0.2c0,0,0,0,0,0L581.08,450.55z M579.73,441.43
		c-0.09,0.01-0.17-0.05-0.18-0.14c0-0.01,0-0.01,0-0.02c-0.26-1.57-0.52-3.12-0.79-4.55c-0.02-0.1,0.04-0.2,0.13-0.22
		c0,0,0.01,0,0.01,0l0,0c0.1-0.01,0.19,0.06,0.2,0.16c0,0,0,0,0,0l0,0c0.28,1.57,0.54,3.02,0.79,4.55c0.02,0.1-0.04,0.2-0.13,0.22
		c0,0-0.01,0-0.01,0l0,0H579.73z M578.16,432.35c-0.09,0-0.17-0.07-0.18-0.16c-0.3-1.55-0.6-3.12-0.93-4.51
		c-0.02-0.09,0.03-0.17,0.11-0.2c0,0,0.01,0,0.01,0l0,0c0.1-0.02,0.2,0.04,0.24,0.14l0,0c0.3,1.47,0.62,3,0.93,4.53
		c0.01,0.1-0.05,0.19-0.14,0.22L578.16,432.35z M576.14,423.33c0,0-0.16,0-0.18-0.14c-0.38-1.57-0.74-3.04-1.13-4.47
		c0.03-0.11,0.15-0.16,0.25-0.13c0.06,0.02,0.11,0.07,0.13,0.13c0.36,1.45,0.74,2.96,1.11,4.49c0.02,0.1-0.04,0.2-0.13,0.22
		c0,0-0.01,0-0.01,0l0,0L576.14,423.33z M573.79,414.41c-0.08-0.01-0.15-0.05-0.18-0.12c-0.42-1.57-0.89-3-1.35-4.41
		c-0.04-0.1,0.01-0.22,0.12-0.26c0,0,0,0,0,0c0.1-0.03,0.2,0.02,0.24,0.12l0,0c0.44,1.43,0.91,2.92,1.33,4.41
		c0.04,0.09-0.01,0.2-0.1,0.24c-0.01,0-0.01,0-0.02,0.01l0,0L573.79,414.41z M570.89,405.63c-0.07-0.01-0.13-0.05-0.16-0.12
		c-0.52-1.47-1.09-2.92-1.65-4.31c-0.03-0.09,0.01-0.2,0.1-0.24c0.08-0.06,0.18-0.06,0.26,0c0.54,1.39,1.11,2.84,1.65,4.31
		c0.03,0.11-0.02,0.22-0.12,0.26L570.89,405.63z M485.6,403.24L485.6,403.24c-0.07-0.07-0.07-0.18-0.01-0.26c0,0,0,0,0.01-0.01
		c0.79-1.23,1.67-2.52,2.64-3.78c0.07-0.07,0.18-0.07,0.26-0.01c0,0,0,0,0.01,0.01c0.07,0.07,0.07,0.18,0.01,0.26c0,0,0,0-0.01,0.01
		l0,0c-0.95,1.29-1.81,2.58-2.64,3.78c-0.05,0.06-0.14,0.07-0.2,0.02c-0.01-0.01-0.02-0.01-0.02-0.02H485.6z M567.59,397.1
		c-0.06,0.03-0.12,0.03-0.18,0c-0.66-1.43-1.35-2.82-2.01-4.13c-0.06-0.08-0.06-0.19,0-0.26c0.06-0.07,0.16-0.07,0.23-0.01
		c0.01,0,0.01,0.01,0.01,0.01c0.7,1.31,1.39,2.72,2.01,4.13c0.04,0.11,0,0.23-0.1,0.28L567.59,397.1z M491.23,395.81h-0.14
		c-0.06-0.08-0.06-0.19,0-0.26l0,0c0.97-1.19,2.01-2.38,3-3.52c0.07-0.07,0.18-0.07,0.26-0.01c0,0,0,0,0.01,0.01l0,0
		c0.07,0.07,0.07,0.18,0.01,0.26c0,0,0,0-0.01,0.01l0,0c-1.03,1.15-2.01,2.34-3,3.5c-0.06,0.03-0.13,0.03-0.18,0L491.23,395.81z
		 M563.26,388.97c0,0-0.14,0-0.16,0c-0.83-1.33-1.69-2.62-2.56-3.82c-0.07-0.07-0.07-0.18-0.01-0.26c0,0,0,0,0.01-0.01
		c0.07-0.07,0.18-0.07,0.26-0.01c0,0,0,0,0.01,0.01l0,0c0.91,1.19,1.75,2.48,2.6,3.82c0.06,0.08,0.06,0.19,0,0.26
		C563.36,389,563.3,389,563.26,388.97z M497.35,388.97h-0.12c-0.06-0.08-0.06-0.19,0-0.26l0,0c1.09-1.11,2.21-2.19,3.32-3.22
		c0.08-0.06,0.2-0.06,0.28,0l0,0c0.06,0.08,0.06,0.19,0,0.26l0,0c-1.11,1.05-2.23,2.01-3.32,3.2c-0.06,0.03-0.12,0.03-0.18,0
		L497.35,388.97z M504.18,382.73h-0.14c-0.07-0.07-0.07-0.18-0.01-0.26c0,0,0,0,0.01-0.01l0,0c1.21-1.01,2.44-2.01,3.66-2.82
		c0.09-0.07,0.22-0.05,0.28,0.04c0.05,0.07,0.05,0.17,0,0.24c-1.23,0.87-2.46,1.81-3.66,2.8c-0.05,0.04-0.13,0.04-0.18,0H504.18z
		 M557.78,381.6c-0.04,0.02-0.1,0.02-0.14,0c-1.03-1.13-2.12-2.2-3.26-3.2c-0.08-0.08-0.08-0.2,0-0.28l0,0
		c0.08-0.06,0.2-0.06,0.28,0c1.15,1.03,2.25,2.11,3.28,3.26c0.08,0.08,0.08,0.2,0,0.28h-0.1L557.78,381.6z M511.73,377.37
		c-0.07,0-0.14-0.04-0.18-0.1c-0.06-0.08-0.06-0.19,0-0.26c1.35-0.83,2.72-1.55,4.03-2.25c0.07-0.06,0.17-0.06,0.24,0l0,0
		c0.06,0.08,0.06,0.18,0,0.26c-1.33,0.66-2.68,1.43-4.03,2.25L511.73,377.37z M550.76,375.58L550.76,375.58
		c-1.1-0.72-2.25-1.35-3.44-1.89l-0.58-0.26c-0.06-0.08-0.06-0.18,0-0.26l0,0c0.07-0.06,0.17-0.06,0.24,0l0,0l0.58,0.24
		c1.21,0.6,2.38,1.27,3.5,2.01c0.06,0.08,0.06,0.2,0,0.28L550.76,375.58z M519.88,373.22c-0.1-0.03-0.15-0.13-0.13-0.22
		c0-0.01,0-0.01,0.01-0.02c0.02-0.06,0.06-0.1,0.12-0.12c1.43-0.56,2.9-1.05,4.39-1.45c0.11-0.03,0.21,0.04,0.24,0.14
		c0.02,0.1-0.04,0.2-0.13,0.22c0,0-0.01,0-0.01,0l0,0c-1.48,0.4-2.94,0.89-4.37,1.45L519.88,373.22z M542.45,371.83L542.45,371.83
		c-1.46-0.42-2.95-0.75-4.45-0.97c-0.1-0.01-0.18-0.1-0.18-0.2l0,0c0.02-0.1,0.11-0.16,0.21-0.14c0,0,0.01,0,0.01,0l0,0
		c1.53,0.2,3.05,0.53,4.53,0.97c0.1,0.02,0.16,0.11,0.14,0.21c0,0,0,0.01,0,0.01c-0.04,0.11-0.15,0.17-0.26,0.14V371.83z
		 M528.76,370.87c-0.09-0.01-0.16-0.08-0.18-0.16c-0.02-0.1,0.04-0.2,0.13-0.22c0,0,0.01,0,0.01,0l0,0
		c1.55-0.21,3.11-0.32,4.67-0.32l0,0c0.1-0.01,0.19,0.06,0.2,0.16c0,0.01,0,0.01,0,0.02l0,0c0,0.09-0.07,0.17-0.16,0.18l0,0
		c-1.52,0.01-3.04,0.11-4.55,0.32L528.76,370.87z"/>
	<path class="st4" d="M577.65,558.53L577.65,558.53c-0.1-0.01-0.18-0.1-0.18-0.2c0.1-1.23,0.18-2.48,0.26-3.74
		c0-0.11,0.09-0.2,0.2-0.2c0.11,0,0.2,0.09,0.2,0.2l0,0c-0.1,1.29-0.18,2.54-0.28,3.74C577.86,558.44,577.77,558.53,577.65,558.53
		L577.65,558.53z M578.22,550.19L578.22,550.19c-0.1,0-0.18-0.08-0.18-0.18l0,0c0.1-1.57,0.18-3.04,0.26-4.61
		c0.01-0.1,0.1-0.18,0.2-0.18l0,0c0.1,0.01,0.18,0.1,0.18,0.2l0,0c0,1.57-0.16,3.14-0.26,4.59c-0.01,0.11-0.11,0.19-0.22,0.18
		c-0.01,0-0.02,0-0.02,0H578.22z M578.7,540.97L578.7,540.97c-0.08-0.01-0.15-0.08-0.16-0.16l0,0c0-1.57,0.12-3.12,0.18-4.61
		c0-0.1,0.08-0.18,0.18-0.18l0,0c0.1,0,0.19,0.08,0.2,0.18l0,0c0,1.55-0.14,3.12-0.2,4.61c-0.03,0.11-0.13,0.17-0.24,0.16H578.7z
		 M579.06,531.78L579.06,531.78c-0.1-0.01-0.18-0.1-0.18-0.2c0-1.55,0-3.12,0.12-4.61c0.02-0.1,0.1-0.17,0.2-0.18
		c0.1,0,0.18,0.08,0.18,0.18c0,1.57,0,3.14-0.14,4.69c-0.03,0.09-0.13,0.15-0.22,0.12H579.06z M579.3,522.56
		c-0.1-0.01-0.18-0.08-0.2-0.18c0-1.57,0-3.14,0-4.69c0.02-0.1,0.1-0.17,0.2-0.18l0,0c0.11,0,0.2,0.09,0.2,0.2l0,0l0,0
		c0,1.55,0,3.12,0,4.61c0.03,0.08,0,0.18-0.09,0.21c-0.01,0-0.02,0.01-0.04,0.01L579.3,522.56z M579.43,513.34L579.43,513.34
		c-0.1,0-0.18-0.08-0.18-0.18l0,0v-4.61c0-0.1,0.08-0.18,0.18-0.18c0.1,0,0.18,0.08,0.18,0.18c0,0,0,0,0,0v4.73
		c-0.03,0.07-0.1,0.12-0.18,0.12V513.34z M579.43,504.12c-0.1,0-0.18-0.08-0.18-0.18v-4.61c0-0.1,0.08-0.19,0.18-0.2l0,0
		c0.1,0,0.18,0.08,0.18,0.18c0,0.01,0,0.01,0,0.02v4.61C579.61,504.03,579.53,504.12,579.43,504.12c-0.01,0-0.03,0-0.04,0
		L579.43,504.12z M579.28,494.9c-0.1,0-0.18-0.08-0.18-0.18c0-1.57,0-3.12-0.14-4.61c0.01-0.1,0.08-0.18,0.18-0.2l0,0
		c0.1,0,0.18,0.08,0.18,0.18c0,1.57,0,3.12,0.12,4.61C579.46,494.79,579.39,494.88,579.28,494.9c-0.01,0-0.03,0-0.04,0l0,0H579.28z
		 M579.02,485.68c-0.1,0-0.19-0.08-0.2-0.18c0-1.57-0.14-3.14-0.2-4.69c0-0.11,0.09-0.2,0.2-0.2l0,0c0.1,0,0.18,0.08,0.18,0.18
		c0,1.57,0.14,3.12,0.2,4.69c-0.01,0.11-0.11,0.2-0.22,0.2L579.02,485.68z M578.58,476.44c-0.1,0-0.18-0.08-0.18-0.18
		c0-1.55-0.18-3.12-0.28-4.69c-0.03-0.09,0.01-0.2,0.11-0.23c0.01,0,0.02-0.01,0.03-0.01c0.09-0.03,0.2,0.01,0.23,0.11
		c0,0.01,0.01,0.02,0.01,0.03l0,0c0,1.57,0.18,3.14,0.26,4.61c0.02,0.09-0.03,0.17-0.12,0.2c-0.01,0-0.03,0.01-0.05,0.01l0,0
		L578.58,476.44z M578,467.26c-0.11,0-0.2-0.09-0.2-0.2l0,0c-0.1-1.55-0.22-3.12-0.36-4.57c0-0.09,0.05-0.17,0.14-0.2l0,0
		c0.09-0.02,0.17,0.03,0.2,0.12c0,0.01,0.01,0.03,0.01,0.05l0,0c0.12,1.57,0.24,3.06,0.36,4.59c0.02,0.09-0.03,0.17-0.12,0.2
		c-0.01,0-0.03,0.01-0.05,0.01L578,467.26z M577.21,458.08c-0.1-0.01-0.18-0.09-0.2-0.18c-0.14-1.53-0.3-3.06-0.46-4.59
		c-0.02-0.09,0.03-0.17,0.11-0.2c0.01,0,0.02,0,0.03,0l0,0c0.07-0.02,0.15,0.02,0.18,0.09c0,0,0,0.01,0,0.01l0,0
		c0.16,1.55,0.32,3.12,0.46,4.67C577.35,457.96,577.3,458.05,577.21,458.08c-0.01,0-0.02,0-0.04,0l0,0H577.21z M576.22,448.9
		c-0.1,0-0.18-0.07-0.2-0.16c-0.18-1.57-0.38-3.12-0.58-4.59c0-0.1,0.08-0.18,0.18-0.18c0.1,0,0.19,0.08,0.2,0.18l0,0
		c0.2,1.57,0.4,3.14,0.58,4.59c0.02,0.09-0.03,0.17-0.11,0.2c-0.01,0-0.02,0-0.03,0l0,0L576.22,448.9z M574.98,439.76
		c-0.09,0-0.17-0.07-0.18-0.16c-0.24-1.57-0.5-3.12-0.72-4.57c-0.02-0.09,0.03-0.17,0.11-0.2c0.01,0,0.02,0,0.03,0l0,0
		c0.09-0.01,0.18,0.05,0.2,0.14c0.26,1.49,0.5,3.02,0.72,4.57c0.02,0.1-0.04,0.2-0.13,0.22c0,0-0.01,0-0.01,0l0,0H574.98z
		 M573.41,430.66c-0.09,0-0.17-0.07-0.18-0.16c-0.28-1.55-0.58-3.04-0.89-4.51c-0.02-0.1,0.04-0.2,0.13-0.22c0,0,0.01,0,0.01,0
		c0.08-0.03,0.18,0,0.21,0.09c0,0.01,0.01,0.02,0.01,0.04l0,0c0.32,1.47,0.62,3,0.91,4.53c0.02,0.1-0.04,0.2-0.13,0.22
		c0,0-0.01,0-0.01,0l0,0L573.41,430.66z M571.57,421.62c-0.1,0-0.18-0.07-0.2-0.16c-0.34-1.55-0.72-3.02-1.11-4.45
		c-0.03-0.11,0.04-0.21,0.14-0.24c0.08-0.04,0.18,0,0.21,0.08c0,0.01,0.01,0.01,0.01,0.02l0,0c0.38,1.45,0.74,2.96,1.11,4.51
		c0.02,0.09-0.03,0.17-0.11,0.2c-0.01,0-0.02,0-0.03,0l0,0L571.57,421.62z M569.2,412.62c-0.08,0-0.16-0.06-0.18-0.14
		c-0.44-1.49-0.89-2.96-1.37-4.39c-0.02-0.1,0.04-0.2,0.14-0.24l0,0c0.1-0.03,0.2,0.02,0.24,0.12c0.44,1.41,0.93,2.9,1.35,4.41
		c0.06,0.06,0.06,0.16,0,0.22l0,0L569.2,412.62z M486.96,405.41c-0.07-0.07-0.07-0.18-0.01-0.26c0,0,0,0,0.01-0.01
		c0.85-1.23,1.75-2.5,2.72-3.74c0.07-0.07,0.18-0.07,0.26-0.01c0,0,0,0,0.01,0.01l0,0c0.07,0.07,0.07,0.18,0.01,0.26
		c0,0,0,0-0.01,0.01l0,0c-0.95,1.25-1.85,2.5-2.7,3.72c-0.06,0.03-0.12,0.03-0.18,0L486.96,405.41z M566.38,403.92
		c-0.08,0-0.15-0.04-0.18-0.12c-0.54-1.49-1.13-2.92-1.69-4.27c-0.07-0.07-0.07-0.18-0.01-0.26c0,0,0,0,0.01-0.01l0,0
		c0.07-0.06,0.17-0.06,0.24,0l0,0c0.58,1.35,1.15,2.78,1.71,4.27c0.03,0.1-0.01,0.21-0.1,0.26L566.38,403.92z M492.64,398.07h-0.12
		c-0.08-0.08-0.08-0.2,0-0.28c0.99-1.19,2.01-2.38,3.02-3.5c0.07-0.07,0.18-0.07,0.26-0.01c0,0,0,0,0.01,0.01l0,0
		c0.06,0.07,0.06,0.17,0,0.24l0,0c-1.01,1.13-2.01,2.29-3,3.48c-0.05,0.03-0.11,0.03-0.16,0V398.07z M562.76,395.45
		c-0.05,0.04-0.13,0.04-0.18,0c-0.7-1.43-1.43-2.8-2.17-4.03c-0.06-0.08-0.06-0.2,0-0.28c0.08-0.06,0.19-0.06,0.26,0
		c0.8,1.3,1.53,2.65,2.19,4.03c0.06,0.07,0.06,0.17,0,0.24l0,0L562.76,395.45z M498.82,391.22h-0.12c-0.06-0.08-0.06-0.2,0-0.28
		c1.11-1.11,2.23-2.17,3.34-3.12c0.08-0.08,0.2-0.08,0.28,0c0.07,0.07,0.07,0.18,0.01,0.26c0,0,0,0-0.01,0.01l0,0
		c-1.11,1.01-2.23,2.01-3.32,3.12c-0.06,0.02-0.12,0.02-0.18,0L498.82,391.22z M558.07,387.54c-0.05,0.02-0.11,0.02-0.16,0
		c-0.88-1.24-1.83-2.44-2.84-3.58c-0.07-0.07-0.07-0.18-0.01-0.26c0,0,0,0,0.01-0.01l0,0c0.08-0.08,0.2-0.08,0.28,0
		c1.01,1.16,1.97,2.37,2.86,3.62c0.07,0.07,0.07,0.18,0.01,0.26c0,0,0,0-0.01,0.01l0,0c-0.04,0.02-0.1,0.02-0.14,0V387.54z
		 M505.73,385.04c-0.05,0.02-0.11,0.02-0.16,0c-0.06-0.08-0.06-0.19,0-0.26l0,0c1.23-0.99,2.46-2.01,3.68-2.78
		c0.07-0.07,0.18-0.07,0.26-0.01c0,0,0,0,0.01,0.01l0,0c0.07,0.07,0.07,0.18,0.01,0.26c0,0,0,0-0.01,0.01l0,0
		c-1.21,0.87-2.44,1.79-3.66,2.76c-0.02,0.06-0.06,0.1-0.12,0.12V385.04z M552.03,380.69c-0.04,0.02-0.08,0.02-0.12,0
		c-1.16-0.99-2.4-1.88-3.7-2.66c-0.06-0.08-0.06-0.2,0-0.28c0.08-0.06,0.18-0.06,0.26,0l0,0c1.32,0.8,2.57,1.71,3.74,2.72
		c0.07,0.07,0.07,0.18,0.01,0.26c0,0,0,0-0.01,0.01l0,0c-0.06,0.03-0.12,0.03-0.18,0V380.69z M513.23,379.77
		c-0.07,0.01-0.13-0.04-0.16-0.1c-0.07-0.07-0.07-0.18-0.01-0.26c0,0,0,0,0.01-0.01l0,0c1.3-0.8,2.64-1.53,4.03-2.17
		c0.09-0.04,0.2,0,0.24,0.09c0,0,0,0,0,0.01l0,0c0.06,0.05,0.07,0.14,0.02,0.2c-0.01,0.01-0.01,0.02-0.02,0.02l0,0
		c-1.35,0.64-2.7,1.37-4.03,2.15L513.23,379.77z M544.12,376L544.12,376c-1.42-0.55-2.88-1-4.37-1.35
		c-0.08,0.09-0.22,0.11-0.31,0.03c-0.09-0.08-0.11-0.22-0.03-0.31l0,0c0.02-0.1,0.12-0.17,0.22-0.16c1.51,0.36,2.99,0.83,4.43,1.39
		c0.05,0.07,0.05,0.17,0,0.24c-0.02,0.07-0.09,0.12-0.16,0.12L544.12,376z M521.57,375.84c-0.08,0-0.15-0.04-0.18-0.12
		c-0.03-0.11,0.02-0.22,0.12-0.26c1.46-0.51,2.94-0.92,4.45-1.25c0.1-0.02,0.2,0.04,0.22,0.13c0,0,0,0.01,0,0.01l0,0
		c0.03,0.11-0.04,0.21-0.14,0.24c-1.49,0.32-2.97,0.74-4.41,1.25H521.57z M535.16,373.95L535.16,373.95c-1.52-0.12-3.05-0.12-4.57,0
		c-0.1,0-0.2,0-0.22-0.16c-0.01-0.1,0.06-0.19,0.16-0.2c0.01,0,0.01,0,0.02,0l0,0c1.56-0.1,3.12-0.1,4.67,0
		c0.11,0.02,0.19,0.11,0.2,0.22c-0.02,0.11-0.11,0.18-0.22,0.18L535.16,373.95z"/>
	<path class="st4" d="M571.05,557.56L571.05,557.56c0,0-0.16,0-0.16-0.16l0,0c0.15-1.49,0.29-3.02,0.42-4.59
		c0-0.09,0.07-0.16,0.16-0.17c0.02,0,0.03,0,0.05,0.01l0,0c0.09,0,0.16,0.07,0.17,0.16c0,0.02,0,0.03-0.01,0.05l0,0
		c-0.14,1.55-0.28,3.12-0.42,4.59c0,0.1-0.08,0.18-0.18,0.18L571.05,557.56z M571.88,548.38L571.88,548.38
		c-0.1-0.01-0.18-0.1-0.18-0.2l0,0c0.12-1.55,0.24-3.02,0.36-4.59c0-0.1,0.12-0.16,0.2-0.18c0.1,0.03,0.18,0.12,0.18,0.22
		c-0.12,1.55-0.24,3.12-0.34,4.59c-0.02,0.1-0.1,0.16-0.2,0.16L571.88,548.38z M572.54,539.2L572.54,539.2c-0.1,0-0.16,0-0.18-0.18
		l0,0c0-1.55,0.18-3.04,0.26-4.59c0.02-0.1,0.1-0.17,0.2-0.18c0.1,0.01,0.18,0.1,0.18,0.2c0,1.57-0.18,3.12-0.28,4.61
		c0,0.08-0.05,0.15-0.12,0.18L572.54,539.2z M573.06,530L573.06,530c-0.11,0-0.2-0.09-0.2-0.2l0,0l0,0c0-1.57,0.16-3.14,0.22-4.69
		c0-0.12,0-0.18,0.2-0.18c0.2,0,0.18,0,0.18,0.2l0,0c0,1.55-0.12,3.12-0.2,4.59c0.04,0.1-0.02,0.22-0.12,0.26
		c-0.01,0-0.01,0-0.02,0.01l0,0L573.06,530z M573.47,520.78L573.47,520.78c-0.1,0-0.18-0.08-0.18-0.18l0,0c0-1.57,0-3.12,0.14-4.61
		c0.02-0.1,0.1-0.17,0.2-0.18l0,0c0.09,0,0.16,0.07,0.17,0.16c0,0.02,0,0.03-0.01,0.05l0,0c0,1.55,0,3.12-0.14,4.61
		c0,0.09-0.07,0.17-0.16,0.18L573.47,520.78z M573.73,511.56L573.73,511.56c-0.1,0-0.18-0.08-0.18-0.18c0-0.01,0-0.01,0-0.02
		c0-1.55,0-3.12,0-4.59c0-0.11,0.09-0.2,0.2-0.2h0l0,0c0.1,0,0.18,0.08,0.18,0.18c0,0.01,0,0.01,0,0.02v4.67
		c-0.03,0.1-0.13,0.15-0.22,0.13c-0.01,0-0.01,0-0.02-0.01H573.73z M573.85,502.34L573.85,502.34c-0.1,0-0.18-0.08-0.18-0.18v-4.59
		c0-0.1,0.08-0.18,0.18-0.18l0,0c0.1,0,0.18,0.08,0.18,0.18v4.61c0.01,0.09-0.05,0.17-0.14,0.18c-0.01,0-0.01,0-0.02,0
		L573.85,502.34z M573.85,493.12c-0.1-0.01-0.18-0.08-0.2-0.18v-4.69c0.01-0.1,0.08-0.18,0.18-0.2l0,0c0.1,0.02,0.19,0.1,0.2,0.2
		v4.67c0.02,0.1-0.04,0.19-0.14,0.22c-0.01,0-0.03,0-0.04,0V493.12z M573.71,483.88c-0.1,0.01-0.19-0.06-0.2-0.16
		c0-0.01,0-0.01,0-0.02c0-1.57,0-3.12-0.12-4.61c-0.01-0.1,0.06-0.19,0.16-0.2c0.01,0,0.01,0,0.02,0l0,0c0.1,0,0.19,0.08,0.2,0.18
		c0,1.57,0,3.12,0.14,4.61c0,0.1-0.08,0.19-0.18,0.2H573.71z M573.41,474.66c-0.1,0-0.18-0.08-0.18-0.18c0-1.55-0.14-3.12-0.22-4.67
		c0-0.1,0-0.2,0.14-0.2l0,0c0.1,0,0.19,0.08,0.2,0.18l0,0c0,1.55,0.16,3.12,0.22,4.67C573.58,474.56,573.51,474.65,573.41,474.66
		c-0.01,0-0.01,0-0.02,0H573.41z M572.94,465.46c-0.1-0.01-0.18-0.08-0.2-0.18c0-1.55-0.18-3.12-0.3-4.59c0-0.11,0.07-0.2,0.18-0.22
		c0.1,0,0.19,0.08,0.2,0.18l0,0c0.12,1.55,0.22,3.12,0.32,4.59c-0.01,0.1-0.08,0.18-0.18,0.2L572.94,465.46z M572.28,456.26
		c-0.09,0-0.17-0.07-0.18-0.16c-0.14-1.57-0.28-3.14-0.42-4.59c-0.01-0.1,0.06-0.2,0.16-0.22c0.11,0,0.2,0.07,0.22,0.18
		c0.14,1.57,0.28,3.12,0.4,4.59c0.02,0.09-0.03,0.17-0.11,0.2c-0.01,0-0.02,0-0.03,0l0,0L572.28,456.26z M571.39,447.08
		c-0.1-0.01-0.18-0.08-0.2-0.18c-0.16-1.55-0.34-3.12-0.52-4.57c0-0.1,0.08-0.18,0.18-0.18c0.1,0,0.19,0.08,0.2,0.18l0,0
		c0.18,1.57,0.36,3.04,0.52,4.59c0.02,0.09-0.03,0.17-0.12,0.2c-0.01,0-0.03,0.01-0.05,0.01L571.39,447.08z M570.25,437.92
		c0,0-0.16,0-0.18-0.14c-0.22-1.57-0.46-3.12-0.68-4.57c-0.02-0.1,0.04-0.2,0.13-0.22c0,0,0.01,0,0.01,0l0,0
		c0.1-0.02,0.19,0.04,0.22,0.14c0,0.01,0,0.02,0,0.03l0,0c0.26,1.57,0.48,3.04,0.68,4.57c0.02,0.09-0.03,0.17-0.11,0.2
		c-0.01,0-0.02,0-0.03,0l0,0H570.25z M568.8,428.83c-0.09,0.01-0.17-0.05-0.18-0.14c0,0,0,0,0,0c-0.28-1.57-0.56-3.14-0.89-4.53
		c-0.03-0.11,0.03-0.23,0.14-0.26c0.11-0.03,0.23,0.03,0.26,0.14v0.12c0.28,1.45,0.56,2.98,0.85,4.53c0.02,0.1-0.04,0.2-0.13,0.22
		c0,0-0.01,0-0.01,0L568.8,428.83z M566.94,419.79c-0.09,0-0.17-0.07-0.18-0.16c-0.34-1.55-0.72-3-1.09-4.45
		c-0.03-0.11,0.04-0.21,0.14-0.24c0.06-0.06,0.16-0.06,0.22,0l0,0c0.38,1.45,0.77,2.96,1.11,4.49c0.01,0.1-0.05,0.19-0.14,0.22l0,0
		L566.94,419.79z M564.63,410.85c-0.08,0.01-0.16-0.04-0.18-0.12c-0.44-1.55-0.91-2.98-1.39-4.39c-0.03-0.1,0.02-0.21,0.12-0.24
		c0.1-0.03,0.21,0.02,0.24,0.12l0,0c0.46,1.41,0.95,2.9,1.39,4.41c0.03,0.08,0,0.18-0.09,0.21c-0.01,0-0.02,0.01-0.04,0.01l0,0
		L564.63,410.85z M488.31,407.55h-0.12c-0.06-0.08-0.06-0.18,0-0.26c0.95-1.29,1.87-2.48,2.8-3.68c0.07-0.07,0.18-0.07,0.26-0.01
		c0,0,0,0,0.01,0.01l0,0c0.07,0.07,0.07,0.18,0.01,0.26c0,0,0,0-0.01,0.01l0,0c-0.93,1.17-1.83,2.38-2.78,3.66L488.31,407.55z
		 M561.69,402.09c-0.08,0-0.16-0.06-0.18-0.14c-0.58-1.48-1.18-2.89-1.81-4.23c-0.01-0.1,0.06-0.2,0.16-0.22
		c0.06-0.03,0.14-0.03,0.2,0c0.62,1.35,1.23,2.78,1.81,4.25c0.02,0.1-0.03,0.21-0.12,0.26L561.69,402.09z M493.97,400.28h-0.12
		c-0.06-0.08-0.06-0.2,0-0.28c1.01-1.19,2.01-2.36,3.04-3.46c0.07-0.07,0.18-0.07,0.26-0.01c0,0,0,0,0.01,0.01
		c0.08,0.08,0.08,0.2,0,0.28l0,0c-1.01,1.11-2.01,2.27-3.02,3.46C494.08,400.3,494.02,400.3,493.97,400.28z M557.78,393.74
		c-0.05,0.02-0.11,0.02-0.16,0c-0.73-1.34-1.54-2.65-2.42-3.91c-0.06-0.08-0.06-0.18,0-0.26l0,0c0.08-0.08,0.2-0.08,0.28,0
		c0.83,1.21,1.65,2.54,2.42,4.03c0.06,0.08,0.06,0.19,0,0.26c0.03,0.04,0.03,0.1,0,0.14L557.78,393.74z M500.21,393.5
		c-0.04,0.02-0.1,0.02-0.14,0c-0.08-0.08-0.08-0.2,0-0.28c1.11-1.11,2.23-2.17,3.34-3.12c0.08-0.06,0.2-0.06,0.28,0
		c0.06,0.08,0.06,0.18,0,0.26l0,0c-1.13,1.01-2.23,2.01-3.34,3.12L500.21,393.5z M507.05,387.25h-0.16c-0.06-0.08-0.06-0.2,0-0.28
		c1.25-0.97,2.5-2.01,3.72-2.76c0.07-0.07,0.18-0.07,0.26-0.01c0,0,0,0,0.01,0.01c0.07,0.07,0.07,0.18,0.01,0.26c0,0,0,0-0.01,0.01
		l0,0c-1.23,0.85-2.48,1.75-3.7,2.74L507.05,387.25z M552.57,386.13c-0.05,0.02-0.1,0.02-0.14,0c-1.01-1.13-2.11-2.17-3.28-3.12
		c-0.06-0.08-0.06-0.19,0-0.26l0,0c0.08-0.08,0.2-0.08,0.28,0c1.19,0.98,2.31,2.06,3.32,3.22c0.06,0.08,0.06,0.19,0,0.26l0,0
		c-0.05,0.04-0.13,0.04-0.18,0V386.13z M514.66,382.1c-0.05,0.02-0.11,0.02-0.16,0c-0.08-0.08-0.08-0.2,0-0.28l0,0
		c1.35-0.74,2.73-1.41,4.15-2.01c0.07-0.06,0.17-0.06,0.24,0c0.04,0.09,0,0.2-0.09,0.24c0,0,0,0-0.01,0l0,0
		c-1.35,0.62-2.74,1.31-4.03,2.01L514.66,382.1z M545.44,380.41L545.44,380.41c-0.3-0.18-0.62-0.32-0.91-0.46
		c-1.08-0.5-2.18-0.95-3.3-1.33c-0.1-0.02-0.16-0.11-0.14-0.21c0,0,0-0.01,0-0.01l0,0c0.03-0.1,0.13-0.15,0.22-0.13
		c0.01,0,0.01,0,0.02,0.01l0,0c1.13,0.38,2.24,0.83,3.32,1.33l0.95,0.48c0.06,0.08,0.06,0.18,0,0.26c0,0.09-0.07,0.17-0.16,0.18l0,0
		L545.44,380.41z M523.08,378.4c-0.1,0-0.18-0.08-0.18-0.18c-0.01-0.1,0.06-0.19,0.16-0.2c0.01,0,0.01,0,0.02,0l0,0
		c1.48-0.44,3-0.78,4.53-1.01c0.1-0.01,0.19,0.06,0.2,0.16c0,0,0,0,0,0c0.02,0.09-0.03,0.17-0.11,0.2c-0.01,0-0.02,0-0.03,0l0,0
		c-1.51,0.23-3.01,0.56-4.47,1.01L523.08,378.4z M536.75,377.45L536.75,377.45c-1.5-0.26-3.02-0.4-4.55-0.4
		c-0.1,0-0.19-0.08-0.2-0.18l0,0c0.01-0.1,0.1-0.18,0.2-0.18l0,0c1.57,0,3.13,0.14,4.67,0.4c0.1,0.02,0.17,0.12,0.16,0.22l0,0
		c0.05,0.11,0,0.24-0.11,0.29c-0.08,0.03-0.17,0.02-0.23-0.03l0,0L536.75,377.45z"/>
	<path class="st4" d="M563.82,563.8L563.82,563.8c-0.09,0-0.16-0.07-0.17-0.16c0-0.02,0-0.03,0.01-0.05l0,0
		c0.16-1.15,0.34-2.34,0.5-3.56c0-0.09,0.07-0.16,0.16-0.17c0.02,0,0.03,0,0.05,0.01l0,0c0.1,0.02,0.16,0.11,0.14,0.21
		c0,0,0,0.01,0,0.01l0,0c-0.14,1.23-0.32,2.42-0.48,3.56C564,563.75,563.92,563.81,563.82,563.8z M564.91,555.65L564.91,555.65
		c-0.1-0.01-0.18-0.1-0.18-0.2l0,0c0.18-1.47,0.36-3.02,0.54-4.59c0.01-0.1,0.1-0.17,0.2-0.16c0,0,0,0,0,0
		c0.09,0,0.16,0.07,0.17,0.16c0,0.02,0,0.03-0.01,0.05l0,0c-0.16,1.59-0.32,3.12-0.5,4.61C565.1,555.6,565.01,555.66,564.91,555.65
		L564.91,555.65z M565.92,546.49L565.92,546.49c-0.1,0-0.18-0.08-0.18-0.18c0-0.01,0-0.01,0-0.02l0,0c0.16-1.57,0.3-3.04,0.44-4.59
		c0.01-0.1,0.1-0.18,0.2-0.18l0,0c0.09,0.01,0.16,0.09,0.16,0.18l0,0c-0.14,1.57-0.28,3.14-0.42,4.59c0.03,0.09-0.03,0.19-0.12,0.22
		l0,0L565.92,546.49z M566.74,537.31L566.74,537.31c-0.1-0.01-0.18-0.1-0.18-0.2l0,0c0.12-1.57,0.26-3.04,0.36-4.61
		c0.03-0.11,0.15-0.16,0.25-0.13c0.06,0.02,0.11,0.07,0.13,0.13l0,0l-0.36,4.67C566.92,537.26,566.84,537.32,566.74,537.31
		L566.74,537.31z M567.43,528.11L567.43,528.11c-0.09,0-0.17-0.07-0.18-0.16l0,0c0-1.57,0.2-3.04,0.28-4.61
		c0.01-0.1,0.1-0.17,0.2-0.16c0,0,0,0,0,0l0,0c0.1,0,0.19,0.08,0.2,0.18l0,0c0,1.55-0.2,3.12-0.3,4.61c-0.02,0.1-0.1,0.16-0.2,0.16
		V528.11z M567.97,518.91L567.97,518.91c-0.1-0.02-0.17-0.1-0.18-0.2l0.22-4.61c0-0.1,0.08-0.18,0.18-0.18c0.01,0,0.01,0,0.02,0
		c0.1,0,0.18,0.08,0.18,0.18l0,0c0,1.57-0.14,3.12-0.22,4.61c-0.01,0.11-0.11,0.19-0.22,0.18c0,0,0,0,0,0l0,0L567.97,518.91z
		 M568.37,509.71L568.37,509.71c-0.1-0.01-0.17-0.1-0.16-0.2c0,0,0,0,0,0l0,0c0-1.55,0.1-3.12,0.14-4.59
		c0.01-0.11,0.09-0.19,0.2-0.2c0.1,0,0.18,0.08,0.18,0.18c0,0.01,0,0.01,0,0.02l0,0c0,1.57,0,3.14-0.16,4.69
		c-0.04,0.08-0.12,0.12-0.2,0.12V509.71z M568.64,500.47L568.64,500.47c-0.1,0-0.18-0.08-0.18-0.18v-4.61
		c-0.02-0.09,0.03-0.17,0.12-0.2c0.01,0,0.03-0.01,0.05-0.01l0,0c0.1,0.01,0.18,0.1,0.18,0.2c0,1.57,0,3.12,0,4.61
		c0,0.1-0.08,0.18-0.18,0.18H568.64z M568.78,491.27L568.78,491.27c-0.11-0.02-0.18-0.11-0.18-0.22v-4.59
		c-0.01-0.1,0.06-0.19,0.16-0.2c0.01,0,0.01,0,0.02,0l0,0c0.11,0,0.2,0.09,0.2,0.2l0,0v4.67
		C568.94,491.21,568.86,491.26,568.78,491.27z M568.78,482.03c-0.1,0-0.18-0.08-0.18-0.18v-4.61c-0.02-0.09,0.03-0.17,0.12-0.2
		c0.01,0,0.03-0.01,0.05-0.01l0,0c0.1-0.01,0.19,0.06,0.2,0.16c0,0.01,0,0.01,0,0.02v4.69c0,0.1-0.08,0.18-0.18,0.18V482.03z
		 M568.62,472.81c-0.1-0.01-0.18-0.08-0.2-0.18l-0.14-4.61c0.01-0.1,0.08-0.18,0.18-0.2l0,0c0.1,0,0.19,0.08,0.2,0.18l0,0
		c0,1.55,0.1,3.12,0.16,4.59c0.01,0.1-0.06,0.19-0.16,0.2c-0.01,0-0.03,0-0.04,0L568.62,472.81z M568.27,463.61
		c-0.1,0.01-0.19-0.06-0.2-0.16c0-0.01,0-0.01,0-0.02c0-1.57-0.14-3.14-0.24-4.69c0-0.1,0.08-0.19,0.18-0.2l0,0
		c0.1-0.01,0.19,0.06,0.2,0.16c0,0.01,0,0.01,0,0.02c0,1.57,0.18,3.12,0.24,4.61c0.01,0.1-0.06,0.19-0.16,0.2c-0.01,0-0.01,0-0.02,0
		l0,0V463.61z M567.71,454.39c-0.09,0-0.17-0.07-0.18-0.16c-0.1-1.57-0.22-3.12-0.36-4.59c-0.01-0.1,0.06-0.2,0.16-0.22l0,0
		c0.09-0.02,0.17,0.03,0.2,0.12c0,0.01,0.01,0.03,0.01,0.05l0,0l0.36,4.69c0.02,0.09-0.03,0.17-0.11,0.2c-0.01,0-0.02,0-0.03,0l0,0
		L567.71,454.39z M566.94,445.21c-0.09-0.01-0.18-0.07-0.2-0.16c-0.14-1.57-0.32-3.14-0.48-4.59c-0.02-0.1,0.04-0.19,0.14-0.22
		c0.01,0,0.02,0,0.03,0c0.1-0.01,0.2,0.06,0.22,0.16c0.18,1.57,0.32,3.04,0.48,4.59c0.01,0.1-0.06,0.2-0.16,0.22H566.94z
		 M565.88,436.05c-0.1,0-0.18-0.08-0.18-0.18c-0.2-1.55-0.42-3.12-0.64-4.55c-0.02-0.1,0.04-0.2,0.13-0.22c0,0,0.01,0,0.01,0l0,0
		c0.1-0.01,0.19,0.06,0.2,0.16c0,0,0,0,0,0c0.22,1.55,0.44,3.02,0.66,4.57c0.01,0.1-0.06,0.2-0.16,0.22L565.88,436.05z
		 M564.49,426.93c-0.09,0.01-0.17-0.05-0.18-0.14c0-0.01,0-0.01,0-0.02c-0.28-1.55-0.56-3.12-0.85-4.53
		c-0.02-0.1,0.04-0.2,0.13-0.22c0,0,0.01,0,0.01,0c0.1-0.02,0.2,0.04,0.22,0.13c0,0,0,0.01,0,0.01l0,0c0.3,1.47,0.58,3,0.85,4.53
		c0.04,0.09-0.01,0.2-0.1,0.24c-0.01,0-0.01,0-0.02,0.01l0,0L564.49,426.93z M562.68,417.89c-0.09-0.01-0.16-0.07-0.18-0.16
		c-0.34-1.57-0.72-3.02-1.11-4.47c-0.02-0.1,0.04-0.2,0.13-0.22c0,0,0.01,0,0.01,0c0.08-0.03,0.18,0,0.21,0.09
		c0,0.01,0.01,0.02,0.01,0.04l0,0c0.4,1.41,0.74,2.92,1.11,4.47c0,0.1,0,0.18-0.12,0.22l0,0L562.68,417.89z M489.76,409.72
		l-0.16-0.1l-0.14-0.14c0.85-1.07,1.79-2.29,2.86-3.58c0.07-0.07,0.18-0.07,0.26-0.01c0,0,0,0,0.01,0.01
		c0.07,0.07,0.07,0.18,0.01,0.26c0,0,0,0-0.01,0.01L489.76,409.72z M560.22,408.98c-0.08,0-0.15-0.05-0.18-0.12
		c-0.48-1.57-0.97-2.98-1.45-4.39c-0.03-0.09,0.01-0.2,0.1-0.24c0.07-0.05,0.17-0.05,0.24,0l0,0c0.5,1.39,1.01,2.86,1.47,4.37
		c0.04,0.1-0.01,0.22-0.12,0.26c0,0,0,0,0,0L560.22,408.98z M495.32,402.65h-0.14c-0.06-0.08-0.06-0.19,0-0.26l0,0
		c1.05-1.21,2.01-2.38,3.14-3.48c0.1-0.06,0.22-0.02,0.27,0.07c0.03,0.06,0.04,0.13,0.01,0.19c-1.01,1.09-2.01,2.25-3.06,3.46
		c-0.07,0.05-0.17,0.05-0.24,0L495.32,402.65z M557.06,400.32c-0.08,0-0.14-0.05-0.16-0.12c-0.64-1.45-1.31-2.86-2.01-4.15
		c-0.06-0.08-0.06-0.18,0-0.26c0.08-0.06,0.19-0.06,0.26,0c0.7,1.31,1.35,2.7,2.01,4.17c0.04,0.11,0,0.23-0.1,0.28V400.32z
		 M501.56,395.85c-0.05,0.02-0.1,0.02-0.14,0c-0.07-0.06-0.07-0.16-0.01-0.23c0-0.01,0.01-0.01,0.01-0.01l0,0
		c1.13-1.13,2.25-2.19,3.36-3.12c0.07-0.07,0.18-0.07,0.26-0.01c0,0,0,0,0.01,0.01l0,0c0.07,0.06,0.07,0.16,0.01,0.23
		c0,0.01-0.01,0.01-0.01,0.01l0,0c-1.09,0.99-2.21,2.01-3.32,3.12c-0.05,0.04-0.13,0.04-0.18,0H501.56z M552.75,392.19
		c-0.06,0.03-0.12,0.03-0.18,0c-0.82-1.3-1.72-2.54-2.7-3.72c-0.07-0.07-0.07-0.18-0.01-0.26c0,0,0,0,0.01-0.01l0,0
		c0.08-0.06,0.2-0.06,0.28,0c1.01,1.17,1.95,2.4,2.82,3.68c0.06,0.08,0.06,0.19,0,0.26l0,0c0,0-0.1,0-0.16,0l0,0L552.75,392.19z
		 M508.46,389.71h-0.16c-0.06-0.08-0.06-0.2,0-0.28c1.29-0.99,2.54-1.89,3.76-2.72c0.1-0.04,0.22,0.01,0.26,0.12c0,0,0,0,0,0
		c0.03,0.06,0.03,0.14,0,0.2c-1.23,0.81-2.48,1.71-3.72,2.7L508.46,389.71z M546.71,385.4h-0.14c-1.07-0.84-2.24-1.56-3.46-2.15
		l-0.42-0.18c-0.06-0.08-0.06-0.19,0-0.26c0.04-0.09,0.14-0.14,0.23-0.1c0,0,0,0,0.01,0l0,0l0.4,0.2c1.27,0.59,2.46,1.33,3.56,2.19
		c0.07,0.07,0.07,0.18,0.01,0.26c0,0,0,0-0.01,0.01l0,0h-0.12L546.71,385.4z M516.21,384.62c-0.07,0-0.14-0.04-0.18-0.1
		c-0.06-0.08-0.06-0.18,0-0.26c1.36-0.75,2.77-1.42,4.21-2.01c0.09-0.04,0.2,0,0.24,0.09c0,0,0,0,0,0.01l0,0
		c0.05,0.07,0.05,0.17,0,0.24c-1.42,0.58-2.81,1.26-4.15,2.01L516.21,384.62z M538.36,381.5L538.36,381.5
		c-1.47-0.4-2.97-0.68-4.49-0.85c-0.1,0-0.18-0.08-0.18-0.18l0,0c0.02-0.1,0.1-0.17,0.2-0.18l0,0c1.54,0.16,3.06,0.45,4.55,0.87
		c0.09,0.01,0.16,0.09,0.16,0.18l0,0c-0.07,0.05-0.17,0.05-0.24,0L538.36,381.5z M524.69,381.32c-0.09,0-0.17-0.07-0.18-0.16
		c-0.01-0.1,0.05-0.19,0.14-0.22l0,0c1.51-0.36,3.04-0.6,4.59-0.72c0.11-0.03,0.22,0.02,0.25,0.13c0.03,0.11-0.02,0.22-0.13,0.25
		c-0.04,0.01-0.08,0.01-0.13,0l0,0c-1.52,0.12-3.03,0.36-4.51,0.7L524.69,381.32z"/>
	<path class="st4" d="M557.62,562.72L557.62,562.72c-0.1-0.04-0.16-0.14-0.14-0.24c0.24-1.43,0.48-2.96,0.74-4.53
		c0.01-0.1,0.1-0.17,0.2-0.17c0.01,0,0.02,0,0.03,0l0,0c0.1,0.02,0.16,0.1,0.16,0.2l0,0c-0.26,1.55-0.5,3.12-0.74,4.53
		c-0.01,0.11-0.11,0.19-0.22,0.18c0,0,0,0,0,0L557.62,562.72z M559.01,553.6L559.01,553.6c-0.09,0-0.16-0.07-0.17-0.16
		c0-0.02,0-0.03,0.01-0.05l0,0c0.2-1.49,0.4-3,0.6-4.57c0.02-0.1,0.12-0.17,0.22-0.16l0,0c0.1,0.03,0.18,0.12,0.18,0.22
		c-0.22,1.55-0.42,3.12-0.62,4.55c0,0.1-0.1,0.1-0.22,0.1V553.6z M560.2,544.44L560.2,544.44c-0.1,0-0.18-0.08-0.18-0.18
		c0-0.01,0-0.01,0-0.02l0,0c0.18-1.49,0.34-3.02,0.52-4.59c0-0.09,0.07-0.16,0.16-0.16l0,0c0.09,0,0.16,0.07,0.17,0.16
		c0,0.02,0,0.03-0.01,0.05l0,0c-0.16,1.55-0.34,3.12-0.5,4.57c-0.03,0.1-0.12,0.18-0.22,0.18l0,0H560.2z M561.17,535.28
		L561.17,535.28c-0.1-0.01-0.17-0.1-0.16-0.2c0,0,0,0,0,0l0,0c0.14-1.57,0.3-3.12,0.44-4.59c0-0.1,0.08-0.18,0.18-0.18
		c0.1,0,0.18,0.08,0.18,0.18l0,0c-0.14,1.57-0.28,3.12-0.42,4.59c0,0.1-0.08,0.19-0.18,0.2H561.17z M562.01,526.1L562.01,526.1
		c-0.1,0-0.18-0.08-0.18-0.18c0-0.01,0-0.01,0-0.02l0,0l0.36-4.59c0-0.1,0.08-0.18,0.18-0.18c0.1,0.01,0.18,0.08,0.2,0.18
		c-0.12,1.57-0.24,3.12-0.36,4.59c0.01,0.1-0.06,0.2-0.16,0.22L562.01,526.1z M562.7,516.9L562.7,516.9c-0.1-0.01-0.18-0.1-0.18-0.2
		l0,0l0.28-4.61c0.02-0.1,0.1-0.16,0.2-0.16c0.1,0,0.19,0.08,0.2,0.18l0,0c0,1.55-0.2,3.12-0.3,4.59c-0.02,0.1-0.1,0.16-0.2,0.16
		L562.7,516.9z M563.24,507.68L563.24,507.68c-0.1,0-0.18-0.08-0.18-0.18c0-0.01,0-0.01,0-0.02l0,0c0-1.55,0.16-3.12,0.22-4.59
		c0.02-0.1,0.1-0.17,0.2-0.18l0,0c0.1,0,0.18,0.08,0.18,0.18l0,0l-0.24,4.61c0,0.09-0.07,0.16-0.16,0.16l0,0L563.24,507.68z
		 M563.64,498.48L563.64,498.48c-0.1,0-0.18-0.08-0.18-0.18l0,0c0-1.57,0.1-3.12,0.14-4.61c0.01-0.1,0.1-0.18,0.2-0.18
		c0.1,0,0.18,0.08,0.18,0.18l0,0l-0.14,4.67C563.81,498.43,563.73,498.48,563.64,498.48z M563.9,489.24L563.9,489.24
		c-0.1,0-0.18-0.08-0.18-0.18c0-1.55,0-3.12,0-4.69c0-0.1,0-0.16,0.18-0.18l0,0c0.11,0,0.2,0.09,0.2,0.2l0,0l0,0
		c0,1.57,0,3.12,0,4.61c0.04,0.09,0,0.2-0.09,0.24c0,0,0,0-0.01,0L563.9,489.24z M564.03,480.04L564.03,480.04
		c-0.11-0.01-0.19-0.09-0.2-0.2l0,0v-4.61c0.01-0.1,0.1-0.18,0.2-0.18l0,0c0.1-0.01,0.19,0.06,0.2,0.16c0,0,0,0,0,0l0,0v4.69
		c-0.04,0.07-0.12,0.12-0.2,0.12V480.04z M564.03,470.82c-0.1-0.01-0.18-0.1-0.18-0.2c0-1.53,0-3.06,0-4.59
		c0-0.1,0.08-0.19,0.18-0.2l0,0c0.1,0,0.18,0.07,0.2,0.16l0,0l0.1,4.61c-0.02,0.1-0.1,0.18-0.2,0.2L564.03,470.82z M563.82,461.62
		c-0.11-0.01-0.2-0.09-0.22-0.2c0-1.55-0.1-3.12-0.18-4.67c-0.01-0.1,0.06-0.19,0.16-0.2c0.01,0,0.01,0,0.02,0l0,0
		c0.11,0,0.2,0.09,0.2,0.2l0,0c0,1.55,0.14,3.12,0.2,4.61c-0.01,0.1-0.08,0.18-0.18,0.2V461.62z M563.36,452.4
		c-0.1,0-0.18-0.08-0.18-0.18c-0.1-1.57-0.2-3.12-0.32-4.59c0-0.11,0.09-0.21,0.2-0.22c0.1,0.01,0.18,0.08,0.2,0.18
		c0.1,1.57,0.22,3.12,0.3,4.69c-0.01,0.1-0.08,0.18-0.18,0.2L563.36,452.4z M562.68,443.2c-0.1,0-0.18-0.08-0.18-0.18
		c-0.14-1.57-0.28-3.12-0.46-4.57c0-0.11,0.07-0.2,0.18-0.22c0.09-0.02,0.17,0.03,0.2,0.11c0,0.01,0,0.02,0,0.03l0,0
		c0.14,1.57,0.3,3.04,0.44,4.59c0,0.11-0.07,0.2-0.18,0.22V443.2z M561.71,434.02c-0.09,0.01-0.17-0.05-0.18-0.14
		c0-0.01,0-0.01,0-0.02l0,0c-0.22-1.55-0.42-3.12-0.62-4.57c-0.02-0.1,0.04-0.2,0.13-0.22c0,0,0.01,0,0.01,0l0,0
		c0.1-0.01,0.2,0.06,0.22,0.16l0,0c0.22,1.55,0.42,3,0.62,4.55c0.02,0.1-0.04,0.2-0.13,0.22c0,0-0.01,0-0.01,0l0,0L561.71,434.02z
		 M560.36,424.9c-0.1,0-0.18-0.07-0.2-0.16c-0.26-1.55-0.54-3.12-0.83-4.53c0-0.1,0.08-0.18,0.18-0.18c0.1,0,0.19,0.08,0.2,0.18l0,0
		c0.28,1.45,0.56,2.98,0.83,4.55c0.02,0.1-0.04,0.2-0.13,0.22c0,0-0.01,0-0.01,0L560.36,424.9z M558.53,415.86
		c-0.08,0-0.16-0.06-0.18-0.14c-0.36-1.57-0.74-3.04-1.15-4.47c-0.02-0.1,0.04-0.2,0.14-0.24l0,0c0.1-0.02,0.2,0.04,0.24,0.14
		c0.38,1.43,0.79,2.94,1.15,4.47c0.02,0.1-0.04,0.2-0.14,0.24H558.53z M490.93,412.02c-0.04,0.02-0.08,0.02-0.12,0
		c-0.08-0.08-0.08-0.2,0-0.28l2.17-2.6l0.76-0.93c0.08-0.08,0.2-0.08,0.28,0c0.07,0.07,0.07,0.18,0.01,0.26c0,0,0,0-0.01,0.01l0,0
		l-0.76,0.93c-0.79,0.95-1.55,1.83-2.17,2.62c-0.07,0.04-0.15,0.04-0.22,0L490.93,412.02z M556.05,406.98
		c-0.08,0-0.16-0.06-0.18-0.14c-0.5-1.55-1.03-2.96-1.57-4.31c-0.03-0.1,0.02-0.2,0.12-0.24c0.07-0.05,0.17-0.05,0.24,0l0,0
		c0.54,1.35,1.09,2.82,1.57,4.33c0.02,0.11-0.04,0.22-0.14,0.26L556.05,406.98z M496.85,404.97h-0.12c-0.08-0.08-0.08-0.2,0-0.28
		c1.07-1.25,2.01-2.38,3.12-3.46c0.06-0.09,0.19-0.12,0.28-0.06s0.12,0.19,0.06,0.28l0,0c-0.99,1.05-2.01,2.17-3.14,3.42
		c-0.07,0.05-0.16,0.05-0.22,0L496.85,404.97z M552.59,398.53c-0.07,0-0.14-0.04-0.18-0.1c-0.68-1.39-1.44-2.73-2.27-4.03
		c-0.06-0.08-0.06-0.19,0-0.26c0.07-0.07,0.18-0.07,0.26-0.01c0,0,0,0,0.01,0.01c0.84,1.3,1.61,2.64,2.29,4.03
		c0.07,0.07,0.07,0.18,0.01,0.26c0,0,0,0-0.01,0.01L552.59,398.53z M503.05,398.29h-0.14c-0.08-0.08-0.08-0.2,0-0.28
		c1.13-1.13,2.23-2.19,3.36-3.12c0.07-0.07,0.18-0.07,0.26-0.01c0,0,0,0,0.01,0.01c0.07,0.08,0.07,0.2,0,0.28l0,0
		c-1.09,0.97-2.21,2.01-3.34,3.12H503.05z M509.93,392.25c-0.05,0.02-0.11,0.02-0.16,0c-0.07-0.07-0.07-0.18-0.01-0.26
		c0,0,0,0,0.01-0.01l0,0c1.27-0.99,2.54-1.89,3.78-2.7c0.08-0.06,0.19-0.06,0.26,0c0.07,0.07,0.07,0.18,0.01,0.26c0,0,0,0-0.01,0.01
		l0,0c-1.23,0.81-2.5,1.69-3.74,2.66l0,0L509.93,392.25z M547.4,391h-0.14c-1.01-1.14-2.15-2.15-3.4-3.02
		c-0.06-0.08-0.06-0.18,0-0.26c0.08-0.08,0.2-0.08,0.28,0c1.27,0.9,2.43,1.95,3.46,3.12c0.06,0.08,0.06,0.19,0,0.26l0,0
		c-0.08,0-0.14-0.06-0.14-0.14v0l0,0L547.4,391z M517.64,387.27c-0.07,0-0.14-0.04-0.18-0.1c-0.06-0.08-0.06-0.18,0-0.26
		c1.38-0.7,2.82-1.3,4.29-1.79c0.06-0.06,0.16-0.06,0.22,0l0,0c0.03,0.11-0.02,0.22-0.12,0.26c-1.45,0.49-2.86,1.08-4.23,1.77
		L517.64,387.27z M539.91,385.85L539.91,385.85c-1.46-0.61-2.98-1.08-4.53-1.41c-0.1-0.02-0.17-0.12-0.16-0.22
		c0.04-0.1,0.14-0.16,0.24-0.14c1.52,0.3,3,0.75,4.43,1.33c0.1,0,0.18,0.08,0.18,0.18c0,0.1-0.08,0.18-0.18,0.18l0,0L539.91,385.85z
		 M526.34,384.36c-0.09,0.01-0.17-0.05-0.18-0.14c0-0.01,0-0.01,0-0.02c-0.02-0.1,0.04-0.2,0.13-0.22c0,0,0.01,0,0.01,0
		c1.39-0.24,2.8-0.36,4.21-0.36h0.42c0.1,0.01,0.18,0.1,0.18,0.2c0,0.1-0.08,0.18-0.18,0.18h-0.42c-1.38,0-2.76,0.12-4.13,0.36
		H526.34z"/>
</g>
</svg>
