<?xml version="1.0" encoding="utf-8"?>
<!-- Generator: Adobe Illustrator 23.1.0, SVG Export Plug-In . SVG Version: 6.00 Build 0)  -->
<svg version="1.1" id="Layer_1" xmlns="http://www.w3.org/2000/svg" xmlns:xlink="http://www.w3.org/1999/xlink" x="0px" y="0px"
	 viewBox="0 0 1366 768" style="enable-background:new 0 0 1366 768;" xml:space="preserve">
<style type="text/css">
	.st0{fill:#BA68C8;}
	.st1{opacity:0.5;fill:#FFFFFF;enable-background:new    ;}
	.st2{opacity:0.2;}
	.st3{opacity:0.7;fill:#FFFFFF;enable-background:new    ;}
	.st4{fill:#FFFFFF;}
	.st5{fill:#F0F0F0;}
	.st6{fill:#F5F5F5;}
	.st7{opacity:0.3;}
	.st8{fill:#FAFAFA;}
	.st9{fill:#E0E0E0;}
	.st10{fill:#E6E6E6;}
	.st11{opacity:0.05;fill:#BA68C8;enable-background:new    ;}
	.st12{opacity:0.25;fill:#FFFFFF;enable-background:new    ;}
	.st13{opacity:0.4;fill:#FFFFFF;enable-background:new    ;}
	.st14{opacity:0.1;enable-background:new    ;}
	.st15{opacity:0.1;fill:#FFFFFF;enable-background:new    ;}
	.st16{opacity:0.05;enable-background:new    ;}
	.st17{opacity:0.15;fill:#FFFFFF;enable-background:new    ;}
	.st18{opacity:0.4;enable-background:new    ;}
	.st19{opacity:0.5;enable-background:new    ;}
	.st20{opacity:0.25;enable-background:new    ;}
	.st21{opacity:0.15;enable-background:new    ;}
	.st22{opacity:0.45;enable-background:new    ;}
	.st23{opacity:0.2;enable-background:new    ;}
	.st24{opacity:0.35;enable-background:new    ;}
	.st25{fill:#FFBDA7;}
	.st26{fill:#263238;}
	.st27{fill:#37474F;}
	.st28{fill:#B16668;}
	.st29{fill:#F0997A;}
	.st30{fill:#F28F8F;}
	.st31{fill:#455A64;}
</style>
<g id="freepik--Water--inject-114">
	<g id="freepik--water--inject-114">
		<ellipse class="st0" cx="685.61" cy="537.55" rx="387.07" ry="223.45"/>
		<ellipse class="st1" cx="685.61" cy="537.55" rx="387.07" ry="223.45"/>
		<g class="st2">
			<path class="st3" d="M985.01,676.63c-7.14,0.52-13.96,0.19-20.96,0.41c-6.91,0.22-13.79,0.94-20.59,2.14
				c-4.26,0.74-8.9,1.82-11.85,3.88c-4.36,3.06-3.3,6.91-0.95,9.76c3.33,4.15,8.65,7.57,12.88,11.37c3.96-2.05,7.87-4.16,11.72-6.34
				c-1.96-2.8-3.17-5.73-4.99-7.71c-0.48-0.52-0.95-1.08-0.71-1.66c0.48-1.06,3.17-2.12,6.26-2.79c3.24-0.63,6.52-1.07,9.81-1.33
				c4.55-0.43,9.1-0.83,13.66-1.2c3.44-2.3,6.75-4.64,10-7C987.77,676.36,986.36,676.52,985.01,676.63z"/>
			<path class="st3" d="M1036.91,573.99c-4.64,2.88-8.19,7.23-10.08,12.36c-1.91,4.73-2.58,9.87-1.96,14.94
				c0.67,5.1,2.74,10.34-1.46,15.6c-4.99,6.24-17.95,10.61-29.43,11.22c-10.13,0.52-20.24-1.29-29.56-5.31
				c-4.7-1.74-8.97-4.48-12.51-8.02c-6.34-7.18-3.55-17.43,7.07-25.44c8.98-6.83,22.48-11.74,31.52-18.53
				c15.73-11.88,14.26-26.33,24.38-39.43c1.44-2.03,3.5-3.54,5.88-4.29c4.39-1.31,8.79,0.25,10.42,2.33s1.73,4.63,3.61,6.62
				c3.44,3.55,12.26,4.48,20.59,3.28c5.92-0.96,11.71-2.55,17.28-4.75c0-2.8-0.21-5.62-0.46-8.43h-0.09l-12.86,3.72
				c-1.9,0.62-3.86,1.04-5.85,1.24c-2.14,0.07-4.26-0.31-6.24-1.11c-4.16-1.37-7.93-3.72-10.99-6.84
				c-3.87-4.34-4.75-9.58-5.51-14.73s-1.58-10.39-5.43-14.76c-3.85-4.37-11.34-7.7-21.01-7.49c-5.26,0.11-10.98,1.25-15.62,0.43
				c-4.64-0.82-6.81-3.37-7.1-6.13c-0.29-2.76,1.12-5.64,2.52-8.51c2.04-4.17,3.98-8.65,1.16-12.04c-2.82-3.39-9.51-4.75-12.21-8.03
				c-3.37-3.88,0.44-9.92,8.27-13.07c1.18-0.49,2.41-0.83,3.68-1.03c1.54-0.1,3.08-0.06,4.61,0.13c7.77,0.49,15.51-1.4,22.18-5.42
				c0,0,4.25-2.68,10.2-5.62c-2.23-2.27-4.54-4.52-6.94-6.75l-35.25-19.34c-15.21-1.44-31.07-2.58-42.96-5.53
				c-31.57-7.83-25.95-25.9-55.65-34.41c-4.59-1.31-10.06-2.38-13.69-4.01c-2.93-1.26-5.32-3.5-6.78-6.34
				c-2.52-4.26-4.2-8.7-3.26-13.29c-15.92-4.55-32.27-8.41-48.92-11.61c-1.36,0.38-2.79,0.73-4.31,1.03
				c-8.41,1.58-16.49,2.06-23.95,4.56c-6.05,2.07-11.89,4.72-17.43,7.92c-5.28,2.96-10.41,6.34-16.98,8.06
				c-6.51,1.64-13.27,2.04-19.93,1.19c-11.55-1.33-20.72-5.04-30.53-8.05c-9.81-3.01-21.28-5.43-33.9-3.94
				c-8.24,0.98-16.71,3.56-24.57,3.31c-7.01-0.2-13.7-3.03-18.72-7.92c-4.23-3.8-8.05-8.05-15.48-9.98
				c-2.94-0.69-5.92-1.15-8.93-1.38c-10.77,1.52-21.44,3.31-32.02,5.37c0.52,0.88,0.83,1.86,0.93,2.87c0,1.08-0.25,2.25-2.2,3.28
				c-2.42,1.27-6.64,2.09-10.25,3.09c-9.93,2.69-15.21,6.73-17.57,10.46c-2.36,3.72-2.44,7.37-5.05,11.09
				c-2.25,3.17-7.92,7.02-17.77,8.46c-6.05,0.81-12.18,0.72-18.2-0.25c-5.16-0.82-9.28-2.09-14.26-3.01
				c-8.96-1.5-18.05-2.07-27.12-1.7c-13.13,5.79-25.93,12.27-38.37,19.42c-10.25,5.91-20.19,12.35-29.77,19.3
				c4.12,3.09,8.63,5.63,13.42,7.54c4.75,1.92,10.28,3.83,9.92,6.59c-0.27,2.28-4.53,4.66-8.7,6.88c-3.87,2.25-8.12,3.79-12.53,4.55
				c-8.14,1.36-15.64,0-22.57-0.89c-2.5-0.32-5.24-0.54-8.13-0.7c-2.62,2.51-5.14,5.05-7.56,7.62c2.45,0.04,4.89,0.3,7.29,0.78
				c12.04,2.52,16.08,10.19,19.49,17.12s8.24,14.5,20.83,16.44c9.5,1.46,21.32-0.73,31.43,0.1c12.47,1.03,16.97,6.08,18.66,9.96
				c2.34,5.34-2.91,11.36-5.75,17.06c-2.15,4.34-1.58,8.43,0.14,12.44c2.15,5.13,10.6,12.97,0.86,16.21
				c-6.16,2.04-8.24-4.21-11.93-6.62c-6.5-4.25-18.46-5.32-29.99-3.68c-11.13,1.71-21.89,5.27-31.84,10.53
				c-4.66,2.72-9.53,5.06-14.56,7c-13.81,4.75-31.38,1.31-32.9-6.34c-0.95-4.93,3.64-10.44,3.56-15.49c0-6.21-7-10.66-14.26-14.76
				c-1.42,3.94-2.67,7.88-3.75,11.83c0.16,0.19,0.3,0.38,0.44,0.59c4.12,6.43-3.71,15.84,3.52,21.12c1.89,1.44,4.99,2.74,4.01,4.75
				c-0.68,1.47-3.33,2.68-6.02,3.3c-2.14,0.49-4.34,0.7-6.53,0.98c0,3.07-0.1,6.13,0,9.2c10.29-2.36,20.77-3.82,31.32-4.37
				c4.75-0.33,9.77-0.62,13.58,0.44c6.43,1.82,7.03,6.69,7.78,10.91c2.17,12.06,10.53,22.99,23.98,31.33
				c4.1,2.65,8.62,4.61,13.35,5.8c9.2,2.23,21.47,1.89,28.36,5.69c9.39,5.18,4.37,15.07-1.08,23.38c-1.22,2.14-2.99,3.92-5.12,5.16
				c-5.62,3.17-14.26,2.6-19.93,0.89c-4.06-1.17-7.87-3.05-11.26-5.56c-3.17-2.49-5.4-5.47-9.06-7.73
				c-7.03-4.26-19.61-5.47-31.49-3.04c-3.47,0.64-6.8,1.86-9.87,3.6c-2.63,1.68-4.02,3.77-6.5,5.56l-0.22,0.13
				c2.11,3.26,4.34,6.51,6.69,9.74c7.91-5.99,17.57-9.2,27.49-9.12c25.46,0.74,16.98,14.76,44.09,15.29
				c6.15,0.11,12.8-0.16,18.27,0.44c8.08,0.9,11.9,3.5,19.6,4.55c9.19,1.25,21.16,0.48,32.1-0.36c11.99-0.9,24.78-1.92,34.66-0.65
				c5.42,0.68,11.37,2.36,12.97,4.25c4.12,4.86,5.35,10.52,2.28,16.08c-0.97,2-2.35,3.77-4.06,5.2c-6.69,5.28-20.21,5.73-28.9,3.58
				c-8.68-2.15-15.3-6.15-24.98-7.24c-9.06-1.03-19.77,0.68-29.16,3.68c-8.83,2.96-17.32,6.83-25.35,11.55
				c-3.15,1.98-6.55,3.54-10.11,4.64c-3.96,0.98-8.04,1.32-12.1,1.01c-0.73,0-1.41-0.13-2.11-0.19c8.7,6.24,18.06,12.27,28.07,18.08
				c18.84,10.79,38.48,20.1,58.76,27.87c15.45,1.58,30.48,3.17,36.53,7.79c1.81,1.29,2.93,3.35,3.03,5.58
				c7.54,2.22,15.17,4.28,22.89,6.18c1.25-3.17,4.75-6.59,5.66-9.9c1.22-4.47-2.39-8.33-7.51-11.09
				c-24.65-13.24-76.93-4.56-100.78-18.25c-4.3-2.47-7.9-5.99-10.47-10.23c-3.04-4.88-4.17-11.09,2.93-16.13
				c4.97-3.47,12.9-5.39,20.12-5.8c6.85-0.25,13.7,0.16,20.47,1.22l27.6,3.5c9.14,1.12,20.96,1.74,28.39-2.87
				c7.16-4.47,6.62-12.02,16.08-14.5c4.23-0.91,8.63-0.69,12.75,0.65c20.75,5.94,29.31,19.25,44.36,28.83
				c6.09,4.03,13.13,6.4,20.42,6.89c5.21,0.33,10.93-0.22,16.22,0c5.29,0.22,10.52,1.58,11.26,4.48c1.05,4.17-7.33,8.27-13.21,12.02
				c-11.33,7.22-15.67,16.44-25.35,24.24c-9.66,7.4-20.93,12.39-32.9,14.57c7.59,1.38,15.23,2.62,22.91,3.72
				c4.87-2.66,9.48-5.79,13.75-9.33c4.59-3.88,9.92-8.65,17.55-9.28s11.63,3.63,15.97,6.59c8.7,5.86,26.01,7.16,41.28,3.17
				c6.69-1.77,13.04-4.48,19.94-5.31c6.15-0.8,12.41,0.07,18.11,2.52c3.85,1.73,5.15,3.87,8.52,5.66c3.27,1.66,6.36,3.67,9.2,5.99
				c1.57,1.31,2.99,2.78,4.25,4.39c7.57-0.62,15.1-1.39,22.61-2.27c-8.8-1.96-17.09-5.76-24.3-11.17
				c-6.64-4.67-12.85-9.68-21.8-13.07c-7.51-2.88-18.55-4.36-28.09-0.95c-4.45,1.58-7.83,3.98-12.07,5.72
				c-13.09,5.43-30.43,2.72-36.13-3.85c-5.7-6.57-2.14-15.51,4.2-23.49c5.58-6.77,12.13-12.69,19.42-17.57
				c7.48-5.15,16.55-10.17,19.99-16.1c4.34-7.37-1.03-14.1,0-21.37c0.26-2.51,1.93-4.65,4.29-5.53c2.17-0.8,4.44-1.29,6.75-1.44
				l28.51-3.25c5.5-0.63,11.34-1.25,15.84-0.16s6.69,3.45,9.05,5.69c13.39,12.67,34.08,22.45,59.26,27.98
				c6,1.31,12.53,2.49,16.13,5.34c3.6,2.85,2.65,8.03-3.85,10.5c-4.99,1.89-11.75,1.58-17.43,2.93c-7.35,1.74-7.14,3.75-6.11,5.81
				c2.74,5.48,7.32,10.71,11.26,16.02c4.31,5.78,9.31,11.82,6.18,18.34c-2.52,5.58-6.56,10.34-11.66,13.72
				c9.82-1.81,19.54-3.83,29.15-6.08c1.49-1.79,3.98-3.49,9.14-4.04c2.04-0.22,4.1-0.15,6.11,0.22c6.24-1.65,12.42-3.4,18.53-5.24
				c-0.93-0.57-1.85-1.16-2.72-1.74c-13.02-8.95-19.14-21.16-17.14-34.11c0.44-2.85,1.27-5.78,0.17-8.38
				c-0.89-2.19-3.09-4.07-2.88-6.43c0.25-3.87,6.75-7.48,12.58-10.49c6.83-3.45,13.66-6.93,20.48-10.42
				c12.85-6.56,27.14-14.8,26.33-23.1c-0.41-4.58-5.59-8.06-11.55-10.72c-2.09-0.69-4.01-1.81-5.64-3.3
				c-1.19-1.41-0.78-3.52,1.77-4.85c4.09-2.14,9.5-0.79,13.91,0c7.79,1.18,15.74,0.54,23.24-1.89c2.23-0.85,4.53-1.53,6.86-2.04
				c3.99-0.77,8.12-0.07,11.64,1.96c2.66,1.7,4.01,3.93,5.96,5.92c6.97,7.26,21.29,11.64,37.67,11.49h4.75
				c10.41,1.01,20.29,3.17,26.82,7.24c1.54,0.94,2.94,2.09,4.15,3.44c5.05-5.13,9.76-10.34,14.05-15.65
				c-1.85-3.61,2.01-7.81,4.18-11.8c6.34-11.87-3.17-22.83,4.75-34.74c2.12-3.17,6.75-6.89,16.25-8.49c1.77-0.3,3.56-0.49,5.35-0.59
				c1-3.17,1.85-6.51,2.61-9.76C1058.2,566.5,1045.21,568.68,1036.91,573.99z M860.88,369.95c15.29-1.43,26.17,4.75,32.06,11.56
				s9.25,14.72,19.37,19.53c11.63,5.54,29.77,5.81,46.37,6.81c16.6,1,34.17,3.58,40.06,11.69c1.96,2.69,1.82,6.57-3.07,8.9
				c-4.32,1.72-9.08,2.04-13.59,0.92c-3.96-0.9-7.18-2.49-11.34-3.25c-2.04-0.41-4.14-0.41-6.18,0c-3.22,0.45-5.87,2.74-6.81,5.85
				c-0.38,2.27,0.4,4.44-0.7,6.72c-2.47,5.34,0.41,10.6-6.91,15c-5.2,3.17-12.94,4.53-19.66,4.5c-6.25-0.17-12.46-1-18.53-2.47
				l-38.54-8.06c-9.27-1.93-19.5-4.61-20.07-10.36c-0.59-5.48,8.14-11.72,6.34-16.95c-1.33-3.94-8.27-5.96-15.24-6.92
				c-6.97-0.97-14.76-1.3-20.48-3.39c-8.63-3.17-10.93-10.08-7.32-16.55c3.61-6.48,12.31-12.47,22.35-17.09
				C845.88,373.04,853.27,370.87,860.88,369.95z M632.22,604.63c3.17,2.95,2.31,7.35-4.02,9.73c-6.34,2.38-15.46,1.36-20.94-0.22
				c-7.92-2.27-12.34-6.88-13.85-11.94c-1.51-5.07-0.11-10.61,1.98-16.08c2.91-7.64,7.33-15.84,2.47-22.18
				c-2.19-2.77-5.99-4.93-10.17-6.76c-9.03-3.78-18.54-6.3-28.26-7.48c-10.57-1.41-22.18-1.7-31.68-4.18
				c-11.49-2.98-19.18-9.5-17.43-17.33c1.76-7.83,14.46-16.16,28.66-17.71c11.99-1.31,24.65,1.71,35.1-2.85
				c7.16-3.17,10.55-9.08,18.77-10.82c4.87-1,9.94-0.2,14.26,2.27c5.01,2.95,7.67,7.11,7.38,11.61c-0.29,4.5-3.17,9.01-4.44,13.53
				c-1.15,4.53-1.01,9.3,0.43,13.75c1.63,6.99,7.21,12.36,14.26,13.72c12.8,3.17,33.6-1.71,42.39,4.06
				c6.18,4.02,2.46,11.26-4.17,16.78c-6.62,5.51-15.84,10.23-22,15.84c-4.37,3.83-7.53,8.87-9.06,14.48
				C631.74,603.44,631.86,604.1,632.22,604.63z M564.1,483.42c-9.5-6.65-14.38-15.43-13.99-24.86c0.15-5.52,2.51-10.75,6.56-14.51
				c6.1-5.49,13.73-8.98,21.88-10c8.67-1.29,17.51,0.51,24.98,5.09c5.77,3.74,9.19,8.54,14.1,12.67c6.33,5.03,13.6,8.76,21.39,10.96
				c8.33,2.68,17.09,3.75,25.82,3.17c11.96-0.89,23.76-5.12,35.69-6.92c12.67-1.9,25.35-0.98,34.47,2.49
				c7.4,2.85,12.44,8.11,8.36,13.67c-6.02,8.22-23.87,12.42-37.39,17.92c-0.73,0.29-3.17,0.79-3.17,0.79
				c-11.46,2.91-23.22,4.5-35.04,4.75c-8.11,0.14-17.2-0.16-24.17,3.17c-1.88,1.11-3.84,2.09-5.86,2.93
				c-6.5,2.23-13.05-0.68-14.56-4.13s-0.41-7.6-3.45-10.57c-4.4-4.29-15.84-4.56-26.01-3.17c-4.84,0.92-9.76,1.45-14.69,1.58
				c-5.35-0.13-10.53-1.88-14.84-5.04H564.1z M657.31,539.93c-6.61-0.29-13.69,0-19.69-1.03c-9.11-1.58-14.86-6.53-14.26-12.21
				s7.59-11.87,17.31-15.3c7.41-2.65,15.84-3.63,23.76-4.56l64.73-7.52c12.37-1.44,25.19-2.96,36.66-6.97
				c4.9-1.71,9.39-3.83,14.34-5.48c7.49-2.49,12.17-4.23,19.87-4.12c0,0,2.68,0.25,3.47,0.43c8.4,1.84,13.05,6.91,13.01,12.26
				s-6.16,11.58-15.57,14.65c-4.91,1.43-9.93,2.4-15.02,2.91l-24.38,3.17c-10.88,1.44-22.04,2.95-32.32,6.18s-19.72,8.6-22.4,14.59
				c-1.58,3.42-1.58,7.65-7.35,9.7s-11.56-0.11-16.13-1.85c-8.34-2.98-17.1-4.61-25.95-4.83H657.31z M718.24,538.35
				c0.53-0.94,1.29-1.73,2.22-2.28c6.75-4.75,17.05-7.76,26.93-9.5c9.89-1.74,19.99-2.57,29.92-4.25
				c17.28-2.82,33.94-8.58,49.28-17.01c2.42-2.39,4.17-5.2,7.54-7.29c6.75-4.23,18.12-4.31,25.05-1.96
				c6.92,2.34,10.95,6.43,16.51,9.6c6.54,3.75,15.16,6.23,22.94,9.2c7.78,2.98,15,6.73,17.43,12.04
				c2.42,5.31-1.25,12.47-10.79,16.41c-5.81,2.39-12.85,3.3-18.87,5.51c-15.52,5.73-20.7,18.8-37.5,22.48
				c-13.05,2.87-24.24-2.25-28.67-8.33c-4.44-6.08-5.1-13.37-11.8-18.57c-3.85-2.85-8.55-4.33-13.34-4.21
				c-9.12,0.08-17.73,4.63-26.01,7.92c-8.87,3.63-19.68,6.34-28.86,5.31c-10.98-1.14-16.43-6.92-20.85-12.31
				c-0.71-0.81-1.46-1.74-1.05-2.8L718.24,538.35z M865.57,481.93c-11.33,0.68-23.76,6.69-33.52,4.86
				c-10.46-1.93-8.93-11.36-19.01-13.77c-6.34-1.58-15.24,0.43-22.27,3.17c-7.03,2.74-13.09,6.34-20.34,8.76
				c-7.26,2.42-19.77,5.58-25.25,4.58c-3.03-0.57-2.72-2.5-2.39-3.17c2.79-6.34,20.23-10.74,20.82-16.89
				c0.22-2.41-1.84-4.4-4.07-6.18c-7.43-5.91-17.35-10.85-21.96-17.77c-4.61-6.92-2.23-16.93,10.55-22.65
				c12.32-5.53,28.83-4.63,39.13-0.63s16.27,10.41,24.06,15.84c15.29,10.55,38.13,17.43,64.27,19.49c7.07,0.55,14.4,0.74,21.15,1.73
				c5.55,0.69,10.97,2.23,16.05,4.58c5.48,2.68,9.33,6.54,8.7,11.09c-0.63,4.55-6.7,9.68-14.94,11.49
				c-14.99,3.23-25.74-5.51-40.92-4.56L865.57,481.93z M631.24,355.04c9.6-8.55,30.1-13.72,44.74-11.33
				c15.03,2.46,22.04,11.26,36.23,14.54c9.16,2.14,21.09,1.7,31.89-1.17c11.74-3.17,21.35-8.79,31.41-13.73
				c10.06-4.94,22.18-9.63,34.11-9.7c4.59,0.01,9.15,0.63,13.58,1.84c10.17,2.66,18.49,7.27,21.1,13.51
				c2.61,6.24-1.08,14.26-10.91,19.72c-3.39,1.9-7.29,3.45-10.88,5.21c-12.12,5.92-20.2,14.26-21.45,22.18s4.4,15.14,14.94,19.14
				c6.48,2.47,15.71,2.63,22.4,4.94c7.08,2.42,3.26,6.83,2.22,10.79c-0.19,1.08-0.83,2.04-1.76,2.63c-2.49,1.58-6.56,1.16-9.25,0.38
				c-20.39-5.99-25.35-22.99-49.44-25c-8.24-0.68-17.66,0.55-25.27-0.84c-9.03-1.66-13.47-6.65-18.33-10.99
				c-5.99-5.67-14.09-8.58-22.32-8.02c-12.4,0.68-23.18,7.83-35.6,10.22c-11.76,2.11-23.88,0.19-34.41-5.47
				c-10.66-5.59-18.49-13.02-19.94-21.81C623.35,366.69,625.11,360.48,631.24,355.04z M631.11,400.41
				c6.34,3.6,12.67,7.18,19.01,10.77c2.79,1.8,5.97,2.91,9.27,3.25c9.71,0.74,18.79-5.69,28.29-9.2c7.79-2.85,16.16-3.78,24.38-2.69
				c5.9,0.87,11.57,2.9,16.7,5.96c5.29,3.31,7.27,10.8,3.17,15.7s-10.8,9.71-11.42,14.67c-0.33,2.61,0.97,5.34-1.93,7.78
				c-4.5,3.68-13.59,3.17-20.94,4.37c-7.71,1.31-14.26,5.02-21.83,6.88c-9.6,2.34-19.7,1.52-28.8-2.34
				c-7.16-3.39-11.25-8.33-15.24-13.15c-3.99-4.82-8.14-9.77-15.38-13.1c-6.11-2.8-14.26-4.39-19.15-7.92
				c-7.49-5.39-4.55-15.05,6.48-21.18c4.01-2.26,8.47-3.61,13.05-3.96C622.92,395.99,627.29,398.27,631.11,400.41L631.11,400.41z
				 M433.17,370.47c14.65-3.42,29.91-3.26,44.48,0.46c12.12,3.04,24.41,7.92,39.18,4.93c13.75-2.82,22.3-11.22,28.21-18.65
				c5.91-7.43,12.67-15.84,25.66-20.04c8.35-2.6,17.22-3.09,25.81-1.41c7,1.49,12.39,3.96,15.4,6.83c2.53,2.42,3.36,5.12,2,7.73
				c-1.58,2.88-4.39,5.66-6.34,8.51c-3.52,4.93-4.4,10.08-2.68,14.62c1.96,4.88,6.86,9.7,2.5,14.95s-16.89,8.41-22.1,13.73
				c-5.21,5.32-1.03,11.53-5.37,17.25c-4.34,5.72-18.31,9.76-27.26,7.71c-8.95-2.04-10.98-8.21-18.38-11.31
				c-6.34-2.68-16.6-2.68-25.27,0c-2.87,0.89-5.5,2.01-8.43,2.68c-10.52,2.38-18.85-1.87-25.44-5.48
				c-7.93-4.73-17.01-7.21-26.25-7.16c-4.29,0-8.78,0.71-12.96,0.54c-4.73-0.33-9.37-1.5-13.69-3.45c-6.76-2.76-13.5-6-15.05-10.85
				C404.58,384.11,417.77,374.32,433.17,370.47z M419.02,454.43c-3.94,0.17-7.89,0.07-11.82-0.29
				c-13.01-1.74-15.68-11.22-9.76-19.01c5.5-7.16,16.71-13.59,29.62-16.92s27.1-3.5,37.5-0.46c6.81,2,11.82,5.23,16.9,8.3
				c5.53,3.28,13.83,6.59,22.69,3.9c5.23-1.58,9.43-5.02,14.84-5.34c2.6-0.13,5.19,0.48,7.46,1.74c6.42,3.3,10.46,7.92,11.33,13.16
				c1.58,9.5-6.7,20.06-5.59,29.59c0.84,7.3,7.27,13.53,16.74,17.79c3.5,1.58,7.54,2.96,9.98,5.12c2.44,2.15,2.87,5.42-0.67,7.92
				c-3.94,2.82-10.88,3.53-16.51,3.42c-5.62-0.11-11.36-0.74-17.12,0.59c-7.21,1.68-14.64,7.45-18.38,10.36
				c-0.87,4.51-1.84,9.17-5.7,13.59c-5.3,5.36-12.32,8.69-19.83,9.38c-12.2,1.14-19.15-5.1-22.18-11.01
				c-6.05-11.49-6.61-24.44-1.73-37.48c2.68-7.02,6.89-14.37,4.25-20.69c-4.1-9.66-23.1-13.85-42.03-13.73V454.43z M418.58,585.17
				c-20.75-1.87-31.94-12.21-41.28-21.88c-6.34-6.56-12.75-13.45-12.58-21.59c0.17-8.14,8.98-17.95,23.76-21.88
				c8.96-2.28,18.34-2.38,27.34-0.29c6.9,1.77,13.41,4.79,19.22,8.92c6.67,4.53,12.83,8.41,17.68,13.72
				c5.58,4.1,17.43,5.05,27.75,2.17c2.08-0.66,4.2-1.22,6.34-1.66c8.55-1.39,13.39,3.17,17.96,6.45c6.94,4.96,18.46,7.7,31.18,7.45
				c7.92-0.17,16.67-1.46,23.86-0.33c7.19,1.12,11.72,6.19,5.89,10c-6.8,4.45-18.66,2.39-27.56,5.32
				c-3.85,1.27-6.94,3.44-10.99,4.32c-5.61,1.22-10.55-0.41-14.81-1.84c-10.08-3.55-20.75-5.13-31.43-4.66
				c-16,0.86-31.68,6.86-45.94,12.85c-2.59,1.2-5.3,2.12-8.08,2.74c-2.75,0.42-5.54,0.46-8.3,0.13V585.17z M670.81,671.99
				c-3.82,6.53-9.97,11.36-17.22,13.51c-5.72,1.75-11.68,2.59-17.66,2.47c-24.67,0-40.7-10.17-54.48-19.74l-36.44-25.25
				c-11.09-7.73-24.03-15.95-43.83-16.16c-15.37-0.14-32.52,4.66-46.92,3.04c-16.71-1.85-23.94-12.04-21.32-22.05
				c1.95-7.29,8.86-15.21,20.74-20.07c4.49-1.74,9.12-3.08,13.85-4.01c5.54-1.16,11.55-1.96,16.4-1.08c3.09,0.75,6.1,1.81,8.98,3.17
				c10.85,4.2,28.34,3.56,42.12-1.58c4.75-1.77,9.2-4.02,14.4-5.18c10.06-2.27,19.91,0.52,24.11,4.96s4.02,10.12,3.9,15.59
				s-0.17,11.17,4.15,15.54c4.07,4.18,11.72,6.72,19.23,9.06c5.83,2.04,11.96,3.11,18.14,3.17c6.51-0.11,13.43-1.87,19.82-1.74
				c5.62,0.07,11.11,1.72,15.84,4.75c6.05,3.85,6.78,5.47,9.71,10.74c0.28,0.75,0.65,1.47,1.09,2.14c0.97,1.49,1.77,3.09,2.39,4.75
				c3.93,8.57,8.17,14.42,3.01,23.9V671.99z M748.43,610.46c-0.92,3.39-0.78,6.75-2.65,10.14c-4.21,7.92-19.26,14.42-33.57,15.98
				c-14.3,1.57-27.58-1.14-36.85-5.78s-14.99-11.09-19.79-17.68c-4.42-6.15-7.92-13.58-0.74-20.5c7.18-6.92,22.46-11.09,27.52-18.17
				c3.68-5.05,1.95-11.28,10.19-14.73c4.94-1.79,10.3-2.04,15.38-0.73c4.44,1.14,7.83,3.09,11.91,4.47
				c13.18,4.4,34.36,2.19,48.55-5.12c5.5-2.85,10.84-6.59,17.65-7.24c5.58-0.54,10.09,1.38,12.23,3.88c2.14,2.5,4.25,5.83,6.7,8.22
				c3.36,3.37,12.37,7.83,15.46,11.36c1.68,2.3,2.59,5.07,2.6,7.92c-0.22,3.17-3.17,6.81-6.34,9.9c-2.54,2.61-5.58,4.68-8.93,6.08
				c-7.92,3.17-17.43,2.11-25.35,0.97c-7.92-1.14-17.65-1.95-25.35,1.49c-4.21,1.64-7.42,5.14-8.7,9.47L748.43,610.46z
				 M939.69,599.51c-0.92,3.04-5.85,5.72-10.39,8.03c-6.42,3.3-13.85,6.81-21.64,7.11c-8.95,0.36-15.08-3.64-23.97-3.45
				c-10.22,0.22-20.8,7.3-18.55,12.44c1.28,3.17,6.05,4.99,9.73,7.21c3.68,2.04,6.66,5.14,8.57,8.89c1.91,3.78,1.22,8.36-1.73,11.41
				c-2.82,3.17-7.68,5.78-12.67,8.21c-7.38,3.77-15.21,6.57-23.3,8.33c-15.98,3.17-30.97,0-43.37-3.93
				c-14.03-4.29-27.61-9.93-40.54-16.86c-6-3.25-11.88-7.1-11.69-12.26c0-2.55,1.58-5.2,2.65-7.79c1.66-4.04,2.25-8.11,4.91-12.1
				c3.68-5.06,9.14-8.54,15.27-9.76c11.87-2.61,21.69,2.53,33.63,1.7c8.33-0.59,16.97-4.45,20.17-9.01c2.27-3.25,1.9-6.51,2.85-9.77
				c1.55-4.4,5.29-7.66,9.85-8.6c3.85-1.03,7.92-0.78,11.96-1.39c13.89-2.14,20.45-13.1,34.09-16.43c1.13-0.31,2.3-0.43,3.47-0.38
				c1.48,0,2.68,1.2,2.68,2.68c0,0.14-0.01,0.28-0.03,0.41c-0.13,6.34-3.64,13.94,4.23,17.6l0.48,0.82
				c5.51,3.9,13.34,6.7,22.43,8.06c4.79,0.46,9.55,1.21,14.26,2.23c4.2,1.25,7.48,3.61,6.61,6.56L939.69,599.51z M907.82,579.42
				c-3.68-2.8-5.68-7.28-5.31-11.88c0.4-7.24,5.42-14.97,14.02-21.64c5.43-4.21,12.36-8.1,15.84-12.67
				c5.7-7.37,1.28-14.84-7.37-19.36c-8.65-4.51-20.77-6.65-32.62-8.73c-4.86-0.87-10.44-2.31-10-5.37c0.32-2.57,5.13-4.97,9.81-6
				s9.5-1.19,14.26-1.79c10.04-1.31,20.06-4.97,26.77-9.85l0.95-1.12c-1.33-3.93-1.89-8.21,1.06-12.45
				c2.95-4.25,10.15-8.35,17.9-8.98c8.9-0.74,14.95,3.09,17.43,7.32c2.69,4.64,2.69,10.36,0,15c-2.06,3.94-5.56,8.3-2.82,11.49
				c2.74,3.18,11.09,3.61,18.41,3.07c7.32-0.54,15.22-1.66,21.42-0.32c8.33,1.82,10.55,7.46,10.95,12.67
				c0.62,4.05-1.05,8.12-4.34,10.57c-2.15,1.71-5.2,3.17-7.68,4.75c-11.5,7.19-10.84,16.67-13.37,25.24
				c-3.25,11.09-14.16,22.89-32.14,30.1c-17.98,7.21-43.01,7.84-53.23-0.09L907.82,579.42z"/>
		</g>
		<g class="st2">
			<path class="st4" d="M975.38,685.67c-5.75-2.33-11.63-4.32-17.62-5.96c-5.21-1.3-12.23-1.87-17.79,0.51
				c-3.02,1.3-5.51,3.58-7.08,6.46c-2.1,3.45-3.43,7.3-3.9,11.31c-0.4,3.83,0.19,7.59-0.76,11.49c-0.22,0.88-0.53,1.73-0.92,2.55
				c4.4-2.04,8.75-4.15,13.04-6.34c0.63-2.3,1.3-4.59,2.01-6.89c0.53-1.9,1.34-3.72,2.42-5.37c1.19-1.75,3-2.98,5.07-3.44
				c1.03-0.08,2.07,0.05,3.04,0.4c2.98,0.78,7.1,1.39,11.31,2.19C968.03,690.34,971.75,688.04,975.38,685.67z"/>
			<path class="st4" d="M345.98,468.22c13.54-3.17,28.85-7.92,34.01-15.49c5.58-8.1-3.45-14.83-9-21.48
				c-5.28-6.34-7.35-14.05-2.77-21.66c-5.88,4.85-11.38,9.79-16.51,14.83c0.49,2.37,1.39,4.63,2.66,6.69
				c1.68,2.69,3.96,4.96,5.47,7.79c1.78,3.05,1.95,6.78,0.46,9.98c-2.63,5.42-9.5,8.52-15.41,9.76c-6.8,1.43-13.43,1.47-20.25,2.77
				c-1.16,0.22-2.34,0.51-3.53,0.82c-3.72,5.99-7.04,12.22-9.95,18.65C319.24,474.63,333.32,471.24,345.98,468.22z"/>
			<path class="st4" d="M549.37,746.77c6.18,1.33,12.41,2.57,18.69,3.72c-5.18-1.98-10.63-3.19-16.16-3.58
				C551.13,746.89,550.27,746.89,549.37,746.77z"/>
			<path class="st4" d="M1049.43,613.93c-3.75,0.86-7.62,1.58-11.41,2.06c-11.9,1.71-22.92-1.03-33.44-3.39
				c-9.68-2.17-19.2-4.75-29.21-6.18c-3.74-0.57-7.41-0.68-10.58,3.36c-2.41,3.07-1.92,6.78-5.35,9.5
				c-4.5,3.55-13.94,4.07-19.14,2.11s-7.33-5.56-9.73-8.86c-10.09-13.81-27.9-25.16-50.99-32.51c-4.07-1.3-8.49-2.57-10.38-4.96
				c-1.89-2.39-0.87-5.72,0.3-8.73l5.91-15.68c0.43-1.49,1.36-2.79,2.63-3.69c2.46-1.7,6.56-2.23,10.09-2.36
				c13.24-0.52,25.51,2.42,38.94,0c10.8-1.89,19.96-6.86,29.34-10.96c10.34-4.47,21.05-8.04,32.02-10.65
				c14.56-3.49,30.81-5.4,42.77-2.31c11.96,3.09,16.92,12.67,7.02,19.83c-3.17,2.33-7.54,4.18-10.41,6.62
				c-6.23,5.23-3.55,11.28,1.7,15.4c6.21,4.91,15.3,8.32,23.84,11.96c4.16,1.72,8.19,3.72,12.07,6c0.92-2.72,1.73-5.47,2.47-8.21
				c-3.06-1.22-6.04-2.66-8.9-4.29c-3.26-1.84-7.18-2.55-10.33-4.67c-3.87-2.58-6.15-6.11-4.58-9.93c1.57-3.82,6.43-7.27,9.66-10.95
				c7.33-8.36,4.94-17.87-5.75-22.64c-5.37-2.39-13.2-4.45-12.01-8.76c1.19-4.31,9.85-7.11,16.93-9.63
				c4.42-1.57,8.76-3.39,12.97-5.45c-1.31-4.08-2.83-8.13-4.56-12.17c-5.94,7.16-16.67,12.53-24.74,15.56
				c-14.26,5.34-31.03,7.73-44.2,13.94c-6.86,3.17-14.26,7.83-21.91,7.26c-5.2-0.41-7.76-3.28-8.19-6.18c-0.43-2.9,0.57-6.05,0-8.9
				c-1.01-4.75-6.48-8.32-12.58-11.22c-17.43-8.24-41.71-12.93-52.53-24.32c-1.93-2.03-3.34-4.55-1.19-7
				c4.5-5.18,18.27-4.88,26.41-8.81c8.41-4.09,7.29-10.57,5.23-15.57l-6.34-15.14c-1.51-3.61-3.04-7.26-2.23-11.23
				s4.25-8.3,10.58-11.09c9.05-3.9,20.48-3.28,29.39-1.58c6.46,1.02,12.74,2.96,18.65,5.75c24.97,13.05,9.14,41.79,33.27,55.3
				c6.19,3.32,13.21,4.74,20.2,4.1c6.19-0.51,12.47-2.5,18.57-3.17c-2.63-4.22-5.48-8.4-8.54-12.51c-4.53,0.33-9.08-0.21-13.4-1.58
				c-12.75-5.07-13.05-21.58-19.36-32.9c-0.14-0.25-0.3-0.51-0.46-0.76c-6.91-5.99-14.37-11.8-22.38-17.43
				c-1.2-0.49-2.44-0.98-3.68-1.43c-11.09-4.01-23.1-6.21-34.5-9.63c-1.58-0.49-3.17-1.06-3.72-2.46
				c-0.74-1.92,0.63-6.34,2.53-10.46c-27.88-14.48-57.16-26.09-87.38-34.66c-5.94,0.3-11.93,0.79-17.87,1.2
				c-0.83,0.14-1.67,0.03-2.44-0.3c-1.2-0.73-0.87-2.58-0.6-4.13c0.14-0.76,0.25-1.58,0.35-2.28c-3.68-0.92-7.38-1.77-11.09-2.63
				c0.08,1.7-0.11,3.4-0.55,5.04c-1.52,5.41-5.55,9.76-10.84,11.68c-3.25,1.36-7.05,2.12-10.12,3.56c-2.55,1.22-4.73,3.09-6.34,5.42
				c-4.4,6.51-2.22,13.42,5.56,17.27c4.12,2.01,9.51,3.17,14.08,4.99c3.76,1.35,7.21,3.45,10.14,6.18
				c3.17,3.17,4.21,7.84-1.58,10.93c-3.02,1.37-6.22,2.32-9.51,2.8c-15.13,2.98-33.17,5.73-42.61,0.59
				c-6.92-3.79-6.34-10.5-10.36-15.56c-2.38-2.95-6.34-5.26-10.58-7.32c-15.19-7.38-35.12-11.98-57.11-13.16
				c-7.7-0.41-16.59-0.73-19.9-4.26c-1.95-2.09-1.41-4.83-0.81-7.45c1.76-8.03,5.58-16.76,13.7-22.5c3.79-2.66,17.2-8.7,14.78-13.35
				c-8.36-0.23-16.73-0.32-25.11-0.25c1.8,0.34,3.54,0.92,5.18,1.74c1.11,0.62,1.96,1.41,1.96,2.36c-0.08,2.55-5.66,4.44-9.66,6.34
				c-3.81,1.54-7.05,4.23-9.27,7.68c-0.6,1.52-1.34,2.99-2.19,4.39c-1.52,1.82-3.67,3-6.02,3.3c-3.72,0.54-6.08-1.16-8.71-2.2
				c-9.66-3.96-26.77,0.33-38.5-1.92c-3.59-0.83-7.07-2.06-10.39-3.66c-7.92-3.37-16.92-6.1-25.5-9.06
				c-5.51,0.92-10.98,1.93-16.43,2.99c8.82,1.79,17.32,4.91,25.2,9.25c8.74,4.64,17.71,10.06,31.22,10.11
				c9.22,0,19.28-2.47,28.26-1.95c13.99,0.84,20.21,10.47,11.6,18.04c-3.37,2.99-8.29,5.4-12.77,7.92
				c-8.84,5.12-16.24,11.09-19.2,17.43c-2.96,6.34-1.03,12.88,6.7,16.44c4.39,2.03,15.84,3.17,12.09,6.54
				c-5.91,5.35-20.2,0.71-29.56-0.46c-7.52-1.05-15.15-1.05-22.67,0c-10.41,1.58-21.35,4.44-31.11,3.17
				c-7.05-0.93-16.29-3.39-18.15-10.23c-1.5-5.54,2.49-12.01-0.17-17.24c-3.53-6.92-17.3-9.5-29.97-11.44s-26.63-4.09-31.22-10.69
				c-3.17-4.45-1.12-10.23,3.83-15.26c0.59-0.6,1.24-1.22,1.9-1.81c-7.16,2.48-14.21,5.12-21.15,7.92c-0.73,4.64-0.24,9.4,1.41,13.8
				c1.58,3.82,4.1,7.92,1.58,12.39c-1.58,3.04-5.13,5.1-8.3,6.88c-4.02,2.28-8.35,4.63-12.53,4.75c-5.02,0.21-8.51-2.87-11.99-5.43
				c-5.8-4.07-12.22-7.18-19.01-9.22c-1.58,0.86-3.07,1.71-4.59,2.58c-9.66,5.58-18.7,11.38-27.12,17.43
				c7.77-3.42,16.26-4.91,24.73-4.34c7.25,0.78,14.13,3.65,19.79,8.25c2.95,2.19,5.83,4.53,6.34,7.51c0.32,2.3-0.87,4.75-0.98,7.11
				c-0.35,6.02,6.11,10.61,13.05,14.4c6.59,3.61,14.26,8.17,9.98,13.94c-1.5,1.66-3.12,3.2-4.85,4.63c-4.9,4.75-4.88,10.38,0,13.86
				c5.66,4.07,16.93,5.24,20.59,10.09c3.66,4.85-3.47,12.53-14.05,14.95c-10.58,2.42-21.34,0-31.46,2.95
				c-9.7,2.85-15.19,9.65-25.03,12.12c-9.58,2.39-18.38-0.29-27.26-1.36c-8.9-0.94-17.9-0.45-26.65,1.46
				c-5.21,1.09-10.27,2.66-15.52,3.5c-4.72,0.72-9.54,0.35-14.08-1.09c-4.95-1.41-9.31-4.37-12.45-8.44
				c-0.45-0.62-0.82-1.3-1.11-2.01c-1.61,4.78-2.97,9.65-4.06,14.57c6.18,2.25,11.79,5.21,12.26,9.5c0.48,4.29-4.26,8.97-6.04,13.48
				c-2.72,6.92,1.66,13.23,7.18,18.6s12.25,10.41,14.67,16.74c1.52,3.74,0.65,8.03-2.2,10.88c-3.3,3.61-9.3,6.34-14.7,9.31
				c-1.25,0.67-2.5,1.36-3.74,2.08c1.35,3.17,2.82,6.46,4.42,9.68c2.23-1.58,4.66-3.17,7.11-4.75c9-5.51,19.3-10.79,25.03-17.24
				c5.24-5.91,6.05-12.45,2.14-17.43c-5.97-7.78-22.02-11.63-26.5-19.87s5.05-19.28,20.59-24.55c10.06-3.18,20.63-4.47,31.16-3.82
				c13.94,0.5,27.56,4.24,39.79,10.95c8.24,4.75,14.69,11.45,9.93,18.88c-4.34,6.81-17.43,12.67-18.61,19.52
				c-1.08,5.72,6.72,9.6,14.61,12.25s17.01,5.12,20.04,10.06c2.55,4.17,0.29,9.35,1.58,13.86c3.69,13.26,34.68,15.94,45.58,27.12
				c1.43,1.47,2.14,3.71-0.7,5.07c-1.51,0.61-3.12,0.93-4.75,0.97c-7.22,0.59-15.27,2.68-19.68-1.2s-4.5-8.74-9.01-12.29
				c-7.27-5.78-20.5-8.89-34.85-8.21c-14.35,0.68-29.75,5.1-40.54,11.69c-3.17,1.98-6.05,4.12-9.5,5.99
				c-8.82,4.75-21.09,6.88-31.68,6.34c7.5,9.14,15.71,17.68,24.54,25.55c16.92,10.08,43.06,9.87,55.33,24.78
				c4.4,5.37,6.59,12.2,8.7,19.01c17.7,9.34,36.02,17.46,54.83,24.29c2.6-1.39,4.39-2.25,4.39-2.25c6.86-3.17,10.87-8.1,9.87-12.17
				c-0.35-0.8-0.44-1.69-0.24-2.53c0.46-0.81,1.11-1.5,1.89-2.01c5.73-4.29,16.74-6.34,23.76-4.53c5.92,1.58,8.76,5.16,14.64,6.7
				c6.18,1.58,14.37,0.48,21.96-0.63c5.12-0.92,10.31-1.38,15.51-1.38c5.01,0.16,9.68,1.41,11.09,3.9c1.41,2.49-0.57,5.67-0.78,8.55
				c-0.38,5.31,5.77,9.41,13.67,11.52c7.9,2.11,17.43,2.57,26.93,2.99s19.01,0.9,26.93,3.03c4.53,1.12,8.78,3.17,12.48,6.02
				c1.19,0.97,2.22,2.11,2,3.42c-0.46,1.23-1.24,2.33-2.25,3.17c-2.23,2.33-4.45,4.75-6.69,7.03c-0.9,0.92-1.82,1.85-2.79,2.77
				c4.66,0.25,9.33,0.45,14.02,0.59c5.42-3.93,10.63-8.11,12.77-12.55c2.14-4.44,0.52-9.39-5.97-11.28
				c-3.61-1.03-8.29-1.05-12.06-1.98s-6.65-3.31-4.25-5.72c1.58-1.58,4.85-2.53,7.81-3.17c23.87-5.59,50.22-4.75,71.89-13.39
				c12.37-4.94,21.34-12.36,33.77-17.28c14.59-5.83,33.27-7.38,46.4-3.88c5.24,1.39,10.18,3.72,14.59,6.88
				c6.24,4.37,10.8,9.92,9.7,16.22c-1.11,6.3-9.08,13.4-20.45,16.14c-9.6,2.3-19.14,1.17-28.51,0.81
				c-9.08-0.35-18.17,0.01-27.2,1.08c-7.79,0.9-15.98,2.42-22.53,5.53c-10.91,5.15-14.59,13.51-12.28,20.01
				c0.18,0.51,0.39,1.02,0.63,1.51c5.58-0.37,11.14-0.81,16.68-1.31c-0.56-2.32-0.2-4.76,1.01-6.81c2.93-5.21,9.7-7.75,15.48-8.9
				c21.7-4.31,41.71,0.9,63.37-2.58c7.65-1.25,15.75-3.55,22.56-2.11c1.38,0.32,2.73,0.77,4.02,1.35c9.3-2.57,18.46-5.36,27.47-8.38
				c-3.56-0.57-7.02-1.64-10.28-3.17c-6.29-2.8-11.09-8.15-13.18-14.72v-2.65c0.29-8.98-7.71-16.84-20.94-20.59
				c-3.68-0.83-7.29-1.92-10.82-3.26c-3.07-1.46-5.07-3.85-3.58-6.34c1.1-1.42,2.38-2.68,3.82-3.75c4.4-4.13,5.7-8.95,3.45-12.67
				c-1.47-2.41-3.91-5.39,0-7.64c2.74-1.33,5.86-1.67,8.82-0.97c2.19,0.63,4.23,1.68,6.02,3.09c5.76,3.97,12.56,6.17,19.55,6.34
				c15.14,0.43,30.1-7.41,42.11-14.46c6.34-3.74,12.67-7.48,19.01-11.23c5.47-3.17,12.06-6.75,19.12-6.89
				c4.28-0.13,7.71,1.09,11.69,1.58c5.09,0.39,10.21,0.36,15.3-0.1c21.91-1.01,42.66,1.82,58.61,7.92
				C1036.4,632.74,1043.33,623.61,1049.43,613.93z M817.09,364.86c-0.7-7,11.63-14.73,24.84-17.43c12.42-2.37,25.21-2.01,37.48,1.06
				c13.02,3.09,25.36,8.53,36.44,16.05c6.91,4.67,13.1,9.93,14.26,16.44c0.53,2.38-0.15,4.87-1.82,6.64
				c-1.92,2.12-5.28,3.85-8.46,5.56c-7.92,4.23-15.62,8.74-21.07,13.91s-8.55,11.09-6.69,15.98c1.98,5.32,9.22,8.98,13.2,13.72
				c3.98,4.74,3.09,12.18-6.53,15.84c-3.09,1.05-6.27,1.79-9.5,2.23c-9.75,1.58-19.71,1.15-29.29-1.25
				c-3.49-1.15-6.32-3.75-7.76-7.13c-2.28-5.42-0.46-12.44,1.2-19.01c1.58-6,2.95-12.56,0.67-17.6c-1.92-4.23-6.65-6.34-8.29-10.76
				c-1.11-2.99-0.6-6.65-0.82-10.03C844.02,374.18,818.47,378.82,817.09,364.86z M766.07,418.12c8.84-6.53,23.3-10.31,36.58-11.39
				c18.25-1.43,36.82,2.53,40.19,11.71c2.95,7.92-5.81,17.31-5.53,25.74c0.36,10.87,15.37,17.93,29.43,24.05
				c15.37,6.65,30.72,13.3,46.05,19.94c17.43,7.57,35.96,16.35,35.98,29.89c0.01,3.74-1.65,7.29-4.53,9.68
				c-5.31,4.86-15.21,7.92-24.62,9.51c-17.3,2.84-27.87,0.49-43.36-1.58c-3.17-0.44-7.05-0.87-8.74-1.31
				c-0.87-0.24-3.88-0.59-3.88-0.59c-9.63-1.58-12.56-2.01-19.6-5.34c-4.53-2.17-8.36-5.02-8.57-8.67s2.98-7.3,3.17-10.87
				c0.19-3.56-2.84-6.95-5.88-9.95c-4.29-4.12-8.89-8.32-16.51-10.55c-7.92-2.38-18.36-2.34-28.32-2.28
				c-9.96,0.06-20.36,0.14-28.44-2.14s-13.16-7.7-9.05-13.23c2.14-2.85,6.24-5.28,9.5-7.92c9.3-7.56,10.44-17.16,2.79-23.11
				c-2.08-1.58-4.75-3.01-5.92-4.93c-1.58-2.66-0.13-5.96,1.98-9c1.99-2.95,4.46-5.55,7.32-7.67H766.07z M787.34,598.35
				c2.08,4.37,4.02,9.5-1.77,13.91c-3.41,2.22-7.15,3.88-11.09,4.91c-10.38,3.84-21.66,4.56-32.44,2.08
				c-6.46-1.7-14.57-6.64-20.72-8.49c-4.34-1.35-10.47-2.47-14.99-3.68c-4.51-1.2-8.06-3.64-7.08-6.7c1.2-3.74,8.02-6.67,13.21-9.68
				c13.31-7.79,17.43-19.41,9.33-26.63c-2.53-2.25-6.07-4.1-8.14-6.54c-2.08-2.44-2.34-5.78,1.33-8.44
				c6.34-4.51,17.63-3.56,26.93-5.58c12.9-2.77,20.72-11.25,33.09-15.1c12.67-3.93,26.19-2.03,37.39,0.4
				c12.02,2.65,23.76,5.78,32.22,10.87s13.42,12.36,10.5,20.28c-2.91,7.92-14.81,16.11-29.12,18.42
				c-6.21,1.03-12.32,0.95-18.52,1.44c-6.19,0.49-13.02,1.84-17.43,4.75c-6.23,4.1-4.77,9.46-2.66,13.78H787.34z M538.44,519.8
				c-5.75-5.28-12.56-9.28-19.98-11.72c-7.54-2.69-16.3-4.56-23.11-7.73c-6.81-3.17-11.75-8.11-9.25-13.72
				c2.17-4.9,9.74-9.41,18.2-11.99c8.6-2.45,17.51-3.66,26.46-3.6c17.17-0.22,33.16,2.47,45.31,7.68c4.75,2,8.98,4.58,9.25,8.19
				c0.22,2.6-1.68,5.35-2.99,8.05c-2.66,5.56-2.15,11.85,5.66,14.26c5.4,1.58,12.94,1.11,19.26,1.9c6.32,0.79,11.63,4.42,7.54,7.92
				c-1.7,1.18-3.49,2.24-5.34,3.17c-6.05,3.82-5.5,8.81-5.75,13.26c-0.38,6.34-3.34,12.94-8.63,19.22c-0.41,0.63-0.9,1.21-1.44,1.73
				c-10.03,7.41-17.66,17.22-32.67,20.59c-10.14,2.23-19.72-0.52-24.9-4.59c-6.34-4.99-8.02-11.99-4.55-18.9
				c3.3-6.57,11.01-13.02,12.67-19.58C545.46,528.7,542.67,523.9,538.44,519.8z M625.41,464.9c2.84-7.78,18.15-14.75,32.27-15.71
				c14.11-0.97,26.15,3.26,31.6,9.5c4.53,5.21,5.05,11.61,7.62,17.43c3.03,6.32,7.75,11.69,13.64,15.49
				c3.72,2.63,7.9,4.52,12.32,5.59c11.5,2.66,26.52,0.24,40.43-1.36c9.71-1.32,19.53-1.69,29.31-1.09
				c9.25,0.82,17.63,3.28,21.77,7.6c2.88,3.01,4.75,8,0.41,11.49c-4.34,3.49-12.36,3.91-17.71,2.22c-1.09-0.21-2.19-0.26-3.3-0.17
				c-8.96,0.61-17.82,2.27-26.39,4.96c-10.25,3.42-18.84,8.44-28.9,12.09c-10.06,3.64-23.24,5.67-30.59,2.27
				c-10.52-4.75-1.66-16.22-7.37-23.26c-4.06-5.01-14.72-6.92-25.03-7.81c-8.34-0.78-16.73-0.86-25.08-0.24
				c-8.22,0.71-16.59,2.31-24.65,2.44c-8.06,0.13-15.84-1.3-21.15-4.04c-3.64-1.85-6.34-4.75-4.15-7.92
				c3.17-4.51,13.99-6.34,19.72-10.3C628.47,478.39,622.95,471.45,625.41,464.9z M605.04,569.36c4.59-11.85,9.12-23.65,13.72-35.5
				c1.71-4.42,3.52-9,8.32-13.07c6.34-5.34,17.43-9.14,27.88-9.5s19.37,2.8,22.29,7.79c1.92,3.3,1.35,7.19,1.85,10.8
				c0.71,5.37,3.82,10.31,8.98,14.35c3.17,2.49,7.13,5.66,3.37,8.84c-3.75,3.18-11.44,3.17-17.7,4.04
				c-9.9,1.31-19.17,5.59-26.58,12.28c-5.89,5.64-8.65,11.75-11.26,17.73L630,600.49c-1.15,3.11-2.97,5.93-5.34,8.25
				c-5.59,5.15-16.93,8.51-26.68,8.54c-9.74,0.03-19.01-2.53-22.37-7.14c-0.32-0.61-0.58-1.24-0.78-1.9
				c-0.21-4.23,2.96-6.78,7.49-10.9c2.99-2.71,6.88-5.18,10-7.92c7.27-6.27,10.04-13.31,12.66-20.1L605.04,569.36z M602.71,626.85
				c3.8-1.85,8.93-2.8,13.28-4.13c14.38-7.6,25.35-17.16,30.89-26.93c3.04-5.45,4.48-10.95,7.71-16.41
				c4.07-6.67,10.18-11.85,17.43-14.78c1.31-0.6,2.71-1.01,4.13-1.22c1.76-0.13,3.53,0.06,5.23,0.57
				c9.81,2.42,20.37,5.4,22.45,11.44c1.76,5.04-3.07,10.96-9.68,15.84c-6.13,4.55-14.42,9.27-14.54,14.26
				c0,3.17,3.39,5.64,7.67,7.32c9.5,3.68,22.8,4.04,33.85,6.48c11.06,2.44,20.4,8.57,15.19,15.71
				c-6.72,9.22-30.54,12.06-40.98,20.59c-4.06,3.3-5.69,7.16-10.06,10.34c-7.19,5.24-20.25,7.24-29.92,5.92
				c-8.05-1.09-15.63-4.38-21.92-9.51c-5.45-4.26-9.95-9-16.78-12.59c-5.78-3.04-13.23-5.26-17.5-9.05
				c-4.28-3.79-4.18-10.2,3.52-13.91L602.71,626.85z M641.84,397.37c-3.84-4.34-3.62-10.93,0.51-15
				c7.16-8.11,25.05-12.94,39.89-13.04c14.84-0.1,27.39,3.42,39.37,6.91c17.62,5.13,36.44,11.25,39.86,22.64
				c0.58,1.49,0.46,3.17-0.33,4.56c-1.4,1.75-3.08,3.25-4.99,4.44c-10.91,7.79-21.86,16.41-23.43,25.19
				c-1.19,6.5,2.96,12.29,8.51,17.24c2.58,2.34,5.56,5.05,3.33,8.13c-1.58,2.23-5.56,3.93-7.92,6.04
				c-5.35,4.88-1.58,11.39-9.7,15.11c-6.94,3.17-16.22,0.74-18.23-3.17c-2.01-3.91,0.3-8.7,0.6-13.09
				c0.46-6.97-4.53-13.29-13.54-17.11c-5.97-2.5-14.26-5.15-11.79-9.85c0.91-1.25,1.93-2.4,3.06-3.45
				c5.26-5.64,3.53-12.17-3.98-15.24c-9.68-2.65-16.73-6.04-24.98-9.7c-6.57-3.04-12.75-6.32-16.27-10.65L641.84,397.37z
				 M471.94,458.01c-1.85-1.08-3.52-2.41-3.17-4.09c0.59-2.98,6.84-5.28,9.74-8.14c4.91-4.86-1.12-9.43-7.13-12.45
				c-5.59-2.79-11.49-5.53-15.13-9.27c-5.54-5.7-5.24-13.51,0.84-20.59c6.08-7.08,17.82-13.21,30.83-16.19
				c14.26-3.26,31.48-1.79,34.65,5.34c0.65,2.1,0.83,4.32,0.54,6.5c-0.21,10.38,7.43,20.8,24.97,23c11.52,1.46,24.93-0.86,37.7-2.33
				c22.72-2.69,45.7-2.37,68.34,0.95c10.77,1.7,22.18,5.51,20.07,12.21c-1.44,4.56-9.08,8.71-17.09,10.87
				c-8.14,1.88-16.44,2.94-24.79,3.17c-5.32,2.04-15.84,6.13-18.88,10.09c-2.41,3.17-1.28,6.34-1.06,9.39
				c0.22,3.06-1.09,6.89-6.24,9.05c-4.65,1.75-9.76,1.88-14.5,0.36c-3.93-1.33-6.43-3.55-9.33-5.48c-7.75-5.2-19.09-8.71-32.41-9.17
				c-17.43-0.62-36.69,3.94-53.86,3.06C486.4,463.75,477.92,461.53,471.94,458.01z M439.48,568.98c-3.98-1.9-8.7-5.1-10.87-9.17
				c-2.17-4.07-0.25-9.17,4.91-13.37c6.34-5.21,18.12-10.19,16.79-15.52c-0.52-2.14-3.28-3.66-5.92-5.09
				c-6.56-3.43-13.11-6.9-19.64-10.41c-3.91-2.09-8.05-4.5-7.51-7.92c0.41-2.53,3.52-5.12,7.22-7.16
				c11.18-6.05,28.8-7.67,38.61-3.55c6.34,2.68,9.2,7.14,14.26,10.5c6.07,3.96,15.08,6.24,23.89,8.43
				c8.81,2.19,17.81,4.44,23.98,8.36c6.18,3.93,8.93,9.98,4.26,15.84c-3.37,4.13-10.14,7.73-12.55,11.98
				c-2.41,4.25-1.25,9.01-7.92,11.49c-4.44,1.58-9.39,0.87-14.16,1.06c-9.03,0.33-17.77,4.04-26.74,6.34S445.5,571.87,439.48,568.98
				z M521.85,690.44c-8.02,4.01-17.62,2.42-27.36,3.79c-4.15,0.6-8.11,0.17-12.23,0.38c-4.12,0.21-9.12,1.58-10.68,3.74
				c-0.71,1.03-0.67,2.4,0.1,3.39c1.38,2.28,4.29,4.06,5.94,6.23c1.65,2.17,1.81,5.23-1.7,7.45c-4.23,2.69-11.33,2.77-16.24,1.7
				c-14.76-3.17-19.49-12.86-21.31-21.97c-1.82-9.11-2.31-19.01-12.4-25.44c-8.78-5.54-23.27-7.4-35.6-10.63
				c-12.32-3.23-23.76-9.2-21.1-17.58c1.33-4.23,6.08-8.4,11.66-12.02c9.44-6.15,20.03-10.32,31.13-12.26
				c11.83-1.98,24.4-0.73,30.1,4.01c3.82,3.17,4.42,7.41,6.19,11.23c1.77,3.82,5.43,7.64,12.67,8.36c9.5,1.01,20.9-3.79,30.89-3.47
				c10.5,0.33,15.38,5.94,18.9,11.09c4.91,7.05,9.77,14.1,14.69,21.13c2.22,3.17,4.48,6.5,4.5,10.17c0.02,3.68-2.57,7.87-8.24,10.72
				H521.85z M528.78,649.6c-3.64-14.26-16.29-26.93-35.52-35.26c-9.87-4.26-21.54-7.54-28.86-13.2c-7.32-5.66-8.92-14.7,1.17-21.47
				c10.42-7.02,28.63-8.35,41.28-5.78c12.66,2.57,21.62,7.92,32.4,12.06c3.57,1.49,7.4,2.24,11.26,2.22
				c11.22-0.32,19.31-9.89,30.78-11.42c1.24-0.17,4.75-0.35,5.81,1.31c1.82,3.01-3.88,9.87-8.35,13.86s-10.95,7.33-15.97,11.09
				s-8.63,8.73-5.8,12.23c4.39,5.48,21.56,4.64,25.08,10.38c3.31,5.39-7.6,12.17-8.87,18.39c-1.71,8.33,14.26,14.26,8.19,22.51
				c-3.3,4.51-12.67,7.84-20.94,8.19c-7.04,0.44-14.06-1.22-20.17-4.75c-3.6-2.05-6.51-5.11-8.38-8.81
				C530.19,657.51,529.84,653.42,528.78,649.6z M750.76,696.45c-13.07,9.87-34.69,15.84-54.78,17.63
				c-15.65,1.39-32.9,1.03-45.94,7.33c-2.91,1.36-5.43,3.04-8.54,4.21c-5.92,2.28-12.94,2.52-19.26,2.38
				c-9.5-0.21-19.83-1.43-23.16-6c-2.44-3.39-0.41-7.7,0.59-11.74c1-4.04,0.32-8.54-5.62-10.11s-13.75,0.43-20.93,1.58
				c-9.06,1.48-18.3,1.48-27.36,0c-7.68-1.38-14.69-4.75-13.34-9.58c1.17-4.25,8.67-8.21,16.4-9.82c7.48-1.36,15.13-1.56,22.67-0.59
				l2.08-0.52c8.87-3.68,15.57-9.17,17.93-14.69c1.12-2.61,1.36-5.28,3.26-7.84c2.75-3.24,6.72-5.19,10.96-5.39
				c4.07-0.33,7.94,1.83,9.79,5.48c3.79,6.51,7.68,13.16,15.92,17.9c8.24,4.74,21.86,7.18,35.28,4.04
				c8.4-1.96,15.48-5.75,23.16-8.74c12.61-4.8,25.94-7.4,39.43-7.68c8-0.13,15.84,0.67,21.67,2.91
				c14.43,5.58,12.93,19.36-0.16,29.23H750.76z M911.97,633.08c-3.04,4.75-9.09,8.89-15.4,12.78c-4.61,3.03-9.65,5.36-14.94,6.92
				c-6.81,1.66-13.87,1.99-20.8,0.95c-5.62-0.71-11.08-2.31-16.19-4.75c-4.06-2.03-7.51-4.63-13.15-5.34
				c-9.38-1.24-22.27,4.56-22.69,10.17c-0.35,4.88,6.99,8.25,6.34,13.15c-0.55,4.28-6.97,8.35-12.96,11.88
				c-4.23,2.49-9.11,5.2-14.67,5.69c-4.3,0.61-8.65-0.73-11.87-3.64c-2.17-2.34-2.79-5.16-4.06-7.79
				c-2.49-4.99-7.62-9.28-14.72-12.29l-1.49-0.27c-6.67-4.32-20.59-2.39-32.1-2.31c-2.41,0-5.16-0.22-5.61-1.46
				c-0.22-0.6,0.21-1.28,0.68-1.9c6.07-7.48,26.04-11.09,29.94-18.71c1.14-2.19,0.67-4.45,2.53-6.56c2.79-3.17,9.73-4.88,15.7-5.4
				c5.97-0.52,11.88-0.33,17.82-1.58c8.3-1.76,15.35-6.5,16.41-11.09c1.58-6.56-7.92-11.94-3.17-18.46
				c2.93-3.98,10.47-6.91,17.79-8.38s14.7-1.77,22.07-2.69c4.72-0.77,9.48-1.26,14.26-1.46c9.43-0.1,16.44,3.17,22.38,6.34
				c11.15,6.04,21.48,13.49,30.72,22.18c7.1,7.13,12.96,15.35,7.19,24.11L911.97,633.08z"/>
		</g>
	</g>
</g>
<g id="freepik--money-icons--inject-114">
	<g id="freepik--money-icon--inject-114">
		<path class="st5" d="M353.46,368.08l3.28,5.73l-7.76,4.44l-3.28-5.75c-5.77,2.27-12.56,2.57-17.82-3.44l8.48-8.3
			c2.11,2.71,5.95,3.35,8.82,1.47c2.57-1.46,3.71-3.49,2.41-5.77c-2.09-3.68-6.64-1.35-12.42,0.11c-6.21,1.5-12.67,1.85-16.92-5.7
			c-3.87-6.78-1.92-13.02,4.18-17.79l-3.28-5.75l7.83-4.45l3.28,5.78c6.65-2.5,12.39-1.46,16.79,2.9l-8.03,7.92
			c-1.9-2.22-4.75-2.69-8.21-0.73c-3.45,1.96-3.61,3.98-2.61,5.72c1.58,2.84,4.39,2.08,10.41,0.4c6.34-1.7,14.54-3.79,19.44,4.75
			C361.98,356.61,359.59,363.2,353.46,368.08z"/>
		<path class="st5" d="M364.66,236.07l-7.83-1.27l0.78-4.75c-3.77-1.31-7.92-4.18-8.24-10.33v-0.76l10-0.98v0.87
			c-0.05,2.06,1.51,3.8,3.56,3.98c1.8,0.29,2.79-0.21,2.99-1.47c0.27-1.71-1.3-2.44-4.34-3.71c-0.68-0.29-1.39-0.59-2.12-0.92
			c-4.21-1.96-8.35-4.88-7.29-11.52c0.89-5.47,4.53-8.52,10.34-8.65l0.78-4.75l7.92,1.27l-0.76,4.75c4.31,1.29,7.42,5.04,7.92,9.5
			l0.1,0.79l-9.63,1.01v-0.86c-0.08-2.27-1.98-3.06-3.56-3.31c-1.85-0.3-2.88,0.16-3.07,1.35c-0.25,1.58,0.74,2.12,5.12,3.99
			c4.1,1.82,10.3,4.56,9.08,12.17c-0.87,5.43-4.75,8.6-10.82,8.79L364.66,236.07z M358.65,233.49l4.75,0.76l0.73-4.51h0.68
			c3.26,0,8.87-0.92,9.93-7.48c1.06-6.56-4.06-8.65-8.14-10.46s-6.53-2.79-6.05-5.7c0.13-0.79,0.86-3.31,4.9-2.65
			c2.29,0.13,4.22,1.74,4.75,3.98l6.34-0.67c-0.68-3.69-3.17-6.34-7.33-7.64l-0.65-0.22l0.73-4.51l-4.75-0.78l-0.73,4.55h-0.68
			c-3.75,0-8.44,1.16-9.5,7.32c-0.86,5.28,1.93,7.75,6.34,9.84c0.7,0.32,1.41,0.6,2.08,0.89c2.96,1.24,5.77,2.39,5.28,5.42
			c-0.35,2.17-2.14,3.17-4.75,2.79c-2.49-0.3-4.45-2.26-4.75-4.75l-6.83,0.67c0.55,5.09,4.47,7.35,7.73,8.36l0.65,0.21
			L358.65,233.49z"/>
		<path class="st5" d="M804.31,279.19l-2-4.39c-3.87,0.98-8.97,0.95-12.59-4.02l-0.44-0.6l7.78-6.34l0.49,0.71
			c1.09,1.75,3.36,2.34,5.16,1.33c0.68-0.26,1.26-0.73,1.66-1.33c0.28-0.49,0.28-1.09,0-1.58c-0.71-1.58-2.44-1.31-5.66-0.68
			c-0.73,0.14-1.49,0.3-2.3,0.43c-4.58,0.7-9.65,0.57-12.44-5.54c-2.27-4.96-0.89-9.63,3.79-12.93l-2-4.29l7.26-3.33l2.01,4.4
			c4.3-1.34,8.98,0.06,11.85,3.53l0.52,0.62l-7.46,6.18l-0.49-0.7c-1.16-1.43-3.2-1.77-4.75-0.78c-1.71,0.78-2.33,1.73-1.82,2.84
			c0.68,1.49,2.09,1.3,6.46,0.48c4.37-0.82,11.09-1.93,14.26,5.09c2.28,4.99,0.78,9.82-4.12,13.32l2,4.37L804.31,279.19z
			 M803.18,272.86l1.92,4.18l4.32-1.98l-1.84-4.1l0.57-0.38c2.72-1.79,6.88-5.69,4.12-11.72s-8.19-4.94-12.67-4.17
			c-4.48,0.78-6.97,1.3-8.19-1.39c-0.33-0.73-1.12-3.17,2.6-4.93c1.98-1.18,4.5-0.92,6.19,0.65l4.94-4.1
			c-2.61-2.69-6.1-3.45-10.34-2.27l-0.65,0.17l-1.9-4.17l-4.39,2l1.92,4.18l-0.59,0.36c-3.17,2.04-6.34,5.67-3.77,11.33
			c2.22,4.88,5.91,5.39,10.76,4.64c0.78-0.13,1.58-0.27,2.22-0.41c3.17-0.62,6.15-1.2,7.41,1.58c0.5,0.94,0.5,2.06,0,2.99
			c-0.57,0.9-1.41,1.59-2.39,1.98c-2.22,1.15-4.94,0.66-6.61-1.2l-5.29,4.34c3.28,3.91,7.78,3.64,11.09,2.68L803.18,272.86z"/>
		<path class="st5" d="M1041.38,309.82l-2-4.37c-3.87,0.98-8.97,0.95-12.59-4.02l-0.44-0.6l7.78-6.34l0.49,0.73
			c1.09,1.73,3.35,2.32,5.15,1.33c0.68-0.26,1.27-0.73,1.68-1.33c0.28-0.49,0.28-1.09,0-1.58c-0.71-1.58-2.44-1.31-5.66-0.68
			c-0.73,0.14-1.49,0.3-2.3,0.43c-4.58,0.68-9.65,0.57-12.44-5.54c-2.27-4.96-0.89-9.63,3.79-12.94l-2-4.37l7.26-3.33l2.01,4.39
			c4.3-1.3,8.97,0.09,11.85,3.55l0.52,0.6l-7.46,6.19l-0.49-0.7c-1.15-1.44-3.2-1.77-4.75-0.78c-1.71,0.78-2.33,1.73-1.82,2.82
			c0.68,1.5,2.09,1.31,6.46,0.49c4.37-0.82,11.09-1.93,14.26,5.07c2.28,5.01,0.78,9.84-4.12,13.32l2,4.39L1041.38,309.82z
			 M1040.25,303.48l1.92,4.18l4.32-1.98l-1.92-4.17l0.57-0.38c2.72-1.79,6.88-5.69,4.12-11.72c-2.76-6.04-8.19-4.94-12.59-4.17
			c-4.4,0.78-6.97,1.28-8.19-1.39c-0.33-0.73-1.12-3.17,2.6-4.93c1.98-1.18,4.5-0.92,6.19,0.65l4.94-4.1
			c-2.61-2.69-6.1-3.45-10.34-2.28l-0.65,0.19l-1.9-4.17l-4.39,2l1.92,4.18l-0.59,0.36c-3.17,2.04-6.34,5.67-3.79,11.33
			c2.23,4.86,5.92,5.37,10.77,4.64c0.78-0.13,1.58-0.27,2.22-0.41c3.17-0.62,6.13-1.2,7.41,1.58c0.51,0.94,0.51,2.07,0,3.01
			c-0.57,0.92-1.42,1.63-2.42,2.03c-2.22,1.15-4.94,0.66-6.61-1.2l-5.29,4.34c3.28,3.91,7.78,3.63,11.09,2.66L1040.25,303.48z"/>
		<path class="st5" d="M684.59,78.37l0.86-4.75c-3.72-1.41-7.92-4.36-8.02-10.52v-0.74l10.01-0.78v0.95
			c-0.09,2.06,1.44,3.82,3.49,4.04c0.7,0.18,1.45,0.13,2.12-0.13c0.5-0.24,0.84-0.73,0.89-1.28c0.32-1.7-1.24-2.47-4.25-3.79
			c-0.68-0.3-1.39-0.62-2.12-0.97c-4.15-2.06-8.24-5.04-7.03-11.68c0.97-5.35,4.75-8.4,10.5-8.43l0.87-4.75l7.92,1.43l-0.87,4.75
			c4.25,1.42,7.25,5.24,7.6,9.71v0.81l-9.65,0.81V52.2c0-2.28-1.92-3.09-3.49-3.37c-1.85-0.35-2.9,0-3.17,1.27
			c-0.3,1.58,0.97,2.28,5.02,4.1c4.06,1.82,10.22,4.75,8.84,12.36c-0.98,5.4-4.99,8.51-11.01,8.57l-0.86,4.75L684.59,78.37z
			 M687.19,72.63l-0.82,4.51l4.67,0.86l0.82-4.51h0.68c3.25,0.1,8.89-0.73,10.08-7.26c1.19-6.53-3.88-8.73-7.92-10.63
			c-4.04-1.9-6.4-2.9-5.92-5.75c0.14-0.78,0.93-3.28,4.96-2.55c2.32,0.14,4.25,1.81,4.75,4.07l6.34-0.52
			c-0.6-3.71-3.03-6.34-7.18-7.79L697,42.84l0.82-4.5l-4.75-0.87l-0.74,4.47h-0.68c-3.75-0.14-8.46,1-9.58,7.11
			c-0.95,5.28,1.77,7.79,6.18,9.96c0.7,0.35,1.39,0.65,2.06,0.93c2.95,1.3,5.72,2.52,5.16,5.53c-0.14,1.05-0.8,1.96-1.76,2.42
			c-1,0.43-2.11,0.53-3.17,0.27c-2.48-0.32-4.43-2.27-4.75-4.75l-6.83,0.52c0.44,5.09,4.31,7.45,7.56,8.52L687.19,72.63z"/>
		<path class="st5" d="M402.14,310.64l-0.84,3.77l-5.07-1.14l0.84-3.75c-3.39-1.28-6.45-3.82-6.34-8.46l6.91-0.27
			c-0.16,1.98,1.21,3.75,3.17,4.09c1.68,0.38,2.96,0,3.3-1.58c0.54-2.39-2.34-3.17-5.4-4.75s-6.18-4.13-5.07-9.08
			c0.98-4.44,4.28-6.34,8.76-6.04l0.84-3.77l5.13,1.14l-0.84,3.77c3.48,1.07,5.92,4.19,6.11,7.83l-6.59,0.3c0-1.71-1-3.03-3.26-3.53
			s-3.17,0.3-3.37,1.44c-0.41,1.85,1.09,2.61,4.34,4.25c3.25,1.63,7.76,4.06,6.51,9.68C410.31,309.02,406.68,310.94,402.14,310.64z"
			/>
		<path class="st5" d="M683.15,248.24l-1.98,6.8l-9.16-2.66l1.98-6.78c-6.04-2.72-11.33-7.71-10.65-16.21l12.67,0.3
			c-0.54,3.65,1.83,7.11,5.43,7.92c3.03,0.87,5.42,0.24,6.21-2.46c1.25-4.34-3.91-6.1-9.31-9.5c-5.78-3.63-10.82-8.27-8.22-17.19
			c2.31-8.02,8.55-11.09,16.73-10.04l1.96-6.78l9.25,2.68l-1.98,6.8c6.88,3.17,10.33,8.4,10.28,15.03l-12.09-0.24
			c0.29-3.17-1.46-5.64-5.54-6.83c-3.85-1.12-5.73,0.19-6.34,2.23c-0.97,3.36,1.68,4.93,7.45,8.27c6.05,3.63,13.72,8.33,10.79,18.47
			C698.28,246.29,691.44,249.32,683.15,248.24z"/>
		<path class="st5" d="M785.65,143.61l1.28,4.17l-5.62,1.74l-1.28-4.17c-4.04,0.65-8.46-0.13-10.99-4.75l6.64-4.15
			c0.97,2.06,3.36,3.02,5.48,2.22c1.85-0.57,2.88-1.71,2.36-3.37c-0.82-2.66-4.09-1.82-8.02-1.7c-4.2,0-8.36-0.6-10.08-6.08
			c-1.58-4.91,0.63-8.65,5.23-10.85l-1.28-4.17l5.67-1.76l1.28,4.17c4.64-0.67,8.17,0.82,10.41,4.26l-6.34,3.99
			c-0.92-1.7-2.68-2.42-5.2-1.58c-2.52,0.84-2.88,2.06-2.49,3.31c0.63,2.06,2.53,1.96,6.64,1.74c4.34-0.19,9.9-0.38,11.83,5.86
			C792.76,137.44,790.27,141.36,785.65,143.61z"/>
		<path class="st5" d="M1040.32,182.34l-1.06,5.89l-7.92-1.43l1.06-5.89c-5.32-1.76-10.2-5.5-10.38-12.67l10.69-0.86
			c-0.11,3.11,2.17,5.78,5.26,6.15c2.61,0.46,4.58-0.29,5.01-2.61c0.67-3.75-3.83-4.75-8.68-7.13c-5.16-2.53-9.81-6-8.43-13.73
			c1.25-6.94,6.23-10.15,13.2-9.92l1.06-5.88l8.02,1.44l-1.06,5.88c6.05,2.11,9.43,6.16,9.96,11.74l-10.19,0.89
			c0-2.65-1.73-4.64-5.28-5.28s-4.75,0.68-5.12,2.44c-0.52,2.91,1.84,3.99,6.99,6.34c5.4,2.5,12.28,5.78,10.69,14.57
			C1052.85,179.33,1047.38,182.51,1040.32,182.34z"/>
	</g>
</g>
<g id="freepik--Clouds--inject-114">
	<path id="freepik--Cloud--inject-114" class="st6" d="M608.36,87.37c0-4.97-5.43-8.41-11.6-9c-7.27-0.68-12.42,2.55-12.59,8.27
		c-4.75-1.95-9.76-0.7-9.38,4.51c-1.24-1.41-5.86-1.38-7.51-0.98c-1.83,0.51-3.34,1.81-4.13,3.53c-0.4,0.83-0.54,1.75-0.43,2.66
		c-2.77-0.9-9.08-1.46-10.65,1.08c-2.8,4.53,8.4,4.67,10.65,3.3c0.49,3.52,12.51,4.1,15.43,0.86c2.28,2.3,5.54,2.8,9.08,3.01
		c5.96,0.35,9.6-1.58,14.26-4.04c5.05,4.29,13.8,4.36,18.34-0.54c1.16,1.09,4.36,1.44,6.92,0.82c1.68-0.4,2.06-1.11,2.06-1.11
		c1.02,0.43,2.08,0.73,3.17,0.92c3.31,0.7,9.5,0,6.88-3.01c-1.6-1.1-3.54-1.58-5.47-1.35c-1.43-2.82-7.21-5.51-10.53-3.17
		c-0.13-3.42-3.26-6.11-7.67-6.8C613.61,86.16,610.06,85.96,608.36,87.37z"/>
	<path id="freepik--cloud--inject-114" class="st6" d="M438.95,62.72c-1.67-0.63-3.44-0.95-5.23-0.97
		c-1.68-0.13-2.22-0.46-2.53-0.82c-3.31-4.78-9.51-6.62-14.89-4.4c-1.52-4.72-6.41-7.48-11.23-6.34
		c0.17-5.23-6.51-10.87-12.51-12.13c-6-1.27-10.79-0.71-14.07,3.07c-3.52-6.88-17.31-8.81-24.78-5.18
		c-4.29,2.09-7.92,4.25-9.71,8.17c-1.17,2.44-1.71,5.13-1.58,7.83c-2.91-2.57-8.73-3.26-12.67-1.76c-4.18,1.58-4.5,4.75-4.75,7.92
		c-2.48-0.71-5.11-0.76-7.62-0.14c-2.55,0.84-4.04,2.98-3.71,4.56c-2.09-0.11-7.07,1.58-6.5,3.79c0.65,2.47,6.34,2.22,8.44,2.14
		c2-0.16,3.99-0.47,5.94-0.93c0.99,0.37,2.03,0.57,3.09,0.59c3.61,0,5.15-1.58,5.73-2.91c1.76,3.71,8.05,6.54,12.48,7.68
		c8.36,2.14,20.2,0.84,25.35-5.42c0.61,1.16,1.46,2.18,2.49,2.99c2.22,1.79,4.91,2.89,7.75,3.17c3.42,0.32,12.67,0.76,15.24-4.75
		c1.84,3.63,10.04,5.29,16.29,4.4c2.42-0.37,4.77-1.08,6.99-2.11c1.58-0.79,2.57-1.58,4.02-2.41c1.01-0.71,2.33-0.81,3.42-0.24
		c4.41,1.55,9.21,1.55,13.62,0C441.5,67.12,442.23,64.19,438.95,62.72z"/>
	<path class="st6" d="M966.37,41.57c-1.67-0.61-3.42-0.93-5.2-0.95c-1.7-0.14-2.22-0.48-2.55-0.84c-3.32-4.77-9.51-6.6-14.89-4.4
		c-1.52-4.72-6.41-7.48-11.23-6.34c0.19-5.24-6.5-10.87-12.5-12.15c-5.77-1.22-10.79-0.71-14.08,3.09
		c-3.52-6.88-17.3-8.81-24.76-5.18c-4.29,2.09-7.92,4.23-9.73,8.17c-1.16,2.44-1.7,5.12-1.58,7.81c-2.9-2.57-8.73-3.25-12.67-1.74
		c-4.18,1.58-4.51,4.75-4.75,7.92c-2.48-0.72-5.11-0.77-7.62-0.14c-2.63,0.79-4.15,2.85-3.8,4.53c-2.08-0.11-7.05,1.58-6.48,3.77
		c0.63,2.47,6.34,2.23,8.44,2.15c2-0.16,3.99-0.47,5.94-0.93c0.99,0.37,2.03,0.57,3.09,0.59c3.61,0,5.15-1.58,5.72-2.91
		c1.77,3.71,8.05,6.54,12.5,7.68c8.35,2.14,20.18,0.82,25.35-5.42c0.61,1.17,1.47,2.2,2.5,3.03c2.2,1.8,4.9,2.91,7.73,3.17
		c3.44,0.33,12.67,0.76,15.26-4.75c1.89,3.72,10.11,5.31,16.33,4.48c2.42-0.37,4.77-1.08,6.99-2.11c1.38-0.73,2.72-1.53,4.01-2.41
		c1.01-0.7,2.32-0.79,3.42-0.24c4.41,1.57,9.22,1.57,13.62,0C968.9,45.97,969.63,43.06,966.37,41.57z"/>
	<path class="st6" d="M1051.04,70.65c-1.05-0.38-2.16-0.59-3.28-0.6c-1.08,0-1.41-0.3-1.58-0.52c-2.12-3.04-6.07-4.2-9.5-2.79
		c-0.96-2.99-4.06-4.74-7.11-4.02c0.13-3.31-4.12-6.88-7.92-7.7s-6.83-0.44-8.9,1.95c-2.23-4.34-10.96-5.58-15.7-3.26
		c-2.72,1.31-5.02,2.68-6.15,5.16c-0.75,1.54-1.1,3.25-1.03,4.96c-2.3-1.64-5.26-2.05-7.92-1.11c-2.66,1.03-2.87,3.03-2.99,5.05
		c-1.55-0.44-3.19-0.46-4.75-0.08c-1.66,0.49-2.63,1.81-2.41,2.87c-1.31,0-4.47,1-4.1,2.39s4.01,1.41,5.34,1.36
		c1.27-0.11,2.53-0.31,3.77-0.6c0.62,0.24,1.28,0.37,1.95,0.38c1.48,0.2,2.94-0.53,3.64-1.85c1.11,2.34,5.09,4.15,7.92,4.86
		c5.29,1.36,12.78,0.54,16.05-3.42c0.38,0.74,0.93,1.4,1.58,1.92c1.4,1.12,3.1,1.81,4.9,1.98c2.19,0.21,8.02,0.49,9.66-2.98
		c1.17,2.31,6.34,3.36,10.31,2.79c1.53-0.23,3.02-0.67,4.42-1.33c0.88-0.48,1.73-1.01,2.55-1.58c0.64-0.45,1.47-0.51,2.17-0.16
		c2.79,0.99,5.84,0.99,8.63,0C1052.66,73.44,1053.13,71.61,1051.04,70.65z"/>
</g>
<g id="freepik--Blocks--inject-114">
	<g id="freepik--blocks--inject-114">
		<g class="st7">
			<polygon class="st0" points="478.92,550.59 478.92,568.32 406.54,610.3 334.18,568.7 334.18,550.59 406.54,592.37 			"/>
			<polygon class="st0" points="652.66,584.1 652.66,601.82 580.28,643.82 507.91,602.22 507.91,584.1 580.28,625.89 			"/>
			<polygon class="st0" points="826.33,617.46 826.33,635.19 753.95,677.18 681.58,635.58 681.58,617.46 753.95,659.25 			"/>
			<polygon class="st0" points="1000,583.59 1000,601.32 927.62,643.3 855.25,601.7 855.25,583.59 927.62,625.38 			"/>
		</g>
		<polygon class="st8" points="334.18,517.17 406.54,558.94 478.92,517.17 406.54,475.44 		"/>
		<polygon class="st5" points="406.54,558.94 406.54,592.37 478.92,550.59 478.92,517.17 		"/>
		<polygon class="st9" points="334.18,517.17 406.54,558.94 406.54,592.37 334.18,550.59 		"/>
		<polygon class="st8" points="507.86,517.2 580.24,558.97 652.61,517.2 580.24,475.47 		"/>
		<polygon class="st5" points="580.24,558.97 580.24,625.81 652.61,584.02 652.61,517.2 		"/>
		<polygon class="st9" points="507.86,517.2 580.24,558.97 580.24,625.81 507.86,584.02 		"/>
		<polygon class="st8" points="681.57,492.12 753.93,533.91 826.31,492.12 753.93,450.39 		"/>
		<polygon class="st5" points="753.93,533.91 753.93,659.25 826.31,617.46 826.31,492.12 		"/>
		<polygon class="st9" points="681.57,492.12 753.93,533.91 753.93,659.25 681.57,617.46 		"/>
		<polygon class="st8" points="855.25,335.27 927.62,377.05 1000,335.27 927.62,293.55 		"/>
		<path class="st10" d="M1000,335.27l-18.3-10.09l-18.2-10.23c-6.08-3.39-12.1-6.89-18.15-10.33l-18.12-10.38h0.76l-18.12,10.38
			c-6.05,3.44-12.07,6.94-18.15,10.33l-18.2,10.23l-18.3,10.09l17.89-10.79l17.98-10.63c5.99-3.56,12.02-7.02,18.04-10.52
			l18.06-10.5l0.4-0.24l0.41,0.24l18.06,10.5c6,3.5,12.06,6.97,18.03,10.53l17.98,10.63L1000,335.27z"/>
		<polygon class="st5" points="927.62,377.05 927.62,625.48 1000,583.68 1000,335.27 		"/>
		<polygon class="st9" points="855.25,335.27 927.62,377.05 927.62,625.48 855.25,583.68 		"/>
	</g>
</g>
<g id="freepik--Coin--inject-114">
	<g>
		
			<ellipse transform="matrix(0.9202 -0.3915 0.3915 0.9202 -5.5495 373.6918)" class="st11" cx="913.56" cy="200.45" rx="55.75" ry="83.5"/>
		
			<ellipse transform="matrix(0.9202 -0.3915 0.3915 0.9202 -5.5495 373.6918)" class="st11" cx="913.56" cy="200.45" rx="66.3" ry="99.33"/>
		
			<ellipse transform="matrix(0.9202 -0.3915 0.3915 0.9202 -5.5495 373.6918)" class="st11" cx="913.56" cy="200.45" rx="77.01" ry="115.34"/>
		<g>
			<g id="freepik--coin--inject-114">
				<path class="st0" d="M882.5,152.83l-3.04-6.34l13.26-7.65l0,0c1.57-0.91,3.26-1.61,5.01-2.09c0.62-0.16,1.24-0.3,1.85-0.41
					c3.1-0.51,6.28-0.42,9.35,0.27c1.14,0.23,2.26,0.53,3.36,0.9c1.18,0.38,2.35,0.83,3.49,1.33c1.53,0.68,3.02,1.45,4.47,2.28
					c1.58,0.92,3.17,1.95,4.64,3.06c1.16,0.84,2.3,1.74,3.42,2.69c16.46,13.89,29.4,38.65,32.7,62.48c0.22,1.62,0.4,3.23,0.52,4.85
					c0.2,2.29,0.3,4.57,0.29,6.84c0,1.84-0.08,3.63-0.22,5.35c-0.14,1.73-0.29,2.95-0.51,4.34c-0.22,1.39-0.48,2.74-0.78,4.04l0,0
					c-0.8,3.57-2.09,7.01-3.85,10.22c-0.35,0.63-0.73,1.25-1.11,1.84c-1.57,2.44-3.56,4.59-5.88,6.34
					c-0.69,0.51-1.41,0.98-2.15,1.41l0,0l-12.55,7.24l-2.77-5.78c-0.73-0.17-1.47-0.36-2.23-0.59c-3.05-0.94-5.97-2.24-8.71-3.87
					c-1.77-1.04-3.49-2.17-5.13-3.41c-2.22-1.65-4.34-3.45-6.34-5.37c-13.73-13.21-24.55-33.9-28.51-54.5
					c-0.58-3.02-1.01-6.07-1.28-9.14c-0.24-2.52-0.35-5.04-0.35-7.51c0-3.57,0.29-7.13,0.89-10.65
					C880.79,158.22,881.53,155.48,882.5,152.83z"/>
				<path class="st12" d="M957.97,195.26l-26.93,15.52l-3.55-10.23L954.42,185C955.79,188.37,956.97,191.8,957.97,195.26z"/>
				<path class="st12" d="M892.72,138.84L892.72,138.84c1.57-0.91,3.26-1.61,5.01-2.09c0.62-0.16,1.24-0.3,1.85-0.41
					c3.1-0.51,6.28-0.42,9.35,0.27l1.22,0.29l-27.68,15.94l0,0l-3.04-6.34L892.72,138.84z"/>
				<path class="st12" d="M895.6,178.17l-3.53-4.26l40.33-23.22c1.28,1.27,2.53,2.6,3.77,3.99L895.6,178.17z"/>
				<path class="st12" d="M944.74,166.05l-34.95,20.18l-3.85-10.06l32.54-18.8C940.73,160.15,942.82,163.05,944.74,166.05z"/>
				<path class="st13" d="M892.72,138.84L892.72,138.84c1.57-0.91,3.26-1.61,5.01-2.09c0.62-0.16,1.24-0.3,1.85-0.41
					c3.1-0.51,6.28-0.42,9.35,0.27c1.14,0.23,2.26,0.53,3.36,0.9c1.18,0.38,2.35,0.83,3.49,1.33c1.53,0.68,3.02,1.45,4.47,2.28
					c1.58,0.92,3.17,1.95,4.64,3.06c1.16,0.84,2.3,1.74,3.42,2.69c15.32,12.94,27.61,35.31,31.87,57.57l-56.13,32.35
					c-11.55-14.02-19.44-30.7-22.95-48.52c-0.58-3.02-1.01-6.07-1.28-9.14c-0.24-2.52-0.35-5.04-0.35-7.51
					c0-3.57,0.29-7.13,0.89-10.65c0.47-2.8,1.19-5.55,2.15-8.22l-3.04-6.34L892.72,138.84z"/>
				<path class="st14" d="M934.76,261.83l-2.77-5.78c-0.73-0.17-1.47-0.36-2.23-0.59c-3.05-0.94-5.97-2.24-8.71-3.87
					c-1.77-1.04-3.49-2.17-5.13-3.41c-2.22-1.65-4.34-3.45-6.34-5.37c-1.96-1.9-3.82-3.89-5.58-5.97l56.13-32.41
					c0.32,1.58,0.59,3.28,0.82,4.91s0.4,3.17,0.52,4.85c0.2,2.29,0.3,4.57,0.29,6.84c0,1.84-0.08,3.63-0.22,5.35
					c-0.14,1.73-0.29,2.95-0.51,4.34c-0.22,1.39-0.48,2.74-0.78,4.04l0,0c-0.8,3.57-2.09,7.01-3.85,10.22
					c-0.35,0.63-0.73,1.25-1.11,1.84c-1.57,2.44-3.56,4.59-5.88,6.34c-0.69,0.51-1.41,0.98-2.15,1.41l0,0L934.76,261.83z"/>
				<path class="st14" d="M956.5,244.99c-0.35,0.63-0.73,1.25-1.11,1.84c-1.57,2.44-3.56,4.59-5.88,6.34
					c-0.69,0.51-1.41,0.98-2.15,1.41l0,0l-12.55,7.24l-2.77-5.78h-0.11l-0.19-2.38l27.87-16.1
					C958.84,240.14,957.8,242.63,956.5,244.99z"/>
				<path class="st0" d="M865.28,179.87c0,2.47,0.11,4.97,0.33,7.51c0.29,3.01,0.71,6.07,1.3,9.14
					c3.96,20.59,14.78,41.19,28.51,54.5c1.99,1.92,4.11,3.71,6.34,5.35c1.64,1.24,3.36,2.37,5.13,3.41
					c2.74,1.63,5.67,2.93,8.71,3.88c3,0.93,6.14,1.34,9.28,1.2c4.2-0.19,8.24-1.64,11.6-4.17c2.31-1.75,4.3-3.9,5.88-6.34
					c0.38-0.59,0.74-1.2,1.11-1.84c1.74-3.21,3.04-6.64,3.85-10.2l0,0c0.3-1.28,0.55-2.63,0.78-4.02c0.22-1.39,0.38-2.85,0.51-4.34
					c0.14-1.73,0.21-3.52,0.22-5.37c0-2.25-0.1-4.55-0.29-6.84c-0.13-1.58-0.3-3.17-0.54-4.85c-3.28-23.76-16.24-48.59-32.7-62.48
					c-1.12-0.95-2.25-1.84-3.41-2.68c-1.5-1.1-3.05-2.12-4.66-3.06c-1.44-0.85-2.93-1.62-4.47-2.3c-1.13-0.51-2.29-0.95-3.47-1.33
					c-1.11-0.36-2.23-0.66-3.37-0.9c-3.07-0.68-6.23-0.77-9.33-0.25c-0.63,0.11-1.25,0.24-1.85,0.4c-2.65,0.72-5.13,1.95-7.3,3.63
					c-3.58,2.84-6.39,6.54-8.14,10.76c-1.5,3.38-2.57,6.93-3.17,10.58C865.56,172.76,865.27,176.31,865.28,179.87z"/>
				<path class="st15" d="M865.28,179.87c0,2.47,0.11,4.97,0.33,7.51c0.29,3.01,0.71,6.07,1.3,9.14
					c3.96,20.59,14.78,41.19,28.51,54.5c1.99,1.92,4.11,3.71,6.34,5.35c1.64,1.24,3.36,2.37,5.13,3.41
					c2.74,1.63,5.67,2.93,8.71,3.88c3,0.93,6.14,1.34,9.28,1.2c4.2-0.19,8.24-1.64,11.6-4.17c2.31-1.75,4.3-3.9,5.88-6.34
					c0.38-0.59,0.74-1.2,1.11-1.84c1.74-3.21,3.04-6.64,3.85-10.2l0,0c0.3-1.28,0.55-2.63,0.78-4.02c0.22-1.39,0.38-2.85,0.51-4.34
					c0.14-1.73,0.21-3.52,0.22-5.37c0-2.25-0.1-4.55-0.29-6.84c-0.13-1.58-0.3-3.17-0.54-4.85c-3.28-23.76-16.24-48.59-32.7-62.48
					c-1.12-0.95-2.25-1.84-3.41-2.68c-1.5-1.1-3.05-2.12-4.66-3.06c-1.44-0.85-2.93-1.62-4.47-2.3c-1.13-0.51-2.29-0.95-3.47-1.33
					c-1.11-0.36-2.23-0.66-3.37-0.9c-3.07-0.68-6.23-0.77-9.33-0.25c-0.63,0.11-1.25,0.24-1.85,0.4c-2.65,0.72-5.13,1.95-7.3,3.63
					c-3.58,2.84-6.39,6.54-8.14,10.76c-1.5,3.38-2.57,6.93-3.17,10.58C865.56,172.76,865.27,176.31,865.28,179.87z"/>
				<path class="st16" d="M947.15,211.91c0.32,1.58,0.6,3.3,0.82,4.94c0.22,1.65,0.41,3.25,0.54,4.85c0.19,2.3,0.29,4.59,0.29,6.84
					c0,1.85-0.08,3.64-0.22,5.37c-0.13,1.49-0.29,2.95-0.51,4.34c-0.22,1.39-0.48,2.74-0.78,4.02l0,0
					c-0.81,3.56-2.11,6.99-3.85,10.2c-0.36,0.63-0.73,1.25-1.11,1.84c-1.58,2.44-3.56,4.58-5.88,6.34c-3.36,2.53-7.4,3.98-11.6,4.17
					c-3.14,0.14-6.28-0.27-9.28-1.2c-3.05-0.95-5.97-2.25-8.71-3.88c-1.58-0.91-3.1-1.91-4.56-2.99L947.15,211.91z"/>
				<path class="st16" d="M946.52,245.17c-0.76,2.55-1.79,5.01-3.07,7.33c-0.36,0.63-0.73,1.25-1.11,1.84
					c-1.58,2.44-3.56,4.58-5.88,6.34c-2.76,2.06-5.99,3.41-9.39,3.93L946.52,245.17z"/>
				<path class="st17" d="M941.45,192.54c1.34,3.35,2.51,6.76,3.5,10.23l-48.84,48.86l-0.67-0.62c-2.12-2.05-4.12-4.21-5.99-6.48
					L941.45,192.54z"/>
				<path class="st17" d="M925.48,164.9c2.24,2.77,4.33,5.66,6.24,8.67l-53.77,53.72c-1.74-3.28-3.34-6.69-4.75-10.15L925.48,164.9z
					"/>
				<path class="st17" d="M919.38,158.15c1.28,1.27,2.55,2.61,3.79,4.02l-51.41,51.41c-0.71-1.92-1.39-3.87-2-5.81L919.38,158.15z"
					/>
				<path class="st17" d="M865.41,176.14L865.41,176.14c0-1,0.13-1.96,0.22-2.91l0.1-0.95c0-0.33,0.08-0.65,0.13-0.97
					c0.1-0.71,0.19-1.41,0.32-2.09c0.6-3.65,1.67-7.2,3.17-10.58c1.76-4.22,4.56-7.92,8.14-10.76c2.17-1.68,4.65-2.91,7.3-3.63
					c0.6-0.16,1.22-0.29,1.85-0.4c3.1-0.51,6.27-0.43,9.33,0.25c0.41,0,0.82,0.19,1.24,0.3L865.41,176.14z"/>
				<path class="st0" d="M875.93,186.25c0,21.97,12.82,47.35,29.02,58.14c0.7,0.46,1.39,0.9,2.09,1.3
					c17.19,9.93,31.11-0.6,31.11-23.51s-13.92-49.54-31.11-59.45c-0.7-0.41-1.39-0.78-2.09-1.11
					C888.74,153.68,875.93,164.26,875.93,186.25z"/>
				<path class="st18" d="M875.93,186.25c0,21.97,12.82,47.35,29.02,58.14c0.7,0.46,1.39,0.9,2.09,1.3
					c17.19,9.93,31.11-0.6,31.11-23.51s-13.92-49.54-31.11-59.45c-0.7-0.41-1.39-0.78-2.09-1.11
					C888.74,153.68,875.93,164.26,875.93,186.25z"/>
				<path class="st0" d="M877.29,187.04c0,0.72,0,1.43,0,2.14c0.79,20.48,12.67,43.45,27.69,53.42l0.41,0.27
					c0.52,0.35,1.05,0.68,1.58,0.98c2.86,1.73,6.04,2.88,9.35,3.39c6.71,1.04,13.33-2.33,16.43-8.36c2.34-4.37,3.65-9.21,3.85-14.16
					c0-1.08,0.11-2.19,0.11-3.34s0-2.11-0.1-3.17c-0.11-2.27-0.35-4.52-0.71-6.76c-2.61-15.84-11.09-31.97-21.8-41.66
					c-1.5-1.36-3.09-2.61-4.75-3.75c-0.78-0.52-1.58-1.01-2.34-1.46c-0.76-0.44-1.35-0.74-2-1.08l-0.55-0.25
					c-3.79-1.94-8.09-2.62-12.29-1.96c-6.34,1.2-11.09,6.19-13.39,14.16C877.74,179.21,877.24,183.12,877.29,187.04z"/>
				<path class="st19" d="M877.29,187.04c0,0.72,0,1.43,0,2.14c0.79,20.48,12.67,43.45,27.69,53.42l0.41,0.27
					c0.52,0.35,1.05,0.68,1.58,0.98c2.86,1.73,6.04,2.88,9.35,3.39c6.71,1.04,13.33-2.33,16.43-8.36c2.34-4.37,3.65-9.21,3.85-14.16
					c0-1.08,0.11-2.19,0.11-3.34s0-2.11-0.1-3.17c-0.11-2.27-0.35-4.52-0.71-6.76c-2.61-15.84-11.09-31.97-21.8-41.66
					c-1.5-1.36-3.09-2.61-4.75-3.75c-0.78-0.52-1.58-1.01-2.34-1.46c-0.76-0.44-1.35-0.74-2-1.08l-0.55-0.25
					c-3.79-1.94-8.09-2.62-12.29-1.96c-6.34,1.2-11.09,6.19-13.39,14.16C877.74,179.21,877.24,183.12,877.29,187.04z"/>
				<path class="st0" d="M882.3,186.31c0-0.71,0-1.42,0-2.14c-0.05-3.92,0.46-7.82,1.49-11.6c1.04-4.11,3.24-7.84,6.34-10.74
					c0.67-0.23,1.36-0.41,2.06-0.55c4.2-0.66,8.51,0.03,12.29,1.96l0.55,0.25c0.65,0.33,1.33,0.68,2,1.08
					c0.67,0.4,1.58,0.93,2.34,1.46c1.67,1.14,3.26,2.4,4.75,3.75c10.69,9.7,19.18,25.81,21.78,41.65c0.38,2.23,0.63,4.49,0.76,6.75
					c0,1.06,0.1,2.12,0.1,3.17c0,1.05,0,2.27-0.11,3.34c-0.2,4.95-1.51,9.79-3.85,14.16c-1.03,1.79-2.35,3.4-3.91,4.75
					c-2.44,0.83-5.04,1.07-7.59,0.68c-3.31-0.51-6.48-1.66-9.35-3.39c-0.52-0.32-1.06-0.63-1.58-0.98l-0.4-0.27
					C895,229.77,883.07,206.8,882.3,186.31z"/>
				<path class="st20" d="M882.3,186.31c0-0.71,0-1.42,0-2.14c-0.05-3.92,0.46-7.82,1.49-11.6c1.04-4.11,3.24-7.84,6.34-10.74
					c0.67-0.23,1.36-0.41,2.06-0.55c4.2-0.66,8.51,0.03,12.29,1.96l0.55,0.25c0.65,0.33,1.33,0.68,2,1.08
					c0.67,0.4,1.58,0.93,2.34,1.46c1.67,1.14,3.26,2.4,4.75,3.75c10.69,9.7,19.18,25.81,21.78,41.65c0.38,2.23,0.63,4.49,0.76,6.75
					c0,1.06,0.1,2.12,0.1,3.17c0,1.05,0,2.27-0.11,3.34c-0.2,4.95-1.51,9.79-3.85,14.16c-1.03,1.79-2.35,3.4-3.91,4.75
					c-2.44,0.83-5.04,1.07-7.59,0.68c-3.31-0.51-6.48-1.66-9.35-3.39c-0.52-0.32-1.06-0.63-1.58-0.98l-0.4-0.27
					C895,229.77,883.07,206.8,882.3,186.31z"/>
				<path class="st6" d="M886.57,143.86c17.96-2.03,32.59,12.85,42.34,26.23c14.08,20.77,23,47.07,18.14,72.21l0,0
					c-1.58,7-4.75,14-10.6,18.46c5.94-4.36,9.39-11.36,11.09-18.41l0,0c4.48-20.59-1.16-42.2-10.57-60.61
					C926.86,163.49,909.77,141.37,886.57,143.86z"/>
				<path class="st0" d="M929.28,221.67c-0.3-7.92-4.47-13.59-9.36-18.22l2.34,0.6l6.8-3.91c-0.3-1.48-0.71-2.94-1.22-4.36
					c-0.88-2.39-2.07-4.65-3.53-6.73c-2.39-3.36-5.34-6.29-8.71-8.67l-0.29-6.97l-8.41-4.86l-6.8,3.93v1.79v0.38
					c-0.55,0.2-1.08,0.45-1.58,0.76c-0.19,0.11-0.35,0.24-0.51,0.35c-0.79,0.59-4.75,2.63-6.34,3.58c-0.19,0.11-0.35,0.24-0.51,0.35
					c-1.79,1.31-2.77,3.85-2.61,7.78l0,0c0.17,3.86,1.34,7.6,3.41,10.87l0.52,0.79v0.1l0.57,0.81c0.16,0.24,0.33,0.48,0.52,0.7
					c0,0.1,0.14,0.21,0.22,0.29c0.12,0.18,0.26,0.35,0.41,0.51c1.17,1.42,2.43,2.76,3.77,4.02c0.59,0.55,1.19,1.09,1.79,1.58
					l-3.17-0.78l-6.64,3.91c1.96,7.45,6.5,13.96,12.82,18.38l0.27,7.03l8.49,4.75l6.8-3.93l-0.08-2.2c0.48-0.12,0.94-0.31,1.36-0.57
					l0,0c1.03-0.67,5.58-3.17,6.75-3.9l0,0C928.43,228.45,929.44,225.84,929.28,221.67z"/>
				<path class="st21" d="M892.05,179.09c1.74-1.01,5.23-2.85,5.96-3.39c0.19-0.11,0.35-0.24,0.52-0.35
					c0.52-0.32,1.09-0.58,1.68-0.76l0.17,5.05C897.92,177.95,894.73,177.74,892.05,179.09z"/>
				<path class="st22" d="M911.38,220.12c0.1,2.12-1.12,3.17-4.66,1.24c-3.36-1.71-5.78-4.85-6.57-8.54l-10.19-2.55l6.78-3.91
					l3.09,0.76l0.19,0.16c0.93,0.84,1.87,1.58,2.77,2.39l1.08,0.89c2.04,1.57,3.93,3.32,5.66,5.23c0.72,0.8,1.26,1.74,1.58,2.77
					C911.27,219.06,911.37,219.59,911.38,220.12z"/>
				<path class="st23" d="M918.26,234.27l0.08,2.2l-6.78,3.9l-0.27-7.02C913.46,234.37,915.89,234.7,918.26,234.27z"/>
				<path class="st21" d="M908.55,177.28l-8.41-4.86l6.8-3.93l8.38,4.93l0.24,7.03c3.37,2.37,6.32,5.3,8.71,8.67
					c1.47,2.08,2.65,4.34,3.53,6.73c0.51,1.42,0.92,2.88,1.22,4.36l-6.8,3.91c-0.3-1.47-0.7-2.92-1.2-4.34
					c-0.89-2.39-2.08-4.65-3.55-6.73c-2.39-3.36-5.34-6.3-8.71-8.67L908.55,177.28z"/>
				<path class="st23" d="M915.6,180.39c2.93,1.67,5.52,3.88,7.65,6.5c2.15,2.61,3.71,5.64,4.59,8.9c-1.45-2.97-3.23-5.76-5.31-8.33
					c-1.03-1.28-2.15-2.49-3.3-3.66C918.1,182.62,916.89,181.51,915.6,180.39z"/>
				<path class="st24" d="M926.48,229.72L926.48,229.72c-1.17,0.73-5.72,3.17-6.75,3.9c1.95-1.27,2.96-3.88,2.8-8.05
					c-0.36-9.27-5.88-15.3-11.74-20.36c-5.45-4.75-10.28-7.6-10.46-12.09c-0.1-2.8,1.73-3.04,4.5-1.58
					c3.58,2.04,6.06,5.58,6.76,9.65l8.36,2.14l0,0c4.91,4.64,9.05,10.23,9.35,18.2C929.44,225.84,928.43,228.45,926.48,229.72z"/>
				<polygon class="st0" points="906.95,208.89 900.15,212.8 889.98,210.27 896.78,206.34 				"/>
				<polygon class="st21" points="906.95,208.89 900.15,212.8 889.98,210.27 896.78,206.34 				"/>
				<polygon class="st0" points="911.56,240.38 911.29,233.35 918.27,234.25 918.35,236.45 				"/>
				<polygon class="st22" points="911.56,240.38 911.29,233.35 918.27,234.25 918.35,236.45 				"/>
				<path class="st0" d="M900.2,174.21l0.19,5.43c-2.57-1.77-5.94-1.91-8.65-0.36c-0.19,0.11-0.35,0.24-0.51,0.35
					c-1.79,1.31-2.77,3.85-2.61,7.78l0,0c0.17,3.86,1.34,7.6,3.41,10.87l0.52,0.79v0.1l0.57,0.81c0.16,0.24,0.33,0.48,0.52,0.7
					c0,0.1,0.14,0.21,0.22,0.29c0.12,0.18,0.26,0.35,0.41,0.51c1.17,1.42,2.43,2.76,3.77,4.02c0.63,0.6,1.3,1.2,1.95,1.77l2.79,2.39
					l1.08,0.89c2.04,1.57,3.93,3.32,5.66,5.23c0.71,0.8,1.25,1.74,1.58,2.76c0.15,0.52,0.24,1.05,0.27,1.58
					c0.08,2.11-1.14,3.17-4.67,1.24c-3.37-1.71-5.79-4.85-6.57-8.55l-10.17-2.53c1.96,7.45,6.5,13.96,12.82,18.38l0.27,7.03
					l8.49,4.75l-0.27-7.03c3.53,1.39,6.42,1.58,8.35,0.33l0,0c1.95-1.27,2.96-3.9,2.8-8.06c-0.35-9.25-5.88-15.29-11.74-20.34
					c-5.47-4.75-10.28-7.59-10.46-12.09c-0.1-2.8,1.73-3.04,4.51-1.58c3.58,2.05,6.05,5.59,6.75,9.65l10.71,2.76
					c-0.3-1.48-0.71-2.93-1.22-4.34c-0.88-2.39-2.07-4.66-3.53-6.75c-2.39-3.36-5.34-6.29-8.71-8.65l-0.25-7.03l-8.41-4.86
					L900.2,174.21z"/>
				<path class="st15" d="M900.2,174.21l0.19,5.43c-2.57-1.77-5.94-1.91-8.65-0.36c-0.19,0.11-0.35,0.24-0.51,0.35
					c-1.79,1.31-2.77,3.85-2.61,7.78l0,0c0.17,3.86,1.34,7.6,3.41,10.87l0.52,0.79v0.1l0.57,0.81c0.16,0.24,0.33,0.48,0.52,0.7
					c0,0.1,0.14,0.21,0.22,0.29c0.12,0.18,0.26,0.35,0.41,0.51c1.17,1.42,2.43,2.76,3.77,4.02c0.63,0.6,1.3,1.2,1.95,1.77l2.79,2.39
					l1.08,0.89c2.04,1.57,3.93,3.32,5.66,5.23c0.71,0.8,1.25,1.74,1.58,2.76c0.15,0.52,0.24,1.05,0.27,1.58
					c0.08,2.11-1.14,3.17-4.67,1.24c-3.37-1.71-5.79-4.85-6.57-8.55l-10.17-2.53c1.96,7.45,6.5,13.96,12.82,18.38l0.27,7.03
					l8.49,4.75l-0.27-7.03c3.53,1.39,6.42,1.58,8.35,0.33l0,0c1.95-1.27,2.96-3.9,2.8-8.06c-0.35-9.25-5.88-15.29-11.74-20.34
					c-5.47-4.75-10.28-7.59-10.46-12.09c-0.1-2.8,1.73-3.04,4.51-1.58c3.58,2.05,6.05,5.59,6.75,9.65l10.71,2.76
					c-0.3-1.48-0.71-2.93-1.22-4.34c-0.88-2.39-2.07-4.66-3.53-6.75c-2.39-3.36-5.34-6.29-8.71-8.65l-0.25-7.03l-8.41-4.86
					L900.2,174.21z"/>
				<path class="st4" d="M922.49,225.59c-0.22-3.38-1.17-6.66-2.79-9.63c-1.65-2.95-3.75-5.62-6.23-7.92
					c-2.41-2.38-5.09-4.45-7.67-6.64c-1.31-1.09-2.53-2.3-3.64-3.6c-1.11-1.31-1.77-2.94-1.87-4.66c0.18,1.69,0.9,3.27,2.06,4.51
					c1.13,1.25,2.37,2.4,3.69,3.44c2.63,2.12,5.32,4.21,7.76,6.59c2.5,2.33,4.6,5.06,6.23,8.06c0.79,1.51,1.4,3.1,1.82,4.75
					C922.23,222.17,922.44,223.87,922.49,225.59z"/>
				<polygon class="st0" points="908.55,177.28 915.34,173.36 915.6,180.39 908.8,184.32 				"/>
				<polygon class="st24" points="908.55,177.28 915.34,173.36 915.6,180.39 908.8,184.32 				"/>
				<polygon class="st8" points="900.13,172.42 907.77,177.68 908.8,184.32 908.55,177.28 				"/>
				<polygon class="st8" points="902.8,228.64 903.76,235.23 911.56,240.38 903.06,235.68 				"/>
				<path class="st17" d="M889.96,210.27c0.34,1.29,0.75,2.55,1.25,3.79l2.79-2.77L889.96,210.27z"/>
				<path class="st17" d="M922.45,225.28c-0.16-3.72-1.25-7.34-3.17-10.53l-16.35,16.35l0.17,4.58l5.8,3.17l2.53-2.53l-0.11-2.99
					c0.77,0.3,1.55,0.55,2.34,0.76L922.45,225.28z"/>
				<path class="st17" d="M888.71,188.82c0.21,2.13,0.74,4.22,1.58,6.19l17.93-17.92l-4.96-2.85l-2.99,2.98l0.1,2.42
					c-0.52-0.34-1.08-0.63-1.66-0.86L888.71,188.82z"/>
				<path class="st17" d="M892.59,199.18l0.57,0.81c0.16,0.24,0.33,0.48,0.52,0.7c0,0.1,0.14,0.21,0.22,0.29
					c0.12,0.18,0.26,0.35,0.41,0.51c1.17,1.42,2.43,2.76,3.77,4.02c0.3,0.29,0.6,0.54,0.9,0.81l5.91-5.92
					c-2.66-2.33-4.5-4.48-4.61-7.22s1.73-3.04,4.51-1.58c1.85,1.03,3.41,2.5,4.56,4.28l5.85-5.85c-1.91-2.16-4.06-4.1-6.42-5.77
					l-0.1-2.66l-16.67,16.68l0.49,0.74L892.59,199.18z"/>
			</g>
			<polygon class="st4" points="930.58,165.93 931.37,155.45 932.18,165.93 942.65,166.72 932.18,167.53 931.37,178 930.58,167.53 
				920.11,166.72 			"/>
			<polygon class="st4" points="938.8,174.51 939.18,169.44 939.58,174.51 944.65,174.91 939.58,175.29 939.18,180.37 938.8,175.29 
				933.72,174.91 			"/>
		</g>
	</g>
</g>
<g id="freepik--Character--inject-114">
	<g id="freepik--Shadow--inject-114">
		<path class="st14" d="M595.58,533.89c-17.16,4.99-32.6-5.75-41.76-14c-9.16-8.25-26.47-13.92-26.47-13.92l38.18-22.05
			c0,0,15.19,17.68,27.99,23.45C606.32,513.13,623.1,525.89,595.58,533.89z"/>
		<path class="st14" d="M507.72,581.25l-66.84-8.62V539.2c0,0-17.89-6.5-27.75-17.95c-7.92-9.19-0.38-25.74,23.51-28.51l42.28,24.44
			v14.35l28.8,2.38V581.25z"/>
	</g>
	<g id="freepik--character--inject-114">
		<g id="freepik--Bottom--inject-114">
			<path class="st25" d="M563.63,246.51l-50.9,4.66c0,0-3.33,16.7-4.37,29.34c-1.05,12.64,6.59,24.78,6.59,24.78l3.88,21.37
				c-23.84,7.54-34.15,19.82-45.35,33.27c-8.14,9.84-9.77,11.74-16.25,18.61c-4.75,4.75-7.92,7.26-7.92,7.26
				c-6.73,3.37-16.54,12.28-15.75,18.23s5.39,13.15,4.28,20.25c-1.11,7.1-3.47,14.7,0.82,24.68c3.17,7.48,11.68,9.85,17.71,9.66
				c15.56-0.49,9.43-10.57,7.57-16.76c-2.44-8.11-3.42-10.04-2.12-23.65c0.92-9.73,2.23-14.38,7.92-17.93l0,0
				c13.75-8.48,44.85-27.56,61.88-37.54c16.93-8.76,19.64-9.24,24.73-25.82C566.92,302.72,565.75,259.22,563.63,246.51z"/>
			<path class="st26" d="M514.06,305.98c0,0-7-10.82-7.08-20.9c-0.08-10.08,4.21-33.92,4.21-33.92l55.54-4.75
				c4.93,20.18,1.38,42.28-0.46,57.03c-2.69,19.82-7.92,36.56-12.23,43.58s-5.05,7.92-24.24,18.06
				c-19.18,10.14-48.27,28.61-48.27,28.61s-5.53,0.92-11.82-7.78c-4.42-6.1-5.88-15.3-5.88-15.3c1.43-1.89,4.63-5.69,7.67-9.5
				c4.86-6.16,17.14-18.77,24.21-23.95c6.75-4.67,14.1-8.4,21.85-11.09L514.06,305.98z"/>
			<path class="st26" d="M432.22,400.71c-2.49,3.87-1.82,5.64-1.44,8.35c0.38,2.71,4.55,10.69,4.02,14.07
				c-0.52,3.37-3.3,16.03-0.71,23.11s5.48,12.28,14.26,15.07c8.78,2.79,17.25-1.44,19.1-5.81L432.22,400.71z"/>
			<path class="st27" d="M449.57,406.67c2.41-4.34,5.78-6.34,10.01-5.83c4.23,0.51,7.35,0.65,9.5-0.27
				c2.15-0.92-0.51,2.57-3.09,8.05c-2.58,5.48-3.82,17.93-3.61,23.52c0.21,5.59,4.67,11.83,4.59,15.14c-0.23,2.44-1,4.81-2.25,6.92
				c0,0-19.49,6.18-26.12-3.9c-2.65-4.25-3.77-9.28-3.17-14.26c0.65-7.37,2.14-12.91,1.27-18.01c-0.71-4.12-5.72-11.9-4.63-17.3
				c2.14-5.28,4.26-7,8.25-10.44c3.99-3.44,7.71-4.75,8.82-4.42c-0.25,0.48-1.11,1.58-1.7,2.57c-0.35,2.61-0.15,5.26,0.6,7.78
				c1.27,3.64,0.78,3.26,0.24,6.7C447.76,406.37,447.35,410.79,449.57,406.67z"/>
			<path class="st6" d="M438.7,450.31c2.46-5.28,10.27-10.14,19.15-11.09c5.97-0.62,7,0.93,8.38,3.17c1.95,3.17,3.45,9.5,1.49,12.67
				c-2.84,4.26-11.09,5.91-18.12,3.6C445.27,457.27,440.63,454.5,438.7,450.31z"/>
			<path class="st8" d="M461.61,430.35c-1.44-0.56-2.98-0.82-4.53-0.78c-3.38-0.2-6.73,0.74-9.5,2.68c-0.11,0.08-0.35,0.55,0,0.48
				c2.8-1,5.77-1.49,8.74-1.44c1.45-0.01,2.9,0.19,4.29,0.59c0.63,0.24,1.22,0.6,1.71,1.06c0.3,0.27,0.6,0.81,1.05,0.81
				c0.13,0,0.24-0.16,0.29-0.29C463.85,432.06,462.97,430.72,461.61,430.35z"/>
			<path class="st8" d="M461.96,424.4c-1.43-0.52-2.95-0.75-4.47-0.68c-3.37-0.14-6.68,0.86-9.41,2.84c-0.11,0.1-0.33,0.55,0,0.48
				c2.76-1.04,5.68-1.58,8.63-1.58c1.43-0.04,2.86,0.13,4.25,0.51c0.63,0.22,1.22,0.56,1.71,1.01c0.3,0.27,0.6,0.81,1.05,0.79
				c0.13,0,0.24-0.16,0.27-0.29C464.21,426.07,463.33,424.73,461.96,424.4z"/>
			<path class="st8" d="M462.24,418.43c-1.43-0.51-2.94-0.72-4.45-0.62c-3.34-0.08-6.61,0.97-9.28,2.98c-0.13,0.1-0.33,0.55,0,0.46
				c2.72-1.07,5.61-1.66,8.54-1.73c1.42-0.05,2.84,0.1,4.21,0.44c0.63,0.21,1.21,0.54,1.71,0.98c0.29,0.25,0.59,0.79,1.03,0.76
				c0.13,0,0.24-0.16,0.27-0.29C464.47,420.05,463.59,418.75,462.24,418.43z"/>
			<path class="st8" d="M462.64,412.45c-1.42-0.48-2.91-0.66-4.4-0.54c-3.33-0.01-6.57,1.11-9.19,3.17c-0.11,0.1-0.32,0.55,0,0.46
				c2.68-1.12,5.54-1.75,8.44-1.87c1.4-0.08,2.8,0.04,4.17,0.36c0.62,0.2,1.2,0.52,1.7,0.95c0.29,0.24,0.6,0.78,1.03,0.74
				c0.11,0,0.22-0.17,0.25-0.3C464.85,414.07,463.98,412.77,462.64,412.45z"/>
			<path class="st25" d="M549.07,378.31c0,0-22.18-23.32-38.13-40.3c-6.95-7.45-16.98-19.33-22.54-31.1
				c-6.16-13.02-5.86-27.96-3.79-38.29c1.64-7.72,4.62-15.1,8.81-21.8l70.16-0.32c-1.74,7.87-4.12,15.58-7.13,23.05
				c-4.37,10.12-14.1,16.48-14.1,16.48c15.67,27.34,42.85,64.19,44.66,76.97c0.84,5.94,1.09,17.84,0.68,31.68
				c-1.09,31.68-0.48,64.95-0.21,72.03c0.27,6.76,1.95,13.73,5.2,22.94c2.2,6.34,6.09,11.95,11.25,16.24
				c4.96,4.15,12.67,8.05,7.73,13.51c-4.07,4.44-16.48,5.92-24.3,3.71c-10.44-2.98-12.67-10.99-15.4-17.87
				c-2.72-6.88-5.81-10.42-11.09-13.64c-5.28-3.22-5.31-9.73-1.73-15.6s4.1-6.46,3.45-13.21c-1.47-15.22-8.86-38.99-11.41-50.27
				C545.74,388.12,549.07,378.31,549.07,378.31z"/>
			<path class="st27" d="M498.44,325.32c-5.26-7.07-10.98-13.91-14.61-25.11c-3.53-10.36-4.16-21.5-1.81-32.19
				c2.07-8.24,5.94-15.91,11.34-22.46l70.21,0.95c3.93,24.98-17.24,41.06-17.24,41.06l9.24,15.1c10.14,15.46,26.53,44.25,30.1,52.69
				c3.56,8.44,3.53,9.06,2.98,30.35c-0.55,21.29-1.39,67.04-1.39,67.04s-2.82,3.91-13.99,4.06s-12.67-3.55-12.67-3.55
				s-4.01-17.03-5.72-23.76c-3.26-12.86-10.27-34.85-6.69-50.69C548.18,378.69,503.71,332.39,498.44,325.32z"/>
			<path class="st26" d="M547.12,308.29c7.13,8.74,13.45,18.12,18.88,28.01c2.79,4.89,5.43,9.89,7.92,15
				c1.2,2.56,2.34,5.15,3.42,7.79c0.51,1.36,1.05,2.66,1.44,4.12c0.23,0.72,0.41,1.45,0.55,2.19c0.11,0.71,0.24,1.44,0.33,2.15
				c1.36,11.3,1.84,22.5,2.27,33.74c0.43,11.25,0.54,22.48,0.4,33.73c-1.06-11.21-2-22.41-2.84-33.6l-1.31-16.78
				c-0.51-5.58-0.89-11.18-1.66-16.65c0-0.7-0.21-1.35-0.32-2.01c-0.12-0.64-0.28-1.28-0.48-1.9c-0.33-1.27-0.86-2.57-1.31-3.85
				c-1-2.57-2.11-5.12-3.28-7.65c-2.27-5.09-4.75-10.09-7.3-15.08s-5.2-9.93-7.92-14.81C553.19,317.82,550.19,313,547.12,308.29z"/>
			<path class="st26" d="M556.39,488.26c-0.46,4.07-0.35,4.18,1.58,6.34c1.93,2.15,8.24,4.91,9.5,7.92
				c1.27,3.01,4.36,14.91,10.9,19.88s12.88,6.69,23.45,5.97s13.26-5.77,12.78-10L556.39,488.26z"/>
			<path class="st27" d="M576.03,483.6c0.11-4.42-0.65-6.53,3.99-7.62s7.92-2,9.79-3.53c1.87-1.54,0.89,2.3,1.19,7.71
				c0.3,5.42,5.89,16.14,9.06,20.67s11.31,8.19,13.04,10.93c1.07,2,1.57,4.25,1.44,6.51c0,0-3.58,7.6-17.71,7
				s-19.2-5.64-22.54-11.94c-3.34-6.3-4.32-13.35-8.03-16.05c-3.71-2.69-8.08-6.15-9.92-9.03c-0.76-4.43,0.03-8.99,2.25-12.9
				c2.27-4.23,2.9-8.21,4.25-8.27c0,0.48-0.1,1.5-0.17,2.52c0.5,2.44,1.85,4.62,3.82,6.15c3.3,2.57,4.66,2.91,5.96,5.94
				C573.73,484.72,575.95,487.76,576.03,483.6z"/>
			<path class="st6" d="M582.15,521.78c-0.33-5.21,6.62-12.02,15.84-15.05c5.13-1.84,10.87-0.38,14.51,3.68
				c1.95,1.96,2.34,4.59,2.03,7.92C613.61,525.53,593.42,529.09,582.15,521.78z"/>
			<path class="st8" d="M598.22,499.76c-1.75,0.02-3.48,0.33-5.13,0.9c-3.34,0.82-6.3,2.76-8.4,5.5c-0.08,0.11,0,0.59,0.17,0.43
				c2.5-1.86,5.29-3.29,8.27-4.21c1.54-0.51,3.14-0.84,4.75-0.98c0.8-0.02,1.59,0.07,2.36,0.27c0.44,0.13,1.06,0.48,1.58,0.32
				c0.11-0.07,0.17-0.21,0.13-0.33C601.5,500.1,599.54,499.76,598.22,499.76z"/>
			<path class="st8" d="M595.31,494.62c-1.72,0.04-3.42,0.37-5.04,0.97c-3.3,0.86-6.2,2.83-8.22,5.58c0,0.13,0,0.59,0.17,0.43
				c2.43-1.89,5.18-3.35,8.11-4.29c1.54-0.54,3.13-0.89,4.75-1.05c0.78-0.03,1.57,0.06,2.33,0.25c0.44,0.11,1.06,0.46,1.5,0.29
				c0.12-0.06,0.17-0.19,0.13-0.32C598.56,495,596.61,494.64,595.31,494.62z"/>
			<path class="st8" d="M592.43,489.57c-1.7,0.06-3.37,0.41-4.96,1.03c-3.25,0.9-6.08,2.9-8.02,5.66c-0.08,0.13,0,0.59,0.17,0.43
				c2.37-1.9,5.05-3.39,7.92-4.39c1.49-0.55,3.03-0.91,4.61-1.08c0.77-0.05,1.55,0.03,2.3,0.22c0.44,0.11,1.06,0.44,1.5,0.27
				c0.11-0.07,0.15-0.21,0.11-0.33C595.61,489.93,593.73,489.57,592.43,489.57z"/>
			<path class="st8" d="M589.51,484.52c-1.67,0.08-3.32,0.44-4.86,1.08c-3.2,0.95-5.96,2.99-7.81,5.77c-0.08,0.11,0,0.57,0.17,0.41
				c2.3-1.93,4.92-3.44,7.75-4.47c1.46-0.56,2.98-0.94,4.53-1.14c0.76-0.05,1.53,0.02,2.27,0.21c0.43,0.1,1.03,0.43,1.47,0.25
				c0.11-0.07,0.15-0.21,0.11-0.33C592.66,484.85,590.76,484.5,589.51,484.52z"/>
		</g>
		<g id="freepik--Top--inject-114">
			<path class="st25" d="M560.81,155.09c7.48,3.39,15.84,7.56,23.43,18.68c5.7,8.3,31.95,47.83,35.75,54.83
				c0,0-15.84,20.01-16.33,19.71c-5.62-3.88-46.99-51.36-46.99-51.36L560.81,155.09z"/>
			<path class="st25" d="M603.91,215.67c9.25-14.26,17.95-21.42,23.76-32.57c1.3-2.49,0.48-4.47,0-7.33
				c-0.33-3.44-0.47-6.9-0.41-10.36c-0.03-3.18-0.24-6.35-0.63-9.5c-0.03-0.22-0.03-0.43,0-0.65c0.17-1.01,1.58-1.25,2.5-0.9
				c1.84,0.84,3.21,2.45,3.77,4.39c0.57,2.04,1.26,4.04,2.04,6c1.58-0.27,3.44-8.81,4.12-13.34c0.35-2.32,0.49-4.66,0.44-7
				c-0.29-2.64-0.17-5.32,0.36-7.92c0.36-1.09,1.25-1.91,2.36-2.19c0.21-0.07,0.43-0.07,0.63,0c0.36,0.1,0.54,0.52,0.65,0.89
				c0.71,2.2,0.43,1.58,1.14,3.87c0.09,0.31,0.22,0.61,0.4,0.89c0.34,0.36,0.74,0.66,1.19,0.89c1.8,1.1,3.05,2.91,3.44,4.97
				c0.06,0.74,0.22,1.47,0.48,2.17c0.37,0.66,0.86,1.24,1.46,1.7c1.35,0.96,2.36,2.31,2.88,3.88c0.22,1.05,0,2.15,0.24,3.17
				c0.32,0.99,0.73,1.94,1.22,2.85c1.04,2.82,1.04,5.92,0,8.74c-1.43,4.28-3.16,8.45-5.2,12.48c-1.87,3.11-3.55,6.33-5.04,9.63
				c-0.89,2.06-1.92,3.98-2.82,6.02c-3.58,8.13-5.97,12.67-9.58,20.8c-4.36,9.77-6.45,13.67-8.36,17.33
				c-2.28,4.37-7.05,11.37-15.59,14.02S592.38,233.46,603.91,215.67z"/>
			<path class="st6" d="M612.96,203.06l5.37-7.27c1.32,4.62,4.03,8.72,7.76,11.74c6.34,5.09,10.49,4.75,10.49,4.75l-4.37,8.93
				C632.21,221.21,615.46,216.38,612.96,203.06z"/>
			<path class="st27" d="M562.04,155.68c10.33,4.13,14.91,6.34,24.59,20.32c9.68,13.99,21.61,31.81,21.61,31.81l6.51-8.48
				c0,0-1.11,4.75,6.95,12.53c8.06,7.78,13.01,6.34,13.01,6.34s-7.45,15.38-10.98,20.8c-5.29,8.1-11.09,11.47-16.05,11.44
				c-4.96-0.03-7.35-2.93-16.33-12.07c-8.98-9.14-31.07-35.3-31.07-35.3L562.04,155.68z"/>
			<path class="st26" d="M608.28,207.81c-9.41,12.86-10.39,20.88-10.39,20.88s-1.92-9.5,8.65-23.48L608.28,207.81z"/>
			<path class="st26" d="M578.72,197.18c1.28,6.13,1.93,12.37,1.95,18.63c0.47,13.43,0.17,26.87-0.9,40.27
				c-11.39-17.08-41.35-22.75-60.5-21.21c-19.15,1.54-27.91,37.16-27.91,37.16s-6.91-15.33,1.98-35.85
				c5.44-12.65,9.41-25.89,11.83-39.45L578.72,197.18z"/>
			<path class="st5" d="M542.7,150.08l3.33,0.44c0,0,21.48,12.91,30.53,30.86c9.05,17.95-9.01,30.32-9.01,30.32
				s-0.98,20.67-0.68,24.97c0.3,4.29,3.56,10.88,1.11,15.84c-2.99,6-13.53,13.61-40.13,11.37c-19.94-1.68-36.23-8.97-38.42-12.85
				c-2.19-3.88,1.24-8.03,3.3-13.28c2.2-5.62,2.87-10.31,1.44-18.12c-1.43-7.81-3.69-21.1-5.24-33.6
				c-1.3-10.58-2.82-28.74,21.92-33.5C523.26,150.15,542.7,150.08,542.7,150.08z"/>
			<path class="st26" d="M563.34,132.23c-1.58-7.92,0.79-18.06,1.73-21.59c5.05-6,7.16-12.26,7.1-15.73
				c-0.41-25.77-33.06-29.59-51.68-19.55c-6.09,3.01-10.34,8.8-11.41,15.51c-3.17,0.1-8.67,4.07-12.25,8.9
				c-5.11,6.86-7.82,15.21-7.73,23.76c0.22,6.88,3.3,12.13,6.08,13.31c-2.88-11.09,4.21-15.84,4.21-15.84
				c-2.45,6.72-1.71,14.19,2,20.31c12.28,19.49,55.45,19.83,71.02-2.36C568.71,138.31,564.1,136.08,563.34,132.23z"/>
			<path class="st25" d="M562.26,91.04c0,0,4.28,4.88,3.17,18.31c-0.19,2.31,1.28,6.53,1.06,12.47
				c-0.51,13.48-5.01,19.99-11.83,22.29c-3.64,0.83-7.41,0.93-11.09,0.29l-1.14,11.87c5.85,11.09,8.7,18.9,8.59,28.83
				c-10.38-11.27-21.95-21.39-34.49-30.19l1.38-23.6c0,0-3.91,2.91-8.41-1.81c-4.94-5.18-4.45-13.12-0.21-15.84
				c6.23-3.93,10.22,0.89,11.5,3.8c1.28,2.91,4.85,3.49,5.39-3.17c0.06-1.49-0.13-2.98-0.54-4.42c5.67-2.68,8.97-8.49,6.21-17.11
				C542.35,97.57,555.71,97.13,562.26,91.04z"/>
			<path class="st28" d="M542.1,127.18l8.3,2.27c-0.51,2.28-2.77,3.71-5.05,3.2c-0.05-0.01-0.1-0.02-0.14-0.03
				C542.87,131.93,541.5,129.53,542.1,127.18z"/>
			<path class="st26" d="M543.44,106.38l-6.48-0.67c0.12-1.75,1.62-3.07,3.37-2.95c0.03,0,0.06,0,0.08,0.01
				C542.23,102.97,543.56,104.56,543.44,106.38z"/>
			<path class="st26" d="M555.61,106.76l6.34-1.3c-0.29-1.73-1.93-2.89-3.65-2.59c-0.02,0-0.05,0.01-0.07,0.01
				C556.46,103.27,555.31,104.97,555.61,106.76z"/>
			<polygon class="st29" points="549.48,109.07 549.97,123.77 558.51,121.25 			"/>
			<path class="st29" d="M543.52,144.37c-3.75-0.63-13.07-3.47-17.58-6.64c-2.22-1.89-3.91-4.32-4.91-7.07c0,0,0.43,6.65,3.99,9.68
				c5.64,4.75,18.12,8.05,18.12,8.05L543.52,144.37z"/>
			<path class="st26" d="M556.48,112.05c0.11,1.37,1.27,2.41,2.65,2.38c1.33-0.03,2.38-1.14,2.35-2.47c0-0.03,0-0.06,0-0.08
				c-0.11-1.35-1.25-2.38-2.6-2.36c-1.31-0.01-2.39,1.04-2.4,2.36C556.48,111.93,556.48,111.99,556.48,112.05z"/>
			<path class="st26" d="M537.66,112.51c-0.11,1.35,0.86,2.55,2.2,2.74c1.32,0.16,2.52-0.77,2.68-2.09c0-0.03,0.01-0.05,0.01-0.08
				c0.1-1.37-0.9-2.58-2.27-2.74c-1.31-0.14-2.49,0.82-2.63,2.13C537.66,112.48,537.66,112.5,537.66,112.51z"/>
			<path class="st30" d="M542.18,129.57c0.33-0.03,0.67-0.03,1,0c1.88,0.22,3.54,1.3,4.5,2.93c-0.79,0.29-1.66,0.33-2.47,0.1
				C543.73,132.19,542.58,131.04,542.18,129.57z"/>
			<path class="st31" d="M516.83,149.18c0,6.67,4.36,26.93,6.24,42.77s-2.31,56.03-31.76,80.11c-8.78-5.96-20.18-16.6-23.76-27.49
				c12.01-5.18,22.18-14.56,23.9-20.91c1.73-6.35-4.51-25.55-4.75-35.47c-0.24-9.92,16.19-34.85,16.19-34.85L516.83,149.18z"/>
			<path class="st27" d="M517.1,144.49c-2.73,2.74-5.74,5.2-8.98,7.32c0,0-2.41,15.1-3.63,20.29s12.58,14.1,12.58,14.1
				c-0.88,3.53-2.1,6.97-3.63,10.27c-1.87,3.37,8.13,20.45,6.11,30.27c7.4-17.89,5.07-31.16,3.41-43.58
				C521.3,170.74,516.64,152.46,517.1,144.49z"/>
			<path class="st26" d="M580.67,215.81c-0.68-13.87-4.91-27.32-12.29-39.08c-12.34-19.26-25.46-26.42-25.46-26.42l0.46-4.64
				c0,0,11.17,5.4,17.92,9.27c6.75,3.87,10.76,18.33,10.76,18.33c1.71,1.27,6.5,4.86,7.32,6.34
				C581.88,183.81,581.32,193.81,580.67,215.81z"/>
			<path class="st25" d="M460.77,277.44c-2.11-4.01-3.63-6.94-3.63-8.36c0.17-2.31,4.26,3.17,5.99,4.13
				c1.35,0.95,3.01,1.34,4.64,1.08c1.05-0.1,2.61-1.31,2.39-2.36c0-0.22-0.22-0.33-0.38-0.49c-2.27-2.51-4.32-5.22-6.11-8.1
				c-1.56-2.4-3.44-4.59-5.58-6.5c-2.79-2.53-4.67-5.9-5.35-9.6c-1.6-12.74-2.31-25.57-2.14-38.4c13.2-5.58,33.71-13.34,38.76-15.52
				c3.06-1.39,5.88-3.26,8.36-5.53c3.03-3.33,5.04-8.36,6.64-14.84c1.25-5.07,0-14.4-2.39-18.34c-7.51,1.38-14.83,3.6-21.85,6.62
				c-8.32,3.28-16.48,6.99-24.43,11.09c-9.01,4.86-17.67,10.33-25.93,16.36c-2.99,2.23-6.64,4.59-5.73,12.67
				c0.76,7.68,1.94,15.31,3.53,22.86c1.24,6,2.15,8.62,4.29,18.39c0.41,1.87,1.01,4.85,1.68,8.35s1.16,8.4,1.58,11.94
				c0.32,3.66,0.95,7.29,1.9,10.84c0.92,3.17,4.25,10.52,6.64,12.53c0.84,0.71,1.81,0.82,2.6,1.58c0.79,0.76,1.22,1.66,2.08,2.31
				c1.31,1,2.33,0.62,4.18,0.3c0.72-0.16,1.48-0.08,2.15,0.21c0.6,0.4,1.16,0.86,1.68,1.36c1.95,1.41,4.54,1.59,6.67,0.46
				c1.9,1.27,2.82,1.9,4.75,3.17c0.29,0.21,0.64,0.31,1,0.29c0.23-0.05,0.41-0.21,0.49-0.43c0.58-0.91,0.77-2.01,0.52-3.06
				c-0.45-1.93-1.42-3.7-2.79-5.13C464.75,284.14,462.67,280.84,460.77,277.44z"/>
			<path class="st6" d="M428.48,230.99l1.73,7.92c0,0,3.37,2.33,11.39,0.84c8.02-1.49,10.27-3.79,10.27-3.79v-8.6L428.48,230.99z"/>
			<path class="st27" d="M427.83,233.3c4.1,2.65,21.64,0.76,24.48-2.85l0.22-21.12c0,0,35.52-12.29,41.19-15.98
				s8.93-6.15,12.26-19.47c2.46-9.79-0.49-18.46-2.15-20.75c-7.4,1.2-10.96,1.58-26.49,7.92s-37.94,19.01-46.24,25.2
				c-8.3,6.19-8.81,8.19-8.03,14.65C423.84,207.37,427.83,233.3,427.83,233.3z"/>
		</g>
	</g>
</g>
<g>
	<g>
		<g id="freepik--speech-bubble--inject-114">
			<path class="st0" d="M478.08,115.66c-5.96,1.77-11.2,0.4-13.31-1.84c1.73-24.54-4.66-40.55-19.01-47.52
				c-11.93-5.98-26.15-5.13-37.28,2.25c-10.33,6.76-16.35,19.2-16.98,35.01c-0.71,18.03,4.02,30.62,14.94,39.6
				c6.43,5.23,14.49,8.04,22.78,7.92c5.4,0.01,10.74-1.07,15.71-3.17c13.28-5.77,16.43-15.6,17.73-20.32h0.21
				c7.23,0.31,13.79-4.22,16.08-11.09l0.46-1.39L478.08,115.66z M462.24,126.12h-0.62l-0.16,0.6c-1.25,4.59-3.83,14.26-17,19.9
				c-9.5,4.12-24.84,5.39-36.91-4.59c-10.65-8.7-15.21-20.88-14.51-38.42c0.6-15.29,6.34-27.3,16.29-33.77
				c10.65-7.07,24.27-7.92,35.72-2.23c13.75,6.78,19.83,22.4,18.09,46.43v0.32l0.21,0.24c2.49,3.01,8.06,4.17,13.64,2.93
				c-2.53,5.67-7.97,8.87-14.88,8.6H462.24z"/>
			<path class="st4" d="M476.96,117.51c-2.5,5.67-7.92,8.87-14.84,8.6h-0.62l-0.16,0.6c-1.25,4.59-3.83,14.26-17,19.9
				c-9.5,4.12-24.84,5.39-36.91-4.59c-10.52-8.7-15.08-20.88-14.38-38.42c0.6-15.29,6.34-27.3,16.29-33.77
				c10.65-7.07,24.27-7.92,35.72-2.23c13.75,6.78,19.83,22.4,18.09,46.43v0.32l0.21,0.24C465.8,117.59,471.38,118.75,476.96,117.51z
				"/>
		</g>
		<path class="st31" d="M425.93,115.53h4.75c0.8,0.01,1.47-0.58,1.58-1.36l1.89-27.09c0.02-0.73-0.56-1.35-1.29-1.37
			c-0.05,0-0.1,0-0.15,0h-8.86c-0.72-0.08-1.37,0.44-1.45,1.16c0,0.04-0.01,0.08-0.01,0.12l1.92,27.25
			C424.46,115.02,425.15,115.56,425.93,115.53z M428.28,119.1c-2.62,0-4.75,2.13-4.75,4.75c0,2.62,2.13,4.75,4.75,4.75
			c2.62,0,4.75-2.13,4.75-4.75C433.03,121.23,430.9,119.1,428.28,119.1C428.28,119.1,428.28,119.1,428.28,119.1z"/>
	</g>
</g>
</svg>
