<?xml version="1.0" encoding="utf-8"?>
<!-- Generator: Adobe Illustrator 23.1.0, SVG Export Plug-In . SVG Version: 6.00 Build 0)  -->
<svg version="1.1" id="Layer_1" xmlns="http://www.w3.org/2000/svg" xmlns:xlink="http://www.w3.org/1999/xlink" x="0px" y="0px"
	 viewBox="0 0 1366 768" style="enable-background:new 0 0 1366 768;" xml:space="preserve">
<style type="text/css">
	.st0{opacity:0.7;fill:#FFFFFF;enable-background:new    ;}
	.st1{fill:#FFC100;}
	.st2{fill:none;stroke:#263238;stroke-linecap:round;stroke-linejoin:round;}
	.st3{fill:#FFFFFF;}
	.st4{clip-path:url(#SVGID_2_);}
	.st5{opacity:0.4;fill:#FFC100;enable-background:new    ;}
	.st6{clip-path:url(#SVGID_4_);}
	.st7{clip-path:url(#SVGID_6_);}
	.st8{fill:#FFFFFF;stroke:#263238;stroke-linecap:round;stroke-linejoin:round;}
	.st9{opacity:0.6;fill:#FFC100;enable-background:new    ;}
	.st10{fill:#999999;stroke:#263238;stroke-linecap:round;stroke-linejoin:round;}
	.st11{fill:#263238;}
	.st12{fill:#BFBFBF;stroke:#263238;stroke-miterlimit:10;}
	.st13{opacity:0.15;fill:#FFC100;enable-background:new    ;}
	.st14{opacity:0.3;fill:#FFC100;enable-background:new    ;}
	.st15{opacity:0.5;fill:#FFC100;enable-background:new    ;}
	.st16{opacity:0.7;}
	.st17{fill:none;stroke:#263238;stroke-miterlimit:10;}
	.st18{fill:none;}
</style>
<g id="freepik--background-simple--inject-71">
	<path class="st0" d="M378.11,240.18c0,0-46.71,120.64,18.93,242.11S597.9,667.93,706.12,722.8
		c108.22,54.87,220.6,28.15,273.99-61.73c53.4-89.87-19.84-154.03-19.94-282.19s19.18-162.09-50.26-270.36
		S670.22-23.72,541.47,56.59S378.11,240.18,378.11,240.18z"/>
	<path class="st1" d="M655.14,35.61C862.9,17.18,863.3,134.37,956.95,243.59s113.68,158.77,78.38,284.62
		c-35.3,125.85-154.26,224.7-301.41,168.77s-231.45-2.23-324.28-51.94c-92.82-49.71-127.34-145.62-59.35-258.71
		S398.87,58.43,655.14,35.61z"/>
	<path class="st0" d="M655.14,35.61C862.9,17.18,863.3,134.37,956.95,243.59s113.68,158.77,78.38,284.62
		c-35.3,125.85-154.26,224.7-301.41,168.77s-231.45-2.23-324.28-51.94c-92.82-49.71-127.34-145.62-59.35-258.71
		S398.87,58.43,655.14,35.61z"/>
</g>
<g id="freepik--World--inject-71">
	<path class="st2" d="M776.66,275.75c-2.3,4.35-4.89,8.54-7.76,12.53c-30.78,42.8-88.42,56.32-135.03,31.68
		c-2.33-1.24-4.6-2.55-6.79-3.92c-2.19-1.37-4.31-2.8-6.35-4.27c-2.48-1.81-4.86-3.71-7.14-5.7l0,0c-0.14-0.12-0.28-0.25-0.4-0.39
		l0,0c-43.71-38.68-47.79-105.48-9.1-149.19c38.68-43.71,105.48-47.79,149.19-9.1c36.48,32.29,46.17,85.32,23.46,128.42
		L776.66,275.75z"/>
	<path class="st2" d="M777,177.9c-1.12,1.01-2.97,1.31-5.88,0.4c-10.47-3.23-15.92,8.53-14.07,8.66c1.84,0.13,3.12,5.43-0.65,7.98
		c-3.77,2.55-12.55,1.68-11.98,4.31c0.57,2.63,4.89,9.16,4.89,9.16s3.85-1.81,5.03,0.45c1.17,2.26,2.33,8.38-0.5,9.48
		c-1.64,0.7-2.56,2.44-2.21,4.19l-8.46-0.5l-1.34,6.27l-5.21,4.37l-2.78-1.47c0,0-2.46-6.38-4.81-2.55l-2.35,3.85l-1.51,3.45
		c0,0,6.08,1.36,7.61,4l1.51,2.65l13.2,3.72l1.04,3.75l2.43,1.29l0.62,6.6l4.94,2.58l4.93,0.4l6.02-8.38
		c1.21,2.35,2.27,4.78,3.17,7.27c0.6,2.16-1.11,7.54-1.11,7.54c-0.99,2.01-2.46,3.73-4.29,5.03c-2.4,1.24-5.33-2.06-5.11,1.98
		l0.2,4.02l-0.62,4.47l3.72,1.96l3.5,1.84l2.04,1.68"/>
	<path class="st2" d="M578.64,242.05l1.47,0.28l6.7-7.41l6.03-2.45l4.32,2.28c1.79,0.94,3.59-3.55,3.59-3.55l-1.16-1.06
		c-1.16-1.06,0.54-7.27,0.54-7.27c3.33,0.5,6.69,0.74,10.05,0.7c2.66-0.32,3.92-0.22,5.03-2.46s0.28-2.7,0.28-2.7
		c0.97-2.83,1.62-5.76,1.94-8.73c0-2.9,4.32,2.26,4.32,2.26l2.11-4l4.74-3.75l6.17-4.29c0,0,8.96-2.58,9.67-0.64
		c0.7,1.94,4.31,3.52,4.31,3.52l-1.54,2.93c0,0-1.98,6.1-3.89,7.39c-1.91,1.29,0.77,10.62,0.77,10.62
		c-1.76,1.68-3.32,3.55-4.66,5.58c-1.17,2.25-2.31,2.23-2.31,2.23l-5.85-0.8c0,0-6.7-4.67-8.91-5.85c0,0-3.92,4.21-3.54,6.7
		c0.39,2.5-1.37,2.61-1.37,2.61l6.17,5.61l1.01,3.52l3.69,5.03l-1.19,2.26l-2.25,4.26l0.99,4.64l4,5.38l2.25,4.89l2.45,7.89
		l0.77,4.37l7.2,3.23l3.18-1.68l6.2-3.35l2.93,5.83l1.16,2.93l-5.23,4.61l1.83,3.8l0.6,4.32l-0.52,5.76l-1.06,3.69l4.31,2.26
		l7.64-1.11l-0.27-5.85c2.52-1.49,5.18-2.74,7.94-3.72c3.35-0.92,2.93-0.87,6.94-2.09c4-1.22,2.78-0.9,4.71-1.56s3.8-1.41,3.8-1.41
		l0.15-6.08l3.17-11.02l1.96,1.29c1.94,1.31,4.86-3.35,4.86-3.35l1.37-8.38l-3.87-2.03c-2.3-0.46-4.63-0.74-6.97-0.82l-5.53-2.92
		l-4.61-8.14c-1.51-1.65-2.8-3.48-3.85-5.45l2.13-4.02l2.61-5.03l2.73,1.44l2.51,1.32l2.66,1.41l4.36-2.83l2.43-6.8l3.35-2.98
		c2.19-1.98,3.7,1.68,3.7,1.68l3.59-4.51c3.6-4.49,0.64-2.41-1.21-4.72c-0.86-1.29-2.32-2.06-3.87-2.04l-6.55-7.82l-5.14,1.88
		l-0.72,2.45c-0.74,2.48,0,0-7.56-2.97l-2.5-7.22l1.49-1.68l0.37-6.7c0,0-4.36-2.11-7.64-3.89c-3.28-1.78-4.07-6.33-4.07-6.33
		c-0.05-2.49,0.46-4.96,1.49-7.22l-1.68-4.76l-6.18-12.08l1.06-5.45l3.59-2.26l1.42-7.24l-6.6-6.27l2.6-4.93l1.84-3.5l2.16-4.09
		l1.68-8.29c0,0-0.4-1.52-0.8-3.25"/>
	<path class="st2" d="M613.6,306.07c-0.13-0.16-0.27-0.3-0.44-0.42l0,0l1.81-3.64l-0.74-6.62l-2.46-1.31c0,0,3-2.98,2.81-5.34
		c-0.03-1.42,0.69-2.74,1.89-3.49l-0.8-4.42l-1.34-0.7c-1.34-0.72-0.54-4.42-0.54-4.42l-5.73,1.12l-1.56,6.03l-5.83,1.49
		c-1.59-1.15-2.61-2.94-2.8-4.89c0.12-2.81,1.19-2.25,1.19-2.25h5.34l3.35-6.37l-0.67-3.05l-2.43-1.29"/>
	<path class="st2" d="M604.69,266.45L604.69,266.45c0.27,0.15-1.46-7.62-1.46-7.62s-2.14-5.68-4.49-6.7
		c-2.35-1.02-7.64,2.6-7.64,2.6l-5.91,0.84l-1.34,7.09"/>
	<path class="st2" d="M628.5,311.72l-1.41,4.32c-2.23-1.36-4.35-2.79-6.35-4.27l6.62-6.55l-0.57-7.15c0,0-1.21-2.65,1.12-2.13
		c2,0.52,4.11-0.23,5.33-1.89c1.39-1.54,1.21-2.23,4.76-0.35s3.79,3.15,4.31,4.57c0.52,1.42-6.12,11.61-6.12,11.61l2.35,1.24
		c0,0-1.37,3.18,0.96,3.87L628.5,311.72z"/>
	<path class="st2" d="M707.23,329.38c-12.16,2.85-24.72,3.53-37.11,1.99l1.29-4.66c0,0-1.22-2.03,3.69-1.57s8.65,0.92,8.65,0.92
		l3.9-7.39h6.85l2.25,1.19l1.93,2.81l4.17,4.02C704.35,327.51,705.82,328.41,707.23,329.38z"/>
	<path class="st2" d="M703.81,258.74l4.12-1.31l3.6,3.64c0,0,7.12,0.92,4.36,4.02c-2.76,3.1-8.09,3.07-8.09,3.07l-1.93,3.7
		l-3.35-4.07l-1.68-3.27l1.27-2.4L703.81,258.74z"/>
	<path class="st2" d="M709.74,243.17c-0.84,1.01-1.47,2.19-1.83,3.45l-0.25,1.57l-6.7-3.54l3.64-6.92L709.74,243.17z"/>
	<path class="st2" d="M933.56,97.61c0.01,6.41-5.18,11.62-11.59,11.63c-6.41,0.01-11.62-5.18-11.63-11.59
		c-0.01-6.41,5.18-11.62,11.59-11.63c0.01,0,0.01,0,0.02,0c6.4-0.01,11.6,5.17,11.61,11.58C933.56,97.6,933.56,97.6,933.56,97.61z"
		/>
	<path class="st2" d="M867.96,280.24c-0.01,4.04-3.29,7.31-7.34,7.31c-4.04-0.01-7.31-3.29-7.31-7.34c0.01-4.04,3.28-7.31,7.32-7.31
		c4.04,0,7.32,3.28,7.32,7.32C867.96,280.23,867.96,280.23,867.96,280.24z"/>
	<path class="st2" d="M657.62,48.21c0.01,4.05-3.27,7.35-7.32,7.36c-4.05,0.01-7.35-3.27-7.36-7.32c-0.01-4.05,3.27-7.35,7.32-7.36
		c0.01,0,0.02,0,0.03,0C654.34,40.89,657.62,44.17,657.62,48.21z"/>
	<circle class="st2" cx="1039.16" cy="269.43" r="18.2"/>
	<circle class="st2" cx="413.46" cy="88.73" r="11.21"/>
	<circle class="st2" cx="355.26" cy="315.25" r="19.57"/>
	<circle class="st2" cx="529.01" cy="181.83" r="5.65"/>
	<path class="st2" d="M656.24,97.79c0.45,3.82,0.9,7.66,1.37,11.48"/>
	<path class="st2" d="M651.97,62.19l3.43,28.72"/>
	<path class="st2" d="M798.44,159.12c-3.1,1.39-6.2,2.76-9.33,4.1"/>
	<path class="st2" d="M863.29,126.83c-18.77,9.7-37.46,19.55-56.62,28.48"/>
	<path class="st2" d="M891.17,112.69c-7.02,3.35-13.99,6.97-20.94,10.54"/>
	<path class="st2" d="M903.8,106.64c-1.96,0.9-3.9,1.83-5.85,2.76"/>
	<path class="st2" d="M820.36,245.47c-6.89-0.83-13.78-1.66-20.68-2.5"/>
	<path class="st2" d="M920.45,256.65c-30.68-3.35-61.36-6.76-92.04-10.24"/>
	<path class="st2" d="M1013.24,266.56c-28.29-2.93-56.57-5.94-84.83-9.05"/>
	<path class="st2" d="M831.6,270.18c-12.38-3.85-25.13-6.7-37.2-11.61"/>
	<path class="st2" d="M848.02,276.15c-2.81-1.22-5.67-2.33-8.58-3.35"/>
	<path class="st2" d="M540.75,185l32.45,8.7"/>
	<path class="st2" d="M525.81,148.27c17.39,9.68,34.9,19.22,52.83,27.91"/>
	<path class="st2" d="M446.22,105.55c24.83,12,48.84,25.57,72.92,38.97"/>
	<path class="st2" d="M432.05,98.58c2.04,0.97,4.07,1.96,6.08,2.95"/>
	<path class="st2" d="M561.41,270.97l7.96-1.84"/>
	<path class="st2" d="M435.2,297.86c39.36-8.71,78.75-17.48,118.31-25.13"/>
	<path class="st2" d="M382.8,309.31c15.19-3.25,30.37-6.57,45.54-9.95"/>
</g>
<g id="freepik--Desk--inject-71">
	<line class="st2" x1="295.39" y1="545.97" x2="1066.93" y2="545.97"/>
</g>
<g id="freepik--Coffee--inject-71">
	<path class="st3" d="M348.76,479.52c0,0-23.21-3.35-24.4,10.34c-1.19,13.69,15.08,45.02,38.65,40.6v-7.96
		c0,0-22.92,4.32-29.09-25.13c-3.35-16.29,18.43-7.54,18.43-7.54L348.76,479.52z"/>
	<g>
		<defs>
			<path id="SVGID_1_" d="M348.76,479.52c0,0-23.21-3.35-24.4,10.34c-1.19,13.69,15.08,45.02,38.65,40.6v-7.96
				c0,0-22.92,4.32-29.09-25.13c-3.35-16.29,18.43-7.54,18.43-7.54L348.76,479.52z"/>
		</defs>
		<clipPath id="SVGID_2_">
			<use xlink:href="#SVGID_1_"  style="overflow:visible;"/>
		</clipPath>
		<g class="st4">
			<path class="st5" d="M348.76,479.52c0,0-23.21-3.35-24.4,10.34c-1.19,13.69,15.08,45.02,38.65,40.6v-7.96
				c0,0-22.92,4.32-29.09-25.13c-3.35-16.29,18.43-7.54,18.43-7.54L348.76,479.52z"/>
		</g>
	</g>
	<path class="st2" d="M348.76,479.52c0,0-23.21-3.35-24.4,10.34c-1.19,13.69,15.08,45.02,38.65,40.6v-7.96
		c0,0-22.92,4.32-29.09-25.13c-3.35-16.29,18.43-7.54,18.43-7.54L348.76,479.52z"/>
	<path class="st3" d="M417.87,530.46L417.87,530.46c-6.6,5.4-15.48,8.91-27.44,8.91c-51.94,0-46.01-66.47-46.01-66.47h92.04
		C436.45,472.9,439.94,512.33,417.87,530.46z"/>
	<g>
		<defs>
			<path id="SVGID_3_" d="M417.87,530.46L417.87,530.46c-6.6,5.4-15.48,8.91-27.44,8.91c-51.94,0-46.01-66.47-46.01-66.47h92.04
				C436.45,472.9,439.94,512.33,417.87,530.46z"/>
		</defs>
		<clipPath id="SVGID_4_">
			<use xlink:href="#SVGID_3_"  style="overflow:visible;"/>
		</clipPath>
		<g class="st6">
			<path class="st5" d="M417.87,530.46L417.87,530.46c-6.6,5.4-15.48,8.91-27.44,8.91c-51.94,0-46.01-66.47-46.01-66.47h16.91
				c0,0,1.96,29.22,12.58,43.4C384.53,530.47,417.6,530.46,417.87,530.46z"/>
		</g>
	</g>
	<path class="st2" d="M417.87,530.46L417.87,530.46c-6.6,5.4-15.48,8.91-27.44,8.91c-51.94,0-46.01-66.47-46.01-66.47h92.04
		C436.45,472.9,439.94,512.33,417.87,530.46z"/>
	<polygon class="st3" points="429.03,545.03 346.68,545.03 326.37,537.38 449.35,537.38 	"/>
	<g>
		<defs>
			<polygon id="SVGID_5_" points="429.03,545.03 346.68,545.03 326.37,537.38 449.35,537.38 			"/>
		</defs>
		<clipPath id="SVGID_6_">
			<use xlink:href="#SVGID_5_"  style="overflow:visible;"/>
		</clipPath>
		<g class="st7">
			<polygon class="st5" points="429.03,545.03 346.68,545.03 326.37,537.38 449.35,537.38 			"/>
		</g>
	</g>
	<polygon class="st2" points="429.03,545.03 346.68,545.03 326.37,537.38 449.35,537.38 	"/>
	<path class="st8" d="M320.71,532.62h134.31c0.95,0,1.73,0.77,1.73,1.73v2.71c0,0.95-0.77,1.73-1.73,1.73H320.71
		c-0.95,0-1.73-0.77-1.73-1.73v-2.71C318.98,533.39,319.76,532.62,320.71,532.62z"/>
	<path class="st2" d="M386.87,397.82c-21.4,18.1,15.5,47.2,0,59.38c0,0,15.18-5.9,5.75-25.95
		C383.19,411.19,386.87,397.82,386.87,397.82z"/>
</g>
<g id="freepik--Books--inject-71">
	<path class="st3" d="M1030.57,451.54v-4.42H793.84c-8.94,0-16.19,7.25-16.19,16.19c0,8.94,7.25,16.19,16.19,16.19h236.73v-4.41
		h-5.6v-23.54H1030.57z"/>
	<path class="st9" d="M924.73,451.54h105.84v-4.42H793.84c-8.94,0-16.19,7.25-16.19,16.19c0,8.94,7.25,16.19,16.19,16.19h236.73
		v-4.41H924.73c-6.48,0-11.73-5.25-11.73-11.73s5.25-11.73,11.73-11.73V451.54z"/>
	<path class="st9" d="M916.4,454.99c-2.24,2.21-3.48,5.23-3.45,8.38c0,6.48,5.25,11.73,11.73,11.73h105.84v4.41H924.89
		c-8.94,0-16.19-7.25-16.19-16.19s7.25-16.19,16.19-16.19h105.67v4.42H924.73C921.6,451.54,918.6,452.77,916.4,454.99z"/>
	<path class="st2" d="M916.4,454.99c-2.24,2.21-3.48,5.23-3.45,8.38c0,6.48,5.25,11.73,11.73,11.73h105.84v4.41H924.89
		c-8.94,0-16.19-7.25-16.19-16.19s7.25-16.19,16.19-16.19h105.67v4.42H924.73C921.6,451.54,918.6,452.77,916.4,454.99z"/>
	<line class="st2" x1="1024.89" y1="451.54" x2="1024.89" y2="475.08"/>
	<line class="st2" x1="1024.89" y1="455.81" x2="969.45" y2="455.81"/>
	<line class="st2" x1="964.84" y1="455.81" x2="959.07" y2="455.81"/>
	<line class="st2" x1="932.53" y1="463.3" x2="983.27" y2="463.3"/>
	<line class="st2" x1="989.6" y1="463.3" x2="1003.24" y2="463.3"/>
	<line class="st2" x1="1007.23" y1="463.3" x2="1024.89" y2="463.3"/>
	<line class="st2" x1="1018.77" y1="469.9" x2="999.97" y2="469.9"/>
	<line class="st2" x1="946.98" y1="469.9" x2="943.22" y2="469.9"/>
	<path class="st2" d="M918.73,453.18c0,0,4.89,4.67,4.89,10.05c0,5.38-4.89,10.14-4.89,10.14"/>
	<path class="st2" d="M954.11,479.49H793.84c-8.94,0-16.19-7.25-16.19-16.19c0-8.94,7.25-16.19,16.19-16.19h160.28"/>
	<path class="st3" d="M799.48,507.85v4.41h236.75c8.94,0,16.19-7.25,16.19-16.19c0-8.94-7.25-16.19-16.19-16.19H799.48v4.41h5.7
		v23.56H799.48z"/>
	<path class="st9" d="M992.72,507.85H799.48v4.41h236.75c8.94,0,16.19-7.25,16.19-16.19c0-8.94-7.25-16.19-16.19-16.19H799.48v4.41
		h193.24c6.51,0,11.78,5.27,11.78,11.78C1004.5,502.58,999.22,507.85,992.72,507.85z"/>
	<path class="st1" d="M1036.23,479.89h-43.68c8.94,0,16.19,7.25,16.19,16.19c0,8.94-7.25,16.19-16.19,16.19h43.68
		c8.94,0,16.19-7.25,16.19-16.19C1052.42,487.14,1045.17,479.89,1036.23,479.89z"/>
	<path class="st2" d="M1001.04,504.4c4.63-4.53,4.7-11.96,0.17-16.59c-2.25-2.29-5.34-3.57-8.55-3.52H799.48v-4.41h193.07
		c8.94,0,16.19,7.25,16.19,16.19c0,8.94-7.25,16.19-16.19,16.19H799.48v-4.41h193.24C995.84,507.86,998.84,506.62,1001.04,504.4z"/>
	<line class="st2" x1="805.18" y1="507.85" x2="805.18" y2="484.3"/>
	<line class="st2" x1="805.18" y1="503.56" x2="948" y2="503.56"/>
	<line class="st2" x1="952.61" y1="503.56" x2="958.35" y2="503.56"/>
	<line class="st2" x1="984.91" y1="496.07" x2="912.33" y2="496.07"/>
	<line class="st2" x1="905.98" y1="496.07" x2="892.36" y2="496.07"/>
	<line class="st2" x1="888.37" y1="496.07" x2="805.18" y2="496.07"/>
	<line class="st2" x1="811.29" y1="489.47" x2="895.62" y2="489.47"/>
	<line class="st2" x1="970.47" y1="489.47" x2="974.2" y2="489.47"/>
	<path class="st2" d="M998.72,506.21c0,0-4.91-4.69-4.91-10.14c0-5.45,4.91-10.05,4.91-10.05"/>
	<path class="st2" d="M963.31,479.89h72.92c8.94,0,16.19,7.25,16.19,16.19c0,8.94-7.25,16.19-16.19,16.19h-72.92"/>
	<path class="st3" d="M1050.24,517.07v-4.42H769.81c-8.94,0.29-15.96,7.77-15.67,16.71c0.27,8.54,7.13,15.4,15.67,15.67h280.43
		v-4.42h-5.7v-23.46L1050.24,517.07z"/>
	<path class="st9" d="M900.68,517.07h149.55v-4.42H769.81c-8.94,0.29-15.96,7.77-15.67,16.71c0.27,8.54,7.13,15.4,15.67,15.67
		h280.43v-4.42H900.68c-6.48,0-11.73-5.25-11.73-11.73s5.25-11.73,11.73-11.73V517.07z"/>
	<path class="st9" d="M892.37,520.52c-2.24,2.21-3.48,5.23-3.45,8.38c0,6.48,5.25,11.73,11.73,11.73h149.55v4.34H900.87
		c-8.94-0.29-15.96-7.77-15.67-16.72c0.27-8.54,7.13-15.4,15.67-15.67h149.37V517H900.68C897.55,517.01,894.55,518.27,892.37,520.52
		z"/>
	<path class="st2" d="M892.37,520.52c-2.24,2.21-3.48,5.23-3.45,8.38c0,6.48,5.25,11.73,11.73,11.73h149.55v4.34H900.87
		c-8.94-0.29-15.96-7.77-15.67-16.72c0.27-8.54,7.13-15.4,15.67-15.67h149.37V517H900.68C897.55,517.01,894.55,518.27,892.37,520.52
		z"/>
	<line class="st2" x1="1044.54" y1="517.07" x2="1044.54" y2="540.61"/>
	<line class="st2" x1="1044.54" y1="521.34" x2="945.42" y2="521.34"/>
	<line class="st2" x1="940.81" y1="521.34" x2="935.05" y2="521.34"/>
	<line class="st2" x1="908.49" y1="528.83" x2="959.24" y2="528.83"/>
	<line class="st2" x1="965.57" y1="528.83" x2="1001.04" y2="528.83"/>
	<line class="st2" x1="1005.05" y1="528.83" x2="1044.54" y2="528.83"/>
	<line class="st2" x1="1038.43" y1="535.43" x2="997.79" y2="535.43"/>
	<line class="st2" x1="922.95" y1="535.43" x2="919.2" y2="535.43"/>
	<path class="st2" d="M894.7,518.71c0,0,4.89,4.67,4.89,10.05c0,5.38-4.89,10.14-4.89,10.14"/>
	<path class="st2" d="M930.09,544.97H769.81c-8.94,0.29-16.43-6.73-16.72-15.67c-0.29-8.94,6.73-16.43,15.67-16.72
		c0.35-0.01,0.7-0.01,1.04,0h160.28"/>
</g>
<g id="freepik--Device--inject-71">
	<path class="st10" d="M927.19,605.69H439.15c-16.49,0-65.55-6.95-65.55-6.95h619.13C992.73,598.73,943.68,605.69,927.19,605.69z"/>
	<path class="st11" d="M445.25,283.44h475.84c3.35,0,6.07,2.72,6.07,6.07v291.32l0,0H439.15l0,0V289.49
		c0.01-3.35,2.73-6.06,6.08-6.05C445.24,283.44,445.24,283.44,445.25,283.44z"/>
	<path class="st12" d="M992.73,598.73H373.6c-1.06,0.03-1.95-0.82-1.97-1.88c-0.02-0.95,0.64-1.77,1.57-1.94l65.95-14.09h488.04
		l65.95,14.09c1.05,0.2,1.74,1.2,1.54,2.25C994.5,598.09,993.68,598.76,992.73,598.73z"/>
	<rect x="444.54" y="296.47" class="st8" width="477.25" height="264.48"/>
	<path class="st3" d="M693.71,572.44h-21.08c-1.34,0-2.43-1.09-2.43-2.43l0,0l0,0c-0.01-1.34,1.07-2.44,2.41-2.45
		c0.01,0,0.01,0,0.02,0h21.08c1.34,0,2.43,1.09,2.43,2.43c0,0.01,0,0.01,0,0.02l0,0C696.14,571.36,695.05,572.44,693.71,572.44
		L693.71,572.44z"/>
	<path class="st3" d="M686.65,289.64c0.01,1.92-1.54,3.49-3.47,3.5c-1.92,0.01-3.49-1.54-3.5-3.47c-0.01-1.92,1.54-3.49,3.47-3.5
		c0.01,0,0.01,0,0.02,0C685.09,286.17,686.65,287.72,686.65,289.64z"/>
	<polygon class="st2" points="954.33,589.77 412.01,589.77 440.49,583.07 925.85,583.07 	"/>
	<path class="st13" d="M744.79,298.45c0,0-109.78,148.8-296.56,128.58V298.45H744.79z"/>
	<path class="st14" d="M448.3,531.56c0,0,29-73.47,181.69-96.68c152.69-23.21,272.15-84.34,288.05-120.13v240.27H448.3V531.56z"/>
	<rect x="448.3" y="298.45" class="st15" width="469.73" height="9.11"/>
	<line class="st2" x1="448.3" y1="307.56" x2="918.04" y2="307.56"/>
	<line class="st2" x1="454.75" y1="302.79" x2="468.37" y2="302.79"/>
	<line class="st2" x1="483.27" y1="302.79" x2="495.53" y2="302.79"/>
	<line class="st2" x1="511.41" y1="302.79" x2="523.36" y2="302.79"/>
	<g class="st16">
		<path class="st1" d="M511.21,528.8h15.1c2.05,0,3.72,1.67,3.72,3.72v15.1c0,2.05-1.67,3.72-3.72,3.72h-15.1
			c-2.05,0-3.72-1.67-3.72-3.72v-15.1C507.49,530.46,509.16,528.8,511.21,528.8z"/>
		<path class="st1" d="M544.1,528.8h15.1c2.05,0,3.72,1.67,3.72,3.72v15.1c0,2.05-1.67,3.72-3.72,3.72h-15.1
			c-2.05,0-3.72-1.67-3.72-3.72v-15.1C540.38,530.46,542.05,528.8,544.1,528.8z"/>
		<path class="st1" d="M576.98,528.8h15.1c2.05,0,3.72,1.67,3.72,3.72v15.1c0,2.05-1.67,3.72-3.72,3.72h-15.1
			c-2.05,0-3.72-1.67-3.72-3.72v-15.1C573.26,530.46,574.92,528.8,576.98,528.8z"/>
		<path class="st1" d="M609.87,528.8h15.1c2.05,0,3.72,1.67,3.72,3.72v15.1c0,2.05-1.67,3.72-3.72,3.72h-15.1
			c-2.05,0-3.72-1.67-3.72-3.72v-15.1C606.15,530.46,607.81,528.8,609.87,528.8z"/>
		<path class="st1" d="M642.74,528.8h15.1c2.05,0,3.72,1.67,3.72,3.72v15.1c0,2.05-1.67,3.72-3.72,3.72h-15.1
			c-2.05,0-3.72-1.67-3.72-3.72v-15.1C639.02,530.46,640.69,528.8,642.74,528.8z"/>
		<path class="st1" d="M675.61,528.8h15.1c2.05,0,3.72,1.67,3.72,3.72v15.1c0,2.05-1.67,3.72-3.72,3.72h-15.1
			c-2.05,0-3.72-1.67-3.72-3.72v-15.1C671.89,530.46,673.56,528.8,675.61,528.8z"/>
		<path class="st1" d="M708.5,528.8h15.1c2.05,0,3.72,1.67,3.72,3.72v15.1c0,2.05-1.67,3.72-3.72,3.72h-15.1
			c-2.05,0-3.72-1.67-3.72-3.72v-15.1C704.78,530.46,706.45,528.8,708.5,528.8z"/>
		<path class="st1" d="M741.38,528.8h15.1c2.05,0,3.72,1.67,3.72,3.72v15.1c0,2.05-1.67,3.72-3.72,3.72h-15.1
			c-2.05,0-3.72-1.67-3.72-3.72v-15.1C737.66,530.46,739.32,528.8,741.38,528.8z"/>
		<path class="st1" d="M774.27,528.8h15.1c2.05,0,3.72,1.67,3.72,3.72v15.1c0,2.05-1.67,3.72-3.72,3.72h-15.1
			c-2.05,0-3.72-1.67-3.72-3.72v-15.1C770.55,530.46,772.21,528.8,774.27,528.8z"/>
		<path class="st1" d="M807.14,528.8h15.1c2.05,0,3.72,1.67,3.72,3.72v15.1c0,2.05-1.67,3.72-3.72,3.72h-15.1
			c-2.05,0-3.72-1.67-3.72-3.72v-15.1C803.42,530.46,805.09,528.8,807.14,528.8z"/>
		<path class="st1" d="M840.01,528.8h15.1c2.05,0,3.72,1.67,3.72,3.72v15.1c0,2.05-1.67,3.72-3.72,3.72h-15.1
			c-2.05,0-3.72-1.67-3.72-3.72v-15.1C836.29,530.46,837.96,528.8,840.01,528.8z"/>
	</g>
	<path class="st15" d="M880.36,555.02v-9.47c0-2.09-1.7-3.79-3.79-3.79c0,0,0,0,0,0h-17.73v5.85c-0.01,2.05-1.67,3.71-3.72,3.72
		h-15.08c-2.05-0.01-3.71-1.67-3.72-3.72v-5.85h-10.34v5.85c-0.01,2.06-1.69,3.73-3.75,3.72h0h-15.08
		c-2.05-0.01-3.71-1.67-3.72-3.72v-5.85h-10.35v5.85c-0.01,2.05-1.67,3.71-3.72,3.72h-15.08c-2.05-0.01-3.7-1.67-3.7-3.72v-5.85
		h-10.34v5.85c0,2.05-1.66,3.71-3.7,3.72h-15.08c-2.05-0.01-3.71-1.67-3.72-3.72v-5.85H727.4v5.85c-0.01,2.05-1.67,3.71-3.72,3.72
		H708.6c-2.05-0.01-3.71-1.67-3.72-3.72v-5.85h-10.34v5.85c-0.01,2.05-1.67,3.71-3.72,3.72h-15.08c-2.05-0.01-3.71-1.67-3.72-3.72
		v-5.85h-10.47v5.85c-0.01,2.05-1.67,3.71-3.72,3.72h-15.08c-2.05-0.01-3.71-1.67-3.72-3.72v-5.85H628.7v5.85
		c-0.01,2.05-1.67,3.71-3.72,3.72H609.9c-2.05-0.01-3.7-1.67-3.7-3.72v-5.85h-10.35v5.85c0,2.05-1.66,3.71-3.7,3.72h-15.08
		c-2.05-0.01-3.71-1.67-3.72-3.72v-5.85H563v5.85c-0.01,2.06-1.69,3.73-3.75,3.72c-0.02,0-0.05,0-0.07,0H544.1
		c-2.05-0.01-3.71-1.67-3.72-3.72v-5.85h-10.34v5.85c-0.01,2.05-1.67,3.71-3.72,3.72h-15.08c-2.05-0.01-3.71-1.67-3.72-3.72v-5.85
		h-17.76c-2.09,0-3.79,1.7-3.79,3.79l0,0v9.47"/>
	<path class="st2" d="M880.36,555.02v-9.47c0-2.09-1.7-3.79-3.79-3.79c0,0,0,0,0,0h-17.73v5.85c-0.01,2.05-1.67,3.71-3.72,3.72
		h-15.08c-2.05-0.01-3.71-1.67-3.72-3.72v-5.85h-10.34v5.85c-0.01,2.06-1.69,3.73-3.75,3.72h0h-15.08
		c-2.05-0.01-3.71-1.67-3.72-3.72v-5.85h-10.35v5.85c-0.01,2.05-1.67,3.71-3.72,3.72h-15.08c-2.05-0.01-3.7-1.67-3.7-3.72v-5.85
		h-10.34v5.85c0,2.05-1.66,3.71-3.7,3.72h-15.08c-2.05-0.01-3.71-1.67-3.72-3.72v-5.85H727.4v5.85c-0.01,2.05-1.67,3.71-3.72,3.72
		H708.6c-2.05-0.01-3.71-1.67-3.72-3.72v-5.85h-10.34v5.85c-0.01,2.05-1.67,3.71-3.72,3.72h-15.08c-2.05-0.01-3.71-1.67-3.72-3.72
		v-5.85h-10.47v5.85c-0.01,2.05-1.67,3.71-3.72,3.72h-15.08c-2.05-0.01-3.71-1.67-3.72-3.72v-5.85H628.7v5.85
		c-0.01,2.05-1.67,3.71-3.72,3.72H609.9c-2.05-0.01-3.7-1.67-3.7-3.72v-5.85h-10.35v5.85c0,2.05-1.66,3.71-3.7,3.72h-15.08
		c-2.05-0.01-3.71-1.67-3.72-3.72v-5.85H563v5.85c-0.01,2.06-1.69,3.73-3.75,3.72c-0.02,0-0.05,0-0.07,0H544.1
		c-2.05-0.01-3.71-1.67-3.72-3.72v-5.85h-10.34v5.85c-0.01,2.05-1.67,3.71-3.72,3.72h-15.08c-2.05-0.01-3.71-1.67-3.72-3.72v-5.85
		h-17.76c-2.09,0-3.79,1.7-3.79,3.79l0,0v9.47"/>
	<path class="st17" d="M511.21,528.8h15.1c2.05,0,3.72,1.67,3.72,3.72v15.1c0,2.05-1.67,3.72-3.72,3.72h-15.1
		c-2.05,0-3.72-1.67-3.72-3.72v-15.1C507.49,530.46,509.16,528.8,511.21,528.8z"/>
	<path class="st17" d="M544.1,528.8h15.1c2.05,0,3.72,1.67,3.72,3.72v15.1c0,2.05-1.67,3.72-3.72,3.72h-15.1
		c-2.05,0-3.72-1.67-3.72-3.72v-15.1C540.38,530.46,542.05,528.8,544.1,528.8z"/>
	<path class="st17" d="M576.98,528.8h15.1c2.05,0,3.72,1.67,3.72,3.72v15.1c0,2.05-1.67,3.72-3.72,3.72h-15.1
		c-2.05,0-3.72-1.67-3.72-3.72v-15.1C573.26,530.46,574.92,528.8,576.98,528.8z"/>
	<path class="st17" d="M609.87,528.8h15.1c2.05,0,3.72,1.67,3.72,3.72v15.1c0,2.05-1.67,3.72-3.72,3.72h-15.1
		c-2.05,0-3.72-1.67-3.72-3.72v-15.1C606.15,530.46,607.81,528.8,609.87,528.8z"/>
	<path class="st17" d="M642.74,528.8h15.1c2.05,0,3.72,1.67,3.72,3.72v15.1c0,2.05-1.67,3.72-3.72,3.72h-15.1
		c-2.05,0-3.72-1.67-3.72-3.72v-15.1C639.02,530.46,640.69,528.8,642.74,528.8z"/>
	<path class="st17" d="M675.61,528.8h15.1c2.05,0,3.72,1.67,3.72,3.72v15.1c0,2.05-1.67,3.72-3.72,3.72h-15.1
		c-2.05,0-3.72-1.67-3.72-3.72v-15.1C671.89,530.46,673.56,528.8,675.61,528.8z"/>
	<path class="st17" d="M708.5,528.8h15.1c2.05,0,3.72,1.67,3.72,3.72v15.1c0,2.05-1.67,3.72-3.72,3.72h-15.1
		c-2.05,0-3.72-1.67-3.72-3.72v-15.1C704.78,530.46,706.45,528.8,708.5,528.8z"/>
	<path class="st17" d="M741.38,528.8h15.1c2.05,0,3.72,1.67,3.72,3.72v15.1c0,2.05-1.67,3.72-3.72,3.72h-15.1
		c-2.05,0-3.72-1.67-3.72-3.72v-15.1C737.66,530.46,739.32,528.8,741.38,528.8z"/>
	<path class="st17" d="M774.27,528.8h15.1c2.05,0,3.72,1.67,3.72,3.72v15.1c0,2.05-1.67,3.72-3.72,3.72h-15.1
		c-2.05,0-3.72-1.67-3.72-3.72v-15.1C770.55,530.46,772.21,528.8,774.27,528.8z"/>
	<path class="st17" d="M807.14,528.8h15.1c2.05,0,3.72,1.67,3.72,3.72v15.1c0,2.05-1.67,3.72-3.72,3.72h-15.1
		c-2.05,0-3.72-1.67-3.72-3.72v-15.1C803.42,530.46,805.09,528.8,807.14,528.8z"/>
	<path class="st17" d="M840.01,528.8h15.1c2.05,0,3.72,1.67,3.72,3.72v15.1c0,2.05-1.67,3.72-3.72,3.72h-15.1
		c-2.05,0-3.72-1.67-3.72-3.72v-15.1C836.29,530.46,837.96,528.8,840.01,528.8z"/>
	<path class="st3" d="M803.81,427.68H562.53c-9.36,0-16.96-7.59-16.96-16.96l0,0c0.01-9.36,7.6-16.95,16.96-16.96h241.27
		c9.36,0.01,16.95,7.6,16.96,16.96l0,0C820.76,420.09,813.17,427.68,803.81,427.68z"/>
	<path class="st2" d="M803.81,427.68H562.53c-9.36,0-16.96-7.59-16.96-16.96l0,0c0.01-9.36,7.6-16.95,16.96-16.96h241.27
		c9.36,0.01,16.95,7.6,16.96,16.96l0,0C820.76,420.09,813.17,427.68,803.81,427.68z"/>
	<path class="st11" d="M568.11,409.95L568.11,409.95l-1.11,10.57h-4.27l-2.21-19.84h3.03l1.68,15.65l0,0l1.47-15.65h3.02l1.52,15.77
		l0,0l1.68-15.77h2.73l-2.21,19.84h-4.21L568.11,409.95z"/>
	<path class="st11" d="M584.06,409.95L584.06,409.95l-1.11,10.57h-4.27l-2.21-19.84h3.03l1.68,15.65l0,0l1.47-15.65h3.02l1.52,15.77
		l0,0l1.68-15.77h2.73l-2.26,19.84h-4.14L584.06,409.95z"/>
	<path class="st11" d="M600.03,409.95L600.03,409.95l-1.11,10.57h-4.29l-2.21-19.84h3.05l1.68,15.65l0,0l1.47-15.65h3l1.54,15.77
		l0,0l1.68-15.77h2.71l-2.21,19.84h-4.27L600.03,409.95z"/>
	<path class="st11" d="M610.92,417.53v3h-3v-3H610.92z"/>
	<path class="st11" d="M613.2,400.69h4.93c3.12,0,4.66,1.68,4.66,4.91v10.05c0,3.17-1.54,4.89-4.66,4.89h-4.93V400.69z
		 M616.32,403.52v14.11h1.76c0.99,0,1.59-0.5,1.59-1.93v-10.32c0-1.42-0.6-1.93-1.59-1.93L616.32,403.52z"/>
	<path class="st11" d="M624.53,405.45c0-3.17,1.68-5.03,4.74-5.03s4.72,1.83,4.72,5.03v10.32c0,3.18-1.68,5.03-4.72,5.03
		c-3.05,0-4.74-1.81-4.74-5.03V405.45z M627.64,415.97c0,1.42,0.62,1.96,1.68,1.96c1.06,0,1.68-0.54,1.68-1.96v-10.72
		c0-1.41-0.62-1.94-1.68-1.94c-1.06,0-1.68,0.54-1.68,1.94V415.97z"/>
	<path class="st11" d="M642.57,414.78L642.57,414.78l2.11-14.09h4.34v19.84h-2.95V406.3l0,0l-2.09,14.22h-2.95l-2.26-14.02l0,0
		v14.02h-2.71v-19.84h4.34L642.57,414.78z"/>
	<path class="st11" d="M661.39,420.53h-3.13l-0.54-3.6h-3.84l-0.54,3.6h-2.87l3.18-19.84h4.56L661.39,420.53z M654.32,414.28h3
		l-1.47-10.05l0,0L654.32,414.28z"/>
	<path class="st11" d="M662.88,400.69H666v19.84h-3.12V400.69z"/>
	<path class="st11" d="M671.11,406.15L671.11,406.15v14.38h-2.8v-19.84h3.9l3.08,11.91l0,0v-11.88h2.85v19.84h-3.2L671.11,406.15z"
		/>
	<path class="st11" d="M683.17,406.15L683.17,406.15v14.38h-2.81v-19.84h3.92l3.15,11.88l0,0v-11.88h2.78v19.84h-3.2L683.17,406.15z
		"/>
	<path class="st11" d="M702.57,420.53h-3.15l-0.54-3.6h-3.82l-0.54,3.6h-2.87l3.23-19.84h4.57L702.57,420.53z M695.45,414.28h3.02
		l-1.47-10.05l0,0L695.45,414.28z"/>
	<path class="st11" d="M710.6,414.78L710.6,414.78l2.09-14.09h4.34v19.84h-2.95V406.3l0,0l-2.09,14.22h-2.95l-2.26-14.02l0,0v14.02
		h-2.71v-19.84h4.24L710.6,414.78z"/>
	<path class="st11" d="M722.48,409.05h4.26v2.83h-4.29v5.75h5.4v2.83h-8.48v-19.77h8.51v2.83h-5.4V409.05z"/>
	<path class="st11" d="M734,400.45c3.03,0,4.59,1.83,4.59,5.03v0.62h-2.95v-0.82c0-1.41-0.57-1.94-1.56-1.94
		c-0.99,0-1.56,0.54-1.56,1.94s0.62,2.53,2.66,4.31c2.6,2.31,3.35,3.95,3.35,6.22c0,3.18-1.57,5.03-4.64,5.03
		c-3.07,0-4.66-1.81-4.66-5.03v-1.22h2.95v1.37c0,1.42,0.64,1.93,1.68,1.93c1.04,0,1.68-0.5,1.68-1.93c0-1.42-0.62-2.53-2.66-4.31
		c-2.61-2.3-3.43-3.95-3.43-6.22C729.4,402.28,730.97,400.45,734,400.45z"/>
	<path class="st11" d="M743.27,417.53v3h-3v-3H743.27z"/>
	<path class="st11" d="M754.29,413.14v2.63c0,3.18-1.58,5.03-4.64,5.03c-3.07,0-4.66-1.81-4.66-5.03v-10.32
		c0-3.17,1.68-5.03,4.66-5.03c2.98,0,4.64,1.83,4.64,5.03v1.93h-2.95v-2.13c0-1.41-0.62-1.94-1.68-1.94c-1.06,0-1.68,0.54-1.68,1.94
		v10.71c0,1.42,0.64,1.93,1.68,1.93c1.04,0,1.68-0.5,1.68-1.93v-2.83L754.29,413.14z"/>
	<path class="st11" d="M755.95,405.45c0-3.17,1.68-5.03,4.72-5.03c3.05,0,4.74,1.83,4.74,5.03v10.32c0,3.18-1.68,5.03-4.74,5.03
		c-3.07,0-4.72-1.81-4.72-5.03V405.45z M759.07,415.95c0,1.42,0.62,1.96,1.68,1.96c1.06,0,1.68-0.54,1.68-1.96v-10.72
		c0-1.41-0.64-1.94-1.68-1.94s-1.68,0.54-1.68,1.94V415.95z"/>
	<path class="st11" d="M774.01,414.78L774.01,414.78l2.09-14.09h4.34v19.84h-2.95V406.3l0,0l-2.18,14.23h-2.93l-2.28-14.02l0,0
		v14.02h-2.73v-19.84h4.34L774.01,414.78z"/>
	<path class="st18" d="M803.97,410.74c1.23-2.07,0.9-4.71-0.8-6.42c-2.15-1.98-5.5-1.85-7.48,0.3c-1.87,2.02-1.87,5.14-0.01,7.17
		c1.73,1.68,4.36,2.01,6.45,0.8c0.39-0.21,0.75-0.47,1.06-0.79C803.5,411.5,803.77,411.14,803.97,410.74z"/>
	<path class="st11" d="M810.99,417.26l-5.51-5.6c1.65-2.74,1.22-6.26-1.04-8.53c-2.72-2.73-7.13-2.73-9.86-0.02
		c-2.73,2.72-2.73,7.13-0.02,9.86c2.26,2.27,5.79,2.71,8.53,1.05l5.6,5.6c0.65,0.66,1.71,0.66,2.37,0.01c0,0,0.01-0.01,0.01-0.01
		C811.7,418.95,811.67,417.89,810.99,417.26z M802.13,412.6c-2.08,1.2-4.7,0.88-6.43-0.79c-2.15-1.98-2.29-5.33-0.3-7.48
		c1.98-2.15,5.33-2.29,7.48-0.3c0.11,0.1,0.21,0.2,0.31,0.31c1.7,1.71,2.03,4.35,0.8,6.42c-0.21,0.39-0.48,0.75-0.8,1.06
		C802.88,412.13,802.52,412.39,802.13,412.6z"/>
</g>
<g id="freepik--left-hand--inject-71">
	<path class="st3" d="M660.05,637.86c-1.29-6.47-2.26-8.38-12.92-10.99c-6.86-1.38-13.95-1.04-20.64,0.99l-0.97,0.3
		c0,0-2.61-9.03-4.54-11.46c-1.93-2.43-10.97-26.64-11.93-28.9c-1.1-1.66-2.55-3.06-4.24-4.1c-3.17-2.26-7.56-4.46-11.29-4.47h-0.25
		c-6.4,0.12-29.77-1.47-29.77-1.47s-3.55-6.57-6.45-9s-13.89-5.16-17.11-4.51c-0.39,0.1-0.76,0.23-1.12,0.4l0,0
		c-4.32,1.99-14.34,9.9-14.34,9.9s-0.35-0.42-0.92-0.97c-1.11-1.25-2.61-2.1-4.26-2.41c-2.04,0-10.71-2.51-14.24-0.7
		c-0.36,0.17-0.67,0.41-0.94,0.7c-1.51,1.78-8.38,9.01-14.58,15.25c-3.27,3.46-6.81,6.64-10.61,9.52
		c-4.52,2.66-12.3,3.92-16.75,5.24c-4.46,1.32-18.43,15.08-18.43,15.08c-11.95,2.36-53.78,4.89-81.58,6.35
		c-14.93,0.8-42.57,4.64-42.57,4.64L362.98,757l9.2-3.2c25.13-8.8,94.2-32.66,104.45-34.1c12.6-1.78,19.39-7.91,28.75-9
		c9.37-1.09,17.74-2.45,31.58,0c13.84,2.45,34.6-6.7,50.26-10.22c15.67-3.52,22.23-15.45,25.33-21.18c3.1-5.73,7.74-9.48,16.14-13.4
		c8.39-3.92,11.31-8.08,17.12-11.63c5.38-3.35,14.04-9.01,14.31-14.96C660.17,638.83,660.14,638.34,660.05,637.86z M604.76,637.86
		c0,0-1.68,0.84-2.75-0.1c-1.88-1.16-3.87-2.16-5.93-2.97c0.96-2.6-0.74-5.88-2.08-8.58c-1.14-2.6-2.13-5.25-2.98-7.96
		c0,0,6.02,8.55,7.79,9.84c0.77,0.66,1.67,1.15,2.63,1.46c0.59,2.91,1.69,5.68,3.25,8.21L604.76,637.86z"/>
	<path class="st5" d="M362.13,622.56c27.8-1.46,69.63-3.99,81.58-6.35c0,0,13.91-13.69,18.43-15.08c4.52-1.39,12.26-2.58,16.75-5.24
		c3.79-2.87,7.34-6.06,10.61-9.52c-5.14,7.74-11.73,17.06-15.72,20.66c-7.37,6.7-9.87,0-9.87,0
		C455.49,621.82,383,622.64,362.13,622.56z"/>
	<path class="st5" d="M505.01,570.47c3.54-1.81,12.2,0.7,14.24,0.7c1.65,0.31,3.14,1.16,4.26,2.41c-2.36,1.99-3.94,3.52-3.94,3.52
		s-4.19-2.55-9.32-5.91C508.68,570.24,506.79,569.98,505.01,570.47z"/>
	<path class="st5" d="M538.81,564.64c0.36-0.17,0.74-0.31,1.12-0.4c3.22-0.65,14.21,2.09,17.11,4.51s6.45,9,6.45,9
		s23.46,1.59,29.77,1.47h0.25c2.4,8.96-9.72,12.78-9.72,12.78s-2.95-13.2-14.71-13.89c-11.76-0.69-15.68,2.21-15.68,2.21
		c-0.22-10.84-4.14-12.47-11.23-15.4C541.1,564.52,539.94,564.43,538.81,564.64z"/>
	<path class="st5" d="M591.02,618.32c0.85,2.71,1.84,5.36,2.98,7.96c1.34,2.7,3.03,5.98,2.08,8.58c2.06,0.81,4.05,1.8,5.93,2.97
		c-3.72-1.94-10.99-5.34-10.99-5.34c2.31-5.29-3.64-25.02-3.64-25.02c6.32-1.26,12.26-3.96,17.37-7.87c4.46-3.69,2.38-10.79,0-15.9
		c1.69,1.04,3.14,2.45,4.24,4.1c0.96,2.26,10.05,26.49,11.93,28.9c1.88,2.41,4.54,11.46,4.54,11.46l0.97-0.3
		c-6.7,3.64-16.67,8.9-21.78,9.97c-1.56-2.53-2.66-5.3-3.25-8.21c-0.97-0.31-1.86-0.8-2.63-1.46
		C597.08,626.86,591.02,618.32,591.02,618.32z"/>
	<path class="st5" d="M653.5,635.44c2.51,0.79,4.81,2.15,6.7,3.99c-0.27,5.95-8.93,11.73-14.31,14.96
		c-5.81,3.55-8.73,7.74-17.12,11.63c-8.39,3.89-13.05,7.62-16.14,13.4c-3.08,5.78-9.65,17.63-25.33,21.18
		c-15.68,3.55-36.44,12.67-50.26,10.22s-22.2-1.07-31.58,0c-9.38,1.07-16.15,7.22-28.75,9c-10.25,1.44-79.25,25.3-104.45,34.1
		c25.13-27.06,105.84-52.69,117.59-51.3c12.82,1.54,34.46-3.74,43.75-5.56c9.28-1.83,10.82-5.68,10.82-5.68
		c0,3.08-3.35,7.09-3.35,7.09c1.71,1.49,3.55,2.82,5.51,3.95c3.1,1.78,42.64-8.18,49.58-14.14c6.94-5.96,16.49-17.89,20.02-20.61
		c3.54-2.71,23.26-8.48,26.07-13.87c2.81-5.4-3.54-16.55-4.86-18.31C636.05,633.72,641.11,631.15,653.5,635.44z"/>
	<path class="st5" d="M664.74,651.76v-1.68C664.78,650.64,664.78,651.2,664.74,651.76z"/>
	<path class="st2" d="M319.59,627.2c0,0,105.79-7.36,124.15-10.99c0,0,13.92-13.69,18.43-15.08c4.51-1.39,12.26-2.58,16.76-5.24
		c4.49-2.66,22.6-21.78,25.13-24.76c2.53-2.98,12.92,0,15.18,0s5.16,3.35,5.16,3.35s12.28-9.68,15.5-10.32
		c3.22-0.64,14.21,2.09,17.12,4.51c2.92,2.41,6.45,9,6.45,9s23.36,1.59,29.76,1.47s14.86,6.33,15.8,8.58
		c0.94,2.25,10.05,26.49,11.93,28.9c1.88,2.41,4.54,11.46,4.54,11.46s10.96-3.87,21.61-1.29c10.66,2.58,11.61,4.52,12.9,10.99
		s-8.38,12.9-14.21,16.45c-5.83,3.55-8.71,7.74-17.11,11.63c-8.39,3.89-13.05,7.62-16.15,13.4c-3.1,5.78-9.63,17.63-25.32,21.18
		c-15.68,3.55-36.44,12.67-50.26,10.22c-13.82-2.45-22.2-1.07-31.58,0s-16.15,7.22-28.75,9c-12.6,1.78-113.67,37.3-113.67,37.3"/>
	<path class="st2" d="M563.49,577.74c-4.36,0.12-8.61,1.45-12.26,3.84"/>
	<path class="st2" d="M577.46,581.58c4.29,1.99,7.56,14.36,7.56,14.36"/>
	<path class="st2" d="M589.34,611.05c0,0,2.35,11.73,4.72,15.23c1.45,2.31,2.17,5.01,2.06,7.74"/>
	<path class="st2" d="M589.34,631.71c4.2,1.76,8.26,3.82,12.16,6.17c3.02,2.25,12.75-5.51,24.03-9.72"/>
	<path class="st2" d="M590.28,615.34c2.13-1.46,4.57-2.43,7.12-2.83c4.84-0.97,8.9-8.24,10.05-12.92"/>
	<path class="st2" d="M604.81,637.92c-1.61-2.57-2.75-5.41-3.35-8.38c-0.97-0.3-1.86-0.8-2.63-1.46c-1.78-1.29-7.79-9.84-7.79-9.84"
		/>
	<path class="st2" d="M601.49,629.61c0,0,8.38,0.8,13.4-3.23"/>
	<path class="st2" d="M524.42,574.55c-3.01,2.07-6.26,3.76-9.68,5.03"/>
	<path class="st2" d="M505.13,570.4c5.41-0.5,9.6,3.52,10.25,4.16"/>
	<path class="st2" d="M539.91,564.23c0,0,9.37,2.58,11.31,5.16c1.14,1.49,1.81,3.29,1.93,5.16"/>
	<path class="st2" d="M443.69,616.21c0,0,8.55,0,13.64-3.22"/>
	<path class="st2" d="M505.38,710.71c0,0,18.43-5.7,25.82-6.99c4.4-0.76,8.33-3.19,10.97-6.79"/>
	<path class="st2" d="M636.47,641.07c0,0,4.74,6.22,3.22,12.6"/>
	<path class="st2" d="M604.81,647.37c5.16,3.55,8.76,8.95,10.05,15.08"/>
	<path class="st2" d="M524.42,583.5c0,0-17.41,18.75-27.23,23.96"/>
	<path class="st2" d="M553.15,588.76c0,0-18.08,19.05-25.5,22.28"/>
</g>
<g id="freepik--right-hand--inject-71">
	<path class="st3" d="M706.19,572.33c0.27,5.95,8.93,11.73,14.31,14.96c5.81,3.55,8.73,7.74,17.12,11.63
		c8.39,3.89,13.05,7.62,16.14,13.4c3.08,5.78,9.65,17.63,25.33,21.18c15.68,3.55,36.44,12.67,50.26,10.22
		c13.82-2.45,22.2-1.07,31.58,0c9.38,1.07,16.15,7.22,28.75,9c10.25,1.44,79.25,25.3,104.45,34.1l9.2,3.2l43.41-129.83
		c0,0-10.89-0.49-25.82-1.29c-27.8-1.46-86.39-7.34-98.34-9.7c0,0-13.91-13.69-18.43-15.08c-4.52-1.39-12.26-2.58-16.76-5.24
		c-3.79-2.87-7.34-6.06-10.61-9.52c-6.28-6.23-13.07-13.4-14.58-15.25c-0.26-0.29-0.58-0.53-0.94-0.7c-3.54-1.81-12.2,0.7-14.24,0.7
		c-1.65,0.31-3.14,1.16-4.26,2.41c-0.57,0.55-0.92,0.97-0.92,0.97s-10.05-7.91-14.34-9.9l0,0c-0.36-0.17-0.74-0.31-1.12-0.4
		c-3.22-0.65-14.21,2.09-17.11,4.51c-2.9,2.41-6.45,9-6.45,9s-23.37,1.59-29.77,1.47h-0.25c-3.74,0-8.13,2.21-11.29,4.47
		c-1.69,1.04-3.14,2.45-4.24,4.1c-0.96,2.26-10.05,26.49-11.93,28.9c-1.88,2.41-4.54,11.46-4.54,11.46l-0.97-0.3
		c-6.69-2.03-13.79-2.37-20.64-0.99c-10.66,2.6-11.63,4.52-12.92,10.99C706.19,571.3,706.15,571.82,706.19,572.33z M761.6,570.8
		c1.56-2.53,2.66-5.3,3.25-8.21c0.97-0.31,1.86-0.8,2.63-1.46c1.78-1.29,7.79-9.84,7.79-9.84c-0.85,2.71-1.84,5.36-2.98,7.96
		c-1.34,2.7-3.03,5.98-2.08,8.58c-2.06,0.81-4.05,1.8-5.93,2.97c-0.99,0.94-2.75,0.1-2.75,0.1L761.6,570.8z"/>
	<path class="st5" d="M1020.97,558.89c-27.8-1.46-86.39-7.34-98.34-9.7c0,0-13.91-13.69-18.43-15.08
		c-4.52-1.39-12.26-2.58-16.76-5.24c-3.79-2.87-7.34-6.06-10.61-9.52c5.14,7.74,11.73,17.06,15.72,20.66c7.37,6.7,9.87,0,9.87,0
		C910.85,554.8,1000.09,558.97,1020.97,558.89z"/>
	<path class="st5" d="M861.33,503.45c-3.54-1.81-12.2,0.7-14.24,0.7c-1.65,0.31-3.14,1.16-4.26,2.41c2.36,1.99,3.94,3.52,3.94,3.52
		s4.19-2.55,9.32-5.91C857.66,503.22,859.55,502.96,861.33,503.45z"/>
	<path class="st5" d="M827.53,497.62c-0.36-0.17-0.74-0.31-1.12-0.4c-3.22-0.65-14.21,2.09-17.11,4.51c-2.9,2.41-6.45,9-6.45,9
		s-23.37,1.59-29.77,1.47h-0.25c-2.4,8.96,9.72,12.78,9.72,12.78s2.95-13.2,14.71-13.89c11.76-0.69,15.68,2.21,15.68,2.21
		c0.22-10.84,4.14-12.47,11.23-15.4C825.24,497.5,826.4,497.41,827.53,497.62z"/>
	<path class="st5" d="M775.32,551.3c-0.85,2.71-1.84,5.36-2.98,7.96c-1.34,2.7-3.03,5.98-2.08,8.58c-2.06,0.81-4.05,1.8-5.93,2.97
		c3.72-1.94,10.99-5.34,10.99-5.34c-2.31-5.29,3.64-25.02,3.64-25.02c-6.32-1.26-12.26-3.96-17.37-7.87
		c-4.46-3.69-2.38-10.79,0-15.9c-1.69,1.04-3.14,2.45-4.24,4.1c-0.96,2.26-10.05,26.49-11.93,28.9s-4.54,11.46-4.54,11.46l-0.97-0.3
		c6.7,3.64,16.67,8.9,21.78,9.97c1.56-2.53,2.66-5.3,3.25-8.21c0.97-0.31,1.86-0.8,2.63-1.46
		C769.26,559.84,775.32,551.3,775.32,551.3z"/>
	<path class="st5" d="M712.84,568.42c-2.51,0.79-4.81,2.15-6.7,3.99c0.27,5.95,8.93,11.73,14.31,14.96
		c5.81,3.55,8.73,7.74,17.12,11.63c8.39,3.89,13.05,7.62,16.14,13.4c3.08,5.78,9.65,17.63,25.33,21.18
		c15.68,3.55,36.44,12.67,50.26,10.22c13.82-2.45,22.2-1.07,31.58,0c9.38,1.07,16.15,7.22,28.75,9
		c10.25,1.44,79.25,25.3,104.45,34.1c-25.13-27.06-105.84-52.69-117.59-51.3c-12.82,1.54-34.47-3.74-43.75-5.56
		s-10.82-5.68-10.82-5.68c0,3.08,3.35,7.09,3.35,7.09c-1.71,1.49-3.55,2.82-5.51,3.95c-3.08,1.73-42.62-8.33-49.48-14.26
		s-16.49-17.89-20.02-20.61s-23.26-8.48-26.07-13.87s3.54-16.55,4.86-18.31C730.38,566.58,725.22,564.13,712.84,568.42z"/>
	<path class="st5" d="M701.6,584.74v-1.68C701.56,583.62,701.56,584.18,701.6,584.74z"/>
	<path class="st2" d="M1046.75,560.18c0,0-105.79-7.36-124.15-10.99c0,0-13.92-13.69-18.43-15.08c-4.51-1.39-12.26-2.58-16.76-5.24
		c-4.49-2.66-22.6-21.78-25.13-24.76c-2.53-2.98-12.92,0-15.18,0c-2.26,0-5.16,3.35-5.16,3.35s-12.28-9.68-15.5-10.32
		c-3.22-0.64-14.21,2.09-17.12,4.51c-2.92,2.41-6.45,9-6.45,9s-23.36,1.59-29.76,1.47c-6.4-0.12-14.86,6.33-15.8,8.58
		s-10.05,26.49-11.93,28.9c-1.88,2.41-4.54,11.46-4.54,11.46s-10.96-3.87-21.61-1.29s-11.61,4.52-12.9,10.99s8.38,12.9,14.21,16.45
		c5.83,3.55,8.71,7.74,17.11,11.63c8.39,3.89,13.05,7.62,16.15,13.4c3.1,5.78,9.63,17.63,25.32,21.18
		c15.68,3.55,36.44,12.67,50.26,10.22c13.82-2.45,22.2-1.07,31.58,0c9.38,1.07,16.15,7.22,28.75,9s113.67,37.3,113.67,37.3"/>
	<path class="st2" d="M802.85,510.72c4.36,0.12,8.61,1.45,12.26,3.84"/>
	<path class="st2" d="M788.88,514.56c-4.29,1.99-7.56,14.36-7.56,14.36"/>
	<path class="st2" d="M777,544.03c0,0-2.35,11.73-4.72,15.23c-1.45,2.31-2.17,5.01-2.06,7.74"/>
	<path class="st2" d="M777,564.69c-4.2,1.76-8.26,3.82-12.16,6.17c-3.02,2.25-12.75-5.51-24.03-9.72"/>
	<path class="st2" d="M776.06,548.32c-2.13-1.46-4.57-2.43-7.12-2.83c-4.84-0.97-8.9-8.24-10.05-12.92"/>
	<path class="st2" d="M761.53,570.9c1.61-2.57,2.75-5.41,3.35-8.38c0.97-0.3,1.86-0.8,2.63-1.46c1.78-1.29,7.79-9.84,7.79-9.84"/>
	<path class="st2" d="M764.85,562.59c0,0-8.38,0.8-13.4-3.23"/>
	<path class="st2" d="M841.92,507.54c3.01,2.07,6.26,3.76,9.68,5.03"/>
	<path class="st2" d="M861.21,503.38c-5.41-0.5-9.6,3.52-10.25,4.16"/>
	<path class="st2" d="M826.42,497.21c0,0-9.37,2.58-11.31,5.16c-1.14,1.49-1.81,3.29-1.93,5.16"/>
	<path class="st2" d="M922.65,549.19c0,0-8.55,0-13.64-3.22"/>
	<path class="st2" d="M860.96,643.69c0,0-18.43-5.7-25.82-6.99c-4.4-0.76-8.33-3.19-10.97-6.79"/>
	<path class="st2" d="M729.87,574.05c0,0-4.74,6.22-3.22,12.6"/>
	<path class="st2" d="M761.53,580.35c-5.16,3.55-8.76,8.95-10.05,15.08"/>
	<path class="st2" d="M841.92,516.48c0,0,17.41,18.75,27.23,23.96"/>
	<path class="st2" d="M813.19,521.74c0,0,18.08,19.05,25.5,22.28"/>
</g>
</svg>
