<?xml version="1.0" encoding="utf-8"?>
<!-- Generator: Adobe Illustrator 23.1.0, SVG Export Plug-In . SVG Version: 6.00 Build 0)  -->
<svg version="1.1" id="Layer_1" xmlns="http://www.w3.org/2000/svg" xmlns:xlink="http://www.w3.org/1999/xlink" x="0px" y="0px"
	 viewBox="0 0 1366 768" style="enable-background:new 0 0 1366 768;" xml:space="preserve">
<style type="text/css">
	.st0{fill:#F5F5F5;}
	.st1{fill:#E0E0E0;}
	.st2{fill:#EBEBEB;}
	.st3{fill:#FF725E;}
	.st4{opacity:0.2;}
	.st5{fill:#455A64;}
	.st6{fill:#263238;}
	.st7{fill:#FFFFFF;}
	.st8{fill:#FFBE9D;}
	.st9{fill:#EB996E;}
	.st10{fill:#FAFAFA;}
</style>
<g id="freepik--background-complete--inject-200">
	<circle class="st0" cx="342.49" cy="319.51" r="36.77"/>
	<path class="st1" d="M321.38,324.57c0-1.68,1.36-3.04,3.04-3.04c1.68,0,3.03,1.36,3.04,3.04c0,1.68-1.36,3.04-3.04,3.04
		C322.74,327.61,321.38,326.25,321.38,324.57C321.38,324.57,321.38,324.57,321.38,324.57z"/>
	<path class="st1" d="M346.97,320.34h-12.75c0.55,2.16,2.61,3.59,4.83,3.36c1.59,0.1,3.14-0.46,4.3-1.56l2.6,2.82
		c-1.8,1.89-4.34,2.88-6.95,2.72c-5.82,0-9.62-3.66-9.62-8.68c-0.07-4.74,3.72-8.65,8.47-8.72c0.15,0,0.31,0,0.46,0.01
		c4.63-0.21,8.55,3.38,8.76,8.01c0.01,0.25,0.01,0.49,0,0.74C347.05,319.4,347,319.94,346.97,320.34z M334.15,317.49h8.31
		c-0.39-2.29-2.56-3.84-4.85-3.45C335.83,314.33,334.45,315.72,334.15,317.49z"/>
	<path class="st1" d="M348.7,325.83l1.68-3.51c1.76,1.08,3.79,1.66,5.86,1.68c2.25,0,3.09-0.6,3.09-1.54c0-2.75-10.17,0-10.17-6.71
		c0-3.19,2.89-5.45,7.8-5.45c2.25-0.04,4.47,0.47,6.48,1.48l-1.68,3.47c-1.48-0.84-3.15-1.27-4.85-1.26c-2.2,0-3.14,0.69-3.14,1.58
		c0,2.87,10.17,0,10.17,6.71c0,3.14-2.9,5.35-7.95,5.35C353.44,327.67,350.93,327.05,348.7,325.83z"/>
	<circle class="st0" cx="393.79" cy="505.37" r="64.07"/>
	<path class="st1" d="M356.99,514.18c0.16-2.92,2.67-5.16,5.59-5c2.69,0.15,4.84,2.3,5,5c0.16,2.92-2.07,5.43-5,5.59
		s-5.43-2.07-5.59-5C356.98,514.58,356.98,514.38,356.99,514.18z"/>
	<path class="st1" d="M391.61,489.27v7.87c-0.72,0-1.26-0.12-1.91-0.12c-4.7,0-7.82,2.57-7.82,8.19v13.86h-8.51v-29.37h8.14v3.88
		C383.62,490.75,387.06,489.27,391.61,489.27z"/>
	<path class="st1" d="M426.48,489.71v29.37h-8.07v-3.49c-2.33,2.58-5.66,4.01-9.13,3.93c-7.37,0-12.55-4.14-12.55-13.21v-16.6h8.52
		v15.34c0,4.92,2.18,7.1,5.94,7.1s6.71-2.5,6.71-7.92v-14.52L426.48,489.71z"/>
	<circle class="st0" cx="956.7" cy="553.7" r="51.59"/>
	<path class="st1" d="M927.08,560.8c0.01-2.35,1.92-4.26,4.27-4.25c2.35,0.01,4.25,1.91,4.25,4.25c0.01,2.35-1.9,4.27-4.25,4.27
		c-2.35,0.01-4.27-1.9-4.27-4.25C927.08,560.81,927.08,560.8,927.08,560.8z"/>
	<path class="st1" d="M961.61,551.25v13.42h-6.41v-2.94c-1.28,2.15-3.74,3.36-7.22,3.36c-5.54,0-8.83-3.07-8.83-7.17
		s2.94-7.06,10.15-7.06h5.45c0-2.95-1.76-4.67-5.45-4.67c-2.45-0.02-4.84,0.75-6.81,2.2l-2.47-4.75c3.04-1.94,6.59-2.93,10.2-2.85
		C957.43,540.76,961.61,544.1,961.61,551.25z M954.77,557.27v-2.42h-4.72c-3.21,0-4.21,1.19-4.21,2.77c0,1.58,1.44,2.85,3.86,2.85
		C951.91,560.64,953.97,559.34,954.77,557.27z"/>
	<path class="st1" d="M991.63,541.11v23.63h-6.51v-2.8c-1.87,2.07-4.55,3.23-7.33,3.15c-5.94,0-10.07-3.36-10.07-10.62v-13.42h6.85
		v12.33c0,3.96,1.76,5.72,4.78,5.72s5.45-2.03,5.45-6.38v-11.75L991.63,541.11z"/>
	<circle class="st0" cx="1000.29" cy="390.45" r="41.13"/>
	<path class="st1" d="M976.67,396.11c0-1.88,1.52-3.4,3.4-3.4c1.88,0,3.4,1.52,3.4,3.4s-1.52,3.4-3.4,3.4
		C978.19,399.5,976.67,397.98,976.67,396.11z"/>
	<path class="st1" d="M986.52,374.73c0.04-1.73,1.48-3.1,3.21-3.06c0.05,0,0.1,0,0.14,0.01c1.68-0.17,3.17,1.06,3.34,2.74
		c0.01,0.07,0.01,0.14,0.01,0.22c0.03,1.88-1.47,3.42-3.35,3.45c-1.88,0.03-3.42-1.47-3.45-3.35L986.52,374.73z M987.19,380.4h5.45
		v18.93h-5.45V380.4z"/>
	<path class="st1" d="M1017.01,388.47v10.86h-5.47v-10.07c0-3.05-1.39-4.45-3.83-4.45s-4.51,1.68-4.51,5.03v9.48h-5.39V380.4h5.22
		v2.15c1.64-1.67,3.9-2.57,6.24-2.48C1013.65,380.13,1017.01,382.71,1017.01,388.47z"/>
	<circle class="st0" cx="372.6" cy="81.24" r="52.39"/>
	<path class="st1" d="M342.49,88.46c0-2.39,1.94-4.33,4.33-4.33c2.39,0,4.33,1.94,4.33,4.33c0,2.39-1.94,4.33-4.33,4.33
		C344.43,92.79,342.49,90.85,342.49,88.46C342.49,88.46,342.49,88.46,342.49,88.46z"/>
	<path class="st1" d="M380.35,68.45v20c0,8.93-4.82,13.02-13.42,13.02c-4.17,0.16-8.29-1.02-11.75-3.36l2.75-5.03
		c2.47,1.78,5.44,2.73,8.49,2.72c4.9,0,7.05-2.23,7.05-6.56v-1.02c-1.98,2.04-4.75,3.12-7.59,2.99c-6.41,0.24-11.8-4.75-12.05-11.16
		c-0.24-6.41,4.75-11.8,11.16-12.05c0.29-0.01,0.59-0.01,0.88,0c3.03-0.2,5.97,1.05,7.94,3.36v-2.9H380.35z M373.55,79.7
		c0.28-3.48-2.32-6.53-5.8-6.81s-6.53,2.32-6.81,5.8c-0.28,3.48,2.32,6.53,5.8,6.81c0.14,0.01,0.29,0.02,0.43,0.02
		c3.2,0.31,6.04-2.04,6.35-5.24C373.54,80.09,373.55,79.89,373.55,79.7z"/>
	<path class="st1" d="M386.83,59.36h6.96v33.11h-6.96V59.36z"/>
	
		<ellipse transform="matrix(0.7071 -0.7071 0.7071 0.7071 236.3589 723.5858)" class="st0" cx="991.62" cy="76.48" rx="63.47" ry="63.47"/>
	<path class="st1" d="M951.63,86.16c0.16-2.66,2.44-4.7,5.11-4.54c2.45,0.14,4.4,2.09,4.54,4.54c0.16,2.66-1.88,4.95-4.54,5.11
		c-2.66,0.16-4.95-1.88-5.11-4.54C951.62,86.54,951.62,86.35,951.63,86.16z"/>
	<path class="st1" d="M993.16,63.87v26.85h-7.37v-3.19c-2.11,2.36-5.14,3.67-8.31,3.59c-6.71,0-11.44-3.78-11.44-12.05v-15.1h7.77
		v13.98c0,4.48,2,6.48,5.42,6.48s6.18-2.3,6.18-7.22V63.87H993.16z"/>
	<path class="st1" d="M1011.87,80.15l-3.73,3.69v6.81h-7.77V53.74h7.77v20.89l11.34-10.76h9.25l-11.14,11.34l12.1,15.42h-9.4
		L1011.87,80.15z"/>
	<path class="st2" d="M421.8,576.65c0,0-10.45,4.23,1.68,26.43c12.13,22.2,20.31,33.14,20.31,33.14s2.16,5.17-2.2,6.11
		c-4.36,0.94-14.11-0.37-15.93,5.03c-1.81,5.4,2.3,10.81,10.64,15.2c8.34,4.4,26.2,14.75,27.87,15.69c1.68,0.94,3.22,3.36,0.34,4.41
		c-2.89,1.06-24.6,3.96-22.64,14.18c1.96,10.22,27.22,18.68,29.95,19.67c2.74,0.99,3.36,2.1,3.24,3.61
		c-0.12,1.51-7.57,1.76-13.71,2.82c-6.14,1.06-13.09,3.36-11.46,9.16c1.63,5.81,16.78,17.7,52.83,20.31l16.78,0.1l8.76-14.41
		c16.88-31.98,14.78-51.12,10.72-55.56c-4.06-4.45-9.7,0.22-13.84,4.87c-4.14,4.65-8.29,10.79-9.65,10.15
		c-1.36-0.64-1.98-1.81-1.36-4.65c0.62-2.84,6.71-28.75-0.84-35.83c-7.55-7.08-21.55,9.85-24,11.75c-2.45,1.9-3.64-0.79-3.57-2.62
		c0.07-1.83,0.77-22.54,1.44-31.88c0.67-9.35-1.49-15.69-7.28-17.07c-5.79-1.38-9.62,7.6-12.72,10.84c-3.1,3.24-6.33-1.36-6.33-1.36
		s-4.93-12.79-17.4-34.77c-12.47-21.98-21.82-15.1-21.82-15.1"/>
	<path class="st1" d="M520.42,756.45c-9.1-16.18-24.77-45.21-38.36-70.06c-13.59-24.85-25.91-47.34-34.92-63.57
		c-4.5-8.09-8.14-14.65-10.69-19.2l-2.89-5.24l-0.76-1.36c-0.09-0.15-0.17-0.31-0.23-0.47l0.29,0.44l0.79,1.34l2.99,5.19
		c2.58,4.5,6.29,11.03,10.84,19.11c9.08,16.19,21.46,38.6,35.04,63.5c13.58,24.9,29.22,53.85,38.23,70.13"/>
	<path class="st1" d="M439.12,649.75c0.4,0.05,0.8,0.15,1.17,0.3c0.76,0.22,1.83,0.55,3.15,1.01c2.63,0.89,6.26,2.22,10.24,3.76
		l10.07,3.96l3.09,1.19c0.39,0.11,0.76,0.27,1.11,0.47c-0.4-0.05-0.8-0.14-1.17-0.29c-0.76-0.22-1.83-0.57-3.15-1.02
		c-2.63-0.92-6.23-2.3-10.2-3.83c-3.98-1.53-7.45-2.87-10.17-3.89l-3.09-1.17C439.79,650.11,439.45,649.95,439.12,649.75z"/>
	<path class="st1" d="M469.2,659.33c-0.13,0,2.27-7.62,5.37-16.93c3.1-9.31,5.72-16.78,5.87-16.78c0.15,0-2.28,7.62-5.39,16.93
		S469.2,659.43,469.2,659.33z"/>
	<path class="st1" d="M488.27,698.45c0.19-0.37,0.41-0.73,0.65-1.06c0.52-0.74,1.16-1.68,1.93-2.77c1.68-2.35,3.83-5.59,6.14-9.26
		c2.32-3.68,4.31-7.05,5.74-9.51c0.65-1.16,1.23-2.13,1.68-2.92c0.18-0.37,0.41-0.72,0.67-1.04c-0.12,0.4-0.29,0.78-0.49,1.14
		c-0.35,0.72-0.87,1.68-1.54,3c-1.34,2.52-3.36,5.94-5.62,9.62c-2.27,3.68-4.58,6.9-6.28,9.2c-0.86,1.14-1.56,2.05-2.06,2.67
		C488.85,697.85,488.57,698.17,488.27,698.45z"/>
	<path class="st1" d="M459.22,695.75c0.38-0.04,0.76-0.04,1.14,0l3.12,0.17c2.62,0.17,6.24,0.42,10.24,0.74s7.64,0.64,10.25,0.91
		l3.09,0.32c0.39,0.03,0.77,0.09,1.14,0.2c-0.38,0.04-0.77,0.04-1.16,0l-3.1-0.17c-2.63-0.17-6.26-0.44-10.25-0.76
		c-3.99-0.32-7.62-0.64-10.24-0.89l-3.1-0.34C459.96,695.91,459.59,695.85,459.22,695.75z"/>
	<path class="st1" d="M471.74,732.42c0.49-0.04,0.97-0.04,1.46,0l3.99,0.2c3.36,0.18,8,0.49,13.14,0.84
		c5.14,0.35,9.78,0.72,13.14,1.01l3.98,0.37c0.49,0.02,0.97,0.08,1.44,0.2c-0.49,0.04-0.97,0.04-1.46,0l-3.99-0.2
		c-3.36-0.18-8-0.49-13.14-0.86c-5.14-0.37-9.78-0.7-13.14-0.99l-3.98-0.37C472.7,732.59,472.21,732.53,471.74,732.42z"/>
	<path class="st1" d="M508.02,734.71c0.24-0.47,0.51-0.92,0.81-1.36l2.3-3.59c1.95-3.05,4.61-7.27,7.42-12
		c2.8-4.73,5.27-9.08,7.01-12.23l2.06-3.74c0.23-0.47,0.5-0.92,0.81-1.34c-0.16,0.5-0.37,0.98-0.62,1.44
		c-0.44,0.91-1.09,2.22-1.93,3.81c-1.68,3.22-4.06,7.6-6.88,12.33c-2.82,4.73-5.54,8.93-7.57,11.93c-1.01,1.49-1.85,2.68-2.43,3.51
		C508.71,733.92,508.38,734.33,508.02,734.71z"/>
	<path class="st2" d="M921.47,644.55c5.03,3.13,8.56,8.17,9.8,13.96c1.18,5.76,1.03,11.71-0.44,17.4
		c-2.53,11.03-10.07,21.6-17.99,29.77c-8.49-9.28-9.05-23.85-8.86-31.26C904.27,662.67,911.91,641.71,921.47,644.55"/>
	<path class="st2" d="M921.72,725.35c-0.58-6.65,2.45-13.1,7.94-16.9c5.5-3.67,12.25-4.97,18.73-3.62c2.97,0.57,6.11,1.81,7.55,4.46
		c1.22,2.62,0.92,5.69-0.77,8.02c-1.7,2.28-3.98,4.06-6.59,5.17C939.85,726.69,930.63,729.19,921.72,725.35"/>
	<path class="st1" d="M907.68,749.95c0.45-2.46,1.16-4.87,2.1-7.18c0.94-2.57,2.18-5.02,3.69-7.3c1.76-2.83,3.7-5.54,5.82-8.11
		c3.9-4.72,8.9-8.4,14.57-10.72c1.72-0.65,3.5-1.12,5.32-1.43c0.67-0.15,1.35-0.17,2.03-0.08c0,0.22-2.84,0.54-7.01,2.35
		c-5.38,2.49-10.15,6.15-13.95,10.71c-2.07,2.54-4.01,5.18-5.81,7.92c-1.52,2.19-2.81,4.53-3.83,7
		C909.79,745.45,908.81,747.74,907.68,749.95z"/>
	<path class="st1" d="M917.08,661.11c0.11,1.26,0.11,2.52,0,3.78c-0.12,2.43-0.32,5.96-0.62,10.3c-0.59,8.68-1.54,20.66-2.92,33.86
		c-1.38,13.21-2.99,25.17-4.31,33.75c-0.67,4.31-1.24,7.79-1.68,10.17c-0.15,1.26-0.43,2.5-0.82,3.71c0.01-1.27,0.12-2.53,0.34-3.78
		c0.34-2.63,0.77-6.07,1.29-10.22c1.11-8.63,2.55-20.56,3.93-33.75s2.43-24.95,3.36-33.83c0.42-4.14,0.76-7.6,1.02-10.25
		C916.68,663.6,916.82,662.34,917.08,661.11z"/>
	<path class="st2" d="M907.04,728.05c-2.68-13.76-11.83-25.39-24.58-31.23c-3.21-1.44-7.37-2.32-9.9,0.1
		c-2.53,2.42-1.85,6.71-0.49,9.88c6.05,13.74,19.77,22.48,34.77,22.17"/>
	<path class="st1" d="M884.96,706.79c0-0.08,0.69,0.23,1.8,0.86c1.11,0.62,2.68,1.68,4.58,2.9c5,3.33,9.35,7.56,12.82,12.47
		c1.86,2.77,3.24,5.83,4.11,9.05c0.68,2.63,0.99,5.34,0.92,8.05c-0.03,1.82-0.23,3.63-0.6,5.4c-0.07,0.66-0.25,1.31-0.54,1.91
		c-0.25,0,0.32-2.82,0.25-7.32c-0.11-5.86-1.91-11.56-5.2-16.41c-3.41-4.78-7.56-8.97-12.3-12.43
		C888.76,709.9,886.81,708.4,884.96,706.79z"/>
</g>
<g id="freepik--World--inject-200">
	<path class="st3" d="M943.51,287.43c0-3.83-0.12-7.62-0.35-11.39c-0.2-3.76-0.49-7.52-0.87-11.24c-0.29-3.04-0.62-6.01-1.04-8.99
		c-0.42-2.99-0.89-6.29-1.41-9.4c-1.55-9.3-3.62-18.5-6.19-27.57c-0.98-3.46-2.04-6.89-3.15-10.3c-1.12-3.41-2.31-6.8-3.57-10.15
		c-1.9-5.03,0,0,0,0l0,0c-0.25-0.64-0.45-1.28-0.72-1.9c-5.75-15.18-12.92-29.79-21.41-43.63c-1.81-2.93-3.66-5.83-5.55-8.69
		c-1.17-1.68-2.38-3.57-3.61-5.29c-1.54-2.28-3.19-4.46-4.83-6.71c-1.29-1.68-2.6-3.49-3.94-5.17c-0.92-1.17-1.9-2.35-2.85-3.52
		s-2.1-2.65-3.27-3.94l-3.54-4.08c-0.35-0.44-0.73-0.86-1.12-1.26c-1.23-1.43-2.52-2.82-3.83-4.21c-0.1-0.17-0.23-0.31-0.39-0.42
		c-0.34-0.37-0.7-0.76-1.09-1.12c-1.04-1.17-2.18-2.32-3.27-3.36c-1.81-1.86-3.66-3.71-5.54-5.47c-1.56-1.54-3.15-3.02-4.8-4.5
		c-1.64-1.48-2.85-2.6-4.33-3.86s-2.85-2.48-4.31-3.69c-1.68-1.51-3.57-2.99-5.42-4.46l0,0c-5.03-4.06-10.34-7.94-15.71-11.55
		c-1.34-0.92-2.65-1.81-3.99-2.68c-1.34-0.87-2.72-1.68-4.08-2.6c-1.36-0.92-2.72-1.68-4.11-2.53c-1.39-0.86-2.77-1.68-4.16-2.47
		c-1.12-0.67-2.22-1.31-3.36-1.9c-0.54-0.35-1.1-0.67-1.68-0.96c-2.38-1.36-4.82-2.65-7.27-3.88c-1.21-0.62-2.43-1.26-3.69-1.85
		c-1.54-0.79-3.15-1.56-4.75-2.27c-0.22-0.14-0.46-0.25-0.7-0.34c-1.43-0.67-2.87-1.34-4.33-1.98c-2.06-0.87-4.11-1.76-6.18-2.6
		c-2.35-0.96-4.7-1.93-7.1-2.82c-2.65-1.01-5.3-1.96-7.99-2.85c-2.68-0.89-5.42-1.8-8.14-2.65c-2.72-0.86-5.47-1.68-8.24-2.35
		c-5.45-1.46-11.01-2.77-16.6-3.91c-0.09,0.01-0.19,0.01-0.29,0c-2.15-0.42-4.3-0.84-6.43-1.17c-0.14-0.01-0.28-0.01-0.42,0
		c-0.92-0.17-1.9-0.34-2.85-0.45c-3.99-0.67-8.04-1.23-12.1-1.68c-0.49-0.08-0.98-0.14-1.48-0.17c-1.17-0.17-2.35-0.25-3.57-0.39
		c-2.68-0.25-5.37-0.45-8.11-0.62c-2.74-0.17-5.67-0.34-8.52-0.42s-5.96-0.17-8.94-0.17c-7.9,0-15.73,0.35-23.49,1.04
		c-1.85,0.13-3.66,0.3-5.45,0.5c-1.8,0.2-3.79,0.42-5.67,0.67c-1.88,0.25-3.79,0.5-5.64,0.81c-1.85,0.3-3.73,0.59-5.62,0.92
		c-1.59,0.25-3.24,0.54-4.83,0.87c-3.95,0.77-7.86,1.62-11.75,2.53c-1.81,0.42-3.62,0.87-5.42,1.38c-1.8,0.5-3.61,0.97-5.39,1.48
		c-2.97,0.84-5.87,1.68-8.78,2.68l0,0c-2.35,0.81-4.75,1.59-7.06,2.4c-0.05-0.01-0.11-0.01-0.17,0c-2.4,0.84-4.7,1.68-7.05,2.63
		l-0.39,0.13c-2.15,0.84-4.28,1.68-6.38,2.6c-2.65,1.09-5.25,2.27-7.82,3.36c-2.18,1.01-4.33,2.03-6.43,3.07
		c-2.1,1.04-4.53,2.27-6.71,3.36L554,56.42c-2.15,1.12-4.28,2.32-6.38,3.52c-2.1,1.21-4.33,2.48-6.48,3.83l0,0
		c-2.03,1.23-3.99,2.43-5.97,3.69c-0.76,0.47-1.48,0.97-2.23,1.48c-2.1,1.34-4.11,2.74-6.18,4.16c-2.52,1.68-4.95,3.52-7.38,5.34
		c-2.15,1.6-4.25,3.22-6.31,4.87c-11.88,9.47-22.92,19.94-33.01,31.3c-3.57,3.94-6.93,7.97-10.2,12.1
		c-2.79,3.52-5.47,7.1-8.02,10.79c-2.32,3.22-4.55,6.49-6.71,9.82c-2.15,3.36-4.21,6.71-6.21,10.07
		c-9.49,16.24-17.2,33.45-23.02,51.33c-2.05,6.28-3.88,12.67-5.44,19.15s-2.92,13.04-4.01,19.7l0,0c-0.87,5.22-1.59,10.5-2.15,15.84
		c-0.54,5.45-0.92,10.87-1.12,16.43c0.75-0.63,1.47-1.3,2.15-2.01c1.14-1.39,2.19-2.85,3.15-4.36c-0.11,0.19-0.24,0.36-0.37,0.54
		c-0.35,0.54-0.7,1.04-1.04,1.53c-0.55,0.81-1.06,1.49-1.49,2.01l-0.25,0.29c-0.4,0.42-0.81,0.81-1.17,1.16l-0.97,0.86l0,0
		c-0.05,0.49-0.08,0.98-0.08,1.48c0,0.79,0,1.58,0,2.38s0,1.59,0,2.4c0,1.68,0,3.19,0,4.8c0,1.29,0,2.58,0,3.88c0,1.29,0,2.6,0,3.89
		c0,0.62,0,1.21,0,1.85c1.01,28.81,6.71,57.25,16.88,84.22c0.65,1.68,1.36,3.36,2.03,5.03c2.33,5.8,4.86,11.47,7.59,17.03
		c2.1,4.28,4.28,8.51,6.59,12.65c2.62,4.83,5.47,9.58,8.39,14.25c3.69,5.76,7.55,11.38,11.75,16.78c3.86,5.2,7.99,10.29,12.3,15.1
		c5.92,6.76,12.19,13.2,18.78,19.32c1.46,1.36,2.94,2.72,4.43,4.04c4.47,3.99,9.09,7.83,13.84,11.5l0,0
		c2.68,2.15,5.42,4.16,8.19,6.14c2.18,1.58,4.39,3.12,6.61,4.61c2.23,1.5,4.46,2.97,6.71,4.41c1.59,1.01,3.21,1.98,4.83,2.94
		c41.15,24.61,88.2,37.6,136.15,37.59c43.43,0.06,86.21-10.58,124.55-30.99l0,0c8.07-4.31,15.91-9.03,23.49-14.15
		c19.76-13.29,37.64-29.18,53.15-47.26c4.45-5.14,8.66-10.47,12.69-15.93c2.06-2.82,4.08-5.64,5.96-8.52
		c14.25-20.92,25.37-43.8,33.03-67.93c4.69-14.67,8.06-29.72,10.07-44.99c0.81-5.96,1.43-12.02,1.85-18.11l0,0
		c0.34-5.81,0.55-11.6,0.55-17.47C943.59,289.86,943.59,288.57,943.51,287.43z M428.93,272.66c0.02-0.23,0.02-0.47,0-0.7
		c-0.02-0.47-0.1-0.93-0.25-1.38c-0.16-0.44-0.39-0.86-0.69-1.23c-0.38-0.46-0.84-0.85-1.36-1.16c-0.42-0.23-0.89-0.37-1.38-0.39
		c1.09,0.1,2.09,0.66,2.74,1.54C428.76,270.28,429.1,271.48,428.93,272.66z M447.83,311.26c-2.4-0.17-4.78-0.53-7.13-1.06
		c-1.11-0.28-2.17-0.71-3.15-1.29c2.77,1.68,6.71,1.91,10.22,2.3L447.83,311.26z M426.01,276.34c0.27-0.15,0.52-0.31,0.77-0.49
		c-1.32,0.69-2.57,1.52-3.71,2.48c0.85-0.83,1.81-1.52,2.87-2.05L426.01,276.34z M425.39,286.09c-0.71-0.51-1.35-1.12-1.88-1.81
		c-0.35-0.43-0.66-0.9-0.91-1.39c-0.45-0.9-0.59-1.93-0.4-2.92c0.05-0.16,0.11-0.31,0.18-0.45
		C421.46,281.84,423.26,284.54,425.39,286.09c1.28,0.92,2.7,1.68,4.01,2.52c-1.38-0.91-2.8-1.71-4.08-2.57L425.39,286.09z
		 M537.82,503.64c-0.15-1.54-0.21-3.09-0.18-4.63c-0.04-5.13,1.54-10.15,4.51-14.33c0.51-0.64,1.07-1.25,1.68-1.81
		c-5.29,4.9-6.86,12.77-6.11,20.72L537.82,503.64z M547.89,479.94c2.4-1.21,5.03-1.88,7.1-3.74c-2.06,1.81-4.78,2.48-7.18,3.68
		L547.89,479.94z M557.81,470.23L557.81,470.23v-0.23c0,0,0-0.13,0-0.18l0,0c0,0,0,0.15,0,0.22s-0.07,0.05-0.08,0.15L557.81,470.23z
		 M558.65,461.4c0,0,0-0.17,0-0.23c0.18-2.42,1.19-4.7,2.85-6.46c2.12-1.65,4.64-2.71,7.3-3.07c0.86-0.2,1.68-0.42,2.53-0.65
		c-3.44,1.01-7.23,1.29-9.83,3.73c-1.72,1.83-2.76,4.2-2.94,6.71L558.65,461.4z M586.89,381.39c0.5-6.53-3.15-12.67-9.13-15.35
		C583.74,368.72,587.39,374.86,586.89,381.39z"/>
	<g class="st4">
		<path d="M842.23,345.31c10.47-9.06,14.7-29.55,1.68-34.28c-4.93-1.8-10.61-0.35-15.49-2.25c-6.38-2.47-9.35-9.63-11.66-16.06
			c-6.04-16.89-12.09-33.79-18.14-50.7c-3.64-10.19-9.18-21.98-19.89-23.49c-6.06-0.86-11.95,2.05-17.97,3.14
			c-20.74,3.78-55.63-46.43-71.42-12.64c-2.2-9.18-17.13-5.74-21.9,2.42c-4.77,8.16-5.77,18.96-13.34,24.63
			c-5.76,4.31-14.21,4.58-18.93,10.07c-3.36,3.84-3.88,9.26-4.3,14.31c-0.81,9.65-1.61,19.31-2.4,28.96
			c-0.65,7.79-1.17,16.13,2.67,22.92c3.84,6.8,13.93,10.57,19.7,5.3c2.65-2.42,3.78-6.09,5.94-8.96c3.67-4.67,9.74-6.76,15.51-5.34
			c4.72,1.24,8.47,4.73,11.75,8.39c27,29.06,36.67,70.48,37.86,110.13c0.22,7.25,0.23,14.72,2.9,21.46
			c3.12,7.92,9.73,14.31,11.66,22.6c1.49,6.36,0.08,13.42,2.82,19.3c5.03,10.94,21.82,11.41,30.96,3.57
			c9.15-7.84,12.32-20.47,14.16-32.37c1.85-11.9,3.05-24.43,9.72-34.47c4.13-6.21,10.2-11.19,13.09-18.07
			c4.03-9.63,1.04-21.04,4.8-30.78C817.06,360.09,831.76,354.37,842.23,345.31z"/>
	</g>
	<g class="st4">
		<path d="M515.59,500.77L515.59,500.77c2.68,2.15,5.42,4.16,8.19,6.14c2.18,1.58,4.39,3.12,6.61,4.61c2.23,1.5,4.46,2.97,6.71,4.41
			c1.59,1.01,3.21,1.98,4.83,2.94c-0.2-0.45-0.42-0.87-0.62-1.34c-5.84-12.8-6.18-31.3,6.38-37.64c2.4-1.21,5.03-1.88,7.1-3.74
			c5.59-5.29,1.01-16.21,6.59-21.5c3.15-2.94,8.07-2.74,11.96-4.5c7.03-3.24,9.3-12.22,8.74-19.95s-3.1-15.34-2.23-23.02
			c1.39-11.63,10.47-23.49,5.25-33.93c-5.84-11.75-22.84-9.83-34.82-15.1c-16.78-7.35-21.82-28.11-32.81-42.76
			c-9.78-13.11-32.64-27.52-50.02-23.49c-12.6,2.85-16.93,10.37-18.22,19.62l-1.68-0.25c-4.67-0.5-10.07-0.77-12.69-4.63
			c-2.99-4.5,0-11.18-3.12-15.57c-1.68-2.32-4.36-3.36-6.71-5.03c-2.35-1.68-4.2-4.61-2.82-7.05c1.14-2.06,4.08-2.48,5.55-4.38
			c1.19-1.55,1.19-3.7,0-5.25c-4.8-5.67-10.07,5.89-12.77,8.63c-0.68,0.71-1.39,1.38-2.15,2.01l0,0c-0.05,0.49-0.08,0.98-0.08,1.48
			c0,1.58,0,3.19,0,4.78s0,3.19,0,4.8c0,1.29,0,2.58,0,3.88c0,1.29,0,2.6,0,3.89c0,0.62,0,1.21,0,1.85
			c1,28.81,6.7,57.26,16.88,84.22c4.52,11.98,9.94,23.6,16.21,34.77c2.62,4.83,5.47,9.58,8.39,14.25
			c3.69,5.76,7.55,11.38,11.75,16.78c3.86,5.2,7.99,10.29,12.3,15.1c5.92,6.76,12.19,13.2,18.78,19.32
			c5.84,5.47,11.93,10.62,18.27,15.54"/>
	</g>
	<g class="st4">
		<path d="M429.48,213.8c5.03-4.25,13.53-4.75,17.33,0.54c2.74,3.79,2.11,8.94,1.39,13.58c-0.97,6.21-1.93,12.43-2.94,18.64
			c-0.47,1.85-0.39,3.79,0.25,5.59c1.85,3.94,8.39,3.19,10.79-0.34s2.23-8.39,1.56-12.64c-0.67-4.25-1.56-8.88,0.12-12.9
			c4.21-10.07,19.11-8.47,27.77-14.99c5.37-4.04,7.77-10.81,10.96-16.78c3.19-5.97,8.52-11.85,15.25-11.55
			c2.27,0,4.5,0.92,6.71,0.84c6.63-0.22,10.51-9.92,5.79-14.62c-1.1-0.88-2.09-1.9-2.94-3.02c-0.94-2.42-0.07-5.17,2.1-6.59
			c2.14-1.31,4.56-2.09,7.06-2.27c5.67-0.94,11.34-1.81,17.02-2.7c6.26-0.96,14.28-4.2,13.42-10.45c-0.76-5.42-8.11-7.85-9.2-13.22
			c-0.09-1.34-0.34-2.67-0.72-3.96c-1.68-3.36-6.88-2.05-10.2-0.2c-1.5-4.28-6.18-6.53-10.46-5.03c-0.71,0.25-1.39,0.6-2.01,1.03
			c-3.36,2.77-3.79,7.64-5.03,11.75c-2.77,10.07-10.79,17.74-18.46,24.84c-2.55,2.35-5.45,4.87-8.94,5.03
			c-3.49,0.17-7.13-3.57-5.54-6.71c1.09-2.11,4.11-3.36,3.83-5.67c-0.42-2.95-5.55-2.74-6.56-5.55
			c2.01-8.39,11.55-11.75,18.86-16.21c8.96-5.38,15.81-13.68,19.38-23.51c0.77-1.51,0.86-3.28,0.25-4.87
			c-1.09-2.1-3.91-2.43-6.31-2.43c-5.62,0-12.64,0.67-14.7,5.92c-1.09,2.8-0.29,6.01-0.96,8.94c-1.98,8.73-13.95,9.7-21.26,14.9
			c-2.85,2.03-5.03,4.83-8.22,6.39c-3.36,1.68-7.4,1.51-11.18,1.8c-0.67,0-1.34,0.13-2.01,0.22c-2.32,3.22-4.55,6.49-6.71,9.82
			c-2.15,3.36-4.21,6.71-6.21,10.07c-9.49,16.24-17.21,33.45-23.02,51.33c-2.05,6.28-3.88,12.67-5.44,19.15
			c-1.56,6.48-2.92,13.06-4.01,19.7c2.6-5.37,3.78-12.02,4.8-16.78C422.5,224.67,424.57,218.09,429.48,213.8z"/>
	</g>
	<g class="st4">
		<path d="M652.12,90.67c2.5-3.36,1.78-8.02,3.36-11.75c2.7-6.31,11.09-8.58,14.01-14.8c1.12-2.4,1.39-5.34,3.36-7.12
			c1.68-1.48,4.04-1.78,5.79-3.12c3.91-2.99,2.3-9.82-1.86-12.47c-10.4-6.71-29.57,1.04-38.6,7.55
			c-11.58,8.39-22.89,18.46-38.28,17.45c-4.25-0.27-8.64-1.43-12.62,0c-3.98,1.43-6.43,7.47-3,10.07c1.9,1.41,4.6,1.02,6.71,2.01
			c3.96,1.83,4.36,7.57,2.43,11.5c-1.93,3.93-5.44,6.85-7.72,10.57c-2.23,3.65-3.23,7.91-2.85,12.17c0.1,2.98,1.39,5.8,3.59,7.82
			c4.8,3.81,12.07,0.54,16.13-4.04c4.06-4.58,6.86-10.54,12.12-13.68c2.71-1.43,5.61-2.45,8.63-3l20.14-4.77
			C646.7,94.21,650.14,93.29,652.12,90.67z"/>
	</g>
	<g class="st4">
		<path d="M943.51,287.43c0-3.83-0.12-7.62-0.35-11.39c-0.2-3.76-0.49-7.52-0.87-11.24c-0.29-3.04-0.62-6.01-1.04-8.99
			c-0.42-2.99-0.89-6.29-1.41-9.4c-1.55-9.3-3.62-18.5-6.19-27.57c-0.98-3.46-2.04-6.89-3.17-10.3c-1.13-3.41-2.32-6.8-3.56-10.15
			l0,0l0,0c-1.34-2.53-2.77-5.03-4.33-7.43c-14.73-23.39-36.16-41.65-52.31-64.05c-5.3-7.27-9.41-13.27-18.78-14.7
			c-13.86-2.15-20.88,5.76-30.71-7.4c-2.65-3.52-7.27-6.71-11.18-4.7c1.01,2.8,2.06,5.62,3.07,8.39c0.26,0.58,0.37,1.21,0.34,1.85
			c-0.22,1.98-3.15,2.53-4.83,1.44c-1.5-1.36-2.75-2.96-3.69-4.75c-4.6-5.94-13.13-7.02-19.07-2.42c-0.3,0.24-0.6,0.49-0.88,0.75
			c-0.26-2.71-1.94-5.07-4.41-6.21c-0.79,4.97-5.46,8.36-10.43,7.57c-0.34-0.05-0.67-0.13-1-0.22c-0.79-2.57,3.78-3.04,5.39-5.22
			s-0.3-4.92-2.2-6.71c-5.08-4.41-11.53-6.92-18.26-7.1c-4.25,0-8.83,0.7-12.52-1.48c-2.15-1.26-3.66-3.36-5.84-4.58
			c-4.67-2.63-10.5-0.2-15.2,2.4c-6.44,3.57-13.07,8.07-15.34,15.1c-2.27,7.03,2.77,16.41,10.07,15.54
			c1.85-0.25,3.78-1.14,5.59-0.64c2.6,0.72,3.78,3.74,3.98,6.43c0.2,2.68,0,5.5,1.23,7.85c1.23,2.35,5.03,3.54,6.54,1.31
			c3.46-3.36,3.04-8.78,2.15-13.42s-1.81-9.92,0.97-13.74c2.79-3.83,10.79-2.6,10.24,2.11c-0.34,2.77-3.47,4.78-3.36,7.6
			c0.12,2.82,3.61,4.36,6.48,4.23c2.87-0.13,5.76-1.12,8.52-0.42c2.77,0.7,5.03,4.33,3.02,6.39c-3.49,3.94-12.55-2.82-14.36,2.1
			c-0.5,1.26,0,2.68-0.13,4.03c-0.34,4.13-5.49,5.64-9.62,6.14c-4.13,0.5-8.47,0.87-12.22-0.89s-6.31-6.71-4.16-10.2
			c-2.1-1.51-5.29,0-6.43,2.35c-0.9,2.45-1.06,5.11-0.47,7.65c-4.36-0.97-8.27,2.72-10.74,6.38c-2.47,3.66-4.92,7.99-9.16,9.28
			c-4.25,1.29-10.17-0.45-12.38,3.36c-2.9,5.03,5.49,11.43,2.55,16.43c-1.68,2.82-5.71,2.74-8.89,3.61
			c-8.39,2.4-11.39,14.75-5.64,21.35s17.27,6.21,23.36,0c4.25-4.33,5.96-10.42,9.03-15.62c3.07-5.2,8.86-9.88,14.67-8.21
			c2.23,0.86,4.27,2.14,6.01,3.79c2.8,2.35,5.62,4.7,8.39,7.1c1.8,1.51,3.78,3.36,3.61,5.76c-0.17,1.88-1.68,3.36-2.27,5.03
			c-1.76,5.03,5.59,9.92,10.2,7.15c4.61-2.77,5.14-9.88,1.98-14.25c-4.38-6.04-14.25-9.08-14-16.55c5.03-4.11,12.99,0.2,15.93,6.04
			c2.94,5.84,3.02,12.69,5.5,18.69c2.48,6.01,9.41,11.39,15.2,8.39c-1.51-5.2-2.99-10.37-4.5-15.54c3.69-2.77,7.94,5.3,12.35,3.94
			c2.68-0.84,3.02-4.7,1.85-7.3c-1.17-2.6-3.24-4.78-3.74-7.6c-0.84-5.14,4.88-9.7,10.07-8.86c5.19,0.84,8.86,5.76,9.82,10.82
			c0.19,2.05,0.65,4.07,1.34,6.01c1.95,4.04,6.95,5.25,11.06,6.93s8.39,5.84,6.71,9.97c-0.79,1.8-2.68,3.52-2.01,5.37
			c0.67,1.85,3.07,2.35,3.07,4.11c0,1.17-1.26,1.98-2.35,2.45c-2.77,1.12-5.81,1.51-8.49,2.8c-2.68,1.29-5.12,3.88-4.92,6.81
			c0.34,4.2,5.34,6.21,7.69,9.7c2.35,3.49,1.93,7.74,3.36,11.51c1.34,3.49,4.11,6.21,6.34,9.2c6.96,9.5,8.61,21.71,12,32.97
			c1.53,5.03,4.3,10.76,9.5,11.75c2.9,0.21,5.8-0.37,8.39-1.68c7.52-2.99,15.32-6.18,20.57-12.27s7.06-16.09,1.68-22.1
			c-0.62-0.86-1.53-1.46-2.57-1.68c-1.42,0.09-2.78,0.56-3.94,1.38c-3.83,1.68-8.52,0.3-11.75-2.52s-5.03-6.71-6.98-10.45
			c-2.06-4.16-4.11-8.39-6.21-12.57c2.47-2.1,6.43-1.21,8.98,0.84s4.08,5.03,6.14,7.57c6.26,7.82,16.55,11.26,26.5,12.43
			c2.56,0.13,5.08,0.65,7.48,1.54c7.43,3.36,9.58,14.38,17.44,16.78c2.18,0.67,4.61,0.54,6.71,1.51c3.1,1.46,4.65,5.03,5.59,8.39
			c1.68,6.18,2.3,12.69,4.9,18.58c2.6,5.89,7.82,11.21,14.2,11.29c4.05-0.1,7.89-1.81,10.67-4.75l0,0
			c0.34-5.81,0.55-11.6,0.55-17.47C943.59,289.86,943.59,288.57,943.51,287.43z"/>
	</g>
	<g class="st4">
		<path d="M836.07,397.65c-3.96,0.79-4.75,3.1-6.9,6.04c-2.8,3.81-6.8,7.64-9.35,11.39c-4.33,6.38-0.44,16.33-6.11,21.7
			c-1.28,0.94-2.51,1.94-3.69,3c-2.14,2.95-1.54,7.07,1.36,9.28c2.97,2.01,6.85,2.07,9.88,0.17c2.97-1.92,5.13-4.87,6.07-8.27
			c0.74-2.4,1.16-5.14,3.05-6.71c3.26-2.85,8.31-0.74,12.59-1.34C861.19,430.24,853.37,394.19,836.07,397.65z"/>
	</g>
</g>
<g id="freepik--Character--inject-200">
	<path class="st5" d="M543.38,448.68c0,0-13.98,3.1-21.82,28.98c-7.84,25.88-39.33,137.69-34.17,163.06
		c5.17,25.37,59.76,57.06,73.22,60.63l22.03-61.15l-27.35-18.85l10.86-60.93L543.38,448.68z"/>
	<path class="st5" d="M810.72,756.56c-0.81-2.9-15.35-124.18-15.35-124.18l9.46-195.1l-81.17-28.53l-12.8-9.75l-81.59,0.96
		l-9.25,13.76l-77.19,35.16l26.98,168.97l0.52,111.81l-0.74,26.85L810.72,756.56z"/>
	<path class="st5" d="M804.83,437.29c0,0,19,2.67,30.09,35.95s37.17,154.24,38.85,162.56c1.68,8.32,2.65,42.69-26.31,54.57
		c-27.82,11.41-58.03,0-58.03,0v-61.23l12.22-13.31l-4.78-21.6L804.83,437.29z"/>
	<path class="st6" d="M555.51,621.32c0,0.17-2.7-1.17-7.22-2.58c-2.64-0.82-5.33-1.45-8.05-1.9c-3.33-0.51-6.7-0.76-10.07-0.76
		c-3.38,0.07-6.74,0.4-10.07,0.99c-2.71,0.51-5.39,1.21-8,2.1c-4.48,1.51-7.06,2.9-7.15,2.75c0.55-0.41,1.15-0.77,1.78-1.06
		c0.71-0.39,1.43-0.75,2.18-1.06c0.87-0.37,1.85-0.86,2.99-1.23c2.62-0.97,5.31-1.74,8.05-2.3c6.74-1.35,13.68-1.43,20.46-0.23
		c2.76,0.48,5.47,1.18,8.12,2.1c1.14,0.35,2.11,0.81,3,1.16c0.75,0.29,1.48,0.63,2.2,1.01
		C554.36,620.59,554.95,620.93,555.51,621.32z"/>
	<path class="st6" d="M555.9,621.09c-0.13,0.12-1.68-1.93-4.9-4.67c-1.84-1.59-3.8-3.04-5.86-4.35c-5.07-3.18-10.68-5.39-16.55-6.53
		c-2.39-0.46-4.82-0.74-7.25-0.84c-4.16-0.13-6.71,0.23-6.71,0c0.58-0.2,1.18-0.31,1.8-0.35c0.71-0.13,1.43-0.2,2.15-0.23
		c0.82,0,1.78-0.13,2.84-0.08c2.48-0.01,4.95,0.21,7.38,0.65c2.99,0.54,5.91,1.37,8.74,2.47c2.82,1.14,5.52,2.54,8.07,4.18
		c2.07,1.37,4.02,2.92,5.82,4.63c0.71,0.63,1.38,1.3,2.01,2.01c0.51,0.53,0.98,1.09,1.41,1.68
		C555.25,620.1,555.6,620.58,555.9,621.09z"/>
	<path class="st6" d="M856.38,619.16c-0.99-0.35-1.96-0.76-2.9-1.23c-1.85-0.81-4.53-2-7.9-3.24c-3.95-1.48-8.01-2.64-12.15-3.46
		c-2.44-0.48-4.92-0.79-7.4-0.94c-2.64-0.18-5.3-0.03-7.9,0.47c-9.24,1.79-17.6,6.68-23.69,13.86c-1.74,2.23-3.13,4.73-4.11,7.38
		c-0.25,1.01-0.56,2.01-0.94,2.99c0.01-0.27,0.05-0.54,0.12-0.81c0.1-0.52,0.23-1.29,0.49-2.28c0.89-2.75,2.23-5.33,3.96-7.65
		c6.07-7.46,14.57-12.54,24.01-14.35c2.68-0.51,5.42-0.67,8.14-0.47c2.52,0.16,5.02,0.5,7.48,1.01c4.17,0.86,8.26,2.09,12.22,3.68
		c3.36,1.33,6.02,2.58,7.84,3.51c0.91,0.45,1.59,0.82,2.06,1.09C856.16,618.99,856.39,619.06,856.38,619.16z"/>
	<path class="st6" d="M839.18,607.68c0,0.15-2.3-0.89-6.13-1.68c-10.1-2.1-20.61,0.53-28.53,7.15c-3,2.5-4.5,4.46-4.61,4.36
		c0.25-0.52,0.58-1,0.97-1.43c0.98-1.21,2.07-2.33,3.24-3.36c7.91-7.05,18.78-9.77,29.08-7.28c1.53,0.37,3.02,0.86,4.46,1.48
		C838.21,607.1,838.72,607.35,839.18,607.68z"/>
	<path class="st6" d="M699.26,483.79c-0.24-0.12-0.46-0.27-0.67-0.44l-1.9-1.31c-2.42-1.61-4.92-3.1-7.48-4.46
		c-3.36-1.76-7.42-3.66-12.08-5.92c-5.25-2.45-10.24-5.43-14.88-8.89l0.59-0.1c-4.36,7.33-9.2,15.44-14.28,24.01l-0.52,0.86
		l-0.29-0.97c-0.34-1.17-0.7-2.45-1.06-3.73c-4.88-16.83-10.91-33.3-18.06-49.3c-2.74-6.14-5.03-11.04-6.71-14.43L620,415.2
		c-0.2-0.4-0.35-0.74-0.49-1.02c-0.06-0.11-0.11-0.23-0.13-0.35c0,0,0.08,0.1,0.22,0.32l0.55,0.97c0.49,0.87,1.19,2.15,2.06,3.83
		c1.68,3.36,4.21,8.21,7.03,14.33c7.37,15.96,13.54,32.44,18.46,49.32c0.37,1.28,0.72,2.55,1.06,3.73l-0.79-0.1
		c5.12-8.54,9.97-16.65,14.36-23.96l0.22-0.39l0.35,0.27c4.59,3.46,9.51,6.45,14.7,8.93c4.61,2.3,8.73,4.26,12,6.09
		c2.56,1.41,5.03,2.97,7.4,4.68c0.82,0.59,1.43,1.09,1.85,1.41C699.01,483.41,699.14,483.59,699.26,483.79z"/>
	<path class="st6" d="M728.82,411.39c0.17,0.44,0.3,0.9,0.39,1.36c0.21,0.97,0.51,2.28,0.91,3.93c0.77,3.49,1.86,8.39,3.19,14.45
		c1.33,6.06,2.94,13.42,4.58,21.46c0.88,4.25,1.44,8.57,1.68,12.9c0.3,4.7-0.34,9.41-1.86,13.86c-0.27,0.84-0.67,1.68-0.99,2.4
		l-0.32,0.79l-0.45-0.76c-5.26-9.08-9.75-18.59-13.42-28.43l0.65,0.1l-15.24,20.34l-4.31,5.67l-1.17,1.48
		c-0.27,0.34-0.4,0.5-0.42,0.49c0.08-0.2,0.19-0.39,0.34-0.55l1.06-1.54c1.02-1.41,2.42-3.36,4.16-5.81l15.02-20.51l0.42-0.57
		l0.23,0.65c3.75,9.76,8.28,19.21,13.54,28.24h-0.77c0.32-0.76,0.69-1.51,0.96-2.32c1.49-4.35,2.11-8.94,1.83-13.53
		c-0.25-4.3-0.81-8.57-1.68-12.79c-1.68-8.07-3.14-15.34-4.4-21.48l-2.92-14.52c-0.32-1.68-0.55-2.97-0.74-3.96
		C728.96,412.32,728.88,411.86,728.82,411.39z"/>
	<path class="st7" d="M846.31,515.2c0,0-0.3,0-0.87,0h-2.53l-9.73-0.18c-8.39-0.17-20.69-0.4-35.83-0.57
		c-30.21-0.4-72.02-0.54-118.17-0.64c-46.15-0.1-87.97-0.34-118.22-0.91c-15.1-0.23-27.35-0.57-35.81-0.84l-9.73-0.35l-2.57-0.12
		c-0.29,0.02-0.57,0.02-0.86,0h0.86h2.53l9.73,0.18c8.39,0.17,20.69,0.39,35.83,0.57c30.21,0.39,72.02,0.54,118.21,0.64
		c46.18,0.1,87.93,0.34,118.19,0.89c15.1,0.25,27.37,0.57,35.81,0.86l9.75,0.35l2.52,0.1L846.31,515.2z"/>
	<path class="st7" d="M560.85,625.87c-0.71,0.54-1.46,1.03-2.25,1.44c-0.74,0.44-1.68,0.97-2.63,1.68c-0.96,0.7-2.2,1.39-3.36,2.32
		c-2.93,2.07-5.73,4.31-8.39,6.71c-6.54,5.87-12.19,12.65-16.78,20.14c-1.87,3.05-3.55,6.2-5.03,9.45
		c-0.69,1.36-1.19,2.65-1.68,3.76c-0.49,1.11-0.87,2.1-1.16,2.9c-0.28,0.85-0.63,1.68-1.04,2.47c0.17-0.88,0.4-1.74,0.7-2.58
		c0.25-0.82,0.57-1.83,1.02-2.95c0.45-1.12,0.91-2.47,1.56-3.86c1.45-3.3,3.1-6.5,4.95-9.6c2.3-3.77,4.87-7.38,7.69-10.79
		c2.86-3.37,5.95-6.54,9.25-9.48c2.72-2.37,5.58-4.56,8.58-6.58c1.26-0.89,2.47-1.58,3.51-2.22c1.04-0.64,1.96-1.14,2.74-1.53
		C559.26,626.66,560.04,626.23,560.85,625.87z"/>
	<path class="st7" d="M801.29,694.29c0,0.25-51.25-0.13-114.43-0.86s-114.45-1.49-114.45-1.68s51.23,0.13,114.45,0.86
		C750.07,693.33,801.29,694.05,801.29,694.29z"/>
	<path class="st7" d="M867.99,666.15c-0.08,0-0.18-1.38-0.54-3.83c-0.51-3.46-1.37-6.86-2.57-10.15c-1.77-4.88-4.25-9.47-7.35-13.63
		c-7.59-10.34-18.93-17.3-31.58-19.38c-5.11-0.89-10.32-1.02-15.47-0.39c-3.48,0.42-6.9,1.19-10.22,2.3
		c-2.35,0.81-3.62,1.34-3.66,1.26c0.28-0.18,0.58-0.34,0.89-0.45c0.86-0.42,1.75-0.8,2.65-1.12c3.31-1.24,6.75-2.11,10.25-2.58
		c18.39-2.83,36.83,4.85,47.78,19.9c3.12,4.23,5.57,8.91,7.28,13.88c1.17,3.34,1.95,6.8,2.33,10.32c0.18,1.24,0.15,2.22,0.2,2.87
		C868.03,665.48,868.04,665.81,867.99,666.15z"/>
	<path class="st7" d="M649.15,433.48c-1.76,2.97-3.77,5.77-6.01,8.39c-2.01,2.79-4.26,5.4-6.71,7.8c1.76-2.97,3.77-5.77,6.01-8.39
		C644.45,438.5,646.7,435.89,649.15,433.48z"/>
	<path class="st7" d="M716.66,432.4c1.15-1.08,2.41-2.03,3.76-2.85l0.2-0.15l0.22,0.18c1.53,1.38,3.47,3.15,5.57,5.12
		c2.47,2.33,4.67,4.46,6.23,6.04c0.91,0.8,1.72,1.7,2.4,2.7c-1.02-0.64-1.97-1.39-2.82-2.25c-1.68-1.46-3.94-3.52-6.41-5.86
		c-2.08-1.96-3.98-3.79-5.44-5.25h0.42C719.5,431.01,718.12,431.79,716.66,432.4z"/>
	<path class="st6" d="M554.64,505.37c0.1,0.33,0.17,0.67,0.22,1.01c0.12,0.77,0.29,1.68,0.47,2.94c0.39,2.67,0.92,6.33,1.68,10.81
		l4.92,35.71c3.56,26.85,6.07,45.76,6.71,50.34c0.01,0.03,0.01,0.06,0,0.08l0,0c-0.01-0.04-0.01-0.08,0-0.12
		c-0.08-0.25-0.14-0.5-0.18-0.76c-0.15-0.65-0.34-1.68-0.55-2.92c-0.44-2.55-1.01-6.24-1.68-10.79c-1.36-9.13-3.14-21.82-5.03-35.71
		c-1.9-13.89-3.54-26.58-4.68-35.74c-0.54-4.5-0.99-8.17-1.31-10.84c-0.12-1.21-0.23-2.18-0.3-2.95
		C554.76,506.09,554.67,505.73,554.64,505.37z"/>
	<path class="st6" d="M722.77,756.09c-0.05-0.23-0.08-0.47-0.08-0.7c0-0.5-0.1-1.17-0.17-2.05c-0.12-1.85-0.29-4.5-0.5-7.87
		c-0.42-6.9-1.04-16.78-1.81-29c-1.58-24.47-3.99-58.26-7.23-95.55c-3.24-37.29-6.71-71-9.43-95.37
		c-1.36-12.17-2.47-22.02-3.22-28.86c-0.39-3.36-0.67-6.02-0.87-7.85c-0.08-0.87-0.15-1.54-0.2-2.05c-0.02-0.23-0.02-0.47,0-0.7
		c0.07,0.22,0.11,0.45,0.13,0.69c0,0.5,0.17,1.17,0.29,2.05c0.25,1.83,0.59,4.46,1.04,7.82c0.87,6.8,2.08,16.66,3.51,28.83
		c2.84,24.37,6.41,58.08,9.68,95.38c3.27,37.3,5.55,71.08,6.98,95.65c0.7,12.23,1.24,22.15,1.54,29c0.13,3.36,0.25,6.04,0.34,7.9
		c0,0.87,0,1.54,0,2.05S722.77,756.09,722.77,756.09z"/>
	<path class="st6" d="M798.53,487.18c0.23,0,0,29.79-0.37,66.52c-0.37,36.73-1.01,66.54-1.26,66.52c-0.25-0.02,0-29.79,0.39-66.52
		S798.28,487.16,798.53,487.18z"/>
	<path class="st8" d="M629.35,406.61l31.01,42.1l40.04,32.17l18.06-31.43l-3.09-29.37l-2.57-24.62c0,0,32.19-8.05,29.62-40.74
		c-1.24-15.79-6.44-48.08-11.48-77.19c-5.42-31.38-34.04-53.33-65.75-50.44l-3.14,0.29c-33.8,5.03-48.36,36.6-42.36,70.25
		l9.65,109.08"/>
	<path class="st9" d="M712.83,395.43c0,0-20.49,3.56-43.63-8.22c0,0,12.2,22.59,44.5,16.68L712.83,395.43z"/>
	<path class="st6" d="M722.26,304.18c0.21,2.49-1.58,4.71-4.06,5.03c-2.43,0.42-4.74-1.2-5.16-3.63c-0.01-0.05-0.02-0.1-0.02-0.14
		c-0.22-2.5,1.57-4.72,4.06-5.03c2.43-0.42,4.74,1.2,5.16,3.63C722.25,304.08,722.26,304.13,722.26,304.18z"/>
	<path class="st6" d="M725.7,292.31c-0.52,0.65-4.3-1.68-9.31-1.16c-5.02,0.52-8.39,3.36-9.06,2.75c-0.29-0.25,0.2-1.41,1.68-2.72
		c2.03-1.7,4.54-2.74,7.18-2.95c2.61-0.25,5.23,0.34,7.48,1.68C725.33,290.97,725.96,292.01,725.7,292.31z"/>
	<path class="st6" d="M674.25,308.71c0.24,2.53-1.56,4.79-4.08,5.12c-2.44,0.41-4.75-1.23-5.17-3.67c-0.01-0.04-0.01-0.07-0.02-0.11
		c-0.26-2.52,1.54-4.79,4.06-5.12c2.46-0.41,4.78,1.25,5.19,3.71C674.25,308.67,674.25,308.69,674.25,308.71z"/>
	<path class="st6" d="M675.61,295.45c-0.45,0.7-4.45-1.16-9.38-0.15s-8.05,4.21-8.73,3.73c-0.3-0.22,0-1.41,1.39-2.89
		c1.84-1.91,4.23-3.21,6.83-3.71c2.57-0.53,5.23-0.23,7.62,0.86C675.06,294.14,675.8,295.13,675.61,295.45z"/>
	<path class="st6" d="M697.73,335.06c0-0.29,3.02-1.11,8.02-2.22c1.26-0.25,2.45-0.62,2.58-1.51c-0.01-1.33-0.42-2.63-1.19-3.73
		l-4.68-9.4c-6.53-13.42-11.38-24.5-10.82-24.75s6.26,10.4,12.79,23.81l4.53,9.48c0.95,1.49,1.35,3.28,1.12,5.03
		c-0.29,0.95-1.01,1.71-1.95,2.06c-0.69,0.27-1.41,0.44-2.15,0.5C700.93,335.02,697.78,335.34,697.73,335.06z"/>
	<path class="st6" d="M674.29,273.74c-0.37,1.41-5.44,1.23-11.26,2.47c-5.82,1.24-10.44,3.36-11.33,2.13
		c-0.4-0.55,0.32-1.91,2.11-3.36c4.89-3.76,11.24-5.05,17.22-3.51C673.26,272.11,674.45,273.08,674.29,273.74z"/>
	<path class="st6" d="M723.71,282.55c-0.77,1.23-4.35,0.35-8.51,0.67s-7.6,1.48-8.52,0.35c-0.4-0.55,0-1.68,1.49-2.95
		c3.98-3.03,9.4-3.36,13.71-0.82C723.46,280.84,724.04,281.96,723.71,282.55z"/>
	<path class="st8" d="M624.56,321.5c-0.57-0.18-23.04-4.6-20.29,17.67c2.75,22.27,24.52,14.9,24.48,14.26
		C628.73,352.79,624.56,321.5,624.56,321.5z"/>
	<path class="st9" d="M620.92,345.83c-0.12,0-0.35,0.32-0.97,0.7c-0.87,0.5-1.91,0.65-2.89,0.42c-2.47-0.57-4.9-4.06-5.5-8.07
		c-0.29-1.9-0.15-3.83,0.4-5.67c0.24-1.47,1.2-2.73,2.55-3.36c0.89-0.35,1.9-0.03,2.42,0.77c0.37,0.59,0.29,1.06,0.4,1.07
		c0.12,0.02,0.44-0.42,0.15-1.33c-0.2-0.54-0.57-0.99-1.06-1.29c-0.67-0.39-1.47-0.49-2.22-0.3c-1.81,0.61-3.18,2.1-3.62,3.96
		c-0.71,2.04-0.9,4.23-0.57,6.36c0.69,4.48,3.51,8.39,6.83,8.93c1.26,0.2,2.54-0.18,3.47-1.04
		C620.94,346.38,621.01,345.86,620.92,345.83z"/>
	<path class="st6" d="M731.09,239.05c-1.38-4.25-4.95-8.09-9.4-8.39c1.78-5.35-1.1-11.12-6.45-12.91c-3.69-1.23-7.77-0.25-10.5,2.52
		c-0.35-6.83-9.21-11.55-15.1-8.02c-0.12-4.87-4.16-8.73-9.03-8.61c-3.42,0.08-6.48,2.13-7.86,5.26c-5.4-7.59-18.58-7.47-23.83,0.22
		c-9.62-2.14-19.31,3.24-22.59,12.54c-7.44,1.21-13.4,6.79-15.1,14.13c-7.36,1.31-12.27,8.34-10.97,15.7
		c0.41,2.31,1.41,4.48,2.91,6.28c-5.39,3.24-5.76,12.28-0.62,15.93c-4.64,2.82-6.12,8.87-3.3,13.51c1.18,1.95,3.01,3.42,5.16,4.18
		c-3.24,0.7-4.16,5.17-2.9,8.24c1.26,3.07,3.88,5.4,5.45,8.39c1.31,2.42,1.86,5.17,3,7.65c2.24,4.71,6.44,8.21,11.48,9.57
		l-0.52,0.72c-0.32,2.9,3.84,4.51,6.43,3.14c2.58-1.38,3.88-4.3,5.2-6.91c1.78-2.85,3.09-5.98,3.88-9.25
		c0.52-3.36-0.76-7.22-3.86-8.49c3.74-1.68,5.87-5.79,6.24-9.85c0.12-4.09-0.49-8.16-1.8-12.03c-1.59-5.81-3.18-11.61-4.77-17.4
		c8.24-1.07,15.22-6.61,18.12-14.4c6.17,3.47,13.99,1.28,17.46-4.9c0.24-0.43,0.46-0.87,0.65-1.33c3.79,7.89,13.01,11.55,21.18,8.39
		c-0.47,4.7,8.21,8.24,12.87,9.04c4.67,0.81,10.07-2.92,10.07-2.92s8.24,3.91,12.37,1.83c4.13-2.08,9.21-7.95,6.06-12.13
		C731.81,245.56,731.83,242.24,731.09,239.05z"/>
	<path class="st5" d="M601.46,273.82c0.2-0.08,0.49,1.51,2.47,2.68c1.13,0.67,2.5,0.79,3.73,0.34c1.51-0.61,2.58-1.98,2.8-3.59
		l0.15-1.36l1.12,0.82c2.6,1.89,6.24,1.32,8.14-1.27c0.96-1.31,1.32-2.96,1.01-4.55l-0.27-1.31l1.26,0.4
		c2.79,0.87,5.79-0.46,7.03-3.1c0.41-1.08,0.69-2.21,0.84-3.36c0.1,0,0.81,1.36,0,3.73c-0.52,1.39-1.49,2.57-2.75,3.36
		c-1.68,1.03-3.71,1.32-5.6,0.81l0.97-0.91c0.89,3.94-1.58,7.86-5.52,8.75c-2.13,0.48-4.36-0.01-6.09-1.35l1.26-0.54
		c-0.34,2.17-1.86,3.97-3.94,4.67c-1.59,0.5-3.33,0.21-4.68-0.77C601.2,275.63,601.32,273.75,601.46,273.82z"/>
	<path class="st5" d="M600.1,295.52c0.8,0.32,1.62,0.56,2.47,0.72c2.23,0.25,4.37-0.9,5.4-2.89l0.37-0.82l0.67,0.6
		c1.62,1.36,3.84,1.77,5.84,1.07c2.31-0.9,3.8-3.16,3.71-5.64v-1.48l1.33,0.7c0.33,0.18,0.69,0.31,1.06,0.37
		c1.72,0.36,3.48-0.41,4.38-1.91c0.76-1.41,0.68-3.13-0.22-4.46l-0.96-1.31l1.59,0.1c1.83,0.12,3.64-0.49,5.03-1.68
		c1.09-0.96,1.86-2.23,2.22-3.64c0.21-1.3,0.26-2.63,0.15-3.94c0.08,0,1.07,1.34,0.72,4.13c-0.25,1.66-1.03,3.2-2.23,4.38
		c-1.61,1.52-3.75,2.35-5.96,2.3l0.64-1.21c1.32,1.8,1.49,4.19,0.45,6.16c-1.23,2.16-3.71,3.28-6.14,2.79
		c-0.54-0.11-1.07-0.3-1.56-0.55l1.17-0.74c0.1,3.2-1.87,6.09-4.88,7.17c-2.54,0.81-5.31,0.17-7.23-1.68l1.04-0.2
		c-0.69,1.37-1.9,2.41-3.36,2.89c-1.08,0.37-2.24,0.44-3.36,0.2C600.55,296.53,599.95,295.55,600.1,295.52z"/>
	<path class="st5" d="M686.69,211.92c-0.81-0.56-1.7-0.97-2.65-1.23c-1.1-0.22-2.25-0.05-3.24,0.49c-1.3,0.73-2.19,2.01-2.43,3.47
		l-0.18,1.31l-0.77-1.09c-1.69-2.24-4.41-3.47-7.22-3.24c-3.4,0.39-6.17,2.92-6.86,6.28l-0.3,1.51l-1.04-1.14
		c-2.1-2.15-5.06-3.26-8.05-3c-3.22,0.33-6.05,2.27-7.52,5.15c-0.62,1.15-0.98,2.42-1.07,3.73l-0.08,0.92l-0.89-0.13
		c-4.36-0.61-8.58,1.85-10.2,5.94c-1.25,3.63-0.27,7.65,2.52,10.29l0.94,0.84l-1.21,0.34c-4.87,1.31-8.09,5.93-7.64,10.96
		c0.24,1.85,0.81,3.65,1.68,5.3c0,0-0.44-0.32-0.97-1.16c-0.76-1.24-1.25-2.62-1.46-4.06c-0.34-2.3,0.06-4.65,1.14-6.71
		c1.46-2.74,3.95-4.78,6.91-5.67l-0.27,1.17c-4.54-3.91-5.05-10.75-1.14-15.29c2.46-2.86,6.24-4.23,9.97-3.62l-0.96,0.77
		c0.4-5.45,4.64-9.84,10.07-10.42c3.5-0.31,6.95,1.03,9.33,3.61l-1.33,0.37c0.97-4.94,5.76-8.15,10.7-7.18
		c2.35,0.46,4.43,1.84,5.78,3.82l-0.96,0.22c0.34-1.76,1.48-3.26,3.09-4.04c1.92-0.93,4.21-0.59,5.79,0.84
		C686.59,211.65,686.72,211.9,686.69,211.92z"/>
	<path class="st6" d="M740.4,336.92c-3.41-1.86-7.68-0.6-9.54,2.81c-0.22,0.4-0.39,0.81-0.53,1.24c-3.06-3.74-8.56-4.29-12.3-1.23
		c-1.52,1.24-2.58,2.96-3,4.88c-1.68-4.67-9.33-5.47-12.03-1.29c-1.42-1.95-3.93-2.77-6.23-2.05c0.19-3.04-2.12-5.66-5.17-5.85
		c-1.53-0.1-3.03,0.45-4.15,1.51c-2.9-4.05-8.52-4.98-12.57-2.09c-0.3,0.21-0.58,0.44-0.85,0.69c-1.06-2.57-4-3.8-6.57-2.74
		c-1.57,0.64-2.71,2.03-3.03,3.7c-2.41-2.64-6.27-3.4-9.5-1.86c-0.34-2.97-3.01-5.1-5.98-4.76c-0.36,0.04-0.71,0.12-1.05,0.23
		c0.6-2.82-3.52-3.81-5.72-5.66c-0.97-0.84-1.68-2-2.7-2.75c-1.02-0.76-2.79-0.81-3.36,0.34c0.43-2.52-1.27-4.91-3.79-5.34
		c-2.16-0.37-4.28,0.83-5.08,2.87c-0.36,1.29-0.54,2.63-0.52,3.98c-0.35,4.33-2.43,9.57,0.86,12.4c0.59,0.49,1.33,0.89,1.59,1.59
		c0.49,1.23-0.65,2.48-0.67,3.79c-0.02,1.31,1.46,2.58,2.16,3.94c1.04,1.98,0.34,4.4,0.32,6.71c-0.02,2.32,1.43,5.03,3.66,4.67
		c-1.43,3.52-0.14,7.56,3.07,9.6c-1.36,4.01,0.79,8.37,4.8,9.73c0.08,0.03,0.16,0.05,0.23,0.08c-1.3,1.5-1.3,3.72,0,5.22
		c1.32,1.39,2.97,2.43,4.8,3.02c-1.4,1.16-1.62,3.22-0.5,4.65c1.19,1.31,2.8,2.16,4.55,2.4c0.76,0.07,1.47,0.4,2.01,0.92
		c0.87,1.11-0.1,2.75,0.2,4.13c0.47,2.11,3.51,2.55,4.53,4.45c1.02,1.9,0,4.21,1.49,5.45c0.97,0.79,2.4,0.55,3.59,0.89
		c2.15,0.6,3.22,2.9,4.67,4.6c2.74,3.21,7.08,4.4,11.21,5.17c2.1,0.4,4.21,0.72,6.34,0.99c4.23,0.52,8.49,0.76,12.74,1.01
		c2.11,0.12,4.7,0,5.69-1.86c2.96,2.75,7.59,2.58,10.34-0.38c0.48-0.51,0.88-1.09,1.19-1.72c3.84,0.77,7.67-1.06,11.16-2.84
		l3.61-1.85c3.59-1.85,7.59-4.16,8.39-8.11c4.34-1.18,6.9-5.65,5.73-9.98c-0.14-0.52-0.33-1.03-0.58-1.51
		c1.68,0.39,3.24-1.43,3.36-3.17c-0.04-1.75-0.36-3.49-0.97-5.14c-1.68-6.93,1.56-14.3,0.17-21.3c-0.99-4.9-4.23-9.6-3.12-14.47
		c0.35-0.97,0.53-1.99,0.52-3.02c-0.13-1.02-1.14-2.03-2.11-1.68c0.68-2.44-0.74-4.96-3.18-5.65c-0.6-0.17-1.24-0.21-1.86-0.13"/>
	<path class="st7" d="M683.28,339.87c0.81-0.13,1.31,5.32,6.33,8.76c5.02,3.44,10.76,2.32,10.87,3.07c0.1,0.34-1.21,1.17-3.64,1.46
		c-3.19,0.34-6.39-0.46-9.05-2.25c-2.57-1.72-4.37-4.36-5.03-7.38C682.43,341.26,682.91,339.87,683.28,339.87z"/>
	<path class="st5" d="M653.8,380.28c-1.39-3.69-2.34-7.53-2.82-11.44c-0.18-3.94,0.12-7.88,0.89-11.75
		c-0.58,1.04-0.98,2.18-1.17,3.36c-0.63,2.78-0.83,5.65-0.59,8.49c0.23,2.84,0.9,5.63,1.98,8.27
		C652.48,378.32,653.06,379.36,653.8,380.28z"/>
	<path class="st5" d="M648.12,372.7c-0.51-0.77-0.98-1.57-1.41-2.4c-0.76-2.1-1.08-4.33-0.94-6.56c0-5.32,1.28-9.5,1.02-9.58
		c-1.34,3.01-2,6.27-1.91,9.57c-0.16,2.35,0.28,4.71,1.28,6.85C647.08,372.19,648.07,372.78,648.12,372.7z"/>
	<path class="st5" d="M642.35,368.52c-3.21-6-3.92-13.02-1.98-19.53c-0.61,0.83-1.02,1.78-1.21,2.79c-0.65,2.38-0.85,4.85-0.59,7.3
		c0.25,2.45,0.96,4.84,2.08,7.03C641.05,367.01,641.63,367.83,642.35,368.52z"/>
	<path class="st5" d="M735.44,396.31c0,0.1,1.46-0.37,2.99-2.18c1.79-2.41,2.95-5.24,3.36-8.22c0.55-2.94,0.62-5.95,0.2-8.91
		c-0.1-1.23-0.42-2.44-0.94-3.56c0.51,4.09,0.47,8.23-0.13,12.3c-0.41,2.86-1.44,5.6-3.02,8.02
		C737.15,394.68,736.33,395.53,735.44,396.31z"/>
	<path class="st5" d="M730.59,395.42c0.94-0.45,1.77-1.11,2.42-1.93c3.43-3.75,5.06-8.8,4.48-13.84c-0.05-1.04-0.34-2.05-0.82-2.97
		c0,1.01,0.06,2.02,0.2,3.02c0.22,4.85-1.32,9.62-4.33,13.42C731.84,393.84,731.19,394.61,730.59,395.42z"/>
	<path class="st5" d="M707.65,352.49c0.64-1.33,0.7-2.87,0.17-4.25c-0.62-2.38-2.11-3.78-2.27-3.61c-0.15,0.17,0.86,1.68,1.41,3.83
		C707.51,350.61,707.4,352.46,707.65,352.49z"/>
	<path class="st5" d="M701.91,351.5c0.15,0.17,1.48-1.17,1.68-3.36c0.28-1.31-0.1-2.67-1.01-3.64c-0.23,0.12,0.34,1.68,0.13,3.56
		S701.69,351.35,701.91,351.5z"/>
	<path class="st5" d="M696.12,350.11c0.17,0.15,1.38-1.09,1.8-3.12c0.42-2.03-0.17-3.64-0.39-3.56c-0.22,0.08-0.08,1.58-0.49,3.36
		C696.64,348.56,695.9,349.96,696.12,350.11z"/>
	<path class="st5" d="M691.76,345.73c0.22,0.1,0.86-0.72,1.19-1.93c0.34-1.21,0.22-2.25,0-2.27c-0.22-0.02-0.52,0.91-0.84,2.01
		C691.79,344.65,691.54,345.63,691.76,345.73z"/>
	<path class="st5" d="M688.11,344.1c0.23,0.1,0.92-1.04,2.11-2.1s2.38-1.68,2.32-1.88c-0.07-0.2-1.56,0-2.9,1.23
		C688.3,342.57,687.88,343.95,688.11,344.1z"/>
	<path class="st5" d="M682.61,340.38c0.18,0.18,1.68-1.12,3.79-1.83c2.11-0.7,4.09-0.54,4.14-0.79c-1.4-0.63-3.01-0.63-4.41,0
		C684.64,338.1,683.37,339.05,682.61,340.38z"/>
	<path class="st5" d="M707.19,402.8c0.91-0.91,1.65-1.97,2.18-3.14c2.87-5.58,3.47-12.05,1.68-18.06c-0.3-1.25-0.83-2.43-1.56-3.49
		c-0.13,0,0.42,1.41,0.96,3.66c1.38,5.89,0.79,12.08-1.68,17.6C707.87,401.49,707.08,402.68,707.19,402.8z"/>
	<path class="st5" d="M701.42,402.8c2.22-2.31,3.71-5.23,4.28-8.39c0.85-3.12,0.73-6.42-0.34-9.46c0.18,3.1,0,6.22-0.54,9.28
		C704.01,397.2,702.87,400.08,701.42,402.8z"/>
	<path class="st5" d="M691.2,401.44c0,0.1,0.97-0.29,2.25-1.26c1.64-1.31,2.99-2.93,3.98-4.78c1.01-1.84,1.62-3.87,1.8-5.96
		c0.15-0.86,0.09-1.75-0.18-2.58c-0.35,2.82-1.16,5.56-2.38,8.12C695.19,397.41,693.35,399.59,691.2,401.44z"/>
	<path class="st3" d="M698.95,623.29c0,0-45.06-3.36-69.73,2.75l-1.12,9.35c0,0-19.06-4.31-19.33,12.5
		c-0.27,16.81,0,36.72,22.13,40.93v10.39c0,0,11.14,7.22,34.64,5.77c23.49-1.44,35.73-4.77,35.73-4.77L698.95,623.29z
		 M631.08,676.12c0.05,1.34-0.33,2.66-1.11,3.76c-1.09,1.06-2.68,1.43-4.13,0.94c-1.41-0.5-2.68-1.32-3.71-2.4
		c-6.52-6.24-10.02-15-9.58-24.01c0.04-3.27,1.04-6.45,2.85-9.16c1.89-2.69,5.13-4.12,8.39-3.69c3.17,0.64,6.41,2.03,6.51,6.71
		l0.22,1.68C631.4,658.63,631.59,667.39,631.08,676.12z"/>
	<path class="st8" d="M569.39,646.01c-4.55,3.29-7.85,8.02-9.38,13.42c-1.96,8.39-5.03,29.15,1.39,33.56
		c6.43,4.41,40.09,23.81,47.09,24.65c7,0.84,28.02-0.55,30.56-1.96s4.06-5.92,4.06-5.92c2.16-0.77,7.01-5.27,6.31-5.84
		c-0.7-0.57-5.34-13.74-11.75-16.78c-6.41-3.04-23.83-12.05-25.17-15.1c-1.34-3.05,18.96-1.16,18.96-1.16
		c0.13-5.88-0.04-11.76-0.5-17.62c0,0-21.55-4.5-22.1-5.34s6.16-10.92,8.69-12.33s10.64-0.17,10.64-0.17l1.12-9.35
		c-2.61-1.48-5.32-2.8-8.11-3.93c-2.5-1.1-5.38-0.99-7.79,0.3L569.39,646.01z"/>
	<path class="st9" d="M647.08,699.11c-0.66,0.07-1.33,0.07-2,0l-5.42-0.45l-8-0.81l-4.73-0.5c-1.71-0.18-3.4-0.54-5.03-1.07
		c-0.86-0.25-1.68-0.5-2.5-0.82l-2.32-0.96l-4.41-1.83l-7.53-3.21l-5.03-2.18c-0.62-0.24-1.22-0.55-1.78-0.91
		c0.66,0.11,1.3,0.31,1.91,0.59l5.03,1.93l7.48,2.97l4.41,1.76l2.33,0.96c0.77,0.29,1.68,0.55,2.43,0.79
		c1.63,0.51,3.31,0.84,5.02,0.99l4.73,0.55l8,0.99l5.39,0.74C645.76,698.71,646.43,698.87,647.08,699.11z"/>
	<path class="st9" d="M643.11,709.78c-0.64,0.19-1.3,0.32-1.96,0.39c-1.26,0.2-3.1,0.45-5.4,0.67c-5.99,0.69-12.05,0.47-17.97-0.64
		c-5.93-1.1-11.61-3.26-16.78-6.36c-1.55-0.99-3.02-2.12-4.38-3.36c-0.52-0.42-0.98-0.91-1.38-1.44c0.1-0.13,2.15,1.88,6.07,4.21
		c5.19,2.91,10.83,4.95,16.68,6.02c5.85,1.09,11.82,1.39,17.75,0.91l5.42-0.4C641.81,709.7,642.46,709.7,643.11,709.78z"/>
	<path class="st9" d="M588.2,686.74c0,0.13-0.49,0.29-1.16,0.7c-0.86,0.54-1.54,1.32-1.96,2.25c-0.38,0.94-0.46,1.98-0.22,2.97
		c0.17,0.77,0.4,1.24,0.3,1.31s-0.54-0.29-0.89-1.12c-0.47-1.12-0.47-2.38,0-3.51c0.48-1.11,1.38-1.99,2.5-2.45
		C587.63,686.57,588.2,686.64,588.2,686.74z"/>
	<path class="st9" d="M592.75,671.97c0,0.12-0.55,0.39-1.36,0.97c-2.15,1.53-3.32,4.09-3.07,6.71c0,0.99,0.27,1.68,0.13,1.68
		c-0.13,0-0.5-0.5-0.76-1.58c-0.3-1.42-0.14-2.9,0.47-4.21c0.6-1.32,1.61-2.4,2.89-3.09C592.03,671.9,592.73,671.87,592.75,671.97z"
		/>
	<path class="st9" d="M599.9,650.46c0,0.12-0.65,0.35-1.68,0.94c-1.26,0.74-2.32,1.79-3.09,3.04c-0.74,1.27-1.16,2.71-1.22,4.18
		c0,1.14,0,1.86,0,1.9s-0.45-0.65-0.55-1.88c-0.27-3.32,1.59-6.45,4.65-7.79C599.11,650.36,599.88,650.34,599.9,650.46z"/>
	<path class="st9" d="M608.3,651.93c-0.57-2.18-1.35-4.29-2.35-6.31c-1.83-3.26-3.68-5.74-3.44-5.91c1.74,1.54,3.17,3.41,4.21,5.49
		c0.83,1.45,1.4,3.03,1.68,4.68C608.49,651.14,608.49,651.93,608.3,651.93z"/>
	<path class="st7" d="M699.11,654.4c0,0-0.17-0.32-0.6-0.86c-0.66-0.76-1.54-1.28-2.52-1.49c-1.53-0.37-3.14-0.14-4.51,0.62
		c-1.76,1.13-3.17,2.74-4.06,4.63c-1.12,2.06-1.9,4.55-3.36,7.05c-0.7,1.31-1.62,2.49-2.74,3.47c-1.2,1.03-2.62,1.8-4.14,2.23
		c-3.32,1.03-6.92,0.4-9.7-1.68c-2.97-2.25-4.64-5.82-4.48-9.55c0-1.86,0.42-3.62,0.54-5.35c0.25-1.64-0.05-3.31-0.84-4.77
		c-0.87-1.32-2.23-2.25-3.78-2.58c-1.52-0.38-3.1-0.51-4.67-0.4c-1.54,0-3.09,0.17-4.61,0c-1.5-0.07-2.96-0.47-4.28-1.17
		c-2.35-1.34-4.13-3.48-5.03-6.02c-0.74-2.06-0.97-4.26-0.67-6.43c0.22-1.62,0.66-3.2,1.31-4.7c0.4-0.94,0.87-1.85,1.41-2.72
		c0.17-0.32,0.38-0.62,0.62-0.89c0,0-0.77,1.28-1.68,3.74c-0.58,1.48-0.96,3.03-1.14,4.61c-0.24,2.08,0.02,4.19,0.76,6.16
		c0.88,2.37,2.58,4.35,4.78,5.59c2.38,1.34,5.42,1.12,8.52,0.96c1.65-0.11,3.31,0.02,4.92,0.4c1.76,0.38,3.3,1.44,4.3,2.94
		c0.88,1.61,1.23,3.47,0.97,5.29c-0.12,1.8-0.47,3.56-0.54,5.32c-0.17,3.44,1.38,6.75,4.13,8.83c2.56,1.93,5.89,2.52,8.96,1.59
		c2.79-0.8,5.13-2.72,6.46-5.3c1.36-2.38,2.18-4.87,3.36-6.96c0.97-1.97,2.48-3.63,4.36-4.77c1.49-0.8,3.23-0.99,4.85-0.52
		c1.02,0.25,1.93,0.84,2.57,1.68C698.81,653.66,699,654.02,699.11,654.4z"/>
	<path class="st7" d="M679.61,703.5c0,0,0.35-0.87,0.62-2.53c0.35-2.34-0.08-4.73-1.23-6.8c-1.75-3.02-4.91-4.95-8.39-5.12
		c-2.08,0.1-4.16,0.34-6.21,0.74c-2.37,0.43-4.82-0.18-6.71-1.68c-0.88-0.88-1.47-2.01-1.68-3.24c-0.23-1.14-0.32-2.27-0.47-3.36
		c-0.08-2.02-1.19-3.86-2.94-4.87c-1.62-0.87-3.47-1.19-5.29-0.91c-1.59,0.22-3.11,0.8-4.45,1.68c-1.97,1.32-3.53,3.16-4.51,5.32
		c-0.69,1.53-0.81,2.48-0.89,2.47c-0.04-0.23-0.04-0.46,0-0.69c0.11-0.65,0.28-1.3,0.52-1.91c0.9-2.3,2.46-4.28,4.48-5.69
		c1.4-1.01,3-1.68,4.7-1.96c1.98-0.32,4.01,0,5.79,0.92c0.97,0.52,1.79,1.29,2.37,2.23c0.55,0.99,0.9,2.08,1.02,3.21
		c0.32,2.16,0.29,4.58,1.88,6.06c1.72,1.31,3.92,1.83,6.04,1.43c2.09-0.39,4.2-0.62,6.33-0.69c3.76,0.19,7.15,2.32,8.96,5.62
		c1.16,2.19,1.52,4.72,1.02,7.15c-0.14,0.65-0.35,1.28-0.6,1.9C679.9,703.04,679.78,703.29,679.61,703.5z"/>
	<path class="st7" d="M695.97,700.78c0,0-0.42,0.35-1.38,0.35c-1.34-0.05-2.6-0.66-3.47-1.68c-1.22-1.53-1.92-3.41-1.98-5.37
		c-0.23-2.31-0.23-4.64,0-6.95c0.22-2.35,0.9-4.63,2-6.71c0.92-1.69,2.22-3.16,3.79-4.28c1.05-0.75,2.25-1.28,3.52-1.54
		c0.46-0.12,0.94-0.15,1.41-0.08c-1.64,0.42-3.19,1.14-4.56,2.13c-1.44,1.12-2.62,2.54-3.46,4.16c-1.01,2-1.63,4.18-1.83,6.41
		c-0.22,2.23-0.25,4.48-0.08,6.71c0.04,1.81,0.62,3.56,1.68,5.03c0.77,0.92,1.86,1.52,3.05,1.68
		C695.09,700.72,695.53,700.77,695.97,700.78z"/>
	<path class="st7" d="M697.23,624.35c0.1,0.48,0.1,0.98,0,1.46c-0.19,1.33-0.62,2.61-1.28,3.78c-0.96,1.77-2.36,3.26-4.06,4.33
		c-4.34,2.63-9.86,2.25-13.79-0.96c-1.51-1.31-2.66-2.98-3.36-4.85c-0.5-1.24-0.78-2.57-0.81-3.91c-0.04-0.49,0.02-0.98,0.18-1.44
		c0.12,1.75,0.49,3.48,1.12,5.12c0.75,1.73,1.9,3.26,3.36,4.46c3.7,2.92,8.81,3.27,12.87,0.89c1.61-0.98,2.96-2.34,3.94-3.94
		C696.27,627.74,696.88,626.07,697.23,624.35z"/>
	<path class="st6" d="M799.56,636.81l0.86,6.56l-6.26,7.72l-19.21,27.39l-47.51-6.11l9.67-20.44l6.36-11.14
		c1.63-2.87,4.69-4.63,7.99-4.6"/>
	<path class="st8" d="M787.36,636.58c0,0,11.91-10.59,19.9-8.02c7.99,2.57,30.81,0,30.21,9.68s-4.28,14.83-11.41,13.69
		c-3.6-0.41-7.1-1.48-10.32-3.14c0,0,2.5,0.57,0,9.13c-2.5,8.56-11.65,24.65-15.1,28.44s-4.85,4.2-6.56,3.99
		c-1.71-0.2-8.54,6.34-11.11,6.63c-2.57,0.29-1.43,0-1.43,0c-5.31,4.86-13.16,5.71-19.4,2.11c-11.13-6.11-20.83-8.68-21.68-10.07
		c-0.86-1.39-13.42-13.54-15.67-17.03c-2.25-3.49-8.56-18.61-8.27-20.04c0.29-1.43,6.85-6.71,11.98-1.48c0,0,2.85-2.52,8.54,1.48
		c5.69,3.99,22.54,9.3,22.54,9.3s-2.57-3.07-2.28-5.76c0.29-2.68,2.57-7.25,6.85-6.71s30.63,3.14,30.63,3.14l5.71-8.56l-0.86-6.56
		L787.36,636.58z"/>
	<path class="st9" d="M804.42,670.54c-0.58,0.21-1.18,0.35-1.8,0.44c-1.67,0.3-3.35,0.51-5.03,0.62c-11.2,0.77-22.38-1.66-32.25-7
		c-1.48-0.79-2.92-1.67-4.3-2.63c-0.53-0.32-1.02-0.7-1.46-1.14c0.08-0.13,2.27,1.34,6.04,3.24c9.88,4.94,20.84,7.32,31.88,6.91
		C801.81,670.81,804.41,670.39,804.42,670.54z"/>
	<path class="st9" d="M804.93,651.04c-1.97,0.99-4.14,1.48-6.34,1.44c-2.19,0.24-4.41-0.06-6.46-0.87c0-0.25,2.9,0.17,6.41,0
		C802.04,651.45,804.83,650.84,804.93,651.04z"/>
	<path class="st9" d="M817.83,650.17c-0.12,0.23-3.96-1.39-8.91-2.75s-9.08-1.98-9.05-2.23c3.15-0.06,6.29,0.41,9.28,1.39
		C812.23,647.28,815.16,648.49,817.83,650.17z"/>
	<path class="st9" d="M815.33,631.86c0.25,0.08-0.74,3.05-0.77,6.83c-0.08,1.59,0.07,3.18,0.47,4.72c0.39,1.12,1.16,1.41,1.11,1.53
		c-0.05,0.12-0.23,0-0.59-0.1c-0.47-0.28-0.85-0.68-1.09-1.17c-0.62-1.6-0.89-3.32-0.79-5.03
		C813.57,636.26,814.15,633.91,815.33,631.86z"/>
	<path class="st9" d="M789.15,687.07c-0.28,0.04-0.57,0.04-0.86,0l-2.42-0.08c-2.08-0.12-5.03-0.27-8.86-0.7
		c-4.39-0.47-8.73-1.39-12.94-2.72c-2.49-0.82-4.9-1.86-7.2-3.1c-2.38-1.31-4.73-2.84-7.15-4.36
		c-10.84-6.93-20.49-13.16-26.72-17.25l-0.15-0.1v-0.17c0.3-2.43,1.54-4.66,3.46-6.19c0.52-0.4,1.08-0.74,1.68-1.01
		c0.2-0.1,0.41-0.17,0.62-0.22c-0.72,0.44-1.4,0.93-2.05,1.46c-1.74,1.55-2.84,3.7-3.09,6.02l-0.12-0.27
		c6.33,3.93,16.04,10.07,26.85,16.98c2.42,1.54,4.75,3.05,7.1,4.35c2.25,1.23,4.6,2.27,7.03,3.1c4.16,1.35,8.43,2.31,12.77,2.85
		c3.69,0.52,6.71,0.77,8.81,0.97l2.4,0.25C788.61,686.91,788.89,686.97,789.15,687.07z"/>
	<path class="st9" d="M779.96,696.35c-0.86-0.02-1.71-0.11-2.55-0.29c-1.68-0.25-3.99-0.65-6.88-1.29
		c-7.53-1.62-14.9-3.9-22.03-6.81c-3.94-1.65-7.62-3.86-10.94-6.54c-2.68-2.21-5.17-4.64-7.45-7.27c-1.95-2.22-3.44-4.08-4.46-5.37
		c-0.55-0.66-1.06-1.35-1.51-2.08c0.65,0.56,1.25,1.19,1.78,1.86c1.09,1.23,2.65,3.02,4.65,5.17c2.32,2.53,4.83,4.89,7.5,7.05
		c3.29,2.61,6.92,4.75,10.79,6.38c7.08,2.88,14.38,5.22,21.82,7c2.85,0.7,5.19,1.21,6.8,1.56
		C778.31,695.85,779.14,696.07,779.96,696.35z"/>
	<path class="st5" d="M800.03,644.01c-0.82,0.11-1.64,0.14-2.47,0.08l-6.71-0.12c-5.69-0.13-13.54-0.39-22.22-0.7
		c-4.06-0.19-8.12-0.14-12.17,0.17l-2.75,0.17c-0.81-0.04-1.61,0.15-2.32,0.55c-1.29,0.8-2.43,1.83-3.36,3.04
		c-1.37,1.73-2.58,3.58-3.62,5.52c-0.34,0.75-0.74,1.48-1.17,2.18c0.21-0.81,0.5-1.59,0.87-2.33c0.94-2.06,2.1-4.01,3.46-5.82
		c0.91-1.31,2.04-2.45,3.36-3.36c0.4-0.24,0.83-0.42,1.28-0.54c0.45-0.09,0.9-0.14,1.36-0.15l2.75-0.18
		c4.07-0.37,8.17-0.45,12.25-0.25c8.68,0.32,16.53,0.67,22.2,0.96l6.71,0.39C798.34,643.66,799.19,643.79,800.03,644.01z"/>
	<path class="st6" d="M551.67,488c-1.87-4.52-3.48-9.14-4.82-13.84c-1.59-4.62-2.92-9.33-3.98-14.1c1.88,4.52,3.49,9.14,4.82,13.84
		C549.3,478.52,550.63,483.22,551.67,488z"/>
	<path class="st6" d="M804.07,446.6c-0.02,1.38-0.16,2.76-0.42,4.11c-0.39,2.85-0.84,6.18-1.33,9.87c-0.49,3.69-0.82,7.03-1.14,9.88
		c-0.07,1.38-0.28,2.75-0.6,4.09c-0.17-1.38-0.17-2.77,0-4.14c0.12-2.55,0.4-6.07,0.89-9.95c0.49-3.88,1.07-7.35,1.58-9.85
		C803.23,449.24,803.57,447.89,804.07,446.6z"/>
</g>
<g id="freepik--Desk--inject-200">
	<path class="st6" d="M1001.42,756.56c0,0.23-143.63,0.44-320.75,0.44s-320.79-0.23-320.79-0.44s143.6-0.44,320.79-0.44
		S1001.42,756.33,1001.42,756.56z"/>
</g>
<g id="freepik--Browser--inject-200">
	<polygon class="st10" points="526.8,540.73 526.8,590.83 745.56,590.83 776.15,626.33 776.15,590.83 844.5,590.83 844.5,540.73 	
		"/>
	<path class="st6" d="M558.6,561.16l-3.49,9.67h-2.7l-2.16-5.99l-2.16,5.99h-2.68l-3.49-9.67h2.63l2.28,6.54l2.37-6.54h2.25
		l2.28,6.54l2.37-6.54H558.6z"/>
	<path class="st6" d="M575.19,561.16l-3.51,9.67H569l-2.18-5.99l-2.23,5.99h-2.7l-3.47-9.67h2.63l2.28,6.54l2.37-6.54h2.37l2.3,6.54
		l2.35-6.54H575.19z"/>
	<path class="st6" d="M591.71,561.16l-3.36,9.67h-2.7l-2.16-5.99l-2.25,5.99h-2.68l-3.62-9.67h2.63l2.28,6.54l2.37-6.54h2.38
		l2.3,6.54l2.35-6.54H591.71z"/>
	<path class="st6" d="M591.84,569.2c0-0.96,0.78-1.74,1.74-1.74s1.74,0.78,1.74,1.74c0,0.96-0.78,1.74-1.74,1.74
		S591.84,570.16,591.84,569.2z"/>
	<path class="st6" d="M606.93,557.51v13.32h-2.67v-1.12c-0.76,0.87-1.87,1.33-3.02,1.26c-2.74-0.45-4.6-3.04-4.15-5.79
		c0.35-2.13,2.02-3.8,4.15-4.15c1.09-0.06,2.14,0.36,2.89,1.16v-4.68L606.93,557.51z M604.19,566c-0.1-1.37-1.29-2.39-2.66-2.29
		c-1.37,0.1-2.39,1.29-2.29,2.66c0.1,1.3,1.18,2.3,2.49,2.3c1.35,0.01,2.46-1.07,2.48-2.42C604.2,566.16,604.2,566.08,604.19,566z"
		/>
	<path class="st6" d="M608.81,566c-0.16-2.93,2.09-5.44,5.03-5.6c2.93-0.16,5.44,2.09,5.6,5.03c0.16,2.93-2.09,5.44-5.03,5.6
		c-0.1,0.01-0.2,0.01-0.29,0.01c-2.78,0.15-5.15-1.98-5.3-4.76C608.81,566.18,608.81,566.09,608.81,566z M616.58,566
		c-0.11-1.36-1.3-2.37-2.66-2.26c-1.36,0.11-2.37,1.3-2.26,2.66c0.1,1.28,1.17,2.26,2.45,2.27c1.34,0.02,2.45-1.04,2.48-2.39
		C616.59,566.18,616.59,566.09,616.58,566z"/>
	<path class="st6" d="M637.59,565.29v5.54h-2.79v-5.03c0-1.56-0.7-2.28-1.83-2.28s-2.15,0.81-2.15,2.53v4.85h-2.8v-5.03
		c0-1.56-0.65-2.28-1.83-2.28s-2.11,0.81-2.11,2.53v4.85h-2.8v-9.67h2.68v1.12c0.77-0.85,1.88-1.31,3.02-1.26
		c1.27-0.07,2.47,0.53,3.19,1.58c0.85-1.04,2.13-1.62,3.47-1.58c2.05-0.13,3.83,1.42,3.96,3.48
		C637.62,564.86,637.61,565.08,637.59,565.29z"/>
	<path class="st6" d="M648.66,565.31v5.52h-2.63v-1.21c-0.66,0.96-1.79,1.47-2.94,1.34c-2.27,0-3.61-1.26-3.61-2.92
		s1.21-2.89,4.14-2.89h2.23c0-1.21-0.72-1.91-2.23-1.91c-1,0-1.98,0.31-2.79,0.91l-1.01-1.96c1.25-0.79,2.7-1.19,4.18-1.16
		C646.95,561.03,648.66,562.39,648.66,565.31z M645.86,567.78v-0.99h-1.93c-1.31,0-1.68,0.49-1.68,1.14c0,0.65,0.59,1.16,1.58,1.16
		C644.71,569.12,645.53,568.6,645.86,567.78z"/>
	<path class="st6" d="M650.84,558.26c0.06-0.88,0.8-1.56,1.68-1.56c0.87-0.06,1.62,0.6,1.68,1.47c0,0.01,0,0.03,0,0.04
		c0,0.96-0.78,1.75-1.75,1.75s-1.75-0.78-1.75-1.75L650.84,558.26z M651.18,561.16h2.8v9.67h-2.8V561.16z"/>
	<path class="st6" d="M666.47,565.29v5.54h-2.8v-5.03c0-1.56-0.72-2.28-1.96-2.28c-1.24,0-2.32,0.82-2.32,2.6v4.78h-2.8v-9.67h2.68
		v1.14c0.83-0.86,1.99-1.33,3.19-1.28c2.09-0.13,3.89,1.45,4.03,3.54C666.49,564.86,666.49,565.08,666.47,565.29z"/>
	<path class="st6" d="M678.87,565.29v5.54h-2.8v-5.03c0-1.56-0.72-2.28-1.95-2.28s-2.32,0.82-2.32,2.6v4.78H669v-9.67h2.67v1.14
		c0.83-0.87,2-1.33,3.21-1.28c2.08-0.13,3.88,1.44,4.01,3.53C678.9,564.85,678.89,565.07,678.87,565.29z"/>
	<path class="st6" d="M689.94,565.31v5.52h-2.58v-1.21c-0.66,0.96-1.79,1.47-2.94,1.34c-2.27,0-3.61-1.26-3.61-2.92
		s1.19-2.89,4.14-2.89h2.22c0-1.21-0.72-1.91-2.22-1.91c-1,0-1.98,0.31-2.79,0.91l-1.01-1.96c1.24-0.79,2.69-1.19,4.16-1.16
		C688.25,561.03,689.94,562.39,689.94,565.31z M687.14,567.78v-0.99h-1.91c-1.31,0-1.68,0.49-1.68,1.14c0,0.65,0.59,1.16,1.58,1.16
		C686.01,569.12,686.82,568.6,687.14,567.78z"/>
	<path class="st6" d="M708.79,565.29v5.54H706v-5.03c0-1.56-0.7-2.28-1.85-2.28s-2.13,0.81-2.13,2.53v4.85h-2.8v-5.03
		c0-1.56-0.65-2.28-1.83-2.28c-1.17,0-2.11,0.81-2.11,2.53v4.85h-2.8v-9.67h2.68v1.12c0.77-0.85,1.88-1.31,3.02-1.26
		c1.26-0.06,2.47,0.53,3.19,1.58c0.85-1.04,2.13-1.62,3.47-1.58c2.05-0.13,3.83,1.42,3.96,3.48
		C708.82,564.86,708.81,565.08,708.79,565.29z"/>
	<path class="st6" d="M720.82,566.79h-7.3c0.31,1.25,1.49,2.08,2.77,1.95c0.9,0.02,1.77-0.32,2.42-0.94l1.49,1.68
		c-1.03,1.09-2.5,1.66-3.99,1.56c-2.77,0.26-5.22-1.77-5.48-4.54c-0.02-0.16-0.02-0.33-0.02-0.49c-0.07-2.71,2.08-4.97,4.79-5.04
		c0.12,0,0.24,0,0.36,0c2.64-0.14,4.89,1.88,5.03,4.52c0.01,0.17,0.01,0.35,0,0.52C720.92,566.25,720.92,566.55,720.82,566.79z
		 M713.49,565.11h4.75c-0.19-1.31-1.41-2.22-2.72-2.03C714.46,563.23,713.64,564.06,713.49,565.11z"/>
	<path class="st6" d="M721.81,569.92l0.94-2c1.02,0.6,2.17,0.92,3.36,0.92c1.29,0,1.78-0.34,1.78-0.87c0-1.58-5.84,0-5.84-3.83
		c0-1.83,1.68-3.12,4.46-3.12c1.29-0.03,2.57,0.26,3.73,0.84l-0.94,2c-0.85-0.48-1.81-0.73-2.79-0.72c-1.24,0-1.8,0.39-1.8,0.89
		c0,1.68,5.84,0,5.84,3.86c0,1.8-1.68,3.07-4.56,3.07C724.53,571,723.09,570.64,721.81,569.92z"/>
	<path class="st6" d="M731.59,569.2c0-0.96,0.78-1.75,1.75-1.75c0.96,0,1.75,0.78,1.75,1.75c0,0.96-0.78,1.75-1.75,1.75
		C732.38,570.95,731.59,570.17,731.59,569.2z"/>
	<path class="st3" d="M738.76,574.57c-0.58-7.23-0.58-14.5,0-21.73C739.34,560.07,739.34,567.34,738.76,574.57z"/>
	<rect x="784.03" y="540.73" class="st3" width="60.46" height="50.09"/>
	<path class="st6" d="M812.13,572.56c-6.33-0.01-11.45-5.15-11.44-11.48s5.15-11.45,11.48-11.44c6.32,0.01,11.44,5.14,11.44,11.46
		C823.6,567.43,818.46,572.56,812.13,572.56z M812.13,551.31c-5.4,0.01-9.78,4.4-9.77,9.8c0.01,5.4,4.4,9.78,9.8,9.77
		c5.4-0.01,9.77-4.39,9.77-9.78C821.92,555.69,817.53,551.31,812.13,551.31z"/>
	<path class="st6" d="M829.31,579.86c-0.23,0-0.44-0.09-0.6-0.25l-10.07-10.07c-0.33-0.33-0.33-0.86,0-1.19c0,0,0,0,0,0
		c0.33-0.32,0.85-0.32,1.17,0l10.07,10.07c0.32,0.33,0.32,0.86-0.01,1.19c-0.15,0.15-0.36,0.24-0.58,0.24L829.31,579.86z"/>
	<path class="st6" d="M526.8,540.73h1.54h4.6h17.87l66.62-0.13l227.07-0.3h0.44v50.96h-68.8l0.44-0.44v36.73l-0.76-0.87
		l-30.59-35.51l0.32,0.15l-218.76-0.22h-0.22v-0.2c0-16.26,0.1-28.81,0.12-37.3c0-4.21,0-7.4,0-9.58s0-3.22,0-3.22s0,1.14,0,3.36
		c0,2.22,0,5.4,0,9.63c0,8.39,0,20.96,0.12,37.17l-0.2-0.22l218.76-0.2h0.18l0.12,0.15l30.63,35.48l-0.76,0.29
		c0-11.62,0-23.45,0-35.49v-0.44h68.8l-0.44,0.44c0-17.2,0-34.12,0-50.11l0.42,0.44l-226.76-0.2l-66.72-0.12h-17.96h-4.67
		C527.35,540.76,526.8,540.73,526.8,540.73z"/>
</g>
<g id="freepik--Bubbles--inject-200">
	<circle class="st10" cx="594.89" cy="91.66" r="40.04"/>
	<path class="st6" d="M634.93,91.66c-0.02-0.21-0.02-0.43,0-0.64c0-0.47-0.08-1.11-0.15-1.9c0-0.44,0-0.89,0-1.41
		s-0.17-1.06-0.27-1.68c-0.18-1.39-0.46-2.77-0.84-4.13c-0.94-3.74-2.45-7.31-4.46-10.59c-2.6-4.36-6.02-8.19-10.07-11.26
		c-10.74-8.14-24.88-10.27-37.54-5.64c-3.62,1.25-7.02,3.07-10.07,5.39c-1.64,1.19-3.2,2.49-4.67,3.89c-1.4,1.44-2.69,2.98-3.88,4.6
		c-2.47,3.3-4.38,6.99-5.67,10.91c-2.73,8.11-2.73,16.89,0,25c1.29,3.92,3.2,7.61,5.66,10.92c1.19,1.61,2.49,3.14,3.89,4.58
		c1.41,1.38,2.91,2.65,4.5,3.83c1.54,1.16,3.16,2.21,4.85,3.14c1.67,0.87,3.4,1.63,5.17,2.27c17.89,6.5,37.88-0.59,47.68-16.92
		c2.01-3.28,3.52-6.85,4.46-10.59c0.38-1.35,0.66-2.72,0.84-4.11c0.1-0.6,0.2-1.16,0.27-1.68s0-0.97,0-1.39
		c0-0.81,0.12-1.43,0.15-1.9c-0.02-0.22-0.02-0.44,0-0.65c0.02,0.22,0.02,0.44,0,0.65c0,0.47,0,1.11,0,1.91v1.41
		c0,0.5-0.15,1.07-0.22,1.68c-0.16,1.4-0.42,2.8-0.79,4.16c-0.89,3.79-2.36,7.42-4.36,10.76c-2.61,4.46-6.06,8.38-10.17,11.51
		c-4.98,3.84-10.79,6.45-16.97,7.62c-9.04,1.64-18.37,0.23-26.51-4.01c-1.75-0.94-3.43-2.01-5.03-3.19c-1.62-1.19-3.15-2.5-4.6-3.89
		c-1.43-1.47-2.76-3.03-3.98-4.68c-2.49-3.4-4.41-7.19-5.69-11.21c-2.8-8.28-2.8-17.26,0-25.54c1.32-4,3.27-7.76,5.79-11.14
		c1.23-1.65,2.55-3.22,3.98-4.7c1.45-1.39,2.99-2.69,4.6-3.89c1.61-1.17,3.29-2.23,5.03-3.17c1.69-0.9,3.45-1.69,5.25-2.35
		c18.22-6.57,38.54,0.76,48.36,17.45c2,3.34,3.47,6.97,4.36,10.76c0.36,1.37,0.63,2.77,0.79,4.18c0,0.6,0.17,1.16,0.22,1.68v1.41
		c0,0.81,0,1.43,0,1.91C634.9,91.23,634.93,91.45,634.93,91.66z"/>
	<path class="st6" d="M569.17,94.82c0.12-1.66,1.57-2.91,3.24-2.79c1.49,0.11,2.68,1.3,2.79,2.79c0.12,1.66-1.12,3.11-2.79,3.24
		c-1.66,0.12-3.11-1.12-3.24-2.79C569.16,95.12,569.16,94.97,569.17,94.82z"/>
	<path class="st6" d="M595.25,74.6V97.6h-4.61v-1.91c-1.31,1.48-3.23,2.28-5.2,2.16c-4.75,0-8.59-3.85-8.59-8.6
		c0-4.74,3.85-8.58,8.59-8.59c1.89-0.11,3.74,0.63,5.03,2.01V74.6H595.25z M590.52,89.26c-0.2-2.35-2.28-4.1-4.63-3.89
		c-2.35,0.2-4.1,2.28-3.89,4.63c0.19,2.21,2.04,3.91,4.26,3.91c2.34,0.03,4.25-1.84,4.28-4.17
		C590.54,89.58,590.53,89.42,590.52,89.26z"/>
	<path class="st6" d="M615.96,90.56h-12.62c0.54,2.15,2.58,3.58,4.78,3.36c1.57,0.05,3.08-0.56,4.18-1.68l2.58,2.79
		c-1.79,1.87-4.31,2.86-6.9,2.7c-5.76,0-9.51-3.62-9.51-8.59c-0.06-4.69,3.69-8.54,8.38-8.6c0.17,0,0.34,0,0.51,0.01
		c4.56-0.24,8.45,3.27,8.69,7.83c0.01,0.28,0.01,0.55,0,0.83C616.06,89.7,615.99,90.22,615.96,90.56z M603.29,87.74h8.21
		c-0.38-2.27-2.53-3.79-4.8-3.41C604.95,84.63,603.58,85.99,603.29,87.74z"/>
	<circle class="st10" cx="510.32" cy="316.61" r="53.2"/>
	<path class="st6" d="M563.53,316.61c0,0,0-0.3-0.08-0.87c-0.08-0.57-0.1-1.44-0.18-2.52c0-0.55-0.03-1.17-0.1-1.86
		c-0.08-0.67-0.22-1.41-0.35-2.22c-0.23-1.85-0.6-3.69-1.11-5.49c-1.24-4.97-3.23-9.72-5.91-14.1c-7.8-13.01-20.8-22.06-35.71-24.85
		c-2.22-0.42-4.46-0.68-6.71-0.77c-1.14,0-2.3-0.15-3.46-0.13l-3.49,0.18c-0.59,0-1.17,0-1.68,0.1l-1.76,0.29
		c-1.17,0.18-2.37,0.34-3.56,0.57c-2.39,0.53-4.74,1.22-7.03,2.06c-2.36,0.86-4.67,1.87-6.9,3.04c-1.11,0.6-2.18,1.31-3.36,1.96
		c-1.12,0.65-2.18,1.39-3.19,2.2c-2.11,1.54-4.11,3.22-5.99,5.03c-1.86,1.92-3.59,3.97-5.17,6.13c-3.28,4.41-5.83,9.31-7.55,14.53
		c-3.63,10.81-3.63,22.5,0,33.31c1.72,5.22,4.27,10.13,7.55,14.53c3.07,4.33,6.84,8.12,11.16,11.21c1,0.81,2.06,1.55,3.17,2.2
		c1.11,0.65,2.18,1.36,3.36,1.96c2.23,1.16,4.53,2.18,6.9,3.04c2.3,0.84,4.64,1.53,7.03,2.06c1.19,0.25,2.38,0.39,3.56,0.57
		l1.76,0.29c0.59,0,1.17,0,1.68,0.1l3.49,0.18c1.16,0,2.32,0,3.46-0.13c2.25-0.1,4.5-0.35,6.71-0.76
		c14.91-2.81,27.91-11.86,35.71-24.87c2.67-4.37,4.66-9.13,5.91-14.1c0.51-1.8,0.88-3.63,1.11-5.49c0.13-0.81,0.27-1.53,0.35-2.22
		c0.08-0.69,0-1.31,0.1-1.86c0-1.07,0.13-1.91,0.18-2.52c0.01-0.29,0.04-0.57,0.08-0.86c0,0,0,0.29,0,0.86s0,1.44-0.08,2.53v1.86
		c0,0.69-0.2,1.43-0.3,2.23c-0.21,1.87-0.56,3.72-1.04,5.54c-1.21,5.02-3.17,9.83-5.82,14.26c-7.81,13.21-20.92,22.44-36,25.32
		c-2.22,0.42-4.46,0.69-6.71,0.81c-1.16,0-2.32,0.15-3.49,0.13l-3.54-0.17c-0.6,0-1.19,0-1.8-0.12l-1.78-0.27
		c-1.21-0.18-2.42-0.32-3.61-0.57c-2.43-0.54-4.82-1.23-7.17-2.08c-2.4-0.86-4.74-1.89-7-3.07c-1.12-0.6-2.22-1.33-3.36-1.98
		c-1.13-0.67-2.21-1.41-3.24-2.23c-2.14-1.58-4.18-3.3-6.09-5.15c-1.89-1.95-3.65-4.03-5.25-6.23c-3.34-4.48-5.94-9.46-7.69-14.77
		c-3.69-10.98-3.69-22.87,0-33.85c1.75-5.31,4.34-10.3,7.69-14.78c1.62-2.18,3.37-4.25,5.25-6.21c1.92-1.85,3.95-3.57,6.09-5.15
		c1.03-0.82,2.11-1.57,3.24-2.23c1.12-0.65,2.22-1.38,3.36-1.98c2.26-1.18,4.6-2.21,7-3.07c2.34-0.85,4.73-1.54,7.17-2.08
		c1.19-0.23,2.4-0.39,3.59-0.57l1.8-0.27c0.59-0.08,1.19-0.08,1.8-0.12l3.54-0.17c1.17,0,2.33,0.1,3.49,0.13
		c2.25,0.12,4.5,0.39,6.71,0.81c15.08,2.89,28.19,12.11,36,25.32c2.65,4.43,4.62,9.24,5.82,14.26c0.48,1.82,0.83,3.67,1.04,5.54
		c0.1,0.81,0.23,1.54,0.3,2.23v1.86c0,1.09,0,1.93,0.08,2.53S563.53,316.61,563.53,316.61z"/>
	<path class="st6" d="M469.37,323.48c0.14-2.08,1.94-3.65,4.02-3.52c1.89,0.13,3.39,1.63,3.52,3.52c0.14,2.08-1.44,3.88-3.52,4.02
		c-2.08,0.14-3.88-1.44-4.02-3.52C469.36,323.81,469.36,323.64,469.37,323.48z"/>
	<path class="st6" d="M479.27,316.51c0-6.29,4.85-10.76,11.5-10.76s11.46,4.46,11.46,10.76c0,6.29-4.82,10.77-11.46,10.77
		S479.27,322.81,479.27,316.51z M496.05,316.51c-0.24-2.95-2.83-5.14-5.77-4.9c-2.95,0.24-5.14,2.83-4.9,5.77
		c0.23,2.78,2.56,4.93,5.35,4.92c2.91,0.04,5.3-2.28,5.34-5.19C496.08,316.91,496.07,316.71,496.05,316.51z"/>
	<path class="st6" d="M519.16,305.76v5.6c-0.45-0.05-0.91-0.08-1.36-0.08c-3.36,0-5.55,1.83-5.55,5.82v9.87h-6.13v-20.89h5.79v2.75
		C513.67,306.66,516.39,305.51,519.16,305.76z"/>
	<path class="st6" d="M544.13,306.07v17.4c0,7.77-4.2,11.34-11.75,11.34c-3.64,0.15-7.23-0.86-10.25-2.89l2.4-4.35
		c2.15,1.55,4.73,2.38,7.38,2.37c4.28,0,6.14-1.93,6.14-5.71v-0.89c-1.73,1.78-4.14,2.72-6.61,2.6c-5.56,0-10.07-4.51-10.07-10.07
		s4.51-10.07,10.07-10.07c2.65-0.15,5.21,0.95,6.91,2.99v-2.67L544.13,306.07z M538.14,315.86c0.2-3.03-2.09-5.66-5.12-5.86
		c-3.03-0.2-5.66,2.09-5.86,5.12c-0.2,3.03,2.09,5.66,5.12,5.86c0.13,0.01,0.26,0.01,0.39,0.01c2.77,0.24,5.21-1.81,5.45-4.58
		C538.14,316.23,538.15,316.04,538.14,315.86L538.14,315.86z"/>
	<circle class="st10" cx="853.39" cy="341.53" r="53.2"/>
	<path class="st6" d="M906.6,341.53c0,0,0-0.3,0-0.87c0-0.57-0.1-1.44-0.18-2.52c0-0.55-0.03-1.17-0.1-1.86
		c-0.08-0.67-0.23-1.41-0.35-2.22c-0.23-1.85-0.6-3.69-1.11-5.49c-1.24-4.97-3.23-9.72-5.91-14.1c-7.8-13.01-20.8-22.06-35.71-24.85
		c-2.22-0.42-4.46-0.68-6.71-0.77c-1.12,0-2.28-0.15-3.36-0.13l-3.49,0.18c-0.59,0-1.17,0-1.76,0.12l-1.68,0.27
		c-1.17,0.18-2.37,0.34-3.56,0.57c-4.83,1.09-9.51,2.78-13.93,5.03c-1.11,0.6-2.18,1.31-3.27,1.96c-1.12,0.65-2.18,1.39-3.19,2.2
		c-4.32,3.09-8.09,6.88-11.16,11.21c-3.28,4.41-5.83,9.31-7.55,14.53c-3.63,10.81-3.63,22.5,0,33.31
		c1.72,5.22,4.27,10.13,7.55,14.53c1.58,2.16,3.31,4.2,5.17,6.13c1.88,1.81,3.88,3.5,5.99,5.03c1,0.81,2.06,1.55,3.17,2.2
		c1.11,0.65,2.18,1.36,3.36,1.96c2.22,1.17,4.53,2.19,6.9,3.04c2.3,0.84,4.64,1.53,7.03,2.06c1.19,0.25,2.38,0.39,3.56,0.59
		l1.68,0.27c0.59,0,1.17,0,1.76,0.12l3.49,0.17c1.16,0,2.32,0,3.46-0.12c2.25-0.11,4.49-0.37,6.71-0.77
		c14.77-2.86,27.63-11.86,35.39-24.75c2.67-4.37,4.66-9.13,5.91-14.1c0.51-1.8,0.88-3.63,1.11-5.49c0.12-0.79,0.27-1.53,0.35-2.22
		c0.08-0.69,0-1.29,0.1-1.86c0.08-1.07,0.13-1.91,0.18-2.52c-0.01-0.29-0.01-0.57,0-0.86c0,0,0,0.29,0,0.86s0,1.44,0,2.53
		c0,0.55,0,1.19,0,1.86s-0.2,1.43-0.3,2.25c-0.22,1.86-0.56,3.71-1.04,5.52c-1.21,5.02-3.17,9.83-5.82,14.26
		c-7.81,13.21-20.92,22.44-36,25.32c-2.22,0.42-4.46,0.69-6.71,0.81c-1.16,0-2.32,0.15-3.49,0.15l-3.54-0.18c-0.6,0-1.19,0-1.8-0.1
		l-1.78-0.29c-1.21-0.18-2.42-0.32-3.61-0.57c-4.93-1.09-9.69-2.82-14.16-5.15c-1.12-0.6-2.22-1.31-3.36-1.98
		c-1.13-0.67-2.21-1.41-3.24-2.23c-2.14-1.58-4.18-3.3-6.09-5.15c-1.89-1.95-3.65-4.03-5.27-6.21c-3.33-4.49-5.92-9.48-7.67-14.78
		c-3.69-10.98-3.69-22.87,0-33.85c1.75-5.31,4.34-10.3,7.69-14.78c1.62-2.18,3.37-4.25,5.25-6.21c1.92-1.85,3.95-3.57,6.09-5.15
		c1.03-0.82,2.11-1.57,3.24-2.23c1.12-0.65,2.22-1.38,3.36-1.98c2.26-1.18,4.6-2.21,7-3.07c2.34-0.84,4.72-1.54,7.15-2.08
		c1.21-0.23,2.42-0.39,3.61-0.57l1.8-0.27c0.59-0.08,1.19-0.08,1.8-0.12l3.54-0.17c1.17,0,2.33,0.1,3.49,0.13
		c17.72,1.05,33.75,10.84,42.78,26.13c2.65,4.43,4.62,9.24,5.82,14.26c0.48,1.82,0.83,3.67,1.04,5.54c0.1,0.81,0.23,1.54,0.3,2.23
		c0.07,0.69,0,1.31,0,1.86c0,1.09,0,1.93,0,2.53C906.52,341.26,906.6,341.53,906.6,341.53z"/>
	<path class="st6" d="M822.58,347.68c0.13-1.8,1.7-3.16,3.5-3.03c1.62,0.12,2.91,1.41,3.03,3.03c0.13,1.8-1.23,3.37-3.03,3.5
		c-1.8,0.13-3.37-1.23-3.5-3.03C822.57,347.99,822.57,347.83,822.58,347.68z"/>
	<path class="st6" d="M851.23,340.33v10.34h-5.25v-9.57c0-2.92-1.36-4.28-3.68-4.28c-2.32,0-4.35,1.56-4.35,4.88v8.96h-5.27v-18.12
		h5.03v2.13c1.56-1.62,3.74-2.49,5.99-2.4C847.99,332.3,851.23,334.8,851.23,340.33z"/>
	<path class="st6" d="M873.85,343.13H860.2c0.59,2.33,2.81,3.88,5.2,3.64c1.69,0.06,3.34-0.58,4.55-1.76l2.79,3.04
		c-1.93,2.03-4.67,3.11-7.47,2.94c-6.28,0-10.35-3.94-10.35-9.35c-0.06-5.1,4.02-9.28,9.12-9.34c0.18,0,0.37,0,0.55,0.01
		c4.95-0.27,9.18,3.53,9.45,8.48c0.02,0.3,0.02,0.61,0,0.91C873.95,342.1,873.88,342.69,873.85,343.13z M860.05,340.06h8.93
		c-0.43-2.47-2.78-4.12-5.24-3.69C861.86,336.7,860.38,338.17,860.05,340.06z"/>
	<path class="st6" d="M889.15,349.82c-1.28,0.81-2.77,1.21-4.28,1.16c-4.28,0-6.71-2.2-6.71-6.51v-7.45h-2.85v-4.04h2.79v-4.41h5.25
		v4.41h4.51v4.04h-4.51v7.38c-0.15,1.17,0.67,2.24,1.84,2.39c0.14,0.02,0.28,0.02,0.43,0.01c0.76,0.02,1.51-0.23,2.11-0.69
		L889.15,349.82z"/>
	<circle class="st10" cx="808.69" cy="129.3" r="52.39"/>
	<path class="st6" d="M861.11,129.32c0,0,0-0.29-0.1-0.86c-0.1-0.57-0.08-1.41-0.17-2.48c0-0.55,0-1.16-0.1-1.83
		c-0.1-0.67-0.22-1.39-0.34-2.18c-0.24-1.83-0.61-3.63-1.11-5.4c-1.22-4.89-3.18-9.57-5.81-13.88
		c-7.72-12.82-20.54-21.72-35.24-24.48c-2.17-0.4-4.37-0.65-6.58-0.76c-1.12,0-2.25-0.15-3.36-0.12l-3.44,0.17
		c-0.59,0-1.16,0-1.68,0.12l-1.68,0.27c-1.16,0.18-2.33,0.32-3.51,0.57c-2.38,0.52-4.72,1.2-7.01,2.03
		c-2.3,0.84-4.54,1.84-6.71,2.99c-1.09,0.59-2.15,1.29-3.22,1.93c-1.1,0.65-2.14,1.37-3.14,2.16c-2.08,1.54-4.05,3.22-5.91,5.03
		c-1.81,1.89-3.49,3.91-5.03,6.02c-3.24,4.33-5.76,9.16-7.47,14.3c-3.56,10.64-3.56,22.15,0,32.79c1.7,5.14,4.21,9.97,7.43,14.31
		c1.54,2.12,3.22,4.13,5.03,6.02c1.86,1.8,3.83,3.48,5.91,5.03c0.99,0.79,2.03,1.51,3.12,2.16c1.09,0.64,2.15,1.33,3.24,1.93
		c2.17,1.14,4.41,2.14,6.71,2.99c2.26,0.83,4.58,1.5,6.93,2.03c1.17,0.23,2.35,0.37,3.51,0.57l1.68,0.27c0.59,0,1.16,0,1.68,0.12
		l3.44,0.17c1.14,0,2.27-0.08,3.36-0.13c2.21-0.1,4.41-0.35,6.58-0.76c14.75-2.69,27.62-11.59,35.36-24.43
		c2.62-4.31,4.58-8.99,5.81-13.88c0.5-1.77,0.87-3.58,1.11-5.4c0.12-0.79,0.25-1.53,0.34-2.18s0-1.29,0.1-1.85
		c0.08-1.06,0.13-1.88,0.17-2.48c0.03-0.6,0.1-0.84,0.1-0.84s0,0.29,0,0.84c0,0.55,0,1.43-0.08,2.5c0,0.55,0,1.17,0,1.85
		c0,0.67-0.2,1.41-0.3,2.2c-0.21,1.84-0.55,3.65-1.02,5.44c-1.18,4.95-3.11,9.68-5.72,14.05c-7.71,13.03-20.65,22.12-35.53,24.94
		c-2.22,0.42-4.46,0.68-6.71,0.79c-1.14,0-2.28,0.15-3.36,0.13l-3.49-0.17c-0.59,0-1.19,0-1.78-0.1l-1.68-0.27
		c-1.19-0.2-2.38-0.34-3.56-0.57c-2.39-0.54-4.74-1.22-7.05-2.05c-2.36-0.85-4.67-1.86-6.9-3.02c-1.11-0.6-2.18-1.31-3.36-1.96
		c-1.11-0.65-2.18-1.38-3.19-2.18c-2.1-1.55-4.1-3.23-5.99-5.03c-1.87-1.94-3.6-4.02-5.17-6.21c-3.29-4.41-5.85-9.32-7.57-14.55
		c-3.63-10.82-3.63-22.52,0-33.34c1.73-5.22,4.28-10.14,7.57-14.55c3.09-4.32,6.87-8.1,11.18-11.19c1.01-0.8,2.08-1.54,3.19-2.2
		c1.11-0.65,2.18-1.34,3.36-1.95c4.41-2.28,9.1-3.97,13.95-5.03c1.17-0.25,2.37-0.39,3.54-0.57l1.68-0.27c0.59,0,1.19,0,1.76-0.1
		l3.51-0.18c1.14,0,2.3,0.1,3.36,0.15c2.25,0.11,4.5,0.37,6.71,0.79c14.85,2.84,27.76,11.93,35.46,24.94
		c2.61,4.36,4.54,9.1,5.72,14.05c0.47,1.79,0.82,3.61,1.02,5.45c0.1,0.79,0.23,1.53,0.3,2.2c0.07,0.67,0,1.29,0,1.85
		c0,1.06,0,1.9,0.08,2.48C861.13,129.08,861.11,129.32,861.11,129.32z"/>
	<path class="st6" d="M762.07,137.04c0-1.85,1.5-3.36,3.36-3.36c1.85,0,3.36,1.5,3.36,3.36s-1.5,3.36-3.36,3.36
		C763.57,140.4,762.07,138.89,762.07,137.04z"/>
	<path class="st6" d="M770.88,130.83c0-5.64,4.35-9.65,10.44-9.65c3.51-0.27,6.83,1.63,8.39,4.78l-4.23,2.25
		c-0.8-1.59-2.43-2.58-4.21-2.57c-2.86,0-5.19,2.32-5.19,5.19c0,2.86,2.32,5.19,5.19,5.19c1.78,0.04,3.43-0.96,4.21-2.57l4.23,2.3
		c-1.59,3.12-4.9,4.99-8.39,4.73C775.22,140.45,770.88,136.43,770.88,130.83z"/>
	<path class="st6" d="M791.22,130.83c0-5.64,4.35-9.65,10.3-9.65c5.96,0,10.27,4.01,10.27,9.65c0,5.64-4.31,9.65-10.27,9.65
		S791.22,136.43,791.22,130.83z M806.32,130.83c-0.21-2.64-2.53-4.61-5.17-4.4c-2.64,0.21-4.61,2.53-4.4,5.17
		c0.2,2.5,2.29,4.42,4.8,4.41c2.6,0.02,4.73-2.07,4.76-4.68c0-0.17-0.01-0.34-0.02-0.51H806.32z"/>
	<path class="st6" d="M847.08,129.44v10.72h-5.44v-9.88c0-3.04-1.36-4.43-3.56-4.43c-2.2,0-4.14,1.58-4.14,4.92v9.4h-5.42v-9.88
		c0-3.04-1.29-4.43-3.56-4.43s-4.11,1.58-4.11,4.92v9.4h-5.44v-18.73h5.19v2.15c1.51-1.63,3.67-2.52,5.89-2.43
		c2.46-0.13,4.8,1.03,6.18,3.07c1.64-2.01,4.12-3.14,6.71-3.07C843.88,121.15,847.08,123.73,847.08,129.44z"/>
</g>
</svg>
