<?xml version="1.0" encoding="utf-8"?>
<!-- Generator: Adobe Illustrator 23.1.0, SVG Export Plug-In . SVG Version: 6.00 Build 0)  -->
<svg version="1.1" id="Layer_1" xmlns="http://www.w3.org/2000/svg" xmlns:xlink="http://www.w3.org/1999/xlink" x="0px" y="0px"
	 viewBox="0 0 1366 768" style="enable-background:new 0 0 1366 768;" xml:space="preserve">
<style type="text/css">
	.st0{fill:#EBEBEB;}
	.st1{fill:#E6E6E6;}
	.st2{fill:#F0F0F0;}
	.st3{fill:#FAFAFA;}
	.st4{fill:#FFFFFF;}
	.st5{opacity:0.6;fill:#EBEBEB;enable-background:new    ;}
	.st6{opacity:0.8;fill:#FAFAFA;enable-background:new    ;}
	.st7{opacity:0.8;fill:#F0F0F0;enable-background:new    ;}
	.st8{fill:#F5F5F5;}
	.st9{fill:#407BFF;}
	.st10{opacity:0.8;fill:#FFFFFF;enable-background:new    ;}
	.st11{opacity:0.4;fill:#FFFFFF;enable-background:new    ;}
	.st12{opacity:0.2;fill:#407BFF;enable-background:new    ;}
	.st13{opacity:0.3;fill:#407BFF;enable-background:new    ;}
	.st14{opacity:0.4;fill:#407BFF;enable-background:new    ;}
	.st15{fill:#263238;}
	.st16{opacity:0.2;enable-background:new    ;}
	.st17{fill:#7F3E3B;}
	.st18{fill:#630F0F;}
</style>
<g id="freepik--background-complete--inject-62">
	<rect x="168" y="675.36" class="st0" width="1031" height="0.52"/>
	<rect x="1027.4" y="708.53" class="st0" width="68.29" height="0.52"/>
	<rect x="833.06" y="714.14" class="st0" width="17.92" height="0.52"/>
	<rect x="985.77" y="689.4" class="st0" width="39.57" height="0.52"/>
	<rect x="276.17" y="692.86" class="st0" width="89.06" height="0.52"/>
	<rect x="383.6" y="692.86" class="st0" width="13.05" height="0.52"/>
	<rect x="439.09" y="701.57" class="st0" width="193.17" height="0.52"/>
	<path class="st0" d="M656.69,583.39H258.54c-6.49-0.01-11.75-5.28-11.75-11.77V11.93c0.06-6.45,5.3-11.66,11.75-11.67h398.15
		c6.5,0,11.77,5.27,11.77,11.77c0,0,0,0,0,0v559.59C668.47,578.12,663.2,583.39,656.69,583.39z M258.54,0.67
		c-6.21,0.01-11.24,5.05-11.24,11.26v559.69c0,6.21,5.03,11.25,11.24,11.26h398.15c6.21-0.01,11.25-5.05,11.26-11.26V11.93
		c-0.01-6.21-5.05-11.25-11.26-11.26H258.54z"/>
	<path class="st0" d="M1102.73,583.39H704.55c-6.5-0.01-11.76-5.28-11.77-11.77V11.93c0.07-6.46,5.32-11.66,11.77-11.67h398.17
		c6.45,0.02,11.68,5.22,11.73,11.67v559.69C1114.46,578.1,1109.21,583.37,1102.73,583.39z M704.55,0.67
		c-6.21,0.01-11.25,5.05-11.26,11.26v559.69c0.01,6.21,5.05,11.25,11.26,11.26h398.17c6.21-0.01,11.25-5.05,11.26-11.26V11.93
		c-0.01-6.21-5.05-11.25-11.26-11.26H704.55z"/>
	<rect x="788.85" y="49.31" class="st1" width="224.37" height="405.43"/>
	<rect x="778.52" y="49.31" class="st2" width="229.87" height="405.43"/>
	<rect x="788.85" y="454.74" class="st1" width="224.37" height="9.61"/>
	<rect x="774.78" y="454.74" class="st2" width="229.87" height="9.61"/>
	<rect x="792.99" y="63.81" class="st3" width="200.88" height="376.44"/>
	<polygon class="st4" points="849.82,440.25 906.36,63.81 946.53,63.81 889.97,440.25 	"/>
	<polygon class="st4" points="856.19,440.25 912.75,63.81 952.9,63.81 896.34,440.25 	"/>
	<polygon class="st4" points="898.59,440.25 955.15,63.81 970.8,63.81 914.26,440.25 	"/>
	<rect x="793.01" y="63.81" class="st1" width="1.84" height="376.44"/>
	<polygon class="st5" points="775.07,74.74 999.44,74.74 1000.76,69.44 776.41,69.44 	"/>
	<polygon class="st5" points="775.07,83.4 999.44,83.4 1000.76,78.12 776.41,78.12 	"/>
	<polygon class="st5" points="775.07,92.08 999.44,92.08 1000.76,86.8 776.41,86.8 	"/>
	<polygon class="st5" points="775.07,100.76 999.44,100.76 1000.76,95.46 776.41,95.46 	"/>
	<polygon class="st5" points="775.07,109.44 999.44,109.44 1000.76,104.14 776.41,104.14 	"/>
	<polygon class="st5" points="775.07,118.1 999.44,118.1 1000.76,112.82 776.41,112.82 	"/>
	<rect x="734.08" y="25" class="st2" width="323.57" height="7.81"/>
	<rect x="1034.78" y="18.42" class="st6" width="17.01" height="500.74"/>
	<rect x="1034.78" y="18.42" class="st7" width="4.41" height="500.74"/>
	<rect x="1017.77" y="18.42" class="st6" width="17.01" height="500.74"/>
	<rect x="1017.77" y="18.42" class="st7" width="4.41" height="500.74"/>
	<rect x="1000.76" y="18.42" class="st6" width="17.01" height="500.74"/>
	<rect x="771.84" y="18.42" class="st6" width="17.01" height="500.74"/>
	<rect x="771.84" y="18.42" class="st7" width="4.41" height="500.74"/>
	<rect x="754.85" y="18.42" class="st6" width="17.01" height="500.74"/>
	<rect x="754.85" y="18.42" class="st7" width="4.41" height="500.74"/>
	<rect x="737.83" y="18.42" class="st6" width="17.01" height="500.74"/>
	<rect x="343.97" y="49.31" class="st1" width="224.37" height="405.43"/>
	<rect x="333.62" y="49.31" class="st2" width="229.87" height="405.43"/>
	<rect x="343.97" y="454.74" class="st1" width="224.37" height="9.61"/>
	<rect x="329.89" y="454.74" class="st2" width="229.87" height="9.61"/>
	<rect x="348.12" y="63.81" class="st3" width="200.88" height="376.44"/>
	<polygon class="st4" points="404.94,440.25 461.48,63.81 501.65,63.81 445.09,440.25 	"/>
	<polygon class="st4" points="411.32,440.25 467.86,63.81 508.02,63.81 451.46,440.25 	"/>
	<polygon class="st4" points="453.71,440.25 510.27,63.81 525.92,63.81 469.38,440.25 	"/>
	<rect x="348.14" y="63.79" class="st1" width="1.84" height="376.44"/>
	<polygon class="st5" points="330.2,74.74 554.56,74.74 555.88,69.44 331.54,69.44 	"/>
	<polygon class="st5" points="330.2,83.4 554.56,83.4 555.88,78.12 331.54,78.12 	"/>
	<polygon class="st5" points="330.2,92.08 554.56,92.08 555.88,86.8 331.54,86.8 	"/>
	<polygon class="st5" points="330.2,100.76 554.56,100.76 555.88,95.46 331.54,95.46 	"/>
	<polygon class="st5" points="330.2,109.44 554.56,109.44 555.88,104.14 331.54,104.14 	"/>
	<polygon class="st5" points="330.2,118.1 554.56,118.1 555.88,112.82 331.54,112.82 	"/>
	<rect x="289.2" y="25" class="st2" width="323.57" height="7.81"/>
	<rect x="589.91" y="18.42" class="st6" width="17.01" height="500.74"/>
	<rect x="589.91" y="18.42" class="st7" width="4.41" height="500.74"/>
	<rect x="572.89" y="18.42" class="st6" width="17.01" height="500.74"/>
	<rect x="572.89" y="18.42" class="st7" width="4.41" height="500.74"/>
	<rect x="555.88" y="18.42" class="st6" width="17.01" height="500.74"/>
	<rect x="326.96" y="18.42" class="st6" width="17.01" height="500.74"/>
	<rect x="326.96" y="18.42" class="st7" width="4.41" height="500.74"/>
	<rect x="309.95" y="18.42" class="st6" width="17.01" height="500.74"/>
	<rect x="309.95" y="18.42" class="st7" width="4.41" height="500.74"/>
	<rect x="292.94" y="18.42" class="st6" width="17.01" height="500.74"/>
	<rect x="942.84" y="488.15" class="st2" width="34.66" height="173.21"/>
	<rect x="671.09" y="661.36" class="st2" width="293.75" height="14"/>
	<rect x="658.45" y="488.15" class="st8" width="284.39" height="173.21"/>
	<rect x="684.35" y="506.5" class="st2" width="232.57" height="57.61"/>
	<rect x="684.35" y="577.31" class="st2" width="232.57" height="57.61"/>
	<path class="st8" d="M773.07,514.44h55.12c2.74,0,4.97-2.22,4.97-4.97l0,0l0,0c-0.01-2.74-2.23-4.96-4.97-4.97h-55.12
		c-2.76-0.02-5.01,2.19-5.03,4.95c0,0.04,0,0.08,0,0.12l0,0C768.1,512.3,770.34,514.47,773.07,514.44z"/>
	<path class="st8" d="M773.07,585.27h55.12c2.74-0.01,4.96-2.23,4.97-4.97l0,0c0-2.74-2.22-4.97-4.97-4.97l0,0h-55.12
		c-2.74-0.03-5,2.16-5.03,4.91c0,0.02,0,0.04,0,0.06l0,0c0.01,2.76,2.25,4.98,5.01,4.97C773.06,585.27,773.07,585.27,773.07,585.27z
		"/>
	<rect x="649.64" y="481.41" class="st2" width="293.18" height="6.76"/>
	<rect x="942.82" y="481.38" class="st1" width="43.88" height="6.76"/>
	<path class="st8" d="M391.4,663.87L391.4,663.87c-8.22-0.02-14.89-6.68-14.91-14.91V503.06c0.02-8.22,6.68-14.89,14.91-14.91l0,0
		c8.22,0.02,14.88,6.69,14.89,14.91v145.91C406.27,657.18,399.62,663.85,391.4,663.87z"/>
	<path class="st0" d="M399.91,658.04L399.91,658.04c-5.55-0.02-10.04-4.51-10.06-10.06V504.09c0.02-5.55,4.51-10.04,10.06-10.06l0,0
		c5.56,0.01,10.06,4.51,10.08,10.06v143.85C410,653.5,405.49,658.03,399.91,658.04z"/>
	<path class="st8" d="M413.03,663.87L413.03,663.87c-8.22-0.02-14.88-6.69-14.89-14.91V503.06c0.01-8.22,6.67-14.89,14.89-14.91l0,0
		c8.22,0.02,14.89,6.68,14.91,14.91v145.91C427.91,657.19,421.25,663.85,413.03,663.87z"/>
	<path class="st0" d="M421.63,658.04L421.63,658.04c-5.55-0.01-10.05-4.51-10.06-10.06V504.09c0.01-5.55,4.51-10.05,10.06-10.06l0,0
		c5.55,0.01,10.05,4.51,10.06,10.06v143.85C431.7,653.5,427.19,658.03,421.63,658.04C421.63,658.04,421.63,658.04,421.63,658.04z"/>
	<path class="st8" d="M434.67,488.15L434.67,488.15c8.23,0,14.9,6.67,14.9,14.91v145.91c0,8.23-6.67,14.91-14.9,14.91l0,0
		c-8.23,0-14.9-6.67-14.9-14.91V503.06C419.77,494.82,426.44,488.15,434.67,488.15z"/>
	<path class="st0" d="M443.22,658.04L443.22,658.04c-5.55-0.01-10.05-4.51-10.06-10.06V504.09c0.01-5.55,4.51-10.05,10.06-10.06l0,0
		c5.55,0.01,10.05,4.51,10.06,10.06v143.85C453.29,653.5,448.78,658.03,443.22,658.04L443.22,658.04z"/>
	<path class="st8" d="M456.33,663.87L456.33,663.87c-8.22-0.02-14.89-6.68-14.91-14.91V503.06c0.02-8.22,6.68-14.89,14.91-14.91l0,0
		c8.22,0.02,14.89,6.68,14.91,14.91v145.91C471.22,657.19,464.55,663.85,456.33,663.87z"/>
	<path class="st0" d="M464.93,658.04L464.93,658.04c-5.56-0.01-10.06-4.51-10.08-10.06V504.09c0.02-5.56,4.53-10.05,10.08-10.06l0,0
		c5.55,0.02,10.04,4.51,10.06,10.06v143.85C474.99,653.5,470.49,658.01,464.93,658.04z"/>
	<path class="st8" d="M477.98,663.87L477.98,663.87c-8.22-0.02-14.89-6.68-14.91-14.91V503.06c0.02-8.22,6.68-14.89,14.91-14.91l0,0
		c8.22,0.02,14.89,6.68,14.91,14.91v145.91C492.87,657.19,486.2,663.85,477.98,663.87z"/>
	<path class="st0" d="M486.52,658.04L486.52,658.04c-5.56-0.01-10.06-4.51-10.08-10.06V504.09c0.02-5.56,4.53-10.05,10.08-10.06l0,0
		c5.55,0.02,10.04,4.51,10.06,10.06v143.85C496.58,653.5,492.08,658.01,486.52,658.04z"/>
	<path class="st8" d="M499.63,663.87L499.63,663.87c-8.22-0.02-14.89-6.68-14.91-14.91V503.06c0.02-8.22,6.68-14.89,14.91-14.91l0,0
		c8.22,0.02,14.88,6.69,14.89,14.91v145.91C514.51,657.18,507.85,663.85,499.63,663.87z"/>
	<path class="st0" d="M508.23,658.04L508.23,658.04c-5.55-0.02-10.04-4.51-10.06-10.06V504.09c0.02-5.55,4.51-10.04,10.06-10.06l0,0
		c5.56,0.01,10.06,4.51,10.08,10.06v143.85C518.31,653.5,513.8,658.03,508.23,658.04z"/>
	<path class="st8" d="M521.28,663.87L521.28,663.87c-8.22-0.02-14.89-6.68-14.91-14.91V503.06c0.02-8.22,6.68-14.89,14.91-14.91l0,0
		c8.22,0.02,14.88,6.69,14.89,14.91v145.91C536.16,657.18,529.5,663.85,521.28,663.87z"/>
	<path class="st8" d="M495.84,637.73h43.71c1.82,0,3.3,1.48,3.3,3.3l0,0c0,1.82-1.48,3.3-3.3,3.3h-43.71c-1.82,0-3.3-1.48-3.3-3.3
		l0,0C492.54,639.2,494.02,637.73,495.84,637.73z"/>
	<path class="st8" d="M539.55,518.6h-43.69c-1.82,0-3.3-1.48-3.3-3.3l0,0l0,0c0-1.82,1.48-3.3,3.3-3.3h0h43.71
		c1.82,0,3.3,1.48,3.3,3.3l0,0l0,0c0,1.82-1.48,3.3-3.3,3.3C539.57,518.6,539.56,518.6,539.55,518.6z"/>
</g>
<g id="freepik--Shadow--inject-62">
	<ellipse id="freepik--path--inject-62" class="st8" cx="683.5" cy="745.14" rx="399.8" ry="23.34"/>
</g>
<g id="freepik--information-tab--inject-62">
	<path class="st9" d="M1013.07,399.59H520.25c-10.53,0.11-19.16-8.34-19.27-18.88c-0.01-0.53,0.01-1.07,0.05-1.6L519.1,88.2
		c0.86-11.43,10.29-20.32,21.75-20.5h492.82c10.54-0.1,19.17,8.37,19.27,18.92c0,0.53-0.01,1.05-0.05,1.58l-18.06,290.91
		C1033.95,390.53,1024.52,399.41,1013.07,399.59z"/>
	<path class="st10" d="M1013.07,399.59H520.25c-10.53,0.11-19.16-8.34-19.27-18.88c-0.01-0.53,0.01-1.07,0.05-1.6L519.1,88.2
		c0.86-11.43,10.29-20.32,21.75-20.5h492.82c10.54-0.1,19.17,8.37,19.27,18.92c0,0.53-0.01,1.05-0.05,1.58l-18.06,290.91
		C1033.95,390.53,1024.52,399.41,1013.07,399.59z"/>
	<path class="st11" d="M583.41,151.53h-58.68c-2.97,0.04-5.42-2.33-5.46-5.3c0-0.16,0-0.33,0.02-0.49l1.67-26.81
		c0.2-3.27,2.91-5.82,6.19-5.81h58.68L583.41,151.53z"/>
	<path class="st4" d="M1033.36,72.84h-429.7c-8.61,0.08-15.72,6.77-16.31,15.36l-4.12,66.75h-58.71c-3.28-0.01-5.99,2.54-6.19,5.81
		l-1.55,25.16c-0.24,2.96,1.97,5.56,4.93,5.8c0.17,0.01,0.34,0.02,0.51,0.02h58.68l-11.63,187.37c-0.6,7.86,5.28,14.72,13.13,15.32
		c0.43,0.03,0.87,0.05,1.3,0.04h429.7c8.61-0.08,15.72-6.77,16.31-15.36l18.06-290.91c0.62-7.85-5.24-14.7-13.09-15.32
		C1034.26,72.85,1033.81,72.83,1033.36,72.84z"/>
	<path class="st11" d="M578.34,231.94h-58.6c-2.98,0.04-5.44-2.34-5.48-5.32c0-0.16,0-0.33,0.02-0.49l1.57-25.16
		c0.2-3.27,2.91-5.82,6.19-5.81h58.68L578.34,231.94z"/>
	<path class="st11" d="M575.93,272.15h-58.68c-2.98,0.04-5.44-2.34-5.48-5.32c0-0.16,0-0.33,0.02-0.49l1.57-25.18
		c0.21-3.26,2.92-5.8,6.19-5.79h58.68L575.93,272.15z"/>
	<path class="st11" d="M573.43,312.36h-58.68c-2.99,0.03-5.45-2.37-5.48-5.37c0-0.15,0-0.3,0.01-0.45l1.57-25.18
		c0.25-3.25,2.93-5.77,6.19-5.81h58.68L573.43,312.36z"/>
	<path class="st11" d="M570.94,352.55h-58.58c-2.98,0.1-5.48-2.23-5.59-5.21c-0.01-0.22,0-0.44,0.02-0.66l1.57-25.16
		c0.2-3.27,2.91-5.82,6.19-5.81h58.71L570.94,352.55z"/>
	<path class="st12" d="M523.96,187.06c-1.29,0.03-2.35-0.99-2.38-2.28c0-0.09,0-0.17,0.01-0.26l1.36-22.08
		c0.13-1.56,1.41-2.77,2.97-2.8h49.74c1.29-0.03,2.35,0.99,2.38,2.28c0,0.09,0,0.17-0.01,0.26l-1.36,22.1
		c-0.14,1.55-1.41,2.75-2.97,2.78H523.96z"/>
	<path class="st13" d="M689.69,107.48h-70.99c-5.09,0.04-9.25-4.06-9.28-9.15c0-0.24,0.01-0.48,0.02-0.72l0,0
		c0.42-5.5,4.96-9.78,10.47-9.86h70.95c5.08-0.05,9.23,4.03,9.28,9.11c0,0.25-0.01,0.5-0.02,0.75l0,0
		C699.7,103.09,695.19,107.36,689.69,107.48z"/>
	<path class="st9" d="M1027.85,97.63c-0.41,5.51-4.95,9.8-10.47,9.88c-5.08,0.05-9.24-4.03-9.28-9.11c0-0.26,0.01-0.51,0.02-0.77
		c0.41-5.51,4.96-9.79,10.47-9.86c5.07-0.06,9.22,4,9.28,9.07C1027.88,97.1,1027.87,97.36,1027.85,97.63z"/>
	<path class="st14" d="M826.87,276.24H617.52c-10.06,0.11-18.29-7.96-18.4-18.01c-0.01-0.52,0.01-1.04,0.05-1.56l6.29-101.76
		c0.8-10.92,9.82-19.41,20.76-19.55h209.42c10.03-0.12,18.26,7.92,18.38,17.95c0.01,0.53-0.01,1.07-0.05,1.6l-6.31,101.74
		C846.85,267.57,837.83,276.07,826.87,276.24z M626.16,136.23c-10.47,0.14-19.09,8.26-19.86,18.7l-6.31,101.74
		c-0.73,9.57,6.44,17.92,16.01,18.65c0.51,0.04,1.02,0.06,1.54,0.05h209.4c10.47-0.14,19.09-8.26,19.86-18.7l6.33-101.76
		c0.72-9.58-6.47-17.94-16.05-18.65c-0.5-0.04-0.99-0.05-1.49-0.05L626.16,136.23z"/>
	<path class="st9" d="M642.94,203.04l30.04,19.44c6.02-8.79,14.02-16.04,23.36-21.18l-16.15-31.96
		C665.32,177.52,652.56,189.05,642.94,203.04z"/>
	<path class="st10" d="M642.94,203.04l30.04,19.44c6.02-8.79,14.02-16.04,23.36-21.18l-16.15-31.96
		C665.32,177.52,652.56,189.05,642.94,203.04z"/>
	<path class="st15" d="M624.84,255.12h36.79c0.77-11.71,4.7-22.99,11.36-32.64l-30.04-19.44
		C632.31,218.45,626.06,236.44,624.84,255.12z"/>
	<path class="st9" d="M729.61,156.48c-17.31,0.04-34.34,4.45-49.49,12.83l16.15,32c9.48-5.22,20.11-7.98,30.93-8.02
		c31.72-0.4,57.77,24.99,58.17,56.72c0.02,1.72-0.03,3.43-0.17,5.14h36.79C825.53,200.64,784.1,156.48,729.61,156.48z"/>
	<path class="st9" d="M705.73,313.68H597.89c-0.97,0-1.75-0.78-1.76-1.75c0-0.04,0-0.09,0-0.13l0.47-7.59
		c0.1-1.07,0.99-1.88,2.06-1.88h107.84L705.73,313.68z"/>
	<path class="st12" d="M705.73,313.68h136.09c1.07,0,1.97-0.81,2.06-1.88l0.47-7.59c0.07-0.97-0.66-1.8-1.62-1.87
		c-0.04,0-0.09,0-0.13,0H706.51L705.73,313.68z"/>
	<path class="st9" d="M778.97,343.6H596.03c-0.96,0.01-1.74-0.75-1.76-1.71c0-0.06,0-0.11,0.01-0.17l0.47-7.57
		c0.1-1.07,0.99-1.88,2.06-1.88h182.94L778.97,343.6z"/>
	<path class="st12" d="M778.97,343.6h60.99c1.07,0,1.97-0.81,2.06-1.88l0.47-7.57c0.08-0.95-0.63-1.79-1.58-1.87
		c-0.06,0-0.11-0.01-0.17-0.01h-61.08L778.97,343.6z"/>
	<path class="st9" d="M615.66,373.48h-21.49c-0.97,0-1.75-0.78-1.76-1.75c0-0.04,0-0.09,0-0.13l0.47-7.59
		c0.1-1.07,0.99-1.88,2.06-1.88h21.49L615.66,373.48z"/>
	<path class="st12" d="M615.66,373.48h222.49c1.07,0,1.97-0.81,2.06-1.88l0.47-7.59c0.07-0.97-0.66-1.8-1.62-1.87
		c-0.05,0-0.1,0-0.15,0H616.36L615.66,373.48z"/>
	<path class="st9" d="M887.16,374.41c-0.43,0.01-0.79-0.33-0.81-0.76c0-0.03,0-0.06,0-0.09l14.76-237.77
		c0.03-0.48,0.43-0.85,0.91-0.85c0.43,0,0.78,0.35,0.79,0.78c0,0.02,0,0.04,0,0.06l-14.76,237.69
		C888.06,373.98,887.67,374.4,887.16,374.41C887.16,374.41,887.16,374.41,887.16,374.41z"/>
	<path class="st4" d="M903.78,198.09c-0.25,3.17-2.87,5.63-6.04,5.69c-2.93,0.03-5.32-2.32-5.35-5.24c0-0.15,0-0.3,0.01-0.45
		c0.25-3.17,2.88-5.64,6.06-5.69c2.9-0.04,5.29,2.27,5.34,5.18C903.8,197.74,903.8,197.92,903.78,198.09z"/>
	<path class="st9" d="M897.7,204.62c-3.42,0.01-6.19-2.76-6.2-6.18c0-0.12,0-0.24,0.01-0.36c0.27-3.66,3.28-6.5,6.95-6.56
		c3.42-0.01,6.19,2.76,6.2,6.17c0,0.13,0,0.26-0.01,0.38C904.38,201.74,901.36,204.58,897.7,204.62z M898.4,193.24
		c-2.71,0.04-4.94,2.14-5.13,4.85c-0.18,2.48,1.68,4.63,4.15,4.81c0.13,0.01,0.26,0.01,0.38,0.01c2.7-0.04,4.93-2.13,5.13-4.83
		c0.19-2.48-1.66-4.64-4.13-4.83C898.67,193.24,898.54,193.24,898.4,193.24z"/>
	<path class="st4" d="M900.61,249.31c-0.25,3.17-2.87,5.63-6.04,5.69c-2.93,0.03-5.32-2.32-5.35-5.24c0-0.15,0-0.3,0.01-0.45
		c0.23-3.18,2.85-5.67,6.04-5.73c2.92-0.04,5.31,2.28,5.36,5.2C900.63,248.95,900.62,249.13,900.61,249.31z"/>
	<path class="st9" d="M894.53,255.95c-3.42,0.01-6.19-2.76-6.2-6.18c0-0.12,0-0.24,0.01-0.36c0.27-3.66,3.28-6.5,6.95-6.56
		c3.42-0.01,6.19,2.76,6.2,6.17c0,0.13,0,0.26-0.01,0.38C901.21,253.06,898.19,255.9,894.53,255.95z M895.23,244.56
		c-2.71,0.04-4.94,2.14-5.13,4.85c-0.19,2.46,1.65,4.62,4.11,4.81c0.14,0.01,0.28,0.02,0.43,0.01c2.7-0.04,4.93-2.13,5.13-4.83
		c0.25-2.47-1.55-4.68-4.02-4.93c-0.17-0.02-0.35-0.03-0.52-0.02V244.56z"/>
	<polygon class="st4" points="893.37,274.22 885.84,285.99 899.45,285.99 	"/>
	<path class="st9" d="M899.39,286.88h-13.61c-0.29,0-0.56-0.16-0.7-0.41c-0.15-0.27-0.15-0.6,0-0.87l7.55-11.77
		c0.26-0.4,0.79-0.52,1.19-0.27c0.11,0.07,0.2,0.16,0.27,0.27l6.19,11.77c0.2,0.46,0,0.99-0.46,1.2c-0.12,0.05-0.24,0.08-0.37,0.08
		H899.39z M887.37,285.19h10.58l-4.74-9.24L887.37,285.19z"/>
	<path class="st9" d="M989.6,374.41c-0.43,0.01-0.79-0.33-0.81-0.76c0-0.03,0-0.06,0-0.09l14.76-237.77
		c0.03-0.48,0.43-0.85,0.91-0.85c0.43-0.01,0.79,0.33,0.81,0.76c0,0.03,0,0.06,0,0.09l-14.76,237.69
		C990.51,373.99,990.11,374.4,989.6,374.41z"/>
	<path class="st4" d="M1000.37,292.46c0.23-2.91-1.94-5.45-4.85-5.68c-0.16-0.01-0.31-0.02-0.47-0.02
		c-3.18,0.05-5.81,2.52-6.06,5.69c-0.22,2.92,1.97,5.46,4.89,5.68c0.15,0.01,0.3,0.02,0.45,0.01
		C997.5,298.09,1000.11,295.63,1000.37,292.46z"/>
	<path class="st9" d="M994.28,299c-3.42,0.01-6.19-2.76-6.2-6.18c0-0.12,0-0.24,0.01-0.36c0.27-3.65,3.29-6.49,6.95-6.54
		c3.42-0.01,6.19,2.76,6.2,6.18c0,0.12,0,0.24-0.01,0.36C1000.97,296.12,997.95,298.96,994.28,299z M994.99,287.62
		c-2.71,0.05-4.93,2.15-5.13,4.85c-0.18,2.49,1.69,4.65,4.17,4.83c0.12,0.01,0.24,0.01,0.36,0.01c2.71-0.05,4.93-2.15,5.13-4.85
		c0.18-2.49-1.69-4.65-4.17-4.83C995.23,287.62,995.11,287.62,994.99,287.62z"/>
	<path class="st4" d="M1008.33,164.39c0.23-2.91-1.94-5.45-4.85-5.68c-0.16-0.01-0.33-0.02-0.49-0.02
		c-3.18,0.05-5.81,2.52-6.06,5.69c-0.22,2.92,1.97,5.46,4.89,5.68c0.15,0.01,0.3,0.02,0.45,0.01
		C1005.45,170.03,1008.07,167.57,1008.33,164.39z"/>
	<path class="st9" d="M1002.22,170.93c-3.35,0.08-6.12-2.57-6.2-5.92c0-0.21,0-0.41,0.02-0.62c0.27-3.66,3.28-6.5,6.95-6.56
		c3.42-0.01,6.19,2.76,6.2,6.17c0,0.13,0,0.26-0.01,0.38C1008.9,168.04,1005.88,170.88,1002.22,170.93z M1002.95,159.55
		c-2.71,0.04-4.94,2.14-5.13,4.85c-0.19,2.46,1.65,4.62,4.11,4.81c0.14,0.01,0.28,0.02,0.43,0.01c2.7-0.04,4.93-2.13,5.13-4.83
		c0.19-2.48-1.66-4.64-4.13-4.83C1003.22,159.55,1003.08,159.55,1002.95,159.55z"/>
	<polygon class="st4" points="998.24,235.16 992.18,223.37 1005.77,223.37 	"/>
	<path class="st9" d="M998.18,236.01c-0.3,0-0.57-0.17-0.7-0.43l-6.08-11.77c-0.14-0.26-0.14-0.58,0-0.85
		c0.16-0.27,0.45-0.43,0.76-0.43h13.61c0.3,0,0.58,0.16,0.72,0.43c0.14,0.26,0.14,0.58,0,0.85l-7.51,11.77
		C998.81,235.84,998.51,236.01,998.18,236.01z M993.6,224.23l4.74,9.22l5.9-9.22H993.6z"/>
	<path class="st9" d="M938.38,374.41c-0.43,0.01-0.79-0.33-0.81-0.76c0-0.03,0-0.06,0-0.09l14.76-237.77
		c0.03-0.48,0.43-0.85,0.91-0.85c0.42-0.01,0.77,0.32,0.79,0.74c0,0.04,0,0.07,0,0.11l-14.74,237.69
		C939.29,373.99,938.89,374.4,938.38,374.41z"/>
	<path class="st4" d="M954.12,212.64c-0.25,3.17-2.88,5.64-6.06,5.69c-2.9,0.04-5.29-2.27-5.34-5.18c0-0.17,0-0.34,0.02-0.51
		c0.25-3.17,2.87-5.63,6.04-5.69c2.93-0.03,5.32,2.32,5.35,5.24C954.13,212.35,954.13,212.5,954.12,212.64z"/>
	<path class="st9" d="M948.01,219.24c-3.42,0.01-6.19-2.76-6.2-6.17c0-0.13,0-0.26,0.01-0.38c0.27-3.65,3.29-6.49,6.95-6.54
		c3.42-0.01,6.19,2.76,6.2,6.18c0,0.12,0,0.24-0.01,0.36C954.7,216.34,951.68,219.19,948.01,219.24z M948.71,207.84
		c-2.71,0.05-4.93,2.15-5.13,4.85c-0.18,2.49,1.69,4.65,4.17,4.83c0.12,0.01,0.24,0.01,0.36,0.01c2.71-0.05,4.93-2.15,5.13-4.85
		c0.19-2.48-1.66-4.64-4.13-4.83C948.99,207.84,948.85,207.84,948.71,207.84z"/>
	<path class="st4" d="M947.04,326.59c-0.25,3.17-2.87,5.63-6.04,5.69c-2.92,0.04-5.31-2.29-5.36-5.2c0-0.16,0-0.33,0.02-0.49
		c0.25-3.17,2.87-5.63,6.04-5.69c2.93-0.03,5.32,2.32,5.35,5.24C947.06,326.29,947.06,326.44,947.04,326.59z"/>
	<path class="st9" d="M940.94,333.13c-3.42,0.01-6.19-2.76-6.2-6.18c0-0.12,0-0.24,0.01-0.36c0.27-3.66,3.28-6.5,6.95-6.56
		c3.42-0.01,6.19,2.76,6.2,6.17c0,0.13,0,0.26-0.01,0.38C947.62,330.24,944.6,333.08,940.94,333.13z M941.64,321.74
		c-2.71,0.04-4.94,2.14-5.13,4.85c-0.18,2.48,1.68,4.63,4.15,4.81c0.13,0.01,0.26,0.01,0.38,0.01c2.7-0.04,4.93-2.13,5.13-4.83
		c0.19-2.48-1.66-4.64-4.13-4.83C941.91,321.75,941.78,321.74,941.64,321.74L941.64,321.74z"/>
	<polygon class="st4" points="952.51,146.91 944.96,158.7 958.57,158.7 	"/>
	<path class="st9" d="M958.51,159.55h-13.59c-0.3,0-0.58-0.16-0.72-0.43c-0.14-0.26-0.14-0.58,0-0.85l7.53-11.77
		c0.27-0.41,0.82-0.53,1.23-0.26c0.1,0.07,0.19,0.15,0.26,0.26l6.06,11.77c0.16,0.26,0.16,0.59,0,0.85
		C959.1,159.37,958.82,159.53,958.51,159.55z M946.51,157.84h10.64l-4.76-9.11L946.51,157.84z"/>
</g>
<g id="freepik--Character--inject-62">
	<path class="st9" d="M398,208.13l-2.06,10.04l-2.06,10.31c-1.36,6.85-2.52,13.69-3.57,20.41c-0.54,3.36-0.95,6.68-1.3,9.96
		s-0.66,6.45-0.82,9.53c-0.14,2.8-0.14,5.61,0,8.41c0,2.41,0.54,4.47,0.43,4.7l-1.38-2.37c-0.62-0.62-1.75-1.2-1.94-0.93
		c-0.19,0.27,0.54,0.74,1.86,1.09c1.7,0.4,3.43,0.64,5.18,0.72c2.21,0.07,4.43,0.01,6.64-0.16c5-0.41,9.98-1.1,14.91-2.06
		c2.58-0.49,5.2-1.01,7.79-1.59l7.71-1.67l1.03-0.23c5.85-1.25,11.6,2.48,12.85,8.32c0.88,4.14-0.72,8.41-4.11,10.94l-3.86,2.85
		l-3.79,2.6c-2.6,1.65-5.22,3.26-7.94,4.74c-5.59,3.08-11.42,5.69-17.44,7.79c-3.29,1.11-6.64,2.01-10.04,2.7
		c-3.86,0.79-7.79,1.17-11.73,1.11c-4.94-0.06-9.82-0.99-14.43-2.76c-5.94-2.38-11.09-6.39-14.85-11.57
		c-0.4-0.57-0.75-1.16-1.07-1.77l-0.31-0.6c-2.57-5.2-4.34-10.76-5.26-16.5c-0.76-4.51-1.2-9.07-1.32-13.65
		c-0.15-4.3-0.15-8.5,0-12.58c0.15-4.08,0.43-8.1,0.85-12.06c0.7-7.92,1.88-15.63,3.22-23.28c0.7-3.81,1.4-7.61,2.27-11.38
		c0.41-1.9,0.82-3.79,1.3-5.69l1.53-5.84c3.03-11.53,14.83-18.43,26.36-15.4c11.07,2.9,17.95,13.94,15.68,25.16L398,208.13z"/>
	<path class="st16" d="M398,208.13l-2.06,10.04l-2.06,10.31c-1.36,6.85-2.52,13.69-3.57,20.41c-0.54,3.36-0.95,6.68-1.3,9.96
		s-0.66,6.45-0.82,9.53c-0.14,2.8-0.14,5.61,0,8.41c0,2.41,0.54,4.47,0.43,4.7l-1.38-2.37c-0.62-0.62-1.75-1.2-1.94-0.93
		c-0.19,0.27,0.54,0.74,1.86,1.09c1.7,0.4,3.43,0.64,5.18,0.72c2.21,0.07,4.43,0.01,6.64-0.16c5-0.41,9.98-1.1,14.91-2.06
		c2.58-0.49,5.2-1.01,7.79-1.59l7.71-1.67l1.03-0.23c5.85-1.25,11.6,2.48,12.85,8.32c0.88,4.14-0.72,8.41-4.11,10.94l-3.86,2.85
		l-3.79,2.6c-2.6,1.65-5.22,3.26-7.94,4.74c-5.59,3.08-11.42,5.69-17.44,7.79c-3.29,1.11-6.64,2.01-10.04,2.7
		c-3.86,0.79-7.79,1.17-11.73,1.11c-4.94-0.06-9.82-0.99-14.43-2.76c-5.94-2.38-11.09-6.39-14.85-11.57
		c-0.4-0.57-0.75-1.16-1.07-1.77l-0.31-0.6c-2.57-5.2-4.34-10.76-5.26-16.5c-0.76-4.51-1.2-9.07-1.32-13.65
		c-0.15-4.3-0.15-8.5,0-12.58c0.15-4.08,0.43-8.1,0.85-12.06c0.7-7.92,1.88-15.63,3.22-23.28c0.7-3.81,1.4-7.61,2.27-11.38
		c0.41-1.9,0.82-3.79,1.3-5.69l1.53-5.84c3.03-11.53,14.83-18.43,26.36-15.4c11.07,2.9,17.95,13.94,15.68,25.16L398,208.13z"/>
	<path class="st15" d="M345.81,735.53c0,0-19.51-17.69-19.03-23.3l-16.21-8.25l-9.65,16.66l8.95,5.01l2.47-0.8l1.63,2.82
		c8.08,4.12,25.73,12.19,31.9,11.96C346.61,738.36,346.59,736.78,345.81,735.53z"/>
	<path class="st15" d="M347.21,527.35c11.79-84.54,7.94-135.82,20.33-177.46l76.71-6.19c0,0-34,134.03-49.49,189.83
		s-64.4,182.32-64.4,182.32l-21.34-10.93C309.02,704.93,326.44,592.71,347.21,527.35z"/>
	<path class="st16" d="M409.77,406.2c-5.22,12.06-15.4,89.53-15.36,128.22c0-0.27,0.16-0.58,0.25-0.87
		c5.46-19.61,13.24-48.91,20.99-78.62L409.77,406.2z"/>
	<path class="st15" d="M469.05,738.29c0,0-31.82-7.22-33.28-12.37h-20.19l-1.67,19.24h11.22l2.06-1.77l2.52,1.77
		c9.07,0,35.3,0,40.95-3.3C470.7,738.93,469.05,738.29,469.05,738.29z"/>
	<path class="st15" d="M415.17,529.72c-16.85-114.46-16.85-185.33-16.85-185.33l75.06-1.22c0,0-9.01,136.5-12.15,193.68
		c-3.24,59.45-21.8,190.3-21.8,190.3h-26.06C413.38,727.15,407.19,603.23,415.17,529.72z"/>
	<path class="st17" d="M407.03,129.48c-3.57,22.46-10.04,34.5-14.43,45.65c7.57,7.05,23.77,15.77,40.13,15.55s13.38-11.3,8.99-17.01
		c-11.73-5.92-12.19-11.9-9.32-17.14L407.03,129.48z"/>
	<path class="st15" d="M378.98,178.31c0,0,10.43-12.27,14.56-14.33c4.12-2.06,35.32,2.06,42.68,3.55
		c7.36,1.48,16.33,12.37,16.33,12.37L378.98,178.31z"/>
	<path class="st15" d="M458.74,127.61c-0.33,1.48,0.19,2.85,1.15,3.05c0.97,0.21,2.06-0.82,2.35-2.31c0.29-1.48-0.19-2.85-1.15-3.05
		C460.12,125.09,459.03,126.04,458.74,127.61z"/>
	<path class="st18" d="M458.14,129.65c0.76,4.9,2.19,9.66,4.25,14.17c-3.18,1.88-7.38-0.21-7.38-0.21L458.14,129.65z"/>
	<path class="st15" d="M463.81,119.09c-0.26,0.14-0.57,0.14-0.82,0c-2.04-0.97-4.43-0.9-6.41,0.21c-0.4,0.27-0.93,0.17-1.2-0.23
		c0-0.01-0.01-0.01-0.01-0.02c-0.27-0.41-0.17-0.96,0.24-1.23c0,0,0.01,0,0.01-0.01c2.47-1.44,5.49-1.58,8.08-0.37
		c0.45,0.2,0.65,0.72,0.46,1.17c0,0,0,0.01,0,0.01C464.1,118.81,463.98,118.98,463.81,119.09z"/>
	<path class="st17" d="M409.63,112.56c-2.95,18.39-5.63,29.01,1.48,40.31c10.68,16.99,35.05,13.53,43.45-3.67
		c7.59-15.47,11.16-42.95-5.05-54c-11.72-8-27.71-4.98-35.7,6.75C411.63,105.12,410.2,108.75,409.63,112.56z"/>
	<path class="st15" d="M443.05,130.16c14.89,3.22,10.56-15.18,6.99-17.01c8.95,5.36,14.89-0.87,14.43-6.47
		c6.85-1.13,6.5-12.37,1.79-12.72c-2.97-7.77-16.85-14.31-19.42-9.51c-7.49-8.7-27.53-7.22-24.62-0.91
		c-7.61-1.48-23.82-0.8-18.39,10.66c-11.57,1.48-11.01,21.28-3.46,23.34c-7.9,4.37-0.25,19.3,3.15,28.66
		C406.92,155.57,440.82,147.24,443.05,130.16z"/>
	<path class="st17" d="M434.58,128.29c-0.64,3.92,0.23,7.93,2.43,11.24c2.91,4.12,7.4,1.55,9.16-3.42
		c1.57-4.45,1.94-11.96-2.21-14.21C439.81,119.65,435.34,123.26,434.58,128.29z"/>
	<path class="st9" d="M380.04,176.25c25.36-3.11,61.34-2.85,85.22,1.32c12.18,2.15,21.37,12.25,22.35,24.58
		c2.97,36.44-5.09,100.11-12.06,164.22c-56.19,18.85-113.22-0.27-113.22-0.27c-1.26-12.93,5.71-55.3,10.06-77.92
		c-3.2-23.34-11.3-50.09-15.86-81.12c-2.15-14.82,8.12-28.58,22.94-30.73C379.66,176.3,379.85,176.27,380.04,176.25z"/>
	<path class="st16" d="M456.35,227.26c3.84,21.94,15.98,48.09,27.09,65.39c1.53-15.16,2.8-29.59,3.61-42.91L456.35,227.26z"/>
	<path class="st9" d="M642.12,176.44c-17.08-10.85-39.73-5.8-50.58,11.28c-10.85,17.08-5.8,39.73,11.28,50.58l0,0
		c-3.67,4.95-14.43,19.49-17.71,25.09c-4.12,6.78-6.19,12.89-3.34,14.58s7.18-3.11,11.2-9.9c3.34-5.59,11.01-21.96,13.59-27.57
		c17.93,9.38,40.07,2.44,49.45-15.5c9.04-17.3,2.94-38.65-13.88-48.55V176.44z M650.92,224.34c-9.06,15.2-28.72,20.19-43.93,11.13
		c-15.2-9.06-20.19-28.72-11.13-43.93c9.05-15.2,28.7-20.18,43.9-11.15c15.21,9.03,20.22,28.67,11.19,43.88
		C650.94,224.3,650.93,224.32,650.92,224.34z"/>
	<path class="st12" d="M652.43,225.22c-9.54,16.05-30.27,21.32-46.32,11.79c-16.05-9.54-21.32-30.27-11.79-46.32
		s30.27-21.32,46.32-11.79c0,0,0.01,0,0.01,0.01c16.04,9.53,21.32,30.25,11.79,46.29C652.44,225.21,652.43,225.21,652.43,225.22z"/>
	<path class="st17" d="M599.84,257.31l-4.47-3.96c-1.68-1.5-3.99-2.08-6.19-1.57l-10.31,2.35c-4.09,0.94-7.47,3.8-9.07,7.67
		l-0.99,2.39c6.95,7.07,19.67,9.61,19.67,9.61l3.57,1.11c3,1.05,6.28-0.53,7.33-3.53c0.01-0.03,0.02-0.06,0.03-0.1l2.33-6.99
		C602.52,261.8,601.78,259.07,599.84,257.31z"/>
	<path class="st9" d="M486.52,194.68l4.12,9.05l4.35,9.24c2.91,6.19,5.98,12.15,9.05,17.98c1.55,2.91,3.15,5.74,4.78,8.47
		c1.59,2.74,3.22,5.38,4.87,7.81c1.51,2.22,3.12,4.37,4.85,6.43c1.44,1.77,2.93,3.05,2.97,3.26l-2.56-1.05
		c2.83,1.32,5.88,2.09,8.99,2.27c4.37,0.38,8.76,0.43,13.13,0.16c4.7-0.21,9.55-0.7,14.43-1.28c2.45-0.31,4.95-0.6,7.44-0.97
		l7.38-0.99l1.01-0.14c5.94-0.79,11.39,3.38,12.19,9.31c0.55,4.12-1.3,8.19-4.76,10.48l-3.75,2.47l-3.69,2.23
		c-2.5,1.42-5.01,2.8-7.61,4.12s-5.22,2.5-7.92,3.61s-5.48,2.06-8.25,3.07c-5.97,1.98-12.11,3.36-18.35,4.12
		c-7.48,1-15.09,0.54-22.39-1.36c-0.53-0.15-1.05-0.34-1.55-0.58l-0.99-0.47c-5.2-2.5-9.97-5.79-14.15-9.77
		c-3.31-3.09-6.39-6.41-9.24-9.94c-5.1-6.29-9.74-12.93-13.9-19.88c-4.12-6.66-7.71-13.42-11.11-20.21
		c-1.67-3.42-3.34-6.83-4.87-10.31c-0.76-1.73-1.55-3.48-2.27-5.24l-2.23-5.51c-4.5-11.04,0.8-23.64,11.84-28.14
		c10.72-4.37,22.98,0.49,27.79,11.03L486.52,194.68z"/>
</g>
<g id="freepik--Plant--inject-62">
	<path class="st15" d="M916.2,668.02c-3.18-24.93,10.72-45.03,24.17-64.5c15.82-22.89,32.17-46.54,22.5-79.02
		c-2.64-8.89-7.07-17.15-13.01-24.27c-5.77,14.8-15.59,27.66-28.35,37.12c-17.94,13.36-39.18,17.57-53.96,10.74
		c-8.35-3.84-18.56-12.89-20.1-34.08c-1.53-21.69,11.07-37.12,33.67-41.24s50.04,4.12,68.05,23.53c4.55-13.42,5.85-27.73,3.79-41.76
		l2.06-0.29c2.17,14.73,0.71,29.77-4.27,43.8c6.5,7.55,11.3,16.4,14.1,25.96c9.96,33.4-6.68,57.49-22.79,80.77
		c-13.84,20.02-26.81,38.93-23.82,63.06L916.2,668.02z M892.83,473.78c-3.81-0.01-7.61,0.32-11.36,0.99
		c-21.47,3.9-33.43,18.56-32,39.03c1.11,15.98,7.65,27.18,18.93,32.35c14.17,6.52,34.54,2.39,51.88-10.52
		c12.72-9.42,22.46-22.31,28.04-37.12C934.08,482.9,913.97,473.93,892.83,473.78L892.83,473.78z"/>
	<path class="st9" d="M954.8,461.47c-16.33-14.58-18.21-33.82-8.64-37.88C959.42,417.96,964.36,441.38,954.8,461.47z"/>
	<path class="st9" d="M942.4,602.36c-11.67-18.56-12.37-41.69,1.88-43.3C957.25,557.53,960.1,579.52,942.4,602.36z"/>
	<path class="st9" d="M955.17,467.59c-2.25-13.84,4.56-24.15,10.95-22.31C974.96,447.82,968.06,461.45,955.17,467.59z"/>
	<path class="st9" d="M923.06,534.46c-7.16-15.42-2.58-29.71,5.51-29.67C939.74,504.87,936.05,523.08,923.06,534.46z"/>
	<path class="st9" d="M895.6,472.95c-14.72,2.49-25.78-4.7-23.86-11.53C874.4,451.96,888.98,459.3,895.6,472.95z"/>
	<path class="st9" d="M895.6,472.95c-9.03-4.83-10.31-12-5.69-13.92C896.4,456.37,899.49,465.01,895.6,472.95z"/>
	<path class="st9" d="M966.57,534.32c-3.57-9.63,0.21-15.88,4.97-14.21C978.16,522.44,974.76,530.93,966.57,534.32z"/>
	<path class="st9" d="M850.75,527.57c-10.21,1.11-15.34-4.12-12.56-8.25C842.07,513.43,849.49,518.81,850.75,527.57z"/>
	
		<rect x="962.11" y="684.76" transform="matrix(0.1347 -0.9909 0.9909 0.1347 168.6246 1564.6737)" class="st9" width="36.13" height="2.06"/>
	
		<rect x="966.5" y="720.41" transform="matrix(0.1347 -0.9909 0.9909 0.1347 129.0217 1590.6224)" class="st9" width="17.47" height="2.06"/>
	<path class="st9" d="M877.33,652.32l11.94,87.31c0.43,3.15,3.13,5.5,6.31,5.51h64.46c3.18,0,5.88-2.35,6.31-5.51l11.94-87.31
		c0.47-3.49-1.98-6.69-5.47-7.16c-0.28-0.04-0.56-0.06-0.84-0.06h-88.46c-3.52,0.07-6.31,2.98-6.24,6.5
		C877.28,651.85,877.3,652.09,877.33,652.32z"/>
</g>
</svg>
