<?xml version="1.0" encoding="utf-8"?>
<!-- Generator: Adobe Illustrator 23.1.0, SVG Export Plug-In . SVG Version: 6.00 Build 0)  -->
<svg version="1.1" id="Layer_1" xmlns="http://www.w3.org/2000/svg" xmlns:xlink="http://www.w3.org/1999/xlink" x="0px" y="0px"
	 viewBox="0 0 1366 768" style="enable-background:new 0 0 1366 768;" xml:space="preserve">
<style type="text/css">
	.st0{fill:#92E3A9;}
	.st1{opacity:0.7;fill:#FFFFFF;enable-background:new    ;}
	.st2{fill:none;stroke:#263238;stroke-miterlimit:10;}
	.st3{fill:#263238;}
	.st4{fill:none;stroke:#263238;stroke-linecap:round;stroke-linejoin:round;}
	.st5{fill:#E5E5E5;}
	.st6{clip-path:url(#SVGID_2_);}
	.st7{opacity:0.17;enable-background:new    ;}
	.st8{fill:#92E3A9;stroke:#263238;stroke-miterlimit:10;}
	.st9{opacity:0.2;enable-background:new    ;}
	.st10{fill:#7A7A7A;}
	.st11{fill:#FFFFFF;stroke:#263238;stroke-linecap:round;stroke-linejoin:round;}
	.st12{fill:#CCCCCC;}
	.st13{opacity:0.5;fill:#FFFFFF;enable-background:new    ;}
	.st14{fill:#263238;stroke:#263238;stroke-linecap:round;stroke-linejoin:round;}
	.st15{fill:#5E5E5E;stroke:#263238;stroke-linecap:round;stroke-linejoin:round;}
</style>
<g id="freepik--background-simple--inject-55">
	<path class="st0" d="M1082.81,317.67c-1.77-10.99-3.89-21.78-6.19-32.28c-18.81-85.52-62.27-176.26-147.46-210.8
		c-98-39.72-237.1-28.71-324.77,48.86c-67.44,59.63-204.09,95.62-280.4,186.02c-79.1,93.72-95.62,269.37,7.1,340.26
		c73.06,50.42,163.4,10.65,244.77-6.02c46.34-9.48,86.45-4.12,132.13,0c79.38,7.1,161.6,12.42,241.66-5.32
		c39.54-8.87,74.7-24.95,96.99-61.62C1093.44,499.67,1096.67,402.59,1082.81,317.67z"/>
	<path class="st1" d="M1082.81,317.67c-1.77-10.99-3.89-21.78-6.19-32.28c-18.81-85.52-62.27-176.26-147.46-210.8
		c-98-39.72-237.1-28.71-324.77,48.86c-67.44,59.63-204.09,95.62-280.4,186.02c-79.1,93.72-95.62,269.37,7.1,340.26
		c73.06,50.42,163.4,10.65,244.77-6.02c46.34-9.48,86.45-4.12,132.13,0c79.38,7.1,161.6,12.42,241.66-5.32
		c39.54-8.87,74.7-24.95,96.99-61.62C1093.44,499.67,1096.67,402.59,1082.81,317.67z"/>
</g>
<g id="freepik--Graphics--inject-55">
	<path class="st2" d="M318.66,512.62h95.83c5.88,0,10.65,4.77,10.65,10.65l0,0c0,5.88-4.77,10.65-10.65,10.65H306.23
		c-5.88,0-10.65-4.77-10.65-10.65l0,0c0-5.88,4.77-10.65,10.65-10.65h2.66"/>
	<path class="st2" d="M393.2,547.85h21.3c5.88,0,10.65,4.77,10.65,10.65l0,0c0,5.88-4.77,10.65-10.65,10.65H306.23
		c-5.88,0-10.65-4.77-10.65-10.65l0,0c0-5.88,4.77-10.65,10.65-10.65h77.2"/>
	<path class="st2" d="M414.49,604.39H306.23c-5.88,0-10.65-4.77-10.65-10.65l0,0c0-5.88,4.77-10.65,10.65-10.65h108.26
		c5.88,0,10.65,4.77,10.65,10.65l0,0C425.14,599.63,420.37,604.39,414.49,604.39z"/>
	<polyline class="st2" points="383.43,477.13 437.56,477.13 437.56,623.54 365.69,623.54 	"/>
	<polyline class="st2" points="307.12,623.54 284.05,623.54 284.05,477.13 371.01,477.13 	"/>
	<line class="st2" x1="353.26" y1="623.54" x2="316" y2="623.54"/>
	<line class="st2" x1="292.04" y1="498.43" x2="428.69" y2="498.43"/>
	<path class="st2" d="M453.54,35.49h95.83c5.88,0,10.65,4.77,10.65,10.65l0,0c0,5.88-4.77,10.65-10.65,10.65H441.11
		c-5.88,0-10.65-4.77-10.65-10.65l0,0c0-5.88,4.77-10.65,10.65-10.65h2.66"/>
	<path class="st2" d="M528.07,70.72h21.3c5.88,0,10.65,4.77,10.65,10.65l0,0c0,5.88-4.77,10.65-10.65,10.65H441.11
		c-5.88,0-10.65-4.77-10.65-10.65l0,0c0-5.88,4.77-10.65,10.65-10.65h77.2"/>
	<path class="st2" d="M441.11,105.95h108.26c5.88,0,10.65,4.77,10.65,10.65l0,0c0,5.88-4.77,10.65-10.65,10.65H441.11
		c-5.88,0-10.65-4.77-10.65-10.65l0,0C430.46,110.72,435.23,105.95,441.11,105.95z"/>
	<polyline class="st2" points="518.31,0 572.44,0 572.44,146.41 500.57,146.41 	"/>
	<polyline class="st2" points="442,146.41 418.93,146.41 418.93,0 505.89,0 	"/>
	<line class="st2" x1="488.14" y1="146.41" x2="450.87" y2="146.41"/>
	<line class="st2" x1="426.91" y1="21.3" x2="563.57" y2="21.3"/>
	<path class="st2" d="M899.08,69.53h-55.96c-2.36,0-4.28-1.91-4.28-4.28v0V49c0-2.36,1.91-4.28,4.28-4.28l0,0h74.98
		c2.36,0,4.28,1.91,4.28,4.28v0v6.37"/>
	<path class="st2" d="M898.54,95.98V61.21c0.01-3.07,2.5-5.56,5.57-5.57h74.25c3.07,0.01,5.56,2.5,5.57,5.57v41.63"/>
	<path class="st2" d="M983.94,137.13v43.37c-0.01,3.07-2.5,5.56-5.57,5.57h-74.25c-3.07-0.01-5.56-2.5-5.57-5.57v-76.19"/>
	<line class="st2" x1="903.81" y1="75.96" x2="978.62" y2="75.96"/>
	<line class="st2" x1="939.56" y1="98.51" x2="978.62" y2="98.51"/>
	<line class="st2" x1="903.81" y1="98.51" x2="933.45" y2="98.51"/>
	<line class="st2" x1="903.81" y1="121.07" x2="978.62" y2="121.07"/>
	<line class="st2" x1="965.22" y1="143.63" x2="978.62" y2="143.63"/>
	<line class="st2" x1="903.81" y1="143.63" x2="958.48" y2="143.63"/>
	<line class="st2" x1="903.81" y1="166.2" x2="978.62" y2="166.2"/>
	<line class="st2" x1="853.94" y1="56.56" x2="894.71" y2="56.56"/>
	<path class="st2" d="M611.66,571.51h-77.13c-3.26,0-5.9-2.64-5.91-5.89V543.2c0-3.26,2.65-5.91,5.91-5.91h103.34
		c3.26,0,5.91,2.65,5.91,5.91v8.78"/>
	<path class="st2" d="M610.93,607.98v-47.92c0-4.24,3.44-7.68,7.68-7.68h102.35c4.24,0,7.68,3.44,7.68,7.68v57.41"/>
	<path class="st2" d="M728.62,664.7v59.79c0,4.24-3.44,7.68-7.68,7.68H618.58c-4.24,0-7.68-3.44-7.68-7.68V619.46"/>
	<line class="st2" x1="618.19" y1="580.36" x2="721.32" y2="580.36"/>
	<line class="st2" x1="667.46" y1="611.46" x2="721.32" y2="611.46"/>
	<line class="st2" x1="618.19" y1="611.46" x2="659.06" y2="611.46"/>
	<line class="st2" x1="618.19" y1="642.57" x2="721.32" y2="642.57"/>
	<line class="st2" x1="702.85" y1="673.66" x2="721.32" y2="673.66"/>
	<line class="st2" x1="618.19" y1="673.66" x2="693.55" y2="673.66"/>
	<line class="st2" x1="618.19" y1="704.75" x2="721.32" y2="704.75"/>
	<line class="st2" x1="549.46" y1="553.64" x2="605.65" y2="553.64"/>
	<path class="st3" d="M743.98,667.79c-4.42,0-8.68-1.71-11.86-4.79l-10.99-10.9c-1.52-1.59-1.47-4.1,0.12-5.62
		c1.5-1.44,3.85-1.48,5.4-0.09l2.17,2.02l-11.06-22.73c-0.53-1.16-0.58-2.48-0.14-3.67c0.92-2.43,3.64-3.65,6.07-2.73
		c1.13,0.43,2.06,1.28,2.58,2.37l4.12,8.11c0.73-0.93,1.78-1.56,2.95-1.77c1.56-0.13,3.11,0.32,4.37,1.26
		c0.76-0.97,1.87-1.61,3.09-1.77c1.3-0.13,2.6,0.18,3.69,0.89c0.51-1.31,1.84-2.11,3.23-1.95c1.5,0.13,2.84,1.01,3.55,2.34
		l7.81,14.36c4.26,8.39,0.92,18.64-7.47,22.91c-2.39,1.21-5.03,1.85-7.71,1.85L743.98,667.79z M723.95,647.08h-0.28
		c-1.21,0.15-2.06,1.25-1.91,2.46c0.06,0.49,0.28,0.94,0.63,1.29l10.99,10.88c6.03,5.88,15.68,5.75,21.56-0.27
		c4.57-4.69,5.64-11.77,2.65-17.6l-7.77-14.32c-0.42-0.8-1.23-1.34-2.13-1.42c-0.73,0-1.51,0.12-1.77,1.77l-0.27,1.61l-1.21-1.1
		c-0.93-0.82-2.13-1.26-3.37-1.22c-1.02,0.21-1.9,0.86-2.4,1.77l-0.57,0.91l-0.8-0.73c-1-0.93-2.31-1.43-3.67-1.42
		c-1.14,0.28-2.09,1.06-2.57,2.13l-0.85,1.47l-5.54-10.93c-0.69-1.47-2.44-2.1-3.91-1.41c-1.47,0.69-2.1,2.44-1.41,3.91l15,31.15
		l-8.87-8.38C725.04,647.25,724.5,647.06,723.95,647.08L723.95,647.08z"/>
	<path class="st3" d="M734.37,641.93c-0.36-0.01-0.68-0.22-0.82-0.55l-4.08-9.6c-0.19-0.46,0.03-0.98,0.48-1.17
		c0.45-0.18,0.97,0.03,1.15,0.48l4.08,9.6c0.2,0.45-0.01,0.97-0.46,1.17c0,0,0,0-0.01,0C734.61,641.91,734.49,641.93,734.37,641.93z
		"/>
	<path class="st3" d="M741.48,639.82c-0.35,0-0.67-0.21-0.82-0.53l-3.55-8.43c-0.2-0.45,0.01-0.97,0.46-1.17c0,0,0,0,0.01,0
		c0.46-0.18,0.97,0.03,1.17,0.48l3.55,8.43c0.19,0.44-0.01,0.95-0.45,1.14c-0.01,0-0.02,0.01-0.03,0.01
		C741.71,639.8,741.6,639.82,741.48,639.82z"/>
	<path class="st3" d="M748.46,637.97c-0.35,0.01-0.66-0.2-0.8-0.51l-3.43-7.36c-0.21-0.43-0.03-0.95,0.4-1.16
		c0.01,0,0.01-0.01,0.02-0.01c0.44-0.21,0.97-0.03,1.18,0.42c0,0,0,0.01,0,0.01l3.43,7.37c0.22,0.43,0.04,0.95-0.39,1.17
		C748.75,637.95,748.61,637.98,748.46,637.97L748.46,637.97z"/>
	
		<rect x="705.54" y="23.43" transform="matrix(0.7071 -0.7071 0.7071 0.7071 184.9327 518.1794)" class="st4" width="24.85" height="24.85"/>
	
		<rect x="1010.96" y="216.86" transform="matrix(0.7071 -0.7071 0.7071 0.7071 137.6147 790.7998)" class="st4" width="24.85" height="24.85"/>
	
		<rect x="473.23" y="642.81" transform="matrix(0.7071 -0.7071 0.7071 0.7071 -321.0724 535.3223)" class="st4" width="24.85" height="24.85"/>
	
		<rect x="678.53" y="53.29" transform="matrix(0.7071 -0.7071 0.7071 0.7071 158.2486 502.1821)" class="st4" width="13.56" height="13.56"/>
	
		<rect x="669.67" y="520.04" transform="matrix(0.7071 -0.7071 0.7071 0.7071 -174.395 632.6218)" class="st4" width="13.56" height="13.56"/>
	<circle class="st4" cx="586.64" cy="604.91" r="7.1"/>
	<circle class="st4" cx="813.8" cy="526.82" r="7.1"/>
	<circle class="st4" cx="1010.79" cy="97.34" r="7.1"/>
	<circle class="st4" cx="272.52" cy="119.26" r="7.1"/>
</g>
<g id="freepik--Screens--inject-55">
	<polygon class="st3" points="487.86,78.44 472.33,52.19 329.41,42.79 329.41,69.16 329.41,78.66 329.41,517.49 852.99,483 
		852.99,99.81 	"/>
	<polygon class="st5" points="850.04,475.04 333.96,507.64 333.96,81.51 850.04,109.98 	"/>
	<g>
		<defs>
			<polygon id="SVGID_1_" points="850.04,475.04 333.96,507.64 333.96,81.51 850.04,109.98 			"/>
		</defs>
		<clipPath id="SVGID_2_">
			<use xlink:href="#SVGID_1_"  style="overflow:visible;"/>
		</clipPath>
		<g class="st6">
			<polygon class="st7" points="852.21,477.66 841.93,478.32 841.93,106.39 852.21,106.98 			"/>
			<polygon class="st7" points="852.21,474.65 841.93,475.28 841.93,331.27 852.21,331.09 			"/>
			<polygon class="st8" points="850.63,124.94 331.56,98.82 331.56,75.62 850.63,105.08 			"/>
		</g>
	</g>
	<polygon class="st4" points="850.04,475.04 333.96,507.64 333.96,81.51 850.04,109.98 	"/>
	<polygon class="st9" points="824.45,176.57 743.93,173.51 743.84,173.51 659.06,170.3 658.98,170.28 569.6,166.91 569.49,166.89 
		475.15,163.33 475.04,163.33 375.25,159.55 375.25,192.18 375.25,192.18 375.25,491.38 824.25,466.77 824.25,205.1 824.45,205.1 	
		"/>
	<polygon class="st8" points="511.5,183.86 410.92,181.09 410.92,148.31 511.5,151.99 	"/>
	<polygon class="st10" points="482.87,170.03 440.74,168.72 440.74,162.6 482.87,163.98 	"/>
	<polygon class="st8" points="606.73,186.47 511.6,183.86 511.6,152 606.73,155.46 	"/>
	<polygon class="st8" points="696.94,188.94 606.83,186.47 606.83,155.46 696.94,158.75 	"/>
	<polygon class="st11" points="782.5,191.28 782.5,161.87 697.03,158.77 697.03,188.94 410.92,181.09 410.92,481.48 863.6,456.26 
		863.6,193.51 	"/>
	<polygon class="st8" points="863.78,193.51 782.6,191.28 782.6,161.87 863.78,164.83 	"/>
	<polygon class="st11" points="850.98,428.59 621.67,439.33 621.67,242.57 850.98,245.1 	"/>
	<polygon class="st0" points="741.27,244.64 684.32,244.04 684.32,267.54 741.27,267.75 	"/>
	<line class="st4" x1="816.14" y1="295.2" x2="833.64" y2="295.12"/>
	<line class="st4" x1="712.11" y1="295.68" x2="805.5" y2="295.26"/>
	<line class="st4" x1="636.22" y1="296.04" x2="701.91" y2="295.74"/>
	<line class="st4" x1="758.93" y1="307.81" x2="833.64" y2="307.18"/>
	<line class="st4" x1="716.62" y1="308.16" x2="746.79" y2="307.91"/>
	<line class="st4" x1="636.22" y1="308.85" x2="703.04" y2="308.28"/>
	<line class="st4" x1="680.15" y1="321.12" x2="833.64" y2="319.23"/>
	<line class="st4" x1="636.22" y1="321.65" x2="665.1" y2="321.29"/>
	<line class="st4" x1="796.94" y1="331.89" x2="833.64" y2="331.28"/>
	<line class="st4" x1="724.5" y1="333.04" x2="784" y2="332.08"/>
	<line class="st4" x1="636.22" y1="334.46" x2="712.11" y2="333.24"/>
	<line class="st4" x1="703.04" y1="345.94" x2="833.64" y2="343.35"/>
	<line class="st4" x1="636.22" y1="347.26" x2="690.48" y2="346.19"/>
	<line class="st4" x1="816.14" y1="355.3" x2="833.64" y2="354.89"/>
	<line class="st4" x1="712.11" y1="357.73" x2="805.5" y2="355.54"/>
	<line class="st4" x1="636.22" y1="359.5" x2="701.91" y2="357.98"/>
	<line class="st4" x1="758.93" y1="368.98" x2="833.64" y2="366.94"/>
	<line class="st4" x1="716.62" y1="370.12" x2="746.79" y2="369.3"/>
	<line class="st4" x1="636.22" y1="372.32" x2="703.04" y2="370.49"/>
	<line class="st4" x1="680.15" y1="383.76" x2="833.64" y2="379.01"/>
	<line class="st4" x1="636.22" y1="385.11" x2="665.1" y2="384.22"/>
	<line class="st4" x1="796.94" y1="392.33" x2="833.64" y2="391.06"/>
	<line class="st4" x1="724.5" y1="394.85" x2="784" y2="392.78"/>
	<line class="st4" x1="636.22" y1="397.92" x2="712.11" y2="395.28"/>
	<line class="st4" x1="703.04" y1="408.15" x2="833.64" y2="403.11"/>
	<line class="st4" x1="636.22" y1="410.72" x2="690.48" y2="408.63"/>
	<line class="st4" x1="628.45" y1="267.98" x2="849.01" y2="268.76"/>
	<line class="st4" x1="684.32" y1="244.04" x2="684.32" y2="267.54"/>
	<line class="st4" x1="741.27" y1="244.66" x2="741.27" y2="267.75"/>
	<line class="st4" x1="796.32" y1="245.25" x2="796.32" y2="267.96"/>
	<polygon class="st3" points="732,258.33 695.62,258.08 695.62,252.38 732,252.68 	"/>
	<polygon class="st12" points="672.92,257.94 635.23,257.69 635.23,251.88 672.92,252.2 	"/>
	<polygon class="st12" points="787.93,258.7 752.77,258.47 752.77,252.86 787.93,253.16 	"/>
	<polygon class="st12" points="840.33,259.05 806.33,258.82 806.33,253.3 840.33,253.59 	"/>
	<polygon class="st11" points="605.2,440.09 430.27,448.27 430.27,206.33 605.2,209.91 	"/>
	<polygon class="st2" points="605.2,297.94 561.76,269.95 522.34,357.23 483.32,326.44 430.27,448.27 605.2,440.09 	"/>
	<path class="st2" d="M496.43,257.94c0-14.58-11.72-26.45-26.3-26.62c-14.5-0.2-26.42,11.4-26.62,25.91c0,0.13,0,0.26,0,0.39
		c0,14.7,11.92,26.62,26.62,26.62l0,0C484.65,284.24,496.43,272.46,496.43,257.94z"/>
	<polygon class="st10" points="578.9,173.03 539.04,171.79 539.04,165.81 578.9,167.12 	"/>
	<polygon class="st10" points="670.42,175.87 632.66,174.7 632.66,168.88 670.42,170.12 	"/>
	<polygon class="st10" points="758.79,178.62 722.99,177.51 722.99,171.86 758.79,173.03 	"/>
	<polygon class="st10" points="841.1,181.18 807.11,180.12 807.11,174.61 841.1,175.73 	"/>
</g>
<g id="freepik--Character--inject-55">
	<ellipse class="st0" cx="935.81" cy="753.01" rx="103.38" ry="15"/>
	<ellipse class="st13" cx="935.81" cy="753.01" rx="103.38" ry="15"/>
	<path class="st11" d="M883.28,189.63c0,0-5.7,21.17-4.49,23.2s4.08,1.22,2.45,5.32c-1.63,4.1-5.32,11.8-4.47,15.05
		c0.85,3.25,5.32,5.7,5.32,5.7s2.04,14.66,4.06,17.5s13.03,1.22,13.03,1.22l0.82,11l32.57-2.04l-1.22-19.52l-1.63-60.34
		L883.28,189.63z"/>
	<path class="st14" d="M922.36,173.41c-2.02,0.3-17.52,0-29.73,2.02c-12.21,2.02-15.87,2.86-15.46,8.15s-0.82,7.33,3.66,9.35
		c1.9,1.04,3.96,1.73,6.1,2.04c0,0-1.22,5.7-1.63,9.78s6.92,8.54,6.92,8.54s-0.41,6.1,0.41,8.15s2.86,2.45,4.08,0.82
		s2.02-9.37,3.25-6.1s6.1,27.67,9.37,30.52c3.27,2.86,17.91,1.22,21.97,0.41s11.8-17.91,15.48-28.09s2.02-28.08-3.27-36.22
		C938.23,174.61,927.65,172.59,922.36,173.41z"/>
	<path class="st11" d="M896.47,215.93c0.54,3.79,0.87,7.6,0.99,11.43c0,4.47-2.98,6.96-0.99,8.87c1.99,1.92,3.55,0.99,4.97-2.48
		c1.63-4.1,2.3-8.52,1.99-12.92C902.93,217.42,902.43,209.97,896.47,215.93z"/>
	<path class="st11" d="M892.23,267.43l-8.87,16.27c0,0,22.38-6.51,34.59-6.51c8.6,0.15,17.17,0.97,25.64,2.45l-5.7-15.88
		C937.89,263.76,906.88,260.51,892.23,267.43z"/>
	<path class="st11" d="M976.49,482.08c0,0,0,14.2-1.22,20.36s-9.35,15.46-12.62,17.09c-3.27,1.63-7.33,2.04-8.15,0
		s-2.02-1.22-0.8-11.8c1.22-10.58,5.63-30.93,5.63-30.93L976.49,482.08z"/>
	<path class="st11" d="M979.35,469.06l-2.86,13.03c-3.5,0.73-7.1,0.87-10.65,0.41c-3.09-0.48-5.62-2.7-6.51-5.7l1.22-11.39
		L979.35,469.06z"/>
	<path class="st11" d="M977.34,293.89c0,0,5.7,34.59,9.35,60.23c3.66,25.64,4.45,50.06,3.64,62.27s-5.7,51.47-7.33,54.29
		c-1.63,2.82-12.62,4.06-17.09,2.02s-6.58-4.45-6.58-12.21s4.06-79.86,4.06-79.86L977.34,293.89z"/>
	<path class="st14" d="M889.4,740.8c-1.61,0.01-3.19,0.41-4.61,1.17c-2.41,1.28-12.88,4.15-19.63,6.55
		c-10.52,3.74-18.74,1.77-17.89,4.47c0.85,2.7,17.27,8.27,26.76,8.41s14.07-2.24,18.62-2.15c4.54,0.09,1.19,2.29,8.75,3.14
		c7.56,0.85,10.03,0.89,12.67-3.25c2.64-4.14,4.12-5.2,3.28-10.42v-0.07c-0.85-4.65-4.94-8-9.67-7.92L889.4,740.8z"/>
	<path class="st14" d="M948.22,735.76c-1.41-0.04-2.79,0.35-3.98,1.12c-2.06,1.3-11.09,4.03-16.88,6.39
		c-9.05,3.67-16.27,1.22-15.44,4.21s10.54,7.1,18.81,7.51c4.48,0.28,8.97,0.11,13.42-0.5c8.87-0.5,3.25,2.66,6.46,3.98
		c2.25,0.71,4.6,1.04,6.96,0.99c9.44,0.5,10.65,1.24,12.76-3.11c2.11-4.35,3.41-5.45,2.5-11.11v-0.12
		c-0.83-5.04-4.58-8.73-8.68-8.87L948.22,735.76z"/>
	<path class="st15" d="M863.74,440.57c0,0,1.63,56.99,1.63,76.12s4.88,105.58,11.39,136.92c6.51,31.34,10.17,76.12,10.17,81
		c0,4.88-1.63,6.11,1.63,9.37s15.46,9.35,19.95,7.31s6.92-9.76,6.92-9.76s0-42.33,1.21-70.01c1.21-27.69-0.8-63.89-0.8-63.89
		s15.87,73.28,20.34,87.92c4.47,14.64,8.15,41.24,8.96,46.53c0.82,5.29,4.4,5.47,8.87,5.47c5.47,0,12.23-0.71,14.66-4.77
		s-2.84-46.82-2.84-63.89s-13.43-123.09-12.21-149.08s8.87-71.22,6.51-84.65c-1.47-7.97-2.29-16.05-2.45-24.15
		C957.69,421,873.91,411.25,863.74,440.57z"/>
	<path class="st11" d="M886.56,281.68c0,0-18.21,7.72-26.74,11.8c-3.98,1.98-8.05,3.76-12.21,5.32c0,0,13.72,129.55,13.72,136.49
		s-0.41,7.33,2.04,9.37s15.07,2.96,37.46,2.56c22.4-0.41,50.45-5,52.5-5c3.33-0.24,6.35-2.05,8.13-4.88
		c2.45-3.66,15.51-141.8,15.97-143.41s-32.19-13.43-35.05-14.2C939.52,278.97,923.16,267.84,886.56,281.68z"/>
	<path class="st4" d="M950.45,364.67c-11.64,16.75-30.03,41.12-44.37,50.35"/>
	<path class="st4" d="M961.81,347.58c0,0-2.11,3.39-5.64,8.68"/>
	<path class="st4" d="M928.11,405.49c0,0-16.11,14.66-29.3,21.99"/>
	<path class="st14" d="M950.84,671.11c4.34,4.56,9.46,8.31,15.12,11.07c0-1.19,0-2.31,0-3.34c0-17.09-13.43-123.09-12.21-149.08
		c0.21-4.74,0.66-10.12,1.21-15.81c-0.44-1.15-0.98-2.26-1.61-3.32c-6.64-10.32-12.63-21.06-17.91-32.14l21.14,20.21
		c0.18-1.53,0.35-3.07,0.51-4.6c-5.63-10.12-13.03-23.99-13.52-28.24l-24.85,13.42c0,0-3.25,96.63-2.84,128.38
		c0,0,2.4,11.09,5.59,25.48C929.16,650.59,942.88,662.85,950.84,671.11z"/>
	<path class="st4" d="M868.64,446.96c1.38,5.06,3.16,9.99,5.32,14.77c1.57,3.29,4.13,6,7.33,7.74"/>
	<path class="st4" d="M894.89,728.46c0.53,6.25,0.46,12.53-0.21,18.76"/>
	<path class="st4" d="M893.08,705.14c0.37,5.32,0.71,10.19,1.01,14.07"/>
	<path class="st4" d="M882.54,493.46c1.01,40.82,3.44,130.41,5.63,150.37c1.58,14.48,3.03,34.48,4.22,51.47"/>
	<path class="st4" d="M881.1,447.58c-0.41,1.22,0.96,25.54,0.96,25.54s0.09,4.14,0.27,11.11"/>
	<path class="st11" d="M796.05,330.08c0,0,1.58-2.75,3.92-7.45s1.97-10.65,1.97-13.72c0-3.07,3.55-4.31,3.55-7.84
		s-5.09-3.12-7.83-0.78c-2.73,2.34-3.55,9.41-3.55,9.41s-4.35-7.35-6.66-12.53c-2.09-4.67-4.97-12.71-8.87-13.88
		c-3.9-1.17-3.73,3.67-3.32,4.84c0.63,2.28,1.44,4.5,2.41,6.66c0.91,1.77,2.73,7.1,2.73,7.1s-5.48-4.31-7.44-4.31
		c-1.59,0.07-2.81,1.41-2.74,3c0.02,0.46,0.15,0.91,0.38,1.31c0,0-4.7,1.95-3.55,5.09c1.15,3.14,1.58,4.31,1.58,4.31
		s-1.19,1.56,0,5.48c1.19,3.92,6.26,10.65,8.22,13.72c1.13,1.83,2.59,3.42,4.31,4.7L796.05,330.08z"/>
	<path class="st4" d="M770.64,301.86c1.25,1.93,2.71,3.71,4.35,5.32"/>
	<path class="st4" d="M768.69,311.27c0.74,1.29,1.63,2.48,2.66,3.55"/>
	<path class="st11" d="M783.95,350.47l-6.92-15.07c2.76-3.97,7.04-6.62,11.82-7.33c8.54-1.63,9.76,0,9.76,0l4.47,15.48
		C803.08,343.55,788.44,344.77,783.95,350.47z"/>
	<path class="st11" d="M825.48,378.14c0,0-12.62-21.56-15.88-29.3c-3.27-7.74-7.72-9.78-15.05-8.96s-13.84,8.55-13.84,14.2
		s26.05,61.87,27.28,65.13c1.22,3.27,10.17,4.06,16.27,0.41C830.36,415.96,831.18,396.06,825.48,378.14z"/>
	<path class="st11" d="M847.52,298.77c0,0-16.79,49.5-19.63,57.22c-2.84,7.72-15.97,42.91-19.52,49.83
		c-3.55,6.92-0.39,18.72,10.65,20.36c11.04,1.63,12.62-1.63,18.32-9.78s19.75-28.5,19.75-28.5S850.82,308.12,847.52,298.77z"/>
</g>
</svg>
