<?xml version="1.0" encoding="utf-8"?>
<!-- Generator: Adobe Illustrator 23.1.0, SVG Export Plug-In . SVG Version: 6.00 Build 0)  -->
<svg version="1.1" id="Layer_1" xmlns="http://www.w3.org/2000/svg" xmlns:xlink="http://www.w3.org/1999/xlink" x="0px" y="0px"
	 viewBox="0 0 1366 768" style="enable-background:new 0 0 1366 768;" xml:space="preserve">
<style type="text/css">
	.st0{fill:#EBEBEB;}
	.st1{fill:#E0E0E0;}
	.st2{fill:#E6E6E6;}
	.st3{fill:#F5F5F5;}
	.st4{fill:#F0F0F0;}
	.st5{fill:#FAFAFA;}
	.st6{fill:#FFFFFF;}
	.st7{opacity:0.2;enable-background:new    ;}
	.st8{fill:#FF887B;}
	.st9{fill:#263238;}
	.st10{fill:#407BFF;}
	.st11{opacity:0.1;enable-background:new    ;}
	.st12{opacity:0.7;fill:#FFFFFF;enable-background:new    ;}
	.st13{opacity:0.2;}
	.st14{fill:#BA4D3C;}
	.st15{opacity:0.3;}
	.st16{opacity:0.3;fill:#FFFFFF;enable-background:new    ;}
	.st17{opacity:0.8;fill:#FFFFFF;enable-background:new    ;}
	.st18{opacity:0.8;}
</style>
<g id="freepik--background-complete--inject-86">
	<rect x="1025.55" y="707.66" class="st0" width="68.23" height="0.52"/>
	<rect x="831.37" y="713.27" class="st0" width="17.9" height="0.52"/>
	<rect x="983.95" y="688.55" class="st0" width="39.54" height="0.52"/>
	<rect x="274.97" y="692.01" class="st0" width="88.98" height="0.52"/>
	<rect x="382.31" y="692.01" class="st0" width="13.04" height="0.52"/>
	<rect x="437.75" y="700.7" class="st0" width="193" height="0.52"/>
	<path class="st0" d="M658.05,582.63H260.22c-6.5,0-11.76-5.27-11.76-11.76V11.66C248.51,5.2,253.76,0,260.22,0h397.83
		c6.5,0,11.76,5.27,11.76,11.76c0,0,0,0,0,0v559.1C669.81,577.36,664.54,582.63,658.05,582.63z M260.22,0.41
		c-6.21,0.01-11.24,5.04-11.25,11.25v559.21c0.01,6.21,5.04,11.24,11.25,11.25h397.83c6.21-0.01,11.24-5.04,11.25-11.25V11.66
		c-0.01-6.21-5.04-11.24-11.25-11.25H260.22z"/>
	<path class="st0" d="M1103.67,582.63H705.84c-6.5,0-11.76-5.27-11.76-11.76V11.66C694.14,5.2,699.39,0,705.84,0h397.83
		c6.5,0,11.76,5.27,11.76,11.76v559.1C1115.44,577.36,1110.17,582.63,1103.67,582.63z M705.84,0.41
		c-6.21,0.01-11.24,5.04-11.25,11.25v559.21c0.01,6.21,5.04,11.24,11.25,11.25h397.83c6.21-0.01,11.24-5.04,11.25-11.25V11.66
		c-0.01-6.21-5.04-11.24-11.25-11.25H705.84z"/>
	<rect x="166.89" y="674.52" class="st0" width="1030.11" height="0.52"/>
	<rect x="794.43" y="158.53" class="st1" width="231.26" height="511.37"/>
	<path class="st2" d="M1025.69,154.06v520.33h42.61V154.06H1025.69z"/>
	<path class="st2" d="M754.69,154.64v520.35h42.63V154.64H754.69z"/>
	<path class="st3" d="M746.64,154.06v520.33h284.17V154.06H746.64z M1020.65,163.03v93.31H756.94v-93.31H1020.65z M756.94,460.87
		v-93.31h263.71v93.31H756.94z M1020.65,469.85v93.29H756.94v-93.29H1020.65z M756.94,358.6v-93.31h263.71v93.31H756.94z
		 M756.94,665.43v-93.31h263.71v93.33L756.94,665.43z"/>
	<rect x="928.43" y="184.8" class="st2" width="9.83" height="72.4"/>
	<rect x="938.28" y="184.8" class="st1" width="9.83" height="72.4"/>
	<rect x="908.8" y="189.89" class="st2" width="19.65" height="67.31"/>
	<rect x="886.24" y="184.8" class="st4" width="12.71" height="72.4"/>
	<rect x="898.97" y="184.8" class="st0" width="9.83" height="72.4"/>
	<rect x="811.7" y="184.8" class="st2" width="12.71" height="72.4"/>
	<rect x="824.39" y="184.8" class="st0" width="9.83" height="72.4"/>
	<rect x="853.87" y="184.8" class="st2" width="12.71" height="72.4"/>
	<rect x="866.6" y="184.8" class="st1" width="9.83" height="72.4"/>
	<rect x="792.04" y="186.49" class="st0" width="19.65" height="70.69"/>
	<rect x="782.2" y="186.49" class="st1" width="9.83" height="70.69"/>
	<rect x="840.79" y="186.49" class="st1" width="13.1" height="70.69"/>
	<rect x="834.22" y="186.49" class="st4" width="6.55" height="70.69"/>
	<rect x="866.6" y="189.89" class="st3" width="19.65" height="67.31"/>
	<rect x="977.59" y="184.8" class="st0" width="12.71" height="72.4"/>
	<rect x="990.3" y="184.8" class="st2" width="9.83" height="72.4"/>
	<rect x="957.93" y="186.49" class="st1" width="19.65" height="70.69"/>
	<rect x="948.1" y="186.49" class="st0" width="9.83" height="70.69"/>
	<rect x="1006.68" y="186.49" class="st0" width="13.1" height="70.69"/>
	<rect x="1000.13" y="186.49" class="st5" width="6.55" height="70.69"/>
	<rect x="863.72" y="286.16" class="st2" width="9.83" height="72.4"/>
	<rect x="853.89" y="286.16" class="st1" width="9.83" height="72.4"/>
	<rect x="873.55" y="291.25" class="st2" width="19.65" height="67.31"/>
	<rect x="903.03" y="286.16" class="st4" width="12.71" height="72.4"/>
	<rect x="893.2" y="286.16" class="st0" width="9.83" height="72.4"/>
	<rect x="977.59" y="286.16" class="st2" width="12.71" height="72.4"/>
	<rect x="967.76" y="286.16" class="st0" width="9.83" height="72.4"/>
	<rect x="935.39" y="286.16" class="st2" width="12.71" height="72.4"/>
	<rect x="925.57" y="286.16" class="st1" width="9.83" height="72.4"/>
	<rect x="990.3" y="287.87" class="st0" width="19.65" height="70.69"/>
	<rect x="1009.95" y="287.87" class="st1" width="9.83" height="70.69"/>
	<rect x="948.1" y="287.87" class="st1" width="13.1" height="70.69"/>
	<rect x="961.21" y="287.87" class="st4" width="6.55" height="70.69"/>
	<rect x="915.74" y="291.25" class="st3" width="19.65" height="67.31"/>
	<rect x="811.7" y="286.16" class="st0" width="12.71" height="72.4"/>
	<rect x="801.87" y="286.16" class="st2" width="9.83" height="72.4"/>
	<rect x="824.41" y="287.87" class="st1" width="19.65" height="70.69"/>
	<rect x="844.06" y="287.87" class="st0" width="9.83" height="70.69"/>
	<rect x="782.22" y="287.87" class="st0" width="13.1" height="70.69"/>
	<rect x="795.32" y="287.87" class="st5" width="6.55" height="70.69"/>
	<rect x="863.72" y="389.34" class="st2" width="9.83" height="72.4"/>
	<rect x="853.89" y="389.34" class="st1" width="9.83" height="72.4"/>
	<rect x="873.55" y="394.43" class="st2" width="19.65" height="67.31"/>
	<rect x="903.03" y="389.34" class="st4" width="12.71" height="72.4"/>
	<rect x="893.2" y="389.34" class="st0" width="9.83" height="72.4"/>
	<rect x="977.59" y="389.34" class="st2" width="12.71" height="72.4"/>
	<rect x="967.76" y="389.34" class="st0" width="9.83" height="72.4"/>
	<rect x="935.39" y="389.34" class="st2" width="12.71" height="72.4"/>
	<rect x="925.57" y="389.34" class="st1" width="9.83" height="72.4"/>
	<rect x="990.3" y="391.05" class="st0" width="19.65" height="70.69"/>
	<rect x="1009.95" y="391.05" class="st1" width="9.83" height="70.69"/>
	<rect x="948.1" y="391.05" class="st1" width="13.1" height="70.69"/>
	<rect x="961.21" y="391.05" class="st4" width="6.55" height="70.69"/>
	<rect x="915.74" y="394.43" class="st3" width="19.65" height="67.31"/>
	<rect x="811.7" y="389.34" class="st0" width="12.71" height="72.4"/>
	<rect x="801.87" y="389.34" class="st2" width="9.83" height="72.4"/>
	<rect x="824.41" y="391.05" class="st1" width="19.65" height="70.69"/>
	<rect x="844.06" y="391.05" class="st0" width="9.83" height="70.69"/>
	<rect x="782.22" y="391.05" class="st0" width="13.1" height="70.69"/>
	<rect x="795.32" y="391.05" class="st5" width="6.55" height="70.69"/>
	<rect x="928.43" y="492.5" class="st2" width="9.83" height="72.4"/>
	<rect x="938.28" y="492.5" class="st1" width="9.83" height="72.4"/>
	<rect x="908.8" y="492.5" class="st2" width="19.65" height="67.31"/>
	<rect x="886.24" y="492.5" class="st4" width="12.71" height="72.4"/>
	<rect x="898.97" y="492.5" class="st0" width="9.83" height="72.4"/>
	<rect x="811.7" y="492.5" class="st2" width="12.71" height="72.4"/>
	<rect x="824.39" y="492.5" class="st0" width="9.83" height="72.4"/>
	<rect x="853.87" y="492.5" class="st2" width="12.71" height="72.4"/>
	<rect x="866.6" y="492.5" class="st1" width="9.83" height="72.4"/>
	<rect x="792.04" y="492.5" class="st0" width="19.65" height="70.69"/>
	<rect x="782.2" y="492.5" class="st1" width="9.83" height="70.69"/>
	<rect x="840.79" y="492.5" class="st1" width="13.1" height="70.69"/>
	<rect x="834.22" y="492.5" class="st4" width="6.55" height="70.69"/>
	<rect x="866.6" y="492.5" class="st3" width="19.65" height="67.31"/>
	<rect x="977.59" y="492.5" class="st0" width="12.71" height="72.4"/>
	<rect x="990.3" y="492.5" class="st2" width="9.83" height="72.4"/>
	<rect x="957.93" y="492.5" class="st1" width="19.65" height="70.69"/>
	<rect x="948.1" y="492.5" class="st0" width="9.83" height="70.69"/>
	<rect x="1006.68" y="492.5" class="st0" width="13.1" height="70.69"/>
	<rect x="1000.13" y="492.5" class="st5" width="6.55" height="70.69"/>
	<rect x="863.72" y="595.67" class="st2" width="9.83" height="72.4"/>
	<rect x="853.89" y="595.67" class="st1" width="9.83" height="72.4"/>
	<rect x="873.55" y="595.67" class="st2" width="19.65" height="67.31"/>
	<rect x="903.03" y="595.67" class="st4" width="12.71" height="72.4"/>
	<rect x="893.2" y="595.67" class="st0" width="9.83" height="72.4"/>
	<rect x="977.59" y="595.67" class="st2" width="12.71" height="72.4"/>
	<rect x="967.76" y="595.67" class="st0" width="9.83" height="72.4"/>
	<rect x="935.39" y="595.67" class="st2" width="12.71" height="72.4"/>
	<rect x="925.57" y="595.67" class="st1" width="9.83" height="72.4"/>
	<rect x="990.3" y="595.67" class="st0" width="19.65" height="70.69"/>
	<rect x="1009.95" y="595.67" class="st1" width="9.83" height="70.69"/>
	<rect x="948.1" y="595.67" class="st1" width="13.1" height="70.69"/>
	<rect x="961.21" y="595.67" class="st4" width="6.55" height="70.69"/>
	<rect x="915.74" y="595.67" class="st3" width="19.65" height="67.31"/>
	<rect x="811.7" y="595.67" class="st0" width="12.71" height="72.4"/>
	<rect x="801.87" y="595.67" class="st2" width="9.83" height="72.4"/>
	<rect x="824.41" y="595.67" class="st1" width="19.65" height="70.69"/>
	<rect x="844.06" y="595.67" class="st0" width="9.83" height="70.69"/>
	<rect x="782.22" y="595.67" class="st0" width="13.1" height="70.69"/>
	<rect x="795.32" y="595.67" class="st5" width="6.55" height="70.69"/>
	<path class="st5" d="M314.73,202.66c0,0,9.89,42.93,6.04,85c-2.22,22.04-5.83,43.92-10.8,65.51c0,0,44.91-5.17,97.8-6.94
		c43.4-1.41,86.83,1.8,129.55,9.6l36.03,3.58c0,0-22.21-96.15-3.83-154.62L314.73,202.66z"/>
	<polygon class="st0" points="578.98,218.71 300.93,217.81 300.93,194.59 577.92,190.18 	"/>
	<path class="st3" d="M362.26,194.16l-1.5-1.34l77.9-87.17c2.57-2.84,6.96-3.07,9.81-0.49c0.17,0.16,0.34,0.32,0.49,0.49
		l78.29,83.95l-1.48,1.38l-78.29-83.97c-0.96-1.01-2.29-1.58-3.69-1.57c-1.39,0.01-2.71,0.61-3.63,1.65L362.26,194.16z"/>
	<path class="st1" d="M446.42,106.76c0.01,1.35-1.08,2.46-2.43,2.47c-1.35,0.01-2.46-1.08-2.47-2.43s1.08-2.46,2.43-2.47
		c0.01,0,0.01,0,0.02,0c1.34-0.01,2.44,1.07,2.45,2.41C446.42,106.75,446.42,106.75,446.42,106.76z"/>
	<path class="st0" d="M482.1,249.16c-3.77,2.6-6.97,5.96-9.39,9.85l8.24,7.23c0.48-2.08,1.25-4.07,2.29-5.93
		c1.07-1.87,2.91-3.17,5.03-3.56c1.22-0.12,2.44,0.04,3.58,0.47c3.36,1.43,6.38,3.54,8.9,6.18c3.28-0.41,4.82-4.8,3.42-7.79
		c-1.7-2.89-4.54-4.92-7.83-5.58c3.01-3.51,6.25-6.81,9.7-9.89c-1.55-3.56-6.51-4.47-10.05-2.9c-3.54,1.57-6,4.82-8.24,7.95
		c1.07-1.48-6.92-10.3-8.55-10.86c-4.49-1.5-7.77,3.13-10.01,6.37C473.95,242.74,478.33,245.61,482.1,249.16z"/>
	<path class="st1" d="M355.83,327.72l-0.97-0.25L355.83,327.72z M354.91,327.49l-1.03-0.25v-0.23L354.91,327.49z"/>
	<path class="st1" d="M357.4,323.95l-1.83-0.8c1.11-2.58,2.37-5.19,3.71-7.79l0,0c0.62-1.22,1.3-2.47,2.06-3.79l1.75,0.97
		c-0.72,1.3-1.38,2.55-2.06,3.75l-0.89-0.45l0.89,0.45C359.75,318.84,358.49,321.39,357.4,323.95z"/>
	<path class="st1" d="M367.43,305.26l-1.69-1.09l0,0L367.43,305.26z M369.8,301.74l-1.63-1.15c1.71-2.43,3.5-4.72,5.29-6.84
		l0.76,0.66l-0.76-0.66c0.92-1.09,1.89-2.16,2.9-3.21l1.44,1.4c-0.97,1.01-1.92,2.06-2.82,3.13l0,0
		C373.24,297.12,371.49,299.37,369.8,301.74L369.8,301.74z M467.15,287.32h-0.68c-1.57,0-3.19,0-4.88-0.16l0.1-2.06
		c1.67,0,3.28,0.12,4.82,0.14h0.64c0.95,0,1.94-0.04,2.97-0.12l0,0c1.38-0.11,2.76-0.29,4.12-0.54l0.35,2.06
		c-1.44,0.27-2.89,0.45-4.35,0.56v-1.03v1.03c-1.05,0.02-2.1,0.06-3.09,0.06L467.15,287.32z M457.24,286.91v-2.06h0.19
		L457.24,286.91z M383.98,286.37l-1.28-1.55l0.16-0.12L383.98,286.37z M448.73,286.19c-1.4-0.16-2.82-0.33-4.26-0.54l0.12-0.99
		l-0.12,0.99c-2.84-0.37-5.71-0.82-8.51-1.34l0.37-2.06c2.76,0.52,5.58,0.95,8.41,1.34l0,0c1.42,0.19,2.84,0.37,4.12,0.52
		L448.73,286.19z M482.95,284.31l-0.74-1.85h0.19L482.95,284.31z M387.33,283.77l-1.11-1.67c2.43-1.65,5.04-3.03,7.77-4.12l0,0
		c1.34-0.55,2.72-1,4.12-1.36l0.47,1.96c-1.33,0.34-2.65,0.76-3.94,1.26l0,0C392.08,280.89,389.63,282.21,387.33,283.77z
		 M431.63,283.36l0.35-1.96h0.16L431.63,283.36z M486.9,282.19l-1.05-1.71c2.34-1.32,4.27-3.26,5.58-5.6l0,0
		c0.6-1.15,0.97-2.41,1.09-3.71l2.06,0.21c-0.15,1.54-0.59,3.05-1.3,4.43l-0.43-0.23l0.43,0.23c-1.47,2.69-3.65,4.92-6.3,6.45
		L486.9,282.19z M423.28,281.43l-4.12-1.11l0.29-0.99l-0.29,0.99l-3.63-1.09c-1.48-0.46-3-0.82-4.53-1.07l0.33-2.06
		c1.62,0.26,3.22,0.64,4.78,1.13l3.61,1.07l4.12,1.11L423.28,281.43z M406.8,277.74v-2.06h0.16L406.8,277.74z"/>
	<polygon class="st1" points="490.98,263.38 490.92,263.19 492.84,262.62 	"/>
	<circle class="st4" cx="860.09" cy="100.99" r="52.7"/>
	<path class="st6" d="M860.24,154.87c-29.77,0-53.9-24.13-53.9-53.9s24.13-53.9,53.9-53.9l0,0v2.37
		c-28.45,0-51.51,23.06-51.51,51.51s23.06,51.51,51.51,51.51V154.87z"/>
	<path class="st6" d="M860.24,154.87v-2.41c28.45,0,51.51-23.06,51.51-51.51s-23.06-51.51-51.51-51.51v-2.37
		c29.77,0,53.9,24.13,53.9,53.9S890,154.87,860.24,154.87z"/>
	<path class="st6" d="M887.78,100.95h-2.37c0-17.47-8.88-40.83-25.81-51.71l1.28-2.06C878.53,58.61,887.78,82.88,887.78,100.95z"/>
	<path class="st6" d="M860.88,153.07l-1.28-2.06c16.93-10.86,25.81-34.22,25.81-51.69h2.37
		C887.78,117.43,878.53,141.74,860.88,153.07z"/>
	<path class="st6" d="M835.08,100.95h-2.37c0-18.11,9.23-42.36,26.89-53.71l1.28,2.06C843.94,60.14,835.08,83.5,835.08,100.95z"/>
	<path class="st6" d="M859.6,153.07c-17.66-11.33-26.89-35.6-26.89-53.71h2.37c0,17.47,8.86,40.83,25.79,51.71L859.6,153.07z"/>
	<rect x="859.06" y="48.27" class="st6" width="2.37" height="105.42"/>
	<rect x="815.63" y="71.72" class="st6" width="89.23" height="2.37"/>
	<rect x="807.56" y="100.68" class="st6" width="105.36" height="2.37"/>
	<rect x="816.81" y="129.63" class="st6" width="86.86" height="2.37"/>
	<path class="st0" d="M398.34,625.5c0,0-10.9-51.51,8.96-79.42s-17.94-0.31-22.29,25.79c0,0-6.51-46.68,12.73-79.55
		s-16.77-5.89-19.82,27.98c0,0-5.91-41.68,2.95-65.08c8.86-23.4-6.55-8.36-12.36,6.3c-5.81,14.67,1.83,51.03,1.83,51.03
		s-15.43-67.2-30.06-61.81c-14.63,5.4,21.86,49.45,26.93,72.27c0,0-17.24-30.9-30.33-24.41c-13.08,6.49,20.25,9.62,35.52,55.63
		l5.36,21.55c0,0-15.86-30.43-26.23-20.83c-10.36,9.6,30.76,26.16,40.3,72.27L398.34,625.5z"/>
	<path class="st3" d="M396.19,628.47c0,0-2.29-64.94-34.36-92.46c-32.08-27.52,21.39-5.73,34.36,24.37c0,0-6.18-57.87-38.96-91.49
		s18.34-12.05,32.1,27.59c0,0-5.36-51.65-22.93-77.07s5.36-11.95,16.81,3.87c11.45,15.82,12.98,61.66,12.98,61.66
		s-1.52-85.25,17.57-83.19c19.1,2.06-11.45,65.66-10.69,94.58c0,0,11.48-42.05,29.05-38.26c17.57,3.79-21.41,17.55-25.98,77.13
		v27.42c0,0,9.93-41.2,25.2-32.76c15.27,8.45-29.03,40.48-26.78,98.56L396.19,628.47z"/>
	<path class="st0" d="M352.64,618.77h94.44l0,0v32.76c0,12.52-10.15,22.66-22.66,22.66l0,0h-49.14c-12.52,0-22.66-10.15-22.66-22.66
		l0,0v-32.76H352.64z"/>
</g>
<g id="freepik--Shadow--inject-86">
	<ellipse id="freepik--path--inject-86" class="st3" cx="681.95" cy="743.1" rx="399.46" ry="23.32"/>
</g>
<g id="freepik--Character--inject-86">
	<g id="freepik--freepik--character-1--inject-22--inject-86">
		<path class="st7" d="M656.25,431.88c-0.54-15.49,10.67-29.09,14.61,0.25c2.47,18.64-3.87,51.13-11.85,74.02
			C658.25,482.19,657.22,455.49,656.25,431.88z"/>
		<polygon class="st8" points="533.55,698.37 546.59,706.68 558.29,687.8 545.27,679.52 		"/>
		<path class="st9" d="M548.59,706.39l-14.42-13.21c-0.5-0.48-1.29-0.48-1.79,0l-11.62,10.3c-1.13,1.14-1.13,2.98,0,4.12l0,0
			c5.07,4.53,7.73,6.43,14.01,12.36c3.87,3.56,8.53,8.61,13.87,13.58c5.34,4.97,10.3-0.33,8.45-2.88
			c-8.12-11.45-6.43-15.41-7.31-21.47C549.68,708.15,549.27,707.17,548.59,706.39z"/>
		<path class="st8" d="M620.14,608.69c-25.38,38.42-64.22,83.11-64.22,83.11l-13.45-8.01c0,0,17.72-49.45,45.49-92.94L620.14,608.69
			z"/>
		<path class="st9" d="M586,589.8c5.67-8.88,13.64-16.48,20.09-24.33c2.43-55.28-2.31-146.42,19.59-176.42l58.65,5.19
			c0,0-28.27,127.96-40.83,177.34c-2.58,10.12-10.49,23.42-20.6,38.65L586,589.8z"/>
		<path class="st8" d="M698.8,367.28h-18.09l3.28-16.15c0,0,10.1,1.22,14.03,7.93L698.8,367.28z"/>
		<path class="st8" d="M671.64,362.41v-6.35c0.01-2.52,2.01-4.59,4.53-4.68l7.93-0.23l-3.28,16.15l-4.76-0.29
			C673.6,366.92,671.65,364.89,671.64,362.41z"/>
		<path class="st8" d="M735.12,313.44c0-0.45-19.3-23.16-20.27-26.16l11.93-13.41c0.87,2.58,25.16,30.12,25.98,35.02L735.12,313.44z
			"/>
		<path class="st10" d="M715.61,254.03c12.61,9.6,24.35,28.45,24.35,28.45l-20.93,19.41c0,0-22.81-26.49-26.02-37.29
			C689.55,253.41,706.67,246.63,715.61,254.03z"/>
		<path class="st11" d="M715.61,254.03c12.61,9.6,24.35,28.45,24.35,28.45l-20.93,19.41c0,0-22.81-26.49-26.02-37.29
			C689.55,253.41,706.67,246.63,715.61,254.03z"/>
		<polygon class="st8" points="675.95,739.99 693.15,740.2 692.97,721.57 675.76,721.39 		"/>
		<path class="st9" d="M694.14,736.59l-19.45,0.56c-0.7,0.01-1.3,0.51-1.44,1.19l-2.93,15.51c-0.25,1.39,0.67,2.72,2.06,2.97
			c0.18,0.03,0.37,0.03,0.56,0c6.78-0.31,10.07-0.8,18.54-1.03c5.27-0.14,18.93,0,26.21-0.19c7.27-0.19,7.99-7.42,5.01-7.99
			c-13.47-2.55-21.39-6.35-25.77-10.07C696.14,736.9,695.15,736.56,694.14,736.59z"/>
		<path class="st8" d="M699.46,618.7c-3.63,52.49-6.49,102.87-6.49,102.87l-17.2-0.19c0,0-12.16-71.26-7.52-105.52L699.46,618.7z"/>
		<path class="st9" d="M665.96,621.73c-0.49-13.04,4.47-15.9,3.79-19.57c-18.19-99.88-16.89-235.46-16.89-235.46l55.48-2.7
			c4.41,20.6,2.82,121.55-1.77,166.24c-2.06,19.43-1.38,46.09-3.38,73.88c-0.33,4.68-1.67,17.61-1.67,17.61L665.96,621.73z"/>
		<path class="st10" d="M719.71,289.58c1.9,25.2-9.58,26.52-9.29,58.72c-0.43,11.3,0.26,22.62,2.06,33.79
			c2.68,19,0.45,125.8,0.39,128.39l-114.03,1.03c-1.09-99.8,35.02-159.52,35.02-165.97c0-19.3-2.06-39.02-10.51-76.83
			c-1.92-8.72,3.59-17.35,12.31-19.27c0.02,0,0.03-0.01,0.05-0.01c0.47,0,0.97-0.19,1.46-0.25c4.55-0.6,9.6-1.13,14.71-1.4
			c11.38-0.85,22.8-0.9,34.18-0.14c8.08,0.72,14.61,2.25,20.79,3.3S719.71,289.58,719.71,289.58z"/>
		<path class="st10" d="M642.45,369.46h-2.06c-0.39,0-0.72-0.23-0.7-0.47l0.95-8.84c0-0.25,0.39-0.45,0.78-0.45h2.06
			c0.41,0,0.72,0.19,0.68,0.45l-0.91,8.82C643.21,369.25,642.8,369.46,642.45,369.46z"/>
		<path class="st10" d="M703.72,369.23h-2.06c-0.41,0-0.72-0.19-0.7-0.45l0.93-8.84c0-0.25,0.39-0.45,0.8-0.47h2.06
			c0.41,0,0.72,0.21,0.68,0.47l-0.82,8.84C704.48,369.03,704.13,369.23,703.72,369.23z"/>
		<path class="st10" d="M673.09,369.34h-2.06c-0.41,0-0.72-0.21-0.7-0.47l0.93-8.82c0-0.27,0.39-0.47,0.8-0.47h2.06
			c0.41,0,0.7,0.23,0.68,0.47l-0.91,8.84C673.85,369.13,673.5,369.36,673.09,369.34z"/>
		<path class="st8" d="M746.84,305.3c-10.01-1.67-43.02,11.02-49.45,14.11l0.74,7.64l40.38-2.86c3.39-0.18,6.66-1.25,9.5-3.11
			c4.02-2.25,6.05-6.89,4.99-11.37C752.38,306.73,749.93,305.8,746.84,305.3z"/>
		<path class="st8" d="M702.28,325.23c0,0-4.57,4.9-8.43,5.79c-1.3,2.26-2.96,4.29-4.92,6.02c-3.4,0.29-6.81-0.34-9.89-1.81
			c0.08-3.14,1.14-6.18,3.03-8.69c3.79-4.42,9.28-7.02,15.1-7.17C699.97,319.33,701.58,322.49,702.28,325.23z"/>
		<path class="st9" d="M724.74,333.76l-4.68,42.87c-0.22,1.67-1.63,2.92-3.32,2.95l-66.5-0.27c-1.44,0.04-2.64-1.11-2.68-2.55
			c0-0.14,0-0.28,0.02-0.42l4.66-42.87c0.22-1.67,1.63-2.92,3.32-2.95l66.5,0.27c1.46-0.03,2.66,1.12,2.7,2.57
			C724.76,333.49,724.75,333.63,724.74,333.76z"/>
		<path class="st9" d="M652.42,331.37l-0.21,2.06c0.2-1.68,1.62-2.95,3.32-2.95l66.48,0.25c1.44-0.05,2.65,1.09,2.7,2.53
			c0,0.15,0,0.29-0.02,0.44l0.23-2.06c0.18-1.44-0.84-2.76-2.29-2.95c-0.13-0.02-0.26-0.02-0.39-0.02l-66.5-0.25
			C654.05,328.44,652.64,329.69,652.42,331.37z"/>
		<path class="st12" d="M652.42,331.37l-0.21,2.06c0.2-1.68,1.62-2.95,3.32-2.95l66.48,0.25c1.44-0.05,2.65,1.09,2.7,2.53
			c0,0.15,0,0.29-0.02,0.44l0.23-2.06c0.18-1.44-0.84-2.76-2.29-2.95c-0.13-0.02-0.26-0.02-0.39-0.02l-66.5-0.25
			C654.05,328.44,652.64,329.69,652.42,331.37z"/>
		<circle class="st6" cx="688.11" cy="355.99" r="4.41"/>
		<path class="st8" d="M615.52,271.29c-3.58,8.53-6.8,17.02-9.79,25.75c-1.48,4.33-2.95,8.65-4.12,13.25
			c-1.42,4.68-2.55,9.44-3.38,14.26c-0.25,1.5-0.41,3.01-0.47,4.53c-0.03,1.16,0.03,2.33,0.21,3.48c0.09,0.46,0.2,0.92,0.35,1.36
			l0.21,0.84c0.14,0.35,0.29,0.7,0.45,1.05l0.29,0.54v0.27l0,0v0.19l0.27,0.37c1.42,2.06,2.7,4.12,4.29,5.97
			c3.01,3.93,6.34,7.6,9.97,10.96c3.74,3.37,7.84,6.3,12.24,8.74c2.24,1.24,4.57,2.28,6.98,3.13c1.24,0.41,2.49,0.82,3.75,1.13
			l2.06,0.41c0.76,0.12,1.28-0.21,2.35,0l1.36-8.94c-0.31-0.19-0.64-0.35-0.97-0.49l-1.26-0.62c-0.84-0.43-1.67-0.95-2.49-1.46
			c-1.69-1.07-3.32-2.25-4.86-3.52c-3.07-2.62-5.91-5.5-8.49-8.61c-1.24-1.65-2.53-3.17-3.69-4.99c-1.15-1.81-2.33-3.36-3.4-5.07
			s-2.06-3.63-3.11-5.4v-0.37v-0.19l0,0v0.19l0.1,0.37c0.08,0.22,0.18,0.44,0.29,0.66c0.05,0.13,0.08,0.27,0.1,0.41l0.14,0.54
			c0,0.43,0,0.31,0,0.12c0.09-0.74,0.23-1.48,0.41-2.2c0.89-3.61,2.2-7.83,3.65-11.91s2.93-8.24,4.49-12.36
			c3.13-8.24,6.39-16.69,9.58-24.93L615.52,271.29z"/>
		<path class="st8" d="M638.21,367.56h18.09l-3.19-16.11c0,0-10.1,1.22-14.03,7.93L638.21,367.56z"/>
		<path class="st8" d="M665.46,362.7v-6.35c0-2.53-2.01-4.6-4.53-4.68l-7.91-0.23l3.28,16.15l4.76-0.29
			C663.51,367.19,665.45,365.16,665.46,362.7z"/>
		<g class="st13">
			<path d="M632.17,319.17l12.01-30.9l-15.8,2.74c0,0,1.42,10.18,1.38,9.97L632.17,319.17z"/>
		</g>
		<path class="st10" d="M652.94,258.43c4.68,20.03-26.78,53.57-26.78,53.57l-25.57-27.46c0,0,12.36-25.2,27.98-32.96
			C639.44,246.32,650.86,249.62,652.94,258.43z"/>
		<path class="st8" d="M654.83,208.99c2.2,11.06,4.47,31.38-3.28,38.79c11.89,4.9,27.34,31.69,36.77,40.42
			c8.65-15.31-2.29-40.57-2.29-40.57c-12.36-2.88-12.09-12.05-9.97-20.6L654.83,208.99z"/>
		<path class="st7" d="M657.22,210.95c0.18,6.59,1.77,13.07,4.68,19c2.06,4.12,7.56,5.89,13.16,6.3c-0.14-3.13,0.22-6.27,1.05-9.29
			L657.22,210.95z"/>
		<path class="st8" d="M637.11,195.19c5.44,17.76,7.23,25.36,18.54,32.45c16.96,10.67,37.58,0.19,37.64-18.79
			c0-17.08-8.84-43.26-28.08-46.23c-13.79-2.23-26.78,7.15-29.01,20.95c-0.63,3.89-0.34,7.87,0.84,11.63H637.11z"/>
		<path class="st9" d="M648.78,158.97c11.87-10.94,24.99-6.53,31.87-2.95c6.96,3.69,12.02,10.15,13.95,17.78
			c0.86,4.64-1.83,9.2-6.3,10.69c-1.48-3.1-3.59-5.86-6.18-8.12c-4.33-3.4-12.36-3.75-15.55-2.8c-3.09,7.35-7.3,14.17-12.48,20.23
			c-3.26,3.61-10.86,8.67-8.9,18.54c0.76,3.87,8.41,11.62,11.66,15.97v3.03c-8.96-3.73-17.55-12.36-19.96-14.63
			c-11.52-11.02-18.05-21.57-7.38-45.61C634.09,160.9,648.78,158.97,648.78,158.97z"/>
		<path class="st9" d="M686.07,185.28l0.12-0.12c0.34-0.33,0.35-0.88,0.01-1.22c0,0-0.01-0.01-0.01-0.01
			c-2.02-1.96-4.85-2.84-7.62-2.37c-0.47,0.11-0.76,0.58-0.66,1.05l0,0c0.11,0.47,0.58,0.76,1.05,0.66c2.25-0.42,4.56,0.3,6.18,1.92
			C685.4,185.38,685.76,185.42,686.07,185.28z"/>
		<path class="st10" d="M636.91,208.49l0.99,0.6l2.06-3.26c1.81-2.93,4.72-5.02,8.08-5.79l10.67,0.31c1.29,4.8,6.23,7.65,11.03,6.36
			c4.68-1.26,7.53-5.99,6.44-10.71c0.43-0.54,1.17-0.71,1.79-0.41c1.23,4.95,6.24,7.96,11.19,6.72c4.95-1.23,7.96-6.24,6.72-11.19
			c-1.23-4.95-6.24-7.96-11.19-6.72c-4.45,1.11-7.41,5.32-6.95,9.89c-0.68-0.1-1.37,0.06-1.94,0.45c-1.58-4.7-6.68-7.23-11.38-5.64
			c-4.23,1.43-6.77,5.74-5.97,10.14l-10.69-0.33c-3.66,0.85-6.82,3.13-8.8,6.32L636.91,208.49z M678.96,195.02
			c-0.99-4.24,1.64-8.49,5.89-9.48s8.49,1.64,9.48,5.89c0.99,4.24-1.64,8.49-5.89,9.48c-0.01,0-0.02,0-0.02,0.01
			C684.18,201.89,679.95,199.25,678.96,195.02z M659.61,199.55c-1-4.24,1.62-8.49,5.86-9.49c4.24-1,8.49,1.62,9.49,5.86
			c1,4.24-1.62,8.49-5.86,9.49c-0.01,0-0.03,0.01-0.04,0.01C664.84,206.4,660.61,203.78,659.61,199.55z"/>
		<path class="st8" d="M633.1,205.2c1.02,3.46,3.41,6.37,6.61,8.03c4.12,2.16,7.27-1.36,6.92-5.85c-0.33-4.02-2.95-10.01-7.56-10.3
			c-3.34-0.09-6.16,2.49-6.35,5.83C632.71,203.69,632.84,204.46,633.1,205.2z"/>
		<path class="st9" d="M663.71,197.93c0.37,1.46,1.42,2.47,2.39,2.25c0.97-0.23,1.44-1.61,1.09-3.07s-1.4-2.47-2.37-2.25
			C663.86,195.08,663.4,196.46,663.71,197.93z"/>
		<path class="st9" d="M680.3,193.99c0.35,1.48,1.4,2.47,2.37,2.25c0.97-0.23,1.46-1.59,1.09-3.07c-0.37-1.48-1.4-2.45-2.35-2.23
			C680.46,191.17,679.89,192.53,680.3,193.99z"/>
		<path class="st9" d="M681,191.13l3.3-1.87C684.29,189.25,683.12,192.45,681,191.13z"/>
		<path class="st14" d="M677.56,195.97c2.09,3.04,4.59,5.78,7.44,8.14c-1.26,1.43-3.08,2.25-4.99,2.23L677.56,195.97z"/>
		<path class="st9" d="M676.36,212.82c0.14-0.12,0.21-0.31,0.16-0.49c-0.07-0.23-0.31-0.36-0.54-0.29l0,0
			c-3.61,1.06-7.51,0.35-10.53-1.9c-0.18-0.16-0.46-0.14-0.62,0.04s-0.14,0.46,0.04,0.62l0,0c3.25,2.52,7.53,3.29,11.45,2.06
			L676.36,212.82z"/>
		<path class="st9" d="M659.65,191.6c0.12-0.1,0.22-0.22,0.31-0.35c0.85-2.07,2.64-3.61,4.82-4.12c0.48-0.08,0.81-0.54,0.73-1.02
			c-0.08-0.48-0.54-0.81-1.02-0.73l0,0l0,0c-2.79,0.64-5.09,2.59-6.18,5.23c-0.19,0.44,0.02,0.95,0.46,1.13
			c0.02,0.01,0.04,0.01,0.05,0.02C659.11,191.86,659.43,191.8,659.65,191.6z"/>
		<path class="st9" d="M664.41,195.04l3.3-1.85C667.71,193.19,666.56,196.38,664.41,195.04z"/>
	</g>
</g>
<g id="freepik--Plant--inject-86">
	<path class="st9" d="M782.44,672.02c-6.84-7.32-15.41-12.81-24.93-15.95c-0.31-1.07-1.52-1.79-1.83-2.88
		c11.2,2.39,21.5,7.88,29.75,15.82C784.65,670.4,783.25,670.64,782.44,672.02z"/>
	<g class="st15">
		<path class="st6" d="M782.44,672.02c-6.84-7.32-15.41-12.81-24.93-15.95c-0.31-1.07-1.52-1.79-1.83-2.88
			c11.2,2.39,21.5,7.88,29.75,15.82C784.65,670.4,783.25,670.64,782.44,672.02z"/>
	</g>
	<path class="st9" d="M812.46,648.82c-2.26,6.46-7.38,11.5-13.87,13.66c-2.33,0.48-4.57,1.33-6.63,2.51l0,0
		c-1.75,1.45-2,4.05-0.55,5.8c0.49,0.6,1.15,1.04,1.88,1.29c3.75,1.11,7.24,2.92,10.3,5.36c3.69,3.21,5.95,9.17,4.24,13.76
		c-2.93,2.41-8.36,1.34-10.98-1.38c-0.93-4.9-6.18-7.56-10.67-9.58c-5.38-2.39-11.58-5.95-10.3-12.73c0.93-3.3,3.41-5.94,6.65-7.07
		c21.34-6.43,23.55-16.73,23.55-16.73c2.45,0,2.95-0.89,5.4-0.89C812.84,644.52,813.21,646.79,812.46,648.82z"/>
	<path class="st16" d="M812.46,648.82c-2.26,6.46-7.38,11.5-13.87,13.66c-2.33,0.48-4.57,1.33-6.63,2.51l0,0
		c-1.75,1.45-2,4.05-0.55,5.8c0.49,0.6,1.15,1.04,1.88,1.29c3.75,1.11,7.24,2.92,10.3,5.36c3.69,3.21,5.95,9.17,4.24,13.76
		c-2.93,2.41-8.36,1.34-10.98-1.38c-0.93-4.9-6.18-7.56-10.67-9.58c-5.38-2.39-11.58-5.95-10.3-12.73c0.93-3.3,3.41-5.94,6.65-7.07
		c21.34-6.43,23.55-16.73,23.55-16.73c2.45,0,2.95-0.89,5.4-0.89C812.84,644.52,813.21,646.79,812.46,648.82z"/>
	<path class="st9" d="M756.75,706.12l28.2-13.89c10.88-5.54,23.69-5.81,34.8-0.74l32.96,14.73l0,0c-30.36,14.42-65.6,14.42-95.97,0
		V706.12z"/>
	<path class="st9" d="M802.84,684.12c5.04-6.79,11.98-11.93,19.94-14.77c0.6-0.21,1.52-1.73,0.99-2.06
		c-7.02,1.52-13.71,4.26-19.78,8.1c-2.43,1.45-4.35,3.61-5.52,6.18C799.89,683.48,800.45,684.16,802.84,684.12z"/>
	<path class="st16" d="M802.84,684.12c5.04-6.79,11.98-11.93,19.94-14.77c0.6-0.21,1.52-1.73,0.99-2.06
		c-7.02,1.52-13.71,4.26-19.78,8.1c-2.43,1.45-4.35,3.61-5.52,6.18C799.89,683.48,800.45,684.16,802.84,684.12z"/>
	<path class="st10" d="M819.11,755.09h-33.62c-8.26,0-15.93-4.26-20.29-11.27l-21.22-34.14c-0.86-1.39-0.44-3.22,0.95-4.09
		c0.47-0.29,1.01-0.45,1.56-0.45h111.62c1.65,0.02,2.97,1.38,2.94,3.03c-0.01,0.53-0.16,1.05-0.43,1.5l-21.24,34.06
		C835.05,750.78,827.38,755.08,819.11,755.09z"/>
	<path class="st10" d="M759.97,652.6c-1.83-4.12-3.11-4.57,0-7.93c3.08-0.14,5.89-1.78,7.52-4.39c1.62-2.77,1.84-6.13,0.6-9.09
		c-5.13,2.93-8.85,7.81-10.3,13.54c0.92-2.73,0.42-5.73-1.34-8.01c-1.44-1.97-3.92-2.91-6.3-2.39v0.49
		c0.17,1.97,1.22,3.76,2.86,4.86c2.02,1.59,2.98,4.17,2.51,6.7c-0.68,3.44,0.84,1.46-1.73,3.85c1.27-2.73,0.08-5.98-2.65-7.25
		c-0.29-0.14-0.6-0.25-0.91-0.33c-3.01,2.94-3.69,7.53-1.65,11.21c-1.9-2.7-5.36-4.39-7.58-3.44c-1.38,0.58-5.91,4.72-4.68,8.9
		c2.74-2.66,3.71-2.53,7.44-1.79c3.8,0.79,6.99,3.37,8.57,6.92C757.68,663.39,762.17,657.58,759.97,652.6z"/>
	<path class="st10" d="M810.34,593.16c-3.81-3.24-8.66-5-13.66-4.94c-1.17,2.9,0.6,7.11,4.29,7.03c-1.59-3.46-9.97-3.34-12.71-0.29
		c-1.17,1.32-1.85,4.12-0.43,5.17c1.6,1.09,3.66,1.25,5.42,0.43c-5.34-1.92-13.93,3.73-13.93,8.59c-3.11-1.23-6.56-1.27-9.7-0.12
		c-2.22,0.92-3.65,3.11-3.61,5.52c5.29,1,10.7,1.14,16.03,0.41c-4.49,3.71-7.48,10.77-4,14.94c2.31-1.61,5.58-2.06,7.91-3.77
		c-2.81,4.57-6.86,8.25-11.68,10.61c1.98,1.46,4.68,1.46,6.65,0c-6.57,0.72-13.19,6.72-11.97,12.01c0.67-2.28,3.07-3.58,5.35-2.91
		c0.21,0.06,0.41,0.14,0.6,0.23c-2.41,2.2-0.54,5.85,2.97,6.18c4.22,0.33,7.6,0.23,10.3-2.53c-0.58,1.85-3.01,3.67-3.58,5.52
		c6.7-0.16,14.17-3.07,17.22-8.06c-0.7,1.59-0.95,3.67,1.01,4.12c1.13,1.22-0.31-1.57,0.82-0.35c3.07-0.92,5.89-2.53,8.24-4.72
		c2.68,4.86,7.72,7.95,13.27,8.12c4.74-2.86,6.18-9.5,2.53-13.04c3.37,2.01,7.43,2.51,11.19,1.36c-2.82-0.83-5.18-2.76-6.55-5.36
		c3.5,0.82,7.17,0.48,10.47-0.95c1.9-4.41-4.12-9.7-9.66-9.42c2.33-3.75,7.89-5.5,12.88-4.97c1.32-1.87,0-3.61-1.92-4.92
		c-2.19-1.33-4.96-1.29-7.11,0.12c4.51-4.37,4.12-10.42,1.94-15.74c-4.94,1.94-8.78,6.18-7.81,10.49c1.89-4.43,2.34-9.35,1.28-14.05
		c-5.15-2.33-14.9,2.47-15.39,7.38c2.16-4.12-1.9-9.52-6.18-12.01C810.56,592.83,810.73,593.49,810.34,593.16z"/>
	<path class="st10" d="M830.38,658.63l-1.75-1.24c1.5-2.06,3.01-4.12,4.49-6.18c2.06,0.62,5.32,2.53,5.48,4.66
		c0.13,2.19-1.06,4.24-3.03,5.21c2.06-1.85,7.87-0.45,8.69,2.18s-2.41,5.6-4.84,4.29c4.12,0,8.74,5.56,8.24,9.58
		c-2.54,2.65-6.76,2.74-9.41,0.2c-0.1-0.1-0.2-0.2-0.29-0.3c2.06,1.32,3.85,4.92,2.62,6.94c-1.36,2.02-4.02,2.7-6.18,1.59
		c-3.17-1.81-4.84-5.58-2.45-8.24c-3.33-0.36-6.55,1.34-8.14,4.29c-1.46-2.51,0.33-6.37,2.86-7.77c-3.63-1.9-7.07-3.75-11.04-2.8
		c0.89-2.68,2.93-6.04,5.69-6.63c2.83-0.59,5.76,0.35,7.73,2.47c-4.84-0.76-8.53-4.74-8.92-9.62
		C822.18,655.15,827.95,657.05,830.38,658.63z"/>
	<path class="st10" d="M744.74,638.21c0.48,4.32,4.37,7.43,8.69,6.95c1.18-0.13,2.31-0.53,3.32-1.16c-1.05-1.19-2.06-2.29-3.13-3.36
		c-2.27-2.37-5.66-3.3-8.82-2.43H744.74z"/>
	<path class="st10" d="M757.6,647.92c1.02,3.11,4.02,5.15,7.29,4.94c0.23-3.27-2.02-6.19-5.23-6.8
		C758.71,645.94,757.33,646.91,757.6,647.92z"/>
	<path class="st10" d="M760.65,656.49c-2.23,1.47-2.85,4.48-1.37,6.71c0.87,1.31,2.32,2.12,3.89,2.17
		C765.34,662.4,763.74,658.49,760.65,656.49z"/>
	<path class="st10" d="M746.04,666.42c-0.96-3.08,0.55-6.4,3.5-7.71c1.72,1.19,2.27,3.47,1.3,5.32
		C750.1,665.95,748.02,666.98,746.04,666.42z"/>
	<path class="st10" d="M845.11,674.04c1.38-0.8,2.74-1.63,4.12-2.45c1.52,1.7,3.91,2.34,6.08,1.61c0,0,0.6,0.41,0.58,0.45
		c0.28-1.52-0.45-3.05-1.81-3.79c-1.35-0.69-2.91-0.87-4.39-0.52c0.2-1.98-0.57-3.94-2.06-5.25c-0.83,0.91-1.24,2.13-1.13,3.36
		c0.02,1.14,0.55,2.21,1.44,2.9c-1.67,0.66-3.17,1.69-4.39,3.01C844.21,673.69,844.52,673.82,845.11,674.04z"/>
</g>
<g id="freepik--speech-bubbles--inject-86">
	<g id="freepik--freepik--speech-bubbles--inject-120--inject-86">
		<path class="st6" d="M581.98,496.2l-64.79,0.89c-4.8,0.15-8.81-3.62-8.96-8.42c0-0.12,0-0.24,0-0.35l0.12-68.11
			c0.07-4.92,4.07-8.87,8.98-8.88l27.77-0.66c13.84-19.61,36.65-22.81,36.65-22.81s-12.84,13-15.16,22.66h15.49
			c4.42-0.06,8.21,3.14,8.9,7.5c0.04,0.42,0.04,0.85,0,1.28v67.99C590.93,492.22,586.92,496.19,581.98,496.2z"/>
		<path class="st10" d="M516.86,498.12c-4.8-0.11-8.82-3.64-9.56-8.39c-0.04-0.48-0.04-0.96,0-1.44l0.12-68.09
			c0.1-5.46,4.53-9.85,9.99-9.91l27.26-0.66c13.97-19.37,36.8-22.77,37.08-22.79l3.01-0.43l-2.06,2.16
			c-0.12,0.12-11.54,11.78-14.42,20.91h14.11c4.92-0.06,9.14,3.5,9.91,8.36c0.04,0.49,0.04,0.98,0,1.46v67.99
			c-0.03,5.49-4.5,9.93-9.99,9.93l0,0l-64.79,0.89L516.86,498.12z M578.67,389.53c-6.63,1.67-22.42,6.98-32.82,21.74l-0.31,0.41
			l-28.29,0.68c-4.38-0.01-7.94,3.51-7.97,7.89l-0.12,67.99c-0.03,0.38-0.03,0.76,0,1.13c0.59,3.85,3.92,6.67,7.81,6.61l64.81-0.89
			c4.37-0.01,7.92-3.52,7.97-7.89v-67.99c0.04-0.38,0.04-0.76,0-1.13c-0.6-3.84-3.94-6.66-7.83-6.61l-16.83,0.1l0.31-1.3
			c1.98-7.4,9.54-16.48,13.37-20.75H578.67z"/>
	</g>
	<path class="st10" d="M526.71,423.13h45.9c3.11,0,5.62,2.52,5.62,5.62v50.06c0,3.11-2.52,5.62-5.62,5.62h-45.9
		c-3.11,0-5.62-2.52-5.62-5.62v-50.06C521.08,425.65,523.6,423.13,526.71,423.13z"/>
	<path class="st17" d="M560.97,443.81c0,7.38-3.96,13.35-11.33,13.35s-11.33-5.97-11.33-13.35c0-7.38,3.98-13.35,11.33-13.35
		S560.97,436.44,560.97,443.81z"/>
	<path class="st17" d="M570.69,470.31c-1.9-6.37-6.82-10.61-12.36-10.61h-17.33c-5.52,0-10.45,4.24-12.36,10.61l-2.93,9.89
		c0.23,0.3,0.59,0.49,0.97,0.49h45.9c0.39,0,0.75-0.19,0.99-0.49L570.69,470.31z"/>
	<g id="freepik--freepik-speech-bubbles-inject-120--inject-86">
		<path class="st6" d="M579.98,145.47l-148.03-0.89c-4.41-0.06-8.18,3.13-8.88,7.48c-0.03,0.43-0.03,0.87,0,1.3l0.12,68.09
			c0.06,4.92,4.06,8.88,8.98,8.88l111,0.68c13.84,19.61,36.65,22.79,36.65,22.79s-12.81-13-15.14-22.66h15.49
			c4.41,0.06,8.19-3.12,8.88-7.48c0.03-0.43,0.03-0.85,0-1.28v-68.11C588.96,149.35,584.91,145.43,579.98,145.47z"/>
		<path class="st10" d="M582.62,255.24l-3.01-0.41c-0.23,0-23.07-3.42-37.08-22.79l-110.47-0.68c-5.46-0.03-9.9-4.41-10.01-9.87
			l-0.12-68.13c-0.04-0.48-0.04-0.96,0-1.44c0.78-4.87,5-8.43,9.93-8.36l148.01,0.89c5.46,0.05,9.88,4.43,9.99,9.89v68.13
			c0.04,0.47,0.04,0.95,0,1.42c-0.76,4.87-5,8.44-9.93,8.36h-14.09c2.99,9.13,14.42,20.77,14.42,20.89L582.62,255.24z
			 M431.69,145.62c-3.8,0.07-6.99,2.86-7.58,6.61c-0.03,0.36-0.03,0.73,0,1.09l0.12,68.13c0.05,4.36,3.61,7.87,7.97,7.85
			l111.52,0.68l0.31,0.43c10.3,14.75,26.19,20.07,32.82,21.71c-3.83-4.26-11.37-13.35-13.16-20.75l-0.31-1.28h16.81
			c3.89,0.06,7.24-2.75,7.85-6.59c0.03-0.37,0.03-0.74,0-1.11v-68.13c-0.07-4.36-3.62-7.85-7.97-7.85l-148.01-0.89L431.69,145.62z"
			/>
	</g>
	<rect x="490.53" y="167.99" class="st10" width="83.93" height="2.06"/>
	<rect x="445.74" y="167.99" class="st10" width="29.19" height="2.06"/>
	<rect x="538.76" y="185.81" class="st10" width="36.59" height="2.06"/>
	<rect x="437.46" y="185.81" class="st10" width="88.26" height="2.06"/>
	<rect x="482.87" y="203.61" class="st10" width="92.98" height="2.06"/>
	<rect x="437.97" y="203.61" class="st10" width="30.39" height="2.06"/>
	<g>
		<path class="st6" d="M733.76,128.23l64.77-0.89c4.41-0.05,8.19,3.14,8.88,7.5c0.04,0.42,0.04,0.85,0,1.28l-0.1,64.3
			c-0.09,4.91-4.09,8.86-9,8.88l-27.75,0.66c-13.84,19.61-36.65,22.81-36.65,22.81s12.81-13,15.14-22.66h-15.49
			c-4.8,0.15-8.81-3.62-8.96-8.42c0-0.12,0-0.24,0-0.35l0.1-64.28C724.81,132.13,728.84,128.2,733.76,128.23z"/>
		<path class="st10" d="M731.12,234.21l2.06-2.16c0.12-0.12,11.54-11.78,14.52-20.91h-14.13c-4.92,0.04-9.14-3.52-9.91-8.39
			c-0.03-0.48-0.03-0.96,0-1.44l0.1-64.26c0.1-5.46,4.51-9.85,9.97-9.93l0,0l64.77-0.89c4.92-0.03,9.14,3.53,9.93,8.39
			c0.04,0.48,0.04,0.96,0,1.44l-0.1,64.28c-0.11,5.46-4.53,9.84-9.99,9.91l-27.26,0.64c-13.97,19.39-36.82,22.79-37.08,22.81
			L731.12,234.21z M750.45,209.05l-0.31,1.28c-1.79,7.42-9.33,16.48-13.19,20.75c6.65-1.65,22.42-6.96,32.84-21.71l0.29-0.41
			l28.29-0.68c4.38,0.01,7.95-3.51,7.99-7.89l0.1-64.26c0.03-0.38,0.03-0.76,0-1.13c-0.62-3.83-3.94-6.64-7.83-6.61l-64.79,0.89
			c-4.37,0-7.93,3.52-7.97,7.89l-0.1,64.26c-0.02,0.38-0.02,0.76,0,1.13c0.62,3.83,3.94,6.64,7.83,6.61L750.45,209.05z"/>
	</g>
	<path class="st10" d="M765.94,138.41c-10.96,0.01-19.85,8.9-19.86,19.86c0,10.96,19.86,38.88,19.86,38.88s19.86-27.92,19.86-38.88
		C785.79,147.3,776.9,138.42,765.94,138.41z M766.13,167.8c-5.2,0.01-9.42-4.19-9.44-9.39c-0.01-5.2,4.19-9.42,9.39-9.44
		c5.2-0.01,9.42,4.19,9.44,9.39c0,0.01,0,0.03,0,0.04C775.52,163.6,771.31,167.8,766.13,167.8z"/>
	<g>
		<path class="st6" d="M775.03,226.85l148.03-0.89c4.41-0.05,8.19,3.14,8.88,7.5c0.04,0.42,0.04,0.85,0,1.28l-0.04,68.11
			c-0.07,4.92-4.07,8.87-8.98,8.88l-111,0.66c-13.84,19.61-36.65,22.81-36.65,22.81s12.81-13.02,15.14-22.66l-15.49,0.1
			c-4.8,0.15-8.81-3.62-8.96-8.42c0-0.12,0-0.24,0-0.35l0.1-67.99C766.04,230.91,770.06,226.87,775.03,226.85z"/>
		<path class="st10" d="M772.39,336.64l2.06-2.16c0.12-0.12,11.54-11.78,14.52-20.91h-14.13c-4.92,0.03-9.13-3.53-9.91-8.39
			c-0.03-0.48-0.03-0.96,0-1.44l0.1-67.99c0.03-5.49,4.49-9.92,9.97-9.93l0,0l148.03-0.89c4.92-0.04,9.14,3.52,9.91,8.39
			c0.08,0.48,0.11,0.96,0.1,1.44l-0.12,68.09c-0.11,5.46-4.53,9.84-9.99,9.91l-110.49,0.66c-13.99,19.37-36.82,22.77-37.08,22.79
			L772.39,336.64z M791.71,311.48l-0.31,1.28c-1.79,7.42-9.33,16.48-13.19,20.75c6.65-1.65,22.42-6.96,32.84-21.71l0.31-0.43
			l111.52-0.66c4.38,0.01,7.94-3.51,7.97-7.89l0.12-67.99c0.03-0.38,0.03-0.76,0-1.13c-0.6-3.84-3.94-6.66-7.83-6.61l-148.05,0.89
			c-4.36,0.01-7.91,3.53-7.95,7.89l-0.1,67.99c-0.02,0.38-0.02,0.76,0,1.13c0.62,3.83,3.94,6.64,7.83,6.61L791.71,311.48z"/>
	</g>
	<path class="st10" d="M855.44,242.51h64.94c0.98,0,1.77,0.79,1.77,1.77v54.08c0,0.98-0.79,1.77-1.77,1.77h-64.94
		c-0.98,0-1.77-0.79-1.77-1.77v-54.08C853.66,243.3,854.46,242.51,855.44,242.51z"/>
	<path class="st17" d="M884.51,283.55l-7.89,13.74l-18.27,0.14c-0.91,0-1.65-0.74-1.65-1.65c0-0.01,0-0.01,0-0.02v-1.15l16.85-25.98
		L884.51,283.55z"/>
	<path class="st10" d="M919.41,290.49l-17.37-30.2l-21.39,37.19h37.08c0.91,0,1.65-0.74,1.65-1.65c0-0.01,0-0.01,0-0.02
		L919.41,290.49z"/>
	<path class="st17" d="M919.43,290.49v5.32c0,0.92-0.75,1.67-1.67,1.67h-37.08l4.59-7.97l16.79-29.21L919.43,290.49z"/>
	<path class="st17" d="M892.52,256.04c-0.03,2.56-2.14,4.61-4.7,4.57c-2.56-0.03-4.61-2.14-4.57-4.7c0.03-2.56,2.14-4.61,4.7-4.57
		c0.01,0,0.01,0,0.02,0C890.52,251.39,892.55,253.49,892.52,256.04z"/>
	<rect x="776.74" y="252.46" class="st10" width="67.53" height="2.06"/>
	<rect x="776.74" y="270.28" class="st10" width="67.53" height="2.06"/>
	<rect x="777.68" y="288.1" class="st10" width="66.57" height="2.06"/>
	<path class="st6" d="M561.07,316.49v37.7c0.04,0.42,0.04,0.85,0,1.28c-0.69,4.36-4.48,7.55-8.9,7.5h-15.49l-21.49-0.14l-111-0.66
		c-4.92-0.02-8.91-3.96-9-8.88v-68.11c-0.05-4.8,3.81-8.73,8.61-8.78c0.12,0,0.24,0,0.35,0l148.03,0.89
		c4.92,0.02,8.92,3.98,8.98,8.9v9.31c18.81,13.89,21.9,35.99,21.9,35.99S570.69,319.33,561.07,316.49z"/>
	<path class="st10" d="M552.46,364.02h-0.31l-147.94-0.89c-5.46-0.04-9.9-4.41-10.03-9.87v-68.13c-0.04-0.48-0.04-0.96,0-1.44
		c0.76-4.87,5-8.44,9.93-8.36l147.99,0.87c5.49,0.01,9.95,4.42,10.01,9.91v8.82c18.54,14.01,21.86,36.14,21.9,36.36l0.41,3.01
		l-2.16-2.06c-0.12-0.12-11.13-10.9-20.13-14.24v36.28c0.05,0.48,0.05,0.96,0,1.44C561.31,360.45,557.26,363.93,552.46,364.02z
		 M403.82,277.35c-3.8,0.08-7,2.87-7.58,6.63c-0.03,0.37-0.03,0.74,0,1.11v68.11c0.07,4.36,3.63,7.86,7.99,7.85l147.96,0.89
		c3.9,0.04,7.25-2.76,7.89-6.61c0.03-0.36,0.03-0.71,0-1.07v-39.14l1.32,0.37c7.23,2.06,15.82,9.25,19.92,12.94
		c-1.63-6.51-6.76-21.8-20.85-32.2l-0.41-0.31v-9.81c-0.06-4.37-3.61-7.88-7.97-7.89l-148.01-0.89L403.82,277.35z"/>
	<rect x="479.94" y="302.96" class="st10" width="67.53" height="2.06"/>
	<rect x="479.94" y="320.78" class="st10" width="67.53" height="2.06"/>
	<rect x="480.06" y="338.6" class="st10" width="67.39" height="2.06"/>
	<path class="st10" d="M410.33,284.85h51.11c3.46,0,6.26,2.8,6.26,6.26v55.77c0,3.46-2.8,6.26-6.26,6.26h-51.11
		c-3.46,0-6.26-2.8-6.26-6.26v-55.77C404.06,287.65,406.87,284.85,410.33,284.85z"/>
	<g class="st18">
		<polygon class="st6" points="405.73,328.6 408.1,331.49 424.95,318.65 443.97,325.84 460.53,311.86 461.63,314.12 466.12,305.51 
			457.36,305.39 458.47,307.65 443.68,322.4 424.62,315.36 		"/>
	</g>
	<g>
		<path class="st6" d="M732.09,486.03l64.77,0.89c4.41,0.05,8.19-3.14,8.88-7.5c0.04-0.42,0.04-0.85,0-1.28l-0.02-68.15
			c-0.08-4.92-4.08-8.87-9-8.88l-27.75-0.66c-13.84-19.61-36.65-22.81-36.65-22.81s12.81,13,15.14,22.66h-15.49
			c-4.8-0.15-8.81,3.62-8.96,8.42c0,0.12,0,0.24,0,0.35l0.1,67.99C723.14,482.01,727.15,486,732.09,486.03z"/>
		<path class="st10" d="M797.17,487.94h-0.35l-64.77-0.89c-5.45-0.07-9.86-4.44-9.97-9.89l-0.1-68.13c-0.01-0.48,0.03-0.95,0.1-1.42
			c0.78-4.87,5-8.44,9.93-8.39h14.09c-2.99-9.13-14.42-20.79-14.52-20.91l-2.06-2.06l3.01,0.43c0.23,0,23.07,3.42,37.08,22.81
			l27.26,0.64c5.45,0.07,9.87,4.44,9.99,9.89l0.1,68.13c0.04,0.47,0.04,0.95,0,1.42C806.18,484.38,802.04,487.92,797.17,487.94z
			 M732.11,485l64.77,0.89c3.9,0.06,7.24-2.76,7.85-6.61c0.03-0.37,0.03-0.74,0-1.11l-0.04-68.17c-0.07-4.36-3.63-7.86-7.99-7.85
			l-28.22-0.64l-0.29-0.41c-10.42-14.75-26.19-20.07-32.84-21.71c3.85,4.24,11.39,13.33,13.19,20.75l0.31,1.28l-16.81-0.1
			c-3.9-0.06-7.24,2.76-7.85,6.61c-0.03,0.37-0.03,0.74,0,1.11l0.1,68.11C724.34,481.43,727.8,484.92,732.11,485z"/>
	</g>
	<path class="st10" d="M744.37,427.23h40.11c3.17,0,5.75,2.57,5.75,5.75v27.22c0,3.17-2.57,5.75-5.75,5.75h-40.11
		c-3.17,0-5.75-2.57-5.75-5.75v-27.22C738.62,429.8,741.2,427.23,744.37,427.23z"/>
	<g class="st18">
		<polygon class="st6" points="759,435.41 774.84,446.57 759,457.76 		"/>
	</g>
	<path class="st6" d="M680.85,142.16c0.43,2.43-1.19,4.75-3.62,5.18c-2.43,0.43-4.75-1.19-5.18-3.62c-0.43-2.43,1.19-4.75,3.62-5.18
		c0.26-0.05,0.53-0.07,0.8-0.07C678.68,138.31,680.63,139.94,680.85,142.16z"/>
	<path class="st10" d="M676.47,146.93c-2.6-0.4-4.38-2.83-3.98-5.43c0.4-2.6,2.83-4.38,5.43-3.98c2.29,0.35,4,2.31,4.04,4.63
		c-0.19,2.83-2.63,4.97-5.46,4.78C676.48,146.94,676.47,146.94,676.47,146.93z M676.47,139.56c-1.47,0.38-2.35,1.87-1.97,3.33
		c0.38,1.47,1.87,2.35,3.33,1.97c1.23-0.32,2.09-1.44,2.06-2.71C679.63,140.51,678.12,139.36,676.47,139.56z"/>
	<ellipse class="st6" cx="679.25" cy="135.01" rx="5.5" ry="4.61"/>
	<path class="st10" d="M679.25,140.67c-3.12-0.47-5.27-3.37-4.8-6.49c0.47-3.12,3.37-5.27,6.49-4.8c2.79,0.42,4.85,2.8,4.86,5.62
		C685.52,138.36,682.61,140.89,679.25,140.67z M679.25,131.42c-1.99,0.44-3.24,2.41-2.8,4.4c0.44,1.99,2.41,3.24,4.4,2.8
		c1.69-0.38,2.89-1.88,2.88-3.61C683.46,132.79,681.47,131.2,679.25,131.42z"/>
	<ellipse class="st6" cx="678.15" cy="125.16" rx="9.64" ry="8.1"/>
	<path class="st10" d="M678.15,134.29c-5.89,0-10.67-4.12-10.67-9.13s4.78-9.15,10.67-9.15s10.69,4.12,10.69,9.15
		C688.85,130.19,684.01,134.29,678.15,134.29z M678.15,118.07c-4.74,0-8.61,3.17-8.61,7.09c0,3.91,3.87,7.07,8.61,7.07
		s8.63-3.17,8.63-7.07S682.91,118.07,678.15,118.07z"/>
	<ellipse class="st6" cx="657.82" cy="92.46" rx="44.07" ry="37"/>
	<path class="st10" d="M657.82,130.51c-24.87,0-45.1-17.08-45.1-38.05s20.23-38.03,45.1-38.03c24.87,0,45.12,17.06,45.12,38.03
		S682.69,130.51,657.82,130.51z M657.82,56.49c-23.73,0-43.04,16.15-43.04,35.97s19.3,35.99,43.04,35.99
		c23.73,0,43.06-16.15,43.06-35.99S681.55,56.49,657.82,56.49z"/>
	<path class="st9" d="M652.92,70.19c0.22-3.17,2.97-5.56,6.13-5.34c0.08,0.01,0.16,0.01,0.23,0.02c3.63,0,6.18,2.18,6.18,5.11
		c-0.43,3.48-3.59,5.95-7.07,5.52c-2.81-0.35-5.06-2.52-5.49-5.32H652.92z M654.26,81.75h9.83v37.87h-9.83V81.75z"/>
</g>
</svg>
