<?xml version="1.0" encoding="utf-8"?>
<!-- Generator: Adobe Illustrator 23.1.0, SVG Export Plug-In . SVG Version: 6.00 Build 0)  -->
<svg version="1.1" id="Layer_1" xmlns="http://www.w3.org/2000/svg" xmlns:xlink="http://www.w3.org/1999/xlink" x="0px" y="0px"
	 viewBox="0 0 1366 768" style="enable-background:new 0 0 1366 768;" xml:space="preserve">
<style type="text/css">
	.st0{fill:#FF725E;}
	.st1{opacity:0.7;fill:#FFFFFF;enable-background:new    ;}
	.st2{fill:none;stroke:#263238;stroke-linecap:round;stroke-linejoin:round;}
	.st3{fill:#FF725E;stroke:#263238;stroke-linecap:round;stroke-linejoin:round;}
	.st4{fill:#263238;}
	.st5{fill:#FFFFFF;stroke:#263238;stroke-linecap:round;stroke-linejoin:round;}
	.st6{fill:#757575;stroke:#263238;stroke-linecap:round;stroke-linejoin:round;}
	.st7{fill:none;stroke:#FFFFFF;stroke-linecap:round;stroke-linejoin:round;}
	.st8{fill:none;stroke:#263238;stroke-width:0.5;stroke-miterlimit:10;}
	.st9{clip-path:url(#SVGID_2_);}
	.st10{opacity:0.3;fill-opacity:0.7;enable-background:new    ;}
	.st11{fill:#BFBFBF;stroke:#263238;stroke-linecap:round;stroke-linejoin:round;}
	.st12{fill:#BFBFBF;}
	.st13{clip-path:url(#SVGID_4_);}
	.st14{opacity:0.2;fill-opacity:0.7;enable-background:new    ;}
	.st15{clip-path:url(#SVGID_6_);}
	.st16{clip-path:url(#SVGID_8_);}
	.st17{clip-path:url(#SVGID_10_);}
	.st18{opacity:0.4;fill:#FFFFFF;enable-background:new    ;}
	.st19{fill:#FFFFFF;}
	.st20{clip-path:url(#SVGID_12_);}
	.st21{opacity:0.4;fill:#FF725E;enable-background:new    ;}
	.st22{opacity:0.2;}
</style>
<g id="freepik--background-simple--inject-32">
	<path class="st0" d="M592.09,750.68C359.02,709.9,390.2,589.33,316.85,450.15s-82.02-195.83-9.37-315.13s229.79-186.4,376.24-86.6
		S937.05,117.27,1025.64,195s100.48,186.24-4.54,282.92S879.47,800.92,592.09,750.68z"/>
	<path class="st1" d="M592.09,750.68C359.02,709.9,390.2,589.33,316.85,450.15s-82.02-195.83-9.37-315.13s229.79-186.4,376.24-86.6
		S937.05,117.27,1025.64,195s100.48,186.24-4.54,282.92S879.47,800.92,592.09,750.68z"/>
</g>
<g id="freepik--Window--inject-32">
	<polyline class="st2" points="308.57,434.97 308.57,95.02 337.49,95.02 	"/>
	<line class="st2" x1="308.59" y1="490.55" x2="308.59" y2="478.15"/>
	<polyline class="st2" points="411.83,95.02 710.1,95.02 710.1,534.06 308.57,534.06 	"/>
	<line class="st2" x1="375.26" y1="95.02" x2="401.47" y2="95.02"/>
	<rect x="323.67" y="110.1" class="st2" width="371.33" height="408.9"/>
	<polyline class="st2" points="677.74,138.78 677.74,297.82 340.94,297.82 340.94,283.32 	"/>
	<polyline class="st2" points="340.94,249.3 340.94,125.88 677.74,125.88 	"/>
	<line class="st2" x1="340.96" y1="272.15" x2="340.96" y2="258.05"/>
	<line class="st2" x1="620.87" y1="314.54" x2="695" y2="314.54"/>
	<line class="st2" x1="594.51" y1="314.54" x2="604.99" y2="314.54"/>
	<line class="st2" x1="323.67" y1="314.54" x2="581.98" y2="314.54"/>
	<polyline class="st2" points="490.68,297.82 490.68,290.18 521.72,290.18 521.72,294.53 509.35,294.53 509.35,297.82 	"/>
	<path class="st2" d="M324.32,451.59c0,0,5.14,3.9,8.77,27.48c0,0,6.24-37.67,13.8-38.25s5.96,24.51,5.96,24.51
		s1.25-12.37,7.17-11.81c5.92,0.57,0,25.55,0,25.55s7.11-19.49,13.84-19.14c6.72,0.35-4.46,35.29-4.46,35.29s17.27-12.51,24.26-6.39
		s-3.9,21.55-3.9,21.55s24.77-5.38,28.61,9.14"/>
	<path class="st2" d="M418.42,505.46c0,0,10.8-7.07,19.27-3.78c0,0-5.4-8.22,0-13.25s12.34,13.25,12.34,13.25
		s0.78-30.61,11.58-29.08c10.8,1.54,0,29.08,0,29.08s19.27-17.07,23.89-11.13c4.62,5.94-3.08,14.91-3.08,14.91s11.56-3.7,20.03,4.93
		c0,0,12.92-13.19,27.28-15.08c0,0-9.55-27.71-4.91-33.3c4.64-5.59,13.02,24.18,13.02,24.18s3.68-19.37,15.75-20.85
		c0,0-10.06-5.48-7.07-13.74s16.86,1.95,16.86,1.95s-5.71-14.56,3.31-18.55c9.02-3.99,12.78,12.18,12.78,12.18
		s2.51-16.95,13.11-16.02c10.6,0.94,7.17,20.46,7.17,20.46s10-15.59,15.36-13.93c10.7,3.16,7.44,27.67,7.44,27.67
		s14.95-10.39,18.79-5.61c4.15,5.16-15.59,18.43-15.59,18.43s14.83,1.64,24.05,10.27"/>
	<path class="st2" d="M695,457.19c0,0-1.7-15.59-17.27-16.37s4.29,34.1,4.29,34.1s-12.84-10.62-17.44-7.35
		c-4.6,3.27,13.15,21.26,13.15,21.26s-8.52-7.79-17.54-5.44c-9.02,2.36,5.13,27.48,5.13,27.48c-13.34-2.69-27.18-1.07-39.54,4.62"/>
</g>
<g id="freepik--book-shelf--inject-32">
	<polyline class="st2" points="849.89,666.28 849.89,472.04 1068.61,472.04 	"/>
	<polyline class="st2" points="1060.66,492.13 867.48,492.13 867.48,673.07 	"/>
	<polyline class="st2" points="906.15,590.81 906.15,510.39 918.79,510.39 918.79,526.97 935.67,526.97 935.67,519.53 
		950.75,519.53 950.75,528.55 971.12,528.55 971.12,510.39 991.95,510.39 991.95,522.59 1003.17,522.59 1003.17,515.49 
		1023.28,515.49 1023.28,562.87 	"/>
	<line class="st2" x1="1003.17" y1="522.59" x2="1003.17" y2="590.81"/>
	<line class="st2" x1="993.57" y1="532.8" x2="993.57" y2="544.98"/>
	<line class="st2" x1="993.57" y1="553.71" x2="993.57" y2="603.73"/>
	<line class="st2" x1="971.12" y1="528.57" x2="971.12" y2="573.51"/>
	<line class="st2" x1="971.9" y1="588.32" x2="971.9" y2="602.31"/>
	<line class="st2" x1="950.75" y1="528.57" x2="950.75" y2="553.71"/>
	<line class="st2" x1="950.75" y1="569.16" x2="950.75" y2="622.13"/>
	<line class="st2" x1="935.67" y1="526.97" x2="935.67" y2="589.41"/>
	<line class="st2" x1="918.79" y1="526.97" x2="918.79" y2="550.59"/>
	<line class="st2" x1="918.79" y1="562.87" x2="918.79" y2="619.01"/>
	<line class="st2" x1="906.15" y1="602.31" x2="906.15" y2="627.66"/>
	<line class="st2" x1="880.05" y1="627.66" x2="1033.57" y2="627.66"/>
	<line class="st2" x1="1003.17" y1="627.66" x2="1003.17" y2="611.43"/>
	<line class="st2" x1="971.9" y1="615.71" x2="971.9" y2="626.9"/>
	<line class="st2" x1="1025" y1="536.32" x2="1039.89" y2="536.32"/>
	<line class="st2" x1="880.64" y1="641.81" x2="1023.28" y2="641.81"/>
	<polyline class="st2" points="911.25,683.06 911.25,664.16 937.68,664.16 937.68,676.34 958.94,676.34 958.94,700.09 
		971.12,700.09 971.12,664.88 998.11,664.88 998.11,673.07 1014.69,673.07 	"/>
	<line class="st2" x1="998.11" y1="673.07" x2="998.11" y2="693.33"/>
	<line class="st2" x1="971.9" y1="708.67" x2="971.9" y2="722.31"/>
	<line class="st2" x1="958.94" y1="700.09" x2="958.94" y2="718.06"/>
	<line class="st2" x1="937.68" y1="676.34" x2="937.68" y2="686.65"/>
</g>
<g id="freepik--Screen--inject-32">
	<rect x="594.33" y="57.41" class="st3" width="466.99" height="322.65"/>
	<rect x="594.33" y="57.41" class="st4" width="466.99" height="31.9"/>
	<path class="st5" d="M783.51,278.62l-10.95-15.24c0-3.18-0.16-6.36-0.49-9.53c-0.41-1.42-7.05-11.89-7.21-14.36
		c-0.02-1.18-0.17-2.36-0.45-3.51c0,0-3.41,0.86-3.37,2.94s0.41,9.12,0.41,9.12s-8.89-5.18-9.88-6.55
		c-0.99-1.36-11.83-9.31-12.84-10.5s-5.14-1.27-5.63,0l0.58,1.46l-3.41,1.62l2.28,6.76c-0.65,1.52-1.05,3.14-1.17,4.79
		c0.37,0.84,1.58,5.85,1.58,5.85s-0.74,0.76-0.64,3.41c0.1,2.65,14.65,16.19,17.54,17.66c3.44,1.45,6.97,2.69,10.56,3.72l9.14,11.83
		L783.51,278.62z"/>
	<path class="st2" d="M761.43,248.05c-1.7,3.87-2.14,8.18-1.25,12.32"/>
	<path class="st2" d="M733.66,232.46c2.94,1.13,6.63,6.63,8.32,8.32c1.53,1.38,3.18,2.64,4.91,3.76"/>
	<path class="st2" d="M732.53,240.78c2.42-0.51,4.05,0.43,3.99,2.79c-0.06,2.36,5.16,5.94,5.16,5.94"/>
	<path class="st2" d="M732.94,251.42c0,0,1.7-3.02,3.04-1.64c1.34,1.38,1.77,4.93,4.25,5.67"/>
	<path class="st6" d="M925.93,262.06c0,0-38.45,2.38-46.93,5.85c-6.96,2.86-55.89,35.08-55.89,35.08s-28.78-21.71-37.14-29.23
		c-1.61-0.78-3.35-1.28-5.13-1.48l-4.38-2.79l-10.78,15.18l3.02,4.19c0,0,0.49,6.76,1.83,8.46c17.89,22.47,52.15,53.92,57.29,57.02
		c5.14,3.1,50.78-23.91,50.78-23.91l8.48,49.69h136.12c0,0-0.35-87.21-6.08-93.89s-71.4-32.89-71.4-32.89L925.93,262.06z"/>
	<path class="st5" d="M971.9,230.51c0,0-12.2,8.18-5.73,34.34c0,0-18.38,13.13-36.56-0.12c0,0,4.19-20.85,0-25.04"/>
	<path class="st2" d="M1014.69,290.28c0,0-16.58,19.08-18.51,51.74"/>
	<path class="st4" d="M941.71,178.11c0,0-10.87-1.64-14.67,11.69c-2.21,8.16-1.32,16.86,2.51,24.4l19.99-18.77L941.71,178.11z"/>
	<path class="st5" d="M968.17,238.46c14.01-16.72,23.91-44.59,2.86-55.71c-40.61-21.47-54.04,20.48-47.22,59.46
		c2.1,12.02,18.43,6.66,30.38,2.32"/>
	<path class="st2" d="M939.8,202.12c0,0,6.7,1.81,8.4,5.4"/>
	<path class="st2" d="M930.1,200.34c-1.61-0.79-3.51-0.69-5.03,0.27"/>
	<path class="st4" d="M939.68,211.35c-0.12,1.19,0.41,2.22,1.17,2.3c0.76,0.08,1.48-0.84,1.6-1.95c0.12-1.11-0.41-2.24-1.17-2.32
		C940.52,209.31,939.8,210.15,939.68,211.35z"/>
	<path class="st4" d="M925.15,207.75c-0.1,1.21,0.43,2.24,1.19,2.32c0.76,0.08,1.48-0.84,1.6-1.95c0.12-1.11-0.41-2.22-1.19-2.3
		C925.96,205.74,925.26,206.56,925.15,207.75z"/>
	<path class="st4" d="M961.92,219.17c0,0-6.29,9.12-10.52,12.04c-2.73,1.75-6.02,2.4-9.22,1.83c0,0-5.4-6.66-13.27-6.76
		c-2.04-1.3-4.36-2.09-6.76-2.32l0.45-10.17c0,0-5.98,21.81-5.42,29.62c0.57,7.81,19.78,13.23,29.39,11.05
		c9.61-2.18,14.5-17.13,17.42-31.18C964.2,222.11,961.92,219.17,961.92,219.17z"/>
	<path class="st7" d="M923.31,231.31c0,0,7.6,3.64,14.36,2.79"/>
	<path class="st4" d="M968.21,191.38c2.49-1.95-3.9-10.33-7.48-10.15c-3.59,0.18-21.18,0.84-21.18,0.84s-3.7-19.37,25.92-8.91
		c4.85,1.71,6.41,6.26,10.76,8.57c4.35,2.32,10.23,14.52,8.55,24.92c-1.68,10.41-7.23,28.67-17.3,34.14c0,0-3.47-0.35-1.36-2.75
		c9.92-11.17-0.47-32.17-2.12-14.81l-3.49-2.09c-0.03-1.91,0.17-3.81,0.58-5.67C961.82,210.71,956.54,200.95,968.21,191.38z"/>
	<path class="st5" d="M966.69,217.9c0,0,6.37-7.56,10.23-4.99s1.27,11.69-0.8,13.97c-2.07,2.28-3.74,2.79-6.61,6.43
		s-6.47,2.42-5.85-0.51"/>
	<path class="st8" d="M947.21,212.33c0.21,4.23-2.36,7.79-5.85,7.97c-3.49,0.18-6.33-3.1-6.55-7.33c-0.21-4.23,2.36-7.79,5.85-7.97
		C944.15,204.83,946.95,208.1,947.21,212.33z"/>
	<path class="st8" d="M929.24,208.49c0.23,4.23-2.36,7.79-5.75,7.99c-3.39,0.19-6.33-3.12-6.57-7.35c-0.23-4.23,2.38-7.79,5.85-7.97
		C926.24,200.99,929.02,204.26,929.24,208.49z"/>
	<path class="st5" d="M931.09,204.87c0,1.95-10.09,13.47-10.21,16c-0.12,2.53,9.39,2.69,9.39,2.69"/>
	<path class="st8" d="M929.24,208.49c0,0,3.02-0.76,5.55,3.31"/>
	<polyline class="st8" points="947.24,213.81 950.52,214.3 968.9,215.58 	"/>
	<path class="st5" d="M1003.17,300.66l-3.66-4.54c0,0-30.87,3.53-44.51,21.92c0,0-25.33-11.97-48.13-6.14l-0.66,8.17l49.87,29.83
		l19.49-8.11L1003.17,300.66z"/>
	<path class="st0" d="M1008.18,297.92l-5.26,35.08c0,0-29.04,12.74-35.08,22.99l-1.44,0.19l-6.82,0.95l-3.68-1.09
		c-9.01-2.62-18.19-4.63-27.48-6c-3.22-0.5-6.49-0.62-9.74-0.37l-19.64-30.61c0,0,30.38-4.21,51.39,2.98l10.06-0.7l0.37-0.31
		C963.87,318.55,985.03,301.74,1008.18,297.92z"/>
	<g>
		<defs>
			<path id="SVGID_1_" d="M1008.18,297.92l-5.26,35.08c0,0-29.04,12.74-35.08,22.99l-1.44,0.19l-6.82,0.95l-3.68-1.09
				c-9.01-2.62-18.19-4.63-27.48-6c-3.22-0.5-6.49-0.62-9.74-0.37l-19.64-30.61c0,0,30.38-4.21,51.39,2.98l10.06-0.7l0.37-0.31
				C963.87,318.55,985.03,301.74,1008.18,297.92z"/>
		</defs>
		<clipPath id="SVGID_2_">
			<use xlink:href="#SVGID_1_"  style="overflow:visible;"/>
		</clipPath>
		<g class="st9">
			<path class="st10" d="M966.01,348l-5.16-26.99c3-2.46,24.16-19.27,47.32-23.09l-5.26,35.08c0,0-29.04,12.74-35.08,22.99
				l-1.44,0.19L966.01,348z"/>
			<path class="st10" d="M956.01,349.91l-0.14,6.12c-9.01-2.62-18.19-4.63-27.48-6c0.85-12.72,10.04-23.33,22.51-25.98
				L956.01,349.91z"/>
		</g>
	</g>
	<path class="st2" d="M1008.18,297.92l-5.26,35.08c0,0-29.04,12.74-35.08,22.99l-1.44,0.19l-6.82,0.95l-3.68-1.09
		c-9.01-2.62-18.19-4.63-27.48-6c-3.22-0.5-6.49-0.62-9.74-0.37l-19.64-30.61c0,0,30.38-4.21,51.39,2.98l10.06-0.7l0.37-0.31
		C963.87,318.55,985.03,301.74,1008.18,297.92z"/>
	<path class="st5" d="M965.89,364.54c-10.41-0.66-30.21-16.6-30.21-16.6c-1.19-2.97-2.86-5.73-4.95-8.17
		c-2.83-2.83,0.94-5.18,0.94-5.18s-3.29-2.12-5.16-3.29c-1.87-1.17,1.4-4.25,1.4-4.25s14.13,1.95,15.59,1.42
		c1.46-0.53,15.02,8.24,17.13,8.48c2.86,0.05,5.68-0.68,8.15-2.12c1.4-1.17,5.75-8.48,8.57-9.9c2.83-1.42,7.79-1.4,5.42,1.66
		s-1.95,9.88-3.12,10.83c-1.17,0.95-3.1,11.21-3.1,14.73l15.39,14.07l-8.77,11.95L965.89,364.54z"/>
	<path class="st2" d="M931.62,334.59c2.77,0.31,5.47,1.07,7.99,2.24"/>
	<path class="st2" d="M942.1,340.17c0,0-0.88,3.57-1.11,4.11c-0.23,0.55,2.9,4.03,2.46,5.63c-0.45,1.6,3.18,5.85,3.18,5.85"/>
	<path class="st2" d="M938.55,344.28c-2.71-1.3-5.31-2.81-7.79-4.5"/>
	<polygon class="st6" points="931.01,255.53 937.75,269.11 965.47,253.76 971.56,267.36 943.29,285.31 937.85,271.26 926.86,281.84 
		923.14,264.73 	"/>
	<path class="st6" d="M1017.2,286.17c6.72,7.19,30.63,59.92,32.93,93.89h-72.84v-3.04l-7.95-4.66c0,0,4.93-17.34,18.98-14.63
		l4.09,5.85l9.06,6.82c0,0,15.9,0.41,20.52,4.99"/>
	<path class="st2" d="M1001.48,370.47c0,0,8.83-12.73,21.81-7.35"/>
	<path class="st2" d="M998.11,349.91c2.83,5.26,5.36,10.68,7.56,16.23"/>
	<path class="st6" d="M878.61,330.36c0,0-5.4-31.45-3.9-42.33"/>
	<path class="st6" d="M867.81,300.29c0,0,3,15.45,9.74,23.74"/>
	<path class="st6" d="M823.11,303c0,0,8.48,7.02,3.08,24.51"/>
	<path class="st4" d="M936.47,282.39c0,1.01-0.82,1.83-1.83,1.83c-1.01,0-1.83-0.82-1.83-1.83c0-1.01,0.82-1.83,1.83-1.83
		c0.01,0,0.01,0,0.02,0c1,0,1.81,0.81,1.81,1.81C936.47,282.37,936.47,282.38,936.47,282.39z"/>
	<circle class="st4" cx="931.67" cy="307.37" r="1.83"/>
	<circle class="st4" cx="928.91" cy="363.63" r="1.83"/>
	<polygon class="st2" points="691.81,198.32 714.76,198.32 726.26,178.42 714.76,158.54 691.81,158.54 680.33,178.42 	"/>
	<polyline class="st2" points="688.47,241.93 677,222.05 654.04,222.05 	"/>
	<polygon class="st2" points="657.12,178.42 680.07,178.42 691.55,158.54 680.07,138.65 657.12,138.65 645.64,158.54 	"/>
	<polygon class="st2" points="691.81,158.54 714.76,158.54 726.26,138.65 714.76,118.77 691.81,118.77 680.33,138.65 	"/>
	<path class="st4" d="M688.47,158.54c-0.01-1.71,1.37-3.11,3.08-3.12c1.71-0.01,3.11,1.37,3.12,3.08c0.01,1.71-1.37,3.11-3.08,3.12
		c-0.01,0-0.03,0-0.04,0C689.85,161.62,688.47,160.24,688.47,158.54z"/>
	<circle class="st4" cx="643.61" cy="116.8" r="3.08"/>
	<path class="st4" d="M685.39,241.93c0-1.7,1.38-3.08,3.08-3.08c1.7,0,3.08,1.38,3.08,3.08c0,1.7-1.38,3.08-3.08,3.08l0,0
		C686.77,245.01,685.39,243.63,685.39,241.93z"/>
	<circle class="st4" cx="654.04" cy="222.05" r="3.08"/>
	<path class="st4" d="M748.44,139.17c0-1.71,1.39-3.1,3.1-3.1c1.71,0,3.1,1.39,3.1,3.1c0,1.71-1.39,3.1-3.1,3.1
		c-0.01,0-0.01,0-0.02,0c-1.7,0-3.08-1.38-3.08-3.08C748.44,139.19,748.44,139.18,748.44,139.17z"/>
	<circle class="st4" cx="676.76" cy="222.05" r="3.08"/>
	<path class="st4" d="M723.1,139.17c0-1.71,1.39-3.1,3.1-3.1s3.1,1.39,3.1,3.1c0,1.71-1.39,3.1-3.1,3.1l0,0
		C724.49,142.27,723.1,140.88,723.1,139.17z"/>
	<path class="st4" d="M688.47,198.32c-0.01-1.71,1.37-3.11,3.08-3.12c1.71-0.01,3.11,1.37,3.12,3.08c0.01,1.71-1.37,3.11-3.08,3.12
		c-0.01,0-0.03,0-0.04,0C689.86,201.39,688.48,200.01,688.47,198.32z"/>
	<line class="st2" x1="726.26" y1="139.17" x2="751.53" y2="139.17"/>
	<line class="st2" x1="691.55" y1="198.32" x2="676.76" y2="222.05"/>
	<line class="st2" x1="657.12" y1="138.65" x2="643.61" y2="116.8"/>
	<path class="st2" d="M630.66,294.41c2.07-1.86,4.39-3.42,6.9-4.64c0.21,1.3,1.4,2.21,2.71,2.07c1.38-0.21,2.94-1.58,3.9-0.58
		c0.39,0.39,0.47,1.01,0.88,1.38c1.25,1.15,3.37-1.33,4.77-0.39c0.37,0.25,0.57,0.68,0.95,0.94c0.62,0.27,1.33,0.27,1.95,0
		c3.48-0.79,7.06-1.1,10.62-0.92l16.35,0.12l-1.25-0.64"/>
	<path class="st2" d="M629.78,308.05c0.32-1.52,1.81-2.48,3.33-2.16c1.13,0.24,2,1.15,2.19,2.3c0.82-0.38,1.44-1.09,1.71-1.95
		c1.05,2.36,4.31,2.55,6.9,2.38l11.56-0.82c3.47-0.25,7.52-0.88,9.08-3.9c1.71,3.13,2.4,6.71,1.95,10.25
		c1.07-2.55,2.47-4.94,4.15-7.13c0.35,1.25,0.7,2.49,1.03,3.74c8.05-5.63,19.06-1.95,28.8-3.18"/>
	<path class="st2" d="M630.81,326.11c-0.08-0.74,0.42-1.42,1.15-1.58c0.44,1.43,1.96,2.23,3.39,1.79c0.05-0.02,0.11-0.03,0.16-0.05
		c1.39-0.58,2.58-1.56,3.43-2.81c1.13,0.92,2.78,0.74,3.7-0.38c0.07-0.09,0.14-0.18,0.2-0.28c0.87,1.41,1.59,2.9,2.14,4.46
		c1.05-2.69,4.62-3.12,7.52-3.1h23.38"/>
	<path class="st2" d="M811.57,114.02c-5.58-0.14-11.06,1.55-15.59,4.81c-5.61,3.59-10.95,9.63-9.55,16.14
		c1.4,6.51,9.08,9.96,15.84,11.26c5.81,1.13,11.73,1.65,17.66,1.56c2.28,0.03,4.56-0.21,6.78-0.72c2.25-0.64,4.43-1.49,6.51-2.55
		l15.08-7.09c2.07-0.97,4.38-2.22,4.95-4.44c0.7-2.75-1.66-5.3-3.9-6.96c-8.47-6.05-18.91-8.69-29.23-7.37"/>
	<path class="st2" d="M793.67,128.59c0.89-1,2.03-1.72,3.31-2.1c-0.25,0.75-0.25,1.55,0,2.3c0.35,0.7,1.42,1.05,1.95,0.47
		c0.53-0.58,0.64-1.52,1.23-1.23l0.7,1.56c0.95-0.33,1.7-1.11,2.63-1.52c1.07-0.36,2.2-0.46,3.31-0.31
		c8.37,0.43,16.75,0.18,25.08-0.76"/>
	<path class="st2" d="M807.31,136.97c0.25-0.81,0.86-1.45,1.66-1.73c-0.45,0.49,0.1,1.33,0.76,1.44c0.67,0.01,1.34-0.13,1.95-0.41
		c0.74-0.19,1.5-0.3,2.26-0.31l14.21-0.97"/>
	<path class="st2" d="M813.37,156.77c-8.42,30.01-34.73,51.53-65.81,53.84"/>
	<path class="st2" d="M747.79,206.39c-2.76,1.7-5.21,3.85-7.27,6.35c2.48-0.52,5.04,0.4,6.63,2.38"/>
	<path class="st2" d="M808.69,211.02l1.77,3.9l2.53-3c0.47,0.35,0.81,0.87,0.94,1.44c0.19,0.55,0.49,1.15,1.03,1.31
		c0.55,0.16,1.23-0.58,0.82-0.99c0.73,0.49,1.63,0.64,2.47,0.41c0.37,0,0.7-0.27,1.07-0.37c0.44-0.1,0.89-0.14,1.34-0.12H847"/>
	<path class="st2" d="M809.92,232.46c0.4-1,1.53-1.49,2.53-1.09c0.29,0.12,0.56,0.3,0.76,0.55c0.09,0.25,0.22,0.48,0.39,0.68
		c0.49,0.34,1.15,0.26,1.54-0.19c0.43-0.39,0.7-0.92,1.15-1.27c1.23-0.95,2.98-0.21,4.48,0.19c1.92,0.4,3.89,0.51,5.85,0.31
		l14.95-0.78"/>
	<path class="st2" d="M810.39,249.02c1.02,0.03,1.93-0.65,2.2-1.64c0.51,0.09,0.91,0.47,1.01,0.97c0.72-0.44,1.33-1.03,1.79-1.73
		c9.63,0.12,19.27,0.12,28.92,0"/>
	<path class="st2" d="M810.37,261.4c1.24,0.51,2.66,0.01,3.29-1.17c0.61,0.49,1.04,1.18,1.21,1.95c0.78-0.53,1.74-0.7,2.65-0.49
		c0.37,0,0.74,0.25,1.11,0.35c0.93,0.24,1.9,0.33,2.86,0.25l33.6-0.49"/>
	<path class="st2" d="M720.16,340.18l15.26-1.48c0.49,0.06,0.94-0.28,1.01-0.77c0.02-0.13,0.01-0.26-0.03-0.38v-9.74
		c0.04-0.32-0.05-0.65-0.23-0.92c-0.25-0.23-0.59-0.35-0.94-0.33c-3.31-0.29-10.78-1.95-13.64,0.29S720.18,336.85,720.16,340.18z"/>
	<path class="st2" d="M724.53,331.49c0.19,0.92,0.37,1.83,0.57,2.77c2.31-0.48,4.68-0.61,7.03-0.37"/>
	<path class="st2" d="M732.3,344.39c-0.42,0.65-0.24,1.52,0.41,1.94c0.26,0.17,0.57,0.25,0.87,0.22c1.03-0.19,1.85-1.58,2.81-1.15"
		/>
	<path class="st2" d="M721.8,321.93c0.55-0.82,1.66-1.05,2.49-0.5c0.38,0.25,0.64,0.63,0.75,1.07l3.66-0.43"/>
	<path class="st2" d="M752.2,354.23c5.2,0,10.39,0,15.59,0c4.04,0.05,8.08-0.19,12.08-0.72c0.45-0.02,0.88-0.2,1.21-0.51
		c0.28-0.4,0.39-0.88,0.33-1.36v-23.7c0-0.27-23.87-1.03-26.66,0.9C749.14,332.78,752.2,348.17,752.2,354.23z"/>
	<path class="st2" d="M760.65,334.96l3.72,0.1c-0.67,2.53-1.73,4.94-3.14,7.15c-0.51,0.68-1.11,1.54-0.74,2.3
		c1.95,0.31,4.23,0.49,5.46-1.01c1.6-1.95,0.19-5.01,1.4-7.19l0.47,4.62l1.62,1.54c0.42,0.47,0.95,0.83,1.54,1.05
		c0.61,0.21,1.28-0.03,1.62-0.58"/>
	<path class="st2" d="M771.49,358.21c1.23-0.45,1.73,1.85,3,2.18c1.27,0.33,1.95-1.34,3.02-2.09c1.05-0.7,2.46-0.51,3.29,0.43"/>
	<path class="st2" d="M761.43,320.72c1.17,0.29,0.7,2.24,1.58,3.08c0.88,0.84,2.34,0,3.33-0.8s2.81-1.15,3.18,0"/>
	<rect x="594.33" y="379.61" class="st11" width="466.99" height="32.97"/>
	<rect x="669.79" y="392.59" class="st4" width="305.13" height="7.02"/>
	<path class="st3" d="M842.83,396.15c0,2.83-2.29,5.13-5.13,5.13c-2.83,0-5.13-2.29-5.13-5.13c0-2.83,2.29-5.13,5.13-5.13
		C840.54,391.03,842.83,393.32,842.83,396.15C842.83,396.15,842.83,396.15,842.83,396.15z"/>
	<rect x="1033.57" y="389.78" class="st2" width="12.63" height="12.63"/>
	<rect x="1012.39" y="389.78" class="st2" width="12.63" height="12.63"/>
	<rect x="608.79" y="389.64" class="st2" width="22" height="12.9"/>
	<line class="st7" x1="608.54" y1="73.35" x2="691.55" y2="73.35"/>
	<path class="st7" d="M1049.49,73.05c0.01,2.7-2.17,4.9-4.87,4.91c-2.7,0.01-4.9-2.17-4.91-4.87c-0.01-2.7,2.17-4.9,4.87-4.91
		c0.01,0,0.03,0,0.04,0C1047.31,68.18,1049.49,70.36,1049.49,73.05z"/>
	<path class="st7" d="M1030.22,73.35c0,2.69-2.18,4.87-4.87,4.87c-2.69,0-4.87-2.18-4.87-4.87s2.18-4.87,4.87-4.87
		C1028.04,68.47,1030.22,70.66,1030.22,73.35z"/>
	<path class="st7" d="M1010.95,73.66c-0.01,2.69-2.2,4.86-4.89,4.85c-2.69-0.01-4.86-2.2-4.85-4.89c0.01-2.68,2.19-4.85,4.87-4.85
		c2.69,0,4.87,2.18,4.87,4.87C1010.95,73.64,1010.95,73.65,1010.95,73.66z"/>
</g>
<g id="freepik--Character--inject-32">
	<path class="st12" d="M640.81,718.08h-46.15l-24.98-7.91l-7.79-2.47l-2.28,23.52l-273.25,0.51c0,0,4.17-10.52,10.97-25.96
		c14.67-33.3,41.57-89.54,65.09-112.52c19.1-18.65,66.8-19.18,66.8-19.18c4.87-3.23,10.58-4.95,16.43-4.95
		c8.77,0.43,75.06,7.62,79.18,9.74c2.86,1.66,5.32,3.94,7.19,6.66c0,0,23.23-10.27,46.05-1.01
		C600.88,593.77,640.81,718.08,640.81,718.08z"/>
	<g>
		<defs>
			<path id="SVGID_3_" d="M640.81,718.08h-46.15l-24.98-7.91l-7.79-2.47l-2.28,23.52l-273.25,0.51c0,0,4.17-10.52,10.97-25.96
				c14.67-33.3,41.57-89.54,65.09-112.52c19.1-18.65,66.8-19.18,66.8-19.18c4.87-3.23,10.58-4.95,16.43-4.95
				c8.77,0.43,75.06,7.62,79.18,9.74c2.86,1.66,5.32,3.94,7.19,6.66c0,0,23.23-10.27,46.05-1.01
				C600.88,593.77,640.81,718.08,640.81,718.08z"/>
		</defs>
		<clipPath id="SVGID_4_">
			<use xlink:href="#SVGID_3_"  style="overflow:visible;"/>
		</clipPath>
		<g class="st13">
			<path class="st14" d="M569.68,710.17l-7.79-2.47l-2.28,23.52l-273.25,0.51c0,0,4.17-10.52,10.97-25.96
				c10.54-0.25,22.43-0.8,22.43-0.8l6.12-20.01c0,0,9.61-10.15,21.61-4.17c-0.82-3.1,0.42-6.39,3.1-8.17
				c4.64-3.08,23.66,6.8,23.66,6.8s9.16-17.54,12.28-29.02s5.18,16.23,5.18,16.23s7.79-12.74,7.79-16.23s14.38,34.55,14.38,34.55
				s19.02,2.28,24.16,4.23c5.14,1.95,56.36,3.9,72.84,0s-11.69,19.49-11.69,19.49s28.96,9.74,45.33,3.35
				c16.37-6.39,23.7-13.23,23.7-13.23S568.82,703.52,569.68,710.17z"/>
		</g>
	</g>
	<path class="st2" d="M640.81,718.08h-46.15l-24.98-7.91l-7.79-2.47l-2.28,23.52l-273.25,0.51c0,0,4.17-10.52,10.97-25.96
		c14.67-33.3,41.57-89.54,65.09-112.52c19.1-18.65,66.8-19.18,66.8-19.18c4.87-3.23,10.58-4.95,16.43-4.95
		c8.77,0.43,75.06,7.62,79.18,9.74c2.86,1.66,5.32,3.94,7.19,6.66c0,0,23.23-10.27,46.05-1.01
		C600.88,593.77,640.81,718.08,640.81,718.08z"/>
	<path class="st2" d="M554.64,657.98c-4.06,5.72-8.69,11.02-13.82,15.8"/>
	<path class="st2" d="M527.31,685.15c-19.85,14.66-43.19,23.9-67.7,26.79"/>
	<path class="st12" d="M612.65,678.5c0,0,7.09-4.4,13.31-2.96c6.22,1.44,11.36,7.58,11.36,7.58s51.6-4.27,63.31-3.9
		s37.92,8.05,37.92,8.05s12.71-2.57,14.07-2.05c1.36,0.53-2.75,43.77-2.75,43.77H582.29c-8.22,0-14.32-11.91-20.5-21.26
		c10.64-37.22,16.09-75.74,16.17-114.45"/>
	<g>
		<defs>
			<path id="SVGID_5_" d="M612.65,678.5c0,0,7.09-4.4,13.31-2.96c6.22,1.44,11.36,7.58,11.36,7.58s51.6-4.27,63.31-3.9
				s37.92,8.05,37.92,8.05s12.71-2.57,14.07-2.05c1.36,0.53-2.75,43.77-2.75,43.77H582.29c-8.22,0-14.32-11.91-20.5-21.26
				c10.64-37.22,16.09-75.74,16.17-114.45"/>
		</defs>
		<clipPath id="SVGID_6_">
			<use xlink:href="#SVGID_5_"  style="overflow:visible;"/>
		</clipPath>
		<g class="st15">
			<path class="st14" d="M658.64,728.96h-76.31c-8.22,0-14.32-11.91-20.5-21.26c6.11-21,10.46-42.47,13-64.19
				c0,0,8.11,12.02,3.18,25.96l4.93-13.93c0,0,4.74,14.93,0,27.57c-4.74,12.65-8.11,16.27-8.11,16.27s5.85,7.64,12.04,5.59
				c6.2-2.05,12.94,10.35,12.94,10.35s14.89,0.57,17.99,0C619.22,715.06,638.49,721.71,658.64,728.96z"/>
		</g>
	</g>
	<path class="st2" d="M612.65,678.5c0,0,7.09-4.4,13.31-2.96c6.22,1.44,11.36,7.58,11.36,7.58s51.6-4.27,63.31-3.9
		s37.92,8.05,37.92,8.05s12.71-2.57,14.07-2.05c1.36,0.53-2.75,43.77-2.75,43.77H582.29c-8.22,0-14.32-11.91-20.5-21.26
		c10.64-37.22,16.09-75.74,16.17-114.45"/>
	<path class="st5" d="M516.85,543.85v41.62c-5.28,3.59-10.74,6.9-16.37,9.92c-11.36,6.02-25.94,11.98-34.61,8.59
		c-15.73-6.18-25.92-29.91-25.92-29.91c16.97-12.94,19.02-30.22,21.59-38.45L516.85,543.85z"/>
	<path class="st2" d="M431.73,577.25c0,0,14.4,31.35,31.88,37.03c17.48,5.67,47.08-16.47,47.08-16.47"/>
	<path class="st2" d="M353.1,615.19c0,0,27.28,21.24,31.86,28.39c4.58,7.15,0,74.5,0,74.5"/>
	<path class="st11" d="M315.96,683.73c16.08-10.37,27.38,0.97,37.14,3.02s31.35-8.98,47.55,0c16.19,8.98,16.19,5.85,16.19,5.85
		s16.95,12.94,8.2,38.84l-138.75,0.25c0,0-9.26-19.78,21.16-48"/>
	<path class="st3" d="M451.92,643.64l36.62,66.98l1.15,7.52l-5.85-5.2l-37.77-66.49C447.21,644.35,449.57,643.22,451.92,643.64z"/>
	<path class="st5" d="M417.15,696.1c2.77-0.8,5.61-1.32,8.48-1.54c3.1,0,22.16-14.09,28.63-15.14c6.47-1.05,18.1,8.59,24.03,10.13
		c5.92,1.54,5.55,9.26,9.02,12.34c3.47,3.08-1.54,6.55-5.85,3.08c0.62,2.44,0.04,5.03-1.56,6.98c0,0,1.17,4.21,0,6.14h-68.6
		C411.31,718.08,410.27,704.97,417.15,696.1z"/>
	<polyline class="st2" points="481.6,704.97 475.42,698.87 459.62,693.8 	"/>
	<polyline class="st2" points="480.06,711.94 470.61,707.69 457.69,705.26 	"/>
	<polyline class="st2" points="457.69,715.31 470.61,715.9 480.06,718.08 	"/>
	<path class="st2" d="M454.31,679.42c-5.85,5.13,0,10.52-2.79,14.38c-2.79,3.86-5.85,5.01-3.47,11.17"/>
	<path class="st0" d="M537.74,721.34h312.15c0,5.74-4.65,10.39-10.39,10.39H562.78c-1.09,0-2.16-0.17-3.2-0.51l-22.23-7.17
		c-0.73-0.22-1.15-0.99-0.93-1.72C536.6,721.74,537.13,721.34,537.74,721.34z"/>
	<g>
		<defs>
			<path id="SVGID_7_" d="M537.74,721.34h312.15c0,5.74-4.65,10.39-10.39,10.39H562.78c-1.09,0-2.16-0.17-3.2-0.51l-22.23-7.17
				c-0.73-0.22-1.15-0.99-0.93-1.72C536.6,721.74,537.13,721.34,537.74,721.34z"/>
		</defs>
		<clipPath id="SVGID_8_">
			<use xlink:href="#SVGID_7_"  style="overflow:visible;"/>
		</clipPath>
		<g class="st16">
			<path class="st14" d="M849.89,721.34c0,2.75-1.1,5.4-3.04,7.35l-0.31,0.27c-1.91,1.78-4.42,2.77-7.03,2.77H562.78
				c-1.09,0-2.16-0.17-3.2-0.51l-22.23-7.17c-0.73-0.22-1.15-0.99-0.93-1.72c0.18-0.6,0.73-1,1.36-0.99H849.89z"/>
			<path class="st14" d="M849.89,721.34c0,2.75-1.1,5.4-3.04,7.35l-0.31,0.27h-178.6c-4.21,0-7.63-3.41-7.64-7.62H849.89z"/>
		</g>
	</g>
	<path class="st2" d="M537.74,721.34h312.15c0,5.74-4.65,10.39-10.39,10.39H562.78c-1.09,0-2.16-0.17-3.2-0.51l-22.23-7.17
		c-0.73-0.22-1.15-0.99-0.93-1.72C536.6,721.74,537.13,721.34,537.74,721.34z"/>
	<path class="st2" d="M660.3,721.34L660.3,721.34c0.01,4.21,3.43,7.62,7.64,7.62h29.64"/>
	<path class="st0" d="M905.76,593.21v0.25l-36.32,126.37c-1.11,3.32-4.16,5.61-7.66,5.75H672.55c-2.36,0.19-4.43-1.57-4.61-3.93
		c-0.05-0.62,0.04-1.23,0.25-1.81l36.29-126.37c1.1-3.33,4.16-5.62,7.66-5.75h189.22c2.33-0.21,4.38,1.51,4.59,3.84
		C905.99,592.11,905.93,592.67,905.76,593.21z"/>
	<g>
		<defs>
			<path id="SVGID_9_" d="M905.76,593.21v0.25l-36.32,126.37c-1.11,3.32-4.16,5.61-7.66,5.75H672.55c-2.36,0.19-4.43-1.57-4.61-3.93
				c-0.05-0.62,0.04-1.23,0.25-1.81l36.29-126.37c1.1-3.33,4.16-5.62,7.66-5.75h189.22c2.33-0.21,4.38,1.51,4.59,3.84
				C905.99,592.11,905.93,592.67,905.76,593.21z"/>
		</defs>
		<clipPath id="SVGID_10_">
			<use xlink:href="#SVGID_9_"  style="overflow:visible;"/>
		</clipPath>
		<g class="st17">
			<path class="st18" d="M905.76,593.21v0.25l-36.32,126.37c-1.11,3.32-4.16,5.61-7.66,5.75H673.8v-0.25l36.27-126.37
				c1.11-3.32,4.16-5.61,7.66-5.75H905.76z"/>
		</g>
	</g>
	<path class="st2" d="M905.76,593.21v0.25l-36.32,126.37c-1.11,3.32-4.16,5.61-7.66,5.75H672.55c-2.36,0.19-4.43-1.57-4.61-3.93
		c-0.05-0.62,0.04-1.23,0.25-1.81l36.29-126.37c1.1-3.33,4.16-5.62,7.66-5.75h189.22c2.33-0.21,4.38,1.51,4.59,3.84
		C905.99,592.11,905.93,592.67,905.76,593.21z"/>
	<path class="st5" d="M800.58,658.98c-3.28,6.76-10.03,11.16-17.54,11.44c-7.95,0-12.65-6.16-10.46-13.76
		c2.67-7.96,9.98-13.45,18.38-13.78h0.35c-0.37,0.75-0.67,1.53-0.9,2.34C788.17,652.76,792.75,658.86,800.58,658.98z"/>
	<path class="st2" d="M674.77,719.39l35.41-123.35c0.65-1.94,2.42-3.27,4.46-3.35h183.41"/>
	<path class="st19" d="M586.87,731.72H325.74l3.16-6.59c0,0,24.67,2.3,44.22-3.8c8.63-2.69,21.92-3.9,35.25-3.74
		c8.4,0.12,28.84,0.19,41.53,0.14l0,0c4.52,0,8.07,0,9.74-0.12c0.64,0,1.29,0,1.95,0c3.62-0.04,7.23,0.3,10.78,1.01
		c3.42-0.39,6.87-0.56,10.31-0.51c6.02,0,31.92-0.1,38.97,0c9.3,0.12,20.03,1.95,30.22,3.35l0.27-0.1v0.14
		c12.32,1.71,23.85,2.88,31.18-0.14L586.87,731.72z"/>
	<g>
		<defs>
			<path id="SVGID_11_" d="M586.87,731.72H325.74l3.16-6.59c0,0,24.67,2.3,44.22-3.8c8.63-2.69,21.92-3.9,35.25-3.74
				c8.4,0.12,28.84,0.19,41.53,0.14l0,0c4.52,0,8.07,0,9.74-0.12c0.64,0,1.29,0,1.95,0c3.62-0.04,7.23,0.3,10.78,1.01
				c3.42-0.39,6.87-0.56,10.31-0.51c6.02,0,31.92-0.1,38.97,0c9.3,0.12,20.03,1.95,30.22,3.35l0.27-0.1v0.14
				c12.32,1.71,23.85,2.88,31.18-0.14L586.87,731.72z"/>
		</defs>
		<clipPath id="SVGID_12_">
			<use xlink:href="#SVGID_11_"  style="overflow:visible;"/>
		</clipPath>
		<g class="st20">
			<path class="st21" d="M586.87,731.72H384.45l4.11-7.07c0,0,11.05,6.45,21.85,1.95c10.8-4.5,21.67-6.96,39.48-8.91l0,0
				c3.88-0.42,7.8-0.47,11.69-0.16c7.75,0.59,15.38,2.33,22.62,5.14c0,0,10.62-4.64,37.43-4.64c9.3,0.12,20.03,1.95,30.22,3.35
				l0.27-0.1v0.14c12.32,1.71,23.85,2.88,31.18-0.14L586.87,731.72z"/>
			<polygon class="st0" points="388.57,724.65 328.97,725.14 325.82,731.72 384.45,731.72 			"/>
			<path class="st2" d="M386.13,728.82l2.44-4.17c5.27,2.29,10.95,3.47,16.7,3.47c8.73-0.25,22.53-11.07,49.05-10.54"/>
			<path class="st2" d="M472.3,718.59c4.89,1.79,11.85,4.13,11.85,4.13s9-5.18,28.78-4.64"/>
			<path class="st2" d="M388.57,724.65c0,0-30.83,0.55-43.16,0.82"/>
			<path class="st2" d="M480.04,731.72c0.34-2.6,2.31-4.7,4.89-5.2c4.37-0.72,7.19,4.68,7.19,4.68"/>
			<line class="st2" x1="484.15" y1="722.72" x2="484.93" y2="726.52"/>
			<path class="st2" d="M488.53,726.52c0,0,13.87-6.33,27.28-5.18"/>
			<path class="st2" d="M482.82,727.28c-1.23-0.95-22.06-7.39-43.38-2.63"/>
			<path class="st2" d="M480.04,729.91c0,0-17.54-3.33-32.8-1.01"/>
			<path class="st2" d="M490.48,728.94c11.64-3.25,23.83-4.07,35.8-2.42c11.79,1.75,23.7,2.55,35.62,2.38"/>
		</g>
	</g>
	<path class="st2" d="M586.87,731.72H325.74l3.16-6.59c0,0,24.67,2.3,44.22-3.8c8.63-2.69,21.92-3.9,35.25-3.74
		c8.4,0.12,28.84,0.19,41.53,0.14l0,0c4.52,0,8.07,0,9.74-0.12c0.64,0,1.29,0,1.95,0c3.62-0.04,7.23,0.3,10.78,1.01
		c3.42-0.39,6.87-0.56,10.31-0.51c6.02,0,31.92-0.1,38.97,0c9.3,0.12,20.03,1.95,30.22,3.35l0.27-0.1v0.14
		c12.32,1.71,23.85,2.88,31.18-0.14L586.87,731.72z"/>
	<path class="st4" d="M516.85,578.55v6.92c-5.28,3.59-10.74,6.9-16.37,9.92c-12.49-11.48-14.26-33.28-14.26-33.28L516.85,578.55z"/>
	<path class="st5" d="M463.61,538.7c-14.69-21.73-11.69-62.36,7.19-84.54c27.75-32.39,100.16-8.73,100.11,37.03
		c-0.06,6.36-0.6,12.71-1.64,18.98c-0.95,6.04-6.2,12.14-7.79,18.16c-1.6,6.02-0.95,15.59-1.6,21.44
		c-1.44,13.31-19.86,39.72-24.85,42.58c-6.98,3.9-44.68-6.68-52.91-30.87"/>
	<path class="st2" d="M515,511.85c0,0,10.27-3.74,19.49,0"/>
	<path class="st2" d="M555.51,511.85c0,0,7.48-3.74,12.49,0"/>
	<path class="st4" d="M524.61,529.31c-0.55,2.63-2.34,4.5-3.9,4.17c-1.56-0.33-2.59-2.77-2.05-5.42c0.55-2.65,2.34-4.5,3.99-4.15
		S525.15,526.72,524.61,529.31z"/>
	<path class="st4" d="M557.66,529.31c-0.55,2.63-2.34,4.5-3.9,4.17c-1.56-0.33-2.59-2.77-2.05-5.42c0.55-2.65,2.32-4.5,3.99-4.15
		S558.2,526.72,557.66,529.31z"/>
	<path class="st5" d="M552.26,515.84c0,0-4.89,8.48-5.4,15.59c-0.51,7.11,7.79,21.85,5.4,26.46c-2.4,4.62-12.59,4.38-15.94,1.56"/>
	<path class="st2" d="M538.13,568.77c-6.73,0.95-13.6-0.03-19.8-2.83"/>
	<path class="st4" d="M478.34,518.67c0,0,4.79-4.64,10.45-2.83c5.65,1.81,6.68,17.21,6.68,17.21l4.11-4.38c0,0-1.54-8.71,4.62-20.93
		s3.08-26.6,3.08-26.6s10.62,3.59,14.3,11.81c0,0,4.01-8.73,0-15.41c0,0,16.54,4.11,20.66,16.45c0,0,3.25-9.26,2.14-13.87
		c0,0,11.21,3.59,15.32,14.38c0,0,3.74-8.22,2.12-14.91c0,0,4.52,3.9,6.26,15.43c3.38-7.03,4.37-14.98,2.83-22.62
		c0,0,5.85,6.68,6.78,12.34c0,0,4.75-16.45-23.05-38.55c-27.81-22.1-75.42-17.09-82.82,0c0,0,2.46-12.59,7.41-17.09
		c0,0-13.64,6.08-13.35,18.63c0,0-12.04-1.54-18.2,6.18c3.77-0.29,7.57-0.12,11.3,0.51c0,0-16.45,9.74-15.41,32.89
		c1.03,23.15,15.41,56.51,15.41,56.51l11.26-3.29C470.24,540.51,472.03,524.77,478.34,518.67z"/>
	<path class="st5" d="M490.83,524.32c0,0-8.73-15.41-13.35-16.45c-4.62-1.03-13.37,5.14-11.32,13.37c2.05,8.22,3.61,22.1,6.18,23.64
		c2.57,1.54,6.68,10.8,10.8,8.22c1.91-0.99,2.67-3.34,1.68-5.25c-0.18-0.34-0.4-0.65-0.67-0.93"/>
	<path class="st2" d="M588.48,643.5c-0.88,3.8-2.02,7.54-3.39,11.19"/>
	<path class="st2" d="M581.96,662.13c-3.11,7.08-7.66,13.43-13.37,18.65"/>
	<path class="st2" d="M637.36,683.12c-2.67-0.35-8.11,3.02-13.1,7.37"/>
	<path class="st2" d="M620.6,693.94c-3.9,4.03-6.92,8.3-6.92,11.03"/>
	<path class="st2" d="M337.26,672.62c0,0,11.09,3.08,11.19,12.59"/>
	<path class="st2" d="M378.8,620.7c1.84,2.06,3.52,4.26,5.01,6.59"/>
	<path class="st2" d="M388.19,635.32c2.18,4.73,3.36,9.87,3.45,15.08c0,16.04-4.62,25.33-4.62,25.33"/>
	<path class="st2" d="M446.13,604.98c2.94,2.73,6.09,5.23,9.41,7.48"/>
	<path class="st2" d="M465.33,618.31c9.96,5.03,22.84,8.81,36.21,5.48"/>
	<g class="st22">
		<path class="st7" d="M486.22,446.99c3.48-0.53,7-0.76,10.52-0.68"/>
		<path class="st7" d="M501.86,446.59c9.53,0.9,21.26,4.23,28.55,14.28"/>
		<path class="st7" d="M509.35,439.18c0,0,17.87,0.19,30.67,9.14"/>
		<path class="st7" d="M545.05,452.67c2.29,2.4,4.13,5.19,5.42,8.24"/>
		<path class="st7" d="M481.6,454.61c0,0,17.54,6.18,23.64,17.23"/>
		<path class="st7" d="M473.1,460.87c3.8,5.27,6.53,11.22,8.05,17.54"/>
		<path class="st7" d="M482.24,487.08c0.02,2.33-0.19,4.65-0.64,6.94"/>
		<path class="st7" d="M461.29,468.06c-0.9,2.29-1.65,4.64-2.24,7.03"/>
		<path class="st7" d="M457.67,481.9c-1.02,6.08-1.1,12.28-0.23,18.38"/>
	</g>
	<polyline class="st5" points="691.28,766.37 937.21,766.37 937.21,731.72 252.12,731.72 252.12,766.37 390.63,766.37 	"/>
	<line class="st2" x1="673.62" y1="766.37" x2="638.7" y2="766.37"/>
</g>
</svg>
