<?xml version="1.0" encoding="utf-8"?>
<!-- Generator: Adobe Illustrator 23.1.0, SVG Export Plug-In . SVG Version: 6.00 Build 0)  -->
<svg version="1.1" id="Layer_1" xmlns="http://www.w3.org/2000/svg" xmlns:xlink="http://www.w3.org/1999/xlink" x="0px" y="0px"
	 viewBox="0 0 1366 768" style="enable-background:new 0 0 1366 768;" xml:space="preserve">
<style type="text/css">
	.st0{fill:#92E3A9;}
	.st1{opacity:0.8;fill:#FFFFFF;enable-background:new    ;}
	.st2{fill:#92E3A9;stroke:#263238;stroke-miterlimit:10;}
	.st3{fill:none;stroke:#263238;stroke-miterlimit:10;}
	.st4{fill:#FFFFFF;stroke:#263238;stroke-miterlimit:10;}
	.st5{fill:#263238;stroke:#263238;stroke-miterlimit:10;}
	.st6{fill:#263238;}
	.st7{fill:none;stroke:#92E3A9;stroke-miterlimit:10;}
	.st8{fill:none;stroke:#92E3A9;stroke-linecap:round;stroke-linejoin:round;}
	.st9{fill:none;stroke:#263238;stroke-width:2;stroke-miterlimit:10;}
</style>
<g id="freepik--background-simple--inject-7">
	<path class="st0" d="M1057.31,577.99c47.65-97.09,50.86-226.46,17.96-330.17c-28.36-89.29-91.38-157.42-164.18-197.96
		C826.63,2.8,725.94-11.2,635.29,18.5c-23.9,7.82-47.06,14.98-69.51,27.82c-92.19,52.53-74.32,182.22-106.73,227.32
		c-27.21,37.94-79.22,26.76-112.02,55.82c-88.49,78.49-37.28,280.66,57.62,353.22C515.11,767.17,939.24,818.4,1057.31,577.99z"/>
	<path class="st1" d="M1057.31,577.99c47.65-97.09,50.86-226.46,17.96-330.17c-28.36-89.29-91.38-157.42-164.18-197.96
		C826.63,2.8,725.94-11.2,635.29,18.5c-23.9,7.82-47.06,14.98-69.51,27.82c-92.19,52.53-74.32,182.22-106.73,227.32
		c-27.21,37.94-79.22,26.76-112.02,55.82c-88.49,78.49-37.28,280.66,57.62,353.22C515.11,767.17,939.24,818.4,1057.31,577.99z"/>
</g>
<g id="freepik--Pennants--inject-7">
	<path class="st2" d="M462.75,64.24c-13.3,4.39-26.68,8.67-40.13,12.82c-13.08-7.51-26.07-15.13-38.95-22.87l7.14-49.51
		c25.78,3.72,51.59,6.99,77.45,9.83C466.45,31.1,464.62,47.67,462.75,64.24z"/>
	<path class="st3" d="M560.72,72.88c-13.08,4.95-26.26,9.79-39.52,14.51c-13.43-7-26.72-14.08-39.86-21.22l5.07-49.76
		c25.9,2.63,51.8,4.83,77.7,6.57C562.97,39.62,561.84,56.25,560.72,72.88z"/>
	<path class="st2" d="M658.68,77.43c-12.85,5.5-25.8,10.88-38.85,16.15c-13.68-6.38-27.25-12.89-40.71-19.51
		c0.98-16.65,1.96-33.3,2.96-49.93c25.9,1.53,51.86,2.63,77.87,3.29L658.68,77.43z"/>
	<path class="st3" d="M756.92,77.83c-12.57,6.02-25.28,11.95-38.14,17.77c-13.93-5.81-27.77-11.74-41.52-17.79l0.86-50.01
		c25.97,0.46,51.94,0.46,77.92,0C756.34,44.49,756.63,61.17,756.92,77.83z"/>
	<path class="st2" d="M855.02,74.1c-12.39,6.55-24.85,13.01-37.38,19.37c-14.15-5.21-28.23-10.56-42.23-16.03
		c-0.41-16.67-0.82-33.33-1.23-50c25.97-0.64,51.92-1.73,77.87-3.26L855.02,74.1z"/>
	<path class="st3" d="M952.94,66.26c-12.07,7.08-24.26,14.06-36.55,20.93c-14.37-4.62-28.65-9.37-42.85-14.26l-3.38-49.9
		c25.9-1.73,51.8-3.91,77.7-6.54C949.57,33.11,951.26,49.7,952.94,66.26z"/>
	<path class="st2" d="M1050.55,54.29c-11.79,7.59-23.69,15.07-35.69,22.45c-14.57-4-29.06-8.14-43.46-12.41
		c-1.81-16.58-3.63-33.15-5.44-49.71c25.9-2.84,51.72-6.11,77.46-9.81C1045.81,21.33,1048.19,37.82,1050.55,54.29z"/>
	<path class="st3" d="M359.92,0c236.92,37.53,478.28,37.53,715.2,0"/>
</g>
<g id="freepik--Board--inject-7">
	<rect x="415.45" y="120.8" class="st4" width="560.78" height="327.69"/>
	<path class="st0" d="M748.73,194.21v-9.81c0-2.28-0.19-5.61-0.56-10.02c-0.37-4.41-0.57-7.36-0.57-8.88c0-1.52,0-3.38,0.15-5.46
		c0.15-2.08,0.15-3.68,0.15-4.75c-0.21,0.68-1.08,4.22-2.58,10.62c-3.9,16.54-6.68,24.81-8.36,24.81c-0.87,0.04-1.72-0.28-2.35-0.9
		c-0.59-0.66-0.89-1.53-0.84-2.42c-0.47-5.07-1.42-10.08-2.85-14.97c-1.93-7.57-3.53-13.36-4.86-17.38
		c-0.97,18.02-1.45,30.21-1.45,36.59l0.1,2.3c0.04,0.67-0.14,1.34-0.52,1.89c-0.42,0.48-1.05,0.73-1.69,0.66
		c-0.66,0.03-1.31-0.17-1.84-0.56c-0.43-0.29-0.7-0.77-0.71-1.28c0-5.22,0.39-13.05,1.18-23.48c0.79-10.43,1.18-18.25,1.18-23.46
		c-0.31-0.47-0.46-1.03-0.46-1.59c0-0.6,0.37-1.13,0.93-1.33c0.63-0.31,1.33-0.46,2.03-0.46c1.13,0,3.3,5.15,6.52,15.44
		c3.22,10.29,5.22,17.41,6.01,21.35c0.22-0.76,0.69-2.65,1.4-5.69c0.71-3.04,1.47-6.18,2.26-9.46c0.79-3.28,1.69-6.62,2.62-9.97
		c2.16-7.7,3.99-11.55,5.47-11.55c0.68,0,1.35,0.19,1.93,0.56c0.57,0.3,0.91,0.9,0.9,1.54c0,3.7,0.15,9.22,0.49,16.57
		s0.49,12.69,0.49,16.01l-0.2,8.09l0,0c0,0.57,0.15,2.4,0.46,5.47l0.15,1.49c0.22,0.54,0.33,1.11,0.34,1.69
		c-0.03,0.71-0.28,1.39-0.71,1.96c-0.39,0.66-1.11,1.06-1.87,1.05C749.52,199.01,748.73,197.42,748.73,194.21z"/>
	<path class="st0" d="M775.23,179.42l0.83,4.71c0.13,1.54,0.38,3.07,0.73,4.58c0.37,1.57,0.61,3.16,0.73,4.76l0,0
		c0.12,0.93-0.4,1.83-1.27,2.18c-0.87,0.04-1.74-0.14-2.52-0.52c-0.65-0.46-0.99-1.24-0.9-2.03c-0.11-3.18-0.49-6.35-1.13-9.48
		l-7.57-1.13c-0.5,1.83-0.87,3.7-1.08,5.59c-0.16,1.49-0.4,2.96-0.73,4.43c-0.44,1.89-1.28,2.84-2.5,2.84
		c-0.61,0.01-1.21-0.2-1.69-0.57c-0.48-0.34-0.77-0.9-0.76-1.49l0.19-0.68c3.34-12.78,5.9-25.76,7.69-38.85
		c0-0.34,0.12-1.37,0.22-3.07c0.25-3.75,0.73-6.13,1.42-7.16h2.58c0.65-0.02,1.29,0.15,1.84,0.49c0.51,0.32,0.81,0.87,0.79,1.47
		c0.16,5.81,0.67,11.61,1.55,17.36C774.51,168.33,775.03,173.87,775.23,179.42z M771.21,180.94c-0.18-1.29-0.25-2.6-0.22-3.9
		c0-1.87-0.1-4.19-0.32-6.94c-0.22-2.75-0.51-5.98-0.91-9.63s-0.68-6.32-0.83-7.97c-2.32,12.87-3.82,21.94-4.49,27.21
		C766.59,180.55,768.89,180.97,771.21,180.94z"/>
	<path class="st0" d="M786.85,193.77l-0.15-5.89c0,0,0-0.9,0.12-2.62c-0.2-0.65-0.61-6.43-1.22-17.33c-0.61-10.9-0.94-17.56-1-19.98
		h-0.3c-4.16,0-6.22-0.83-6.22-2.28c0.03-0.51,0.34-0.97,0.81-1.18c0.51-0.3,1.09-0.47,1.69-0.47l10.42,0.71h1.23
		c1.69,0,2.4,0.62,2.4,1.84c0.01,0.6-0.28,1.18-0.78,1.52c-0.51,0.38-1.14,0.58-1.77,0.57l-3.51-0.52l-0.15,0.79
		c0,4.85,0.42,12.11,1.27,21.77c0.84,9.66,1.27,16.94,1.28,21.82c-0.02,0.63-0.32,1.21-0.83,1.59c-0.5,0.45-1.14,0.69-1.81,0.69
		L786.85,193.77z"/>
	<path class="st0" d="M802.86,148.78l-0.3,19.15c1.38,0.3,2.79,0.43,4.21,0.39h2.77c0.18-0.81,0.24-1.65,0.19-2.48
		c0-1.42-0.17-4.56-0.51-9.39c-0.34-4.83-0.51-8.45-0.51-10.93c-0.01-0.56,0.24-1.09,0.68-1.44c0.34-0.34,0.79-0.55,1.27-0.59
		c0.33-0.01,0.66,0.03,0.98,0.12c0.28,0.08,0.56,0.18,0.83,0.3l0.71,0.25c0,6.66,0.24,16.37,0.73,29.15
		c0.48,12.78,0.73,19.39,0.74,19.81c-0.06,0.52-0.36,0.98-0.81,1.25c-0.51,0.41-1.15,0.63-1.81,0.62c-0.66,0-1.18-0.49-1.59-1.47
		c-0.49-1.39-0.76-2.85-0.81-4.32c-0.14-1.91-0.22-3.56-0.27-4.97c0-0.61,0-1.28,0-2.06c0-1.05,0-2.25,0-3.6c0-2.38,0-3.75,0-4.12
		v-0.3l0.12-2.21l-0.46-0.71l0,0c-0.45,0.11-0.92,0.16-1.39,0.15l-4.95-0.71v8.82l0.46,12.62c0.01,0.69-0.18,1.36-0.56,1.94
		c-0.37,0.57-1.01,0.89-1.69,0.84c-1.01,0-1.69-0.93-2.11-2.8c-0.45-2.51-0.64-5.07-0.59-7.62l0.24-11.71c0.04-1.34,0-2.67-0.12-4
		v-0.37c0.2-2.68,0.3-4.18,0.3-4.51l-0.52-17.31c-0.01-0.6,0.22-1.17,0.62-1.6c0.39-0.44,0.95-0.69,1.54-0.69
		C802.05,144.2,802.86,145.74,802.86,148.78z"/>
	<path class="st0" d="M835.41,211.88H711.87c-0.93,0-1.69-0.76-1.69-1.69s0.76-1.69,1.69-1.69h123.54c0.93,0,1.69,0.76,1.69,1.69
		S836.35,211.88,835.41,211.88z"/>
	<path class="st0" d="M711.87,206.15c-0.93,0-1.69-0.76-1.69-1.69s0.76-1.69,1.69-1.69l112.11-1.13l0,0c0.93,0,1.69,0.76,1.69,1.69
		s-0.76,1.69-1.69,1.69l-112.09,1.13H711.87z"/>
	<path class="st0" d="M701.57,170.7c-0.28,0-0.55-0.07-0.79-0.2l-14.86-8.01c-0.82-0.44-1.13-1.47-0.68-2.29
		c0.44-0.82,1.47-1.13,2.29-0.68l14.86,8.01c0.82,0.44,1.13,1.47,0.68,2.29C702.77,170.36,702.19,170.7,701.57,170.7z"/>
	<path class="st0" d="M707.3,160.41c-0.3-0.01-0.6-0.09-0.86-0.25L695,153.3c-0.86-0.36-1.27-1.34-0.92-2.21
		c0.36-0.86,1.34-1.27,2.21-0.92c0.14,0.06,0.28,0.14,0.4,0.23l11.45,6.86c0.8,0.48,1.05,1.52,0.57,2.31
		C708.42,160.09,707.88,160.4,707.3,160.41z"/>
	<path class="st0" d="M828.54,164.97c-0.93,0-1.69-0.76-1.69-1.69c0-0.37,0.12-0.73,0.35-1.03l11.44-14.86
		c0.57-0.74,1.63-0.88,2.37-0.31c0.74,0.57,0.88,1.63,0.31,2.37l0,0l-11.44,14.86C829.57,164.73,829.07,164.98,828.54,164.97z"/>
	<path class="st0" d="M830.84,177.56c-0.45,0-0.88-0.17-1.2-0.49c-0.65-0.66-0.65-1.72,0-2.38l17.16-17.16
		c0.61-0.71,1.67-0.79,2.38-0.18s0.79,1.67,0.18,2.38c-0.06,0.07-0.12,0.13-0.18,0.18l-17.16,17.16
		C831.7,177.38,831.28,177.56,830.84,177.56z"/>
	<rect x="415.45" y="435.16" class="st5" width="560.78" height="13.33"/>
	<path class="st0" d="M716.11,273.5l0.98-26.91c0-0.65,0.36-1.25,0.93-1.57c0.54-0.36,1.17-0.57,1.82-0.59l1.69,1.69v4.61
		c0,9.99-0.07,17.44-0.22,22.35l3.06-0.24c2.11,0,3.16,0.69,3.16,2.06s-1.4,2.35-4.24,2.35c-1.13,0-1.69,0.29-1.69,0.84
		c0,2.16,0.08,5.07,0.29,8.92c-0.02,2.28,0.25,4.55,0.79,6.76c-0.13,0.69-0.2,1.38-0.2,2.08c-0.02,0.6,0.14,1.19,0.47,1.69v1.69
		c0,2.42-0.83,3.61-2.5,3.61c-1.04,0.01-2.01-0.57-2.48-1.5c-0.57-0.92-0.87-1.98-0.88-3.06v-0.32c0.37-1.12,0.57-2.3,0.57-3.48
		l-0.78-9.34l0.1-4.17c0.01-0.99-0.06-1.98-0.2-2.96l-5.81,0.51l0,0c-1.51-0.08-2.95-0.62-4.14-1.55c-0.03-1.25,0.13-2.5,0.47-3.7
		c-0.35-1.8-0.5-3.64-0.47-5.47c0.09-3.29,0.36-6.57,0.81-9.83c0.43-3.23,0.7-6.47,0.79-9.73v-17.74c-0.04-0.5,0.09-1,0.37-1.42
		c0.24-0.3,0.78-0.46,1.6-0.46c0.79-0.01,1.56,0.22,2.21,0.66c0.6,0.35,0.98,0.99,1,1.69l-0.47,7.47v1.69c0,0.57,0.06,1.14,0.2,1.69
		v0.32c0.23,1.95,0.34,3.91,0.32,5.88c0,2.21-0.25,6.05-0.76,11.47c-0.51,5.42-0.74,9.02-0.74,10.74c-0.02,1.22,0.03,2.44,0.15,3.65
		C713.6,273.87,714.87,273.75,716.11,273.5z"/>
	<path class="st0" d="M754.96,275.09l1,7.7c0,0.75-0.37,1.44-1,1.86c-0.7,0.47-1.52,0.73-2.36,0.73c-0.84,0-1.67-0.24-2.38-0.69
		c-0.64-0.32-1.05-0.97-1.08-1.69l-0.68-9.34v-0.71l-5.89,0.42c-3.01,0-4.51-1.01-4.51-3.04c0.01-0.62,0.24-1.22,0.64-1.69
		c0.42-0.49,1.04-0.77,1.69-0.76l6.27,0.34c0.81,0,1.63-0.06,2.43-0.19l-0.62-7.04c0-3.55,1.15-5.3,3.38-5.3
		c0.74-0.02,1.45,0.27,1.96,0.79c0.49,0.54,0.76,1.25,0.74,1.98v1.17c0,5.73,0.46,8.6,1.4,8.6l6.15-0.37c3.67,0,5.49,0.96,5.49,2.91
		c0.01,0.73-0.31,1.42-0.88,1.87c-0.58,0.51-1.34,0.78-2.11,0.76l-6.25-0.56C756.16,272.82,754.96,273.57,754.96,275.09z"/>
	<path class="st0" d="M779.89,259.73c0-22.09,3.79-33.14,11.38-33.14c0.61,0.02,1.2,0.22,1.69,0.59c0.53,0.35,0.84,0.95,0.83,1.59
		c-0.08,0.8-0.55,1.51-1.25,1.89c-0.84,0.58-1.8,0.98-2.8,1.15c-0.9,0.78-1.69,3.01-2.43,6.66c-1.15,5.95-1.87,11.98-2.16,18.04
		c0.56-0.1,1.12-0.15,1.69-0.15c6.98,0,11.09,7.88,12.31,23.65c0.29,3.26,0.42,6.06,0.42,8.45c0,2.38,0,4-0.1,4.93
		c-0.09,1.05-0.29,2.08-0.59,3.09c-0.25,1.01-0.72,1.95-1.37,2.75c-1.68,1.74-4.06,2.64-6.47,2.43
		c-6.66-0.37-10.35-9.94-11.08-28.71L779.89,259.73z M791.8,297.62c1.82,0,2.75-2.16,2.75-6.52c-0.04-4.9-0.35-9.78-0.95-14.64
		c-1.24-10.68-3.31-16.31-6.22-16.89c-0.85,0.49-1.51,1.25-1.87,2.16c-0.32,0.96-0.47,1.96-0.44,2.97c0,1.18,0,2.3,0,3.38
		s0,2.58,0.1,4.49c0.1,1.91,0.15,3.72,0.29,5.42c0.14,1.71,0.3,3.55,0.52,5.54c0.17,1.79,0.45,3.57,0.83,5.32
		c0.34,1.57,0.74,3.04,1.18,4.41C788.95,296.17,790.21,297.6,791.8,297.62z"/>
	<path class="st0" d="M817.46,264.9l-4.04,0.14c-4.26,0-6.38-0.91-6.38-2.77c-0.02-0.59,0.22-1.17,0.66-1.57
		c0.47-0.4,1.07-0.6,1.69-0.57h19.02c5.5,0,8.24,0.84,8.23,2.53c-0.01,1.69-3.74,2.53-11.18,2.53c-3.18,0-5.69-0.1-7.57-0.29
		L817.46,264.9z M833.66,273.87l-22.36-0.47c-2.84,0-4.26-0.69-4.26-2.11c-0.03-0.6,0.22-1.17,0.66-1.57
		c0.47-0.4,1.07-0.61,1.69-0.59h15.91c7.22,0,10.82,0.84,10.81,2.53c0.03,0.61-0.23,1.2-0.69,1.6c-0.5,0.41-1.13,0.63-1.77,0.61
		H833.66z"/>
	<path class="st0" d="M858.55,295.41h-2.52c-0.7,0.05-1.4-0.08-2.03-0.39c-0.45-0.36-0.68-0.92-0.63-1.49
		c0-0.71,0.14-1.18,0.41-1.39c0.64-0.26,1.33-0.36,2.01-0.29c1.1,0,1.69-0.42,1.69-1.28c0-5.02-0.43-12.49-1.28-22.41
		c-0.86-9.92-1.28-17.24-1.28-21.96l0.14-2.8c0-2.4-0.98-3.6-2.94-3.6l-1.94,0.08c-1.59,0-2.4-0.56-2.4-1.69
		c0-1.35,2.28-2.01,6.76-2.01c2.36,0,3.8,0.42,4.32,1.27c-0.31,1.26-0.47,2.54-0.49,3.83c0.1,2.15,0.31,4.29,0.64,6.42
		c0.41,2.94,0.63,5.9,0.64,8.87c0,2.8,0.3,8.23,0.9,16.3s0.91,14.12,0.91,18.17v0.47c1.33-0.14,2.36-0.22,3.11-0.22l0,0
		c2.38,0,3.58,0.64,3.58,1.91C868.15,294.48,864.96,295.41,858.55,295.41z"/>
	<path class="st0" d="M871.31,249.38c0-6.26,1.21-10.2,3.63-11.82c1.06-0.67,2.29-1.01,3.55-0.98c8.1,0,12.14,13,12.14,39
		c0,12.83-3.03,19.24-9.09,19.24c-4.5,0-7.52-6.25-9.04-18.75C871.58,267.2,871.18,258.29,871.31,249.38z M875.68,258.06l0.86,7.48
		c-0.08,6.7,0.55,13.38,1.86,19.95c0.88,3.92,2.2,5.88,3.92,5.88c0.83,0,1.55-0.76,2.2-2.28c0.72-1.77,1.19-3.64,1.4-5.54
		c0.47-3.13,0.75-6.29,0.81-9.46c0-2.25-0.05-4.41-0.15-6.49c-0.1-2.07-0.24-4.52-0.41-7.35c-0.18-2.61-0.5-5.2-0.96-7.77
		c-0.41-2.28-0.95-4.53-1.6-6.76c-1.35-4.59-3.38-7.06-6.06-7.42c-0.71,0.52-1.29,1.19-1.69,1.98c-0.32,0.83-0.47,1.72-0.44,2.62
		L875.68,258.06z"/>
	<path class="st0" d="M723.85,400.2h-1.52c-3.24,0-4.86-0.76-4.86-2.28c-0.02-0.58,0.32-1.11,0.84-1.35
		c0.63-0.32,1.32-0.48,2.03-0.46c0.77,0,1.52,0.23,2.16,0.66c1.42-0.44,2.53-1.91,3.38-4.41c0.73-1.98,1.15-4.07,1.23-6.18
		c0-1.69,0-2.91,0-3.78c0-0.88,0-2.01-0.1-3.38c-0.1-1.37-0.15-2.53-0.29-3.38s-0.3-1.93-0.54-3.11c-0.18-0.99-0.46-1.96-0.84-2.89
		c-0.37-0.82-0.8-1.62-1.28-2.38c-0.45-0.72-1.02-1.36-1.69-1.89c-1.55-1.09-3.39-1.68-5.29-1.69c-1.15,0.15-2.26-0.46-2.74-1.52
		c-0.37-0.98-0.55-2.03-0.52-3.07l0.47-4.09c-0.27-5.68-0.99-11.33-2.16-16.89l1.52-1.42h7.25c2.47,0,3.68,0.68,3.68,2.04v0.44
		l-1.69,1.22h-2.21v-0.24h-3.78c0.15,3.38,0.71,9.75,1.69,19.12c0.14,0,0.71,0.08,1.69,0.15l2.13,0.24c1.18,0.14,2.33,0.5,3.38,1.06
		c1.75,1.45,2.94,3.45,3.38,5.68c1.46,4.93,2.19,10.06,2.16,15.2c0.11,2.82-0.03,5.65-0.42,8.45c-0.29,1.02-0.63,2.03-1.01,3.02
		c-0.29,0.91-0.73,1.76-1.3,2.52C727.26,397.37,725.66,398.92,723.85,400.2z"/>
	<path class="st0" d="M751.48,377.02l0.83,6.45c0,0.65-0.34,1.25-0.9,1.59c-0.57,0.4-1.26,0.61-1.96,0.61
		c-0.71,0.01-1.41-0.19-2.01-0.57c-0.55-0.29-0.9-0.85-0.91-1.47l-0.56-7.82v-0.59l-4.95,0.35c-2.52,0-3.77-0.86-3.77-2.57
		c-0.01-0.53,0.18-1.05,0.54-1.45c0.36-0.42,0.9-0.65,1.45-0.62l5.25,0.27c0.68,0,1.36-0.05,2.03-0.15l-0.51-5.91
		c0-2.96,0.95-4.44,2.85-4.44c0.64-0.05,1.26,0.2,1.69,0.68c0.43,0.45,0.67,1.06,0.64,1.69v0.98c0,4.8,0.39,7.2,1.17,7.2l5.17-0.32
		c3.06,0,4.59,0.83,4.59,2.45c0.01,0.61-0.26,1.19-0.74,1.57c-0.47,0.4-1.07,0.62-1.69,0.62l-5.25-0.42
		C752.43,375.1,751.48,375.74,751.48,377.02z"/>
	<path class="st0" d="M786.63,398.61l-13.51,0.76c-0.81,0.02-1.6-0.22-2.26-0.68c-0.62-0.37-1-1.05-1-1.77v-0.3
		c1.37-1.55,2.43-3.35,3.12-5.3c0.84-2.17,1.41-3.61,1.69-4.31c3.07-5.99,5.6-12.24,7.55-18.68c1.7-5.98,2.53-12.16,2.48-18.38
		c0-6.57-1.42-9.98-4.26-10.13c-0.98,0.47-1.69,1.69-1.99,3.85c-0.3,2.16-1.23,2.96-2.65,2.96s-2.13-0.83-2.13-2.48
		c-0.1-2.38,0.82-4.7,2.52-6.37c0.85-0.86,2-1.34,3.21-1.33l0,0c2.54-0.25,5.04,0.72,6.76,2.6c0.86,1.02,1.52,2.19,1.93,3.46
		c0.27,1.03,0.47,1.84,0.57,2.43c0.1,0.59,0.17,1.39,0.24,2.33c0.08,1.42,0.12,3.48,0.12,6.18c-0.11,3.56-0.64,7.1-1.55,10.54
		c-0.85,3.74-1.98,7.42-3.38,11c-1.22,3.01-2.77,6.62-4.61,10.83c-1.84,4.21-3.19,7.47-4,9.68c3.48-0.53,6.99-0.8,10.51-0.81
		c1.25,0.81,1.87,1.54,1.87,2.18C787.73,397.59,787.28,398.24,786.63,398.61z"/>
	<path class="st0" d="M802.7,368.48l-3.38,0.12c-3.55,0-5.34-0.76-5.34-2.31c-0.02-0.5,0.17-0.98,0.54-1.32
		c0.4-0.35,0.92-0.52,1.45-0.49h15.93c4.61,0,6.91,0.71,6.91,2.13s-3.12,2.11-9.37,2.11c-2.11,0.03-4.23-0.05-6.33-0.24
		L802.7,368.48z M816.21,375.99l-18.75-0.39c-2.38,0-3.56-0.59-3.56-1.69c-0.02-0.5,0.17-0.98,0.54-1.32
		c0.41-0.34,0.92-0.51,1.45-0.49h13.33c6.05,0,9.07,0.71,9.07,2.13c0.02,0.51-0.2,1-0.59,1.33c-0.41,0.3-0.91,0.45-1.42,0.42H816.21
		z"/>
</g>
<g id="freepik--Pictures--inject-7">
	<path class="st3" d="M1031.97,375.3l1.25,179.6h9.86v-79.93h10.95v79.93h10.27v-79.93h10.37v79.93h9.17v-79.88h8.45v79.88h9.85
		v-89.78c0,0,7.67-30.62-4.29-47.04c-11.96-16.42-35-18.58-35-18.58l-4.26-28.71l-10.71-149.82l9.8-20.83c0,0,25.72-4.9,24.51-9.8
		c-1.22-4.9-19.68-3.67-19.68-3.67l3.38-10.32c0,0,4.9,0,4.9-4.36s-5.98-6-7.62-3.82s0,5.44,0,5.44l-8.9,9.93l1.82-12.09
		c0,0,4.36-2.74,2.72-5.46c-1.64-2.72-8.16-1.69-8.16,1.69v3.26l-7.8,12.11c0,0-32.18-18.14-41.23,0
		c-11.82,23.65,28.98,37.99,28.98,37.99L1031.97,375.3z"/>
	<path class="st3" d="M1056.31,400.6c0,0-15.3,17.5-10.93,24.07s20.78,2.18,20.78-3.28S1061.79,401.7,1056.31,400.6z"/>
	<path class="st3" d="M1091.31,440.04c0,0-19.68-14.21-19.68-2.18s9.85,22.97,14.22,20.78
		C1090.23,456.45,1097.85,452.02,1091.31,440.04z"/>
	<path class="st3" d="M1056.31,440.04c0,0-9.85,8.77-6.55,14.22s15.3,15.32,15.3,6.57S1062.88,438.9,1056.31,440.04z"/>
	<line class="st3" x1="1001.2" y1="226.1" x2="1019.69" y2="226.1"/>
	<line class="st3" x1="1001.2" y1="233.87" x2="1012.63" y2="233.87"/>
	<line class="st3" x1="1001.2" y1="240.54" x2="1019.69" y2="240.54"/>
	<line class="st3" x1="1001.2" y1="248.31" x2="1012.63" y2="248.31"/>
	<line class="st3" x1="1001.2" y1="254.97" x2="1019.69" y2="254.97"/>
	<line class="st3" x1="1001.2" y1="262.74" x2="1012.63" y2="262.74"/>
	<line class="st3" x1="1001.2" y1="269.41" x2="1019.69" y2="269.41"/>
	<line class="st3" x1="1001.2" y1="277.18" x2="1012.63" y2="277.18"/>
	<line class="st3" x1="1001.2" y1="283.84" x2="1019.69" y2="283.84"/>
	<line class="st3" x1="1001.2" y1="291.61" x2="1012.63" y2="291.61"/>
	<line class="st3" x1="1001.2" y1="298.28" x2="1019.69" y2="298.28"/>
	<line class="st3" x1="1001.2" y1="306.05" x2="1012.63" y2="306.05"/>
	<line class="st3" x1="1001.2" y1="312.7" x2="1019.69" y2="312.7"/>
	<line class="st3" x1="1001.2" y1="320.47" x2="1012.63" y2="320.47"/>
	<line class="st3" x1="1001.2" y1="327.14" x2="1019.69" y2="327.14"/>
	<line class="st3" x1="1001.2" y1="334.91" x2="1012.63" y2="334.91"/>
	<line class="st3" x1="1001.2" y1="341.57" x2="1019.69" y2="341.57"/>
	<line class="st3" x1="1001.2" y1="349.36" x2="1012.63" y2="349.36"/>
	<line class="st3" x1="1001.2" y1="356.01" x2="1019.69" y2="356.01"/>
	<line class="st3" x1="1001.2" y1="363.78" x2="1012.63" y2="363.78"/>
	<line class="st3" x1="1001.2" y1="370.44" x2="1019.69" y2="370.44"/>
	<line class="st3" x1="1001.2" y1="378.22" x2="1012.63" y2="378.22"/>
	<line class="st3" x1="1001.2" y1="384.88" x2="1019.69" y2="384.88"/>
	<line class="st3" x1="1001.2" y1="392.65" x2="1012.63" y2="392.65"/>
	<line class="st3" x1="1001.2" y1="399.15" x2="1019.69" y2="399.15"/>
	<line class="st3" x1="1001.2" y1="406.92" x2="1012.63" y2="406.92"/>
	<line class="st3" x1="1001.2" y1="413.58" x2="1019.69" y2="413.58"/>
	<line class="st3" x1="1001.2" y1="421.35" x2="1012.63" y2="421.35"/>
	<line class="st3" x1="1001.2" y1="428.02" x2="1019.69" y2="428.02"/>
	<line class="st3" x1="1001.2" y1="435.79" x2="1012.63" y2="435.79"/>
	<line class="st3" x1="1001.2" y1="442.44" x2="1019.69" y2="442.44"/>
	<line class="st3" x1="1001.2" y1="450.23" x2="1012.63" y2="450.23"/>
	<line class="st3" x1="1001.2" y1="456.88" x2="1019.69" y2="456.88"/>
	<line class="st3" x1="1001.2" y1="464.65" x2="1012.63" y2="464.65"/>
	<line class="st3" x1="1001.2" y1="471.33" x2="1019.69" y2="471.33"/>
	<line class="st3" x1="1001.2" y1="479.1" x2="1012.63" y2="479.1"/>
	<line class="st3" x1="1001.2" y1="485.75" x2="1019.69" y2="485.75"/>
	<line class="st3" x1="1001.2" y1="493.52" x2="1012.63" y2="493.52"/>
	<line class="st3" x1="1001.2" y1="500.19" x2="1019.69" y2="500.19"/>
	<line class="st3" x1="1001.2" y1="507.96" x2="1012.63" y2="507.96"/>
	<line class="st3" x1="1001.2" y1="514.62" x2="1019.69" y2="514.62"/>
	<line class="st3" x1="1001.2" y1="522.39" x2="1012.63" y2="522.39"/>
	<line class="st3" x1="1001.2" y1="529.06" x2="1019.69" y2="529.06"/>
	<line class="st3" x1="1001.2" y1="536.83" x2="1012.63" y2="536.83"/>
	<line class="st3" x1="1001.2" y1="543.48" x2="1019.69" y2="543.48"/>
	<line class="st3" x1="1001.2" y1="551.25" x2="1012.63" y2="551.25"/>
	<path class="st3" d="M1049.24,192.29c0,4.23-3.43,7.65-7.65,7.65c-4.23,0-7.65-3.43-7.65-7.65s3.43-7.65,7.65-7.65
		c0.01,0,0.01,0,0.02,0c4.22,0,7.63,3.42,7.63,7.63C1049.24,192.28,1049.24,192.28,1049.24,192.29z"/>
	<circle class="st6" cx="1041.87" cy="194.26" r="5.1"/>
	<path class="st3" d="M1023.19,217.47c0,0,12.18-3.95,15.29-10.74l4.53,1.69"/>
	<path class="st3" d="M1048.68,233.97c0,0-6.76,13.6-11.33,15.29c-4.58,1.69-6.76,8.45-1.69,13.51c3.21,3.18,6.72,6.04,10.49,8.53
		l5.54,3.82L1048.68,233.97z"/>
	<path class="st3" d="M1031.25,287.89c0,0,3.28-4.19,6.1,4.88c2.82,9.07-1.13,18.11,3.97,22.08c5.1,3.97,7.36,10.76,2.82,15.29
		c-4.54,4.53-12.25,6.5-12.25,6.5L1031.25,287.89z"/>
	<path class="st3" d="M1020.93,175.58c0,0,6.23,21.52-14.14,30.57"/>
	<path class="st3" d="M1012.14,187.37c0,1.13-0.92,2.04-2.04,2.04c-1.13,0-2.04-0.92-2.04-2.04c0-1.13,0.92-2.04,2.04-2.04l0,0
		C1011.22,185.34,1012.13,186.25,1012.14,187.37z"/>
	<path class="st3" d="M1055.52,328.33c0,0-5.71,12.55-10.24,18.23c-4.53,5.68-5.68,9.61-0.57,12.45c4.21,2.16,8.56,4.05,13.02,5.66
		L1055.52,328.33z"/>
	<rect x="990.64" y="149.89" class="st3" width="117.36" height="413.27"/>
	
		<rect x="316.54" y="132.99" transform="matrix(0.9987 -0.0506 0.0506 0.9987 -9.0554 18.3593)" class="st3" width="83.17" height="110.13"/>
	<path class="st7" d="M362.21,187.83c0,0-12.5-20.83-22.9-15.29c-10.4,5.54-6.25,13.19,2.08,16.67l8.33,3.46
		c0,0-13.19-3.46-16.65,7.63c-3.46,11.1,4.16,14.58,9.71,15.2c5.56,0.62,14.58-6.23,14.58-6.23s-12.5,11.1-0.69,17.35
		c11.81,6.25,22.9-0.69,23.65-8.33c0.4-4.46-0.33-8.94-2.13-13.04c6.27-0.85,11.3-5.61,12.5-11.82c2.77-11.1-2.08-15.96-10.42-15.96
		S362.21,187.83,362.21,187.83z"/>
	<path class="st7" d="M371.92,201c0,4.6-3.73,8.33-8.33,8.33c-4.6,0-8.33-3.73-8.33-8.33s3.73-8.33,8.33-8.33c0,0,0,0,0,0
		C368.19,192.68,371.92,196.41,371.92,201z"/>
	<line class="st3" x1="322.47" y1="150.46" x2="389.81" y2="147.05"/>
	<line class="st3" x1="323.21" y1="165.06" x2="390.56" y2="161.65"/>
	
		<rect x="303.07" y="279.9" transform="matrix(0.0851 -0.9964 0.9964 0.0851 7.348 650.9697)" class="st3" width="110.13" height="83.17"/>
	<line class="st3" x1="327.89" y1="279.43" x2="395.07" y2="285.15"/>
	<line class="st3" x1="326.64" y1="293.99" x2="393.83" y2="299.71"/>
	<line class="st3" x1="325.41" y1="308.53" x2="392.58" y2="314.27"/>
	<line class="st3" x1="324.16" y1="323.09" x2="391.35" y2="328.83"/>
	<line class="st3" x1="322.92" y1="337.65" x2="390.1" y2="343.39"/>
	<line class="st3" x1="321.67" y1="352.21" x2="388.87" y2="357.94"/>
</g>
<g id="freepik--Plant--inject-7">
	<line class="st8" x1="366.49" y1="643.12" x2="366.49" y2="461.97"/>
	<path class="st0" d="M365.13,626.77c0,0-9.54-13.61-21.81-20.42s-32.68-6.76-32.68-6.76S321.54,639.04,365.13,626.77z"/>
	<path class="st0" d="M366.47,626.77c0,0,9.54-13.61,21.79-20.42c12.25-6.81,32.7-6.76,32.7-6.76S410.06,639.04,366.47,626.77z"/>
	<path class="st0" d="M365.13,577.74c0,0-9.54-13.61-21.81-20.42s-32.68-6.76-32.68-6.76S321.54,590,365.13,577.74z"/>
	<path class="st0" d="M366.47,577.74c0,0,9.54-13.61,21.79-20.42c12.25-6.81,32.7-6.76,32.7-6.76S410.06,590,366.47,577.74z"/>
	<path class="st0" d="M365.13,528.7c0,0-9.54-13.61-21.81-20.42s-32.68-6.76-32.68-6.76S321.54,540.97,365.13,528.7z"/>
	<path class="st0" d="M366.47,528.7c0,0,9.54-13.61,21.79-20.42c12.25-6.81,32.7-6.76,32.7-6.76S410.06,540.97,366.47,528.7z"/>
	<path class="st0" d="M365.13,479.69c0,0-9.54-13.63-21.81-20.44s-32.68-6.76-32.68-6.76S321.54,491.93,365.13,479.69z"/>
	<path class="st0" d="M366.47,479.69c0,0,9.54-13.63,21.79-20.44c12.25-6.81,32.7-6.76,32.7-6.76S410.06,491.93,366.47,479.69z"/>
	<path class="st0" d="M366.47,462c0,0-10.89-14.66-11.45-28.71s8.67-32.24,8.67-32.24S397.09,428.61,366.47,462z"/>
	<polygon class="st5" points="344.51,638.56 386.26,638.56 375.83,752.8 354.95,752.8 	"/>
</g>
<g id="freepik--character-2--inject-7">
	<path class="st4" d="M894.38,624.51c-0.77,10.55-0.77,21.15,0,31.7c1.3,17.47,1.84,53.36,1.01,62.75
		c-0.83,9.39-4.56,29.17-2.35,31.81c2.21,2.64,13.11,3.09,17.57,1.4c4.46-1.69,7.11-0.42,6.98-3.73
		c-0.14-3.31-2.74-26.03-2.94-31.15s8.28-34.46,12.97-52.75c4.7-18.29,2.08-38.12,1.33-41.72c-0.74-3.6-2.3-4.44-2.3-4.44
		S908.87,624.83,894.38,624.51z"/>
	<path class="st5" d="M910.36,754.37c4.24,0,7.43-2.62,7.3-5.93c-0.08-2.08-1.22-15.67-1.99-21.96c-2.37,2.21-5.36,3.64-8.56,4.09
		c-4.4,0.89-8.97,0.03-12.75-2.4c-1.28,9.53-4.32,21.54-2.7,23.46C893.87,754.22,905.6,754.45,910.36,754.37z"/>
	<path class="st4" d="M910.36,754.37c4.24,0,7.43-2.62,7.3-5.93c0.01-0.07,0.01-0.15,0-0.22c-10.13,2.11-21.49,0-26.33-1.03
		c-0.34,1.48-0.23,3.03,0.34,4.44C893.87,754.22,905.6,754.45,910.36,754.37z"/>
	<path class="st4" d="M849.08,616.88c0,0-1.59,30.51,4.14,46.6s11.82,55.88,10.29,59.88c-1.54,4-3.82,16.5-5.51,17.13
		c-1.69,0.62-7.75,3.14-7.67,5.39c0.08,2.25,7.6,7.01,13.26,7.35s12.48,2.31,17.26-5.2c3.66-5.76,5.36-12.55,4.85-19.36
		c-0.2-5.07-3.85-11.67-3.97-14.48c-0.12-2.8,6.32-39.14,6.22-55.49c-0.1-16.35-6-36.94-6-36.94L849.08,616.88z"/>
	<path class="st5" d="M871.19,717.99c-3.85,2.74-6.99,6.35-9.17,10.54c-1.33,5.07-2.84,11.52-4.02,11.96
		c-1.69,0.64-6.96-0.73-7.67,5.39c-1.03,8.9,7.6,7.01,13.26,7.35c5.66,0.34,12.48,2.31,17.26-5.2c3.66-5.76,5.36-12.55,4.85-19.36
		c-0.15-3.78-2.23-8.45-3.38-11.72C882.05,716.57,878.49,712.87,871.19,717.99z"/>
	<path class="st4" d="M863.59,753.22c5.64,0.34,12.48,2.31,17.26-5.2c3.66-5.76,5.36-12.55,4.85-19.36
		c-0.19-2.21-0.67-4.38-1.45-6.45c-1.64-0.17-3.3-0.1-4.92,0.22c-4.56,0.91-8.68,3.19-12.79,11.4s-2.74,14.61-8.67,15.07
		c-5.93,0.46-7.55-3.02-7.55-3.02C849.3,754.77,858,752.88,863.59,753.22z"/>
	<path class="st4" d="M885.02,730.57c0,0-2.38-6.54-9.7-1.11s-6.94,15.37-9.51,19.1c-1.29,1.79-3,3.24-4.98,4.22
		c0.89,0.24,1.8,0.39,2.72,0.46c5.64,0.34,12.48,2.31,17.26-5.2c3.38-5.27,5.08-11.44,4.88-17.7L885.02,730.57z"/>
	<path class="st5" d="M837.95,536.19l-19.68,71.23c0,0,40.54,27.11,85.43,22.48s75.69-37.43,75.69-37.43l-28.97-61.38
		c0,0-14.19,11.28-51.97,10.56C860.67,540.92,837.95,536.19,837.95,536.19z"/>
	<path class="st4" d="M841.49,512.37l-6.57,32.95c0,0,14.63,13.51,49.51,12.09s69.02-21.37,69.02-21.37l-10.89-32.82
		C942.55,503.23,882.02,525.39,841.49,512.37z"/>
	<path class="st5" d="M904.24,531.61c22.55-3.8,35.81-8.99,43.38-13.09l-5.07-15.2c0,0-60.54,22.16-101.06,9.14l-2.43,12.23
		C847.37,528.69,870.11,537.37,904.24,531.61z"/>
	<path class="st4" d="M841.98,414.86c0,0-11.82,36.89-28.63,63.32c-10.1,15.94-21.7,30.89-34.64,44.63c0,0-12.13,0.95-16.89-1.69
		c-4.76-2.63-8.72,4.58-10.02,6.96c-1.3,2.38-3.85,9.05-1.93,10.39s8.31,8.56,10.05,5.22c1.74-3.34-3.04-5.51-3.04-5.51
		s15.59,3.75,22.46-0.44c28.39-17.23,44.07-35.07,50.67-44.24c6.6-9.17,13.21-19.42,13.21-19.42s-4.29,28.41-5.95,34.09
		s-2.94,9.58-2.94,9.58s25.02,16.32,68.73,8.94c43.71-7.38,52.6-19.91,52.6-19.91s-13.51-32.7-17.41-48.48
		c-3.9-15.78-5.86-29.27-5.86-29.27s-1.35-33.66,0.59-43.58c1.94-9.92,11.4-30.89,11.13-37.45s-37.65-50.93-37.65-50.93
		s3.7-12.8,3.56-16.54c-0.14-3.73-4.56-8.24-7.52-11.82s-6.32-5.83-9.58-5.24c-3.26,0.59-4.76-2.15-6.96,1.69s-4.31,9.07-6.93,13.85
		c-2.62,4.78,4.95,6.76,6.96,10.03c2.01,3.28,9.44,13.66,10.13,17.38c0.69,3.72,18.58,65.76,18.58,65.76L841.98,414.86z"/>
	<path class="st2" d="M955.74,506.75c0,0-13.51-32.7-17.41-48.48c-3.9-15.78-5.86-29.27-5.86-29.27s-1.35-33.66,0.59-43.58
		c1.94-9.92,11.4-30.89,11.13-37.45c-0.15-3.63-11.82-19.04-22.13-31.96c-7.73,2.31-14.58,6.89-19.66,13.16
		c5.41,19.02,12.31,42.94,12.31,42.94l-72.73,42.75c0,0-11.82,36.89-28.63,63.32c-4.32,6.84-8.73,13.12-12.89,18.7
		c1.58,4.9,4.65,9.19,8.78,12.26c1.54,1.11,2.92,2.09,4.19,2.96c6.09-5.67,11.65-11.89,16.6-18.58
		c6.66-9.15,13.21-19.42,13.21-19.42s-4.29,28.41-5.95,34.09c-1.66,5.68-2.96,9.56-2.96,9.56s25.02,16.32,68.73,8.94
		C946.79,519.3,955.74,506.75,955.74,506.75z"/>
	<path class="st4" d="M887.51,266.76l3.38,12.8c0.45,1.67,2.18,2.67,3.85,2.21c0.12-0.03,0.24-0.07,0.35-0.12l0,0
		c1.62-0.62,2.43-2.44,1.8-4.06c-0.03-0.09-0.07-0.18-0.12-0.26l-6.1-12.09C890.68,265.24,887.39,263.96,887.51,266.76z"/>
	<path class="st5" d="M866.05,303.36c0,0-10.49-4.73-23.46,10.3s-14.04,35.22-9.36,46.74c4.68,11.52,2.62,30.4-2.79,35.71
		c-5.41,5.3-15.74,16.1-8.95,21.96c6.79,5.86,17.01,3.53,17.01,3.53s-12.31,19.69,5.07,32.09c17.38,12.4,25.05-5.2,25.05-5.2
		s10.86,37.03,34.36,27.18s12.65-34.69,12.65-34.69s18.95,5.83,23.44-8.95c4.49-14.78-2.26-21.45-2.26-21.45s14.91-2.01,11.47-17.8
		c-3.45-15.79-15.81-20.44-22.16-26.74s-13.51-11.62-19.04-30.61c-5.52-18.99-10.24-23.01-10.24-23.01s8.77-3.16,4.34-8.6
		C896.76,298.38,878.05,286.94,866.05,303.36z"/>
</g>
<g id="freepik--character-1--inject-7">
	<path class="st4" d="M538.52,596.42c0,0-7.58,16.52-5.79,34.85s4.46,70.6,4.46,82.23c0,11.62-2.23,24.14-2.23,28.6
		c0.23,3.92,0.83,7.81,1.79,11.62h60.32c0,0,2.69-4.92,2.69-6.76c0-1.84-4.48-7.14-7.6-8.45c-3.12-1.3-16.98-8.45-20.56-13.39
		s-5.81-8.06-5.81-13.85c0-5.79,17.43-61.67,17.89-83.58c0.46-21.91,1.69-36.64,1.69-36.64L538.52,596.42z"/>
	<path class="st2" d="M592.15,738.51c-3.12-1.33-16.98-8.45-20.56-13.39c-3.04-4.19-5.07-7.09-5.64-11.47
		c-2.99-1.15-6.38-0.1-8.21,2.53c-1.92,2.59-3.71,5.27-5.35,8.04l-15.42-3.95c-0.56,9.39-2.01,18.23-2.01,21.82
		c0.23,3.92,0.83,7.81,1.79,11.62h60.32c0,0,2.69-4.92,2.69-6.76S595.27,739.86,592.15,738.51z"/>
	<path class="st4" d="M535.63,748.36c0.51,2.91,1.11,5.35,1.11,5.35h60.32c0.94-1.72,1.75-3.51,2.42-5.35H535.63z"/>
	<path class="st4" d="M477.31,579.43c1.58,5.52,2.19,11.27,1.79,16.99c-0.46,10.73-7.14,29.04-1.79,50.05
		c5.35,21.01,15.2,49.59,18.77,65.69s-0.9,25.47-0.44,32.62c0.46,7.14,3.56,8.94,3.56,8.94h43.36c1.78-2.1,2.44-4.93,1.77-7.6
		c-1.33-4.02-10.73-12.06-14.29-20.56c-3.56-8.5-7.6-19.21-7.6-29.93c0-10.73,3.58-59.44,3.58-74.62v-26.82L477.31,579.43z"/>
	<path class="st2" d="M544.33,746.11c-1.33-4.02-10.73-12.06-14.29-20.56c-1.96-4.53-3.65-9.17-5.07-13.9
		c-3.4-0.54-6.88,0.28-9.68,2.28c-10.29,6.76-9.39,10.73-9.39,10.73l-8.45-2.74c0.51,10.37-2.11,17.3-1.69,22.85
		c0.44,7.14,3.56,8.94,3.56,8.94h43.36C544.43,751.59,545.04,748.76,544.33,746.11z"/>
	<path class="st4" d="M496.16,748.36c1.01,4.19,3.04,5.35,3.04,5.35h43.36c1.24-1.52,1.98-3.39,2.11-5.35H496.16z"/>
	<path class="st5" d="M471.19,382.61c0,0-16.05,30.4-17.74,66.72s10.98,133.44,10.98,133.44s34.63,18.58,70.94,18.58
		c22.47-0.16,44.75-4.15,65.87-11.82c0,0,13.51-108.95,13.51-144.42c0.11-20.95-5.12-41.59-15.2-59.96
		C599.56,385.15,524.4,388.53,471.19,382.61z"/>
	<path class="st4" d="M529.18,223.84l-23.65,20.27l-6.18,140.75c0,0,29.27,13.51,59.68,12.96c30.4-0.56,41.67-8.45,41.67-8.45
		s-9.58-124.44-9.58-127.81s-14.64-27.58-14.64-27.58S550.02,212.57,529.18,223.84z"/>
	<path class="st2" d="M592.93,242.22c0,0,15.93,5.69,19.31,20.05c3.38,14.36,33.36,81.5,34.2,90.37s2.53,11.4-2.96,16.05
		c-5.49,4.65-23.65,1.27-27.87-3.8c-4.22-5.07-8.02-7.18-9.71-19.42s-9.29-89.94-9.29-89.94S589.13,241.79,592.93,242.22z"/>
	<path class="st4" d="M534.11,180.77c0,0-1.27,25.34-1.27,35.47s-8.02,12.25-13.94,14.78s-2.96,24.91,7.18,39.69
		c10.13,14.78,27.87,22.38,41.81,15.2c13.94-7.18,10.98-32.09,8.45-40.12c-2.53-8.02-5.49-12.67-5.49-18.16
		c0.26-4.32,1.11-8.58,2.53-12.67L534.11,180.77z"/>
	<path class="st5" d="M570.85,227.64c0.26-4.32,1.11-8.58,2.53-12.67l-39.27-34.2c0,0-0.27,5.39-0.56,12.18
		c5.66,13.51,17.67,34.98,37.77,38.53C571.01,230.22,570.85,228.93,570.85,227.64z"/>
	<path class="st4" d="M610.88,155.57c0,0-2.5,20-3.92,29.29c-1.4,9.71-4.94,18.98-10.35,27.16c-6.42,10.35-14.27,13.21-21.77,12.5
		c-7.5-0.71-19.29-9.64-24.64-15.71s-16.42-21.42-16.42-26.42c0-5,0.71-20,6.76-28.56c6.05-8.56,30.4-12.85,40.34-15.35
		C590.8,135.97,610.88,155.57,610.88,155.57z"/>
	<path class="st3" d="M588.87,199.35c0,0-9.02,4.22-19.42-4.51"/>
	<path class="st3" d="M572.67,166.53c0,0,7.79-3.75,15.2-1.69"/>
	<path class="st3" d="M601.25,164.81c0,0,3.38-1.69,6.93,2.01"/>
	<path class="st9" d="M564.09,168.77l1.32,10.86c0.26,2.16,2.1,3.78,4.27,3.78h13.36c1.71,0,3.26-1.02,3.95-2.58l4.93-11.33
		L564.09,168.77z"/>
	<path class="st9" d="M599.46,169.15l1.32,10.84c0.27,2.16,2.1,3.78,4.27,3.78l6.52-0.27c1.72,0.01,3.27-1.01,3.95-2.58l4.95-11.33
		L599.46,169.15z"/>
	<line class="st9" x1="591.96" y1="169.5" x2="599.46" y2="169.15"/>
	<line class="st9" x1="564.13" y1="168.77" x2="536.9" y2="170.28"/>
	<ellipse class="st6" cx="581.76" cy="176.05" rx="2.16" ry="4.04"/>
	<path class="st6" d="M605.27,175.77c0,2.06-0.84,3.75-1.87,3.75c-1.03,0-1.87-1.69-1.87-3.75c0-2.06,0.84-3.75,1.87-3.75
		C604.43,172.02,605.27,173.69,605.27,175.77z"/>
	<path class="st3" d="M597.77,172.54c-0.53,2.81-0.7,5.68-0.51,8.53c0.51,3.02,5.52,4.53,4.53,8.04c-1,3.51-5.52,6.54-11.55,3.01"/>
	<path class="st5" d="M539.84,173.42c6.39-2.4,12.6-5.26,18.58-8.56c5.79-3.21,11.29-6.91,16.43-11.06c0,0-11.06,8.21,0.71,8.21
		s47.13-4.29,55.33-17.85c8.21-13.56-29.29-36.42-54.29-41.42c-25-5-53.54,10-60.33,31.42c-6.79,21.42-2.13,50.67,3.58,58.19
		c5.71,7.52,18.92,2.5,18.92,2.5s-3.21-0.71-3.21-9.27C535.56,177,539.84,173.42,539.84,173.42z"/>
	<path class="st4" d="M544.48,179.5c0,0-3.56-12.14-10.35-13.21c-6.79-1.06-8.92,12.48-2.5,19.63s11.82,2.85,11.82,2.85"/>
	<path class="st2" d="M532.84,216.24c0,0,7.6,83.19,10.56,126.26s-6.76,103.46-6.76,103.46s-25.76-0.42-48.56-7.6
		c-13.99-4.47-27.23-11.02-39.27-19.42l22.8-61.65l4.22-108.52c0,0,20.27-7.6,27.45-10.98C510.46,234.4,526.93,222.99,532.84,216.24
		z"/>
	<path class="st2" d="M543.93,355.07c-0.08-4.31-0.25-8.45-0.52-12.57c-2.96-43.07-10.56-126.26-10.56-126.26
		c-3.87,4.02-8.11,7.65-12.69,10.84c-1.49,9.93-4.31,31.77-3.38,49.12c1.27,23.23,16.47,54.47,21.54,65.87
		C540.68,347.35,542.56,351.79,543.93,355.07z"/>
	<path class="st2" d="M570.85,227.64c0,0,3.38,57.85,5.07,96.28s2.11,117.39,2.11,117.39s6.33-1.27,20.69-11.82
		c14.36-10.56,24.91-20.27,24.91-20.27l-10.98-37.58c0,0,1.59-48.36-0.2-61.33c-2.11-15.2-8.24-57.75-13.31-63.24
		C594.07,241.57,570.85,227.64,570.85,227.64z"/>
	<path class="st2" d="M586.05,277.47c0-28.29-5.49-43.49-5.49-43.49l0.12-0.24c-5.41-3.38-9.83-6.1-9.83-6.1s3.38,57.85,5.07,96.28
		c0.27,6.25,0.52,13.6,0.73,21.49C578.28,338.21,586.05,302.79,586.05,277.47z"/>
	<path class="st2" d="M618.47,357.73c0,0-46.35,41.65-53.53,45.03c-7.2,3.04-14.7,5.3-22.38,6.76c-2.96,0.42-11.4,4.65-14.78,8.02
		c-3.38,3.38-9.29,10.13-8.87,12.67c0.42,2.53,4.22,1.27,5.91-0.42c1.69-1.69,3.38-4.22,4.65-4.65c1.27-0.42,5.49-1.69,5.49-1.69
		s-15.62,11.82-16.47,15.62c-0.84,3.8,12.67,5.49,16.05,5.49c3.38,0,15.62-5.07,17.74-8.02c3.95-5.29,8.18-10.36,12.67-15.2
		c3.38-3.38,37.58-13.51,49.41-19c11.82-5.49,35.37-25.61,35.79-33.21c0.06-5.63-1.46-11.17-4.39-15.98"/>
	<path class="st4" d="M542.56,409.52c-2.96,0.42-11.4,4.65-14.78,8.02c-3.38,3.38-9.29,10.13-8.87,12.67
		c0.42,2.53,4.22,1.27,5.91-0.42c1.69-1.69,3.38-4.22,4.65-4.65c1.27-0.42,5.49-1.69,5.49-1.69s-15.62,11.82-16.47,15.62
		c-0.84,3.8,12.67,5.49,16.05,5.49c3.38,0,15.62-5.07,17.74-8.02c3.95-5.29,8.18-10.36,12.67-15.2
		c2.77-2.79,26.33-10.13,41.21-15.69c-3.83-13.51-11.3-18.16-17.11-19.71c-10.59,7.89-20.94,15.34-24.1,16.89
		C557.73,405.85,550.23,408.09,542.56,409.52z"/>
	<path class="st3" d="M520.89,441.28c0,0,5.81-3.38,10.52-6.1c3.22-1.96,6.28-4.18,9.14-6.64"/>
	<path class="st3" d="M527.25,443.22c0,0,7.48-3.6,11.35-5.54c2.48-1.31,4.72-3.02,6.64-5.07"/>
	<path class="st3" d="M535.83,443.78c4.81-1.93,9.15-4.86,12.74-8.6"/>
	<path class="st2" d="M485.74,244.85c0,0-13.94,2.53-17.31,6.33c-3.38,3.8-29.24,130.52-28.06,131.75
		c14.37,14.73,104.72,32.94,104.72,32.94s5.91,8.02,8.45,10.56s10.56,10.56,13.51,9.29c2.7-1.42,5.25-3.12,7.6-5.07
		c2.35-0.55,4.62-1.4,6.76-2.53c1.69-1.27,4.65-5.49,3.38-7.6c-1.27-2.11-6.76-11.82-10.98-13.94c-4.22-2.11-21.96-8.02-21.96-8.02
		l-65.66-35.67c-1.64-0.88-2.5-2.74-2.11-4.56l9.68-74.19"/>
	<path class="st4" d="M581.41,428.1c1.69-1.27,4.65-5.49,3.38-7.6c-1.27-2.11-6.76-11.82-10.98-13.94
		c-4.22-2.11-21.96-8.02-21.96-8.02l-46.52-25.34c-4.41,4.95-12.47,17.75-11.94,30.15c17,5.07,34.26,9.22,51.7,12.43
		c0,0,5.91,8.02,8.45,10.56c2.53,2.53,10.56,10.56,13.51,9.29c2.7-1.42,5.25-3.12,7.6-5.07C577,430.04,579.27,429.21,581.41,428.1z"
		/>
</g>
<g id="freepik--Floor--inject-7">
	<line class="st3" x1="1094.96" y1="767.32" x2="1112.23" y2="767.32"/>
	<line class="st3" x1="315.97" y1="767.32" x2="1064.34" y2="767.32"/>
</g>
</svg>
