<?xml version="1.0" encoding="utf-8"?>
<!-- Generator: Adobe Illustrator 23.1.0, SVG Export Plug-In . SVG Version: 6.00 Build 0)  -->
<svg version="1.1" id="Layer_1" xmlns="http://www.w3.org/2000/svg" xmlns:xlink="http://www.w3.org/1999/xlink" x="0px" y="0px"
	 viewBox="0 0 1366 768" style="enable-background:new 0 0 1366 768;" xml:space="preserve">
<style type="text/css">
	.st0{fill:#EBEBEB;}
	.st1{fill:#F0F0F0;}
	.st2{fill:#E0E0E0;}
	.st3{fill:#E6E6E6;}
	.st4{fill:#F5F5F5;}
	.st5{fill:#407BFF;}
	.st6{opacity:0.7;fill:#FFFFFF;enable-background:new    ;}
	.st7{opacity:0.2;enable-background:new    ;}
	.st8{opacity:0.6;fill:#FFFFFF;enable-background:new    ;}
	.st9{opacity:0.4;enable-background:new    ;}
	.st10{fill:#FFFFFF;}
	.st11{fill:#263238;}
	.st12{opacity:0.2;fill:#FFFFFF;enable-background:new    ;}
	.st13{opacity:0.8;fill:#FFFFFF;enable-background:new    ;}
	.st14{opacity:0.2;}
	.st15{opacity:0.1;}
	.st16{opacity:0.3;fill:#FFFFFF;enable-background:new    ;}
	.st17{fill:#EBB376;}
	.st18{opacity:0.4;fill:#FFFFFF;enable-background:new    ;}
	.st19{fill:#DE5753;}
	.st20{fill:#E4897B;}
</style>
<g id="freepik--background-complete--inject-44">
	<rect x="168" y="673.39" class="st0" width="1028" height="0.51"/>
	<rect x="1024.9" y="706.47" class="st0" width="68.09" height="0.51"/>
	<rect x="831.12" y="712.07" class="st0" width="17.87" height="0.51"/>
	<rect x="983.39" y="687.39" class="st0" width="39.45" height="0.51"/>
	<rect x="275.86" y="690.85" class="st0" width="88.8" height="0.51"/>
	<rect x="382.98" y="690.85" class="st0" width="13.01" height="0.51"/>
	<rect x="438.3" y="699.52" class="st0" width="192.61" height="0.51"/>
	<path class="st0" d="M655.27,581.7H258.28c-6.48-0.01-11.72-5.26-11.72-11.74V11.9c0.06-6.44,5.28-11.63,11.72-11.64h396.99
		c6.48,0,11.74,5.26,11.74,11.74c0,0,0,0,0,0v557.96C667.01,576.44,661.76,581.7,655.27,581.7z M258.28,0.67
		c-6.19,0.01-11.21,5.03-11.21,11.23v558.06c0,6.19,5.01,11.21,11.21,11.23h396.99c6.2-0.01,11.21-5.03,11.23-11.23V11.9
		c-0.01-6.2-5.03-11.21-11.23-11.23H258.28z"/>
	<path class="st0" d="M1100.01,581.7H702.99c-6.48-0.01-11.73-5.26-11.74-11.74V11.9c0.07-6.44,5.3-11.63,11.74-11.64h397.01
		c6.43,0.02,11.64,5.21,11.7,11.64v558.06C1111.7,576.42,1106.47,581.67,1100.01,581.7z M702.99,0.67
		c-6.2,0.01-11.21,5.03-11.23,11.23v558.06c0.01,6.2,5.03,11.21,11.23,11.23h397.01c6.2-0.01,11.21-5.03,11.23-11.23V11.9
		c-0.01-6.2-5.03-11.21-11.23-11.23H702.99z"/>
	<rect x="724.68" y="263.3" class="st1" width="278.18" height="407.87"/>
	<rect x="734.51" y="276.15" class="st2" width="258.52" height="75.33"/>
	<rect x="978.35" y="288.35" class="st0" width="14.68" height="63.14"/>
	<rect x="907.34" y="288.35" class="st0" width="14.68" height="63.14"/>
	
		<rect x="797.04" y="311.76" transform="matrix(0.1699 -0.9855 0.9855 0.1699 373.3893 1081.465)" class="st0" width="63.14" height="14.68"/>
	<rect x="960.16" y="296.67" class="st0" width="14.68" height="54.81"/>
	<rect x="926.4" y="296.67" class="st0" width="14.68" height="54.81"/>
	<rect x="841.2" y="296.67" class="st0" width="14.68" height="54.81"/>
	
		<rect x="861.9" y="315.78" transform="matrix(0.217 -0.9762 0.9762 0.217 380.947 1121.1364)" class="st0" width="54.81" height="14.68"/>
	<rect x="947.45" y="285.22" class="st0" width="7.34" height="66.26"/>
	<rect x="860.11" y="285.22" class="st0" width="7.34" height="66.26"/>
	<rect x="734.51" y="363.41" class="st2" width="258.52" height="75.33"/>
	<rect x="734.51" y="375.6" class="st0" width="14.68" height="63.14"/>
	<rect x="805.52" y="375.6" class="st0" width="14.68" height="63.14"/>
	
		<rect x="891.63" y="374.78" transform="matrix(0.9855 -0.1699 0.1699 0.9855 -55.96 158.6094)" class="st0" width="14.68" height="63.14"/>
	<rect x="752.71" y="383.93" class="st0" width="14.68" height="54.81"/>
	<rect x="786.47" y="383.93" class="st0" width="14.68" height="54.81"/>
	<rect x="871.67" y="383.93" class="st0" width="14.68" height="54.81"/>
	
		<rect x="830.97" y="382.94" transform="matrix(0.9762 -0.217 0.217 0.9762 -69.0594 191.6449)" class="st0" width="14.68" height="54.81"/>
	<rect x="772.75" y="372.48" class="st0" width="7.34" height="66.26"/>
	<rect x="860.09" y="372.48" class="st0" width="7.34" height="66.26"/>
	<rect x="978.35" y="375.6" class="st0" width="14.68" height="63.14"/>
	<rect x="960.16" y="383.93" class="st0" width="14.68" height="54.81"/>
	<rect x="926.4" y="383.93" class="st0" width="14.68" height="54.81"/>
	<rect x="947.45" y="372.48" class="st0" width="7.34" height="66.26"/>
	<rect x="734.51" y="450.67" class="st2" width="258.52" height="75.33"/>
	<rect x="829.97" y="462.86" class="st0" width="14.68" height="63.14"/>
	
		<rect x="719.67" y="486.27" transform="matrix(0.1699 -0.9855 0.9855 0.1699 137.1981 1150.0867)" class="st0" width="63.14" height="14.68"/>
	<rect x="882.79" y="471.19" class="st0" width="14.68" height="54.81"/>
	<rect x="849.03" y="471.19" class="st0" width="14.68" height="54.81"/>
	<rect x="763.83" y="471.19" class="st0" width="14.68" height="54.81"/>
	
		<rect x="784.52" y="490.28" transform="matrix(0.217 -0.9762 0.9762 0.217 150.0144 1182.254)" class="st0" width="54.81" height="14.68"/>
	<rect x="870.08" y="459.73" class="st0" width="7.34" height="66.26"/>
	<rect x="782.74" y="459.73" class="st0" width="7.34" height="66.26"/>
	
		<rect x="888.64" y="486.27" transform="matrix(0.1699 -0.9855 0.9855 0.1699 277.4622 1316.6055)" class="st0" width="63.14" height="14.68"/>
	<rect x="932.79" y="471.19" class="st0" width="14.68" height="54.81"/>
	
		<rect x="953.5" y="490.29" transform="matrix(0.217 -0.9762 0.9762 0.217 282.3251 1347.2112)" class="st0" width="54.81" height="14.68"/>
	<rect x="951.69" y="459.73" class="st0" width="7.34" height="66.26"/>
	<rect x="1002.86" y="263.32" class="st2" width="47.99" height="408.92"/>
	<path class="st3" d="M382.69,175.51c0,0-2.41-15.87,9.17-26.07c11.58-10.2,10.57-16.24,7.26-17.02c-3.31-0.78-6.35,9.4-11.45,12.19
		c0,0-0.16-14.52,5.02-19.86c5.18-5.35,7.87-19.12,2.96-19.37s-5.43,8.22-6.46,14.15c-1.03,5.92-6.5,14.39-6.5,14.39
		s-1.07-12.99-4.42-18.34s5.57-17.58,2.06-22.92c-3.52-5.35-9.54,4.85-9.05,16.3s8.22,23.69,6.37,35.65c0,0-3.37-8.41-6.39-9.17
		c-3.02-0.76-6.17-6.33-8.22-8.39c-2.06-2.06-4.58,5.08,0,11.7c4.58,6.62,16.3,24.32,14.52,38.65L382.69,175.51z"/>
	<path class="st3" d="M389.62,168.3l3.78,23.81c1.06,6.59-3.43,12.79-10.03,13.85c-0.64,0.1-1.28,0.15-1.92,0.15h-4.11
		c-6.68,0.02-12.1-5.38-12.12-12.06c0-0.65,0.05-1.3,0.15-1.94l3.78-23.81H389.62z"/>
	<rect x="332.21" y="197.33" class="st2" width="268.18" height="13.78"/>
	<rect x="576.24" y="146.54" class="st0" width="11.82" height="50.78"/>
	<rect x="519.12" y="146.54" class="st0" width="11.82" height="50.78"/>
	
		<rect x="430.37" y="165.39" transform="matrix(0.1699 -0.9855 0.9855 0.1699 209.5321 591.3386)" class="st0" width="50.78" height="11.82"/>
	<rect x="561.6" y="153.22" class="st0" width="11.82" height="44.1"/>
	<rect x="534.44" y="153.22" class="st0" width="11.82" height="44.1"/>
	<rect x="465.89" y="153.22" class="st0" width="11.82" height="44.1"/>
	
		<rect x="482.55" y="168.58" transform="matrix(0.217 -0.9762 0.9762 0.217 224.7846 629.2167)" class="st0" width="44.1" height="11.82"/>
	<rect x="551.4" y="143.99" class="st0" width="5.9" height="53.31"/>
	<rect x="481.13" y="143.99" class="st0" width="5.9" height="53.31"/>
	<rect x="332.23" y="300.19" class="st2" width="268.18" height="13.78"/>
	<rect x="344.57" y="249.4" class="st0" width="11.82" height="50.78"/>
	<rect x="401.71" y="249.4" class="st0" width="11.82" height="50.78"/>
	
		<rect x="470.97" y="248.76" transform="matrix(0.9855 -0.1699 0.1699 0.9855 -39.6386 84.9898)" class="st0" width="11.82" height="50.78"/>
	<rect x="359.21" y="256.09" class="st0" width="11.82" height="44.1"/>
	<rect x="386.37" y="256.09" class="st0" width="11.82" height="44.1"/>
	<rect x="454.91" y="256.09" class="st0" width="11.82" height="44.1"/>
	
		<rect x="422.17" y="255.3" transform="matrix(0.9762 -0.217 0.217 0.9762 -49.9763 99.4774)" class="st0" width="11.82" height="44.1"/>
	<rect x="375.33" y="246.88" class="st0" width="5.9" height="53.31"/>
	<rect x="445.6" y="246.88" class="st0" width="5.9" height="53.31"/>
	<rect x="517.11" y="259.99" class="st0" width="57.57" height="39.74"/>
	<circle class="st2" cx="878.7" cy="134.99" r="40.15"/>
	<circle class="st1" cx="878.7" cy="134.99" r="34.15"/>
	<polyline class="st1" points="877.09,111.57 877.09,135.44 861.26,126.48 	"/>
	<path class="st2" d="M877.09,137.5c-0.35-0.01-0.7-0.1-1.01-0.27l-15.83-8.96c-0.99-0.56-1.34-1.81-0.78-2.8
		c0.55-0.99,1.81-1.35,2.8-0.79c0.01,0,0.01,0.01,0.02,0.01l12.75,7.22v-20.33c0-1.14,0.92-2.06,2.06-2.06s2.06,0.92,2.06,2.06
		v23.87C879.15,136.58,878.23,137.5,877.09,137.5z"/>
</g>
<g id="freepik--Shadow--inject-44">
	<ellipse id="freepik--path--inject-44" class="st4" cx="682" cy="742.97" rx="398.64" ry="23.27"/>
</g>
<g id="freepik--Test--inject-44">
	<rect x="627.5" y="149.69" class="st5" width="409.19" height="387.43"/>
	<rect x="627.5" y="149.69" class="st6" width="409.19" height="387.43"/>
	<rect x="627.5" y="149.69" class="st5" width="409.19" height="19.72"/>
	<rect x="1023.15" y="169.43" class="st7" width="13.53" height="368.07"/>
	<path class="st8" d="M1029.44,178.14h1.23c1.91,0,3.45,1.55,3.45,3.45v44.37c0,1.91-1.55,3.45-3.45,3.45h-1.23
		c-1.91,0-3.45-1.55-3.45-3.45V181.6C1025.99,179.69,1027.54,178.14,1029.44,178.14z"/>
	<path class="st7" d="M1014.21,423.79H635.9c-0.56-0.01-1.02-0.46-1.03-1.03c0-0.57,0.46-1.03,1.03-1.03h378.3
		c0.57,0,1.03,0.46,1.03,1.03C1015.24,423.33,1014.78,423.79,1014.21,423.79z"/>
	<path class="st7" d="M1014.21,335.39H635.9c-0.56-0.01-1.02-0.46-1.03-1.03c0-0.57,0.46-1.03,1.03-1.03h378.3
		c0.57,0,1.03,0.46,1.03,1.03S1014.78,335.39,1014.21,335.39z"/>
	<rect x="636.01" y="178.12" class="st5" width="378.22" height="57.84"/>
	<path class="st8" d="M1031.97,159.56c0,2.74-2.22,4.95-4.95,4.95c-2.74,0-4.95-2.22-4.95-4.95c0-2.74,2.22-4.95,4.95-4.95
		C1029.75,154.6,1031.97,156.82,1031.97,159.56L1031.97,159.56z"/>
	<path class="st8" d="M1014.5,159.56c0,2.74-2.22,4.95-4.95,4.95c-2.74,0-4.96-2.22-4.96-4.95c0-2.74,2.22-4.95,4.96-4.95
		C1012.28,154.6,1014.5,156.82,1014.5,159.56L1014.5,159.56z"/>
	<path class="st8" d="M997.02,159.56c0,2.74-2.22,4.95-4.95,4.95c-2.74,0-4.95-2.22-4.95-4.95c0-2.74,2.22-4.95,4.95-4.95
		S997.02,156.82,997.02,159.56L997.02,159.56z"/>
	<path class="st9" d="M652.21,274.69c-6.69,0-12.11-5.42-12.11-12.11c0-6.69,5.42-12.11,12.11-12.11c6.69,0,12.11,5.42,12.11,12.11
		l0,0C664.31,269.27,658.89,274.68,652.21,274.69z"/>
	<path class="st10" d="M653.69,257.98v9.19h-2.06v-7.48h-1.83v-1.71H653.69z"/>
	<path class="st9" d="M675.71,250.84h322.15c1.29,0,2.34,1.05,2.34,2.34v1.46c0,1.29-1.05,2.34-2.34,2.34H675.71
		c-1.29,0-2.34-1.05-2.34-2.34v-1.46C673.36,251.89,674.41,250.84,675.71,250.84z"/>
	<path class="st9" d="M675.71,266.82h322.15c1.29,0,2.34,1.05,2.34,2.34v1.46c0,1.29-1.05,2.34-2.34,2.34H675.71
		c-1.29,0-2.34-1.05-2.34-2.34v-1.46C673.36,267.87,674.41,266.82,675.71,266.82z"/>
	<path class="st9" d="M675.71,282.77h210.72c1.29,0,2.34,1.05,2.34,2.34v1.46c0,1.29-1.05,2.34-2.34,2.34H675.71
		c-1.29,0-2.34-1.05-2.34-2.34v-1.46C673.36,283.82,674.41,282.77,675.71,282.77z"/>
	<circle class="st7" cx="679" cy="313.41" r="5.61"/>
	<path class="st10" d="M682.86,313.41c0.01,2.15-1.72,3.89-3.87,3.91c-2.15,0.01-3.89-1.72-3.91-3.87
		c-0.01-2.15,1.72-3.89,3.87-3.91c0.01,0,0.03,0,0.04,0C681.13,309.54,682.86,311.27,682.86,313.41
		C682.86,313.41,682.86,313.41,682.86,313.41z"/>
	<path class="st9" d="M697.34,310.34h54.4c1.29,0,2.34,1.05,2.34,2.34v1.46c0,1.29-1.05,2.34-2.34,2.34h-54.4
		c-1.29,0-2.34-1.05-2.34-2.34v-1.46C694.99,311.39,696.04,310.34,697.34,310.34z"/>
	<path class="st7" d="M798.66,313.28c0,3.1-2.51,5.61-5.61,5.61c-3.1,0-5.61-2.51-5.61-5.61c0-3.1,2.51-5.61,5.61-5.61
		C796.14,307.67,798.66,310.18,798.66,313.28L798.66,313.28z"/>
	<path class="st5" d="M796.93,313.28c0.01,2.15-1.72,3.9-3.87,3.91c-2.15,0.01-3.9-1.72-3.91-3.87c-0.01-2.15,1.72-3.89,3.87-3.91
		c0.01,0,0.01,0,0.02,0C795.18,309.42,796.92,311.15,796.93,313.28z"/>
	<path class="st9" d="M811.4,310.22h54.42c1.29,0,2.34,1.05,2.34,2.34v1.46c0,1.29-1.05,2.34-2.34,2.34H811.4
		c-1.29,0-2.34-1.05-2.34-2.34v-1.46C809.06,311.27,810.11,310.22,811.4,310.22z"/>
	<path class="st7" d="M912.72,313.16c0,3.1-2.51,5.61-5.61,5.61c-3.1,0-5.61-2.51-5.61-5.61s2.51-5.61,5.61-5.61
		S912.72,310.06,912.72,313.16L912.72,313.16z"/>
	<path class="st10" d="M911,313.16c0,2.15-1.74,3.89-3.89,3.89s-3.89-1.74-3.89-3.89c0-2.15,1.74-3.89,3.89-3.89
		C909.26,309.28,911,311.02,911,313.16L911,313.16z"/>
	<path class="st9" d="M925.47,310.08h54.4c1.29,0,2.34,1.05,2.34,2.34v1.46c0,1.29-1.05,2.34-2.34,2.34h-54.4
		c-1.29,0-2.34-1.05-2.34-2.34v-1.46C923.13,311.13,924.18,310.08,925.47,310.08z"/>
	<circle class="st9" cx="652.21" cy="365.01" r="12.11"/>
	<path class="st10" d="M655.7,367.95v1.73h-6.93v-1.4l3.54-3.35c0.82-0.78,0.97-1.25,0.97-1.69s-0.49-1.15-1.48-1.15
		c-0.75-0.03-1.45,0.32-1.89,0.93l-1.54-1.01c0.85-1.14,2.22-1.78,3.64-1.71c2.06,0,3.41,1.05,3.41,2.71
		c-0.02,1.16-0.6,2.23-1.54,2.9l-2.06,2.06L655.7,367.95z"/>
	<path class="st9" d="M675.71,353.34h322.15c1.29,0,2.34,1.05,2.34,2.34v1.46c0,1.29-1.05,2.34-2.34,2.34H675.71
		c-1.29,0-2.34-1.05-2.34-2.34v-1.46C673.36,354.38,674.41,353.34,675.71,353.34z"/>
	<path class="st9" d="M675.71,369.29h61.23c1.29,0,2.34,1.05,2.34,2.34v1.46c0,1.29-1.05,2.34-2.34,2.34h-61.23
		c-1.29,0-2.34-1.05-2.34-2.34v-1.46C673.36,370.34,674.41,369.29,675.71,369.29z"/>
	<circle class="st7" cx="679" cy="399.68" r="5.61"/>
	<circle class="st10" cx="679" cy="399.68" r="3.89"/>
	<path class="st9" d="M697.34,396.61h54.4c1.29,0,2.34,1.05,2.34,2.34v1.46c0,1.29-1.05,2.34-2.34,2.34h-54.4
		c-1.29,0-2.34-1.05-2.34-2.34v-1.46C694.99,397.66,696.04,396.61,697.34,396.61z"/>
	<circle class="st7" cx="793.04" cy="399.55" r="5.61"/>
	<circle class="st10" cx="793.04" cy="399.55" r="3.89"/>
	<path class="st9" d="M811.4,396.47h54.42c1.29,0,2.34,1.05,2.34,2.34v1.46c0,1.29-1.05,2.34-2.34,2.34H811.4
		c-1.29,0-2.34-1.05-2.34-2.34v-1.46C809.06,397.52,810.11,396.47,811.4,396.47z"/>
	<path class="st7" d="M912.72,399.43c0,3.1-2.51,5.61-5.61,5.61c-3.1,0-5.61-2.51-5.61-5.61s2.51-5.61,5.61-5.61
		S912.72,396.33,912.72,399.43L912.72,399.43z"/>
	<path class="st5" d="M911,399.43c0,2.15-1.74,3.89-3.89,3.89s-3.89-1.74-3.89-3.89c0-2.15,1.74-3.89,3.89-3.89
		C909.26,395.55,911,397.28,911,399.43L911,399.43z"/>
	<path class="st9" d="M925.47,396.35h54.4c1.29,0,2.34,1.05,2.34,2.34v1.46c0,1.29-1.05,2.34-2.34,2.34h-54.4
		c-1.29,0-2.34-1.05-2.34-2.34v-1.46C923.13,397.4,924.18,396.35,925.47,396.35z"/>
	<path class="st9" d="M652.21,466.07c-6.69,0-12.11-5.42-12.11-12.11c0-6.69,5.42-12.11,12.11-12.11c6.69,0,12.11,5.42,12.11,12.11
		C664.32,460.64,658.9,466.07,652.21,466.07L652.21,466.07z"/>
	<path class="st10" d="M655.62,455.66c0,1.54-1.19,2.96-3.8,2.96c-1.24,0.03-2.46-0.31-3.5-0.99l0.82-1.62
		c0.76,0.54,1.68,0.82,2.61,0.82c1.07,0,1.73-0.43,1.73-1.17c0-0.74-0.51-1.13-1.73-1.13h-0.97v-1.4l1.89-2.06h-3.91v-1.71h6.5v1.38
		l-2.06,2.36C654.56,453.21,655.6,454.32,655.62,455.66z"/>
	<path class="st9" d="M675.71,442.2h322.15c1.29,0,2.34,1.05,2.34,2.34V446c0,1.29-1.05,2.34-2.34,2.34H675.71
		c-1.29,0-2.34-1.05-2.34-2.34v-1.46C673.36,443.25,674.41,442.2,675.71,442.2z"/>
	<path class="st9" d="M675.71,458.15h322.15c1.29,0,2.34,1.05,2.34,2.34v1.46c0,1.29-1.05,2.34-2.34,2.34H675.71
		c-1.29,0-2.34-1.05-2.34-2.34v-1.46C673.36,459.2,674.41,458.15,675.71,458.15z"/>
	<path class="st9" d="M675.71,474.13h161.38c1.29,0,2.34,1.05,2.34,2.34v1.46c0,1.29-1.05,2.34-2.34,2.34H675.71
		c-1.29,0-2.34-1.05-2.34-2.34v-1.46C673.36,475.17,674.41,474.13,675.71,474.13z"/>
	<path class="st9" d="M788.25,499.54h9.58c0.45,0,0.82,0.37,0.82,0.82v9.58c0,0.45-0.37,0.82-0.82,0.82h-9.58
		c-0.45,0-0.82-0.37-0.82-0.82v-9.58C787.43,499.91,787.8,499.54,788.25,499.54z"/>
	<rect x="788.79" y="500.89" class="st10" width="8.53" height="8.53"/>
	<path class="st9" d="M811.4,502.09h54.42c1.29,0,2.34,1.05,2.34,2.34v1.46c0,1.29-1.05,2.34-2.34,2.34H811.4
		c-1.29,0-2.34-1.05-2.34-2.34v-1.46C809.06,503.14,810.11,502.09,811.4,502.09z"/>
	<path class="st5" d="M792.59,507.62c-0.13,0-0.26-0.05-0.35-0.14l-2.06-1.93c-0.2-0.21-0.2-0.53,0-0.74
		c0.2-0.2,0.52-0.21,0.73-0.01c0,0,0.01,0.01,0.01,0.01l1.75,1.58l2.98-3.54c0.18-0.22,0.51-0.25,0.73-0.07
		c0.22,0.18,0.25,0.51,0.07,0.73l-3.43,3.93c-0.09,0.1-0.21,0.17-0.35,0.19H792.59z"/>
	<path class="st9" d="M902.32,499.41h9.58c0.45,0,0.82,0.37,0.82,0.82v9.58c0,0.45-0.37,0.82-0.82,0.82h-9.58
		c-0.45,0-0.82-0.37-0.82-0.82v-9.58C901.5,499.78,901.87,499.41,902.32,499.41z"/>
	<rect x="902.83" y="500.77" class="st10" width="8.53" height="8.53"/>
	<path class="st9" d="M925.47,501.94h54.4c1.29,0,2.34,1.05,2.34,2.34v1.46c0,1.29-1.05,2.34-2.34,2.34h-54.4
		c-1.29,0-2.34-1.05-2.34-2.34v-1.46C923.13,502.99,924.18,501.94,925.47,501.94z"/>
	<path class="st5" d="M906.66,507.49c-0.13-0.01-0.25-0.06-0.35-0.14l-2.06-1.95c-0.23-0.16-0.29-0.49-0.12-0.72
		c0.16-0.23,0.49-0.29,0.72-0.12c0.04,0.03,0.07,0.06,0.1,0.1l1.73,1.58l3-3.54c0.16-0.24,0.48-0.3,0.71-0.14
		c0.24,0.16,0.3,0.48,0.14,0.71c-0.02,0.03-0.05,0.06-0.07,0.09l-3.33,3.95c-0.1,0.1-0.23,0.17-0.37,0.19H906.66z"/>
	<path class="st9" d="M674.19,499.66h9.58c0.45,0,0.82,0.37,0.82,0.82v9.58c0,0.45-0.37,0.82-0.82,0.82h-9.58
		c-0.45,0-0.82-0.37-0.82-0.82v-9.58C673.36,500.03,673.73,499.66,674.19,499.66z"/>
	<rect x="674.72" y="501.02" class="st10" width="8.53" height="8.53"/>
	<path class="st9" d="M697.34,502.21h54.4c1.29,0,2.34,1.05,2.34,2.34v1.46c0,1.29-1.05,2.34-2.34,2.34h-54.4
		c-1.29,0-2.34-1.05-2.34-2.34v-1.46C694.99,503.26,696.04,502.21,697.34,502.21z"/>
	<path class="st10" d="M654.14,205.2c-0.25-4.34,3.07-8.06,7.41-8.31c4.34-0.25,8.06,3.07,8.31,7.41c0.25,4.34-3.07,8.06-7.41,8.31
		c-0.15,0.01-0.31,0.01-0.46,0.01c-4.09,0.24-7.6-2.89-7.84-6.98C654.15,205.5,654.14,205.35,654.14,205.2z M666.48,205.2
		c-0.05-2.49-2.1-4.47-4.58-4.42c-2.49,0.05-4.47,2.1-4.42,4.58c0.04,2.45,2.05,4.42,4.5,4.42c2.43,0.07,4.46-1.84,4.53-4.27
		c0-0.1,0-0.21,0-0.31H666.48z"/>
	<path class="st10" d="M683.4,206.06v6.31h-3.19v-5.82c0-1.79-0.82-2.61-2.24-2.61s-2.65,0.95-2.65,2.98v5.45h-3.19v-11.04h3.04v1.3
		c0.96-0.98,2.29-1.51,3.66-1.46c2.38-0.16,4.44,1.64,4.59,4.02C683.45,205.48,683.44,205.78,683.4,206.06z"/>
	<path class="st10" d="M686.3,197.16h3.19v15.21h-3.19V197.16z"/>
	<path class="st10" d="M692.07,198.03c0.01-1.01,0.85-1.82,1.86-1.8c0.07,0,0.13,0.01,0.2,0.01c0.98-0.15,1.89,0.52,2.04,1.5
		c0.01,0.07,0.02,0.15,0.02,0.23c-0.3,1.1-1.43,1.74-2.52,1.44c-0.7-0.19-1.25-0.74-1.44-1.44L692.07,198.03z M692.47,201.34h3.21
		v11.04h-3.21V201.34z"/>
	<path class="st10" d="M709.92,206.06v6.31h-3.25v-5.82c0-1.79-0.82-2.61-2.24-2.61s-2.63,0.95-2.63,2.98v5.45h-3.21v-11.04h3.06
		v1.3c0.95-0.98,2.27-1.51,3.64-1.46c2.39-0.18,4.47,1.61,4.65,4C709.97,205.47,709.96,205.77,709.92,206.06z"/>
	<path class="st10" d="M723.68,207.77h-8.35c0.35,1.42,1.69,2.36,3.15,2.2c1.03,0.04,2.03-0.34,2.78-1.05l1.71,1.83
		c-1.18,1.24-2.85,1.9-4.56,1.79c-3.15,0.31-5.96-2-6.26-5.15c-0.02-0.17-0.03-0.35-0.03-0.52c-0.04-3.11,2.45-5.66,5.57-5.7
		c0.11,0,0.22,0,0.34,0.01c3.02-0.15,5.58,2.17,5.74,5.19c0.01,0.18,0.01,0.37,0,0.55C723.74,207.15,723.7,207.5,723.68,207.77z
		 M715.29,205.9h5.43c-0.26-1.5-1.69-2.5-3.19-2.24C716.38,203.86,715.49,204.76,715.29,205.9z"/>
	<path class="st10" d="M734.86,200.72h-4.58v-2.69h12.5v2.69h-4.58v11.66h-3.33L734.86,200.72z"/>
	<path class="st10" d="M753.96,207.77h-8.35c0.35,1.42,1.69,2.36,3.15,2.2c1.03,0.04,2.03-0.34,2.78-1.05l1.71,1.83
		c-1.18,1.24-2.85,1.9-4.56,1.79c-3.15,0.31-5.96-2-6.26-5.15c-0.02-0.17-0.03-0.35-0.03-0.52c-0.04-3.11,2.45-5.66,5.57-5.7
		c0.1,0,0.21,0,0.31,0.01c3.02-0.16,5.59,2.15,5.76,5.17c0.01,0.19,0.01,0.38,0,0.57C753.96,207.15,753.96,207.5,753.96,207.77z
		 M745.57,205.9H751c-0.26-1.5-1.69-2.5-3.19-2.24C746.67,203.86,745.77,204.76,745.57,205.9z"/>
	<path class="st10" d="M755.07,211.35l1.07-2.28c1.17,0.68,2.49,1.04,3.84,1.05c1.48,0,2.06-0.39,2.06-0.99c0-1.81-6.68,0-6.68-4.38
		c0-2.06,1.89-3.58,5.12-3.58c1.47-0.03,2.92,0.3,4.24,0.97l-1.07,2.28c-0.96-0.55-2.06-0.84-3.17-0.82c-1.44,0-2.06,0.45-2.06,1.03
		c0,1.89,6.66,0,6.66,4.42c0,2.06-1.91,3.5-5.2,3.5C758.2,212.58,756.54,212.16,755.07,211.35z"/>
	<path class="st10" d="M774.15,211.84c-0.78,0.49-1.69,0.73-2.61,0.7c-1.98,0.28-3.81-1.09-4.09-3.07
		c-0.04-0.29-0.05-0.59-0.02-0.88v-4.54h-1.71v-2.47h1.71v-2.67h3.19v2.67h2.76v2.47h-2.76v4.5c-0.09,0.7,0.4,1.34,1.09,1.43
		c0.09,0.01,0.19,0.01,0.28,0.01c0.46,0.01,0.92-0.14,1.3-0.41L774.15,211.84z"/>
	<circle class="st10" cx="980.69" cy="207.27" r="16.3"/>
	<path class="st7" d="M995.13,199.69l-14.39,7.61v-16.3C986.77,191,992.31,194.35,995.13,199.69z"/>
</g>
<g id="freepik--Plant--inject-44">
	<path class="st11" d="M950.08,709.13c0,0,8.88-42-7.3-64.74s14.62-0.27,18.18,21.03c0,0,5.3-38.08-10.4-64.85
		c-15.71-26.77,13.67-4.81,16.18,22.8c0,0,4.81-33.97-2.41-53.07c-7.22-19.1,5.33-6.81,10.16,5.16s-1.5,41.59-1.5,41.59
		s12.58-54.79,24.51-50.43s-17.83,40.26-21.94,58.92c0,0,14.04-25.12,24.67-19.88c10.63,5.24-16.45,7.83-28.95,45.23l-4.34,17.56
		c0,0,12.93-24.8,21.38-16.96c8.45,7.83-25.06,21.32-32.9,58.9L950.08,709.13z"/>
	<path class="st11" d="M951.83,711.63c0,0,1.85-52.94,28.02-75.35s-17.43-4.67-28.02,19.78c0,0,4.98-47.19,31.74-74.59
		c26.77-27.41-14.95-9.81-26.15,22.49c0,0,4.36-42.11,18.69-62.81s-4.36-9.77-13.69,3.13c-9.33,12.89-10.59,50.17-10.59,50.17
		s1.23-69.37-14.39-67.68c-15.63,1.69,9.33,53.46,8.72,77.1c0,0-9.35-34.27-23.66-31.19c-14.31,3.08,17.43,14.39,21.18,62.87v22.35
		c0,0-8.1-33.55-20.56-26.73s23.66,33.02,21.79,80.35L951.83,711.63z"/>
	<path class="st12" d="M951.83,711.63c0,0,1.85-52.94,28.02-75.35s-17.43-4.67-28.02,19.78c0,0,4.98-47.19,31.74-74.59
		c26.77-27.41-14.95-9.81-26.15,22.49c0,0,4.36-42.11,18.69-62.81s-4.36-9.77-13.69,3.13c-9.33,12.89-10.59,50.17-10.59,50.17
		s1.23-69.37-14.39-67.68c-15.63,1.69,9.33,53.46,8.72,77.1c0,0-9.35-34.27-23.66-31.19c-14.31,3.08,17.43,14.39,21.18,62.87v22.35
		c0,0-8.1-33.55-20.56-26.73s23.66,33.02,21.79,80.35L951.83,711.63z"/>
	<path class="st5" d="M964.74,748.83h-31.7c-12.49,0-22.62-10.13-22.62-22.62l0,0v-4.26l0,0h76.91l0,0v4.26
		C987.34,738.69,977.22,748.82,964.74,748.83z"/>
	<path class="st5" d="M988.76,730.49h-79.73c-4.78,0-8.66-3.88-8.66-8.66v-6.74c0-4.78,3.88-8.66,8.66-8.66h79.73
		c4.78,0,8.66,3.88,8.66,8.66v6.74C997.41,726.61,993.54,730.49,988.76,730.49z"/>
	<path class="st12" d="M988.76,730.49h-79.73c-4.78,0-8.66-3.88-8.66-8.66v-6.74c0-4.78,3.88-8.66,8.66-8.66h79.73
		c4.78,0,8.66,3.88,8.66,8.66v6.74C997.41,726.61,993.54,730.49,988.76,730.49z"/>
</g>
<g id="freepik--Table--inject-44">
	<path class="st11" d="M521.04,459.71c-0.89,1.85-0.12,4.08,1.73,4.97c0.61,0.3,1.29,0.42,1.97,0.35h97.37
		c3.31-0.16,6.21-2.24,7.42-5.33l20.56-59.42c0.2-0.55,0.31-1.14,0.31-1.73c-0.01-2.01-1.65-3.63-3.66-3.62
		c-0.12,0-0.23,0.01-0.35,0.02h-97.31c-3.31,0.16-6.21,2.24-7.42,5.33L521.04,459.71z"/>
	<path class="st5" d="M622.85,462.06c1.62-0.08,3.05-1.1,3.64-2.61l20.56-59.42c0.09-0.24,0.13-0.49,0.12-0.74
		c0-0.82-0.6-1.34-1.54-1.34h-97.27c-1.62,0.08-3.05,1.1-3.64,2.61l-20.56,59.42c-0.21,0.49-0.18,1.05,0.1,1.5
		c0.31,0.4,0.81,0.62,1.32,0.58L622.85,462.06z"/>
	<path class="st13" d="M622.85,462.06c1.62-0.08,3.05-1.1,3.64-2.61l20.56-59.42c0.09-0.24,0.13-0.49,0.12-0.74
		c0-0.82-0.6-1.34-1.54-1.34h-97.27c-1.62,0.08-3.05,1.1-3.64,2.61l-20.56,59.42c-0.21,0.49-0.18,1.05,0.1,1.5
		c0.31,0.4,0.81,0.62,1.32,0.58L622.85,462.06z"/>
	<path class="st11" d="M479.36,460.64v2.73l19.29,4.95h123.01c1.9,0,3.43-1.54,3.43-3.43l0,0v-4.26L479.36,460.64z"/>
	<polygon class="st12" points="582.28,460.64 582.28,463.37 601.59,468.33 498.65,468.33 479.36,463.37 479.36,460.64 	"/>
	<g class="st14">
		<polygon class="st5" points="640.92,411.91 542.5,411.91 546.32,401.18 644.75,401.18 		"/>
	</g>
	<g class="st15">
		<path d="M635.99,425.73h-98.42c-0.29,0-0.43-0.23-0.33-0.53c0.11-0.3,0.38-0.5,0.7-0.53h98.44c0.27,0,0.41,0.25,0.31,0.53
			C636.58,425.5,636.31,425.71,635.99,425.73z"/>
	</g>
	<g class="st15">
		<path d="M630.6,440.8h-98.42c-0.29,0-0.43-0.25-0.33-0.53c0.12-0.3,0.4-0.51,0.72-0.53h98.42c0.29,0,0.43,0.23,0.33,0.53
			C631.2,440.56,630.92,440.77,630.6,440.8z"/>
	</g>
	<g class="st15">
		<path d="M625.23,455.87h-98.42c-0.29,0-0.43-0.25-0.33-0.53c0.1-0.31,0.38-0.53,0.7-0.56h98.42c0.29,0,0.43,0.25,0.33,0.56
			C625.82,455.63,625.55,455.84,625.23,455.87z"/>
	</g>
	<polygon class="st11" points="592.5,748.58 603.21,748.58 622.48,480.4 608.25,480.4 	"/>
	<polygon class="st12" points="592.48,748.58 603.21,748.58 621.53,493.72 622.48,480.83 608.25,480.83 607.49,493.72 	"/>
	<polygon class="st7" points="607.49,493.08 621.53,493.08 622.48,480.83 608.25,480.83 	"/>
	<polygon class="st11" points="513.82,748.58 524.53,748.58 526.28,480.4 512.07,480.4 	"/>
	<polygon class="st16" points="512.05,480.83 512.34,524.09 513.8,748.58 524.53,748.58 526.01,524.09 526.28,480.83 	"/>
	<polygon class="st7" points="512.05,480.83 512.34,524.58 526.01,524.58 526.28,480.83 	"/>
	<polygon class="st11" points="400,748.58 410.71,748.58 429.98,480.4 415.75,480.4 	"/>
	<polygon class="st16" points="400,748.58 410.71,748.58 429.05,493.72 429.98,480.83 415.75,480.83 414.99,493.72 	"/>
	<polygon class="st7" points="414.99,493.08 429.05,493.08 429.98,480.83 415.75,480.83 	"/>
	<polygon class="st11" points="715.14,748.58 725.85,748.58 710.11,480.4 695.88,480.4 	"/>
	<polygon class="st16" points="695.88,480.83 696.82,493.72 715.14,748.58 725.85,748.58 710.87,493.72 710.11,480.83 	"/>
	<polygon class="st7" points="710.11,480.83 695.88,480.83 696.82,493.08 710.87,493.08 	"/>
	<path class="st5" d="M716.93,487.12H408.9c-2.45,0-4.44-1.99-4.44-4.44l0,0v-8.98l0,0h316.95l0,0v8.98c0,2.45-1.99,4.44-4.44,4.44
		C716.96,487.12,716.95,487.12,716.93,487.12z"/>
	<rect x="404.48" y="473.67" class="st7" width="316.89" height="6.72"/>
	<path class="st5" d="M397.84,475.42h330.17c2.09,0,3.78-1.69,3.78-3.78l0,0c0-2.09-1.69-3.78-3.78-3.78H397.84
		c-2.09,0-3.78,1.69-3.78,3.78l0,0C394.06,473.73,395.75,475.42,397.84,475.42z"/>
	<path class="st11" d="M717.47,458.34c0.14,3.26-0.45,6.52-1.75,9.52h-75.23v-1.79h1.52v-15.54h-1.52v-1.79h75.23
		C717.01,451.77,717.6,455.04,717.47,458.34z"/>
	<path class="st12" d="M717.47,458.34c0.14,3.26-0.45,6.52-1.75,9.52h-75.23v-1.79h1.52v-15.54h-1.52v-1.79h75.23
		C717.01,451.77,717.6,455.04,717.47,458.34z"/>
	<path class="st7" d="M677.21,458.34c0.14,3.26-0.45,6.52-1.75,9.52h-34.95v-1.79h1.52v-15.54h-1.52v-1.79h34.95
		C676.75,451.77,677.35,455.04,677.21,458.34z"/>
	<path class="st13" d="M673.51,458.34c0.12,2.65-0.37,5.29-1.42,7.73h-30.08v-15.54h30.08
		C673.13,452.99,673.62,455.66,673.51,458.34z"/>
	<path class="st8" d="M705.21,458.34c0.14,3.26-0.45,6.52-1.75,9.52h-14c1.29-3,1.89-6.25,1.75-9.52c0.13-3.27-0.47-6.53-1.75-9.54
		h14C704.74,451.81,705.34,455.07,705.21,458.34z"/>
	<path class="st5" d="M724.17,439.28c0.14,3.26-0.45,6.52-1.75,9.52h-75.23v-1.79h1.52v-15.48h-1.52v-1.79h75.23
		C723.7,432.75,724.29,436.01,724.17,439.28z"/>
	<path class="st7" d="M683.91,439.28c0.14,3.26-0.45,6.52-1.75,9.52h-34.95v-1.79h1.52v-15.48h-1.52v-1.79h34.95
		C683.44,432.75,684.04,436.01,683.91,439.28z"/>
	<path class="st13" d="M680.21,439.28c0.12,2.65-0.37,5.29-1.42,7.73h-30.08v-15.48h30.08
		C679.83,433.97,680.31,436.62,680.21,439.28z"/>
	<path class="st7" d="M711.91,439.28c0.14,3.26-0.45,6.52-1.75,9.52h-14c1.29-3,1.89-6.25,1.75-9.52c0.12-3.27-0.47-6.53-1.75-9.54
		h14C711.44,432.75,712.04,436.01,711.91,439.28z"/>
</g>
<g id="freepik--Character--inject-44">
	<g id="freepik--group--inject-44">
		<polygon class="st17" points="471.77,702.73 465.15,733.37 449.47,733.1 456.03,702.73 		"/>
		<polygon class="st7" points="471.79,702.73 468.5,717.88 452.96,716.84 456.03,702.73 		"/>
		<path class="st5" d="M467.52,732.59h0.33c0,0,0.35,0.12,0.39,0.16c0.04,0.04,0,0,0,0c0.04,0.02,0.08,0.02,0.12,0
			c1.34,0.43,2.71,0.7,4.11,0.82c1.03,0.19,2.1-0.02,2.98-0.6c0.59-0.5,0.82-1.32,0.58-2.06c-0.06-0.48-0.35-0.89-0.78-1.11
			c-1.5-0.25-3.04,0.04-4.36,0.8c0.93-0.97,1.48-2.24,1.54-3.58c-0.12-0.65-0.66-1.14-1.32-1.19c-0.61-0.11-1.25,0.04-1.75,0.41
			c-1.64,1.42-1.91,5.86-1.91,6.17L467.52,732.59z M469.2,731.68l-0.31,0.19c-0.1-1.7,0.36-3.38,1.32-4.79
			c0.21-0.21,0.51-0.31,0.8-0.29h0.19c0.51,0,0.64,0.35,0.64,0.58C471.5,729.07,470.57,730.6,469.2,731.68z M469.43,732.46
			c1.89-1.05,4.58-2.18,5.59-1.73c0.21,0.1,0.35,0.31,0.37,0.53c0.12,0.46-0.02,0.95-0.35,1.3
			C474.34,733.22,472.29,733.18,469.43,732.46z"/>
		<path class="st11" d="M467.15,730.67l-17.58-1.09c-0.61-0.07-1.16,0.36-1.23,0.97c0,0,0,0.01,0,0.01l0,0l-1.73,13.88
			c-0.08,1.51,1.06,2.82,2.57,2.94c6.17,0.27,9.09,0.1,16.82,0.51c6.87,0.73,13.78,0.98,20.68,0.74c6.56-0.64,5.76-7.11,2.92-7.42
			c-6.7-0.76-15.58-5.7-19.8-9.44C469.06,731.13,468.13,730.74,467.15,730.67z"/>
		<polygon class="st17" points="563.62,702.73 557,733.37 541.29,733.1 547.87,702.73 		"/>
		<polygon class="st7" points="563.62,702.73 560.33,717.88 544.78,716.84 547.85,702.73 		"/>
		<path class="st5" d="M559.34,732.59h0.33c0,0,0.35,0.12,0.41,0.16c0.06,0.04,0,0,0,0c0.04,0.02,0.08,0.02,0.12,0
			c1.34,0.43,2.71,0.7,4.11,0.82c1.04,0.19,2.12-0.02,3-0.6c0.58-0.51,0.8-1.32,0.56-2.06c-0.05-0.48-0.34-0.9-0.78-1.11
			c-1.5-0.25-3.04,0.04-4.36,0.8c0.93-0.97,1.48-2.24,1.56-3.58c-0.13-0.65-0.68-1.13-1.34-1.19c-0.61-0.11-1.25,0.04-1.75,0.41
			c-1.64,1.42-1.91,5.86-1.91,6.17L559.34,732.59z M561.02,731.68l-0.31,0.19c-0.09-1.7,0.37-3.38,1.32-4.79
			c0.22-0.2,0.51-0.31,0.8-0.29h0.19c0.51,0,0.64,0.35,0.66,0.58C563.32,729.07,562.38,730.59,561.02,731.68z M561.25,732.46
			c1.89-1.05,4.58-2.18,5.59-1.73c0.21,0.1,0.35,0.31,0.37,0.53c0.12,0.46,0,0.95-0.33,1.3
			C566.08,733.22,564.03,733.18,561.25,732.46z"/>
		<path class="st11" d="M558.97,730.67l-17.58-1.09c-0.61-0.07-1.16,0.36-1.23,0.97c0,0,0,0.01,0,0.01l0,0l-1.73,13.88
			c-0.08,1.51,1.06,2.82,2.57,2.94c6.17,0.27,9.09,0.1,16.82,0.51c6.86,0.71,13.77,0.94,20.66,0.68c6.56-0.64,5.76-7.11,2.94-7.42
			c-6.72-0.76-15.61-5.7-19.8-9.44C560.88,731.09,559.94,730.72,558.97,730.67z"/>
		<path class="st5" d="M499.92,644.42c-5.98,23.04-13.62,45.62-22.86,67.56l-28.66-2.18c0,0,11.76-45.93,16.02-88
			c2.63-25.97,2.41-47.45-5.2-49.12c-4.79-1.07-15.98-1.03-30.33-0.7v-53.46c40.26,8.22,80.31,23.85,83.35,36.35
			C516.49,572.51,509.05,609.76,499.92,644.42z"/>
		<path class="st18" d="M499.92,644.42c-5.98,23.04-13.62,45.62-22.86,67.56l-28.66-2.18c0,0,11.76-45.93,16.02-88
			c2.63-25.97,2.41-47.45-5.2-49.12c-4.79-1.07-15.98-1.03-30.33-0.7v-53.46c40.26,8.22,80.31,23.85,83.35,36.35
			C516.49,572.51,509.05,609.76,499.92,644.42z"/>
		<path class="st7" d="M499.92,644.42c-10.69-6.78-23.21-14.74-35.51-22.62c2.63-25.97,2.41-47.45-5.2-49.12
			c-4.79-1.07-15.98-1.03-30.33-0.7v-53.46c40.26,8.22,80.31,23.85,83.35,36.35C516.49,572.51,509.05,609.76,499.92,644.42z"/>
		<path class="st5" d="M484.25,513.29l2.53-20.29l-82.03-13.51c0,0-26.83,53.27-13.69,79.22c12.03,23.89,140.24,9.66,159.98,13.96
			c19.74,4.3-10.9,137.11-10.9,137.11l28.78,2.2c0,0,44.29-119.49,35.18-157.08C600.09,538.52,532.49,516.81,484.25,513.29z"/>
		<path class="st8" d="M484.25,513.29l2.53-20.29l-82.03-13.51c0,0-26.83,53.27-13.69,79.22c12.03,23.89,140.24,9.66,159.98,13.96
			c19.74,4.3-10.9,137.11-10.9,137.11l28.78,2.2c0,0,44.29-119.49,35.18-157.08C600.09,538.52,532.49,516.81,484.25,513.29z"/>
		<path class="st11" d="M529.38,348.22c-0.7,1.21-0.62,2.59,0.19,3.04c0.8,0.45,2.06-0.16,2.69-1.4c0.64-1.23,0.62-2.57-0.16-3.04
			C531.32,346.35,530.14,347.04,529.38,348.22z"/>
		<path class="st11" d="M528.09,341.66c-0.17-0.08-0.31-0.21-0.41-0.37c-0.16-0.42,0.03-0.89,0.43-1.09
			c2.43-1.11,5.24-0.97,7.55,0.37c0.37,0.24,0.49,0.73,0.27,1.11l0,0c-0.26,0.37-0.77,0.47-1.15,0.23l0,0
			c-1.83-1.03-4.04-1.11-5.94-0.23C528.59,341.79,528.32,341.78,528.09,341.66z"/>
		<path class="st19" d="M530.53,346.65c-0.67,4.57-0.72,9.21-0.14,13.8c-2.39,0.23-4.75-0.6-6.48-2.26L530.53,346.65z"/>
		<path class="st20" d="M523.17,363.84c-0.49,0.6-0.99,1.17-1.52,1.71c-3,3.15-6.89,5.3-11.14,6.17c-1.08,0.22-2.17,0.37-3.27,0.43
			c-5.85,0.39-11.56-1.88-15.54-6.17c-1.77-1.93-3.13-4.2-4.01-6.66c-3.82-10.28,0-18.5,5.57-32.71
			c3.98-10.87,16.01-16.45,26.88-12.47c3.07,1.12,5.84,2.95,8.08,5.34C539.35,331.11,531.91,352.68,523.17,363.84z"/>
		<path class="st7" d="M510.51,371.67c-1.08,0.22-2.17,0.37-3.27,0.43c-5.85,0.39-11.56-1.88-15.54-6.17
			c1.38-1.39,2.94-2.6,4.63-3.6C501.84,364.04,506.77,367.27,510.51,371.67z"/>
		<path class="st20" d="M464.19,372.21c1.4,10.07,23.4,13.84,23.4,13.84s10.86,4.93,11.31,0.64c-4.5-5.2-5-9.75-3.43-13.71
			c1.03-2.41,2.53-4.58,4.42-6.39c1.01-1.04,2.09-2.03,3.21-2.96l-6.72-27.55C491.53,346.53,475,370.73,464.19,372.21z"/>
		<path class="st11" d="M526.96,311.58c0,0,4.71-0.6,8.22,8.22c3.04,7.38-4.11,8.98-3.8,16.84c0.31,7.85-6.85,12.19-6.85,12.19
			s-6.04,5.2-11.16,2.38c0,0-6.7,3.29-8.47,9.03c-1.77,5.74-12.15-4.63-21.51-3.04c0,0-6.31-5.92-5.86-20.27
			c0.36-6.23,1.89-12.34,4.5-18.01c2.51-6.06,7.35-10.86,13.43-13.32C506.23,300.78,524.96,304.4,526.96,311.58z"/>
		<path class="st20" d="M512.15,346.94c-0.64,2.88,0.03,5.9,1.85,8.22c2.28,2.49,5.94-0.68,7.44-5.04
			c1.27-3.89,1.73-9.97-1.62-10.65C516.47,338.8,512.87,342.75,512.15,346.94z"/>
		<path class="st5" d="M496.36,375.89c-6.06-5.35-13.53-8.84-21.53-10.03c-7.19-0.89-14.05,3.26-16.61,10.03l36.88,7.46
			L496.36,375.89z"/>
		<path class="st20" d="M490.09,453.73l15.03,2.24c3.42-1.07,6.93-1.82,10.49-2.24c3.87-0.33,7.75-0.33,11.62,0
			c0,0,6.74,2.55,6.74,9.13c0,0-15.87,4.26-21.96,1.71l-21.92-1.71V453.73z"/>
		<path class="st7" d="M490.09,453.73l15.03,2.24c3.42-1.07,6.93-1.82,10.49-2.24c3.87-0.33,7.75-0.33,11.62,0
			c0,0,6.74,2.55,6.74,9.13c0,0-15.87,4.26-21.96,1.71l-21.92-1.71V453.73z"/>
		<path class="st5" d="M514.52,380.62c-3.06,8.55-5.8,16.78-8.22,24.67c-1.56,4.89-2.98,9.68-4.28,14.39
			c-1.11,3.89-2.06,7.65-3.06,11.31c-0.45,1.75-0.9,3.5-1.34,5.22c-2.36,9.46-4.28,18.11-5.78,25.72
			c-2.5,11.97-4.35,24.07-5.55,36.25l-84.3-10.55c2.92-14.49,5.2-27.14,8.39-40.79c1.75-7.48,3.76-15.26,6.33-23.79
			c1.81-6.17,3.91-12.64,6.41-19.72c8.45-24.28,16.26-31,16.26-31C471.75,367.01,514.52,380.62,514.52,380.62z"/>
		<path class="st20" d="M542.56,455.29l15.03,2.26c3.42-1.08,6.93-1.84,10.49-2.26c3.87-0.32,7.75-0.32,11.62,0
			c0,0,6.81,2.55,6.81,9.07c0,0-15.87,4.26-21.98,1.71l-21.96-1.71V455.29z"/>
		<polygon class="st5" points="445.35,711.14 479.48,713.4 484.5,698.66 446.9,696.89 		"/>
		<polygon class="st12" points="445.35,711.14 479.48,713.4 484.5,698.66 446.9,696.89 		"/>
		<polygon class="st5" points="537.18,711.14 571.3,713.4 576.32,698.66 538.72,696.89 		"/>
		<polygon class="st12" points="537.18,711.14 571.3,713.4 576.32,698.66 538.72,696.89 		"/>
		<polygon points="401.73,488.72 439.74,493.72 440.98,488.11 402.9,482.58 		"/>
		<polygon points="444.14,488.15 443.67,493.72 478.81,498.55 478.81,493.04 		"/>
		<polygon points="480.98,493.35 480.98,498.55 486.08,499.23 486.08,494.19 		"/>
		<path class="st7" d="M506.27,405.29c-1.56,4.89-2.98,9.68-4.28,14.39c-1.11,3.89-2.06,7.65-3.06,11.31
			c-2.63-14.39,2.06-31.6,2.06-31.6L506.27,405.29z"/>
		<path class="st20" d="M511.97,385.47c6.87,1.38,10.42,49.08,11.95,55.39c1.34,5.51,33.68,16.69,33.68,16.69v7.75
			c0,0-35.77-2.45-44.18-5.9c-8.41-3.45-13.49-50.56-13.49-50.56L511.97,385.47z"/>
		<g class="st14">
			<path class="st10" d="M514.52,380.62c-3.06,8.55-5.8,16.78-8.22,24.67c-1.56,4.89-2.98,9.68-4.28,14.39
				c-1.11,3.89-2.06,7.65-3.06,11.31c-0.45,1.75-0.9,3.5-1.34,5.22c-2.36,9.46-4.28,18.11-5.78,25.72
				c-2.5,11.97-4.35,24.07-5.55,36.25l-84.3-10.55c2.92-14.49,5.2-27.14,8.39-40.79c1.75-7.48,3.76-15.26,6.33-23.79
				c1.81-6.17,3.91-12.64,6.41-19.72c8.45-24.28,16.26-31,16.26-31C471.75,367.01,514.52,380.62,514.52,380.62z"/>
		</g>
		<path class="st5" d="M514.52,380.62c6.29,2.06,9.4,43.18,9.4,43.18l-22.84,3.02l-4.73-16.9c0,0,1.89-7.98,4.61-16.35
			C504.9,381.44,514.52,380.62,514.52,380.62z"/>
	</g>
	<path class="st11" d="M367.16,741.57c0-4-3.24-7.24-7.24-7.24c-4,0-7.24,3.24-7.24,7.24c0,4,3.24,7.24,7.24,7.24
		c0.01,0,0.01,0,0.02,0c3.99,0,7.22-3.23,7.22-7.22C367.16,741.58,367.16,741.58,367.16,741.57z"/>
	<path class="st12" d="M367.16,741.57c0-4-3.24-7.24-7.24-7.24c-4,0-7.24,3.24-7.24,7.24c0,4,3.24,7.24,7.24,7.24
		c0.01,0,0.01,0,0.02,0c3.99,0,7.22-3.23,7.22-7.22C367.16,741.58,367.16,741.58,367.16,741.57z"/>
	<path class="st11" d="M541.12,741.57c0-4-3.24-7.24-7.24-7.24c-4,0-7.24,3.24-7.24,7.24c0,4,3.24,7.24,7.24,7.24l0,0
		c3.99,0.01,7.23-3.21,7.24-7.2C541.12,741.6,541.12,741.58,541.12,741.57z"/>
	<path class="st12" d="M541.12,741.57c0-4-3.24-7.24-7.24-7.24c-4,0-7.24,3.24-7.24,7.24c0,4,3.24,7.24,7.24,7.24l0,0
		c3.99,0.01,7.23-3.21,7.24-7.2C541.12,741.6,541.12,741.58,541.12,741.57z"/>
	<path class="st12" d="M363.55,741.57c0-2-1.62-3.62-3.62-3.62c-2,0-3.62,1.62-3.62,3.62c0,2,1.62,3.62,3.62,3.62
		c0.01,0,0.01,0,0.02,0c1.99,0,3.6-1.61,3.6-3.6C363.55,741.58,363.55,741.58,363.55,741.57z"/>
	<circle class="st12" cx="533.89" cy="741.57" r="3.62"/>
	<path class="st11" d="M452.9,709.87v-77.74h-11.97v77.74c-46.55,1.19-74.84,17.48-80.51,21.03c-0.66,0.42-1.05,1.15-1.05,1.93v6.46
		c0,1.26,1.02,2.28,2.28,2.28l0,0c0.85,0.03,1.64-0.42,2.06-1.15l2.76-4.85c24.12-7.69,49.22-11.84,74.53-12.34v12.79
		c0.01,1.63,1.33,2.94,2.96,2.94H450c1.63,0,2.95-1.31,2.96-2.94v-12.79c25.31,0.49,50.41,4.65,74.53,12.34l2.76,4.85
		c0.42,0.74,1.21,1.18,2.06,1.15l0,0c1.26,0,2.28-1.02,2.28-2.28v-6.46c0-0.78-0.39-1.51-1.05-1.93
		C527.8,727.34,499.45,711.06,452.9,709.87z"/>
	<path class="st7" d="M452.9,709.87v-77.74h-11.97v77.74c-46.55,1.19-74.84,17.48-80.51,21.03c-0.66,0.42-1.05,1.15-1.05,1.93v6.46
		c0,1.26,1.02,2.28,2.28,2.28l0,0c0.85,0.03,1.64-0.42,2.06-1.15l2.76-4.85c24.12-7.69,49.22-11.84,74.53-12.34v12.79
		c0.01,1.63,1.33,2.94,2.96,2.94H450c1.63,0,2.95-1.31,2.96-2.94v-12.79c25.31,0.49,50.41,4.65,74.53,12.34l2.76,4.85
		c0.42,0.74,1.21,1.18,2.06,1.15l0,0c1.26,0,2.28-1.02,2.28-2.28v-6.46c0-0.78-0.39-1.51-1.05-1.93
		C527.8,727.34,499.45,711.06,452.9,709.87z"/>
	<path class="st11" d="M444.57,734.35h4.69c0.87,0,1.58,0.71,1.58,1.58v11.29c0,0.87-0.71,1.58-1.58,1.58h-4.69
		c-0.87,0-1.58-0.71-1.58-1.58v-11.29C442.99,735.06,443.7,734.35,444.57,734.35z"/>
	<path class="st12" d="M444.57,734.35h4.69c0.87,0,1.58,0.71,1.58,1.58v11.29c0,0.87-0.71,1.58-1.58,1.58h-4.69
		c-0.87,0-1.58-0.71-1.58-1.58v-11.29C442.99,735.06,443.7,734.35,444.57,734.35z"/>
	<path class="st5" d="M368.56,555.6h156.73c8.98,0,16.26,7.28,16.26,16.26l0,0v9.83l0,0H352.28l0,0v-9.87
		C352.3,562.85,359.59,555.59,368.56,555.6z"/>
	<path class="st11" d="M419.78,491.01h104.2c4.54-0.14,8.34,3.42,8.48,7.96c0.02,0.78-0.06,1.56-0.26,2.32l-18.79,80.43h-4.3
		l15.87-70.56c1.01-4.49-1.81-8.94-6.29-9.95c-0.63-0.14-1.28-0.21-1.93-0.2h-94.84L419.78,491.01z"/>
	<path class="st11" d="M459.21,584.53v68.01c-0.01,2.18-1.77,3.94-3.95,3.95h-16.67c-2.17,0.01-3.94-1.74-3.95-3.91
		c0-0.01,0-0.03,0-0.04v-68.01H459.21z"/>
	<rect x="434.64" y="584.53" class="st7" width="24.59" height="28.25"/>
	<path class="st11" d="M546.72,577.52v8.22c0,2.27-1.84,4.11-4.11,4.11H351.4c-2.27,0-4.11-1.84-4.11-4.11v-8.22
		c0-2.27,1.84-4.11,4.11-4.11H542.6C544.87,573.41,546.72,575.25,546.72,577.52z"/>
	<path class="st11" d="M458.72,581.72h-111.6c0,0-35.45-58.97-35.45-156.4v-35.79c0-14.76,11.97-26.73,26.73-26.73l0,0h47.29
		c14.46-0.07,26.34,11.43,26.73,25.89C413.63,438.97,421.03,547.69,458.72,581.72z"/>
	<path class="st12" d="M434.17,581.72h-81.99c-3.17,0.01-6.08-1.75-7.55-4.56c-8.06-15.56-32.9-70.21-32.9-151.84v-35.79
		c0-14.76,11.97-26.73,26.73-26.73l0,0h40.89c14.44-0.01,26.27,11.45,26.73,25.89c1.23,44.84,7.26,136.4,35.4,179.67
		c2.68,3.86,1.73,9.16-2.13,11.85C437.84,581.26,436.02,581.79,434.17,581.72z"/>
	<path class="st7" d="M546.72,577.52v8.22c0,2.27-1.84,4.11-4.11,4.11h-85.74c-3.1-0.01-5.6-2.52-5.61-5.61v-5.2
		c0-3.1,2.51-5.61,5.61-5.61l0,0h85.71C544.85,573.42,546.7,575.25,546.72,577.52C546.72,577.52,546.72,577.52,546.72,577.52z"/>
</g>
</svg>
