<?xml version="1.0" encoding="utf-8"?>
<!-- Generator: Adobe Illustrator 23.1.0, SVG Export Plug-In . SVG Version: 6.00 Build 0)  -->
<svg version="1.1" id="Layer_1" xmlns="http://www.w3.org/2000/svg" xmlns:xlink="http://www.w3.org/1999/xlink" x="0px" y="0px"
	 viewBox="0 0 1366 768" style="enable-background:new 0 0 1366 768;" xml:space="preserve">
<style type="text/css">
	.st0{fill:#536514;}
	.st1{opacity:0.9;fill:#FFFFFF;enable-background:new    ;}
	.st2{fill:#F5F5F5;}
	.st3{opacity:0.4;fill:#FFFFFF;enable-background:new    ;}
	.st4{opacity:0.5;fill:#FFFFFF;enable-background:new    ;}
	.st5{opacity:0.6;fill:#FFFFFF;enable-background:new    ;}
	.st6{opacity:0.2;enable-background:new    ;}
	.st7{fill:#263238;}
	.st8{fill:#FFFFFF;}
	.st9{opacity:0.1;enable-background:new    ;}
	.st10{fill:none;stroke:#263238;stroke-width:0.5;stroke-linecap:round;stroke-linejoin:round;}
	.st11{fill:#EEC1BB;}
	.st12{fill:#D4827D;}
	.st13{fill:none;stroke:#263238;stroke-width:0.7247;stroke-linecap:round;stroke-linejoin:round;}
	.st14{fill:#DE5753;}
	.st15{fill:#B97964;}
	.st16{opacity:0.8;fill:#FFFFFF;enable-background:new    ;}
	.st17{fill:#A24E3F;}
	.st18{opacity:0.5;enable-background:new    ;}
	.st19{opacity:0.1;fill:#FFFFFF;enable-background:new    ;}
	.st20{opacity:0.4;enable-background:new    ;}
</style>
<g id="freepik--background-simple--inject-42">
	<path class="st0" d="M839.77,4.57c3.02-0.98,6.08-1.81,9.18-2.48c52.31-11.53,97.8,26.55,123.36,68.6
		c88.24,144.71,45.27,348.04-76.87,460.03C759.12,655.73,550.26,570.65,434.2,460.7c-7.66-7.26-15.07-14.78-22.13-22.59
		c-63.73-70.43-143.39-219.5-25.27-279.98c43.77-22.42,90.57-9.82,134.18,5.84c42.77,15.36,90.72,29.76,136.57,21.49
		c59.06-10.64,81.87-60.76,107.98-108.73C782.24,45.94,805.72,15.89,839.77,4.57z"/>
	<path class="st1" d="M839.77,4.57c3.02-0.98,6.08-1.81,9.18-2.48c52.31-11.53,97.8,26.55,123.36,68.6
		c88.24,144.71,45.27,348.04-76.87,460.03C759.12,655.73,550.26,570.65,434.2,460.7c-7.66-7.26-15.07-14.78-22.13-22.59
		c-63.73-70.43-143.39-219.5-25.27-279.98c43.77-22.42,90.57-9.82,134.18,5.84c42.77,15.36,90.72,29.76,136.57,21.49
		c59.06-10.64,81.87-60.76,107.98-108.73C782.24,45.94,805.72,15.89,839.77,4.57z"/>
</g>
<g id="freepik--Shadow--inject-42">
	<ellipse id="freepik--path--inject-42" class="st2" cx="679.97" cy="741.68" rx="429.03" ry="25.05"/>
</g>
<g id="freepik--Sofa--inject-42">
	<path class="st0" d="M372.4,260.6h486.19c38.74,0,70.14,31.4,70.14,70.14l0,0v278.81l0,0H302.34l0,0V330.75
		C302.34,292.04,333.69,260.65,372.4,260.6z"/>
	<path class="st3" d="M372.4,260.6h486.19c38.74,0,70.14,31.4,70.14,70.14l0,0v278.81l0,0H302.34l0,0V330.75
		C302.34,292.04,333.69,260.65,372.4,260.6z"/>
	<path class="st0" d="M970.44,467.32h63.93c23.02,0,41.69,18.66,41.69,41.69c0,0,0,0,0,0v230.66l0,0h-147.3l0,0V509.01
		C928.75,485.98,947.41,467.32,970.44,467.32z"/>
	<path class="st3" d="M970.44,467.32h63.93c23.02,0,41.69,18.66,41.69,41.69c0,0,0,0,0,0v230.66l0,0h-147.3l0,0V509.01
		C928.75,485.98,947.41,467.32,970.44,467.32z"/>
	<path class="st4" d="M1032.99,467.32h1.35c23.02-0.01,41.7,18.64,41.71,41.67c0,0.01,0,0.01,0,0.02v230.66l0,0H991.3l0,0V509.01
		C991.3,485.98,1009.97,467.32,1032.99,467.32z"/>
	<rect x="354.36" y="633.72" class="st0" width="619.11" height="105.95"/>
	<rect x="354.36" y="633.72" class="st3" width="619.11" height="105.95"/>
	<path class="st0" d="M372.51,536.82h601.67c23.4,0,42.37,18.97,42.37,42.37v26.42c0,23.4-18.97,42.37-42.37,42.37H372.51
		c-23.4,0-42.37-18.97-42.37-42.37v-26.42C330.13,555.79,349.11,536.82,372.51,536.82z"/>
	<path class="st5" d="M372.51,536.82h601.67c23.4,0,42.37,18.97,42.37,42.37v26.42c0,23.4-18.97,42.37-42.37,42.37H372.51
		c-23.4,0-42.37-18.97-42.37-42.37v-26.42C330.13,555.79,349.11,536.82,372.51,536.82z"/>
	<path class="st6" d="M373.28,536.82h58.64c23.4,0,42.37,18.97,42.37,42.37v26.42c0,23.4-18.97,42.37-42.37,42.37h-58.64
		c-23.4,0-42.37-18.97-42.37-42.37v-26.42C330.91,555.79,349.88,536.82,373.28,536.82z"/>
	<path class="st0" d="M303.05,467.32h63.93c23.02,0,41.69,18.66,41.69,41.69v230.66l0,0h-147.3l0,0V509.01
		C261.36,485.98,280.03,467.32,303.05,467.32z"/>
	<path class="st5" d="M303.05,467.32h63.93c23.02,0,41.69,18.66,41.69,41.69v230.66l0,0h-147.3l0,0V509.01
		C261.36,485.98,280.03,467.32,303.05,467.32z"/>
	<path class="st3" d="M365.6,467.32h1.35c23.02,0,41.69,18.66,41.69,41.69v230.66l0,0h-84.73l0,0V509.01
		C323.92,485.98,342.58,467.32,365.6,467.32z"/>
	<path class="st7" d="M869.93,246.55c0,0,22.84,1.15,42.55,30.47c19.72,29.32,22.5,58.26,13.28,60.3
		c-9.23,2.04-4.23-10.51-15.84-36.33s-31.82-38.9-36.93-38.9S869.93,246.55,869.93,246.55z"/>
	<path class="st8" d="M877.35,332.34c-2.1,3.32-8.74,0.58-8.74-22.95c0,0-18.81-17.99-19.91-32.37c0,0-40.18-5.66-49.17-3.98l0,0
		l0,0c0.22,1.11,2.66,13.72,0.53,20.53c-2.12,6.82-1.11,32.59-6.64,33.41c-5.53,0.82-4.78-32.08-4.31-36.38
		c0.02-1.5-0.19-2.99-0.62-4.43c-1.39-4.92-3.06-9.75-5.02-14.47c0,0-19.36-0.84-23.79,0c-3.85,0.71-27.81-7.63-33.97-9.82
		l-1.44-0.51l10.51-2.21l10.47-11.46l1.66-17.35l9.96,14.49c0,0,24.89-9.96,66.38-10.25c41.49-0.29,56.98,14.89,53.66,31.93
		c-3.32,17.04-6.64,30.98-3.32,36.78C876.9,309.11,879.43,329.02,877.35,332.34z"/>
	<path class="st9" d="M781.76,267.62c0,0,7.63,11.06,6.64,18.63c-1.39-4.92-3.06-9.75-5.02-14.47c0,0-19.36-0.84-23.79,0
		c-3.85,0.71-27.81-7.63-33.97-9.82l11.84,1.42v2.04c0,0,16.04,4.25,18.63,4.05c2.59-0.2,6.64-1.11,6.64-2.21
		c0-1.11,4.2-7.9,2.21-12.04C765.54,255.78,774.26,265.12,781.76,267.62z"/>
	<path class="st9" d="M856.81,262.64c-3.73,4.14-6.51,9.05-8.12,14.38c0,0-40.18-5.66-49.17-3.98c4.22-2.26,7.23-6.27,8.23-10.95
		c2.03,1.52,3.2,3.93,3.14,6.46l32.44-0.55C843.34,267.99,847.03,262.09,856.81,262.64z"/>
	<path class="st7" d="M763.32,252.86c0,0-3.7,7.94-10.71,4.62c-3.62-1.8-6.93-4.19-9.78-7.06l2.41-2.72l1.66-17.35l9.96,14.49
		L763.32,252.86z"/>
	<path class="st7" d="M840.84,235.67c-0.27,5.51-6.37,8.21-14.83,12.77c-9.23,4.98-13.1-2.01-15.87-7.37c-1-1.9-3.98-3.78-7.43-5.42
		c6.28-0.55,13.14-0.91,20.53-0.95C829.12,234.62,835,234.94,840.84,235.67z"/>
	<path class="st10" d="M747.08,262.09c0,0,0,3.03-4.25,3.32"/>
	<polygon class="st7" points="756.13,266.62 759.63,262.97 759.25,266.62 	"/>
</g>
<g id="freepik--character-2--inject-42">
	<path class="st11" d="M583.72,368.3l-10.51,72.47l-38.17,99.02c0,0,1.11,6.09-3.87,8.3s-37.62,2.77-40.94,0.55
		c-3.32-2.21,9.4-13.28,13.28-13.83c3.87-0.55,16.04,1.11,16.04,1.11s30.98-100.13,31.53-107.87c0.55-7.74,9.96-76.34,9.96-76.34
		L583.72,368.3z"/>
	<path class="st7" d="M654.52,246.97c0,0,7.01-22.13-5.16-29.52c-12.17-7.39-8.12-12.52-17.7-13.63
		c-9.58-1.11-15.49,7.74-23.23,4.78s-15.14,6.64-16.24,15.14c-1.11,8.5-10.31,10.69-14.74,14.01c-4.43,3.32,5.53,19.91-0.38,23.96
		c-5.91,4.05-9.23,4.07-8.12,10.33c0,0,7.74-1.84,10.33,2.21s5.53,10.69,15.87,7.74s11.42,4.43,15.84,7.74
		c4.43,3.32,18.81-2.94,23.23-2.59C638.66,287.51,654.52,246.97,654.52,246.97z"/>
	<path class="st11" d="M656.36,285.32c0,0,31.35-30.98,34.3-36.13c2.94-5.16,23.99-87.05,23.99-89.99s-5.18-11.06-4.43-14.76
		c0.75-3.7,7.74-16.22,11.79-14.74c4.05,1.48,14.38,6.26,15.11,10.69c0.73,4.43-8.85,19.91-8.85,19.91s-11.79,76.34-18.43,95.15
		s-39.1,61.23-39.1,61.23L656.36,285.32z"/>
	<polygon class="st7" points="635.34,296.01 671.12,269.45 686.61,305.96 667.42,347.28 	"/>
	<polygon class="st6" points="635.34,296.01 671.12,269.45 686.61,305.96 667.42,347.28 	"/>
	<polygon class="st8" points="667.8,269.1 672.23,265.4 690.3,304.86 685.13,312.98 	"/>
	<polygon class="st9" points="667.8,269.1 672.23,265.4 690.3,304.86 685.13,312.98 	"/>
	<polygon class="st0" points="591.46,419.59 591.46,430.3 664.48,424.7 664.48,412.04 	"/>
	<polygon class="st6" points="591.46,419.59 591.46,430.3 664.48,424.7 664.48,412.04 	"/>
	
		<rect x="613.46" y="415.23" transform="matrix(0.9987 -0.0509 0.0509 0.9987 -20.8241 31.8943)" class="st0" width="3.63" height="18.48"/>
	
		<rect x="632.84" y="415.31" transform="matrix(0.996 -0.0892 0.0892 0.996 -35.0478 58.8724)" class="st8" width="16.02" height="12.15"/>
	
		<rect x="658.1" y="410.31" transform="matrix(0.9987 -0.0509 0.0509 0.9987 -20.5154 34.1616)" class="st0" width="3.63" height="18.48"/>
	<polygon class="st11" points="940.76,512.92 940.08,527.88 919.15,529.39 899.94,530.74 897.86,512.86 920.58,512.88 	"/>
	<path class="st7" d="M938.97,530.93c-1.64-0.11,0.58-20.29,0.58-20.29s13.28-11.88,16.62-23.88c3.34-11.99,10.36-4.87,9.76,8.65
		s-1.08,23.85-1.53,33.46S956.05,532.2,938.97,530.93z"/>
	<path class="st0" d="M941.07,508.81h0.24c-0.2,0-4.71-1.99-5.73-4.8c-0.31-0.87-0.21-1.83,0.27-2.61c0.46-0.91,1.11-1.37,1.79-1.26
		c1.06,0.11,2.08,1.62,2.88,3.3c-0.18-1.51,0.07-3.04,0.71-4.43c0.32-0.52,0.84-0.89,1.44-1.02c0.78-0.32,1.69-0.09,2.21,0.58
		c1.59,2.21-1.84,8.85-2.52,10.11c0,0,0,0.2-0.15,0.2l0,0h-0.64L941.07,508.81z M936.85,502.48c-0.25,0.43-0.25,0.96,0,1.39
		c0.95,1.71,2.41,3.08,4.18,3.92c-1-3.05-2.43-5.64-3.36-5.64l0,0c-0.32-0.08-0.66,0.06-0.82,0.35V502.48z M942.89,498.94
		c-0.31,0.07-0.57,0.26-0.73,0.53c-0.91,1.44-0.55,4.93-0.15,7.21c1.39-2.92,2.68-6.64,1.95-7.57c0,0-0.18-0.24-0.6-0.24
		L942.89,498.94z"/>
	<polygon class="st6" points="921.03,512.9 919.57,529.41 900.16,530.76 897.97,512.86 	"/>
	<polygon class="st11" points="965.15,508.48 960.41,522.66 939.86,518.43 921.03,514.49 923.88,496.73 945.72,502.94 	"/>
	<path class="st7" d="M958.49,525.4c-1.55-0.55,6.09-19.38,6.09-19.38s15.98-7.83,22.5-18.43c6.53-10.6,11.29-1.86,7.01,11.06
		s-7.55,22.66-10.58,31.8C980.48,539.59,974.6,531.18,958.49,525.4z"/>
	<path class="st0" d="M967.05,504.76c-0.18-0.13-4.12-3.25-4.43-6.22c-0.08-0.91,0.25-1.8,0.89-2.46c0.71-0.75,1.39-1,2.06-0.73
		c0.97,0.4,1.55,2.1,1.86,3.94c0.23-1.54,0.89-2.98,1.9-4.16c0.44-0.41,1.03-0.63,1.64-0.6c0.81-0.05,1.57,0.41,1.9,1.15
		c0.95,2.46-4.16,7.94-5.2,9.01c-0.05,0.07-0.12,0.11-0.2,0.13h-0.18C967.21,504.82,967.13,504.8,967.05,504.76z M964.37,496.81
		c-0.42,0.45-0.64,1.05-0.6,1.66c0.49,1.84,1.55,3.47,3.03,4.67c-0.13-3.21-0.71-6.46-1.55-6.79h-0.11
		C964.88,496.33,964.57,496.61,964.37,496.81L964.37,496.81z M970.13,495.93c-1.26,1.13-1.86,4.58-2.1,6.9
		c2.21-2.43,4.43-5.6,3.94-6.75c0-0.11-0.15-0.42-0.97-0.46l0,0C970.67,495.6,970.36,495.71,970.13,495.93L970.13,495.93z"/>
	<polygon class="st6" points="946.16,503.08 940.26,518.54 921.2,514.56 923.97,496.77 	"/>
	<path class="st0" d="M633.77,531.18c51.71,0,109.42-31.31,134.98-40.52c3.32-1.45,6.87-2.31,10.49-2.54
		c11.22,0.53,94.2,19.72,133.38,28.9h0.18l20.22,4.78l6.64-23.85c0,0-149.45-77.65-170.09-73.53
		c-15.67,3.14-59.74,14.87-80.19,20.34l-10.53,2.83l-13.28-22.88l-73.02,5.6C592.54,430.3,572.63,531.18,633.77,531.18z"/>
	<path class="st0" d="M915.36,504.12l-5.86,28.5l-137.72-1.86c0,0-99.73,0.42-138.01,0.42c-38.28,0-2.21-68.84-2.21-68.84
		L915.36,504.12z"/>
	<path class="st6" d="M665.56,424.72l1.73,47.38l101.37,18.59l143.83,26.35l-153.23-50.89l-80.1,3.16
		c0.5-9.11,4.09-17.78,10.18-24.58l-10.53,2.83L665.56,424.72z"/>
	<path class="st7" d="M570.06,319.24c0,0,43.52-20.64,73.02-24.34s31.73,69.81,21.4,117.14l-73.02,7.55
		C591.46,419.59,563.42,331.79,570.06,319.24z"/>
	<path class="st1" d="M611,302.65c0,0-14.38,4.07-14.01,7.39c0.38,3.32,33.19,15.49,33.19,15.49S650.47,291.58,611,302.65z"/>
	<path class="st11" d="M601.99,308.49c0,0,5.42,7.7,23.41,10c0,0,8.85-5.86,5.13-12.99c0,0-3.89-1.22-4.74-7.41
		c-0.4-4.37,0.17-8.77,1.66-12.9c0.2-0.66,0.44-1.37,0.69-2.08l-22.75-14.23C605.4,268.88,613.41,297.71,601.99,308.49z"/>
	<path class="st6" d="M610.51,277.13c0,0,1.22,16.26,15.29,20.95c-0.4-4.37,0.17-8.77,1.66-12.9
		C619.16,280.89,610.51,277.13,610.51,277.13z"/>
	<path class="st11" d="M629.08,223.1c18.85,0.24,24.8,10.42,25.93,29.87c1.42,24.34-4.2,41.51-27.7,36
		C595.38,281.51,597.77,222.7,629.08,223.1z"/>
	<path class="st12" d="M642.84,251.75c1.48,2.84,3.29,5.49,5.4,7.9c-1.15,1.57-3.08,2.37-5,2.08L642.84,251.75z"/>
	<path class="st7" d="M631.29,250.07c0,1.55-0.82,2.81-1.86,2.83c-1.04,0.02-1.88-1.24-1.88-2.79c0-1.55,0.8-2.81,1.84-2.83
		C630.43,247.26,631.29,248.52,631.29,250.07z"/>
	<path class="st7" d="M629.08,247.37l3.36-1.37C632.44,246,630.71,248.85,629.08,247.37z"/>
	<path class="st7" d="M650.58,249.54c0,1.55-0.8,2.81-1.84,2.83c-1.04,0.02-1.88-1.24-1.9-2.79s0.82-2.81,1.84-2.83
		C649.7,246.73,650.56,247.99,650.58,249.54z"/>
	<path class="st7" d="M648.26,246.84l3.36-1.35C651.62,245.49,649.97,248.34,648.26,246.84z"/>
	<path class="st13" d="M631.29,237.04c-3.02-0.41-6.06,0.61-8.23,2.74"/>
	<path class="st13" d="M645.03,236.42c2.62-0.63,5.38-0.02,7.48,1.66"/>
	<path class="st7" d="M640.38,269.1c-0.89,2.16-1.63,4.38-2.21,6.64l-1.22-0.13c-5.47-0.62-7.81-2.72-8.74-4.87
		c-0.43-1.05-0.61-2.19-0.51-3.32c0.05-0.65,0.17-1.29,0.38-1.9c3.21,1.9,6.8,3.07,10.51,3.45
		C639.68,269.06,640.38,269.1,640.38,269.1z"/>
	<path class="st8" d="M638.53,268.86l-0.73,1.93c-5.16-0.62-8.72-1.73-10.16-3.47c0.05-0.65,0.17-1.29,0.38-1.9
		C631.23,267.3,634.81,268.48,638.53,268.86z"/>
	<path class="st14" d="M636.89,275.49c-5.47-0.62-7.81-2.72-8.74-4.87c2.08,0.28,4.09,0.92,5.95,1.9
		C635.32,273.2,636.29,274.24,636.89,275.49z"/>
	<path class="st7" d="M608.08,254.63c0,0,9.01-15.38,7.83-27.37c0,0,37.62-14.78,38.92,23.17c0,0,4.09-33.63-28.32-34.81
		c-22.84-0.82-29.83,22.57-26.13,41.44c0.38,1.95-13.1,25.89-6.64,24.94c4.98-0.73,12.9,7.37,12.9,7.37
		c2.49-4.08,3.29-8.97,2.21-13.63C607.75,270.69,602.52,264.25,608.08,254.63z"/>
	<path class="st11" d="M611.11,258.63c-0.33-4.56-4.29-7.99-8.85-7.66c-5.86,0.55-8.85,12.52,5.71,15.6
		C610.09,267,611.37,264.98,611.11,258.63z"/>
	<path class="st1" d="M648.26,331.41l13.28-4.05c0,0,2.57,11.44-1.86,19.91C652.82,345.04,648.2,338.62,648.26,331.41z"/>
	<ellipse class="st1" cx="605.84" cy="351.7" rx="8.85" ry="9.96"/>
	<path class="st0" d="M604.91,246.6c0,0,2.21-37.44,47.57-26.18c0,0-0.35-7.19-10.31-8.12C632.22,211.37,607.13,213.03,604.91,246.6
		z"/>
	<polygon class="st0" points="618.01,256.55 625.29,256.93 625.34,259.14 618.01,258.77 	"/>
	<polygon class="st0" points="618.57,261.44 624.65,261.71 624.65,263.19 618.19,264.48 	"/>
	<polygon class="st0" points="651.2,255.27 651.38,257.48 654.15,257.48 654.15,255.27 	"/>
	<polygon class="st0" points="651.38,260.8 651.03,262.46 653.42,262.82 653.59,260.6 	"/>
	<path class="st10" d="M592.85,225.31c-4.98,6.09-13.28,5.8-18.81,10.22c-5.53,4.43,1.66,11.9-1.11,17.99s-7.19,5.24-7.19,5.24"/>
	<path class="st10" d="M655.36,234.71c-0.29,8.85,0.27,19.36,3.32,22.95c3.05,3.58-0.55,6.09-0.84,10.25s3.32,3.87,3.32,3.87"/>
	<path class="st7" d="M570.06,319.24c0,0,21.4,20.84,20.29,44.63l-6.09,32.08l-30.43-24.89
		C553.84,371.06,555.88,322.76,570.06,319.24z"/>
	<path class="st6" d="M570.06,319.24c0,0,21.4,20.84,20.29,44.63l-6.09,32.08l-30.43-24.89
		C553.84,371.06,555.88,322.76,570.06,319.24z"/>
	<polygon class="st8" points="550.52,366.08 587.03,395.96 583.16,404.81 552.74,381.02 	"/>
	<polygon class="st9" points="550.52,366.08 587.03,395.96 583.16,404.81 552.74,381.02 	"/>
</g>
<g id="freepik--character-1--inject-42">
	<g id="freepik--group--inject-42">
		<path class="st15" d="M556.43,305.23c0,0,19.16,54.94,22.48,59.01c3.32,4.07,48.68-9.96,56.8-12.92
			c-1.31-1.68-1.59-3.94-0.73-5.89c1.46-3.32,6.26-13.28,10.31-13.65c4.05-0.38,15.87,2.59,18.45,5.16
			c2.59,2.57-1.86,21.4-13.28,27.66c-3.45,1.9-69.7,35.05-81.14,33.57c-11.44-1.48-42.42-63.06-42.42-63.06L556.43,305.23z"/>
		<path class="st0" d="M542.62,259.34c12.88,10.49,31.13,74.11,31.13,74.11l-44.81,26c0,0-26-22.68-23.23-50.89
			C508.48,280.34,542.62,259.34,542.62,259.34z"/>
		<path class="st16" d="M573.76,333.45l-43.19,25.07l-1.62,0.93c0,0-26-22.68-23.23-50.89l0,0c2.81-28.17,36.89-49.12,36.89-49.12
			C555.5,269.83,573.76,333.45,573.76,333.45z"/>
		<polygon class="st0" points="524.35,358.72 574.13,328.09 576.7,336.21 529.88,364.98 		"/>
		<path class="st6" d="M530.57,358.52l-1.62,0.93c0,0-26-22.68-23.23-50.89l0,0l28.21-20.29
			C533.93,288.26,545.55,322.94,530.57,358.52z"/>
		<path class="st7" d="M520.65,433.02c0,0,148.25-41.36,166.8,10.67c18.54,52.02-115.9,93.47-190.32,96.1s-104.82-49.76-82.87-99.4
			L520.65,433.02z"/>
		<path class="st6" d="M520.65,433.02c0,0,148.25-41.36,166.8,10.67c18.54,52.02-115.9,93.47-190.32,96.1s-104.82-49.76-82.87-99.4
			L520.65,433.02z"/>
		<path class="st0" d="M538.11,446.85l-137.72,23.57c-0.78-30.95,0.36-61.93,3.43-92.74c2.21-23.48,5.33-44.96,8.41-63.28
			c6.44-38.13,13.03-62.55,13.03-62.55c44.5-12.92,102.76-4.69,117.28,7.5C521.65,329.68,514.01,400.38,538.11,446.85z"/>
		<path class="st0" d="M471.15,244.94c-10.51,0.11-20.76,2.5-22.13,4.98l44.26,39.56l16.31-32.08
			C509.59,257.39,496.05,244.67,471.15,244.94z"/>
		<path class="st16" d="M471.15,244.94c-10.51,0.11-20.76,2.5-22.13,4.98l44.26,39.56l16.31-32.08
			C509.59,257.39,496.05,244.67,471.15,244.94z"/>
		<path class="st0" d="M511.42,305.96l12.55-2.57c0,0-1.48,13.63-6.26,18.43C517.71,321.83,510.69,319.24,511.42,305.96z"/>
		<polygon class="st0" points="440.99,310.77 462.01,308.93 459.8,327.74 439.16,331.06 		"/>
		<polygon class="st0" points="447.26,366.08 509.59,357.61 509.59,367.19 445.42,378.25 		"/>
		<path class="st0" d="M436.57,395.03c0,0,35.78-11.71,52-13.54c8.44-1.23,17.01-1.23,25.45,0v7.83c0,0-27.28,2.21-32.82,2.94
			c-5.53,0.73-44.25,13.65-44.25,13.65L436.57,395.03z"/>
		<path class="st16" d="M511.42,305.96l12.55-2.57c0,0-1.48,13.63-6.26,18.43C517.71,321.83,510.69,319.24,511.42,305.96z"/>
		<polygon class="st16" points="440.99,310.77 462.01,308.93 459.8,327.74 439.16,331.06 		"/>
		<polygon class="st16" points="447.26,366.08 509.59,357.61 509.59,367.19 445.42,378.25 		"/>
		<path class="st16" d="M436.57,395.03c0,0,35.78-11.71,52-13.54c8.44-1.23,17.01-1.23,25.45,0v7.83c0,0-27.28,2.21-32.82,2.94
			c-5.53,0.73-44.25,13.65-44.25,13.65L436.57,395.03z"/>
		<path class="st15" d="M492.73,277.02l-37.9-26.55c25.45-8.85,25.54-35.78,25.54-35.78l9.8,9.58l13.96,13.67
			c-11.62,8.23-6.13,15.36-2.43,18.52c0.76,0.68,1.57,1.28,2.43,1.81L492.73,277.02z"/>
		<path class="st6" d="M501.69,256.4c-23.81,2.68-22.13-32.97-22.13-32.97c3.57-0.06,7.14,0.2,10.67,0.77l13.96,13.67
			C492.51,246.11,497.99,253.23,501.69,256.4z"/>
		<path class="st7" d="M505.74,181.45c-7.35,6.44-2.57,15.2,17.37,27.39c6.17-10.47,4.43-37.42-2.04-41.36
			C514.61,163.55,512.15,175.9,505.74,181.45z"/>
		<path class="st15" d="M531.14,215L531.14,215c0,2.54-0.16,5.07-0.46,7.59c-2.63,19.91-25.73,31.55-42.2,18.21l-0.18-0.13
			c-10.95-9.03-11.9-20.6-15.2-40.1c-2.62-14.66,7.14-28.68,21.8-31.3c4.09-0.73,8.3-0.51,12.3,0.66
			C524.57,175.01,531.21,197.38,531.14,215z"/>
		<path class="st7" d="M502.95,202.92c0.15,1.59,1.15,2.81,2.21,2.7c1.06-0.11,1.75-1.48,1.57-3.08c-0.18-1.59-1.15-2.81-2.21-2.72
			S502.95,201.35,502.95,202.92z"/>
		<path class="st7" d="M521.12,201.01c0.15,1.62,1.15,2.81,2.21,2.7c1.06-0.11,1.77-1.48,1.59-3.1c-0.18-1.62-1.15-2.81-2.21-2.7
			C521.65,198.03,520.94,199.42,521.12,201.01z"/>
		<path class="st17" d="M515.27,202.41c2.41,4.68,5.47,9,9.07,12.83c-2.59,2.94-7.48,2.21-7.48,2.21L515.27,202.41z"/>
		<path class="st7" d="M497.4,197.72c-0.2,0.09-0.42,0.09-0.62,0c-0.44-0.26-0.6-0.83-0.34-1.27c0,0,0.01-0.01,0.01-0.01
			c1.5-2.65,4.2-4.41,7.24-4.69c0.49-0.01,0.92,0.35,0.97,0.84l0,0c0,0.51-0.4,0.94-0.91,0.97l0,0c-2.38,0.27-4.49,1.67-5.66,3.76
			C497.92,197.54,497.67,197.69,497.4,197.72z"/>
		<path class="st7" d="M528.73,194.02c-0.36,0.04-0.71-0.13-0.91-0.44c-1.22-2.07-3.35-3.43-5.73-3.67
			c-0.53-0.01-0.94-0.45-0.93-0.97c0,0,0,0,0,0c0.02-0.51,0.44-0.92,0.95-0.93c3.03,0.26,5.75,1.97,7.3,4.58
			c0.27,0.44,0.14,1.02-0.29,1.31l0,0C529,193.96,528.87,194,528.73,194.02z"/>
		<path class="st7" d="M507.66,159.19c-22.86-8.25-51.05,5.64-50.07,33.06c0.55,15.49,11.75,33.88,19.23,33.32
			c7.97-13.63,10.47-33.43,8.36-38.48c-0.25-3.71,0.96-7.38,3.39-10.2c0,0,19.65,1.95,23.79,0.84c2.57-0.69,5.08-1.62,7.48-2.77
			l4.69,7.04C524.52,182.01,530.61,167.49,507.66,159.19z"/>
		<path class="st15" d="M465.33,217.34c1.88,4.6,5.49,8.28,10.07,10.22c6.09,2.5,9.89-2.74,8.85-8.85
			c-0.93-5.53-5.24-13.52-11.64-13.41C466.22,205.42,463.12,211.68,465.33,217.34z"/>
		<path class="st7" d="M517.6,223.61c-1.18,2.28-2.19,4.64-3.03,7.06l-1.33-0.22c-6.04-1.13-8.47-3.63-9.34-6.09
			c-0.39-1.21-0.49-2.49-0.29-3.74c0.09-0.71,0.27-1.4,0.55-2.06c2.85,2.5,8.39,3.98,11.37,4.65
			C516.8,223.5,517.6,223.61,517.6,223.61z"/>
		<path class="st8" d="M515.54,223.21l-0.93,2.06c-5.69-1.06-9.54-2.59-11.06-4.65c0.09-0.71,0.27-1.4,0.55-2.06
			C507.02,221.15,512.55,222.54,515.54,223.21z"/>
		<path class="st14" d="M513.24,230.44c-6.04-1.13-8.47-3.63-9.34-6.09c2.29,0.47,4.47,1.34,6.46,2.57
			C511.66,227.77,512.66,229,513.24,230.44z"/>
		<path class="st8" d="M517.33,410.34c0,0.42,0,0.82,0,1.24c-0.34,22.91-19.19,41.21-42.11,40.87s-41.21-19.19-40.87-42.11
			c0-2.54,0.24-5.07,0.71-7.57c4.13-22.53,25.74-37.44,48.27-33.31c18.34,3.36,32.19,18.56,33.83,37.14
			C517.27,407.84,517.33,409.08,517.33,410.34z"/>
		<path class="st6" d="M517.33,410.34c0,0.42,0,0.82,0,1.24l-7.17-3.19l-9.67,6.93l0.53,22.42l5,1.11
			c-15.72,16.67-41.98,17.44-58.65,1.71c-8.32-7.85-13.03-18.78-13.02-30.21c0-2.54,0.24-5.07,0.71-7.57l4.82-2.94l-3.87,5.82
			l6.93,22.95l6.64,1.66l12.99-23.23l-14.38-15.49l-6.35,3.87l5.8-9.14v-5.8l3.32,4.98l18.81-8.03l-16.6,11.64l14.12,17.97
			l-13.85,24.34l19.38,12.72l23.76-6.09l-0.53-22.39l-11.64-5.27l11.06,2.21l11.9-7.48l-3.32-20.45l5.8,20.45l7.3,1.53
			C517.27,407.84,517.33,409.08,517.33,410.34z"/>
		<path class="st18" d="M468.08,396.33c0,0-18.54,11.68-14.12,28.21c4.43,16.53,42.33-10.09,49.59-9.27
			c7.26,0.82,9.27,13.7,2.41,22.13c0,0,15.73-17.33,5.64-29.03c-10.09-11.71-37.88,9.67-43.13,6.04S468.08,396.33,468.08,396.33z"/>
		<path class="st18" d="M474.74,370.24c0,0,9.4,4.14,10.8,17.15l3.32,0.27C488.85,387.66,485.25,370.8,474.74,370.24z"/>
		<path class="st18" d="M484.98,371.62c0,0,6.09,6.64,6.9,11.06l2.77-0.27C494.65,382.41,491.33,374.38,484.98,371.62z"/>
		<path class="st15" d="M424.68,386.46c4.14,0,17.97-11.53,25.71-11.53s12.17-1.66,13.83,1.66c1.66,3.32-4.43,27.11-6.64,27.66
			c-3.7,0.15-7.4-0.03-11.06-0.55c0,0-13.63,7.41-26.18-1.55S424.68,386.46,424.68,386.46z"/>
		<path class="st0" d="M665.96,517.22c-0.17,0.11-0.38,0.11-0.55,0c-0.15-0.1-0.21-0.3-0.13-0.46c0.24-0.82,2.72-7.99,5.2-8.74
			c0.54-0.12,1.11,0.05,1.5,0.44c0.7,0.59,1.03,1.51,0.86,2.41c-0.4,1.34-1.21,2.51-2.32,3.36
			C669.1,515.37,667.57,516.37,665.96,517.22z M666.6,515.82c2.32-1.01,4.2-2.83,5.29-5.11c0.13-0.62-0.11-1.26-0.62-1.64
			c-0.13-0.18-0.37-0.24-0.58-0.15c-0.22,0.06-0.41,0.18-0.58,0.33c-1.54,1.96-2.7,4.19-3.43,6.57L666.6,515.82z"/>
		<path class="st0" d="M665.83,517.3c-0.17,0.05-0.35,0-0.46-0.13c-0.24-0.2-3.67-4.56-3.1-7.48c0.13-0.73,0.56-1.38,1.17-1.79
			c0.54-0.52,1.37-0.59,1.99-0.18c1.79,1.26,1.57,7.06,0.69,9.27v0.22L665.83,517.3z M663.86,508.78c-0.3,0.27-0.51,0.64-0.58,1.04
			c-0.38,1.86,1.35,4.65,2.21,5.97c0.55-2.48,0.38-6.64-0.69-7.28c-0.11,0-0.33-0.24-0.86,0.13l-0.18,0.13H663.86z"/>
		<path class="st0" d="M514.9,543.53c0.05-0.19,0.21-0.33,0.4-0.38c0.18-0.02,0.35,0.08,0.42,0.24c0.44,0.75,3.83,7.52,2.61,9.82
			c-0.28,0.48-0.8,0.77-1.35,0.75c-0.91,0.11-1.8-0.29-2.32-1.04c-0.68-1.23-0.95-2.64-0.77-4.03
			C514.04,547.08,514.39,545.28,514.9,543.53z M515.43,544.94c-0.87,2.38-0.87,4.99,0,7.37c0.35,0.53,0.98,0.81,1.62,0.71
			c0.22,0.01,0.43-0.11,0.53-0.31c0.08-0.2,0.14-0.42,0.15-0.64C517.4,549.57,516.62,547.16,515.43,544.94L515.43,544.94z"/>
		<polygon class="st15" points="550.81,493.47 524.59,512.7 512,521.93 520.21,536.29 533,529.3 564.22,512.21 		"/>
		<path class="st7" d="M524.28,535.85l-7.92-17.46c-0.43-0.95-1.55-1.36-2.49-0.93c-0.02,0.01-0.04,0.02-0.05,0.03l-8.54,4.18
			c0,0-11.88,4.8-13.28,8.65c-4.43,11.29,12.15,50.34,17.3,50.36c1.88,0,3.01-2.92,3.27-4.78c0.82-5.93,0.97-20.8,1.73-25.73
			c0.89-5.75,6.64-10.18,9.4-11.95C524.44,537.67,524.69,536.67,524.28,535.85z"/>
		<path class="st0" d="M514.92,543.37c0.08-0.15,0.25-0.25,0.42-0.24c0.31,0,5.82,0.55,7.52,3.01c0.42,0.62,0.58,1.37,0.44,2.1
			c0,0.75-0.53,1.39-1.26,1.55c-2.21,0.4-6.15-3.81-7.1-5.97v-0.2C514.91,543.54,514.91,543.45,514.92,543.37z M522.38,547.93
			c0.03-0.41-0.09-0.82-0.33-1.15c-1.06-1.55-4.27-2.21-5.86-2.54c1.37,2.21,4.43,4.87,5.66,4.62c0.13,0,0.4,0,0.51-0.71v-0.22
			H522.38z"/>
		<polygon class="st6" points="550.81,493.47 524.59,512.7 533,529.3 564.22,512.21 		"/>
		<polygon class="st0" points="538.97,530.38 547.6,528.46 533.29,501.11 525.28,509.27 		"/>
		<polygon class="st5" points="538.97,530.38 547.6,528.46 533.29,501.11 525.28,509.27 		"/>
		<polygon class="st15" points="605.07,526.58 637.15,531.86 652.58,534.41 657.07,518.48 643.13,514.25 609.1,503.89 		"/>
		<path class="st7" d="M653.93,515.89l-6.95,17.86c-0.37,1,0.13,2.11,1.13,2.48c0,0,0,0,0,0l8.96,3.16c0,0,11.75,5.13,15.49,3.5
			c11.06-4.78,27.48-43.9,23.88-47.6c-1.33-1.35-4.18-0.11-5.71,1.02c-4.8,3.54-15.49,13.85-19.58,16.75
			c-4.74,3.41-11.97,2.35-15.11,1.66C655.13,514.54,654.24,515.03,653.93,515.89z"/>
		<polygon class="st6" points="605.07,526.58 637.15,531.86 643.13,514.25 609.1,503.89 		"/>
		<path class="st7" d="M637.6,511.02c0,0-133.38-78.69-178.52-76.58s-49.06,46.93-30.45,71.83c18.61,24.89,53.11,30.98,53.11,30.98
			s-23.41-33.19-20.03-42.4c3.39-9.21,16.29,21.99,16.29,21.99s82.65,10.82,154.65,16.93L637.6,511.02z"/>
		<polygon class="st0" points="639.72,508.9 632.31,503.92 622.79,533.15 634.21,533.15 		"/>
		<polygon class="st5" points="639.72,508.9 632.31,503.92 622.79,533.15 634.21,533.15 		"/>
		<path class="st6" d="M426.61,307.82c0,0-0.33,45.98-22.79,69.86c2.21-23.48,5.33-44.96,8.41-63.28L426.61,307.82z"/>
		<path class="st15" d="M392.64,275.89c0,0-47.4,75.94-46.11,99.26c1.28,23.32,73.82,27,73.82,27l4.43-15.69
			c0,0-46.47-16.31-48.68-20.45c-2.21-4.14,39.32-59.3,39.32-59.3L392.64,275.89z"/>
		<path class="st0" d="M425.26,251.84c-20.05-6.35-69.83,65.94-69.83,65.94l48.68,38.72C404.11,356.5,459.09,262.57,425.26,251.84z"
			/>
		<path class="st16" d="M425.26,251.84c-20.05-6.35-69.83,65.94-69.83,65.94l48.68,38.72C404.11,356.5,459.09,262.57,425.26,251.84z
			"/>
		<polygon class="st0" points="356.91,311.87 409.64,353.54 401.89,359.45 352.11,320.35 		"/>
		<polygon class="st0" points="498.26,209.4 498.52,212.36 487.46,213.96 487.46,210.09 		"/>
		<polygon class="st0" points="486.91,218.12 496.86,216.46 497.71,219.22 487.46,221.44 		"/>
		<polygon class="st0" points="527.02,208.16 528.13,210.64 530.34,210.93 530.34,207.61 		"/>
		<polygon class="st0" points="527.29,214.51 527.02,217.01 530.34,217.56 531.14,215 		"/>
	</g>
</g>
<g id="freepik--Cat--inject-42">
	<path class="st7" d="M837.08,678.95c-36.05-14.85-96.25-8.43-123.91,22.84c-27.66,31.27-14.38,40.47,22.13,41.58
		c36.51,1.11,131.73,0,131.73,0S890.18,700.83,837.08,678.95z"/>
	<path class="st19" d="M837.08,678.95c-36.05-14.85-96.25-8.43-123.91,22.84c-27.66,31.27-14.38,40.47,22.13,41.58
		c36.51,1.11,131.73,0,131.73,0S890.18,700.83,837.08,678.95z"/>
	<path class="st20" d="M823.25,697.97c-2.95-5.51-7.61-9.9-13.28-12.52c0,0-3.01,16.95,0,22.13c0,0-6.64,10.11-5.55,17.86
		c0.69,4.82,7.66,12.3,9.76,15.87c0.55,0.93,8.85,2.54,12.52,1.55c1.93-0.53,20.18-0.15,22.68-0.6c2.5-0.44,8.3-5.91,8.3-5.91
		l-3.39,7.15l-64.28,0.35c0,0,11.06-2.74,10.31-8.85c-0.75-6.11-17.7-10.11-32.08-6.44s-47.2,0-45.72-11.42s14.38-9.6,14.38-9.6
		s-7.39,6.64-7.01,10.71c0.38,4.07,19.91,11.06,29.14,8.47c9.23-2.59,20.27-15.11,19.91-21.02s-8.85-8.47-8.85-8.47
		s11.68-2.04,15.25,2.01s1.7,17.52,1.7,17.52h5.78c0,0,3.43-10.31,9.58-14.76c0,0-0.73-16.33,4.07-21.99
		C806.47,680.05,818.64,680.23,823.25,697.97z"/>
	<path class="st20" d="M849.25,705.01c0,0,3.7-3.14,13.65-3.23c0,0,3.32,8.85,0,15.02c0,0-0.75-6.64-3.7-9.23
		C856.41,705.32,852.78,704.38,849.25,705.01z"/>
	<path class="st10" d="M807.58,723.82c0,0,0.73,8.85,7.37,5.53"/>
	<path class="st10" d="M827.85,731.92c0,0,2.59,9.18,11.82,3.12"/>
	<polygon class="st20" points="814.95,738.22 819.55,739.66 816.61,741.15 	"/>
</g>
</svg>
