<?xml version="1.0" encoding="utf-8"?>
<!-- Generator: Adobe Illustrator 23.1.0, SVG Export Plug-In . SVG Version: 6.00 Build 0)  -->
<svg version="1.1" id="Layer_1" xmlns="http://www.w3.org/2000/svg" xmlns:xlink="http://www.w3.org/1999/xlink" x="0px" y="0px"
	 viewBox="0 0 1366 768" style="enable-background:new 0 0 1366 768;" xml:space="preserve">
<style type="text/css">
	.st0{fill:#92E3A9;}
	.st1{opacity:0.6;fill:#FFFFFF;enable-background:new    ;}
	.st2{fill:#FFFFFF;}
	.st3{fill:#263238;}
	.st4{clip-path:url(#SVGID_3_);}
	.st5{clip-path:url(#SVGID_4_);}
	.st6{opacity:0.5;fill:#FFFFFF;enable-background:new    ;}
	.st7{clip-path:url(#SVGID_7_);}
	.st8{clip-path:url(#SVGID_8_);}
	.st9{opacity:0.2;enable-background:new    ;}
	.st10{fill:none;}
	.st11{clip-path:url(#SVGID_11_);}
	.st12{clip-path:url(#SVGID_12_);}
	.st13{clip-path:url(#SVGID_15_);}
	.st14{clip-path:url(#SVGID_16_);}
	.st15{clip-path:url(#SVGID_19_);}
	.st16{clip-path:url(#SVGID_20_);}
	.st17{clip-path:url(#SVGID_23_);}
	.st18{clip-path:url(#SVGID_24_);}
	.st19{clip-path:url(#SVGID_27_);}
	.st20{clip-path:url(#SVGID_28_);}
	.st21{clip-path:url(#SVGID_31_);}
	.st22{clip-path:url(#SVGID_32_);}
</style>
<g id="freepik--background-simple--inject-11">
	<path class="st0" d="M1031.77,149.57c0,0-55.79-127.32-179.01-146.16s-209.23,73.09-299.9,120.27
		c-47.49,24.68-101.72,15.17-152.13,27.05c-161.19,38.18-221.91,277.66-154.77,413.96c58.13,117.89,160.43,179.18,316.18,193.34
		s265.05,30.64,404.54-84.87S1096.87,316.92,1031.77,149.57z"/>
	<path class="st1" d="M1031.77,149.57c0,0-55.79-127.32-179.01-146.16s-209.23,73.09-299.9,120.27
		c-47.49,24.68-101.72,15.17-152.13,27.05c-161.19,38.18-221.91,277.66-154.77,413.96c58.13,117.89,160.43,179.18,316.18,193.34
		s265.05,30.64,404.54-84.87S1096.87,316.92,1031.77,149.57z"/>
</g>
<g id="freepik--Net--inject-11">
	<path class="st2" d="M1055.9,224.92c-1.66-6.47-3.42-12.89-5.23-19.27l-0.98,11.23l-46.63-19.42l4.43-48.04l28.97,12.49
		c-0.81-2.2-1.61-4.37-2.52-6.55l-25.95-11.12l2.77-31.2c-1.41-2.1-2.89-4.27-4.45-6.47l-3.1,35.57l-41.57-17.9l5.03-42.98
		c10.42,4.4,20.71,8.79,30.88,13.17c-2.19-2.83-4.5-5.66-6.92-8.55l-23.33-9.94l1.56-13.27c-1.51-1.44-3.02-2.86-4.58-4.27
		l-1.81,15.52c-15.1-6.35-30.05-12.64-44.95-18.84l3.45-28.11c-1.56-0.88-3.15-1.74-4.76-2.53l-3.6,28.72
		c-18.35-7.58-36.34-15.02-53.5-22.05l2.94-26.07c-1.64-0.33-3.3-0.66-5.03-0.94l-2.82,25.03c-17.87-7.31-34.73-14.13-49.98-20.23
		l0.86-7.41c-1.71,0-3.42,0.25-5.03,0.4l-0.58,5.06l-9.51-3.82c-3.25,0.46-6.48,0.99-9.66,1.59l18.55,7.58l-4.68,40.02L739.59,28.7
		l1.43-13.2c-1.76,0.64-3.52,1.3-5.28,1.97l-0.98,9.13l-10.42-4.48l-6.29,2.78l16.13,6.95l-5.54,51.48L676.6,61.69l1.69-15.93
		c-1.79,1.04-3.6,2.1-5.39,3.19l-1.13,10.72l-9.79-4.07l-5.26,3.29l14.47,6.02l-5.71,53.88l-48.75-20.23l1.79-14.77l-5.39,3.54
		l-1.11,9.13l-7.88-3.29l-5.03,3.34l12.41,5.06l-5.34,43.87l-49.1-21.09l0.4-3.11l-4.38,2.33c-1.66,0.86-3.32,1.67-5.03,2.53
		l3.5,1.52l-5.44,42.1l-44.9-19.49l1.81-11.12l-5.23,0.76l-1.36,8.29l-14.9-6.47c-3.55,0.3-7.1,0.61-10.67,0.86l24.74,10.75
		l-6.52,40.17l-51.36-22.07l4.53-26.72l-5.18,0.48l-4.1,24.2l-39.28-16.74c-2.52,0.71-5.03,1.44-7.55,2.25l1.43,0.63l-8.3,49.07
		l-34.83-14.59l2.79-17.34c-1.89,1.14-3.8,2.33-5.66,3.51l-1.91,11.83l-9.41-3.92c-1.56,1.16-3.12,2.33-4.63,3.54l13.19,5.46
		l-9.19,56.79l-36.69-15.17l3.35-19.29c-2.16,2.53-4.33,5.06-6.42,7.58l-1.69,9.76l-4.48-1.85c-1.06,1.39-2.06,2.78-3.1,4.2
		l6.69,2.76l-11.02,63.94l-27.18-10.75c-0.68,1.54-1.31,3.08-1.96,4.65l28.26,11.15l-11.7,67.51l-36.64-13.68
		c-0.35,1.67-0.68,3.36-1.01,5.06l36.77,13.68l-13.39,77.26c-11.3-2.78-21.44-5.23-30.2-7.36c0,1.74,0,3.49,0.23,5.23
		c8.53,2.07,18.3,4.45,29.14,7.13l-12.41,71.53h-2.89c0.55,1.69,1.11,3.41,1.69,5.06h0.35v0.61c1.08,3.16,2.26,6.24,3.47,9.33
		l1.71-9.78c12.58,0.38,26.78,0.99,42.28,1.87l-11.07,68.44c1.36,2,2.72,3.99,4.13,5.97l12-74.13c10.9,0.66,22.4,1.47,34.35,2.53
		l-15.4,91.02c-5.03,1.26-9.24,2.53-12.99,3.56c3.09,3.62,6.26,7.15,9.51,10.57c37.87-10.26,123.14-27.81,235.13-16.53
		c69.96,7.03,124.52,29.15,181.95,52.77v0.68l2.52,0.3c46.15,18.96,93.39,38.35,149.08,49.25c6.47-3.03,12.99-6.3,19.53-9.84
		l0.65-5.74l5.31,2.35l5.44-3.14l-10.34-4.45l4.25-36.48c14.75,6.56,28.33,12.63,40.74,18.23c1.56-1.11,3.15-2.25,4.71-3.41
		c-13.49-6.09-28.49-12.82-44.85-20.07l6.29-53.6l53.43,19.92l-4.3,45.61c1.84-1.42,3.65-2.86,5.46-4.3l3.67-39.59l28.36,10.49
		l3.67-4.02l-31.51-11.76l5.03-53.98l48.9,19.34l-1.79,20.38c1.99-2.83,3.93-5.69,5.81-8.6l0.86-9.84l4.23,1.67
		c0.88-1.47,1.71-2.93,2.52-4.42l-6.34-2.53l4.78-55.17l24.03,9.89l1.74-4.75l-25.32-10.39l4.66-53.68l34.78,14.56
		c0.38-1.67,0.76-3.34,1.08-5.06l-35.41-14.82l3.77-43.56l38.23,16.43c0.2-1.74,0.38-3.51,0.55-5.26l-38.3-16.46l3.37-39.01
		l37.42,16.26c0-1.82,0-3.64,0.13-5.46l-37.09-16.11l3.95-45.51l32.06,14.01c0-1.87-0.23-3.77-0.35-5.64l-31.28-13.43l4.35-49.71
		l20.89,8.7c-0.3-1.95-0.6-3.89-0.93-5.84l-19.5-8.14l4.76-54.61L1055.9,224.92z M1002.62,147.53l-4.45,48.04l-42.78-17.7
		l5.64-48.04L1002.62,147.53z M394.04,428.32l53.43,19.92l-9.34,57.47c-18.6-5.06-36.92-10.11-54.69-14.79L394.04,428.32z
		 M378.56,489.6c-13.92-3.69-27.48-7.23-40.57-10.62l11.4-67.33l39.76,14.87L378.56,489.6z M394.89,423.24l10.95-64.67l52.85,20.91
		l-10.37,63.69L394.89,423.24z M463.44,381.37l52.35,20.73l-8.18,63.21l-54.51-20.23L463.44,381.37z M464.27,376.31l10.07-61.51
		l50.18,20.63l-7.98,61.54L464.27,376.31z M520.62,404.12l51.44,20.38l-7.55,62.12l-52.04-19.54L520.62,404.12z M521.3,399.07
		l7.95-61.49l50.84,20.91l-7.4,60.93L521.3,399.07z M584.92,360.48l52.6,21.62l-6.44,60.43l-53.53-21.19L584.92,360.48z
		 M885.75,271.31l-5.41,43.92l-50.78-22.35l5.03-43.82L885.75,271.31z M835.02,244.03l5.26-46.67l51.92,21.62l-5.81,47.13
		L835.02,244.03z M879.71,320.46l-4.86,38.88l-50.33-21.69l4.48-39.52L879.71,320.46z M824.52,290.8l-50.63-21.92l5.03-43.49
		l50.63,21.59L824.52,290.8z M823.95,296.04l-4.45,39.54l-50.94-21.89l4.66-39.69L823.95,296.04z M818.91,340.81l-5.16,45.51
		l-51.09-21.36l5.36-45.96L818.91,340.81z M757.76,362.86l-51.97-21.74l5.03-46.75l52.37,22.55L757.76,362.86z M757.16,368.09
		l-6.34,55.02l-51.49-21.19l5.99-55.47L757.16,368.09z M750.21,428.17l-6.85,58.56l-51.04-20.23l6.37-59.44L750.21,428.17z
		 M694.47,399.77l-51.56-21.19l5.94-55.9l51.62,21.59L694.47,399.77z M638.07,376.59l-52.62-21.54l6.92-55.82l51.64,21.62
		L638.07,376.59z M642.35,383.82l51.56,21.19l-6.44,59.57l-51.54-20.4L642.35,383.82z M691.77,471.73l50.99,20.23l-6.82,58.48
		l-50.63-18.89L691.77,471.73z M747.59,493.9l51.77,20.48l-6.47,57.29l-52.09-19.42L747.59,493.9z M748.22,488.72l6.82-58.5
		l51.44,21.16l-6.54,57.7L748.22,488.72z M755.65,425.01l6.42-54.99l51.19,21.44l-6.17,54.61L755.65,425.01z M818.08,393.58
		l50.03,20.93l-6.64,54.11l-49.53-20.5L818.08,393.58z M818.66,388.35l5.03-45.51l50.46,21.69l-5.51,44.7L818.66,388.35z
		 M879.06,366.68l46.71,20.07l-5.18,44.22l-47.01-19.67L879.06,366.68z M879.71,361.44l4.81-39.11l46.41,20.23l-4.56,39.01
		L879.71,361.44z M885.15,317.12l5.41-43.94l46.18,19.8l-5.18,44.17L885.15,317.12z M891.21,267.95l5.79-47.1l45.93,19.14
		l-5.59,47.81L891.21,267.95z M897.66,215.59l6.59-53.73l45.6,18.96l-6.32,53.9L897.66,215.59z M904.9,156.68l5.99-48.72l45.3,19.47
		l-5.84,48.16L904.9,156.68z M900.07,154.66l-52.52-21.84l5.64-49.68l52.85,22.75L900.07,154.66z M899.44,159.86l-6.62,53.7
		l-51.94-21.64l6.09-53.88L899.44,159.86z M836.05,189.9l-50.51-21.04l6.29-53.75l50.33,20.91L836.05,189.9z M835.45,195.13
		l-5.26,46.65l-50.61-21.72l5.36-45.99L835.45,195.13z M774.75,217.89l-53.13-22.75l4.91-45.51l53.58,22.35L774.75,217.89z
		 M774.14,223.12l-5.03,43.46l-52.8-22.83l4.68-43.33L774.14,223.12z M768.45,271.82l-4.63,39.72l-52.35-22.5l4.33-40.07
		L768.45,271.82z M711.53,241.48l-51.67-22.45l4.58-42.98l51.87,22.3L711.53,241.48z M710.98,246.74l-4.33,40.12l-51.64-22.2
		l4.28-40.45L710.98,246.74z M706.07,292.12l-5.03,46.8l-51.62-21.59l5.03-47.41L706.07,292.12z M650.17,262.59l-50.76-21.52
		l4.91-40.45l50.13,21.77L650.17,262.59z M649.6,267.85l-5.03,47.46L593,293.89l5.79-47.76L649.6,267.85z M588.17,291.69
		l-50.33-21.04l6.24-48.16l49.83,21.44L588.17,291.69z M587.54,296.9l-6.79,55.98l-50.81-20.78l7.27-56.15L587.54,296.9z
		 M525.05,330.19l-50-20.58l9.08-55.77l48.22,20.23L525.05,330.19z M470.26,307.67l-52.22-21.49l9.49-56.03l51.82,21.69
		L470.26,307.67z M469.43,312.72l-10.07,61.59l-52.85-20.91l10.52-62.17L469.43,312.72z M401.94,351.56l-39.74-15.73l10.62-62.8
		l39.64,16.31L401.94,351.56z M401.06,356.62l-10.95,64.77l-39.86-14.87l11.1-65.74L401.06,356.62z M345.44,404.65l-33.72-12.64
		l10.8-66.67l34.05,13.5L345.44,404.65z M344.59,409.71l-11.48,67.86c-11.73-3.03-23.05-5.92-33.82-8.65l11.63-71.75L344.59,409.71z
		 M337.04,483.84c13.06,3.39,26.63,6.93,40.57,10.62l-8.1,47.89c-14.27-1.62-28.24-2.98-41.67-4.12L337.04,483.84z M382.49,495.75
		c17.77,4.73,36.09,9.68,54.71,14.82l-6.54,40.25c-18.92-3.14-37.75-5.71-56.15-7.89L382.49,495.75z M442.08,511.9
		c18.9,5.23,38.08,10.64,57.25,16.18l-4.48,35.67c-19.43-4.63-39.28-8.6-59.11-11.96L442.08,511.9z M442.88,506.85l9.29-57.01
		l54.66,20.38l-6.85,52.77c-18.98-5.33-38.1-10.72-56.98-15.93L442.88,506.85z M511.66,472.03l52.12,19.44l-5.91,48.67
		c-17.62-5.33-35.23-10.59-52.97-15.75L511.66,472.03z M568.61,493.27l54.74,20.4l-4.86,45.51c-18.04-5.92-36.74-11.83-55.74-17.7
		L568.61,493.27z M569.24,488.21l7.55-62.02l53.6,21.21l-6.49,61.18L569.24,488.21z M628.23,515.69l51.56,19.24l-4.76,43.99
		c-16.38-5.92-33.67-11.88-51.62-17.82L628.23,515.69z M628.78,510.51l6.49-61.08l51.54,20.43l-6.47,59.9L628.78,510.51z
		 M684.65,536.73l50.58,18.89L730,600.29l-6.67-2.73c-13.39-5.54-27.91-11.15-43.31-16.79L684.65,536.73z M740.02,557.41
		l52.09,19.44l-5.34,47.25c-16.78-7.08-34.12-14.35-52.02-21.82L740.02,557.41z M796.97,578.67l48.55,18.08l-5.89,49.91
		c-15.23-6.61-31.17-13.44-47.82-20.5L796.97,578.67z M797.57,573.62l6.47-57.22l48.97,19.42l-6.87,55.93L797.57,573.62z
		 M804.62,511.22l6.69-57.77l49.5,20.23l-6.97,56.81L804.62,511.22z M865.47,475.82l47.44,19.52l-6.57,56.18l-47.82-18.94
		L865.47,475.82z M866.12,470.64l6.62-54l47.06,19.7l-6.29,53.8L866.12,470.64z M924.81,438.28l49,20.5l-5.03,53.93l-50.33-20.68
		L924.81,438.28z M925.41,433.05l5.18-44.17l47.82,20.53l-4.13,44.04L925.41,433.05z M931.2,383.64l4.56-38.99l46.73,20.23
		l-3.62,39.16L931.2,383.64z M936.36,339.42l5.18-44.32l45.6,19.57l-4.08,44.9L936.36,339.42z M942.17,289.87l5.66-47.94
		l44.39,18.51l-4.61,48.9L942.17,289.87z M948.37,236.77l6.32-53.85l43.01,17.7l-5.03,54.43L948.37,236.77z M916.73,60.53
		c14.92,6.22,30,12.52,44.97,18.86l-5.03,42.85L911.5,102.8L916.73,60.53z M858.45,36.48c17.16,7.03,35.23,14.44,53.45,22.05
		l-5.18,42.2l-52.85-22.75L858.45,36.48z M803.61,14.16c15.3,6.19,32.16,13.05,50,20.23l-4.68,41.34l-50-21.54L803.61,14.16z
		 M798.33,59.67l50.03,21.54l-5.64,49.78l-50.33-20.93L798.33,59.67z M738.96,33.96l54.46,23.44l-5.89,50.57L733.4,85.43
		L738.96,33.96z M732.84,90.56l54.08,22.5l-6.29,53.75l-53.6-22.35L732.84,90.56z M676.05,66.92l52.02,21.64l-5.81,53.9
		l-51.94-21.64L676.05,66.92z M669.75,126.04l51.94,21.64l-4.91,45.51L665,170.96L669.75,126.04z M616.1,103.69l48.82,20.35
		l-4.76,44.75l-49.4-21.26L616.1,103.69z M610.14,152.81l49.45,21.24l-4.56,42.98l-50.08-21.74L610.14,152.81z M556.16,129.65
		l49.15,21.09l-5.03,42.53l-49.45-21.47L556.16,129.65z M550.04,177.01l49.48,21.49l-5.03,40.45l-49.83-21.41L550.04,177.01z
		 M500.19,155.34l45.05,19.57l-5.26,40.45l-46.33-19.8L500.19,155.34z M492.81,200.62l46.48,20l-6.24,48.26l-48.04-20.23
		L492.81,200.62z M436.67,176.5l51.39,22.07l-7.83,48.04l-51.79-21.67L436.67,176.5z M392.38,157.46l39.51,16.99l-8.2,48.59
		l-39.56-16.56L392.38,157.46z M383.22,211.59l39.59,16.56l-9.49,56.08l-39.64-16.31L383.22,211.59z M343.65,195.03l34.78,14.56
		l-9.41,56.36l-34.45-14.16L343.65,195.03z M333.59,256.93l34.4,14.13l-10.62,62.88l-34.07-13.5L333.59,256.93z M292.06,239.86
		l36.74,15.17l-10.12,63.51l-37.5-14.84L292.06,239.86z M280.14,308.78l37.55,14.87l-10.82,66.77l-38.4-14.31L280.14,308.78z
		 M267.55,381.16l38.55,14.36l-11.73,72.31c-14.42-3.64-27.83-6.98-40.04-9.99L267.55,381.16z M283.41,535.21
		c-15.45-0.88-29.65-1.49-42.23-1.9l12.23-70.49c12.21,3.03,25.64,6.37,40.09,10.11L283.41,535.21z M288.44,535.49l10.07-61.41
		c10.77,2.73,22.07,5.61,33.77,8.65l-9.34,55.22c-11.95-1.06-23.48-1.8-34.45-2.45L288.44,535.49z M311.92,632.65l15.1-89.3
		c13.44,1.14,27.38,2.53,41.65,4.12l-12.91,76.3c-17.16,2.81-31.89,5.94-43.74,8.87L311.92,632.65z M361.12,622.84l12.58-74.89
		c18.4,2.17,37.25,4.78,56.2,7.89l-9.87,60.68C398.21,618.01,378.46,620.32,361.12,622.84z M425.27,616.22l9.66-59.54
		c19.88,3.39,39.79,7.36,59.27,12.01l-6.07,46.82c-22.45-0.61-43.49-0.25-62.86,0.81V616.22z M548.3,619.94
		c-2.89-0.35-5.76-0.73-8.71-1.01c-16.06-1.62-31.53-2.65-46.41-3.24l5.94-45.79c8.61,2.12,17.1,4.38,25.49,6.78
		c8.81,2.53,18.14,5.39,27.91,8.49L548.3,619.94z M526.01,571.9c-8.61-2.53-17.39-4.78-26.22-6.95l4.56-35.4
		c17.79,5.18,35.53,10.44,53.02,15.78l-4.23,34.74C543.67,577.16,534.59,574.38,526.01,571.9z M610.92,632.02
		c-18.95-5-38.19-8.81-57.6-11.4l4.1-33.78c17.62,5.74,36.54,12.29,56.25,19.42L610.92,632.02z M558.07,581.73l4.18-34.74
		c19.05,5.84,37.75,11.76,55.84,17.7l-3.88,36.46c-19.68-7.18-38.58-13.7-56.2-19.42H558.07z M667.51,650
		c-16.63-6.09-33.75-11.76-51.62-16.64l2.67-25.28c16.74,6.09,33.95,12.64,51.39,19.29L667.51,650z M619.12,602.9l3.9-36.61
		c17.97,5.97,35.23,11.93,51.62,17.87l-4.1,37.92c-17.52-6.67-34.75-13.15-51.46-19.24L619.12,602.9z M721.87,671.36
		c-16.21-6.65-32.72-13.3-49.48-19.59l2.52-22.5c16.48,6.37,33.12,12.94,49.65,19.59L721.87,671.36z M675.39,624.06l4.1-38.13
		c14.9,5.46,28.99,10.92,42,16.28l8.05,3.34l-4.45,38.1c-16.61-6.7-33.27-13.22-49.75-19.64L675.39,624.06z M779.07,694.27
		c-17.62-6.6-34.63-13.63-51.54-20.58l-0.83-0.33l2.64-22.55c17.62,7.1,35.23,14.28,52.22,21.34L779.07,694.27z M729.9,645.6
		l4.43-38.05c17.93,7.47,35.27,14.75,52.02,21.84l-4.23,37.55C765.06,659.81,747.54,652.65,729.9,645.6z M831.52,711.89
		c-16.43-4.73-32.24-10.11-47.64-15.8l2.52-21.92c16.33,6.78,32.21,13.45,47.34,19.87L831.52,711.89z M786.95,668.91l4.23-37.49
		c16.61,7.06,32.55,13.89,47.82,20.48l-4.53,36.91c-15.28-6.45-31.16-13.12-47.51-19.92V668.91z M886.28,724.53
		c-16.8-2.85-33.44-6.57-49.85-11.15l2.11-17.19c17.39,7.41,33.75,14.44,48.62,20.88L886.28,724.53z M887.77,711.89
		c-14.87-6.45-31.21-13.48-48.6-20.86l4.56-36.86c17.11,7.43,33.27,14.51,48.32,21.19L887.77,711.89z M892.65,670.1
		c-15.1-6.64-31.2-13.69-48.29-21.16l6.17-50.16l48.37,18.03L892.65,670.1z M899.49,611.64l-48.32-18.03l6.85-55.8l47.82,18.94
		L899.49,611.64z M957.65,633.34l-53.3-19.9l6.39-54.76l51.92,20.55L957.65,633.34z M963.14,574l-51.79-20.5l6.57-56.1l50.33,20.71
		L963.14,574z M1016.89,595.03l-48.92-19.32l5.16-55.8l48.49,19.92L1016.89,595.03z M1022.13,534.53l-48.44-19.92l5.03-53.9
		l48.12,20.23L1022.13,534.53z M1027.16,475.55l-48.09-20.1l4.08-44.04l47.82,20.53L1027.16,475.55z M1031.41,426.65l-47.82-20.53
		l3.62-39.16l47.66,20.76L1031.41,426.65z M1035.26,382.3l-47.51-20.63l4.18-45.03l47.26,20.23L1035.26,382.3z M1039.64,331.74
		l-47.21-20.23l4.53-48.92l46.98,19.59L1039.64,331.74z M1044.42,276.85l-46.98-19.59l5.03-54.43l46.68,19.42L1044.42,276.85z"/>
</g>
<g id="freepik--Ball--inject-11">
	<ellipse class="st2" cx="342.27" cy="144.36" rx="51.84" ry="52.08"/>
	<path class="st3" d="M342.27,197.71c-29.33,0-53.1-23.88-53.1-53.35c0-29.46,23.77-53.35,53.1-53.35s53.1,23.88,53.1,53.35
		C395.33,173.81,371.58,197.67,342.27,197.71z M342.27,93.55c-27.94,0-50.58,22.75-50.58,50.82c0,28.07,22.65,50.82,50.58,50.82
		s50.58-22.75,50.58-50.82C392.83,116.31,370.2,93.58,342.27,93.55L342.27,93.55z"/>
	<g>
		<defs>
			<ellipse id="SVGID_1_" cx="342.27" cy="144.36" rx="51.84" ry="52.08"/>
		</defs>
		<defs>
			<path id="SVGID_2_" d="M342.27,197.71c-29.33,0-53.1-23.88-53.1-53.35c0-29.46,23.77-53.35,53.1-53.35s53.1,23.88,53.1,53.35
				C395.33,173.81,371.58,197.67,342.27,197.71z M342.27,93.55c-27.94,0-50.58,22.75-50.58,50.82c0,28.07,22.65,50.82,50.58,50.82
				s50.58-22.75,50.58-50.82C392.83,116.31,370.2,93.58,342.27,93.55L342.27,93.55z"/>
		</defs>
		<clipPath id="SVGID_3_">
			<use xlink:href="#SVGID_1_"  style="overflow:visible;"/>
		</clipPath>
		<clipPath id="SVGID_4_" class="st4">
			<use xlink:href="#SVGID_2_"  style="overflow:visible;"/>
		</clipPath>
		<g class="st5">
			<path class="st0" d="M362.7,96.51c15.48,24.18,8.53,56.39-15.54,71.95c-14.49,9.36-32.65,10.88-48.48,4.05
				c15.48,24.18,47.55,31.17,71.61,15.61c24.07-15.56,31.02-47.77,15.54-71.95C380.25,107.45,372.19,100.6,362.7,96.51z"/>
			<path class="st6" d="M362.7,96.51c15.48,24.18,8.53,56.39-15.54,71.95c-14.49,9.36-32.65,10.88-48.48,4.05
				c15.48,24.18,47.55,31.17,71.61,15.61c24.07-15.56,31.02-47.77,15.54-71.95C380.25,107.45,372.19,100.6,362.7,96.51z"/>
		</g>
	</g>
	<path class="st3" d="M350.22,118.58l-1.48,23.29l-24.18,6.5l-11.45-18.53l14.45-18.76L350.22,118.58z M384.62,147.53l-18.7,8.24
		c0,0-4.73,17.55-5.71,21.79c4.98,1.92,10.17,3.27,15.45,4.02c0,0,10.22-10.77,12.71-18.03
		C388.37,163.66,386.64,151.37,384.62,147.53z M339.78,185.07c0,0-15.48-11.5-19.2-15.17c0,0-13.21,2.25-16.71,2.25
		c1.62,5.34,4.18,10.35,7.55,14.79c6.37,4.39,13.75,7.06,21.44,7.76L339.78,185.07z M325.06,98.68c5.08-2.8,10.48-4.97,16.08-6.47
		c-9.44,0.18-18.66,2.97-26.63,8.07c3.44-0.93,6.98-1.43,10.54-1.49V98.68z M384.12,126.49l5.18-4.12
		c-4.55-9.81-12.01-17.97-21.37-23.34l-4.25-0.61c0,0,4.5,10.11,3.75,13.27c6.14,4.27,11.74,9.27,16.68,14.89V126.49z
		 M291.41,154.48c0.75,0.09,1.52,0.03,2.24-0.2c-0.06-7.21,1.3-14.36,4-21.04c-0.92-4-1.53-8.07-1.81-12.16
		c-3.58,7.2-5.45,15.14-5.44,23.18c0,3.46,0.33,6.92,1.01,10.32V154.48z"/>
	<path class="st3" d="M333.41,195.99h-0.68c-7.94-0.7-15.56-3.46-22.12-8.01l-0.23-0.2c-3.47-4.54-6.09-9.68-7.73-15.17l-0.45-1.62
		h1.66c3.35,0,16.36-2.2,16.51-2.22l0.63-0.13l0.45,0.48c3.62,3.64,18.9,15.04,19.05,15.17l1.01,0.76L333.41,195.99z M312.22,186.01
		c5.95,4.06,12.8,6.59,19.96,7.38l5.84-7.94c-3.37-2.53-14.09-10.64-17.87-14.18c-2.32,0.38-10.37,1.69-14.57,2.07
		C307.09,177.9,309.33,182.18,312.22,186.01z M376.17,182.97h-0.58c-5.41-0.76-10.72-2.13-15.83-4.1l-1.03-0.4l0.25-1.06
		c0.98-4.25,5.54-21.11,5.74-21.84l0.15-0.58l20.33-8.98l0.53,1.04c2.09,3.92,3.8,15.93,3.88,16.43v0.3v0.3
		c-2.52,7.43-12.58,18.03-12.99,18.48L376.17,182.97z M361.7,176.85c4.34,1.64,8.85,2.82,13.44,3.51
		c1.86-2.02,9.69-10.75,11.95-16.86c-0.66-4.82-1.69-9.58-3.1-14.23l-17.01,7.58C366.23,159.64,362.91,171.97,361.7,176.85z
		 M292.09,155.87h-0.83h-0.91l-0.18-0.88c-0.68-3.45-1.03-6.95-1.03-10.47c-0.01-8.24,1.89-16.37,5.56-23.74l1.96-3.99l0.4,4.45
		c0.31,4.01,0.91,7.99,1.79,11.91v0.43l-0.18,0.43c-2.62,6.5-3.95,13.46-3.9,20.48v0.91l-0.86,0.33
		C293.32,155.85,292.71,155.9,292.09,155.87z M295.08,126.01c-2.27,5.85-3.43,12.08-3.42,18.36c0.01,2.8,0.24,5.59,0.7,8.34
		c0.16-6.66,1.5-13.25,3.95-19.44C295.75,130.88,295.34,128.45,295.08,126.01z M323.97,149.83l-12.41-20l15.53-20.23l24.46,8.09
		l-1.61,25.28L323.97,149.83z M314.64,129.83l10.49,16.96l22.4-6.02l1.38-21.41L328,112.43L314.64,129.83z M383.92,128.26
		l-0.78-0.99c-4.88-5.48-10.4-10.36-16.43-14.54l-0.68-0.48l0.18-0.83c0.48-2.07-1.99-8.75-3.65-12.46l-0.93-2.1l6.95,1.06
		c9.6,5.48,17.25,13.85,21.87,23.92l0.43,0.91L383.92,128.26z M368.82,111.09c5.66,3.96,10.87,8.53,15.55,13.63l3.42-2.71
		c-4.4-9.11-11.41-16.69-20.13-21.77l-1.81-0.25c1.59,3.54,2.58,7.33,2.92,11.2L368.82,111.09z M307.06,103.51l6.82-4.35
		c8.17-5.21,17.6-8.07,27.28-8.27l10.54-0.23l-10.07,2.71c-5.49,1.49-10.79,3.63-15.78,6.37l-0.28,0.15h-0.35
		c-3.46,0.09-6.89,0.61-10.22,1.54L307.06,103.51z M329.31,95.12c-2.36,0.62-4.68,1.41-6.92,2.38c0.83,0,1.64,0,2.52-0.13
		s2.06-1.06,4.35-2.1L329.31,95.12z"/>
	<polygon class="st3" points="323.84,99.02 326.3,98.51 328.79,110.78 326.33,111.28 	"/>
	<polygon class="st3" points="349.75,117.43 366.95,110.68 367.87,113.03 350.66,119.79 	"/>
	<path class="st3" d="M385.88,147.7l-2.52-0.18c0.43-6.93,0.27-13.88-0.48-20.78l2.52-0.33
		C386.19,133.48,386.35,140.61,385.88,147.7z"/>
	<polygon class="st3" points="347.96,142.8 349.54,140.84 366.74,154.86 365.15,156.82 	"/>
	<polygon class="st3" points="319.33,169.67 323.31,148.14 325.79,148.6 321.81,170.13 	"/>
	<path class="st3" d="M340.11,186.39l-0.68-2.53c6.9-1.97,17.92-5.56,19.98-7.26l1.61,1.95
		C357.9,181.23,341.92,185.88,340.11,186.39z"/>
	<polygon class="st3" points="297.39,132.11 312.86,128.6 313.41,131.06 297.95,134.58 	"/>
	<path class="st3" d="M302.94,173.01c-4.59-5.36-8.15-11.55-10.47-18.23l2.52-0.78c2.27,6.34,5.68,12.21,10.07,17.32L302.94,173.01z
		"/>
</g>
<g id="freepik--Character--inject-11">
	<path class="st2" d="M922.82,606.11c0,0,48.95,14.16,64.7,21.67c15.75,7.51,70.46,40.83,81.31,49.18
		c10.85,8.34,19.08,32.51,26.55,42.5s21.57,34.18,29.85,25c8.28-9.18,0-34.16-6.62-46.67c-6.62-12.51-19.1-19.16-24.06-25.84
		c-4.96-6.67-24.89-34.99-42.33-59.16c-17.44-24.17-29.85-36.69-46.51-43.33c-16.66-6.65-32.34-5.84-36.49-6.67
		c-4.15-0.83-19.91-9.18-19.91-9.18S936.92,598.6,922.82,606.11z"/>
	<path class="st3" d="M1121.03,747.77h-0.45c-7.3-0.46-15.6-12.41-22.3-22.02c-1.43-2.05-2.74-3.94-3.9-5.51
		c-3.41-5.06-6.42-10.37-9.01-15.9c-5.03-10.11-10.82-21.34-17.31-26.34c-10.52-8.14-64.8-41.31-81.06-49.05
		c-15.5-7.36-64.05-21.44-64.53-21.59c-0.49-0.14-0.85-0.57-0.91-1.09c-0.06-0.51,0.2-1,0.65-1.24
		c13.49-7.15,25.82-51.27,25.95-51.73c0.09-0.37,0.35-0.68,0.7-0.83c0.34-0.16,0.74-0.16,1.08,0c4.33,2.3,16.31,8.39,19.58,9.05
		c0.91,0.18,2.52,0.28,4.73,0.43c10.93,0.31,21.74,2.44,31.99,6.3c16.06,6.47,28.36,17.93,47.01,43.76
		c8.68,12.06,17.99,25.16,25.74,36.05s14.07,19.77,16.56,23.11c2.33,2.79,4.94,5.33,7.78,7.58c5.39,4.63,12.1,10.39,16.38,18.46
		c7.15,13.45,15.23,38.43,6.44,48.04C1124.9,746.8,1123.03,747.72,1121.03,747.77z M925.77,605.65
		c10.39,3.06,48.52,14.44,62.31,20.98c16.33,7.79,70.94,41.14,81.51,49.3c6.95,5.39,12.83,16.99,18.02,27.2
		c2.52,5.41,5.46,10.6,8.78,15.55c1.16,1.59,2.52,3.49,3.95,5.59c5.71,8.19,14.32,20.55,20.41,20.93c1.37,0.1,2.7-0.5,3.55-1.59
		c7.4-8.17,0.3-31.83-6.79-45.23c-4.11-6.85-9.47-12.86-15.8-17.7c-2.99-2.36-5.72-5.03-8.15-7.96
		c-2.52-3.34-8.73-12.09-16.58-23.13c-7.85-11.05-17.06-23.99-25.74-36.05c-18.32-25.41-30.35-36.63-45.9-42.98
		c-10-3.75-20.54-5.83-31.21-6.14c-1.69-0.05-3.37-0.2-5.03-0.46c-3.57-0.73-14.9-6.5-18.87-8.57
		C947.96,563,937.77,595.92,925.77,605.65z"/>
	<g>
		<defs>
			<path id="SVGID_5_" d="M922.82,606.11c0,0,48.95,14.16,64.7,21.67c15.75,7.51,70.46,40.83,81.31,49.18
				c10.85,8.34,19.08,32.51,26.55,42.5s21.57,34.18,29.85,25c8.28-9.18,0-34.16-6.62-46.67c-6.62-12.51-19.1-19.16-24.06-25.84
				c-4.96-6.67-24.89-34.99-42.33-59.16c-17.44-24.17-29.85-36.69-46.51-43.33c-16.66-6.65-32.34-5.84-36.49-6.67
				c-4.15-0.83-19.91-9.18-19.91-9.18S936.92,598.6,922.82,606.11z"/>
		</defs>
		<defs>
			<path id="SVGID_6_" d="M1121.03,747.77h-0.45c-7.3-0.46-15.6-12.41-22.3-22.02c-1.43-2.05-2.74-3.94-3.9-5.51
				c-3.41-5.06-6.42-10.37-9.01-15.9c-5.03-10.11-10.82-21.34-17.31-26.34c-10.52-8.14-64.8-41.31-81.06-49.05
				c-15.5-7.36-64.05-21.44-64.53-21.59c-0.49-0.14-0.85-0.57-0.91-1.09c-0.06-0.51,0.2-1,0.65-1.24
				c13.49-7.15,25.82-51.27,25.95-51.73c0.09-0.37,0.35-0.68,0.7-0.83c0.34-0.16,0.74-0.16,1.08,0c4.33,2.3,16.31,8.39,19.58,9.05
				c0.91,0.18,2.52,0.28,4.73,0.43c10.93,0.31,21.74,2.44,31.99,6.3c16.06,6.47,28.36,17.93,47.01,43.76
				c8.68,12.06,17.99,25.16,25.74,36.05s14.07,19.77,16.56,23.11c2.33,2.79,4.94,5.33,7.78,7.58c5.39,4.63,12.1,10.39,16.38,18.46
				c7.15,13.45,15.23,38.43,6.44,48.04C1124.9,746.8,1123.03,747.72,1121.03,747.77z M925.77,605.65
				c10.39,3.06,48.52,14.44,62.31,20.98c16.33,7.79,70.94,41.14,81.51,49.3c6.95,5.39,12.83,16.99,18.02,27.2
				c2.52,5.41,5.46,10.6,8.78,15.55c1.16,1.59,2.52,3.49,3.95,5.59c5.71,8.19,14.32,20.55,20.41,20.93c1.37,0.1,2.7-0.5,3.55-1.59
				c7.4-8.17,0.3-31.83-6.79-45.23c-4.11-6.85-9.47-12.86-15.8-17.7c-2.99-2.36-5.72-5.03-8.15-7.96
				c-2.52-3.34-8.73-12.09-16.58-23.13c-7.85-11.05-17.06-23.99-25.74-36.05c-18.32-25.41-30.35-36.63-45.9-42.98
				c-10-3.75-20.54-5.83-31.21-6.14c-1.69-0.05-3.37-0.2-5.03-0.46c-3.57-0.73-14.9-6.5-18.87-8.57
				C947.96,563,937.77,595.92,925.77,605.65z"/>
		</defs>
		<clipPath id="SVGID_7_">
			<use xlink:href="#SVGID_5_"  style="overflow:visible;"/>
		</clipPath>
		<clipPath id="SVGID_8_" class="st7">
			<use xlink:href="#SVGID_6_"  style="overflow:visible;"/>
		</clipPath>
		<g class="st8">
			<path class="st9" d="M1094.55,671.94c-5.03-6.65-24.89-34.99-42.33-59.16c-17.44-24.17-29.85-36.69-46.51-43.33
				c-16.66-6.65-32.34-5.84-36.49-6.67c-4.15-0.83-19.91-9.18-19.91-9.18s-2.16,7.81-5.71,17.47c9.08,2.98,20.36,6.73,32.72,10.85
				c30.48,10.11,79.73,51.8,85.97,64.37c4.78,9.56-22.65,3.67-42.51-0.38c20.13,12.01,42.56,26.04,49.05,31.05
				c10.77,8.34,19.08,32.51,26.55,42.5c7.47,9.99,21.57,34.18,29.85,25c8.28-9.18,0-34.16-6.62-46.67S1099.51,678.62,1094.55,671.94
				z"/>
		</g>
	</g>
	<path class="st2" d="M1094.55,671.94c-5.03-6.65-24.89-34.99-42.33-59.16c-7.45-10.95-16.05-21.06-25.64-30.16
		c0,3.64,0,7.58,0,11.83c-1.06,24.27-17.09,34.51-28.69,38.76c21.94,12.16,61.93,36.76,70.99,43.74
		c10.77,8.34,19.08,32.51,26.55,42.5c7.47,9.99,21.57,34.18,29.85,25c8.28-9.18,0-34.16-6.62-46.67
		C1112.04,685.27,1099.51,678.62,1094.55,671.94z"/>
	<path class="st3" d="M1121.03,747.77h-0.45c-7.3-0.46-15.6-12.41-22.3-22.02c-1.43-2.05-2.74-3.94-3.9-5.51
		c-3.41-5.06-6.42-10.37-9.01-15.9c-5.03-10.11-10.82-21.34-17.31-26.34c-8.81-6.8-48.52-31.3-70.84-43.66
		c-0.6-0.35-0.81-1.12-0.46-1.73c0.14-0.25,0.37-0.45,0.64-0.55c12.18-4.45,26.88-14.59,27.88-37.65c0.15-3.97,0.18-7.91,0-11.73
		c-0.02-0.7,0.53-1.28,1.22-1.3c0.32-0.01,0.63,0.1,0.87,0.31c7.68,6.85,15.63,16.23,25.85,30.34
		c8.68,12.06,17.99,25.16,25.74,36.05c7.75,10.9,14.07,19.77,16.56,23.11l0,0c2.33,2.79,4.94,5.33,7.78,7.58
		c5.39,4.63,12.1,10.39,16.38,18.46c7.15,13.45,15.23,38.43,6.44,48.04C1124.86,746.8,1123.01,747.71,1121.03,747.77z
		 M1000.69,633.41c22.65,12.64,60.25,35.9,68.8,42.53c6.95,5.39,12.83,16.99,18.02,27.2c2.52,5.41,5.46,10.6,8.78,15.55
		c1.16,1.59,2.52,3.49,3.95,5.59c5.71,8.19,14.32,20.55,20.41,20.93c1.37,0.1,2.7-0.5,3.55-1.59c7.4-8.17,0.3-31.83-6.79-45.23
		c-4.11-6.85-9.47-12.86-15.8-17.7c-2.99-2.36-5.72-5.03-8.15-7.96l0,0c-2.52-3.34-8.73-12.09-16.58-23.13
		c-7.85-11.05-17.06-23.99-25.74-36.05c-6.9-10.02-14.7-19.38-23.3-27.96c0,2.93,0,5.94-0.13,8.95
		C1026.78,617.36,1013.09,628.23,1000.69,633.41z"/>
	<path class="st10" d="M1094.55,671.94c-5.03-6.65-24.89-34.99-42.33-59.16c-17.44-24.17-29.85-36.69-46.51-43.33
		c-16.66-6.65-32.34-5.84-36.49-6.67c-4.15-0.83-19.91-9.18-19.91-9.18s-2.16,7.81-5.71,17.47c9.08,2.98,20.36,6.73,32.72,10.85
		c30.48,10.11,79.73,51.8,85.97,64.37c4.78,9.56-22.65,3.67-42.51-0.38c20.13,12.01,42.56,26.04,49.05,31.05
		c10.77,8.34,19.08,32.51,26.55,42.5c7.47,9.99,21.57,34.18,29.85,25c8.28-9.18,0-34.16-6.62-46.67S1099.51,678.62,1094.55,671.94z"
		/>
	<path class="st0" d="M1094.55,671.94c-5.03-6.65-24.89-34.99-42.33-59.16c-7.45-10.95-16.05-21.06-25.64-30.16
		c0,3.64,0,7.58,0,11.83c-1.06,24.27-17.09,34.51-28.69,38.76c21.94,12.16,61.93,36.76,70.99,43.74
		c10.77,8.34,19.08,32.51,26.55,42.5c7.47,9.99,21.57,34.18,29.85,25c8.28-9.18,0-34.16-6.62-46.67
		C1112.04,685.27,1099.51,678.62,1094.55,671.94z"/>
	<path class="st3" d="M1121.03,747.77h-0.45c-7.3-0.46-15.6-12.41-22.3-22.02c-1.43-2.05-2.74-3.94-3.9-5.51
		c-3.41-5.06-6.42-10.37-9.01-15.9c-5.03-10.11-10.82-21.34-17.31-26.34c-8.81-6.8-48.52-31.3-70.84-43.66
		c-0.6-0.35-0.81-1.12-0.46-1.73c0.14-0.25,0.37-0.45,0.64-0.55c12.18-4.45,26.88-14.59,27.88-37.65c0.15-3.97,0.18-7.91,0-11.73
		c-0.02-0.7,0.53-1.28,1.22-1.3c0.32-0.01,0.63,0.1,0.87,0.31c7.68,6.85,15.63,16.23,25.85,30.34
		c8.68,12.06,17.99,25.16,25.74,36.05c7.75,10.9,14.07,19.77,16.56,23.11l0,0c2.33,2.79,4.94,5.33,7.78,7.58
		c5.39,4.63,12.1,10.39,16.38,18.46c7.15,13.45,15.23,38.43,6.44,48.04C1124.86,746.8,1123.01,747.71,1121.03,747.77z
		 M1000.69,633.41c22.65,12.64,60.25,35.9,68.8,42.53c6.95,5.39,12.83,16.99,18.02,27.2c2.52,5.41,5.46,10.6,8.78,15.55
		c1.16,1.59,2.52,3.49,3.95,5.59c5.71,8.19,14.32,20.55,20.41,20.93c1.37,0.1,2.7-0.5,3.55-1.59c7.4-8.17,0.3-31.83-6.79-45.23
		c-4.11-6.85-9.47-12.86-15.8-17.7c-2.99-2.36-5.72-5.03-8.15-7.96l0,0c-2.52-3.34-8.73-12.09-16.58-23.13
		c-7.85-11.05-17.06-23.99-25.74-36.05c-6.9-10.02-14.7-19.38-23.3-27.96c0,2.93,0,5.94-0.13,8.95
		C1026.78,617.36,1013.09,628.23,1000.69,633.41z"/>
	<g>
		<defs>
			<path id="SVGID_9_" d="M1094.55,671.94c-5.03-6.65-24.89-34.99-42.33-59.16c-7.45-10.95-16.05-21.06-25.64-30.16
				c0,3.64,0,7.58,0,11.83c-1.06,24.27-17.09,34.51-28.69,38.76c21.94,12.16,61.93,36.76,70.99,43.74
				c10.77,8.34,19.08,32.51,26.55,42.5c7.47,9.99,21.57,34.18,29.85,25c8.28-9.18,0-34.16-6.62-46.67
				C1112.04,685.27,1099.51,678.62,1094.55,671.94z"/>
		</defs>
		<defs>
			<path id="SVGID_10_" d="M1121.03,747.77h-0.45c-7.3-0.46-15.6-12.41-22.3-22.02c-1.43-2.05-2.74-3.94-3.9-5.51
				c-3.41-5.06-6.42-10.37-9.01-15.9c-5.03-10.11-10.82-21.34-17.31-26.34c-8.81-6.8-48.52-31.3-70.84-43.66
				c-0.6-0.35-0.81-1.12-0.46-1.73c0.14-0.25,0.37-0.45,0.64-0.55c12.18-4.45,26.88-14.59,27.88-37.65c0.15-3.97,0.18-7.91,0-11.73
				c-0.02-0.7,0.53-1.28,1.22-1.3c0.32-0.01,0.63,0.1,0.87,0.31c7.68,6.85,15.63,16.23,25.85,30.34
				c8.68,12.06,17.99,25.16,25.74,36.05c7.75,10.9,14.07,19.77,16.56,23.11l0,0c2.33,2.79,4.94,5.33,7.78,7.58
				c5.39,4.63,12.1,10.39,16.38,18.46c7.15,13.45,15.23,38.43,6.44,48.04C1124.86,746.8,1123.01,747.71,1121.03,747.77z
				 M1000.69,633.41c22.65,12.64,60.25,35.9,68.8,42.53c6.95,5.39,12.83,16.99,18.02,27.2c2.52,5.41,5.46,10.6,8.78,15.55
				c1.16,1.59,2.52,3.49,3.95,5.59c5.71,8.19,14.32,20.55,20.41,20.93c1.37,0.1,2.7-0.5,3.55-1.59c7.4-8.17,0.3-31.83-6.79-45.23
				c-4.11-6.85-9.47-12.86-15.8-17.7c-2.99-2.36-5.72-5.03-8.15-7.96l0,0c-2.52-3.34-8.73-12.09-16.58-23.13
				c-7.85-11.05-17.06-23.99-25.74-36.05c-6.9-10.02-14.7-19.38-23.3-27.96c0,2.93,0,5.94-0.13,8.95
				C1026.78,617.36,1013.09,628.23,1000.69,633.41z"/>
		</defs>
		<clipPath id="SVGID_11_">
			<use xlink:href="#SVGID_9_"  style="overflow:visible;"/>
		</clipPath>
		<clipPath id="SVGID_12_" class="st11">
			<use xlink:href="#SVGID_10_"  style="overflow:visible;"/>
		</clipPath>
		<g class="st12">
			<path class="st9" d="M1118.61,697.78c-6.64-12.49-19.1-19.16-24.06-25.84c-4.96-6.67-24.89-34.99-42.33-59.16
				c-1.13-1.59-2.26-3.14-3.37-4.63l-0.86-1.14c-0.83-1.11-1.64-2.2-2.52-3.24l-0.91-1.16l-2.32-2.96l-0.83-1.01l-2.34-2.86
				c-0.25-0.28-0.5-0.56-0.73-0.86c-0.81-0.94-1.61-1.87-2.52-2.76l-0.6-0.68c-0.83-0.94-1.66-1.82-2.52-2.71l-0.45-0.48l-2.69-2.71
				l-0.25-0.25c-0.97-0.96-1.95-1.87-2.94-2.73l0,0c0,3.64,0,7.58,0,11.83c-0.19,5.13-1.22,10.2-3.05,14.99
				c19.08,14.36,35.38,29.96,38.81,36.84c4.78,9.56-22.65,3.67-42.51-0.38l0,0l3.7,2.22l0.58,0.33l7.17,4.35l0.5,0.3l3.35,2.05h0.23
				l3.6,2.2l0.25,0.18l3.27,2.02l0.35,0.23l3.4,2.1h0.15l2.97,1.87l0.6,0.38l5.79,3.69l0.6,0.38l2.24,1.47l0.38,0.25l2.37,1.54
				l0.45,0.3l1.79,1.19l0.43,0.3l1.84,1.26l0.25,0.18l1.33,0.94l0.38,0.28l1.26,0.94c10.77,8.34,19.08,32.51,26.55,42.5
				c7.47,9.99,21.57,34.18,29.85,25c2.16-2.66,3.36-5.97,3.4-9.41C1129.48,723.57,1123.57,707.16,1118.61,697.78z"/>
		</g>
	</g>
	<path class="st3" d="M1096.32,691.11c-2.52,6.62-11.6,1.69-18.25-3.11c6.57,10.57,12.21,24.45,17.41,31.43
		c7.55,10.11,21.57,34.18,29.85,25s0-34.16-6.62-46.67s-19.1-19.16-24.06-25.84C1098.16,677.7,1098.78,684.8,1096.32,691.11z"/>
	<path class="st3" d="M1121.03,747.77h-0.45c-7.3-0.46-15.6-12.41-22.3-22.02c-1.43-2.05-2.74-3.94-3.9-5.51
		c-3.41-5.06-6.42-10.37-9.01-15.9c-2.69-5.31-5.49-10.8-8.48-15.62c-0.37-0.59-0.2-1.37,0.38-1.75c0.44-0.28,1.01-0.26,1.43,0.05
		c6.39,4.63,11.43,6.73,14.14,5.92c1.05-0.34,1.86-1.17,2.19-2.22c2.34-5.91,1.78-12.57-1.51-18c-0.43-0.53-0.35-1.31,0.17-1.74
		c0.03-0.03,0.07-0.05,0.1-0.08c0.56-0.4,1.34-0.29,1.76,0.25c2.33,2.79,4.94,5.33,7.78,7.58c5.39,4.63,12.1,10.39,16.38,18.46
		c7.15,13.45,15.23,38.43,6.44,48.04C1124.91,746.78,1123.03,747.72,1121.03,747.77z M1081.82,692.14
		c2.01,3.59,3.93,7.36,5.79,11.05c2.52,5.41,5.46,10.6,8.78,15.55c1.16,1.59,2.52,3.49,3.95,5.59c5.71,8.19,14.32,20.55,20.41,20.93
		c1.37,0.1,2.7-0.5,3.55-1.59c7.4-8.17,0.3-31.83-6.79-45.23c-4.11-6.85-9.47-12.86-15.8-17.7c-1.18-1.04-2.34-2.02-3.4-2.98
		c1.13,4.61,0.81,9.46-0.93,13.88l0,0c-0.57,1.81-1.99,3.22-3.8,3.77c-2.82,0.79-6.74-0.31-11.75-3.31V692.14z M1096.32,691.11
		L1096.32,691.11z"/>
	<path class="st2" d="M810,631.95c0,0,46.46,38.33,72.98,43.33c26.52,5.01,33.17-21.67,40.64-42.5c4.55-12.89,7.34-26.35,8.28-40
		l-24.03-6.67c0,0-6.64,13.32-13.29,17.5c-6.64,4.17-19.08-7.58-27.38-5.06C858.9,601.07,823.27,627.9,810,631.95z"/>
	<path class="st3" d="M889.3,677.18c-2.2-0.01-4.39-0.23-6.54-0.66c-26.55-5.06-71.65-42.02-73.56-43.59
		c-0.36-0.3-0.52-0.78-0.43-1.24c0.08-0.46,0.41-0.83,0.86-0.96c7.17-2.25,21.39-11.45,33.9-19.57
		c10.47-6.75,19.48-12.64,23.35-13.75c4.43-1.34,9.59,0.83,14.6,2.93s9.59,4.02,12.58,2.2c6.27-3.94,12.73-16.86,12.81-16.99
		c0.25-0.56,0.88-0.84,1.46-0.66l24.06,6.65c0.55,0.18,0.92,0.71,0.91,1.29c-0.96,13.8-3.77,27.41-8.36,40.45
		c-0.63,1.74-1.26,3.54-1.89,5.36C916.63,656.77,909.56,677.18,889.3,677.18z M812.52,632.37c8.66,6.93,47.64,37.32,70.72,41.67
		s30.4-16.31,37.35-36.31l1.89-5.39c4.35-12.47,7.09-25.46,8.15-38.63l-22.1-6.12c-1.66,3.16-7.35,13.37-13.24,17.09
		c-4,2.53-9.26,0.3-14.8-2.02c-4.58-1.92-9.34-3.92-12.88-2.86s-12.86,7.1-22.65,13.48C833.36,620.77,820.42,629.16,812.52,632.37
		L812.52,632.37z"/>
	<g>
		<defs>
			<path id="SVGID_13_" d="M810,631.95c0,0,46.46,38.33,72.98,43.33c26.52,5.01,33.17-21.67,40.64-42.5
				c4.55-12.89,7.34-26.35,8.28-40l-24.03-6.67c0,0-6.64,13.32-13.29,17.5c-6.64,4.17-19.08-7.58-27.38-5.06
				C858.9,601.07,823.27,627.9,810,631.95z"/>
		</defs>
		<defs>
			<path id="SVGID_14_" d="M889.3,677.18c-2.2-0.01-4.39-0.23-6.54-0.66c-26.55-5.06-71.65-42.02-73.56-43.59
				c-0.36-0.3-0.52-0.78-0.43-1.24c0.08-0.46,0.41-0.83,0.86-0.96c7.17-2.25,21.39-11.45,33.9-19.57
				c10.47-6.75,19.48-12.64,23.35-13.75c4.43-1.34,9.59,0.83,14.6,2.93s9.59,4.02,12.58,2.2c6.27-3.94,12.73-16.86,12.81-16.99
				c0.25-0.56,0.88-0.84,1.46-0.66l24.06,6.65c0.55,0.18,0.92,0.71,0.91,1.29c-0.96,13.8-3.77,27.41-8.36,40.45
				c-0.63,1.74-1.26,3.54-1.89,5.36C916.63,656.77,909.56,677.18,889.3,677.18z M812.52,632.37c8.66,6.93,47.64,37.32,70.72,41.67
				s30.4-16.31,37.35-36.31l1.89-5.39c4.35-12.47,7.09-25.46,8.15-38.63l-22.1-6.12c-1.66,3.16-7.35,13.37-13.24,17.09
				c-4,2.53-9.26,0.3-14.8-2.02c-4.58-1.92-9.34-3.92-12.88-2.86s-12.86,7.1-22.65,13.48C833.36,620.77,820.42,629.16,812.52,632.37
				L812.52,632.37z"/>
		</defs>
		<clipPath id="SVGID_15_">
			<use xlink:href="#SVGID_13_"  style="overflow:visible;"/>
		</clipPath>
		<clipPath id="SVGID_16_" class="st13">
			<use xlink:href="#SVGID_14_"  style="overflow:visible;"/>
		</clipPath>
		<g class="st14">
			<path class="st9" d="M810,631.95c0,0,46.46,38.33,72.98,43.33c26.52,5.01,33.17-21.67,40.64-42.5c4.55-12.89,7.34-26.35,8.28-40
				l-24.03-6.67c0,0-6.64,13.32-13.29,17.5c-6.64,4.17-19.08-7.58-27.38-5.06C858.9,601.07,823.27,627.9,810,631.95z"/>
			<path class="st3" d="M903.85,646.58c-0.66-0.01-1.21-0.53-1.26-1.19c-0.68-11.71-3.35-15.37-3.37-15.4
				c-0.38-0.58-0.23-1.37,0.35-1.75c0.51-0.34,1.19-0.26,1.61,0.18c0.13,0.15,3.17,4.12,3.93,16.81c0.03,0.69-0.49,1.29-1.18,1.34
				H903.85z"/>
		</g>
	</g>
	<path class="st0" d="M711.28,532.76c0,0,18.25,27.51,24.06,35.85c5.81,8.34,62.21,75.01,62.21,75.01s11.63,1.64,34.02-5.84
		s40.77-26.67,40.77-26.67l21.57,19.16c0,0,25.59-6.67,43.86-22.6c18.27-15.93,20.71-58.15,20.71-58.15s-40.64-29.15-54.74-44.17
		c-14.09-15.02-43.16-31.68-57.25-35.09c-14.09-3.41-27.38-5.84-27.38-5.84s-13.26,27.51-34.83,40.83
		c-21.57,13.32-38.18,15.85-48.95,18.36S710.45,522.77,711.28,532.76z"/>
	<path class="st3" d="M800.89,645.04c-1.18,0.02-2.35-0.04-3.52-0.18c-0.3-0.05-0.58-0.2-0.78-0.43
		c-2.32-2.73-56.52-66.82-62.29-75.12c-5.76-8.29-23.91-35.57-24.08-35.85c-0.11-0.19-0.18-0.39-0.2-0.61
		c-0.28-2,0.28-4.02,1.54-5.59c2.52-3.03,7.73-3.36,13.69-3.74c3.3-0.14,6.58-0.53,9.81-1.16c1.23-0.3,2.52-0.58,3.95-0.88
		c15.81-2.95,30.94-8.81,44.62-17.29c20.99-13,34.23-40.05,34.35-40.33c0.26-0.5,0.81-0.78,1.36-0.68c0.15,0,13.46,2.53,27.46,5.84
		c13.99,3.31,43.74,20.23,57.88,35.4c14.14,15.17,54.16,43.71,54.56,44.02c0.35,0.25,0.55,0.66,0.53,1.09
		c0,1.77-2.72,43.23-21.16,59.24c-18.45,16-44.22,22.75-44.47,22.75c-0.41,0.12-0.85,0.01-1.16-0.28l-20.64-18.51
		c-3.9,3.87-20.59,19.54-40.27,26.14C822.07,642.57,811.55,644.65,800.89,645.04z M798.18,642.51c2.34,0.2,13.64,0.66,32.99-5.84
		c21.84-7.31,39.96-26.14,40.14-26.34c0.49-0.47,1.25-0.47,1.74,0l21.06,18.73c4.05-1.16,26.6-7.99,42.78-22.07
		c16.18-14.08,19.81-51.25,20.13-56.76c-5.18-3.74-41.07-29.81-54.36-43.92c-13.82-14.71-42.78-31.35-56.6-34.66
		c-11.8-2.78-23.13-5.06-26.4-5.64c-2.52,4.88-15.1,28.29-34.88,40.45c-13.88,8.66-29.24,14.66-45.3,17.7l-3.93,0.86
		c-3.37,0.7-6.78,1.1-10.22,1.21c-5.16,0.35-10.07,0.66-11.93,2.91c-0.77,0.96-1.11,2.19-0.96,3.41
		c1.94,2.91,18.42,27.81,23.86,35.52c5.44,7.71,57.23,68.85,61.86,74.33V642.51z"/>
	<g>
		<defs>
			<path id="SVGID_17_" d="M711.28,532.76c0,0,18.25,27.51,24.06,35.85c5.81,8.34,62.21,75.01,62.21,75.01s11.63,1.64,34.02-5.84
				s40.77-26.67,40.77-26.67l21.57,19.16c0,0,25.59-6.67,43.86-22.6c18.27-15.93,20.71-58.15,20.71-58.15s-40.64-29.15-54.74-44.17
				c-14.09-15.02-43.16-31.68-57.25-35.09c-14.09-3.41-27.38-5.84-27.38-5.84s-13.26,27.51-34.83,40.83
				c-21.57,13.32-38.18,15.85-48.95,18.36S710.45,522.77,711.28,532.76z"/>
		</defs>
		<defs>
			<path id="SVGID_18_" d="M800.89,645.04c-1.18,0.02-2.35-0.04-3.52-0.18c-0.3-0.05-0.58-0.2-0.78-0.43
				c-2.32-2.73-56.52-66.82-62.29-75.12c-5.76-8.29-23.91-35.57-24.08-35.85c-0.11-0.19-0.18-0.39-0.2-0.61
				c-0.28-2,0.28-4.02,1.54-5.59c2.52-3.03,7.73-3.36,13.69-3.74c3.3-0.14,6.58-0.53,9.81-1.16c1.23-0.3,2.52-0.58,3.95-0.88
				c15.81-2.95,30.94-8.81,44.62-17.29c20.99-13,34.23-40.05,34.35-40.33c0.26-0.5,0.81-0.78,1.36-0.68
				c0.15,0,13.46,2.53,27.46,5.84c13.99,3.31,43.74,20.23,57.88,35.4c14.14,15.17,54.16,43.71,54.56,44.02
				c0.35,0.25,0.55,0.66,0.53,1.09c0,1.77-2.72,43.23-21.16,59.24c-18.45,16-44.22,22.75-44.47,22.75
				c-0.41,0.12-0.85,0.01-1.16-0.28l-20.64-18.51c-3.9,3.87-20.59,19.54-40.27,26.14C822.07,642.57,811.55,644.65,800.89,645.04z
				 M798.18,642.51c2.34,0.2,13.64,0.66,32.99-5.84c21.84-7.31,39.96-26.14,40.14-26.34c0.49-0.47,1.25-0.47,1.74,0l21.06,18.73
				c4.05-1.16,26.6-7.99,42.78-22.07c16.18-14.08,19.81-51.25,20.13-56.76c-5.18-3.74-41.07-29.81-54.36-43.92
				c-13.82-14.71-42.78-31.35-56.6-34.66c-11.8-2.78-23.13-5.06-26.4-5.64c-2.52,4.88-15.1,28.29-34.88,40.45
				c-13.88,8.66-29.24,14.66-45.3,17.7l-3.93,0.86c-3.37,0.7-6.78,1.1-10.22,1.21c-5.16,0.35-10.07,0.66-11.93,2.91
				c-0.77,0.96-1.11,2.19-0.96,3.41c1.94,2.91,18.42,27.81,23.86,35.52c5.44,7.71,57.23,68.85,61.86,74.33V642.51z"/>
		</defs>
		<clipPath id="SVGID_19_">
			<use xlink:href="#SVGID_17_"  style="overflow:visible;"/>
		</clipPath>
		<clipPath id="SVGID_20_" class="st15">
			<use xlink:href="#SVGID_18_"  style="overflow:visible;"/>
		</clipPath>
		<g class="st16">
			<path class="st9" d="M933.34,581.91l15.63-1.57l-7.02-3.94c0,0-7.05-4.7-20.33-12.64s-51.56-32.19-51.56-32.19l39.86,14.92
				c0,0-28.14-21.97-54.71-39.26c-26.58-17.29-40.74-13.32-40.74-13.32l-5.59-12.64c3.85-5.29,7.28-10.88,10.24-16.71
				c0,0,13.29,2.53,27.38,5.84c14.09,3.31,43.13,20,57.25,34.99c14.12,14.99,54.74,44.14,54.74,44.14s-1.41,24.04-9.87,42.7
				L933.34,581.91z M802.05,575.62c-7.2-4.57-14.78-8.51-22.65-11.78c0,0,20.33,16.51,37.52,25.13s29.7,14.13,29.7,14.13
				l-41.42,0.78l40.64,15.7c0,0-29.42,19.06-42.23,24.12c9.55-0.71,18.96-2.7,27.98-5.92c22.4-7.58,40.64-26.67,40.64-26.67
				l-28.09-20.07C836.73,589.04,812.57,582.24,802.05,575.62z M829.08,580.27l15.1,10.77l2.19,0.58L829.08,580.27z"/>
		</g>
	</g>
	<path class="st3" d="M869.47,494.96c-17.16-8.62-45.63-11.98-61.05-13.2c-2.41,3.29-4.99,6.46-7.73,9.48
		c10.85,0.63,45.8,3.34,64.32,12.64c8.41,4.22,19.93,14.79,32.14,25.99c18.17,16.66,38.48,35.27,57.88,42.3
		c0.81-3.54,1.43-6.9,1.91-9.94c-17.11-6.75-36.09-24.15-53.1-39.74C890.58,510.33,879.11,499.82,869.47,494.96z"/>
	<path class="st2" d="M631.3,343.57c0,0-23-5.44-35.84-5.44h-34.5l-53.53-25.81l-55.36-93.77l-20.99,12.89
		c0,0,21.64,51.65,27.05,74.08c5.41,22.43,28.41,48.92,30.45,50.29c2.04,1.37,43.96,20.38,65.61,28.54
		c21.64,8.17,56.82,21.06,56.82,21.06s34.48,39.42,46.66,57.09c12.18,17.67,36.54,55.62,41.27,63.86
		c4.73,8.24,20.28,13.6,28.41,10.87s25.69-10.11,37.87-10.11c12.18,0,32.46-6.12,43.96-15.62c11.5-9.51,20.28-35.4,17.62-42.8
		c-2.67-7.41-8.81-11.55-14.22-20.4c-5.41-8.85-39.23-77.47-39.23-77.47s41.95,0,81.19-13.58l-12.86,21.06l27.05,10.87
		c0,0,30.43-31.93,36.52-48.24c6.09-16.31,8.81-36.71,3.4-39.42c-5.41-2.71-19.63,0.68-33.82,2.02s-57.5,10.87-70.46,10.87
		s-47.36-4.75-61.56,0.68c-14.19,5.44-34.5,16.31-45.3,19.04c-10.8,2.73-20.28,5.44-25.69,5.44
		C666.41,339.57,631.3,343.57,631.3,343.57z"/>
	<path class="st3" d="M722.33,539.23c-9.01,0-20.49-5.33-24.46-12.24c-4.88-8.37-29.32-46.5-41.22-63.79
		c-11.5-16.69-43.46-53.37-46.36-56.71c-3.5-1.29-36.19-13.3-56.55-20.96c-20.94-7.89-63.47-27.08-65.86-28.67
		c-2.01-1.37-25.47-28.29-30.95-51.05c-5.34-22.07-26.78-73.32-27-73.88c-0.23-0.58-0.02-1.23,0.5-1.57l20.96-12.92
		c0.3-0.17,0.65-0.23,0.98-0.15c0.32,0.08,0.6,0.29,0.75,0.58l55.36,93.55l52.85,25.54h34.18c12.33,0,33.4,4.83,35.91,5.41
		c3.25-0.35,35.23-4.05,40.52-4.05c6.77-0.68,13.45-2.03,19.96-4.02l5.44-1.39c8.8-2.84,17.37-6.34,25.64-10.47
		c6.72-3.08,13.67-6.27,19.53-8.5c10.62-4.07,32.06-2.53,47.82-1.52c5.81,0.4,10.85,0.73,14.29,0.73c7.35,0,25.39-3.26,41.3-6.14
		c11.78-2.12,22.9-4.15,28.92-4.7c4.15-0.4,8.25-0.96,12.23-1.52c9.71-1.34,18.09-2.53,22.27-0.4c6.9,3.46,2.82,26.02-2.77,40.98
		c-6.12,16.36-35.53,47.38-36.79,48.69c-0.36,0.36-0.91,0.47-1.38,0.28l-27.05-10.87c-0.34-0.14-0.61-0.41-0.73-0.76
		c-0.1-0.36-0.05-0.74,0.13-1.06l11.05-18.1c-24.75,7.58-50.41,11.79-76.28,12.51c5.39,10.87,33.47,67.68,38.3,75.57
		c2.06,3.25,4.36,6.34,6.9,9.23c3.14,3.32,5.65,7.18,7.42,11.4c3.02,8.37-6.69,34.87-17.99,44.19
		c-11.88,9.84-32.46,15.93-44.74,15.93c-9.64,0-23,4.88-31.86,8.12c-2.16,0.78-4.05,1.49-5.64,2.02
		C726.08,539.08,724.2,539.31,722.33,539.23z M432.67,231.97c3.05,7.31,21.74,52.71,26.7,73.32c5.31,22.07,27.86,48.04,29.92,49.53
		c2.06,1.49,43.46,20.23,65.43,28.42c21.39,8.07,56.45,20.93,56.8,21.06c0.2,0.07,0.37,0.19,0.5,0.35
		c0.35,0.4,34.68,39.67,46.76,57.19c12.08,17.52,36.44,55.62,41.32,63.97c4.53,7.81,19.68,12.64,26.93,10.32l5.56-2
		c9.01-3.29,22.65-8.27,32.72-8.27c11.83,0,31.71-5.87,43.16-15.35c11.45-9.48,19.7-34.49,17.21-41.39c-1.67-3.94-4.04-7.55-7-10.64
		c-2.6-2.99-4.98-6.18-7.1-9.53c-5.39-8.77-37.93-74.76-39.31-77.57c-0.2-0.38-0.2-0.83,0-1.21c0.22-0.38,0.62-0.61,1.06-0.61
		c0.43,0,42.2-0.15,80.76-13.53c0.5-0.16,1.04,0,1.38,0.4c0.31,0.44,0.31,1.03,0,1.47l-12.08,19.77l24.89,10.11
		c4.23-4.53,30.2-32.56,35.69-47.2c6.74-18.08,7.83-35.9,3.98-37.92c-3.47-1.74-11.88-0.58-20.79,0.66c-4,0.56-8.15,1.11-12.33,1.52
		c-5.91,0.58-16.99,2.53-28.71,4.7c-16.81,3.03-34.18,6.17-41.75,6.17c-3.52,0-8.61-0.33-14.47-0.73
		c-15.43-1.06-36.54-2.53-46.63,1.34c-5.79,2.2-12.71,5.39-19.38,8.44c-8.41,4.22-17.14,7.77-26.1,10.62l-5.41,1.39
		c-6.71,2.06-13.6,3.43-20.59,4.1c-5.28,0-40.09,4.02-40.44,4.07c-0.14,0.03-0.29,0.03-0.43,0c-0.25,0-23.03-5.41-35.56-5.41h-34.4
		c-0.18,0.04-0.37,0.04-0.55,0l-53.43-25.81c-0.23-0.11-0.42-0.29-0.55-0.51l-54.81-92.66L432.67,231.97z"/>
	<g>
		<defs>
			<path id="SVGID_21_" d="M631.3,343.57c0,0-23-5.44-35.84-5.44h-34.5l-53.53-25.81l-55.36-93.77l-20.99,12.89
				c0,0,21.64,51.65,27.05,74.08c5.41,22.43,28.41,48.92,30.45,50.29c2.04,1.37,43.96,20.38,65.61,28.54
				c21.64,8.17,56.82,21.06,56.82,21.06s34.48,39.42,46.66,57.09c12.18,17.67,36.54,55.62,41.27,63.86
				c4.73,8.24,20.28,13.6,28.41,10.87s25.69-10.11,37.87-10.11c12.18,0,32.46-6.12,43.96-15.62c11.5-9.51,20.28-35.4,17.62-42.8
				c-2.67-7.41-8.81-11.55-14.22-20.4c-5.41-8.85-39.23-77.47-39.23-77.47s41.95,0,81.19-13.58l-12.86,21.06l27.05,10.87
				c0,0,30.43-31.93,36.52-48.24c6.09-16.31,8.81-36.71,3.4-39.42c-5.41-2.71-19.63,0.68-33.82,2.02s-57.5,10.87-70.46,10.87
				s-47.36-4.75-61.56,0.68c-14.19,5.44-34.5,16.31-45.3,19.04c-10.8,2.73-20.28,5.44-25.69,5.44
				C666.41,339.57,631.3,343.57,631.3,343.57z"/>
		</defs>
		<defs>
			<path id="SVGID_22_" d="M722.33,539.23c-9.01,0-20.49-5.33-24.46-12.24c-4.88-8.37-29.32-46.5-41.22-63.79
				c-11.5-16.69-43.46-53.37-46.36-56.71c-3.5-1.29-36.19-13.3-56.55-20.96c-20.94-7.89-63.47-27.08-65.86-28.67
				c-2.01-1.37-25.47-28.29-30.95-51.05c-5.34-22.07-26.78-73.32-27-73.88c-0.23-0.58-0.02-1.23,0.5-1.57l20.96-12.92
				c0.3-0.17,0.65-0.23,0.98-0.15c0.32,0.08,0.6,0.29,0.75,0.58l55.36,93.55l52.85,25.54h34.18c12.33,0,33.4,4.83,35.91,5.41
				c3.25-0.35,35.23-4.05,40.52-4.05c6.77-0.68,13.45-2.03,19.96-4.02l5.44-1.39c8.8-2.84,17.37-6.34,25.64-10.47
				c6.72-3.08,13.67-6.27,19.53-8.5c10.62-4.07,32.06-2.53,47.82-1.52c5.81,0.4,10.85,0.73,14.29,0.73c7.35,0,25.39-3.26,41.3-6.14
				c11.78-2.12,22.9-4.15,28.92-4.7c4.15-0.4,8.25-0.96,12.23-1.52c9.71-1.34,18.09-2.53,22.27-0.4c6.9,3.46,2.82,26.02-2.77,40.98
				c-6.12,16.36-35.53,47.38-36.79,48.69c-0.36,0.36-0.91,0.47-1.38,0.28l-27.05-10.87c-0.34-0.14-0.61-0.41-0.73-0.76
				c-0.1-0.36-0.05-0.74,0.13-1.06l11.05-18.1c-24.75,7.58-50.41,11.79-76.28,12.51c5.39,10.87,33.47,67.68,38.3,75.57
				c2.06,3.25,4.36,6.34,6.9,9.23c3.14,3.32,5.65,7.18,7.42,11.4c3.02,8.37-6.69,34.87-17.99,44.19
				c-11.88,9.84-32.46,15.93-44.74,15.93c-9.64,0-23,4.88-31.86,8.12c-2.16,0.78-4.05,1.49-5.64,2.02
				C726.08,539.08,724.2,539.31,722.33,539.23z M432.67,231.97c3.05,7.31,21.74,52.71,26.7,73.32
				c5.31,22.07,27.86,48.04,29.92,49.53c2.06,1.49,43.46,20.23,65.43,28.42c21.39,8.07,56.45,20.93,56.8,21.06
				c0.2,0.07,0.37,0.19,0.5,0.35c0.35,0.4,34.68,39.67,46.76,57.19c12.08,17.52,36.44,55.62,41.32,63.97
				c4.53,7.81,19.68,12.64,26.93,10.32l5.56-2c9.01-3.29,22.65-8.27,32.72-8.27c11.83,0,31.71-5.87,43.16-15.35
				c11.45-9.48,19.7-34.49,17.21-41.39c-1.67-3.94-4.04-7.55-7-10.64c-2.6-2.99-4.98-6.18-7.1-9.53
				c-5.39-8.77-37.93-74.76-39.31-77.57c-0.2-0.38-0.2-0.83,0-1.21c0.22-0.38,0.62-0.61,1.06-0.61c0.43,0,42.2-0.15,80.76-13.53
				c0.5-0.16,1.04,0,1.38,0.4c0.31,0.44,0.31,1.03,0,1.47l-12.08,19.77l24.89,10.11c4.23-4.53,30.2-32.56,35.69-47.2
				c6.74-18.08,7.83-35.9,3.98-37.92c-3.47-1.74-11.88-0.58-20.79,0.66c-4,0.56-8.15,1.11-12.33,1.52
				c-5.91,0.58-16.99,2.53-28.71,4.7c-16.81,3.03-34.18,6.17-41.75,6.17c-3.52,0-8.61-0.33-14.47-0.73
				c-15.43-1.06-36.54-2.53-46.63,1.34c-5.79,2.2-12.71,5.39-19.38,8.44c-8.41,4.22-17.14,7.77-26.1,10.62l-5.41,1.39
				c-6.71,2.06-13.6,3.43-20.59,4.1c-5.28,0-40.09,4.02-40.44,4.07c-0.14,0.03-0.29,0.03-0.43,0c-0.25,0-23.03-5.41-35.56-5.41
				h-34.4c-0.18,0.04-0.37,0.04-0.55,0l-53.43-25.81c-0.23-0.11-0.42-0.29-0.55-0.51l-54.81-92.66L432.67,231.97z"/>
		</defs>
		<clipPath id="SVGID_23_">
			<use xlink:href="#SVGID_21_"  style="overflow:visible;"/>
		</clipPath>
		<clipPath id="SVGID_24_" class="st17">
			<use xlink:href="#SVGID_22_"  style="overflow:visible;"/>
		</clipPath>
		<g class="st18">
			<path class="st9" d="M849.41,365.51l4.88-8.01C853.15,360.44,851.5,363.15,849.41,365.51z M723.11,368.35
				c0,0,19.55,12.64,26.58,17.27s53.15,68.26,53.15,68.26l-65.66-32.21l78.17,53.4l-90.6-18.84l93.79,30.62l-71.12-3.92
				c0,0,76.58,7.84,68.78,16.48c-7.8,8.65-23.45,16.48-42.2,17.27s-41.42-10.11-41.42-10.11s22.65,14.92,14.07,15.7
				c-8.58,0.78-29.7,8.65-41.42-5.49c-11.73-14.13-85.97-115.42-85.97-115.42l-30.48-20.43l4.68,8.65c0,0-92.31-31.45-105.6-44.85
				c-7.1-7.16-20.49-27.81-31.38-45.51c0.65,2.22,1.23,4.3,1.66,6.17c5.41,22.43,28.41,48.92,30.45,50.29
				c2.04,1.37,43.96,20.38,65.61,28.54c21.64,8.17,56.82,21.19,56.82,21.19s34.48,39.42,46.66,57.09
				c12.18,17.67,36.54,55.62,41.27,63.86c4.73,8.24,20.28,13.6,28.41,10.87s25.69-10.11,37.87-10.11c12.18,0,32.46-6.12,43.96-15.62
				c11.5-9.51,20.28-35.4,17.62-42.8c-2.67-7.41-8.81-11.55-14.22-20.4c-5.41-8.85-39.23-77.47-39.23-77.47s41.9,0,81.11-13.55
				c1.19-2.77,2.22-5.61,3.1-8.5l3.12-7.84c0,0-41.42,21.19-64.88,21.97C772.36,363.69,723.11,368.35,723.11,368.35z M908.63,301.45
				c-0.35-0.17-0.71-0.32-1.08-0.43c0.17,2.06-0.1,4.12-0.78,6.07c-3.9,12.64-32.72,69.1-32.72,69.1s0.58,2.38,1.48,5.61
				c9.31-10.42,25.54-29.51,29.8-40.93C911.32,324.51,914.04,304.28,908.63,301.45z"/>
		</g>
	</g>
	<path class="st3" d="M435.71,242.72l24.18-10.95l-7.83-13.22l-20.96,12.89C431.11,231.44,432.94,236.02,435.71,242.72z"/>
	<path class="st3" d="M435.71,243.98c-0.16,0.02-0.32,0.02-0.48,0c-0.31-0.13-0.56-0.39-0.68-0.71c-2.77-6.8-4.63-11.25-4.63-11.25
		c-0.23-0.58-0.02-1.23,0.5-1.57l20.96-12.92c0.3-0.17,0.65-0.23,0.98-0.15c0.32,0.08,0.6,0.29,0.75,0.58l7.85,13.25
		c0.15,0.32,0.15,0.69,0,1.01c-0.1,0.35-0.35,0.64-0.68,0.78l-24.16,10.95C436,243.99,435.85,244,435.71,243.98z M432.67,231.97
		l3.72,9.05l21.69-9.81l-6.47-10.92L432.67,231.97z"/>
	<path class="st3" d="M841.66,378.23c0.37-6.1,4.84-11.15,10.82-12.24c10.82-2.71,23.68,3.39,27.05,6.8
		c3.37,3.41-2.72,13.58-7.55,21.74S844.35,389.79,841.66,378.23z"/>
	<path class="st3" d="M866.8,398.36c-0.73,0-1.46-0.05-2.19-0.15c-9.14-1.39-22.07-10.72-24.18-19.7c-0.01-0.09-0.01-0.19,0-0.28
		c0.4-6.66,5.25-12.2,11.78-13.45c11.1-2.81,24.29,3.14,28.24,7.13c3.95,3.99-1.51,13.43-6.82,22.55l-0.43,0.71
		C871.85,397.38,869.37,398.61,866.8,398.36z M842.92,378.13c1.94,7.58,13.99,16.38,22.05,17.7c2.11,0.3,4.86,0.25,6.04-1.8
		l0.43-0.73c3.9-6.73,9.81-16.89,7.22-19.49c-3.1-3.08-15.63-9.03-25.87-6.45c-5.34,0.9-9.4,5.32-9.87,10.75V378.13z"/>
	<path class="st0" d="M812.57,448.21c-5.41-8.82-39.23-77.47-39.23-77.47c17.76-0.36,35.45-2.33,52.85-5.89
		c-4.71-10.37-12.18-34.21,6.39-54.26c-9.3,1.89-18.72,3.16-28.19,3.79c-12.86,0-47.36-4.75-61.56,0.68
		c-14.19,5.44-34.5,16.31-45.3,19.04s-20.28,5.44-25.69,5.44c-5.41,0-40.59,4.07-40.59,4.07s-23-5.44-35.84-5.44h-34.45l-16.36-7.89
		c-1.95,17.16-1.04,34.54,2.69,51.4c2.52,0.99,4.78,1.9,6.9,2.71c21.64,8.14,56.82,21.06,56.82,21.06s34.48,39.42,46.66,57.09
		c12.18,17.67,36.54,55.62,41.27,63.86c4.73,8.24,20.28,13.6,28.41,10.87s25.69-10.11,37.87-10.11c12.18,0,32.46-6.12,43.96-15.62
		s20.28-35.4,17.62-42.8C824.15,461.34,817.98,457.06,812.57,448.21z"/>
	<path class="st3" d="M722.33,539.23c-9.01,0-20.49-5.33-24.46-12.24c-4.88-8.37-29.32-46.5-41.22-63.79
		c-11.5-16.69-43.46-53.37-46.36-56.71c-3.5-1.29-36.19-13.3-56.55-20.96l-6.92-2.71c-0.38-0.15-0.66-0.48-0.76-0.88
		c-3.8-17.01-4.72-34.54-2.72-51.86c0.06-0.41,0.3-0.76,0.65-0.96c0.36-0.19,0.79-0.19,1.16,0l16.08,7.76h34.28
		c12.33,0,33.4,4.83,35.91,5.41c3.25-0.35,35.23-4.05,40.52-4.05c6.77-0.68,13.45-2.03,19.96-4.02l5.44-1.39
		c8.8-2.84,17.37-6.34,25.64-10.47c6.72-3.08,13.67-6.27,19.53-8.5c10.62-4.07,32.06-2.53,47.82-1.52
		c5.81,0.4,10.85,0.73,14.29,0.73c9.3-0.65,18.54-1.89,27.68-3.72c0.53-0.11,1.08,0.15,1.33,0.63c0.25,0.48,0.18,1.06-0.18,1.47
		c-18.3,19.75-10.42,43.54-6.17,52.87c0.16,0.34,0.16,0.74,0,1.09c-0.17,0.35-0.5,0.6-0.88,0.68c-16.8,3.4-33.86,5.37-50.99,5.89
		c5.39,10.87,33.47,67.68,38.3,75.57c2.06,3.25,4.36,6.34,6.9,9.23c3.14,3.32,5.65,7.18,7.42,11.4c3.02,8.37-6.69,34.87-17.99,44.19
		c-11.88,9.84-32.46,15.93-44.74,15.93c-9.64,0-23,4.88-31.86,8.12c-2.16,0.78-4.05,1.49-5.64,2.02
		C726.03,539.02,724.18,539.27,722.33,539.23z M548.35,380.74l6.29,2.53c21.39,8.07,56.45,20.93,56.8,21.06
		c0.2,0.07,0.37,0.19,0.5,0.35c0.35,0.4,34.68,39.67,46.76,57.19c12.08,17.52,36.44,55.62,41.32,63.97
		c4.53,7.81,19.68,12.64,26.93,10.32l5.56-2c9.01-3.29,22.65-8.27,32.72-8.27c11.83,0,31.71-5.87,43.16-15.35
		c11.45-9.48,19.7-34.49,17.21-41.39c-1.67-3.94-4.04-7.55-7-10.64c-2.6-2.99-4.98-6.18-7.1-9.53l0,0
		c-5.39-8.77-37.93-74.76-39.31-77.57c-0.2-0.38-0.2-0.83,0-1.21c0.22-0.38,0.62-0.61,1.06-0.61c17.12-0.37,34.18-2.23,50.99-5.56
		c-4.33-10.11-10.59-32.19,4.88-51.48c-8.17,1.59-16.43,2.65-24.74,3.16c-3.52,0-8.61-0.33-14.47-0.73
		c-15.43-1.06-36.54-2.53-46.63,1.34c-5.79,2.2-12.71,5.39-19.38,8.44c-8.41,4.22-17.14,7.77-26.1,10.62l-5.41,1.39
		c-6.71,2.06-13.6,3.43-20.59,4.1c-5.28,0-40.09,4.02-40.44,4.07c-0.14,0.03-0.29,0.03-0.43,0c-0.25,0-23.03-5.41-35.56-5.41h-34.43
		c-0.18,0.04-0.37,0.04-0.55,0l-14.72-7.43C544,348.35,544.9,364.76,548.35,380.74L548.35,380.74z"/>
	<g>
		<defs>
			<path id="SVGID_25_" d="M812.57,448.21c-5.41-8.82-39.23-77.47-39.23-77.47c17.76-0.36,35.45-2.33,52.85-5.89
				c-4.71-10.37-12.18-34.21,6.39-54.26c-9.3,1.89-18.72,3.16-28.19,3.79c-12.86,0-47.36-4.75-61.56,0.68
				c-14.19,5.44-34.5,16.31-45.3,19.04s-20.28,5.44-25.69,5.44c-5.41,0-40.59,4.07-40.59,4.07s-23-5.44-35.84-5.44h-34.45
				l-16.36-7.89c-1.95,17.16-1.04,34.54,2.69,51.4c2.52,0.99,4.78,1.9,6.9,2.71c21.64,8.14,56.82,21.06,56.82,21.06
				s34.48,39.42,46.66,57.09c12.18,17.67,36.54,55.62,41.27,63.86c4.73,8.24,20.28,13.6,28.41,10.87s25.69-10.11,37.87-10.11
				c12.18,0,32.46-6.12,43.96-15.62s20.28-35.4,17.62-42.8C824.15,461.34,817.98,457.06,812.57,448.21z"/>
		</defs>
		<defs>
			<path id="SVGID_26_" d="M722.33,539.23c-9.01,0-20.49-5.33-24.46-12.24c-4.88-8.37-29.32-46.5-41.22-63.79
				c-11.5-16.69-43.46-53.37-46.36-56.71c-3.5-1.29-36.19-13.3-56.55-20.96l-6.92-2.71c-0.38-0.15-0.66-0.48-0.76-0.88
				c-3.8-17.01-4.72-34.54-2.72-51.86c0.06-0.41,0.3-0.76,0.65-0.96c0.36-0.19,0.79-0.19,1.16,0l16.08,7.76h34.28
				c12.33,0,33.4,4.83,35.91,5.41c3.25-0.35,35.23-4.05,40.52-4.05c6.77-0.68,13.45-2.03,19.96-4.02l5.44-1.39
				c8.8-2.84,17.37-6.34,25.64-10.47c6.72-3.08,13.67-6.27,19.53-8.5c10.62-4.07,32.06-2.53,47.82-1.52
				c5.81,0.4,10.85,0.73,14.29,0.73c9.3-0.65,18.54-1.89,27.68-3.72c0.53-0.11,1.08,0.15,1.33,0.63c0.25,0.48,0.18,1.06-0.18,1.47
				c-18.3,19.75-10.42,43.54-6.17,52.87c0.16,0.34,0.16,0.74,0,1.09c-0.17,0.35-0.5,0.6-0.88,0.68c-16.8,3.4-33.86,5.37-50.99,5.89
				c5.39,10.87,33.47,67.68,38.3,75.57c2.06,3.25,4.36,6.34,6.9,9.23c3.14,3.32,5.65,7.18,7.42,11.4
				c3.02,8.37-6.69,34.87-17.99,44.19c-11.88,9.84-32.46,15.93-44.74,15.93c-9.64,0-23,4.88-31.86,8.12
				c-2.16,0.78-4.05,1.49-5.64,2.02C726.03,539.02,724.18,539.27,722.33,539.23z M548.35,380.74l6.29,2.53
				c21.39,8.07,56.45,20.93,56.8,21.06c0.2,0.07,0.37,0.19,0.5,0.35c0.35,0.4,34.68,39.67,46.76,57.19
				c12.08,17.52,36.44,55.62,41.32,63.97c4.53,7.81,19.68,12.64,26.93,10.32l5.56-2c9.01-3.29,22.65-8.27,32.72-8.27
				c11.83,0,31.71-5.87,43.16-15.35c11.45-9.48,19.7-34.49,17.21-41.39c-1.67-3.94-4.04-7.55-7-10.64c-2.6-2.99-4.98-6.18-7.1-9.53
				l0,0c-5.39-8.77-37.93-74.76-39.31-77.57c-0.2-0.38-0.2-0.83,0-1.21c0.22-0.38,0.62-0.61,1.06-0.61
				c17.12-0.37,34.18-2.23,50.99-5.56c-4.33-10.11-10.59-32.19,4.88-51.48c-8.17,1.59-16.43,2.65-24.74,3.16
				c-3.52,0-8.61-0.33-14.47-0.73c-15.43-1.06-36.54-2.53-46.63,1.34c-5.79,2.2-12.71,5.39-19.38,8.44
				c-8.41,4.22-17.14,7.77-26.1,10.62l-5.41,1.39c-6.71,2.06-13.6,3.43-20.59,4.1c-5.28,0-40.09,4.02-40.44,4.07
				c-0.14,0.03-0.29,0.03-0.43,0c-0.25,0-23.03-5.41-35.56-5.41h-34.43c-0.18,0.04-0.37,0.04-0.55,0l-14.72-7.43
				C544,348.35,544.9,364.76,548.35,380.74L548.35,380.74z"/>
		</defs>
		<clipPath id="SVGID_27_">
			<use xlink:href="#SVGID_25_"  style="overflow:visible;"/>
		</clipPath>
		<clipPath id="SVGID_28_" class="st19">
			<use xlink:href="#SVGID_26_"  style="overflow:visible;"/>
		</clipPath>
		<g class="st20">
			<path class="st9" d="M827.04,470.21c-0.07-0.54-0.18-1.07-0.35-1.59c-0.34-0.92-0.73-1.81-1.18-2.68
				c-3.05-5.89-8.3-9.99-13.04-17.7c-1.43-2.35-4.91-8.95-9.19-17.34l-2.32-4.53l-1.61-3.26c-0.83-1.62-1.66-3.29-2.52-5.06
				l-1.71-3.41l-3.72-7.41c-1.64-3.26-3.22-6.47-4.78-9.56c-2.16-4.4-4.23-8.55-6.07-12.21c-0.91-1.85-1.76-3.54-2.52-5.06
				l-1.13-2.25l-0.81-1.67l-2.87-5.79h2.52c15.07-0.5,30.09-2.11,44.92-4.83l0,0l5.23-1.04l0,0c-1.18-2.63-2.19-5.33-3.02-8.09
				c-8.78,3.26-17.95,5.3-27.28,6.07c-23.43,0.78-72.68,5.51-72.68,5.51s19.55,12.64,26.58,17.27s53.15,68.26,53.15,68.26
				L737,421.64l78.17,53.4l-90.6-18.84l93.79,30.62l-71.12-3.92c0,0,76.58,7.84,68.78,16.48c-7.8,8.65-23.45,16.48-42.2,17.27
				s-41.42-10.11-41.42-10.11s22.65,14.92,14.07,15.7c-8.58,0.78-29.7,8.65-41.42-5.49c-11.73-14.13-85.97-115.42-85.97-115.42
				l-30.48-20.43l4.68,8.65c0,0-23.15-7.89-47.82-17.42c0.5,3.16,1.08,6.32,1.84,9.53l3.32,1.31l0.5,0.2l3.07,1.19
				c21.64,8.14,56.82,21.06,56.82,21.06s19.4,22.17,34.23,40.71c1.86,2.33,3.65,4.58,5.31,6.73l3.17,4.15
				c0.48,0.68,0.96,1.31,1.43,1.95c0.91,1.26,1.76,2.53,2.52,3.56c1.91,2.76,4.1,6.02,6.49,9.58l2.92,4.4
				c3.5,5.28,7.25,11.02,10.9,16.69l3.12,4.83c3.07,4.78,6.01,9.38,8.63,13.5l3.62,5.76l1.06,1.69c1.38,2.2,2.52,4.07,3.42,5.54
				l1.11,1.87c1.77,2.77,4.19,5.06,7.05,6.67c1.24,0.76,2.52,1.43,3.85,2.02c0.65,0.28,1.33,0.56,2.04,0.81
				c2.66,1.02,5.45,1.68,8.28,1.97c2.42,0.29,4.86,0.09,7.2-0.61c1.01-0.33,2.16-0.76,3.45-1.21l4.18-1.52
				c2.97-1.09,6.32-2.28,9.79-3.39c6.59-2.33,13.48-3.7,20.46-4.07c6.53-0.19,13-1.3,19.23-3.29c1.36-0.4,2.72-0.86,4.08-1.34
				c1.36-0.48,2.52-0.91,3.72-1.42c6.09-2.33,11.8-5.56,16.94-9.58c1.52-1.28,2.91-2.72,4.15-4.27c2.1-2.61,3.96-5.42,5.56-8.37
				c1.11-2.05,2.14-4.17,3.07-6.32c0.93-2.15,1.76-4.3,2.52-6.4c0.35-1.06,0.68-2.1,0.96-3.14c1.09-3.47,1.71-7.08,1.84-10.72
				C827.26,471.55,827.18,470.88,827.04,470.21z"/>
		</g>
	</g>
	<path class="st3" d="M697.59,334.06c-10.82,2.71-20.28,5.44-25.69,5.44c-3.42,0-18.65,1.62-29.44,2.81
		c-2.29,10.47-4,30.92,15.9,35.93c25.72,6.45,38.6-17.7,46.2-46.47C702.28,332.66,699.95,333.43,697.59,334.06z"/>
	<path class="st3" d="M666.48,380.56c-2.84-0.02-5.68-0.4-8.43-1.11c-21.42-5.36-18.92-27.81-16.84-37.39
		c0.11-0.53,0.55-0.93,1.08-0.99c11.63-1.29,26.2-2.83,29.6-2.83c6.77-0.68,13.45-2.03,19.96-4.02l5.44-1.39l0,0
		c2.32-0.61,4.6-1.36,6.82-2.25c0.65-0.25,1.38,0.08,1.62,0.73c0.1,0.25,0.11,0.53,0.04,0.79
		C697.16,364.6,684.25,380.56,666.48,380.56z M643.48,343.47c-2.24,10.97-2.89,29,15.1,33.52c20.13,5.06,34.53-9.08,44.04-43.18
		c-1.58,0.57-3.18,1.06-4.81,1.47l-5.41,1.39c-6.71,2.06-13.6,3.43-20.59,4.1C669.38,340.76,659.31,341.72,643.48,343.47z"/>
	<path class="st3" d="M613.13,269.52c-8.08,0.46-15.61-4.13-18.92-11.55c-6.09-12.92,16.23-26.52,21.64-25.28
		c5.41,1.24,6.77,8.17,10.07,6.8c3.3-1.37,6.77-10.11,20.28-10.11c13.51,0,5.41,4.75,9.49,12.24c4.08,7.48,25.01,4.75,31.78,16.31
		c6.77,11.55,6.09,29.2,4.05,36.69c-2.04,7.48-6.09,19.04-18.92,16.31c-12.83-2.73-20.31-30.57-25.17-37.37
		S613.13,269.52,613.13,269.52z"/>
	<path class="st3" d="M676.25,312.62c-1.33,0-2.65-0.15-3.95-0.43c-9.87-2.1-16.41-17.27-21.21-28.37c-1.27-3.3-2.8-6.48-4.58-9.53
		c-3.15-4.5-22.12-4.55-33.34-3.54l0,0c-8.58,0.46-16.57-4.4-20.13-12.26c-2.32-4.88-1.21-10.29,3.17-15.68
		c5.81-7.13,16.01-12.21,19.91-11.23c2.59,0.84,4.84,2.5,6.42,4.73c1.59,1.87,2.21,2.53,2.94,2.12c1-0.61,1.89-1.38,2.64-2.28
		c4.52-5.29,11.18-8.24,18.12-8.01c4.76,0,7.22,0.56,8.53,1.95c0.97,1.32,1.33,3,0.98,4.6c-0.31,2.17,0.06,4.39,1.06,6.35
		c1.56,2.86,6.64,4.12,12.03,5.46c7.37,1.87,15.75,3.97,19.76,10.8c6.72,11.48,6.47,29.28,4.18,37.67
		C691.35,300.03,687.92,312.62,676.25,312.62z M625.91,267.67c9.01,0,19.81,0.94,22.65,5.06c1.88,3.18,3.49,6.51,4.83,9.96
		c4.58,10.59,10.82,25.08,19.43,26.9c11.07,2.35,15.1-6.47,17.47-15.4c2.16-7.99,2.52-24.88-3.93-35.72
		c-3.47-5.92-11.3-7.89-18.19-9.63c-6.19-1.54-11.55-2.88-13.61-6.73c-1.21-2.33-1.7-4.97-1.38-7.58c0-1.44,0.13-2.28-0.3-2.73
		c-0.43-0.46-2.97-1.14-6.69-1.14c-6.26-0.23-12.27,2.45-16.31,7.26c-0.98,1.16-2.16,2.12-3.5,2.83c-2.52,1.04-4.3-1.01-5.81-2.81
		c-1.23-1.81-2.99-3.18-5.03-3.92c-2.52-0.63-11.68,3.44-17.36,10.39c-2.52,3.16-5.18,8.01-2.84,12.97
		c3.04,6.95,10.07,11.28,17.62,10.85l0,0c1.28-0.1,6.64-0.56,12.78-0.56H625.91z"/>
	<path class="st2" d="M608.98,269.52c-2.73,14.1-4.08,28.44-4.05,42.8c0.68,19.01,4.73,33.98,11.5,36
		c6.77,2.02,24.34,2.05,24.34,2.05s13.54,21.06,23,22.43c9.46,1.37,29.9-22.43,31.78-30.59c1.89-8.17-8.78-25.13-8.78-25.13
		s8.78-8.17,8.1-18.36c-0.68-10.19-9.46-15.62-14.19-11.55c-3.19,3.22-5.52,7.19-6.77,11.55c0,0-6.09,0-6.74-2.71
		s2.01-2.05-0.68-7.58c-2.69-5.54-12.86-4.75-12.18-10.87s5.41-8.14,2.01-11.55c-3.4-3.41-12.83-6.12-23.66-6.12
		S608.98,269.52,608.98,269.52z"/>
	<path class="st3" d="M664.54,374.11c-0.32,0.03-0.64,0.03-0.96,0c-9.14-1.29-21.19-18.91-23.5-22.4c-3.35,0-17.84-0.23-24.03-2.1
		c-7-2.1-11.63-16-12.38-37.17c-0.02-14.43,1.35-28.82,4.08-42.98c0.05-0.31,0.22-0.6,0.48-0.78c0.55-0.38,13.31-9.76,24.44-9.76
		c10.65,0,20.76,2.68,24.56,6.5c2.52,2.53,1.41,4.93,0.25,7.16c-1,1.66-1.65,3.51-1.91,5.44c-0.28,2.33,1.61,3.29,5.03,4.78
		c2.91,0.91,5.41,2.82,7.07,5.39c1.81,3.62,1.48,5.06,0.93,6.4c-0.23,0.41-0.28,0.89-0.15,1.34c0.25,0.99,2.52,1.57,4.63,1.72
		c1.31-4.26,3.68-8.12,6.87-11.23c2.21-1.84,5.3-2.21,7.88-0.94c5.07,2.53,8.3,7.69,8.38,13.37c0.6,8.98-5.56,16.31-7.78,18.61
		c2.24,3.67,10.32,17.7,8.43,25.28C694.97,350.32,675.37,374.11,664.54,374.11z M610.11,270.25c-2.64,13.85-3.95,27.92-3.93,42.02
		c0.68,19.44,4.86,33.12,10.59,34.84c6.52,1.97,23.81,2,23.98,2c0.43,0,0.83,0.22,1.06,0.58c3.67,5.71,14.82,20.81,22.12,21.84
		c8.76,1.29,28.49-21.97,30.4-29.63c1.56-6.24-5.71-19.54-8.63-24.15c-0.33-0.52-0.25-1.2,0.2-1.62c0,0,8.36-7.89,7.73-17.32
		c-0.07-4.72-2.69-9.02-6.85-11.23c-1.72-0.85-3.77-0.64-5.28,0.53c-3,3.05-5.2,6.81-6.39,10.92c-0.13,0.56-0.64,0.95-1.21,0.94
		c-1.18,0-7.1-0.18-7.98-3.67c-0.26-0.98-0.18-2.02,0.25-2.93c0.3-0.73,0.6-1.42-0.83-4.3c-1.45-2-3.51-3.48-5.86-4.2
		c-3.25-1.44-6.92-3.08-6.44-7.36c0.3-2.24,1.04-4.4,2.19-6.35c1.21-2.25,1.48-2.91,0.2-4.2c-2.84-2.83-11.58-5.74-22.78-5.74
		C623.4,261.3,612.33,268.68,610.11,270.25z"/>
	<g>
		<defs>
			<path id="SVGID_29_" d="M608.98,269.52c-2.73,14.1-4.08,28.44-4.05,42.8c0.68,19.01,4.73,33.98,11.5,36
				c6.77,2.02,24.34,2.05,24.34,2.05s13.54,21.06,23,22.43c9.46,1.37,29.9-22.43,31.78-30.59c1.89-8.17-8.78-25.13-8.78-25.13
				s8.78-8.17,8.1-18.36c-0.68-10.19-9.46-15.62-14.19-11.55c-3.19,3.22-5.52,7.19-6.77,11.55c0,0-6.09,0-6.74-2.71
				s2.01-2.05-0.68-7.58c-2.69-5.54-12.86-4.75-12.18-10.87s5.41-8.14,2.01-11.55c-3.4-3.41-12.83-6.12-23.66-6.12
				S608.98,269.52,608.98,269.52z"/>
		</defs>
		<defs>
			<path id="SVGID_30_" d="M664.54,374.11c-0.32,0.03-0.64,0.03-0.96,0c-9.14-1.29-21.19-18.91-23.5-22.4
				c-3.35,0-17.84-0.23-24.03-2.1c-7-2.1-11.63-16-12.38-37.17c-0.02-14.43,1.35-28.82,4.08-42.98c0.05-0.31,0.22-0.6,0.48-0.78
				c0.55-0.38,13.31-9.76,24.44-9.76c10.65,0,20.76,2.68,24.56,6.5c2.52,2.53,1.41,4.93,0.25,7.16c-1,1.66-1.65,3.51-1.91,5.44
				c-0.28,2.33,1.61,3.29,5.03,4.78c2.91,0.91,5.41,2.82,7.07,5.39c1.81,3.62,1.48,5.06,0.93,6.4c-0.23,0.41-0.28,0.89-0.15,1.34
				c0.25,0.99,2.52,1.57,4.63,1.72c1.31-4.26,3.68-8.12,6.87-11.23c2.21-1.84,5.3-2.21,7.88-0.94c5.07,2.53,8.3,7.69,8.38,13.37
				c0.6,8.98-5.56,16.31-7.78,18.61c2.24,3.67,10.32,17.7,8.43,25.28C694.97,350.32,675.37,374.11,664.54,374.11z M610.11,270.25
				c-2.64,13.85-3.95,27.92-3.93,42.02c0.68,19.44,4.86,33.12,10.59,34.84c6.52,1.97,23.81,2,23.98,2c0.43,0,0.83,0.22,1.06,0.58
				c3.67,5.71,14.82,20.81,22.12,21.84c8.76,1.29,28.49-21.97,30.4-29.63c1.56-6.24-5.71-19.54-8.63-24.15
				c-0.33-0.52-0.25-1.2,0.2-1.62c0,0,8.36-7.89,7.73-17.32c-0.07-4.72-2.69-9.02-6.85-11.23c-1.72-0.85-3.77-0.64-5.28,0.53
				c-3,3.05-5.2,6.81-6.39,10.92c-0.13,0.56-0.64,0.95-1.21,0.94c-1.18,0-7.1-0.18-7.98-3.67c-0.26-0.98-0.18-2.02,0.25-2.93
				c0.3-0.73,0.6-1.42-0.83-4.3c-1.45-2-3.51-3.48-5.86-4.2c-3.25-1.44-6.92-3.08-6.44-7.36c0.3-2.24,1.04-4.4,2.19-6.35
				c1.21-2.25,1.48-2.91,0.2-4.2c-2.84-2.83-11.58-5.74-22.78-5.74C623.4,261.3,612.33,268.68,610.11,270.25z"/>
		</defs>
		<clipPath id="SVGID_31_">
			<use xlink:href="#SVGID_29_"  style="overflow:visible;"/>
		</clipPath>
		<clipPath id="SVGID_32_" class="st21">
			<use xlink:href="#SVGID_30_"  style="overflow:visible;"/>
		</clipPath>
		<g class="st22">
			<path class="st9" d="M695.55,342.2c2.04-8.14-8.78-25.13-8.78-25.13s8.78-8.17,8.1-18.36c-4.58,16.23-17.09,15.45-17.09,15.45
				s-4.68,13.35-22.65,21.97s-36.72,10.11-43.76,7.08l-0.35-0.13c1.07,2.39,3.02,4.26,5.44,5.23c6.74,2.05,24.34,2.05,24.34,2.05
				s13.54,21.06,23,22.43C673.25,374.16,693.66,350.37,695.55,342.2z"/>
		</g>
	</g>
	<path class="st3" d="M616.43,306.1c-0.11,0.03-0.22,0.03-0.33,0l-7.55-2.02c-0.38-0.1-0.69-0.39-0.83-0.76
		c-0.18-0.35-0.18-0.76,0-1.11l8.78-14.94c0.35-0.61,1.13-0.81,1.74-0.46c0.6,0.36,0.81,1.14,0.45,1.74l-7.98,13.5l5.86,1.62
		c0.66,0.18,1.06,0.87,0.88,1.54C617.32,305.69,616.92,306.04,616.43,306.1z"/>
	<path class="st3" d="M614.39,316.29c-0.69-0.01-1.25-0.58-1.24-1.28c0-0.32,0.13-0.64,0.36-0.87c0.15-0.15,3.93-3.84,11.93-2.38
		c0.67,0.11,1.13,0.75,1.01,1.43c0,0.01,0,0.03-0.01,0.04c-0.13,0.68-0.78,1.13-1.46,1.01c-6.69-1.21-9.66,1.67-9.71,1.69
		C615.03,316.16,614.72,316.29,614.39,316.29z"/>
	<path class="st3" d="M625.21,282.99c-0.26,0-0.51-0.08-0.73-0.23c-0.56-0.4-0.69-1.18-0.3-1.74c3.49-4.6,8.74-7.51,14.47-8.01
		c0.66-0.07,1.26,0.41,1.33,1.08c0,0.03,0,0.06,0.01,0.08c0.06,0.7-0.46,1.31-1.15,1.36c0,0-0.01,0-0.01,0
		c-4.97,0.46-9.52,2.97-12.58,6.93C626.01,282.8,625.62,283,625.21,282.99z"/>
	<path class="st3" d="M616.43,283.67c-0.29,0-0.58-0.1-0.81-0.28c-1.88-1.6-4.64-1.6-6.52,0c-0.54,0.44-1.32,0.36-1.76-0.18
		c-0.45-0.52-0.39-1.3,0.12-1.75c0.01-0.01,0.02-0.01,0.03-0.02c2.81-2.38,6.93-2.38,9.74,0c0.53,0.45,0.59,1.25,0.14,1.78
		C617.14,283.51,616.79,283.67,616.43,283.67L616.43,283.67z"/>
	<path class="st3" d="M631.63,283.78c0,2.25-1.06,4.07-2.37,4.07s-2.37-1.82-2.37-4.07c0-2.25,1.06-4.07,2.37-4.07
		S631.63,281.53,631.63,283.78z"/>
	<path class="st3" d="M612.02,285.82c0,2.25-1.06,4.07-2.37,4.07c-1.31,0-2.37-1.82-2.37-4.07c0-2.25,1.06-4.1,2.37-4.1
		C610.97,281.73,612.02,283.57,612.02,285.82z"/>
	<path class="st0" d="M824.75,390.47c0,0-8.13,4.07-8.78,8.82c-0.65,4.75,5.41,9.51,12.83,12.24c7.42,2.73,11.5-1.37,9.46-8.17
		C836.23,396.56,824.75,390.47,824.75,390.47z"/>
	<path class="st3" d="M833.11,413.65c-1.62-0.03-3.22-0.35-4.73-0.94c-6.85-2.53-14.52-7.58-13.67-13.6
		c0.75-5.26,8.58-9.33,9.49-9.78c0.36-0.18,0.78-0.18,1.13,0c0.5,0.28,12,6.45,14.14,13.68c1.24,2.98,0.69,6.42-1.43,8.85
		C836.69,413.08,834.92,413.72,833.11,413.65z M824.73,391.91c-2.39,1.31-7.1,4.48-7.55,7.58c-0.5,3.62,4.43,8.09,12.03,10.87
		c3.1,1.14,5.69,1.01,7.07-0.33c1.4-1.78,1.7-4.2,0.78-6.27C835.47,398.36,827.04,393.2,824.73,391.91L824.73,391.91z"/>
	<path class="st0" d="M876.59,385.18c0.31-3.75-1.91-7.24-5.44-8.52c-8.4-2.94-17.23-4.44-26.12-4.42c-18.92,0-22.32,0-23,11.55
		c-0.68,11.55,0,18.36,6.77,20.38c6.77,2.02,31.13,3.41,37.87,2.05C872.34,404.93,875.71,396.01,876.59,385.18z"/>
	<path class="st3" d="M857.54,407.94c-10.07,0-24.01-1.11-29.09-2.65c-8.13-2.53-8.28-11.25-7.68-21.67
		c0.75-12.64,5.28-12.64,24.26-12.64c9.03-0.01,18,1.51,26.52,4.5c4.07,1.45,6.66,5.48,6.29,9.81
		c-1.06,12.92-5.03,20.98-10.92,22.17C863.82,407.89,860.68,408.05,857.54,407.94z M844.96,373.4c-19.13,0-21.14,0-21.74,10.37
		c-0.68,11.53,0,17.34,5.89,19.09c6.69,2.02,30.75,3.31,37.25,2.02c4.58-0.91,8-8.55,8.91-19.9l0,0c0.26-3.18-1.62-6.14-4.61-7.23
		c-8.24-2.89-16.9-4.37-25.62-4.37L844.96,373.4z"/>
	<path class="st3" d="M834.89,405.99c-0.62,0.01-1.14-0.45-1.23-1.06c-0.15-0.91-3.4-22.17,0-32.54c0.22-0.66,0.93-1.02,1.59-0.81
		c0.65,0.24,1.01,0.95,0.81,1.62c-3.25,9.78,0,31.12,0,31.33c0.09,0.69-0.37,1.34-1.06,1.47L834.89,405.99z"/>
	<path class="st3" d="M847.17,407.36c-0.6,0-1.11-0.42-1.23-1.01c-0.23-1.04-5.46-25.76,0.88-34.94c0.32-0.62,1.08-0.86,1.7-0.54
		c0.62,0.32,0.86,1.09,0.53,1.71c-0.05,0.09-0.1,0.17-0.17,0.25c-5.71,8.29-0.53,32.87-0.48,32.99c0.14,0.69-0.3,1.37-0.98,1.52
		L847.17,407.36z"/>
	<path class="st3" d="M857.89,407.94c-0.64-0.01-1.18-0.49-1.26-1.14c0-0.86-2.01-20.83,2.79-32.56c0.27-0.65,1.01-0.95,1.66-0.68
		c0.65,0.27,0.95,1.02,0.68,1.67c-4.58,11.12-2.64,31.12-2.52,31.33c0.06,0.69-0.45,1.3-1.13,1.37L857.89,407.94z"/>
	<path class="st3" d="M854.52,358.44c-0.13,0.03-0.27,0.03-0.4,0c-0.66-0.22-1.02-0.93-0.81-1.59c0.4-1.19,9.59-28.82,15.1-36.36
		c0.41-0.57,1.2-0.69,1.76-0.28c0.56,0.41,0.69,1.2,0.28,1.77c-5.23,7.23-14.6,35.4-14.7,35.67
		C855.54,358.14,855.05,358.45,854.52,358.44z"/>
	<path class="st0" d="M454.41,225.02v-30.34c0-9.73-7.98-22.75-10.92-29.18c-2.94-6.42-4.63-6.78-8.86-5.92
		c-4.23,0.86-3.77,7.58-3.77,7.58c-1.88-4.23-4.29-8.21-7.17-11.83c-3.77-4.25-21.04-2.98-24.81,4.65
		c-3.77,7.64-4.63,27.48,1.26,41.84c4.67,10.64,11.9,19.94,21.04,27.08c3.45,2.57,7.11,4.82,10.95,6.75L454.41,225.02z"/>
	<path class="st3" d="M432.11,236.85c-0.19,0.01-0.38-0.03-0.55-0.13c-3.92-1.96-7.66-4.27-11.17-6.9
		c-9.36-7.21-16.74-16.71-21.42-27.58c-5.84-14.23-5.46-34.38-1.23-42.98c1.89-3.79,6.92-6.57,13.49-7.46
		c4.58-0.63,10.82-0.33,13.41,2.53c2.13,2.55,3.96,5.35,5.46,8.32c0.44-2.2,2.11-3.95,4.28-4.48c4.91-0.99,7.07-0.18,10.24,6.62
		c0.58,1.26,1.36,2.78,2.24,4.5c3.72,7.23,8.81,17.12,8.81,25.28v30.34c0.01,0.49-0.27,0.93-0.7,1.14l-22.32,10.59
		C432.48,236.75,432.3,236.82,432.11,236.85z M415.23,154.13c-1.22,0-2.44,0.08-3.65,0.25c-5.66,0.76-10.07,3.11-11.6,6.09
		c-3.45,6.93-4.66,26.27,1.31,40.81c4.51,10.47,11.59,19.61,20.59,26.57c3.22,2.39,6.63,4.51,10.19,6.35l21.01-9.96v-29.66
		c0-7.58-5.03-17.45-8.51-24.04c-0.91-1.74-1.71-3.31-2.32-4.6c-2.84-6.14-4.1-5.89-7.55-5.21s-2.79,6.24-2.77,6.3
		c0.16,0.7-0.27,1.39-0.97,1.55c-0.69,0.16-1.39-0.28-1.55-0.97c-1.82-4.11-4.15-7.98-6.95-11.5
		C420.36,154.61,417.8,153.91,415.23,154.13z M454.41,224.92L454.41,224.92z"/>
	<path class="st3" d="M429.17,203.88c-0.64-0.01-1.17-0.48-1.26-1.11c-0.74-5.85,2.18-11.55,7.35-14.34l-5.64-21.01
		c-0.17-0.68,0.23-1.37,0.9-1.54c0,0,0,0,0,0c0.65-0.19,1.34,0.19,1.53,0.85c0,0.01,0.01,0.02,0.01,0.04l5.89,22
		c0.17,0.6-0.13,1.24-0.7,1.49c-4.7,2.11-7.48,7.05-6.85,12.19c0.1,0.68-0.36,1.31-1.04,1.41c-0.02,0-0.03,0-0.05,0.01
		L429.17,203.88z"/>
	<path class="st3" d="M406.77,192.02c-0.37,0-0.72-0.17-0.96-0.46c-0.44-0.52-0.37-1.3,0.15-1.75c0.01-0.01,0.02-0.02,0.03-0.02
		c7.34-5.58,16.03-9.07,25.17-10.11c0.68-0.06,1.29,0.43,1.38,1.11c0.09,0.68-0.39,1.3-1.07,1.39c-0.01,0-0.03,0-0.04,0
		c-8.6,1.04-16.78,4.29-23.76,9.46C407.45,191.9,407.11,192.04,406.77,192.02z"/>
	<path class="st3" d="M424.97,182.75c-0.53,0-1-0.33-1.18-0.83l-10.07-27.81c-0.24-0.66,0.1-1.38,0.75-1.62
		c0.64-0.25,1.35,0.07,1.59,0.71c0.01,0.02,0.01,0.03,0.02,0.05l10.07,27.81c0.22,0.66-0.11,1.38-0.75,1.64L424.97,182.75z"/>
	<path class="st3" d="M414.32,186.11c-0.51,0-0.97-0.31-1.16-0.78l-11.37-28.34c-0.24-0.65,0.07-1.38,0.7-1.64
		c0.65-0.26,1.38,0.06,1.63,0.71c0,0,0,0,0,0l11.38,28.34c0.26,0.65-0.06,1.38-0.7,1.64c0,0,0,0,0,0
		C414.64,186.08,414.48,186.11,414.32,186.11z"/>
	<path class="st3" d="M408.13,189.93c-0.41,0-0.79-0.2-1.03-0.53c-3.06-4.4-5.4-9.25-6.95-14.39c-1.36-5.49-3.45-5.82-3.47-5.82
		c-0.67,0-1.21-0.54-1.21-1.21c0-0.02,0-0.03,0-0.05c0.01-0.7,0.58-1.26,1.28-1.26c0.4,0,3.98,0.23,5.84,7.74
		c1.48,4.82,3.69,9.38,6.54,13.53c0.4,0.57,0.27,1.36-0.29,1.76c0,0-0.01,0-0.01,0.01C408.63,189.85,408.38,189.93,408.13,189.93z"
		/>
	<path class="st3" d="M839.85,589.04L839.85,589.04c-18.32-0.83-45.05-15.37-46.18-16c-0.64-0.27-0.95-1.01-0.68-1.65
		c0.27-0.65,1-0.95,1.64-0.69c0.09,0.04,0.17,0.08,0.25,0.14c0.28,0.15,27.33,14.87,45.1,15.68c0.69,0,1.26,0.57,1.26,1.26
		s-0.56,1.26-1.26,1.26L839.85,589.04z"/>
	<path class="st3" d="M872.34,612.38c-0.27,0-0.52-0.09-0.73-0.25l-47.09-34.59c-0.56-0.39-0.7-1.16-0.31-1.72
		c0.01-0.02,0.02-0.03,0.03-0.05c0.42-0.55,1.2-0.68,1.76-0.28l46.96,34.71c0.55,0.39,0.68,1.14,0.29,1.69
		c-0.01,0.02-0.03,0.04-0.04,0.05C873,612.21,872.68,612.36,872.34,612.38z"/>
	<path class="st3" d="M611.02,406.68c-0.32,0.01-0.63-0.11-0.86-0.33L562.8,362c-0.48-0.5-0.48-1.29,0-1.8
		c0.49-0.5,1.29-0.5,1.78-0.01c0,0,0,0,0.01,0.01l40.69,38.08l-16.08-26.5c-0.36-0.6-0.17-1.38,0.43-1.74s1.38-0.17,1.74,0.43l0,0
		l20.84,34.33c0.33,0.54,0.21,1.24-0.28,1.64C611.66,406.64,611.34,406.72,611.02,406.68z"/>
	<path class="st3" d="M737.83,374.84c-0.69,0-1.26-0.57-1.26-1.26s0.56-1.26,1.26-1.26l26.3-2.1l-10.67-2.07
		c-0.67-0.11-1.13-0.75-1.01-1.43c0-0.01,0-0.03,0.01-0.04c0.13-0.69,0.78-1.14,1.46-1.02c0.01,0,0.01,0,0.02,0l19.76,3.84
		c0.69,0.04,1.22,0.64,1.18,1.34c-0.04,0.7-0.64,1.23-1.33,1.19l-35.51,2.83L737.83,374.84z"/>
</g>
</svg>
