<?xml version="1.0" encoding="utf-8"?>
<!-- Generator: Adobe Illustrator 23.1.0, SVG Export Plug-In . SVG Version: 6.00 Build 0)  -->
<svg version="1.1" id="Layer_1" xmlns="http://www.w3.org/2000/svg" xmlns:xlink="http://www.w3.org/1999/xlink" x="0px" y="0px"
	 viewBox="0 0 1366 768" style="enable-background:new 0 0 1366 768;" xml:space="preserve">
<style type="text/css">
	.st0{fill:#EBEBEB;}
	.st1{fill:#DBDBDB;}
	.st2{fill:#A6A6A6;}
	.st3{fill:#FFFFFF;}
	.st4{fill:#C7C7C7;}
	.st5{fill:#263238;}
	.st6{fill:#455A64;}
	.st7{fill:#37474F;}
	.st8{fill:#FFC727;}
	.st9{opacity:0.4;}
	.st10{opacity:0.1;enable-background:new    ;}
	.st11{fill:#F8F8F8;}
	.st12{opacity:0.2;enable-background:new    ;}
	.st13{opacity:0.3;enable-background:new    ;}
	.st14{fill:#C95F50;}
	.st15{fill:#FF9ABB;}
</style>
<g id="freepik--background-complete--inject-202">
	<path class="st0" d="M896.83,22.24c-101.72,0-101.9,144.66,0,144.66S998.73,22.24,896.83,22.24z"/>
	<path class="st1" d="M958.7,108.16c-5.43,24.89-26.06,46.48-61.87,46.48c-84.56,0-84.44-120.06,0-120.06c0.54,0,1.1,0,1.65,0
		c-79.46,1.45-79.06,115.16,1.56,115.16C932.93,149.82,952.52,130.7,958.7,108.16z"/>
	<path class="st1" d="M897.44,50.37c1.39-0.05,2.58,1.02,2.66,2.41v4.04c7.06,0.47,13.84,2.91,19.58,7.05c1,0.71,1.54,1.3,1.54,2.32
		c-0.11,1.48-1.38,2.6-2.86,2.52c-0.72,0.02-1.43-0.23-1.97-0.71c-4.8-3.65-10.52-5.92-16.52-6.54v28.18
		c16.74,3.22,23.78,9.06,23.78,18.84c0,10.67-9.8,18.22-23.55,18.64v7.84c-0.17,1.46-1.49,2.51-2.95,2.33
		c-1.22-0.14-2.19-1.11-2.33-2.33V127c-9.08-0.58-17.75-4-24.78-9.78c-0.74-0.46-1.19-1.25-1.21-2.12c0.13-1.42,1.32-2.51,2.75-2.52
		c0.72-0.02,1.43,0.23,1.97,0.71c5.98,5.28,13.51,8.5,21.46,9.16V93.77c-16.52-3.31-23.33-8.86-23.33-18.93s9.67-17.93,23.11-18.22
		v-3.84C894.89,51.39,896.06,50.33,897.44,50.37z M895.02,88.64V61.07c-10.67,0.2-17.71,6.03-17.71,13.29
		C877.3,81.29,880.82,85.51,895.02,88.64z M899.85,94.78v27.87c11.01-0.2,18.11-6.03,18.11-13.69
		C918.02,101.93,914.16,97.7,899.85,94.78L899.85,94.78z"/>
	<path class="st0" d="M439.05,16.86c-76.07,0-76.2,108.16,0,108.16S515.23,16.86,439.05,16.86z"/>
	<path class="st1" d="M485.34,81.09c-4.06,18.6-19.49,34.74-46.26,34.74c-63.21,0-63.12-89.76,0-89.76h1.23
		c-59.39,1.09-59.1,86.1,1.18,86.1C466.02,112.19,480.67,97.97,485.34,81.09z"/>
	<path class="st1" d="M439.5,37.89c1.04-0.03,1.92,0.77,1.97,1.81v3.01c5.27,0.35,10.35,2.18,14.63,5.27
		c0.74,0.54,1.16,0.98,1.16,1.81c-0.12,1.07-1.06,1.87-2.14,1.81c-0.54,0.02-1.08-0.17-1.49-0.53c-3.59-2.73-7.87-4.42-12.35-4.89
		v21.08c12.52,2.41,17.79,6.7,17.79,14.07c0,7.99-7.24,13.62-17.6,13.93v5.87c-0.1,1.1-1.08,1.9-2.17,1.79
		c-0.95-0.09-1.7-0.84-1.79-1.79V95.2c-6.78-0.42-13.25-2.95-18.51-7.24c-0.55-0.34-0.89-0.94-0.91-1.59
		c0.13-1.04,1.02-1.82,2.06-1.81c0.55-0.01,1.08,0.18,1.49,0.54c4.48,3.93,10.11,6.3,16.05,6.77V70.35
		c-12.35-2.48-17.46-6.63-17.46-14.15s7.24-13.4,17.28-13.64V39.7C437.58,38.66,438.46,37.86,439.5,37.89z M437.69,66.51V45.95
		c-7.99,0.16-13.26,4.53-13.26,9.94C424.43,61.07,427.08,64.17,437.69,66.51z M441.31,71.11v20.76c8.24-0.14,13.58-4.51,13.58-10.23
		c-0.02-5.18-2.9-8.35-13.6-10.52H441.31z"/>
	<path class="st1" d="M350.23,375.62c-56.24,10.11-41.39,93.42,14.96,83.31C421.54,448.83,406.57,365.52,350.23,375.62z"/>
	<path class="st0" d="M355.52,374.68c-53.61,9.62-38.74,92.95,14.94,83.31S409.27,365.05,355.52,374.68z"/>
	<path class="st1" d="M396.99,418.29c-0.29,14.85-8.93,29.23-27.8,32.6c-44.56,7.99-56.91-61.16-12.41-69.15l0.87-0.14
		c-41.66,8.37-29.76,73.81,12.68,66.18C387.7,444.68,396.07,431.88,396.99,418.29z"/>
	<path class="st1" d="M358.74,390.82c0.77-0.12,1.49,0.38,1.65,1.14l0.42,2.32c3.82-0.38,7.67,0.39,11.05,2.21
		c0.6,0.33,0.94,0.62,1.05,1.2c0.1,0.85-0.51,1.63-1.36,1.73c-0.35,0.04-0.71-0.04-1.01-0.23c-2.84-1.64-6.09-2.4-9.36-2.21
		l2.9,16.3c9.16,0.27,13.46,2.92,14.49,8.6c1.09,6.14-3.28,11.43-10.49,12.95l0.8,4.53c0.2,0.75-0.25,1.53-1.01,1.73
		s-1.53-0.25-1.73-1.01c-0.02-0.07-0.03-0.14-0.04-0.21l-0.83-4.58c-4.92,0.5-9.87-0.66-14.05-3.3c-0.44-0.2-0.76-0.61-0.85-1.09
		c-0.11-0.8,0.41-1.55,1.2-1.72c0.38-0.08,0.78,0,1.1,0.22c3.59,2.46,7.92,3.61,12.26,3.26l-2.97-16.59
		c-9.06-0.34-13.2-2.9-14.25-8.69c-1.05-5.8,3.26-11.25,10.31-12.68l-0.4-2.17c-0.16-0.77,0.33-1.53,1.1-1.7
		C358.72,390.82,358.73,390.82,358.74,390.82z M361.42,413.1l-2.86-15.85c-5.6,1.14-8.71,5.16-7.97,9.35
		C351.33,410.78,353.62,412.64,361.42,413.1z M364.61,416.18l2.86,15.99c5.78-1.14,8.95-5.18,8.17-9.6
		C374.86,418.57,372.45,416.5,364.61,416.18z"/>
	<path class="st1" d="M985.11,211.84c-68.48,12.24-50.41,113.67,18.24,101.44C1071.99,301.06,1053.7,199.54,985.11,211.84z"/>
	<path class="st0" d="M991.54,210.7c-65.2,11.7-47.18,113.16,18.11,101.43S1056.9,198.96,991.54,210.7z"/>
	<path class="st1" d="M1042.03,263.8c-0.34,18.11-10.87,35.59-33.85,39.7c-54.25,9.74-69.28-74.48-15.11-84.18l1.07-0.18
		c-50.8,10.18-36.22,89.85,15.49,80.58C1030.73,295.93,1040.91,280.34,1042.03,263.8z"/>
	<path class="st1" d="M1004.56,230.29c0.92,0.16,1.57,0.99,1.5,1.92l-0.33,2.84c4.59,0.91,8.8,3.17,12.1,6.48
		c0.57,0.42,0.87,1.11,0.8,1.81c-0.13,0.99-1.04,1.69-2.03,1.56c-0.01,0-0.02,0-0.04,0c-0.47-0.05-0.91-0.28-1.21-0.65
		c-2.73-2.91-6.26-4.96-10.14-5.89l-2.35,19.92c10.56,3.62,14.65,8.15,13.82,15.12c-0.89,7.55-7.84,12.15-16.79,11.39l-0.65,5.56
		c-0.42,0.91-1.49,1.31-2.4,0.89c-0.53-0.24-0.91-0.72-1.02-1.29l0.67-5.63c-5.92-1.16-11.28-4.25-15.23-8.8
		c-0.44-0.41-0.66-1-0.6-1.59c0.13-0.97,1.02-1.66,1.99-1.56c0.47,0.05,0.91,0.28,1.21,0.65c3.33,4.12,7.96,6.98,13.13,8.11
		l2.39-20.3c-10.41-3.62-14.36-8.06-13.53-15.18c0.83-7.12,7.77-11.95,16.48-11.14l0.33-2.7
		C1002.8,230.9,1003.62,230.24,1004.56,230.29z M999.81,257.19l2.28-19.45c-6.92-0.67-11.97,2.93-12.57,8.06
		C988.95,250.63,990.88,253.89,999.81,257.19L999.81,257.19z M1002.44,261.9l-2.32,19.67c7.14,0.69,12.26-2.9,12.9-8.31
		C1013.6,268.35,1011.46,265.05,1002.44,261.9L1002.44,261.9z"/>
	<path class="st0" d="M1056.72,463.16l-29.49,141.69c-1.65,7.91-9.4,13-17.32,11.36L785.2,569.44c-7.91-1.65-12.99-9.4-11.34-17.31
		c0-0.01,0-0.01,0-0.02l29.49-141.67c1.53-7.37,8.75-12.1,16.12-10.58l226.69,47.18c7.36,1.53,12.09,8.74,10.56,16.11
		C1056.72,463.15,1056.72,463.15,1056.72,463.16z"/>
	<path class="st2" d="M994.87,577.26c-1.52,7.29-8.65,11.96-15.94,10.45c-7.29-1.52-11.96-8.65-10.45-15.94
		c1.52-7.28,8.65-11.96,15.93-10.45C991.7,562.84,996.38,569.97,994.87,577.26C994.87,577.26,994.87,577.26,994.87,577.26z"/>
	<path class="st1" d="M1011.11,580.65c-1.51,7.29-8.64,11.98-15.92,10.47c-7.29-1.51-11.98-8.64-10.47-15.92
		c1.51-7.29,8.64-11.97,15.92-10.47c0.01,0,0.01,0,0.02,0C1007.94,566.24,1012.62,573.37,1011.11,580.65z"/>
	<path class="st1" d="M829.78,427.41l32.66,6.8c4.11,0.86,6.75,4.88,5.9,9l-3.74,17.98c-0.86,4.11-4.88,6.75-9,5.9l-32.66-6.8
		c-4.11-0.86-6.75-4.88-5.9-9l3.74-17.98C821.64,429.2,825.66,426.56,829.78,427.41z"/>
	<path class="st3" d="M1021.46,486.09l-21.52-4.49c-4.97-1.03-8.16-5.9-7.14-10.87l0,0c1.03-4.97,5.9-8.16,10.87-7.14l21.41,4.46
		c4.96,1.05,8.14,5.9,7.14,10.87l0,0C1031.18,483.84,1026.4,487.02,1021.46,486.09z"/>
	<path class="st2" d="M807.54,488.32l-2.19,0.74c-0.08,0.02-0.17,0.02-0.25,0c-0.17-0.03-0.3-0.15-0.36-0.31
		c-0.09-0.24,0.03-0.51,0.28-0.61c0.01,0,0.02-0.01,0.03-0.01l3.01-1.07c0.25-0.07,0.51,0.06,0.6,0.31c0.04,0.12,0.04,0.26,0,0.38
		L806,500.43c-0.05,0.26-0.3,0.43-0.56,0.38s-0.43-0.3-0.38-0.56l0,0L807.54,488.32z"/>
	<path class="st2" d="M809.55,500.78l7.66-4.47c0.91-0.52,1.57-1.39,1.81-2.41c0.17-0.88,0.02-1.79-0.43-2.55
		c-0.52-0.88-1.39-1.5-2.39-1.7c-0.88-0.18-1.8-0.04-2.59,0.4l-0.8,0.47c-0.2,0.18-0.51,0.17-0.69-0.02
		c-0.18-0.2-0.17-0.51,0.03-0.69c0.05-0.04,0.1-0.08,0.16-0.1l0.8-0.49c0.99-0.58,2.17-0.77,3.3-0.53c1.27,0.24,2.37,1.03,3.01,2.16
		c0.6,0.98,0.8,2.14,0.56,3.26c-0.26,1.28-1.05,2.38-2.17,3.04l-6.56,3.84l6.52,1.36c0.26,0.1,0.39,0.4,0.28,0.66
		c-0.08,0.2-0.27,0.32-0.48,0.32l-7.7-1.61l0,0c-0.13-0.01-0.26-0.08-0.33-0.2C809.35,501.29,809.36,500.98,809.55,500.78z"/>
	<path class="st2" d="M831.95,492.84l-4.29,2.92c0.87,0.38,1.6,1.01,2.1,1.81c1.44,2.22,0.82,5.18-1.39,6.63
		c-1.07,0.7-2.37,0.95-3.62,0.69c-1.24-0.26-2.32-1-3.01-2.06c-0.14-0.23-0.08-0.54,0.14-0.69c0.22-0.15,0.53-0.09,0.68,0.13
		c0,0,0.01,0.01,0.01,0.01c0.56,0.83,1.41,1.4,2.39,1.59c2.01,0.45,4.01-0.81,4.46-2.82c0.01-0.02,0.01-0.05,0.02-0.07
		c0.42-2.04-0.88-4.03-2.92-4.46c-0.16-0.04-0.29-0.14-0.36-0.29l0,0c-0.16-0.23-0.09-0.55,0.14-0.7c0,0,0,0,0,0l4.17-2.81
		l-5.29-1.1c-0.28-0.06-0.45-0.33-0.39-0.61c0.06-0.28,0.33-0.45,0.61-0.39l6.45,1.34c0.27,0.06,0.44,0.33,0.38,0.6
		c-0.01,0.08-0.05,0.16-0.11,0.22C832.07,492.81,832.01,492.84,831.95,492.84z"/>
	<path class="st2" d="M841.44,505.34l-7.48-1.54l0,0c-0.11-0.01-0.21-0.07-0.27-0.16c-0.19-0.16-0.21-0.45-0.05-0.64
		c0.02-0.02,0.03-0.03,0.05-0.05l10.05-8.26l0,0c0.18-0.19,0.48-0.2,0.67-0.02c0.01,0.01,0.02,0.01,0.02,0.02
		c0.06,0.08,0.1,0.17,0.11,0.27c0,0,0,0,0,0.09l0,0l-1.96,9.45l0.92,0.2c0.27,0.01,0.48,0.23,0.47,0.5
		c-0.01,0.27-0.23,0.48-0.5,0.47c-0.06,0-0.12-0.01-0.17-0.04l-0.92-0.18l-0.49,2.35c-0.06,0.27-0.33,0.44-0.6,0.38
		c-0.26-0.06-0.43-0.32-0.38-0.58L841.44,505.34z M841.62,504.4l1.68-8.08l-8.2,6.68L841.62,504.4z"/>
	<path class="st2" d="M858.45,510.43c-0.15-0.21-0.11-0.5,0.1-0.66c0.01-0.01,0.03-0.02,0.05-0.03c0.23-0.16,0.55-0.09,0.7,0.14
		c0,0,0,0,0,0c0.55,0.83,1.41,1.4,2.39,1.59c0.97,0.21,1.99,0.02,2.83-0.53c1.72-1.16,2.21-3.48,1.1-5.23
		c-0.55-0.83-1.41-1.4-2.39-1.59c-0.98-0.21-2-0.02-2.84,0.53c-0.22,0.16-0.53,0.1-0.68-0.12c0,0,0-0.01-0.01-0.01
		c-0.05-0.06-0.08-0.13-0.09-0.2l0,0l0,0c-0.01-0.05-0.01-0.11,0-0.16c0,0,0,0,0-0.09l1.81-5.43c0.03-0.15,0.13-0.27,0.27-0.33
		c0.11-0.04,0.23-0.04,0.34,0l6.43,1.34c0.28,0.06,0.45,0.33,0.39,0.61c-0.06,0.28-0.33,0.45-0.61,0.39l0,0l-6.01-1.27l-1.34,4
		c0.8-0.27,1.66-0.32,2.48-0.14c1.23,0.25,2.32,0.99,3.01,2.05c0.71,1.06,0.95,2.37,0.67,3.62c-0.26,1.24-0.99,2.32-2.05,3.02
		c-1.08,0.67-2.37,0.91-3.62,0.67C860.16,512.29,859.11,511.51,858.45,510.43z"/>
	<path class="st2" d="M873.52,503.75c1.31-1.6,3.39-2.37,5.43-1.99c0.26,0.05,0.43,0.29,0.4,0.54c-0.05,0.27-0.31,0.45-0.58,0.42
		c-1.71-0.31-3.44,0.33-4.55,1.67c-0.65,0.76-1.18,1.62-1.56,2.55c1.07-0.8,2.42-1.11,3.73-0.85c2.52,0.52,4.14,2.98,3.62,5.5
		c-0.52,2.52-2.98,4.14-5.5,3.62c-2.46-0.51-4.08-2.88-3.65-5.35c0.02-0.31,0.07-0.61,0.14-0.91
		C871.4,507.03,872.26,505.24,873.52,503.75z M871.87,509.98c-0.01,0.09-0.01,0.18,0,0.27c0,0,0,0.09,0,0.13
		c-0.12,2,1.4,3.71,3.4,3.83c2,0.12,3.71-1.4,3.83-3.4c0.11-1.77-1.08-3.36-2.81-3.75c-1.95-0.43-3.89,0.81-4.31,2.77
		c-0.01,0.03-0.01,0.05-0.02,0.08L871.87,509.98z"/>
	<path class="st2" d="M884.26,516.52l7.63-11.03l-6.67-1.39c-0.26-0.05-0.42-0.3-0.38-0.56c0.05-0.26,0.31-0.44,0.58-0.38
		c0,0,0,0,0,0l7.24,1.52c0.09-0.03,0.2-0.03,0.29,0c0.11,0.09,0.18,0.22,0.2,0.36c0.01,0.05,0.01,0.11,0,0.16
		c-0.03,0.09-0.08,0.17-0.14,0.24l-7.99,11.59c-0.11,0.15-0.3,0.23-0.49,0.2l-0.18-0.09C884.19,516.97,884.15,516.72,884.26,516.52z
		"/>
	<path class="st2" d="M900.61,506.23c1.58,0.33,2.61,1.87,2.28,3.46c-0.18,0.92-0.81,1.7-1.67,2.08c2.09,1.41,2.63,4.25,1.22,6.34
		c-1.41,2.09-4.25,2.63-6.34,1.22c-2.09-1.41-2.63-4.25-1.22-6.34c0.68-1.01,1.74-1.7,2.93-1.93c-1.07-1.23-0.94-3.09,0.29-4.17
		C898.8,506.3,899.72,506.06,900.61,506.23L900.61,506.23z M897.93,519.09c1.96,0.42,3.88-0.83,4.3-2.78
		c0.42-1.96-0.83-3.88-2.78-4.3c-1.96-0.42-3.88,0.83-4.3,2.78c0,0.01,0,0.02-0.01,0.03C894.74,516.76,895.99,518.67,897.93,519.09z
		 M899.62,511.05c1.07,0.2,2.11-0.49,2.34-1.56c0.21-1.06-0.48-2.09-1.54-2.3c0,0,0,0,0,0c-1.04-0.23-2.06,0.42-2.29,1.46
		c0,0.02-0.01,0.03-0.01,0.05C897.89,509.76,898.56,510.8,899.62,511.05L899.62,511.05z"/>
	<path class="st2" d="M925.14,511.34c2.29,0.49,3.85,2.63,3.62,4.96c0.01,0.04,0.01,0.07,0,0.11c0,0.38-0.11,0.78-0.2,1.2
		c-0.37,1.92-1.22,3.71-2.46,5.22c-1.33,1.59-3.4,2.34-5.43,1.99l0,0c-0.26-0.03-0.44-0.27-0.4-0.53c0-0.01,0-0.02,0.01-0.03
		c0.05-0.27,0.3-0.46,0.58-0.42c1.7,0.31,3.44-0.32,4.53-1.67c0.67-0.75,1.19-1.62,1.56-2.55c-1.06,0.81-2.43,1.1-3.73,0.82
		c-2.55-0.27-4.39-2.56-4.12-5.1c0.27-2.55,2.56-4.39,5.1-4.12c0.28,0.03,0.55,0.08,0.82,0.16L925.14,511.34z M927.8,516.62
		c0.39-1.96-0.88-3.87-2.84-4.26c-1.96-0.39-3.87,0.88-4.26,2.84c-0.38,1.93,0.84,3.81,2.76,4.24c1.95,0.44,3.89-0.79,4.33-2.74
		C927.79,516.68,927.79,516.65,927.8,516.62L927.8,516.62z"/>
	<path class="st2" d="M931.78,519.92c0.31-1.72,1.12-3.3,2.32-4.56c1.42-1.69,3.95-1.91,5.64-0.48c0.6,0.51,1.04,1.18,1.26,1.93
		c1.16,3.34,0.39,7.04-2.01,9.64c-0.98,1.08-2.44,1.59-3.88,1.36c-1.41-0.36-2.55-1.41-3.02-2.79
		C931.49,523.38,931.38,521.61,931.78,519.92z M932.74,520.12c-0.35,1.5-0.26,3.07,0.27,4.51c0.34,1.08,1.21,1.91,2.3,2.21
		c1.12,0.14,2.23-0.27,2.99-1.1c1.06-1.11,1.78-2.51,2.06-4.02c0.34-1.51,0.24-3.08-0.29-4.53c-0.34-1.08-1.21-1.91-2.3-2.21
		c-1.12-0.17-2.25,0.25-2.99,1.1c-1.07,1.12-1.79,2.52-2.08,4.04L932.74,520.12z"/>
	<path class="st2" d="M948.86,517.73l-2.19,0.74c-0.08,0.03-0.17,0.03-0.25,0c-0.17-0.03-0.31-0.16-0.36-0.33
		c-0.1-0.23,0.01-0.5,0.24-0.59c0.02-0.01,0.04-0.02,0.07-0.02l2.99-1.07c0.26-0.07,0.53,0.07,0.62,0.33c0.05,0.12,0.05,0.25,0,0.36
		l-2.63,12.68c-0.06,0.26-0.32,0.42-0.58,0.36c-0.25-0.05-0.42-0.3-0.36-0.56c0,0,0,0,0,0L948.86,517.73z"/>
	<path class="st2" d="M950.82,530.17l7.66-4.47c0.92-0.5,1.58-1.37,1.81-2.39c0.4-1.95-0.85-3.87-2.81-4.27
		c-0.88-0.18-1.8-0.04-2.59,0.4l-0.8,0.49c-0.23,0.14-0.53,0.07-0.67-0.16c-0.15-0.2-0.1-0.49,0.1-0.63
		c0.02-0.01,0.04-0.03,0.06-0.04l0.8-0.49c0.99-0.58,2.17-0.77,3.3-0.53c1.27,0.25,2.36,1.04,3.01,2.16c0.6,0.98,0.8,2.15,0.56,3.28
		c-0.27,1.27-1.07,2.37-2.19,3.02l-6.56,3.84l6.54,1.36c0.26,0.07,0.42,0.33,0.36,0.6c-0.05,0.26-0.3,0.42-0.56,0.38l-7.7-1.61l0,0
		c-0.13-0.01-0.26-0.08-0.33-0.2C950.63,530.69,950.63,530.37,950.82,530.17z"/>
	<path class="st2" d="M985.09,524.74l-4.33,2.93c0.87,0.38,1.6,1.01,2.1,1.81c0.7,1.07,0.94,2.37,0.67,3.62
		c-0.25,1.25-0.99,2.34-2.06,3.02c-1.07,0.7-2.37,0.95-3.62,0.69c-1.24-0.26-2.32-1-3.01-2.06c-0.15-0.21-0.11-0.5,0.1-0.66
		c0.01-0.01,0.03-0.02,0.05-0.03c0.22-0.15,0.53-0.09,0.68,0.13c0,0,0.01,0.01,0.01,0.01c0.55,0.83,1.4,1.4,2.37,1.59
		c0.98,0.21,2,0.03,2.84-0.51c1.74-1.14,2.24-3.47,1.1-5.21c0-0.01-0.01-0.01-0.01-0.02c-0.54-0.83-1.4-1.41-2.37-1.61
		c-0.16-0.04-0.29-0.14-0.36-0.29l0,0c-0.15-0.24-0.08-0.55,0.14-0.71l4.17-2.83l-5.27-1.09c-0.24-0.1-0.37-0.37-0.29-0.62
		c0.05-0.27,0.32-0.45,0.6-0.4c0,0,0,0,0,0l6.45,1.34c0.27,0.05,0.44,0.31,0.39,0.57c0,0.01,0,0.02-0.01,0.02
		c0,0.08-0.03,0.16-0.09,0.22C985.25,524.72,985.17,524.74,985.09,524.74z"/>
	<path class="st2" d="M994.58,537.22l-7.53-1.61l0,0c-0.11-0.02-0.2-0.08-0.27-0.16c-0.19-0.18-0.2-0.48-0.02-0.67
		c0.01-0.01,0.01-0.02,0.02-0.02l10.05-8.26l0,0c0.17-0.19,0.45-0.2,0.64-0.03c0.01,0.01,0.02,0.02,0.03,0.03
		c0.06,0.08,0.1,0.17,0.11,0.27c0,0,0,0,0,0.09l0,0l-1.97,9.45l0.92,0.2c0.27,0.05,0.44,0.31,0.4,0.58
		c-0.06,0.26-0.32,0.43-0.59,0.36c0,0-0.01,0-0.01,0l-0.92-0.18l-0.49,2.35c-0.06,0.27-0.33,0.44-0.6,0.38
		c-0.26-0.06-0.42-0.32-0.36-0.58L994.58,537.22z M994.78,536.28l1.68-8.08l-8.2,6.72L994.78,536.28z"/>
	<path class="st2" d="M999.72,539.84c-0.15-0.21-0.11-0.5,0.1-0.66c0.01-0.01,0.03-0.02,0.05-0.03c0.23-0.16,0.55-0.09,0.7,0.14
		c0,0,0,0,0,0c0.55,0.83,1.4,1.41,2.37,1.61c0.98,0.2,2,0,2.84-0.54c1.81-1.03,2.43-3.33,1.4-5.14c-1.03-1.81-3.33-2.43-5.14-1.4
		c-0.14,0.08-0.27,0.16-0.39,0.26c-0.22,0.15-0.53,0.09-0.68-0.13c0,0-0.01-0.01-0.01-0.01c-0.04-0.05-0.08-0.11-0.09-0.18l0,0l0,0
		c-0.02-0.05-0.02-0.11,0-0.16l0,0l1.81-5.43c0.02-0.15,0.13-0.28,0.27-0.33c0.11-0.04,0.23-0.04,0.34,0l6.41,1.34
		c0.27,0.05,0.45,0.32,0.4,0.6c0,0,0,0,0,0c-0.05,0.27-0.32,0.45-0.6,0.4c0,0,0,0,0,0l-6.01-1.25l-1.34,3.98
		c0.8-0.26,1.66-0.31,2.48-0.14c2.58,0.55,4.23,3.09,3.68,5.67c-0.26,1.23-1,2.31-2.05,3.01c-2.21,1.43-5.17,0.82-6.63-1.38
		L999.72,539.84z"/>
	<path class="st2" d="M1014.85,533.16c1.31-1.6,3.39-2.37,5.43-1.99c0.26,0.05,0.43,0.29,0.4,0.54c-0.05,0.27-0.31,0.45-0.58,0.42
		c-1.71-0.31-3.44,0.33-4.55,1.67c-0.65,0.76-1.18,1.63-1.56,2.55c2.05-1.51,4.95-1.07,6.46,0.98c1.51,2.05,1.07,4.95-0.98,6.46
		s-4.95,1.07-6.46-0.98c-0.75-1.02-1.05-2.3-0.83-3.54c0.04-0.3,0.09-0.61,0.16-0.91C1012.73,536.44,1013.59,534.65,1014.85,533.16z
		 M1013.2,539.39c-0.02,0.09-0.02,0.18,0,0.27c0,0,0,0.09,0,0.13c-0.27,2.11,1.22,4.05,3.33,4.32c2.11,0.27,4.05-1.22,4.32-3.33
		c0.27-2.11-1.22-4.05-3.33-4.32c-1.93-0.25-3.74,0.98-4.23,2.86L1013.2,539.39z"/>
	
		<rect x="861.26" y="476.97" transform="matrix(0.2 -0.9798 0.9798 0.2 163.8976 1277.5946)" class="st4" width="6.03" height="122.93"/>
	
		<rect x="837.97" y="506.2" transform="matrix(0.2038 -0.979 0.979 0.2038 131.4197 1260.9985)" class="st4" width="6.03" height="87.01"/>
	
		<rect x="952.67" y="426.06" transform="matrix(0.2038 -0.979 0.979 0.2038 313.7827 1299.246)" class="st4" width="6.03" height="61.29"/>
</g>
<g id="freepik--Floor--inject-202">
	<polygon class="st5" points="305.87,631.64 399.64,631.2 493.42,631.04 680.95,630.73 868.48,631.04 962.27,631.2 1056.03,631.64 
		962.27,632.09 868.48,632.25 680.95,632.54 493.42,632.23 399.64,632.09 	"/>
</g>
<g id="freepik--Shadow--inject-202">
	<ellipse class="st0" cx="680.95" cy="723.64" rx="360.37" ry="44.36"/>
</g>
<g id="freepik--Device--inject-202">
	<path class="st6" d="M442.67,142.18v562.77h-57.14V369.12c0-33.07-5.96-51.93-30.12-74.51c-38.32-35.84-41.11-63.77-41.11-89.29
		c0-45.68,27.04-91.52,66.14-91.52C405.94,113.8,428.71,123.6,442.67,142.18z"/>
	<path class="st7" d="M745.5,149.51v555.44H428.89V175.18c0-48.65-37.04-61.58-42.94-61.58h323.66c19.83,0,35.9,16.07,35.9,35.9
		C745.5,149.5,745.5,149.51,745.5,149.51z"/>
	<rect x="640.38" y="476.67" class="st0" width="64.51" height="28.74"/>
	<rect x="560.36" y="476.67" class="st0" width="64.51" height="28.74"/>
	<rect x="480.36" y="476.67" class="st0" width="64.51" height="28.74"/>
	<rect x="640.38" y="517.49" class="st0" width="64.51" height="28.74"/>
	<rect x="560.36" y="517.49" class="st0" width="64.51" height="28.74"/>
	<rect x="480.36" y="517.49" class="st0" width="64.51" height="28.74"/>
	<rect x="640.38" y="558.3" class="st0" width="64.51" height="28.74"/>
	<rect x="560.36" y="558.3" class="st0" width="64.51" height="28.74"/>
	<rect x="480.36" y="558.3" class="st0" width="64.51" height="28.74"/>
	<rect x="640.38" y="599.12" class="st0" width="64.51" height="28.74"/>
	<rect x="560.36" y="599.12" class="st0" width="64.51" height="28.74"/>
	<rect x="480.36" y="599.12" class="st0" width="64.51" height="28.74"/>
	<rect x="640.38" y="639.97" class="st5" width="64.51" height="28.74"/>
	<rect x="560.36" y="639.97" class="st8" width="64.51" height="28.74"/>
	<rect x="480.36" y="639.97" class="st2" width="64.51" height="28.74"/>
	<path class="st5" d="M456.85,457.89h267.93c0.23,0.01,0.42-0.17,0.43-0.4c0-0.01,0-0.01,0-0.02V140.1
		c0.02-14.61-11.81-26.48-26.43-26.5c-0.02,0-0.04,0-0.05,0H438.02c-0.24,0.01-0.42,0.22-0.41,0.46c0.01,0.14,0.08,0.26,0.19,0.34
		l0,0c11.55,7.08,18.59,19.67,18.56,33.22v309.86c0,0.23,0.18,0.42,0.41,0.42C456.8,457.89,456.83,457.89,456.85,457.89z"/>
	<rect x="641.87" y="392" class="st2" width="60.04" height="19.89"/>
	<rect x="641.87" y="423.6" class="st2" width="60.04" height="19.89"/>
	<rect x="478.55" y="392" class="st2" width="60.04" height="19.89"/>
	<rect x="478.55" y="423.6" class="st2" width="60.04" height="19.89"/>
	<rect x="473.35" y="195.07" class="st3" width="234.97" height="182.71"/>
	<g class="st9">
		<polygon class="st0" points="593.02,195.07 473.34,314.75 473.34,252.93 531.22,195.07 		"/>
		<polygon class="st0" points="708.3,246.5 708.3,308.34 638.86,377.78 577.03,377.78 		"/>
		<polygon class="st0" points="662.77,195.07 480.05,377.78 473.34,377.78 473.34,362.67 640.96,195.07 		"/>
		<polygon class="st0" points="521.75,195.07 473.34,243.5 473.34,221.65 499.92,195.07 		"/>
		<polygon class="st0" points="708.3,195.07 708.3,197.46 527.98,377.78 524.47,377.78 707.18,195.07 		"/>
		<polygon class="st0" points="708.3,341.74 708.3,345.23 675.75,377.78 672.26,377.78 		"/>
	</g>
	<rect x="504.18" y="157.94" class="st6" width="173.29" height="10.2"/>
	<path class="st0" d="M510.25,168.15c52.02-0.11,103.96,0.11,155.96,0c21.32-53.91,21.32-113.91,0-167.83L510.18,0
		C531.59,54,531.61,114.13,510.25,168.15z"/>
	<path class="st4" d="M564.42,24.85h64.01c-0.31-1.14-0.62-2.28-0.94-3.42h-64.04C563.79,22.48,564.11,23.62,564.42,24.85z"/>
	<path class="st4" d="M582.41,34.59h32.87c-0.25-1.14-0.51-2.28-0.8-3.44h-32.87C581.88,32.29,582.15,33.45,582.41,34.59z"/>
	<path class="st4" d="M602.56,64.46h64.01c-0.09-1.16-0.2-2.32-0.33-3.5h-64.01L602.56,64.46z"/>
	<path class="st4" d="M587.64,74.48h79.58c0-1.18-0.11-2.34-0.18-3.51h-79.58C587.53,72.14,587.59,73.3,587.64,74.48z"/>
	<path class="st4" d="M626,84.51h41.42c0-1.16,0-2.34,0-3.5h-41.44C626,82.17,626,83.35,626,84.51z"/>
	<path class="st4" d="M596.24,94.56h70.94c0-1.18,0-2.35,0.13-3.51h-70.93C596.35,92.21,596.3,93.39,596.24,94.56z"/>
	<path class="st4" d="M588.31,104.54h78.15c0.11-1.16,0.2-2.34,0.29-3.5h-78.19C588.58,102.24,588.42,103.42,588.31,104.54z"/>
	<path class="st4" d="M593.74,114.58h71.63c0.16-1.16,0.31-2.34,0.45-3.5H594.2C594.02,112.24,593.91,113.42,593.74,114.58z"/>
	<path class="st4" d="M584.22,124.47h79.6l0.6-3.48l-79.69,0.09C584.63,122.22,584.43,123.38,584.22,124.47z"/>
	<path class="st4" d="M588.27,134.41h73.53l0.76-3.44h-73.53L588.27,134.41z"/>
	<path class="st4" d="M599.29,144.21l60.08-0.09c0.31-1.14,0.62-2.28,0.91-3.42l-60.08,0.09
		C599.9,141.93,599.59,143.07,599.29,144.21z"/>
	<path class="st4" d="M577.57,153.95l78.9-0.13c0.36-1.12,0.72-2.26,1.07-3.39l-78.9,0.13
		C578.29,151.63,577.93,152.83,577.57,153.95z"/>
	<path class="st4" d="M578.73,163.57l74.42-0.14c0.4-1.12,0.82-2.23,1.21-3.35l-74.42,0.14
		C579.53,161.34,579.15,162.5,578.73,163.57z"/>
	<path class="st4" d="M540.93,74.46h24.11c0-1.18-0.11-2.35-0.18-3.51h-24.11C540.82,72.12,540.87,73.28,540.93,74.46z"/>
	<path class="st4" d="M541.13,84.51h24.13c0-1.16,0-2.34,0-3.51h-24.14C541.11,82.17,541.13,83.35,541.13,84.51z"/>
	<path class="st4" d="M540.87,94.56h24.16c0-1.18,0.11-2.34,0.14-3.51h-24.16C540.98,92.23,540.93,93.4,540.87,94.56z"/>
	<path class="st4" d="M540.2,104.54h24.13c0-1.18,0.2-2.34,0.29-3.51h-24.13C540.4,102.26,540.31,103.44,540.2,104.54z"/>
	<path class="st4" d="M539.06,114.61h24.16c0.16-1.16,0.31-2.34,0.45-3.5h-24.16C539.37,112.28,539.23,113.45,539.06,114.61z"/>
	<path class="st4" d="M537.51,124.57h24.13l0.6-3.48H538.1L537.51,124.57z"/>
	<path class="st4" d="M535.5,134.48h24.13l0.76-3.46h-24.14C536.06,132.18,535.75,133.32,535.5,134.48z"/>
	<path class="st4" d="M533.03,144.39h24.13c0.33-1.14,0.62-2.28,0.92-3.42h-24.14C533.65,142.02,533.34,143.16,533.03,144.39z"/>
	<path class="st4" d="M530.13,154.04h24.14c0.36-1.14,0.71-2.26,1.05-3.41H531.2C530.86,151.78,530.5,152.9,530.13,154.04z"/>
	<path class="st4" d="M526.8,163.68h24.13c0.42-1.12,0.83-2.23,1.23-3.35h-24.14C527.62,161.43,527.22,162.5,526.8,163.68z"/>
	<rect x="745.5" y="149.42" class="st7" width="34.32" height="301.35"/>
	<rect x="745.5" y="149.42" class="st5" width="7.88" height="301.35"/>
</g>
<g id="freepik--Wallet--inject-202">
	<rect x="560.18" y="606.46" class="st8" width="92.99" height="47.18"/>
	<path class="st0" d="M642.79,630.04c0.01,5.83-4.71,10.57-10.54,10.58c-5.83,0.01-10.57-4.71-10.58-10.54
		c-0.01-5.83,4.71-10.57,10.54-10.58c0.01,0,0.02,0,0.04,0C638.07,619.51,642.78,624.22,642.79,630.04z"/>
	<circle class="st1" cx="632.25" cy="630.04" r="5.78"/>
	<rect x="315.53" y="523.11" class="st8" width="281.44" height="210.13"/>
	<rect x="315.53" y="523.11" class="st10" width="281.44" height="210.13"/>
	
		<rect x="327.95" y="457.73" transform="matrix(0.9933 -0.116 0.116 0.9933 -57.0597 56.1416)" class="st0" width="251.92" height="121.35"/>
	<path class="st1" d="M572.05,443.49l-7.59,0.89L329.4,471.85l-7.59,0.89l0.89,7.57l12.32,105.36l0.89,7.59l7.59-0.89l235.06-27.48
		l7.57-0.89l0,0L572.05,443.49L572.05,443.49z M577.71,557.34L342.6,584.78l-12.32-105.32L565.34,452L577.71,557.34z"/>
	
		<ellipse transform="matrix(0.9932 -0.1162 0.1162 0.9932 -57.3033 56.2746)" class="st1" cx="454.21" cy="519.82" rx="35.28" ry="41.15"/>
	<path class="st1" d="M395.51,524.01c0.59,5.19-3.15,9.87-8.34,10.45s-9.87-3.15-10.45-8.34c-0.58-5.18,3.13-9.85,8.3-10.45
		c5.18-0.61,9.87,3.09,10.48,8.26C395.5,523.97,395.51,523.99,395.51,524.01z"/>
	<path class="st1" d="M530.95,508.18c0.61,5.19-3.09,9.89-8.28,10.5c-5.19,0.61-9.89-3.09-10.5-8.28c-0.61-5.19,3.09-9.89,8.28-10.5
		c0.01,0,0.01,0,0.02,0C525.64,499.31,530.33,503.01,530.95,508.18z"/>
	<path class="st1" d="M359.38,582.82l-16.77,1.96l-1.96-16.75C349.9,566.95,358.28,573.57,359.38,582.82z"/>
	<path class="st1" d="M575.7,540.55l2.01,16.79l-16.75,1.96C559.88,550.05,566.47,541.67,575.7,540.55z"/>
	<path class="st1" d="M548.57,453.92l16.77-1.96l1.96,16.74c-9.25,1.09-17.63-5.52-18.73-14.76
		C548.57,453.93,548.57,453.93,548.57,453.92z"/>
	<path class="st1" d="M332.24,496.18l-1.96-16.72l16.75-1.97C348.11,486.73,341.49,495.1,332.24,496.18z"/>
	<path class="st0" d="M450.93,488.93c0.89-0.01,1.66,0.62,1.81,1.5l0.33,2.83c4.62-0.19,9.2,1.02,13.13,3.46
		c0.62,0.27,1.07,0.83,1.18,1.5c0.09,1-0.64,1.88-1.63,1.97c-0.47,0.07-0.95-0.05-1.32-0.34c-3.31-2.17-7.17-3.33-11.12-3.35
		l2.32,19.74c10.98,1,15.96,4.49,16.75,11.39c0.87,7.48-4.78,13.49-13.55,14.82l0.63,5.43c0.01,0.89-0.61,1.65-1.49,1.81
		c-0.89,0.01-1.65-0.61-1.81-1.49l-0.65-5.58c-5.95,0.26-11.81-1.5-16.64-4.98c-0.53-0.27-0.88-0.79-0.96-1.38
		c-0.1-0.97,0.59-1.84,1.56-1.97c0.47-0.07,0.96,0.06,1.34,0.34c4.14,3.22,9.25,4.91,14.49,4.8l-2.35-20.09
		c-10.87-1.09-15.67-4.46-16.48-11.5c-0.82-7.05,4.73-13.26,13.31-14.49l-0.33-2.66C449.45,489.83,450.07,489.09,450.93,488.93z
		 M452.51,515.9l-2.25-19.23c-6.83,0.94-10.87,5.54-10.27,10.63c0.58,4.76,3.19,7.48,12.53,8.6L452.51,515.9z M456.13,519.83
		l2.26,19.4c7.05-0.96,11.14-5.58,10.52-10.87C468.34,523.49,465.53,520.81,456.13,519.83L456.13,519.83z"/>
	<path class="st1" d="M572.28,547.18l0.34,129.95c0.02,7.26-5.85,13.17-13.11,13.19c0,0,0,0,0,0l-206.11,0.54
		c-7.26,0.01-13.16-5.87-13.17-13.13l0,0l-0.34-129.95c0.04-6.71,5.48-12.14,12.19-12.17L560,535.06
		C566.73,535.04,572.21,540.45,572.28,547.18z"/>
	<path class="st2" d="M539.06,658.91c0.01,6.68-5.4,12.11-12.08,12.12s-12.11-5.4-12.12-12.08c-0.01-6.67,5.39-12.1,12.06-12.12
		c6.68-0.02,12.11,5.38,12.13,12.06C539.06,658.9,539.06,658.91,539.06,658.91z"/>
	<path class="st8" d="M553.95,658.86c0.02,6.68-5.38,12.11-12.06,12.13c-6.68,0.02-12.11-5.38-12.13-12.06
		c-0.02-6.68,5.38-12.11,12.06-12.13c0.01,0,0.01,0,0.02,0C548.51,646.78,553.93,652.18,553.95,658.86z"/>
	<path class="st8" d="M367.04,557.79l28.42-0.07c4.2-0.01,7.62,3.39,7.63,7.59l0.04,14.94c0.01,4.2-3.39,7.62-7.59,7.63l-28.42,0.07
		c-4.2,0.01-7.62-3.39-7.63-7.59l-0.04-14.94C359.45,561.22,362.84,557.8,367.04,557.79z"/>
	<path class="st3" d="M545.48,573.86h-19.74c-4.56,0.01-8.28-3.68-8.3-8.24l0,0c0-4.57,3.69-8.28,8.26-8.3h19.72
		c4.57,0,8.28,3.69,8.3,8.26l0,0C553.73,570.14,550.04,573.85,545.48,573.86L545.48,573.86z"/>
	<path class="st11" d="M357.98,615.44l-1.81,1.05c-0.19,0.13-0.45,0.08-0.58-0.11c-0.01-0.01-0.01-0.02-0.02-0.03
		c-0.12-0.18-0.07-0.43,0.11-0.55c0.02-0.01,0.03-0.02,0.05-0.03l2.45-1.5c0.21-0.11,0.47-0.04,0.6,0.16c0.03,0.11,0.03,0.22,0,0.33
		v11.63c0,0.24-0.19,0.43-0.43,0.43c-0.24,0-0.43-0.19-0.43-0.43L357.98,615.44z"/>
	<path class="st11" d="M361.98,626.04l5.89-5.43c0.69-0.62,1.08-1.5,1.09-2.43c0-0.8-0.31-1.57-0.85-2.16
		c-0.61-0.68-1.49-1.07-2.41-1.07c-0.81,0-1.6,0.29-2.21,0.83l-0.62,0.56c-0.17,0.17-0.44,0.17-0.61,0c0,0,0,0,0,0
		c-0.17-0.15-0.18-0.42-0.03-0.59c0.01-0.01,0.02-0.02,0.03-0.03l0.62-0.58c0.77-0.69,1.77-1.08,2.81-1.09
		c1.16,0,2.27,0.49,3.04,1.36c0.7,0.75,1.09,1.73,1.09,2.75c0,1.17-0.49,2.29-1.36,3.08l-5.04,4.58h6.01
		c0.23-0.01,0.42,0.17,0.43,0.4c0,0.01,0,0.02,0,0.04c0,0.24-0.19,0.43-0.43,0.43h-7.14c-0.12,0.01-0.24-0.04-0.33-0.13
		C361.85,626.42,361.86,626.2,361.98,626.04z"/>
	<path class="st11" d="M380.29,614.9l-3.26,3.37c2.32,0.47,3.82,2.74,3.35,5.06c-0.17,0.83-0.58,1.58-1.17,2.18
		c-0.81,0.81-1.9,1.27-3.04,1.27c-1.14,0.02-2.23-0.43-3.02-1.25c-0.15-0.2-0.11-0.48,0.09-0.63c0.16-0.12,0.38-0.12,0.54,0
		c0.64,0.63,1.5,0.98,2.39,0.98c0.9-0.01,1.75-0.37,2.39-1c0.64-0.64,1-1.51,1-2.41c-0.02-1.86-1.53-3.36-3.39-3.37
		c-0.14,0-0.27-0.07-0.36-0.18l0,0c-0.18-0.17-0.19-0.46-0.01-0.64c0,0,0.01-0.01,0.01-0.01l3.13-3.24h-4.87
		c-0.25,0-0.45-0.2-0.45-0.45c-0.02-0.23,0.15-0.43,0.38-0.45c0.02,0,0.04,0,0.06,0h5.92c0.25,0,0.45,0.2,0.45,0.45
		c0.02,0.07,0.02,0.13,0,0.2C380.39,614.82,380.35,614.87,380.29,614.9z"/>
	<path class="st11" d="M390.93,624.14h-6.92c-0.1,0.01-0.2-0.03-0.27-0.09c-0.17-0.15-0.18-0.42-0.03-0.59
		c0.01-0.01,0.02-0.02,0.03-0.03l7.24-9.06l0,0c0.15-0.17,0.42-0.18,0.59-0.03c0.01,0.01,0.02,0.02,0.03,0.03
		c0.06,0.06,0.11,0.12,0.14,0.2l0,0v8.75h0.85c0.24,0,0.44,0.19,0.45,0.43c0,0.24-0.19,0.43-0.43,0.43h-0.85v2.16
		c-0.05,0.25-0.29,0.4-0.53,0.35c-0.18-0.04-0.32-0.18-0.35-0.35L390.93,624.14z M390.93,623.27v-7.41l-5.98,7.43L390.93,623.27z"/>
	<path class="st11" d="M406.77,625.44c-0.18-0.16-0.18-0.44-0.02-0.61c0.01-0.01,0.01-0.01,0.02-0.02c0.17-0.18,0.46-0.19,0.64-0.01
		c0,0,0.01,0.01,0.01,0.01c0.64,0.63,1.5,0.98,2.39,0.98c1.86,0,3.37-1.51,3.37-3.37c0-0.01,0-0.01,0-0.02
		c0-1.85-1.49-3.35-3.34-3.36c-0.89,0-1.75,0.35-2.38,0.98c-0.16,0.18-0.44,0.18-0.61,0.02c-0.01-0.01-0.01-0.01-0.02-0.02
		c-0.05-0.04-0.09-0.09-0.11-0.14l0,0l0,0c-0.01-0.05-0.01-0.1,0-0.14c0-0.03,0-0.06,0-0.09l0.6-5.11c0-0.13,0.07-0.26,0.18-0.33
		c0.08-0.07,0.18-0.11,0.29-0.11h5.89c0.25,0,0.45,0.2,0.45,0.45c0.01,0.24-0.18,0.44-0.42,0.45c-0.01,0-0.02,0-0.04,0h-5.43
		l-0.45,3.77c0.65-0.38,1.4-0.58,2.16-0.58c1.14-0.03,2.23,0.42,3.02,1.23c1.65,1.68,1.65,4.38,0,6.07
		c-0.82,0.79-1.9,1.24-3.04,1.27C408.74,626.78,407.6,626.3,406.77,625.44z"/>
	<path class="st11" d="M418.82,616.77c0.86-1.66,2.55-2.72,4.42-2.75c0.24-0.01,0.44,0.18,0.45,0.42c0,0,0,0,0,0
		c0,0.25-0.19,0.45-0.43,0.47c-1.54,0.05-2.92,0.93-3.62,2.3c-0.44,0.79-0.74,1.65-0.91,2.54c1.52-1.71,4.15-1.86,5.86-0.33
		c1.71,1.53,1.86,4.15,0.33,5.86c-1.52,1.71-4.15,1.86-5.86,0.33c-0.85-0.76-1.35-1.82-1.38-2.96c-0.02-0.28-0.02-0.56,0-0.83
		C417.63,620.05,418.02,618.32,418.82,616.77z M418.51,622.56c-0.01,0.08-0.01,0.16,0,0.24c0.01,0.04,0.01,0.09,0,0.13
		c0.12,1.86,1.72,3.26,3.58,3.14c1.86-0.12,3.26-1.72,3.14-3.58s-1.72-3.26-3.58-3.14c-1.69,0.11-3.04,1.46-3.14,3.14V622.56z"/>
	<path class="st11" d="M430.61,626.02l4.65-11.12h-6.07c-0.24,0-0.43-0.19-0.43-0.43c0-0.24,0.19-0.43,0.43-0.43l0,0h6.68
		c0.09-0.03,0.18-0.03,0.27,0c0.11,0.06,0.19,0.15,0.24,0.27c0.01,0.05,0.01,0.1,0,0.14c0.03,0.08,0.03,0.16,0,0.24l-4.87,11.66
		c-0.07,0.16-0.22,0.27-0.4,0.27c-0.06,0.02-0.12,0.02-0.18,0C430.68,626.54,430.54,626.28,430.61,626.02z"/>
	<path class="st11" d="M443.09,613.94c1.45,0,2.63,1.17,2.63,2.62c0,0.84-0.4,1.63-1.07,2.13c1.6,0.62,2.65,2.15,2.66,3.86
		c0.01,2.27-1.83,4.12-4.1,4.12c-2.27,0.01-4.12-1.83-4.12-4.1c0-1.67,1-3.17,2.54-3.81c-0.66-0.51-1.05-1.3-1.05-2.14
		c-0.05-1.43,1.07-2.63,2.5-2.68C443.07,613.94,443.08,613.94,443.09,613.94z M443.09,625.73c1.79-0.01,3.23-1.47,3.22-3.26
		c-0.01-1.79-1.47-3.23-3.26-3.22c-1.79,0.01-3.23,1.47-3.22,3.26c0,1.78,1.44,3.22,3.22,3.22c0.02,0,0.05,0,0.07,0H443.09z
		 M443.09,618.36c1,0,1.81-0.81,1.81-1.81c0-1-0.81-1.81-1.81-1.81c-1,0-1.81,0.81-1.81,1.81
		C441.28,617.55,442.09,618.36,443.09,618.36c0.01,0,0.01,0,0.02,0H443.09z"/>
	<path class="st11" d="M465.58,613.89c2.1-0.02,3.89,1.54,4.17,3.62v0.09c0,0.34,0,0.71,0,1.09c0.03,1.76-0.38,3.5-1.2,5.05
		c-0.89,1.63-2.56,2.68-4.42,2.75l0,0c-0.24,0.01-0.44-0.18-0.45-0.42c0,0,0,0,0,0c-0.01-0.25,0.18-0.46,0.43-0.47c0,0,0,0,0,0
		c1.53-0.06,2.91-0.94,3.62-2.3c0.44-0.79,0.75-1.64,0.89-2.54c-0.79,0.9-1.93,1.41-3.13,1.39c-2.3,0-4.17-1.87-4.17-4.17
		s1.87-4.17,4.17-4.17L465.58,613.89z M468.9,618.03c0-1.82-1.48-3.3-3.3-3.3c-1.82,0-3.3,1.48-3.3,3.3c0,1.82,1.48,3.3,3.3,3.3
		c1.81,0.01,3.29-1.45,3.3-3.26C468.9,618.06,468.9,618.05,468.9,618.03z"/>
	<path class="st11" d="M472.99,620.19c-0.03-1.56,0.39-3.1,1.21-4.42c0.98-1.75,3.18-2.37,4.93-1.39c0.58,0.33,1.06,0.81,1.39,1.39
		c0.82,1.33,1.26,2.86,1.25,4.42c0.02,1.56-0.41,3.09-1.23,4.42c-0.66,1.13-1.84,1.85-3.15,1.92c-1.31-0.07-2.49-0.78-3.17-1.9
		C473.39,623.3,472.97,621.76,472.99,620.19z M473.88,620.19c-0.02,1.39,0.36,2.75,1.09,3.93c0.64,1.34,2.24,1.9,3.58,1.26
		c0.55-0.26,1-0.71,1.26-1.26c1.46-2.41,1.46-5.43,0-7.84c-0.5-0.89-1.41-1.46-2.43-1.52c-1.01,0.05-1.93,0.63-2.41,1.52
		C474.24,617.45,473.86,618.81,473.88,620.19z"/>
	<path class="st11" d="M487.61,615.12l-1.81,1.05c-0.19,0.13-0.45,0.08-0.58-0.11c-0.01-0.01-0.01-0.02-0.02-0.03
		c-0.12-0.19-0.07-0.45,0.12-0.58c0.01-0.01,0.03-0.02,0.04-0.02l2.45-1.49c0.21-0.1,0.47-0.03,0.6,0.16c0.03,0.11,0.03,0.22,0,0.33
		v11.61c0,0.24-0.2,0.43-0.44,0.43c-0.24,0-0.43-0.19-0.43-0.43L487.61,615.12z"/>
	<path class="st11" d="M491.61,625.69l5.89-5.34c0.69-0.62,1.08-1.5,1.09-2.43c0-0.81-0.31-1.58-0.85-2.17
		c-0.61-0.68-1.49-1.07-2.41-1.05c-0.81,0-1.6,0.29-2.21,0.83l-0.62,0.56c-0.18,0.17-0.45,0.16-0.62-0.02
		c-0.17-0.18-0.16-0.45,0.02-0.62l0.62-0.58c0.77-0.69,1.77-1.07,2.81-1.07c1.15-0.01,2.26,0.48,3.02,1.34
		c0.71,0.75,1.1,1.74,1.1,2.77c0,1.17-0.49,2.29-1.36,3.08l-5.05,4.58h6c0.25,0.05,0.4,0.29,0.35,0.53
		c-0.04,0.18-0.18,0.32-0.35,0.35h-7.12c-0.12,0.01-0.24-0.04-0.33-0.13C491.42,626.16,491.43,625.87,491.61,625.69z"/>
	<path class="st11" d="M520.73,614.54l-3.26,3.37c0.82,0.16,1.58,0.57,2.17,1.16c1.66,1.68,1.66,4.39,0,6.07
		c-0.81,0.81-1.9,1.27-3.04,1.27c-1.13,0.02-2.22-0.44-3.01-1.25c-0.18-0.15-0.2-0.41-0.05-0.59c0.01-0.02,0.03-0.03,0.05-0.05
		c0.16-0.18,0.44-0.18,0.61-0.02c0.01,0.01,0.01,0.01,0.02,0.02c0.63,0.63,1.5,0.98,2.39,0.96c0.9,0,1.76-0.35,2.41-0.98
		c1.31-1.35,1.28-3.5-0.07-4.82c-0.63-0.61-1.47-0.95-2.34-0.96c-0.14,0-0.27-0.07-0.36-0.18l0,0c-0.18-0.17-0.19-0.46-0.01-0.64
		c0,0,0.01-0.01,0.01-0.01l3.13-3.24h-4.84c-0.25,0-0.45-0.2-0.45-0.45s0.2-0.45,0.45-0.45h5.9c0.25,0,0.45,0.2,0.45,0.45
		c0.02,0.07,0.02,0.13,0,0.2C520.87,614.46,520.81,614.51,520.73,614.54z"/>
	<path class="st11" d="M531.38,623.77h-6.9c-0.09,0.04-0.19,0.04-0.27,0c-0.17-0.15-0.18-0.42-0.03-0.59
		c0.01-0.01,0.02-0.02,0.03-0.03l7.24-9.15l0,0c0.17-0.17,0.44-0.17,0.61,0c0,0,0,0,0,0c0.06,0.06,0.11,0.13,0.14,0.22l0,0v8.73
		h0.85c0.24,0,0.43,0.19,0.43,0.43c0,0.24-0.19,0.43-0.43,0.43h-0.85V626c-0.05,0.25-0.29,0.4-0.53,0.35
		c-0.18-0.04-0.32-0.18-0.35-0.35L531.38,623.77z M531.38,622.91v-7.43l-5.96,7.43H531.38z"/>
	<path class="st11" d="M536.4,625.12c-0.18-0.16-0.18-0.44-0.02-0.61c0.01-0.01,0.01-0.01,0.02-0.02c0.17-0.18,0.46-0.19,0.64-0.01
		c0,0,0.01,0.01,0.01,0.01c0.64,0.62,1.5,0.96,2.39,0.96c0.9,0,1.76-0.36,2.39-1c1.32-1.31,1.33-3.44,0.02-4.76
		c-0.64-0.64-1.5-1-2.41-1c-0.9-0.01-1.77,0.35-2.41,1c-0.15,0.17-0.42,0.18-0.59,0.03c-0.01-0.01-0.02-0.02-0.03-0.03
		c-0.06-0.03-0.1-0.08-0.13-0.14l0,0l0,0c-0.01-0.05-0.01-0.1,0-0.14c0-0.03,0-0.06,0-0.09l0.62-5.09c0-0.13,0.07-0.26,0.18-0.33
		c0.08-0.07,0.18-0.11,0.29-0.11h5.92c0.25,0,0.45,0.2,0.45,0.45c0.01,0.24-0.18,0.44-0.42,0.45c-0.01,0-0.02,0-0.04,0h-5.43
		l-0.45,3.75c1.68-0.97,3.8-0.71,5.18,0.65c0.81,0.8,1.27,1.9,1.25,3.04c0.01,1.14-0.44,2.23-1.23,3.04
		c-0.81,0.79-1.91,1.24-3.04,1.25C538.38,626.44,537.23,625.97,536.4,625.12z"/>
	<path class="st11" d="M548.43,616.44c0.87-1.65,2.57-2.71,4.44-2.77c0.24-0.01,0.44,0.18,0.45,0.42c0,0,0,0,0,0
		c0,0.25-0.19,0.45-0.43,0.47c-1.53,0.08-2.91,0.96-3.62,2.32c-0.42,0.79-0.72,1.65-0.89,2.54c1.52-1.71,4.15-1.86,5.86-0.33
		c1.71,1.52,1.86,4.15,0.33,5.86s-4.15,1.86-5.86,0.33c-0.85-0.76-1.35-1.84-1.39-2.98c-0.02-0.27-0.02-0.54,0-0.82
		C547.27,619.73,547.65,618,548.43,616.44z M548.14,622.22c-0.01,0.08-0.01,0.16,0,0.24c0.01,0.04,0.01,0.09,0,0.13
		c0.12,1.86,1.72,3.26,3.58,3.14c1.86-0.12,3.26-1.72,3.14-3.58c-0.12-1.86-1.72-3.26-3.58-3.14c-1.69,0.11-3.04,1.46-3.14,3.14
		V622.22z"/>
	
		<rect x="359.68" y="648.37" transform="matrix(1 -2.617982e-03 2.617982e-03 1 -1.7031 1.0883)" class="st2" width="110.36" height="5.42"/>
	
		<rect x="359.71" y="660.48" transform="matrix(1 -2.617982e-03 2.617982e-03 1 -1.7348 1.0463)" class="st2" width="78.14" height="5.42"/>
	
		<rect x="454.8" y="557.49" transform="matrix(1 -2.617982e-03 2.617982e-03 1 -1.4649 1.2646)" class="st2" width="55.04" height="5.42"/>
	<rect x="333.4" y="572.03" class="st8" width="245.69" height="120.41"/>
	<rect x="333.4" y="572.03" class="st12" width="245.69" height="120.41"/>
	<rect x="333.4" y="593.42" class="st8" width="245.69" height="120.41"/>
	<rect x="333.4" y="593.42" class="st13" width="245.69" height="120.41"/>
	<rect x="333.4" y="615.48" class="st8" width="245.69" height="98.35"/>
	<rect x="333.4" y="615.48" class="st12" width="245.69" height="98.35"/>
	<path class="st8" d="M575.9,741.57l-260.41-8.33v-210.1l8.2,6.09c3.95,2.93,8.61,4.75,13.49,5.27H575.9V741.57z"/>
	
		<rect x="316.05" y="531.91" transform="matrix(0.6162 -0.7876 0.7876 0.6162 -298.7021 454.4617)" class="st3" width="1.81" height="3.62"/>
	<path class="st3" d="M336.83,544.9c-1-0.1-1.99-0.26-2.97-0.47l0.38-1.81c0.89,0.2,1.79,0.35,2.7,0.45h4.24v1.81L336.83,544.9z
		 M346.66,544.9v-1.81h7.24v1.81H346.66z M359.34,544.9v-1.81h7.24v1.81H359.34z M372.02,544.9v-1.81h7.24v1.81H372.02z
		 M384.7,544.9v-1.81h7.24v1.81H384.7z M397.37,544.9v-1.81h7.24v1.81H397.37z M410.05,544.9v-1.81h7.24v1.81H410.05z M422.73,544.9
		v-1.81h7.24v1.81H422.73z M435.41,544.9v-1.81h7.24v1.81H435.41z M448.09,544.9v-1.81h7.24v1.81H448.09z M460.77,544.9v-1.81h7.24
		v1.81H460.77z M473.44,544.9v-1.81h7.24v1.81H473.44z M486.12,544.9v-1.81h7.24v1.81H486.12z M498.8,544.9v-1.81h7.24v1.81H498.8z
		 M511.48,544.9v-1.81h7.24v1.81H511.48z M524.16,544.9v-1.81h7.24v1.81H524.16z M536.84,544.9v-1.81h7.24v1.81H536.84z
		 M549.51,544.9v-1.81h7.24v1.81H549.51z M328.46,542.71c-2.21-0.94-4.29-2.16-6.19-3.62l-0.18-0.14l1.12-1.43l0.18,0.14
		c1.78,1.39,3.73,2.55,5.8,3.46L328.46,542.71z"/>
	<polygon class="st3" points="566.2,547.51 564.38,547.51 564.38,544.79 561.67,544.79 561.67,542.98 566.2,542.98 	"/>
	<path class="st3" d="M566.2,723.08h-1.81v-7.24h1.81V723.08z M566.2,710.53h-1.81v-7.15h1.81V710.53z M566.2,698h-1.81v-7.24h1.81
		V698z M566.2,685.46h-1.81v-7.24h1.81V685.46z M566.2,672.91h-1.81v-7.15h1.81V672.91z M566.2,660.38h-1.81v-7.24h1.81V660.38z
		 M566.2,647.83h-1.81v-7.17h1.81V647.83z M566.2,635.29h-1.81v-7.24h1.81V635.29z M566.2,622.76h-1.81v-7.24h1.81V622.76z
		 M566.2,610.21h-1.81v-7.24h1.81V610.21z M566.2,597.68h-1.81v-7.24h1.81V597.68z M566.2,585.12h-1.81v-7.15h1.81V585.12z
		 M566.2,572.59h-1.81v-7.24h1.81V572.59z M566.2,560.06h-1.81v-7.24h1.81V560.06z"/>
	<polygon class="st3" points="566.2,733.01 561.63,732.86 561.7,731.05 564.38,731.14 564.38,728.46 566.2,728.46 	"/>
	<path class="st3" d="M556.29,732.68l-7.14-0.24v-1.81l7.14,0.24V732.68z M543.81,732.27l-7.14-0.24v-1.81l7.14,0.24V732.27z
		 M531.31,731.85l-7.12-0.24v-1.81l7.14,0.24L531.31,731.85z M518.83,731.43l-7.14-0.24v-1.81l7.14,0.24V731.43z M506.35,731.02
		l-7.14-0.24v-1.81l7.12,0.24L506.35,731.02z M493.87,730.6l-7.14-0.24v-1.81l7.14,0.24V730.6z M481.4,730.18l-7.14-0.24v-1.81
		l7.14,0.24V730.18z M468.9,729.77l-7.12-0.24v-1.81l7.14,0.24L468.9,729.77z M456.36,729.4l-7.14-0.24v-1.81l7.14,0.24V729.4z
		 M443.89,728.99l-7.14-0.24v-1.81l7.12,0.24L443.89,728.99z M431.41,728.57l-7.14-0.24v-1.81l7.14,0.24V728.57z M418.93,728.15
		l-7.14-0.24v-1.81l7.14,0.24V728.15z M406.43,727.74l-7.12-0.24v-1.81l7.14,0.24L406.43,727.74z M393.95,727.32l-7.14-0.24v-1.81
		l7.14,0.24V727.32z M381.47,726.9l-7.14-0.24v-1.81l7.12,0.24L381.47,726.9z M368.99,726.49l-7.14-0.24v-1.81l7.14,0.24V726.49z
		 M356.51,726.07l-7.01-0.29v-1.81l7.14,0.24L356.51,726.07z M344.07,725.6l-7.12-0.24v-1.81l7.14,0.24L344.07,725.6z
		 M331.59,725.18l-7.14-0.24v-1.81l7.14,0.24V725.18z"/>
	
		<rect x="316.41" y="721.95" transform="matrix(0.0332 -0.9995 0.9995 0.0332 -416.5659 1016.9113)" class="st3" width="1.81" height="3.62"/>
	<path class="st0" d="M553.14,635.22c0,6.41-4.56,11.63-10.2,11.63s-10.22-5.22-10.22-11.63c0-6.41,4.56-11.63,10.22-11.63
		C548.59,623.59,553.14,628.85,553.14,635.22z"/>
	<path class="st1" d="M547.68,635.22c-0.36,2.62-2.77,4.44-5.39,4.08c-2.62-0.36-4.44-2.77-4.08-5.39c0.33-2.36,2.34-4.13,4.73-4.13
		C545.75,629.98,547.87,632.41,547.68,635.22z"/>
</g>
<g id="freepik--Character--inject-202">
	<path class="st14" d="M806.72,743.53c3.89,1.29,114.96,0.98,119.18-1.72c1.59-1,2.5-17.19,3.02-36.77
		c0.13-4.22,0.2-8.59,0.27-13.02c0.09-5.25,0.16-10.58,0.2-15.74c0.13-23.2-0.2-43.61-0.2-43.61h-72.3v43.61v15.74l0.38,13.02
		c0,0-42.42,19.16-46.73,22.55C806.23,730.98,802.85,742.26,806.72,743.53z"/>
	<path class="st3" d="M806.72,743.53c3.89,1.29,114.96,0.98,119.18-1.72c1.59-1,2.5-17.19,3.02-36.77c0.13-4.22,0.2-8.59,0.27-13.02
		c0.09-5.25,0.16-10.58,0.2-15.74h-72.45v15.74l0.38,13.02c0,0-42.47,19.16-46.78,22.55C806.23,730.98,802.85,742.26,806.72,743.53z
		"/>
	<path class="st8" d="M806.38,743.69c2.54,0.83,49.84,1.01,84.29,0.29c7.97-0.16,15.25-0.38,21.14-0.63
		c8.1-0.38,13.55-0.82,14.49-1.38c1.96-1.27,2.9-25.01,3.33-50.08h-72.72l0.36,13.09c0,0-42.69,19.25-47.09,22.73
		C805.78,731.2,802.5,742.39,806.38,743.69z"/>
	<path class="st5" d="M807.97,739.24c18.73-0.53,94.27-0.83,112.82,0.09c0.14,0,0.14,0.11,0,0.11c-18.55,0.92-94.09,0.62-112.82,0
		C807.57,739.53,807.57,739.24,807.97,739.24z"/>
	<path class="st5" d="M854.61,700.84c7.37-1.39,16.39-0.29,22.02,4.94c0.22,0.2,0,0.51-0.31,0.43c-7.07-2.25-14.35-3.74-21.73-4.44
		c-0.26-0.01-0.47-0.22-0.46-0.48C854.13,701.04,854.35,700.84,854.61,700.84z"/>
	<path class="st5" d="M849.39,704.05c7.37-1.39,16.39-0.29,22.02,4.94c0.22,0.2,0,0.51-0.31,0.43c-7.07-2.26-14.35-3.75-21.73-4.46
		c-0.25-0.06-0.42-0.31-0.36-0.56C849.06,704.22,849.21,704.08,849.39,704.05z"/>
	<path class="st5" d="M843.96,707.29c7.37-1.39,16.39-0.29,22.02,4.94c0.22,0.2,0,0.51-0.31,0.43c-7.06-2.26-14.35-3.76-21.73-4.46
		c-0.25-0.06-0.42-0.31-0.36-0.56C843.62,707.47,843.77,707.32,843.96,707.29z"/>
	<path class="st5" d="M838.69,710.51c7.37-1.41,16.3-0.31,22.02,4.93c0.22,0.22,0,0.53-0.31,0.43c-7.07-2.25-14.35-3.74-21.73-4.44
		c-0.25-0.06-0.41-0.31-0.36-0.56C838.35,710.69,838.5,710.55,838.69,710.51z"/>
	<path class="st5" d="M844.3,694.34c5.22,4.02,12.01,5.67,18.11,7.9c0.63,0.24,1.12-0.36,1.14-0.92c0.11,0,0.2-0.09,0.19-0.2
		c0-0.02-0.01-0.05-0.01-0.07c-2.26-6.51-6.18-12.31-11.39-16.83c-3.08-2.59-8.48-4.36-11.36-0.36
		C838.11,687.85,841.24,691.97,844.3,694.34z M842.4,688.42c-1.32-8.1,7.37-3.88,9.56-1.81c1.4,1.31,2.7,2.72,3.91,4.2
		c2.46,3.11,4.76,6.34,6.88,9.69c-2.93-1.27-5.94-2.3-8.91-3.46C850.32,695.57,843.13,692.85,842.4,688.42L842.4,688.42z"/>
	<path class="st5" d="M888.28,689.76c-1.81-4.6-7.46-4.22-11.08-2.5c-6.18,3.07-11.44,7.72-15.25,13.48
		c-0.06,0.09-0.02,0.22,0.07,0.27c0.01,0.01,0.02,0.01,0.04,0.02c-0.15,0.49,0.12,1,0.61,1.15c0.09,0.03,0.18,0.04,0.28,0.04
		c6.45-0.65,13.44-0.54,19.49-3.15C885.98,697.54,889.98,694.09,888.28,689.76z M872.52,699.23c-3.17,0.4-6.34,0.63-9.49,1.14
		c2.99-2.61,5.83-5.43,9.06-7.66c1.55-1.14,3.17-2.17,4.85-3.1c2.63-1.38,12.08-3.3,8.78,4.2
		C883.93,697.94,876.31,698.76,872.52,699.23z"/>
	<path class="st10" d="M893.59,743.89c6.83-0.18,13.06-0.36,18.2-0.58c8.11-0.36,13.55-0.82,14.49-1.39
		c1.49-0.94,2.39-14.83,2.93-32.42L893.59,743.89z"/>
	<path class="st7" d="M956.4,318.9c0,0-22.62,198.92-23.09,201.37c0,0.33-1.65,177.13-1.65,177.13h-79.69
		c0,0,2.81-152.88,5.8-181.55c3.82-36.57,30.9-196.95,30.9-196.95L956.4,318.9z"/>
	<path class="st5" d="M923.82,527.08c2.41-41.87,6.11-83.65,11.08-125.33c2.79-23.55,6.16-46.87,9.51-70.29c0-0.2,0.36-0.18,0.33,0
		c-6.18,41.66-10.54,83.64-14.31,125.59s-6.48,83.88-7.24,125.93c-0.45,23.69,0.11,72.07-0.65,95.88c-0.05,0.25-0.29,0.4-0.53,0.35
		c-0.18-0.04-0.32-0.18-0.35-0.35C920.56,636.11,921.32,569.48,923.82,527.08z"/>
	<path class="st5" d="M956.4,318.9c0,0-22.62,198.92-23.09,201.37c0,0.11-0.42,14.13-0.94,33.49L896.83,318.9H956.4z"/>
	<path class="st5" d="M856.51,682.4c11.86,0.6,60.35,1.16,70.78,0.54c0.72,0,0.85-0.56,0.09-0.58c-35.3-1.36-59.23-0.49-70.85-0.45
		c-0.14,0.03-0.22,0.17-0.19,0.3C856.36,682.31,856.43,682.38,856.51,682.4z"/>
	<path class="st14" d="M914.94,751.45c3.97,1,114.72-7.24,118.74-10.22c1.54-1.12,1.27-17.33,0.4-36.89c-0.16-4.22-0.2-8.6-0.65-13
		c-0.54-5.54-1.16-11.08-1.81-16.43c-2.81-23.17-6.09-42.53-6.09-42.53l-70.08,5l4.22,41.91l1.72,17.17l1.29,12.97
		c0,0-40.99,22.13-45.04,25.88C913.58,739.06,910.97,750.43,914.94,751.45z"/>
	<path class="st3" d="M914.94,751.45c3.97,1,114.72-7.24,118.74-10.22c1.54-1.12,1.27-17.33,0.4-36.89c-0.16-4.22-0.2-8.6-0.65-13
		c-0.54-5.54-1.16-11.08-1.81-16.43c-21.59,1.45-52.63,3.28-71.94,4.38l1.72,17.17l1.29,12.97c0,0-40.99,22.13-45.04,25.88
		C913.58,739.06,910.97,750.43,914.94,751.45z"/>
	<path class="st8" d="M914.6,751.61c3.98,1.01,115.35-7.24,119.41-10.25c1.81-1.39,1.1-25.14-0.25-50.19l-72.45,5.18l1.3,13.04
		c0,0-41.22,22.24-45.28,26.01C913.27,739.17,910.63,750.61,914.6,751.61z"/>
	<path class="st5" d="M915.88,747.04c18.64-1.81,93.96-7.53,112.53-7.93c0.14,0,0.16,0.09,0,0.11
		c-18.44,2.23-93.82,7.24-112.53,8.13C915.5,747.37,915.48,747.08,915.88,747.04z"/>
	<path class="st5" d="M959.68,705.44c7.24-1.92,16.3-1.47,22.31,3.35c0.24,0.18,0,0.53-0.29,0.45c-7.19-1.74-14.54-2.7-21.93-2.88
		c-0.26-0.02-0.45-0.24-0.44-0.5C959.35,705.66,959.48,705.49,959.68,705.44z"/>
	<path class="st5" d="M954.61,709.03c7.24-1.92,16.3-1.47,22.31,3.35c0.24,0.2,0,0.53-0.27,0.47c-7.19-1.75-14.55-2.72-21.95-2.9
		c-0.26-0.02-0.45-0.24-0.44-0.5C954.28,709.25,954.41,709.08,954.61,709.03z"/>
	<path class="st5" d="M949.53,712.61c7.24-1.92,16.3-1.45,22.33,3.37c0.22,0.18,0,0.51-0.29,0.45c-7.19-1.75-14.54-2.72-21.93-2.9
		c-0.26-0.01-0.46-0.23-0.45-0.49C949.2,712.84,949.34,712.67,949.53,712.61z"/>
	<path class="st5" d="M944.48,716.2c7.24-1.92,16.3-1.45,22.31,3.37c0.24,0.18,0,0.51-0.29,0.45c-7.19-1.74-14.54-2.72-21.93-2.9
		c-0.26-0.02-0.45-0.24-0.44-0.5C944.15,716.42,944.29,716.25,944.48,716.2z"/>
	<path class="st5" d="M949.01,699.66c5.43,3.62,12.37,4.82,18.6,6.61c0.65,0.18,1.1-0.45,1.09-1.01c0.11-0.01,0.19-0.11,0.18-0.22
		c0-0.02-0.01-0.04-0.01-0.05c-2.72-6.34-7.05-11.85-12.57-15.99c-3.26-2.34-8.77-3.73-11.36,0.45
		C942.34,693.63,945.69,697.54,949.01,699.66z M946.69,693.9c-1.81-7.97,7.08-4.38,9.4-2.55c1.49,1.21,2.9,2.52,4.22,3.91
		c2.66,2.93,5.18,6,7.53,9.18c-3.01-1.07-6.09-1.81-9.06-2.83c-3.79-1.2-11.14-3.33-12.19-7.72H946.69z"/>
	<path class="st5" d="M992.48,691.97c-2.12-4.44-7.75-3.62-11.25-1.68c-5.93,3.5-10.84,8.5-14.24,14.49
		c-0.06,0.08-0.04,0.19,0.03,0.25c0.03,0.02,0.06,0.03,0.09,0.04c-0.11,0.5,0.2,0.99,0.7,1.1c0.09,0.02,0.17,0.03,0.26,0.02
		c6.39-1.1,13.37-1.49,19.23-4.53C990.67,699.92,994.47,696.19,992.48,691.97z M977.43,702.54c-3.12,0.62-6.27,1.09-9.36,1.81
		c2.77-2.81,5.43-5.74,8.49-8.3c1.46-1.24,3-2.39,4.62-3.42c2.52-1.56,11.83-4.15,9.06,3.62c-1.52,4.17-9.07,5.56-12.82,6.28
		L977.43,702.54z"/>
	<path class="st7" d="M891.97,318.9c0,0-2.16,26.33,8.44,40.72c3.15,4.29,13.28,7.88,17.75,11.14c0,0,7.52,136.78,11.23,155.31
		c1.9,9.56,29.65,176.84,29.65,176.84l81.88-5.96c0,0-37.58-165.56-39.39-175.96c-1.81-10.4-10.02-136.29-9.45-139.26
		c7.86-42.45-8.64-62.83-8.64-62.83L891.97,318.9z"/>
	<path class="st5" d="M950.08,326.7c1.64,5.62,5.08,10.55,9.8,14.02c5.19,3.69,11.35,5.8,17.71,6.07c1.07,0.09,1.16,1.7,0,1.72
		c-13,0-26.14-8.24-28.04-21.73C949.5,326.49,950.01,326.41,950.08,326.7z"/>
	<path class="st5" d="M897.79,357.82c4.72,1.9,9.22,4.29,13.44,7.14c4.46,2.75,8.59,6,12.88,8.97c0.18,0.13,0,0.4-0.14,0.29
		c-4.53-2.61-9.22-4.85-13.69-7.55c-4.47-2.44-8.71-5.28-12.68-8.48C897.44,358.11,897.59,357.75,897.79,357.82z"/>
	<path class="st5" d="M895.96,330.72c0.69,2.97,1.56,5.92,2.34,8.87c0.78,2.95,1.32,5.6,2.19,8.33c0.73,2.66,2.2,5.05,4.24,6.9
		c1.16,0.96,2.41,1.81,3.62,2.7c0.65,0.47,1.36,0.92,2.03,1.39c-0.08-0.37-0.18-0.77-0.27-1.2c-0.25-1.12-0.51-2.25-0.74-3.39
		c-0.54-2.5-1.07-5.02-1.56-7.53c-1-4.96-1.92-9.96-3.19-14.85c-0.01-0.09,0.05-0.17,0.14-0.18c0.07-0.01,0.13,0.03,0.16,0.09
		c1.47,4.84,3.04,9.62,4.36,14.49c0.63,2.39,3.06,14.25,3.19,15.09c0.13,0.83,0.24,1.81,0.31,2.63c0.16,0.88,0.2,1.79,0.13,2.68
		c0,0.22-0.31,0.18-0.4,0l0,0c-0.4-0.81-0.69-1.67-0.87-2.55c-0.25-0.85-0.49-1.7-0.69-2.55c0-0.33-0.13-0.63-0.18-0.96
		c-1.21-0.65-2.35-1.56-3.48-2.3c-1.12-0.74-2.48-1.58-3.62-2.48c-2.15-1.65-3.76-3.92-4.6-6.5c-0.85-2.78-1.46-5.63-1.81-8.51
		c-0.53-3.37-0.96-6.77-1.59-10.12C895.61,330.62,895.9,330.52,895.96,330.72z"/>
	<path class="st5" d="M980.18,323.7c4.63,8.41,7.58,17.63,8.68,27.17c1,10.41-1.67,20.56-2.17,30.9
		c-0.53,10.67,0.2,21.37,0.69,32.02c0.5,10.98,0.97,21.95,1.43,32.93c0.46,10.98,0.93,21.84,1.41,32.6
		c0.47,10.87,0.71,21.73,1.58,32.6c1.17,10.6,3.09,21.1,5.76,31.42c2.41,10.72,4.87,21.45,7.35,32.18
		c4.87,21.35,15.63,72.27,19.92,93.73c0.53,2.64,1.09,5.29,1.61,7.93c-0.03,0.08-0.11,0.11-0.19,0.09
		c-0.04-0.01-0.07-0.05-0.09-0.09c-5.43-21.1-16.21-71.87-21.12-93.11c-2.41-10.61-4.87-21.23-7.35-31.84
		c-2.39-10.32-5.16-20.67-6.72-31.15c-1.27-10.45-1.99-20.97-2.17-31.5c-0.47-10.87-0.94-21.73-1.41-32.6s-0.95-21.84-1.43-32.93
		c-0.47-10.76-1.1-21.52-1.2-32.28c-0.08-5.25,0.12-10.5,0.62-15.72c0.53-5.22,1.56-10.38,1.94-15.61
		c0.56-9.99-1.07-19.99-4.78-29.29c-0.92-2.43-1.96-4.78-3.1-7.12C979.15,323.59,979.91,323.15,980.18,323.7z"/>
	<path class="st5" d="M961.58,686.17c11.86-0.4,60.22-3.82,70.64-5.31c0.72-0.09,0.8-0.63,0-0.6c-35.28,1.58-59.06,4.42-70.64,5.43
		c-0.13,0.05-0.19,0.2-0.14,0.33C961.46,686.09,961.51,686.14,961.58,686.17z"/>
	<path class="st14" d="M913.47,221.94c-23.91,28.58-64.44,57.58-77.52,57.16c-13.95-0.45-49.01-36.22-65.2-68.19
		c-2.66-5.31,41.95-17.71,50.3-10.69c4.53,3.82,21.23,32.02,25.07,32.6c2.05,0.31,35.59-17.19,58.12-26.39
		C924.45,198.22,921.26,212.62,913.47,221.94z"/>
	<path class="st14" d="M770.81,210.91c-3.39-5.02-16.95-29.36-19.22-36.97c-2.26-7.61-7.24-30.01-1.5-32.33
		c5.74-2.32,7.61,4.11,7.61,4.11s-0.56-9.78,5.34-11.59s8.62,8.3,8.62,8.3s0.14-10.09,6.18-11.48s7.05,9.24,7.05,9.24
		s-0.31-9.24,5.14-8.3c6.56,1.14,5.18,18.22,8.31,26.44c0.71,1.81,17.08,36.82,17.08,36.82L770.81,210.91z"/>
	<path class="st5" d="M784.77,139.28c-0.98,12.57,0.78,18.22,6.57,29.2c0.11,0.22-0.18,0.43-0.33,0.22
		c-6.65-10.23-9.87-17.01-6.85-29.5C784.32,138.59,784.82,138.68,784.77,139.28z"/>
	<path class="st5" d="M771.75,141.44c0.13,13.13,1.97,19.29,7.24,31.22c0,0.18-0.2,0.33-0.29,0.16c-6.1-11.28-9.15-18.11-7.55-31.28
		C771.17,140.95,771.75,140.77,771.75,141.44z"/>
	<path class="st5" d="M757.98,146.33c1.05,12.68,2.77,19.56,9.33,30.5c0.07,0.11,0.04,0.26-0.07,0.33
		c-0.11,0.07-0.26,0.04-0.33-0.07c-7.77-10.5-9.98-19.02-9.31-30.68C757.64,145.6,757.91,145.53,757.98,146.33z"/>
	<path class="st14" d="M821.1,200.23c0,0,1.47-15.72,0.58-22.77c-0.89-7.05-13.82-32.11-19.38-29.63
		c-7.24,3.22-2.57,19.16,0.72,26.66c0,0-16.66,7.43-15.81,19.58S821.1,200.23,821.1,200.23z"/>
	<path class="st5" d="M800.6,149.37c-4.44,7.66,0.51,17.24,3.15,24.76c0.15,0.38-0.04,0.81-0.42,0.96
		c-0.08,0.03-0.17,0.05-0.25,0.05c-6.77,3.62-15.27,10.58-16.3,18.6c0,0.1-0.08,0.18-0.18,0.18s-0.18-0.08-0.18-0.18
		c-0.11-8.75,7.68-16.3,15.36-19.76c-2.84-7.66-7.37-17.5-1.29-24.65C800.49,149.28,800.64,149.31,800.6,149.37z"/>
	<path class="st8" d="M822.59,199.83l-46.49,28.27c0,0,40.44,52.78,62.47,52.27c22.02-0.51,68.68-46.78,77.88-61.58
		c9.2-14.8,0.82-18.37-14.2-12.37c-15.01,6-54.66,23.74-55.57,23.62C845.77,229.91,822.59,199.83,822.59,199.83z"/>
	<path class="st5" d="M786.67,236.41c7.08-3.84,35.59-20.58,41.51-24.6c0.4-0.29,0.34-0.62-0.13-0.38
		c-21.54,10.98-34.76,20.58-41.53,24.69C786.36,236.23,786.49,236.51,786.67,236.41z"/>
	<path class="st10" d="M916.41,218.74c-7.1,11.5-36.66,41.84-59.88,55.19l54.12-70.04C920.03,202.35,923.65,206.98,916.41,218.74z"
		/>
	<path class="st0" d="M886.94,335.8c2.83,2.23,104,0,104.45-0.85c1.25-2.16-20.27-100.56-67.83-131.46
		c-8.39-5.43-21.03-1.47-26.48,2.9c-2.72,2.17-9.27,17.77-10.22,31.15C885.93,250.92,885.16,334.38,886.94,335.8z"/>
	<path class="st8" d="M920.41,201.22c0,0-5.43,63.39-5.63,65.96c-0.2,2.57,7.06,77.79,7.06,77.79l75.27-4.58
		c0,0-10.87-72.12-49.48-115.48C928.2,203.13,920.41,201.22,920.41,201.22z"/>
	<path class="st8" d="M895.51,207.45c0,0-2.5,56-2.37,59.5c0.13,3.5,0.34,75.53,0.34,75.53L882.39,340c0,0,2.25-48.76,2.52-52.52
		s0.72-44.95,1.7-52.72C888.13,222.27,895.51,207.45,895.51,207.45z"/>
	<path class="st8" d="M868.41,373.94c0.02,6.75-5.43,12.25-12.19,12.28l-110.72,0.4V154.22l109.85-0.4
		c6.75-0.03,12.25,5.42,12.28,12.17c0,0.01,0,0.01,0,0.02L868.41,373.94z"/>
	<path class="st12" d="M868.41,373.94c0.02,6.75-5.43,12.25-12.19,12.28l-110.72,0.4V154.22l109.85-0.4
		c6.75-0.03,12.25,5.42,12.28,12.17c0,0.01,0,0.01,0,0.02L868.41,373.94z"/>
	<path class="st7" d="M756.52,340.99c0.02,6.27-4.76,11.52-11.01,12.08v-24.09C751.71,329.56,756.48,334.76,756.52,340.99z"/>
	<path class="st8" d="M756.57,355.88c0.01,6.3-4.79,11.55-11.07,12.1v-24.11C751.73,344.43,756.52,349.63,756.57,355.88z"/>
	<path class="st8" d="M845.36,180.98l0.1,28.42c0.02,4.2-3.38,7.62-7.58,7.63l-14.94,0.05c-4.2,0.02-7.62-3.38-7.63-7.58l-0.1-28.42
		c-0.02-4.2,3.38-7.62,7.58-7.63l14.94-0.05C841.92,173.39,845.34,176.78,845.36,180.98z"/>
	<path class="st3" d="M829.47,359.45v-19.74c-0.01-4.56,3.68-8.28,8.24-8.3l0,0c4.56-0.02,8.28,3.66,8.3,8.22c0,0.01,0,0.01,0,0.02
		v19.72c0.02,4.56-3.66,8.28-8.22,8.3c-0.01,0-0.01,0-0.02,0l0,0C833.2,367.69,829.49,364.01,829.47,359.45
		C829.47,359.45,829.47,359.45,829.47,359.45z"/>
	<path class="st11" d="M788.88,172.21l-1.49-2.43c-0.1-0.21-0.35-0.29-0.56-0.18c-0.01,0.01-0.03,0.01-0.04,0.02
		c-0.2,0.11-0.28,0.36-0.16,0.57c0.01,0.01,0.01,0.02,0.02,0.03l1.05,1.81h-10.87c-0.23,0.01-0.42,0.2-0.42,0.43
		c0,0.24,0.19,0.43,0.43,0.43h11.61c0.11,0.04,0.22,0.04,0.33,0c0.21-0.13,0.27-0.41,0.14-0.63
		C788.92,172.25,788.9,172.23,788.88,172.21z"/>
	<path class="st11" d="M787.94,176.99l-0.58-0.62c-0.17-0.18-0.44-0.18-0.62-0.02c-0.18,0.17-0.18,0.44-0.02,0.62l0.58,0.62
		c1.19,1.34,1.09,3.38-0.22,4.6c-0.6,0.54-1.37,0.85-2.17,0.87c-0.93-0.01-1.81-0.4-2.43-1.09l-5.43-5.89
		c-0.18-0.17-0.47-0.17-0.65,0c-0.09,0.08-0.13,0.2-0.13,0.33l0,0v7.05c0.05,0.25,0.29,0.4,0.53,0.35c0.18-0.04,0.32-0.18,0.35-0.35
		v-5.98l4.67,4.94c1.51,1.68,4.1,1.83,5.78,0.32c0.02-0.02,0.05-0.04,0.07-0.06c0.86-0.78,1.35-1.88,1.34-3.04
		C788.99,178.65,788.6,177.72,787.94,176.99z"/>
	<path class="st11" d="M789.06,188.07c0-0.25-0.2-0.45-0.45-0.45s-0.45,0.2-0.45,0.45v4.85l-3.26-3.13
		c-0.17-0.18-0.46-0.19-0.64-0.01c0,0-0.01,0.01-0.01,0.01l0,0c-0.11,0.09-0.18,0.22-0.18,0.36c0.02,0.9-0.33,1.77-0.98,2.39
		c-0.62,0.64-1.48,1-2.37,1c-0.9,0-1.76-0.35-2.41-0.98c-1.32-1.33-1.32-3.47,0-4.8c0.18-0.16,0.18-0.44,0.02-0.61
		c-0.01-0.01-0.01-0.01-0.02-0.02c-0.15-0.17-0.42-0.18-0.59-0.03c-0.01,0.01-0.02,0.02-0.03,0.03c-0.81,0.8-1.27,1.89-1.27,3.02
		c0.02,2.38,1.95,4.29,4.33,4.29c1.13,0,2.22-0.45,3.02-1.25c0.59-0.6,0.99-1.36,1.16-2.19l3.37,3.26h0.14
		c0.07,0.02,0.13,0.02,0.2,0c0.25,0,0.45-0.2,0.45-0.45L789.06,188.07z"/>
	<path class="st11" d="M788.9,205.03L788.9,205.03l-9.06-7.24c-0.15-0.17-0.4-0.18-0.56-0.04c-0.01,0.01-0.02,0.02-0.04,0.04
		c-0.03,0.08-0.03,0.17,0,0.25v6.92h-2.3c-0.25,0.05-0.4,0.29-0.35,0.53c0.04,0.18,0.18,0.32,0.35,0.35h2.17v0.85
		c0,0.24,0.19,0.44,0.43,0.45c0.25-0.02,0.44-0.22,0.43-0.47v-0.83h8.68h0.13c0.08-0.03,0.16-0.08,0.22-0.14
		c0.16-0.16,0.17-0.43,0-0.59C788.98,205.07,788.94,205.05,788.9,205.03z M779.84,205.03v-6l7.43,5.96L779.84,205.03z"/>
	<path class="st11" d="M789.17,221.74c0-0.11-0.04-0.21-0.11-0.29c-0.07-0.11-0.19-0.18-0.33-0.18l-5.09-0.6h-0.31
		c-0.06,0.03-0.11,0.07-0.14,0.13c-0.17,0.15-0.18,0.42-0.03,0.59c0.01,0.01,0.02,0.02,0.03,0.03c0.64,0.64,1,1.5,1,2.41
		c0.02,0.89-0.33,1.76-0.96,2.39c-1.34,1.3-3.46,1.3-4.8,0c-0.64-0.63-1-1.49-1-2.39c0-0.89,0.34-1.75,0.96-2.39
		c0.18-0.17,0.19-0.46,0.01-0.64c0,0-0.01-0.01-0.01-0.01c-0.18-0.17-0.46-0.17-0.63,0c-0.79,0.81-1.23,1.91-1.23,3.04
		c0.02,1.13,0.47,2.22,1.27,3.02c0.81,0.8,1.9,1.25,3.04,1.23c1.14,0.01,2.23-0.44,3.02-1.25c0.81-0.79,1.26-1.89,1.23-3.02
		c0-0.76-0.2-1.5-0.58-2.16l3.77,0.43v5.61c-0.01,0.24,0.18,0.44,0.42,0.45c0.01,0,0.02,0,0.04,0c0.25,0,0.45-0.2,0.45-0.45
		L789.17,221.74z"/>
	<path class="st11" d="M786.45,232.83c-1.55-0.81-3.28-1.23-5.04-1.21c-0.28-0.03-0.56-0.03-0.83,0c-2.31,0.05-4.14,1.96-4.09,4.27
		c0.05,2.31,1.96,4.14,4.27,4.09c2.31-0.02,4.18-1.91,4.17-4.22c-0.01-1.2-0.54-2.34-1.45-3.12c0.89,0.16,1.74,0.46,2.54,0.89
		c1.36,0.71,2.24,2.09,2.32,3.62c0.02,0.25,0.22,0.44,0.47,0.43c0.24-0.01,0.43-0.21,0.42-0.45c0,0,0,0,0,0
		C789.13,235.31,788.08,233.67,786.45,232.83z M784.05,235.82c0,1.82-1.47,3.3-3.29,3.3c-1.82,0-3.3-1.47-3.3-3.29
		c0-1.66,1.22-3.06,2.86-3.28h0.13h0.24l0,0C782.5,232.54,784.01,233.99,784.05,235.82z"/>
	<path class="st11" d="M789.19,243.17c0-0.24-0.19-0.43-0.43-0.43s-0.43,0.19-0.43,0.43v6.12l-11.12-4.64
		c-0.23-0.07-0.47,0.04-0.58,0.25c-0.01,0.06-0.01,0.12,0,0.18c0.01,0.17,0.11,0.32,0.27,0.38l11.65,4.87
		c0.08,0.03,0.16,0.03,0.24,0h0.14c0.11-0.05,0.21-0.14,0.27-0.25c0.03-0.09,0.03-0.18,0-0.27L789.19,243.17z"/>
	<path class="st11" d="M786.67,254.49c-0.83,0-1.62,0.39-2.12,1.05c-0.88-2.09-3.29-3.08-5.38-2.2s-3.08,3.29-2.2,5.38
		c0.64,1.53,2.14,2.52,3.79,2.52c1.67-0.02,3.17-1.03,3.8-2.57c0.86,1.17,2.5,1.42,3.67,0.56c1.17-0.86,1.42-2.5,0.56-3.67
		C788.3,254.88,787.51,254.49,786.67,254.49z M780.77,260.3c-1.77,0.02-3.22-1.4-3.24-3.17c0-0.02,0-0.04,0-0.05
		c-0.01-1.79,1.43-3.25,3.22-3.26c1.79-0.01,3.25,1.43,3.26,3.22c0.01,1.79-1.43,3.25-3.22,3.26
		C780.78,260.3,780.77,260.3,780.77,260.3z M786.69,258.82c-0.98,0.22-1.95-0.39-2.17-1.36c-0.22-0.98,0.39-1.95,1.36-2.17
		c0.26-0.06,0.54-0.06,0.8,0c1,0,1.81,0.81,1.81,1.81c-0.01,0.99-0.82,1.79-1.81,1.79L786.69,258.82z"/>
	<path class="st11" d="M785.22,275.43c-2.31,0.01-4.18,1.89-4.17,4.2c0,0,0,0,0,0c-0.01,1.2,0.5,2.35,1.41,3.13
		c-0.89-0.15-1.75-0.45-2.54-0.89c-1.36-0.71-2.25-2.09-2.32-3.62c-0.01-0.25-0.22-0.44-0.47-0.43c0,0,0,0,0,0
		c-0.24,0.01-0.43,0.21-0.42,0.45c0,0,0,0,0,0l0,0c0.08,1.86,1.13,3.54,2.77,4.42c1.9,0.95,4.03,1.35,6.14,1.14h0.09
		c2.29-0.3,3.9-2.4,3.6-4.7c-0.27-2.07-2.02-3.62-4.11-3.64V275.43z M785.22,282.93c-1.83,0.03-3.34-1.43-3.37-3.26
		c-0.03-1.83,1.43-3.34,3.26-3.37s3.34,1.43,3.37,3.26c0,0.01,0,0.02,0,0.04c0.03,1.81-1.41,3.3-3.22,3.33c-0.01,0-0.01,0-0.02,0
		H785.22z"/>
	<path class="st11" d="M787.52,288.22c-1.34-0.81-2.87-1.23-4.44-1.2c-1.55-0.02-3.08,0.41-4.4,1.23c-1.75,0.98-2.37,3.18-1.39,4.93
		c0.33,0.58,0.81,1.06,1.39,1.39c1.32,0.83,2.86,1.25,4.42,1.21c1.57,0.02,3.11-0.41,4.44-1.23c1.75-0.97,2.38-3.17,1.42-4.92
		c-0.33-0.6-0.82-1.09-1.42-1.42H787.52z M787.03,293.81c-2.42,1.44-5.43,1.44-7.84,0c-0.88-0.5-1.45-1.4-1.52-2.41
		c0.07-1.01,0.63-1.92,1.5-2.43c2.43-1.42,5.43-1.42,7.86,0c1.34,0.65,1.9,2.27,1.25,3.61c-0.26,0.54-0.7,0.98-1.25,1.25V293.81z"/>
	<path class="st11" d="M789.37,301.84l-1.49-2.43c-0.1-0.21-0.35-0.29-0.56-0.18c-0.01,0.01-0.03,0.01-0.04,0.02
		c-0.2,0.11-0.28,0.36-0.16,0.57c0.01,0.01,0.01,0.02,0.02,0.03l1.05,1.81h-10.87c-0.24,0.02-0.43,0.21-0.43,0.45
		c0,0.23,0.19,0.42,0.42,0.42c0.01,0,0.01,0,0.02,0h11.63c0.11,0.03,0.22,0.03,0.33,0c0.21-0.13,0.27-0.41,0.14-0.63
		C789.4,301.88,789.39,301.85,789.37,301.84z"/>
	<path class="st11" d="M788.43,306.54l-0.58-0.62c-0.17-0.18-0.44-0.18-0.62-0.02c-0.18,0.17-0.18,0.44-0.02,0.62l0.56,0.62
		c0.54,0.6,0.84,1.38,0.83,2.19c0.02,0.92-0.37,1.8-1.05,2.41c-0.6,0.54-1.37,0.85-2.17,0.87c-0.92-0.01-1.79-0.4-2.41-1.09
		l-5.43-5.89c-0.18-0.17-0.47-0.17-0.65,0c-0.09,0.08-0.13,0.2-0.13,0.33v7.12c0.02,0.23,0.2,0.42,0.43,0.43
		c0.24,0,0.44-0.19,0.45-0.43v-5.98l4.6,5.04c0.79,0.87,1.91,1.36,3.08,1.34c1.02,0,2.01-0.39,2.75-1.09
		c0.87-0.77,1.36-1.88,1.34-3.04C789.45,308.33,789.1,307.33,788.43,306.54z"/>
	<path class="st11" d="M789.62,328.53c0-0.25-0.2-0.45-0.45-0.45s-0.45,0.2-0.45,0.45v4.85l-3.24-3.13
		c-0.17-0.18-0.46-0.19-0.64-0.01c0,0-0.01,0.01-0.01,0.01l0,0c-0.11,0.09-0.18,0.22-0.18,0.36c0.01,1.87-1.51,3.39-3.38,3.4
		c-0.9,0-1.76-0.35-2.4-0.99c-0.63-0.64-0.98-1.51-0.98-2.41c0.02-0.89,0.36-1.74,0.96-2.39c0.17-0.15,0.18-0.42,0.03-0.59
		c-0.01-0.01-0.02-0.02-0.03-0.03c-0.16-0.18-0.44-0.18-0.61-0.02c-0.01,0.01-0.01,0.01-0.02,0.02c-0.8,0.8-1.25,1.89-1.25,3.02
		c0,1.14,0.47,2.23,1.29,3.02c0.8,0.82,1.9,1.27,3.04,1.25c1.13,0,2.22-0.45,3.02-1.25c0.59-0.59,0.99-1.35,1.14-2.17l3.39,3.26
		h0.14c0.07,0.02,0.13,0.02,0.2,0c0.25,0,0.45-0.2,0.45-0.45L789.62,328.53z"/>
	<path class="st11" d="M789.42,345.43L789.42,345.43l-9.15-7.24c-0.16-0.17-0.42-0.18-0.59-0.03c-0.01,0.01-0.02,0.02-0.03,0.03
		c-0.06,0.08-0.1,0.17-0.09,0.27l0,0v6.85h-2.17c-0.24,0-0.43,0.19-0.43,0.43c-0.01,0.23,0.17,0.42,0.4,0.43c0.01,0,0.02,0,0.04,0
		h2.17v1.07c0,0.24,0.19,0.43,0.43,0.43c0.24,0,0.43-0.19,0.43-0.43v-0.85h8.68h0.13c0.08-0.03,0.16-0.08,0.22-0.14
		c0.22-0.06,0.36-0.28,0.3-0.51C789.72,345.58,789.59,345.46,789.42,345.43z M780.46,345.43v-5.98l7.35,5.98H780.46z"/>
	<path class="st11" d="M789.62,351.37c0-0.11-0.04-0.21-0.11-0.29c-0.07-0.11-0.19-0.18-0.33-0.18l-5.11-0.6h-0.31
		c-0.06,0.02-0.11,0.06-0.14,0.11c-0.18,0.16-0.18,0.44-0.02,0.61c0.01,0.01,0.01,0.01,0.02,0.02c0.64,0.64,1,1.5,1,2.41
		c0,0.89-0.34,1.75-0.96,2.39c-0.64,0.63-1.51,0.99-2.41,0.98c-1.87,0.01-3.39-1.51-3.4-3.38c0-0.89,0.35-1.75,0.97-2.38
		c0.18-0.17,0.19-0.46,0.01-0.64c0,0-0.01-0.01-0.01-0.01c-0.16-0.18-0.44-0.18-0.61-0.02c-0.01,0.01-0.01,0.01-0.02,0.02
		c-0.8,0.81-1.24,1.9-1.23,3.04c0.01,1.14,0.46,2.23,1.25,3.04c1.69,1.66,4.4,1.66,6.09,0c0.79-0.81,1.24-1.89,1.23-3.02
		c0-0.76-0.2-1.51-0.6-2.16l3.77,0.43v5.43c-0.01,0.23,0.17,0.42,0.4,0.44c0.02,0,0.04,0,0.06,0c0.25,0,0.45-0.2,0.45-0.45
		L789.62,351.37z"/>
	<path class="st11" d="M786.94,362.46c-1.55-0.82-3.28-1.24-5.04-1.21c-0.28-0.02-0.56-0.02-0.83,0c-2.31,0.08-4.12,2.02-4.04,4.33
		c0.08,2.31,2.02,4.12,4.33,4.04c2.26-0.08,4.05-1.94,4.04-4.2c0-1.2-0.52-2.34-1.43-3.12c0.89,0.15,1.75,0.45,2.54,0.89
		c1.36,0.71,2.24,2.09,2.3,3.62c0.02,0.25,0.22,0.44,0.47,0.43c0.24-0.01,0.43-0.21,0.42-0.45c0,0,0,0,0,0
		C789.62,364.95,788.57,363.3,786.94,362.46z M784.52,365.44c0,1.82-1.47,3.3-3.29,3.3c-1.82,0-3.3-1.47-3.3-3.29
		c0-1.66,1.22-3.06,2.86-3.28h0.13h0.24l0,0c1.82-0.04,3.33,1.4,3.37,3.22C784.52,365.42,784.52,365.43,784.52,365.44L784.52,365.44
		z"/>
	
		<rect x="749.4" y="173.72" transform="matrix(1 -3.665167e-03 3.665167e-03 1 -0.8339 2.7581)" class="st7" width="5.42" height="110.36"/>
	
		<rect x="840.37" y="268.74" transform="matrix(1 -3.665167e-03 3.665167e-03 1 -1.0802 3.092)" class="st7" width="5.42" height="55.04"/>
	<path class="st14" d="M945.86,226.82c28.98,40.23,59.19,105.99,41.77,117.31c-15.92,10.36-64.21-6.05-96.16-22.91
		c-6.07-3.21,6.92-52.89,13.96-50.82c12.99,3.77,36.22,14.73,37.11,15.05c1.81,0.71-7.12-28.04-15.18-55.82
		C918.36,198.62,929.34,203.81,945.86,226.82z"/>
	<path class="st14" d="M914.7,273.56c0,0-19.63-6.68-32.6-10.34c-7.24-2.05-19.92-4.44-25.95-3.5
		c-9.06,1.39-45.64,12.97-43.03,21.92c2.37,8.1,32.6-5.83,32.6-5.83s-31.75,11.36-27.17,20.59c4.58,9.24,36.69-11.07,36.69-11.07
		s-32.35,12.42-26.06,21.17c4.76,6.63,34.83-10.12,34.83-10.12s-27.73,10.87-23.13,17.89c5.07,7.75,33.8-5.96,33.8-5.96
		c14.71,15.87,28.18,17.41,37.91,17.37C915.01,325.69,914.7,273.56,914.7,273.56z"/>
	<path class="st5" d="M856.46,271.17c-3.79,1.21-7.63,2.41-11.28,3.93c-3.66,1.52-7.24,3.19-10.76,5.07
		c-4.62,2.34-8.96,5.21-12.91,8.55c7.46-5.43,20.48-11.1,24.14-12.68c3.66-1.58,7.24-3.24,10.87-4.78
		C856.64,271.26,856.64,271.17,856.46,271.17z"/>
	<path class="st5" d="M862.22,284.27c-4.75,1.81-9.54,3.3-14.22,5.25s-11.1,4.89-15.61,7.24c-0.34,0.16-0.24,0.74,0.11,0.58
		c4.6-2.08,11.3-4.78,15.94-6.79c4.64-2.01,9.16-4.24,13.84-6.09C862.34,284.36,862.29,284.25,862.22,284.27z"/>
	<path class="st5" d="M869.21,294.72c-7.36,2.5-14.44,5.75-21.14,9.69c-0.34,0.2,0,0.33,0.29,0.16c6.97-3.35,12.41-6.03,20.92-9.6
		C869.41,294.83,869.32,294.59,869.21,294.72z"/>
	<path class="st8" d="M931.42,208.88c22.28,17.1,74.6,109.67,60.93,132.22c-13.67,22.55-87.68-11.37-87.68-11.37l11.74-59.33
		c0,0,20.7,9.06,21.48,8.02c0.78-1.03-7.97-31.61-11.52-44.07C922.82,221.89,919.58,199.79,931.42,208.88z"/>
	<path class="st5" d="M918.22,330.22c2.01-8.46,8.93-43.31,9.93-50.95c0-0.53-0.25-0.71-0.4-0.16c-6.61,25.18-8.31,42.64-9.85,51.02
		C917.77,330.33,918.09,330.42,918.22,330.22z"/>
	<path class="st5" d="M915.99,269.56c2.3,0.65,4.54,1.47,6.72,2.46c1.97,0.8,3.97,1.59,5.92,2.41c4.27,1.81,8.49,3.62,12.68,5.61
		c4.18,1.99,8.39,3.89,12.55,5.92c4.17,2.03,8.19,4.29,12.33,6.32c0.2,0.09,0,0.38-0.16,0.29c-4.2-1.97-8.55-3.62-12.81-5.43
		l-12.52-5.43l-12.52-5.43l-6.1-2.72c-1.99-0.87-3.93-1.81-5.85-2.83c-0.15,1.11-0.37,2.2-0.65,3.28
		C915.19,273.65,915.48,269.45,915.99,269.56z"/>
	<path class="st5" d="M927.17,248.26c1.07,1.7,2.12,3.42,3.12,5.18l0.53,1c-0.24-0.89-0.47-1.81-0.69-2.64
		c-0.94-3.04-1.7-6.14-2.28-9.27c0-0.14,0.18-0.18,0.25,0c1.21,3.1,2.24,6.26,3.1,9.47c0.96,3.1,1.94,6.19,2.84,9.31
		c0.91,3.12,1.81,6.23,2.68,9.36c0.94,3.06,1.65,6.18,2.14,9.35c0,0.18-0.24,0.22-0.31,0c-1.3-3.06-2.39-6.22-3.24-9.44
		c-0.94-3.12-1.81-6.25-2.68-9.36c-0.36-1.3-0.71-2.63-1.07-3.93c-0.18-0.31-0.34-0.63-0.53-0.92c-0.51-0.85-0.96-1.81-1.39-2.59
		c-0.92-1.81-1.81-3.62-2.57-5.43L927.17,248.26z"/>
	<path class="st5" d="M904.67,329.76c3.19,1.09,6.36,2.28,9.51,3.46l9.44,3.62l9.44,3.62c3.15,1.18,6.3,2.34,9.54,3.3
		c-3.36-0.48-6.66-1.25-9.89-2.3c-3.24-0.98-6.41-2.12-9.58-3.33c-3.17-1.21-6.27-2.48-9.35-3.89
		C910.7,332.82,907.64,331.38,904.67,329.76z"/>
	<path class="st5" d="M992.64,340.63c0.42-1.11,0.73-2.27,0.91-3.44c0.2-1.18,0.34-2.34,0.43-3.53c0.22-2.35,0.24-4.73,0.36-7.15
		c0.14,0.58,0.24,1.18,0.36,1.81l0.2,1.81c0.09,1.21,0.09,2.42,0,3.62c-0.09,1.23-0.31,2.44-0.67,3.62
		C993.93,338.55,993.38,339.66,992.64,340.63z"/>
	<path class="st14" d="M902.37,223.45c6.47,0.72,16.1-10.18,19.42-18.47c0.24-0.56-4.56-21.61-5.07-25.88
		c-0.11-0.87-26.04,9.74-26.04,9.74c2.18,5.15,3.72,10.55,4.58,16.08C895.31,205.53,896.12,222.74,902.37,223.45z"/>
	<path class="st5" d="M890.67,188.83L890.67,188.83c0,0.13,0.27,0.63,0.58,1.45c0.54,1.38,1.39,3.62,2.16,6.25
		c0.84,2.73,1.45,5.53,1.81,8.37c0,0.2,0,0.4,0,0.6v0.09c0,0.34,0,0.82,0.11,1.38c0.88,0.01,1.76-0.05,2.63-0.18
		c14.49-2.08,17.3-20.59,17.84-27.62l-0.47,0.13c-0.69,0.2-1.59,0.51-2.68,0.89l-0.83,0.31l-5.96,2.23l-2.14,0.83l-4.53,1.81
		c-0.62,0.27-1.23,0.51-1.81,0.72l-1.81,0.74l-0.85,0.34l-0.4,0.16l-2.14,0.87l-1.03,0.42l-0.43,0.18l0,0L890.67,188.83z"/>
	<path class="st14" d="M918.35,152.12c2.7,9.64-2.99,37.13-9.94,43.14c-10.09,8.69-26.26,9.16-33.6-2.86
		c-7.1-11.65,0.96-47.36,8.69-52.8C894.89,131.71,914.34,137.9,918.35,152.12z"/>
	<path class="st5" d="M890.94,167.68c0,0,0.13,0.11,0.11,0.2c-0.49,1.81-0.74,4,0.8,5c0,0,0,0.13,0,0.11
		C889.84,172.23,890.18,169.33,890.94,167.68z"/>
	<path class="st5" d="M893.04,166.12c3.01,0.45,1.81,6.45-0.92,6.03S890.51,165.74,893.04,166.12z"/>
	<path class="st5" d="M880.18,165.92c0,0-0.16,0-0.16,0.14c-0.31,1.81-0.96,3.95-2.75,4.26v0.11
		C879.3,170.52,880.18,167.75,880.18,165.92z"/>
	<path class="st5" d="M878.83,163.66c-2.95-0.8-4.33,5.16-1.59,5.9S881.31,164.31,878.83,163.66z"/>
	<path class="st5" d="M895.74,163.77c-0.82-0.29-1.52-0.67-2.3-1.03c-0.86-0.24-1.61-0.76-2.14-1.49c-0.25-0.53-0.12-1.16,0.33-1.54
		c1-0.59,2.24-0.59,3.24,0c1.1,0.4,2.01,1.21,2.55,2.25c0.27,0.71-0.08,1.51-0.79,1.78C896.35,163.85,896.03,163.86,895.74,163.77z"
		/>
	<path class="st5" d="M877.05,159.95c0.87,0,1.67-0.11,2.52-0.16c0.89,0.06,1.77-0.17,2.52-0.65c0.42-0.42,0.5-1.06,0.22-1.58
		c-0.72-0.91-1.88-1.37-3.02-1.18c-1.16,0-2.29,0.43-3.15,1.21c-0.54,0.53-0.55,1.41-0.01,1.95
		C876.36,159.79,876.7,159.94,877.05,159.95z"/>
	<path class="st5" d="M889.37,185.27c-0.53,0.34-1.09,0.87-1.81,0.8c-0.65-0.16-1.27-0.45-1.81-0.85 M885.64,185.21
		c0.4,0.85,1.23,1.42,2.17,1.47c0.83-0.04,1.55-0.58,1.81-1.38c0,0-0.18-0.09-0.25-0.04L885.64,185.21z"/>
	<path class="st5" d="M888.48,179.33c-1.22,1.28-2.91,2.01-4.67,2.01c-0.78-0.01-1.55-0.12-2.3-0.33l-0.43-0.14
		c-0.13-0.03-0.26-0.08-0.38-0.14c-0.2-0.07-0.32-0.26-0.31-0.47l0,0c-0.01-0.06-0.01-0.12,0-0.18l0,0v-0.16
		c0.22-1.45,0.78-3.62,0.78-3.62c-0.58,0.16-3.46,0.85-3.28,0.11c1.39-6.42,3.44-12.68,6.1-18.69c0.04-0.09,0.14-0.14,0.24-0.1
		c0.08,0.03,0.13,0.12,0.11,0.21c-1.27,5.94-3.62,11.63-4.93,17.57c1.04-0.26,2.1-0.37,3.17-0.33c0.18,0-1.14,4.13-1.2,4.78l0,0
		c2.32,0.68,4.82,0.4,6.94-0.78C888.5,179.04,888.62,179.2,888.48,179.33z"/>
	<path class="st5" d="M882.39,180.43c0.59,1.18,1.48,2.18,2.57,2.92c0.61,0.38,1.31,0.56,2.03,0.53c1.56-0.11,1.81-1.47,1.81-2.68
		c-0.03-0.65-0.14-1.3-0.33-1.92C886.63,180.3,884.49,180.71,882.39,180.43z"/>
	<path class="st15" d="M884.97,183.35c0.61,0.38,1.31,0.56,2.03,0.53c1.56-0.11,1.81-1.47,1.81-2.68
		C887.19,180.96,885.61,181.84,884.97,183.35z"/>
	<path class="st5" d="M915.74,177.9c0,0,11.03-16.3,10.6-25.95c-0.2-4.4-6-7.66-6-7.66c1.12-3.6,0.11-7.52-2.61-10.12
		c-4.93-5.14-17.51-4.71-17.51-4.71s-7.5-12.17-19.25-8.13c-11.75,4.04-4.94,17.48-4.94,17.48s-4.53,5.78,5.52,10.99
		c10.05,5.22,30.55,1.68,30.55,1.68c-1.34,7.01-1.61,14.17-0.82,21.26C911.68,175.15,913.4,177.15,915.74,177.9z"/>
	<path class="st5" d="M898.3,129.5c2.62-0.92,5.4-1.27,8.17-1.05c2.48,0.08,4.94,0.6,7.24,1.52c4.06,1.7,7.57,4.94,8.02,9.53
		c0.23,2.27-0.47,4.53-1.94,6.27c0,0-0.16,0-0.11-0.11c2.84-3.13,1.7-8.33-0.89-11.23c-3.2-3.12-7.44-4.94-11.9-5.13
		c-2.84-0.19-5.7-0.04-8.51,0.43c-0.06,0.03-0.14,0.01-0.17-0.06c-0.03-0.06-0.01-0.14,0.06-0.17
		C898.28,129.51,898.29,129.5,898.3,129.5z"/>
	<path class="st5" d="M872.45,126.44c1.25-3.04,3.93-5.26,7.15-5.92c3.63-0.91,7.45-0.57,10.87,0.96c3.43,1.55,6.39,3.99,8.57,7.06
		c0,0,0,0.16-0.13,0c-3.99-5.52-10.67-8.42-17.42-7.55c-5,0.13-8.95,4.29-8.82,9.29c0.04,1.36,0.38,2.69,0.99,3.9
		c1.55,3.21,3.98,5.92,7.01,7.81c0,0,0,0.14,0,0.11c-2.87-1.6-5.29-3.9-7.03-6.68C871.96,132.73,871.53,129.46,872.45,126.44z"/>
	<path class="st5" d="M879.02,150.2c4.49,2.11,9.37,3.22,14.33,3.26c5.14,0.14,10.29-0.29,15.34-1.27c2.93-0.54,5.85-1.21,8.77-1.92
		 M917.46,150.42c-5.12,1.87-10.43,3.21-15.83,3.98c-5.02,0.67-10.12,0.35-15.01-0.94c-2.68-0.73-5.26-1.79-7.68-3.17
		c0,0,0.04-0.13,0.09-0.09L917.46,150.42z"/>
	<path class="st14" d="M911.64,174.47c0,0,6.65-8.66,10.6-6.27c3.95,2.39-1.29,15.14-6.14,16.7c-2.48,1-5.29-0.19-6.3-2.67
		c-0.03-0.07-0.05-0.14-0.08-0.21L911.64,174.47z"/>
	<path class="st5" d="M920.65,171.95c-3.39,1.21-5.29,4.22-6.65,7.37c0.79-1.24,2.43-1.61,3.67-0.82c0.12,0.08,0.24,0.17,0.35,0.26
		c0.09,0,0,0.2,0,0.18c-1.19-0.43-2.52-0.08-3.33,0.89c-0.65,0.8-1.21,1.67-1.68,2.59c-0.16,0.29-0.69,0.11-0.56-0.24l0,0
		c0.05-4.33,3.62-10.12,8.2-10.36V171.95z"/>
	<path class="st0" d="M895.34,207.18l8.08,15.3l17.73-22.28l6.3,5.9c0,0-16.07,34.12-16.3,32.6l-8.02-13.09l-8.46,10.67l-1.81-24.13
		L895.34,207.18z"/>
	<path class="st5" d="M893.06,224.41c-0.14-3.98-0.42-8.01-0.38-12.01c0-0.13,0.22-0.22,0.27,0c1.18,3.75,1.68,19.02,2.08,22.64l0,0
		c0.36-0.45,7.93-9.35,8.02-9.24c1.67,2.05,7.53,11.57,7.95,12.44c2.54-5.43,12.39-25.18,15.52-30.37c0.09-0.14,0.31,0,0.24,0.11
		c-2.14,5.67-15.12,32.26-15.36,32.2c-3.05-4.46-5.85-9.08-8.4-13.84c-1.23,1.9-8.78,11.83-8.87,11.23
		C893.54,233.21,893.19,228.81,893.06,224.41z"/>
</g>
</svg>
