<?xml version="1.0" encoding="utf-8"?>
<!-- Generator: Adobe Illustrator 23.1.0, SVG Export Plug-In . SVG Version: 6.00 Build 0)  -->
<svg version="1.1" id="Layer_1" xmlns="http://www.w3.org/2000/svg" xmlns:xlink="http://www.w3.org/1999/xlink" x="0px" y="0px"
	 viewBox="0 0 1366 768" style="enable-background:new 0 0 1366 768;" xml:space="preserve">
<style type="text/css">
	.st0{fill:#92E3A9;}
	.st1{opacity:0.7;fill:#FFFFFF;enable-background:new    ;}
	.st2{opacity:0.4;fill:#FFFFFF;enable-background:new    ;}
	.st3{fill:none;stroke:#FFFFFF;stroke-width:0.8984;stroke-linecap:round;stroke-linejoin:round;}
	.st4{opacity:0.7;}
	.st5{fill:#2E353A;stroke:#2E353A;stroke-linecap:round;stroke-linejoin:round;}
	.st6{fill:#92E3A9;stroke:#2E353A;stroke-linecap:round;stroke-linejoin:round;}
	.st7{fill:#FFFFFF;stroke:#2E353A;stroke-width:0.9964;stroke-linecap:round;stroke-linejoin:round;}
	.st8{fill:#FFFFFF;stroke:#2E353A;stroke-linecap:round;stroke-linejoin:round;}
	.st9{fill:none;stroke:#2E353A;stroke-linecap:round;stroke-linejoin:round;}
	.st10{opacity:0.5;fill:#92E3A9;enable-background:new    ;}
	.st11{fill:none;stroke:#FFFFFF;stroke-width:0.5;stroke-linecap:round;stroke-linejoin:round;}
	.st12{fill:#2E353A;}
	.st13{opacity:0.5;}
	.st14{fill:none;stroke:#2E353A;stroke-width:0.5;stroke-linecap:round;stroke-linejoin:round;}
	.st15{fill:#FFFFFF;stroke:#2E353A;stroke-width:0.5;stroke-linecap:round;stroke-linejoin:round;}
	.st16{fill:#FFFFFF;stroke:#2E353A;stroke-miterlimit:10;}
	.st17{fill:none;stroke:#FFFFFF;stroke-width:0.75;stroke-linecap:round;stroke-linejoin:round;}
</style>
<g id="freepik--background-simple--inject-182">
	<path class="st0" d="M316.17,473.05c106.06,121.56,213.15,136.93,363.68,165.76s261.06,8.88,342.51-64.52
		c94.04-84.86,90.3-279.27-53.58-348.49c-44.95-21.7-98.49-28.26-137.87-58.72C755.7,108.91,694.87,18.41,574.02,1.34
		S371.89,65.31,371.89,65.31C272.85,173.98,210.12,351.39,316.17,473.05z"/>
	<path class="st1" d="M316.17,473.05c106.06,121.56,213.15,136.93,363.68,165.76s261.06,8.88,342.51-64.52
		c94.04-84.86,90.3-279.27-53.58-348.49c-44.95-21.7-98.49-28.26-137.87-58.72C755.7,108.91,694.87,18.41,574.02,1.34
		S371.89,65.31,371.89,65.31C272.85,173.98,210.12,351.39,316.17,473.05z"/>
</g>
<g id="freepik--Shadow--inject-182">
	<path class="st0" d="M1085.52,673.85c0-10.94-98.4-19.84-219.77-19.84c-108.24,0-198.15,7.06-216.36,16.38h-12.32
		c-208.72,0-378.03,20.37-378.03,45.48s169.25,45.62,378.03,45.62s378.01-20.37,378.01-45.51c0-8.81-20.83-17.04-56.88-23.99
		C1033.39,688.69,1085.52,681.84,1085.52,673.85z"/>
	<path class="st2" d="M1085.52,673.85c0-10.94-98.4-19.84-219.77-19.84c-108.24,0-198.15,7.06-216.36,16.38h-12.32
		c-208.72,0-378.03,20.37-378.03,45.48s169.25,45.62,378.03,45.62s378.01-20.37,378.01-45.51c0-8.81-20.83-17.04-56.88-23.99
		C1033.39,688.69,1085.52,681.84,1085.52,673.85z"/>
</g>
<g id="freepik--Plants--inject-182">
	<path class="st0" d="M304.82,448.05c22.94,59.93,89.18,90.3,89.18,90.3s28.83-66.84,5.8-126.79s-89.24-90.3-89.24-90.3
		S281.79,388.09,304.82,448.05z"/>
	<path class="st2" d="M304.82,448.05c22.94,59.93,89.18,90.3,89.18,90.3s28.83-66.84,5.8-126.79s-89.24-90.3-89.24-90.3
		S281.79,388.09,304.82,448.05z"/>
	<line class="st3" x1="394" y1="538.35" x2="310.62" y2="321.26"/>
	<line class="st3" x1="340.26" y1="398.41" x2="304.75" y2="385.41"/>
	<line class="st3" x1="354.46" y1="434.13" x2="369.07" y2="373.8"/>
	<line class="st3" x1="361.98" y1="454.97" x2="309.27" y2="435.02"/>
	<line class="st3" x1="373.1" y1="482.66" x2="398.63" y2="433.14"/>
	<line class="st3" x1="382.35" y1="506.72" x2="342.71" y2="494.33"/>
	<path class="st0" d="M307.41,553.14c33.05,17.13,73.4,4.86,73.4,4.86s-13.21-40.09-46.26-57.23c-33.05-17.13-73.4-4.89-73.4-4.89
		S274.36,535.98,307.41,553.14z"/>
	<path class="st2" d="M307.41,553.14c33.05,17.13,73.4,4.86,73.4,4.86s-13.21-40.09-46.26-57.23c-33.05-17.13-73.4-4.89-73.4-4.89
		S274.36,535.98,307.41,553.14z"/>
	<line class="st3" x1="380.85" y1="558" x2="261.17" y2="495.89"/>
	<line class="st3" x1="303.72" y1="517.98" x2="283.31" y2="525.98"/>
	<line class="st3" x1="323.61" y1="528" x2="306.73" y2="496.21"/>
	<line class="st3" x1="334.89" y1="534.15" x2="304.34" y2="545.78"/>
	<line class="st3" x1="350.37" y1="541.88" x2="342.39" y2="510.57"/>
	<line class="st3" x1="363.63" y1="548.78" x2="341.68" y2="558.65"/>
	<path class="st0" d="M414.04,469.22c-14.63,34.24,0.64,73.58,0.64,73.58s38.99-16.06,53.6-50.46c14.61-34.4-0.62-73.6-0.62-73.6
		S428.7,434.97,414.04,469.22z"/>
	<path class="st2" d="M414.04,469.22c-14.63,34.24,0.64,73.58,0.64,73.58s38.99-16.06,53.6-50.46c14.61-34.4-0.62-73.6-0.62-73.6
		S428.7,434.97,414.04,469.22z"/>
	<line class="st3" x1="414.69" y1="542.8" x2="467.67" y2="418.8"/>
	<line class="st3" x1="448.84" y1="462.89" x2="439.32" y2="443.14"/>
	<line class="st3" x1="440.33" y1="483.48" x2="470.76" y2="464.29"/>
	<line class="st3" x1="435.03" y1="495.18" x2="421.15" y2="465.59"/>
	<line class="st3" x1="428.47" y1="511.19" x2="459.09" y2="500.92"/>
	<line class="st3" x1="422.6" y1="524.93" x2="411.11" y2="503.78"/>
	<path class="st0" d="M665.4,69.72c3.6-1.33,7.09-2.98,10.64-4.59c3.56-1.61,7-3.19,10.46-4.86c13.84-6.73,27.03-14.74,39.38-23.92
		c12.42-9.07,23.58-19.74,33.19-31.74c-9.84,11.77-21.19,22.18-33.76,30.96c-12.47,8.86-25.74,16.53-39.63,22.94
		c-27.52,13.23-57.57,19.36-86.49,29.54c3.72-3.51,7.2-7.26,10.41-11.24c4.95-6.49,7.82-13.76,2-19.66
		c-7.16-7.36-19.75-3.23-20.64,9.98c-0.37,7.68,1.11,15.34,4.31,22.34c-6.08,2.29-12.11,4.59-18.07,7.02
		c-4.38,1.93-8.72,3.9-13,6.01c2.28-2.28,4.42-4.7,6.4-7.25c4.95-6.49,7.82-13.62,2-19.63c-7.16-7.39-19.73-3.26-20.64,9.98
		c-0.38,7.28,0.93,14.55,3.83,21.24c-12.33,6.65-23.98,14.49-34.79,23.39c1.79-2.96,3.41-6.02,4.84-9.17
		c3.23-7.5,4.29-15.11-2.82-19.54c-8.74-5.44-19.95,1.63-17.64,14.68c1.43,7.21,4.49,13.99,8.97,19.82
		c-10.98,9.9-20.96,20.85-29.82,32.68c0.7-2.82,1.25-5.68,1.63-8.56c0.99-8.1-0.18-15.71-8.26-17.94
		c-9.91-2.73-18.65,7.2-12.73,19.06c3.22,6.19,7.77,11.59,13.33,15.8c-6.4,9.3-12.23,18.97-17.48,28.97
		c-0.83,1.58-1.61,3.17-2.41,4.75c-0.46,0.21-0.9,0.44-1.33,0.71v-4.59c-0.28-8.17-2.59-15.5-10.89-16.45
		c-10.23-1.17-17.34,9.98-9.66,20.78c3.94,5.39,9,9.87,14.82,13.14c-0.05,0.31-0.05,0.63,0,0.94c-3.44,7.65-6.61,15.43-9.52,23.35
		c-2.16,5.89-4.15,11.86-6.06,17.87c-8.42-2.48-17.09,4.95-14.24,16.7c1.21,4.89,3.24,9.55,6.01,13.76
		c-2.66,11.54-4.89,23.17-6.7,34.86c-1.76-2.96-4.95-4.77-8.39-4.75c-5.71-0.11-9.36,3.42-11.77,8.42c-2.4,1.44-4.17,3.73-4.95,6.42
		c-2.29-7.02-4.15-14.15-5.94-21.31c6.76-2.61,12.9-6.6,18.05-11.7c9.84-9.95,5.73-22.32-4.24-22.55
		c-8.1-0.18-12.04,6.88-14.22,15.28c-0.81,3.14-1.44,6.33-1.88,9.54c-0.62-2.66-1.24-5.32-1.83-7.98
		c-1.54-6.74-2.55-13.56-3.83-20.32c-0.35-1.66-0.61-3.34-0.78-5.02c7.12-1.28,13.89-4.03,19.89-8.07c11.47-7.94,9.82-20.87,0-22.94
		c-7.94-1.7-13.14,4.59-16.84,12.34c-1.58,3.38-2.95,6.86-4.11,10.41l-0.87-7.22c-1.59-16.21-2.03-32.51-1.33-48.79
		c7.73-0.4,15.28-2.5,22.11-6.15c12.27-6.74,11.86-19.77,2.29-22.94c-7.71-2.48-13.53,3.28-17.98,10.6
		c-2.32,3.94-4.38,8.02-6.17,12.22c0.54-9.31,1.37-18.6,2.5-27.87c0.62-5.8,1.63-11.47,2.57-17.27c8,0.78,16.08-0.3,23.6-3.14
		c13.03-5.09,14.31-18.07,5.3-22.34c-7.32-3.46-13.76,1.49-19.22,8.17c-3.27,4.27-6.28,8.74-9.01,13.37
		c1.31-6.61,2.55-13.23,4.17-19.75c3.08-13.56,7.08-26.89,11.97-39.91c-5.28,12.89-9.7,26.11-13.21,39.59
		c-1.74,6.17-3.12,12.43-4.59,18.69c-0.45-4.63-1.22-9.23-2.29-13.76c-2.04-7.91-5.87-14.59-14.2-13.76
		c-10.23,1.06-14.79,13.49-4.98,22.39c5.93,5.1,13.02,8.66,20.64,10.37c-1.1,5.62-2.29,11.26-3.05,16.95
		c-1.41,8.99-2.51,18.04-3.3,27.13c-0.88-3.81-1.99-7.56-3.33-11.24c-3.03-7.57-7.71-13.76-15.85-11.77
		c-10,2.29-12.91,15.28-2.02,22.94c6.19,4.12,13.26,6.75,20.64,7.66c-1.21,16.32-1.27,32.71-0.16,49.04l0.44,4.93
		c-0.97-2.52-2.06-5-3.28-7.41c-3.76-7.22-9.04-12.84-16.95-10.11c-9.72,3.35-11.31,16.49,0.28,22.94
		c6.45,3.44,13.61,5.34,20.92,5.55c0.16,1.7,0.34,3.37,0.64,5.05c1.1,6.88,1.93,13.92,3.26,20.78c0.37,1.97,0.78,3.92,1.17,5.89
		c-1.13-1.79-2.35-3.52-3.67-5.18c-5.05-6.4-11.28-10.94-18.53-6.88c-8.92,5.14-8.03,18.35,4.59,22.48
		c6.52,2.03,13.41,2.62,20.18,1.72c1.67,7.66,3.51,15.28,5.67,22.94c0.8,2.89,1.63,5.76,2.5,8.62c-1.67-2.83-3.52-5.56-5.53-8.17
		c-5.05-6.4-11.28-10.94-18.53-6.88c-8.92,5.11-8.03,18.35,4.59,22.48c7.25,2.23,14.92,2.7,22.39,1.38
		c1.22,3.58,2.53,7.14,3.92,10.69c-6.35,4.08-7.57,13.76,0.83,20.8c4.11,3.33,8.77,5.92,13.76,7.66c0.46,0.64,0.92,1.28,1.42,1.93
		l0.23,0.32c-0.65,24.52-0.06,49.05,1.74,73.51c1.13,15.44,2.71,30.83,4.72,46.17c2.09,15.39,4.45,30.55,7.78,46.03l14.91-3.56
		c-3.42-14.45-6.12-29.56-8.46-44.52s-4.15-30.12-5.6-45.23c-1.86-20.16-2.98-40.37-3.19-60.6l0,0c0.96,0.53,1.77,1.12,2.84,1.61
		c1.23,0.64,2.54,1.08,3.9,1.33l1.35-10.14h-0.28l-0.8-0.32c-0.53-0.18-1.15-0.64-1.72-0.92c-1.25-0.78-2.43-1.66-3.53-2.64
		l-1.31-1.17c6.25-0.27,12.4-1.7,18.14-4.2c12.8-5.69,13.49-18.69,4.29-22.55c-7.48-3.12-13.76,2.11-18.83,9.01
		c-1.42,1.97-2.75,4.06-4.01,6.15c0-2.29,0-4.45,0.21-6.67c0.26-6.56,0.63-13.11,1.1-19.66c6.73-0.14,13.37-1.59,19.54-4.27
		c12.78-5.69,13.49-18.69,4.29-22.55c-7.48-3.12-13.76,2.11-18.83,9.01c-1.47,2-2.82,4.13-4.08,6.26c0.44-4.75,0.89-9.5,1.44-14.22
		c0.41-3.51,0.89-7.02,1.4-10.5c1.22-4.82,2.57-9.61,4.01-14.38c0.83-2.61,1.67-5.21,2.57-7.8c5.22,3.54,11.04,6.1,17.18,7.57
		c13.65,3.1,22-6.88,16.93-15.5c-4.11-7-12.27-6.54-20.48-4.04c-3.68,1.19-7.29,2.59-10.8,4.2c4.14-10.95,9.12-21.57,14.91-31.74
		c3.44-5.98,7.2-11.77,11.26-17.34c5.52,3.95,11.75,6.79,18.35,8.37c13.65,3.1,22-6.88,16.93-15.5c-4.13-6.88-12.29-6.54-20.48-4.04
		c-2.92,0.92-5.8,2-8.6,3.23c4.39-5.3,9.13-10.3,14.2-14.95c10.23-9.36,21.83-17.09,34.4-22.94c3.74,6.23,8.74,11.61,14.68,15.8
		c11.47,7.96,22.94,1.77,21.49-8.07c-1.24-8.03-8.99-10.67-17.52-11.47c-3.24-0.24-6.5-0.31-9.75-0.18h0.23
		c13.48-5.32,27.48-9.24,41.77-11.7c2.7,7.07,6.89,13.48,12.29,18.78c10.09,9.68,22.41,5.41,22.5-4.59
		c0-8.12-7.18-11.95-15.48-14.01c-3.27-0.77-6.58-1.36-9.91-1.77c15.09-2.29,30.39-4.27,45.48-7.32h0.32
		c4.36,6.78,10.22,12.46,17.13,16.61c12.06,7.09,22.94,0,20.8-9.66c-1.81-7.91-9.75-9.95-18.35-10.05c-2.41,0-4.84,0.14-7.2,0.32
		c10.21-2.5,20.28-5.51,30.18-9.04l0.48,0.94l0.25-0.28c4.36,6.85,10.26,12.6,17.23,16.77c12.09,7.09,22.94,0,20.83-9.66
		c-1.83-7.91-9.75-9.95-18.35-10.05c-6.14,0.17-12.27,0.68-18.35,1.54c3.58-1.31,7.16-2.66,10.67-4.11
		c16.24-6.62,32.06-14.22,47.39-22.75c-17.78,9.39-36.21,17.47-55.16,24.2c3.27-3.1,6.34-6.41,9.17-9.91
		c4.95-6.49,7.8-13.76,1.97-19.63c-7.16-7.39-19.73-3.26-20.64,9.98c-0.37,7.37,0.98,14.71,3.95,21.47
		c-12.23,4-24.71,7.2-37.36,9.56l-1.22,0.23c3.52-3.33,6.81-6.89,9.84-10.67c4.95-6.49,7.82-13.65,2-19.63
		c-7.18-7.39-19.75-3.26-20.64,9.98c-0.38,7.27,0.93,14.54,3.83,21.22c-15.14,2.59-30.44,4.08-45.87,6.06l-2.29,0.3
		c3.51-2.06,6.87-4.36,10.07-6.88c6.33-5.16,10.78-11.47,6.49-18.65c-5.23-8.83-18.35-7.75-22.39,4.91
		c-2.06,7.02-2.48,14.42-1.22,21.63c-14.43,2.11-28.6,5.69-42.29,10.69l-0.46,0.18c2.24-1.96,4.37-4.04,6.38-6.24
		c5.41-6.1,8.81-13.03,3.44-19.45c-4.01-4.84-11.17-5.54-16.06-1.58c-0.65,0.54-1.24,1.15-1.77,1.81c-0.46-1.65-1.33-3.15-2.52-4.38
		c-5.6-5.89-13.44-3.65-20.87,0.62c-1.95,1.11-3.83,2.33-5.64,3.65c7.98-10.86,16.94-20.96,26.79-30.16
		c5.43,4.59,11.73,8.02,18.53,10.09c13.42,3.95,22.39-5.53,17.84-14.4c-3.67-7.25-11.86-7.32-20.18-5.32
		c-2.78,0.67-5.52,1.48-8.21,2.43c9.84-8.27,20.44-15.61,31.65-21.9c4.25,6.2,9.79,11.4,16.24,15.25c12.09,7.09,22.94,0,20.8-9.66
		c-1.81-7.91-9.72-9.95-18.35-10.02c-4.06,0.01-8.11,0.28-12.13,0.8c4.59-2.29,9.17-4.59,13.95-6.88
		c6.12-2.73,12.34-5.28,18.69-7.66c4.24,6.06,9.71,11.15,16.06,14.93c12.09,7.06,22.94,0,20.8-9.68
		c-1.81-7.89-9.72-9.93-18.35-10.02c-2.01-0.04-4.03,0.04-6.03,0.23c11.1-3.85,22.34-7.36,33.56-11.01
		C650.93,74.99,658.22,72.49,665.4,69.72z M473.4,228.85c1.18,0.03,2.36-0.03,3.53-0.18c-1.97,1.93-3.88,3.92-5.73,5.94
		c0.55-1.26,1.08-2.52,1.56-3.81C473.03,230.16,473.24,229.51,473.4,228.85z M402.3,359.93l2.43-1.22
		c3.33,2.23,6.93,4.03,10.71,5.37v0.62l1.93,0.16c-0.46,4.92-0.85,9.84-1.17,14.75c-1.51-3.92-4.87-6.84-8.97-7.78
		C405.38,367.95,403.73,363.98,402.3,359.93L402.3,359.93z M449.5,263.96c-1.93,3.19-3.74,6.45-5.48,9.72l-0.44-0.73
		c2.02-7.18,4.27-14.29,6.67-21.35c1.7-4.93,3.53-9.82,5.44-14.68c1.68,3.19,3.69,6.2,6.01,8.97c-4.43,5.78-8.53,11.82-12.27,18.07
		H449.5z M505.38,184.88c4.3,0.16,8.52-1.23,11.88-3.92c-0.48,6.31,0.3,12.66,2.29,18.67c-8.98,3.99-17.53,8.89-25.5,14.63
		c-0.34-2.65-1.75-5.05-3.9-6.63c-6.42-4.95-13.76-1.51-20.64,3.83l-0.3,0.28l-0.44-0.28c-0.46-0.25-0.95-0.47-1.44-0.64
		c0.21-0.39,0.37-0.78,0.57-1.15c5.05-10.08,10.72-19.84,16.97-29.22c6.46,2.85,13.43,4.36,20.48,4.43L505.38,184.88z"/>
	<path class="st0" d="M759.07,4.74c-9.84,11.77-21.19,22.18-33.76,30.96c-12.47,8.86-25.74,16.53-39.63,22.94l-1.56,0.73
		c3.84-3.58,7.43-7.41,10.76-11.47c4.95-6.47,7.8-13.62,1.97-19.63c-7.16-7.39-19.73-3.26-20.64,9.98
		c-0.39,7.86,1.19,15.7,4.59,22.8c-11.61,5.03-23.51,9.36-35.64,12.96c3.67-3.46,7.1-7.16,10.28-11.08
		c4.95-6.49,7.8-13.76,1.97-19.66c-7.16-7.39-19.73-3.23-20.64,9.98c-0.39,7.58,1.05,15.14,4.2,22.04
		c-13.9,4.22-27.96,8.17-41.72,13c3.72-3.51,7.2-7.26,10.41-11.24c4.95-6.49,7.82-13.76,2-19.66c-7.16-7.36-19.75-3.23-20.64,9.98
		c-0.37,7.68,1.11,15.34,4.31,22.34c-6.08,2.29-12.11,4.59-18.07,7.02c-4.38,1.93-8.72,3.9-13,6.01c2.28-2.28,4.42-4.7,6.4-7.25
		c4.95-6.49,7.82-13.62,2-19.63c-7.16-7.39-19.73-3.26-20.64,9.98c-0.38,7.28,0.93,14.55,3.83,21.24
		c-12.33,6.65-23.98,14.49-34.79,23.39c1.79-2.96,3.41-6.02,4.84-9.17c3.23-7.5,4.29-15.11-2.82-19.54
		c-8.74-5.44-19.95,1.63-17.64,14.68c1.43,7.21,4.49,13.99,8.97,19.82c-10.98,9.9-20.96,20.85-29.82,32.68
		c0.7-2.82,1.25-5.68,1.63-8.56c0.99-8.1-0.18-15.71-8.26-17.94c-9.91-2.73-18.65,7.2-12.73,19.06c3.22,6.19,7.77,11.59,13.33,15.8
		c-6.4,9.3-12.23,18.97-17.48,28.97c-0.83,1.58-1.61,3.17-2.41,4.75c-0.46,0.21-0.9,0.44-1.33,0.71v-4.59
		c-0.28-8.17-2.59-15.5-10.89-16.45c-10.23-1.17-17.34,9.98-9.66,20.78c3.94,5.39,9,9.87,14.82,13.14
		c-0.02,0.32,0.02,0.64,0.11,0.94c-3.44,7.65-6.61,15.43-9.52,23.35c-2.16,5.89-4.15,11.86-6.06,17.87
		c-8.42-2.48-17.09,4.95-14.24,16.7c1.21,4.89,3.24,9.55,6.01,13.76c-2.66,11.53-4.89,23.15-6.7,34.86
		c-1.76-2.96-4.95-4.77-8.39-4.75c-5.71-0.11-9.36,3.42-11.77,8.42c-2.4,1.44-4.17,3.73-4.95,6.42c-2.29-7.02-4.15-14.15-5.94-21.31
		c6.76-2.61,12.9-6.6,18.05-11.7c9.84-9.95,5.73-22.32-4.24-22.55c-8.1-0.18-12.04,6.88-14.22,15.28c-0.81,3.14-1.44,6.33-1.88,9.54
		c-0.62-2.66-1.24-5.32-1.83-7.98c-1.54-6.74-2.55-13.56-3.83-20.32c-0.35-1.66-0.61-3.34-0.78-5.02
		c7.12-1.28,13.89-4.03,19.89-8.07c11.47-7.94,9.82-20.87,0-22.94c-7.94-1.7-13.14,4.59-16.84,12.34
		c-1.58,3.38-2.95,6.86-4.11,10.41l-0.87-7.22c-1.59-16.21-2.03-32.51-1.33-48.79c7.73-0.4,15.28-2.5,22.11-6.15
		c12.27-6.74,11.86-19.77,2.29-22.94c-7.71-2.48-13.53,3.28-17.98,10.6c-2.32,3.94-4.38,8.02-6.17,12.22
		c0.52-9.31,1.35-18.6,2.5-27.87c0.62-5.8,1.63-11.47,2.57-17.27c7.95,0.75,15.97-0.34,23.44-3.17c13.03-5.09,14.31-18.07,5.3-22.34
		c-7.32-3.46-13.76,1.49-19.22,8.17c-3.25,4.29-6.25,8.77-8.97,13.42c1.31-6.61,2.55-13.23,4.17-19.75
		c3.08-13.56,7.08-26.89,11.97-39.91c-5.28,12.89-9.7,26.11-13.21,39.59c-1.74,6.17-3.12,12.43-4.59,18.69
		c-0.45-4.63-1.22-9.23-2.29-13.76c-2.04-7.91-5.87-14.59-14.2-13.76c-10.23,1.06-14.79,13.49-4.98,22.39
		c5.95,5.01,13.04,8.49,20.64,10.14c-1.1,5.62-2.29,11.26-3.05,16.95c-1.41,8.99-2.51,18.04-3.3,27.13
		c-0.89-3.83-2.02-7.59-3.37-11.28c-3.03-7.57-7.71-13.76-15.85-11.77c-10,2.29-12.91,15.28-2.02,22.94
		c6.19,4.12,13.26,6.75,20.64,7.66c-1.21,16.32-1.27,32.71-0.16,49.04l0.44,4.93c-0.97-2.52-2.06-5-3.28-7.41
		c-3.76-7.22-9.04-12.84-16.95-10.11c-9.72,3.35-11.31,16.49,0.28,22.94c6.45,3.44,13.61,5.34,20.92,5.55
		c0.16,1.7,0.34,3.37,0.64,5.05c1.1,6.88,1.93,13.92,3.26,20.78c0.37,1.97,0.78,3.92,1.17,5.89c-1.13-1.79-2.35-3.52-3.67-5.18
		c-5.05-6.4-11.28-10.94-18.53-6.88c-8.92,5.14-8.03,18.35,4.59,22.48c6.52,2.03,13.41,2.62,20.18,1.72
		c1.67,7.66,3.51,15.28,5.67,22.94c0.8,2.89,1.63,5.76,2.5,8.62c-1.67-2.83-3.52-5.56-5.53-8.17c-5.05-6.4-11.28-10.94-18.53-6.88
		c-8.92,5.11-8.03,18.35,4.59,22.48c7.25,2.23,14.92,2.7,22.39,1.38c1.22,3.58,2.53,7.14,3.92,10.69
		c-6.35,4.08-7.57,13.76,0.83,20.8c4.11,3.33,8.77,5.92,13.76,7.66c0.46,0.64,0.92,1.28,1.42,1.93l0.23,0.32
		c-0.65,24.52-0.06,49.05,1.74,73.51c1.13,15.44,2.71,30.83,4.72,46.17c2.09,15.39,4.45,30.55,7.78,46.03l14.91-3.56
		c-3.42-14.45-6.12-29.56-8.46-44.52s-4.15-30.12-5.6-45.23c-1.86-20.16-2.98-40.37-3.19-60.6l0,0c0.96,0.53,1.77,1.12,2.84,1.61
		c1.23,0.64,2.54,1.08,3.9,1.33l1.35-10.14h-0.28l-0.8-0.32c-0.53-0.18-1.15-0.64-1.72-0.92c-1.25-0.78-2.43-1.66-3.53-2.64
		l-1.31-1.17c6.25-0.27,12.4-1.7,18.14-4.2c12.8-5.69,13.49-18.69,4.29-22.55c-7.48-3.12-13.76,2.11-18.83,9.01
		c-1.42,1.97-2.75,4.06-4.01,6.15c0-2.29,0-4.45,0.21-6.67c0.26-6.56,0.63-13.11,1.1-19.66c6.73-0.14,13.37-1.59,19.54-4.27
		c12.78-5.69,13.49-18.69,4.29-22.55c-7.48-3.12-13.76,2.11-18.83,9.01c-1.47,2-2.82,4.13-4.08,6.26c0.44-4.75,0.89-9.5,1.44-14.22
		c0.41-3.51,0.89-7.02,1.4-10.5c1.22-4.82,2.57-9.61,4.01-14.38c0.83-2.61,1.67-5.21,2.57-7.8c5.22,3.54,11.04,6.1,17.18,7.57
		c13.65,3.1,22-6.88,16.93-15.5c-4.11-7-12.27-6.54-20.48-4.04c-3.68,1.19-7.29,2.59-10.8,4.2c4.14-10.95,9.12-21.57,14.91-31.74
		c3.44-5.98,7.2-11.77,11.26-17.34c5.52,3.95,11.75,6.79,18.35,8.37c13.65,3.1,22-6.88,16.93-15.5c-4.13-6.88-12.29-6.54-20.48-4.04
		c-2.92,0.92-5.8,2-8.6,3.23c4.39-5.3,9.13-10.3,14.2-14.95c10.23-9.36,21.83-17.09,34.4-22.94c3.74,6.23,8.74,11.61,14.68,15.8
		c11.47,7.96,22.94,1.77,21.49-8.07c-1.24-8.03-8.99-10.67-17.52-11.47c-3.24-0.24-6.5-0.31-9.75-0.18h0.23
		c13.48-5.32,27.48-9.24,41.77-11.7c2.7,7.07,6.89,13.48,12.29,18.78c10.09,9.68,22.41,5.41,22.5-4.59
		c0-8.12-7.18-11.95-15.48-14.01c-3.27-0.77-6.58-1.36-9.91-1.77c15.09-2.29,30.39-4.27,45.48-7.32h0.32
		c4.36,6.78,10.22,12.46,17.13,16.61c12.06,7.09,22.94,0,20.8-9.66c-1.81-7.91-9.75-9.95-18.35-10.05c-2.41,0-4.84,0.14-7.2,0.32
		c10.21-2.5,20.28-5.51,30.18-9.04l0.48,0.94l0.25-0.28c4.36,6.85,10.26,12.6,17.23,16.77c12.09,7.09,22.94,0,20.83-9.66
		c-1.83-7.91-9.75-9.95-18.35-10.05c-6.14,0.17-12.27,0.68-18.35,1.54c3.58-1.31,7.16-2.66,10.67-4.11
		c16.24-6.62,32.06-14.22,47.39-22.75c-17.78,9.39-36.21,17.47-55.16,24.2c3.27-3.1,6.34-6.41,9.17-9.91
		c4.95-6.49,7.8-13.76,1.97-19.63c-7.16-7.39-19.73-3.26-20.64,9.98c-0.37,7.37,0.98,14.71,3.95,21.47
		c-12.23,4-24.71,7.2-37.36,9.56l-1.22,0.23c3.52-3.33,6.81-6.89,9.84-10.67c4.95-6.49,7.82-13.65,2-19.63
		c-7.18-7.39-19.75-3.26-20.64,9.98c-0.38,7.27,0.93,14.54,3.83,21.22c-15.14,2.59-30.44,4.08-45.87,6.06l-2.29,0.3
		c3.51-2.06,6.87-4.36,10.07-6.88c6.33-5.16,10.78-11.47,6.49-18.65c-5.23-8.83-18.35-7.75-22.39,4.91
		c-2.06,7.02-2.48,14.42-1.22,21.63c-14.43,2.11-28.6,5.69-42.29,10.69l-0.46,0.18c2.24-1.96,4.37-4.04,6.38-6.24
		c5.41-6.1,8.81-13.03,3.44-19.45c-4.01-4.84-11.17-5.54-16.06-1.58c-0.65,0.54-1.24,1.15-1.77,1.81c-0.46-1.65-1.33-3.15-2.52-4.38
		c-5.6-5.89-13.44-3.65-20.87,0.62c-1.95,1.11-3.83,2.33-5.64,3.65c7.98-10.86,16.94-20.96,26.79-30.16
		c5.43,4.59,11.73,8.02,18.53,10.09c13.42,3.95,22.39-5.53,17.84-14.4c-3.67-7.25-11.86-7.32-20.18-5.32
		c-2.78,0.67-5.52,1.48-8.21,2.43c9.84-8.27,20.44-15.61,31.65-21.9c4.25,6.2,9.79,11.4,16.24,15.25c12.09,7.09,22.94,0,20.8-9.66
		c-1.81-7.91-9.72-9.95-18.35-10.02c-4.06,0.01-8.11,0.28-12.13,0.8c4.59-2.29,9.17-4.59,13.95-6.88
		c6.12-2.73,12.34-5.28,18.69-7.66c4.24,6.06,9.71,11.15,16.06,14.93c12.09,7.06,22.94,0,20.8-9.68
		c-1.81-7.89-9.72-9.93-18.35-10.02c-2.01-0.04-4.03,0.04-6.03,0.23c10.76-3.74,21.65-7.16,32.55-10.69
		c4.32,6.53,10.04,12.02,16.74,16.06c12.09,7.06,22.94,0,20.83-9.68c-1.83-7.89-9.75-9.93-18.35-10.02
		c-3.36,0.02-6.71,0.21-10.05,0.57c4.59-1.54,9.17-3.14,13.58-4.89c3.6-1.33,7.09-2.98,10.64-4.59c2.02-0.83,4.01-1.74,5.99-2.68
		c4.34,6.54,10.1,12.03,16.84,16.06c12.09,7.06,23.05,0,20.83-9.68c-1.83-7.91-9.75-9.95-18.35-10.02
		c-4.77,0.05-9.52,0.41-14.24,1.06c13.61-6.68,26.59-14.58,38.76-23.62C738.02,27.31,749.32,16.7,759.07,4.74z M416.06,379.63
		c-1.51-3.92-4.87-6.84-8.97-7.78c-1.74-3.92-3.33-7.91-4.84-11.93l2.43-1.22c3.33,2.23,6.93,4.03,10.71,5.37v0.62l1.93,0.16
		C416.8,369.81,416.36,374.72,416.06,379.63z M449.46,263.96c-1.93,3.19-3.74,6.45-5.48,9.72l-0.39-0.73
		c2.02-7.18,4.27-14.29,6.67-21.35c1.7-4.93,3.53-9.82,5.44-14.68c1.68,3.19,3.69,6.2,6.01,8.97c-4.43,5.78-8.53,11.82-12.27,18.07
		L449.46,263.96z M471.27,234.6c0.55-1.26,1.08-2.52,1.56-3.81c0.23-0.64,0.44-1.31,0.64-1.95c1.18,0.03,2.36-0.03,3.53-0.18
		c-2,1.93-3.9,3.92-5.76,5.94L471.27,234.6z M505.33,184.88c4.3,0.16,8.52-1.23,11.88-3.92c-0.48,6.31,0.3,12.66,2.29,18.67
		c-8.97,3.99-17.5,8.9-25.46,14.63c-0.34-2.65-1.75-5.05-3.9-6.63c-6.42-4.95-13.76-1.51-20.64,3.83l-0.3,0.28l-0.44-0.28
		c-0.46-0.25-0.95-0.47-1.45-0.64c0.21-0.39,0.37-0.78,0.57-1.15c5.05-10.08,10.72-19.84,16.97-29.22
		c6.46,2.85,13.43,4.36,20.48,4.43L505.33,184.88z"/>
	<g class="st4">
		<path class="st2" d="M759.07,4.74c-9.84,11.77-21.19,22.18-33.76,30.96c-12.47,8.86-25.74,16.53-39.63,22.94l-1.56,0.73
			c3.84-3.58,7.43-7.41,10.76-11.47c4.95-6.47,7.8-13.62,1.97-19.63c-7.16-7.39-19.73-3.26-20.64,9.98
			c-0.39,7.86,1.19,15.7,4.59,22.8c-11.61,5.03-23.51,9.36-35.64,12.96c3.67-3.46,7.1-7.16,10.28-11.08
			c4.95-6.49,7.8-13.76,1.97-19.66c-7.16-7.39-19.73-3.23-20.64,9.98c-0.39,7.58,1.05,15.14,4.2,22.04
			c-13.9,4.22-27.96,8.17-41.72,13c3.72-3.51,7.2-7.26,10.41-11.24c4.95-6.49,7.82-13.76,2-19.66c-7.16-7.36-19.75-3.23-20.64,9.98
			c-0.37,7.68,1.11,15.34,4.31,22.34c-6.08,2.29-12.11,4.59-18.07,7.02c-4.38,1.93-8.72,3.9-13,6.01c2.28-2.28,4.42-4.7,6.4-7.25
			c4.95-6.49,7.82-13.62,2-19.63c-7.16-7.39-19.73-3.26-20.64,9.98c-0.38,7.28,0.93,14.55,3.83,21.24
			c-12.33,6.65-23.98,14.49-34.79,23.39c1.79-2.96,3.41-6.02,4.84-9.17c3.23-7.5,4.29-15.11-2.82-19.54
			c-8.74-5.44-19.95,1.63-17.64,14.68c1.43,7.21,4.49,13.99,8.97,19.82c-10.98,9.9-20.96,20.85-29.82,32.68
			c0.7-2.82,1.25-5.68,1.63-8.56c0.99-8.1-0.18-15.71-8.26-17.94c-9.91-2.73-18.65,7.2-12.73,19.06c3.22,6.19,7.77,11.59,13.33,15.8
			c-6.4,9.3-12.23,18.97-17.48,28.97c-0.83,1.58-1.61,3.17-2.41,4.75c-0.46,0.21-0.9,0.44-1.33,0.71v-4.59
			c-0.28-8.17-2.59-15.5-10.89-16.45c-10.23-1.17-17.34,9.98-9.66,20.78c3.94,5.39,9,9.87,14.82,13.14
			c-0.02,0.32,0.02,0.64,0.11,0.94c-3.44,7.65-6.61,15.43-9.52,23.35c-2.16,5.89-4.15,11.86-6.06,17.87
			c-8.42-2.48-17.09,4.95-14.24,16.7c1.21,4.89,3.24,9.55,6.01,13.76c-2.66,11.53-4.89,23.15-6.7,34.86
			c-1.76-2.96-4.95-4.77-8.39-4.75c-5.71-0.11-9.36,3.42-11.77,8.42c-2.4,1.44-4.17,3.73-4.95,6.42
			c-2.29-7.02-4.15-14.15-5.94-21.31c6.76-2.61,12.9-6.6,18.05-11.7c9.84-9.95,5.73-22.32-4.24-22.55
			c-8.1-0.18-12.04,6.88-14.22,15.28c-0.81,3.14-1.44,6.33-1.88,9.54c-0.62-2.66-1.24-5.32-1.83-7.98
			c-1.54-6.74-2.55-13.56-3.83-20.32c-0.35-1.66-0.61-3.34-0.78-5.02c7.12-1.28,13.89-4.03,19.89-8.07
			c11.47-7.94,9.82-20.87,0-22.94c-7.94-1.7-13.14,4.59-16.84,12.34c-1.58,3.38-2.95,6.86-4.11,10.41l-0.87-7.22
			c-1.59-16.21-2.03-32.51-1.33-48.79c7.73-0.4,15.28-2.5,22.11-6.15c12.27-6.74,11.86-19.77,2.29-22.94
			c-7.71-2.48-13.53,3.28-17.98,10.6c-2.32,3.94-4.38,8.02-6.17,12.22c0.52-9.31,1.35-18.6,2.5-27.87
			c0.62-5.8,1.63-11.47,2.57-17.27c7.95,0.75,15.97-0.34,23.44-3.17c13.03-5.09,14.31-18.07,5.3-22.34
			c-7.32-3.46-13.76,1.49-19.22,8.17c-3.25,4.29-6.25,8.77-8.97,13.42c1.31-6.61,2.55-13.23,4.17-19.75
			c3.08-13.56,7.08-26.89,11.97-39.91c-5.28,12.89-9.7,26.11-13.21,39.59c-1.74,6.17-3.12,12.43-4.59,18.69
			c-0.45-4.63-1.22-9.23-2.29-13.76c-2.04-7.91-5.87-14.59-14.2-13.76c-10.23,1.06-14.79,13.49-4.98,22.39
			c5.95,5.01,13.04,8.49,20.64,10.14c-1.1,5.62-2.29,11.26-3.05,16.95c-1.41,8.99-2.51,18.04-3.3,27.13
			c-0.89-3.83-2.02-7.59-3.37-11.28c-3.03-7.57-7.71-13.76-15.85-11.77c-10,2.29-12.91,15.28-2.02,22.94
			c6.19,4.12,13.26,6.75,20.64,7.66c-1.21,16.32-1.27,32.71-0.16,49.04l0.44,4.93c-0.97-2.52-2.06-5-3.28-7.41
			c-3.76-7.22-9.04-12.84-16.95-10.11c-9.72,3.35-11.31,16.49,0.28,22.94c6.45,3.44,13.61,5.34,20.92,5.55
			c0.16,1.7,0.34,3.37,0.64,5.05c1.1,6.88,1.93,13.92,3.26,20.78c0.37,1.97,0.78,3.92,1.17,5.89c-1.13-1.79-2.35-3.52-3.67-5.18
			c-5.05-6.4-11.28-10.94-18.53-6.88c-8.92,5.14-8.03,18.35,4.59,22.48c6.52,2.03,13.41,2.62,20.18,1.72
			c1.67,7.66,3.51,15.28,5.67,22.94c0.8,2.89,1.63,5.76,2.5,8.62c-1.67-2.83-3.52-5.56-5.53-8.17c-5.05-6.4-11.28-10.94-18.53-6.88
			c-8.92,5.11-8.03,18.35,4.59,22.48c7.25,2.23,14.92,2.7,22.39,1.38c1.22,3.58,2.53,7.14,3.92,10.69
			c-6.35,4.08-7.57,13.76,0.83,20.8c4.11,3.33,8.77,5.92,13.76,7.66c0.46,0.64,0.92,1.28,1.42,1.93l0.23,0.32
			c-0.65,24.52-0.06,49.05,1.74,73.51c1.13,15.44,2.71,30.83,4.72,46.17c2.09,15.39,4.45,30.55,7.78,46.03l14.91-3.56
			c-3.42-14.45-6.12-29.56-8.46-44.52s-4.15-30.12-5.6-45.23c-1.86-20.16-2.98-40.37-3.19-60.6l0,0c0.96,0.53,1.77,1.12,2.84,1.61
			c1.23,0.64,2.54,1.08,3.9,1.33l1.35-10.14h-0.28l-0.8-0.32c-0.53-0.18-1.15-0.64-1.72-0.92c-1.25-0.78-2.43-1.66-3.53-2.64
			l-1.31-1.17c6.25-0.27,12.4-1.7,18.14-4.2c12.8-5.69,13.49-18.69,4.29-22.55c-7.48-3.12-13.76,2.11-18.83,9.01
			c-1.42,1.97-2.75,4.06-4.01,6.15c0-2.29,0-4.45,0.21-6.67c0.26-6.56,0.63-13.11,1.1-19.66c6.73-0.14,13.37-1.59,19.54-4.27
			c12.78-5.69,13.49-18.69,4.29-22.55c-7.48-3.12-13.76,2.11-18.83,9.01c-1.47,2-2.82,4.13-4.08,6.26c0.44-4.75,0.89-9.5,1.44-14.22
			c0.41-3.51,0.89-7.02,1.4-10.5c1.22-4.82,2.57-9.61,4.01-14.38c0.83-2.61,1.67-5.21,2.57-7.8c5.22,3.54,11.04,6.1,17.18,7.57
			c13.65,3.1,22-6.88,16.93-15.5c-4.11-7-12.27-6.54-20.48-4.04c-3.68,1.19-7.29,2.59-10.8,4.2c4.14-10.95,9.12-21.57,14.91-31.74
			c3.44-5.98,7.2-11.77,11.26-17.34c5.52,3.95,11.75,6.79,18.35,8.37c13.65,3.1,22-6.88,16.93-15.5
			c-4.13-6.88-12.29-6.54-20.48-4.04c-2.92,0.92-5.8,2-8.6,3.23c4.39-5.3,9.13-10.3,14.2-14.95c10.23-9.36,21.83-17.09,34.4-22.94
			c3.74,6.23,8.74,11.61,14.68,15.8c11.47,7.96,22.94,1.77,21.49-8.07c-1.24-8.03-8.99-10.67-17.52-11.47
			c-3.24-0.24-6.5-0.31-9.75-0.18h0.23c13.48-5.32,27.48-9.24,41.77-11.7c2.7,7.07,6.89,13.48,12.29,18.78
			c10.09,9.68,22.41,5.41,22.5-4.59c0-8.12-7.18-11.95-15.48-14.01c-3.27-0.77-6.58-1.36-9.91-1.77
			c15.09-2.29,30.39-4.27,45.48-7.32h0.32c4.36,6.78,10.22,12.46,17.13,16.61c12.06,7.09,22.94,0,20.8-9.66
			c-1.81-7.91-9.75-9.95-18.35-10.05c-2.41,0-4.84,0.14-7.2,0.32c10.21-2.5,20.28-5.51,30.18-9.04l0.48,0.94l0.25-0.28
			c4.36,6.85,10.26,12.6,17.23,16.77c12.09,7.09,22.94,0,20.83-9.66c-1.83-7.91-9.75-9.95-18.35-10.05
			c-6.14,0.17-12.27,0.68-18.35,1.54c3.58-1.31,7.16-2.66,10.67-4.11c16.24-6.62,32.06-14.22,47.39-22.75
			c-17.78,9.39-36.21,17.47-55.16,24.2c3.27-3.1,6.34-6.41,9.17-9.91c4.95-6.49,7.8-13.76,1.97-19.63
			c-7.16-7.39-19.73-3.26-20.64,9.98c-0.37,7.37,0.98,14.71,3.95,21.47c-12.23,4-24.71,7.2-37.36,9.56l-1.22,0.23
			c3.52-3.33,6.81-6.89,9.84-10.67c4.95-6.49,7.82-13.65,2-19.63c-7.18-7.39-19.75-3.26-20.64,9.98
			c-0.38,7.27,0.93,14.54,3.83,21.22c-15.14,2.59-30.44,4.08-45.87,6.06l-2.29,0.3c3.51-2.06,6.87-4.36,10.07-6.88
			c6.33-5.16,10.78-11.47,6.49-18.65c-5.23-8.83-18.35-7.75-22.39,4.91c-2.06,7.02-2.48,14.42-1.22,21.63
			c-14.43,2.11-28.6,5.69-42.29,10.69l-0.46,0.18c2.24-1.96,4.37-4.04,6.38-6.24c5.41-6.1,8.81-13.03,3.44-19.45
			c-4.01-4.84-11.17-5.54-16.06-1.58c-0.65,0.54-1.24,1.15-1.77,1.81c-0.46-1.65-1.33-3.15-2.52-4.38
			c-5.6-5.89-13.44-3.65-20.87,0.62c-1.95,1.11-3.83,2.33-5.64,3.65c7.98-10.86,16.94-20.96,26.79-30.16
			c5.43,4.59,11.73,8.02,18.53,10.09c13.42,3.95,22.39-5.53,17.84-14.4c-3.67-7.25-11.86-7.32-20.18-5.32
			c-2.78,0.67-5.52,1.48-8.21,2.43c9.84-8.27,20.44-15.61,31.65-21.9c4.25,6.2,9.79,11.4,16.24,15.25c12.09,7.09,22.94,0,20.8-9.66
			c-1.81-7.91-9.72-9.95-18.35-10.02c-4.06,0.01-8.11,0.28-12.13,0.8c4.59-2.29,9.17-4.59,13.95-6.88
			c6.12-2.73,12.34-5.28,18.69-7.66c4.24,6.06,9.71,11.15,16.06,14.93c12.09,7.06,22.94,0,20.8-9.68
			c-1.81-7.89-9.72-9.93-18.35-10.02c-2.01-0.04-4.03,0.04-6.03,0.23c10.76-3.74,21.65-7.16,32.55-10.69
			c4.32,6.53,10.04,12.02,16.74,16.06c12.09,7.06,22.94,0,20.83-9.68c-1.83-7.89-9.75-9.93-18.35-10.02
			c-3.36,0.02-6.71,0.21-10.05,0.57c4.59-1.54,9.17-3.14,13.58-4.89c3.6-1.33,7.09-2.98,10.64-4.59c2.02-0.83,4.01-1.74,5.99-2.68
			c4.34,6.54,10.1,12.03,16.84,16.06c12.09,7.06,23.05,0,20.83-9.68c-1.83-7.91-9.75-9.95-18.35-10.02
			c-4.77,0.05-9.52,0.41-14.24,1.06c13.61-6.68,26.59-14.58,38.76-23.62C738.02,27.31,749.32,16.7,759.07,4.74z M416.06,379.63
			c-1.51-3.92-4.87-6.84-8.97-7.78c-1.74-3.92-3.33-7.91-4.84-11.93l2.43-1.22c3.33,2.23,6.93,4.03,10.71,5.37v0.62l1.93,0.16
			C416.8,369.81,416.36,374.72,416.06,379.63z M449.46,263.96c-1.93,3.19-3.74,6.45-5.48,9.72l-0.39-0.73
			c2.02-7.18,4.27-14.29,6.67-21.35c1.7-4.93,3.53-9.82,5.44-14.68c1.68,3.19,3.69,6.2,6.01,8.97c-4.43,5.78-8.53,11.82-12.27,18.07
			L449.46,263.96z M471.27,234.6c0.55-1.26,1.08-2.52,1.56-3.81c0.23-0.64,0.44-1.31,0.64-1.95c1.18,0.03,2.36-0.03,3.53-0.18
			c-2,1.93-3.9,3.92-5.76,5.94L471.27,234.6z M505.33,184.88c4.3,0.16,8.52-1.23,11.88-3.92c-0.48,6.31,0.3,12.66,2.29,18.67
			c-8.97,3.99-17.5,8.9-25.46,14.63c-0.34-2.65-1.75-5.05-3.9-6.63c-6.42-4.95-13.76-1.51-20.64,3.83l-0.3,0.28l-0.44-0.28
			c-0.46-0.25-0.95-0.47-1.45-0.64c0.21-0.39,0.37-0.78,0.57-1.15c5.05-10.08,10.72-19.84,16.97-29.22
			c6.46,2.85,13.43,4.36,20.48,4.43L505.33,184.88z"/>
	</g>
	<path class="st0" d="M1024.99,241.28c-0.46-3.35-0.64-6.74-0.96-10.14s-0.44-6.88-0.57-10.16c-0.53-13.56,0.2-27.13,2.18-40.55
		c1.88-13.42,5.53-26.53,10.85-38.99c-5.04,12.55-8.4,25.7-10,39.13c-1.7,13.38-2.15,26.9-1.35,40.37
		c1.17,26.88,8.95,52.75,13.05,79.54c1.19-4.36,2.66-8.63,4.4-12.8c2.98-6.54,7.34-11.74,14.45-9.72
		c8.72,2.5,10.73,13.99,0.85,20.21c-5.82,3.5-12.4,5.53-19.17,5.94c0.83,5.64,1.54,11.28,2.09,16.97c0.32,4.2,0.6,8.39,0.76,12.61
		c0.82-2.72,1.81-5.38,2.96-7.98c2.98-6.56,7.36-11.74,14.45-9.72c8.72,2.5,10.73,13.99,0.85,20.21
		c-5.51,3.32-11.71,5.33-18.12,5.85c-0.02,12.32-1.26,24.62-3.69,36.7c1.56-2.63,3.27-5.15,5.14-7.57
		c4.59-5.64,9.98-9.63,16.35-5.94c7.87,4.59,7.04,16.06-4.06,19.79c-6.2,1.9-12.75,2.34-19.15,1.28c-3.12,12.63-7.47,24.92-13,36.7
		c1.9-1.71,3.89-3.33,5.96-4.84c5.89-4.13,12.29-6.4,17.39-1.06c6.26,6.56,2.18,17.5-9.52,17.84c-6.14,0.09-12.23-1.19-17.82-3.74
		c-4.57,8.84-9.65,17.4-15.23,25.64c-0.89,1.31-1.81,2.57-2.71,3.85c0.02,0.44,0.02,0.87,0,1.31c1.17-0.73,2.38-1.38,3.62-1.97
		c6.45-3.19,13.12-4.45,17.32,1.63c5.18,7.45-0.53,17.61-12.13,16.06c-5.83-0.83-11.41-2.89-16.38-6.06l-0.78,0.32
		c-4.59,5.86-9.31,11.56-14.17,17.11c-3.69,4.13-7.5,8.17-11.47,12.16c5.44,5.5,3.26,15.34-7.04,18.03
		c-4.29,1.06-8.72,1.4-13.12,1.01c-7.87,6.87-15.98,13.44-24.31,19.73c3.04,0.13,5.78,1.88,7.18,4.59
		c2.48,4.38,1.24,8.69-1.65,12.66c-0.11,2.46-1.15,4.79-2.91,6.51c6.38-1.22,12.71-2.66,19.04-4.27
		c-0.79-6.33-0.26-12.76,1.56-18.88c3.65-11.79,14.98-13.76,19.29-6.1c3.53,6.22-0.41,12.25-5.94,17.41
		c-2.13,1.92-4.35,3.73-6.67,5.41l6.88-1.9c5.87-1.61,11.47-3.67,17.39-5.48c1.42-0.41,2.82-0.92,4.22-1.47
		c-1.97-6.07-2.65-12.48-2-18.83c1.35-12.27,12.11-16.33,17.8-9.61c4.59,5.46,1.9,12.13-2.57,18.23c-1.99,2.62-4.12,5.13-6.38,7.52
		l5.96-2.29c13.25-5.53,26.11-11.97,38.46-19.29c-2.77-6.17-4.17-12.87-4.08-19.63c0.14-12.32,10.44-17.43,16.77-11.33
		c5.14,4.95,3.1,11.88-0.73,18.35c-2.08,3.44-4.38,6.74-6.88,9.89c7.02-4.29,13.92-8.81,20.64-13.56c4.24-2.89,8.26-6.08,12.34-9.17
		c-3.92-5.89-6.43-12.6-7.34-19.61c-1.47-12.25,8.07-18.65,15.14-13.42c5.76,4.27,4.59,11.47,1.67,18.35
		c-1.98,4.31-4.21,8.5-6.7,12.55c4.59-3.76,9.17-7.48,13.62-11.47c9.24-8.05,17.93-16.72,26.01-25.94
		c-7.8,9.47-16.23,18.42-25.23,26.77c-4.08,3.92-8.37,7.59-12.64,11.31c3.81-1.61,7.73-2.96,11.72-4.04c7-1.72,13.76-1.51,16.58,5.3
		c3.44,8.39-4.33,17.11-15.34,13.19c-6.37-2.42-12.06-6.36-16.58-11.47c-3.92,3.19-7.82,6.45-11.9,9.43
		c-6.42,4.82-13,9.4-19.73,13.76c3.36-0.91,6.78-1.59,10.23-2.04c7.16-0.8,13.76,0.3,15.76,7.43c2.29,8.76-6.49,16.38-16.9,11.08
		c-5.82-3.09-10.82-7.52-14.61-12.91c-12.17,7.77-24.87,14.66-38.01,20.64l-4.04,1.72c2.37-0.32,4.75-0.5,7.13-0.55
		c7.18,0,13.76,1.67,14.93,8.97c1.42,8.95-8.12,15.67-17.94,9.34c-5.36-3.58-9.82-8.35-13.03-13.95c-1.38,0.57-2.75,1.15-4.17,1.61
		c-5.85,2.02-11.63,4.29-17.52,6.12l-5.05,1.54c1.86,0.14,3.72,0.37,5.55,0.69c7.09,1.26,13.19,4.2,12.98,11.58
		c-0.28,9.06-10.89,13.76-19.36,5.8c-4.37-4.19-7.77-9.29-9.95-14.93c-6.65,1.88-13.35,3.65-20.11,5.11
		c-2.57,0.57-5.16,1.12-7.75,1.65c2.9,0.12,5.79,0.41,8.65,0.89c7.09,1.26,13.21,4.22,12.98,11.58c-0.25,9.17-10.89,13.88-19.36,5.8
		c-4.77-4.69-8.33-10.45-10.39-16.81c-3.3,0.55-6.61,1.01-9.95,1.4c-0.53,6.63-7.59,11.65-16.49,8.03c-4.33-1.83-8.3-4.4-11.74-7.59
		c-0.7-0.03-1.39-0.13-2.06-0.3h-0.37c-18.76,10.76-38.12,20.44-57.85,29.27c-12.48,5.55-25.1,10.73-37.87,15.55
		c-12.82,4.77-25.6,9.17-38.99,13.12l-3.46-13.07c12.64-3.35,25.53-7.55,38.12-11.95c12.59-4.4,25.23-9.31,37.5-14.5
		c16.42-6.88,32.62-14.5,48.42-22.75l0,0c-0.84-0.46-1.65-0.98-2.43-1.54c-1.01-0.68-1.91-1.52-2.66-2.48l7.32-5.25l-0.11-0.14l0,0
		l0.18,0.18l0.6,0.48c0.45,0.35,0.93,0.68,1.42,0.96c1.12,0.64,2.3,1.19,3.51,1.65l1.44,0.53c-2.37-4.98-3.82-10.35-4.29-15.85
		c-0.89-12.29,8.92-18.35,15.73-12.73c5.55,4.59,4.11,11.58,0.85,18.35c-0.94,1.93-2.02,3.83-3.1,5.67l5.09-2.91
		c5-2.94,9.93-5.96,14.82-9.04c-2.69-5.29-4.32-11.06-4.82-16.97c-0.92-12.29,8.9-18.35,15.73-12.73
		c5.55,4.59,4.08,11.58,0.83,18.35c-0.94,1.97-2.04,3.9-3.14,5.78c3.5-2.31,6.98-4.66,10.44-7.04c2.55-1.79,5.07-3.62,7.59-5.46
		c3.23-2.96,6.4-6.03,9.5-9.17c1.67-1.72,3.35-3.49,4.98-5.25c-4.93-2.58-9.34-6.04-13.03-10.21c-8.07-9.31-3.78-19.98,5-19.61
		c7.16,0.3,10.21,6.88,11.67,14.24c0.61,3.35,1.02,6.74,1.24,10.14c6.75-7.76,12.88-16.03,18.35-24.75
		c3.21-5.19,6.15-10.55,8.78-16.06c-5.37-2.64-10.18-6.3-14.15-10.78c-8.1-9.31-3.78-19.95,5-19.59c7.16,0.3,10.21,6.88,11.67,14.22
		c0.5,2.66,0.83,5.41,1.05,8.05c2.29-5.62,4.2-11.39,5.71-17.27c3.01-11.84,4.19-24.07,3.49-36.26c-6.39-0.3-12.64-1.95-18.35-4.82
		c-10.99-5.64-10.96-17.13-2.66-20.07c6.74-2.29,12,2.55,16.06,8.88c1.54,2.43,2.94,4.94,4.2,7.52v-0.23
		c-1.48-12.69-4.26-25.2-8.3-37.32c-6.62,0.85-13.34,0.25-19.7-1.74c-11.74-3.83-13.53-15.16-5.83-19.38
		c6.28-3.44,12.27,0.6,17.34,6.19c1.96,2.2,3.79,4.5,5.5,6.88c-4.47-12.68-9.34-25.39-13.26-38.4l0,0v-0.3
		c-7.05-0.5-13.89-2.6-20-6.15c-10.53-6.45-9.63-17.91-1.15-20.21c6.88-1.88,11.79,3.42,15.41,10.05c1.01,1.86,1.93,3.78,2.75,5.73
		c-2.29-8.99-4.14-18.07-5.55-27.23h-0.92c-0.04-0.1-0.04-0.22,0-0.32c-7.14-0.53-14.06-2.72-20.21-6.4
		c-10.53-6.45-9.63-17.91-1.15-20.21c6.88-1.88,11.79,3.42,15.41,10.05c2.43,4.85,4.59,9.84,6.47,14.93
		c-0.48-3.33-0.89-6.65-1.26-10c-1.6-15.37-2.28-30.83-2.04-46.29c0.19,17.73,1.63,35.42,4.31,52.94c1.07-3.82,2.39-7.57,3.97-11.22
		c2.98-6.54,7.36-11.74,14.45-9.7c8.72,2.48,10.73,13.97,0.85,20.18c-5.57,3.37-11.86,5.39-18.35,5.89
		c1.97,11.17,4.68,22.21,8.1,33.03c0.11,0.34,0.23,0.69,0.32,1.03c1.13-4.12,2.54-8.15,4.2-12.09c2.98-6.54,7.34-11.74,14.45-9.72
		c8.72,2.5,10.73,13.99,0.83,20.21c-5.5,3.33-11.69,5.34-18.1,5.87c4.29,12.82,9.52,25.23,14.36,38.07
		c0.25,0.62,0.46,1.26,0.71,1.88c0.14-3.58,0.52-7.14,1.15-10.67c1.35-7.09,4.4-13.14,11.77-12.82c9.06,0.39,13.76,11.1,5.53,19.45
		c-4.6,4.51-10.18,7.91-16.31,9.93c4.36,12.1,7.48,24.61,9.31,37.34v0.41c0.62-2.56,1.38-5.08,2.29-7.55
		c2.5-6.74,6.45-12.27,13.76-10.78c5.45,1.03,9.04,6.28,8.01,11.74c0,0,0,0,0,0.01c-0.15,0.79-0.4,1.56-0.73,2.29
		c1.48-0.32,3.02-0.28,4.47,0.14c6.88,1.88,8.42,8.92,8.19,16.47c-0.05,1.98-0.21,3.96-0.48,5.92c5.12-10.73,9.24-21.91,12.29-33.4
		c-5.83-2.29-11.12-5.76-15.55-10.18c-8.67-8.81-5.02-19.7,3.76-19.89c7.16-0.16,10.6,6.17,12.52,13.49
		c0.63,2.42,1.12,4.87,1.47,7.34c2.32-11.07,3.63-22.32,3.9-33.62c-6.6-0.73-12.96-2.87-18.65-6.28
		c-10.5-6.45-9.61-17.89-1.15-20.18c6.88-1.88,11.79,3.42,15.44,10.05c1.66,3.17,3.13,6.43,4.4,9.77c0-4.59-0.23-9.17-0.48-13.76
		c-0.44-5.92-1.03-11.81-1.83-17.71c-6.49-0.76-12.74-2.88-18.35-6.24c-10.5-6.42-9.63-17.89-1.15-20.18
		c6.88-1.88,11.79,3.42,15.44,10.05c0.85,1.56,1.61,3.17,2.29,4.79c-1.65-10.23-3.58-20.44-5.41-30.67
		C1026.92,254.72,1025.82,248.02,1024.99,241.28z M981.23,456.74c-0.46-0.92-0.92-1.86-1.33-2.84c-0.69,2.29-1.42,4.59-2.29,6.88
		c0.76-0.94,1.51-1.9,2.29-2.78L981.23,456.74z M909.01,566.54v-2.29c-3.12-1.65-6.02-3.69-8.62-6.08l-0.46,0.32l-0.94-1.4
		c-3.62,2.39-7.28,4.73-10.96,7.04c3.68-0.46,7.36,0.94,9.79,3.74C901.51,567.57,905.27,567.13,909.01,566.54z M963.94,489.91
		c-1.67,2.82-3.44,5.6-5.28,8.33h0.71c4.72-4.59,9.31-9.29,13.76-14.11c3.12-3.35,6.17-6.88,9.17-10.32
		c-3.18,0.02-6.36-0.3-9.47-0.94c-2.63,5.88-5.6,11.6-8.9,17.13V489.91z M1002.15,413.55c-1.92-3.28-2.6-7.14-1.9-10.87
		c-4.73,2.98-10,5-15.5,5.94c0.68,8.68,0.44,17.4-0.71,26.03c2.23-0.87,4.72-0.78,6.88,0.25c6.54,2.94,6.88,10.11,5.55,17.55v0.34
		l0.39,0.23c0.39,0.28,0.76,0.55,1.1,0.85c0.23-0.3,0.46-0.6,0.67-0.92c5.75-8.07,10.99-16.5,15.69-25.23
		c-4.98-3.81-9.11-8.6-12.16-14.08L1002.15,413.55z"/>
	<path class="st0" d="M1036.48,141.41c-5.04,12.55-8.4,25.7-10,39.13c-1.7,13.38-2.15,26.9-1.35,40.37v1.58
		c1.24-4.48,2.77-8.88,4.59-13.17c2.98-6.54,7.34-11.74,14.43-9.72c8.74,2.5,10.76,13.99,0.85,20.21
		c-5.95,3.57-12.68,5.62-19.61,5.96c0.92,11.12,2.52,22.17,4.77,33.1c1.17-4.29,2.62-8.49,4.33-12.59
		c2.98-6.56,7.36-11.74,14.45-9.72c8.72,2.5,10.73,13.99,0.85,20.21c-5.73,3.45-12.2,5.48-18.88,5.92
		c2.5,12.57,5.3,25.12,7.25,37.84c1.19-4.36,2.66-8.63,4.4-12.8c2.98-6.54,7.34-11.74,14.45-9.72c8.72,2.5,10.73,13.99,0.85,20.21
		c-5.82,3.5-12.4,5.53-19.17,5.94c0.83,5.64,1.54,11.28,2.09,16.97c0.32,4.2,0.6,8.39,0.76,12.61c0.83-2.73,1.83-5.41,2.98-8.03
		c2.98-6.56,7.36-11.74,14.45-9.72c8.72,2.5,10.73,13.99,0.85,20.21c-5.51,3.32-11.71,5.33-18.12,5.85
		c-0.02,12.32-1.26,24.62-3.69,36.7c1.56-2.63,3.27-5.15,5.14-7.57c4.59-5.64,9.98-9.63,16.35-5.94c7.87,4.59,7.04,16.06-4.06,19.79
		c-6.2,1.9-12.75,2.34-19.15,1.28c-3.12,12.63-7.47,24.92-13,36.7c1.9-1.71,3.89-3.33,5.96-4.84c5.89-4.13,12.29-6.4,17.39-1.06
		c6.26,6.56,2.18,17.5-9.52,17.84c-6.14,0.09-12.23-1.19-17.82-3.74c-4.57,8.84-9.65,17.4-15.23,25.64
		c-0.89,1.31-1.81,2.57-2.71,3.85c0.02,0.44,0.02,0.87,0,1.31c1.17-0.73,2.38-1.38,3.62-1.97c6.45-3.19,13.12-4.45,17.32,1.63
		c5.18,7.45-0.53,17.61-12.13,16.06c-5.83-0.83-11.41-2.89-16.38-6.06l-0.78,0.32c-4.59,5.86-9.31,11.56-14.17,17.11
		c-3.69,4.13-7.5,8.17-11.47,12.16c5.44,5.5,3.26,15.34-7.04,18.03c-4.29,1.06-8.72,1.4-13.12,1.01
		c-7.87,6.87-15.98,13.44-24.31,19.73c3.04,0.13,5.78,1.88,7.18,4.59c2.48,4.38,1.24,8.69-1.65,12.66
		c-0.11,2.46-1.15,4.79-2.91,6.51c6.38-1.22,12.71-2.66,19.04-4.27c-0.79-6.33-0.26-12.76,1.56-18.88
		c3.65-11.79,14.98-13.76,19.29-6.1c3.53,6.22-0.41,12.25-5.94,17.41c-2.13,1.92-4.35,3.73-6.67,5.41l6.88-1.9
		c5.87-1.61,11.47-3.67,17.39-5.48c1.42-0.41,2.82-0.92,4.22-1.47c-1.97-6.07-2.65-12.48-2-18.83c1.35-12.27,12.11-16.33,17.8-9.61
		c4.59,5.46,1.9,12.13-2.57,18.23c-1.99,2.62-4.12,5.13-6.38,7.52l5.96-2.29c13.25-5.53,26.11-11.97,38.46-19.29
		c-2.77-6.17-4.17-12.87-4.08-19.63c0.14-12.32,10.44-17.43,16.77-11.33c5.14,4.95,3.1,11.88-0.73,18.35
		c-2.08,3.44-4.38,6.74-6.88,9.89c7.02-4.29,13.92-8.81,20.64-13.56c4.24-2.89,8.26-6.08,12.34-9.17
		c-3.92-5.89-6.43-12.6-7.34-19.61c-1.47-12.25,8.07-18.65,15.14-13.42c5.76,4.27,4.59,11.47,1.67,18.35
		c-1.98,4.31-4.21,8.5-6.7,12.55c4.59-3.76,9.17-7.48,13.62-11.47c9.24-8.05,17.93-16.72,26.01-25.94
		c-7.8,9.47-16.23,18.42-25.23,26.77c-4.08,3.92-8.37,7.59-12.64,11.31c3.81-1.61,7.73-2.96,11.72-4.04c7-1.72,13.76-1.51,16.58,5.3
		c3.44,8.39-4.33,17.11-15.34,13.19c-6.37-2.42-12.06-6.36-16.58-11.47c-3.92,3.19-7.82,6.45-11.9,9.43
		c-6.42,4.82-13,9.4-19.73,13.76c3.36-0.91,6.78-1.59,10.23-2.04c7.16-0.8,13.76,0.3,15.76,7.43c2.29,8.76-6.49,16.38-16.9,11.08
		c-5.82-3.09-10.82-7.52-14.61-12.91c-12.17,7.77-24.87,14.66-38.01,20.64l-4.04,1.72c2.37-0.32,4.75-0.5,7.13-0.55
		c7.18,0,13.76,1.67,14.93,8.97c1.42,8.95-8.12,15.67-17.94,9.34c-5.36-3.58-9.82-8.35-13.03-13.95c-1.38,0.57-2.75,1.15-4.17,1.61
		c-5.85,2.02-11.63,4.29-17.52,6.12l-5.05,1.54c1.86,0.14,3.72,0.37,5.55,0.69c7.09,1.26,13.19,4.2,12.98,11.58
		c-0.28,9.06-10.89,13.76-19.36,5.8c-4.37-4.19-7.77-9.29-9.95-14.93c-6.65,1.88-13.35,3.65-20.11,5.11
		c-2.57,0.57-5.16,1.12-7.75,1.65c2.9,0.12,5.79,0.41,8.65,0.89c7.09,1.26,13.21,4.22,12.98,11.58c-0.25,9.17-10.89,13.88-19.36,5.8
		c-4.77-4.69-8.33-10.45-10.39-16.81c-3.3,0.55-6.61,1.01-9.95,1.4c-0.53,6.63-7.59,11.65-16.49,8.03c-4.33-1.83-8.3-4.4-11.74-7.59
		c-0.7-0.03-1.39-0.13-2.06-0.3h-0.37c-18.76,10.76-38.12,20.44-57.85,29.27c-12.48,5.55-25.1,10.73-37.87,15.55
		c-12.82,4.77-25.6,9.17-38.99,13.12l-3.46-13.07c12.64-3.35,25.53-7.55,38.12-11.95c12.59-4.4,25.23-9.31,37.5-14.5
		c16.42-6.88,32.62-14.5,48.42-22.75l0,0c-0.84-0.46-1.65-0.98-2.43-1.54c-1.01-0.68-1.91-1.52-2.66-2.48l7.32-5.25l-0.11-0.14l0,0
		l0.18,0.18l0.6,0.48c0.45,0.35,0.93,0.68,1.42,0.96c1.12,0.64,2.3,1.19,3.51,1.65l1.44,0.53c-2.37-4.98-3.82-10.35-4.29-15.85
		c-0.89-12.29,8.92-18.35,15.73-12.73c5.55,4.59,4.11,11.58,0.85,18.35c-0.94,1.93-2.02,3.83-3.1,5.67l5.09-2.91
		c5-2.94,9.93-5.96,14.82-9.04c-2.69-5.29-4.32-11.06-4.82-16.97c-0.92-12.29,8.9-18.35,15.73-12.73
		c5.55,4.59,4.08,11.58,0.83,18.35c-0.94,1.97-2.04,3.9-3.14,5.78c3.5-2.31,6.98-4.66,10.44-7.04c2.55-1.79,5.07-3.62,7.59-5.46
		c3.23-2.96,6.4-6.03,9.5-9.17c1.67-1.72,3.35-3.49,4.98-5.25c-4.93-2.58-9.34-6.04-13.03-10.21c-8.07-9.31-3.78-19.98,5-19.61
		c7.16,0.3,10.21,6.88,11.67,14.24c0.61,3.35,1.02,6.74,1.24,10.14c6.75-7.76,12.88-16.03,18.35-24.75
		c3.21-5.19,6.15-10.55,8.78-16.06c-5.37-2.64-10.18-6.3-14.15-10.78c-8.1-9.31-3.78-19.95,5-19.59c7.16,0.3,10.21,6.88,11.67,14.22
		c0.5,2.66,0.83,5.41,1.05,8.05c2.29-5.62,4.2-11.39,5.71-17.27c3.01-11.84,4.19-24.07,3.49-36.26c-6.39-0.3-12.64-1.95-18.35-4.82
		c-10.99-5.64-10.96-17.13-2.66-20.07c6.74-2.29,12,2.55,16.06,8.88c1.54,2.43,2.94,4.94,4.2,7.52v-0.23
		c-1.48-12.69-4.26-25.2-8.3-37.32c-6.62,0.85-13.34,0.25-19.7-1.74c-11.74-3.83-13.53-15.16-5.83-19.38
		c6.28-3.44,12.27,0.6,17.34,6.19c1.96,2.2,3.79,4.5,5.5,6.88c-4.47-12.68-9.34-25.39-13.26-38.4l0,0v-0.3
		c-7.05-0.5-13.89-2.6-20-6.15c-10.53-6.45-9.63-17.91-1.15-20.21c6.88-1.88,11.79,3.42,15.41,10.05c1.01,1.86,1.93,3.78,2.75,5.73
		c-2.29-8.99-4.14-18.07-5.55-27.23h-0.92c-0.04-0.1-0.04-0.22,0-0.32c-7.14-0.53-14.06-2.72-20.21-6.4
		c-10.53-6.45-9.63-17.91-1.15-20.21c6.88-1.88,11.79,3.42,15.41,10.05c2.43,4.85,4.59,9.84,6.47,14.93
		c-0.48-3.33-0.89-6.65-1.26-10c-1.6-15.37-2.28-30.83-2.04-46.29c0.19,17.73,1.63,35.42,4.31,52.94c1.07-3.82,2.39-7.57,3.97-11.22
		c2.98-6.54,7.36-11.74,14.45-9.7c8.72,2.48,10.73,13.97,0.85,20.18c-5.57,3.37-11.86,5.39-18.35,5.89
		c1.97,11.17,4.68,22.21,8.1,33.03c0.11,0.34,0.23,0.69,0.32,1.03c1.13-4.12,2.54-8.15,4.2-12.09c2.98-6.54,7.34-11.74,14.45-9.72
		c8.72,2.5,10.73,13.99,0.83,20.21c-5.5,3.33-11.69,5.34-18.1,5.87c4.29,12.82,9.52,25.23,14.36,38.07
		c0.25,0.62,0.46,1.26,0.71,1.88c0.14-3.58,0.52-7.14,1.15-10.67c1.35-7.09,4.4-13.14,11.77-12.82c9.06,0.39,13.76,11.1,5.53,19.45
		c-4.6,4.51-10.18,7.91-16.31,9.93c4.36,12.1,7.48,24.61,9.31,37.34v0.41c0.62-2.56,1.38-5.08,2.29-7.55
		c2.5-6.74,6.45-12.27,13.76-10.78c5.45,1.03,9.04,6.28,8.01,11.74c0,0,0,0,0,0.01c-0.15,0.79-0.4,1.56-0.73,2.29
		c1.48-0.32,3.02-0.28,4.47,0.14c6.88,1.88,8.42,8.92,8.19,16.47c-0.05,1.98-0.21,3.96-0.48,5.92c5.12-10.73,9.24-21.91,12.29-33.4
		c-5.83-2.29-11.12-5.76-15.55-10.18c-8.67-8.81-5.02-19.7,3.76-19.89c7.16-0.16,10.6,6.17,12.52,13.49
		c0.63,2.42,1.12,4.87,1.47,7.34c2.32-11.07,3.63-22.32,3.9-33.62c-6.6-0.73-12.96-2.87-18.65-6.28
		c-10.5-6.45-9.61-17.89-1.15-20.18c6.88-1.88,11.79,3.42,15.44,10.05c1.66,3.17,3.13,6.43,4.4,9.77c0-4.59-0.23-9.17-0.48-13.76
		c-0.44-5.92-1.03-11.81-1.83-17.71c-6.49-0.76-12.74-2.88-18.35-6.24c-10.5-6.42-9.63-17.89-1.15-20.18
		c6.88-1.88,11.79,3.42,15.44,10.05c0.85,1.56,1.61,3.17,2.29,4.79c-1.58-9.93-3.46-19.82-5.25-29.82
		c-6.87-0.63-13.51-2.8-19.43-6.35c-10.53-6.45-9.63-17.89-1.17-20.21c6.88-1.86,11.79,3.44,15.44,10.07
		c1.4,2.61,2.64,5.3,3.72,8.05c-0.67-4.17-1.31-8.37-1.83-12.59c-0.46-3.35-0.64-6.74-0.96-10.14c-0.21-1.9-0.32-3.83-0.39-5.76
		c-6.92-0.62-13.62-2.79-19.59-6.35c-10.53-6.45-9.63-17.91-1.15-20.21c6.88-1.88,11.79,3.42,15.41,10.05
		c1.94,3.71,3.65,7.54,5.11,11.47c-0.45-13.36,0.31-26.73,2.29-39.95C1027.64,166.93,1031.23,153.86,1036.48,141.41z M887.95,564.24
		c3.68-0.46,7.36,0.94,9.79,3.74c3.76-0.3,7.52-0.73,11.26-1.24v-2.29c-3.12-1.65-6.02-3.69-8.62-6.08l-0.46,0.32l-0.94-1.4
		C895.31,559.54,891.64,561.86,887.95,564.24z M963.94,490.11c-1.67,2.82-3.44,5.6-5.28,8.33h0.71c4.72-4.59,9.31-9.29,13.76-14.11
		c3.12-3.35,6.17-6.88,9.17-10.32c-3.18,0.02-6.36-0.3-9.47-0.94c-2.64,5.81-5.61,11.46-8.9,16.93V490.11z M977.7,460.94
		c0.76-0.94,1.51-1.9,2.29-2.78l1.24-1.31c-0.46-0.92-0.92-1.86-1.33-2.84c-0.69,2.29-1.42,4.59-2.29,6.88L977.7,460.94z
		 M1002.17,413.76c-1.92-3.28-2.6-7.14-1.9-10.87c-4.73,2.98-10,5-15.5,5.94c0.68,8.68,0.44,17.4-0.71,26.03
		c2.23-0.87,4.72-0.78,6.88,0.25c6.54,2.94,6.88,10.11,5.55,17.55V453l0.39,0.23c0.39,0.28,0.76,0.55,1.1,0.85
		c0.23-0.3,0.46-0.6,0.67-0.92c5.75-8.07,10.99-16.5,15.69-25.23c-5-3.87-9.15-8.74-12.18-14.29L1002.17,413.76z"/>
	<g class="st4">
		<path class="st2" d="M1024.99,241.28c-0.46-3.35-0.64-6.74-0.96-10.14s-0.44-6.88-0.57-10.16c-0.53-13.56,0.2-27.13,2.18-40.55
			c1.88-13.42,5.53-26.53,10.85-38.99c-5.04,12.55-8.4,25.7-10,39.13c-1.7,13.38-2.15,26.9-1.35,40.37
			c1.17,26.88,8.95,52.75,13.05,79.54c1.19-4.36,2.66-8.63,4.4-12.8c2.98-6.54,7.34-11.74,14.45-9.72
			c8.72,2.5,10.73,13.99,0.85,20.21c-5.82,3.5-12.4,5.53-19.17,5.94c0.83,5.64,1.54,11.28,2.09,16.97c0.32,4.2,0.6,8.39,0.76,12.61
			c0.82-2.72,1.81-5.38,2.96-7.98c2.98-6.56,7.36-11.74,14.45-9.72c8.72,2.5,10.73,13.99,0.85,20.21
			c-5.51,3.32-11.71,5.33-18.12,5.85c-0.02,12.32-1.26,24.62-3.69,36.7c1.56-2.63,3.27-5.15,5.14-7.57
			c4.59-5.64,9.98-9.63,16.35-5.94c7.87,4.59,7.04,16.06-4.06,19.79c-6.2,1.9-12.75,2.34-19.15,1.28c-3.12,12.63-7.47,24.92-13,36.7
			c1.9-1.71,3.89-3.33,5.96-4.84c5.89-4.13,12.29-6.4,17.39-1.06c6.26,6.56,2.18,17.5-9.52,17.84c-6.14,0.09-12.23-1.19-17.82-3.74
			c-4.57,8.84-9.65,17.4-15.23,25.64c-0.89,1.31-1.81,2.57-2.71,3.85c0.02,0.44,0.02,0.87,0,1.31c1.17-0.73,2.38-1.38,3.62-1.97
			c6.45-3.19,13.12-4.45,17.32,1.63c5.18,7.45-0.53,17.61-12.13,16.06c-5.83-0.83-11.41-2.89-16.38-6.06l-0.78,0.32
			c-4.59,5.86-9.31,11.56-14.17,17.11c-3.69,4.13-7.5,8.17-11.47,12.16c5.44,5.5,3.26,15.34-7.04,18.03
			c-4.29,1.06-8.72,1.4-13.12,1.01c-7.87,6.87-15.98,13.44-24.31,19.73c3.04,0.13,5.78,1.88,7.18,4.59
			c2.48,4.38,1.24,8.69-1.65,12.66c-0.11,2.46-1.15,4.79-2.91,6.51c6.38-1.22,12.71-2.66,19.04-4.27
			c-0.79-6.33-0.26-12.76,1.56-18.88c3.65-11.79,14.98-13.76,19.29-6.1c3.53,6.22-0.41,12.25-5.94,17.41
			c-2.13,1.92-4.35,3.73-6.67,5.41l6.88-1.9c5.87-1.61,11.47-3.67,17.39-5.48c1.42-0.41,2.82-0.92,4.22-1.47
			c-1.97-6.07-2.65-12.48-2-18.83c1.35-12.27,12.11-16.33,17.8-9.61c4.59,5.46,1.9,12.13-2.57,18.23c-1.99,2.62-4.12,5.13-6.38,7.52
			l5.96-2.29c13.25-5.53,26.11-11.97,38.46-19.29c-2.77-6.17-4.17-12.87-4.08-19.63c0.14-12.32,10.44-17.43,16.77-11.33
			c5.14,4.95,3.1,11.88-0.73,18.35c-2.08,3.44-4.38,6.74-6.88,9.89c7.02-4.29,13.92-8.81,20.64-13.56
			c4.24-2.89,8.26-6.08,12.34-9.17c-3.92-5.89-6.43-12.6-7.34-19.61c-1.47-12.25,8.07-18.65,15.14-13.42
			c5.76,4.27,4.59,11.47,1.67,18.35c-1.98,4.31-4.21,8.5-6.7,12.55c4.59-3.76,9.17-7.48,13.62-11.47
			c9.24-8.05,17.93-16.72,26.01-25.94c-7.8,9.47-16.23,18.42-25.23,26.77c-4.08,3.92-8.37,7.59-12.64,11.31
			c3.81-1.61,7.73-2.96,11.72-4.04c7-1.72,13.76-1.51,16.58,5.3c3.44,8.39-4.33,17.11-15.34,13.19
			c-6.37-2.42-12.06-6.36-16.58-11.47c-3.92,3.19-7.82,6.45-11.9,9.43c-6.42,4.82-13,9.4-19.73,13.76
			c3.36-0.91,6.78-1.59,10.23-2.04c7.16-0.8,13.76,0.3,15.76,7.43c2.29,8.76-6.49,16.38-16.9,11.08
			c-5.82-3.09-10.82-7.52-14.61-12.91c-12.17,7.77-24.87,14.66-38.01,20.64l-4.04,1.72c2.37-0.32,4.75-0.5,7.13-0.55
			c7.18,0,13.76,1.67,14.93,8.97c1.42,8.95-8.12,15.67-17.94,9.34c-5.36-3.58-9.82-8.35-13.03-13.95c-1.38,0.57-2.75,1.15-4.17,1.61
			c-5.85,2.02-11.63,4.29-17.52,6.12l-5.05,1.54c1.86,0.14,3.72,0.37,5.55,0.69c7.09,1.26,13.19,4.2,12.98,11.58
			c-0.28,9.06-10.89,13.76-19.36,5.8c-4.37-4.19-7.77-9.29-9.95-14.93c-6.65,1.88-13.35,3.65-20.11,5.11
			c-2.57,0.57-5.16,1.12-7.75,1.65c2.9,0.12,5.79,0.41,8.65,0.89c7.09,1.26,13.21,4.22,12.98,11.58
			c-0.25,9.17-10.89,13.88-19.36,5.8c-4.77-4.69-8.33-10.45-10.39-16.81c-3.3,0.55-6.61,1.01-9.95,1.4
			c-0.53,6.63-7.59,11.65-16.49,8.03c-4.33-1.83-8.3-4.4-11.74-7.59c-0.7-0.03-1.39-0.13-2.06-0.3h-0.37
			c-18.76,10.76-38.12,20.44-57.85,29.27c-12.48,5.55-25.1,10.73-37.87,15.55c-12.82,4.77-25.6,9.17-38.99,13.12l-3.46-13.07
			c12.64-3.35,25.53-7.55,38.12-11.95c12.59-4.4,25.23-9.31,37.5-14.5c16.42-6.88,32.62-14.5,48.42-22.75l0,0
			c-0.84-0.46-1.65-0.98-2.43-1.54c-1.01-0.68-1.91-1.52-2.66-2.48l7.32-5.25l-0.11-0.14l0,0l0.18,0.18l0.6,0.48
			c0.45,0.35,0.93,0.68,1.42,0.96c1.12,0.64,2.3,1.19,3.51,1.65l1.44,0.53c-2.37-4.98-3.82-10.35-4.29-15.85
			c-0.89-12.29,8.92-18.35,15.73-12.73c5.55,4.59,4.11,11.58,0.85,18.35c-0.94,1.93-2.02,3.83-3.1,5.67l5.09-2.91
			c5-2.94,9.93-5.96,14.82-9.04c-2.69-5.29-4.32-11.06-4.82-16.97c-0.92-12.29,8.9-18.35,15.73-12.73
			c5.55,4.59,4.08,11.58,0.83,18.35c-0.94,1.97-2.04,3.9-3.14,5.78c3.5-2.31,6.98-4.66,10.44-7.04c2.55-1.79,5.07-3.62,7.59-5.46
			c3.23-2.96,6.4-6.03,9.5-9.17c1.67-1.72,3.35-3.49,4.98-5.25c-4.93-2.58-9.34-6.04-13.03-10.21c-8.07-9.31-3.78-19.98,5-19.61
			c7.16,0.3,10.21,6.88,11.67,14.24c0.61,3.35,1.02,6.74,1.24,10.14c6.75-7.76,12.88-16.03,18.35-24.75
			c3.21-5.19,6.15-10.55,8.78-16.06c-5.37-2.64-10.18-6.3-14.15-10.78c-8.1-9.31-3.78-19.95,5-19.59
			c7.16,0.3,10.21,6.88,11.67,14.22c0.5,2.66,0.83,5.41,1.05,8.05c2.29-5.62,4.2-11.39,5.71-17.27c3.01-11.84,4.19-24.07,3.49-36.26
			c-6.39-0.3-12.64-1.95-18.35-4.82c-10.99-5.64-10.96-17.13-2.66-20.07c6.74-2.29,12,2.55,16.06,8.88c1.54,2.43,2.94,4.94,4.2,7.52
			v-0.23c-1.48-12.69-4.26-25.2-8.3-37.32c-6.62,0.85-13.34,0.25-19.7-1.74c-11.74-3.83-13.53-15.16-5.83-19.38
			c6.28-3.44,12.27,0.6,17.34,6.19c1.96,2.2,3.79,4.5,5.5,6.88c-4.47-12.68-9.34-25.39-13.26-38.4l0,0v-0.3
			c-7.05-0.5-13.89-2.6-20-6.15c-10.53-6.45-9.63-17.91-1.15-20.21c6.88-1.88,11.79,3.42,15.41,10.05c1.01,1.86,1.93,3.78,2.75,5.73
			c-2.29-8.99-4.14-18.07-5.55-27.23h-0.92c-0.04-0.1-0.04-0.22,0-0.32c-7.14-0.53-14.06-2.72-20.21-6.4
			c-10.53-6.45-9.63-17.91-1.15-20.21c6.88-1.88,11.79,3.42,15.41,10.05c2.43,4.85,4.59,9.84,6.47,14.93
			c-0.48-3.33-0.89-6.65-1.26-10c-1.6-15.37-2.28-30.83-2.04-46.29c0.19,17.73,1.63,35.42,4.31,52.94
			c1.07-3.82,2.39-7.57,3.97-11.22c2.98-6.54,7.36-11.74,14.45-9.7c8.72,2.48,10.73,13.97,0.85,20.18
			c-5.57,3.37-11.86,5.39-18.35,5.89c1.97,11.17,4.68,22.21,8.1,33.03c0.11,0.34,0.23,0.69,0.32,1.03c1.13-4.12,2.54-8.15,4.2-12.09
			c2.98-6.54,7.34-11.74,14.45-9.72c8.72,2.5,10.73,13.99,0.83,20.21c-5.5,3.33-11.69,5.34-18.1,5.87
			c4.29,12.82,9.52,25.23,14.36,38.07c0.25,0.62,0.46,1.26,0.71,1.88c0.14-3.58,0.52-7.14,1.15-10.67
			c1.35-7.09,4.4-13.14,11.77-12.82c9.06,0.39,13.76,11.1,5.53,19.45c-4.6,4.51-10.18,7.91-16.31,9.93
			c4.36,12.1,7.48,24.61,9.31,37.34v0.41c0.62-2.56,1.38-5.08,2.29-7.55c2.5-6.74,6.45-12.27,13.76-10.78
			c5.45,1.03,9.04,6.28,8.01,11.74c0,0,0,0,0,0.01c-0.15,0.79-0.4,1.56-0.73,2.29c1.48-0.32,3.02-0.28,4.47,0.14
			c6.88,1.88,8.42,8.92,8.19,16.47c-0.05,1.98-0.21,3.96-0.48,5.92c5.12-10.73,9.24-21.91,12.29-33.4
			c-5.83-2.29-11.12-5.76-15.55-10.18c-8.67-8.81-5.02-19.7,3.76-19.89c7.16-0.16,10.6,6.17,12.52,13.49
			c0.63,2.42,1.12,4.87,1.47,7.34c2.32-11.07,3.63-22.32,3.9-33.62c-6.6-0.73-12.96-2.87-18.65-6.28
			c-10.5-6.45-9.61-17.89-1.15-20.18c6.88-1.88,11.79,3.42,15.44,10.05c1.66,3.17,3.13,6.43,4.4,9.77c0-4.59-0.23-9.17-0.48-13.76
			c-0.44-5.92-1.03-11.81-1.83-17.71c-6.49-0.76-12.74-2.88-18.35-6.24c-10.5-6.42-9.63-17.89-1.15-20.18
			c6.88-1.88,11.79,3.42,15.44,10.05c0.85,1.56,1.61,3.17,2.29,4.79c-1.65-10.23-3.58-20.44-5.41-30.67
			C1026.92,254.72,1025.82,248.02,1024.99,241.28z M981.23,456.74c-0.46-0.92-0.92-1.86-1.33-2.84c-0.69,2.29-1.42,4.59-2.29,6.88
			c0.76-0.94,1.51-1.9,2.29-2.78L981.23,456.74z M909.01,566.54v-2.29c-3.12-1.65-6.02-3.69-8.62-6.08l-0.46,0.32l-0.94-1.4
			c-3.62,2.39-7.28,4.73-10.96,7.04c3.68-0.46,7.36,0.94,9.79,3.74C901.51,567.57,905.27,567.13,909.01,566.54z M963.94,489.91
			c-1.67,2.82-3.44,5.6-5.28,8.33h0.71c4.72-4.59,9.31-9.29,13.76-14.11c3.12-3.35,6.17-6.88,9.17-10.32
			c-3.18,0.02-6.36-0.3-9.47-0.94c-2.63,5.88-5.6,11.6-8.9,17.13V489.91z M1002.15,413.55c-1.92-3.28-2.6-7.14-1.9-10.87
			c-4.73,2.98-10,5-15.5,5.94c0.68,8.68,0.44,17.4-0.71,26.03c2.23-0.87,4.72-0.78,6.88,0.25c6.54,2.94,6.88,10.11,5.55,17.55v0.34
			l0.39,0.23c0.39,0.28,0.76,0.55,1.1,0.85c0.23-0.3,0.46-0.6,0.67-0.92c5.75-8.07,10.99-16.5,15.69-25.23
			c-4.98-3.81-9.11-8.6-12.16-14.08L1002.15,413.55z"/>
		<path class="st2" d="M1036.48,141.41c-5.04,12.55-8.4,25.7-10,39.13c-1.7,13.38-2.15,26.9-1.35,40.37v1.58
			c1.24-4.48,2.77-8.88,4.59-13.17c2.98-6.54,7.34-11.74,14.43-9.72c8.74,2.5,10.76,13.99,0.85,20.21
			c-5.95,3.57-12.68,5.62-19.61,5.96c0.92,11.12,2.52,22.17,4.77,33.1c1.17-4.29,2.62-8.49,4.33-12.59
			c2.98-6.56,7.36-11.74,14.45-9.72c8.72,2.5,10.73,13.99,0.85,20.21c-5.73,3.45-12.2,5.48-18.88,5.92
			c2.5,12.57,5.3,25.12,7.25,37.84c1.19-4.36,2.66-8.63,4.4-12.8c2.98-6.54,7.34-11.74,14.45-9.72c8.72,2.5,10.73,13.99,0.85,20.21
			c-5.82,3.5-12.4,5.53-19.17,5.94c0.83,5.64,1.54,11.28,2.09,16.97c0.32,4.2,0.6,8.39,0.76,12.61c0.83-2.73,1.83-5.41,2.98-8.03
			c2.98-6.56,7.36-11.74,14.45-9.72c8.72,2.5,10.73,13.99,0.85,20.21c-5.51,3.32-11.71,5.33-18.12,5.85
			c-0.02,12.32-1.26,24.62-3.69,36.7c1.56-2.63,3.27-5.15,5.14-7.57c4.59-5.64,9.98-9.63,16.35-5.94
			c7.87,4.59,7.04,16.06-4.06,19.79c-6.2,1.9-12.75,2.34-19.15,1.28c-3.12,12.63-7.47,24.92-13,36.7c1.9-1.71,3.89-3.33,5.96-4.84
			c5.89-4.13,12.29-6.4,17.39-1.06c6.26,6.56,2.18,17.5-9.52,17.84c-6.14,0.09-12.23-1.19-17.82-3.74
			c-4.57,8.84-9.65,17.4-15.23,25.64c-0.89,1.31-1.81,2.57-2.71,3.85c0.02,0.44,0.02,0.87,0,1.31c1.17-0.73,2.38-1.38,3.62-1.97
			c6.45-3.19,13.12-4.45,17.32,1.63c5.18,7.45-0.53,17.61-12.13,16.06c-5.83-0.83-11.41-2.89-16.38-6.06l-0.78,0.32
			c-4.59,5.86-9.31,11.56-14.17,17.11c-3.69,4.13-7.5,8.17-11.47,12.16c5.44,5.5,3.26,15.34-7.04,18.03
			c-4.29,1.06-8.72,1.4-13.12,1.01c-7.87,6.87-15.98,13.44-24.31,19.73c3.04,0.13,5.78,1.88,7.18,4.59
			c2.48,4.38,1.24,8.69-1.65,12.66c-0.11,2.46-1.15,4.79-2.91,6.51c6.38-1.22,12.71-2.66,19.04-4.27
			c-0.79-6.33-0.26-12.76,1.56-18.88c3.65-11.79,14.98-13.76,19.29-6.1c3.53,6.22-0.41,12.25-5.94,17.41
			c-2.13,1.92-4.35,3.73-6.67,5.41l6.88-1.9c5.87-1.61,11.47-3.67,17.39-5.48c1.42-0.41,2.82-0.92,4.22-1.47
			c-1.97-6.07-2.65-12.48-2-18.83c1.35-12.27,12.11-16.33,17.8-9.61c4.59,5.46,1.9,12.13-2.57,18.23c-1.99,2.62-4.12,5.13-6.38,7.52
			l5.96-2.29c13.25-5.53,26.11-11.97,38.46-19.29c-2.77-6.17-4.17-12.87-4.08-19.63c0.14-12.32,10.44-17.43,16.77-11.33
			c5.14,4.95,3.1,11.88-0.73,18.35c-2.08,3.44-4.38,6.74-6.88,9.89c7.02-4.29,13.92-8.81,20.64-13.56
			c4.24-2.89,8.26-6.08,12.34-9.17c-3.92-5.89-6.43-12.6-7.34-19.61c-1.47-12.25,8.07-18.65,15.14-13.42
			c5.76,4.27,4.59,11.47,1.67,18.35c-1.98,4.31-4.21,8.5-6.7,12.55c4.59-3.76,9.17-7.48,13.62-11.47
			c9.24-8.05,17.93-16.72,26.01-25.94c-7.8,9.47-16.23,18.42-25.23,26.77c-4.08,3.92-8.37,7.59-12.64,11.31
			c3.81-1.61,7.73-2.96,11.72-4.04c7-1.72,13.76-1.51,16.58,5.3c3.44,8.39-4.33,17.11-15.34,13.19
			c-6.37-2.42-12.06-6.36-16.58-11.47c-3.92,3.19-7.82,6.45-11.9,9.43c-6.42,4.82-13,9.4-19.73,13.76
			c3.36-0.91,6.78-1.59,10.23-2.04c7.16-0.8,13.76,0.3,15.76,7.43c2.29,8.76-6.49,16.38-16.9,11.08
			c-5.82-3.09-10.82-7.52-14.61-12.91c-12.17,7.77-24.87,14.66-38.01,20.64l-4.04,1.72c2.37-0.32,4.75-0.5,7.13-0.55
			c7.18,0,13.76,1.67,14.93,8.97c1.42,8.95-8.12,15.67-17.94,9.34c-5.36-3.58-9.82-8.35-13.03-13.95c-1.38,0.57-2.75,1.15-4.17,1.61
			c-5.85,2.02-11.63,4.29-17.52,6.12l-5.05,1.54c1.86,0.14,3.72,0.37,5.55,0.69c7.09,1.26,13.19,4.2,12.98,11.58
			c-0.28,9.06-10.89,13.76-19.36,5.8c-4.37-4.19-7.77-9.29-9.95-14.93c-6.65,1.88-13.35,3.65-20.11,5.11
			c-2.57,0.57-5.16,1.12-7.75,1.65c2.9,0.12,5.79,0.41,8.65,0.89c7.09,1.26,13.21,4.22,12.98,11.58
			c-0.25,9.17-10.89,13.88-19.36,5.8c-4.77-4.69-8.33-10.45-10.39-16.81c-3.3,0.55-6.61,1.01-9.95,1.4
			c-0.53,6.63-7.59,11.65-16.49,8.03c-4.33-1.83-8.3-4.4-11.74-7.59c-0.7-0.03-1.39-0.13-2.06-0.3h-0.37
			c-18.76,10.76-38.12,20.44-57.85,29.27c-12.48,5.55-25.1,10.73-37.87,15.55c-12.82,4.77-25.6,9.17-38.99,13.12l-3.46-13.07
			c12.64-3.35,25.53-7.55,38.12-11.95c12.59-4.4,25.23-9.31,37.5-14.5c16.42-6.88,32.62-14.5,48.42-22.75l0,0
			c-0.84-0.46-1.65-0.98-2.43-1.54c-1.01-0.68-1.91-1.52-2.66-2.48l7.32-5.25l-0.11-0.14l0,0l0.18,0.18l0.6,0.48
			c0.45,0.35,0.93,0.68,1.42,0.96c1.12,0.64,2.3,1.19,3.51,1.65l1.44,0.53c-2.37-4.98-3.82-10.35-4.29-15.85
			c-0.89-12.29,8.92-18.35,15.73-12.73c5.55,4.59,4.11,11.58,0.85,18.35c-0.94,1.93-2.02,3.83-3.1,5.67l5.09-2.91
			c5-2.94,9.93-5.96,14.82-9.04c-2.69-5.29-4.32-11.06-4.82-16.97c-0.92-12.29,8.9-18.35,15.73-12.73
			c5.55,4.59,4.08,11.58,0.83,18.35c-0.94,1.97-2.04,3.9-3.14,5.78c3.5-2.31,6.98-4.66,10.44-7.04c2.55-1.79,5.07-3.62,7.59-5.46
			c3.23-2.96,6.4-6.03,9.5-9.17c1.67-1.72,3.35-3.49,4.98-5.25c-4.93-2.58-9.34-6.04-13.03-10.21c-8.07-9.31-3.78-19.98,5-19.61
			c7.16,0.3,10.21,6.88,11.67,14.24c0.61,3.35,1.02,6.74,1.24,10.14c6.75-7.76,12.88-16.03,18.35-24.75
			c3.21-5.19,6.15-10.55,8.78-16.06c-5.37-2.64-10.18-6.3-14.15-10.78c-8.1-9.31-3.78-19.95,5-19.59
			c7.16,0.3,10.21,6.88,11.67,14.22c0.5,2.66,0.83,5.41,1.05,8.05c2.29-5.62,4.2-11.39,5.71-17.27c3.01-11.84,4.19-24.07,3.49-36.26
			c-6.39-0.3-12.64-1.95-18.35-4.82c-10.99-5.64-10.96-17.13-2.66-20.07c6.74-2.29,12,2.55,16.06,8.88c1.54,2.43,2.94,4.94,4.2,7.52
			v-0.23c-1.48-12.69-4.26-25.2-8.3-37.32c-6.62,0.85-13.34,0.25-19.7-1.74c-11.74-3.83-13.53-15.16-5.83-19.38
			c6.28-3.44,12.27,0.6,17.34,6.19c1.96,2.2,3.79,4.5,5.5,6.88c-4.47-12.68-9.34-25.39-13.26-38.4l0,0v-0.3
			c-7.05-0.5-13.89-2.6-20-6.15c-10.53-6.45-9.63-17.91-1.15-20.21c6.88-1.88,11.79,3.42,15.41,10.05c1.01,1.86,1.93,3.78,2.75,5.73
			c-2.29-8.99-4.14-18.07-5.55-27.23h-0.92c-0.04-0.1-0.04-0.22,0-0.32c-7.14-0.53-14.06-2.72-20.21-6.4
			c-10.53-6.45-9.63-17.91-1.15-20.21c6.88-1.88,11.79,3.42,15.41,10.05c2.43,4.85,4.59,9.84,6.47,14.93
			c-0.48-3.33-0.89-6.65-1.26-10c-1.6-15.37-2.28-30.83-2.04-46.29c0.19,17.73,1.63,35.42,4.31,52.94
			c1.07-3.82,2.39-7.57,3.97-11.22c2.98-6.54,7.36-11.74,14.45-9.7c8.72,2.48,10.73,13.97,0.85,20.18
			c-5.57,3.37-11.86,5.39-18.35,5.89c1.97,11.17,4.68,22.21,8.1,33.03c0.11,0.34,0.23,0.69,0.32,1.03c1.13-4.12,2.54-8.15,4.2-12.09
			c2.98-6.54,7.34-11.74,14.45-9.72c8.72,2.5,10.73,13.99,0.83,20.21c-5.5,3.33-11.69,5.34-18.1,5.87
			c4.29,12.82,9.52,25.23,14.36,38.07c0.25,0.62,0.46,1.26,0.71,1.88c0.14-3.58,0.52-7.14,1.15-10.67
			c1.35-7.09,4.4-13.14,11.77-12.82c9.06,0.39,13.76,11.1,5.53,19.45c-4.6,4.51-10.18,7.91-16.31,9.93
			c4.36,12.1,7.48,24.61,9.31,37.34v0.41c0.62-2.56,1.38-5.08,2.29-7.55c2.5-6.74,6.45-12.27,13.76-10.78
			c5.45,1.03,9.04,6.28,8.01,11.74c0,0,0,0,0,0.01c-0.15,0.79-0.4,1.56-0.73,2.29c1.48-0.32,3.02-0.28,4.47,0.14
			c6.88,1.88,8.42,8.92,8.19,16.47c-0.05,1.98-0.21,3.96-0.48,5.92c5.12-10.73,9.24-21.91,12.29-33.4
			c-5.83-2.29-11.12-5.76-15.55-10.18c-8.67-8.81-5.02-19.7,3.76-19.89c7.16-0.16,10.6,6.17,12.52,13.49
			c0.63,2.42,1.12,4.87,1.47,7.34c2.32-11.07,3.63-22.32,3.9-33.62c-6.6-0.73-12.96-2.87-18.65-6.28
			c-10.5-6.45-9.61-17.89-1.15-20.18c6.88-1.88,11.79,3.42,15.44,10.05c1.66,3.17,3.13,6.43,4.4,9.77c0-4.59-0.23-9.17-0.48-13.76
			c-0.44-5.92-1.03-11.81-1.83-17.71c-6.49-0.76-12.74-2.88-18.35-6.24c-10.5-6.42-9.63-17.89-1.15-20.18
			c6.88-1.88,11.79,3.42,15.44,10.05c0.85,1.56,1.61,3.17,2.29,4.79c-1.58-9.93-3.46-19.82-5.25-29.82
			c-6.87-0.63-13.51-2.8-19.43-6.35c-10.53-6.45-9.63-17.89-1.17-20.21c6.88-1.86,11.79,3.44,15.44,10.07
			c1.4,2.61,2.64,5.3,3.72,8.05c-0.67-4.17-1.31-8.37-1.83-12.59c-0.46-3.35-0.64-6.74-0.96-10.14c-0.21-1.9-0.32-3.83-0.39-5.76
			c-6.92-0.62-13.62-2.79-19.59-6.35c-10.53-6.45-9.63-17.91-1.15-20.21c6.88-1.88,11.79,3.42,15.41,10.05
			c1.94,3.71,3.65,7.54,5.11,11.47c-0.45-13.36,0.31-26.73,2.29-39.95C1027.64,166.93,1031.23,153.86,1036.48,141.41z
			 M887.95,564.24c3.68-0.46,7.36,0.94,9.79,3.74c3.76-0.3,7.52-0.73,11.26-1.24v-2.29c-3.12-1.65-6.02-3.69-8.62-6.08l-0.46,0.32
			l-0.94-1.4C895.31,559.54,891.64,561.86,887.95,564.24z M963.94,490.11c-1.67,2.82-3.44,5.6-5.28,8.33h0.71
			c4.72-4.59,9.31-9.29,13.76-14.11c3.12-3.35,6.17-6.88,9.17-10.32c-3.18,0.02-6.36-0.3-9.47-0.94c-2.64,5.81-5.61,11.46-8.9,16.93
			V490.11z M977.7,460.94c0.76-0.94,1.51-1.9,2.29-2.78l1.24-1.31c-0.46-0.92-0.92-1.86-1.33-2.84c-0.69,2.29-1.42,4.59-2.29,6.88
			L977.7,460.94z M1002.17,413.76c-1.92-3.28-2.6-7.14-1.9-10.87c-4.73,2.98-10,5-15.5,5.94c0.68,8.68,0.44,17.4-0.71,26.03
			c2.23-0.87,4.72-0.78,6.88,0.25c6.54,2.94,6.88,10.11,5.55,17.55V453l0.39,0.23c0.39,0.28,0.76,0.55,1.1,0.85
			c0.23-0.3,0.46-0.6,0.67-0.92c5.75-8.07,10.99-16.5,15.69-25.23c-5-3.87-9.15-8.74-12.18-14.29L1002.17,413.76z"/>
	</g>
</g>
<g id="freepik--credit-card--inject-182">
	<path class="st5" d="M757.54,541.58l-339.96-62.2c-10.11-1.83-16.82-11.51-14.99-21.62c0-0.02,0.01-0.04,0.01-0.06l0,0
		l35.39-193.56c1.86-10.13,11.57-16.83,21.7-14.98l339.96,62.2c10.12,1.85,16.84,11.55,15,21.67L779.23,526.6
		C777.38,536.73,767.66,543.43,757.54,541.58z"/>
	<path class="st6" d="M752.15,302.77c-24.22,13.42-52.75,24.54-82.32,26.4c-81.45,5.11-116.03-31.67-206.72-19.93
		c-11.72,1.53-23.31,3.97-34.66,7.29l-15.18,82.98c24.65-18.55,53.07-31.45,83.26-37.8c80.07-16.79,113.65,12.91,185.97,2.59
		c42.91-6.12,81.29-33.62,105.51-55.05L752.15,302.77z"/>
	<path class="st6" d="M432.51,294.19c3.19-0.83,6.42-1.63,9.77-2.29c80.07-16.79,113.65,12.91,185.97,2.57
		c10.99-1.63,21.77-4.5,32.11-8.56l-198.63-36.35c-11.28-2.05-22.08,5.42-24.15,16.7L432.51,294.19z"/>
	<path class="st7" d="M457.94,338.25l4.59-24.99c0.7-3.81,4.36-6.34,8.17-5.63l26.35,4.84c3.81,0.7,6.34,4.36,5.63,8.17l-4.59,24.99
		c-0.7,3.81-4.36,6.34-8.17,5.63l-26.35-4.84C459.76,345.72,457.24,342.06,457.94,338.25z"/>
	<path class="st8" d="M474.9,332.85l0.97-5.3c0.34-1.87,2.13-3.11,4-2.76l5.73,1.05c1.87,0.34,3.11,2.13,2.76,4l-0.97,5.3
		c-0.34,1.87-2.13,3.11-4,2.76l-5.73-1.05C475.8,336.51,474.56,334.72,474.9,332.85z"/>
	<path class="st9" d="M464.23,312.52l11.81,2.18c2.28,0.41,3.8,2.58,3.39,4.86l0,0l-0.89,4.91"/>
	<path class="st9" d="M504.6,319.9l-11.65-2.13c-2.29-0.43-4.5,1.07-4.93,3.36c0,0,0,0,0,0.01l0,0l-0.89,4.91"/>
	<path class="st9" d="M458.72,343.09l11.79,2.16c2.29,0.43,4.5-1.08,4.92-3.37c0-0.01,0.01-0.03,0.01-0.04l0.89-4.91"/>
	<path class="st9" d="M499,350.45l-11.65-2.13c-2.29-0.42-3.81-2.62-3.39-4.91l0,0l0.89-4.91"/>
	<line class="st9" x1="461.43" y1="328.6" x2="475.26" y2="331.12"/>
	<line class="st9" x1="487.42" y1="333.34" x2="501.25" y2="335.87"/>
	<path class="st8" d="M723.52,496.01c-1.89,10.42-11.88,17.33-22.29,15.44c-10.42-1.89-17.33-11.87-15.44-22.29
		c1.89-10.42,11.87-17.33,22.29-15.44c0,0,0,0,0,0l0,0C718.5,475.61,725.41,485.59,723.52,496.01z"/>
	<path class="st6" d="M749.12,500.71c-1.91,10.4-11.89,17.29-22.29,15.38c-10.4-1.91-17.29-11.89-15.38-22.29
		c1.91-10.4,11.88-17.29,22.28-15.38C744.13,480.32,751.02,490.3,749.12,500.71C749.12,500.7,749.12,500.71,749.12,500.71z"/>
</g>
<g id="freepik--Character--inject-182">
	<path class="st8" d="M721.11,284.42c0,0,68.35-11.22,77.39-10.69c9.04,0.53,85.46,20.07,85.46,20.07
		c1.27,4.55,1.81,9.27,1.61,13.99c-0.41,7.25-8.35,18.88-8.35,18.88l-78.51-35.37l-72.04,3.35L721.11,284.42z"/>
	<path class="st10" d="M853.11,286.07l20.8,22.94l-13.07-5.23l9.43,9.93l-9.95-4.2l-4.7,3.67l-28.74-18.83l7.32,7.84
		c0,0-35.02-18.35-36.7-18.35S729,293.78,729,293.78l5.89,0.48l63.81-2.96l78.37,35.37c0,0,7.94-11.63,8.35-18.88
		c0.18-4.72-0.36-9.44-1.61-13.99C883.82,293.8,869.83,290.2,853.11,286.07z"/>
	<path class="st8" d="M726.66,294.65c0,0-16.88,5.85-19.52,5.6c-1.95-0.18-11.19-0.62-16.06-0.83c-1.63,0-3.21,0-3.3-1.65l0,0
		c-0.07-1.58,1.04-2.96,2.59-3.23l6.19-1.08c0,0-21.49-3.07-23.12-5.62s8.62-1.4,11.24-1.86c4.04-0.69,24.43-0.44,24.43-0.44
		l12-1.12L726.66,294.65z"/>
	<path class="st8" d="M824.94,235.7l-1.42,24.4l7.84,1.24c0,0,7.11,27.27,9.38,28.97c2.27,1.7,20.28-8.19,20.28-8.19l11.08,13.28
		l14.82-10.21l-7.98-12.25c0,0,5.05-46.33,3.28-56.7c-1.77-10.37-7.94-13.1-22.11-13.92c-8.69-0.43-17.38,0.97-25.5,4.11
		c0,0,4.43-8.44-10.62-7.73c-15.05,0.71-20.64,16.97-18.03,25.02S824.94,235.7,824.94,235.7z"/>
	<path class="st10" d="M878.89,272.79c0,0,5.05-46.33,3.28-56.7c-1.77-10.37-7.94-13.1-22.11-13.92
		c-8.69-0.44-17.38,0.94-25.51,4.06c0.92-1.77,0.7-3.91-0.55-5.46c-3.49,0.59-6.92,1.45-10.28,2.57c-4.86,1.7-10.71,3.62-15.6,5.18
		c-2.41,4.16-3.33,9.01-2.59,13.76l5.02,7.09c4.4,2.92,9.25,5.09,14.36,6.45l-0.28,4.7c2.96,0.6,5.97,0.96,8.99,1.1
		c5.23,0,13.07-4.17,13.07-4.17s-4.59,7.32,1.03,11.47c3.17,2.45,6.99,3.91,10.99,4.2c0,0,3.67,12.55,3.67,16.72
		c0,3.26-14.98,15.46-21.54,20.64c2.68,1.35,20.09-8.35,20.09-8.35l11.08,13.28l14.82-10.21L878.89,272.79z"/>
	<path class="st5" d="M882.17,216.09c-1.79-10.37-7.94-13.1-22.11-13.92c-8.69-0.44-17.38,0.94-25.51,4.06c0,0,4.43-8.44-10.62-7.73
		s-20.64,16.97-18.03,25.02s19.04,12.18,19.04,12.18s19.77-0.44,29.63-6.88c0,0-6.88,9.17-5.6,14.7c0.62,3.04,3.58,5.01,6.63,4.4
		h0.25l1.9,8c0,0,4.59,2.64,5.53,0.32c0.94-2.32,0.76-13.37,6.88-9.17c6.12,4.2,6.4,12.22,3.12,14.4c-3.28,2.18-5.55,0.46-3.46,5.32
		c2.09,4.86,9.17,6.08,9.17,6.08S883.96,226.46,882.17,216.09z"/>
	<path class="st11" d="M838.09,213.73c0,0-6.88-6.88-10.73,1.88s3.78,13.88,20.83,11.35s28.4-7.57,30.3-7.57"/>
	<path class="st11" d="M850.06,233.96c10.6,1.38,21.36,0.52,31.61-2.52"/>
	<path class="st12" d="M837.17,248.09c0.23,1.54-0.16,2.89-0.87,2.98c-0.71,0.09-1.51-1.06-1.74-2.59c-0.23-1.54,0.16-2.89,0.89-3
		C836.18,245.36,836.94,246.53,837.17,248.09z"/>
	<path class="st9" d="M840.38,273.92c0,0,6.42,0,8.99-4.79"/>
	<path class="st9" d="M832.1,238.2c2.09-1.03,4.59-0.73,6.38,0.76"/>
	<path class="st5" d="M915.11,433.51l3.14,9.17c0,0-54.27,36.31-68.58,50.76s-27.64,28.03-26.31,35.3
		c1.33,7.27,17.87,110.62,17.87,110.62l20.64-1.49c0,0,1.33-100.53,4.17-103.05c2.84-2.52,85.05-57.09,85.05-57.09
		s7.27-1.38,10.73,0.64c3.46,2.02,22.68,74.06,27.84,77.98s70.9,83.4,70.9,83.4l17.2-4.4c0,0-57.8-104.24-57.66-106.93
		c0-1.54-12.36-57.75-25.09-94.04c-9.56-27.18-20.32-37.11-20.32-37.11L915.11,433.51z"/>
	<path class="st11" d="M972.08,407.54c0,0,10.8,19.38,15.53,26.47c4.72,7.09,5.41,24.2,5.41,24.2s23.46,66.19,25.39,77.39
		c1.93,11.19,55.64,99.61,55.64,99.61"/>
	<polyline class="st11" points="921.02,464.29 951.19,477.75 929.79,475.04 	"/>
	<path class="st11" d="M879.92,511.49l-21.79,22.62c0,0-18.76-0.23-12.96,2.66c4.37,2.38,8.5,5.2,12.32,8.39v89.57"/>
	<path class="st11" d="M921.74,437.04c21.7-3.69,40.92-16.13,53.19-34.4"/>
	<line class="st11" x1="938.59" y1="426.07" x2="941.6" y2="433.07"/>
	<line class="st11" x1="957.22" y1="413.51" x2="961.14" y2="419.7"/>
	<path class="st8" d="M869.01,298.71c0,0-2.73,16.06,2.94,42.39c5.67,26.33,43.17,92.41,43.17,92.41l6.01-1.28
		c16.9-3.58,32.3-12.23,44.15-24.79l9.43-10c0,0-34.04-63.97-47.02-88.07c-7.76-15.46-23.44-25.36-40.73-25.71
		C880.68,283.23,868.32,295.09,869.01,298.71z"/>
	<g class="st13">
		<path class="st0" d="M927.68,309.28c-6.35-12.77-18.26-21.88-32.25-24.66c4.11,2.02,16.74,9.01,22.39,21.19
			c6.88,14.63-2.09,36.58-2.09,36.58l-0.11-3.12c-4.59,16.77-12.29,42.09-17.78,58.37l6.88-17.59l3.14-11.47l22.94,8.9l-12.04-12.04
			c0,0,25.12,15.16,31.9,21.45c6.74,5.57,8.89,14.99,5.23,22.94c-1.98,4.07-4.52,7.85-7.55,11.22c6.16-3.86,11.81-8.48,16.81-13.76
			l9.43-10C974.58,397.29,940.66,333.39,927.68,309.28z"/>
	</g>
	<path class="st14" d="M909.72,352.06c0,0,14.08-13.33,21.1-19.56"/>
	<path class="st14" d="M931.48,350.66c1.44-0.37,2.84-0.78,4.17-1.26"/>
	<path class="st14" d="M905.52,352.66c6.9,0.32,13.8,0,20.64-0.94"/>
	<polygon class="st8" points="888.27,276.46 861.12,295.57 868.64,304.97 894.12,283.98 	"/>
	<path class="st8" d="M919.58,323.05c-0.96,9.17-24.79,87.94-27.87,90.28c-3.07,2.34-101.22,28.35-101.22,28.35l-5.32-7.89
		l84.29-41.88l18.17-82.02"/>
	<path class="st10" d="M915.63,339.28c-0.23-6.19-0.89-19.15-2.5-16.74c-2.09,3.14-6.28,28.23-13.07,46.54
		c-6.79,18.3-19.86,26.15-17.25,26.65c2.61,0.5,4.7,8.9,4.7,8.9l-94.84,36.47c5.3-1.4,19.77-5.25,36.1-9.68l62.94-18.1l6.15-15.67
		C903.34,381.37,911.02,356.05,915.63,339.28z"/>
	<path class="st15" d="M790.95,442.22l-5.78-8.44l-28.17-5.55c-0.97-0.13-1.86,0.54-1.99,1.51c0,0.01,0,0.02,0,0.03
		c-0.01,0.05-0.01,0.09,0,0.14c-0.05,0.76,0.39,1.46,1.1,1.74l10.32,4.29l-7.43,6.08c-2.13,1.65-11.33,7.18-12.02,9.29
		c-1.35,4.13,4.2,0.73,5.55,0.25c3-1.1,4.91-2.45,9.95-4.43c0.99,1.35-10.44,7.73-11.74,8.76c-0.55,0.44-1.45,0.96-1.47,1.79
		c-0.18,3.17,5.11,0,6.35-0.62c3.56-1.49,7.06-3.12,10.62-4.59c-2.48,1.86-6.65,3.95-9.17,5.8c-1.16,0.68-2.26,1.45-3.3,2.29
		c-1.28,1.31-0.21,2.75,1.67,2.18c2.04-0.83,3.99-1.85,5.85-3.03c2.87-1.54,4.45-2.94,7.29-4.59c-2.06,1.61-3.07,2.8-5.16,4.4
		c-0.8,0.62-2.64,1.7-3,2.68c-1.33,3.44,6.19-1.31,7.04-1.93c2.96-2.11,6.42-3.85,9.17-6.1c0.39-0.32,4.59-4.47,4.59-4.43
		L790.95,442.22z"/>
	<line class="st14" x1="868.16" y1="322.2" x2="852.86" y2="299.72"/>
	<line class="st14" x1="866.57" y1="321.46" x2="849.53" y2="307.15"/>
	<path class="st8" d="M841.23,639.36l-1.54,1.65l-10.8,11.47c0,0-24.31,8.78-24.5,12.18s25.96,1.51,33.95,0.83
		c7.98-0.69,17.45-8.05,17.45-8.05s10.09,1.72,11.7-6.12c1.61-7.84-5.53-13.49-5.53-13.49L841.23,639.36z"/>
	<path class="st8" d="M1060.57,639.75c-3.08,6.55-5.79,13.28-8.1,20.14c-2.78,8.9-12.02,11.77-7.75,16.54
		c4.27,4.77,14.61,1.97,23.17-8.85c8.56-10.83,16.74-14.91,17-19.43c0.25-4.52-7.11-12.8-7.11-12.8L1060.57,639.75z"/>
	<path class="st14" d="M1044.51,676.42c6.01-0.18,11.81-2.26,16.56-5.94c7.22-6.03,13.26-18.07,17.48-21.1l4.22-3"/>
	<path class="st14" d="M806.94,663.85c0,0,23.51-2.41,33.14-3.62c9.63-1.22,12.64-7.82,15.67-8.44c3.03-0.62,6.47-1.83,9.63-3"/>
</g>
<g id="freepik--Device--inject-182">
	<path class="st8" d="M275.23,543.44c0,0-23.1,26.49-18.67,63.24c4.43,36.74,43.37,55.92,43.37,55.92l47.66-93.33
		c0,0-24.01-23.69-7.11-53.92C340.49,515.34,300.46,520.32,275.23,543.44z"/>
	<path class="st10" d="M275.23,543.44c0,0-23.1,26.49-18.67,63.24c4.43,36.74,43.37,55.92,43.37,55.92l47.66-93.33
		c0,0-24.01-23.69-7.11-53.92C340.49,515.34,300.46,520.32,275.23,543.44z"/>
	<path class="st8" d="M481.11,474.52c0,0-30,0.92-40.07,5.78c-10.07,4.86-75.21,51.24-112.39,105.28
		c-12.66,18.35-17.25,28.49-18.92,33.42c-1.05,3.23-2.31,6.4-3.76,9.47c-4.15,9.01-11.03,27.52-8.49,46.79
		c3.56,26.97,19.31,53.26,79.89,64.43c60.57,11.17,83.51-33.95,85-53.23c0,0,147.16,10.62,238.54,20.96
		c91.38,10.34,121.72,4.59,152.32,16.67c30.6,12.09,38.07,19.95,51.01,20.14c12.94,0.18,50.12-41.29,51.03-53.44
		c0.92-12.16-11.47-29.2-15.41-30.3s-51.84-71.95-51.84-71.95s-2.16-13.92-23.1-25.23c-20.94-11.31-125.23-42.89-182.23-58.62
		C625.7,488.94,510.24,474.36,481.11,474.52z"/>
	<path class="st10" d="M949.26,671.65c-12.77-6.47-26.21-11.53-40.07-15.11l-172.43-47.25l-227.37-39.61c0,0-94.54-15.32-136.7,5.11
		c-29.98,14.54-60.6,61.93-75.69,88.24c-0.23,4.1-0.09,8.22,0.44,12.29c3.56,26.97,19.31,53.26,79.89,64.43s83.51-33.95,85-53.23
		c0,0,147.16,10.62,238.54,20.96s121.72,4.59,152.32,16.67c30.6,12.09,38.07,19.95,51.01,20.14c12.94,0.18,50.12-41.29,51.03-53.44
		C955.59,684.84,952.77,677.57,949.26,671.65z"/>
	<path class="st9" d="M310.72,638.37c0,0,43.42-69.4,86.61-74.13c43.19-4.72,180.71,15.64,180.71,15.64"/>
	<path class="st9" d="M592.37,582.59c0,0,84.86,12.25,195.81,40.28c110.94,28.03,155.97,43.58,161.95,48.97"/>
	<path class="st8" d="M675.1,522.38c0,0,181.33,47.04,192.8,51.74c6.74,2.68,12.66,7.06,17.18,12.73"/>
	<path class="st5" d="M448.01,484.08l-46.47,67.55c0,0,65.6-1.38,238.88,26.63l4.01-61.93c0,0-83.69-25.92-118.28-28.6
		S448.01,484.08,448.01,484.08z"/>
	<path class="st8" d="M402.3,551.6c3.53,0,19.06,0,49.66,2.5l-32.27-28.85l-2.11,3.07L402.3,551.6z"/>
	<path class="st8" d="M448.01,484.08l-8.83,12.87l76.86,63.65c19.59,2.29,41.97,5.23,67.36,8.92c8.99,1.01,18.35,2.11,28.07,3.3
		l-106.13-86.56C476.29,484.7,448.01,484.08,448.01,484.08z"/>
	<path class="st16" d="M647.53,529.33l-0.62,36.7c9.04-0.48,23.14-0.16,33.33,5.05c0.94-12.5-0.96-25.04-5.57-36.7L647.53,529.33z"
		/>
	<path class="st16" d="M672.95,530.34c-1.93-4.03-4.23-7.87-6.88-11.47l-18.35-3.85l-0.18,11.47L672.95,530.34z"/>
	<path class="st16" d="M646.85,570.99l-0.18,10.18l31.17,4.86c0.98-3.66,1.67-7.4,2.06-11.17
		C674.25,572.38,663.61,569.45,646.85,570.99z"/>
	<path class="st8" d="M717.83,532.48c0,0-17.41-4.31-20.39-4.13c-2.98,0.18-3.78,5.21-3.78,5.21l6.24,12.32c0,0-1.01,2.02,8.07,4.84
		s17.04,3.44,17.98,2.29c0.94-1.15,0.78-4.59,1.42-7.5C728.02,542.59,722.03,532.8,717.83,532.48z"/>
	<path class="st8" d="M729.26,554.06c0,0-17.32-5.57-20.3-5.39c-2.98,0.18-5.96,6.31-5.96,6.31s2.18,15.37,4.15,17.23
		c1.97,1.86,21.06,6.28,23.99,6.51c2.94,0.23,4.08-3.49,4.36-7.27C735.77,567.66,732.58,555.07,729.26,554.06z"/>
	<path class="st8" d="M735.81,578.23c0,0-21.93-5.94-24.01-6.1c-2.09-0.16-5.09,5.53-4.77,6.88c0.32,1.35-0.14,12.66-0.14,12.66
		l34.11,6.88l-2.57-15.83C738.43,582.73,738.5,581.81,735.81,578.23z"/>
	<path class="st8" d="M734.37,537.13l-2.45,4.45l7.39,13.76c0,0,0.21,2.57,7.25,4.38c7.04,1.81,19.93,4.59,19.93,4.59
		s3.69-3.95,2.98-5.69s-8.58-14.61-11.81-16.54S735.36,535.09,734.37,537.13z"/>
	<path class="st8" d="M746.55,559.65c-1.11,1.78-1.97,3.7-2.55,5.71c-0.14,1.67,2.18,15.37,5.73,18.6c3.56,3.23,24.06,5.69,27,5.92
		c2.94,0.23,3.72-4.36,3.99-7.73s-4.31-15.11-7.55-17.06s-21.9-6.35-21.9-6.35S748.02,557.2,746.55,559.65z"/>
	<path class="st8" d="M782.35,590.16c-0.62-0.52-1.33-0.92-2.09-1.19c-4.72-1.61-22.34-7.48-25.39-5.87
		c-3.53,1.83-4.72,6.38-4.59,10.18c0.13,2.73,0.49,5.45,1.05,8.12l36.4,10l-3.12-17.34c-0.28-1.53-1.09-2.91-2.29-3.9H782.35z"/>
	<path class="st8" d="M772.05,546.81l-0.96,7.11c0,0,3.83,10.44,7.94,12.02s23.19,6.03,24.45,6.12c1.26,0.09,4.13-4.31,3.9-6.88
		c-0.23-2.57-7.39-13.76-11.47-15.28c-4.08-1.51-20.76-4.59-20.76-4.59S771.39,544.65,772.05,546.81z"/>
	<path class="st8" d="M787.81,567.06l-3.67,8.99c0,0,4.77,14.75,5.46,16.9c0.69,2.16,27.29,7.61,28.6,6.88
		c1.31-0.73,4.38-1.79,3.99-7.73c-0.39-5.94-8.58-20.09-11.9-20.78c-3.33-0.69-17.41-4.31-18.67-4.4
		C790.36,566.83,788.36,565.41,787.81,567.06z"/>
	<path class="st8" d="M797.9,594.88c0,0-4.59,8.95-3.58,13.23c0.66,2.82,1.59,5.58,2.75,8.23l36.03,9.17c0,0-4.29-15.55-5.14-20.64
		c-0.85-5.09-9.98-7.52-17.41-9.79C803.13,592.82,797.26,592.29,797.9,594.88z"/>
	<path class="st8" d="M809.88,554.84l-0.55,7.13c0,0,8.78,12.09,11.12,14.38c2.34,2.29,21.51,5.89,23.23,5.6
		c1.72-0.3,2.45-4.45,1.81-7.04c-0.64-2.59-9.93-13.44-13.62-15s-18.95-6.1-18.95-6.1S808.82,552.2,809.88,554.84z"/>
	<path class="st8" d="M826.3,577.22c0,0-2.43,9.54-1.24,10.46c1.19,0.92,6.47,14.89,9.29,16.35c2.82,1.47,23.62,6.08,26.22,5.41
		c2.59-0.67,2.96-5.67,1.61-10s-9.77-15.55-14.68-17.61c-3.51-1.49-17.39-4.72-17.39-4.72S827.31,575.18,826.3,577.22z"/>
	<path class="st8" d="M857.72,607.98c0,0-12.73-4.79-14.91-4.13c-2.18,0.67-4.82,7.66-4.91,8.92c-0.09,1.26,4.59,16.4,4.59,16.4
		l33.9,9.82v-6.33c0-5.5-8.17-20.07-9.75-21.45C865.06,609.84,857.72,607.98,857.72,607.98z"/>
	<path class="st6" d="M849.12,566.33c-0.62,2.18-1.07,4.4-1.35,6.65c-0.21,2.52,7.18,10.69,10.8,13.1
		c3.62,2.41,21.42,7.16,22.66,7.25c1.24,0.09,4.59-3.88,2.29-7.84c-3.57-5.23-8.1-9.75-13.35-13.3
		C863.53,569.06,856.42,567.09,849.12,566.33z"/>
	<path class="st6" d="M867.22,588.85c-0.74,1.73-1.3,3.53-1.67,5.37c-0.14,1.67,8.12,15,10.07,17.25
		c1.95,2.25,20.21,6.22,22.32,6.38c2.11,0.16,6.88-0.3,5.14-6.35s-6.88-15.73-11.74-17.39c-4.86-1.65-14.01-4.47-18.14-5.64
		C871.24,587.65,869.03,587.79,867.22,588.85z"/>
	<path class="st6" d="M885.11,614.33c-1.91,2.99-3.18,6.34-3.74,9.84c-0.34,4.59,3.42,15.89,7,18.72s28.01,9.36,28.01,9.36
		c1.22-3.95,2.24-7.96,3.05-12.02c0.76-4.59-11.61-19.08-12.75-20.85C905.52,617.61,888.07,614.13,885.11,614.33z"/>
	<path class="st5" d="M931.67,711.68c-8.72-2.29-22.32-4.17-27.39-11.84c-5.07-7.66-10.73-17.82-62.18-21.81
		c-51.45-3.99-398.58-52.75-434-54.75c-35.41-2-62.98,40.39-62.98,40.39s-21.63-2.48-35.05-6.88c-4.24-1.38-8.15-3.63-11.47-6.61
		c-1.82,8.21-2.24,16.67-1.24,25.02c3.56,26.97,19.31,53.26,79.89,64.43c60.57,11.17,83.51-33.95,85-53.23
		c0,0,147.16,10.62,238.54,20.96s121.72,4.59,152.32,16.67c30.6,12.09,38.07,19.95,51.01,20.14c7.82,0.11,24.52-15.07,36.7-29.82
		C937.31,713.33,934.05,712.29,931.67,711.68z"/>
	<path class="st17" d="M339.5,673.76c0,0-10.73,23.51-14.93,36.03"/>
	<path class="st17" d="M353.84,665.96c0,0,61.93,14.52,100.39,19.13"/>
	<path class="st8" d="M401.54,551.63c0,0-38.44-25.62-69.79-28.07s-56.51,19.89-56.51,19.89s77.2-67.59,98.42-69.98
		s48.9-5.11,74.36,10.62L401.54,551.63z"/>
</g>
</svg>
