<?xml version="1.0" encoding="utf-8"?>
<!-- Generator: Adobe Illustrator 23.1.0, SVG Export Plug-In . SVG Version: 6.00 Build 0)  -->
<svg version="1.1" id="Layer_1" xmlns="http://www.w3.org/2000/svg" xmlns:xlink="http://www.w3.org/1999/xlink" x="0px" y="0px"
	 viewBox="0 0 1366 768" style="enable-background:new 0 0 1366 768;" xml:space="preserve">
<style type="text/css">
	.st0{fill:#EBEBEB;}
	.st1{fill:#DBDBDB;}
	.st2{fill:#A6A6A6;}
	.st3{fill:#FFFFFF;}
	.st4{fill:#C7C7C7;}
	.st5{fill:#263238;}
	.st6{fill:#455A64;}
	.st7{fill:#37474F;}
	.st8{fill:#FFC727;}
	.st9{opacity:0.4;}
	.st10{opacity:0.1;enable-background:new    ;}
	.st11{fill:#F8F8F8;}
	.st12{opacity:0.2;enable-background:new    ;}
	.st13{opacity:0.3;enable-background:new    ;}
	.st14{fill:#C95F50;}
	.st15{fill:#FF9ABB;}
</style>
<g id="freepik--background-complete--inject-202">
	<path class="st0" d="M891.13,21.17c-100.89,0-101.07,143.48,0,143.48S992.19,21.17,891.13,21.17z"/>
	<path class="st1" d="M952.49,106.39c-5.39,24.68-25.85,46.1-61.36,46.1c-83.87,0-83.75-119.08,0-119.08c0.54,0,1.1,0,1.63,0
		c-78.81,1.44-78.41,114.21,1.54,114.21C926.93,147.71,946.37,128.74,952.49,106.39z"/>
	<path class="st1" d="M891.74,49.07c1.38-0.05,2.55,1.01,2.64,2.39v4.01c7,0.47,13.73,2.89,19.42,6.99c0.99,0.7,1.53,1.29,1.53,2.3
		c-0.11,1.47-1.37,2.58-2.84,2.5c-0.72,0.02-1.42-0.23-1.96-0.7c-4.76-3.63-10.43-5.87-16.38-6.48v27.95
		c16.6,3.2,23.59,8.98,23.59,18.68c0,10.58-9.72,18.07-23.35,18.48v7.78c-0.17,1.45-1.48,2.49-2.93,2.32
		c-1.21-0.14-2.17-1.1-2.32-2.32v-7.89c-9.01-0.57-17.6-3.97-24.57-9.7c-0.73-0.45-1.18-1.24-1.2-2.1c0.13-1.41,1.31-2.49,2.73-2.5
		c0.72-0.02,1.42,0.23,1.96,0.7c5.93,5.24,13.4,8.43,21.29,9.09V92.11c-16.38-3.29-23.14-8.78-23.14-18.77
		c0-9.99,9.59-17.78,22.92-18.07v-3.81C889.2,50.08,890.36,49.02,891.74,49.07z M889.33,87.02V59.68
		c-10.58,0.2-17.57,5.98-17.57,13.19C871.76,79.73,875.25,83.92,889.33,87.02z M894.13,93.11v27.65
		c10.92-0.2,17.96-5.98,17.96-13.58C912.14,100.21,908.32,96.01,894.13,93.11L894.13,93.11z"/>
	<path class="st0" d="M437.09,15.83c-75.45,0-75.57,107.28,0,107.28S512.64,15.83,437.09,15.83z"/>
	<path class="st1" d="M483,79.53c-4.02,18.45-19.33,34.45-45.88,34.45c-62.69,0-62.6-89.03,0-89.03h1.22
		c-58.9,1.08-58.62,85.4,1.17,85.4C463.84,110.38,478.37,96.27,483,79.53z"/>
	<path class="st1" d="M437.54,36.69c1.03-0.03,1.9,0.77,1.96,1.8v2.98c5.23,0.35,10.26,2.16,14.51,5.23
		c0.74,0.54,1.15,0.97,1.15,1.8c-0.12,1.06-1.05,1.85-2.12,1.8c-0.54,0.02-1.07-0.17-1.47-0.52c-3.56-2.71-7.8-4.38-12.25-4.85
		v20.91c12.41,2.39,17.64,6.65,17.64,13.96c0,7.92-7.19,13.51-17.46,13.81v5.82c-0.1,1.09-1.07,1.88-2.16,1.78
		c-0.94-0.09-1.69-0.84-1.78-1.78v-5.89c-6.72-0.41-13.14-2.93-18.36-7.19c-0.55-0.34-0.89-0.94-0.9-1.58
		c0.13-1.03,1.01-1.8,2.05-1.8c0.54-0.01,1.07,0.18,1.47,0.54c4.44,3.9,10.03,6.25,15.92,6.72V68.88
		c-12.25-2.46-17.32-6.57-17.32-14.03s7.19-13.29,17.14-13.53v-2.84C435.63,37.45,436.5,36.66,437.54,36.69z M435.74,65.07V44.68
		c-7.92,0.16-13.15,4.49-13.15,9.86C422.59,59.68,425.21,62.75,435.74,65.07z M439.33,69.63v20.59c8.17-0.14,13.47-4.47,13.47-10.15
		c-0.02-5.14-2.87-8.28-13.49-10.44H439.33z"/>
	<path class="st1" d="M348.99,371.66c-55.78,10.02-41.05,92.66,14.84,82.63S404.88,361.64,348.99,371.66z"/>
	<path class="st0" d="M354.24,370.73c-53.17,9.54-38.42,92.19,14.82,82.63C422.3,443.8,407.56,361.17,354.24,370.73z"/>
	<path class="st1" d="M395.38,413.98c-0.29,14.73-8.86,28.99-27.57,32.34c-44.19,7.92-56.44-60.66-12.31-68.59l0.86-0.14
		c-41.32,8.3-29.51,73.2,12.57,65.64C386.16,440.16,394.46,427.46,395.38,413.98z"/>
	<path class="st1" d="M357.44,386.73c0.76-0.12,1.48,0.38,1.63,1.13l0.41,2.3c3.79-0.38,7.61,0.38,10.96,2.19
		c0.59,0.32,0.93,0.61,1.04,1.19c0.1,0.85-0.51,1.62-1.35,1.72c-0.35,0.04-0.7-0.04-1-0.22c-2.81-1.62-6.04-2.38-9.29-2.19
		l2.87,16.17c9.09,0.27,13.35,2.89,14.37,8.53c1.08,6.09-3.25,11.34-10.4,12.84l0.79,4.49c0.2,0.75-0.25,1.51-1,1.71
		c-0.75,0.2-1.51-0.25-1.71-1c-0.02-0.07-0.03-0.14-0.04-0.21l-0.83-4.54c-4.88,0.5-9.79-0.65-13.94-3.27
		c-0.44-0.2-0.75-0.6-0.84-1.08c-0.11-0.79,0.4-1.54,1.19-1.71c0.38-0.08,0.77,0,1.1,0.22c3.56,2.44,7.86,3.58,12.16,3.23
		l-2.95-16.45c-8.98-0.34-13.1-2.87-14.14-8.62c-1.04-5.75,3.23-11.16,10.22-12.57l-0.4-2.16c-0.16-0.77,0.33-1.52,1.1-1.68
		C357.41,386.74,357.42,386.74,357.44,386.73z M360.1,408.83l-2.84-15.72c-5.55,1.13-8.64,5.12-7.9,9.27S352.35,408.38,360.1,408.83
		z M363.26,411.88l2.84,15.86c5.73-1.13,8.87-5.14,8.1-9.52C373.42,414.25,371.04,412.21,363.26,411.88z"/>
	<path class="st1" d="M978.68,209.21c-67.92,12.14-49.99,112.74,18.09,100.62S1046.71,197.02,978.68,209.21z"/>
	<path class="st0" d="M985.06,208.08c-64.67,11.6-46.8,112.24,17.96,100.6C1067.78,297.04,1049.89,196.44,985.06,208.08z"/>
	<path class="st1" d="M1035.14,260.75c-0.34,17.96-10.78,35.3-33.57,39.38c-53.8,9.66-68.71-73.87-14.98-83.5l1.06-0.18
		c-50.39,10.1-35.93,89.12,15.36,79.92C1023.93,292.62,1034.03,277.15,1035.14,260.75z"/>
	<path class="st1" d="M997.98,227.52c0.91,0.16,1.56,0.98,1.49,1.9l-0.32,2.82c4.55,0.9,8.73,3.14,12,6.43
		c0.56,0.42,0.86,1.1,0.79,1.8c-0.13,0.98-1.03,1.68-2.01,1.55c-0.01,0-0.02,0-0.03,0c-0.47-0.05-0.9-0.28-1.2-0.65
		c-2.71-2.89-6.21-4.92-10.06-5.84l-2.34,19.76c10.47,3.59,14.53,8.08,13.71,15c-0.88,7.49-7.78,12.05-16.65,11.3l-0.65,5.51
		c-0.41,0.9-1.48,1.3-2.38,0.89c-0.52-0.24-0.9-0.72-1.01-1.28l0.66-5.59c-5.87-1.15-11.18-4.22-15.11-8.73
		c-0.43-0.41-0.65-0.99-0.59-1.58c0.13-0.97,1.01-1.65,1.98-1.54c0.47,0.05,0.9,0.28,1.2,0.65c3.3,4.08,7.89,6.92,13.02,8.05
		l2.37-20.14c-10.33-3.59-14.25-7.99-13.42-15.05c0.83-7.06,7.71-11.86,16.35-11.05l0.32-2.68
		C996.23,228.12,997.05,227.46,997.98,227.52z M993.27,254.2l2.26-19.29c-6.86-0.66-11.87,2.91-12.47,7.99
		C982.49,247.69,984.41,250.93,993.27,254.2L993.27,254.2z M995.87,258.87l-2.3,19.51c7.08,0.68,12.16-2.87,12.79-8.25
		C1006.94,265.26,1004.82,261.99,995.87,258.87L995.87,258.87z"/>
	<path class="st0" d="M1049.71,458.48l-29.25,140.53c-1.64,7.85-9.32,12.89-17.17,11.26l-222.88-46.38
		c-7.85-1.63-12.88-9.32-11.25-17.17c0-0.01,0-0.01,0-0.02l29.25-140.51c1.52-7.31,8.68-12.01,15.99-10.49l224.84,46.8
		c7.3,1.52,11.99,8.67,10.48,15.98C1049.71,458.47,1049.71,458.48,1049.71,458.48z"/>
	<path class="st2" d="M988.37,571.65c-1.5,7.23-8.58,11.87-15.81,10.36c-7.23-1.5-11.87-8.58-10.36-15.81
		c1.5-7.23,8.58-11.86,15.8-10.36C985.23,557.35,989.87,564.42,988.37,571.65C988.37,571.65,988.37,571.65,988.37,571.65z"/>
	<path class="st1" d="M1004.48,575.01c-1.49,7.23-8.57,11.88-15.79,10.38c-7.23-1.49-11.88-8.57-10.38-15.79
		c1.49-7.23,8.57-11.88,15.79-10.38c0.01,0,0.01,0,0.02,0C1001.33,560.73,1005.97,567.79,1004.48,575.01z"/>
	<path class="st1" d="M824.62,423.03l32.39,6.74c4.08,0.85,6.7,4.84,5.85,8.92l-3.71,17.83c-0.85,4.08-4.84,6.7-8.92,5.85
		l-32.39-6.74c-4.08-0.85-6.7-4.84-5.85-8.92l3.71-17.83C816.55,424.8,820.54,422.18,824.62,423.03z"/>
	<path class="st3" d="M1014.74,481.22l-21.34-4.46c-4.93-1.03-8.1-5.85-7.08-10.78l0,0c1.03-4.93,5.85-8.1,10.78-7.08l21.23,4.42
		c4.92,1.04,8.07,5.85,7.08,10.78l0,0C1024.38,478.99,1019.64,482.15,1014.74,481.22z"/>
	<path class="st2" d="M802.56,483.43l-2.17,0.74c-0.08,0.02-0.17,0.02-0.25,0c-0.16-0.03-0.3-0.15-0.36-0.31
		c-0.09-0.24,0.03-0.51,0.27-0.6c0.01,0,0.02-0.01,0.03-0.01l2.98-1.06c0.25-0.07,0.51,0.06,0.59,0.31c0.04,0.12,0.04,0.25,0,0.38
		l-2.62,12.57c-0.05,0.26-0.3,0.43-0.56,0.38c-0.26-0.05-0.43-0.3-0.38-0.56l0,0L802.56,483.43z"/>
	<path class="st2" d="M804.56,495.79l7.6-4.44c0.91-0.51,1.56-1.38,1.8-2.39c0.17-0.87,0.02-1.77-0.43-2.53
		c-0.52-0.87-1.38-1.49-2.37-1.69c-0.88-0.18-1.79-0.04-2.57,0.4l-0.79,0.47c-0.2,0.18-0.5,0.17-0.69-0.02
		c-0.18-0.2-0.17-0.5,0.02-0.69c0.05-0.04,0.1-0.08,0.16-0.1l0.79-0.49c0.99-0.58,2.15-0.76,3.27-0.52
		c1.26,0.24,2.35,1.02,2.98,2.14c0.59,0.97,0.79,2.12,0.56,3.23c-0.26,1.26-1.04,2.36-2.16,3.02l-6.5,3.81l6.47,1.35
		c0.26,0.1,0.38,0.4,0.28,0.65c-0.08,0.2-0.27,0.32-0.48,0.32l-7.63-1.6l0,0c-0.13-0.01-0.25-0.08-0.32-0.2
		C804.36,496.3,804.37,495.99,804.56,495.79z"/>
	<path class="st2" d="M826.78,487.92l-4.26,2.89c0.86,0.37,1.59,1,2.08,1.8c1.43,2.2,0.81,5.14-1.38,6.57
		c-1.06,0.69-2.35,0.94-3.59,0.68c-1.23-0.26-2.3-1-2.98-2.05c-0.14-0.23-0.08-0.53,0.14-0.68c0.22-0.15,0.52-0.09,0.67,0.13
		c0,0,0.01,0.01,0.01,0.01c0.55,0.82,1.4,1.39,2.37,1.58c1.99,0.45,3.97-0.81,4.42-2.8c0.01-0.02,0.01-0.05,0.02-0.07
		c0.42-2.02-0.87-4-2.89-4.42c-0.16-0.03-0.29-0.14-0.36-0.29l0,0c-0.15-0.23-0.09-0.54,0.14-0.7c0,0,0,0,0,0l4.13-2.78l-5.25-1.1
		c-0.27-0.06-0.45-0.33-0.39-0.6c0.06-0.27,0.33-0.45,0.6-0.39l6.4,1.33c0.27,0.06,0.43,0.33,0.38,0.59
		c-0.01,0.08-0.05,0.16-0.11,0.22C826.9,487.89,826.84,487.92,826.78,487.92z"/>
	<path class="st2" d="M836.19,500.32l-7.42-1.53l0,0c-0.11-0.01-0.21-0.07-0.27-0.16c-0.19-0.16-0.21-0.44-0.05-0.63
		c0.02-0.02,0.03-0.03,0.05-0.05l9.97-8.19l0,0c0.18-0.19,0.47-0.2,0.66-0.02c0.01,0.01,0.02,0.01,0.02,0.02
		c0.06,0.08,0.1,0.17,0.11,0.27c0,0,0,0,0,0.09l0,0l-1.94,9.38l0.92,0.2c0.27,0.01,0.48,0.23,0.47,0.5
		c-0.01,0.27-0.23,0.48-0.5,0.47c-0.06,0-0.11-0.01-0.17-0.04l-0.92-0.18l-0.48,2.34c-0.06,0.27-0.33,0.43-0.59,0.38
		c-0.26-0.06-0.42-0.31-0.38-0.57L836.19,500.32z M836.37,499.38l1.67-8.01l-8.14,6.63L836.37,499.38z"/>
	<path class="st2" d="M853.06,505.37c-0.15-0.21-0.11-0.5,0.1-0.65c0.01-0.01,0.03-0.02,0.05-0.03c0.23-0.15,0.54-0.09,0.7,0.14
		c0,0,0,0,0,0c0.55,0.82,1.4,1.39,2.37,1.58c0.97,0.2,1.97,0.02,2.8-0.52c1.71-1.15,2.19-3.45,1.1-5.19
		c-0.55-0.82-1.4-1.39-2.37-1.58c-0.97-0.2-1.99-0.02-2.82,0.52c-0.22,0.15-0.52,0.1-0.68-0.12c0,0,0-0.01-0.01-0.01
		c-0.05-0.06-0.08-0.12-0.09-0.2l0,0l0,0c-0.01-0.05-0.01-0.11,0-0.16c0,0,0,0,0-0.09l1.8-5.39c0.03-0.15,0.13-0.27,0.27-0.32
		c0.11-0.04,0.23-0.04,0.34,0l6.38,1.33c0.27,0.06,0.45,0.33,0.39,0.6c-0.06,0.27-0.33,0.45-0.6,0.39l0,0l-5.96-1.26l-1.33,3.97
		c0.79-0.26,1.64-0.31,2.46-0.14c1.22,0.25,2.3,0.98,2.98,2.03c0.71,1.06,0.95,2.35,0.66,3.59c-0.26,1.23-0.99,2.31-2.03,3
		c-1.07,0.67-2.35,0.91-3.59,0.66C854.76,507.21,853.71,506.44,853.06,505.37z"/>
	<path class="st2" d="M868.01,498.74c1.3-1.59,3.37-2.35,5.39-1.98c0.25,0.05,0.43,0.28,0.4,0.54c-0.05,0.27-0.3,0.45-0.57,0.41
		c-1.69-0.31-3.42,0.33-4.51,1.65c-0.65,0.76-1.17,1.61-1.54,2.53c1.06-0.79,2.4-1.1,3.7-0.84c2.5,0.51,4.11,2.95,3.59,5.45
		c-0.51,2.5-2.95,4.11-5.45,3.59c-2.44-0.5-4.04-2.85-3.62-5.31c0.02-0.3,0.07-0.6,0.14-0.9
		C865.91,501.99,866.76,500.22,868.01,498.74z M866.37,504.92c-0.01,0.09-0.01,0.18,0,0.27c0,0,0,0.09,0,0.13
		c-0.12,1.98,1.39,3.68,3.37,3.8s3.68-1.39,3.8-3.37c0.11-1.76-1.07-3.33-2.79-3.72c-1.94-0.42-3.85,0.8-4.28,2.74
		c-0.01,0.03-0.01,0.05-0.02,0.08L866.37,504.92z"/>
	<path class="st2" d="M878.66,511.4l7.56-10.94l-6.61-1.38c-0.25-0.05-0.42-0.3-0.38-0.56c0.05-0.26,0.31-0.43,0.57-0.38
		c0,0,0,0,0,0l7.19,1.51c0.09-0.03,0.19-0.03,0.29,0c0.11,0.09,0.18,0.22,0.2,0.36c0.01,0.05,0.01,0.11,0,0.16
		c-0.03,0.09-0.08,0.17-0.14,0.23l-7.92,11.5c-0.11,0.15-0.3,0.23-0.48,0.2l-0.18-0.09C878.59,511.85,878.55,511.6,878.66,511.4z"/>
	<path class="st2" d="M894.88,501.2c1.57,0.32,2.58,1.86,2.26,3.43c-0.18,0.92-0.8,1.69-1.65,2.07c2.07,1.4,2.61,4.22,1.21,6.29
		c-1.4,2.07-4.22,2.61-6.29,1.21s-2.61-4.22-1.21-6.29c0.68-1,1.72-1.69,2.91-1.91c-1.06-1.22-0.93-3.07,0.29-4.13
		C893.08,501.27,894,501.03,894.88,501.2L894.88,501.2z M892.22,513.95c1.94,0.42,3.85-0.82,4.27-2.76
		c0.42-1.94-0.82-3.85-2.76-4.27c-1.94-0.42-3.85,0.82-4.27,2.76c0,0.01,0,0.02-0.01,0.03
		C889.06,511.65,890.29,513.54,892.22,513.95z M893.89,505.98c1.06,0.2,2.09-0.49,2.32-1.54c0.21-1.05-0.47-2.07-1.52-2.28
		c0,0,0,0,0,0c-1.03-0.23-2.04,0.42-2.27,1.45c0,0.02-0.01,0.03-0.01,0.05C892.18,504.7,892.84,505.74,893.89,505.98L893.89,505.98z
		"/>
	<path class="st2" d="M919.2,506.27c2.27,0.49,3.82,2.61,3.59,4.92c0.01,0.04,0.01,0.07,0,0.11c0,0.38-0.11,0.77-0.2,1.19
		c-0.37,1.9-1.21,3.68-2.44,5.17c-1.32,1.57-3.37,2.33-5.39,1.98l0,0c-0.26-0.03-0.43-0.27-0.4-0.53c0-0.01,0-0.02,0.01-0.03
		c0.05-0.27,0.3-0.46,0.57-0.41c1.69,0.31,3.41-0.32,4.49-1.65c0.66-0.75,1.18-1.6,1.54-2.53c-1.06,0.8-2.41,1.1-3.7,0.81
		c-2.53-0.27-4.35-2.54-4.08-5.06c0.27-2.53,2.54-4.35,5.06-4.08c0.28,0.03,0.55,0.08,0.82,0.16L919.2,506.27z M921.84,511.51
		c0.39-1.95-0.87-3.84-2.82-4.23c-1.95-0.39-3.84,0.87-4.23,2.82c-0.38,1.91,0.83,3.78,2.74,4.21c1.94,0.44,3.86-0.78,4.29-2.72
		C921.83,511.57,921.84,511.54,921.84,511.51L921.84,511.51z"/>
	<path class="st2" d="M925.8,514.78c0.31-1.7,1.11-3.28,2.3-4.53c1.41-1.68,3.92-1.89,5.59-0.48c0.6,0.5,1.03,1.17,1.25,1.91
		c1.15,3.31,0.38,6.98-1.99,9.56c-0.97,1.07-2.42,1.58-3.84,1.35c-1.4-0.36-2.53-1.4-3-2.77
		C925.51,518.21,925.4,516.46,925.8,514.78z M926.75,514.98c-0.35,1.49-0.26,3.04,0.27,4.47c0.34,1.07,1.2,1.89,2.28,2.19
		c1.11,0.14,2.21-0.27,2.96-1.1c1.05-1.1,1.77-2.49,2.05-3.99c0.34-1.49,0.24-3.05-0.29-4.49c-0.34-1.07-1.2-1.89-2.28-2.19
		c-1.11-0.16-2.23,0.25-2.96,1.1c-1.06,1.11-1.78,2.5-2.07,4.01L926.75,514.98z"/>
	<path class="st2" d="M942.74,512.61l-2.17,0.74c-0.08,0.03-0.17,0.03-0.25,0c-0.17-0.03-0.31-0.16-0.36-0.32
		c-0.1-0.23,0.01-0.49,0.24-0.59c0.02-0.01,0.04-0.02,0.07-0.02l2.96-1.06c0.26-0.07,0.53,0.07,0.61,0.32
		c0.05,0.12,0.05,0.24,0,0.36l-2.6,12.57c-0.06,0.26-0.32,0.42-0.57,0.36c-0.25-0.05-0.41-0.3-0.36-0.55c0,0,0,0,0,0L942.74,512.61z
		"/>
	<path class="st2" d="M944.68,524.95l7.6-4.44c0.91-0.49,1.57-1.36,1.8-2.37c0.4-1.94-0.85-3.83-2.78-4.24
		c-0.88-0.18-1.79-0.04-2.57,0.4l-0.79,0.48c-0.23,0.14-0.53,0.07-0.66-0.16c-0.15-0.2-0.1-0.48,0.1-0.63
		c0.02-0.01,0.04-0.03,0.06-0.04l0.79-0.48c0.99-0.58,2.15-0.76,3.27-0.52c1.26,0.25,2.34,1.03,2.98,2.14
		c0.59,0.97,0.79,2.14,0.56,3.25c-0.27,1.26-1.06,2.35-2.17,3l-6.5,3.81l6.48,1.35c0.26,0.07,0.42,0.33,0.36,0.59
		c-0.05,0.25-0.3,0.42-0.56,0.38l-7.63-1.6l0,0c-0.13-0.01-0.25-0.08-0.32-0.2C944.48,525.46,944.48,525.15,944.68,524.95z"/>
	<path class="st2" d="M978.66,519.56l-4.29,2.91c0.86,0.37,1.59,1,2.08,1.8c0.7,1.06,0.94,2.35,0.66,3.59
		c-0.24,1.24-0.98,2.32-2.05,3c-1.06,0.7-2.35,0.94-3.59,0.68c-1.23-0.25-2.3-0.99-2.98-2.05c-0.15-0.21-0.11-0.5,0.1-0.65
		c0.01-0.01,0.03-0.02,0.05-0.03c0.22-0.15,0.52-0.09,0.67,0.13c0,0,0.01,0.01,0.01,0.01c0.54,0.82,1.39,1.39,2.35,1.58
		c0.97,0.21,1.98,0.03,2.82-0.5c1.73-1.13,2.22-3.44,1.09-5.17c0-0.01-0.01-0.01-0.01-0.02c-0.54-0.83-1.39-1.4-2.35-1.6
		c-0.16-0.03-0.29-0.14-0.36-0.29l0,0c-0.15-0.23-0.08-0.54,0.14-0.7l4.13-2.8l-5.23-1.08c-0.24-0.1-0.36-0.36-0.29-0.61
		c0.05-0.27,0.32-0.45,0.59-0.4c0,0,0,0,0,0l6.4,1.33c0.26,0.05,0.43,0.31,0.38,0.57c0,0.01,0,0.02-0.01,0.02
		c0,0.08-0.03,0.16-0.09,0.22C978.83,519.54,978.75,519.56,978.66,519.56z"/>
	<path class="st2" d="M988.08,531.94l-7.47-1.6l0,0c-0.11-0.02-0.2-0.08-0.27-0.16c-0.19-0.18-0.2-0.47-0.02-0.66
		c0.01-0.01,0.01-0.02,0.02-0.02l9.97-8.19l0,0c0.17-0.18,0.45-0.2,0.63-0.03c0.01,0.01,0.02,0.02,0.03,0.03
		c0.06,0.08,0.1,0.17,0.11,0.27c0,0,0,0,0,0.09l0,0l-1.96,9.38l0.92,0.2c0.26,0.05,0.44,0.31,0.4,0.57
		c-0.06,0.26-0.32,0.42-0.58,0.36c0,0-0.01,0-0.01,0l-0.92-0.18l-0.48,2.34c-0.06,0.27-0.33,0.43-0.59,0.38
		c-0.26-0.06-0.42-0.32-0.36-0.57L988.08,531.94z M988.28,531l1.67-8.01l-8.14,6.66L988.28,531z"/>
	<path class="st2" d="M993.18,534.54c-0.15-0.21-0.11-0.5,0.1-0.65c0.01-0.01,0.03-0.02,0.05-0.03c0.23-0.15,0.54-0.09,0.7,0.14
		c0,0,0,0,0,0c0.54,0.82,1.39,1.4,2.35,1.6c0.97,0.2,1.99,0,2.82-0.54c1.79-1.02,2.41-3.31,1.39-5.1s-3.31-2.41-5.1-1.39
		c-0.13,0.08-0.26,0.16-0.39,0.25c-0.22,0.15-0.52,0.09-0.67-0.13c0,0-0.01-0.01-0.01-0.01c-0.04-0.05-0.07-0.11-0.09-0.18l0,0l0,0
		c-0.02-0.05-0.02-0.11,0-0.16l0,0l1.8-5.39c0.02-0.15,0.13-0.27,0.27-0.32c0.11-0.04,0.23-0.04,0.34,0l6.36,1.33
		c0.27,0.05,0.45,0.32,0.4,0.59c0,0,0,0,0,0c-0.05,0.27-0.32,0.45-0.59,0.4c0,0,0,0,0,0l-5.96-1.24l-1.33,3.95
		c0.8-0.25,1.64-0.3,2.46-0.14c2.56,0.54,4.2,3.06,3.65,5.62c-0.26,1.22-0.99,2.3-2.04,2.98c-2.2,1.42-5.13,0.81-6.57-1.37
		L993.18,534.54z"/>
	<path class="st2" d="M1008.18,527.91c1.3-1.59,3.37-2.35,5.39-1.98c0.25,0.05,0.43,0.28,0.4,0.54c-0.05,0.27-0.3,0.45-0.57,0.41
		c-1.69-0.31-3.42,0.33-4.51,1.65c-0.64,0.76-1.17,1.61-1.54,2.53c2.04-1.5,4.91-1.06,6.4,0.98c1.5,2.04,1.06,4.91-0.98,6.4
		s-4.91,1.06-6.4-0.98c-0.74-1.01-1.04-2.28-0.82-3.51c0.04-0.3,0.09-0.6,0.16-0.9C1006.08,531.17,1006.93,529.39,1008.18,527.91z
		 M1006.54,534.09c-0.02,0.09-0.02,0.18,0,0.27c0,0,0,0.09,0,0.13c-0.27,2.1,1.21,4.01,3.31,4.28c2.1,0.27,4.01-1.21,4.28-3.31
		c0.27-2.1-1.21-4.01-3.31-4.28c-1.91-0.25-3.71,0.97-4.19,2.84L1006.54,534.09z"/>
	
		<rect x="855.85" y="472.18" transform="matrix(0.2 -0.9798 0.9798 0.2 164.734 1268.0344)" class="st4" width="5.98" height="121.93"/>
	
		<rect x="832.75" y="501.17" transform="matrix(0.2038 -0.979 0.979 0.2038 132.5146 1251.576)" class="st4" width="5.98" height="86.3"/>
	
		<rect x="946.51" y="421.69" transform="matrix(0.2038 -0.979 0.979 0.2038 313.3873 1289.5109)" class="st4" width="5.98" height="60.79"/>
</g>
<g id="freepik--Floor--inject-202">
	<polygon class="st5" points="305,625.58 398,625.15 491.02,624.99 677.01,624.68 863.01,624.99 956.03,625.15 1049.03,625.58 
		956.03,626.03 863.01,626.19 677.01,626.48 491.02,626.17 398,626.03 	"/>
</g>
<g id="freepik--Shadow--inject-202">
	<ellipse class="st0" cx="677.01" cy="716.84" rx="357.43" ry="43.99"/>
</g>
<g id="freepik--Device--inject-202">
	<path class="st6" d="M440.68,140.12V698.3h-56.68V365.21c0-32.8-5.91-51.5-29.87-73.9c-38.01-35.55-40.78-63.25-40.78-88.56
		c0-45.3,26.82-90.77,65.6-90.77C404.25,111.98,426.83,121.69,440.68,140.12z"/>
	<path class="st7" d="M741.04,147.4v550.9H427.01V172.85c0-48.25-36.74-61.08-42.59-61.08h321.02c19.66,0,35.6,15.94,35.6,35.6
		C741.04,147.39,741.04,147.39,741.04,147.4z"/>
	<rect x="636.78" y="471.88" class="st0" width="63.99" height="28.51"/>
	<rect x="557.41" y="471.88" class="st0" width="63.99" height="28.51"/>
	<rect x="478.06" y="471.88" class="st0" width="63.99" height="28.51"/>
	<rect x="636.78" y="512.37" class="st0" width="63.99" height="28.51"/>
	<rect x="557.41" y="512.37" class="st0" width="63.99" height="28.51"/>
	<rect x="478.06" y="512.37" class="st0" width="63.99" height="28.51"/>
	<rect x="636.78" y="552.85" class="st0" width="63.99" height="28.51"/>
	<rect x="557.41" y="552.85" class="st0" width="63.99" height="28.51"/>
	<rect x="478.06" y="552.85" class="st0" width="63.99" height="28.51"/>
	<rect x="636.78" y="593.34" class="st0" width="63.99" height="28.51"/>
	<rect x="557.41" y="593.34" class="st0" width="63.99" height="28.51"/>
	<rect x="478.06" y="593.34" class="st0" width="63.99" height="28.51"/>
	<rect x="636.78" y="633.84" class="st5" width="63.99" height="28.51"/>
	<rect x="557.41" y="633.84" class="st8" width="63.99" height="28.51"/>
	<rect x="478.06" y="633.84" class="st2" width="63.99" height="28.51"/>
	<path class="st5" d="M454.75,453.25h265.74c0.23,0.01,0.42-0.17,0.43-0.39c0-0.01,0-0.01,0-0.02V138.06
		c0.02-14.49-11.71-26.26-26.21-26.28c-0.02,0-0.04,0-0.05,0H436.06c-0.24,0.01-0.42,0.21-0.41,0.45c0.01,0.14,0.08,0.26,0.19,0.34
		l0,0c11.46,7.02,18.43,19.51,18.41,32.95v307.33c0,0.23,0.18,0.42,0.41,0.42C454.7,453.26,454.72,453.26,454.75,453.25z"/>
	<rect x="638.25" y="387.9" class="st2" width="59.55" height="19.72"/>
	<rect x="638.25" y="419.25" class="st2" width="59.55" height="19.72"/>
	<rect x="476.27" y="387.9" class="st2" width="59.55" height="19.72"/>
	<rect x="476.27" y="419.25" class="st2" width="59.55" height="19.72"/>
	<rect x="471.11" y="192.58" class="st3" width="233.05" height="181.22"/>
	<g class="st9">
		<polygon class="st0" points="589.8,192.58 471.09,311.28 471.09,249.97 528.51,192.58 		"/>
		<polygon class="st0" points="704.14,243.6 704.14,304.93 635.27,373.8 573.94,373.8 		"/>
		<polygon class="st0" points="658.98,192.58 477.76,373.8 471.09,373.8 471.09,358.82 637.35,192.58 		"/>
		<polygon class="st0" points="519.11,192.58 471.09,240.61 471.09,218.95 497.47,192.58 		"/>
		<polygon class="st0" points="704.14,192.58 704.14,194.95 525.29,373.8 521.81,373.8 703.03,192.58 		"/>
		<polygon class="st0" points="704.14,338.05 704.14,341.52 671.86,373.8 668.39,373.8 		"/>
	</g>
	<rect x="501.69" y="155.75" class="st6" width="171.88" height="10.11"/>
	<path class="st0" d="M507.7,165.88c51.59-0.11,103.11,0.11,154.69,0c21.14-53.47,21.14-112.98,0-166.45L507.63-0.89
		C528.87,52.67,528.9,112.31,507.7,165.88z"/>
	<path class="st4" d="M561.43,23.75h63.48c-0.31-1.13-0.61-2.26-0.93-3.4h-63.52C560.81,21.4,561.13,22.53,561.43,23.75z"/>
	<path class="st4" d="M579.27,33.42h32.6c-0.25-1.13-0.5-2.26-0.79-3.41h-32.6C578.75,31.14,579.02,32.29,579.27,33.42z"/>
	<path class="st4" d="M599.27,63.04h63.48c-0.09-1.15-0.2-2.3-0.32-3.47h-63.48L599.27,63.04z"/>
	<path class="st4" d="M584.46,72.98h78.93c0-1.17-0.11-2.32-0.18-3.49h-78.93C584.36,70.66,584.41,71.81,584.46,72.98z"/>
	<path class="st4" d="M622.51,82.93h41.08c0-1.15,0-2.32,0-3.47h-41.1C622.51,80.61,622.51,81.78,622.51,82.93z"/>
	<path class="st4" d="M593,92.9h70.36c0-1.17,0-2.34,0.13-3.49h-70.35C593.11,90.56,593.05,91.73,593,92.9z"/>
	<path class="st4" d="M585.13,102.8h77.51c0.11-1.15,0.2-2.32,0.29-3.47h-77.55C585.4,100.51,585.24,101.68,585.13,102.8z"/>
	<path class="st4" d="M590.52,112.75h71.05c0.16-1.15,0.31-2.32,0.45-3.47h-71.05C590.79,110.43,590.68,111.6,590.52,112.75z"/>
	<path class="st4" d="M581.07,122.56h78.95l0.59-3.45l-79.04,0.09C581.48,120.33,581.28,121.48,581.07,122.56z"/>
	<path class="st4" d="M585.09,132.42h72.93l0.75-3.41h-72.93L585.09,132.42z"/>
	<path class="st4" d="M596.02,142.14l59.59-0.09c0.31-1.13,0.61-2.26,0.9-3.4l-59.59,0.09C596.63,139.87,596.32,141,596.02,142.14z"
		/>
	<path class="st4" d="M574.48,151.8l78.25-0.13c0.36-1.11,0.72-2.25,1.06-3.36l-78.25,0.13C575.2,149.5,574.84,150.69,574.48,151.8z
		"/>
	<path class="st4" d="M575.63,161.34l73.81-0.14c0.4-1.11,0.81-2.21,1.2-3.32l-73.81,0.14
		C576.42,159.13,576.04,160.28,575.63,161.34z"/>
	<path class="st4" d="M538.14,72.96h23.91c0-1.17-0.11-2.34-0.18-3.49h-23.91C538.03,70.64,538.08,71.79,538.14,72.96z"/>
	<path class="st4" d="M538.33,82.93h23.93c0-1.15,0-2.32,0-3.49h-23.95C538.32,80.61,538.33,81.78,538.33,82.93z"/>
	<path class="st4" d="M538.08,92.9h23.96c0-1.17,0.11-2.32,0.14-3.49h-23.96C538.19,90.58,538.14,91.75,538.08,92.9z"/>
	<path class="st4" d="M537.42,102.8h23.93c0-1.17,0.2-2.32,0.29-3.49H537.7C537.61,100.53,537.52,101.7,537.42,102.8z"/>
	<path class="st4" d="M536.29,112.78h23.96c0.16-1.15,0.31-2.32,0.45-3.47h-23.96C536.59,110.47,536.45,111.63,536.29,112.78z"/>
	<path class="st4" d="M534.74,122.66h23.93l0.59-3.45h-23.93L534.74,122.66z"/>
	<path class="st4" d="M532.75,132.49h23.93l0.75-3.43h-23.95C533.3,130.21,533,131.34,532.75,132.49z"/>
	<path class="st4" d="M530.3,142.32h23.93c0.32-1.13,0.61-2.26,0.92-3.4H531.2C530.91,139.96,530.61,141.09,530.3,142.32z"/>
	<path class="st4" d="M527.43,151.89h23.95c0.36-1.13,0.7-2.25,1.04-3.38h-23.93C528.15,149.65,527.79,150.76,527.43,151.89z"/>
	<path class="st4" d="M524.12,161.45h23.93c0.41-1.11,0.83-2.21,1.22-3.32h-23.95C524.93,159.22,524.54,160.28,524.12,161.45z"/>
	<rect x="741.04" y="147.31" class="st7" width="34.04" height="298.88"/>
	<rect x="741.04" y="147.31" class="st5" width="7.81" height="298.88"/>
</g>
<g id="freepik--Wallet--inject-202">
	<rect x="557.23" y="600.61" class="st8" width="92.23" height="46.8"/>
	<path class="st0" d="M639.16,624c0.01,5.78-4.67,10.48-10.46,10.49s-10.48-4.67-10.49-10.46c-0.01-5.78,4.67-10.48,10.46-10.49
		c0.01,0,0.02,0,0.04,0C634.48,613.56,639.15,618.23,639.16,624z"/>
	<circle class="st1" cx="628.71" cy="624" r="5.73"/>
	<rect x="314.57" y="517.94" class="st8" width="279.14" height="208.42"/>
	<rect x="314.57" y="517.94" class="st10" width="279.14" height="208.42"/>
	
		<rect x="326.9" y="453.09" transform="matrix(0.9933 -0.116 0.116 0.9933 -56.4789 55.8655)" class="st0" width="249.86" height="120.36"/>
	<path class="st1" d="M569,438.97l-7.53,0.88L328.34,467.1l-7.53,0.88l0.88,7.51l12.22,104.5l0.88,7.53l7.53-0.88l233.14-27.25
		l7.51-0.88l0,0L569,438.97L569,438.97z M574.62,551.89l-233.19,27.22l-12.22-104.46l233.14-27.23L574.62,551.89z"/>
	
		<ellipse transform="matrix(0.9932 -0.1162 0.1162 0.9932 -56.7204 55.9977)" class="st1" cx="452.12" cy="514.68" rx="34.99" ry="40.81"/>
	<path class="st1" d="M393.9,518.84c0.58,5.15-3.12,9.79-8.27,10.37s-9.79-3.12-10.37-8.27c-0.58-5.13,3.1-9.77,8.24-10.37
		c5.13-0.61,9.79,3.06,10.39,8.2C393.9,518.79,393.9,518.82,393.9,518.84z"/>
	<path class="st1" d="M528.24,503.14c0.61,5.14-3.06,9.81-8.21,10.42c-5.14,0.61-9.81-3.06-10.42-8.21
		c-0.61-5.14,3.06-9.81,8.21-10.42c0.01,0,0.01,0,0.02,0C522.97,494.34,527.62,498.01,528.24,503.14z"/>
	<path class="st1" d="M358.07,577.17l-16.63,1.94l-1.94-16.62C348.67,561.43,356.98,567.99,358.07,577.17z"/>
	<path class="st1" d="M572.63,535.24l1.99,16.65L558,553.83C556.93,544.67,563.46,536.36,572.63,535.24z"/>
	<path class="st1" d="M545.72,449.32l16.63-1.94l1.94,16.6c-9.17,1.08-17.49-5.47-18.57-14.64
		C545.72,449.33,545.72,449.32,545.72,449.32z"/>
	<path class="st1" d="M331.16,491.23l-1.94-16.58l16.62-1.96C346.9,481.86,340.33,490.16,331.16,491.23z"/>
	<path class="st0" d="M448.87,484.04c0.88-0.01,1.65,0.62,1.8,1.49l0.32,2.8c4.59-0.19,9.12,1.01,13.02,3.43
		c0.62,0.27,1.06,0.83,1.17,1.49c0.09,0.99-0.63,1.86-1.62,1.96c-0.47,0.07-0.94-0.05-1.31-0.34c-3.28-2.15-7.11-3.3-11.03-3.32
		l2.3,19.58c10.89,0.99,15.83,4.46,16.62,11.3c0.86,7.42-4.74,13.38-13.44,14.69l0.63,5.39c0.01,0.88-0.61,1.64-1.47,1.8
		c-0.88,0.01-1.64-0.61-1.8-1.47l-0.65-5.53c-5.9,0.26-11.72-1.48-16.51-4.94c-0.52-0.27-0.88-0.78-0.95-1.37
		c-0.1-0.96,0.59-1.83,1.54-1.96c0.47-0.07,0.95,0.06,1.33,0.34c4.1,3.19,9.18,4.87,14.37,4.76l-2.34-19.92
		c-10.78-1.08-15.54-4.42-16.35-11.41c-0.81-6.99,4.69-13.15,13.2-14.37l-0.32-2.64C447.4,484.94,448.02,484.2,448.87,484.04z
		 M450.44,510.79l-2.23-19.08c-6.77,0.93-10.78,5.5-10.19,10.54c0.57,4.72,3.16,7.42,12.43,8.53L450.44,510.79z M454.03,514.69
		l2.25,19.24c6.99-0.95,11.05-5.53,10.44-10.78C466.14,518.32,463.35,515.66,454.03,514.69L454.03,514.69z"/>
	<path class="st1" d="M569.23,541.82l0.34,128.89c0.02,7.2-5.8,13.06-13.01,13.08c0,0,0,0,0,0l-204.43,0.54
		c-7.2,0.01-13.05-5.82-13.06-13.02l0,0l-0.34-128.89c0.04-6.66,5.43-12.04,12.09-12.07l206.23-0.54
		C563.72,529.78,569.16,535.14,569.23,541.82z"/>
	<path class="st2" d="M536.29,652.63c0.01,6.63-5.35,12.01-11.98,12.02c-6.63,0.01-12.01-5.35-12.02-11.98
		c-0.01-6.62,5.34-12,11.96-12.02c6.63-0.02,12.02,5.34,12.04,11.96C536.29,652.62,536.29,652.63,536.29,652.63z"/>
	<path class="st8" d="M551.05,652.58c0.02,6.63-5.34,12.02-11.96,12.04c-6.63,0.02-12.02-5.34-12.04-11.96
		c-0.02-6.63,5.34-12.02,11.96-12.04c0.01,0,0.01,0,0.02,0C545.65,640.61,551.03,645.96,551.05,652.58z"/>
	<path class="st8" d="M365.67,552.34l28.19-0.07c4.17-0.01,7.55,3.36,7.56,7.53l0.04,14.82c0.01,4.17-3.36,7.55-7.53,7.56
		l-28.19,0.07c-4.17,0.01-7.55-3.36-7.56-7.53l-0.04-14.82C358.14,555.74,361.5,552.35,365.67,552.34z"/>
	<path class="st3" d="M542.64,568.28h-19.58c-4.53,0.01-8.21-3.65-8.23-8.17l0,0c0-4.53,3.66-8.21,8.19-8.23h19.56
		c4.53,0,8.21,3.66,8.23,8.19l0,0C550.83,564.59,547.17,568.27,542.64,568.28L542.64,568.28z"/>
	<path class="st11" d="M356.68,609.52l-1.8,1.04c-0.19,0.13-0.45,0.08-0.57-0.11c-0.01-0.01-0.01-0.02-0.02-0.03
		c-0.12-0.18-0.07-0.43,0.11-0.55c0.02-0.01,0.03-0.02,0.05-0.03l2.43-1.49c0.21-0.11,0.47-0.04,0.59,0.16
		c0.03,0.11,0.03,0.22,0,0.32v11.53c0,0.24-0.19,0.43-0.43,0.43s-0.43-0.19-0.43-0.43L356.68,609.52z"/>
	<path class="st11" d="M360.65,620.03l5.84-5.39c0.68-0.62,1.07-1.49,1.08-2.41c0-0.79-0.3-1.56-0.84-2.14
		c-0.61-0.68-1.48-1.06-2.39-1.06c-0.81,0-1.59,0.29-2.19,0.83l-0.61,0.56c-0.17,0.17-0.44,0.17-0.61,0c0,0,0,0,0,0
		c-0.17-0.15-0.18-0.41-0.03-0.58c0.01-0.01,0.02-0.02,0.03-0.03l0.61-0.57c0.77-0.69,1.76-1.07,2.78-1.08
		c1.15,0,2.25,0.49,3.02,1.35c0.69,0.74,1.08,1.72,1.08,2.73c0,1.16-0.49,2.27-1.35,3.05l-4.99,4.54h5.96
		c0.23-0.01,0.42,0.17,0.43,0.39c0,0.01,0,0.02,0,0.04c0,0.24-0.19,0.43-0.43,0.43h-7.08c-0.12,0.01-0.24-0.04-0.32-0.13
		C360.52,620.41,360.53,620.19,360.65,620.03z"/>
	<path class="st11" d="M378.81,608.98l-3.23,3.34c2.3,0.47,3.79,2.72,3.32,5.02c-0.17,0.82-0.57,1.57-1.16,2.16
		c-0.8,0.8-1.89,1.25-3.02,1.26c-1.13,0.02-2.21-0.43-3-1.24c-0.15-0.2-0.11-0.48,0.09-0.63c0.16-0.12,0.38-0.12,0.54,0
		c0.63,0.62,1.48,0.97,2.37,0.97c0.89-0.01,1.74-0.37,2.37-0.99c0.63-0.63,0.99-1.49,0.99-2.39c-0.02-1.84-1.52-3.33-3.36-3.34
		c-0.14,0-0.27-0.07-0.36-0.18l0,0c-0.18-0.17-0.18-0.46-0.01-0.64c0,0,0.01-0.01,0.01-0.01l3.11-3.22h-4.83
		c-0.25,0-0.45-0.2-0.45-0.45c-0.02-0.23,0.15-0.43,0.38-0.45c0.02,0,0.04,0,0.06,0h5.87c0.25,0,0.45,0.2,0.45,0.45
		c0.02,0.06,0.02,0.13,0,0.2C378.91,608.91,378.86,608.95,378.81,608.98z"/>
	<path class="st11" d="M389.36,618.14h-6.86c-0.1,0.01-0.19-0.03-0.27-0.09c-0.17-0.15-0.18-0.41-0.03-0.58
		c0.01-0.01,0.02-0.02,0.03-0.03l7.19-8.98l0,0c0.15-0.17,0.42-0.18,0.58-0.03c0.01,0.01,0.02,0.02,0.03,0.03
		c0.06,0.06,0.11,0.12,0.14,0.2l0,0v8.68h0.84c0.24,0,0.44,0.19,0.45,0.43c0,0.24-0.19,0.43-0.43,0.43h-0.84v2.14
		c-0.05,0.24-0.29,0.4-0.53,0.35c-0.18-0.04-0.31-0.17-0.35-0.35L389.36,618.14z M389.36,617.28v-7.35l-5.93,7.37L389.36,617.28z"/>
	<path class="st11" d="M405.08,619.44c-0.17-0.16-0.18-0.44-0.02-0.61c0.01-0.01,0.01-0.01,0.02-0.02c0.17-0.18,0.46-0.18,0.64-0.01
		c0,0,0.01,0.01,0.01,0.01c0.63,0.62,1.48,0.97,2.37,0.97c1.85,0,3.34-1.5,3.34-3.34c0-0.01,0-0.01,0-0.02
		c0-1.84-1.48-3.33-3.32-3.33c-0.89,0-1.73,0.35-2.36,0.98c-0.16,0.17-0.44,0.18-0.61,0.02c-0.01-0.01-0.01-0.01-0.02-0.02
		c-0.05-0.04-0.09-0.09-0.11-0.14l0,0l0,0c-0.01-0.05-0.01-0.1,0-0.14c0-0.03,0-0.06,0-0.09l0.59-5.07c0-0.13,0.07-0.25,0.18-0.32
		c0.08-0.07,0.18-0.11,0.29-0.11h5.84c0.25,0,0.45,0.2,0.45,0.45c0.01,0.24-0.17,0.44-0.41,0.45c-0.01,0-0.02,0-0.04,0h-5.39
		l-0.45,3.74c0.65-0.38,1.39-0.58,2.14-0.57c1.13-0.03,2.21,0.42,3,1.22c1.64,1.67,1.64,4.35,0,6.02c-0.81,0.78-1.89,1.23-3.02,1.26
		C407.02,620.76,405.89,620.29,405.08,619.44z"/>
	<path class="st11" d="M417.02,610.83c0.85-1.65,2.53-2.69,4.38-2.73c0.24-0.01,0.44,0.17,0.45,0.41c0,0,0,0,0,0
		c0,0.24-0.19,0.45-0.43,0.47c-1.52,0.05-2.9,0.93-3.59,2.28c-0.43,0.78-0.74,1.63-0.9,2.51c1.51-1.7,4.11-1.84,5.81-0.33
		c1.7,1.51,1.84,4.11,0.33,5.81c-1.51,1.7-4.11,1.84-5.81,0.33c-0.84-0.75-1.34-1.81-1.37-2.93c-0.02-0.28-0.02-0.55,0-0.83
		C415.84,614.09,416.23,612.38,417.02,610.83z M416.72,616.58c-0.01,0.08-0.01,0.16,0,0.23c0.01,0.04,0.01,0.08,0,0.13
		c0.12,1.84,1.71,3.24,3.55,3.12c1.84-0.12,3.24-1.71,3.12-3.55c-0.12-1.84-1.71-3.24-3.55-3.12c-1.68,0.11-3.01,1.44-3.12,3.12
		V616.58z"/>
	<path class="st11" d="M428.72,620.01l4.62-11.03h-6.02c-0.24,0-0.43-0.19-0.43-0.43s0.19-0.43,0.43-0.43l0,0h6.63
		c0.09-0.03,0.18-0.03,0.27,0c0.11,0.06,0.19,0.15,0.23,0.27c0.01,0.05,0.01,0.1,0,0.14c0.03,0.08,0.03,0.16,0,0.23l-4.83,11.57
		c-0.07,0.16-0.22,0.26-0.4,0.27c-0.06,0.02-0.12,0.02-0.18,0C428.79,620.53,428.65,620.27,428.72,620.01z"/>
	<path class="st11" d="M441.09,608.03c1.44,0,2.61,1.16,2.61,2.6c0,0.83-0.39,1.62-1.07,2.11c1.58,0.61,2.63,2.13,2.64,3.83
		c0.01,2.25-1.81,4.08-4.07,4.09c-2.25,0.01-4.08-1.81-4.09-4.07c0-1.65,0.99-3.14,2.51-3.78c-0.66-0.51-1.04-1.29-1.04-2.12
		c-0.05-1.42,1.06-2.61,2.48-2.66C441.08,608.03,441.09,608.03,441.09,608.03z M441.09,619.73c1.78-0.01,3.21-1.46,3.2-3.23
		c-0.01-1.78-1.46-3.21-3.23-3.2c-1.78,0.01-3.21,1.46-3.2,3.23c0,1.77,1.43,3.2,3.2,3.2c0.02,0,0.05,0,0.07,0H441.09z
		 M441.09,612.41c0.99,0,1.8-0.8,1.8-1.8c0-0.99-0.8-1.8-1.8-1.8c-0.99,0-1.8,0.8-1.8,1.8C439.3,611.61,440.1,612.41,441.09,612.41
		c0.01,0,0.01,0,0.02,0H441.09z"/>
	<path class="st11" d="M463.41,607.98c2.09-0.02,3.86,1.52,4.13,3.59v0.09c0,0.34,0,0.7,0,1.08c0.03,1.74-0.38,3.47-1.19,5.01
		c-0.88,1.62-2.54,2.66-4.38,2.73l0,0c-0.24,0.01-0.44-0.17-0.45-0.41c0,0,0,0,0,0c-0.01-0.25,0.18-0.46,0.43-0.47c0,0,0,0,0,0
		c1.52-0.06,2.89-0.93,3.59-2.28c0.44-0.78,0.74-1.63,0.88-2.51c-0.78,0.9-1.92,1.4-3.11,1.38c-2.28,0-4.13-1.85-4.13-4.13
		s1.85-4.13,4.13-4.13L463.41,607.98z M466.69,612.09c0-1.81-1.46-3.27-3.27-3.27c-1.81,0-3.27,1.46-3.27,3.27s1.46,3.27,3.27,3.27
		c1.8,0.01,3.26-1.44,3.27-3.23C466.69,612.11,466.69,612.1,466.69,612.09z"/>
	<path class="st11" d="M470.75,614.23c-0.03-1.55,0.38-3.07,1.2-4.38c0.97-1.73,3.16-2.35,4.89-1.38c0.58,0.32,1.06,0.8,1.38,1.38
		c0.82,1.32,1.25,2.83,1.24,4.38c0.02,1.55-0.4,3.07-1.22,4.38c-0.65,1.12-1.83,1.84-3.13,1.9c-1.3-0.07-2.47-0.78-3.14-1.89
		C471.15,617.31,470.73,615.78,470.75,614.23z M471.63,614.23c-0.02,1.38,0.36,2.73,1.08,3.9c0.63,1.32,2.22,1.88,3.55,1.25
		c0.55-0.26,0.99-0.7,1.25-1.25c1.45-2.39,1.45-5.39,0-7.78c-0.49-0.88-1.4-1.45-2.41-1.51c-1,0.05-1.91,0.62-2.39,1.51
		C471.99,611.51,471.62,612.86,471.63,614.23z"/>
	<path class="st11" d="M485.25,609.2l-1.8,1.04c-0.19,0.13-0.45,0.08-0.57-0.11c-0.01-0.01-0.01-0.02-0.02-0.03
		c-0.12-0.19-0.07-0.45,0.12-0.57c0.01-0.01,0.02-0.02,0.04-0.02l2.43-1.47c0.21-0.1,0.46-0.03,0.59,0.16
		c0.03,0.11,0.03,0.22,0,0.32v11.51c0,0.24-0.19,0.43-0.43,0.43c-0.24,0-0.43-0.19-0.43-0.43L485.25,609.2z"/>
	<path class="st11" d="M489.22,619.69l5.84-5.3c0.68-0.62,1.07-1.49,1.08-2.41c0-0.8-0.3-1.57-0.84-2.16
		c-0.61-0.68-1.48-1.06-2.39-1.04c-0.81,0-1.59,0.29-2.19,0.83l-0.61,0.56c-0.17,0.16-0.45,0.16-0.61-0.02
		c-0.16-0.17-0.16-0.45,0.02-0.61l0.61-0.57c0.77-0.68,1.76-1.06,2.78-1.06c1.14-0.01,2.24,0.47,3,1.33c0.7,0.74,1.09,1.73,1.1,2.75
		c0,1.16-0.49,2.27-1.35,3.05l-5.01,4.54h5.95c0.24,0.05,0.4,0.29,0.35,0.53c-0.04,0.18-0.17,0.31-0.35,0.35h-7.06
		c-0.12,0.01-0.24-0.04-0.32-0.13C489.03,620.15,489.04,619.86,489.22,619.69z"/>
	<path class="st11" d="M518.11,608.62l-3.23,3.34c0.82,0.16,1.57,0.56,2.16,1.15c1.65,1.67,1.65,4.35,0,6.02
		c-0.8,0.8-1.89,1.25-3.02,1.26c-1.12,0.02-2.2-0.43-2.98-1.24c-0.17-0.15-0.19-0.41-0.05-0.58c0.01-0.02,0.03-0.03,0.05-0.05
		c0.16-0.17,0.44-0.18,0.61-0.02c0.01,0.01,0.01,0.01,0.02,0.02c0.63,0.62,1.48,0.97,2.37,0.95c0.89,0,1.75-0.35,2.39-0.97
		c1.3-1.34,1.27-3.48-0.07-4.78c-0.62-0.6-1.45-0.95-2.32-0.95c-0.14,0-0.27-0.07-0.36-0.18l0,0c-0.18-0.17-0.18-0.46-0.01-0.64
		c0,0,0.01-0.01,0.01-0.01l3.11-3.22h-4.8c-0.25,0-0.45-0.2-0.45-0.45c0-0.25,0.2-0.45,0.45-0.45h5.86c0.25,0,0.45,0.2,0.45,0.45
		c0.02,0.06,0.02,0.13,0,0.2C518.24,608.54,518.18,608.59,518.11,608.62z"/>
	<path class="st11" d="M528.67,617.78h-6.84c-0.08,0.04-0.18,0.04-0.27,0c-0.17-0.15-0.18-0.41-0.03-0.58
		c0.01-0.01,0.02-0.02,0.03-0.03l7.19-9.07l0,0c0.17-0.17,0.44-0.17,0.61,0c0,0,0,0,0,0c0.06,0.06,0.11,0.13,0.14,0.22l0,0v8.66
		h0.84c0.24,0,0.43,0.19,0.43,0.43c0,0.24-0.19,0.43-0.43,0.43h-0.84v2.16c-0.05,0.24-0.29,0.4-0.53,0.35
		c-0.18-0.04-0.31-0.17-0.35-0.35L528.67,617.78z M528.67,616.92v-7.37l-5.91,7.37H528.67z"/>
	<path class="st11" d="M533.64,619.11c-0.17-0.16-0.18-0.44-0.02-0.61c0.01-0.01,0.01-0.01,0.02-0.02c0.17-0.18,0.46-0.18,0.64-0.01
		c0,0,0.01,0.01,0.01,0.01c0.64,0.61,1.49,0.95,2.37,0.95c0.89,0,1.75-0.35,2.37-0.99c1.31-1.3,1.32-3.42,0.02-4.73
		c-0.63-0.64-1.49-0.99-2.39-0.99c-0.9-0.01-1.76,0.35-2.39,0.99c-0.15,0.17-0.42,0.18-0.58,0.03c-0.01-0.01-0.02-0.02-0.03-0.03
		c-0.06-0.03-0.1-0.08-0.13-0.14l0,0l0,0c-0.01-0.05-0.01-0.1,0-0.14c0-0.03,0-0.06,0-0.09l0.61-5.05c0-0.13,0.07-0.25,0.18-0.32
		c0.08-0.07,0.18-0.11,0.29-0.11h5.87c0.25,0,0.45,0.2,0.45,0.45c0.01,0.24-0.17,0.44-0.41,0.45c-0.01,0-0.02,0-0.04,0h-5.39
		l-0.45,3.72c1.66-0.96,3.77-0.7,5.14,0.65c0.81,0.79,1.26,1.88,1.24,3.02c0.01,1.13-0.43,2.21-1.22,3.02
		c-0.81,0.79-1.89,1.23-3.02,1.24C535.61,620.43,534.47,619.96,533.64,619.11z"/>
	<path class="st11" d="M545.57,610.51c0.87-1.64,2.55-2.69,4.4-2.75c0.24-0.01,0.44,0.17,0.45,0.41c0,0,0,0,0,0
		c0,0.24-0.19,0.45-0.43,0.47c-1.52,0.08-2.88,0.95-3.59,2.3c-0.42,0.79-0.72,1.64-0.88,2.51c1.51-1.7,4.11-1.84,5.81-0.33
		c1.7,1.51,1.84,4.11,0.33,5.81s-4.11,1.84-5.81,0.33c-0.84-0.75-1.34-1.82-1.37-2.95c-0.02-0.27-0.02-0.54,0-0.81
		C544.43,613.77,544.8,612.06,545.57,610.51z M545.29,616.24c-0.01,0.08-0.01,0.16,0,0.23c0.01,0.04,0.01,0.08,0,0.13
		c0.12,1.84,1.71,3.24,3.55,3.12c1.84-0.12,3.24-1.71,3.12-3.55c-0.12-1.84-1.71-3.24-3.55-3.12c-1.68,0.11-3.01,1.44-3.12,3.12
		V616.24z"/>
	
		<rect x="358.37" y="642.18" transform="matrix(1 -2.617982e-03 2.617982e-03 1 -1.6868 1.0837)" class="st2" width="109.45" height="5.37"/>
	
		<rect x="358.4" y="654.19" transform="matrix(1 -2.617982e-03 2.617982e-03 1 -1.7183 1.042)" class="st2" width="77.5" height="5.37"/>
	
		<rect x="452.71" y="552.04" transform="matrix(1 -2.617982e-03 2.617982e-03 1 -1.4506 1.2586)" class="st2" width="54.59" height="5.37"/>
	<rect x="332.31" y="566.46" class="st8" width="243.68" height="119.42"/>
	<rect x="332.31" y="566.46" class="st12" width="243.68" height="119.42"/>
	<rect x="332.31" y="587.68" class="st8" width="243.68" height="119.42"/>
	<rect x="332.31" y="587.68" class="st13" width="243.68" height="119.42"/>
	<rect x="332.31" y="609.56" class="st8" width="243.68" height="97.54"/>
	<rect x="332.31" y="609.56" class="st12" width="243.68" height="97.54"/>
	<path class="st8" d="M572.82,734.62l-258.29-8.26V517.98l8.14,6.04c3.91,2.91,8.54,4.71,13.38,5.23h236.76V734.62z"/>
	
		<rect x="315.09" y="526.67" transform="matrix(0.6162 -0.7876 0.7876 0.6162 -294.934 451.6868)" class="st3" width="1.8" height="3.59"/>
	<path class="st3" d="M335.7,539.55c-0.99-0.1-1.97-0.26-2.95-0.47l0.38-1.8c0.88,0.19,1.78,0.34,2.68,0.45h4.2v1.8L335.7,539.55z
		 M345.45,539.55v-1.8h7.19v1.8H345.45z M358.03,539.55v-1.8h7.19v1.8H358.03z M370.6,539.55v-1.8h7.19v1.8H370.6z M383.18,539.55
		v-1.8h7.19v1.8H383.18z M395.75,539.55v-1.8h7.19v1.8H395.75z M408.33,539.55v-1.8h7.19v1.8H408.33z M420.9,539.55v-1.8h7.19v1.8
		H420.9z M433.48,539.55v-1.8h7.19v1.8H433.48z M446.05,539.55v-1.8h7.19v1.8H446.05z M458.63,539.55v-1.8h7.19v1.8H458.63z
		 M471.2,539.55v-1.8h7.19v1.8H471.2z M483.78,539.55v-1.8h7.19v1.8H483.78z M496.35,539.55v-1.8h7.19v1.8H496.35z M508.93,539.55
		v-1.8h7.19v1.8H508.93z M521.5,539.55v-1.8h7.19v1.8H521.5z M534.08,539.55v-1.8h7.19v1.8H534.08z M546.65,539.55v-1.8h7.19v1.8
		H546.65z M327.4,537.38c-2.19-0.93-4.26-2.14-6.14-3.59l-0.18-0.14l1.11-1.42l0.18,0.14c1.76,1.38,3.7,2.53,5.75,3.43L327.4,537.38
		z"/>
	<polygon class="st3" points="563.2,542.14 561.4,542.14 561.4,539.44 558.7,539.44 558.7,537.65 563.2,537.65 	"/>
	<path class="st3" d="M563.2,716.28h-1.8v-7.19h1.8V716.28z M563.2,703.83h-1.8v-7.1h1.8V703.83z M563.2,691.4h-1.8v-7.19h1.8V691.4
		z M563.2,678.97h-1.8v-7.19h1.8V678.97z M563.2,666.52h-1.8v-7.1h1.8V666.52z M563.2,654.09h-1.8v-7.19h1.8V654.09z M563.2,641.64
		h-1.8v-7.11h1.8V641.64z M563.2,629.21h-1.8v-7.19h1.8V629.21z M563.2,616.78h-1.8v-7.19h1.8V616.78z M563.2,604.33h-1.8v-7.19h1.8
		V604.33z M563.2,591.9h-1.8v-7.19h1.8V591.9z M563.2,579.45h-1.8v-7.1h1.8V579.45z M563.2,567.02h-1.8v-7.19h1.8V567.02z
		 M563.2,554.59h-1.8v-7.19h1.8V554.59z"/>
	<polygon class="st3" points="563.2,726.13 558.67,725.98 558.74,724.19 561.4,724.28 561.4,721.62 563.2,721.62 	"/>
	<path class="st3" d="M553.37,725.8l-7.08-0.23v-1.8l7.08,0.23V725.8z M540.99,725.39l-7.08-0.23v-1.8l7.08,0.23V725.39z
		 M528.6,724.98l-7.06-0.23v-1.8l7.08,0.23L528.6,724.98z M516.22,724.56l-7.08-0.23v-1.8l7.08,0.23V724.56z M503.84,724.15
		l-7.08-0.23v-1.8l7.06,0.23L503.84,724.15z M491.47,723.74l-7.08-0.23v-1.8l7.08,0.23V723.74z M479.09,723.32l-7.08-0.23v-1.8
		l7.08,0.23V723.32z M466.69,722.91l-7.06-0.23v-1.8l7.08,0.23L466.69,722.91z M454.26,722.55l-7.08-0.23v-1.8l7.08,0.23V722.55z
		 M441.89,722.14l-7.08-0.23v-1.8l7.06,0.23L441.89,722.14z M429.51,721.72l-7.08-0.23v-1.8l7.08,0.23V721.72z M417.13,721.31
		l-7.08-0.23v-1.8l7.08,0.23V721.31z M404.74,720.9l-7.06-0.23v-1.8l7.08,0.23L404.74,720.9z M392.36,720.48l-7.08-0.23v-1.8
		l7.08,0.23V720.48z M379.98,720.07l-7.08-0.23v-1.8l7.06,0.23L379.98,720.07z M367.6,719.66l-7.08-0.23v-1.8l7.08,0.23V719.66z
		 M355.23,719.24l-6.95-0.29v-1.8l7.08,0.23L355.23,719.24z M342.89,718.78l-7.06-0.23v-1.8l7.08,0.23L342.89,718.78z
		 M330.51,718.36l-7.08-0.23v-1.8l7.08,0.23V718.36z"/>
	
		<rect x="315.46" y="715.16" transform="matrix(0.0332 -0.9995 0.9995 0.0332 -410.6969 1009.3644)" class="st3" width="1.8" height="3.59"/>
	<path class="st0" d="M550.24,629.14c0,6.36-4.53,11.53-10.11,11.53c-5.59,0-10.13-5.17-10.13-11.53s4.53-11.53,10.13-11.53
		S550.24,622.81,550.24,629.14z"/>
	<path class="st1" d="M544.84,629.14c-0.36,2.59-2.75,4.41-5.34,4.05s-4.41-2.75-4.05-5.34c0.32-2.34,2.32-4.09,4.69-4.1
		C542.92,623.94,545.02,626.35,544.84,629.14z"/>
</g>
<g id="freepik--Character--inject-202">
	<path class="st14" d="M801.76,736.56c3.86,1.28,114.02,0.97,118.2-1.71c1.58-0.99,2.48-17.05,3-36.47
		c0.13-4.19,0.2-8.51,0.27-12.92c0.09-5.21,0.16-10.49,0.2-15.61c0.13-23.01-0.2-43.26-0.2-43.26h-71.71v43.26v15.61l0.38,12.92
		c0,0-42.07,19.01-46.35,22.37C801.27,724.11,797.91,735.3,801.76,736.56z"/>
	<path class="st3" d="M801.76,736.56c3.86,1.28,114.02,0.97,118.2-1.71c1.58-0.99,2.48-17.05,3-36.47c0.13-4.19,0.2-8.51,0.27-12.92
		c0.09-5.21,0.16-10.49,0.2-15.61h-71.86v15.61l0.38,12.92c0,0-42.13,19.01-46.4,22.37C801.27,724.11,797.91,735.3,801.76,736.56z"
		/>
	<path class="st8" d="M801.41,736.72c2.51,0.83,49.44,1.01,83.6,0.29c7.9-0.16,15.13-0.38,20.96-0.63
		c8.03-0.38,13.44-0.81,14.37-1.37c1.94-1.26,2.87-24.81,3.31-49.67h-72.13l0.36,12.99c0,0-42.34,19.1-46.71,22.54
		C800.82,724.33,797.57,735.43,801.41,736.72z"/>
	<path class="st5" d="M803,732.3c18.57-0.52,93.5-0.83,111.9,0.09c0.14,0,0.14,0.11,0,0.11c-18.4,0.92-93.32,0.61-111.9,0
		C802.6,732.59,802.6,732.3,803,732.3z"/>
	<path class="st5" d="M849.25,694.22c7.31-1.38,16.26-0.29,21.84,4.9c0.22,0.2,0,0.5-0.31,0.43c-7.01-2.23-14.23-3.71-21.56-4.4
		c-0.26,0-0.46-0.22-0.46-0.48S848.99,694.22,849.25,694.22z"/>
	<path class="st5" d="M844.08,697.4c7.31-1.38,16.26-0.29,21.84,4.9c0.22,0.2,0,0.5-0.31,0.43c-7.01-2.24-14.23-3.72-21.56-4.42
		c-0.25-0.06-0.41-0.3-0.36-0.56C843.74,697.58,843.89,697.43,844.08,697.4z"/>
	<path class="st5" d="M838.69,700.62c7.31-1.38,16.26-0.29,21.84,4.9c0.22,0.2,0,0.5-0.31,0.43c-7.01-2.25-14.23-3.73-21.56-4.42
		c-0.25-0.06-0.41-0.3-0.36-0.56C838.36,700.79,838.5,700.65,838.69,700.62z"/>
	<path class="st5" d="M833.46,703.81c7.31-1.4,16.17-0.31,21.84,4.89c0.22,0.22,0,0.52-0.31,0.43c-7.01-2.23-14.23-3.71-21.56-4.4
		c-0.25-0.06-0.41-0.3-0.36-0.56C833.13,703.99,833.28,703.85,833.46,703.81z"/>
	<path class="st5" d="M839.03,687.77c5.17,3.99,11.91,5.62,17.96,7.83c0.63,0.23,1.11-0.36,1.13-0.92c0.11,0,0.2-0.09,0.19-0.2
		c0-0.02-0.01-0.05-0.01-0.07c-2.24-6.46-6.13-12.21-11.3-16.69c-3.05-2.57-8.41-4.33-11.26-0.36
		C832.89,681.34,836,685.42,839.03,687.77z M837.15,681.9c-1.31-8.03,7.31-3.84,9.48-1.8c1.39,1.3,2.68,2.69,3.88,4.17
		c2.44,3.08,4.72,6.29,6.83,9.61c-2.91-1.26-5.89-2.28-8.84-3.43C845,688.99,837.86,686.3,837.15,681.9L837.15,681.9z"/>
	<path class="st5" d="M882.65,683.23c-1.8-4.56-7.4-4.19-10.99-2.48c-6.13,3.05-11.35,7.66-15.13,13.37
		c-0.06,0.09-0.02,0.22,0.07,0.27c0.01,0.01,0.02,0.01,0.04,0.02c-0.15,0.48,0.12,1,0.61,1.15c0.09,0.03,0.18,0.04,0.27,0.04
		c6.4-0.65,13.33-0.54,19.33-3.13C880.37,690.95,884.34,687.52,882.65,683.23z M867.02,692.62c-3.14,0.4-6.29,0.63-9.41,1.13
		c2.96-2.59,5.78-5.39,8.98-7.6c1.54-1.13,3.14-2.15,4.81-3.07c2.6-1.37,11.98-3.27,8.71,4.17
		C878.34,691.35,870.77,692.16,867.02,692.62z"/>
	<path class="st10" d="M887.91,736.92c6.77-0.18,12.95-0.36,18.05-0.57c8.05-0.36,13.44-0.81,14.37-1.38
		c1.47-0.93,2.37-14.71,2.91-32.16L887.91,736.92z"/>
	<path class="st7" d="M950.21,315.4c0,0-22.44,197.3-22.9,199.72c0,0.32-1.63,175.69-1.63,175.69h-79.04
		c0,0,2.78-151.63,5.75-180.07c3.79-36.27,30.65-195.34,30.65-195.34L950.21,315.4z"/>
	<path class="st5" d="M917.89,521.88c2.4-41.53,6.06-82.97,10.99-124.31c2.77-23.35,6.11-46.49,9.43-69.72c0-0.2,0.36-0.18,0.32,0
		c-6.13,41.32-10.46,82.96-14.19,124.56c-3.74,41.6-6.43,83.19-7.19,124.9c-0.45,23.5,0.11,71.48-0.65,95.1
		c-0.05,0.24-0.29,0.4-0.53,0.35c-0.18-0.04-0.31-0.17-0.35-0.35C914.66,630.02,915.41,563.93,917.89,521.88z"/>
	<path class="st5" d="M950.21,315.4c0,0-22.44,197.3-22.9,199.72c0,0.11-0.41,14.01-0.93,33.22L891.13,315.4H950.21z"/>
	<path class="st5" d="M851.14,675.93c11.77,0.59,59.86,1.15,70.2,0.54c0.72,0,0.84-0.56,0.09-0.57
		c-35.01-1.35-58.74-0.49-70.27-0.45c-0.14,0.03-0.22,0.17-0.19,0.3C850.99,675.84,851.05,675.91,851.14,675.93z"/>
	<path class="st14" d="M909.09,744.41c3.93,0.99,113.78-7.19,117.77-10.13c1.53-1.11,1.26-17.19,0.4-36.59
		c-0.16-4.19-0.2-8.53-0.65-12.9c-0.54-5.5-1.15-10.99-1.8-16.29c-2.78-22.98-6.04-42.18-6.04-42.18l-69.5,4.96l4.19,41.57
		l1.71,17.03l1.28,12.86c0,0-40.65,21.95-44.68,25.67C907.74,732.13,905.16,743.41,909.09,744.41z"/>
	<path class="st3" d="M909.09,744.41c3.93,0.99,113.78-7.19,117.77-10.13c1.53-1.11,1.26-17.19,0.4-36.59
		c-0.16-4.19-0.2-8.53-0.65-12.9c-0.54-5.5-1.15-10.99-1.8-16.29c-21.41,1.44-52.2,3.25-71.35,4.35l1.71,17.03l1.28,12.86
		c0,0-40.65,21.95-44.68,25.67C907.74,732.13,905.16,743.41,909.09,744.41z"/>
	<path class="st8" d="M908.75,744.57c3.95,1.01,114.41-7.19,118.44-10.17c1.8-1.38,1.1-24.93-0.25-49.78l-71.86,5.14l1.29,12.93
		c0,0-40.89,22.06-44.91,25.8C907.44,732.23,904.82,743.59,908.75,744.57z"/>
	<path class="st5" d="M910.02,740.05c18.48-1.8,93.2-7.47,111.61-7.87c0.14,0,0.16,0.09,0,0.11c-18.29,2.21-93.05,7.19-111.61,8.07
		C909.65,740.37,909.63,740.08,910.02,740.05z"/>
	<path class="st5" d="M953.46,698.78c7.19-1.9,16.17-1.46,22.13,3.32c0.23,0.18,0,0.52-0.29,0.45c-7.13-1.72-14.42-2.68-21.75-2.86
		c-0.26-0.02-0.45-0.24-0.43-0.5C953.13,699,953.27,698.84,953.46,698.78z"/>
	<path class="st5" d="M948.43,702.34c7.19-1.9,16.17-1.46,22.13,3.32c0.23,0.2,0,0.52-0.27,0.47c-7.13-1.74-14.43-2.7-21.77-2.87
		c-0.26-0.02-0.45-0.24-0.43-0.5C948.1,702.56,948.24,702.39,948.43,702.34z"/>
	<path class="st5" d="M943.4,705.9c7.19-1.9,16.17-1.44,22.15,3.34c0.22,0.18,0,0.5-0.29,0.45c-7.13-1.74-14.42-2.7-21.75-2.87
		c-0.26-0.01-0.46-0.23-0.45-0.49C943.07,706.13,943.21,705.95,943.4,705.9z"/>
	<path class="st5" d="M938.39,709.45c7.19-1.9,16.17-1.44,22.13,3.34c0.23,0.18,0,0.5-0.29,0.45c-7.13-1.73-14.42-2.69-21.75-2.87
		c-0.26-0.02-0.45-0.24-0.43-0.5C938.06,709.67,938.2,709.51,938.39,709.45z"/>
	<path class="st5" d="M942.88,693.05c5.39,3.59,12.27,4.78,18.45,6.56c0.65,0.18,1.1-0.45,1.08-1.01c0.11-0.01,0.19-0.11,0.17-0.22
		c0-0.02-0.01-0.03-0.01-0.05c-2.7-6.29-6.99-11.76-12.47-15.86c-3.23-2.32-8.69-3.7-11.26,0.45
		C936.27,687.07,939.59,690.95,942.88,693.05z M940.58,687.34c-1.8-7.9,7.02-4.35,9.32-2.53c1.48,1.2,2.88,2.5,4.19,3.88
		c2.64,2.91,5.14,5.95,7.47,9.11c-2.98-1.06-6.04-1.8-8.98-2.8c-3.75-1.19-11.05-3.31-12.09-7.65H940.58z"/>
	<path class="st5" d="M985.99,685.42c-2.1-4.4-7.69-3.59-11.16-1.67c-5.88,3.47-10.75,8.43-14.12,14.37
		c-0.06,0.08-0.04,0.19,0.03,0.25c0.03,0.02,0.06,0.03,0.09,0.04c-0.11,0.49,0.2,0.98,0.69,1.09c0.08,0.02,0.17,0.03,0.26,0.02
		c6.34-1.1,13.26-1.47,19.08-4.49C984.2,693.31,987.97,689.6,985.99,685.42z M971.07,695.91c-3.09,0.61-6.22,1.08-9.29,1.8
		c2.75-2.78,5.39-5.69,8.43-8.23c1.45-1.23,2.98-2.37,4.58-3.4c2.5-1.54,11.73-4.11,8.98,3.59c-1.51,4.13-9,5.51-12.72,6.23
		L971.07,695.91z"/>
	<path class="st7" d="M886.31,315.4c0,0-2.14,26.12,8.37,40.38c3.13,4.26,13.17,7.81,17.6,11.05c0,0,7.46,135.66,11.14,154.04
		c1.89,9.48,29.41,175.4,29.41,175.4l81.21-5.91c0,0-37.28-164.21-39.07-174.52c-1.8-10.31-9.93-135.18-9.38-138.12
		c7.8-42.11-8.57-62.32-8.57-62.32L886.31,315.4z"/>
	<path class="st5" d="M943.94,323.14c1.62,5.58,5.04,10.46,9.72,13.9c5.15,3.66,11.25,5.76,17.57,6.02c1.06,0.09,1.15,1.69,0,1.71
		c-12.9,0-25.92-8.17-27.81-21.56C943.37,322.93,943.87,322.85,943.94,323.14z"/>
	<path class="st5" d="M892.08,354c4.68,1.88,9.15,4.26,13.33,7.08c4.42,2.73,8.51,5.95,12.77,8.89c0.18,0.13,0,0.4-0.14,0.29
		c-4.49-2.59-9.14-4.81-13.58-7.49c-4.43-2.42-8.64-5.24-12.57-8.41C891.74,354.29,891.88,353.93,892.08,354z"/>
	<path class="st5" d="M890.26,327.13c0.68,2.95,1.54,5.87,2.32,8.8c0.77,2.93,1.31,5.55,2.17,8.26c0.72,2.63,2.18,5.01,4.2,6.84
		c1.15,0.95,2.39,1.8,3.59,2.68c0.65,0.47,1.35,0.92,2.01,1.38c-0.08-0.37-0.17-0.77-0.27-1.19c-0.25-1.11-0.5-2.23-0.74-3.36
		c-0.54-2.48-1.06-4.98-1.54-7.47c-0.99-4.92-1.9-9.88-3.16-14.73c-0.01-0.09,0.05-0.17,0.14-0.18c0.07-0.01,0.13,0.03,0.16,0.09
		c1.46,4.8,3.02,9.54,4.33,14.37c0.63,2.37,3.04,14.14,3.16,14.96c0.13,0.83,0.23,1.8,0.31,2.6c0.16,0.88,0.2,1.77,0.13,2.66
		c0,0.22-0.31,0.18-0.4,0l0,0c-0.4-0.8-0.69-1.65-0.86-2.53c-0.25-0.84-0.48-1.69-0.68-2.53c0-0.32-0.13-0.63-0.18-0.95
		c-1.2-0.65-2.34-1.54-3.45-2.28c-1.11-0.74-2.46-1.56-3.59-2.46c-2.14-1.64-3.73-3.89-4.56-6.45c-0.84-2.76-1.44-5.58-1.8-8.44
		c-0.52-3.34-0.95-6.72-1.58-10.04C889.92,327.02,890.21,326.93,890.26,327.13z"/>
	<path class="st5" d="M973.8,320.16c4.59,8.34,7.51,17.49,8.6,26.95c0.99,10.33-1.65,20.39-2.16,30.65
		c-0.52,10.58,0.2,21.2,0.68,31.76c0.49,10.89,0.96,21.77,1.42,32.66c0.46,10.89,0.92,21.66,1.4,32.34
		c0.47,10.78,0.7,21.56,1.56,32.34c1.16,10.51,3.07,20.93,5.71,31.17c2.4,10.63,4.83,21.28,7.29,31.92
		c4.83,21.18,15.5,71.68,19.76,92.96c0.52,2.62,1.08,5.25,1.6,7.87c-0.03,0.07-0.11,0.11-0.18,0.08c-0.04-0.01-0.07-0.05-0.08-0.08
		c-5.39-20.93-16.08-71.28-20.95-92.35c-2.4-10.53-4.83-21.05-7.29-31.58c-2.37-10.24-5.12-20.5-6.66-30.9
		c-1.26-10.37-1.98-20.8-2.16-31.24c-0.47-10.78-0.93-21.56-1.4-32.34c-0.47-10.78-0.94-21.66-1.42-32.66
		c-0.47-10.67-1.1-21.34-1.19-32.01c-0.08-5.2,0.12-10.41,0.61-15.59c0.52-5.17,1.54-10.29,1.92-15.48
		c0.56-9.91-1.06-19.83-4.74-29.05c-0.92-2.41-1.94-4.74-3.07-7.06C972.77,320.05,973.53,319.62,973.8,320.16z"/>
	<path class="st5" d="M955.35,679.67c11.77-0.4,59.73-3.79,70.06-5.26c0.72-0.09,0.79-0.63,0-0.59
		c-34.99,1.56-58.58,4.38-70.06,5.39c-0.13,0.05-0.19,0.2-0.14,0.33C955.23,679.59,955.28,679.65,955.35,679.67z"/>
	<path class="st14" d="M907.64,219.24c-23.71,28.35-63.92,57.11-76.89,56.69c-13.83-0.45-48.61-35.93-64.67-67.63
		c-2.64-5.26,41.6-17.57,49.89-10.6c4.49,3.79,21.05,31.76,24.86,32.34c2.03,0.31,35.3-17.05,57.65-26.17
		C918.52,195.7,915.36,209.99,907.64,219.24z"/>
	<path class="st14" d="M766.13,208.3c-3.36-4.98-16.81-29.12-19.06-36.66c-2.25-7.54-7.19-29.77-1.49-32.07
		c5.69-2.3,7.54,4.08,7.54,4.08s-0.56-9.7,5.3-11.5s8.55,8.23,8.55,8.23s0.14-10.01,6.13-11.39c5.98-1.38,6.99,9.16,6.99,9.16
		s-0.31-9.16,5.1-8.23c6.5,1.13,5.14,18.07,8.25,26.23c0.7,1.8,16.94,36.52,16.94,36.52L766.13,208.3z"/>
	<path class="st5" d="M779.98,137.25c-0.97,12.47,0.77,18.07,6.52,28.96c0.11,0.22-0.18,0.43-0.32,0.22
		c-6.59-10.15-9.79-16.87-6.79-29.26C779.53,136.57,780.04,136.66,779.98,137.25z"/>
	<path class="st5" d="M767.07,139.39c0.13,13.02,1.96,19.13,7.19,30.97c0,0.18-0.2,0.32-0.29,0.16
		c-6.05-11.19-9.07-17.96-7.49-31.02C766.49,138.9,767.07,138.72,767.07,139.39z"/>
	<path class="st5" d="M753.42,144.24c1.04,12.57,2.75,19.4,9.25,30.25c0.07,0.11,0.04,0.25-0.07,0.32
		c-0.11,0.07-0.25,0.04-0.32-0.07c-7.71-10.42-9.9-18.86-9.23-30.43C753.07,143.52,753.34,143.45,753.42,144.24z"/>
	<path class="st14" d="M816.02,197.7c0,0,1.46-15.59,0.57-22.58c-0.88-6.99-13.71-31.85-19.22-29.39
		c-7.19,3.2-2.55,19.01,0.72,26.44c0,0-16.53,7.37-15.68,19.42S816.02,197.7,816.02,197.7z"/>
	<path class="st5" d="M795.68,147.26c-4.4,7.6,0.5,17.1,3.13,24.56c0.15,0.38-0.04,0.81-0.42,0.96c-0.08,0.03-0.16,0.05-0.25,0.05
		c-6.72,3.59-15.14,10.49-16.17,18.45c0,0.1-0.08,0.18-0.18,0.18c-0.1,0-0.18-0.08-0.18-0.18c-0.11-8.68,7.62-16.17,15.23-19.6
		c-2.82-7.6-7.31-17.35-1.28-24.45C795.58,147.17,795.72,147.2,795.68,147.26z"/>
	<path class="st8" d="M817.49,197.3l-46.11,28.04c0,0,40.11,52.35,61.96,51.84s68.12-46.4,77.24-61.08
		c9.13-14.68,0.81-18.22-14.08-12.27c-14.89,5.95-54.22,23.55-55.11,23.42S817.49,197.3,817.49,197.3z"/>
	<path class="st5" d="M781.87,233.59c7.02-3.81,35.3-20.41,41.17-24.4c0.4-0.29,0.34-0.61-0.13-0.38
		c-21.36,10.89-34.47,20.41-41.19,24.48C781.56,233.41,781.69,233.68,781.87,233.59z"/>
	<path class="st10" d="M910.55,216.06c-7.04,11.41-36.36,41.5-59.39,54.74l53.68-69.47C914.14,199.8,917.73,204.4,910.55,216.06z"/>
	<path class="st0" d="M881.32,332.16c2.8,2.21,103.15,0,103.6-0.84c1.24-2.14-20.1-99.74-67.27-130.38
		c-8.32-5.39-20.86-1.46-26.26,2.87c-2.69,2.16-9.2,17.62-10.13,30.9C880.31,247.98,879.56,330.76,881.32,332.16z"/>
	<path class="st8" d="M914.52,198.69c0,0-5.39,62.87-5.59,65.42s7.01,77.15,7.01,77.15l74.66-4.54c0,0-10.78-71.53-49.08-114.54
		C922.24,200.57,914.52,198.69,914.52,198.69z"/>
	<path class="st8" d="M889.82,204.87c0,0-2.48,55.54-2.35,59.01c0.13,3.47,0.34,74.91,0.34,74.91l-10.99-2.46
		c0,0,2.23-48.36,2.5-52.1c0.27-3.74,0.72-44.59,1.69-52.29C882.5,219.56,889.82,204.87,889.82,204.87z"/>
	<path class="st8" d="M862.94,369.99c0.02,6.7-5.39,12.15-12.09,12.18l-109.81,0.4V152.07l108.95-0.4
		c6.7-0.03,12.15,5.37,12.18,12.07c0,0.01,0,0.01,0,0.02L862.94,369.99z"/>
	<path class="st12" d="M862.94,369.99c0.02,6.7-5.39,12.15-12.09,12.18l-109.81,0.4V152.07l108.95-0.4
		c6.7-0.03,12.15,5.37,12.18,12.07c0,0.01,0,0.01,0,0.02L862.94,369.99z"/>
	<path class="st7" d="M751.96,337.31c0.02,6.22-4.73,11.42-10.92,11.98V325.4C747.2,325.98,751.92,331.13,751.96,337.31z"/>
	<path class="st8" d="M752.01,352.08c0.01,6.24-4.76,11.46-10.98,12v-23.91C747.22,340.73,751.96,345.88,752.01,352.08z"/>
	<path class="st8" d="M840.07,178.61l0.1,28.19c0.02,4.17-3.35,7.56-7.52,7.57l-14.82,0.05c-4.17,0.02-7.56-3.35-7.57-7.52
		l-0.1-28.19c-0.02-4.17,3.35-7.56,7.52-7.57l14.82-0.05C836.67,171.08,840.06,174.44,840.07,178.61z"/>
	<path class="st3" d="M824.32,355.62v-19.58c-0.01-4.53,3.65-8.21,8.17-8.23l0,0c4.52-0.02,8.21,3.63,8.23,8.16
		c0,0.01,0,0.01,0,0.02v19.56c0.02,4.52-3.63,8.21-8.16,8.23c-0.01,0-0.01,0-0.02,0l0,0C828.02,363.8,824.34,360.14,824.32,355.62
		C824.32,355.62,824.32,355.62,824.32,355.62z"/>
	<path class="st11" d="M784.06,169.91l-1.47-2.41c-0.1-0.2-0.35-0.29-0.55-0.18c-0.01,0.01-0.03,0.01-0.04,0.02
		c-0.2,0.11-0.27,0.36-0.16,0.56c0.01,0.01,0.01,0.02,0.02,0.03l1.04,1.8h-10.78c-0.23,0.01-0.41,0.2-0.41,0.43
		c0,0.24,0.19,0.43,0.43,0.43h11.51c0.1,0.04,0.22,0.04,0.32,0c0.21-0.13,0.27-0.41,0.14-0.62
		C784.1,169.95,784.08,169.93,784.06,169.91z"/>
	<path class="st11" d="M783.13,174.65l-0.57-0.61c-0.16-0.17-0.44-0.18-0.61-0.02c-0.17,0.16-0.18,0.44-0.02,0.61l0.57,0.61
		c1.18,1.33,1.08,3.35-0.22,4.56c-0.59,0.54-1.36,0.84-2.16,0.86c-0.92-0.01-1.79-0.4-2.41-1.08l-5.39-5.84
		c-0.18-0.17-0.47-0.17-0.65,0c-0.09,0.08-0.13,0.2-0.13,0.32l0,0v6.99c0.05,0.24,0.29,0.4,0.53,0.35c0.18-0.04,0.31-0.17,0.35-0.35
		v-5.93l4.63,4.9c1.5,1.67,4.06,1.81,5.73,0.32c0.02-0.02,0.05-0.04,0.07-0.06c0.85-0.77,1.34-1.87,1.33-3.02
		C784.17,176.3,783.78,175.37,783.13,174.65z"/>
	<path class="st11" d="M784.24,185.65c0-0.25-0.2-0.45-0.45-0.45c-0.25,0-0.45,0.2-0.45,0.45v4.81l-3.23-3.11
		c-0.17-0.18-0.46-0.18-0.64-0.01c0,0-0.01,0.01-0.01,0.01l0,0c-0.11,0.09-0.18,0.22-0.18,0.36c0.02,0.89-0.33,1.75-0.97,2.37
		c-0.62,0.63-1.47,0.99-2.35,0.99c-0.89,0-1.75-0.35-2.39-0.97c-1.31-1.32-1.31-3.44,0-4.76c0.17-0.16,0.18-0.44,0.02-0.61
		c-0.01-0.01-0.01-0.01-0.02-0.02c-0.15-0.17-0.41-0.18-0.58-0.03c-0.01,0.01-0.02,0.02-0.03,0.03c-0.81,0.79-1.26,1.87-1.26,3
		c0.02,2.36,1.94,4.26,4.29,4.26c1.13,0,2.21-0.44,3-1.24c0.58-0.6,0.98-1.35,1.15-2.17l3.34,3.23h0.14c0.06,0.02,0.13,0.02,0.2,0
		c0.25,0,0.45-0.2,0.45-0.45L784.24,185.65z"/>
	<path class="st11" d="M784.08,202.46L784.08,202.46l-8.98-7.19c-0.14-0.16-0.39-0.18-0.56-0.03c-0.01,0.01-0.02,0.02-0.03,0.03
		c-0.03,0.08-0.03,0.17,0,0.25v6.86h-2.28c-0.24,0.05-0.4,0.29-0.35,0.53c0.04,0.18,0.17,0.31,0.35,0.35h2.16v0.84
		c0,0.24,0.19,0.44,0.43,0.45c0.24-0.02,0.43-0.22,0.43-0.47v-0.83h8.6h0.13c0.08-0.03,0.16-0.08,0.22-0.14
		c0.16-0.16,0.16-0.42,0-0.58C784.16,202.51,784.12,202.48,784.08,202.46z M775.1,202.46v-5.95l7.37,5.91L775.1,202.46z"/>
	<path class="st11" d="M784.35,219.04c0-0.11-0.04-0.21-0.11-0.29c-0.07-0.11-0.19-0.18-0.32-0.18l-5.05-0.59h-0.31
		c-0.06,0.03-0.11,0.07-0.14,0.13c-0.17,0.15-0.18,0.42-0.03,0.58c0.01,0.01,0.02,0.02,0.03,0.03c0.64,0.63,0.99,1.49,0.99,2.39
		c0.02,0.89-0.32,1.74-0.95,2.37c-1.32,1.29-3.44,1.29-4.76,0c-0.63-0.63-0.99-1.48-0.99-2.37c0-0.88,0.34-1.73,0.95-2.37
		c0.18-0.17,0.18-0.46,0.01-0.64c0,0-0.01-0.01-0.01-0.01c-0.17-0.17-0.45-0.17-0.63,0c-0.79,0.81-1.22,1.89-1.22,3.02
		c0.02,1.12,0.47,2.2,1.26,3c0.8,0.8,1.89,1.24,3.02,1.22c1.13,0.01,2.21-0.44,3-1.24c0.81-0.79,1.25-1.87,1.22-3
		c0-0.75-0.2-1.49-0.57-2.14l3.74,0.43v5.57c-0.01,0.24,0.17,0.44,0.41,0.45c0.01,0,0.02,0,0.04,0c0.25,0,0.45-0.2,0.45-0.45
		L784.35,219.04z"/>
	<path class="st11" d="M781.65,230.03c-1.54-0.81-3.26-1.22-4.99-1.2c-0.27-0.03-0.55-0.03-0.83,0c-2.29,0.05-4.11,1.95-4.06,4.24
		c0.05,2.29,1.95,4.11,4.24,4.06c2.29-0.02,4.14-1.89,4.13-4.19c-0.01-1.19-0.53-2.32-1.44-3.09c0.88,0.15,1.73,0.45,2.51,0.88
		c1.35,0.71,2.22,2.07,2.3,3.59c0.02,0.24,0.22,0.43,0.47,0.43c0.24-0.01,0.42-0.21,0.41-0.45c0,0,0,0,0,0
		C784.31,232.5,783.26,230.87,781.65,230.03z M779.27,233c0,1.81-1.46,3.27-3.26,3.28c-1.81,0-3.27-1.46-3.28-3.26
		c0-1.64,1.21-3.03,2.84-3.25h0.13h0.23l0,0C777.74,229.74,779.23,231.19,779.27,233z"/>
	<path class="st11" d="M784.37,240.29c0-0.24-0.19-0.43-0.43-0.43c-0.24,0-0.43,0.19-0.43,0.43v6.07l-11.03-4.6
		c-0.23-0.07-0.47,0.04-0.57,0.25c-0.01,0.06-0.01,0.12,0,0.18c0.01,0.17,0.11,0.31,0.27,0.38l11.55,4.83
		c0.08,0.03,0.16,0.03,0.23,0h0.14c0.11-0.05,0.21-0.14,0.27-0.25c0.03-0.09,0.03-0.18,0-0.27L784.37,240.29z"/>
	<path class="st11" d="M781.87,251.52c-0.83,0-1.6,0.38-2.1,1.04c-0.87-2.08-3.26-3.05-5.34-2.18c-2.08,0.87-3.05,3.26-2.18,5.34
		c0.64,1.51,2.12,2.5,3.76,2.5c1.65-0.02,3.14-1.02,3.77-2.55c0.85,1.16,2.48,1.41,3.64,0.55c1.16-0.85,1.41-2.48,0.55-3.64
		C783.49,251.91,782.7,251.51,781.87,251.52z M776.01,257.29c-1.76,0.02-3.2-1.39-3.22-3.14c0-0.02,0-0.04,0-0.05
		c-0.01-1.78,1.42-3.22,3.2-3.23c1.78-0.01,3.22,1.42,3.23,3.2c0.01,1.78-1.42,3.22-3.2,3.23
		C776.03,257.29,776.02,257.29,776.01,257.29z M781.89,255.81c-0.97,0.22-1.93-0.38-2.15-1.35c-0.22-0.97,0.38-1.93,1.35-2.15
		c0.26-0.06,0.54-0.06,0.8,0c0.99,0,1.8,0.8,1.8,1.8c-0.01,0.99-0.81,1.78-1.8,1.78L781.89,255.81z"/>
	<path class="st11" d="M780.43,272.29c-2.29,0.01-4.14,1.88-4.13,4.17c0,0,0,0,0,0c-0.01,1.19,0.5,2.33,1.4,3.11
		c-0.88-0.15-1.73-0.45-2.51-0.88c-1.35-0.7-2.23-2.07-2.3-3.59c-0.01-0.25-0.22-0.44-0.47-0.43c0,0,0,0,0,0
		c-0.24,0.01-0.42,0.21-0.41,0.45c0,0,0,0,0,0l0,0c0.08,1.84,1.12,3.51,2.75,4.38c1.88,0.95,3.99,1.34,6.09,1.13h0.09
		c2.27-0.3,3.87-2.39,3.57-4.66c-0.27-2.05-2.01-3.59-4.07-3.61V272.29z M780.43,279.72c-1.82,0.03-3.31-1.42-3.34-3.23
		c-0.03-1.82,1.42-3.31,3.23-3.34c1.82-0.03,3.31,1.42,3.34,3.23c0,0.01,0,0.02,0,0.04c0.03,1.8-1.4,3.28-3.2,3.31
		c-0.01,0-0.01,0-0.02,0H780.43z"/>
	<path class="st11" d="M782.71,284.97c-1.32-0.81-2.85-1.22-4.4-1.19c-1.54-0.02-3.06,0.4-4.37,1.22c-1.73,0.97-2.35,3.16-1.38,4.89
		c0.32,0.58,0.8,1.06,1.38,1.38c1.31,0.82,2.84,1.24,4.38,1.2c1.55,0.02,3.08-0.4,4.4-1.22c1.74-0.96,2.36-3.15,1.4-4.88
		c-0.33-0.59-0.81-1.08-1.4-1.4H782.71z M782.23,290.52c-2.4,1.42-5.38,1.42-7.78,0c-0.87-0.49-1.44-1.39-1.51-2.39
		c0.07-1,0.63-1.9,1.49-2.41c2.41-1.41,5.39-1.41,7.8,0c1.33,0.65,1.88,2.25,1.24,3.58c-0.26,0.54-0.7,0.97-1.24,1.24V290.52z"/>
	<path class="st11" d="M784.55,298.48l-1.47-2.41c-0.1-0.2-0.35-0.29-0.55-0.18c-0.01,0.01-0.03,0.01-0.04,0.02
		c-0.2,0.11-0.27,0.36-0.16,0.56c0.01,0.01,0.01,0.02,0.02,0.03l1.04,1.8H772.6c-0.24,0.02-0.42,0.21-0.43,0.45
		c0,0.23,0.18,0.41,0.41,0.41c0.01,0,0.01,0,0.02,0h11.53c0.11,0.03,0.22,0.03,0.32,0c0.21-0.13,0.27-0.41,0.14-0.62
		C784.58,298.52,784.56,298.5,784.55,298.48z"/>
	<path class="st11" d="M783.61,303.15l-0.57-0.61c-0.16-0.17-0.44-0.18-0.61-0.02c-0.17,0.16-0.18,0.44-0.02,0.61l0.56,0.61
		c0.54,0.6,0.83,1.37,0.83,2.17c0.02,0.91-0.36,1.78-1.04,2.39c-0.59,0.54-1.36,0.84-2.16,0.86c-0.91-0.01-1.78-0.4-2.39-1.08
		l-5.39-5.84c-0.18-0.17-0.47-0.17-0.65,0c-0.09,0.08-0.13,0.2-0.13,0.32v7.06c0.02,0.23,0.2,0.41,0.43,0.43
		c0.24,0,0.44-0.19,0.45-0.43v-5.93l4.56,4.99c0.78,0.86,1.89,1.35,3.05,1.33c1.01,0,1.99-0.38,2.73-1.08
		c0.87-0.76,1.35-1.87,1.33-3.02C784.63,304.91,784.27,303.92,783.61,303.15z"/>
	<path class="st11" d="M784.8,324.96c0-0.25-0.2-0.45-0.45-0.45c-0.25,0-0.45,0.2-0.45,0.45v4.81l-3.22-3.11
		c-0.17-0.18-0.46-0.18-0.64-0.01c0,0-0.01,0.01-0.01,0.01l0,0c-0.11,0.09-0.18,0.22-0.18,0.36c0.01,1.86-1.49,3.36-3.35,3.37
		c-0.89,0-1.75-0.35-2.38-0.98c-0.62-0.64-0.97-1.5-0.97-2.39c0.02-0.88,0.35-1.72,0.95-2.37c0.17-0.15,0.18-0.42,0.03-0.58
		c-0.01-0.01-0.02-0.02-0.03-0.03c-0.16-0.17-0.44-0.18-0.61-0.02c-0.01,0.01-0.01,0.01-0.02,0.02c-0.79,0.8-1.24,1.88-1.24,3
		c0,1.13,0.46,2.21,1.28,3c0.79,0.81,1.88,1.26,3.02,1.24c1.12,0,2.2-0.44,3-1.24c0.59-0.59,0.98-1.34,1.13-2.16l3.36,3.23h0.14
		c0.06,0.02,0.13,0.02,0.2,0c0.25,0,0.45-0.2,0.45-0.45L784.8,324.96z"/>
	<path class="st11" d="M784.6,341.72L784.6,341.72l-9.07-7.19c-0.15-0.17-0.42-0.18-0.58-0.03c-0.01,0.01-0.02,0.02-0.03,0.03
		c-0.06,0.07-0.1,0.17-0.09,0.27l0,0v6.79h-2.16c-0.24,0-0.43,0.19-0.43,0.43c-0.01,0.23,0.17,0.42,0.39,0.43c0.01,0,0.02,0,0.04,0
		h2.16v1.06c0,0.24,0.19,0.43,0.43,0.43c0.24,0,0.43-0.19,0.43-0.43v-0.84h8.6h0.13c0.08-0.03,0.16-0.08,0.22-0.14
		c0.22-0.06,0.35-0.28,0.3-0.5C784.89,341.86,784.76,341.74,784.6,341.72z M775.71,341.72v-5.93l7.29,5.93H775.71z"/>
	<path class="st11" d="M784.8,347.61c0-0.11-0.04-0.21-0.11-0.29c-0.07-0.11-0.19-0.18-0.32-0.18l-5.07-0.59H779
		c-0.06,0.02-0.11,0.06-0.14,0.11c-0.17,0.16-0.18,0.44-0.02,0.61c0.01,0.01,0.01,0.01,0.02,0.02c0.64,0.63,0.99,1.49,0.99,2.39
		c0,0.88-0.34,1.73-0.95,2.37c-0.64,0.63-1.5,0.98-2.39,0.97c-1.86,0.01-3.36-1.49-3.37-3.35c0-0.88,0.34-1.73,0.96-2.36
		c0.18-0.17,0.18-0.46,0.01-0.64c0,0-0.01-0.01-0.01-0.01c-0.16-0.17-0.44-0.18-0.61-0.02c-0.01,0.01-0.01,0.01-0.02,0.02
		c-0.79,0.8-1.23,1.89-1.22,3.02c0.01,1.13,0.45,2.21,1.24,3.02c1.68,1.64,4.36,1.64,6.04,0c0.79-0.8,1.23-1.88,1.22-3
		c0-0.75-0.2-1.49-0.59-2.14l3.74,0.43v5.39c-0.01,0.23,0.17,0.42,0.39,0.43c0.02,0,0.04,0,0.06,0c0.25,0,0.45-0.2,0.45-0.45
		L784.8,347.61z"/>
	<path class="st11" d="M782.14,358.6c-1.54-0.81-3.25-1.23-4.99-1.2c-0.28-0.02-0.55-0.02-0.83,0c-2.29,0.08-4.08,2-4,4.29
		s2,4.08,4.29,4c2.24-0.08,4.01-1.92,4.01-4.16c0-1.19-0.52-2.32-1.42-3.09c0.88,0.15,1.73,0.44,2.51,0.88
		c1.35,0.7,2.22,2.07,2.28,3.59c0.02,0.24,0.22,0.43,0.47,0.43c0.24-0.01,0.42-0.21,0.41-0.45c0,0,0,0,0,0
		C784.8,361.08,783.75,359.44,782.14,358.6z M779.73,361.57c0,1.81-1.46,3.27-3.26,3.28c-1.81,0-3.27-1.46-3.28-3.26
		c0-1.64,1.21-3.03,2.84-3.25h0.13h0.23l0,0c1.81-0.04,3.3,1.39,3.34,3.2C779.73,361.54,779.73,361.55,779.73,361.57L779.73,361.57z
		"/>
	
		<rect x="744.9" y="171.4" transform="matrix(1 -3.665167e-03 3.665167e-03 1 -0.8238 2.7416)" class="st7" width="5.37" height="109.45"/>
	
		<rect x="835.13" y="265.65" transform="matrix(1 -3.665167e-03 3.665167e-03 1 -1.0681 3.0727)" class="st7" width="5.37" height="54.59"/>
	<path class="st14" d="M939.75,224.07c28.74,39.9,58.71,105.12,41.42,116.35c-15.79,10.28-63.68-6-95.37-22.72
		c-6.02-3.18,6.86-52.45,13.85-50.41c12.88,3.74,35.93,14.6,36.81,14.93c1.8,0.7-7.06-27.81-15.05-55.36
		C912.49,196.1,923.37,201.26,939.75,224.07z"/>
	<path class="st14" d="M908.86,270.43c0,0-19.47-6.63-32.34-10.26c-7.19-2.03-19.76-4.4-25.74-3.47
		c-8.98,1.38-45.27,12.86-42.68,21.74c2.35,8.03,32.34-5.78,32.34-5.78s-31.49,11.26-26.95,20.42s36.39-10.98,36.39-10.98
		s-32.08,12.32-25.85,21c4.72,6.57,34.54-10.04,34.54-10.04s-27.5,10.78-22.94,17.75c5.03,7.69,33.52-5.91,33.52-5.91
		c14.59,15.74,27.95,17.26,37.6,17.23C909.16,322.13,908.86,270.43,908.86,270.43z"/>
	<path class="st5" d="M851.08,268.06c-3.75,1.2-7.56,2.39-11.19,3.9c-3.63,1.51-7.19,3.16-10.67,5.03
		c-4.58,2.32-8.88,5.16-12.81,8.48c7.4-5.39,20.32-11.01,23.95-12.57c3.63-1.56,7.19-3.22,10.78-4.74
		C851.26,268.15,851.26,268.06,851.08,268.06z"/>
	<path class="st5" d="M856.8,281.05c-4.71,1.8-9.47,3.27-14.1,5.21c-4.63,1.94-11.01,4.85-15.48,7.19
		c-0.34,0.16-0.23,0.74,0.11,0.57c4.56-2.07,11.21-4.74,15.81-6.74s9.09-4.2,13.72-6.04C856.92,281.14,856.87,281.03,856.8,281.05z"
		/>
	<path class="st5" d="M863.73,291.42c-7.3,2.48-14.32,5.7-20.96,9.61c-0.34,0.2,0,0.32,0.29,0.16c6.92-3.32,12.31-5.98,20.75-9.52
		C863.93,291.52,863.84,291.29,863.73,291.42z"/>
	<path class="st8" d="M925.44,206.29c22.1,16.96,73.99,108.77,60.43,131.14c-13.56,22.37-86.96-11.28-86.96-11.28l11.64-58.85
		c0,0,20.53,8.98,21.31,7.96c0.77-1.02-7.9-31.35-11.43-43.71C916.9,219.18,913.69,197.27,925.44,206.29z"/>
	<path class="st5" d="M912.34,326.63c1.99-8.39,8.86-42.95,9.84-50.53c0-0.52-0.25-0.7-0.4-0.16c-6.56,24.97-8.25,42.29-9.77,50.6
		C911.89,326.73,912.22,326.82,912.34,326.63z"/>
	<path class="st5" d="M910.13,266.46c2.28,0.65,4.51,1.46,6.66,2.44c1.96,0.79,3.93,1.58,5.87,2.39c4.24,1.8,8.43,3.59,12.57,5.57
		s8.32,3.86,12.45,5.87c4.13,2.01,8.12,4.26,12.23,6.27c0.2,0.09,0,0.38-0.16,0.29c-4.17-1.96-8.48-3.59-12.7-5.39l-12.41-5.39
		l-12.41-5.39l-6.05-2.69c-1.98-0.86-3.9-1.8-5.8-2.8c-0.15,1.1-0.36,2.18-0.65,3.25C909.34,270.52,909.63,266.36,910.13,266.46z"/>
	<path class="st5" d="M921.22,245.34c1.06,1.69,2.1,3.4,3.09,5.14l0.52,0.99c-0.23-0.88-0.47-1.8-0.68-2.62
		c-0.93-3.02-1.69-6.09-2.26-9.2c0-0.14,0.18-0.18,0.25,0c1.2,3.07,2.22,6.21,3.07,9.4c0.95,3.07,1.92,6.14,2.82,9.23
		c0.9,3.09,1.8,6.18,2.66,9.29c0.93,3.03,1.64,6.13,2.12,9.27c0,0.18-0.23,0.22-0.31,0c-1.29-3.04-2.37-6.17-3.22-9.36
		c-0.93-3.09-1.8-6.2-2.66-9.29c-0.36-1.29-0.7-2.6-1.06-3.9c-0.18-0.31-0.34-0.63-0.52-0.92c-0.5-0.84-0.95-1.8-1.38-2.57
		c-0.92-1.8-1.8-3.59-2.55-5.39L921.22,245.34z"/>
	<path class="st5" d="M898.9,326.18c3.16,1.08,6.31,2.26,9.43,3.43l9.36,3.59l9.36,3.59c3.13,1.17,6.25,2.32,9.47,3.27
		c-3.33-0.48-6.61-1.24-9.81-2.28c-3.22-0.97-6.36-2.1-9.5-3.31c-3.14-1.2-6.22-2.46-9.27-3.86S901.85,327.78,898.9,326.18z"/>
	<path class="st5" d="M986.16,336.96c0.42-1.1,0.72-2.25,0.9-3.41c0.2-1.17,0.34-2.32,0.43-3.5c0.22-2.34,0.23-4.69,0.36-7.1
		c0.14,0.57,0.23,1.17,0.36,1.8l0.2,1.8c0.09,1.2,0.09,2.4,0,3.59c-0.09,1.22-0.31,2.42-0.66,3.59
		C987.43,334.89,986.89,335.99,986.16,336.96z"/>
	<path class="st14" d="M896.62,220.73c6.41,0.72,15.97-10.1,19.26-18.32c0.23-0.56-4.53-21.43-5.03-25.67
		c-0.11-0.86-25.83,9.66-25.83,9.66c2.16,5.11,3.69,10.47,4.54,15.95C889.62,202.96,890.43,220.03,896.62,220.73z"/>
	<path class="st5" d="M885.02,186.4L885.02,186.4c0,0.13,0.27,0.63,0.57,1.44c0.54,1.37,1.38,3.59,2.14,6.2
		c0.83,2.71,1.43,5.49,1.8,8.3c0,0.2,0,0.4,0,0.59v0.09c0,0.34,0,0.81,0.11,1.37c0.87,0.01,1.74-0.05,2.6-0.18
		c14.37-2.07,17.16-20.42,17.69-27.39l-0.47,0.13c-0.68,0.2-1.58,0.5-2.66,0.88l-0.83,0.31l-5.91,2.21l-2.12,0.83l-4.49,1.8
		c-0.61,0.27-1.22,0.5-1.8,0.72l-1.8,0.74l-0.84,0.34l-0.4,0.16l-2.12,0.86l-1.02,0.41l-0.43,0.18l0,0L885.02,186.4z"/>
	<path class="st14" d="M912.47,149.99c2.68,9.56-2.96,36.83-9.86,42.79c-10.01,8.62-26.05,9.09-33.32-2.84
		c-7.04-11.55,0.95-46.98,8.62-52.36C889.2,129.74,908.5,135.89,912.47,149.99z"/>
	<path class="st5" d="M885.29,165.42c0,0,0.13,0.11,0.11,0.2c-0.49,1.8-0.74,3.97,0.79,4.96c0,0,0,0.13,0,0.11
		C884.19,169.93,884.53,167.05,885.29,165.42z"/>
	<path class="st5" d="M887.37,163.87c2.98,0.45,1.8,6.4-0.92,5.98C883.74,169.44,884.86,163.5,887.37,163.87z"/>
	<path class="st5" d="M874.62,163.68c0,0-0.16,0-0.16,0.14c-0.31,1.8-0.95,3.92-2.73,4.22v0.11
		C873.74,168.24,874.62,165.49,874.62,163.68z"/>
	<path class="st5" d="M873.27,161.43c-2.93-0.79-4.29,5.12-1.58,5.86C874.4,168.02,875.73,162.08,873.27,161.43z"/>
	<path class="st5" d="M890.05,161.54c-0.81-0.29-1.51-0.66-2.28-1.02c-0.85-0.24-1.6-0.76-2.12-1.47c-0.25-0.52-0.12-1.15,0.32-1.53
		c0.99-0.59,2.22-0.59,3.22,0c1.09,0.4,2,1.2,2.53,2.23c0.27,0.7-0.08,1.49-0.78,1.76C890.65,161.61,890.34,161.63,890.05,161.54z"
		/>
	<path class="st5" d="M871.51,157.75c0.86,0,1.65-0.11,2.5-0.16c0.88,0.06,1.76-0.16,2.5-0.65c0.41-0.41,0.5-1.05,0.22-1.56
		c-0.71-0.91-1.86-1.35-3-1.17c-1.16,0-2.27,0.43-3.13,1.2c-0.54,0.53-0.54,1.39-0.01,1.93
		C870.83,157.59,871.16,157.74,871.51,157.75z"/>
	<path class="st5" d="M883.73,182.86c-0.52,0.34-1.08,0.86-1.8,0.79c-0.65-0.16-1.26-0.44-1.8-0.84 M880.02,182.81
		c0.4,0.85,1.22,1.4,2.16,1.46c0.83-0.03,1.54-0.58,1.8-1.37c0,0-0.18-0.09-0.25-0.04L880.02,182.81z"/>
	<path class="st5" d="M882.85,176.97c-1.21,1.27-2.88,1.99-4.63,1.99c-0.77-0.01-1.54-0.12-2.28-0.32l-0.43-0.14
		c-0.13-0.03-0.26-0.08-0.38-0.14c-0.19-0.07-0.32-0.26-0.31-0.47l0,0c-0.01-0.06-0.01-0.12,0-0.18l0,0v-0.16
		c0.22-1.44,0.77-3.59,0.77-3.59c-0.57,0.16-3.43,0.84-3.25,0.11c1.38-6.37,3.41-12.58,6.05-18.54c0.04-0.09,0.14-0.14,0.23-0.1
		c0.08,0.03,0.13,0.12,0.11,0.21c-1.26,5.89-3.59,11.53-4.89,17.42c1.03-0.26,2.09-0.37,3.14-0.32c0.18,0-1.13,4.1-1.19,4.74l0,0
		c2.3,0.67,4.78,0.39,6.88-0.77C882.86,176.68,882.99,176.84,882.85,176.97z"/>
	<path class="st5" d="M876.81,178.06c0.59,1.17,1.47,2.16,2.55,2.89c0.6,0.37,1.3,0.56,2.01,0.52c1.54-0.11,1.8-1.46,1.8-2.66
		c-0.03-0.65-0.14-1.28-0.32-1.9C881.01,177.93,878.89,178.34,876.81,178.06z"/>
	<path class="st15" d="M879.36,180.96c0.6,0.37,1.3,0.56,2.01,0.52c1.54-0.11,1.8-1.46,1.8-2.66
		C881.56,178.59,880,179.47,879.36,180.96z"/>
	<path class="st5" d="M909.88,175.55c0,0,10.94-16.17,10.51-25.74c-0.2-4.37-5.95-7.6-5.95-7.6c1.11-3.57,0.11-7.46-2.59-10.04
		c-4.89-5.1-17.37-4.67-17.37-4.67s-7.44-12.07-19.1-8.07s-4.9,17.34-4.9,17.34s-4.49,5.73,5.48,10.9
		c9.97,5.17,30.31,1.67,30.31,1.67c-1.32,6.95-1.6,14.06-0.81,21.09C905.86,172.83,907.56,174.81,909.88,175.55z"/>
	<path class="st5" d="M892.58,127.55c2.6-0.91,5.36-1.26,8.1-1.04c2.46,0.08,4.9,0.59,7.19,1.51c4.02,1.69,7.51,4.9,7.96,9.45
		c0.23,2.25-0.46,4.49-1.92,6.22c0,0-0.16,0-0.11-0.11c2.82-3.11,1.69-8.26-0.88-11.14c-3.17-3.09-7.38-4.9-11.8-5.08
		c-2.82-0.19-5.66-0.04-8.44,0.43c-0.06,0.03-0.14,0.01-0.17-0.06c-0.03-0.06-0.01-0.14,0.06-0.17
		C892.57,127.56,892.57,127.55,892.58,127.55z"/>
	<path class="st5" d="M866.95,124.51c1.24-3.02,3.9-5.22,7.1-5.87c3.6-0.9,7.39-0.56,10.78,0.95c3.4,1.54,6.34,3.96,8.5,7.01
		c0,0,0,0.16-0.13,0c-3.95-5.47-10.58-8.35-17.28-7.49c-4.96,0.13-8.88,4.25-8.75,9.21c0.03,1.35,0.37,2.67,0.99,3.87
		c1.54,3.19,3.95,5.87,6.95,7.74c0,0,0,0.14,0,0.11c-2.85-1.59-5.24-3.87-6.97-6.63C866.46,130.76,866.03,127.51,866.95,124.51z"/>
	<path class="st5" d="M873.47,148.08c4.45,2.09,9.3,3.19,14.21,3.23c5.1,0.14,10.2-0.28,15.22-1.26c2.91-0.54,5.8-1.2,8.69-1.9
		 M911.59,148.3c-5.08,1.86-10.34,3.18-15.7,3.95c-4.98,0.66-10.04,0.34-14.89-0.93c-2.66-0.72-5.22-1.78-7.62-3.14
		c0,0,0.04-0.13,0.09-0.09L911.59,148.3z"/>
	<path class="st14" d="M905.82,172.15c0,0,6.59-8.59,10.51-6.22c3.92,2.37-1.28,15.02-6.09,16.56c-2.46,0.99-5.25-0.19-6.24-2.65
		c-0.03-0.07-0.05-0.14-0.08-0.21L905.82,172.15z"/>
	<path class="st5" d="M914.75,169.66c-3.36,1.2-5.25,4.19-6.59,7.31c0.78-1.23,2.41-1.6,3.64-0.82c0.12,0.08,0.24,0.16,0.34,0.26
		c0.09,0,0,0.2,0,0.18c-1.18-0.43-2.5-0.08-3.31,0.88c-0.64,0.8-1.2,1.66-1.67,2.57c-0.16,0.29-0.68,0.11-0.56-0.23l0,0
		c0.05-4.29,3.59-10.04,8.14-10.28V169.66z"/>
	<path class="st0" d="M889.65,204.6l8.01,15.18l17.59-22.1l6.25,5.86c0,0-15.93,33.84-16.17,32.34l-7.96-12.99l-8.39,10.58
		l-1.8-23.93L889.65,204.6z"/>
	<path class="st5" d="M887.39,221.68c-0.14-3.95-0.41-7.94-0.38-11.91c0-0.13,0.22-0.22,0.27,0c1.17,3.72,1.67,18.86,2.07,22.45l0,0
		c0.36-0.45,7.87-9.27,7.96-9.16c1.65,2.03,7.47,11.48,7.89,12.34c2.51-5.39,12.29-24.97,15.4-30.13c0.09-0.14,0.31,0,0.23,0.11
		c-2.12,5.62-15,31.99-15.23,31.94c-3.02-4.42-5.8-9-8.34-13.72c-1.22,1.89-8.71,11.73-8.8,11.14
		C887.87,230.41,887.51,226.05,887.39,221.68z"/>
</g>
</svg>
