<?xml version="1.0" encoding="utf-8"?>
<!-- Generator: Adobe Illustrator 23.1.0, SVG Export Plug-In . SVG Version: 6.00 Build 0)  -->
<svg version="1.1" id="Layer_1" xmlns="http://www.w3.org/2000/svg" xmlns:xlink="http://www.w3.org/1999/xlink" x="0px" y="0px"
	 viewBox="0 0 1366 768" style="enable-background:new 0 0 1366 768;" xml:space="preserve">
<style type="text/css">
	.st0{fill:#92E3A9;}
	.st1{opacity:0.7;fill:#FFFFFF;enable-background:new    ;}
	.st2{fill:#FFFFFF;stroke:#B2B2B2;stroke-linejoin:round;}
	.st3{fill:none;stroke:#B2B2B2;stroke-linejoin:round;}
	.st4{fill:#B2B2B2;stroke:#B2B2B2;stroke-linejoin:round;}
	.st5{fill:#FFFFFF;stroke:#263238;stroke-linejoin:round;}
	.st6{fill:none;stroke:#263238;stroke-linejoin:round;}
	.st7{fill:#263238;}
	.st8{fill:#FFFFFF;stroke:#263238;stroke-miterlimit:10;}
	.st9{fill:#263238;stroke:#263238;stroke-miterlimit:10;}
	.st10{fill:none;stroke:#263238;stroke-miterlimit:10;}
</style>
<g id="freepik--background-simple--inject-115">
	<path class="st0" d="M1049.67,435.94c-25.11,67.21-76.38,139.97-148.54,161.51c-109.1,32.56-122.05,120.43-317.34,112.28
		c-28.53-1.05-56.85-5.2-84.48-12.38c-13.49-3.56-26.74-7.98-39.67-13.21c-114.09-46.21-173.6-147.91-178.53-254.32
		c-6.51-139.97,91.13-206.67,154.59-245.72S575.66-6.23,767.69,0.2c29.32,0.88,58.45,5.14,86.8,12.68
		c64.62,17.49,130.3,56.17,168.49,112.71c2.86,4.26,5.6,8.6,8.22,13.02C1082.3,225.3,1083.88,344.3,1049.67,435.94z"/>
	<path class="st1" d="M1049.67,435.94c-25.11,67.21-76.38,139.97-148.54,161.51c-109.1,32.56-122.05,120.43-317.34,112.28
		c-28.53-1.05-56.85-5.2-84.48-12.38c-13.49-3.56-26.74-7.98-39.67-13.21c-114.09-46.21-173.6-147.91-178.53-254.32
		c-6.51-139.97,91.13-206.67,154.59-245.72S575.66-6.23,767.69,0.2c29.32,0.88,58.45,5.14,86.8,12.68
		c64.62,17.49,130.3,56.17,168.49,112.71c2.86,4.26,5.6,8.6,8.22,13.02C1082.3,225.3,1083.88,344.3,1049.67,435.94z"/>
</g>
<g id="freepik--Plants--inject-115">
	<path class="st0" d="M873.29,362.37c0,0,2.57-25.74-7.72-37.33c-10.3-11.59-25.74,2.57-21.89,18.02
		C847.53,358.5,873.29,362.37,873.29,362.37z"/>
	<path class="st0" d="M843.65,477.04c0,0,4.07-40.06-11.93-58.16c-16.01-18.1-40.11,4.02-34.09,28.09S843.65,477.04,843.65,477.04z"
		/>
	<path class="st0" d="M835.02,542.05c0,0-4.4-40.08-23.86-54.4s-38.41,12.26-27.51,34.55C794.53,544.51,835.02,542.05,835.02,542.05
		z"/>
	<path class="st0" d="M875.86,575.6c-23.69,4.57-44.93,38.85-44.93,38.85s35.49,19.62,54.91,4.19
		C905.25,603.22,899.57,571.05,875.86,575.6z"/>
	<path class="st0" d="M883.7,636c-33.92,6.53-64.28,55.57-64.28,55.57s50.78,28.08,78.57,5.98
		C925.78,675.46,917.63,629.47,883.7,636z"/>
	<path class="st0" d="M828.3,614.99c1.07,0,1.7,0,1.7,0s-0.22-1.91-0.75-5.11c2.71-15.19,5.45-34.3,8.71-57.14l1.36-9.51
		c9.24,4.38,35.8,15.12,51.6,2.52c19.42-15.44,13.74-47.59-9.97-43.03c-17.15,3.29-33,22.16-40.45,32.3
		c2.1-14.49,4.38-30.07,6.95-46.38c0.44-2.76,0.94-5.63,1.48-8.61c9.12,6.73,31.43,20.83,48.68,12.24
		c22.16-11.06,23.32-43.71-0.82-44.17c-17.39-0.32-36.72,14.68-46.16,23.1c3.41-17.18,8.3-37.02,13.43-56.63
		c5.54,4.16,20.3,13.82,31.66,8.17c14.25-7.11,14.97-28.04-0.53-28.33c-11.27-0.22-23.76,9.58-29.76,14.97
		c4.13-15.61,8.39-30.87,12.26-44.32c6.38,4.52,19.74,12.31,30.19,7.09c14.23-7.11,14.97-28.04-0.53-28.33
		c-9.85-0.19-20.64,7.26-27.27,12.75c5.66-19.55,10.09-33.97,11.23-37.71c5.76-3.82,23.15-15.75,26.05-22.89
		c3.49-8.59-0.64-18.39-9.23-21.88s-18.39,0.64-21.88,9.23l0,0c-2.78,6.82,0.94,26.17,2.54,33.68l-1.02-0.32
		c-0.15,0.46-5.93,19.14-13.38,45.04l-0.46,0.46l0.26,0.22c-4.01,13.98-8.52,30.02-12.84,46.4c0.24-7.77-0.22-24.44-7.96-33.14
		c-10.23-11.59-25.74,2.57-21.87,18.02c3.41,13.81,24.38,18.34,28.77,19.16c-5.78,22.04-11.2,44.44-14.76,63.07l-0.8,0.82l0.56,0.48
		c-0.72,3.75-1.35,7.36-1.88,10.77c-3.66,23.22-6.82,44.97-9.51,64.16c-2.57,17.98-4.81,33.65-6.97,46.89
		c-3.2-12.84-9.43-30.12-20.85-38.52c-19.45-14.34-38.41,12.26-27.51,34.55c8.34,17.05,33.97,19.62,45.57,19.88
		c-0.44,2.28-0.87,4.47-1.31,6.55c-1.7,8.27-4.53,31.04-7.28,56.03c-3.82-18.41-12.78-49.21-31.66-63.07
		c-27.82-20.46-54.94,17.54-39.36,49.43c13.07,26.78,56,28.6,69.43,28.5c-3.68,34.89-6.95,69.52-7.21,72.17l4.02,0.38
		c0.12-1.21,11.51-121.52,16.01-142.54C827.3,620.04,827.79,617.67,828.3,614.99z"/>
	<path class="st0" d="M496.12,233.29c0,0-10.74-23.3-24.8-26.34s-19.42,18.9-8.63,29.37C473.48,246.79,496.12,233.29,496.12,233.29z
		"/>
	<path class="st0" d="M529.43,348.9c0,0-16.74-36.36-38.64-41.06c-21.9-4.7-30.29,29.46-13.47,45.77
		C494.14,369.92,529.43,348.9,529.43,348.9z"/>
	<path class="st0" d="M554.81,409.18c0,0-23.51-30.8-46.3-30.16c-22.79,0.65-24.79,35.27-4.93,46.93S554.81,409.18,554.81,409.18z"
		/>
	<path class="st0" d="M604.37,410.83c-16.81,19.25-16.81,61.84-16.81,61.84s38.34-6.58,46.26-32.18
		C641.75,414.89,621.19,391.57,604.37,410.83z"/>
	<path class="st0" d="M640.79,456.46c-24.05,27.55-24.07,88.49-24.07,88.49s54.84-9.41,66.21-46.03
		C694.3,462.31,664.81,428.92,640.79,456.46z"/>
	<path class="st0" d="M585.7,474.86l1.33-1.14c0,0-1.13-1.47-3.12-3.77c-5.39-14.54-12.7-32.39-21.44-53.68l-3.65-8.88
		c9.63-2.32,36.33-10.55,42.79-31.43c7.94-25.57-12.63-48.92-29.46-29.66c-12.15,13.91-15.51,40.04-16.45,53.44
		c-5.54-13.53-11.46-28.13-17.51-43.52c-1.01-2.59-2.05-5.32-3.09-8.18c10.69-0.27,35.68-2.93,45.26-21.38
		c12.36-23.73-2.98-51.89-22.64-36.56c-14.17,11.01-22.25,36.19-25.65,49.43c-5.76-16.69-11.76-36.51-17.39-56.25
		c6.53-0.1,23.23-1.59,29.54-13.72c7.93-15.24-1.91-33.29-14.52-23.47c-9.17,7.14-14.35,23.52-16.52,31.93
		c-4.43-15.78-8.52-31.4-12.21-45.22c7.38-0.34,22.01-2.49,27.82-13.64c7.93-15.22-1.91-33.29-14.52-23.46
		c-8.01,6.24-12.99,19.52-15.55,28.4c-5.11-20.11-8.8-35.1-9.73-39c2.74-6.94,10.79-28.28,9.56-36.17
		c-1.47-9.49-9.68-15.03-18.34-12.38c-8.66,2.66-14.47,12.51-13.01,22.01c1.18,7.59,13.79,21.39,18.75,26.66l-0.99,0.39
		c0.1,0.48,4.76,19.94,11.64,46.54c-0.09,0.41-0.14,0.7-0.14,0.7h0.32c3.73,14.37,8.1,30.68,12.77,47.34
		c-3.66-6.68-12.36-20.46-22.91-22.67c-14.05-3.05-19.43,18.89-8.63,29.35c9.65,9.36,28.76-0.43,32.7-2.61
		c6.32,22.28,13.13,44.64,19.55,62.65l-0.24,1.21h0.68c1.32,3.63,2.6,7.03,3.85,10.23c8.52,21.89,16.94,42.19,24.29,60.11
		c6.82,16.77,12.89,31.4,17.75,43.93c-8.97-8.69-22.59-19.18-35.97-18.75c-22.77,0.61-24.79,35.27-4.93,46.93
		c15.19,8.92,37.11-5.61,46.57-12.9c0.78,2.19,1.52,4.31,2.2,6.34c2.69,8.11,11.8,28.98,22.06,51.82
		c-12.26-12.99-34.81-33.05-56.92-32.39c-32.58,0.87-35.47,50.46-7.06,67.13c23.86,14,59.3-12.38,70.06-21.21
		c14.4,31.72,28.98,62.95,30.12,65.36l3.41-2.3c-0.51-1.11-51.26-109.61-58.11-130.2C587.42,479.75,586.59,477.34,585.7,474.86z"/>
	<path class="st0" d="M455.07,531.21c0,0-11.69-10.89-20.46-9.34c-8.76,1.55-6.82,15.48,1.94,18.97
		C445.32,544.34,455.07,531.21,455.07,531.21z"/>
	<path class="st0" d="M501.56,589.97c0,0-18.22-17.05-31.96-14.54c-13.74,2.51-10.5,24.12,3.05,29.56
		C486.2,610.43,501.56,589.97,501.56,589.97z"/>
	<path class="st0" d="M530.42,618.71c0,0-20.83-12.21-33.8-6.48c-12.97,5.73-5.97,26.18,8.22,28.21
		C519.01,642.47,530.42,618.71,530.42,618.71z"/>
	<path class="st0" d="M559.36,607.97c-5.11,15.05,4.91,39.62,4.91,39.62s20.46-12.85,19.07-29.47
		C581.97,601.49,564.51,592.9,559.36,607.97z"/>
	<path class="st0" d="M591.12,625.68c-7.36,21.55,7.06,56.76,7.06,56.76s29.39-18.38,27.27-42.17S598.47,604.12,591.12,625.68z"/>
	<path class="st0" d="M563.73,649.27c0.32-0.61,0.49-0.97,0.49-0.97s-1.01-0.58-2.69-1.43c-6.53-7.11-14.95-15.67-25.02-25.88
		l-4.19-4.26c4.99-3.61,18.43-14.66,17.23-28.21c-1.47-16.64-18.84-25.21-23.98-10.14c-3.72,10.89,0.51,26.75,3.14,34.69
		c-6.39-6.49-13.23-13.5-20.35-20.95c-1.21-1.26-2.44-2.59-3.72-3.99c6.09-2.68,19.86-10.11,21.04-23.01
		c1.52-16.59-13.96-29.2-21.68-15.73c-5.56,9.7-4.26,26.12-3.12,34.55c-7.26-8.27-15.34-18.27-23.32-28.37
		c3.75-1.6,13.02-6.39,13.79-14.88c0.97-10.65-8.97-18.75-13.91-10.09c-3.6,6.29-2.73,16.94-1.98,22.3
		c-6.29-8.06-12.38-16.06-17.71-23.18c4.18-1.94,12.09-6.63,12.8-14.44c0.97-10.65-8.97-18.75-13.91-10.11
		c-3.15,5.49-2.88,14.32-2.25,20.05c-7.74-10.36-13.36-18.15-14.81-20.18c0-4.64-0.46-18.84-3.03-23.1
		c-3.09-5.11-9.14-6.38-13.48-2.8c-4.47,4.03-5.44,10.67-2.3,15.8c2.45,4.09,12.99,9.09,17.05,10.93l-0.48,0.46
		c0.19,0.26,7.45,10.38,17.71,24.07l0.09,0.44h0.19c5.54,7.4,11.93,15.8,18.53,24.26c-3.68-2.98-11.93-8.83-18.55-7.65
		c-8.83,1.57-6.82,15.48,1.94,18.96c7.77,3.12,16.48-7.04,18.24-9.22c8.9,11.35,18.1,22.64,26.05,31.48l0.15,0.75l0.41-0.14
		c1.6,1.7,3.15,3.41,4.64,5.01c10.13,10.59,19.72,20.32,28.19,28.98c7.93,8.05,14.83,15.05,20.59,21.12
		c-7.23-2.9-17.54-5.71-25.16-2.35c-12.99,5.73-5.97,26.18,8.23,28.21c10.86,1.55,20.06-11.93,23.78-18.44
		c0.99,1.09,1.91,2.15,2.76,3.15c3.41,4.04,13.64,13.94,24.96,24.65c-10.13-4.59-27.87-10.82-40.47-5.27
		c-18.56,8.2-8.52,37.5,11.78,40.37c17.05,2.42,31.26-21.14,35.37-28.76c15.8,14.88,31.59,29.42,32.8,30.53l1.43-2.13
		c-0.55-0.51-55.42-51.14-64.21-61.37C565.87,651.76,564.82,650.5,563.73,649.27z"/>
	<path class="st0" d="M808.21,177.55c0,0,3.41-15.61-2.44-22.4c-5.85-6.78-16.74,2.1-15.34,11.35
		C791.82,175.76,808.21,177.55,808.21,177.55z"/>
	<path class="st0" d="M781.34,247.49c0,0,5.32-24.33-3.78-34.91c-9.1-10.59-26.1,3.27-23.86,17.69S781.34,247.49,781.34,247.49z"/>
	<path class="st0" d="M771.32,286.97c0,0-0.1-24.12-11.66-32.39c-11.56-8.27-25.57,8.22-20.06,21.46
		C745.1,289.29,771.32,286.97,771.32,286.97z"/>
	<path class="st0" d="M795.34,306.4c-15.6,3.26-31.59,24.43-31.59,24.43s21.51,11.11,35.08,1.38
		C812.4,322.48,810.92,303.15,795.34,306.4z"/>
	<path class="st0" d="M796.27,342.75c-22.3,4.65-45.19,34.95-45.19,34.95s30.79,15.9,50.18,1.98S818.57,338.11,796.27,342.75z"/>
	<path class="st0" d="M762.01,331.29h1.09c0,0,0-1.14-0.14-3.03c2.78-9.24,5.85-20.85,9.49-34.72c0.49-1.89,1-3.81,1.53-5.78
		c5.66,2.45,22.01,8.39,33.05,0.44c13.64-9.73,12.09-28.98-3.41-25.81c-11.27,2.35-22.76,14.08-28.25,20.46
		c2.34-8.81,4.88-18.27,7.65-28.19c0.46-1.7,0.97-3.41,1.53-5.23c5.4,3.87,18.75,11.93,30.51,6.38c15.05-7.14,18-26.9,2.49-26.68
		c-11.18,0.17-24.65,9.65-31.31,14.93c3.41-10.47,7.88-22.57,12.51-34.52c3.29,2.4,12.14,7.93,19.84,4.28
		c9.65-4.59,11.54-17.27,1.59-17.05c-7.24,0.1-15.96,6.29-20.2,9.67c3.73-9.53,7.52-18.84,10.93-27.05
		c3.8,2.59,11.93,7.02,18.96,3.65c9.67-4.59,11.54-17.27,1.59-17.05c-6.32,0-13.77,4.82-18.39,8.27
		c4.99-11.93,8.81-20.73,9.82-23.03c3.97-2.42,15.97-9.99,18.34-14.37c2.83-5.28,0.82-11.11-4.48-13.04
		c-5.72-1.75-11.88,0.78-14.71,6.05c-2.27,4.21-1.19,15.8-0.66,20.3l-0.63-0.17c-0.14,0.29-5.11,11.69-11.69,27.51l-0.32,0.29
		l0.15,0.12c-3.55,8.52-7.52,18.32-11.44,28.31c0.7-4.69,1.52-14.76-2.86-19.86c-5.85-6.82-16.76,2.1-15.34,11.34
		c1.28,8.28,14.44,10.59,17.22,10.99c-5.22,13.45-10.23,27.1-13.81,38.46l-0.56,0.51l0.32,0.27c-0.72,2.28-1.36,4.48-1.94,6.55
		c-3.94,14.11-7.43,27.27-10.5,38.99c-2.88,10.94-5.39,20.46-7.69,28.5c-1.18-7.69-4.02-18-10.79-22.86
		c-11.56-8.25-25.57,8.22-20.08,21.46c4.21,10.14,20.54,11.17,27.99,11.08c-0.43,1.4-0.87,2.71-1.3,3.97
		c-1.7,5.11-5.11,18.87-8.52,34.09c-1.21-11.05-4.89-29.49-16.09-37.5c-16.52-11.81-36.58,11.74-28.72,30.68
		c6.6,15.92,34.09,16.13,42.77,15.78c-4.76,21.17-9.22,42.17-9.56,43.78l2.57,0.15c0.15-0.75,15.68-73.71,20.01-86.51
		C761.02,334.29,761.52,332.79,762.01,331.29z"/>
</g>
<g id="freepik--Coins--inject-115">
	<rect x="669.14" y="745.91" class="st2" width="141.89" height="20.4"/>
	<line class="st3" x1="676.93" y1="746.29" x2="676.93" y2="760.76"/>
	<line class="st3" x1="684.69" y1="765.4" x2="684.69" y2="749.39"/>
	<line class="st3" x1="694.51" y1="746.29" x2="694.51" y2="763.86"/>
	<line class="st3" x1="705.35" y1="745.77" x2="705.35" y2="758.68"/>
	<line class="st3" x1="715.17" y1="746.8" x2="715.17" y2="764.88"/>
	<line class="st3" x1="724.99" y1="765.4" x2="724.99" y2="754.55"/>
	<line class="st3" x1="733.76" y1="746.8" x2="733.76" y2="757.14"/>
	<line class="st3" x1="746.16" y1="762.31" x2="746.16" y2="756.1"/>
	<rect x="762.32" y="746.64" class="st4" width="8.4" height="19.01"/>
	<rect x="773.81" y="746.64" class="st4" width="2.66" height="19.01"/>
	<rect x="662.31" y="725.46" class="st2" width="141.89" height="20.4"/>
	<line class="st3" x1="670.11" y1="725.83" x2="670.11" y2="740.3"/>
	<line class="st3" x1="677.87" y1="744.94" x2="677.87" y2="728.93"/>
	<line class="st3" x1="687.69" y1="725.83" x2="687.69" y2="743.41"/>
	<line class="st3" x1="698.53" y1="725.32" x2="698.53" y2="738.22"/>
	<line class="st3" x1="708.35" y1="726.34" x2="708.35" y2="744.43"/>
	<line class="st3" x1="718.17" y1="744.94" x2="718.17" y2="734.1"/>
	<line class="st3" x1="726.95" y1="726.34" x2="726.95" y2="736.69"/>
	<line class="st3" x1="739.34" y1="741.85" x2="739.34" y2="735.65"/>
	<rect x="755.5" y="726.19" class="st4" width="8.4" height="19.01"/>
	<rect x="766.99" y="726.19" class="st4" width="2.66" height="19.01"/>
	<rect x="667.44" y="705" class="st2" width="141.89" height="20.4"/>
	<line class="st3" x1="675.23" y1="705.37" x2="675.23" y2="719.85"/>
	<line class="st3" x1="682.98" y1="724.48" x2="682.98" y2="708.48"/>
	<line class="st3" x1="692.8" y1="705.37" x2="692.8" y2="722.95"/>
	<line class="st3" x1="703.64" y1="704.86" x2="703.64" y2="717.77"/>
	<line class="st3" x1="713.46" y1="705.89" x2="713.46" y2="723.97"/>
	<line class="st3" x1="723.28" y1="724.48" x2="723.28" y2="713.64"/>
	<line class="st3" x1="732.06" y1="705.89" x2="732.06" y2="716.23"/>
	<line class="st3" x1="744.45" y1="721.4" x2="744.45" y2="715.19"/>
	<rect x="760.61" y="705.73" class="st4" width="8.4" height="19.01"/>
	<rect x="772.1" y="705.73" class="st4" width="2.66" height="19.01"/>
	<rect x="662.31" y="684.54" class="st2" width="141.89" height="20.4"/>
	<line class="st3" x1="670.11" y1="684.92" x2="670.11" y2="699.39"/>
	<line class="st3" x1="677.87" y1="704.03" x2="677.87" y2="688.02"/>
	<line class="st3" x1="687.69" y1="684.92" x2="687.69" y2="702.49"/>
	<line class="st3" x1="698.53" y1="684.41" x2="698.53" y2="697.31"/>
	<line class="st3" x1="708.35" y1="685.43" x2="708.35" y2="703.52"/>
	<line class="st3" x1="718.17" y1="704.03" x2="718.17" y2="693.19"/>
	<line class="st3" x1="726.95" y1="685.43" x2="726.95" y2="695.78"/>
	<line class="st3" x1="739.34" y1="700.94" x2="739.34" y2="694.74"/>
	<rect x="755.5" y="685.28" class="st4" width="8.4" height="19.01"/>
	<rect x="766.99" y="685.28" class="st4" width="2.66" height="19.01"/>
	<rect x="667.44" y="664.09" class="st2" width="141.89" height="20.4"/>
	<line class="st3" x1="675.23" y1="664.46" x2="675.23" y2="678.94"/>
	<line class="st3" x1="682.98" y1="683.57" x2="682.98" y2="667.57"/>
	<line class="st3" x1="692.8" y1="664.46" x2="692.8" y2="682.04"/>
	<line class="st3" x1="703.64" y1="663.95" x2="703.64" y2="676.86"/>
	<line class="st3" x1="713.46" y1="664.97" x2="713.46" y2="683.06"/>
	<line class="st3" x1="723.28" y1="683.57" x2="723.28" y2="672.73"/>
	<line class="st3" x1="732.06" y1="664.97" x2="732.06" y2="675.32"/>
	<line class="st3" x1="744.45" y1="680.49" x2="744.45" y2="674.28"/>
	<rect x="760.61" y="664.82" class="st4" width="8.4" height="19.01"/>
	<rect x="772.1" y="664.82" class="st4" width="2.66" height="19.01"/>
	<rect x="667.44" y="643.63" class="st2" width="141.89" height="20.4"/>
	<line class="st3" x1="675.23" y1="644.01" x2="675.23" y2="658.48"/>
	<line class="st3" x1="682.98" y1="663.12" x2="682.98" y2="647.11"/>
	<line class="st3" x1="692.8" y1="644.01" x2="692.8" y2="661.58"/>
	<line class="st3" x1="703.64" y1="643.5" x2="703.64" y2="656.4"/>
	<line class="st3" x1="713.46" y1="644.52" x2="713.46" y2="662.61"/>
	<line class="st3" x1="723.28" y1="663.12" x2="723.28" y2="652.28"/>
	<line class="st3" x1="732.06" y1="644.52" x2="732.06" y2="654.87"/>
	<line class="st3" x1="744.45" y1="660.03" x2="744.45" y2="653.83"/>
	<rect x="760.61" y="644.37" class="st4" width="8.4" height="19.01"/>
	<rect x="772.1" y="644.37" class="st4" width="2.66" height="19.01"/>
	<rect x="665.73" y="623.18" class="st2" width="141.89" height="20.4"/>
	<line class="st3" x1="673.52" y1="623.55" x2="673.52" y2="638.02"/>
	<line class="st3" x1="681.28" y1="642.66" x2="681.28" y2="626.65"/>
	<line class="st3" x1="691.1" y1="623.55" x2="691.1" y2="641.13"/>
	<line class="st3" x1="701.94" y1="623.04" x2="701.94" y2="635.94"/>
	<line class="st3" x1="711.76" y1="624.06" x2="711.76" y2="642.15"/>
	<line class="st3" x1="721.58" y1="642.66" x2="721.58" y2="631.82"/>
	<line class="st3" x1="730.36" y1="624.06" x2="730.36" y2="634.41"/>
	<line class="st3" x1="742.75" y1="639.58" x2="742.75" y2="633.37"/>
	<rect x="758.91" y="623.91" class="st4" width="8.4" height="19.01"/>
	<rect x="770.4" y="623.91" class="st4" width="2.66" height="19.01"/>
	<rect x="657.19" y="602.72" class="st2" width="141.89" height="20.4"/>
	<line class="st3" x1="665" y1="603.1" x2="665" y2="617.57"/>
	<line class="st3" x1="672.76" y1="622.21" x2="672.76" y2="606.2"/>
	<line class="st3" x1="682.57" y1="603.1" x2="682.57" y2="620.67"/>
	<line class="st3" x1="693.42" y1="602.58" x2="693.42" y2="615.49"/>
	<line class="st3" x1="703.23" y1="603.61" x2="703.23" y2="621.69"/>
	<line class="st3" x1="713.05" y1="622.21" x2="713.05" y2="611.36"/>
	<line class="st3" x1="721.83" y1="603.61" x2="721.83" y2="613.95"/>
	<line class="st3" x1="734.22" y1="619.12" x2="734.22" y2="612.91"/>
	<rect x="750.38" y="603.45" class="st4" width="8.4" height="19.01"/>
	<rect x="761.87" y="603.45" class="st4" width="2.66" height="19.01"/>
	<rect x="658.9" y="582.27" class="st2" width="141.89" height="20.4"/>
	<line class="st3" x1="666.7" y1="582.64" x2="666.7" y2="597.11"/>
	<line class="st3" x1="674.46" y1="601.75" x2="674.46" y2="585.74"/>
	<line class="st3" x1="684.28" y1="582.64" x2="684.28" y2="600.22"/>
	<line class="st3" x1="695.12" y1="582.13" x2="695.12" y2="595.03"/>
	<line class="st3" x1="704.94" y1="583.15" x2="704.94" y2="601.24"/>
	<line class="st3" x1="714.76" y1="601.75" x2="714.76" y2="590.91"/>
	<line class="st3" x1="723.54" y1="583.15" x2="723.54" y2="593.5"/>
	<line class="st3" x1="735.93" y1="598.66" x2="735.93" y2="592.46"/>
	<rect x="752.09" y="583" class="st4" width="8.4" height="19.01"/>
	<rect x="763.58" y="583" class="st4" width="2.66" height="19.01"/>
	<rect x="657.19" y="561.81" class="st2" width="141.89" height="20.4"/>
	<line class="st3" x1="665" y1="562.18" x2="665" y2="576.66"/>
	<line class="st3" x1="672.76" y1="581.29" x2="672.76" y2="565.29"/>
	<line class="st3" x1="682.57" y1="562.18" x2="682.57" y2="579.76"/>
	<line class="st3" x1="693.42" y1="561.67" x2="693.42" y2="574.58"/>
	<line class="st3" x1="703.23" y1="562.7" x2="703.23" y2="580.78"/>
	<line class="st3" x1="713.05" y1="581.29" x2="713.05" y2="570.45"/>
	<line class="st3" x1="721.83" y1="562.7" x2="721.83" y2="573.04"/>
	<line class="st3" x1="734.22" y1="578.21" x2="734.22" y2="572"/>
	<rect x="750.38" y="562.54" class="st4" width="8.4" height="19.01"/>
	<rect x="761.87" y="562.54" class="st4" width="2.66" height="19.01"/>
	<rect x="667.44" y="541.35" class="st2" width="141.89" height="20.4"/>
	<line class="st3" x1="675.23" y1="541.73" x2="675.23" y2="556.2"/>
	<line class="st3" x1="682.98" y1="560.84" x2="682.98" y2="544.83"/>
	<line class="st3" x1="692.8" y1="541.73" x2="692.8" y2="559.3"/>
	<line class="st3" x1="703.64" y1="541.22" x2="703.64" y2="554.12"/>
	<line class="st3" x1="713.46" y1="542.24" x2="713.46" y2="560.33"/>
	<line class="st3" x1="723.28" y1="560.84" x2="723.28" y2="550"/>
	<line class="st3" x1="732.06" y1="542.24" x2="732.06" y2="552.59"/>
	<line class="st3" x1="744.45" y1="557.75" x2="744.45" y2="551.55"/>
	<rect x="760.61" y="542.09" class="st4" width="8.4" height="19.01"/>
	<rect x="772.1" y="542.09" class="st4" width="2.66" height="19.01"/>
	<rect x="662.31" y="521.27" class="st2" width="141.89" height="20.4"/>
	<line class="st3" x1="670.11" y1="521.65" x2="670.11" y2="536.12"/>
	<line class="st3" x1="677.87" y1="540.77" x2="677.87" y2="524.75"/>
	<line class="st3" x1="687.69" y1="521.65" x2="687.69" y2="539.22"/>
	<line class="st3" x1="698.53" y1="521.14" x2="698.53" y2="534.06"/>
	<line class="st3" x1="708.35" y1="522.18" x2="708.35" y2="540.25"/>
	<line class="st3" x1="718.17" y1="540.77" x2="718.17" y2="529.92"/>
	<line class="st3" x1="726.95" y1="522.18" x2="726.95" y2="532.51"/>
	<line class="st3" x1="739.34" y1="537.67" x2="739.34" y2="531.47"/>
	<rect x="755.5" y="522.02" class="st4" width="8.4" height="19.01"/>
	<rect x="766.99" y="522.02" class="st4" width="2.66" height="19.01"/>
	<rect x="667.44" y="500.82" class="st2" width="141.89" height="20.4"/>
	<line class="st3" x1="675.23" y1="501.19" x2="675.23" y2="515.67"/>
	<line class="st3" x1="682.98" y1="520.32" x2="682.98" y2="504.3"/>
	<line class="st3" x1="692.8" y1="501.19" x2="692.8" y2="518.77"/>
	<line class="st3" x1="703.64" y1="500.68" x2="703.64" y2="513.6"/>
	<line class="st3" x1="713.46" y1="501.72" x2="713.46" y2="519.79"/>
	<line class="st3" x1="723.28" y1="520.32" x2="723.28" y2="509.46"/>
	<line class="st3" x1="732.06" y1="501.72" x2="732.06" y2="512.05"/>
	<line class="st3" x1="744.45" y1="517.22" x2="744.45" y2="511.01"/>
	<rect x="760.61" y="501.57" class="st4" width="8.4" height="19.01"/>
	<rect x="772.1" y="501.57" class="st4" width="2.66" height="19.01"/>
	<rect x="662.31" y="480.36" class="st2" width="141.89" height="20.4"/>
	<line class="st3" x1="670.11" y1="480.74" x2="670.11" y2="495.21"/>
	<line class="st3" x1="677.87" y1="499.86" x2="677.87" y2="483.84"/>
	<line class="st3" x1="687.69" y1="480.74" x2="687.69" y2="498.31"/>
	<line class="st3" x1="698.53" y1="480.23" x2="698.53" y2="493.15"/>
	<line class="st3" x1="708.35" y1="481.27" x2="708.35" y2="499.33"/>
	<line class="st3" x1="718.17" y1="499.86" x2="718.17" y2="489"/>
	<line class="st3" x1="726.95" y1="481.27" x2="726.95" y2="491.6"/>
	<line class="st3" x1="739.34" y1="496.76" x2="739.34" y2="490.56"/>
	<rect x="755.5" y="481.11" class="st4" width="8.4" height="19.01"/>
	<rect x="766.99" y="481.11" class="st4" width="2.66" height="19.01"/>
	<rect x="662.31" y="459.91" class="st2" width="141.89" height="20.4"/>
	<line class="st3" x1="670.11" y1="460.28" x2="670.11" y2="474.75"/>
	<line class="st3" x1="677.87" y1="479.41" x2="677.87" y2="463.38"/>
	<line class="st3" x1="687.69" y1="460.28" x2="687.69" y2="477.86"/>
	<line class="st3" x1="698.53" y1="459.77" x2="698.53" y2="472.69"/>
	<line class="st3" x1="708.35" y1="460.81" x2="708.35" y2="478.88"/>
	<line class="st3" x1="718.17" y1="479.41" x2="718.17" y2="468.55"/>
	<line class="st3" x1="726.95" y1="460.81" x2="726.95" y2="471.14"/>
	<line class="st3" x1="739.34" y1="476.31" x2="739.34" y2="470.1"/>
	<rect x="755.5" y="460.66" class="st4" width="8.4" height="19.01"/>
	<rect x="766.99" y="460.66" class="st4" width="2.66" height="19.01"/>
	<rect x="662.31" y="439.45" class="st2" width="141.89" height="20.4"/>
	<line class="st3" x1="670.11" y1="439.83" x2="670.11" y2="454.3"/>
	<line class="st3" x1="677.87" y1="458.95" x2="677.87" y2="442.93"/>
	<line class="st3" x1="687.69" y1="439.83" x2="687.69" y2="457.4"/>
	<line class="st3" x1="698.53" y1="439.31" x2="698.53" y2="452.24"/>
	<line class="st3" x1="708.35" y1="440.35" x2="708.35" y2="458.42"/>
	<line class="st3" x1="718.17" y1="458.95" x2="718.17" y2="448.09"/>
	<line class="st3" x1="726.95" y1="440.35" x2="726.95" y2="450.68"/>
	<line class="st3" x1="739.34" y1="455.85" x2="739.34" y2="449.64"/>
	<rect x="755.5" y="440.2" class="st4" width="8.4" height="19.01"/>
	<rect x="766.99" y="440.2" class="st4" width="2.66" height="19.01"/>
	<rect x="655.49" y="418.99" class="st2" width="141.89" height="20.4"/>
	<line class="st3" x1="663.29" y1="419.37" x2="663.29" y2="433.84"/>
	<line class="st3" x1="671.05" y1="438.5" x2="671.05" y2="422.47"/>
	<line class="st3" x1="680.87" y1="419.37" x2="680.87" y2="436.94"/>
	<line class="st3" x1="691.71" y1="418.86" x2="691.71" y2="431.78"/>
	<line class="st3" x1="701.53" y1="419.9" x2="701.53" y2="437.97"/>
	<line class="st3" x1="711.35" y1="438.5" x2="711.35" y2="427.64"/>
	<line class="st3" x1="720.13" y1="419.9" x2="720.13" y2="430.23"/>
	<line class="st3" x1="732.52" y1="435.39" x2="732.52" y2="429.19"/>
	<rect x="748.68" y="419.75" class="st4" width="8.4" height="19.01"/>
	<rect x="760.17" y="419.75" class="st4" width="2.66" height="19.01"/>
	<rect x="662.31" y="398.54" class="st2" width="141.89" height="20.4"/>
	<line class="st3" x1="670.11" y1="398.91" x2="670.11" y2="413.39"/>
	<line class="st3" x1="677.87" y1="418.04" x2="677.87" y2="402.02"/>
	<line class="st3" x1="687.69" y1="398.91" x2="687.69" y2="416.49"/>
	<line class="st3" x1="698.53" y1="398.4" x2="698.53" y2="411.32"/>
	<line class="st3" x1="708.35" y1="399.44" x2="708.35" y2="417.51"/>
	<line class="st3" x1="718.17" y1="418.04" x2="718.17" y2="407.18"/>
	<line class="st3" x1="726.95" y1="399.44" x2="726.95" y2="409.77"/>
	<line class="st3" x1="739.34" y1="414.94" x2="739.34" y2="408.73"/>
	<rect x="755.5" y="399.29" class="st4" width="8.4" height="19.01"/>
	<rect x="766.99" y="399.29" class="st4" width="2.66" height="19.01"/>
	<rect x="653.78" y="378.08" class="st2" width="141.89" height="20.4"/>
	<line class="st3" x1="661.59" y1="378.46" x2="661.59" y2="392.93"/>
	<line class="st3" x1="669.35" y1="397.58" x2="669.35" y2="381.56"/>
	<line class="st3" x1="679.16" y1="378.46" x2="679.16" y2="396.03"/>
	<line class="st3" x1="690.01" y1="377.95" x2="690.01" y2="390.87"/>
	<line class="st3" x1="699.83" y1="378.99" x2="699.83" y2="397.06"/>
	<line class="st3" x1="709.64" y1="397.58" x2="709.64" y2="386.73"/>
	<line class="st3" x1="718.42" y1="378.99" x2="718.42" y2="389.32"/>
	<line class="st3" x1="730.82" y1="394.48" x2="730.82" y2="388.28"/>
	<rect x="746.98" y="378.83" class="st4" width="8.4" height="19.01"/>
	<rect x="758.46" y="378.83" class="st4" width="2.66" height="19.01"/>
	<rect x="662.31" y="357.63" class="st2" width="141.89" height="20.4"/>
	<line class="st3" x1="670.11" y1="358" x2="670.11" y2="372.48"/>
	<line class="st3" x1="677.87" y1="377.13" x2="677.87" y2="361.11"/>
	<line class="st3" x1="687.69" y1="358" x2="687.69" y2="375.58"/>
	<line class="st3" x1="698.53" y1="357.49" x2="698.53" y2="370.41"/>
	<line class="st3" x1="708.35" y1="358.53" x2="708.35" y2="376.6"/>
	<line class="st3" x1="718.17" y1="377.13" x2="718.17" y2="366.27"/>
	<line class="st3" x1="726.95" y1="358.53" x2="726.95" y2="368.86"/>
	<line class="st3" x1="739.34" y1="374.03" x2="739.34" y2="367.82"/>
	<rect x="755.5" y="358.38" class="st4" width="8.4" height="19.01"/>
	<rect x="766.99" y="358.38" class="st4" width="2.66" height="19.01"/>
	<rect x="655.49" y="337.17" class="st2" width="141.89" height="20.4"/>
	<line class="st3" x1="663.29" y1="337.55" x2="663.29" y2="352.02"/>
	<line class="st3" x1="671.05" y1="356.67" x2="671.05" y2="340.65"/>
	<line class="st3" x1="680.87" y1="337.55" x2="680.87" y2="355.12"/>
	<line class="st3" x1="691.71" y1="337.04" x2="691.71" y2="349.96"/>
	<line class="st3" x1="701.53" y1="338.08" x2="701.53" y2="356.14"/>
	<line class="st3" x1="711.35" y1="356.67" x2="711.35" y2="345.81"/>
	<line class="st3" x1="720.13" y1="338.08" x2="720.13" y2="348.41"/>
	<line class="st3" x1="732.52" y1="353.57" x2="732.52" y2="347.37"/>
	<rect x="748.68" y="337.92" class="st4" width="8.4" height="19.01"/>
	<rect x="760.17" y="337.92" class="st4" width="2.66" height="19.01"/>
	<rect x="662.31" y="316.72" class="st2" width="141.89" height="20.4"/>
	<line class="st3" x1="670.11" y1="317.09" x2="670.11" y2="331.56"/>
	<line class="st3" x1="677.87" y1="336.22" x2="677.87" y2="320.19"/>
	<line class="st3" x1="687.69" y1="317.09" x2="687.69" y2="334.67"/>
	<line class="st3" x1="698.53" y1="316.58" x2="698.53" y2="329.5"/>
	<line class="st3" x1="708.35" y1="317.62" x2="708.35" y2="335.69"/>
	<line class="st3" x1="718.17" y1="336.22" x2="718.17" y2="325.36"/>
	<line class="st3" x1="726.95" y1="317.62" x2="726.95" y2="327.95"/>
	<line class="st3" x1="739.34" y1="333.12" x2="739.34" y2="326.91"/>
	<rect x="755.5" y="317.47" class="st4" width="8.4" height="19.01"/>
	<rect x="766.99" y="317.47" class="st4" width="2.66" height="19.01"/>
	<rect x="554.49" y="745.91" class="st2" width="141.89" height="20.4"/>
	<line class="st3" x1="562.29" y1="746.29" x2="562.29" y2="760.76"/>
	<line class="st3" x1="570.03" y1="765.4" x2="570.03" y2="749.39"/>
	<line class="st3" x1="579.85" y1="746.29" x2="579.85" y2="763.86"/>
	<line class="st3" x1="590.71" y1="745.77" x2="590.71" y2="758.68"/>
	<line class="st3" x1="600.53" y1="746.8" x2="600.53" y2="764.88"/>
	<line class="st3" x1="610.33" y1="765.4" x2="610.33" y2="754.55"/>
	<line class="st3" x1="619.13" y1="746.8" x2="619.13" y2="757.14"/>
	<line class="st3" x1="631.52" y1="762.31" x2="631.52" y2="756.1"/>
	<rect x="647.68" y="746.64" class="st4" width="8.4" height="19.01"/>
	<rect x="659.17" y="746.64" class="st4" width="2.66" height="19.01"/>
	<rect x="554.49" y="725.46" class="st2" width="141.89" height="20.4"/>
	<line class="st3" x1="562.29" y1="725.83" x2="562.29" y2="740.3"/>
	<line class="st3" x1="570.03" y1="744.94" x2="570.03" y2="728.93"/>
	<line class="st3" x1="579.85" y1="725.83" x2="579.85" y2="743.41"/>
	<line class="st3" x1="590.71" y1="725.32" x2="590.71" y2="738.22"/>
	<line class="st3" x1="600.53" y1="726.34" x2="600.53" y2="744.43"/>
	<line class="st3" x1="610.33" y1="744.94" x2="610.33" y2="734.1"/>
	<line class="st3" x1="619.13" y1="726.34" x2="619.13" y2="736.69"/>
	<line class="st3" x1="631.52" y1="741.85" x2="631.52" y2="735.65"/>
	<rect x="647.68" y="726.19" class="st4" width="8.4" height="19.01"/>
	<rect x="659.17" y="726.19" class="st4" width="2.66" height="19.01"/>
	<rect x="563.01" y="705" class="st2" width="141.89" height="20.4"/>
	<line class="st3" x1="570.82" y1="705.37" x2="570.82" y2="719.85"/>
	<line class="st3" x1="578.56" y1="724.48" x2="578.56" y2="708.48"/>
	<line class="st3" x1="588.38" y1="705.37" x2="588.38" y2="722.95"/>
	<line class="st3" x1="599.23" y1="704.86" x2="599.23" y2="717.77"/>
	<line class="st3" x1="609.05" y1="705.89" x2="609.05" y2="723.97"/>
	<line class="st3" x1="618.85" y1="724.48" x2="618.85" y2="713.64"/>
	<line class="st3" x1="627.65" y1="705.89" x2="627.65" y2="716.23"/>
	<line class="st3" x1="640.04" y1="721.4" x2="640.04" y2="715.19"/>
	<rect x="656.2" y="705.73" class="st4" width="8.4" height="19.01"/>
	<rect x="667.69" y="705.73" class="st4" width="2.66" height="19.01"/>
	<rect x="556.19" y="684.54" class="st2" width="141.89" height="20.4"/>
	<line class="st3" x1="564" y1="684.92" x2="564" y2="699.39"/>
	<line class="st3" x1="571.74" y1="704.03" x2="571.74" y2="688.02"/>
	<line class="st3" x1="581.56" y1="684.92" x2="581.56" y2="702.49"/>
	<line class="st3" x1="592.42" y1="684.41" x2="592.42" y2="697.31"/>
	<line class="st3" x1="602.23" y1="685.43" x2="602.23" y2="703.52"/>
	<line class="st3" x1="612.04" y1="704.03" x2="612.04" y2="693.19"/>
	<line class="st3" x1="620.83" y1="685.43" x2="620.83" y2="695.78"/>
	<line class="st3" x1="633.22" y1="700.94" x2="633.22" y2="694.74"/>
	<rect x="649.38" y="685.28" class="st4" width="8.4" height="19.01"/>
	<rect x="660.87" y="685.28" class="st4" width="2.66" height="19.01"/>
	<rect x="563.01" y="664.09" class="st2" width="141.89" height="20.4"/>
	<line class="st3" x1="570.82" y1="664.46" x2="570.82" y2="678.94"/>
	<line class="st3" x1="578.56" y1="683.57" x2="578.56" y2="667.57"/>
	<line class="st3" x1="588.38" y1="664.46" x2="588.38" y2="682.04"/>
	<line class="st3" x1="599.23" y1="663.95" x2="599.23" y2="676.86"/>
	<line class="st3" x1="609.05" y1="664.97" x2="609.05" y2="683.06"/>
	<line class="st3" x1="618.85" y1="683.57" x2="618.85" y2="672.73"/>
	<line class="st3" x1="627.65" y1="664.97" x2="627.65" y2="675.32"/>
	<line class="st3" x1="640.04" y1="680.49" x2="640.04" y2="674.28"/>
	<rect x="656.2" y="664.82" class="st4" width="8.4" height="19.01"/>
	<rect x="667.69" y="664.82" class="st4" width="2.66" height="19.01"/>
	<rect x="554.49" y="643.63" class="st2" width="141.89" height="20.4"/>
	<line class="st3" x1="562.29" y1="644.01" x2="562.29" y2="658.48"/>
	<line class="st3" x1="570.03" y1="663.12" x2="570.03" y2="647.11"/>
	<line class="st3" x1="579.85" y1="644.01" x2="579.85" y2="661.58"/>
	<line class="st3" x1="590.71" y1="643.5" x2="590.71" y2="656.4"/>
	<line class="st3" x1="600.53" y1="644.52" x2="600.53" y2="662.61"/>
	<line class="st3" x1="610.33" y1="663.12" x2="610.33" y2="652.28"/>
	<line class="st3" x1="619.13" y1="644.52" x2="619.13" y2="654.87"/>
	<line class="st3" x1="631.52" y1="660.03" x2="631.52" y2="653.83"/>
	<rect x="647.68" y="644.37" class="st4" width="8.4" height="19.01"/>
	<rect x="659.17" y="644.37" class="st4" width="2.66" height="19.01"/>
	<rect x="551.08" y="623.18" class="st2" width="141.89" height="20.4"/>
	<line class="st3" x1="558.89" y1="623.55" x2="558.89" y2="638.02"/>
	<line class="st3" x1="566.62" y1="642.66" x2="566.62" y2="626.65"/>
	<line class="st3" x1="576.44" y1="623.55" x2="576.44" y2="641.13"/>
	<line class="st3" x1="587.3" y1="623.04" x2="587.3" y2="635.94"/>
	<line class="st3" x1="597.12" y1="624.06" x2="597.12" y2="642.15"/>
	<line class="st3" x1="606.92" y1="642.66" x2="606.92" y2="631.82"/>
	<line class="st3" x1="615.72" y1="624.06" x2="615.72" y2="634.41"/>
	<line class="st3" x1="628.11" y1="639.58" x2="628.11" y2="633.37"/>
	<rect x="644.27" y="623.91" class="st4" width="8.4" height="19.01"/>
	<rect x="655.76" y="623.91" class="st4" width="2.66" height="19.01"/>
	<rect x="552.78" y="602.72" class="st2" width="141.89" height="20.4"/>
	<line class="st3" x1="560.59" y1="603.1" x2="560.59" y2="617.57"/>
	<line class="st3" x1="568.33" y1="622.21" x2="568.33" y2="606.2"/>
	<line class="st3" x1="578.15" y1="603.1" x2="578.15" y2="620.67"/>
	<line class="st3" x1="589.01" y1="602.58" x2="589.01" y2="615.49"/>
	<line class="st3" x1="598.83" y1="603.61" x2="598.83" y2="621.69"/>
	<line class="st3" x1="608.63" y1="622.21" x2="608.63" y2="611.36"/>
	<line class="st3" x1="617.42" y1="603.61" x2="617.42" y2="613.95"/>
	<line class="st3" x1="629.82" y1="619.12" x2="629.82" y2="612.91"/>
	<rect x="645.98" y="603.45" class="st4" width="8.4" height="19.01"/>
	<rect x="657.46" y="603.45" class="st4" width="2.66" height="19.01"/>
	<rect x="545.96" y="582.27" class="st2" width="141.89" height="20.4"/>
	<line class="st3" x1="553.77" y1="582.64" x2="553.77" y2="597.11"/>
	<line class="st3" x1="561.51" y1="601.75" x2="561.51" y2="585.74"/>
	<line class="st3" x1="571.33" y1="582.64" x2="571.33" y2="600.22"/>
	<line class="st3" x1="582.19" y1="582.13" x2="582.19" y2="595.03"/>
	<line class="st3" x1="591.99" y1="583.15" x2="591.99" y2="601.24"/>
	<line class="st3" x1="601.81" y1="601.75" x2="601.81" y2="590.91"/>
	<line class="st3" x1="610.6" y1="583.15" x2="610.6" y2="593.5"/>
	<line class="st3" x1="623" y1="598.66" x2="623" y2="592.46"/>
	<rect x="639.16" y="583" class="st4" width="8.4" height="19.01"/>
	<rect x="650.65" y="583" class="st4" width="2.66" height="19.01"/>
	<rect x="559.6" y="561.81" class="st2" width="141.89" height="20.4"/>
	<line class="st3" x1="567.41" y1="562.18" x2="567.41" y2="576.66"/>
	<line class="st3" x1="575.15" y1="581.29" x2="575.15" y2="565.29"/>
	<line class="st3" x1="584.97" y1="562.18" x2="584.97" y2="579.76"/>
	<line class="st3" x1="595.82" y1="561.67" x2="595.82" y2="574.58"/>
	<line class="st3" x1="605.64" y1="562.7" x2="605.64" y2="580.78"/>
	<line class="st3" x1="615.45" y1="581.29" x2="615.45" y2="570.45"/>
	<line class="st3" x1="624.24" y1="562.7" x2="624.24" y2="573.04"/>
	<line class="st3" x1="636.63" y1="578.21" x2="636.63" y2="572"/>
	<rect x="652.79" y="562.54" class="st4" width="8.4" height="19.01"/>
	<rect x="664.28" y="562.54" class="st4" width="2.66" height="19.01"/>
	<rect x="554.49" y="541.35" class="st2" width="141.89" height="20.4"/>
	<line class="st3" x1="562.29" y1="541.73" x2="562.29" y2="556.2"/>
	<line class="st3" x1="570.03" y1="560.84" x2="570.03" y2="544.83"/>
	<line class="st3" x1="579.85" y1="541.73" x2="579.85" y2="559.3"/>
	<line class="st3" x1="590.71" y1="541.22" x2="590.71" y2="554.12"/>
	<line class="st3" x1="600.53" y1="542.24" x2="600.53" y2="560.33"/>
	<line class="st3" x1="610.33" y1="560.84" x2="610.33" y2="550"/>
	<line class="st3" x1="619.13" y1="542.24" x2="619.13" y2="552.59"/>
	<line class="st3" x1="631.52" y1="557.75" x2="631.52" y2="551.55"/>
	<rect x="647.68" y="542.09" class="st4" width="8.4" height="19.01"/>
	<rect x="659.17" y="542.09" class="st4" width="2.66" height="19.01"/>
</g>
<g id="freepik--Currency--inject-115">
	
		<ellipse transform="matrix(0.9742 -0.2258 0.2258 0.9742 -129.6255 220.7135)" class="st5" cx="900.03" cy="677.01" rx="70.88" ry="70.88"/>
	<circle class="st5" cx="891.66" cy="677.07" r="70.88"/>
	<circle class="st5" cx="891.66" cy="677.07" r="56.99"/>
	<path class="st5" d="M839.61,677.08c0.01-30.52,24.06-55.61,54.55-56.92c-0.8,0-1.62,0-2.45,0c-31.47,0.02-56.97,25.55-56.95,57.03
		c0.02,31.44,25.5,56.93,56.95,56.95c0.84,0,1.7,0,2.45,0C863.6,732.84,839.52,707.66,839.61,677.08z"/>
	<line class="st6" x1="944.49" y1="622.41" x2="939.09" y2="622.41"/>
	<line class="st6" x1="951.38" y1="628.82" x2="947.44" y2="628.82"/>
	<line class="st6" x1="960.24" y1="638.66" x2="955.81" y2="638.66"/>
	<line class="st6" x1="965.17" y1="650.96" x2="959.25" y2="650.96"/>
	<line class="st6" x1="969.6" y1="664.26" x2="964.18" y2="664.26"/>
	<line class="st6" x1="969.6" y1="692.3" x2="963.69" y2="692.3"/>
	<line class="st6" x1="946.47" y1="725.78" x2="951.38" y2="725.78"/>
	<line class="st6" x1="938.1" y1="732.17" x2="943.5" y2="732.17"/>
	<line class="st6" x1="929.24" y1="739.06" x2="934.66" y2="739.06"/>
	<line class="st6" x1="935.15" y1="615.52" x2="926.78" y2="615.52"/>
	<path class="st7" d="M915.41,639.83h-36.75v10.23h3.12c3.99,0,5.73,2.25,5.73,7.36v0.85h-8.85v7.13h8.8
		c-0.27,5.01-2.73,6.7-6.7,6.7h-2.1v10.23h1.59c5.11,0,7.36,2.45,7.36,9.1v11.23c0,5.83,0.41,6.95,1.02,8.8h11.44
		c-1.01-2.78-1.43-5.74-1.23-8.69v-11.03c0-7.47-1.84-12.87-7.45-15.22c4.18-1.96,6.48-5.66,7.13-11.1h16.89v-7.06h-16.67v-1.98
		c0.12-3.23-0.52-6.45-1.86-9.39h18.53V639.83z"/>
	<circle class="st5" cx="987.5" cy="496.62" r="70.88"/>
	<circle class="st5" cx="979.16" cy="496.62" r="70.88"/>
	<circle class="st5" cx="979.16" cy="496.62" r="56.99"/>
	<path class="st5" d="M927.17,496.64c0.01-30.52,24.06-55.61,54.55-56.92c-0.82,0-1.64,0-2.45,0
		c-31.47-0.54-57.42,24.52-57.96,55.99c-0.54,31.47,24.52,57.42,55.99,57.96c0.66,0.01,1.31,0.01,1.97,0c0.82,0,1.64,0,2.45,0
		C951.18,552.37,927.12,527.21,927.17,496.64z"/>
	<line class="st6" x1="1031.99" y1="441.97" x2="1026.57" y2="441.97"/>
	<line class="st6" x1="1038.88" y1="448.37" x2="1034.94" y2="448.37"/>
	<line class="st6" x1="1047.74" y1="458.2" x2="1043.31" y2="458.2"/>
	<line class="st6" x1="1052.65" y1="470.51" x2="1046.75" y2="470.51"/>
	<line class="st6" x1="1057.08" y1="483.81" x2="1051.68" y2="483.81"/>
	<line class="st6" x1="1057.08" y1="511.85" x2="1051.19" y2="511.85"/>
	<line class="st6" x1="1033.95" y1="545.33" x2="1038.88" y2="545.33"/>
	<line class="st6" x1="1025.58" y1="551.72" x2="1031" y2="551.72"/>
	<line class="st6" x1="1016.73" y1="558.61" x2="1022.14" y2="558.61"/>
	<line class="st6" x1="1022.63" y1="435.07" x2="1014.26" y2="435.07"/>
	<path class="st7" d="M1008.18,502.05v-7.55h-5.47l3.41-30.77h-9.29l-3.17,30.77h-4.64l-3.05-30.77h-10.23l-2.97,30.77h-4.69
		l-3.29-30.77h-10.35l3.41,30.77h-6.65v7.55h7.48l0.9,8.11h-8.39v7.55h9.22l1.55,13.81h14.63l1.47-13.81h4.79l1.48,13.81h14.15
		l1.53-13.81h8.06v-7.55h-7.23l0.92-8.11L1008.18,502.05z M968.97,502.05h3.07l-0.78,8.11h-1.47L968.97,502.05z M978.98,510.16
		l0.87-8.11h1.43l0.87,8.11H978.98z M992.07,510.16h-1.48l-0.8-8.11h3.12L992.07,510.16z"/>
	
		<ellipse transform="matrix(0.7071 -0.7071 0.7071 0.7071 67.42 782.574)" class="st5" cx="978.36" cy="309.9" rx="70.88" ry="70.88"/>
	
		<ellipse transform="matrix(0.7071 -0.7071 0.7071 0.7071 65.0119 776.6736)" class="st5" cx="970.03" cy="309.86" rx="70.88" ry="70.88"/>
	
		<ellipse transform="matrix(0.9725 -0.2331 0.2331 0.9725 -45.5096 234.6582)" class="st5" cx="970.04" cy="309.87" rx="56.99" ry="56.99"/>
	<path class="st5" d="M917.95,309.9c0.01-30.52,24.06-55.61,54.55-56.92c-0.82,0-1.7,0-2.45,0c-31.47,0-56.98,25.52-56.98,56.99
		c0,31.47,25.51,56.97,56.98,56.98c0.82,0,1.7,0,2.45,0C941.95,365.65,917.88,340.47,917.95,309.9z"/>
	<line class="st6" x1="1022.85" y1="255.23" x2="1017.43" y2="255.23"/>
	<line class="st6" x1="1029.74" y1="261.64" x2="1025.8" y2="261.64"/>
	<line class="st6" x1="1038.59" y1="271.48" x2="1034.17" y2="271.48"/>
	<line class="st6" x1="1043.51" y1="283.78" x2="1037.62" y2="283.78"/>
	<line class="st6" x1="1047.95" y1="297.08" x2="1042.53" y2="297.08"/>
	<line class="st6" x1="1047.95" y1="325.12" x2="1042.05" y2="325.12"/>
	<line class="st6" x1="1024.81" y1="358.6" x2="1029.74" y2="358.6"/>
	<line class="st6" x1="1016.45" y1="364.99" x2="1021.87" y2="364.99"/>
	<line class="st6" x1="1007.58" y1="371.88" x2="1013" y2="371.88"/>
	<line class="st6" x1="1013.5" y1="248.34" x2="1005.13" y2="248.34"/>
	<path class="st7" d="M976.81,275.84h-16.55v33.73h-9.39v9.58h9.39v9.58h-9.02v7.28h9.02v11.34h11.23v-11.34h8.73v-7.28h-8.73v-8.25
		h5.3c11.25,0,16.76-6.24,16.76-17.68v-9.29C993.65,282.06,988.06,275.84,976.81,275.84z M982.34,303.52c0,5.11-1.94,6.82-5.52,6.82
		h-5.32v-24.29h5.3c3.58,0,5.52,1.7,5.52,6.82L982.34,303.52z"/>
	<circle class="st5" cx="913.11" cy="123.63" r="70.88"/>
	<circle class="st5" cx="904.77" cy="123.63" r="70.88"/>
	<circle class="st5" cx="904.78" cy="123.59" r="56.99"/>
	<path class="st5" d="M852.7,123.63c0-30.52,24.05-55.62,54.55-56.92c-0.82,0-1.7,0-2.45,0c-31.47,0-56.98,25.52-56.98,56.99
		c0,31.47,25.51,56.97,56.98,56.98c0.82,0,1.7,0,2.45,0C876.7,179.39,852.62,154.21,852.7,123.63z"/>
	<line class="st6" x1="957.6" y1="68.96" x2="952.18" y2="68.96"/>
	<line class="st6" x1="964.49" y1="75.36" x2="960.55" y2="75.36"/>
	<line class="st6" x1="973.35" y1="85.21" x2="968.92" y2="85.21"/>
	<line class="st6" x1="978.26" y1="97.52" x2="972.36" y2="97.52"/>
	<line class="st6" x1="982.69" y1="110.8" x2="977.27" y2="110.8"/>
	<line class="st6" x1="982.69" y1="138.85" x2="976.8" y2="138.85"/>
	<line class="st6" x1="959.56" y1="172.32" x2="964.49" y2="172.32"/>
	<line class="st6" x1="951.19" y1="178.73" x2="956.61" y2="178.73"/>
	<line class="st6" x1="942.34" y1="185.61" x2="947.75" y2="185.61"/>
	<line class="st6" x1="948.24" y1="62.08" x2="939.87" y2="62.08"/>
	<polygon class="st7" points="923.78,99.61 923.78,89.39 894.05,89.39 894.05,140.41 885.99,140.41 885.99,147.22 894.05,147.22 
		894.05,160.91 905.29,160.91 905.29,147.22 914.41,147.22 914.41,140.41 905.29,140.41 905.29,131.39 919.79,131.39 919.79,121.16 
		905.29,121.16 905.29,99.61 	"/>
	<circle class="st5" cx="705.27" cy="81.83" r="70.88"/>
	
		<ellipse transform="matrix(0.7071 -0.7071 0.7071 0.7071 146.2418 516.7854)" class="st5" cx="696.94" cy="81.86" rx="70.88" ry="70.88"/>
	
		<ellipse transform="matrix(0.7071 -0.7071 0.7071 0.7071 146.2418 516.7854)" class="st5" cx="696.94" cy="81.86" rx="56.99" ry="56.99"/>
	<path class="st5" d="M644.87,81.87c0-30.52,24.05-55.63,54.55-56.94c-0.82,0-1.64,0-2.45,0c-31.47-0.54-57.42,24.52-57.96,55.99
		s24.52,57.42,55.99,57.96c0.66,0.01,1.31,0.01,1.97,0c0.82,0,1.64,0,2.45,0C668.89,137.58,644.82,112.43,644.87,81.87z"/>
	<line class="st6" x1="749.75" y1="27.2" x2="744.33" y2="27.2"/>
	<line class="st6" x1="756.64" y1="33.59" x2="752.7" y2="33.59"/>
	<line class="st6" x1="765.5" y1="43.45" x2="761.07" y2="43.45"/>
	<line class="st6" x1="770.43" y1="55.74" x2="764.52" y2="55.74"/>
	<line class="st6" x1="774.86" y1="69.03" x2="769.44" y2="69.03"/>
	<line class="st6" x1="774.86" y1="97.09" x2="768.95" y2="97.09"/>
	<line class="st6" x1="751.73" y1="130.55" x2="756.64" y2="130.55"/>
	<line class="st6" x1="743.36" y1="136.95" x2="748.77" y2="136.95"/>
	<line class="st6" x1="734.5" y1="143.85" x2="739.92" y2="143.85"/>
	<line class="st6" x1="740.4" y1="20.31" x2="732.04" y2="20.31"/>
	<path class="st7" d="M712.15,68.01v-5.22c0-11.44-5.42-17.98-16.45-17.98s-16.45,6.55-16.45,17.98v9.92h-2.86v5.61h2.86v5.63h-2.86
		v5.63h2.86v10.42c0,11.44,5.42,17.98,16.45,17.98s16.45-6.55,16.45-17.98v-5.64h-10.62v6.44c0,5.11-1.94,6.94-5.52,6.94
		s-5.52-1.82-5.52-6.94V89.57h15.73v-5.63h-15.73v-5.63h15.73v-5.61h-15.73V62.08c0-5.11,1.94-7.04,5.52-7.04s5.52,1.94,5.52,7.04
		v5.93H712.15z"/>
	<circle class="st5" cx="495.92" cy="123.63" r="70.88"/>
	<circle class="st5" cx="487.58" cy="123.63" r="70.88"/>
	<circle class="st5" cx="487.58" cy="123.63" r="56.99"/>
	<path class="st5" d="M435.52,123.63c-0.01-30.53,24.05-55.63,54.55-56.92c-0.8,0-1.7,0-2.45,0c-31.47,0-56.98,25.52-56.98,56.99
		c0,31.47,25.51,56.97,56.98,56.98c0.82,0,1.7,0,2.45,0C459.52,179.4,435.44,154.21,435.52,123.63z"/>
	<line class="st6" x1="540.41" y1="68.96" x2="535" y2="68.96"/>
	<line class="st6" x1="547.29" y1="75.36" x2="543.36" y2="75.36"/>
	<line class="st6" x1="556.16" y1="85.21" x2="551.73" y2="85.21"/>
	<line class="st6" x1="561.08" y1="97.52" x2="555.17" y2="97.52"/>
	<line class="st6" x1="565.52" y1="110.8" x2="560.1" y2="110.8"/>
	<line class="st6" x1="565.52" y1="138.85" x2="559.6" y2="138.85"/>
	<line class="st6" x1="542.38" y1="172.32" x2="547.29" y2="172.32"/>
	<line class="st6" x1="534.01" y1="178.73" x2="539.42" y2="178.73"/>
	<line class="st6" x1="525.15" y1="185.61" x2="530.57" y2="185.61"/>
	<line class="st6" x1="531.07" y1="62.08" x2="522.7" y2="62.08"/>
	<path class="st7" d="M505.09,109.24v-7.04c0-11.46-5.61-17.98-16.55-17.98s-16.5,6.53-16.5,17.98c0,12.46,4.81,17.15,7.26,24.21
		h-6.82v8.68h8.28c-0.2,7.36-4.4,11.66-9.72,11.66v9.8h33.38v-10.23h-19.36c3.41-2.78,5.49-6.86,5.73-11.25h11.64v-8.66h-12.36
		c-1.94-7.76-6.82-12.15-6.82-24.92c0-5.11,2.03-7.06,5.61-7.06c3.58,0,5.63,1.94,5.63,7.06v7.76H505.09z"/>
	<circle class="st5" cx="390.03" cy="309.89" r="70.88"/>
	<circle class="st5" cx="381.7" cy="309.89" r="70.88"/>
	<circle class="st5" cx="381.72" cy="309.9" r="56.99"/>
	<path class="st5" d="M329.63,309.9c0.01-30.52,24.06-55.61,54.55-56.92c-0.82,0-1.7,0-2.45,0c-31.47,0-56.98,25.52-56.98,56.99
		c0,31.47,25.51,56.97,56.98,56.98c0.82,0,1.7,0,2.45,0C353.63,365.65,329.55,340.47,329.63,309.9z"/>
	<line class="st6" x1="434.53" y1="255.23" x2="429.11" y2="255.23"/>
	<line class="st6" x1="441.42" y1="261.64" x2="437.48" y2="261.64"/>
	<line class="st6" x1="450.28" y1="271.48" x2="445.85" y2="271.48"/>
	<line class="st6" x1="455.19" y1="283.78" x2="449.29" y2="283.78"/>
	<line class="st6" x1="459.62" y1="297.08" x2="454.22" y2="297.08"/>
	<line class="st6" x1="459.62" y1="325.12" x2="453.73" y2="325.12"/>
	<line class="st6" x1="436.49" y1="358.6" x2="441.42" y2="358.6"/>
	<line class="st6" x1="428.12" y1="364.99" x2="433.54" y2="364.99"/>
	<line class="st6" x1="419.28" y1="371.88" x2="424.68" y2="371.88"/>
	<line class="st6" x1="425.17" y1="248.34" x2="416.8" y2="248.34"/>
	<path class="st7" d="M378.79,290.48c0-5.11,2.05-7.04,5.61-7.04s5.63,1.94,5.63,7.04v2.97h10.62v-2.25
		c0-9.7-4.07-15.84-12.05-17.47v-5.3h-9.19v5.3c-7.88,1.7-11.93,7.88-11.93,17.47c0,20.46,21.97,21.15,21.97,35.8
		c0,5.11-2.25,6.95-5.83,6.95s-5.81-1.84-5.81-6.95v-5.63h-10.55v4.91c0,9.72,4.07,15.94,12.15,17.57v5.22h9.19v-5.22
		c7.98-1.7,12.15-7.86,12.15-17.57C400.75,305.91,378.79,305.19,378.79,290.48z"/>
	<circle class="st5" cx="381.26" cy="496.62" r="70.88"/>
	<circle class="st5" cx="372.93" cy="496.62" r="70.88"/>
	<circle class="st5" cx="372.93" cy="496.62" r="56.99"/>
	<path class="st5" d="M320.85,496.64c0.02-30.51,24.06-55.6,54.55-56.92c-0.82,0-1.64,0-2.45,0c-31.47-0.54-57.42,24.52-57.96,55.99
		c-0.54,31.47,24.52,57.42,55.99,57.96c0.66,0.01,1.31,0.01,1.97,0c0.82,0,1.64,0,2.45,0C344.87,552.36,320.8,527.2,320.85,496.64z"
		/>
	<line class="st6" x1="425.75" y1="441.97" x2="420.33" y2="441.97"/>
	<line class="st6" x1="432.64" y1="448.37" x2="428.7" y2="448.37"/>
	<line class="st6" x1="441.5" y1="458.2" x2="437.07" y2="458.2"/>
	<line class="st6" x1="446.41" y1="470.51" x2="440.52" y2="470.51"/>
	<line class="st6" x1="450.85" y1="483.81" x2="445.42" y2="483.81"/>
	<line class="st6" x1="450.85" y1="511.85" x2="444.95" y2="511.85"/>
	<line class="st6" x1="427.71" y1="545.33" x2="432.64" y2="545.33"/>
	<line class="st6" x1="419.34" y1="551.72" x2="424.76" y2="551.72"/>
	<line class="st6" x1="410.5" y1="558.61" x2="415.9" y2="558.61"/>
	<line class="st6" x1="416.39" y1="435.07" x2="408.02" y2="435.07"/>
	<path class="st7" d="M386.24,494.08c5.01-2.35,7.26-7.06,7.26-14.4v-2.56c0-8.88-3.26-14.11-10.59-15.82v-11.93h-5.74v11.3h-4.52
		v-11.28h-5.74v11.28h-7.02v71.59h7.02v10.14h5.74v-10.14h4.52v10.14h5.74v-10.69c7.72-1.7,11.71-7.3,11.71-16.4v-5.83
		C394.63,501.84,392.27,496.44,386.24,494.08z M371.12,470.88h5.45c3.99,0,5.71,2.25,5.71,7.36v3.99c0,5.71-2.54,7.55-6.82,7.55
		h-4.35V470.88z M383.39,514.93c0,5.3-2.03,7.04-5.81,7.04h-6.46v-21.92h5.01c5.11,0,7.24,2.05,7.24,8.69L383.39,514.93z"/>
	
		<ellipse transform="matrix(0.7071 -0.7071 0.7071 0.7071 -339.7916 533.8289)" class="st5" cx="474.49" cy="677.08" rx="70.88" ry="70.88"/>
	
		<ellipse transform="matrix(0.7071 -0.7071 0.7071 0.7071 -342.2511 527.9232)" class="st5" cx="466.13" cy="677.1" rx="70.88" ry="70.88"/>
	<circle class="st5" cx="466.15" cy="677.1" r="56.99"/>
	<path class="st5" d="M414.08,677.08c0.02-30.51,24.06-55.6,54.55-56.92c-0.82,0-1.7,0-2.45,0c-31.47,0.02-56.97,25.55-56.95,57.03
		c0.02,31.44,25.5,56.93,56.95,56.95c0.82,0,1.7,0,2.45,0C438.08,732.83,414,707.65,414.08,677.08z"/>
	<line class="st6" x1="519" y1="622.41" x2="513.58" y2="622.41"/>
	<line class="st6" x1="525.88" y1="628.82" x2="521.95" y2="628.82"/>
	<line class="st6" x1="534.73" y1="638.66" x2="530.32" y2="638.66"/>
	<line class="st6" x1="539.66" y1="650.96" x2="533.76" y2="650.96"/>
	<line class="st6" x1="544.09" y1="664.26" x2="538.67" y2="664.26"/>
	<line class="st6" x1="544.09" y1="692.3" x2="538.19" y2="692.3"/>
	<line class="st6" x1="520.96" y1="725.78" x2="525.88" y2="725.78"/>
	<line class="st6" x1="512.59" y1="732.17" x2="518.01" y2="732.17"/>
	<line class="st6" x1="503.74" y1="739.06" x2="509.14" y2="739.06"/>
	<line class="st6" x1="509.64" y1="615.52" x2="501.27" y2="615.52"/>
	<path class="st7" d="M487.38,643.62l-13.07,43.83h8.52v5.61h-9.29v4.6h9.29v5.63h-9.29v11.85h-11.25v-11.85h-9.29v-5.63h9.29v-4.6
		h-9.29v-5.61h8.37l-12.97-43.83h11.71l8.27,31.55l8.27-31.55H487.38z"/>
</g>
<g id="freepik--Character--inject-115">
	<path class="st8" d="M724.54,731.59l14.3,15.34c0,0,18.51,9.72,19.42,10.33s0,9.1,0,9.1h-63.87c-1.23-0.01-2.23-1.02-2.22-2.25
		c0-0.01,0-0.02,0-0.03l0.55-16.84C692.72,747.24,716.31,727.84,724.54,731.59z"/>
	<path class="st8" d="M758.67,759.94h-66.36l-0.14,4.09c-0.03,1.23,0.95,2.26,2.18,2.28c0.01,0,0.02,0,0.03,0h63.87
		C758.26,766.32,758.65,762.57,758.67,759.94z"/>
	<path class="st8" d="M607.37,736.21c0.32,3.15,0.32,6.32,0,9.46c-0.61,2.73-9.41,8.8-10.02,12.44c-0.36,2.41-0.46,4.85-0.29,7.28
		h46.42c1.25-3.92,1.76-8.03,1.52-12.14c-0.6-5.76-1.91-17.05-1.91-17.05L607.37,736.21z"/>
	<path class="st8" d="M644.7,760.55h-47.56c-0.12,1.61-0.12,3.23,0,4.84h46.42C644.05,763.81,644.43,762.19,644.7,760.55z"/>
	<path class="st9" d="M615.75,448.91l-4.35,60.77v200.57l-4.04,7.5v18.46h35.8c0,0,2.9-16.16,2.9-18.46c0-2.3-1.16-5.78-1.16-8.08
		s23.64-194.28,23.64-194.28l4.62-1.16l15,208.07l-3.41,4.6l8.08,22.52l26.56-16.74l5.2-1.16v-14.98c-1.09-4.34-1.66-8.8-1.7-13.28
		c0-6.92,0.58-184.39,0.58-184.39l-0.58-71.59L615.75,448.91z"/>
	<path class="st8" d="M705.67,353.45l20.46,49.01l5.11,34.09l9.8,8.1c0,0,18.75-40.06,19.18-44.32s-31.96-81.4-33.67-86.94
		c-1.7-5.54-9.38-7.67-9.38-7.67h-8.1"/>
	<path class="st10" d="M726.98,399.48c0,0,5.11-14.06,16.62-14.06"/>
	<path class="st10" d="M729.96,428.88c0,0,9.38-9.8,15.34,5.54"/>
	<path class="st8" d="M743.6,440.81c0,0-5.54-8.1-8.52-8.52c-2.98-0.43-6.39,2.13-6.39,2.13l-6.82,5.54c0,0-7.24,9.8-6.39,11.93
		c0.85,2.13,5.54,17.47,6.82,17.9c1.28,0.43,7.67-4.69,7.67-4.69s9.38-8.1,10.23-12.78C741.06,448.41,742.19,444.57,743.6,440.81z"
		/>
	<path class="st8" d="M719.74,330.44l2.56,95.46c0,0,5.11,14.92,3.41,19.6c-0.96,2.74-2.75,5.13-5.11,6.82c0,0-90.77,1.7-96.31,1.28
		c-3.37-0.32-6.45-2.01-8.52-4.69l-24.72-138.5l52.42-26c8.39-2.33,16.93-4.04,25.57-5.11c10.23-0.85,51.99,29.41,51.99,29.41
		l0.85,3.41"/>
	<polygon class="st9" points="665.19,312.11 677.55,323.62 668.6,415.67 681.38,441.67 696.3,413.11 682.66,324.9 692.46,307.43 
		677.12,296.77 	"/>
	<path class="st8" d="M655.81,267.37l-9.38,5.97l-6.82,15.77l17.9,36.65l13.21-18.32l9.56,4.84l7.91-5.27l15.77,13.64
		c0,0-10.23-30.68-13.21-38.78c-2.34-5.76-6.54-10.56-11.93-13.64C676.27,266.51,661.35,265.66,655.81,267.37z"/>
	<path class="st8" d="M686.56,198.93c0,0,9.19,6.7,12.12,11.3c2.93,4.6,2.51,10.02,4.19,11.71c1.69,1.69,11.28,4.18,11.28,7.94
		s-7.11,10.04-7.11,10.04s1.26,19.65-0.43,22.57c-1.69,2.91-18.39,3.77-18.39,3.77s-1.7,23.01-1.7,29.69s-6.27,16.31-6.27,16.31
		l-12.51-11.66c0,0-12.14-17.56-13.81-22.59c-1.67-5.03,0.49-23.44,0.49-23.44s-19.65-20.46-17.05-38.05s30.1-18.75,30.94-20.46
		c0.84-1.7-4.18-4.59,1.7-6.68C675.91,187.3,689.48,193.91,686.56,198.93z"/>
	<path class="st9" d="M669.77,189.31c-5.85,2.08-0.84,5.01-1.7,6.68c-0.87,1.67-28.43,2.93-30.94,20.46
		c-2.51,17.52,17.3,38.13,17.3,38.13s0,0.41-0.1,1.07l2.63-1.91c0,0-5.11-7.11-4.6-12.12c0.51-5.01,6.27-6.27,7.52-5.03
		c1.24,1.24,2.52,4.6,6.27,5.44s2.1-5.01,2.1-5.01l-3.41-10.47c0,0,11.71-9.19,11.28-12.12c-0.43-2.93-6.34-6.73-6.34-6.73
		l16.74-8.78C689.48,193.91,675.69,187.21,669.77,189.31z"/>
	<path class="st10" d="M699.65,220.22c1.6,5.11,0.14,10.23-3.29,11.32c-3.43,1.09-7.48-2.28-9.1-7.47
		c-1.62-5.18-0.14-10.23,3.29-11.32C693.98,211.66,698.04,215.03,699.65,220.22z"/>
	<path class="st10" d="M699.45,211.49c2.68,0.73,5.27,3.58,6.48,7.48c0.29,1.48,0.4,2.99,0.34,4.5"/>
	<path class="st7" d="M696.77,223.73c0.41,2.05,0.1,3.82-0.7,3.99c-0.8,0.17-1.7-1.36-2.16-3.41c-0.46-2.05-0.1-3.82,0.68-3.97
		C695.38,220.18,696.36,221.7,696.77,223.73z"/>
	<line class="st10" x1="687.26" y1="224.07" x2="659.78" y2="236.56"/>
	<line class="st10" x1="699.65" y1="220.22" x2="705.52" y2="217.68"/>
	<path class="st10" d="M704.39,244.35c0,0-5.69,3.41-10.52-3.14"/>
	<polygon class="st9" points="688.23,266.26 673.71,265.66 687.35,277.17 	"/>
	<polyline class="st10" points="656.87,253.71 662.2,255.86 665.61,252.45 	"/>
	<polyline class="st8" points="591.03,310.41 549.27,405.02 570.15,419.51 610.64,366.8 	"/>
	<path class="st8" d="M573.14,388.82l36.22,52.42l-16.19,11.51c0,0-45.6-39.21-46.03-43.04c-0.43-3.84,7.67-16.62,7.67-16.62"/>
	<line class="st10" x1="588.48" y1="448.49" x2="604.67" y2="435.7"/>
	<path class="st8" d="M609.36,441.24c0,0,17.85,15.94,18.75,17.64c1.23,1.92,1.39,4.33,0.43,6.39c-1.02,1.61-2.73,2.66-4.64,2.81
		c0,0-4.26,8.1-9.8,8.95c-5.54,0.85-12.36-1.7-13.21-5.11l-1.7-6.82l-5.97-12.36L609.36,441.24z"/>
	<path class="st10" d="M599.13,465.11c0,0,5.54,5.97,8.52,7.24"/>
</g>
<g id="freepik--Floor--inject-115">
	<line class="st10" x1="1031.16" y1="766.32" x2="1084" y2="766.32"/>
	<line class="st10" x1="293.05" y1="766.32" x2="1015.81" y2="766.32"/>
</g>
</svg>
