<?xml version="1.0" encoding="utf-8"?>
<!-- Generator: Adobe Illustrator 23.1.0, SVG Export Plug-In . SVG Version: 6.00 Build 0)  -->
<svg version="1.1" id="Layer_1" xmlns="http://www.w3.org/2000/svg" xmlns:xlink="http://www.w3.org/1999/xlink" x="0px" y="0px"
	 viewBox="0 0 1366 768" style="enable-background:new 0 0 1366 768;" xml:space="preserve">
<style type="text/css">
	.st0{fill:#EBEBEB;}
	.st1{fill:#F5F5F5;}
	.st2{fill:#FAFAFA;}
	.st3{fill:#F0F0F0;}
	.st4{fill:#E0E0E0;}
	.st5{fill:#E6E6E6;}
	.st6{opacity:0.3;}
	.st7{fill:#407BFF;}
	.st8{opacity:0.3;fill:#FFFFFF;enable-background:new    ;}
	.st9{fill:#263238;}
	.st10{opacity:0.8;fill:#FFFFFF;enable-background:new    ;}
	.st11{opacity:0.6;}
	.st12{opacity:0.5;fill:#FFFFFF;enable-background:new    ;}
	.st13{fill:#FFFFFF;}
	.st14{opacity:0.4;}
	.st15{fill:#B97964;}
	.st16{opacity:0.6;enable-background:new    ;}
	.st17{opacity:0.2;enable-background:new    ;}
	.st18{opacity:0.5;enable-background:new    ;}
	.st19{fill:#2E353A;}
	.st20{fill:#A24E3F;}
	.st21{opacity:0.1;enable-background:new    ;}
	.st22{opacity:0.2;fill:#FFFFFF;enable-background:new    ;}
</style>
<g id="freepik--background-complete--inject-10">
	<rect x="1029.74" y="714.95" class="st0" width="68.96" height="0.52"/>
	<rect x="833.51" y="720.61" class="st0" width="18.09" height="0.52"/>
	<rect x="987.7" y="695.63" class="st0" width="39.95" height="0.52"/>
	<rect x="271.22" y="699.13" class="st0" width="89.92" height="0.52"/>
	<rect x="379.69" y="699.13" class="st0" width="13.18" height="0.52"/>
	<rect x="435.72" y="707.91" class="st0" width="195.04" height="0.52"/>
	<path class="st0" d="M655.43,588.59H253.44c-6.57,0-11.89-5.32-11.89-11.89V11.59c0.06-6.52,5.36-11.78,11.89-11.78h401.99
		c6.57,0,11.89,5.32,11.89,11.89c0,0,0,0,0,0V576.7C667.32,583.27,662,588.59,655.43,588.59z M253.44,0.22
		c-6.27,0.01-11.36,5.09-11.37,11.37V576.7c0.01,6.27,5.09,11.36,11.37,11.37h401.99c6.27-0.01,11.36-5.09,11.37-11.37V11.59
		c-0.01-6.27-5.09-11.36-11.37-11.37H253.44z"/>
	<path class="st0" d="M1105.79,588.59H703.76c-6.56-0.01-11.88-5.33-11.89-11.89V11.59c0.07-6.52,5.37-11.77,11.89-11.78h402.03
		c6.51,0.02,11.79,5.28,11.85,11.78V576.7C1117.64,583.25,1112.34,588.57,1105.79,588.59z M703.76,0.22
		c-6.27,0.01-11.36,5.09-11.37,11.37V576.7c0.01,6.27,5.09,11.36,11.37,11.37h402.03c6.27-0.01,11.36-5.09,11.37-11.37V11.59
		c-0.01-6.27-5.09-11.36-11.37-11.37H703.76z"/>
	<rect x="162" y="681.45" class="st0" width="1041" height="0.52"/>
	<rect x="383.94" y="64.93" class="st1" width="156.09" height="437.28"/>
	<polygon class="st2" points="399.24,64.93 451.29,64.93 508.24,501.59 456.19,501.59 	"/>
	<path class="st3" d="M376.15,56.7h172.06v452.46H376.15V56.7z M535.09,69.82H389.35v426.23h145.74V69.82z"/>
	<rect x="604.26" y="64.93" class="st1" width="156.09" height="437.28"/>
	<polygon class="st2" points="619.54,64.93 671.59,64.93 728.55,501.59 676.5,501.59 	"/>
	<path class="st3" d="M596.47,56.7h172.06v452.46H596.47V56.7z M755.37,69.82H609.63v426.23h145.74V69.82z"/>
	<rect x="824.58" y="64.93" class="st1" width="156.09" height="437.28"/>
	<polygon class="st2" points="839.86,64.93 891.91,64.93 948.85,501.59 896.8,501.59 	"/>
	<path class="st3" d="M816.79,56.7h172.06v452.46H816.79V56.7z M975.73,69.82H829.99v426.23h145.74V69.82z"/>
	<rect x="475.47" y="537.21" class="st0" width="187.36" height="64.67"/>
	<rect x="475.47" y="601.88" class="st0" width="187.36" height="64.67"/>
	<polygon class="st1" points="546.65,601.88 569.97,537.21 534.1,537.21 510.78,601.88 	"/>
	<polygon class="st1" points="587.33,537.21 579.46,537.21 556.14,601.88 564.01,601.88 	"/>
	<polygon class="st1" points="523.35,666.56 546.65,601.88 510.78,601.88 487.46,666.56 	"/>
	<polygon class="st1" points="564.01,601.88 556.14,601.88 532.83,666.56 540.72,666.56 	"/>
	<rect x="475.47" y="540.6" class="st4" width="187.36" height="6.54"/>
	<rect x="475.47" y="604.77" class="st4" width="187.36" height="6.54"/>
	<path class="st1" d="M472.22,534.31v135.06h193.9V534.31H472.22z M659.6,662.84H478.73v-57.53H659.6V662.84z M659.6,598.75H478.73
		v-57.53H659.6V598.75z"/>
	<rect x="669.36" y="537.21" class="st0" width="187.36" height="64.67"/>
	<rect x="669.36" y="601.88" class="st0" width="187.36" height="64.67"/>
	<polygon class="st1" points="760.14,601.88 783.46,537.21 747.56,537.21 724.26,601.88 	"/>
	<polygon class="st1" points="800.8,537.21 792.93,537.21 769.61,601.88 777.5,601.88 	"/>
	<polygon class="st1" points="736.82,666.56 760.14,601.88 724.26,601.88 700.95,666.56 	"/>
	<polygon class="st1" points="777.5,601.88 769.61,601.88 746.31,666.56 754.18,666.56 	"/>
	<rect x="669.36" y="540.62" class="st4" width="187.36" height="6.54"/>
	<rect x="669.38" y="604.79" class="st4" width="187.36" height="6.54"/>
	<path class="st1" d="M666.09,534.31v135.06h193.92V534.31H666.09z M853.47,662.84H672.63v-57.53h180.82L853.47,662.84z
		 M853.47,598.75H672.63v-57.53h180.82L853.47,598.75z"/>
	<rect x="863.28" y="537.21" class="st0" width="187.36" height="64.67"/>
	<rect x="863.28" y="601.88" class="st0" width="187.36" height="64.67"/>
	<polygon class="st1" points="943.02,601.88 966.32,537.21 930.45,537.21 907.15,601.88 	"/>
	<polygon class="st1" points="983.7,537.21 975.81,537.21 952.49,601.88 960.38,601.88 	"/>
	<polygon class="st1" points="919.7,666.56 943.02,601.88 907.15,601.88 883.83,666.56 	"/>
	<polygon class="st1" points="960.38,601.88 952.49,601.88 929.2,666.56 937.07,666.56 	"/>
	<rect x="863.28" y="540.6" class="st4" width="187.36" height="6.54"/>
	<rect x="863.28" y="604.77" class="st4" width="187.36" height="6.54"/>
	<path class="st1" d="M860.01,534.31v135.06h193.9V534.31H860.01z M1047.39,662.84H866.55v-57.53h180.82L1047.39,662.84z
		 M1047.39,598.75H866.55v-57.53h180.82L1047.39,598.75z"/>
	<polygon class="st4" points="1035.17,679.12 490.94,679.12 488.1,669.39 1038,669.39 	"/>
	<path class="st4" d="M768.67,575.6c0,3.1-2.52,5.62-5.62,5.62c-3.1,0-5.62-2.52-5.62-5.62c0-3.1,2.52-5.62,5.62-5.62
		S768.67,572.5,768.67,575.6L768.67,575.6z"/>
	<path class="st2" d="M768.67,574.02c0,3.1-2.52,5.62-5.62,5.62c-3.1,0-5.62-2.52-5.62-5.62s2.52-5.62,5.62-5.62
		S768.67,570.91,768.67,574.02L768.67,574.02z"/>
	<path class="st4" d="M768.67,635.02c-0.01,3.1-2.54,5.61-5.64,5.6c-3.1-0.01-5.61-2.54-5.6-5.64c0.01-3.1,2.52-5.6,5.62-5.6
		c3.1,0,5.62,2.52,5.62,5.62C768.67,635.01,768.67,635.01,768.67,635.02z"/>
	<path class="st2" d="M768.67,633.42c0,3.1-2.52,5.62-5.62,5.62c-3.1,0-5.62-2.52-5.62-5.62c0-3.1,2.52-5.62,5.62-5.62
		S768.67,630.31,768.67,633.42L768.67,633.42z"/>
	<path class="st4" d="M574.78,575.6c0.01,3.12-2.51,5.65-5.62,5.66c-3.12,0.01-5.65-2.51-5.66-5.62c-0.01-3.12,2.51-5.65,5.62-5.66
		c0.01,0,0.01,0,0.02,0C572.24,569.98,574.77,572.49,574.78,575.6z"/>
	<path class="st2" d="M574.78,574.02c0.01,3.12-2.51,5.65-5.62,5.66s-5.65-2.51-5.66-5.62c-0.01-3.12,2.51-5.65,5.62-5.66
		c0.01,0,0.01,0,0.02,0c3.1-0.01,5.63,2.5,5.64,5.6C574.78,574,574.78,574.01,574.78,574.02z"/>
	<path class="st4" d="M574.78,635.02c0,3.12-2.53,5.64-5.64,5.64c-3.12,0-5.64-2.53-5.64-5.64c0-3.12,2.53-5.64,5.64-5.64l0,0
		c3.1-0.01,5.63,2.5,5.64,5.6C574.78,634.99,574.78,635.01,574.78,635.02z"/>
	<path class="st2" d="M574.78,633.42c0.01,3.12-2.51,5.65-5.62,5.66c-3.12,0.01-5.65-2.51-5.66-5.62c-0.01-3.12,2.51-5.65,5.62-5.66
		c0.01,0,0.01,0,0.02,0C572.24,627.8,574.77,630.31,574.78,633.42z"/>
	<path class="st4" d="M966.01,575.6c0,3.1-2.52,5.62-5.62,5.62c-3.1,0-5.62-2.52-5.62-5.62c0-3.1,2.52-5.62,5.62-5.62
		C963.49,569.98,966.01,572.5,966.01,575.6L966.01,575.6z"/>
	<path class="st2" d="M966.01,574.02c0,3.1-2.52,5.62-5.62,5.62c-3.1,0-5.62-2.52-5.62-5.62s2.52-5.62,5.62-5.62
		C963.49,568.4,966.01,570.91,966.01,574.02L966.01,574.02z"/>
	<path class="st4" d="M966.01,635.02c-0.01,3.1-2.54,5.61-5.64,5.6c-3.1-0.01-5.61-2.54-5.6-5.64c0.01-3.1,2.52-5.6,5.62-5.6
		c3.1,0,5.62,2.52,5.62,5.62C966.01,635.01,966.01,635.01,966.01,635.02z"/>
	<path class="st2" d="M966.01,633.42c0,3.1-2.52,5.62-5.62,5.62c-3.1,0-5.62-2.52-5.62-5.62c0-3.1,2.52-5.62,5.62-5.62
		C963.49,627.8,966.01,630.31,966.01,633.42L966.01,633.42z"/>
	<polygon class="st0" points="384.44,516.39 385.79,587.95 381.73,587.95 382.13,516.39 	"/>
	<path class="st4" d="M378.53,527.99c-0.29,0.21,1.02,1.44-4.85,1.44c-14.57,0-39.56-1.48-45.55-10.91
		c-8.62-13.45,22.24-11.31,21.92-18.59c-0.31-7.29-36.06-2.52-38.81-12.93s21.03-7.7,21.9-13.03c0.87-5.33-27.38,0.75-31.71-10.41
		c-4.33-11.16,15.89-4.64,13.97-9.26s-23.21-24.28-10.1-28.11s32.42,16.66,40.43,18.97c8.02,2.31,17.38-16.82,26.52-10.01
		c9.14,6.81-9.51,35.58,2.64,39.56c9.04,3,7.52-7.58,19.78-6.79C411.36,469.02,401.43,509.89,378.53,527.99z"/>
	<polygon class="st1" points="397.14,530.82 390.79,587.11 393.96,587.11 399.64,530.82 	"/>
	<polygon class="st1" points="386.81,537.46 390.98,587.11 387.79,587.11 384.34,537.46 	"/>
	<path class="st5" d="M397.14,535.25c9.1,7.75,28.25,12.91,37.79,10.41c9.54-2.5-10.01-12.28-5.52-16.84
		c4.5-4.56,24.15,17.82,32,12.49c7.85-5.33-8.64-16.28-6.04-20.2s18.36,10.41,27.67,5.45c9.31-4.96-7.25-11.51-3.31-13.49
		c3.93-1.98,28.94-3.27,22.9-12.78c-6.04-9.51-30.15-6.64-36.58-9.41c-6.43-2.77-2.58-15.41-12.35-15.91s-15.07,28.15-24.98,24.23
		c-7.45-2.91,0.21-11.72-8.33-15.01C405.24,478.41,393.46,532.11,397.14,535.25z"/>
	<g class="st6">
		<path class="st5" d="M397.14,535.25c9.1,7.75,28.25,12.91,37.79,10.41c9.54-2.5-10.01-12.28-5.52-16.84
			c4.5-4.56,24.15,17.82,32,12.49c7.85-5.33-8.64-16.28-6.04-20.2s18.36,10.41,27.67,5.45c9.31-4.96-7.25-11.51-3.31-13.49
			c3.93-1.98,28.94-3.27,22.9-12.78c-6.04-9.51-30.15-6.64-36.58-9.41c-6.43-2.77-2.58-15.41-12.35-15.91s-15.07,28.15-24.98,24.23
			c-7.45-2.91,0.21-11.72-8.33-15.01C405.24,478.41,393.46,532.11,397.14,535.25z"/>
	</g>
	<path class="st0" d="M386.54,538.83c-4.06,6.56-14.8,13.51-21.15,13.87c-6.35,0.35,3.73-9.54,0-11.45s-11.33,15.74-17.2,13.99
		c-5.87-1.75,2.08-11.72-0.27-13.6c-2.35-1.87-9.24,9.99-15.93,8.81c-6.68-1.19,2.08-8.49-0.65-8.93s-18.43,3.71-16.66-3.33
		c1.77-7.04,17.22-10.01,20.63-12.99c3.41-2.98-1.46-9.97,4.43-12.22c5.89-2.25,14.82,14.32,20.2,9.95c4-3.27-2.44-7.16,2.08-10.89
		C370.35,505.52,388.21,536.17,386.54,538.83z"/>
	<g class="st6">
		<path class="st0" d="M386.54,538.83c-4.06,6.56-14.8,13.51-21.15,13.87c-6.35,0.35,3.73-9.54,0-11.45s-11.33,15.74-17.2,13.99
			c-5.87-1.75,2.08-11.72-0.27-13.6c-2.35-1.87-9.24,9.99-15.93,8.81c-6.68-1.19,2.08-8.49-0.65-8.93s-18.43,3.71-16.66-3.33
			c1.77-7.04,17.22-10.01,20.63-12.99c3.41-2.98-1.46-9.97,4.43-12.22c5.89-2.25,14.82,14.32,20.2,9.95c4-3.27-2.44-7.16,2.08-10.89
			C370.35,505.52,388.21,536.17,386.54,538.83z"/>
	</g>
	<path class="st0" d="M365.62,679.12c-11.87-22.28-18.49-91.21-9.6-98.71h69.52c8.89,7.5,2.27,76.43-9.58,98.71H365.62z"/>
</g>
<g id="freepik--Shadow--inject-10">
	<ellipse id="freepik--path--inject-10" class="st1" cx="672.46" cy="743.89" rx="403.68" ry="23.57"/>
</g>
<g id="freepik--Device--inject-10">
	<path class="st7" d="M954.06,81.73h-54.13l-54.51,623.14h54.13c25.59-0.41,46.84-19.9,49.45-45.37l46.57-532.41
		c2.47-22.46-13.74-42.67-36.2-45.13C957.6,81.77,955.83,81.69,954.06,81.73z"/>
	<path class="st7" d="M987.53,144.21c0.25-2.43,2.28-4.29,4.73-4.33c2.16-0.05,3.95,1.67,4,3.83c0,0.17,0,0.34-0.02,0.5l-3.64,41.76
		c-0.26,2.44-2.29,4.3-4.75,4.35c-2.16,0.04-3.94-1.69-3.98-3.85c0-0.17,0.01-0.34,0.02-0.5L987.53,144.21z"/>
	<path class="st8" d="M987.53,144.21c0.25-2.43,2.28-4.29,4.73-4.33c2.16-0.05,3.95,1.67,4,3.83c0,0.17,0,0.34-0.02,0.5l-3.64,41.76
		c-0.26,2.44-2.29,4.3-4.75,4.35c-2.16,0.04-3.94-1.69-3.98-3.85c0-0.17,0.01-0.34,0.02-0.5L987.53,144.21z"/>
	<path class="st9" d="M888.47,704.89H665.7c-22.6,0.4-41.25-17.6-41.65-40.2c-0.03-1.73,0.05-3.46,0.24-5.18l46.57-532.41
		c2.61-25.43,23.79-44.9,49.34-45.37h222.77c22.59-0.41,41.24,17.57,41.65,40.16c0.03,1.74-0.05,3.48-0.24,5.21l-46.57,532.41
		C935.22,684.94,914.03,704.42,888.47,704.89z"/>
	<path class="st7" d="M942.08,92.14h-57.9c-3.89,0.04-7.24,2.77-8.06,6.58l-0.4,1.81c-2.06,9.25-10.18,15.89-19.65,16.07h-55.05
		c-9.05,0.11-16.53-7.03-16.84-16.07v-1.81c-0.09-3.72-3.17-6.66-6.89-6.58h-57.96c-19.7,0.34-36.04,15.35-38.04,34.96
		l-46.57,532.41c-1.9,17.3,10.59,32.87,27.89,34.77c1.33,0.15,2.67,0.21,4,0.18h222.77c19.69-0.35,36.02-15.36,38.02-34.96
		l46.57-532.41c1.9-17.3-10.59-32.87-27.89-34.77C944.76,92.18,943.42,92.12,942.08,92.14z"/>
	<path class="st10" d="M942.08,92.14h-57.9c-3.89,0.04-7.24,2.77-8.06,6.58l-0.4,1.81c-2.06,9.25-10.18,15.89-19.65,16.07h-55.05
		c-9.05,0.11-16.53-7.03-16.84-16.07v-1.81c-0.09-3.72-3.17-6.66-6.89-6.58h-57.96c-19.7,0.34-36.04,15.35-38.04,34.96
		l-46.57,532.41c-1.9,17.3,10.59,32.87,27.89,34.77c1.33,0.15,2.67,0.21,4,0.18h222.77c19.69-0.35,36.02-15.36,38.02-34.96
		l46.57-532.41c1.9-17.3-10.59-32.87-27.89-34.77C944.76,92.18,943.42,92.12,942.08,92.14z"/>
	<g class="st11">
		<path d="M816.71,98.03c-0.25,2.48-2.32,4.37-4.81,4.41c-2.21,0.04-4.03-1.73-4.06-3.93c0-0.16,0-0.32,0.02-0.48
			c0.25-2.48,2.32-4.38,4.81-4.43c2.2-0.05,4.02,1.69,4.06,3.89C816.74,97.67,816.73,97.85,816.71,98.03z"/>
		<path d="M848.48,93.6H833.3c-2.5,0.04-4.57,1.95-4.81,4.43c-0.24,2.18,1.33,4.15,3.51,4.39c0.17,0.02,0.35,0.03,0.52,0.02h15.16
			c2.49-0.04,4.56-1.94,4.81-4.41c0.25-2.18-1.31-4.16-3.49-4.41C848.83,93.6,848.65,93.59,848.48,93.6z"/>
	</g>
	<polygon class="st7" points="706.46,116.5 711.15,116.5 711.56,111.81 706.88,111.81 	"/>
	<polygon class="st7" points="716.25,111.81 715.83,116.5 720.52,116.5 720.93,111.81 721.35,107.13 716.67,107.13 	"/>
	<polygon class="st7" points="726.43,102.45 726.03,107.13 725.62,111.81 725.2,116.5 729.89,116.5 730.3,111.81 730.72,107.13 
		731.11,102.45 	"/>
	<path class="st7" d="M927.86,102.76l-0.31,3.44h-2.29l-0.6,6.87h2.29l-0.29,3.44h20.61l1.21-13.74L927.86,102.76z M936.19,113.17
		h-6.87l0.6-6.87h6.87L936.19,113.17z"/>
	<path class="st12" d="M923.26,400.09H684.25c-6.63,0.12-12.11-5.16-12.23-11.79c-0.01-0.51,0.01-1.02,0.07-1.53l14.43-165.02
		c0.77-7.5,7.04-13.23,14.57-13.32h238.95c6.65-0.11,12.12,5.19,12.23,11.84c0.01,0.5-0.01,0.99-0.07,1.49l-14.45,165.02
		C936.99,394.23,930.77,399.96,923.26,400.09z"/>
	<path class="st7" d="M684.25,400.09h239.01c7.54-0.1,13.8-5.83,14.57-13.32l8.14-92.92l-5.66,10.41l-5.64,10.41h-4.83l-3.83-10.41
		l-6.77-31.23l-8.12-15.62h-9.49l-4.29-5.2h-14.22l-10.41,10.41l-3.83-10.41h-9.41l-5.64,10.41L850,252.2l-6.12,15.61l-5.21,5.21
		l-5.18,5.2h-9.49l-5.2,5.2l-5.66,10.41l-9.93,5.21l-9.04-5.21h-9.64l-5.64,10.41l-4.29-5.2h-4.64l-5.2,5.2l-5.21,5.21l-4.29-5.21
		h-9.47l-3.85-10.41l-5.64,10.41l-5.66,10.41l-5.64,10.41l-10.41,10.41l-8.58-10.41l-10.41,10.41l-10.41,10.41h-9.49l-3.58,40.87
		c-0.73,6.59,4.03,12.53,10.63,13.25C683.23,400.07,683.74,400.1,684.25,400.09z"/>
	<path class="st8" d="M684.25,400.09h239.01c7.54-0.1,13.8-5.83,14.57-13.32l8.14-92.92l-5.66,10.41l-5.64,10.41h-4.83l-3.83-10.41
		l-6.77-31.23l-8.12-15.62h-9.49l-4.29-5.2h-14.22l-10.41,10.41l-3.83-10.41h-9.41l-5.64,10.41L850,252.2l-6.12,15.61l-5.21,5.21
		l-5.18,5.2h-9.49l-5.2,5.2l-5.66,10.41l-9.93,5.21l-9.04-5.21h-9.64l-5.64,10.41l-4.29-5.2h-4.64l-5.2,5.2l-5.21,5.21l-4.29-5.21
		h-9.47l-3.85-10.41l-5.64,10.41l-5.66,10.41l-5.64,10.41l-10.41,10.41l-8.58-10.41l-10.41,10.41l-10.41,10.41h-9.49l-3.58,40.87
		c-0.73,6.59,4.03,12.53,10.63,13.25C683.23,400.07,683.74,400.1,684.25,400.09z"/>
	<path class="st7" d="M684.25,400.09h239.01c7.54-0.1,13.8-5.83,14.57-13.32l6.77-77.3l-5.18,5.2l-5.2,5.21h-9.58l-9.04-5.21
		l-8.58-10.41l-5.21,5.21h-18.97l-5.21,5.2h-4.75l-5.18,5.21l-4.29-5.21h-9.49l-6.58,20.82l-8.56-10.41h-28.48l-5.18,5.2h-9.49
		l-5.21,5.21h-9.49l-5.18,5.2h-9.49l-4.29-5.2l-9.95,5.2h-9.49l-9.93,5.21l-9.95,5.2h-9.47l-9.95,5.21l-8.58-10.41l-19.88,10.41
		l-2.67,30.46c-0.73,6.59,4.03,12.53,10.63,13.25C683.23,400.07,683.74,400.1,684.25,400.09z"/>
	<path class="st12" d="M684.25,400.09h239.01c7.54-0.1,13.8-5.83,14.57-13.32l6.77-77.3l-5.18,5.2l-5.2,5.21h-9.58l-9.04-5.21
		l-8.58-10.41l-5.21,5.21h-18.97l-5.21,5.2h-4.75l-5.18,5.21l-4.29-5.21h-9.49l-6.58,20.82l-8.56-10.41h-28.48l-5.18,5.2h-9.49
		l-5.21,5.21h-9.49l-5.18,5.2h-9.49l-4.29-5.2l-9.95,5.2h-9.49l-9.93,5.21l-9.95,5.2h-9.47l-9.95,5.21l-8.58-10.41l-19.88,10.41
		l-2.67,30.46c-0.73,6.59,4.03,12.53,10.63,13.25C683.23,400.07,683.74,400.1,684.25,400.09z"/>
	<path class="st12" d="M914.62,499.05H675.59c-6.62,0.13-12.1-5.13-12.23-11.75c-0.01-0.53,0.01-1.05,0.07-1.58l2.85-32.71
		c0.76-7.5,7.03-13.24,14.57-13.32h238.99c6.63-0.12,12.11,5.16,12.23,11.79c0.01,0.51-0.01,1.02-0.07,1.53l-2.85,32.71
		C928.39,493.21,922.15,498.94,914.62,499.05z"/>
	<path class="st12" d="M908.98,563.38H670.01c-6.65,0.12-12.13-5.17-12.25-11.82c-0.01-0.5,0.01-1.01,0.07-1.51l2.87-32.71
		c0.76-7.5,7.03-13.24,14.57-13.32h238.91c6.63-0.12,12.11,5.16,12.23,11.79c0.01,0.51-0.01,1.02-0.07,1.53l-2.87,32.71
		C922.71,557.53,916.49,563.25,908.98,563.38z"/>
	<path class="st12" d="M903.36,627.73H664.32c-6.65,0.11-12.12-5.19-12.23-11.84c-0.01-0.5,0.01-0.99,0.07-1.49l2.87-32.73
		c0.76-7.5,7.03-13.24,14.57-13.32h239.01c6.62-0.13,12.1,5.13,12.23,11.75c0.01,0.53-0.01,1.05-0.07,1.58l-3.02,32.73
		C917,621.84,910.83,627.55,903.36,627.73z"/>
	<path class="st9" d="M694.55,381.68c-1.06,0.86-2.36,1.36-3.73,1.44l-0.21,2.33h-1.71l0.21-2.31c-0.98-0.05-1.95-0.24-2.87-0.56
		c-0.77-0.24-1.48-0.64-2.08-1.17l1.12-2.08c0.53,0.45,1.14,0.8,1.79,1.04c0.72,0.3,1.48,0.48,2.25,0.54l0.35-4.16
		c-0.82-0.18-1.62-0.45-2.39-0.79c-0.62-0.26-1.16-0.69-1.54-1.25c-0.4-0.62-0.57-1.35-0.48-2.08c0.09-1.12,0.62-2.15,1.48-2.87
		c1.04-0.86,2.34-1.35,3.69-1.42l0.21-2.35h1.71l-0.21,2.31c0.76,0.04,1.52,0.17,2.25,0.4c0.66,0.2,1.29,0.5,1.87,0.87l-1.04,2.08
		c-1.01-0.6-2.13-0.99-3.29-1.12l-0.35,4.16c0.83,0.19,1.63,0.44,2.42,0.77c0.62,0.26,1.16,0.68,1.56,1.23
		c0.42,0.65,0.59,1.42,0.48,2.19C695.93,379.97,695.4,380.98,694.55,381.68z M688.41,373.5c0.45,0.33,0.96,0.57,1.5,0.71l0.31-3.71
		c-0.6,0.06-1.17,0.29-1.64,0.67c-0.36,0.31-0.59,0.75-0.62,1.23C687.89,372.82,688.07,373.25,688.41,373.5z M692.72,380.2
		c0.36-0.29,0.59-0.72,0.62-1.19c0.06-0.44-0.11-0.87-0.46-1.15c-0.46-0.33-0.99-0.57-1.54-0.71l-0.31,3.64
		C691.64,380.77,692.23,380.56,692.72,380.2z"/>
	<path class="st9" d="M709.38,368.32l-1.27,14.57h-2.71l1.08-12.3h-3.16l0.19-2.27H709.38z"/>
	<path class="st9" d="M717.31,368.32l-1.27,14.57h-2.71l1.08-12.3h-3.08l0.19-2.27H717.31z"/>
	<path class="st9" d="M722.06,380.12c0.3,0.34,0.44,0.8,0.37,1.25c-0.03,0.24-0.08,0.47-0.17,0.69c-0.14,0.38-0.3,0.74-0.48,1.1
		l-1.31,2.94h-1.69l1.19-3.21c-0.28-0.12-0.52-0.33-0.67-0.6c-0.15-0.29-0.21-0.61-0.17-0.94c0.04-0.98,0.86-1.74,1.83-1.73
		C721.39,379.64,721.78,379.82,722.06,380.12z"/>
	<path class="st9" d="M734.97,380.66l-0.19,2.29h-10.64l0.17-1.81l6.25-5.5c0.57-0.47,1.06-1.02,1.46-1.64
		c0.25-0.42,0.41-0.89,0.46-1.37c0.1-0.58-0.11-1.17-0.54-1.56c-0.58-0.4-1.28-0.59-1.98-0.54c-1.35-0.06-2.65,0.5-3.54,1.52
		l-1.77-1.46c0.66-0.79,1.51-1.4,2.46-1.79c1.04-0.42,2.16-0.64,3.29-0.62c1.32-0.08,2.63,0.32,3.69,1.12
		c0.88,0.75,1.32,1.91,1.15,3.06c-0.06,0.78-0.28,1.53-0.67,2.21c-0.57,0.89-1.27,1.69-2.08,2.37l-4.16,3.71L734.97,380.66z"/>
	<path class="st9" d="M746.25,375.77c0.66,0.78,0.95,1.8,0.81,2.81c-0.06,0.83-0.35,1.63-0.83,2.31c-0.54,0.72-1.26,1.29-2.08,1.64
		c-1.02,0.44-2.12,0.65-3.23,0.62c-1.01,0.01-2.02-0.15-2.98-0.46c-0.86-0.26-1.65-0.67-2.35-1.23l1.35-2.08
		c0.53,0.47,1.16,0.82,1.83,1.04c0.74,0.27,1.52,0.4,2.31,0.4c0.81,0.04,1.62-0.17,2.31-0.6c0.55-0.35,0.91-0.95,0.96-1.6
		c0.1-0.61-0.15-1.23-0.65-1.6c-0.7-0.43-1.51-0.63-2.33-0.56h-1.33l0.17-1.85l3.66-3.93h-6.62l0.19-2.27h9.93l-0.15,1.81
		l-3.91,4.16C744.43,374.45,745.48,374.95,746.25,375.77z"/>
	<path class="st9" d="M761.74,379.64h-2.58l-0.29,3.31h-2.62l0.29-3.31h-7.99l0.17-1.87l7.99-9.39h2.83l-7.56,8.97h4.77l0.27-2.94
		h2.52l-0.27,2.94h2.58L761.74,379.64z"/>
	<path class="st9" d="M766.11,380.12c0.3,0.34,0.43,0.8,0.35,1.25c-0.01,0.24-0.06,0.47-0.15,0.69c-0.14,0.38-0.3,0.74-0.48,1.1
		l-1.31,2.94h-1.69l1.1-3.19c-0.28-0.12-0.52-0.33-0.67-0.6c-0.15-0.29-0.21-0.61-0.19-0.94c0.03-0.48,0.25-0.93,0.6-1.25
		c0.34-0.32,0.79-0.49,1.25-0.48C765.39,379.63,765.81,379.8,766.11,380.12z"/>
	<path class="st9" d="M777.88,375.21c0.92,0.82,1.37,2.05,1.21,3.27c-0.07,0.83-0.35,1.63-0.81,2.33c-0.53,0.74-1.25,1.32-2.08,1.69
		c-1.02,0.44-2.13,0.65-3.25,0.62c-1.01,0.01-2.02-0.15-2.98-0.46c-0.86-0.25-1.66-0.66-2.35-1.23l1.33-2.08
		c0.54,0.46,1.17,0.82,1.85,1.04c0.74,0.27,1.52,0.4,2.31,0.4c0.81,0.04,1.62-0.17,2.31-0.6c0.56-0.36,0.92-0.96,0.96-1.62
		c0.1-0.66-0.18-1.32-0.73-1.71c-0.92-0.45-1.95-0.65-2.98-0.56h-3.56l1.44-7.93h8.56l-0.19,2.27h-6.25l-0.62,3.37h1.4
		C775.02,373.87,776.59,374.3,777.88,375.21z"/>
	<path class="st9" d="M783.41,382.77c-0.12-0.88-0.12-1.78,0-2.66c0.07-0.92,0.26-1.82,0.56-2.69c0.26-0.78,0.64-1.52,1.12-2.19
		h1.25c-0.48,0.72-0.87,1.49-1.15,2.31c-0.28,0.83-0.45,1.69-0.52,2.56c-0.11,0.85-0.11,1.71,0,2.56c0.13,0.8,0.38,1.58,0.73,2.31
		h-1.25C783.79,384.28,783.54,383.54,783.41,382.77z"/>
	<path class="st9" d="M792.7,381.29h-1.29l-0.15,1.67h-1.31l0.15-1.67h-4v-0.94l4-4.68h1.46l-3.77,4.48h2.37l0.12-1.46h1.27
		l-0.12,1.46h1.42L792.7,381.29z"/>
	<path class="st9" d="M793.57,382.89c-0.16-0.16-0.24-0.4-0.21-0.62c0.02-0.24,0.12-0.46,0.29-0.62c0.18-0.16,0.41-0.25,0.65-0.25
		c0.22-0.01,0.44,0.08,0.58,0.25c0.15,0.17,0.21,0.4,0.19,0.62c-0.02,0.24-0.12,0.46-0.29,0.62c-0.18,0.16-0.41,0.24-0.65,0.23
		C793.92,383.13,793.72,383.05,793.57,382.89z"/>
	<path class="st9" d="M797.26,382.62c-0.45-0.32-0.79-0.77-0.96-1.29c-0.24-0.67-0.32-1.38-0.23-2.08c0.03-0.73,0.23-1.44,0.58-2.08
		c0.28-0.53,0.69-0.97,1.19-1.29c0.48-0.29,1.04-0.44,1.6-0.44c0.54-0.01,1.07,0.14,1.52,0.44c0.46,0.31,0.8,0.77,0.98,1.29
		c0.23,0.67,0.31,1.38,0.23,2.08c-0.05,0.73-0.25,1.43-0.58,2.08c-0.28,0.53-0.69,0.98-1.21,1.29c-0.48,0.29-1.04,0.44-1.6,0.44
		C798.24,383.07,797.71,382.92,797.26,382.62z M800.17,381.23c0.4-0.56,0.62-1.23,0.62-1.92c0.11-0.66,0.01-1.34-0.29-1.94
		c-0.24-0.41-0.69-0.66-1.17-0.65c-0.51,0-0.98,0.24-1.29,0.65c-0.38,0.57-0.59,1.25-0.6,1.94c-0.11,0.65-0.02,1.32,0.27,1.92
		c0.24,0.41,0.69,0.66,1.17,0.65C799.39,381.88,799.88,381.64,800.17,381.23z"/>
	<path class="st9" d="M807.65,379.08c0.46,0.4,0.69,1.02,0.6,1.62c-0.04,0.42-0.18,0.83-0.42,1.19c-0.27,0.37-0.63,0.66-1.04,0.85
		c-0.51,0.22-1.07,0.33-1.62,0.31c-0.51,0-1.01-0.08-1.5-0.23c-0.43-0.13-0.82-0.34-1.17-0.62l0.67-1.04
		c0.27,0.23,0.58,0.41,0.92,0.52c0.38,0.13,0.77,0.19,1.17,0.19c0.4,0.03,0.8-0.08,1.15-0.29c0.29-0.17,0.46-0.48,0.48-0.81
		c0.06-0.33-0.08-0.66-0.35-0.85c-0.46-0.23-0.98-0.33-1.5-0.29h-1.77l0.71-3.96h4.29l-0.1,1.12h-3.12l-0.31,1.69h0.71
		C806.21,378.4,807,378.62,807.65,379.08z"/>
	<path class="st9" d="M809.5,379.04c-0.29-0.42-0.42-0.94-0.35-1.46c0.03-0.53,0.25-1.04,0.6-1.44c0.34-0.37,0.81-0.57,1.31-0.56
		c0.48-0.02,0.93,0.19,1.23,0.56c0.3,0.41,0.43,0.93,0.35,1.44c-0.03,0.54-0.25,1.06-0.62,1.46c-0.34,0.36-0.82,0.56-1.31,0.54
		C810.24,379.61,809.79,379.41,809.5,379.04z M811.48,378.52c0.19-0.28,0.3-0.6,0.31-0.94c0.03-0.33-0.04-0.65-0.21-0.94
		c-0.13-0.22-0.37-0.35-0.62-0.33c-0.27,0-0.53,0.14-0.69,0.35c-0.19,0.27-0.3,0.59-0.31,0.92c-0.05,0.32,0.01,0.65,0.17,0.94
		c0.12,0.22,0.36,0.35,0.6,0.33c0.27,0,0.52-0.12,0.69-0.33H811.48z M815.44,375.67h1.02l-5.62,7.29h-1.02L815.44,375.67z
		 M813.98,382.47c-0.29-0.42-0.42-0.94-0.35-1.46c0.04-0.53,0.26-1.03,0.6-1.44c0.34-0.37,0.81-0.57,1.31-0.56
		c0.48-0.02,0.93,0.19,1.23,0.56c0.29,0.42,0.42,0.93,0.35,1.44c-0.03,0.54-0.24,1.05-0.6,1.46c-0.35,0.36-0.83,0.56-1.33,0.54
		c-0.49,0.05-0.97-0.15-1.27-0.54H813.98z M815.94,381.95c0.2-0.27,0.32-0.6,0.33-0.94c0.05-0.32-0.01-0.64-0.17-0.92
		c-0.12-0.23-0.37-0.37-0.62-0.35c-0.27,0.01-0.52,0.13-0.69,0.33c-0.18,0.28-0.29,0.6-0.31,0.94c-0.05,0.32,0,0.65,0.15,0.94
		c0.14,0.22,0.39,0.35,0.65,0.33c0.24-0.01,0.46-0.14,0.6-0.33H815.94z"/>
	<path class="st9" d="M817.08,384.97c0.47-0.73,0.85-1.51,1.15-2.33c0.27-0.82,0.45-1.68,0.52-2.54c0.11-0.85,0.11-1.71,0-2.56
		c-0.13-0.8-0.38-1.58-0.73-2.31h1.23c0.37,0.68,0.63,1.42,0.75,2.19c0.15,0.89,0.19,1.79,0.1,2.69c-0.07,0.92-0.26,1.82-0.56,2.69
		c-0.26,0.79-0.65,1.52-1.15,2.19H817.08z"/>
	<path class="st7" d="M846.81,678.99H711.9c-6.63,0.12-12.11-5.16-12.23-11.79c-0.01-0.51,0.01-1.02,0.07-1.53l0.83-9.45
		c0.77-7.5,7.04-13.23,14.57-13.32h134.89c6.63-0.12,12.11,5.16,12.23,11.79c0.01,0.51-0.01,1.02-0.07,1.53l-0.81,9.45
		C860.62,673.17,854.35,678.9,846.81,678.99z"/>
	<path class="st13" d="M740.36,662.3c0.43,0.68,0.61,1.49,0.5,2.29c-0.07,1.2-0.7,2.29-1.71,2.94c-1.32,0.76-2.83,1.11-4.35,1.02
		h-7.25l1.29-14.57h6.83c1.37-0.09,2.73,0.26,3.87,1.02c0.88,0.61,1.36,1.66,1.25,2.73c-0.05,0.69-0.28,1.35-0.67,1.92
		c-0.38,0.55-0.9,1-1.5,1.29C739.34,661.17,739.95,661.66,740.36,662.3z M731.36,656.05l-0.35,4.02h3.83
		c0.77,0.04,1.55-0.13,2.23-0.5c0.52-0.33,0.84-0.89,0.87-1.5c0.1-0.58-0.14-1.16-0.62-1.5c-0.62-0.38-1.35-0.57-2.08-0.52H731.36z
		 M738.15,664.27c0.12-1.39-0.85-2.08-2.96-2.08h-4.37l-0.37,4.16h4.37c2.1,0.06,3.21-0.65,3.33-2.04V664.27z"/>
	<path class="st13" d="M745.11,667.06c-1.1-1.37-1.57-3.14-1.27-4.87l0.73-8.22h2.71l-0.71,8.12c-0.25,2.85,0.85,4.29,3.33,4.29
		c2.48,0,3.81-1.44,4.06-4.29l0.71-8.12h2.66l-0.73,8.22c-0.05,1.83-0.8,3.57-2.08,4.87c-1.33,1.17-3.06,1.77-4.83,1.69
		C747.99,668.88,746.31,668.27,745.11,667.06z"/>
	<path class="st13" d="M766.36,663.4l-0.46,5.14h-2.71l0.46-5.1l-4.89-9.47h2.85l3.64,7.1l4.93-7.1h2.66L766.36,663.4z"/>
	<path class="st13" d="M793.37,653.97l-1.29,14.57h-2.23l-7.16-9.87l-0.87,9.87h-2.69l1.29-14.57h2.23l7.16,9.87l0.87-9.87H793.37z"
		/>
	<path class="st13" d="M798.86,667.79c-1.11-0.61-2.01-1.55-2.58-2.69c-0.59-1.19-0.83-2.53-0.69-3.85
		c0.11-1.37,0.58-2.69,1.35-3.83c0.78-1.13,1.82-2.05,3.04-2.69c1.29-0.66,2.72-1,4.16-0.98c1.37-0.03,2.72,0.31,3.91,0.98
		c1.11,0.61,2.01,1.54,2.58,2.66c0.59,1.19,0.83,2.53,0.69,3.85c-0.11,1.38-0.58,2.71-1.35,3.85c-0.78,1.13-1.82,2.05-3.04,2.69
		c-1.29,0.66-2.72,0.99-4.16,0.96C801.41,668.78,800.06,668.45,798.86,667.79z M805.67,665.71c1.67-0.9,2.76-2.59,2.89-4.48
		c0.1-0.9-0.05-1.81-0.44-2.62c-0.36-0.77-0.94-1.4-1.67-1.83c-0.78-0.45-1.66-0.68-2.56-0.67c-0.94-0.01-1.86,0.22-2.69,0.67
		c-1.66,0.9-2.75,2.57-2.89,4.46c-0.1,0.9,0.06,1.82,0.44,2.64c0.36,0.76,0.94,1.4,1.67,1.83c0.79,0.44,1.68,0.67,2.58,0.65
		c0.93,0.02,1.84-0.2,2.67-0.62V665.71z"/>
	<path class="st13" d="M835.65,653.97l-6.12,14.57h-2.87l-2.58-10.83l-4.62,10.78h-2.89l-3.54-14.57h2.73l2.64,11.08l4.75-11.08h2.5
		l2.71,11.14l4.71-11.14L835.65,653.97z"/>
	<path class="st9" d="M739.03,470.52c0.34,0.55,0.48,1.19,0.4,1.83c-0.05,0.96-0.56,1.84-1.37,2.35c-1.05,0.6-2.25,0.88-3.46,0.81
		h-5.81l1.02-11.66h5.48c1.1-0.08,2.19,0.21,3.1,0.81c0.69,0.52,1.04,1.37,0.92,2.23c-0.04,0.54-0.22,1.07-0.52,1.52
		c-0.3,0.44-0.71,0.8-1.19,1.04C738.18,469.64,738.68,470.01,739.03,470.52z M731.82,465.57l-0.27,3.21h3
		c0.62,0.04,1.23-0.1,1.77-0.4c0.42-0.26,0.69-0.71,0.71-1.21c0.08-0.47-0.11-0.94-0.5-1.21c-0.52-0.3-1.11-0.44-1.71-0.4
		L731.82,465.57z M737.26,472.15c0.1-1.12-0.69-1.69-2.35-1.69h-3.5l-0.31,3.37h3.46C736.28,473.83,737.17,473.27,737.26,472.15z"/>
	<path class="st9" d="M744.52,465.69h-3.87l0.17-1.83h9.89l-0.15,1.83h-3.87l-0.85,9.83h-2.08L744.52,465.69z"/>
	<path class="st9" d="M753.41,474.92c-0.89-0.47-1.61-1.2-2.08-2.08c-0.47-0.95-0.66-2.02-0.54-3.08c0.09-1.1,0.46-2.17,1.08-3.08
		c0.63-0.88,1.46-1.6,2.44-2.08c1.01-0.51,2.12-0.77,3.25-0.77c0.89-0.01,1.76,0.16,2.58,0.5c0.74,0.32,1.38,0.82,1.87,1.46
		l-1.52,1.31c-0.73-0.9-1.84-1.41-3-1.37c-0.73-0.02-1.46,0.14-2.12,0.46c-0.66,0.33-1.22,0.84-1.62,1.46
		c-0.4,0.63-0.65,1.34-0.71,2.08c-0.07,0.71,0.05,1.43,0.35,2.08c0.29,0.61,0.76,1.12,1.35,1.46c0.63,0.36,1.35,0.54,2.08,0.52
		c1.22,0,2.39-0.49,3.23-1.37l1.29,1.33c-0.59,0.62-1.29,1.11-2.08,1.44c-0.85,0.34-1.75,0.51-2.66,0.5
		C755.49,475.7,754.39,475.44,753.41,474.92z"/>
	<path class="st9" d="M732.07,538.04l-0.17,1.81h-8.74l1.02-11.66h8.52l-0.17,1.83h-6.25l-0.25,3.02h5.62l-0.17,1.79h-5.62
		l-0.27,3.21H732.07z"/>
	<path class="st9" d="M737.55,530.03h-3.87l0.17-1.83h9.89l-0.17,1.83h-3.85l-0.85,9.83h-2.08L737.55,530.03z"/>
	<path class="st9" d="M755.72,528.19l-1.02,11.66h-2.08l0.44-5h-6.02l-0.44,5h-2.08l1.02-11.66h2.08l-0.44,4.83h6.04l0.42-4.83
		H755.72z"/>
	<path class="st9" d="M718.56,592.53h2.08l-0.87,9.85h6.1l-0.17,1.81h-8.33L718.56,592.53z"/>
	<path class="st9" d="M729.66,594.36h-3.87l0.17-1.83h9.89l-0.17,1.83h-3.85l-0.87,9.83h-2.08L729.66,594.36z"/>
	<path class="st9" d="M738.55,603.58c-0.88-0.48-1.61-1.2-2.08-2.08c-0.47-0.96-0.65-2.02-0.54-3.08c0.08-1.11,0.45-2.17,1.08-3.08
		c0.62-0.89,1.46-1.61,2.44-2.08c1-0.53,2.12-0.8,3.25-0.79c0.89-0.01,1.76,0.16,2.58,0.5c0.73,0.33,1.36,0.83,1.85,1.46l-1.5,1.31
		c-0.74-0.89-1.84-1.39-3-1.35c-0.73,0-1.44,0.18-2.08,0.52c-1.36,0.7-2.24,2.06-2.33,3.58c-0.08,0.71,0.03,1.43,0.33,2.08
		c0.3,0.61,0.77,1.11,1.35,1.46c0.64,0.35,1.35,0.53,2.08,0.52c1.23,0.01,2.4-0.49,3.25-1.37l1.27,1.33
		c-0.57,0.63-1.29,1.12-2.08,1.44c-0.85,0.34-1.75,0.52-2.66,0.52C740.62,604.47,739.51,604.17,738.55,603.58z"/>
	<path class="st9" d="M845.94,474.5c-0.85,0.68-1.89,1.08-2.98,1.15l-0.17,1.85h-1.35l0.17-1.85c-0.79-0.04-1.57-0.18-2.31-0.44
		c-0.61-0.19-1.18-0.51-1.67-0.94l0.9-1.69c0.43,0.36,0.92,0.65,1.44,0.85c0.57,0.22,1.18,0.36,1.79,0.42l0.29-3.33
		c-0.66-0.15-1.3-0.36-1.92-0.62c-0.5-0.22-0.93-0.56-1.25-1c-0.33-0.52-0.46-1.14-0.37-1.75c0.08-0.89,0.51-1.71,1.19-2.29
		c0.84-0.68,1.88-1.07,2.96-1.12l0.17-1.89h1.35l-0.17,1.85c0.61,0.04,1.22,0.14,1.81,0.31c0.52,0.16,1.02,0.4,1.48,0.71l-0.81,1.69
		c-0.8-0.49-1.69-0.8-2.62-0.92l-0.29,3.37c0.66,0.15,1.31,0.36,1.94,0.62c0.5,0.21,0.93,0.55,1.25,0.98
		c0.33,0.52,0.46,1.14,0.37,1.75C847.04,473.1,846.62,473.92,845.94,474.5z M841.02,467.94c0.36,0.27,0.77,0.46,1.21,0.56l0.25-2.96
		c-0.48,0.05-0.93,0.23-1.31,0.52c-0.3,0.25-0.48,0.61-0.5,1c-0.06,0.34,0.08,0.68,0.35,0.9V467.94z M844.48,473.31
		c0.24-0.24,0.39-0.56,0.42-0.9c0.05-0.35-0.09-0.7-0.37-0.92c-0.37-0.27-0.78-0.46-1.23-0.56l-0.25,2.94
		c0.52-0.04,1.02-0.23,1.44-0.54L844.48,473.31z"/>
	<path class="st9" d="M857.8,463.86l-1.02,11.66h-2.08l0.85-9.85h-2.54l0.17-1.81H857.8z"/>
	<path class="st9" d="M864.15,463.86l-1.02,11.66h-2.08l0.85-9.85h-2.44l0.15-1.81H864.15z"/>
	<path class="st9" d="M867.92,473.25c0.24,0.28,0.34,0.64,0.29,1c-0.01,0.19-0.05,0.38-0.12,0.56c-0.1,0.3-0.23,0.59-0.37,0.87
		l-1.06,2.35h-1.35l0.9-2.54c-0.23-0.1-0.41-0.27-0.54-0.48c-0.12-0.24-0.16-0.51-0.12-0.77c0.02-0.78,0.67-1.4,1.46-1.37
		c0,0,0,0,0,0C867.34,472.86,867.68,472.99,867.92,473.25z"/>
	<path class="st9" d="M878.21,473.69l-0.15,1.83h-8.6l0.12-1.44l5.02-4.41c0.45-0.37,0.84-0.81,1.17-1.29
		c0.22-0.34,0.35-0.72,0.37-1.12c0.07-0.46-0.09-0.93-0.44-1.25c-0.47-0.31-1.02-0.46-1.58-0.42c-1.08-0.05-2.12,0.4-2.83,1.21
		l-1.42-1.17c0.53-0.62,1.2-1.11,1.96-1.42c0.84-0.36,1.74-0.53,2.64-0.52c1.06-0.06,2.11,0.26,2.96,0.9
		c0.7,0.62,1.04,1.54,0.92,2.46c-0.06,0.63-0.25,1.24-0.56,1.79c-0.46,0.72-1.03,1.36-1.69,1.89l-3.39,2.96L878.21,473.69z"/>
	<path class="st9" d="M887.31,469.77c0.52,0.63,0.75,1.44,0.65,2.25c-0.06,0.67-0.3,1.31-0.69,1.85c-0.42,0.59-1,1.05-1.67,1.33
		c-0.82,0.33-1.7,0.5-2.58,0.48c-0.8,0-1.6-0.12-2.37-0.35c-0.69-0.2-1.34-0.54-1.89-1l1.08-1.67c0.43,0.38,0.93,0.66,1.48,0.83
		c0.59,0.21,1.21,0.32,1.83,0.31c0.65,0.03,1.3-0.14,1.85-0.48c0.45-0.28,0.74-0.76,0.77-1.29c0.07-0.49-0.13-0.97-0.52-1.27
		c-0.55-0.36-1.2-0.52-1.85-0.46h-1.02l0.12-1.48l2.91-3.16h-5.33l0.15-1.81h7.95l-0.12,1.46l-3.12,3.35
		C885.83,468.73,886.68,469.12,887.31,469.77z"/>
	<path class="st9" d="M899.69,472.87h-2.08l-0.23,2.64h-2.08l0.23-2.64h-6.41l0.15-1.5l6.39-7.52h2.31l-6.04,7.18h3.83l0.19-2.35
		h2.08l-0.21,2.35h2.08L899.69,472.87z"/>
	<path class="st9" d="M903.19,473.25c0.22,0.28,0.33,0.64,0.29,1c-0.02,0.19-0.06,0.38-0.12,0.56c-0.11,0.3-0.24,0.59-0.4,0.87
		l-1.04,2.35h-1.35l0.9-2.54c-0.23-0.09-0.42-0.26-0.54-0.48c-0.12-0.24-0.17-0.5-0.15-0.77c0.03-0.38,0.2-0.74,0.48-1
		c0.27-0.25,0.63-0.38,1-0.37C902.61,472.86,902.94,473,903.19,473.25z"/>
	<path class="st9" d="M912.6,469.34c0.73,0.65,1.09,1.63,0.96,2.6c-0.05,0.68-0.29,1.34-0.69,1.89c-0.42,0.6-0.99,1.07-1.67,1.35
		c-0.81,0.35-1.69,0.52-2.58,0.5c-0.81,0-1.62-0.12-2.39-0.35c-0.69-0.2-1.33-0.54-1.87-1l1.06-1.67c0.43,0.37,0.94,0.65,1.48,0.83
		c0.6,0.21,1.22,0.32,1.85,0.31c0.65,0.03,1.3-0.14,1.85-0.48c0.45-0.29,0.73-0.78,0.77-1.31c0.08-0.53-0.16-1.06-0.6-1.35
		c-0.73-0.37-1.55-0.53-2.37-0.46h-2.81l1.15-6.35h6.87l-0.17,1.81h-5l-0.5,2.71h1.12C910.32,468.27,911.57,468.61,912.6,469.34z"/>
	<path class="st9" d="M840.32,538.85c-0.85,0.67-1.89,1.07-2.98,1.15l-0.17,1.85h-1.37l0.17-1.83c-0.78-0.05-1.55-0.21-2.29-0.46
		c-0.61-0.19-1.18-0.51-1.67-0.94l0.9-1.69c0.42,0.36,0.9,0.65,1.42,0.85c0.58,0.22,1.19,0.36,1.81,0.42l0.29-3.33
		c-0.66-0.15-1.3-0.36-1.92-0.62c-0.5-0.21-0.93-0.56-1.25-1c-0.33-0.51-0.46-1.13-0.37-1.73c0.08-0.9,0.5-1.73,1.19-2.31
		c0.84-0.68,1.86-1.07,2.94-1.12l0.17-1.89h1.48l-0.17,1.85c0.61,0.04,1.21,0.14,1.79,0.31c0.53,0.16,1.04,0.4,1.5,0.71l-0.83,1.69
		c-0.79-0.5-1.69-0.8-2.62-0.9l-0.29,3.35c0.66,0.15,1.31,0.35,1.94,0.62c0.5,0.2,0.94,0.54,1.25,0.98c0.35,0.51,0.49,1.14,0.4,1.75
		C841.5,537.47,841.04,538.29,840.32,538.85z M835.4,532.29c0.35,0.27,0.75,0.46,1.19,0.56l0.27-2.96
		c-0.48,0.04-0.94,0.23-1.31,0.54c-0.3,0.24-0.49,0.59-0.52,0.98C835,531.76,835.14,532.08,835.4,532.29z M838.84,537.67
		c0.29-0.24,0.48-0.58,0.52-0.96c0.04-0.34-0.1-0.68-0.37-0.9c-0.36-0.28-0.78-0.48-1.23-0.58l-0.27,2.96
		C837.97,538.13,838.44,537.95,838.84,537.67z"/>
	<path class="st9" d="M852.18,528.19l-1.02,11.66h-2.08l0.85-9.83h-2.54l0.15-1.83H852.18z"/>
	<path class="st9" d="M855.89,539.31c-0.73-0.51-1.28-1.24-1.56-2.08c-0.35-1.04-0.47-2.14-0.35-3.23c0.09-1.12,0.4-2.21,0.92-3.21
		c0.45-0.85,1.11-1.57,1.92-2.08c0.77-0.47,1.66-0.71,2.56-0.71c0.86-0.01,1.71,0.23,2.44,0.71c0.73,0.51,1.28,1.24,1.56,2.08
		c0.37,1.03,0.49,2.12,0.35,3.21c-0.07,1.13-0.38,2.23-0.92,3.23c-0.44,0.86-1.1,1.58-1.92,2.08c-0.77,0.47-1.66,0.72-2.56,0.71
		C857.46,540.04,856.61,539.79,855.89,539.31z M860.55,537.1c0.62-0.91,0.96-1.98,0.98-3.08c0.18-1.05,0.02-2.12-0.44-3.08
		c-0.39-0.67-1.12-1.06-1.89-1.02c-0.82-0.02-1.6,0.36-2.08,1.02c-0.62,0.91-0.96,1.98-1,3.08c-0.17,1.05-0.01,2.13,0.46,3.08
		c0.38,0.67,1.1,1.07,1.87,1.04C859.28,538.17,860.07,537.78,860.55,537.1z"/>
	<path class="st9" d="M866.97,537.6c0.24,0.27,0.35,0.64,0.29,1c-0.02,0.18-0.07,0.37-0.12,0.54c-0.1,0.3-0.23,0.59-0.37,0.87
		l-1.04,2.35h-1.35l0.9-2.54c-0.23-0.09-0.42-0.26-0.54-0.48c-0.12-0.23-0.17-0.49-0.15-0.75c0.03-0.38,0.2-0.74,0.48-1
		c0.26-0.26,0.63-0.41,1-0.4C866.4,537.2,866.73,537.34,866.97,537.6z"/>
	<path class="st9" d="M873.34,528.19l-1.02,11.66h-2.08l0.87-9.83h-2.48l0.17-1.83H873.34z"/>
	<path class="st9" d="M879.69,528.19l-1.02,11.66h-2.08l0.87-9.83h-2.48l0.17-1.83H879.69z"/>
	<path class="st9" d="M891.62,537.21h-2.08l-0.23,2.64h-2.08l0.23-2.64h-6.41l0.15-1.5l6.39-7.52h2.33l-6.06,7.18h3.83l0.19-2.35
		h2.08l-0.21,2.35h2.08L891.62,537.21z"/>
	<path class="st9" d="M895.11,537.6c0.24,0.27,0.35,0.64,0.29,1c-0.02,0.18-0.07,0.37-0.12,0.54c-0.11,0.3-0.24,0.59-0.4,0.87
		l-1.04,2.35h-1.35l0.9-2.54c-0.23-0.09-0.42-0.26-0.54-0.48c-0.12-0.23-0.17-0.49-0.15-0.75c0.02-0.38,0.19-0.74,0.48-1
		c0.26-0.26,0.63-0.41,1-0.4C894.53,537.2,894.88,537.34,895.11,537.6z"/>
	<path class="st9" d="M904.8,534.11c0.52,0.63,0.75,1.44,0.65,2.25c-0.06,0.67-0.3,1.31-0.69,1.85c-0.42,0.59-1,1.05-1.67,1.33
		c-0.82,0.34-1.7,0.5-2.58,0.48c-0.81,0.01-1.61-0.11-2.37-0.35c-0.69-0.2-1.33-0.53-1.89-0.98l1.08-1.69
		c0.43,0.38,0.93,0.66,1.48,0.83c0.59,0.21,1.21,0.32,1.83,0.31c0.65,0.03,1.3-0.14,1.85-0.48c0.45-0.28,0.74-0.76,0.77-1.29
		c0.07-0.49-0.13-0.97-0.52-1.27c-0.55-0.36-1.2-0.52-1.85-0.46h-1.06l0.12-1.48l2.91-3.14h-5.29l0.15-1.83h7.95l-0.12,1.46
		l-3.12,3.37C903.32,533.08,904.17,533.46,904.8,534.11z"/>
	<path class="st9" d="M834.67,603.19c-0.85,0.68-1.89,1.08-2.98,1.15l-0.15,1.85h-1.37l0.17-1.83c-0.78-0.05-1.55-0.21-2.29-0.46
		c-0.61-0.19-1.18-0.51-1.67-0.94l0.9-1.67c0.43,0.35,0.9,0.63,1.42,0.83c0.57,0.23,1.18,0.37,1.79,0.42l0.29-3.33
		c-0.66-0.15-1.3-0.36-1.92-0.62c-0.49-0.22-0.91-0.56-1.23-1c-0.34-0.51-0.48-1.12-0.4-1.73c0.08-0.9,0.5-1.73,1.19-2.31
		c0.84-0.68,1.88-1.07,2.96-1.12l0.17-1.89h1.35l-0.15,1.85c0.61,0.04,1.21,0.15,1.79,0.31c0.53,0.16,1.04,0.4,1.5,0.71l-0.83,1.69
		c-0.8-0.49-1.69-0.8-2.62-0.9l-0.19,3.35c0.66,0.15,1.31,0.35,1.94,0.62c0.5,0.22,0.93,0.56,1.25,1c0.34,0.51,0.47,1.13,0.37,1.73
		C835.88,601.81,835.41,602.64,834.67,603.19z M829.76,596.63c0.36,0.27,0.77,0.46,1.21,0.56l0.25-2.96
		c-0.48,0.05-0.93,0.24-1.31,0.54c-0.28,0.25-0.46,0.6-0.5,0.98C829.36,596.09,829.5,596.42,829.76,596.63z M833.22,602
		c0.3-0.23,0.48-0.58,0.5-0.96c0.05-0.34-0.08-0.68-0.35-0.9c-0.38-0.27-0.8-0.46-1.25-0.58l-0.25,2.96
		C832.35,602.46,832.82,602.29,833.22,602z"/>
	<path class="st9" d="M850.89,599.19c0.3,0.5,0.43,1.09,0.35,1.67c-0.05,0.68-0.31,1.33-0.75,1.85c-0.47,0.57-1.09,0.99-1.79,1.23
		c-0.81,0.3-1.67,0.45-2.54,0.44c-0.85,0.02-1.69-0.13-2.48-0.44c-0.63-0.23-1.18-0.66-1.54-1.23c-0.35-0.55-0.5-1.2-0.44-1.85
		c0.05-0.61,0.27-1.19,0.65-1.67c0.38-0.5,0.89-0.89,1.48-1.12c-0.42-0.23-0.77-0.57-1-1c-0.22-0.45-0.3-0.96-0.25-1.46
		c0.05-0.63,0.3-1.23,0.71-1.71c0.43-0.51,0.99-0.9,1.62-1.12c0.73-0.29,1.51-0.43,2.29-0.42c0.77-0.02,1.54,0.13,2.25,0.42
		c0.58,0.22,1.08,0.62,1.44,1.12c0.32,0.51,0.46,1.11,0.4,1.71c-0.03,0.52-0.2,1.02-0.5,1.44c-0.31,0.43-0.72,0.78-1.19,1.02
		C850.14,598.29,850.59,598.69,850.89,599.19z M848.25,602.17c0.48-0.31,0.79-0.82,0.83-1.39c0.06-0.52-0.16-1.04-0.58-1.35
		c-0.55-0.36-1.2-0.54-1.85-0.5c-0.68-0.04-1.36,0.14-1.94,0.5c-0.46,0.3-0.76,0.8-0.79,1.35c-0.09,0.53,0.13,1.07,0.56,1.39
		c0.54,0.37,1.18,0.55,1.83,0.5C846.99,602.7,847.67,602.52,848.25,602.17L848.25,602.17z M845.42,594.51
		c-0.41,0.27-0.67,0.72-0.71,1.21c-0.06,0.46,0.13,0.91,0.5,1.19c0.45,0.33,1,0.49,1.56,0.46c0.59,0.03,1.17-0.13,1.67-0.46
		c0.42-0.26,0.68-0.7,0.71-1.19c0.06-0.46-0.13-0.93-0.5-1.21c-0.46-0.32-1.02-0.47-1.58-0.44
		C846.48,594.04,845.91,594.19,845.42,594.51L845.42,594.51z"/>
	<path class="st9" d="M854.99,601.94c0.25,0.27,0.36,0.64,0.31,1c-0.02,0.18-0.07,0.37-0.12,0.54c0,0.21-0.21,0.5-0.4,0.9
		l-1.06,2.33h-1.33l0.87-2.54c-0.22-0.1-0.4-0.27-0.52-0.48c-0.13-0.23-0.18-0.49-0.15-0.75c0.02-0.38,0.19-0.74,0.48-1
		c0.26-0.26,0.63-0.41,1-0.4C854.43,601.53,854.76,601.67,854.99,601.94z"/>
	<path class="st9" d="M861.39,592.53l-1.02,11.66h-2.08l0.85-9.83h-2.46l0.17-1.83H861.39z"/>
	<path class="st9" d="M867.8,592.53l-1.02,11.66h-2.08l0.85-9.83h-2.46l0.15-1.83H867.8z"/>
	<path class="st9" d="M874.04,592.53l-1.02,11.66h-2.08l0.85-9.83h-2.46l0.15-1.83H874.04z"/>
	<path class="st9" d="M877.85,601.94c0.24,0.27,0.35,0.64,0.29,1c-0.02,0.18-0.07,0.37-0.12,0.54c-0.1,0.31-0.23,0.61-0.37,0.9
		l-1.06,2.33h-1.35l0.9-2.54c-0.23-0.1-0.41-0.27-0.54-0.48c-0.12-0.23-0.16-0.49-0.12-0.75c0.01-0.38,0.18-0.74,0.46-1
		c0.26-0.26,0.63-0.41,1-0.4C877.27,601.52,877.62,601.67,877.85,601.94z"/>
	<path class="st9" d="M888.2,602.38l-0.15,1.81h-8.6l0.12-1.44l5.02-4.39c0.46-0.37,0.85-0.82,1.17-1.31
		c0.2-0.34,0.32-0.71,0.37-1.1c0.07-0.46-0.09-0.93-0.44-1.25c-0.46-0.32-1.02-0.48-1.58-0.44c-1.08-0.05-2.12,0.4-2.83,1.21
		l-1.42-1.17c0.53-0.62,1.2-1.11,1.96-1.42c0.84-0.35,1.74-0.52,2.64-0.52c1.06-0.06,2.11,0.27,2.96,0.92
		c0.69,0.61,1.04,1.52,0.92,2.44c-0.06,0.63-0.25,1.24-0.56,1.79c-0.46,0.73-1.03,1.37-1.71,1.89l-3.37,2.98H888.2z"/>
	<path class="st9" d="M704.36,184.95c-0.88-0.48-1.61-1.2-2.08-2.08c-0.49-0.96-0.68-2.04-0.56-3.1c0.09-1.11,0.47-2.18,1.1-3.1
		c0.63-0.89,1.48-1.6,2.46-2.08c1.03-0.51,2.16-0.78,3.31-0.77c0.92-0.01,1.84,0.17,2.69,0.54c0.76,0.33,1.42,0.86,1.92,1.52
		l-1.87,1.6c-0.66-0.88-1.71-1.38-2.81-1.35c-0.69-0.01-1.37,0.14-1.98,0.46c-0.58,0.32-1.07,0.78-1.44,1.33
		c-0.37,0.58-0.59,1.25-0.65,1.94c-0.07,0.66,0.04,1.33,0.31,1.94c0.26,0.55,0.68,1.01,1.21,1.31c0.58,0.33,1.23,0.49,1.89,0.48
		c1.17-0.01,2.28-0.51,3.06-1.37l1.58,1.58c-0.61,0.68-1.36,1.21-2.21,1.56c-0.89,0.36-1.83,0.53-2.79,0.52
		C706.39,185.85,705.31,185.53,704.36,184.95z"/>
	<path class="st9" d="M718.5,176.77c0.59-0.23,1.22-0.35,1.85-0.33l-0.21,2.39h-0.58c-0.66-0.03-1.31,0.19-1.81,0.62
		c-0.49,0.5-0.77,1.17-0.79,1.87l-0.37,4.16h-2.6l0.79-8.97h2.48l-0.1,1.19C717.51,177.29,717.98,176.97,718.5,176.77z"/>
	<path class="st9" d="M731.09,176.56l-4.87,9.51c-0.37,0.87-0.96,1.63-1.73,2.19c-0.66,0.43-1.44,0.64-2.23,0.62
		c-0.47,0.01-0.93-0.06-1.37-0.21c-0.4-0.12-0.76-0.32-1.06-0.6l1.1-1.85c0.19,0.19,0.42,0.33,0.67,0.42
		c0.24,0.1,0.49,0.16,0.75,0.17c0.32,0.01,0.63-0.09,0.9-0.27c0.28-0.23,0.51-0.52,0.67-0.85l0,0l-3.08-9.04h2.69l1.98,6.08
		l3.06-6.08L731.09,176.56z"/>
	<path class="st9" d="M739.69,177.02c0.64,0.37,1.15,0.93,1.46,1.6c0.34,0.76,0.47,1.6,0.37,2.44c-0.06,0.86-0.33,1.69-0.79,2.42
		c-0.43,0.68-1.04,1.24-1.75,1.62c-0.71,0.38-1.51,0.57-2.31,0.56c-1,0.07-1.96-0.33-2.62-1.08l-0.35,4.16h-2.6l1.06-12.2h2.5
		l-0.1,1.04c0.76-0.79,1.82-1.22,2.91-1.17C738.25,176.41,739.02,176.62,739.69,177.02z M738.09,182.85
		c0.49-0.47,0.78-1.11,0.81-1.79c0.09-0.64-0.08-1.3-0.48-1.81c-0.4-0.45-0.98-0.7-1.58-0.69c-0.64-0.01-1.25,0.24-1.71,0.69
		c-0.48,0.48-0.77,1.13-0.79,1.81c-0.1,0.64,0.07,1.29,0.48,1.79c0.4,0.45,0.98,0.7,1.58,0.69
		C737.04,183.55,737.65,183.3,738.09,182.85z"/>
	<path class="st9" d="M748.69,185.1c-0.3,0.2-0.63,0.34-0.98,0.42c-0.39,0.1-0.79,0.15-1.19,0.15c-0.88,0.07-1.74-0.22-2.39-0.81
		c-0.58-0.65-0.82-1.54-0.67-2.39l0.31-3.69h-1.37l0.17-2.08h1.39l0.19-2.19h2.6l-0.21,2.19h2.25l-0.19,2.08h-2.23l-0.31,3.64
		c-0.05,0.31,0.02,0.62,0.21,0.87c0.2,0.22,0.49,0.33,0.79,0.31c0.39,0.01,0.77-0.11,1.08-0.33L748.69,185.1z"/>
	<path class="st9" d="M751.6,185.1c-0.7-0.37-1.26-0.94-1.62-1.64c-0.36-0.74-0.51-1.56-0.42-2.37c0.07-0.86,0.35-1.68,0.83-2.39
		c0.49-0.7,1.15-1.27,1.92-1.64c0.8-0.39,1.69-0.59,2.58-0.58c0.86-0.01,1.71,0.19,2.48,0.58c0.69,0.38,1.24,0.95,1.6,1.64
		c0.37,0.74,0.52,1.57,0.44,2.39c-0.08,0.85-0.37,1.67-0.85,2.37c-0.48,0.7-1.13,1.27-1.89,1.64c-0.8,0.4-1.69,0.6-2.58,0.58
		C753.22,185.71,752.36,185.5,751.6,185.1z M755.97,182.87c0.48-0.48,0.76-1.12,0.79-1.79c0.1-0.64-0.07-1.3-0.48-1.81
		c-0.4-0.45-0.98-0.7-1.58-0.69c-0.64-0.01-1.25,0.24-1.71,0.69c-0.5,0.48-0.79,1.13-0.81,1.81c-0.09,0.64,0.09,1.29,0.5,1.79
		c0.4,0.45,0.98,0.7,1.58,0.69c0.64,0,1.26-0.25,1.71-0.71V182.87z"/>
	<path class="st9" d="M774.94,174.94c0.8,0.75,1.19,1.85,1.02,2.94c-0.07,1.14-0.62,2.2-1.52,2.91c-1.05,0.75-2.32,1.12-3.6,1.06
		h-3.12l-0.33,3.69h-1.23l1.02-11.66h4.37C772.77,173.79,773.98,174.17,774.94,174.94z M773.61,180.02c0.65-0.5,1.06-1.26,1.1-2.08
		c0.13-0.8-0.13-1.62-0.71-2.19c-0.74-0.55-1.66-0.82-2.58-0.75h-3.1l-0.52,5.83h3.1C771.87,180.87,772.82,180.58,773.61,180.02
		L773.61,180.02z"/>
	<path class="st9" d="M778.98,185.1c-0.63-0.38-1.13-0.93-1.46-1.58c-0.33-0.72-0.46-1.52-0.37-2.31c0.07-0.82,0.34-1.61,0.79-2.29
		c0.43-0.67,1.03-1.21,1.73-1.58c0.72-0.38,1.52-0.57,2.33-0.56c0.78-0.02,1.55,0.18,2.23,0.56c0.64,0.36,1.15,0.92,1.46,1.58
		c0.34,0.71,0.47,1.51,0.37,2.29c-0.07,0.82-0.33,1.61-0.77,2.31c-0.43,0.67-1.03,1.21-1.73,1.58c-0.71,0.39-1.52,0.59-2.33,0.58
		C780.44,185.71,779.66,185.5,778.98,185.1z M783.02,184.21c0.52-0.29,0.96-0.7,1.27-1.21c0.33-0.54,0.52-1.16,0.56-1.79
		c0.07-0.6-0.01-1.21-0.25-1.77c-0.21-0.51-0.59-0.93-1.06-1.21c-0.49-0.3-1.05-0.45-1.62-0.44c-0.6-0.01-1.19,0.14-1.71,0.44
		c-0.53,0.28-0.97,0.7-1.29,1.21c-0.33,0.54-0.52,1.14-0.56,1.77c-0.07,0.61,0.02,1.23,0.27,1.79c0.22,0.5,0.58,0.92,1.04,1.21
		c0.5,0.29,1.07,0.43,1.64,0.42c0.6-0.01,1.19-0.17,1.71-0.48V184.21z"/>
	<path class="st9" d="M791.2,177.15c0.65-0.31,1.36-0.46,2.08-0.44v1.15h-0.44c-0.83-0.03-1.63,0.28-2.23,0.85
		c-0.62,0.64-0.97,1.49-1,2.37l-0.4,4.48h-1.17l0.75-8.77h1.15l-0.15,1.71C790.12,177.92,790.61,177.44,791.2,177.15z"/>
	<path class="st9" d="M799.67,185.1c-0.25,0.21-0.54,0.37-0.85,0.46c-0.34,0.11-0.69,0.16-1.04,0.17c-0.68,0.05-1.36-0.19-1.85-0.67
		c-0.42-0.53-0.6-1.22-0.5-1.89l0.48-5.29h-1.58l0.1-1h1.56l0.17-1.92h1.19l-0.17,1.92h2.66l-0.1,1h-2.73l-0.46,5.23
		c-0.07,0.42,0.04,0.85,0.29,1.19c0.28,0.3,0.69,0.45,1.1,0.42c0.24,0,0.48-0.04,0.71-0.12c0.23-0.07,0.44-0.18,0.62-0.33
		L799.67,185.1z"/>
	<path class="st9" d="M804.48,174.5c-0.31,0.33-0.49,0.77-0.5,1.23v1.04h2.69v1h-2.66l-0.67,7.77h-1.19l0.67-7.77h-1.64v-1h1.58
		v-1.08c0.04-0.72,0.34-1.39,0.85-1.89c0.57-0.51,1.32-0.76,2.08-0.71c0.32,0,0.65,0.05,0.96,0.15c0.28,0.08,0.54,0.22,0.75,0.42
		l-0.48,0.87c-0.34-0.3-0.79-0.46-1.25-0.44C805.24,174.07,804.81,174.22,804.48,174.5z"/>
	<path class="st9" d="M808.63,185.1c-0.64-0.36-1.15-0.92-1.46-1.58c-0.34-0.72-0.47-1.52-0.4-2.31c0.07-0.82,0.34-1.61,0.79-2.29
		c0.43-0.67,1.03-1.21,1.73-1.58c0.71-0.37,1.49-0.56,2.29-0.56c0.79-0.02,1.56,0.18,2.25,0.56c0.63,0.37,1.13,0.92,1.44,1.58
		c0.34,0.71,0.47,1.51,0.37,2.29c-0.06,0.82-0.32,1.62-0.77,2.31c-0.43,0.67-1.03,1.21-1.73,1.58c-0.71,0.39-1.52,0.59-2.33,0.58
		C810.05,185.69,809.29,185.49,808.63,185.1z M812.65,184.21c0.52-0.28,0.96-0.7,1.27-1.21c0.34-0.54,0.54-1.16,0.58-1.79
		c0.05-0.6-0.04-1.21-0.27-1.77c-0.21-0.5-0.58-0.92-1.04-1.21c-0.5-0.3-1.07-0.45-1.64-0.44c-0.6-0.01-1.19,0.14-1.71,0.44
		c-0.52,0.28-0.96,0.7-1.27,1.21c-0.34,0.53-0.54,1.14-0.58,1.77c-0.07,0.61,0.02,1.23,0.27,1.79c0.22,0.5,0.59,0.93,1.06,1.21
		c0.49,0.29,1.05,0.44,1.62,0.42c0.6,0,1.19-0.17,1.71-0.48L812.65,184.21z"/>
	<path class="st9" d="M818.81,173.17h1.1l-1.08,12.37h-1L818.81,173.17z"/>
	<path class="st9" d="M823.14,174.69c-0.14-0.17-0.21-0.39-0.19-0.6c0.02-0.22,0.12-0.43,0.29-0.58c0.18-0.16,0.41-0.25,0.65-0.25
		c0.22-0.01,0.44,0.08,0.58,0.25c0.15,0.14,0.23,0.35,0.21,0.56c-0.02,0.24-0.13,0.47-0.31,0.62c-0.17,0.16-0.39,0.25-0.62,0.25
		C823.51,174.95,823.29,174.86,823.14,174.69z M822.97,176.77h1.1l-0.77,8.77h-1.19L822.97,176.77z"/>
	<path class="st9" d="M828.03,185.1c-0.64-0.36-1.15-0.92-1.46-1.58c-0.34-0.72-0.47-1.52-0.4-2.31c0.07-0.82,0.34-1.61,0.79-2.29
		c0.43-0.67,1.03-1.21,1.73-1.58c0.72-0.38,1.52-0.57,2.33-0.56c0.79-0.02,1.56,0.18,2.25,0.56c0.63,0.37,1.13,0.92,1.44,1.58
		c0.34,0.71,0.47,1.51,0.37,2.29c-0.06,0.82-0.32,1.62-0.77,2.31c-0.43,0.67-1.03,1.21-1.73,1.58c-0.71,0.39-1.52,0.59-2.33,0.58
		C829.48,185.7,828.7,185.5,828.03,185.1z M832.05,184.21c0.52-0.28,0.96-0.7,1.27-1.21c0.34-0.54,0.54-1.16,0.58-1.79
		c0.05-0.6-0.04-1.21-0.27-1.77c-0.21-0.5-0.58-0.92-1.04-1.21c-0.5-0.3-1.07-0.45-1.64-0.44c-0.6-0.01-1.19,0.14-1.71,0.44
		c-0.52,0.28-0.96,0.7-1.27,1.21c-0.34,0.53-0.54,1.14-0.58,1.77c-0.07,0.61,0.02,1.23,0.27,1.79c0.22,0.5,0.59,0.93,1.06,1.21
		c0.49,0.29,1.05,0.44,1.62,0.42c0.6,0,1.19-0.17,1.71-0.48V184.21z"/>
	<path class="st9" d="M858.22,229.55c-0.51-0.24-0.94-0.61-1.25-1.08l1.19-1.29c0.39,0.7,1.11,1.15,1.92,1.17
		c1.06,0,1.64-0.62,1.77-1.87l0.46-5.29h-3.62l0.12-1.58h5.54l-0.6,6.77c-0.03,1-0.43,1.95-1.1,2.69c-0.73,0.63-1.68,0.95-2.64,0.9
		C859.38,229.96,858.77,229.82,858.22,229.55z"/>
	<path class="st9" d="M874.04,222.01l-0.67,7.79h-1.75v-1c-0.32,0.36-0.72,0.64-1.17,0.81c-0.45,0.19-0.94,0.29-1.44,0.29
		c-0.88,0.06-1.74-0.26-2.37-0.87c-0.58-0.72-0.83-1.65-0.67-2.56l0.4-4.46h1.81l-0.37,4.16c-0.09,0.55,0.03,1.11,0.35,1.56
		c0.32,0.37,0.8,0.57,1.29,0.52c0.59,0.02,1.17-0.2,1.6-0.6c0.45-0.47,0.71-1.1,0.73-1.75l0.35-3.93L874.04,222.01z"/>
	<path class="st9" d="M883.23,222.78c0.58,0.72,0.83,1.65,0.67,2.56l-0.37,4.46h-1.83l0.37-4.16c0.09-0.54-0.04-1.09-0.35-1.54
		c-0.34-0.36-0.82-0.55-1.31-0.52c-0.61-0.02-1.2,0.19-1.64,0.6c-0.45,0.47-0.72,1.09-0.75,1.75l-0.33,3.93h-1.83l0.69-7.79h1.69v1
		c0.34-0.36,0.75-0.64,1.21-0.81c0.5-0.19,1.03-0.28,1.56-0.27C881.8,221.94,882.62,222.22,883.23,222.78z"/>
	<path class="st9" d="M893.72,219.6l-0.9,10.2h-1.89l0.75-8.62h-2.08l0.15-1.58H893.72z"/>
	<path class="st9" d="M901.78,224.76c0.46,0.55,0.67,1.27,0.58,1.98c-0.12,1.24-0.92,2.31-2.08,2.77c-0.71,0.31-1.48,0.46-2.25,0.44
		c-0.71,0-1.41-0.1-2.08-0.31c-0.61-0.18-1.17-0.48-1.67-0.87l0.96-1.46c0.38,0.32,0.81,0.56,1.27,0.73
		c0.52,0.18,1.07,0.28,1.62,0.27c0.57,0.02,1.13-0.12,1.62-0.42c0.39-0.25,0.63-0.67,0.67-1.12c0.06-0.43-0.1-0.85-0.44-1.12
		c-0.49-0.3-1.07-0.44-1.64-0.4h-0.94l0.12-1.29l2.56-2.77h-4.64l0.15-1.58h6.95l-0.12,1.27l-2.73,2.94
		C900.49,223.85,901.23,224.19,901.78,224.76z"/>
	<path class="st9" d="M905.5,227.82c0.21,0.24,0.3,0.56,0.25,0.87c-0.01,0.16-0.04,0.33-0.1,0.48c-0.1,0.26-0.21,0.52-0.33,0.77
		l-0.94,2.08h-1.19l0.77-2.23c-0.19-0.09-0.35-0.23-0.46-0.42c-0.1-0.21-0.15-0.44-0.12-0.67c0.01-0.34,0.16-0.65,0.42-0.87
		c0.23-0.23,0.55-0.35,0.87-0.33C904.98,227.49,905.29,227.6,905.5,227.82z"/>
	<path class="st9" d="M918.43,228.2l-0.15,1.6h-7.52l0.12-1.27l4.37-3.85c0.41-0.32,0.76-0.71,1.04-1.15
		c0.18-0.29,0.29-0.62,0.31-0.96c0.07-0.41-0.07-0.82-0.37-1.1c-0.41-0.28-0.9-0.41-1.39-0.37c-0.94-0.04-1.85,0.35-2.48,1.06
		l-1.23-1.02c0.47-0.54,1.05-0.97,1.71-1.25c0.73-0.3,1.52-0.44,2.31-0.44c0.93-0.05,1.84,0.23,2.58,0.79
		c0.6,0.52,0.91,1.3,0.81,2.08c-0.05,0.55-0.22,1.08-0.5,1.56c-0.4,0.63-0.9,1.18-1.48,1.64l-2.98,2.67H918.43z"/>
	<path class="st9" d="M921.45,229.32c-0.63-0.45-1.1-1.08-1.35-1.81c-0.29-0.92-0.37-1.89-0.25-2.85c0.08-0.99,0.35-1.95,0.81-2.83
		c0.4-0.73,0.97-1.34,1.67-1.79c0.67-0.42,1.45-0.63,2.25-0.62c1.57-0.04,2.98,0.93,3.5,2.42c0.3,0.91,0.41,1.88,0.31,2.83
		c-0.07,0.98-0.35,1.94-0.81,2.81c-0.39,0.74-0.96,1.36-1.67,1.81c-0.67,0.42-1.45,0.63-2.25,0.62
		C922.88,229.95,922.11,229.75,921.45,229.32z M925.62,227.39c0.55-0.79,0.85-1.72,0.87-2.69c0.15-0.92,0.01-1.87-0.4-2.71
		c-0.35-0.57-0.97-0.92-1.64-0.9c-0.7,0-1.37,0.33-1.79,0.9c-0.54,0.8-0.85,1.74-0.87,2.71c-0.16,0.91-0.02,1.85,0.4,2.69
		c0.33,0.59,0.97,0.94,1.64,0.92c0.68-0.02,1.31-0.36,1.71-0.92L925.62,227.39z"/>
	<path class="st9" d="M936.61,228.2l-0.15,1.6h-7.52l0.1-1.27l4.39-3.85c0.4-0.33,0.75-0.72,1.04-1.15
		c0.18-0.29,0.29-0.62,0.31-0.96c0.07-0.41-0.07-0.82-0.37-1.1c-0.41-0.28-0.9-0.41-1.39-0.37c-0.94-0.04-1.85,0.35-2.48,1.06
		l-1.23-1.02c0.46-0.54,1.05-0.97,1.71-1.25c0.73-0.3,1.52-0.44,2.31-0.44c0.93-0.05,1.84,0.23,2.58,0.79
		c0.6,0.52,0.91,1.3,0.81,2.08c-0.06,0.55-0.23,1.08-0.5,1.56c-0.4,0.63-0.9,1.18-1.48,1.64l-2.96,2.6L936.61,228.2z"/>
	<path class="st9" d="M941.98,219.6l-0.9,10.2h-1.89l0.75-8.62h-2.08l0.12-1.58H941.98z"/>
	<polygon class="st9" points="946.75,172.86 934.84,172.86 935,171.09 946.89,171.09 	"/>
	<polygon class="st9" points="945.83,183.25 933.94,183.25 934.09,181.48 946,181.48 	"/>
	<polygon class="st9" points="946.29,178.06 934.4,178.06 934.55,176.27 946.44,176.27 	"/>
	<path class="st7" d="M813.67,414.7c-0.23,2.07-1.95,3.66-4.04,3.71c-1.84,0.05-3.37-1.41-3.41-3.25c0-0.15,0-0.31,0.02-0.46
		c0.22-2.08,1.95-3.68,4.04-3.73c1.85-0.03,3.38,1.44,3.41,3.29C813.69,414.41,813.68,414.56,813.67,414.7z"/>
	
		<ellipse transform="matrix(0.7222 -0.6916 0.6916 0.7222 -70.0953 654.757)" class="st12" cx="780.15" cy="414.65" rx="3.89" ry="3.56"/>
	<path class="st12" d="M798.76,414.7c-0.23,2.08-1.97,3.67-4.06,3.71c-1.85,0.03-3.38-1.44-3.41-3.29c0-0.14,0-0.28,0.02-0.41
		c0.22-2.09,1.96-3.69,4.06-3.73c1.86-0.02,3.39,1.47,3.41,3.33C798.78,414.44,798.77,414.57,798.76,414.7z"/>
	
		<ellipse transform="matrix(0.7222 -0.6916 0.6916 0.7222 -57.6818 685.6568)" class="st12" cx="824.83" cy="414.64" rx="3.89" ry="3.56"/>
	<path class="st7" d="M690.66,517.66c-9.04,0.17-16.52,7.06-17.43,16.05c-0.87,7.93,4.85,15.07,12.78,15.95
		c0.6,0.07,1.2,0.09,1.8,0.09c9.03-0.16,16.51-7.05,17.43-16.03c0.89-7.93-4.82-15.08-12.76-15.96
		C691.88,517.68,691.27,517.65,690.66,517.66z M688.43,542.54l-5.93-8.83l6.43,2.21l6.83-2.21L688.43,542.54z M689.22,533.71
		l-6.43-2.21l7.29-7.72l5.95,7.72L689.22,533.71z"/>
	<path class="st7" d="M696.3,453.32c-9.04,0.15-16.53,7.04-17.45,16.03c-0.82,8.01,5.01,15.16,13.02,15.98
		c0.52,0.05,1.03,0.08,1.55,0.07c9.04-0.16,16.53-7.06,17.45-16.05c0.8-8.01-5.03-15.15-13.04-15.96
		C697.33,453.35,696.81,453.32,696.3,453.32z M701.26,466.96c-0.17,0.55-0.46,1.05-0.85,1.48c-0.42,0.45-0.92,0.8-1.48,1.04
		c0.54,0.18,0.99,0.58,1.23,1.1c0.22,0.58,0.22,1.21,0,1.79c-0.3,1.01-1,1.86-1.94,2.35c-1.18,0.6-2.5,0.89-3.83,0.83h-6.25
		l3.5-11.66h5.95c1.12-0.1,2.24,0.19,3.16,0.83c0.59,0.58,0.78,1.46,0.48,2.23L701.26,466.96z"/>
	<path class="st7" d="M696.45,466.3h-2.27l-0.67,2.25h2.27c1.1,0,1.77-0.37,2.08-1.15C698.18,466.63,697.57,466.3,696.45,466.3z"/>
	<path class="st7" d="M695.6,470.81h-2.69l-0.71,2.37h2.79c1.15,0,1.85-0.4,2.08-1.19C697.3,471.21,696.74,470.81,695.6,470.81z"/>
	<path class="st7" d="M685.04,581.99c-9.04,0.17-16.52,7.06-17.45,16.05c-0.81,8.01,5.03,15.15,13.04,15.96
		c0.51,0.05,1.02,0.08,1.53,0.07c9.04-0.15,16.53-7.04,17.45-16.03c0.82-8.01-5.01-15.16-13.02-15.98
		C686.08,582.01,685.56,581.99,685.04,581.99z M687.95,603.5h-8.85l3.5-11.66h3.29l-2.71,9.04h5.56L687.95,603.5z"/>
	<g class="st14">
		<path class="st13" d="M666.55,694.46h13.12l155.4-577.86h-29.63L651.06,690.65C655.83,693.19,661.15,694.5,666.55,694.46z"/>
		<path class="st13" d="M966.15,102.76c-6.13-6.86-14.93-10.73-24.13-10.62h-57.9c-3.89,0.04-7.24,2.77-8.06,6.58l-0.4,1.81
			c-2.06,9.25-10.18,15.89-19.65,16.07h-0.46l-155.4,577.86h106.87L966.15,102.76z"/>
	</g>
</g>
<g id="freepik--Character--inject-10">
	<polygon class="st15" points="597.01,701.67 603.49,725.38 620.77,722.76 617.77,698.5 	"/>
	<path class="st7" d="M622.93,719.01c-0.17-0.01-0.33-0.11-0.4-0.27c-0.07-0.17-0.02-0.36,0.12-0.48c0.23-0.19,5.58-4.77,8.6-4.52
		c0.57,0.02,1.1,0.28,1.48,0.71c0.48,0.45,0.63,1.15,0.37,1.75c-0.54,1.06-2.69,1.87-4.81,2.29
		C626.53,718.82,624.74,718.99,622.93,719.01z M624.16,718.2c3.27-0.21,7.6-1.06,8.18-2.33c0.1-0.17,0.17-0.44-0.25-0.87
		c-0.21-0.28-0.55-0.43-0.9-0.42c-0.27-0.04-0.54-0.04-0.81,0c-2.27,0.8-4.37,2.03-6.18,3.62H624.16z"/>
	<path class="st7" d="M622.73,719.03c-0.14-0.06-0.24-0.18-0.27-0.33c0-0.23-0.44-4.96,1.42-7.18c0.51-0.64,1.26-1.05,2.08-1.12
		c1.15-0.1,1.6,0.4,1.75,0.85c0.73,1.87-2.69,6.39-4.58,7.7h-0.17C622.89,719,622.81,719.03,622.73,719.03z M625.87,711.2
		c-0.52,0.1-0.98,0.38-1.31,0.79c-1,1.73-1.44,3.72-1.27,5.7c1.89-1.67,4.04-5.1,3.73-6.25c0-0.1-0.17-0.37-0.92-0.31h-0.23V711.2z"
		/>
	<path class="st9" d="M620.73,716.93l-18.74,3.58c-0.71,0.14-1.23,0.76-1.25,1.48l-0.48,15.93c-0.05,1.41,1.05,2.59,2.46,2.64
		c0.18,0.02,0.36,0.02,0.54,0c6.77-1.42,12.72-2.94,21.15-4.54c9.95-1.89,7.64-0.23,19.38-2.29c7.06-1.25,6.83-9.51,3.75-9.33
		c-13.99,0.87-16.2-2.98-22.42-6.87C623.78,716.8,622.22,716.58,620.73,716.93z"/>
	<polygon class="st15" points="512.92,698.5 510.09,722.92 492.62,722.92 491.93,698.5 	"/>
	<path class="st7" d="M511.61,722.51c-0.23-0.04-0.38-0.25-0.35-0.48c0.02-0.12,0.09-0.23,0.2-0.29c0.27-0.15,6.25-3.75,9.26-2.98
		c0.55,0.12,1.02,0.46,1.31,0.94c0.39,0.54,0.39,1.27,0,1.81c-1.48,1.08-3.3,1.58-5.12,1.42
		C515.14,722.94,513.36,722.8,511.61,722.51z M512.94,721.92c3.27,0.35,7.68,0.27,8.49-0.9c0.1-0.15,0.21-0.4,0-0.9
		c-0.17-0.31-0.48-0.53-0.83-0.58c-0.26-0.03-0.53-0.03-0.79,0C517.39,719.91,515.06,720.71,512.94,721.92z"/>
	<path class="st7" d="M511.4,722.49c-0.14-0.07-0.22-0.22-0.21-0.37c0-0.21,0.42-4.96,2.62-6.81c0.62-0.56,1.46-0.83,2.29-0.75
		c1.15,0,1.52,0.67,1.56,1.15c0.42,1.96-3.75,5.83-5.81,6.79c-0.06,0.02-0.13,0.02-0.19,0C511.58,722.52,511.49,722.52,511.4,722.49
		z M515.86,715.34c-0.53-0.01-1.04,0.18-1.44,0.54c-1.28,1.53-2.05,3.42-2.23,5.41c2.08-1.33,4.85-4.33,4.73-5.52
		c0-0.12,0-0.42-0.83-0.46L515.86,715.34z"/>
	<path class="st9" d="M509.69,720.17l-19.11,0.31c-0.72,0.01-1.34,0.52-1.5,1.23l-3.21,15.59c-0.28,1.39,0.61,2.74,1.99,3.02
		c0.03,0.01,0.06,0.01,0.09,0.02c0.18,0.02,0.36,0.02,0.54,0c6.89-0.23,13.01-0.71,21.61-0.83c10.12-0.17,7.58,1.1,19.49,1.08
		c7.16,0,8.33-8.2,5.31-8.56c-13.95-1.54-15.47-5.7-20.82-10.62C512.83,720.47,511.26,720.02,509.69,720.17z"/>
	<path class="st9" d="M535.01,428.69l19.09,68.85l1.67,5.39c5.9,18.69,9.23,38.09,9.91,57.67c0.25,7.95,0.94,16.34,1.94,24.98
		c6.75,57.73,30.33,123.77,30.33,123.77l22.09-2.5l-36.73-362.68h-56.96C526.35,344.19,509.36,406.96,535.01,428.69z"/>
	<path class="st16" d="M554.64,499.09l-12.18-42.41l7.64-39.04l0.87-10.41C550.98,407.23,560.64,443,554.64,499.09z"/>
	<path class="st9" d="M559.66,344.19c0,0-14.57,135.18-21.55,195.52s-24.98,169.58-24.98,169.58h-22.46c0,0-4.81-76.26,1.15-131.77
		c1.12-10.41,2.37-19.82,3.77-27.52c2.23-12.45,3.04-25.11,2.39-37.75c-0.37-8.02-0.81-17.49-1.23-27.44
		c-1.21-28.59,0.62-61.21,0.62-74.85c0.27-22.07,2.42-44.07,6.41-65.77L559.66,344.19z"/>
	<path class="st15" d="M552.96,214.58c-10.41-2.5-13.12-9.29-12.35-16.41c0.19-1.79,0.48-3.56,0.87-5.31l-13.05-10.91l-9.58-7.95
		c2.58,11.62,5.5,31.6-2.42,39.35c8.68,4.64,17.6,8.81,26.73,12.49C552.96,220.66,552.96,214.58,552.96,214.58z"/>
	<path class="st17" d="M541.49,192.87c-0.4,1.75-0.69,3.52-0.87,5.31c0,0.5,0,1,0,1.52c-7.79-1.96-18.55-8.7-19.59-17.13
		c0.06-2.1,0.31-4.19,0.75-6.25l6.79,5.62L541.49,192.87z"/>
	<path class="st9" d="M515,158.18c0,0-5.85,5.21-9.83,5.27c0,0,2.31,8.79,8.33,6.68C519.52,168.03,515,158.18,515,158.18z"/>
	<path class="st9" d="M564.05,145.94c0,0-2.42,7.85,6.81,8.72c0,0-4.62,9.41-12.3,2.33c-4.45-3.61-6.16-9.62-4.29-15.03l6.83,2.81
		L564.05,145.94z"/>
	<path class="st18" d="M564.05,145.94c0,0-2.42,7.85,6.81,8.72c0,0-4.62,9.41-12.3,2.33c-4.45-3.61-6.16-9.62-4.29-15.03l6.83,2.81
		L564.05,145.94z"/>
	<path class="st15" d="M519.85,150.56c-2.08,15.66-3.98,24.71,2.37,34.31c9.41,14.45,29.65,11.43,36.19-3.23
		c5.95-13.18,8.08-36.6-5.77-45.97c-9.37-6.67-22.37-4.48-29.04,4.89C521.51,143.51,520.22,146.96,519.85,150.56z"/>
	<path class="st19" d="M542.49,160.12c-0.23,1.27,0.25,2.42,1.06,2.6c0.81,0.19,1.67-0.71,2.08-2.08c0.42-1.37-0.23-2.42-1.04-2.6
		C543.78,157.85,542.74,158.87,542.49,160.12z"/>
	<path class="st19" d="M557.18,162.91c-0.23,1.25,0.25,2.44,1.06,2.58c0.81,0.15,1.67-0.69,2.08-2.08c0.42-1.39-0.23-2.44-1.04-2.6
		C558.48,160.64,557.43,161.64,557.18,162.91z"/>
	<path class="st20" d="M551.33,162.74c0.7,3.58,1.8,7.07,3.27,10.41c-1.74,0.77-3.73,0.77-5.48,0L551.33,162.74z"/>
	<path class="st19" d="M547.05,181.69c-2.97-0.15-5.75-1.5-7.7-3.75c-0.14-0.15-0.14-0.39,0-0.54c0.12-0.14,0.33-0.15,0.47-0.03
		c0.01,0.01,0.02,0.02,0.03,0.03l0,0c2.16,2.44,5.33,3.74,8.58,3.54c0.19-0.01,0.36,0.12,0.4,0.31l0,0c0,0.2-0.15,0.37-0.35,0.4
		C547.99,181.7,547.52,181.71,547.05,181.69z"/>
	<path class="st19" d="M540.57,153.2c-0.09-0.07-0.17-0.17-0.23-0.27c-0.17-0.36-0.02-0.8,0.34-0.97c0,0,0.01,0,0.01-0.01l0,0
		c2.14-1.04,4.65-0.96,6.72,0.21c0.33,0.23,0.42,0.68,0.21,1.02l0,0c-0.23,0.34-0.69,0.44-1.04,0.23c-1.63-0.96-3.64-1.02-5.33-0.17
		C541.04,153.35,540.78,153.33,540.57,153.2z"/>
	<path class="st19" d="M564.78,156.97c-0.24,0.06-0.49,0.01-0.69-0.15c-1.48-1.24-3.46-1.73-5.35-1.31c-0.4,0.11-0.81-0.11-0.94-0.5
		l0,0c-0.1-0.39,0.1-0.79,0.48-0.94l0,0c2.37-0.56,4.87,0.04,6.72,1.62c0.33,0.26,0.39,0.73,0.15,1.06
		C565.05,156.86,564.92,156.94,564.78,156.97z"/>
	<path class="st9" d="M522.02,164.05c0,0,7.43-2.77,8.02-19.24c7.26,2.35,15.16,1.67,21.9-1.89c0,0,18.9,11.97,20.07-3.62
		c-3.28,0.99-6.78-0.64-8.14-3.79c2.82-2.58,3.44-6.78,1.48-10.06c0,0-7.81,5.54-13.41,0.87s-30.36-9.62-33.12,6.12
		c0,0-9.49-0.75-9.04,10.41c0.46,11.16-1.02,13.66-4.6,12.89c0,0,3.73,9.62,9.99,4.64c0,0,3.35,9.81-5.25,10.95
		C509.92,171.38,521.37,183.5,522.02,164.05z"/>
	<path class="st9" d="M520.33,133.2c-1.81-2.65-2.13-6.04-0.83-8.97c0.17-0.31,0.06-0.7-0.25-0.88c-0.24-0.14-0.55-0.1-0.75,0.09
		C513.86,127.47,507.86,134.17,520.33,133.2z"/>
	<path class="st15" d="M513.15,166.65c0.85,3.81,3.02,7.2,6.12,9.58c3.98,2.91,6.97-0.62,6.75-5.6c-0.19-4.5-2.5-11.43-6.89-12.33
		C514.73,157.41,512.07,161.87,513.15,166.65z"/>
	<path class="st7" d="M583.63,218.72v124.92L500.49,345l-13.28-122.3c-0.6-5.52,4.16-10.41,10.53-10.62l74.24-3.1
		C578.4,208.75,583.63,213.19,583.63,218.72z"/>
	<path class="st12" d="M583.63,218.72v124.92L500.49,345l-13.28-122.3c-0.6-5.52,4.16-10.41,10.53-10.62l74.24-3.1
		C578.4,208.75,583.63,213.19,583.63,218.72z"/>
	<path class="st7" d="M546.13,207.36l-10.41,4.62l-18.22-3.79l-3.31,5.75l10.83,10.72c1.12,1.09,2.92,1.06,4-0.07
		c0.06-0.06,0.11-0.12,0.16-0.18l6.5-8.33l11.43,7.31c1.32,0.83,3.07,0.43,3.9-0.89c0.32-0.5,0.47-1.09,0.43-1.69l-0.75-10.2
		L546.13,207.36z"/>
	<path class="st10" d="M546.13,207.36l-10.41,4.62l-18.22-3.79l-3.31,5.75l10.83,10.72c1.12,1.09,2.92,1.06,4-0.07
		c0.06-0.06,0.11-0.12,0.16-0.18l6.5-8.33l11.43,7.31c1.32,0.83,3.07,0.43,3.9-0.89c0.32-0.5,0.47-1.09,0.43-1.69l-0.75-10.2
		L546.13,207.36z"/>
	<polygon class="st9" points="621.37,700.15 622.41,711.62 598.22,716.36 594.62,705.39 	"/>
	<polygon class="st8" points="621.37,700.15 622.41,711.62 598.22,716.36 594.62,705.39 	"/>
	<polygon class="st9" points="516.02,704.04 514.09,715.51 488.83,715.51 488.15,704.04 	"/>
	<polygon class="st8" points="516.02,704.04 514.09,715.51 488.83,715.51 488.15,704.04 	"/>
	<path class="st7" d="M514.86,209.73c0,0,19.78,45.66,23.4,61.79c3.5,15.49,3.98,54.57,3.98,74.2c0,5.95-6.25,10.41-12.97,8.97
		l-33.98-6.52c0,0-3.31-46.66-5.25-62.15c-2.08-17.34-10.14-61.96-6.81-69.52C487.62,206.59,514.86,209.73,514.86,209.73z"/>
	<path class="st21" d="M487.6,279.04c14.57-23.19,12.74-43.03,12.74-43.03l-6.75-2.08l-9.62,14.76
		C484.96,258.35,486.33,269.23,487.6,279.04z"/>
	<path class="st7" d="M498.35,216.91c-2.78-4.24-8.38-5.56-12.76-3.02c-6.5,3.77-15.91,12.7-25.9,33.87
		c-18.26,38.7-17.49,64.54-1.17,83.53s42.85,39.2,42.85,39.2l11.66-13.41c0,0-40.02-35.39-39.56-57.71
		c0.31-18.05,13.89-39.72,21.76-51.61C499.68,240.77,506.55,230.9,498.35,216.91z"/>
	<path class="st15" d="M626.56,241.98l6.25-14.26l13.66-18.74l9.58,7.62l-4.39,10.7c-0.7,1.61-2.05,2.85-3.71,3.41l-6.54,2.39
		l-3.69,13.24L626.56,241.98z"/>
	<path class="st7" d="M584.79,213.62c9.2,12.99,18.07,54.84,25.36,54.84c5.54,0,17.18-33.52,17.18-33.52l13.99,6.02
		c0,0-9.04,55.78-27.96,59.34c-18.93,3.56-35.81-42.87-38.48-61.11C573.88,232.32,574.99,199.78,584.79,213.62z"/>
	<path class="st21" d="M579.65,227.7l-4.96,9.37c0,0.83,0.1,1.56,0.19,2.08c1.87,12.89,10.85,39.83,22.63,53.3
		c-9.47-20.17-11.8-59.71-11.8-59.71L579.65,227.7z"/>
	<path class="st7" d="M550.71,208.59c0,0,2.77,45.91,3.73,61.42c0.96,15.86,4.91,54.88,6.95,74.66c0.62,6.04,7.62,9.91,14.14,7.85
		l12.49-3.31l-1.17-72.18c0,0,0.35-57.55-2.08-63.4C580.48,203.53,550.71,208.59,550.71,208.59z"/>
	<path class="st7" d="M639.82,226.93h-8.43c-0.87,0.09-1.65-0.54-1.74-1.41c-0.03-0.28,0.02-0.56,0.13-0.82l15.86-28.44
		c0.8-1.33,2.26-2.13,3.81-2.08h8.43c0.86-0.11,1.64,0.5,1.75,1.35c0.04,0.3-0.01,0.6-0.14,0.88l-15.86,28.44
		C642.82,226.17,641.37,226.97,639.82,226.93z"/>
	<path class="st22" d="M659.6,195.09c-0.33-0.58-0.96-0.93-1.62-0.92h-8.43c-1.55-0.05-3.01,0.75-3.81,2.08l-11.91,21.36
		L659.6,195.09z"/>
	<path class="st7" d="M657.89,194.18h-0.27c-0.02,0.16-0.07,0.32-0.15,0.46l-15.89,28.44c-0.81,1.33-2.26,2.12-3.81,2.08h-8.16
		c-0.07,0.91,0.6,1.7,1.51,1.77c0.09,0.01,0.17,0.01,0.26,0h8.43c1.55,0.04,3-0.76,3.81-2.08l15.97-28.44
		c0.39-0.77,0.07-1.71-0.7-2.09C658.59,194.16,658.23,194.11,657.89,194.18z"/>
	<path class="st17" d="M657.89,194.18h-0.27c-0.02,0.16-0.07,0.32-0.15,0.46l-15.89,28.44c-0.81,1.33-2.26,2.12-3.81,2.08h-8.16
		c-0.07,0.91,0.6,1.7,1.51,1.77c0.09,0.01,0.17,0.01,0.26,0h8.43c1.55,0.04,3-0.76,3.81-2.08l15.97-28.44
		c0.39-0.77,0.07-1.71-0.7-2.09C658.59,194.16,658.23,194.11,657.89,194.18z"/>
	<path class="st15" d="M654.64,215.75l-3.71-4.16c-0.79-0.84-2.11-0.87-2.94-0.08c-0.12,0.12-0.23,0.25-0.33,0.39l-3.06,4.89
		c-0.21,0.35-0.31,0.74-0.29,1.15l0.31,13.64l5.25-0.85l5.37-8.95C656.37,219.84,656.13,217.41,654.64,215.75z"/>
</g>
<g id="freepik--Coins--inject-10">
	<circle class="st7" cx="621.37" cy="135.99" r="23.63"/>
	<circle class="st7" cx="624.2" cy="135.99" r="23.63"/>
	<circle class="st8" cx="624.2" cy="135.99" r="23.63"/>
	<circle class="st13" cx="624.2" cy="135.99" r="17.68"/>
	<path class="st7" d="M633.82,137.36c-0.69-0.86-1.63-1.49-2.69-1.81c0.8-0.41,1.47-1.03,1.96-1.79c0.47-0.79,0.71-1.69,0.71-2.6
		c0.04-1.52-0.7-2.95-1.96-3.81c-1.16-0.75-2.49-1.2-3.87-1.31v-1.44h-2.23v1.35h-2.23v-1.35h-2.23v1.35h-4.85v20.01h4.85v1.42h2.23
		v-1.42h2.23v1.42h2.23v-1.48c1.68-0.01,3.33-0.48,4.77-1.35c1.36-0.89,2.15-2.42,2.08-4.04
		C634.85,139.37,634.5,138.27,633.82,137.36z M621.04,129.43h4.6c0.91-0.06,1.81,0.15,2.6,0.6c0.6,0.37,0.95,1.04,0.9,1.75
		c0.04,0.71-0.3,1.39-0.9,1.77c-0.79,0.45-1.69,0.66-2.6,0.6h-4.6V129.43z M629.2,141.92c-0.84,0.45-1.79,0.66-2.75,0.6h-5.41v-4.96
		h5.41c2.46,0,3.69,0.83,3.69,2.48c0.03,0.73-0.32,1.43-0.94,1.83V141.92z"/>
	<circle class="st7" cx="438.72" cy="185.58" r="28.52"/>
	<circle class="st7" cx="442.13" cy="185.58" r="28.52"/>
	<circle class="st8" cx="442.13" cy="185.58" r="28.52"/>
	<circle class="st13" cx="442.13" cy="185.59" r="21.36"/>
	<path class="st7" d="M453.75,187.18c-0.82-1.06-1.96-1.82-3.25-2.19c0.97-0.46,1.79-1.18,2.37-2.08c0.57-0.95,0.87-2.04,0.85-3.14
		c0.05-1.84-0.84-3.58-2.37-4.6c-1.4-0.91-3-1.45-4.66-1.58v-1.75h-2.69v1.64h-2.71v-1.64h-2.69v1.64h-5.85v24.11h5.85v1.71h2.69
		v-1.71h2.71v1.71h2.69v-1.71c2.03-0.01,4.03-0.57,5.77-1.62c1.62-1.09,2.56-2.94,2.48-4.89C455,189.68,454.58,188.3,453.75,187.18z
		 M438.32,177.61h5.56c1.09-0.07,2.19,0.17,3.14,0.71c0.69,0.46,1.09,1.25,1.06,2.08c0.02,0.83-0.38,1.61-1.06,2.08
		c-0.96,0.54-2.05,0.8-3.14,0.73h-5.56V177.61z M448.17,192.64c-1.02,0.54-2.18,0.79-3.33,0.71h-6.52v-5.98h6.52
		c2.98,0,4.46,1.02,4.46,3.02c0.08,0.92-0.36,1.8-1.12,2.31V192.64z"/>
	<circle class="st7" cx="463.37" cy="104.63" r="22.94"/>
	<circle class="st7" cx="466.12" cy="104.63" r="22.94"/>
	<circle class="st8" cx="466.12" cy="104.63" r="22.94"/>
	<circle class="st13" cx="466.13" cy="104.64" r="17.18"/>
	<path class="st7" d="M475.47,105.98c-0.66-0.85-1.57-1.47-2.6-1.77c0.79-0.39,1.45-1,1.89-1.75c0.46-0.76,0.7-1.63,0.69-2.52
		c0.04-1.48-0.67-2.88-1.89-3.71c-1.13-0.72-2.41-1.15-3.75-1.27v-1.48h-2.08v1.31h-2.19v-1.31h-2.08v1.31h-4.71v19.51h4.71v1.37
		h2.08v-1.37h2.19v1.37h2.08v-1.37c1.63-0.01,3.23-0.47,4.62-1.31c1.34-0.85,2.13-2.35,2.08-3.93
		C476.53,107.95,476.16,106.86,475.47,105.98z M462.97,98.28h4.48c0.88-0.06,1.75,0.14,2.52,0.56c0.58,0.37,0.91,1.02,0.87,1.71
		c0.04,0.69-0.3,1.35-0.87,1.73c-0.76,0.44-1.64,0.64-2.52,0.58h-4.39L462.97,98.28z M470.91,110.36c-0.82,0.44-1.75,0.65-2.69,0.58
		h-5.16v-4.81h5.25c2.39,0,3.58,0.81,3.58,2.42c0.03,0.71-0.31,1.39-0.9,1.79L470.91,110.36z"/>
</g>
</svg>
