<?xml version="1.0" encoding="utf-8"?>
<!-- Generator: Adobe Illustrator 23.1.0, SVG Export Plug-In . SVG Version: 6.00 Build 0)  -->
<svg version="1.1" id="Layer_1" xmlns="http://www.w3.org/2000/svg" xmlns:xlink="http://www.w3.org/1999/xlink" x="0px" y="0px"
	 viewBox="0 0 1366 768" style="enable-background:new 0 0 1366 768;" xml:space="preserve">
<style type="text/css">
	.st0{fill:#F5F5F5;}
	.st1{fill:#E0E0E0;}
	.st2{fill:#F0F0F0;}
	.st3{fill:#BA68C8;}
	.st4{opacity:0.65;fill:#FFFFFF;enable-background:new    ;}
	.st5{fill:#FFFFFF;}
	.st6{opacity:0.25;fill:#FFFFFF;enable-background:new    ;}
	.st7{fill:#37474F;}
	.st8{fill:#455A64;}
	.st9{fill:#263238;}
	.st10{fill:#E6E6E6;}
	.st11{fill:#FAFAFA;}
	.st12{fill:#EBEBEB;}
	.st13{opacity:0.3;fill:#FFFFFF;enable-background:new    ;}
	.st14{opacity:0.2;enable-background:new    ;}
	.st15{opacity:0.15;enable-background:new    ;}
	.st16{opacity:0.5;fill:#455A64;enable-background:new    ;}
	.st17{opacity:0.5;}
	.st18{opacity:0.5;fill:#FFFFFF;enable-background:new    ;}
	.st19{opacity:0.8;fill:#FFFFFF;enable-background:new    ;}
	.st20{opacity:0.2;fill:#FFFFFF;enable-background:new    ;}
	.st21{opacity:0.2;fill:#BA68C8;enable-background:new    ;}
	.st22{opacity:0.3;fill:#BA68C8;enable-background:new    ;}
	.st23{opacity:0.3;}
	.st24{fill:#9E6767;}
	.st25{fill:#874C4C;}
	.st26{fill:#F28F8F;}
</style>
<g id="freepik--Floor--inject-7">
	<ellipse id="freepik--floor--inject-7" class="st0" cx="682.87" cy="540.85" rx="395.97" ry="220.15"/>
</g>
<g id="freepik--Shadows--inject-7">
	<path id="freepik--Shadow--inject-7" class="st1" d="M640.66,732.33c-6.59,0.08-13.1-1.56-18.86-4.76L385.06,590.89
		c-8.11-4.68-12.94-12.53-12.94-20.99s4.83-16.31,12.94-20.99L754.37,335.7c11.77-6.35,25.95-6.35,37.72,0l236.74,136.69
		c8.1,4.68,12.93,12.51,12.93,20.99s-4.83,16.31-12.93,20.97L659.52,727.56C653.75,730.77,647.25,732.41,640.66,732.33z"/>
</g>
<g id="freepik--Clouds--inject-7">
	<g id="freepik--clouds--inject-7">
		<path class="st2" d="M431.47,33.54l-7.27,2.9l-0.86-14.03c-0.68-11.11-11.08-13.19-21.86-6.92l0,0
			c-10.8,6.22-18.99,20.3-18.32,31.42l0.13,2.03c-3.21-0.65-6.55,0-9.28,1.81l0,0c-7.77,4.5-13.65,14.62-13.19,22.64v0.92
			l-9.89,5.75c-5.11,2.95-8.99,9.63-8.67,14.84c0.31,5.21,4.73,7.16,9.89,4.2l80.41-46.48c5.11-2.97,9-9.63,8.69-14.84
			S436.51,30.57,431.47,33.54z"/>
		<path class="st2" d="M524.14,55.19l-12.93,7.49c0.03-0.51,0.03-1.02,0-1.53l-0.21-3.3c-0.36-5.95-5.33-8.06-11.1-4.72
			c-2.42,1.46-4.5,3.41-6.1,5.74c-1.43-7.42-8.39-9.79-16.37-5.18c-8.64,4.95-15.18,16.27-14.64,25.19l0.3,4.95
			c0.05,2.02,0.62,3.99,1.65,5.72l-10.63,6.25c-3.28,1.99-5.33,5.5-5.44,9.33c0.21,3.3,2.97,4.48,6.17,2.62l70.04-40.56
			c3.3-1.96,5.38-5.47,5.52-9.32C530.1,54.58,527.34,53.34,524.14,55.19z"/>
	</g>
</g>
<g id="freepik--Plants--inject-7">
	<g id="freepik--plants--inject-7">
		<path class="st3" d="M383.56,525.65c0,0,4.72-31.59-4.17-59.45c-8.89-27.86-25.87-48.32-44.99-55.1
			c-19.13-6.78-39.77,6.99-22.13,24.93c17.64,17.94,51.41,40.49,56.14,91.27L383.56,525.65z"/>
		<path class="st4" d="M383.56,525.65c0,0,4.72-31.59-4.17-59.45c-8.89-27.86-25.87-48.32-44.99-55.1
			c-19.13-6.78-39.77,6.99-22.13,24.93c17.64,17.94,51.41,40.49,56.14,91.27L383.56,525.65z"/>
		<path class="st5" d="M379.95,516.22c0.08,0.02,0.15,0.02,0.23,0c0.59-0.08,1.01-0.61,0.94-1.2
			c-7.04-56.34-40.64-88.06-57.42-96.96c-0.49-0.34-1.17-0.22-1.51,0.28c-0.34,0.49-0.22,1.17,0.28,1.51
			c0.07,0.05,0.15,0.09,0.23,0.12c16.49,8.72,49.36,39.87,56.29,95.31C379.04,515.78,379.44,516.17,379.95,516.22z"/>
		<path class="st3" d="M285.92,480.87c0.63,4.22,4.17,7.3,7.57,9.89c3.4,2.59,7.06,5.41,8.13,9.53c2.16,8.24-7.47,16.49-4.95,24.73
			c1.32,3.41,3.98,6.12,7.35,7.52c2.69,1.32,5.59,2.13,8.39,3.18c1.38,0.34,2.78,0.62,4.19,0.82c4.11,0.53,8.46,1.53,11.54,4.57
			c4.81,4.78,4.55,12.46,6.46,18.98c2.29,7.8,5.85,14.76,12.96,18.6c6.62,3.34,14.11,4.54,21.43,3.43l26.78-15.46
			c8.94-2.72,9.33-11.16,9.58-20.39c-0.08-8.9-3.43-17.45-9.43-24.02c-3.75-3.85-8.08-7.09-12.83-9.61
			c-2.47-1.42-5.33-2.52-7.01-4.95c-1.27-2.21-1.96-4.69-2.03-7.24c-0.15-2.91-0.58-5.81-1.29-8.64c-1.03-2.88-2.46-5.59-4.24-8.08
			c-1.84-2.77-4.51-4.9-7.62-6.08c-4.64-1.85-9.5-3.06-14.46-3.61c-6.28-0.68-13.11,1.07-19.22-0.94
			c-6.12-2.01-11.39-5.21-17.66-6.51c-6.59-1.34-13.88-0.45-19.09,4.06C287.34,473.06,285.63,476.9,285.92,480.87z"/>
		<path class="st6" d="M285.92,480.87c0.63,4.22,4.17,7.3,7.57,9.89c3.4,2.59,7.06,5.41,8.13,9.53c2.16,8.24-7.47,16.49-4.95,24.73
			c1.32,3.41,3.98,6.12,7.35,7.52c2.69,1.32,5.59,2.13,8.39,3.18c1.38,0.34,2.78,0.62,4.19,0.82c4.11,0.53,8.46,1.53,11.54,4.57
			c4.81,4.78,4.55,12.46,6.46,18.98c2.29,7.8,5.85,14.76,12.96,18.6c6.62,3.34,14.11,4.54,21.43,3.43l26.78-15.46
			c8.94-2.72,9.33-11.16,9.58-20.39c-0.08-8.9-3.43-17.45-9.43-24.02c-3.75-3.85-8.08-7.09-12.83-9.61
			c-2.47-1.42-5.33-2.52-7.01-4.95c-1.27-2.21-1.96-4.69-2.03-7.24c-0.15-2.91-0.58-5.81-1.29-8.64c-1.03-2.88-2.46-5.59-4.24-8.08
			c-1.84-2.77-4.51-4.9-7.62-6.08c-4.64-1.85-9.5-3.06-14.46-3.61c-6.28-0.68-13.11,1.07-19.22-0.94
			c-6.12-2.01-11.39-5.21-17.66-6.51c-6.59-1.34-13.88-0.45-19.09,4.06C287.34,473.06,285.63,476.9,285.92,480.87z"/>
		<path class="st5" d="M363,519.74c-0.15-0.25-0.32-0.49-0.49-0.73c-17.64-26.17-46.76-38.07-56.34-40.01
			c-0.52-0.1-1.02,0.24-1.12,0.76c0,0,0,0,0,0c-0.11,0.51,0.21,1.01,0.72,1.12c0.01,0,0.01,0,0.02,0
			c9.05,1.85,36.11,12.83,53.47,36.82c-13.6-5.34-28.8-4.8-41.99,1.48c-0.46,0.26-0.61,0.85-0.35,1.31
			c0.16,0.27,0.43,0.45,0.75,0.47c0.19,0.02,0.39-0.02,0.56-0.12c0.18-0.12,19.21-10.63,43.01-0.28
			c9.06,13.67,13.72,29.77,13.35,46.16c-0.01,0.5,0.37,0.93,0.87,0.97l0,0c0.52,0.02,0.95-0.39,0.97-0.91c0-0.01,0-0.02,0-0.03
			C376.83,550.09,372.14,533.69,363,519.74z"/>
	</g>
</g>
<g id="freepik--Device--inject-7">
	<g id="freepik--Laptop--inject-7">
		<path class="st7" d="M383.66,559.35c0,6.05,4.53,13.57,10.12,16.8l236.74,136.68c6.36,3.23,13.87,3.23,20.23,0l369.31-213.21
			c5.59-3.3,10.11-10.75,10.11-16.8c0-6.05-4.52-13.57-10.11-16.78L783.3,329.33c-6.35-3.23-13.86-3.23-20.21,0L393.8,542.6
			C388.21,545.78,383.66,553.3,383.66,559.35z"/>
		<path class="st8" d="M393.8,554.24l236.74,136.74c6.36,3.21,13.86,3.21,20.21,0l369.31-213.28c5.59-3.21,5.59-8.46,0-11.67
			L783.3,329.33c-6.35-3.23-13.86-3.23-20.21,0L393.8,542.6C388.21,545.78,388.21,551,393.8,554.24z"/>
		<path class="st9" d="M640.66,693.35v21.89c-3.52,0.08-7-0.75-10.11-2.41L393.8,576.15c-5.59-3.3-10.12-10.75-10.12-16.8
			c0-5.67,3.99-12.63,9.08-16.14c-4.53,3.3-4.17,8.01,1.04,11.03l236.75,136.74C633.66,692.62,637.14,693.44,640.66,693.35z"/>
		<path class="st7" d="M374.19,542.91c-5.24-3.02-4.95-8.13-4.95-14.57V239.1c0.39-7.12,4.15-13.62,10.12-17.51L748.65,8.41
			c5.59-3.3,13.72-3.3,18.45,0.51c4.73,3.81,6.12,7.25,6.12,13.7v289.15c-0.39,7.12-4.14,13.63-10.11,17.53L393.8,542.6
			C388.21,545.78,379.44,545.89,374.19,542.91z"/>
		<path class="st8" d="M773.21,22.59c0-6.45-4.53-9.05-10.11-5.85L393.8,229.98c-3,1.87-5.47,4.49-7.16,7.6l-14.43-8.39l0,0
			c1.71-3.09,4.17-5.69,7.16-7.57L748.65,8.41c5.59-3.21,13.73-3.3,18.45,0.53C771.81,12.77,773.21,16.15,773.21,22.59z"/>
		<path class="st9" d="M392.59,543.16c-5.57,2.62-13.52,2.57-18.4-0.25c-5.23-3.02-4.95-8.13-4.95-14.57V239.1
			c0.13-3.5,1.15-6.9,2.97-9.89l14.43,8.38l0,0c-1.81,3-2.83,6.4-2.97,9.89v289.23C383.66,542.69,387.58,545.38,392.59,543.16z"/>
		<path d="M399.24,241.64l355.38-205.2c3.3-1.93,6.07-0.36,6.07,3.5v269.05c-0.23,4.27-2.49,8.17-6.07,10.5L399.24,524.62
			c-3.3,1.93-6.07,0.36-6.07-3.51V252.14C393.4,247.87,395.65,243.97,399.24,241.64z"/>
		<path class="st9" d="M399.24,241.64c-3.59,2.33-5.84,6.23-6.07,10.5v264.29l351.32-202.79c3.59-2.33,5.85-6.23,6.08-10.5V38.85
			L399.24,241.64z"/>
		<path class="st9" d="M425.02,544.24l339.39-195.92c3-1.52,6.53-1.52,9.53,0l12.37,6.94c2.64,1.52,2.64,3.99,0,5.51l-339.42,195.9
			c-3,1.52-6.54,1.52-9.55,0l-12.32-6.91C422.4,548.25,422.4,545.79,425.02,544.24z"/>
		<path class="st9" d="M458.36,563.93l339.37-195.95c2.67-1.53,5.91-1.7,8.72-0.46l88.3,50.99c2.19,1.25,1.81,3.51-0.82,5.03
			L554.97,619.21c-2.67,1.53-5.9,1.72-8.72,0.49l-88.7-50.73C455.36,567.69,455.72,565.45,458.36,563.93z"/>
		<path class="st8" d="M752.42,450.27l10.63-6.13c0.45-0.26,0.49-0.66,0.08-0.89l-10.17-5.85c-0.48-0.26-1.07-0.26-1.55,0
			l-10.62,6.13c-0.46,0.26-0.49,0.66-0.1,0.89l10.17,5.87C751.36,450.54,751.94,450.53,752.42,450.27z M736.91,429.05l-10.62,6.13
			c-0.45,0.25-0.49,0.66-0.1,0.89l10.17,5.87c0.49,0.24,1.06,0.24,1.55,0l10.62-6.15c0.45-0.25,0.49-0.66,0.1-0.89l-10.17-5.87
			c-0.49-0.25-1.07-0.24-1.55,0.03V429.05z M702.58,448.83l-17.97,10.37c-0.46,0.26-0.49,0.66-0.1,0.89l10.17,5.87
			c0.48,0.25,1.05,0.25,1.53,0l17.99-10.37c0.45-0.26,0.49-0.66,0.08-0.91l-10.16-5.87c-0.5-0.24-1.08-0.21-1.55,0.07V448.83z
			 M721.38,437.97l-10.62,6.13c-0.45,0.26-0.49,0.66-0.1,0.89l10.17,5.87c0.48,0.26,1.07,0.26,1.55,0l10.62-6.13
			c0.46-0.26,0.49-0.66,0.1-0.89l-10.17-5.87c-0.5-0.22-1.07-0.21-1.55,0.05V437.97z M679.7,462.04l-10.62,6.13
			c-0.46,0.26-0.49,0.66-0.1,0.89l10.17,5.87c0.48,0.25,1.05,0.25,1.53,0l10.63-6.13c0.45-0.26,0.49-0.66,0-0.89l-10.16-5.87
			c-0.47-0.21-1.01-0.2-1.47,0.05V462.04z M664.17,471.01l-10.62,6.13c-0.46,0.26-0.49,0.66-0.1,0.89l10.17,5.87
			c0.48,0.25,1.05,0.25,1.53,0l10.63-6.13c0.45-0.26,0.49-0.66,0.08-0.89l-10.16-5.87c-0.49-0.24-1.07-0.22-1.55,0.05V471.01z
			 M704.02,494.96l10.62-6.15c0.46-0.25,0.49-0.66,0.1-0.89l-10.17-5.87c-0.48-0.25-1.05-0.25-1.53,0l-10.63,6.13
			c-0.45,0.26-0.49,0.66,0,0.89l10.16,5.87c0.46,0.23,0.99,0.26,1.47,0.07V494.96z M688.49,503.92l10.62-6.13
			c0.46-0.26,0.49-0.66,0.1-0.89l-10.17-5.87c-0.48-0.24-1.05-0.24-1.53,0l-10.63,6.15c-0.45,0.25-0.49,0.66-0.08,0.89l10.16,5.87
			c0.48,0.27,1.06,0.28,1.55,0.03V503.92z M672.96,512.92l10.62-6.13c0.46-0.26,0.49-0.66,0.1-0.89l-10.17-5.87
			c-0.48-0.24-1.05-0.24-1.53,0l-10.63,6.13c-0.45,0.26-0.49,0.66,0,0.89l10.16,5.87C671.95,513.15,672.49,513.15,672.96,512.92z
			 M657.43,521.89l10.63-6.13c0.45-0.26,0.48-0.66,0.08-0.89l-10.17-5.87c-0.48-0.25-1.05-0.25-1.53,0l-10.63,6.2
			c-0.45,0.26-0.49,0.66-0.08,0.89l10.16,5.87c0.49,0.24,1.07,0.22,1.55-0.05V521.89z M736.91,459.24l10.62-6.13
			c0.45-0.26,0.49-0.66,0.1-0.89l-10.17-5.87c-0.48-0.26-1.07-0.26-1.55,0l-10.62,6.13c-0.46,0.26-0.49,0.66-0.1,0.89l10.17,5.87
			c0.48,0.26,1.06,0.27,1.55,0.02V459.24z M719.55,486.04l23.71-13.68c0.45-0.26,0.48-0.66,0.08-0.89l-24.73-14.26
			c-0.48-0.26-1.07-0.26-1.55,0l-12.27,7.09c-0.45,0.25-0.48,0.66-0.08,0.89l13.07,7.53c0.4,0.23,0.35,0.64-0.1,0.89l-9.81,5.67
			c-0.45,0.26-0.49,0.66-0.08,0.89l10.16,5.87C718.45,486.3,719.05,486.3,719.55,486.04z M648.65,480.03l-10.62,6.13
			c-0.46,0.26-0.49,0.66-0.1,0.89l10.17,5.87c0.48,0.25,1.05,0.25,1.53,0l10.63-6.13c0.45-0.26,0.49-0.66,0-0.89l-10.09-5.95
			c-0.5-0.23-1.08-0.2-1.55,0.08L648.65,480.03z M633.12,489l-10.62,6.13c-0.46,0.26-0.49,0.66-0.1,0.89l10.17,5.87
			c0.48,0.24,1.05,0.24,1.53,0l10.63-6.13c0.45-0.26,0.49-0.68,0.08-0.91l-10.16-5.87c-0.49-0.26-1.08-0.25-1.57,0.02L633.12,489z
			 M547.19,584.72c0.48,0.25,1.05,0.25,1.53,0l10.63-6.13c0.45-0.26,0.49-0.66,0.08-0.89l-10.16-5.87c-0.48-0.26-1.07-0.26-1.55,0
			l-10.62,6.13c-0.46,0.26-0.49,0.66-0.1,0.89L547.19,584.72z M508.96,560.73l-10.63,6.13c-0.45,0.26-0.49,0.66-0.08,0.91
			l10.16,5.85c0.48,0.26,1.07,0.26,1.55,0l10.62-6.13c0.46-0.26,0.49-0.66,0.1-0.89l-10.26-5.87
			C509.95,560.52,509.42,560.52,508.96,560.73z M528.64,578.72c0.49,0.24,1.06,0.24,1.55,0l10.62-6.15c0.45-0.25,0.49-0.66,0.1-0.89
			l-10.26-6c-0.48-0.26-1.07-0.26-1.55,0l-10.62,6.13c-0.45,0.25-0.49,0.66-0.1,0.89L528.64,578.72z M571.51,588.35l10.62-6.13
			c0.46-0.26,0.49-0.66,0.1-0.89l-10.17-5.87c-0.48-0.25-1.05-0.25-1.53,0l-10.63,6.13c-0.45,0.26-0.49,0.66-0.08,0.89l10.16,5.87
			c0.46,0.22,1,0.21,1.45-0.02L571.51,588.35z M554.43,597.37c0.48,0.26,1.07,0.26,1.55,0l10.62-6.13c0.46-0.26,0.49-0.66,0.1-0.89
			l-10.17-5.87c-0.48-0.25-1.05-0.25-1.53,0l-10.63,6.13c-0.45,0.26-0.49,0.66,0,0.89L554.43,597.37z M524.51,551.78l-10.63,6.13
			c-0.45,0.25-0.49,0.66-0.1,0.89l10.17,5.87c0.48,0.26,1.07,0.26,1.55,0l10.62-6.13c0.46-0.25,0.49-0.66,0.1-0.89l-10.17-5.87
			c-0.5-0.29-1.12-0.3-1.63-0.02L524.51,551.78z M602.14,506.93l-10.75,6.12c-0.46,0.26-0.49,0.66-0.1,0.89l10.17,5.87
			c0.48,0.25,1.05,0.25,1.53,0l10.63-6.13c0.45-0.26,0.49-0.66,0.1-0.89l-10.17-5.87c-0.48-0.23-1.04-0.23-1.52,0L602.14,506.93z
			 M540.02,542.81l-10.62,6.13c-0.45,0.26-0.49,0.66-0.1,0.89l10.17,5.87c0.49,0.24,1.06,0.24,1.55,0l10.62-6.13
			c0.46-0.26,0.49-0.66,0.1-0.91l-10.17-5.87c-0.51-0.29-1.14-0.29-1.65,0L540.02,542.81z M617.68,497.96l-10.62,6.15
			c-0.46,0.25-0.49,0.66-0.1,0.89l10.17,5.87c0.48,0.25,1.05,0.25,1.53,0l10.63-6.13c0.45-0.25,0.49-0.66,0-0.89l-10.16-5.87
			c-0.49-0.25-1.07-0.27-1.57-0.03L617.68,497.96z M586.45,515.89l-10.62,6.13c-0.46,0.26-0.49,0.66-0.1,0.89l10.17,5.87
			c0.48,0.26,1.07,0.26,1.55,0l10.62-6.13c0.45-0.26,0.49-0.66,0.1-0.89l-10.07-5.92C587.58,515.56,586.95,515.58,586.45,515.89z
			 M570.92,524.86l-10.55,6.2c-0.46,0.26-0.49,0.66-0.1,0.89l10.17,5.87c0.48,0.26,1.07,0.26,1.55,0l10.62-6.13
			c0.45-0.26,0.49-0.66,0.1-0.89l-10.17-5.87c-0.47-0.28-1.05-0.3-1.55-0.07H570.92z M555.39,533.82l-10.62,6.13
			c-0.45,0.26-0.49,0.66-0.1,0.89l10.17,5.87c0.48,0.26,1.07,0.26,1.55,0l10.62-6.13c0.45-0.26,0.49-0.66,0.1-0.89l-10.17-5.87
			c-0.47-0.24-1.02-0.24-1.48,0H555.39z M626.28,539.84l10.63-6.13c0.45-0.26,0.48-0.66,0.08-0.89l-10.16-5.87
			c-0.48-0.26-1.07-0.26-1.55,0l-10.63,6.13c-0.45,0.26-0.48,0.66,0,0.89l10.16,5.87c0.48,0.26,1.07,0.26,1.55,0H626.28z
			 M771.17,409.23l-10.63,6.13c-0.45,0.26-0.49,0.66-0.08,0.91l10.16,5.87c0.48,0.26,1.07,0.26,1.55,0l10.62-6.13
			c0.46-0.26,0.49-0.66,0.1-0.89l-10.12-5.94c-0.48-0.21-1.03-0.19-1.5,0.05H771.17z M752.36,420.1l-10.62,6.13
			c-0.46,0.26-0.49,0.66-0.1,0.89l10.17,5.87c0.49,0.24,1.06,0.24,1.55,0l10.62-6.13c0.45-0.26,0.49-0.66,0.1-0.91l-10.17-5.87
			c-0.46-0.22-1.01-0.22-1.47,0.02L752.36,420.1z M786.7,400.31l-10.63,6.13c-0.45,0.25-0.49,0.66-0.08,0.89l10.16,5.87
			c0.48,0.26,1.07,0.26,1.55,0l10.62-6.13c0.46-0.25,0.49-0.66,0.1-0.89l-10.17-5.87c-0.45-0.23-0.99-0.25-1.45-0.03L786.7,400.31z
			 M700.94,479.94l10.63-6.13c0.45-0.26,0.48-0.66,0.08-0.89l-10.16-5.87c-0.49-0.24-1.06-0.24-1.55,0l-10.63,6.3
			c-0.45,0.26-0.48,0.66,0,0.89l10.16,5.87C699.96,480.29,700.5,480.23,700.94,479.94z M803.85,391.18c-0.48-0.25-1.05-0.25-1.53,0
			l-10.63,6.33c-0.45,0.26-0.49,0.66-0.08,0.89l10.16,5.87c0.49,0.24,1.06,0.24,1.55,0l10.62-6.13c0.46-0.26,0.49-0.66,0.1-0.91
			L803.85,391.18z M641.89,530.81l10.63-6.13c0.45-0.26,0.48-0.66,0-0.89l-10.02-5.8c-0.48-0.25-1.05-0.25-1.53,0l-10.63,6.13
			c-0.45,0.26-0.48,0.66-0.08,0.89l10.16,5.87c0.47,0.24,1.02,0.24,1.48,0L641.89,530.81z M832.34,420.92l10.63-6.13
			c0.45-0.26,0.49-0.66,0.08-0.89l-10.16-5.87c-0.48-0.26-1.07-0.26-1.55,0l-10.62,6.13c-0.46,0.26-0.49,0.66-0.1,0.89l10.17,5.87
			C831.28,421.17,831.86,421.17,832.34,420.92z M802.3,421.5l10.62-6.13c0.45-0.26,0.49-0.66,0.1-0.89l-10.17-5.87
			c-0.48-0.26-1.07-0.26-1.55,0l-10.62,6.13c-0.45,0.26-0.49,0.66-0.1,0.89l10.17,5.87C801.23,421.76,801.81,421.76,802.3,421.5
			L802.3,421.5z M818.37,399.64c-0.48-0.26-1.07-0.26-1.55,0l-10.62,6.12c-0.45,0.26-0.49,0.66-0.1,0.89l10.17,5.87
			c0.48,0.26,1.07,0.26,1.55,0l10.62-6.13c0.45-0.26,0.49-0.66,0.1-0.89L818.37,399.64z M821.67,397.76L846.4,412
			c0.48,0.25,1.05,0.25,1.53,0l10.55-6.25c0.45-0.26,0.49-0.66,0.08-0.89l-24.73-14.26c-0.49-0.24-1.06-0.24-1.55,0l-10.62,6.13
			c-0.4,0.38-0.43,0.77-0.03,1.02H821.67z M785.76,417.62l-10.62,6.13c-0.45,0.26-0.49,0.66-0.1,0.89l10.17,5.87
			c0.48,0.26,1.07,0.26,1.55,0l10.62-6.13c0.46-0.26,0.49-0.66,0.1-0.89l-10.17-5.87C786.83,417.36,786.25,417.36,785.76,417.62z
			 M668.88,485.1l-10.62,6.13c-0.46,0.26-0.49,0.66-0.1,0.89l10.17,5.87c0.48,0.25,1.05,0.25,1.53,0l10.63-6.13
			c0.45-0.26,0.49-0.66,0-0.89l-10.16-5.87C669.89,484.87,669.35,484.87,668.88,485.1z M815.27,429.94c0.48,0.24,1.05,0.24,1.53,0
			l10.63-6.15c0.45-0.25,0.49-0.66,0.1-0.89l-10.17-5.87c-0.48-0.26-1.07-0.26-1.55,0l-10.62,6.13c-0.46,0.26-0.49,0.66-0.1,0.89
			L815.27,429.94z M684.42,476.1l-10.58,6.17c-0.45,0.26-0.48,0.66-0.08,0.89l10.17,5.87c0.48,0.25,1.05,0.25,1.53,0l10.63-6.13
			c0.45-0.26,0.49-0.66,0-0.89l-10.16-5.87c-0.48-0.25-1.04-0.25-1.52,0V476.1z M562.71,575.75c0.48,0.25,1.05,0.25,1.53,0
			l10.63-6.13c0.45-0.26,0.49-0.66,0.08-0.89l-10.16-5.87c-0.48-0.26-1.07-0.26-1.55,0l-10.62,6.12c-0.46,0.26-0.49,0.66-0.1,0.89
			L562.71,575.75z M544.57,556.84l-10.62,6.13c-0.45,0.26-0.49,0.66-0.1,0.89l10.17,5.87c0.49,0.24,1.06,0.24,1.55,0l10.62-6.13
			c0.45-0.26,0.49-0.66,0.1-0.91l-10.17-5.87c-0.47-0.23-1.02-0.22-1.48,0.02L544.57,556.84z M579.71,566.73l10.63-6.13
			c0.45-0.26,0.49-0.66,0-0.89l-10.16-5.87c-0.48-0.26-1.07-0.26-1.55,0l-10.62,6.13c-0.46,0.26-0.49,0.66-0.1,0.89l10.17,5.87
			c0.54,0.34,1.23,0.34,1.76,0L579.71,566.73z M595.24,557.76l10.63-6.13c0.45-0.26,0.49-0.66,0.08-0.89l-10.16-5.87
			c-0.49-0.24-1.06-0.24-1.55,0l-10.62,6.15c-0.46,0.25-0.49,0.66-0.1,0.89l10.17,5.87c0.5,0.27,1.1,0.26,1.6-0.02L595.24,557.76z
			 M610.77,548.81l10.63-6.13c0.45-0.26,0.48-0.68,0-0.91l-10.16-5.87c-0.48-0.26-1.07-0.26-1.55,0l-10.63,6.13
			c-0.45,0.26-0.48,0.66-0.08,0.89l10.17,5.87c0.52,0.3,1.16,0.3,1.68,0.02H610.77z M560.1,547.87L549.48,554
			c-0.46,0.26-0.49,0.66-0.1,0.89l10.17,5.87c0.48,0.26,1.07,0.26,1.55,0l10.62-6.13c0.45-0.26,0.49-0.66,0.1-0.89l-10.11-5.92
			c-0.49-0.24-1.07-0.22-1.55,0.05L560.1,547.87z M575.63,538.9l-10.62,6.13c-0.46,0.26-0.49,0.66-0.1,0.89l10.17,5.87
			c0.48,0.25,1.05,0.25,1.53,0l10.63-6.13c0.45-0.26,0.49-0.66,0.08-0.89l-10.16-5.87c-0.47-0.24-1.02-0.24-1.48,0L575.63,538.9z
			 M637.82,503.03l-10.62,6.13c-0.46,0.26-0.49,0.66-0.1,0.89l10.17,5.87c0.48,0.24,1.05,0.24,1.53,0l10.63-6.13
			c0.45-0.26,0.49-0.66,0-0.91l-10.07-5.85C638.89,502.77,638.31,502.77,637.82,503.03z M622.29,511.98l-10.62,6.15
			c-0.46,0.25-0.49,0.66-0.1,0.89l10.17,5.87c0.48,0.25,1.05,0.25,1.53,0l10.63-6.13c0.45-0.25,0.49-0.66,0.08-0.89L623.84,512
			c-0.49-0.24-1.06-0.24-1.55,0V511.98z M653.35,494.06l-10.62,6.13c-0.46,0.26-0.49,0.66-0.1,0.89l10.17,5.87
			c0.48,0.25,1.05,0.25,1.53,0l10.63-6.13c0.45-0.26,0.49-0.66,0.08-0.89l-10.16-5.87c-0.49-0.25-1.07-0.25-1.55,0.02V494.06z
			 M591.23,529.93L580.61,536c-0.46,0.26-0.49,0.66-0.1,0.89l10.17,5.87c0.48,0.25,1.05,0.25,1.53,0l10.63-6.13
			c0.45-0.26,0.49-0.66,0.08-0.89l-10.16-5.87C592.28,529.63,591.7,529.65,591.23,529.93z M606.76,520.96l-10.62,6.13
			c-0.46,0.26-0.49,0.66-0.1,0.91l10.17,5.87c0.48,0.25,1.05,0.25,1.53,0l10.63-6.13c0.45-0.26,0.49-0.66,0-0.89l-10.16-5.87
			C607.76,520.76,607.23,520.76,606.76,520.96L606.76,520.96z M586.98,579.36l10.62-6.13c0.46-0.25,0.49-0.66,0.1-0.89l-10.17-5.87
			c-0.48-0.24-1.05-0.24-1.53,0l-10.63,6.15c-0.45,0.25-0.49,0.66-0.08,0.89l10.16,5.87c0.48,0.24,1.04,0.24,1.52-0.02H586.98z
			 M505.05,575.57l-10.17-5.87c-0.48-0.25-1.05-0.25-1.53,0l-10.63,6.13c-0.45,0.26-0.49,0.66-0.08,0.89l10.16,5.87
			c0.48,0.26,1.07,0.26,1.55,0l10.62-6.13C505.41,576.13,505.45,575.73,505.05,575.57z M525.3,580.52l-10.17-5.87
			c-0.49-0.24-1.06-0.24-1.55,0l-16.34,9.45c-0.45,0.26-0.49,0.66-0.1,0.89l10.17,5.87c0.48,0.26,1.07,0.26,1.55,0l16.34-9.45
			C525.66,581.21,525.69,580.81,525.3,580.52z M489.87,563.85l-10.16-5.87c-0.48-0.26-1.07-0.26-1.55,0l-13.07,7.7
			c-0.45,0.26-0.49,0.66,0,0.89l10.16,5.87c0.48,0.26,1.07,0.26,1.55,0l13.07-7.55c0.36-0.35,0.41-0.74,0-0.97V563.85z
			 M499.91,558.06c0.48,0.24,1.05,0.24,1.53,0l10.63-6.15c0.45-0.25,0.49-0.64,0.08-0.89L502,545.15c-0.48-0.26-1.07-0.26-1.55,0
			l-10.62,6.13c-0.46,0.26-0.49,0.66-0.1,0.89L499.91,558.06z M543.9,586.55l-10.21-5.8c-0.48-0.26-1.07-0.26-1.55,0l-20.43,11.79
			c-0.46,0.26-0.49,0.66-0.1,0.89l10.17,5.87c0.48,0.25,1.05,0.25,1.53,0l20.44-11.79c0.49-0.26,0.54-0.66,0.13-0.89V586.55z
			 M551.07,599.18l-10.17-5.87c-0.48-0.25-1.05-0.25-1.53,0l-13.07,7.55c-0.46,0.26-0.49,0.66-0.1,0.89l10.17,5.87
			c0.48,0.25,1.05,0.25,1.53,0l13.09-7.55c0.45-0.2,0.48-0.59,0.08-0.82V599.18z M615.37,491.39c0.48,0.26,1.07,0.26,1.55,0
			l10.62-6.13c0.46-0.26,0.49-0.66,0.1-0.89l-10.17-5.87c-0.48-0.25-1.05-0.25-1.53,0l-10.63,6.13c-0.45,0.26-0.49,0.66-0.08,0.89
			L615.37,491.39z M584.31,509.39c0.48,0.26,1.07,0.26,1.55,0l10.62-6.13c0.46-0.26,0.49-0.66,0.1-0.89l-10.12-5.94
			c-0.48-0.25-1.05-0.25-1.53,0l-10.63,6.13c-0.45,0.26-0.49,0.66-0.08,0.89L584.31,509.39z M515.44,549.19
			c0.48,0.25,1.05,0.25,1.53,0l10.63-6.13c0.45-0.26,0.49-0.66,0.08-0.89l-10.16-5.87c-0.48-0.26-1.07-0.26-1.55,0l-10.62,6.13
			c-0.46,0.26-0.49,0.66-0.1,0.89L515.44,549.19z M599.84,500.45c0.48,0.26,1.07,0.26,1.55,0l10.62-6.13
			c0.46-0.26,0.49-0.66,0.1-0.89l-10.17-5.87c-0.48-0.25-1.05-0.25-1.53,0l-10.65,6.1c-0.45,0.26-0.49,0.66,0,0.89L599.84,500.45z
			 M568.77,518.36c0.49,0.24,1.06,0.24,1.55,0l10.62-6.13c0.46-0.26,0.49-0.66,0.1-0.91l-10.17-5.87c-0.48-0.25-1.05-0.25-1.53,0
			l-10.63,6.13c-0.45,0.26-0.49,0.66,0,0.89L568.77,518.36z M558.7,599.87c-0.48-0.26-1.07-0.26-1.55,0l-16.36,9.43
			c-0.45,0.26-0.48,0.68-0.08,0.91l10.17,5.87c0.48,0.25,1.05,0.25,1.53,0l16.36-9.43c0.45-0.26,0.48-0.66,0.08-0.89L558.7,599.87z
			 M546.48,531.22c0.48,0.26,1.07,0.26,1.55,0l10.63-6.13c0.45-0.26,0.48-0.66,0-0.89l-10.14-5.92c-0.48-0.26-1.07-0.26-1.55,0
			l-10.57,6.18c-0.45,0.26-0.48,0.66-0.08,0.89L546.48,531.22z M530.97,540.19c0.48,0.25,1.05,0.25,1.53,0l10.63-6.13
			c0.45-0.26,0.48-0.66,0.08-0.89l-10.16-5.87c-0.48-0.26-1.07-0.26-1.55,0l-10.63,6.13c-0.45,0.26-0.48,0.66,0,0.89L530.97,540.19z
			 M846.42,433.78c-0.48-0.26-1.07-0.26-1.55,0l-26.15,15.1c-0.46,0.25-0.49,0.66-0.1,0.89l10.17,5.87c0.48,0.25,1.05,0.25,1.53,0
			l26.17-15.09c0.45-0.26,0.48-0.66,0-0.89L846.42,433.78z M812.07,453.56c-0.48-0.25-1.05-0.25-1.53,0l-10.63,6.13
			c-0.45,0.26-0.49,0.66-0.08,0.89l10.16,5.87c0.48,0.26,1.07,0.26,1.55,0l10.62-6.13c0.46-0.26,0.49-0.66,0.1-0.89L812.07,453.56z
			 M602.47,570.41l10.62-6.13c0.46-0.26,0.49-0.68,0.1-0.91l-10.17-5.94c-0.48-0.25-1.05-0.25-1.53,0l-10.63,6.13
			c-0.45,0.26-0.49,0.66,0,0.89l10.16,5.87C601.46,570.57,602,570.6,602.47,570.41z M781.01,471.49c-0.48-0.25-1.05-0.25-1.53,0
			l-10.63,6.13c-0.45,0.26-0.49,0.66-0.08,0.89l10.16,5.87c0.49,0.24,1.06,0.24,1.55,0l10.62-6.15c0.46-0.25,0.49-0.66,0.1-0.89
			L781.01,471.49z M861.95,424.78c-0.48-0.26-1.07-0.26-1.55,0l-10.63,6.13c-0.45,0.26-0.48,0.66,0,0.89l10.16,5.87
			c0.48,0.26,1.07,0.26,1.55,0l10.63-6.13c0.45-0.26,0.48-0.66,0.08-0.89L861.95,424.78z M887.64,421.68l-24.73-14.26
			c-0.49-0.24-1.06-0.24-1.55,0l-10.62,6.15c-0.46,0.25-0.49,0.66-0.1,0.89l24.73,14.24c0.48,0.26,1.07,0.26,1.55,0l10.63-6.13
			c0.45-0.25,0.48-0.64,0.08-0.87V421.68z M722.99,505c-0.48-0.26-1.07-0.26-1.55,0l-12.99,7.62c-0.46,0.26-0.49,0.66-0.1,0.89
			l10.17,5.87c0.48,0.24,1.05,0.24,1.53,0l13.09-7.55c0.45-0.26,0.48-0.66,0.08-0.89L722.99,505z M762.22,482.35
			c-0.48-0.25-1.05-0.25-1.53,0l-16.36,9.43c-0.45,0.26-0.49,0.66-0.1,0.89l10.17,5.87c0.48,0.26,1.07,0.26,1.55,0l16.34-9.43
			c0.46-0.26,0.49-0.66,0.1-0.89L762.22,482.35z M687.02,525.78c-0.48-0.25-1.05-0.25-1.53,0l-87.38,50.5
			c-0.46,0.26-0.49,0.66-0.1,0.89l10.17,5.87c0.48,0.26,1.07,0.26,1.55,0l87.38-50.5c0.46-0.26,0.49-0.66,0.1-0.89L687.02,525.78z
			 M594.69,579.1c-0.48-0.26-1.07-0.26-1.55,0l-13.07,7.55c-0.45,0.25-0.49,0.66-0.08,0.89l10.16,5.87c0.48,0.26,1.07,0.26,1.55,0
			l13.07-7.55c0.45-0.25,0.49-0.66,0.1-0.89L594.69,579.1z M705.04,515.39c-0.48-0.26-1.07-0.26-1.55,0l-13.17,7.6
			c-0.45,0.26-0.49,0.68-0.1,0.91l10.17,5.85c0.48,0.26,1.07,0.26,1.55,0l13.11-7.6c0.45-0.25,0.49-0.66,0.08-0.89L705.04,515.39z
			 M576.7,589.48c-0.48-0.24-1.05-0.24-1.53,0l-13.09,7.55c-0.45,0.26-0.48,0.66,0,0.89l10.16,5.87c0.48,0.26,1.07,0.26,1.55,0
			l13.07-7.55c0.46-0.26,0.49-0.66,0.1-0.89L576.7,589.48z M741,494.63c-0.48-0.25-1.05-0.25-1.53,0l-13.09,7.55
			c-0.45,0.26-0.49,0.66-0.08,0.89l10.16,5.87c0.48,0.26,1.07,0.26,1.55,0l13.07-7.55c0.46-0.26,0.49-0.66,0.1-0.89L741,494.63z
			 M796.58,462.55c-0.48-0.25-1.05-0.25-1.53,0l-10.63,6.13c-0.45,0.26-0.49,0.66-0.08,0.89l10.16,5.87c0.49,0.24,1.06,0.24,1.55,0
			l10.62-6.13c0.46-0.26,0.49-0.66,0.1-0.89L796.58,462.55z M831.36,438.26l10.63-6.13c0.45-0.26,0.49-0.66,0-0.89l-10.16-5.87
			c-0.48-0.26-1.07-0.26-1.55,0l-10.62,6.13c-0.46,0.26-0.49,0.66-0.1,0.89l10.17,5.87c0.49,0.27,1.09,0.27,1.58,0H831.36z
			 M767.99,441.31l10.63-6.13c0.45-0.26,0.49-0.66,0-0.89l-10.16-5.87c-0.48-0.26-1.07-0.26-1.55,0l-10.62,6.13
			c-0.46,0.26-0.49,0.66-0.1,0.89l10.17,5.87c0.49,0.27,1.09,0.27,1.58,0H767.99z M726.77,498.67l31.06-17.94
			c0.46-0.26,0.49-0.66,0.1-0.89l-10.17-5.87c-0.48-0.24-1.05-0.24-1.53,0l-31.18,17.99c-0.46,0.26-0.49,0.66-0.1,0.89l10.17,5.87
			c0.5,0.25,1.1,0.24,1.58-0.05L726.77,498.67z M814.33,447.28c0.48,0.25,1.05,0.25,1.53,0l10.63-6.13
			c0.45-0.26,0.49-0.66,0.08-0.89l-10.16-5.87c-0.48-0.26-1.07-0.26-1.55,0l-10.62,6.13c-0.46,0.26-0.49,0.66-0.1,0.89
			L814.33,447.28z M801.34,438.84l10.63-6.13c0.45-0.26,0.49-0.66,0.1-0.89l-10.17-5.87c-0.49-0.24-1.06-0.24-1.55,0l-10.68,6.18
			c-0.46,0.25-0.49,0.66-0.1,0.89l10.17,5.87c0.49,0.24,1.06,0.22,1.53-0.05H801.34z M711.19,507.64l10.62-6.13
			c0.45-0.26,0.49-0.66,0.1-0.89l-10.16-5.84c-0.48-0.26-1.07-0.26-1.55,0l-10.62,6.13c-0.46,0.26-0.49,0.66-0.1,0.89l10.17,5.87
			C710.14,507.92,710.72,507.9,711.19,507.64z M779.92,467.1c0.48,0.26,1.07,0.26,1.55,0l10.63-6.13c0.45-0.26,0.48-0.66,0.08-0.89
			l-10.16-5.87c-0.48-0.26-1.07-0.26-1.55,0l-10.63,6.13c-0.45,0.26-0.48,0.66-0.08,0.89L779.92,467.1z M633.54,552.49l10.62-6.13
			c0.46-0.26,0.49-0.66,0.1-0.89l-10.17-5.87c-0.48-0.25-1.05-0.25-1.53,0l-10.63,6.13c-0.45,0.26-0.49,0.66-0.1,0.89l10.17,5.87
			C632.47,552.75,633.05,552.75,633.54,552.49z M649.07,543.52l10.62-6.13c0.46-0.26,0.49-0.66,0.1-0.89l-10.17-5.87
			c-0.48-0.25-1.05-0.25-1.53,0l-10.63,6.13c-0.45,0.26-0.49,0.66-0.1,0.89l10.17,5.87c0.5,0.26,1.09,0.26,1.58-0.02L649.07,543.52z
			 M618,561.46l10.62-6.13c0.46-0.26,0.49-0.66,0.1-0.89l-10.17-5.87c-0.48-0.25-1.05-0.25-1.53,0l-10.63,6.13
			c-0.45,0.26-0.49,0.66-0.08,0.89l10.16,5.87c0.49,0.25,1.07,0.25,1.55-0.02V561.46z M680.13,525.58l10.62-6.13
			c0.45-0.26,0.49-0.66,0.1-0.89l-10.17-5.87c-0.49-0.24-1.06-0.24-1.55,0l-10.62,6.15c-0.45,0.25-0.49,0.66-0.1,0.89l10.17,5.87
			c0.49,0.25,1.07,0.24,1.55-0.03V525.58z M664.6,534.55l10.62-6.13c0.46-0.26,0.49-0.66,0.1-0.89l-10.17-5.87
			c-0.48-0.26-1.07-0.26-1.55,0l-10.62,6.1c-0.45,0.26-0.49,0.66-0.1,0.89l10.17,5.87c0.48,0.26,1.06,0.27,1.55,0.02V534.55z
			 M695.66,516.63l10.62-6.15c0.45-0.25,0.49-0.66,0.1-0.89l-10.17-5.87c-0.48-0.26-1.07-0.26-1.55,0l-10.62,6.13
			c-0.45,0.25-0.49,0.66-0.1,0.89l10.17,5.87c0.49,0.24,1.06,0.24,1.55,0L695.66,516.63z M780.4,391.89c0.48,0.25,1.05,0.25,1.53,0
			l10.63-6.13c0.45-0.26,0.49-0.66,0.08-0.89l-2.7-1.65c-0.48-0.25-1.05-0.25-1.53,0l-10.63,6.13c-0.45,0.26-0.49,0.66-0.08,0.89
			L780.4,391.89z M703.21,440.75c0.48,0.26,1.07,0.26,1.55,0l10.62-6.13c0.45-0.26,0.49-0.66,0.1-0.89l-10.17-5.87
			c-0.48-0.26-1.07-0.26-1.55,0l-10.62,6.13c-0.45,0.26-0.49,0.66-0.1,0.89L703.21,440.75z M734.27,422.83
			c0.48,0.25,1.05,0.25,1.53,0l10.63-6.13c0.45-0.25,0.49-0.66,0.1-0.89l-10.17-5.87c-0.49-0.24-1.06-0.24-1.55,0l-10.62,6.15
			c-0.46,0.25-0.49,0.66-0.1,0.89L734.27,422.83z M684.25,451.7c0.48,0.25,1.05,0.25,1.53,0l10.63-6.13
			c0.45-0.26,0.49-0.66,0.08-0.89l-10.16-5.95c-0.48-0.26-1.07-0.26-1.55,0l-10.62,6.13c-0.46,0.26-0.49,0.66-0.1,0.89L684.25,451.7
			z M718.74,431.79c0.48,0.26,1.07,0.26,1.55,0l10.62-6.13c0.45-0.26,0.49-0.66,0.1-0.89l-10.17-5.87c-0.49-0.24-1.06-0.24-1.55,0
			l-10.62,6.13c-0.45,0.26-0.49,0.66-0.1,0.89L718.74,431.79z M653.19,469.71c0.48,0.25,1.05,0.25,1.53,0l10.63-6.13
			c0.45-0.26,0.49-0.66,0.1-0.89l-10.17-5.87c-0.48-0.26-1.07-0.26-1.55,0l-10.62,6.13c-0.46,0.26-0.49,0.66-0.1,0.89L653.19,469.71
			z M668.72,460.74c0.48,0.25,1.05,0.25,1.53,0l10.63-6.13c0.45-0.26,0.49-0.66,0.08-0.89l-10.16-5.87c-0.48-0.26-1.07-0.26-1.55,0
			l-10.62,6.13c-0.46,0.26-0.49,0.66-0.1,0.89L668.72,460.74z M749.34,409.89c0.48,0.26,1.07,0.26,1.55,0l10.62-6.13
			c0.45-0.25,0.49-0.66,0.1-0.89l-2.72-1.55c-0.48-0.25-1.05-0.25-1.53,0l-10.63,6.08c-0.45,0.26-0.49,0.66,0,0.89L749.34,409.89z
			 M795.93,382.98c0.48,0.25,1.05,0.25,1.53,0l10.63-6.13c0.45-0.26,0.49-0.66,0.08-0.89l-2.7-1.57c-0.48-0.25-1.05-0.25-1.53,0
			l-10.63,6.13c-0.45,0.26-0.49,0.66-0.08,0.89L795.93,382.98z M817.27,395.23c0.48,0.26,1.07,0.26,1.55,0l10.62-6.13
			c0.46-0.26,0.49-0.66,0.1-0.89l-10.17-5.87c-0.48-0.26-1.07-0.26-1.55,0l-10.62,6.13c-0.45,0.26-0.49,0.66-0.1,0.89L817.27,395.23
			z M846.95,429.3l10.63-6.13c0.45-0.26,0.49-0.66,0.08-0.89l-10.16-5.87c-0.49-0.24-1.06-0.24-1.55,0l-10.62,6.13
			c-0.46,0.26-0.49,0.66-0.1,0.89l10.17,5.89C845.89,429.56,846.47,429.55,846.95,429.3z M764.87,400.81c0.49,0.24,1.06,0.24,1.55,0
			l10.62-6.13c0.45-0.26,0.49-0.66,0.1-0.91l-2.72-1.55c-0.48-0.25-1.05-0.25-1.53,0l-10.63,6.13c-0.45,0.26-0.49,0.66-0.08,0.89
			L764.87,400.81z M637.66,478.56c0.49,0.24,1.06,0.24,1.55,0l10.62-6.13c0.45-0.26,0.49-0.66,0.1-0.89l-10.17-5.87
			c-0.48-0.26-1.07-0.26-1.55,0l-10.54,6.17c-0.45,0.26-0.49,0.66-0.1,0.89L637.66,478.56z"/>
		<polygon class="st9" points="682.14,566.96 684.45,568.3 745.81,603.73 854.96,540.72 857.22,539.41 793.54,502.66 		"/>
		<polygon class="st7" points="853.56,541.52 793.54,506.9 685.85,569.11 745.81,603.73 		"/>
	</g>
</g>
<g id="freepik--Window--inject-7">
	<g>
		<g id="freepik--window--inject-7">
			<path class="st10" d="M466.09,527.28c-0.89,0.53-1.89,0.84-2.92,0.89c-1.47,0.18-2.95-0.08-4.27-0.74
				c-2.09-1.43-3.39-3.77-3.48-6.3V292.85l6.97,4.02v228.26c0,1.65,0.84,2.65,2.06,2.65C465.04,527.76,465.6,527.58,466.09,527.28z"
				/>
			<path class="st11" d="M826.24,315.07c-0.15,2.61-1.52,5-3.71,6.43L466.09,527.28c-2.04,1.19-3.71,0.23-3.71-2.14v-252.4
				L826.24,62.82V315.07z"/>
			<path class="st12" d="M824.49,65.77v249.3c-0.13,2-1.18,3.82-2.84,4.95L465.24,525.78c-0.24,0.15-0.5,0.24-0.77,0.26
				c-0.31,0-0.31-0.89-0.31-0.91v-251.4L824.49,65.77 M826.24,62.82L462.4,272.73v252.4c0,1.65,0.84,2.65,2.06,2.65
				c0.59-0.02,1.15-0.2,1.65-0.51l356.42-205.71c2.19-1.43,3.56-3.82,3.71-6.43V62.82z"/>
			<path class="st3" d="M458.92,284.16c-2.1-1.42-3.4-3.76-3.5-6.3v-28.98c0.16-2.61,1.54-4.99,3.73-6.41L815.62,36.74
				c3.26-2.05,7.57-1.07,9.62,2.19c0.75,1.19,1.12,2.58,1.07,3.98v28.98c-0.15,2.6-1.53,4.98-3.71,6.41l-356.5,205.73
				C463.86,285.2,461.2,285.25,458.92,284.16z"/>
			<path class="st13" d="M826.19,42.29c-0.25-1.91-1.81-2.62-3.66-1.53L466.09,246.47c-1.09,0.69-1.99,1.64-2.62,2.77l-6.97-4.02
				c0.63-1.13,1.54-2.08,2.64-2.75L815.62,36.74c2.23-1.18,4.9-1.23,7.17-0.13C824.7,37.91,825.95,39.99,826.19,42.29z"/>
			<path class="st14" d="M463.49,249.24c-0.67,1.11-1.05,2.37-1.09,3.66v44.04l-6.97-4.02v-44.04c0-0.15,0-0.28,0-0.45
				c0.03-0.31,0.08-0.62,0.15-0.92c0.2-0.8,0.51-1.58,0.92-2.29L463.49,249.24z"/>
			<path class="st3" d="M826.24,42.9v19.92L575.2,207.91c-2.04,1.19-3.71,0.21-3.71-2.14v-7.75c0-2.36-1.65-3.3-3.73-2.14
				l-87.73,50.53c-2.19,1.43-3.58,3.82-3.73,6.43v7.5c-0.14,2.61-1.51,4.99-3.69,6.43l-10.22,5.9v-19.78c0.15-2.61,1.52-5,3.71-6.43
				L822.53,40.76C824.57,39.57,826.24,40.53,826.24,42.9z"/>
			<path class="st5" d="M815.62,53.54c1.57-0.91,2.84-0.16,2.84,1.65c-0.1,2.01-1.16,3.84-2.84,4.95c-1.65,0.91-2.85,0.16-2.85-1.65
				C812.87,56.47,813.93,54.63,815.62,53.54z"/>
			<path class="st5" d="M805.35,59.52c1.65-0.91,2.84-0.16,2.84,1.65c-0.1,2.01-1.16,3.84-2.84,4.95c-1.65,0.91-2.85,0.18-2.85-1.65
				C802.6,62.46,803.66,60.62,805.35,59.52z"/>
			<path class="st5" d="M795.09,65.36c1.57-0.91,2.85-0.16,2.85,1.65c-0.11,2.01-1.17,3.85-2.85,4.95
				c-1.57,0.91-2.85,0.16-2.85-1.65C792.35,68.3,793.41,66.46,795.09,65.36z"/>
			<path class="st1" d="M826.24,62.82v24.05L462.4,296.94v-24.2l7.63-4.42c2.04-1.19,2.72-2.98,3.71-6.43l2.57-8.99
				c0.82-3.12,1.65-5.24,3.73-6.43l86.23-49.66c2.06-1.19,3.66-1.3,5.23,1.27l3.18,5.77c1.15,2.01,1.65,3.2,3.78,2.01L826.24,62.82z
				"/>
			<polygon class="st1" points="462.4,272.73 462.4,296.87 455.43,292.85 455.43,268.73 			"/>
			<polygon class="st15" points="462.4,272.73 462.4,296.87 455.43,292.85 455.43,268.73 			"/>
			<path class="st16" d="M479.43,274.48l-5.84,3.3l2.23-4.27c0.18-0.33,0.18-0.73,0-1.06c-0.16-0.2-0.46,0-0.66,0.31l-3.17,6.08l0,0
				v0.23c0,0,0,0,0,0.08c-0.02,0.1-0.02,0.21,0,0.31c-0.02,0.09-0.02,0.18,0,0.26l0,0c-0.01,0.04-0.01,0.09,0,0.13l0,0l3.17,2.42
				c0.09,0.07,0.21,0.07,0.3,0c0.17-0.11,0.29-0.26,0.36-0.45c0.16-0.4,0.15-0.84,0-0.99l-2.23-1.65l5.84-3.3
				c0.3-0.24,0.47-0.61,0.46-0.99C479.89,274.53,479.69,274.33,479.43,274.48z"/>
			<path class="st16" d="M484.23,271.66l5.82-3.3l-2.21-1.65c-0.2-0.15-0.21-0.59,0-1.01c0.21-0.41,0.46-0.59,0.66-0.45l3.17,2.42
				l0,0c0.04,0.04,0.08,0.08,0.1,0.13l0,0c0.02,0.09,0.02,0.18,0,0.26c0.02,0.1,0.02,0.21,0,0.31l0,0c-0.02,0.08-0.06,0.16-0.1,0.23
				l0,0l-3.17,6.08c-0.06,0.15-0.17,0.28-0.31,0.36c-0.1,0.09-0.25,0.09-0.35,0c-0.18-0.32-0.18-0.72,0-1.04l2.21-4.27l-5.82,3.3
				c-0.26,0.15-0.46,0-0.46-0.46C483.77,272.24,483.94,271.89,484.23,271.66z"/>
			<path class="st16" d="M503.4,254.88c0-0.35-0.33-0.3-0.49,0l-0.79,1.95c-1.37-0.15-3.02,1.19-4.12,3.54
				c-1.45,3.05-1.45,6.59,0,8.06c0.73,0.67,1.82,0.73,2.62,0.15c1.16-0.78,2.06-1.88,2.6-3.17c0.19-0.32,0.19-0.71,0-1.02
				c-0.18-0.18-0.48,0-0.66,0.38c-1.07,2.28-2.84,3.3-3.91,2.26s-1.07-3.74,0-6.02c0.76-1.65,1.86-2.59,2.84-2.65l-0.61,1.48
				c-0.15,0.38,0,0.73,0.23,0.58l2.37-1.55c0.2-0.16,0.3-0.41,0.28-0.66L503.4,254.88z"/>
			<path class="st16" d="M563.71,207.91l2.13-4.48c0.25-0.43,0.25-0.97,0-1.4c-0.25-0.25-0.66,0-0.91,0.53l-2.13,4.48l-2.13-2.04
				c-0.25-0.23-0.66,0-0.91,0.53c-0.25,0.43-0.25,0.97,0,1.4l2.13,2.04l-2.13,4.5c-0.25,0.43-0.25,0.97,0,1.4
				c0.13,0.11,0.32,0.11,0.45,0c0.21-0.13,0.37-0.32,0.46-0.54l2.13-4.5l2.13,2.04c0.13,0.12,0.32,0.12,0.45,0
				c0.2-0.14,0.36-0.34,0.46-0.56c0.25-0.43,0.25-0.97,0-1.4L563.71,207.91z"/>
			<path class="st11" d="M511.14,260.42v-7.52c0.15-2.61,1.53-5,3.73-6.43L801.64,81.05c2.04-1.19,3.71-0.23,3.71,2.14v7.5
				c-0.15,2.61-1.52,5-3.71,6.43L514.86,262.56C512.8,263.73,511.14,262.78,511.14,260.42z"/>
			<path class="st1" d="M796.58,97.71c-0.11,0.02-0.22,0.02-0.33,0c-0.42-0.2-0.65-0.66-0.56-1.12l0.38-3.05l-1.43-1.02
				c-0.26-0.2-0.4-0.5-0.4-0.82c-0.01-0.5,0.22-0.98,0.61-1.3l2.18-1.65c0.04-0.05,0.08-0.11,0.1-0.18l0.97-3.18
				c0.09-0.55,0.5-0.99,1.04-1.12c0.36-0.03,0.71,0.18,0.86,0.51l0.81,1.65l1.85-0.69c0.34-0.15,0.74-0.06,0.99,0.21
				c0.3,0.46,0.3,1.04,0,1.5l-1.65,2.97c-0.02,0.06-0.02,0.12,0,0.18l0.45,2.74c0.05,0.49-0.12,0.98-0.46,1.34
				c-0.21,0.25-0.53,0.38-0.86,0.35l-1.78-0.23l-1.85,2.46C797.28,97.53,796.94,97.71,796.58,97.71z M795.54,91.51l1.42,1.04
				c0.31,0.24,0.46,0.64,0.38,1.02l-0.23,2.03l1.29-1.65c0.22-0.32,0.59-0.5,0.97-0.46l1.78,0.21c0.02-0.06,0.02-0.13,0-0.2
				l-0.36-2.65c-0.03-0.33,0.04-0.66,0.2-0.96l1.38-2.59l-1.42,0.54c-0.44,0.19-0.94-0.01-1.14-0.45l-0.64-1.37l-0.86,2.84
				c-0.1,0.32-0.29,0.61-0.54,0.82l-2.18,1.65C795.59,91.34,795.55,91.44,795.54,91.51z"/>
			<g class="st17">
				<path class="st8" d="M809.72,80.13c-0.71-0.01-1.28-0.59-1.27-1.3c0.01-0.45,0.24-0.86,0.63-1.09l10.45-6.03
					c0.6-0.36,1.38-0.16,1.74,0.45c0,0,0.01,0.01,0.01,0.01c0.36,0.61,0.16,1.4-0.46,1.76c0,0,0,0-0.01,0l-10.45,6.03
					C810.16,80.08,809.94,80.13,809.72,80.13z"/>
				<path class="st8" d="M809.72,86.17c-0.71-0.01-1.28-0.59-1.27-1.3c0.01-0.45,0.24-0.86,0.63-1.09l10.45-6.03
					c0.6-0.36,1.38-0.16,1.74,0.45c0,0,0.01,0.01,0.01,0.01c0.36,0.61,0.16,1.4-0.46,1.76c0,0,0,0-0.01,0L810.36,86
					C810.16,86.11,809.94,86.17,809.72,86.17z"/>
				<path class="st8" d="M809.72,92.2c-0.71-0.01-1.28-0.59-1.27-1.3c0.01-0.45,0.24-0.86,0.63-1.09l10.45-6.03
					c0.6-0.36,1.38-0.16,1.74,0.45c0,0,0.01,0.01,0.01,0.01c0.36,0.61,0.16,1.4-0.46,1.76c0,0,0,0-0.01,0l-10.45,6.03
					C810.16,92.15,809.94,92.2,809.72,92.2z"/>
			</g>
		</g>
		<path class="st5" d="M489.17,380.54l310.34-179.23c3.81-2.21,6.91-0.43,6.91,3.97v97.98c-0.26,4.85-2.82,9.29-6.89,11.95
			L489.17,494.45c-3.79,2.21-6.89,0.43-6.89-3.97v-97.92C482.53,387.68,485.09,383.22,489.17,380.54z"/>
		<path class="st1" d="M486.04,496c-0.73,0.01-1.46-0.18-2.09-0.54c-1.62-1.1-2.5-3-2.32-4.95v-97.95
			c0.28-5.06,2.95-9.69,7.19-12.46l310.4-179.28c2.04-1.7,5.06-1.42,6.76,0.62c0.9,1.08,1.28,2.5,1.04,3.88v97.98
			c-0.28,5.07-2.96,9.69-7.2,12.46L489.42,494.98C488.4,495.61,487.24,495.96,486.04,496z M802.59,200.98
			c-0.98,0.04-1.94,0.34-2.77,0.87L489.41,381.02c-3.89,2.54-6.34,6.78-6.59,11.43v97.98c-0.46,1.94,0.74,3.89,2.68,4.34
			c1.18,0.28,2.42-0.05,3.3-0.88l310.4-179.21c3.89-2.54,6.34-6.78,6.59-11.43v-97.93c0.19-1.51-0.43-3.02-1.65-3.94
			C803.68,201.1,803.14,200.96,802.59,200.98L802.59,200.98z"/>
		<path class="st3" d="M625.13,379.92l49.66-28.69c1.5-0.86,2.72-0.15,2.72,1.57v13.39c-0.11,1.91-1.12,3.65-2.72,4.7l-49.66,28.61
			c-1.5,0.87-2.72,0.16-2.72-1.57v-13.31C622.51,382.7,623.52,380.96,625.13,379.92z"/>
		<path class="st18" d="M625.13,379.92l49.66-28.69c1.5-0.86,2.72-0.15,2.72,1.57v13.39c-0.11,1.91-1.12,3.65-2.72,4.7l-49.66,28.61
			c-1.5,0.87-2.72,0.16-2.72-1.57v-13.31C622.51,382.7,623.52,380.96,625.13,379.92z"/>
		<path class="st3" d="M499.74,463.87v-65.01c0.26-4.85,2.82-9.29,6.89-11.94l91.36-52.76c3.81-2.21,6.89-0.43,6.89,3.97v65.03
			c-0.27,4.85-2.83,9.28-6.89,11.94l-91.36,52.76C502.83,470.05,499.74,468.27,499.74,463.87z"/>
		<path class="st19" d="M499.74,463.87v-65.01c0.26-4.85,2.82-9.29,6.89-11.94l91.36-52.76c3.81-2.21,6.89-0.43,6.89,3.97v65.03
			c-0.27,4.85-2.83,9.28-6.89,11.94l-91.36,52.76C502.83,470.05,499.74,468.27,499.74,463.87z"/>
		<g class="st17">
			<path class="st3" d="M577.86,372.65c-0.68,0.01-1.35-0.17-1.95-0.51c-1.51-1.02-2.34-2.8-2.14-4.62
				c0.24-4.68,2.68-8.96,6.59-11.54c1.89-1.58,4.69-1.32,6.27,0.56c0.84,1.01,1.19,2.33,0.97,3.62c-0.23,4.68-2.68,8.97-6.59,11.54
				C580.06,372.29,578.97,372.61,577.86,372.65z M583.53,356.26c-0.9,0.04-1.78,0.31-2.54,0.79c-3.56,2.33-5.8,6.22-6.03,10.47
				c-0.38,1.78,0.75,3.53,2.53,3.92c1.04,0.22,2.12-0.07,2.91-0.78c3.57-2.32,5.81-6.2,6.05-10.45c0.16-1.39-0.44-2.76-1.57-3.59
				c-0.41-0.22-0.88-0.33-1.35-0.31V356.26z"/>
		</g>
		<g class="st17">
			<path class="st3" d="M503.55,467c-0.61,0-2.03-0.3-2.03-3.12v-32.68l0.13-0.16l30.2-39.93l0.45,0.25l35.13,18.78l-6.48-5.46
				l0.25-0.43l13.96-24.62l27.93,14.57v9.02c-0.27,4.21-2.49,8.05-6,10.39l-91.37,52.76C505.07,466.77,504.32,466.99,503.55,467z
				 M502.73,431.6v32.28c0,0.58,0.08,1.93,0.82,1.93c0.59-0.03,1.16-0.22,1.65-0.54l91.37-52.76c3.16-2.1,5.15-5.56,5.39-9.35v-8.24
				l-26.26-13.67l-13.19,23.2l14.43,12.15l-44.73-23.92L502.73,431.6z"/>
		</g>
		<path class="st8" d="M625,320.63l38.32-22.04c1.42-0.82,2.57-0.25,2.57,1.3c-0.13,1.75-1.09,3.33-2.57,4.27L625,326.28
			c-1.43,0.82-2.59,0.25-2.59-1.3C622.51,323.2,623.48,321.57,625,320.63z"/>
		<path class="st1" d="M624.57,335.19l158.79-91.62c1.19-0.69,2.14-0.38,2.14,0.69c-0.17,1.34-0.97,2.52-2.14,3.18l-158.79,91.62
			c-1.19,0.69-2.16,0.38-2.16-0.69C622.59,337.03,623.39,335.85,624.57,335.19z"/>
		<path class="st1" d="M624.57,346.13l158.79-91.62c1.19-0.69,2.14-0.38,2.14,0.71c-0.18,1.34-0.97,2.52-2.14,3.18l-158.79,91.62
			c-1.19,0.68-2.16,0.36-2.16-0.71C622.59,347.98,623.39,346.8,624.57,346.13z"/>
		<path class="st1" d="M624.57,357.1l158.79-91.62c1.19-0.69,2.14-0.38,2.14,0.69c-0.17,1.34-0.97,2.52-2.14,3.18l-158.79,91.62
			c-1.19,0.69-2.16,0.38-2.16-0.69C622.59,358.94,623.39,357.76,624.57,357.1z"/>
		<path class="st1" d="M624.57,368.05l104.94-60.56c1.19-0.68,2.14-0.36,2.14,0.71c-0.18,1.34-0.97,2.52-2.14,3.18l-104.94,60.56
			c-1.19,0.68-2.16,0.36-2.16-0.71C622.59,369.89,623.39,368.71,624.57,368.05z"/>
		<path class="st3" d="M762.94,313.24c1.78-1.04,3.21-0.2,3.21,1.86c-0.12,2.26-1.32,4.33-3.21,5.57c-1.78,1.04-3.22,0.2-3.22-1.86
			C759.85,316.55,761.04,314.48,762.94,313.24z"/>
		<path class="st3" d="M774.06,308.05L774.06,308.05c0.86,0,0.96,1.02,0.96,1.47c-0.1,2-1.14,3.84-2.82,4.95
			c-0.31,0.2-0.66,0.31-1.02,0.33c-0.25,0.01-0.49-0.1-0.64-0.3c-0.23-0.35-0.34-0.76-0.31-1.17c0.12-1.97,1.17-3.78,2.82-4.86
			c0.31-0.2,0.66-0.31,1.02-0.33 M774.06,307.29c-0.51,0.03-1.01,0.18-1.45,0.45c-1.93,1.23-3.16,3.31-3.3,5.59
			c0,1.45,0.73,2.29,1.78,2.29c0.51-0.01,1-0.16,1.43-0.43c1.93-1.23,3.15-3.31,3.3-5.59c0-1.45-0.73-2.31-1.78-2.31L774.06,307.29z
			"/>
		<path class="st3" d="M783.72,302.46L783.72,302.46c0.86,0,0.96,1.04,0.96,1.48c-0.13,1.97-1.16,3.77-2.8,4.86
			c-0.31,0.19-0.67,0.3-1.04,0.31c-0.24,0.02-0.48-0.09-0.63-0.28c-0.23-0.35-0.34-0.77-0.31-1.19c0.13-1.97,1.16-3.77,2.8-4.86
			C783,302.6,783.35,302.48,783.72,302.46 M783.72,301.64c-0.51,0.02-1,0.17-1.43,0.45c-1.93,1.22-3.16,3.29-3.3,5.57
			c0,1.47,0.73,2.31,1.78,2.31c0.51-0.02,1.01-0.17,1.45-0.45c1.93-1.22,3.16-3.29,3.3-5.57c0-1.47-0.73-2.31-1.78-2.31H783.72z"/>
	</g>
</g>
<g id="freepik--Button--inject-7">
	<g id="freepik--button--inject-7">
		<path class="st3" d="M722.93,187.53c0.18-1.71-0.58-3.39-1.98-4.39l-10.62-6.13c-1.57-0.73-3.41-0.55-4.81,0.46l-124.4,71.83
			c-4.02,2.61-6.54,6.98-6.79,11.76v33.35c-0.18,1.71,0.58,3.39,1.98,4.39l10.62,6.13c1.57,0.72,3.4,0.54,4.8-0.48l124.41-71.82
			c4.01-2.62,6.53-6.99,6.79-11.77V187.53z"/>
		<path class="st14" d="M587.06,304.98c0,0,0,0-0.13,0c-1.22-0.71-9.38-5.41-10.6-6.13c-1.42-0.99-2.18-2.68-1.99-4.4v-33.39
			c0.06-1.94,0.54-3.84,1.42-5.57l10.58,6.12c-0.86,1.74-1.33,3.65-1.38,5.59v33.35C584.75,302.31,585.56,304.03,587.06,304.98z"/>
		<path class="st20" d="M720.64,182.96c-1.51-0.52-3.18-0.28-4.48,0.64l-124.41,71.83c-2.36,1.49-4.24,3.63-5.41,6.17l-10.55-6.12
			c1.14-2.54,2.99-4.68,5.33-6.18l124.41-71.83c1.4-1,3.23-1.19,4.8-0.48C711.47,177.65,718.74,181.84,720.64,182.96z"/>
		<path class="st5" d="M604.67,276.94c0.01-0.25,0.08-0.5,0.2-0.73c0.09-0.17,0.22-0.31,0.38-0.41l1.65-0.92
			c0.12-0.08,0.28-0.08,0.4,0c0.13,0.14,0.19,0.33,0.15,0.51c-0.05,0.93-0.19,1.85-0.41,2.75c-0.24,1-0.59,1.97-1.06,2.89
			c-0.5,0.97-1.11,1.88-1.81,2.7c-0.76,0.87-1.65,1.6-2.65,2.16c-0.72,0.48-1.56,0.75-2.42,0.77c-0.67,0.01-1.31-0.25-1.8-0.71
			c-0.55-0.56-0.94-1.25-1.14-2.01c-0.3-1.02-0.47-2.07-0.49-3.13c0-0.76,0-1.65,0-2.54s0-1.81,0-2.6c0.05-1.24,0.21-2.48,0.49-3.69
			c0.25-1.14,0.63-2.25,1.14-3.3c0.47-1,1.08-1.94,1.8-2.79c0.69-0.81,1.51-1.49,2.42-2.03c0.79-0.52,1.71-0.83,2.65-0.89
			c0.66-0.01,1.3,0.21,1.81,0.61c0.5,0.44,0.87,1.01,1.06,1.65c0.24,0.73,0.38,1.49,0.41,2.26c0.02,0.24-0.03,0.48-0.15,0.69
			c-0.09,0.18-0.23,0.34-0.4,0.46l-1.65,0.92c-0.12,0.08-0.26,0.08-0.38,0c-0.13,0-0.2-0.21-0.23-0.46
			c-0.03-0.36-0.12-0.71-0.28-1.04c-0.12-0.29-0.33-0.53-0.59-0.69c-0.29-0.17-0.62-0.24-0.96-0.21c-0.48,0.07-0.94,0.24-1.35,0.49
			c-0.52,0.3-0.97,0.69-1.35,1.15c-0.39,0.47-0.71,0.98-0.97,1.53c-0.25,0.58-0.45,1.19-0.59,1.81c-0.13,0.65-0.21,1.3-0.25,1.96
			c0,0.79,0,1.65,0,2.59s0,1.8,0,2.56c0.02,0.56,0.11,1.11,0.25,1.65c0.11,0.41,0.31,0.8,0.59,1.12c0.26,0.25,0.61,0.4,0.97,0.41
			c0.48,0,0.95-0.14,1.35-0.41c0.5-0.28,0.96-0.64,1.35-1.07c0.37-0.4,0.7-0.83,0.97-1.3c0.25-0.44,0.46-0.91,0.61-1.4
			C604.52,277.83,604.62,277.39,604.67,276.94z"/>
		<path class="st5" d="M619.42,271.35c0.11-0.09,0.27-0.09,0.38,0c0.12,0.13,0.18,0.31,0.16,0.49v2.18c0,0.24-0.06,0.47-0.16,0.68
			c-0.08,0.19-0.21,0.35-0.38,0.46l-8.72,5.03c-0.11,0.09-0.27,0.09-0.38,0c-0.11-0.14-0.16-0.32-0.15-0.49v-19.78
			c0-0.23,0.05-0.46,0.15-0.68c0.08-0.19,0.21-0.35,0.38-0.46l1.65-0.94c0.11-0.09,0.27-0.09,0.38,0c0.12,0.14,0.18,0.31,0.16,0.49
			v16.8L619.42,271.35z"/>
		<path class="st5" d="M622.97,273.18c-0.11,0.09-0.27,0.09-0.38,0c-0.12-0.13-0.18-0.31-0.16-0.49V252.9
			c0-0.24,0.06-0.47,0.16-0.68c0.08-0.19,0.21-0.35,0.38-0.46l1.65-0.92c0.11-0.09,0.27-0.09,0.38,0c0.12,0.13,0.18,0.31,0.16,0.49
			v19.78c0,0.24-0.05,0.47-0.16,0.68c-0.07,0.19-0.2,0.35-0.38,0.46L622.97,273.18z"/>
		<path class="st5" d="M637.28,258.11c0.04-0.26,0.14-0.52,0.28-0.74c0.09-0.17,0.22-0.31,0.38-0.41l1.65-0.92
			c0.11-0.09,0.27-0.09,0.38,0c0.13,0.13,0.19,0.33,0.15,0.51c-0.1,1.96-0.6,3.88-1.47,5.64c-0.5,0.97-1.11,1.88-1.81,2.7
			c-0.76,0.87-1.65,1.6-2.65,2.16c-0.72,0.47-1.56,0.74-2.42,0.77c-0.67,0.01-1.31-0.25-1.8-0.71c-0.55-0.57-0.94-1.27-1.14-2.03
			c-0.29-1.01-0.46-2.06-0.49-3.12c0-0.76,0-1.65,0-2.56s0-1.8,0-2.59c0.06-1.24,0.22-2.48,0.49-3.69c0.26-1.14,0.64-2.24,1.14-3.3
			c0.47-1,1.08-1.94,1.8-2.79c0.69-0.81,1.51-1.49,2.42-2.03c0.79-0.53,1.71-0.84,2.65-0.89c0.66-0.02,1.3,0.2,1.81,0.61
			c0.5,0.44,0.87,1.01,1.06,1.65c0.25,0.73,0.39,1.49,0.41,2.26c0.02,0.24-0.03,0.48-0.15,0.69c-0.08,0.18-0.21,0.34-0.38,0.45
			l-1.65,0.94c-0.12,0.08-0.26,0.08-0.38,0c-0.15-0.11-0.23-0.29-0.21-0.48c-0.04-0.35-0.13-0.7-0.28-1.02
			c-0.13-0.29-0.34-0.54-0.61-0.71c-0.29-0.16-0.62-0.23-0.96-0.2c-0.48,0.07-0.94,0.24-1.35,0.49c-0.52,0.3-0.97,0.69-1.35,1.15
			c-0.39,0.46-0.71,0.98-0.96,1.53c-0.27,0.58-0.47,1.19-0.61,1.81c-0.13,0.65-0.21,1.3-0.25,1.96c0,0.79,0,1.65,0,2.59
			c0,0.94,0,1.8,0,2.56c0.02,0.56,0.11,1.11,0.25,1.65c0.11,0.41,0.32,0.79,0.61,1.1c0.25,0.26,0.59,0.42,0.96,0.43
			c0.48-0.01,0.95-0.15,1.35-0.41c0.5-0.28,0.96-0.65,1.35-1.07c0.38-0.4,0.7-0.84,0.97-1.32c0.26-0.44,0.46-0.9,0.61-1.38
			C637.19,258.99,637.25,258.55,637.28,258.11z"/>
		<path class="st5" d="M653.4,254.32c0.06,0.05,0.1,0.12,0.12,0.2c0.01,0.06,0.01,0.12,0,0.18c-0.01,0.23-0.07,0.46-0.16,0.68
			c-0.08,0.19-0.21,0.35-0.38,0.46l-1.9,1.09c-0.26,0.15-0.48,0.16-0.63,0c-0.1-0.07-0.19-0.15-0.28-0.23l-4.68-5.42v8.01
			c0,0.24-0.06,0.47-0.16,0.68c-0.08,0.19-0.21,0.35-0.38,0.46l-1.65,0.92c-0.11,0.09-0.27,0.09-0.38,0
			c-0.11-0.14-0.16-0.32-0.15-0.49v-19.78c0-0.23,0.05-0.46,0.15-0.68c0.08-0.19,0.21-0.34,0.38-0.46l1.65-0.94
			c0.11-0.09,0.27-0.09,0.38,0c0.12,0.13,0.18,0.3,0.16,0.48v7.2l4.34-9.89c0.11-0.25,0.23-0.48,0.38-0.71
			c0.13-0.19,0.31-0.36,0.51-0.48l1.85-1.06c0.11-0.09,0.27-0.09,0.38,0c0.11,0.14,0.16,0.32,0.15,0.49c0,0.18-0.04,0.36-0.12,0.53
			l-5.36,12.07L653.4,254.32z"/>
		<path class="st5" d="M671.51,223.68c0.11-0.09,0.27-0.09,0.38,0c0.12,0.14,0.18,0.31,0.16,0.49v19.78
			c-0.01,0.23-0.06,0.46-0.16,0.68c-0.08,0.19-0.21,0.35-0.38,0.46l-1.65,0.92c-0.11,0.09-0.27,0.09-0.38,0
			c-0.12-0.14-0.18-0.31-0.16-0.49v-8.1l-5.97,3.45v8.24c0,0.23-0.06,0.46-0.16,0.66c-0.08,0.19-0.21,0.36-0.38,0.48l-1.65,0.92
			c-0.11,0.09-0.27,0.09-0.38,0c-0.12-0.14-0.17-0.32-0.15-0.49v-19.78c0-0.23,0.05-0.46,0.15-0.68c0.08-0.19,0.21-0.34,0.38-0.46
			l1.65-0.94c0.11-0.1,0.27-0.1,0.38,0c0.12,0.13,0.18,0.3,0.16,0.48v7.88l6-3.46v-7.88c0.01-0.23,0.06-0.46,0.16-0.68
			c0.08-0.19,0.21-0.35,0.38-0.46L671.51,223.68z"/>
		<path class="st5" d="M684.93,233.58c0.11-0.1,0.27-0.1,0.38,0c0.12,0.14,0.18,0.31,0.16,0.49v2.18c-0.01,0.23-0.06,0.46-0.16,0.68
			c-0.08,0.19-0.21,0.35-0.38,0.46l-8.74,5.05c-0.11,0.1-0.27,0.1-0.38,0c-0.12-0.13-0.18-0.3-0.16-0.48v-19.78
			c0-0.23,0.06-0.46,0.16-0.66c0.08-0.19,0.21-0.36,0.38-0.48l8.57-4.95c0.11-0.09,0.27-0.09,0.38,0c0.12,0.14,0.18,0.31,0.16,0.49
			v2.18c0,0.24-0.05,0.47-0.16,0.68c-0.07,0.19-0.2,0.35-0.38,0.46l-6.43,3.73v4.95l6-3.46c0.11-0.09,0.27-0.09,0.38,0
			c0.11,0.14,0.17,0.32,0.15,0.49v2.09c0,0.23-0.05,0.46-0.15,0.68c-0.08,0.19-0.21,0.35-0.38,0.46l-6,3.46v5.08L684.93,233.58z"/>
		<path class="st5" d="M694.11,210.64c1.65-0.96,2.92-1.09,3.78-0.41c1.03,1.14,1.51,2.67,1.3,4.19c0.01,1.43-0.22,2.85-0.68,4.2
			c-0.42,1.28-1.08,2.46-1.96,3.48l2.75,5.98c0.02,0.1,0.02,0.2,0,0.3c0,0.19-0.05,0.39-0.13,0.56c-0.07,0.15-0.18,0.28-0.31,0.38
			l-1.65,0.97c-0.26,0.15-0.46,0.16-0.58,0c-0.12-0.11-0.21-0.24-0.28-0.38l-2.59-5.52l-2.64,1.53v7.14
			c-0.01,0.23-0.07,0.46-0.16,0.68c-0.08,0.19-0.21,0.35-0.38,0.46l-1.65,0.92c-0.11,0.09-0.27,0.09-0.38,0
			c-0.12-0.14-0.18-0.31-0.16-0.49v-19.78c0.01-0.23,0.06-0.46,0.16-0.68c0.08-0.19,0.21-0.35,0.38-0.46L694.11,210.64z
			 M691.13,222.02l2.89-1.65c0.72-0.4,1.35-0.97,1.81-1.65c0.49-0.82,0.73-1.77,0.68-2.72c0-1.14-0.23-1.78-0.68-1.9
			c-0.64-0.1-1.3,0.07-1.81,0.46l-2.89,1.65V222.02z"/>
		<path class="st5" d="M711.55,218.19c0.11-0.09,0.27-0.09,0.38,0c0.11,0.14,0.17,0.32,0.15,0.49v2.18c0,0.23-0.05,0.46-0.15,0.68
			c-0.08,0.19-0.21,0.35-0.38,0.46l-8.75,5.05c-0.1,0.09-0.26,0.09-0.36,0c-0.12-0.13-0.18-0.31-0.16-0.49v-19.78
			c0-0.24,0.06-0.47,0.16-0.68c0.08-0.18,0.2-0.34,0.36-0.46l8.59-4.95c0.11-0.09,0.27-0.09,0.38,0c0.12,0.14,0.18,0.31,0.16,0.49
			v2.18c-0.01,0.23-0.06,0.46-0.16,0.68c-0.07,0.19-0.2,0.36-0.38,0.46l-6.43,3.71v4.95l6-3.46c0.1-0.1,0.26-0.1,0.36,0
			c0.12,0.13,0.18,0.3,0.16,0.48v2.18c0,0.24-0.05,0.47-0.16,0.68c-0.07,0.19-0.2,0.35-0.36,0.46l-6,3.46v5.09L711.55,218.19z"/>
	</g>
</g>
<g id="freepik--Cursor--inject-7">
	<g id="freepik--cursor--inject-7">
		<path class="st7" d="M723.06,218.49c-0.36-0.01-0.64-0.3-0.64-0.66v-7.06c-0.06-0.36,0.19-0.7,0.55-0.76
			c0.36-0.06,0.7,0.19,0.76,0.55c0.01,0.07,0.01,0.14,0,0.21v7.02c0.02,0.36-0.26,0.67-0.63,0.69
			C723.08,218.49,723.07,218.49,723.06,218.49z"/>
		<path class="st7" d="M718.48,223.03c-0.25,0-0.48-0.14-0.59-0.36l-2.29-4.86c-0.19-0.31-0.08-0.72,0.23-0.9
			c0.31-0.19,0.72-0.08,0.9,0.23c0.02,0.04,0.04,0.08,0.05,0.12l2.29,4.8c0.15,0.32,0.01,0.7-0.31,0.86c0,0,0,0,0,0
			C718.68,222.96,718.58,223.01,718.48,223.03z"/>
		<path class="st7" d="M715.05,230.13h-0.18l-3.97-1.25c-0.33-0.09-0.53-0.43-0.44-0.77c0-0.01,0.01-0.03,0.01-0.04
			c0.1-0.34,0.46-0.53,0.8-0.43c0,0,0,0,0.01,0l3.97,1.24c0.35,0.11,0.54,0.48,0.43,0.82C715.58,229.97,715.33,230.14,715.05,230.13
			z"/>
		<path class="st7" d="M709.31,240.55c-0.23,0-0.45-0.12-0.58-0.31c-0.18-0.31-0.08-0.7,0.23-0.88c0.01,0,0.01-0.01,0.02-0.01
			l4.58-2.65c0.3-0.18,0.7-0.09,0.88,0.22c0,0,0.01,0.01,0.01,0.01c0.18,0.31,0.07,0.71-0.23,0.89l-4.6,2.65
			C709.53,240.53,709.42,240.56,709.31,240.55z"/>
		<path class="st7" d="M732.24,227.31c-0.23,0-0.45-0.12-0.58-0.31c-0.17-0.31-0.06-0.71,0.25-0.89l4.58-2.65
			c0.31-0.18,0.71-0.08,0.89,0.23c0.18,0.31,0.08,0.71-0.23,0.89l-4.6,2.65C732.46,227.29,732.35,227.32,732.24,227.31z"/>
		<path class="st7" d="M731.01,220.96c-0.13,0-0.26-0.04-0.36-0.12c-0.3-0.2-0.38-0.61-0.18-0.91l3.97-5.82
			c0.24-0.27,0.66-0.3,0.93-0.06c0.22,0.2,0.29,0.52,0.16,0.79l-3.99,5.84C731.41,220.86,731.22,220.96,731.01,220.96z"/>
		<path class="st7" d="M727.66,217.8h-0.2c-0.33-0.09-0.53-0.43-0.44-0.77c0-0.01,0.01-0.03,0.01-0.04l2.29-7.45
			c0.11-0.34,0.47-0.53,0.82-0.42c0.34,0.11,0.53,0.47,0.42,0.82l0,0l-2.32,7.34C728.19,217.56,727.95,217.77,727.66,217.8z"/>
		<path class="st3" d="M767.56,247.48c-0.39-0.92-1.06-1.7-1.91-2.23l0,0l-4.8-2.75l0,0c-2.08-1.19-4.63,0-5.97,0.82l-3-1.73l0,0
			c-3.63-2.19-8.66,2.39-9.79,3.5l-1.29-0.74l0,0c-1.65-1.04-4.02-0.38-6.08,0.66v-17.48c0.16-1.5-0.46-2.99-1.65-3.92l0,0l0,0
			h-0.08l-4.75-2.8l0,0c-1.41-0.62-3.05-0.45-4.3,0.45c-3.63,2.37-5.92,6.32-6.15,10.65v53.34l-0.73-0.35
			c-4.2-2.95-8.62-4.72-12.51-4.02c-3.27,0.76-6.13,2.73-8,5.52c-2.03,3.59,1.32,5.84,5.64,10.78s8.06,10.8,11.97,14.43
			c1.92,1.96,4.21,3.52,6.73,4.6v6.97l4.75,2.74l36.12-20.86v-6.97c0,0,4.48-17.87,5.9-25.34
			C769.08,265.27,770.33,253.16,767.56,247.48z"/>
		<path class="st19" d="M767.56,247.48c-0.39-0.92-1.06-1.7-1.91-2.23l0,0l-4.8-2.75l0,0c-2.08-1.19-4.63,0-5.97,0.82l-3-1.73l0,0
			c-3.63-2.19-8.66,2.39-9.79,3.5l-1.29-0.74l0,0c-1.65-1.04-4.02-0.38-6.08,0.66v-17.48c0.16-1.5-0.46-2.99-1.65-3.92l0,0l0,0
			h-0.08l-4.75-2.8l0,0c-1.41-0.62-3.05-0.45-4.3,0.45c-3.63,2.37-5.92,6.32-6.15,10.65v53.34l-0.73-0.35
			c-4.2-2.95-8.62-4.72-12.51-4.02c-3.27,0.76-6.13,2.73-8,5.52c-2.03,3.59,1.32,5.84,5.64,10.78s8.06,10.8,11.97,14.43
			c1.92,1.96,4.21,3.52,6.73,4.6v6.97l4.75,2.74l36.12-20.86v-6.97c0,0,4.48-17.87,5.9-25.34
			C769.08,265.27,770.33,253.16,767.56,247.48z"/>
		<path class="st21" d="M734.73,245v5.9l0,0c1.42-1.22,2.98-2.28,4.63-3.17L734.73,245z M756.55,242.43
			c-0.57,0.22-1.13,0.5-1.65,0.82l1.53,0.89c1,0.57,1.79,1.44,2.28,2.49c0.83-0.63,1.75-1.15,2.72-1.53L756.55,242.43z
			 M745.32,242.43c-1.16,0.73-2.23,1.59-3.22,2.54l3.13,1.81l0.18,0.1c0.48,0.26,0.89,0.62,1.2,1.06l0,0c1-1.02,2.1-1.93,3.3-2.7
			L745.32,242.43z M717.69,231.83v53.34c1.67,0.83,3.26,1.82,4.75,2.93v-53.47L717.69,231.83z M734.72,245.02L734.72,245.02
			L734.72,245.02z M718.79,314.27c-3.89-3.63-7.67-9.53-11.95-14.43c-4.06-4.65-7.27-6.91-5.95-10.14l-4.75-2.65
			c-1.32,3.3,1.9,5.51,5.95,10.16c4.29,4.95,8.06,10.78,11.95,14.44c1.94,1.94,4.22,3.5,6.74,4.58v6.97l4.75,2.74v-6.97
			c-2.53-1.09-4.82-2.67-6.74-4.65V314.27z"/>
		<path class="st22" d="M734.73,245v5.9l0,0c1.42-1.22,2.98-2.28,4.63-3.17L734.73,245z M756.55,242.43
			c-0.57,0.22-1.13,0.5-1.65,0.82l1.53,0.89c1,0.57,1.79,1.44,2.28,2.49c0.83-0.63,1.75-1.15,2.72-1.53L756.55,242.43z
			 M745.32,242.43c-1.16,0.73-2.23,1.59-3.22,2.54l3.13,1.81l0.18,0.1c0.48,0.26,0.89,0.62,1.2,1.06l0,0c1-1.02,2.1-1.93,3.3-2.7
			L745.32,242.43z M717.69,231.83v53.34c1.67,0.83,3.26,1.82,4.75,2.93v-53.47L717.69,231.83z M734.72,245.02L734.72,245.02
			L734.72,245.02z M718.79,314.27c-3.89-3.63-7.67-9.53-11.95-14.43c-4.06-4.65-7.27-6.91-5.95-10.14l-4.75-2.65
			c-1.32,3.3,1.9,5.51,5.95,10.16c4.29,4.95,8.06,10.78,11.95,14.44c1.94,1.94,4.22,3.5,6.74,4.58v6.97l4.75,2.74v-6.97
			c-2.53-1.09-4.82-2.67-6.74-4.65V314.27z"/>
		<path class="st3" d="M725.53,325.89v-6.97c-2.52-1.08-4.8-2.64-6.73-4.58c-3.91-3.64-7.68-9.55-11.97-14.44
			c-4.29-4.9-7.68-7.19-5.64-10.77c1.86-2.8,4.72-4.78,8-5.54c4.12-0.73,8.82,1.29,13.19,4.57v-53.53
			c0.23-4.32,2.52-8.28,6.15-10.63l0,0c3.4-1.96,6.15-0.38,6.15,3.54v23.38c0,0,8.46-7.53,11.89-2.92c0,0,8.33-8.71,12.09-1.35
			c0,0,6.1-4.95,8.85,0.79c2.75,5.74,1.43,17.82,0,25.29s-5.9,25.34-5.9,25.34v6.97L725.53,325.89z"/>
		<path class="st4" d="M725.53,325.89v-6.97c-2.52-1.08-4.8-2.64-6.73-4.58c-3.91-3.64-7.68-9.55-11.97-14.44
			c-4.29-4.9-7.68-7.19-5.64-10.77c1.86-2.8,4.72-4.78,8-5.54c4.12-0.73,8.82,1.29,13.19,4.57v-53.53
			c0.23-4.32,2.52-8.28,6.15-10.63l0,0c3.4-1.96,6.15-0.38,6.15,3.54v23.38c0,0,8.46-7.53,11.89-2.92c0,0,8.33-8.71,12.09-1.35
			c0,0,6.1-4.95,8.85,0.79c2.75,5.74,1.43,17.82,0,25.29s-5.9,25.34-5.9,25.34v6.97L725.53,325.89z"/>
		<g class="st23">
			<path class="st3" d="M734.73,260.95c0,0,0.76-10.67,4.68-13.19h-0.13c-1.63,0.87-3.15,1.92-4.55,3.13v-0.12
				c-0.03,0.06-0.03,0.14,0,0.2V260.95z"/>
			<path class="st3" d="M746.62,247.99v9.76c0,0,1.09-10.02,3.3-12.46C748.73,246.08,747.63,246.98,746.62,247.99z"/>
			<path class="st3" d="M758.71,246.63L758.71,246.63v9.79c0,0,0.59-9.89,2.72-11.33C760.45,245.48,759.54,246,758.71,246.63z"/>
		</g>
	</g>
</g>
<g>
	<g>
		<g id="freepik--speech-bubble--inject-7">
			<path class="st3" d="M944.22,112.13l-7.11,4.06l7.27,20.82c0.43,1.24,1.78,1.89,3.02,1.46c0.14-0.05,0.27-0.11,0.39-0.18
				c0.35-0.2,5.92-3.3,7.12-4.07c0.36-0.21,0.65-0.5,0.86-0.86l6.33-10.91L944.22,112.13z"/>
			<path class="st14" d="M944.22,112.13l-7.11,4.06l7.27,20.82c0.43,1.24,1.78,1.89,3.02,1.46c0.14-0.05,0.27-0.11,0.39-0.18
				c0.35-0.2,5.92-3.3,7.12-4.07c0.36-0.21,0.65-0.5,0.86-0.86l6.33-10.91L944.22,112.13z"/>
			<path class="st3" d="M937.18,116.19l7.2,20.82c0.45,1.24,1.82,1.89,3.06,1.44c0.52-0.19,0.96-0.55,1.24-1.03l6.31-10.91
				L937.18,116.19z"/>
			<path class="st3" d="M988.9,65.66v65.68c-0.13,2.43-1.41,4.64-3.45,5.97l-3.58,2.08c-2.17,1.09-4.72,1.09-6.89,0l-57.7-33.35
				c-2.04-1.32-3.32-3.54-3.45-5.97V34.38c0.12-2.43,1.4-4.65,3.45-5.97l3.58-2.08c2.17-1.09,4.72-1.09,6.89,0l57.69,33.35
				C987.47,61.01,988.76,63.23,988.9,65.66z"/>
			<path class="st14" d="M988.9,65.66v65.68c-0.13,2.43-1.41,4.64-3.45,5.97l-3.58,2.08c-2.17,1.09-4.72,1.09-6.89,0l-57.7-33.35
				c-2.04-1.32-3.32-3.54-3.45-5.97V34.38c0.12-2.43,1.4-4.65,3.45-5.97l3.58-2.08c2.17-1.09,4.72-1.09,6.89,0l57.69,33.35
				C987.47,61.01,988.76,63.23,988.9,65.66z"/>
			<path class="st14" d="M981.88,139.39l3.58-2.08c2.04-1.32,3.32-3.54,3.45-5.97V65.66c-0.04-1.2-0.39-2.37-1.01-3.4l-15.93,9.2
				v66.18l3.02,1.75C977.15,140.47,979.71,140.47,981.88,139.39z"/>
			<path class="st3" d="M917.21,106.03l57.7,33.35c1.9,1.09,3.45,0.2,3.45-1.99V71.71c-0.14-2.42-1.42-4.64-3.45-5.97l-57.7-33.35
				c-1.91-1.1-3.45-0.21-3.45,1.99v65.68C913.9,102.49,915.18,104.71,917.21,106.03z"/>
		</g>
		<path class="st5" d="M950.47,79.55c1.4,2.59,0.58,5.83-1.9,7.44l-2.28,1.4c-1.27,0.78-1.69,2.42-0.94,3.71
			c0.69,1.24,2.26,1.68,3.5,0.99c0.04-0.02,0.07-0.04,0.11-0.07l2.29-1.38c5.03-3.14,6.7-9.68,3.78-14.84l-8.71-15.09
			c-2.84-4.98-9.18-6.72-14.17-3.88c-0.11,0.07-0.23,0.13-0.34,0.2l-2.28,1.4c-5.05,3.12-6.71,9.68-3.78,14.84l4.11,7.14
			c0.72,1.24,2.32,1.67,3.56,0.95c0.02-0.01,0.04-0.03,0.07-0.04c1.27-0.78,1.69-2.42,0.94-3.71l-4.11-7.14
			c-1.41-2.59-0.59-5.83,1.88-7.44l2.29-1.4c2.46-1.51,5.68-0.73,7.19,1.73c0.02,0.04,0.05,0.08,0.07,0.12l8.71,15.09L950.47,79.55z
			 M937.15,94l8.72,15.07c2.84,4.99,9.18,6.73,14.17,3.89c0.11-0.06,0.22-0.13,0.33-0.19l2.29-1.4c5.04-3.13,6.7-9.68,3.78-14.84
			l-3.76-6.59c-0.7-1.25-2.28-1.69-3.53-0.98c-0.03,0.02-0.07,0.04-0.1,0.06c-1.27,0.78-1.69,2.43-0.94,3.73l3.76,6.59
			c0.67,1.24,0.85,2.69,0.49,4.06c-0.36,1.38-1.24,2.56-2.46,3.3l-2.28,1.4c-2.43,1.52-5.64,0.77-7.15-1.66
			c-0.03-0.06-0.07-0.11-0.1-0.17l-8.71-15.09c-1.41-2.59-0.59-5.83,1.88-7.44c1.27-0.78,1.69-2.43,0.96-3.73
			c-0.71-1.25-2.31-1.68-3.56-0.97c-0.02,0.01-0.05,0.03-0.07,0.04c-5.03,3.14-6.7,9.67-3.79,14.84L937.15,94z"/>
	</g>
</g>
<g id="freepik--Character--inject-7">
	<g id="freepik--character--inject-7">
		<path id="freepik--shadow--inject-7" class="st1" d="M857.2,661.3c13.11,3.58,27.07,2.54,40.43,0c19.78-3.68,40.33-9.71,59.5-0.51
			c6.27,3.29,12.17,7.22,17.62,11.74c5.47,4.49,11.42,8.36,17.74,11.54c6.43,2.93,13.77,4.5,20.64,2.82
			c13.92-3.43,17.28-13.62,17.39-24.58c0-7.14-1.31-14.22-3.87-20.89c-10.45-24.1-37.46-30.3-61.71-32.3
			c-26.73-2.21-53.68,3.41-78.92,11.87c-10.98,3.69-21.91,8.01-31.33,14.84c-3.39,2.19-6.08,5.31-7.75,8.99
			C844.13,652.27,850.44,659.49,857.2,661.3z"/>
		<g id="freepik--Bottom--inject-7">
			<path class="st24" d="M900.3,596.36c1.1-14.1,3.84-83.24,3.84-83.24l29.68,19.19c-1.65,30.55-9.71,54.41-11.41,71.75
				c0,0-10.47,9.55-16.77,15.68c-5.33,5.37-11.13,10.26-17.31,14.62c-4.75,3.17-14.99,4.67-16.65,1.57
				c7.67-7.52,16.6-15.79,22.42-24.02C896.82,607.98,899.7,604.72,900.3,596.36z"/>
			<path class="st9" d="M858.24,646.23c-0.45,0-0.49,4.95,2.11,6.59c3.02,2.01,11.54,4.95,21.88,2.21s15.71-6.59,19.49-10.72
				c3.78-4.12,9.1-9.79,13.75-11.43c4.32-1.53,8.89-4.14,10.14-5.69s0.3-7.62,0.3-7.62L858.24,646.23z"/>
			<path class="st7" d="M922.87,599.89c0.7,0.5,1.12,1.3,1.12,2.16c-0.17,2.79,0.03,5.59,0.59,8.33c0.93,3.73,1.39,7.55,1.37,11.39
				c-0.18,3.2-7.16,6.27-11.54,8.61c-5.15,3.05-9.81,6.86-13.82,11.31c-4.45,4.72-14.38,10.11-21.25,11.06
				c-10.49,1.45-17.64-0.54-20.21-4.07c-3.18-4.35-1.48-7.3,9.89-14.39c2.14-1.35,9.6-7.09,12.12-9.15
				c6.83-5.59,13.35-12.98,15.75-21.65c0.15-1.05,0.65-2.01,1.42-2.74c0.71-0.4,1.52-0.58,2.32-0.51c2.05,0.04,4.08,0.39,6.02,1.04
				c1.73,0.58,5.11,1.1,5.34,3.18c-0.02,0.97-0.18,1.94-0.46,2.87c-0.08,0.45-0.33,1.99,0.08,2.19c0.41,0.2,1.22-0.92,1.47-1.27
				c1.19-1.65,1.53-2.62,3.18-3.18c1.65-0.56,5.31-1.2,6.33-3.03L922.87,599.89z"/>
			<path class="st11" d="M867.17,635.43c15.35-0.82,21.3,7.96,22.67,13.7c-3.29,1.75-6.84,2.97-10.52,3.61
				c-10.49,1.45-18.14-0.49-20.64-4.01C855.68,644.63,856.84,640.87,867.17,635.43z"/>
			<path class="st2" d="M890.01,632.76c0.41-0.04,0.71-0.4,0.67-0.81c-0.02-0.18-0.1-0.35-0.24-0.48c-4.06-3.25-9.31-4.6-14.43-3.71
				c-0.4,0.09-0.65,0.49-0.56,0.89c0.09,0.4,0.49,0.65,0.89,0.56c4.62-0.78,9.36,0.42,13.06,3.3
				C889.55,632.69,889.78,632.79,890.01,632.76z"/>
			<path class="st2" d="M896.09,628.13c0.17-0.02,0.33-0.09,0.45-0.21c0.29-0.29,0.29-0.76,0.01-1.05c0,0,0,0-0.01-0.01
				c-4.04-3.28-9.3-4.64-14.43-3.73c-0.4,0.11-0.64,0.5-0.56,0.91c0.1,0.4,0.5,0.64,0.9,0.55c0,0,0.01,0,0.01,0
				c4.62-0.78,9.36,0.42,13.06,3.3C895.66,628.05,895.87,628.14,896.09,628.13z"/>
			<path class="st2" d="M901.62,623.02c0.17-0.01,0.33-0.09,0.45-0.21c0.3-0.3,0.3-0.78,0-1.07c-4.06-3.25-9.31-4.6-14.43-3.71
				c-0.4,0.1-0.65,0.5-0.55,0.9c0.1,0.4,0.5,0.65,0.9,0.55c4.62-0.78,9.35,0.42,13.04,3.3
				C901.17,622.94,901.39,623.04,901.62,623.02z"/>
			<path class="st2" d="M907.02,617.92c0.17-0.02,0.33-0.09,0.45-0.21c0.29-0.29,0.29-0.76,0.01-1.05c0,0,0,0-0.01-0.01
				c-3.3-3.3-10.26-4.95-15.7-3.64c-0.4,0.09-0.65,0.48-0.57,0.88c0,0.01,0,0.02,0.01,0.02c0.1,0.4,0.5,0.65,0.91,0.56
				c4.95-1.17,11.31,0.3,14.31,3.3C906.59,617.92,906.81,617.97,907.02,617.92z"/>
			<path class="st24" d="M978.58,547.24l32.31-4.32c1.99,21.68,1.32,46.08,3.1,66.43c0.33,3.83,3.5,29.68,2.97,37.67
				c-0.81,12.05-15,12.07-16.57,5.09s-5.51-37.49-5.9-40.59c-1.38-13.02-7.86-34.14-13.75-57.13
				C980.49,553.26,978.84,548.35,978.58,547.24z"/>
			<path class="st9" d="M995.68,657.64c0.51,6.97,1.65,11.54,4.19,15.63c2.54,4.09,7.22,5.28,11.94,4.02s10.73-4.55,12-10.6
				c1.14-5.48,1.06-11.15-0.23-16.6L995.68,657.64z"/>
			<path class="st7" d="M1013.78,606.89c1.96,0.13,2.67,9.48,3.92,18.84c1.34,10.04,4.4,14.15,5.59,22.37
				c1.37,9.4,0.94,13.62-2.28,19.36c-3.21,5.74-14.84,11.54-20.71,3.43c-4.78-6.59-5.08-13.96-4.78-23.36
				c0.13-7.95-0.2-15.91-0.97-23.82c-0.48-7.04-2.14-14.13-0.46-14.94c0.15,1.02,0.3,2.34,0.45,3.3c0.12,0.77,0.38,4.58,1.47,4.6
				c0.07-0.88,0.07-1.77,0-2.65c-0.14-0.79,0.04-1.61,0.49-2.28c0.59-0.56,1.35-0.92,2.16-1.01c1.91-0.4,5.97-0.63,7.91-0.82
				c0.97-0.11,1.94-0.17,2.92-0.16c0.84-0.03,1.67,0.08,2.47,0.31c0.48,0.14,0.87,0.49,1.07,0.94c0.1,0.35,0.14,0.71,0.12,1.07
				c0,0.65,0.09,1.3,0.26,1.93c0.08,0.28,0.28,0.61,0.56,0.54c0.28-0.07,0.3-0.35,0.3-0.58c0-1.14-0.16-1.96-0.23-3.3
				c0-0.61-0.15-1.43-0.16-2.04C1013.86,608.02,1013.83,607.46,1013.78,606.89z"/>
			<path class="st11" d="M1023.92,653.54c0.41,5.84,0.15,9.89-2.37,14.34c-3.22,5.74-15.76,11.54-21.63,3.45
				c-2.93-4.01-3.76-8.8-4.22-13.68C999.04,651.31,1018.41,648.26,1023.92,653.54z"/>
			<path class="st2" d="M1000.54,647.32c0.08,0.02,0.17,0.02,0.25,0c5.26-2.34,11.11-3.02,16.77-1.96c0.38,0.06,0.75-0.17,0.86-0.54
				c0.08-0.39-0.17-0.77-0.56-0.86c-5.98-1.15-12.18-0.42-17.72,2.09c-0.35,0.17-0.5,0.59-0.34,0.94c0,0,0,0.01,0.01,0.01
				C999.95,647.26,1000.25,647.39,1000.54,647.32z"/>
			<path class="st2" d="M1016.99,638.22c0.4-0.06,0.67-0.43,0.61-0.83c-0.04-0.26-0.22-0.49-0.48-0.58
				c-8.77-2.84-17.34,1.73-17.71,1.93c-0.34,0.19-0.47,0.62-0.29,0.96c0,0,0,0.01,0.01,0.01c0.19,0.35,0.62,0.48,0.97,0.3
				c0.08,0,8.41-4.47,16.57-1.83C1016.78,638.22,1016.89,638.23,1016.99,638.22z"/>
			<path class="st2" d="M1016.4,631.63c0.27-0.04,0.5-0.22,0.59-0.48c0.13-0.38-0.07-0.79-0.45-0.92
				c-6.04-1.97-12.63-1.29-18.14,1.88c-0.36,0.18-0.49,0.62-0.31,0.98c0.18,0.36,0.62,0.49,0.98,0.31c0.04-0.02,0.07-0.04,0.11-0.07
				c5.13-2.87,11.21-3.5,16.82-1.73C1016.13,631.64,1016.27,631.65,1016.4,631.63z"/>
			<path class="st12" d="M1015.69,624.24c0.28-0.04,0.51-0.22,0.61-0.48c0.13-0.38-0.07-0.79-0.45-0.92
				c-9.05-3.3-17.82,1.86-18.14,2.08c-0.32,0.24-0.38,0.7-0.14,1.02c0.21,0.27,0.57,0.36,0.88,0.22c0.08,0,8.56-4.95,16.95-1.95
				C1015.5,624.23,1015.6,624.25,1015.69,624.24z"/>
			<path class="st7" d="M978.96,322.9c10.19,13.88,25.46,32.97,26.02,69.25c0.87,57.16,0,84.83,0,84.83
				c2.59,6.18,7.02,10.49,8,39.16c0.77,22.88,0.61,54.95,0.61,54.95s-15.56,8-29.12,2.72c-5.62-18.5-14.76-67.02-20.96-91.8
				c-5.64-22.5-10.3-50.42-10.3-50.42l-13.83,54.41c1.57,11.97,1.49,24.1-0.21,36.06c-2.23,15.22-11.13,57-11.13,57
				s-15.88,5.16-27.58-3.3c0,0-1.65-77.23-1.52-95.72c0.16-27.73-1.65-74.08,1.76-112.11c1.34-14.53,5.94-29.54,8.08-39.32
				L978.96,322.9z"/>
			<path class="st8" d="M1014.31,565.68c-5.46,3.53-24.3,6.48-31.82,3.79l2.24,8.75c0,0,4.95,1.9,15.18,1.17
				c10.24-0.73,14.23-5.06,14.23-5.06L1014.31,565.68z"/>
			<path class="st8" d="M930.17,570.62c-6.08,2.23-23.08,0.4-29.87-3.91l0.23,9.03c0,0,3.07,4.11,13.32,5.11
				c10.25,1.01,14.26-1.85,14.26-1.85L930.17,570.62z"/>
			<path class="st9" d="M953.29,431.55l-7.85-45.32c0,0-24.12-2.52-32.97-10.8c0,0,11.26,15.42,27.63,17.72l7.35,33.35l-7.9,58.89
				L953.29,431.55z"/>
		</g>
		<g id="freepik--Top--inject-7">
			<path class="st9" d="M1004.4,235.24c-1.38-3.08-3.68-5.66-6.59-7.37c-2.77-1.85-5.13-2.64-5.37-6.38
				c-0.18-2.8,1.42-5.41,1.35-8.24c-0.18-3.21-1.6-6.23-3.97-8.41c-3.08-3.3-9.89-8.52-9.46-14.08l-58.1,2.18
				c-1.22,0.79-1.65,4.04-2.51,5.51c-1.85,2.92-4.35,5.37-7.3,7.16c-3.59,2.34-9,4.67-9.79,9.51c-0.87,5.28,4.09,9.69,1.75,14.84
				c-1.65,3.66-5.77,6.46-6.46,10.55c-0.49,2.89-0.49,7.85,0.92,10.54c1.83,3.45,6.59,6.05,10.21,7.07
				c2.34,0.66,4.55,1.37,5.79,3.71c1.42,2.72,1.25,6.1,2.8,8.89c1.63,3.53,4.76,6.14,8.52,7.11c4.19,1.07,8.62,0.69,12.56-1.09
				c6.27-2.85,10.37-7.06,17.87-6.07c3.5,0.46,6.97,2.19,10.37,3.07c3.23,0.88,6.55,1.44,9.89,1.65c5.46,0.26,11.77-2.03,14.94-6.76
				c1.55-2.34,1.98-5.75,3.03-8.36c1.22-2.84,2.73-5.56,4.5-8.1c1.65-2.41,4.09-4.22,5.24-7.01
				C1005.79,241.95,1005.72,238.4,1004.4,235.24z"/>
			<path class="st24" d="M793.84,223.16c2.91,0.03,5.71,1.1,7.9,3.02c5.51,4.75,11.44,10.85,16.49,15.42
				c6,5.51,10.26,9.13,14.33,12.61c4.1,3.89,9.27,6.49,14.84,7.45c0,0,33.91,7.78,42.39,9.53c10.63,2.19,21.43,3.99,21.43,3.99
				l4.85-32.64c-10.29-2.46-35.18-2.62-42.21-3.53c-8.08-1.06-15.86-1.2-23.89-2.64c0,0-32.5-20.05-41.43-25.69"/>
			<path class="st8" d="M850.49,236.03c5.94,0.49,46.26,2.65,49.97,2.67c4.62,0,9.99-0.41,14.49-0.53c3.59-0.08,9.6,0.56,11.21,0.61
				l-14.61,38.37l-52.46-11.79c-9.89-2.34-17.82-3.3-21.75-6.22c-3.92-2.92-19.19-17.48-19.19-17.48s7.16-3.51,10.77-8.24
				c3.61-4.73,2.64-8.47,2.64-8.47L850.49,236.03z"/>
			<path class="st7" d="M918.68,250.36c-6.1,14.51-10.91,17.23-16.93,19.52c-3.66,1.4-24.35-0.54-24.35-0.54l0,0l34.16,7.81
				l4.48-17.48L918.68,250.36z"/>
			<path class="st25" d="M765.45,211.57c0.02,1.32,0.29,2.63,0.79,3.86c0.53,1.09,2.18,1.65,3.2,2.23c1.76,0.91,5.05,2.24,6.43,1.15
				c0.21-0.17,0.3-0.44,0.26-0.71l1.07,0.31c0.73,0.22,1.52,0.08,2.13-0.38c0,0,1.42,1.17,2.03,1.55c1.5,0.94,3.89,4.32,7.96,4.42
				c2.17,0.11,4.34-0.2,6.4-0.91l-3.83-5.29l-6.88-9.38c-1.06-1.43-2.11-2.85-3.15-4.29c-0.36-0.69-0.82-1.31-1.37-1.86
				c-0.63-0.44-1.31-0.81-2.01-1.12c-1.03-0.51-2.15-0.82-3.3-0.92c-1.87,0.22-3.64,0.93-5.14,2.06c-1.5,0.79-2.89,1.78-4.14,2.93
				c-1.04,1.1-0.63,3.07-0.58,4.42C765.38,210.26,765.4,210.91,765.45,211.57z"/>
			<path class="st24" d="M808.53,210.61c-5.16-3.12-9.97-6.79-14.34-10.95c-4.67-4.27-6.13-5.79-9.58-5.74
				c-2.09,0-4.15,0.41-6.23,0.64c-1.78,0.18-3.59,0.12-5.39,0.23c-1.25,0-2.52,0.23-3.78,0.4c-1.81,0.26-3.61,0.79-5.39,1.07
				c-2.41,0.38-4.83,0.51-7.27,0.99c-2.01,0.19-3.98,0.64-5.87,1.34c-1.45,0.73-0.13,2.14,0.74,2.8c2.98,2.24,7.19,0.99,10.58,0.97
				c1.65,0,3.38,0.18,5.11,0.12c1.25,0,2.82-0.23,3.91-0.28c0.82,0.18,1.65,0.49,2.44,0.64c1.4,0.17,2.81,0.26,4.22,0.25v0.16
				c-0.03,0.51-0.31,0.97-0.76,1.22c-1.46,0.77-3.04,1.3-4.67,1.57c-2.41,0.33-3.43,0.58-5.92,0.81c-2.19,0.05-4.38,0.32-6.51,0.81
				c-1.5,0.56-2.74,2.21-0.63,4.27c1.9,1.72,4.46,2.53,7.01,2.23c2.39,0,7.34-1.24,8.79-1.25c1.64-0.09,3.21,0.67,4.15,2.01
				c1.47,1.65,3.58,5.69,9,7.42c5.42,1.73,8.14,0,12.71,2.06L808.53,210.61z"/>
			<path class="st25" d="M777.7,203.13c0.19-2.01,0.75-3.98,1.65-5.79c-1.45,1.63-2.26,3.72-2.28,5.9L777.7,203.13z"/>
			<path class="st3" d="M938.53,238.21c0,0,20.33,0.73,33.52,2.77l7.9,1.2c3.91,1.65,11.67,7.77,11.06,32.08
				c-0.38,15.15,2.42,58.46,2.42,58.46c-20.46,16.24-78.54,17.01-93.53,2.44c0,0,0.49-27.37,1.19-38.43c0,0-3.76-8.57-3.4-15.51
				c0.54-10.19,1.35-13.07,10.45-24.65c5.24-6.66,11.3-12.63,18.02-17.79L938.53,238.21z"/>
			<path class="st9" d="M967.76,165.57c11.29,1.02,14.38,19.39,11.9,29.84c-4.76,20.15-18.25,22.77-18.6,31.33l-20.49-11.54
				l-15.94-8.94c-5.44-3.03-11.64-4.48-16.92-7.85c-4.29-2.72-8.46-8.87-5.87-14.03c0.91-1.8,3.94-3.91,4.15-6.02
				c0.18-1.81-1.85-3.45-2.57-4.95c-0.93-2.13-0.98-4.54-0.12-6.69c2.79-7.19,10.85-11.74,17.56-14.71
				c8.14-3.43,17.14-4.27,25.77-2.41C955.53,151.44,964.88,156.34,967.76,165.57z"/>
			<path class="st24" d="M960.71,234.78l0.74-18.61c3.41,1.67,7.51,0.76,9.89-2.19c5.44-5.87,5.85-12.15,2.75-16.12
				c-3.1-3.97-9.89-2.77-13.27,1.93c-0.58,0.84-1.6,1.26-2.6,1.06c-3.3-0.86-4.42-6.74-1.42-12.83c0,0-9.89-5.54-8.24-15.93
				c-8.24,5.39-27.6,8.24-32.4-0.33c-2.62,4.11-6.23,8.92-5.74,30.78c0.46,19.97,6.74,24.91,12.23,27.19
				c3.6,1.23,7.46,1.54,11.21,0.92l-0.26,4.95l0,0c0,2.59-0.66,2.69-2.9,2.85l-0.92,0.08c0,0-7.85,10.68,5.47,11.92
				c24.02,2.23,36.73-9.48,36.73-9.48s-1.5-0.23-5.62-0.76C962.24,239.68,961.15,238.24,960.71,234.78z"/>
			<path class="st25" d="M938.75,212.47l-8.57,2.97c0.7,2.37,3.19,3.71,5.56,3.01c0.04-0.01,0.09-0.03,0.13-0.04
				C938.26,217.52,939.53,214.91,938.75,212.47z"/>
			<path class="st26" d="M938.25,214.5c-2.4-0.04-4.49,1.65-4.95,4.01c0.82,0.25,1.69,0.25,2.51,0c1.67-0.6,2.86-2.09,3.07-3.86
				C938.7,214.5,938.48,214.5,938.25,214.5z"/>
			<path class="st9" d="M913.34,191.62l6.31-2.97c-0.66-1.7-2.57-2.54-4.27-1.88c-0.09,0.04-0.18,0.07-0.27,0.12
				C913.37,187.75,912.59,189.82,913.34,191.62z"/>
			<path class="st9" d="M943.96,191.7l-6.27-3.3c0.77-1.72,2.79-2.49,4.51-1.72c0.05,0.02,0.11,0.05,0.16,0.08
				C944.14,187.7,944.85,189.89,943.96,191.7z"/>
			<polygon class="st25" points="928.94,192.24 928.41,210.59 918.91,206.93 			"/>
			<path class="st9" d="M920.96,195.67c0.18,1.63-0.98,3.1-2.6,3.3c-1.52,0.22-2.93-0.84-3.15-2.37c-0.01-0.04-0.01-0.08-0.01-0.12
				c-0.18-1.62,0.97-3.09,2.59-3.3c1.53-0.22,2.95,0.85,3.17,2.38C920.95,195.6,920.95,195.64,920.96,195.67z"/>
			<path class="st9" d="M942.03,195.69c0.17,1.63-0.98,3.09-2.6,3.3c-1.53,0.22-2.95-0.85-3.17-2.38c-0.01-0.04-0.01-0.07-0.01-0.11
				c-0.17-1.63,0.98-3.09,2.6-3.3c1.53-0.22,2.95,0.85,3.17,2.38C942.02,195.62,942.02,195.65,942.03,195.69z"/>
			<path class="st25" d="M933.93,230.64c11.01-1.38,21.43-5.44,23.77-10.54c0.04,3.28-1.56,6.37-4.25,8.24
				c-6.18,3.84-19.78,6.02-19.78,6.02L933.93,230.64z"/>
			<path class="st24" d="M1025.7,377.51c0.97-9.63,4.2-32.12,5.9-51.11c1.02-11.54-1.42-14.99-4.17-20.89
				c-2.75-5.9-14.44-30.96-19.78-41.47c-5.34-10.5-6.59-15.2-12.3-18.42c-3.18-1.78-6.59-1.98-15.68-3.51
				c-3.68,14.1-2.07,29.05,4.52,42.04l20.25,39.57c0,0,0.79,46.91,0,51.26c-1.29,7.6-5.26,9.99-7.27,15.25
				c-1.35,3.53-2.54,9.36-4.44,12.7c-0.48,0.82-0.92,2.04-0.1,2.54c0.24,0.12,0.51,0.18,0.77,0.15c2.65-0.34,5.03-1.76,6.59-3.92
				c1.25-1.65,2.18-4.35,3.43-6.02c0.45-0.59,0.82,0.31,0.77,2.64c-0.11,1.67-0.37,3.32-0.77,4.95c-0.69,3.45-1.71,6.82-3.05,10.07
				c-0.48,1.2-1.48,3.12-1.91,4.34c-0.64,1.83-2.21,6.27,0.54,7.14c0.81,0.26,1.76-1.24,2.31-1.88c0.43-0.53,0.82-1.08,1.19-1.65
				c0.53,0.37,1.18,0.54,1.83,0.48c1.28-0.41,2.43-1.17,3.3-2.19c0.83,0.3,1.75,0.24,2.52-0.18c1.08-0.46,2.06-1.14,2.87-1.99
				c0.67-0.04,1.33-0.17,1.96-0.4c3.4-1.65,4.48-4.3,5.74-7.25c1.65-3.74,2.31-5.39,3.3-8.11c0.56-2.88,0.85-5.8,0.87-8.74
				C1025.27,387.96,1025.19,382.57,1025.7,377.51z"/>
			<path class="st8" d="M978.84,242.02c2.44,0.28,10.06,1.15,12.81,1.8c2.75,0.64,7.42,2.46,11.06,9.15
				c3.64,6.69,11.01,22.42,15.48,31.99c4.47,9.56,11.44,23.89,12.91,27.14c1.83,4.09,1.43,7.29,0.96,13.98
				c-0.63,8.75-1.65,19.19-1.65,19.19s-3.05-3.05-12.94-3.3c-9.89-0.25-12.89,2.84-12.89,2.84l-0.69-20.64
				c0,0-21.75-38.41-25.29-44.07C972.03,269.6,972.66,248,978.84,242.02z"/>
		</g>
	</g>
</g>
</svg>
