<?xml version="1.0" encoding="utf-8"?>
<!-- Generator: Adobe Illustrator 23.1.0, SVG Export Plug-In . SVG Version: 6.00 Build 0)  -->
<svg version="1.1" id="Layer_1" xmlns="http://www.w3.org/2000/svg" xmlns:xlink="http://www.w3.org/1999/xlink" x="0px" y="0px"
	 viewBox="0 0 1366 768" style="enable-background:new 0 0 1366 768;" xml:space="preserve">
<style type="text/css">
	.st0{fill:#E0E0E0;}
	.st1{fill:#EBEBEB;}
	.st2{fill:#F5F5F5;}
	.st3{fill:#936760;}
	.st4{fill:#6F4C47;}
	.st5{fill:#263238;}
	.st6{fill:#455A64;}
	.st7{fill:#FF725E;}
	.st8{opacity:0.6;}
	.st9{fill:#FFFFFF;}
	.st10{opacity:0.3;}
</style>
<g id="freepik--background-complete--inject-9">
	<path class="st0" d="M1010.19,196.29c-22.39,11.6-39.55,31.55-51.89,53.51s-20.3,46.09-28.17,70.01l-6.93,123.42
		c26-44.28,46.94-96.35,52.59-147.33l-17.33-1.54c11.63-1.73,21.39-10.19,27.59-20.17c6.21-9.98,9.39-21.47,12.51-32.81l-21.04,3.09
		C994.18,233.19,1005.88,215.94,1010.19,196.29z"/>
	<path class="st1" d="M919.39,472.14c0,0-56.54-67.6-55.88-132.18h22.83c0,0-24.8-16.29-22.83-25.43c1.98-9.13,2.6-43.7,2.6-43.7
		l20.8,5.2c0,0-15.6-7.82-17.61-20.21c-2.01-12.39,4.56-69.78,4.56-69.78s25.44,26.74,33.28,54.13s28.37,59.35,22.34,142.8
		C923.44,466.43,919.39,472.14,919.39,472.14z"/>
	<path class="st1" d="M948.05,478.53c0,0,61.24-40.78,74.84-92.83l-18.36-4.99c0,0,23.5-7.68,23.94-15.44
		c0.43-7.76,7.45-35.7,7.45-35.7l-17.92-0.36c0,0,14.3-2.88,18.58-12.41s11.61-57.09,11.61-57.09s-26.33,15.93-38.62,36.19
		c-12.29,20.26-35.81,41.6-49.22,109.97S948.05,478.53,948.05,478.53z"/>
	<path class="st0" d="M889.38,245.03c0.09,0.23,0.15,0.47,0.19,0.71l0.49,2.08c0.42,1.87,1.02,4.58,1.73,8.02
		c0.71,3.45,1.73,7.76,2.67,12.74c0.94,4.97,2.17,10.62,3.31,16.9c2.41,12.55,4.96,27.54,7.59,44.22
		c2.63,16.67,5.08,35.08,7.35,54.42c2.27,19.34,3.93,37.85,5.2,54.68c1.27,16.83,2.18,32.01,2.7,44.77
		c0.33,6.38,0.47,12.13,0.64,17.23s0.26,9.43,0.29,13c0.03,3.57,0.09,6.29,0.1,8.22v2.15c0,0.47,0,0.73,0,0.73
		c-0.03-0.24-0.03-0.49,0-0.73c0-0.54,0-1.23-0.09-2.15c0-1.92-0.16-4.68-0.28-8.22c-0.12-3.54-0.24-7.92-0.47-12.98
		s-0.4-10.85-0.76-17.21c-0.59-12.76-1.59-27.92-2.89-44.74c-1.3-16.81-3.12-35.31-5.34-54.65c-2.22-19.34-4.77-37.72-7.28-54.41
		c-2.51-16.69-5.06-31.67-7.38-44.22c-1.11-6.29-2.24-11.94-3.19-16.93c-0.95-4.99-1.73-9.26-2.51-12.76
		c-0.78-3.5-1.23-6.17-1.61-8.06c-0.17-0.88-0.29-1.58-0.4-2.1C889.41,245.52,889.38,245.27,889.38,245.03z"/>
	<path class="st1" d="M911.53,513.54c0,0-51.72-58.65-67.79-94.12l12.13-5.2c-8.8,1.46-17.8-2.32-24.61-8.06
		c-6.81-5.74-11.82-13.22-16.67-20.69l15.96-2.69c-14.67-4.19-27.16-13.87-34.89-27.02c18.84,3.1,35.9,13.45,49.95,26.38
		c11.37,10.4,21.01,22.64,30.26,35.05c4.52,6.06,8.47,12.53,11.77,19.33C896.28,454.47,911.66,492,911.53,513.54z"/>
	<path class="st0" d="M1023.69,293.84c-0.06,0.21-0.14,0.41-0.24,0.61c-0.21,0.42-0.47,0.99-0.8,1.73c-0.75,1.53-1.82,3.71-3.17,6.5
		s-3.07,6.26-4.99,10.3s-4.14,8.58-6.48,13.68c-4.78,10.16-10.26,22.34-16.17,35.96c-5.91,13.62-12.13,28.72-18.27,44.68
		c-6.14,15.96-11.72,31.32-16.55,45.36s-8.94,26.74-12.24,37.47c-1.73,5.34-3.12,10.23-4.42,14.49s-2.37,7.96-3.24,10.97
		c-0.87,3.02-1.56,5.3-2.03,6.93l-0.55,1.73c-0.06,0.21-0.14,0.41-0.23,0.61c0.02-0.22,0.07-0.43,0.14-0.64
		c0.1-0.45,0.26-1.06,0.47-1.82c0.43-1.65,1.06-3.99,1.87-6.93c0.81-2.95,1.84-6.73,3.09-11.01c1.25-4.28,2.62-9.19,4.28-14.54
		c3.22-10.75,7.31-23.49,12.13-37.56s10.4-29.47,16.5-45.41c6.1-15.95,12.46-31.06,18.36-44.68c5.89-13.62,11.51-25.77,16.36-35.9
		c2.37-5.1,4.65-9.64,6.6-13.64c1.96-4,3.69-7.44,5.2-10.23l3.31-6.43c0.38-0.69,0.68-1.27,0.88-1.73
		C1023.56,294.17,1023.62,294,1023.69,293.84z"/>
	<path class="st0" d="M915.92,538.69c-0.1-0.36-0.18-0.72-0.23-1.09c-0.12-0.8-0.29-1.84-0.49-3.1c-0.19-1.27-0.45-3.02-0.8-4.92
		c-0.35-1.91-0.68-4.11-1.2-6.5c-0.92-4.8-2.25-10.49-3.93-16.73c-1.68-6.24-3.9-13-6.52-19.98c-2.62-6.98-5.53-13.48-8.34-19.31
		c-2.81-5.82-5.62-10.94-8.09-15.15c-1.2-2.13-2.39-3.99-3.47-5.65c-1.07-1.66-1.91-3.09-2.67-4.23l-1.73-2.65
		c-0.22-0.3-0.4-0.63-0.54-0.97c0.26,0.27,0.49,0.56,0.69,0.87l1.82,2.57c0.8,1.11,1.73,2.5,2.79,4.14s2.29,3.47,3.47,5.6
		c2.57,4.19,5.39,9.31,8.3,15.11c2.91,5.81,5.77,12.36,8.44,19.36c2.67,7,4.75,13.87,6.47,20.09c1.72,6.22,2.91,11.98,3.76,16.81
		c0.49,2.41,0.76,4.61,1.06,6.53s0.52,3.59,0.66,4.96c0.14,1.37,0.24,2.32,0.31,3.14C915.82,537.94,915.89,538.31,915.92,538.69z"/>
	<rect x="870.96" y="524.9" class="st0" width="113.22" height="23.09"/>
	<polygon class="st0" points="881.76,547.96 893.99,625.61 962.41,625.61 973.83,547.96 	"/>
	<path class="st1" d="M977.24,547.96c0,0.26-21.42,0.45-47.84,0.45s-47.84-0.19-47.84-0.45s21.42-0.45,47.84-0.45
		S977.24,547.72,977.24,547.96z"/>
	<path class="st2" d="M799.62,103.77c-1.53,5.8-4.09,11.27-7.56,16.15l7.44,6.93l0,0l31.72,28.63l-0.75,0.35
		c0,0,27.45-19.17,35.05-25.43c6.26-5.2,23-15.81,24.37-26.14c0.47-3.76-1.51-7.41-4.92-9.06c-2.32-1.18-5.12-0.96-7.23,0.57
		c0,0,7.38-8.67,1.54-14.35c-5.84-5.69-10.4-1.23-10.4-1.23s7.23-11.01,0.52-17.11c-2.84-2.18-6.73-2.39-9.79-0.52l2.72-2.91
		l14.02-15.1c3.47-3.64,3.47-9.36,0-13c-3.55-3.6-9.35-3.63-12.94-0.08c-0.06,0.06-0.12,0.12-0.18,0.18l-39.45,41.29l2.01-22.53
		c0.5-5.84-7.38-10.07-10.88-7.92c0,0-5.39,2.1-6.93,11.23C806.95,60.63,799.62,103.77,799.62,103.77z"/>
	<path class="st0" d="M799.62,103.77c0,0,0-0.38,0.14-1.13c0.14-0.75,0.28-1.85,0.5-3.28c0.47-2.91,1.14-7.14,2.03-12.6l3.29-19.97
		c0.65-3.89,1.33-8.06,2.06-12.5c0.3-2.33,0.99-4.59,2.03-6.69c1.08-2.3,2.87-4.18,5.11-5.37l0,0c1.4-0.69,3.02-0.81,4.51-0.33
		c1.47,0.46,2.82,1.23,3.97,2.25c1.24,1.04,2.16,2.41,2.65,3.95c0.12,0.4,0.16,0.81,0.24,1.21c0.09,0.4,0,0.85,0,1.25l-0.21,2.37
		c-0.55,6.38-1.13,13.06-1.73,20.04l-0.73-0.33l35.93-37.54c0.81-0.83,1.61-1.73,2.43-2.53c0.79-0.91,1.68-1.73,2.63-2.46
		c2.09-1.42,4.65-1.97,7.14-1.54c5.18,0.89,8.65,5.81,7.76,10.99c-0.02,0.11-0.04,0.23-0.07,0.34c-0.25,1.27-0.74,2.48-1.44,3.57
		c-0.74,1.01-1.56,1.95-2.46,2.81l-5.1,5.46l-10.4,11.08l-0.61-0.78c2.05-1.19,4.46-1.58,6.78-1.09c0.97,0.21,1.9,0.58,2.76,1.09
		c0.45,0.24,0.85,0.57,1.18,0.95c0.36,0.35,0.68,0.74,0.97,1.14c1.15,1.62,1.75,3.56,1.73,5.55c-0.19,3.81-1.39,7.5-3.47,10.69
		l-0.76-0.62c1.93-1.71,4.63-2.24,7.05-1.39c1.16,0.44,2.24,1.08,3.17,1.91c0.47,0.37,0.9,0.79,1.28,1.25l0.61,0.69l0.47,0.8
		c1.07,2.16,1.2,4.67,0.36,6.93c-0.75,2.2-1.88,4.25-3.35,6.05l-0.64-0.71c2.07-1.48,4.74-1.81,7.11-0.87
		c3.47,1.38,5.78,4.71,5.86,8.44c-0.03,1.18-0.21,2.34-0.55,3.47c-0.78,2.16-1.87,4.19-3.26,6.01
		c-5.56,7.12-12.79,12.13-19.29,17.07c-6.5,4.94-12.93,9.79-19.07,14.21l-17.59,12.39l-0.36-0.62l0.75-0.35l-0.09,0.61l-31.61-28.62
		h0.33l-0.17,0.17l-0.17-0.16l-7.4-6.93l-0.12-0.12l0.1-0.14c2.58-3.6,4.67-7.52,6.24-11.66c0.54-1.4,0.88-2.51,1.11-3.26
		c0.23-0.75,0.36-1.11,0.36-1.11c-0.32,1.51-0.75,2.99-1.28,4.44c-1.49,4.21-3.55,8.19-6.12,11.84v-0.26
		c2.15,1.99,4.54,4.19,7.45,6.93h-0.33l0.16-0.17l0.19,0.16l31.79,28.53l0.42,0.36l-0.5,0.23l-0.75,0.35l-0.45-0.75l17.54-12.46
		c6.1-4.44,12.57-9.03,18.98-14.23c6.41-5.2,13.69-9.98,19.07-16.95c1.32-1.74,2.37-3.68,3.1-5.74c0.31-1.04,0.48-2.11,0.52-3.19
		c-0.03-1.08-0.27-2.14-0.69-3.14c-0.88-2.02-2.53-3.62-4.58-4.44c-2.07-0.82-4.42-0.52-6.22,0.78l-2.65,1.96l2.11-2.63
		c1.38-1.7,2.44-3.64,3.14-5.72c0.78-2.03,0.68-4.31-0.29-6.26c-1.15-1.88-2.89-3.32-4.96-4.09c-2.08-0.73-4.38-0.29-6.05,1.14
		l-2.39,2.17l1.65-2.76c1.98-3.04,3.11-6.54,3.29-10.16c0.21-3.67-2.26-6.96-5.84-7.78c-2.08-0.43-4.24-0.07-6.07,1.01l-2.76,1.53
		l2.15-2.29l10.4-11.08c1.72-1.83,3.42-3.65,5.1-5.46c0.84-0.85,1.59-1.77,2.25-2.76c0.63-0.99,1.07-2.08,1.3-3.22
		c0.47-2.29,0.01-4.67-1.3-6.6c-1.31-1.89-3.33-3.18-5.6-3.59c-2.24-0.4-4.55,0.09-6.43,1.37c-0.91,0.7-1.74,1.48-2.5,2.34
		l-2.43,2.53l-35.96,37.46l-0.81,0.8l0.12-1.18c0.62-6.93,1.23-13.66,1.82-20.02c0.29-1.51,0.29-3.06,0-4.58
		c-0.45-1.4-1.28-2.65-2.41-3.61c-1.08-0.96-2.36-1.67-3.74-2.08c-1.3-0.44-2.71-0.36-3.95,0.23l0,0l0,0
		c-2.08,1.13-3.75,2.89-4.77,5.03c-1.02,2.04-1.69,4.23-1.99,6.48c-0.76,4.42-1.49,8.67-2.15,12.5c-1.35,7.76-2.51,14.46-3.47,19.93
		c-0.95,5.48-1.73,9.67-2.22,12.57c-0.26,1.42-0.45,2.5-0.61,3.26C799.74,103.32,799.62,103.77,799.62,103.77z"/>
	<path class="st2" d="M781.74,120.21l0.36-0.38c2.78-2.97,7.44-3.13,10.41-0.35l39.07,36.53c2.96,2.77,3.12,7.42,0.35,10.39
		l-0.36,0.38c-2.78,2.97-7.44,3.13-10.41,0.35l0,0l-39.06-36.51c-2.96-2.77-3.12-7.42-0.35-10.39L781.74,120.21z"/>
	<path class="st0" d="M821.15,167.08c0,0,0.42,0.35,1.3,0.85c2.24,1.27,4.99,1.27,7.23,0c1.06-0.67,1.98-1.55,2.69-2.58
		c1.73-2.58,1.58-5.98-0.38-8.39l-39.86-37.14c-1.86-1.74-4.52-2.32-6.93-1.51c-2.28,0.84-4.04,2.68-4.78,4.99
		c-0.65,2.26-0.11,4.69,1.44,6.47c1.65,1.65,3.47,3.28,5.11,4.84l17.84,16.83l11.96,11.39l3.22,3.14c0.39,0.35,0.75,0.73,1.07,1.14
		c-0.43-0.3-0.83-0.64-1.21-1.01l-3.35-3l-12.13-11.16l-17.97-16.66c-1.73-1.59-3.47-3.12-5.2-4.89c-1.79-1.99-2.45-4.76-1.73-7.35
		c0.84-2.63,2.84-4.72,5.43-5.67c2.73-0.88,5.72-0.22,7.82,1.73c15.6,14.58,29.64,27.73,39.71,37.44c2.1,2.65,2.22,6.36,0.29,9.13
		c-0.77,1.09-1.76,2-2.91,2.67c-0.98,0.54-2.07,0.86-3.19,0.92c-1.54,0.09-3.07-0.3-4.37-1.13
		C821.81,167.85,821.45,167.49,821.15,167.08z"/>
	<path class="st0" d="M844.96,77.49c2.15-3.01,4.56-5.82,7.19-8.41c2.4-2.81,5.04-5.39,7.9-7.73c-2.14,3-4.54,5.82-7.18,8.41
		C850.48,72.57,847.83,75.16,844.96,77.49z"/>
	<path class="st0" d="M859.9,89.44c1.11-1.93,2.5-3.68,4.13-5.2c1.39-1.71,3.02-3.22,4.84-4.47c-1.1,1.93-2.49,3.69-4.13,5.2
		C863.36,86.69,861.73,88.19,859.9,89.44z"/>
	<path class="st0" d="M868.79,105.33c1.11-1.93,2.5-3.68,4.13-5.2c1.38-1.72,3.02-3.23,4.85-4.45c-1.11,1.93-2.5,3.68-4.13,5.2
		C872.26,102.59,870.62,104.1,868.79,105.33z"/>
	<path class="st0" d="M867.2,21.82c-1.76-3.4-3.22-6.95-4.37-10.61c-1.47-3.54-2.63-7.2-3.47-10.94c1.76,3.4,3.22,6.95,4.37,10.61
		C865.2,14.42,866.36,18.08,867.2,21.82z"/>
	<path class="st0" d="M877.51,24.33c2.34-4.32,4.96-8.47,7.85-12.44c2.62-4.15,5.52-8.12,8.67-11.89
		c-2.35,4.32-4.97,8.47-7.87,12.44C883.55,16.6,880.66,20.57,877.51,24.33z"/>
	<path class="st0" d="M885.02,33.16c3.77-1.29,7.65-2.27,11.58-2.95c3.86-0.98,7.8-1.65,11.77-1.99c-3.76,1.31-7.63,2.31-11.56,2.96
		C892.94,32.16,888.99,32.83,885.02,33.16z"/>
	<polygon class="st2" points="388.1,400.57 332.44,625.6 347.09,625.6 404.11,400.57 	"/>
	<polygon class="st2" points="492.92,400.57 544.99,625.6 530.34,625.6 476.89,400.57 	"/>
	<polygon class="st2" points="449.42,622.29 432.36,622.29 429.81,364.02 446.87,364.02 	"/>
	<rect x="318.04" y="212.34" class="st1" width="240.63" height="154.15"/>
	<rect x="378.03" y="398.21" class="st2" width="120.77" height="14.89"/>
	<path class="st2" d="M334.02,346.39c0.15,0.93,0.21,1.88,0.17,2.83h-0.33c-0.24-7.54-0.43-32.52-0.43-62.12
		c0-17.85,0.14-34.02,0.17-45.91c0-5.75,0.14-10.4,0.19-13.87c0-1.54,0-2.79,0.1-3.8c0-0.44,0.04-0.88,0.12-1.32
		c0.1,0.43,0.14,0.87,0.12,1.32c0,1.01,0,2.25,0.12,3.8c0,3.47,0.1,8.16,0.19,13.87c0,11.89,0.1,28.06,0.17,45.91
		c0,29.6-0.19,54.58-0.43,62.12h-0.33C333.84,348.27,333.89,347.33,334.02,346.39z"/>
	<path class="st2" d="M351.94,346.39c0.12,0.94,0.18,1.88,0.16,2.83h-0.28c-0.24-7.54-0.43-32.52-0.43-62.12
		c0-17.85,0.14-34.02,0.17-45.91c0.09-5.75,0.16-10.4,0.19-13.87c0-1.54,0-2.79,0.12-3.8c-0.02-0.44,0.02-0.89,0.12-1.32
		c0.08,0.43,0.11,0.88,0.1,1.32c0,1.01,0,2.25,0.12,3.8c0,3.47,0.1,8.16,0.19,13.87c0,11.89,0.1,28.06,0.17,45.91
		c0,29.6-0.19,54.58-0.43,62.12h-0.33C351.77,348.27,351.81,347.32,351.94,346.39z"/>
	<path class="st2" d="M369.84,346.39c0.12,0.94,0.18,1.88,0.16,2.83h-0.33c-0.24-7.54-0.42-32.52-0.42-62.12
		c0-17.85,0.12-34.02,0.17-45.91c0-5.75,0.14-10.4,0.19-13.87c0-1.54,0-2.79,0.1-3.8c-0.01-0.44,0.03-0.88,0.12-1.32
		c0.09,0.43,0.13,0.87,0.12,1.32c0,1.01,0,2.25,0.1,3.8c0,3.47,0.12,8.16,0.19,13.87c0,11.89,0.1,28.06,0.17,45.91
		c0,29.6-0.17,54.58-0.43,62.12h-0.33C369.65,348.27,369.71,347.32,369.84,346.39z"/>
	<path class="st2" d="M387.75,346.39c0.14,0.94,0.19,1.88,0.17,2.83h-0.33c-0.26-7.54-0.43-32.52-0.43-62.12
		c0-17.85,0.12-34.02,0.17-45.91c0-5.75,0.14-10.4,0.19-13.87c0-1.54,0.09-2.79,0.1-3.8c-0.01-0.44,0.03-0.88,0.12-1.32
		c0.09,0.43,0.13,0.87,0.12,1.32c0,1.01,0,2.25,0.1,3.8c0,3.47,0.12,8.16,0.19,13.87c0,11.89,0.1,28.06,0.17,45.91
		c0,29.6-0.17,54.58-0.42,62.12h-0.33C387.57,348.27,387.63,347.33,387.75,346.39z"/>
	<path class="st2" d="M405.65,346.39c0.15,0.93,0.21,1.88,0.17,2.83h-0.28c-0.24-7.54-0.43-32.52-0.43-62.12
		c0-17.85,0.14-34.02,0.17-45.91c0.09-5.75,0.14-10.4,0.19-13.87c0-1.54,0-2.79,0.1-3.8c0-0.44,0.04-0.88,0.12-1.32
		c0.1,0.43,0.14,0.87,0.12,1.32c0,1.01,0,2.25,0.12,3.8c0,3.47,0.1,8.16,0.19,13.87c0,11.89,0.1,28.06,0.17,45.91
		c0,29.6-0.19,54.58-0.43,62.12h-0.33C405.51,348.27,405.55,347.33,405.65,346.39z"/>
	<path class="st2" d="M423.58,346.39c0.12,0.94,0.18,1.88,0.16,2.83h-0.33c-0.24-7.54-0.43-32.52-0.43-62.12
		c0-17.85,0.14-34.02,0.17-45.91c0-5.75,0.16-10.4,0.19-13.87c0-1.54,0-2.79,0.12-3.8c-0.02-0.44,0.02-0.89,0.12-1.32
		c0.08,0.43,0.11,0.88,0.1,1.32c0,1.01,0,2.25,0.12,3.8c0,3.47,0.1,8.16,0.19,13.87c0,11.89,0.1,28.06,0.17,45.91
		c0,29.6-0.19,54.58-0.43,62.12h-0.33C423.37,348.27,423.43,347.32,423.58,346.39z"/>
	<path class="st2" d="M441.48,346.39c0.12,0.94,0.18,1.88,0.16,2.83h-0.33c-0.24-7.54-0.42-32.52-0.42-62.12
		c0-17.85,0.12-34.02,0.17-45.91c0-5.75,0.14-10.4,0.19-13.87c0-1.54,0-2.79,0.1-3.8c-0.01-0.44,0.03-0.88,0.12-1.32
		c0.09,0.43,0.13,0.87,0.12,1.32c0,1.01,0,2.25,0.1,3.8c0,3.47,0.12,8.16,0.19,13.87c0,11.89,0.1,28.06,0.17,45.91
		c0,29.6-0.17,54.58-0.43,62.12h-0.33C441.28,348.27,441.34,347.32,441.48,346.39z"/>
	<path class="st2" d="M459.38,346.39c0.14,0.94,0.19,1.88,0.17,2.83h-0.28c-0.26-7.54-0.43-32.52-0.43-62.12
		c0-17.85,0.12-34.02,0.17-45.91c0-5.75,0.14-10.4,0.19-13.87c0-1.54,0-2.79,0.1-3.8c-0.01-0.44,0.03-0.88,0.12-1.32
		c0.09,0.43,0.13,0.87,0.12,1.32c0,1.01,0,2.25,0.1,3.8c0,3.47,0.12,8.16,0.19,13.87c0,11.89,0.1,28.06,0.17,45.91
		c0,29.6-0.17,54.58-0.42,62.12h-0.33C459.24,348.27,459.28,347.33,459.38,346.39z"/>
	<path class="st2" d="M477.29,346.39c0.15,0.93,0.21,1.88,0.17,2.83h-0.33c-0.24-7.54-0.43-32.52-0.43-62.12
		c0-17.85,0.14-34.02,0.17-45.91c0-5.75,0.14-10.4,0.19-13.87c0-1.54,0.09-2.79,0.1-3.8c0-0.44,0.04-0.88,0.12-1.32
		c0.1,0.43,0.14,0.87,0.12,1.32c0,1.01,0,2.25,0.12,3.8c0,3.47,0.1,8.16,0.19,13.87c0,11.89,0.1,28.06,0.17,45.91
		c0,29.6-0.19,54.58-0.43,62.12h-0.33C477.11,348.27,477.16,347.33,477.29,346.39z"/>
	<path class="st2" d="M495.21,346.39c0.12,0.94,0.18,1.88,0.16,2.83h-0.33c-0.24-7.54-0.43-32.52-0.43-62.12
		c0-17.85,0.14-34.02,0.17-45.91c0.09-5.75,0.16-10.4,0.19-13.87c0-1.54,0-2.79,0.12-3.8c-0.02-0.44,0.02-0.89,0.12-1.32
		c0.08,0.43,0.12,0.88,0.12,1.32c0,1.01,0,2.25,0.1,3.8c0,3.47,0.1,8.16,0.19,13.87c0,11.89,0.1,28.06,0.17,45.91
		c0,29.6-0.19,54.58-0.43,62.12h-0.33C495,348.27,495.06,347.32,495.21,346.39z"/>
	<path class="st2" d="M513.11,346.39c0.12,0.94,0.18,1.88,0.16,2.83h-0.26c-0.24-7.54-0.42-32.52-0.42-62.12
		c0-17.85,0.12-34.02,0.17-45.91c0-5.75,0.14-10.4,0.19-13.87c0-1.54,0-2.79,0.1-3.8c-0.01-0.44,0.03-0.88,0.12-1.32
		c0.09,0.43,0.13,0.87,0.12,1.32c0,1.01,0,2.25,0.1,3.8c0,3.47,0.12,8.16,0.19,13.87c0,11.89,0.1,28.06,0.17,45.91
		c0,29.6-0.17,54.58-0.43,62.12h-0.33C512.97,348.27,513,347.33,513.11,346.39z"/>
	<path class="st2" d="M531.02,346.39c0.14,0.94,0.2,1.88,0.17,2.83h-0.33c-0.26-7.54-0.43-32.52-0.43-62.12
		c0-17.85,0.12-34.02,0.17-45.91c0-5.75,0.14-10.4,0.19-13.87c0-1.54,0.09-2.79,0.1-3.8c-0.01-0.44,0.03-0.88,0.12-1.32
		c0.09,0.43,0.13,0.87,0.12,1.32c0,1.01,0,2.25,0.1,3.8c0,3.47,0.12,8.16,0.19,13.87c0,11.89,0.1,28.06,0.17,45.91
		c0,29.6-0.17,54.58-0.42,62.12h-0.33C530.84,348.27,530.9,347.33,531.02,346.39z"/>
	<path class="st2" d="M548.92,346.39c0.15,0.93,0.21,1.88,0.17,2.83h-0.33c-0.24-7.54-0.43-32.52-0.43-62.12
		c0-17.85,0.14-34.02,0.17-45.91c0.09-5.75,0.14-10.4,0.19-13.87c0-1.54,0-2.79,0.1-3.8c0-0.44,0.04-0.88,0.12-1.32
		c0.1,0.43,0.14,0.87,0.12,1.32c0,1.01,0,2.25,0.12,3.8c0,3.47,0.1,8.16,0.19,13.87c0,11.89,0.1,28.06,0.17,45.91
		c0,29.6-0.19,54.58-0.43,62.12h-0.33C548.75,348.27,548.8,347.33,548.92,346.39z"/>
</g>
<g id="freepik--Character--inject-9">
	<path class="st3" d="M730.86,102.23l-13.5,121.66c-2.31,20.69-9.91,50.61-42.45,45.5l0,0c-27.91-6.59-32.1-34.28-29.93-53.59
		c1.02-9.15,1.85-16.8,1.91-17.73c0,0-30.64-6.36-29.47-37.26c0.57-14.92,4.23-45.6,7.87-73.3c3.92-29.75,30.03-51.51,60-49.99
		l2.98,0.14C720.31,41.1,735.23,70.3,730.86,102.23z"/>
	<path class="st4" d="M646.89,198.06c14.27,0.68,28.42-2.75,40.8-9.88c0,0-10.94,22.06-41.6,17.73L646.89,198.06z"/>
	<path class="st5" d="M675.94,106.49c0.54,0.69,4.42-1.73,9.55-1.21c5.13,0.52,8.67,3.47,9.27,2.89c0.31-0.28-0.19-1.47-1.73-2.86
		c-2.06-1.78-4.63-2.87-7.35-3.1c-2.68-0.27-5.37,0.34-7.68,1.73C676.39,105.07,675.74,106.18,675.94,106.49z"/>
	<path class="st5" d="M674.84,117.1c-0.13,2.26,1.56,4.22,3.81,4.42c2.19,0.28,4.2-1.27,4.48-3.46c0-0.03,0.01-0.06,0.01-0.09
		c0.13-2.26-1.56-4.21-3.81-4.4c-2.19-0.28-4.2,1.27-4.48,3.46C674.85,117.05,674.85,117.07,674.84,117.1z"/>
	<path class="st5" d="M658.76,140.55c0-0.28-2.88-0.94-7.63-1.73c-1.21-0.19-2.34-0.49-2.51-1.32c-0.02-1.23,0.32-2.44,0.99-3.47
		l4.06-9.05c5.63-12.9,9.78-23.52,9.26-23.73s-5.51,10.04-11.14,22.93c-1.38,3.17-2.67,6.2-3.9,9.1c-0.84,1.42-1.15,3.1-0.87,4.73
		c0.31,0.89,1.01,1.58,1.91,1.87c0.66,0.22,1.35,0.35,2.05,0.38C655.74,140.64,658.72,140.81,658.76,140.55z"/>
	<path class="st5" d="M680.56,87.49c0.36,1.2,4.56,0.85,9.45,1.73s8.79,2.44,9.48,1.42c0.33-0.5-0.31-1.73-1.85-2.86
		c-2.04-1.52-4.42-2.52-6.93-2.91c-2.5-0.45-5.06-0.26-7.47,0.54C681.38,86.06,680.42,86.92,680.56,87.49z"/>
	<path class="st5" d="M632.4,87.49c0.43,0.99,4.56,0.45,9.41,0.9c4.85,0.45,8.82,1.58,9.45,0.66c0.28-0.43-0.42-1.35-2.01-2.31
		c-2.14-1.17-4.5-1.88-6.93-2.06c-2.48-0.23-4.99,0.06-7.35,0.87C633.11,86.16,632.22,87.01,632.4,87.49z"/>
	<path class="st3" d="M727.19,124.97c0.54-0.21,21.54-5.2,19.81,15.88c-1.73,21.08-22.53,14.98-22.53,14.37
		S727.19,124.97,727.19,124.97z"/>
	<path class="st4" d="M731.55,147.76c0.1,0,0.35,0.29,0.95,0.62c0.84,0.45,1.82,0.55,2.74,0.28c2.29-0.62,4.45-4,4.87-7.8
		c0.2-1.8,0-3.63-0.59-5.34c-0.29-1.37-1.24-2.51-2.53-3.05c-0.85-0.3-1.8,0.05-2.25,0.83c-0.33,0.55-0.23,0.99-0.35,1.02
		c-0.12,0.03-0.42-0.4-0.17-1.25c0.15-0.51,0.49-0.96,0.94-1.25c0.61-0.39,1.35-0.53,2.06-0.38c1.73,0.5,3.08,1.85,3.57,3.59
		c0.76,1.9,1.03,3.95,0.8,5.98c-0.49,4.25-2.98,8.04-6.1,8.67c-1.18,0.24-2.4-0.07-3.33-0.83
		C731.55,148.28,731.49,147.79,731.55,147.76z"/>
	<path class="st5" d="M661.91,155.68c-0.16-0.55,4.11-1.28,7.47-4.78c1.41-1.54,2.61-3.26,3.57-5.11c0.8-1.46,1.39-2.36,1.61-2.25
		c0.23,0.1,0,1.13-0.52,2.74c-0.72,2.16-1.9,4.14-3.47,5.79c-1.6,1.67-3.62,2.87-5.86,3.47
		C663.04,155.96,661.95,155.87,661.91,155.68z"/>
	<path class="st5" d="M630.87,99.85c0.54,0.69,4.42-1.73,9.55-1.21c5.13,0.52,8.67,3.47,9.27,2.88c0.31-0.26-0.19-1.46-1.73-2.84
		c-2.06-1.79-4.63-2.87-7.35-3.1c-2.68-0.27-5.37,0.34-7.68,1.73C631.27,98.43,630.63,99.54,630.87,99.85z"/>
	<path class="st5" d="M630.52,111.62c-0.13,2.26,1.56,4.22,3.81,4.42c2.19,0.29,4.2-1.26,4.49-3.45c0,0,0-0.01,0-0.01
		c0.15-2.26-1.54-4.22-3.8-4.4c-2.18-0.3-4.2,1.22-4.5,3.4C630.53,111.59,630.53,111.6,630.52,111.62z"/>
	<path class="st5" d="M743.84,106.11c-1.54,5.88-5.2,19.27-10.4,18.08c-10.4-2.36-9.79,14.32-14.82,12.36
		c-5.03-1.96-6.2-15.22-5.63-20.5c1.73-16.52,8.08-28.37,1.09-47.23c-4.41-7.61-12.47-12.36-21.27-12.53
		c-8.86,0.01-17.08,4.6-21.73,12.13c-1.07-5.77-4.09-14.44-9.31-17.11c-5.34-2.78-11.82-2.1-16.47,1.73
		c-4.48,4.11-5.22,10.91-1.73,15.89c-2.44,0.78-5.1-0.11-6.57-2.2c-0.14,2.74,0.85,5.42,2.76,7.4c-2.14-0.48-4.03-1.71-5.34-3.47
		l1.73,7.14c-8.67,0.43-17.49-7.82-20.09-15.29c-3.93-11.34-1.37-22.91,4.77-33.21s17.33-17.71,29.47-17.89
		c12.13-0.17,22.17,5.29,27.04,16.24c7.66-5.69,23.38-7.96,32.13-4.21c8.9,3.92,15.13,12.17,16.47,21.8
		c5.37-2.41,11.92-0.78,16.59,2.83l1.13,0.94c6.34,5.77,9.27,14.39,7.76,22.83c-0.55,3.33-1.63,6.79-2.24,9.48
		C747.14,89.28,743.84,106.11,743.84,106.11z"/>
	<path class="st6" d="M635.52,66.28c0,0-0.28-0.16-0.71-0.54c-0.64-0.55-1.22-1.17-1.73-1.84c-1.98-2.5-3.24-5.5-3.62-8.67
		c-0.71-4.73,0.66-9.53,3.76-13.17c3.81-4.5,9.59-6.84,15.46-6.24c2.97,0.37,5.82,1.42,8.34,3.05c2.34,1.47,4.44,3.3,6.22,5.43
		c3.02,3.53,5.25,7.67,6.53,12.13c0.86,3.01,1.28,6.14,1.23,9.27c0,1.11-0.1,1.96-0.19,2.53c-0.02,0.29-0.07,0.59-0.16,0.87
		c0.19-4.22-0.31-8.44-1.49-12.5c-1.34-4.37-3.57-8.41-6.57-11.86c-3.53-4.33-8.51-7.22-14.02-8.13
		c-5.57-0.54-11.06,1.65-14.72,5.89c-2.98,3.46-4.35,8.02-3.76,12.55c0.31,3.09,1.42,6.04,3.22,8.56
		C634.61,65.45,635.57,66.21,635.52,66.28z"/>
	<path class="st6" d="M631.72,75.5c-0.25-0.3-0.47-0.62-0.64-0.97c-0.4-0.66-0.97-1.73-1.73-2.91c-2.05-3.58-3.75-7.35-5.06-11.27
		c-0.88-2.73-1.4-5.57-1.54-8.44c-0.17-3.32,0.35-6.64,1.54-9.74c1.38-3.44,3.75-6.39,6.81-8.49c3.27-2.24,7.06-3.59,11.01-3.92
		c3.93-0.3,7.87,0.24,11.58,1.58c3.44,1.24,6.67,2.99,9.58,5.2c5.08,3.59,8.84,8.77,10.68,14.72c1.14,4.03,1.03,8.32-0.33,12.29
		c-0.38,1.06-0.87,2.07-1.46,3.03c-0.2,0.34-0.44,0.66-0.69,0.95c0.69-1.32,1.27-2.69,1.73-4.11c1.19-3.91,1.19-8.08,0-11.99
		c-1.88-5.77-5.58-10.76-10.56-14.23c-5.82-4.5-13.03-6.8-20.38-6.5c-3.79,0.33-7.44,1.62-10.59,3.76c-2.92,2-5.19,4.8-6.53,8.08
		c-1.17,2.99-1.71,6.19-1.58,9.39c0.11,2.81,0.58,5.6,1.4,8.28c1.26,3.89,2.85,7.67,4.77,11.28l1.51,3
		C631.43,74.81,631.59,75.15,631.72,75.5z"/>
	<path class="st6" d="M736.34,93.09c-0.1-0.14,1.85-1.58,4.26-4.59c6.44-7.91,8.4-18.56,5.2-28.25c-1.2-3.67-2.51-5.72-2.36-5.79
		c0.16-0.07,0.42,0.43,0.99,1.39c0.79,1.33,1.45,2.74,1.98,4.19c3.63,9.87,1.6,20.94-5.3,28.88c-1.01,1.17-2.12,2.25-3.33,3.22
		C737.35,92.52,736.86,92.85,736.34,93.09z"/>
	<path class="st6" d="M717.74,92.92c0-0.09,1.01-0.49,2.6-1.63c2.22-1.6,3.95-3.78,5.01-6.31l0.8-1.98l-0.14,2.13
		c-0.19,2.88-0.42,6.19-0.64,9.79l-0.68-0.38c5.8-4.17,9.7-10.49,10.83-17.54c0.47-3.19,0.38-6.44-0.28-9.6
		c-0.69-2.9-1.73-5.71-3.09-8.37c0.15,0.15,0.29,0.32,0.4,0.5c0.34,0.49,0.65,1,0.94,1.53c1.06,1.95,1.85,4.04,2.36,6.21
		c2.49,10.63-1.73,21.71-10.68,27.97l-0.75,0.52v-0.9l0.81-9.78l0.68,0.16c-1.15,2.61-3.03,4.83-5.43,6.38
		c-0.65,0.42-1.33,0.77-2.05,1.06C718.23,92.79,717.99,92.87,717.74,92.92z"/>
	<path class="st6" d="M711.09,50.06c-1.23-2.22-2.89-4.18-4.87-5.77c-2.18-1.64-4.73-2.73-7.42-3.19c-3.31-0.54-6.7-0.15-9.81,1.11
		c-3.12,1.25-5.89,3.22-8.09,5.75c-1.79,2.06-3.23,4.4-4.26,6.93c-0.88,2.4-1.57,4.86-2.06,7.37c-0.07-0.69-0.03-1.4,0.1-2.08
		c0.24-1.88,0.7-3.73,1.35-5.51c0.99-2.66,2.42-5.14,4.25-7.31c2.26-2.67,5.14-4.74,8.39-6.05c3.26-1.32,6.83-1.7,10.3-1.09
		c2.81,0.54,5.44,1.77,7.66,3.57c1.49,1.21,2.74,2.68,3.67,4.35c0.25,0.45,0.47,0.92,0.66,1.4
		C711.02,49.7,711.07,49.88,711.09,50.06z"/>
	<path class="st6" d="M705.96,34.6c-1.84-0.88-3.77-1.56-5.75-2.05c-4.75-0.89-9.66-0.08-13.87,2.31
		c-4.17,2.52-7.53,6.19-9.69,10.56c-1.73,3.33-2.2,5.63-2.36,5.58c-0.01-0.55,0.08-1.11,0.26-1.63c0.38-1.46,0.89-2.88,1.53-4.25
		c2.07-4.56,5.48-8.38,9.78-10.95c4.41-2.53,9.61-3.3,14.56-2.15c1.48,0.37,2.9,0.95,4.21,1.73
		C705.1,33.96,705.55,34.25,705.96,34.6z"/>
	<path class="st5" d="M581.06,514.67l193.67,2.63c0,0,54.16-22.67,69.05-23.28c14.89-0.61,44.42,1.28,58.08,23.28
		c14.13,22.74,16.1,62.85-27.42,91.98c-42.4,28.39-236.22,54.61-262.79,52.21l-48.95-65.76c0,0-0.5-53.89,0-56.45
		c0.5-2.57,8.67-25.65,8.67-25.65L581.06,514.67z"/>
	<path class="st7" d="M697.01,605.63l100.37,37.28L751.64,768c-11.68-5.1-12.01-78.59-12.01-78.59l-65.29-21.25L697.01,605.63z"/>
	<g class="st8">
		<path class="st9" d="M748.35,648.75c1.67-2.21,4.74-2.82,7.12-1.4c2.29,1.58,2.93,4.68,1.46,7.04c-1.51,2.22-5.49,3.15-7.56,1.46
			s-2.69-5.72-0.69-7.5"/>
	</g>
	<path class="st5" d="M797.38,642.91l-10.14-3.85L747.1,760.74c0,0,0.38,6.46,4.54,7.26L797.38,642.91z"/>
	<path class="st5" d="M738.33,691.2c0.62,0.21,2.01-2.74,5.08-5.03c3.07-2.29,6.22-2.95,6.19-3.61c-0.03-0.66-3.9-1.02-7.56,1.73
		S737.64,691.06,738.33,691.2z"/>
	<path class="st5" d="M738.89,706.31c0.54,0.35,2.53-1.91,5.88-3.03c3.35-1.13,6.29-0.75,6.5-1.35c0.21-0.61-3.12-2.27-7.24-0.8
		S738.33,706.09,738.89,706.31z"/>
	<path class="st5" d="M751.85,719.5c0.35-0.5-2.41-2.48-6.33-2.13c-3.92,0.35-6.29,2.72-5.88,3.17c0.42,0.45,2.84-0.68,6.07-0.92
		S751.57,720.09,751.85,719.5z"/>
	<path class="st5" d="M723.91,684.72c0.64,0,0.83-3.17,2.32-6.53c1.49-3.36,3.57-5.67,3.17-6.17c-0.4-0.5-3.47,1.28-5.2,5.2
		C722.47,681.13,723.32,684.84,723.91,684.72z"/>
	<path class="st5" d="M710.15,676.31c0.26,0.09,1.51-2.18,2.27-6.27c0.41-2.41,0.54-4.86,0.38-7.3c-0.11-1.44-0.31-2.88-0.59-4.3
		c-0.14-0.84-0.41-1.66-0.8-2.43c-0.58-1.15-1.88-1.76-3.14-1.47c-1.09,0.3-1.97,1.11-2.37,2.17c-0.29,0.79-0.47,1.62-0.54,2.46
		c-0.17,1.46-0.2,2.92-0.09,4.39c0.19,2.47,0.77,4.89,1.73,7.18c1.63,3.88,3.47,5.7,3.74,5.55c0.28-0.16-1.11-2.32-2.24-6.08
		c-0.66-2.19-1.03-4.46-1.11-6.74c-0.04-1.34,0.03-2.68,0.21-4c0.14-1.46,0.54-2.58,1.25-2.7c0.28,0,0.36,0,0.66,0.4
		c0.26,0.55,0.45,1.13,0.57,1.73c0.3,1.31,0.53,2.65,0.68,3.99c0.25,2.3,0.28,4.62,0.1,6.93
		C710.6,673.73,709.82,676.19,710.15,676.31z"/>
	<path class="st5" d="M711.33,675.83c0.17-0.17-1.58-2.18-5.46-3.87c-2.27-0.98-4.69-1.57-7.16-1.73c-1.47-0.07-2.95-0.01-4.4,0.21
		c-1.93,0.07-3.68,1.15-4.61,2.84c-0.4,1.14-0.09,2.41,0.78,3.24c0.61,0.59,1.31,1.09,2.06,1.49c1.32,0.73,2.75,1.25,4.23,1.54
		c2.47,0.52,5.02,0.42,7.44-0.31c4.14-1.25,5.81-3.47,5.62-3.66c-0.19-0.19-2.18,1.37-5.98,2.11c-2.19,0.42-4.45,0.36-6.62-0.17
		c-1.25-0.32-2.45-0.8-3.57-1.44c-1.27-0.69-2.15-1.58-1.84-2.03c0.31-0.45,1.61-1.32,2.86-1.44c1.31-0.22,2.63-0.33,3.95-0.31
		c2.27,0.05,4.53,0.41,6.71,1.07C709.06,674.65,711.1,676.14,711.33,675.83z"/>
	<path class="st7" d="M614.23,590.17l-97.06,45.06l55.46,121.12c11.23-6,5.79-79.3,5.79-79.3l63.42-26.31L614.23,590.17z"/>
	<g class="st8">
		<path class="st9" d="M566.45,637.19c-1.84-2.08-4.94-2.44-7.21-0.85c-2.16,1.76-2.55,4.91-0.88,7.14c1.73,2.08,5.7,2.7,7.63,0.85
			c1.92-1.85,2.24-5.91,0.1-7.52"/>
	</g>
	<path class="st5" d="M517.12,635.22l9.79-4.54l49.59,118.07c0,0,0.12,6.47-3.95,7.59L517.12,635.22z"/>
	<path class="st5" d="M579.86,678.72c-0.61,0.26-2.24-2.58-5.46-4.63c-3.22-2.05-6.43-2.44-6.45-3.1c-0.02-0.66,3.81-1.33,7.68,1.21
		C579.5,674.75,580.45,678.6,579.86,678.72z"/>
	<path class="st5" d="M580.42,693.83c-0.52,0.4-2.69-1.73-6.12-2.57s-6.33-0.24-6.57-0.83s2.93-2.51,7.16-1.37
		C579.12,690.21,580.97,693.56,580.42,693.83z"/>
	<path class="st5" d="M568.47,708.01c-0.36-0.49,2.2-2.67,6.14-2.63c3.93,0.03,6.5,2.22,6.12,2.7c-0.38,0.49-2.89-0.45-6.12-0.43
		C571.39,707.67,568.84,708.57,568.47,708.01z"/>
	<path class="st5" d="M593.64,671.13c-0.66,0-1.07-3.1-2.84-6.33c-1.77-3.22-4-5.37-3.62-5.91c0.38-0.54,3.61,1.01,5.63,4.85
		C594.84,667.59,594.23,671.2,593.64,671.13z"/>
	<path class="st5" d="M606.69,661.6c-0.24,0.12-1.73-2.06-2.74-6.08c-0.62-2.37-0.95-4.8-0.97-7.24c0-1.44,0.08-2.88,0.26-4.32
		c0.06-0.86,0.26-1.7,0.59-2.5c0.48-1.21,1.73-1.92,3.02-1.73c1.12,0.2,2.07,0.93,2.55,1.96c0.35,0.82,0.58,1.69,0.68,2.58
		c0.28,1.44,0.42,2.9,0.43,4.37c0.01,2.46-0.37,4.91-1.11,7.26c-1.32,4-3.09,5.98-3.29,5.82c-0.21-0.16,0.9-2.39,1.73-6.24
		c0.49-2.23,0.68-4.51,0.57-6.79c-0.06-1.34-0.23-2.67-0.52-3.99c-0.24-1.42-0.73-2.53-1.46-2.6c-0.28,0-0.36,0-0.62,0.45
		c-0.21,0.56-0.35,1.14-0.42,1.73c-0.2,1.34-0.32,2.69-0.36,4.04c-0.08,2.32,0.07,4.64,0.43,6.93
		C606.14,659.17,607.02,661.6,606.69,661.6z"/>
	<path class="st5" d="M605.5,661.28c-0.19-0.17,1.39-2.32,5.11-4.28c3.52-1.82,7.47-2.63,11.42-2.34c1.93-0.08,3.77,0.85,4.84,2.46
		c0.48,1.11,0.27,2.4-0.54,3.31c-0.57,0.64-1.22,1.19-1.94,1.65c-1.26,0.83-2.64,1.46-4.09,1.87c-2.42,0.7-4.97,0.8-7.44,0.28
		c-4.23-0.94-6.07-3.07-5.89-3.22c0.17-0.16,2.29,1.21,6.14,1.73c2.22,0.25,4.47,0.01,6.59-0.69c1.23-0.41,2.4-0.99,3.47-1.73
		c1.2-0.78,2.03-1.73,1.73-2.15c-0.75-0.82-1.83-1.27-2.95-1.21c-1.33-0.13-2.66-0.13-3.99,0c-2.26,0.22-4.48,0.75-6.59,1.59
		C607.65,659.86,605.72,661.6,605.5,661.28z"/>
	<path class="st5" d="M571.42,513.65c0,0-83.65-31.2-114.39-27.21c-17.21,2.27-44.13,15.41-46.19,37.47
		c-2.06,22.06,3.35,51.58,33.1,65.95c29.76,14.37,148.56,67.68,176.79,75.88c28.23,8.2,98.53,27.44,98.53,27.44l26.73-76.26
		c0,0-145.85-50.51-153.55-56.16s-27.19-13.33-27.19-13.33L571.42,513.65z"/>
	<path class="st6" d="M862.21,523.99l-0.59-0.14l-1.73-0.52c-1.47-0.43-3.66-1.07-6.5-1.73c-8.02-2.04-16.33-2.65-24.56-1.82
		c-5.68,0.49-11.29,1.55-16.74,3.19c-3.03,0.92-5.98,2.08-8.82,3.47l-9.1,4.45c-12.51,5.98-26.5,12.13-41.37,17.97
		c-29.81,11.94-58.43,17.61-78.83,22.25c-10.23,2.25-18.51,4.13-24.27,5.48l-6.57,1.56l-1.73,0.38l-0.59,0.1
		c0.17-0.09,0.36-0.16,0.55-0.19l1.73-0.47c1.49-0.4,3.67-1.02,6.53-1.73c5.67-1.46,13.87-3.47,24.14-5.75
		c20.38-4.8,48.91-10.56,78.62-22.53c14.87-5.88,28.84-11.96,41.36-17.9l9.12-4.4c2.89-1.4,5.89-2.55,8.96-3.47
		c5.51-1.63,11.17-2.67,16.9-3.1c8.33-0.8,16.73-0.08,24.8,2.11c2.84,0.73,5.01,1.42,6.48,1.92l1.65,0.61L862.21,523.99z"/>
	<path class="st6" d="M857.8,512.97c0,0.16-2.55-0.31-6.64-0.75c-10.68-1.18-21.48-0.62-31.98,1.65c-4.04,0.85-6.5,1.56-6.53,1.42
		c0.55-0.3,1.13-0.52,1.73-0.68c1.09-0.38,2.7-0.87,4.71-1.37c5.25-1.32,10.62-2.12,16.03-2.39c5.4-0.27,10.82-0.03,16.17,0.73
		c2.06,0.31,3.71,0.62,4.84,0.88C856.71,512.58,857.27,512.74,857.8,512.97z"/>
	<path class="st6" d="M536.24,535.76c-0.09,0.12-2.41-1.73-6.41-4.14c-10.46-6.5-22.21-10.65-34.44-12.13
		c-4.68-0.59-7.61-0.64-7.61-0.8c0.68-0.12,1.37-0.16,2.06-0.12c1.33,0,3.26,0,5.62,0.28c12.39,1.18,24.29,5.39,34.66,12.25
		c1.57,1.02,3.09,2.13,4.54,3.31C535.24,534.79,535.77,535.24,536.24,535.76z"/>
	<path class="st6" d="M578.21,649.46l0.66,0.24l1.89,0.8c1.73,0.69,4.13,1.84,7.4,3.1c6.52,2.58,16.14,6.12,28.49,10.19
		c24.7,8.06,60.21,18.36,102.71,29.05l-0.47,0.26l25.86-71.77l0.24,0.57l-32.03-13.16l-177.19-72.99l0,0l0,0
		c-7.21-7.63-13.87-14.35-20.07-19.79c-5.27-4.65-10.9-8.89-16.83-12.67c-3.73-2.35-7.58-4.49-11.54-6.43l-3.1-1.46l-1.04-0.52
		l1.07,0.45l3.14,1.37c4,1.87,7.89,3.98,11.65,6.31c5.98,3.74,11.66,7.96,16.97,12.6c6.27,5.41,12.95,12.13,20.19,19.72h-0.1
		l177.21,72.52l32.03,13.16l0.38,0.16l-0.14,0.42l-26,71.74l-0.12,0.35l-0.36-0.09c-42.5-10.78-78-21.18-102.68-29.47
		c-12.34-4.13-21.94-7.75-28.44-10.4c-3.26-1.28-5.69-2.48-7.35-3.21l-1.87-0.85L578.21,649.46z"/>
	<path class="st7" d="M784.96,247.06c0,0,24.09,13.87,28.98,30.18c2.96,9.9,25.43,136.53,28.98,161.49
		c3.55,24.96-3.95,43.47-14.59,51.75c-10.64,8.28-42.93,19.31-42.93,19.31l-45.32,14.72l-13.02-33.14l43.16-62.02l-4.14-41.89
		L784.96,247.06z"/>
	<path class="st7" d="M737.62,225.18l-18.1-10.4c0,0-16.48,19.27-38.96,16.92c-22.48-2.36-35.83-19.5-35.83-19.5l-67.04,13.64l0,0
		c-4.49,0.9-12.69,3.74-20.54,14.96c-8.75,12.5-50.26,67.94-50.26,67.94h-28.98c-8,0-15.34,4.43-19.07,11.51
		c-4.96,9.45-10.9,22.06-10.4,27.3c0.99,8.86-0.73,33.14,11.14,40.71c3.76,2.41,17.21,9.62,27.73,9.13
		c15.41-0.73,33.31-8.75,43.63-15.96c8.67-6.12,29.03-27.23,36.85-35.46v0.17l5.03,175.84l175.75-4.99l36.4-269.9
		C784.97,247.09,739.39,225.18,737.62,225.18z"/>
	<path class="st5" d="M567.16,272.31c0.24,0,0.71,21.79,1.02,48.67c0.31,26.88,0.38,48.69,0.12,48.69c-0.26,0-0.71-21.79-1.02-48.67
		S566.91,272.31,567.16,272.31z"/>
	<path class="st5" d="M806.24,414.45c0,0-1.49,0.24-4.14,0.75c-3.75,0.75-7.4,1.91-10.88,3.47c-5.16,2.33-10.03,5.27-14.49,8.75
		c-5.47,4.28-10.58,9.01-15.27,14.13c-5.03,5.43-9.6,10.78-13.87,15.6c-3.79,4.24-7.78,8.29-11.98,12.13c-2.84,2.6-5.84,5.01-9,7.21
		c-1.11,0.78-2.03,1.3-2.63,1.73c-0.3,0.21-0.62,0.39-0.95,0.52c0.26-0.25,0.54-0.48,0.85-0.68c0.57-0.43,1.46-1.01,2.53-1.84
		c3.07-2.29,5.99-4.75,8.77-7.38c3.55-3.29,7.52-7.49,11.79-12.29c4.26-4.8,8.84-10.17,13.87-15.6c4.73-5.15,9.89-9.89,15.43-14.16
		c4.53-3.49,9.48-6.4,14.73-8.67c3.55-1.52,7.27-2.6,11.08-3.22c1.35-0.26,2.41-0.26,3.12-0.35
		C805.53,414.48,805.89,414.44,806.24,414.45z"/>
	<path class="st5" d="M810.23,402.55c0,0.16-2.67,0.54-6.93,1.73c-10.96,3.03-20.9,8.95-28.79,17.14c-3.02,3.14-4.63,5.32-4.75,5.2
		c0.27-0.58,0.61-1.12,1.01-1.61c1-1.42,2.1-2.77,3.28-4.04c7.74-8.56,17.87-14.6,29.08-17.33c1.68-0.41,3.39-0.73,5.11-0.95
		C808.89,402.55,809.56,402.5,810.23,402.55z"/>
	<g class="st10">
		<path d="M483.11,371.68c9.31,2.53,20.47-10.85,28.93-19.22c4.39-4.37,8.96-9.01,10.59-14.99c1.14-5.03,0.63-10.29-1.47-14.99
			c-1.56-4.24-3.64-8.28-6.19-12.01c0.78,7.23,2.57,18.29,0.14,27.37c-2.03,7.57-6.83,13.59-11.92,19.31
			C497.81,363.18,491.43,369.53,483.11,371.68"/>
	</g>
	<path class="st5" d="M522.89,364.02c-0.17,0,0.9-3.07,1.73-8.11c0.51-2.95,0.79-5.93,0.85-8.93c0.06-3.66-0.18-7.32-0.73-10.94
		c-0.6-3.61-1.49-7.17-2.67-10.64c-0.99-2.83-2.18-5.58-3.57-8.23c-2.37-4.54-4.33-7.07-4.19-7.18c0.55,0.52,1.03,1.1,1.44,1.73
		c0.55,0.68,1.05,1.4,1.51,2.15c0.55,0.87,1.21,1.84,1.82,2.98c1.48,2.64,2.74,5.4,3.78,8.25c1.25,3.5,2.17,7.11,2.77,10.78
		c0.56,3.67,0.79,7.39,0.68,11.11c-0.09,3.03-0.45,6.06-1.06,9.03c-0.21,1.28-0.54,2.39-0.8,3.47c-0.21,0.85-0.46,1.69-0.76,2.51
		C523.49,362.7,523.22,363.37,522.89,364.02z"/>
	<path class="st5" d="M652.09,219c0.12,0.23-1.94,1.42-4.09,3.36s-3.61,3.83-3.81,3.67C645.71,222.68,648.58,220.12,652.09,219z"/>
	<path class="st5" d="M670.37,229.62c0.19,0.19-1.58,2.08-3,4.89c-1.42,2.81-1.96,5.34-2.22,5.2c-0.12-2,0.37-3.99,1.42-5.7
		C667.37,232.2,668.69,230.67,670.37,229.62z"/>
	<path class="st5" d="M701.69,240.64c-0.84-1.66-1.51-3.41-2.01-5.2c-0.76-1.71-1.35-3.49-1.73-5.32c1.23,1.47,2.12,3.18,2.63,5.03
		C701.35,236.88,701.73,238.75,701.69,240.64z"/>
	<path class="st5" d="M721.85,231.11c-0.28,0-0.95-3-2.95-6.24s-4.35-5.29-4.16-5.49c2.11,1.15,3.83,2.9,4.94,5.03
		C721.05,226.38,721.81,228.71,721.85,231.11z"/>
	<path class="st5" d="M779.7,288.07c0.26,0-2.72,24.06-6.64,53.64c-3.92,29.59-7.3,53.56-7.54,53.52s2.72-24.04,6.64-53.64
		C776.08,311.98,779.46,288.03,779.7,288.07z"/>
	<path class="st5" d="M516.34,326.96c0.07,0.82,0.07,1.65,0,2.48c-0.05,0.97-0.17,1.94-0.36,2.89c-0.1,0.57-0.19,1.16-0.31,1.73
		c-0.12,0.57-0.31,1.28-0.5,1.98c-0.85,3.25-2.02,6.41-3.47,9.45c-1.82,3.69-3.99,7.2-6.46,10.49c-2.55,3.26-5.46,6.22-8.67,8.84
		c-2.64,2.12-5.56,3.86-8.67,5.2c-0.68,0.26-1.3,0.55-1.91,0.78l-1.73,0.49l-1.53,0.42c-0.47,0.1-0.92,0.12-1.32,0.19
		c-0.82,0.13-1.65,0.19-2.48,0.19c2.97-0.59,5.87-1.48,8.67-2.65c2.99-1.38,5.8-3.12,8.35-5.2c3.09-2.59,5.9-5.49,8.39-8.67
		c2.44-3.23,4.59-6.68,6.41-10.3c1.47-2.98,2.67-6.07,3.61-9.26C515.18,333.03,515.84,330.01,516.34,326.96z"/>
	<g class="st10">
		<path d="M774.05,527.96c7.45-3.61,9.15-13.26,9.91-21.51c2.22-24.14,4.44-48.29,6.67-72.47c1.06-11.35,1.56-24.27-6.45-32.45
			c-7.31-7.42-18.94-7.85-29.36-7.82c-64.3,0.17-121.1,2.06-185.46,2.24l3.28,112.5L774.05,527.96z"/>
	</g>
	<path class="st0" d="M541.7,413.4l6.85,130.48c0.29,5.06,4.5,9.01,9.57,8.98l207.85,0.36c5.08,0.02,9.28-3.94,9.57-9.01
		l7.92-128.26c0.28-5.34-3.47-12.43-8.91-12.53H551.45c-5.25-0.14-9.63,4-9.77,9.26C541.68,412.91,541.68,413.15,541.7,413.4z"/>
	<path class="st5" d="M541.7,413.4c0,0,0-0.17,0-0.49c-0.05-0.48-0.05-0.97,0-1.46c0.28-1.9,1.14-3.68,2.46-5.08
		c0.97-1.04,2.15-1.85,3.47-2.37c1.61-0.58,3.32-0.81,5.03-0.69h12.64l80.53-0.14l119.44-0.12h8.49c1.5-0.08,3,0.3,4.28,1.09
		c1.26,0.81,2.35,1.87,3.17,3.12c1.7,2.48,2.61,5.42,2.62,8.42c-0.17,2.89-0.35,5.82-0.52,8.77c-0.73,11.74-1.47,23.72-2.22,35.93
		c-1.49,24.42-3.05,49.69-4.66,75.59l-0.29,4.85c-0.14,1.61-0.1,3.17-0.4,4.87c-0.68,3.37-3.05,6.16-6.27,7.37
		c-1.56,0.55-3.22,0.77-4.87,0.64h-14.3h-37.32l-70.54-0.16l-63.84-0.16h-14.73h-3.52c-1.2,0-2.37,0-3.62-0.12
		c-2.43-0.34-4.65-1.58-6.22-3.47c-1.53-1.84-2.36-4.17-2.32-6.57c-0.12-2.27-0.23-4.51-0.35-6.73c-0.23-4.45-0.45-8.79-0.68-13.03
		c-1.73-33.95-3.1-61.43-4.07-80.42c-0.45-9.48-0.81-16.85-1.06-21.87c-0.1-2.5-0.19-4.39-0.26-5.69c-0.07-1.3,0-1.94,0-1.94
		s0,0.66,0.16,1.94c0.16,1.28,0.19,3.19,0.33,5.67c0.29,5.03,0.71,12.39,1.25,21.87c1.02,19.07,2.51,46.47,4.35,80.41
		c0.23,4.25,0.47,8.58,0.71,13.03c0.1,2.22,0.23,4.45,0.35,6.72c-0.03,2.25,0.74,4.43,2.18,6.15c1.46,1.75,3.53,2.88,5.79,3.19
		c1.15,0.1,2.31,0.14,3.47,0.1h18.32h63.84l70.54,0.1h37.32h14.3c1.54,0.12,3.1-0.08,4.56-0.59c2.93-1.09,5.09-3.62,5.7-6.69
		c0.26-1.47,0.26-3.17,0.38-4.75l0.29-4.85c1.61-25.89,3.17-51.17,4.7-75.57c0.75-12.23,1.49-24.21,2.22-35.95
		c0.19-2.93,0.36-5.84,0.54-8.75c-0.01-2.82-0.87-5.57-2.46-7.9c-1.39-2.42-3.99-3.89-6.78-3.85h-8.48H645.88l-80.53-0.12h-12.64
		c-1.67-0.13-3.36,0.09-4.94,0.64c-3.12,1.2-5.37,3.96-5.93,7.26C541.77,412.21,541.72,412.8,541.7,413.4z"/>
	<circle class="st9" cx="664.11" cy="477.04" r="12.24"/>
	<path class="st5" d="M676.35,477.04c-0.09,0,0-1.09-0.55-2.95c-0.72-2.62-2.29-4.92-4.47-6.53c-1.48-1.12-3.2-1.87-5.03-2.18
		c-2.08-0.36-4.22-0.17-6.21,0.55c-2.2,0.79-4.11,2.23-5.48,4.13c-3.86,5.28-2.71,12.68,2.57,16.54c2.62,1.92,5.92,2.67,9.11,2.09
		c1.83-0.32,3.55-1.07,5.03-2.18c2.18-1.61,3.75-3.91,4.47-6.52C676.3,478.13,676.26,477.02,676.35,477.04
		c0.05,0.26,0.05,0.52,0,0.78c0.01,0.76-0.08,1.52-0.26,2.25c-0.63,2.75-2.19,5.2-4.42,6.93c-3.38,2.64-7.89,3.36-11.92,1.91
		c-6.56-2.34-9.98-9.56-7.64-16.13c0.42-1.17,1.01-2.27,1.74-3.27c1.48-2.02,3.53-3.55,5.89-4.39c2.13-0.76,4.42-0.93,6.64-0.5
		c1.9,0.38,3.68,1.21,5.2,2.41c2.24,1.73,3.8,4.18,4.42,6.93c0.18,0.73,0.27,1.48,0.26,2.24
		C676.34,476.48,676.37,476.76,676.35,477.04z"/>
	<path class="st5" d="M548.7,427.83c0.24,0,1.28,21.93,2.29,48.98c1.01,27.06,1.63,49,1.39,49c-0.24,0-1.23-21.94-2.29-48.98
		C549.03,449.79,548.46,427.85,548.7,427.83z"/>
	<path class="st3" d="M486.23,257.59c-1.23-1.04,4.11-21.53,4.11-21.53s-14.11-23-14.47-30.42c-0.36-7.42,5.56-22.64,5.56-22.64
		l40.44-10.4c0,0,13,24.13,15.6,32.65c2.6,8.53-4.45,37.47-4.45,37.47l-6.93,14.85C526.08,257.59,505.49,273.92,486.23,257.59z"/>
	<path class="st3" d="M475.94,210.09c-1.58-2.92-3.01-5.92-4.26-9c-2.55-6.07-5.7-12.03,0-15.43c1.8-1.18,4.03-1.53,6.1-0.95
		c0,0-0.87-5.2,2.18-7.04c1.8-1.12,4.03-1.32,6-0.52c0,0-0.97-7.21,3.47-10.26c3.37-2.22,7.7-2.35,11.2-0.33
		c0,0-3.47-31.56-3.78-33.23c-1.11-6.14,1.16-11.58,7.26-10.05c2.24,0.55,3.47,2.91,6.1,13.19c2.63,10.28,6.85,27.82,6.85,27.82
		s7.11,12.34,10.4,19.07c3.29,6.73,10,21.94,10.56,26c1.42,10.4-4.7,24.27-4.7,24.27l-42.98,2.5L475.94,210.09z"/>
	<path class="st4" d="M478.62,186.06c1.23,1.46,2.34,3.01,3.33,4.65l3.47,5.2c0.7,1.02,1.32,2.1,1.85,3.22
		c0.6,1.28,0.78,2.72,0.5,4.11c-0.27,1.48-1.31,2.69-2.72,3.19c-1.3,0.32-2.67,0.15-3.85-0.49c-1.01-0.48-1.98-1.07-2.88-1.73
		c-0.83-0.61-1.61-1.2-2.31-1.73c-1.4-1.09-2.48-2.03-3.21-2.7c-0.73-0.68-1.11-1.06-1.07-1.11s1.73,1.27,4.66,3.29
		c1.64,1.23,3.38,2.32,5.2,3.26c1,0.52,2.15,0.67,3.24,0.4c1.11-0.4,1.92-1.38,2.1-2.55c0.22-1.17,0.07-2.38-0.43-3.47
		c-0.5-1.08-1.08-2.13-1.73-3.12l-3.24-5.2C480.42,189.63,479.45,187.88,478.62,186.06z"/>
	<path class="st4" d="M513.88,189.82c-0.37-2.26-0.22-4.57,0.45-6.76c0.39-2.26,1.31-4.39,2.69-6.22c0.24,0.12-0.95,2.88-1.73,6.43
		C514.5,186.83,514.15,189.82,513.88,189.82z"/>
	<path class="st3" d="M530.93,199.05c-3.97-3.84-8.97-6.45-14.39-7.5c-5.4-1.04-10.92-1.25-16.38-0.62
		c-4.37,0.4-9.38,1.53-11.35,5.44s0.42,9.22,4.28,11.53c3.87,2.31,8.67,2.41,13.19,2.01s9.03-1.25,13.5-0.55"/>
	<path class="st4" d="M519.79,209.34c0,0-1.21-0.12-3.47,0c-3.08,0.13-6.15,0.42-9.2,0.87c-2.14,0.27-4.31,0.37-6.46,0.28
		c-2.52-0.09-4.99-0.71-7.24-1.82c-2.52-1.33-4.44-3.56-5.37-6.26c-0.49-1.44-0.6-2.98-0.31-4.47c0.37-1.54,1.2-2.93,2.37-3.99
		c2.39-1.85,5.26-2.96,8.27-3.21c2.71-0.32,5.44-0.48,8.16-0.49c4.64-0.08,9.26,0.61,13.68,2.06c2.97,1,5.74,2.5,8.2,4.44
		c0.67,0.53,1.3,1.11,1.89,1.73c0.22,0.2,0.41,0.43,0.57,0.68c0,0-0.9-0.81-2.67-2.1c-2.5-1.8-5.26-3.18-8.2-4.11
		c-4.35-1.34-8.9-1.96-13.45-1.84c-2.69,0.03-5.39,0.21-8.06,0.54c-2.83,0.23-5.53,1.27-7.78,3c-1.04,0.92-1.77,2.12-2.1,3.47
		c-0.27,1.33-0.18,2.72,0.26,4c0.85,2.49,2.62,4.57,4.94,5.81c2.16,1.07,4.52,1.66,6.93,1.73c2.12,0.12,4.24,0.06,6.34-0.16
		c3.08-0.4,6.18-0.6,9.29-0.61c0.84,0.04,1.68,0.12,2.51,0.24C519.19,209.17,519.5,209.23,519.79,209.34z"/>
	<path class="st3" d="M478.93,186.57c4.52,6.93,8.51,14.42,12.32,21.7c0.91,2.23,2.41,4.17,4.33,5.62c1.63,1.01,5.67-0.81,7.49-1.44
		l-12.43-28.25"/>
	<path class="st4" d="M490.65,184.19c0.43,0.66,0.81,1.36,1.11,2.1l2.74,5.93c2.31,5.03,5.46,12.13,8.98,20.05l0.21,0.43l-0.47,0.17
		c-1.33,0.47-2.77,1.07-4.33,1.47c-0.62,0.16-1.26,0.25-1.91,0.28c-0.34,0.02-0.68-0.02-1.01-0.1c-0.34-0.08-0.66-0.24-0.94-0.47
		c-1-0.72-1.85-1.63-2.51-2.67c-1.27-2.01-2.17-4.02-3.19-5.88c-1.94-3.76-3.73-7.12-5.29-9.93c-1.56-2.81-2.84-5.04-3.76-6.59
		c-0.51-0.78-0.96-1.59-1.35-2.43c0.62,0.69,1.17,1.45,1.65,2.25c1.01,1.47,2.41,3.67,4.02,6.45c1.61,2.77,3.47,6.1,5.48,9.84
		c1.02,1.85,1.98,3.9,3.19,5.79c0.6,0.94,1.37,1.76,2.27,2.43c0.97,0.5,2.11,0.55,3.12,0.14c1.47-0.36,2.88-0.95,4.26-1.44
		l-0.31,0.66c-3.47-7.99-6.55-15.08-8.67-20.17l-2.5-6.03C491.12,185.74,490.85,184.98,490.65,184.19z"/>
	<path class="st3" d="M487.31,175.79c3.99,10.02,7.98,20.03,11.98,30.04c0.73,2.18,1.82,4.22,3.22,6.03
		c1.44,1.83,3.71,2.81,6.03,2.62c3.12-0.45,5.2-3.76,5.32-6.93c-0.1-3.16-0.86-6.27-2.25-9.12c-3.58-9.14-6.45-18.53-8.58-28.11"/>
	<path class="st4" d="M503.03,170.33c0.12,0.3,0.22,0.61,0.29,0.92c0.19,0.69,0.42,1.58,0.71,2.65c0.62,2.31,1.53,5.63,2.79,9.71
		s2.89,8.87,4.96,14.11c1.28,2.74,2.13,5.67,2.51,8.67c0.11,1.65-0.2,3.3-0.92,4.78c-0.73,1.55-2.01,2.79-3.59,3.47
		c-1.66,0.61-3.5,0.46-5.04-0.42c-1.42-0.79-2.62-1.94-3.47-3.33c-1.43-2.62-2.64-5.35-3.62-8.16c-2.05-5.2-3.88-9.95-5.46-13.95
		c-1.58-4-2.7-7.11-3.61-9.45l-0.95-2.58c-0.12-0.3-0.21-0.61-0.26-0.94c0.18,0.27,0.32,0.56,0.43,0.87l1.11,2.51
		c0.95,2.32,2.27,5.49,3.87,9.34c1.59,3.85,3.47,8.67,5.65,13.87c0.98,2.75,2.18,5.42,3.59,7.97c0.79,1.27,1.89,2.31,3.21,3.02
		c1.31,0.74,2.88,0.87,4.3,0.36c1.38-0.6,2.49-1.7,3.12-3.07c0.65-1.35,0.94-2.84,0.83-4.33c-0.38-2.88-1.2-5.69-2.41-8.34
		c-2.03-5.2-3.61-10.14-4.78-14.23s-2.01-7.49-2.53-9.81c-0.24-1.18-0.43-2.08-0.54-2.7C503.11,170.96,503.04,170.65,503.03,170.33z
		"/>
	<path class="st3" d="M488.26,246.21c0,0-27.42,80.87-28.51,84.82s5.43,32.84,17.33,39.69c11.91,6.85,35.01-21.65,37.89-32.12
		c2.88-10.47,0-28.15,0-28.15l18.49-69.66"/>
	<path class="st4" d="M514.97,233.64c-0.87,0.11-1.76,0-2.58-0.33c-2.02-0.63-3.88-1.7-5.44-3.14c-1.58-1.44-2.81-3.22-3.61-5.2
		c-0.4-0.79-0.6-1.66-0.55-2.55c1.14,2.62,2.76,5.02,4.77,7.05C509.74,231.32,512.26,232.73,514.97,233.64z"/>
</g>
<g id="freepik--Floor--inject-9">
	<path class="st5" d="M1007.54,625.58c0,0.26-152.72,0.47-341.07,0.47s-341.1-0.21-341.1-0.47c0-0.26,152.7-0.45,341.1-0.45
		S1007.54,625.34,1007.54,625.58z"/>
</g>
<g id="freepik--Button--inject-9">
	<path class="st7" d="M366.05,45.84h194.52c5.06,0,9.17,4.11,9.17,9.17v53.94c0,5.06-4.11,9.17-9.17,9.17H366.05
		c-5.06,0-9.17-4.11-9.17-9.17V55.01C356.88,49.95,360.98,45.84,366.05,45.84z"/>
	<path class="st7" d="M571.11,118.1H384.04c-5.36-0.06-9.68-4.41-9.69-9.78V55.36c0.01-5.39,4.38-9.77,9.78-9.78h186.98
		c5.39,0.01,9.77,4.38,9.78,9.78v52.97C580.87,113.72,576.5,118.09,571.11,118.1z M384.04,47.32c-4.4,0.06-7.95,3.64-7.96,8.04
		v52.97c0,4.44,3.6,8.04,8.04,8.04h186.98c4.44,0,8.04-3.6,8.04-8.04V55.36c-0.01-4.44-3.6-8.03-8.04-8.04L384.04,47.32z"/>
	<path class="st9" d="M396.02,80.96c0.26-4.6,4.19-8.11,8.79-7.86c2.15,0.12,4.18,1.07,5.65,2.66l-2.25,2.08
		c-0.93-1.13-2.33-1.76-3.8-1.73c-2.67,0-4.84,2.17-4.84,4.84s2.17,4.84,4.84,4.84l0,0c1.46,0.03,2.86-0.61,3.8-1.73l2.25,2.11
		c-3.11,3.39-8.37,3.61-11.75,0.5C397.09,85.19,396.13,83.14,396.02,80.96z"/>
	<path class="st9" d="M412.79,73.39h3.47v12.29h7.59v2.84h-11.09L412.79,73.39z"/>
	<path class="st9" d="M425.85,73.39h3.47v15.13h-3.47V73.39z"/>
	<path class="st9" d="M431.98,80.96c0.25-4.59,4.16-8.11,8.75-7.86c2.16,0.12,4.2,1.07,5.67,2.66l-2.24,2.08
		c-0.94-1.13-2.34-1.76-3.81-1.73c-2.67,0-4.84,2.17-4.84,4.84s2.17,4.84,4.84,4.84l0,0c1.47,0.03,2.87-0.61,3.81-1.73l2.24,2.11
		c-3.09,3.38-8.34,3.62-11.73,0.53C433.05,85.21,432.09,83.15,431.98,80.96z"/>
	<path class="st9" d="M454.27,82.57l-2.05,2.11v3.83h-3.47V73.39h3.47v7.07l6.71-7.07h3.81l-6.26,6.74l6.64,8.39h-4.02L454.27,82.57
		z"/>
	<path class="st9" d="M484.72,73.39v15.13h-3.47v-6.21h-6.93v6.21h-3.47V73.39h3.47v5.98h6.93v-5.98H484.72z"/>
	<path class="st9" d="M500.01,85.71v2.81h-11.72V73.39h11.44v2.83h-7.96v3.28h7.02v2.72h-7.02v3.47L500.01,85.71z"/>
	<path class="st9" d="M512.42,88.52l-2.88-4.21h-3.22v4.21h-3.47V73.39h6.55c4.04,0,6.57,2.1,6.57,5.49
		c0.09,2.1-1.17,4.02-3.12,4.78l3.47,4.85H512.42z M509.15,76.25h-2.86v5.2h2.86c2.13,0,3.21-0.99,3.21-2.63
		S511.28,76.25,509.15,76.25z"/>
	<path class="st9" d="M530.34,85.71v2.81h-11.72V73.39h11.42v2.83h-7.94v3.28h6.93v2.72h-6.93v3.47L530.34,85.71z"/>
	<path class="st7" d="M573,116.51c-1.44-1.32-2.67-2.85-3.64-4.54c-1.22-1.52-2.21-3.22-2.91-5.04c1.44,1.32,2.68,2.85,3.66,4.54
		C571.33,112.98,572.3,114.69,573,116.51z"/>
	<path class="st7" d="M580.02,60.65c-2.15-2.18-4.07-4.57-5.74-7.14c-1.91-2.39-3.58-4.96-5.01-7.66c2.15,2.18,4.07,4.57,5.74,7.14
		C576.92,55.37,578.6,57.94,580.02,60.65z"/>
	<path class="st7" d="M579.27,106.96c-0.26,0.19-2.86-3.47-5.7-8.35c-1.44-2.39-2.7-4.58-3.59-6.17c-0.55-0.83-1-1.72-1.35-2.65
		c0.26-0.17,2.86,3.57,5.7,8.35c1.44,2.39,2.7,4.58,3.61,6.17C578.49,105.13,578.94,106.02,579.27,106.96z"/>
	<path class="st7" d="M580.07,91.81c-0.26,0.19-3.03-3.85-6.1-9c-1.54-2.58-2.91-4.92-3.88-6.64c-0.58-0.89-1.07-1.85-1.46-2.84
		c0.26-0.17,3.03,3.87,6.12,9.01c1.54,2.57,2.89,4.92,3.87,6.62C579.2,89.86,579.69,90.81,580.07,91.81z"/>
	<path class="st7" d="M580.05,76.85c-0.26,0.19-3.05-3.88-6.14-9.05c-1.56-2.58-2.93-4.96-3.9-6.67c-0.59-0.9-1.09-1.86-1.47-2.86
		c0.26-0.17,3.05,3.88,6.14,9.06c1.56,2.58,2.93,4.94,3.9,6.67C579.18,74.9,579.67,75.85,580.05,76.85z"/>
	<path class="st5" d="M351.63,57.04c-3.73-0.5-7.41-1.31-11.01-2.41c-3.68-0.81-7.28-1.91-10.78-3.29c3.73,0.5,7.41,1.31,11.01,2.41
		C344.52,54.56,348.13,55.66,351.63,57.04z"/>
	<path class="st5" d="M353.73,44.02c-4.07-4.24-7.92-8.69-11.53-13.33c-3.85-4.43-7.46-9.06-10.82-13.87
		c4.06,4.25,7.91,8.71,11.53,13.35C346.75,34.61,350.36,39.23,353.73,44.02z"/>
	<path class="st5" d="M369.79,37.75c-1.25-2.91-2.05-5.99-2.37-9.13c-0.63-3.1-0.76-6.29-0.38-9.43c0.26,0,0.5,4.19,1.27,9.31
		S370.05,37.63,369.79,37.75z"/>
</g>
</svg>
