<?xml version="1.0" encoding="utf-8"?>
<!-- Generator: Adobe Illustrator 23.1.0, SVG Export Plug-In . SVG Version: 6.00 Build 0)  -->
<svg version="1.1" id="Layer_1" xmlns="http://www.w3.org/2000/svg" xmlns:xlink="http://www.w3.org/1999/xlink" x="0px" y="0px"
	 viewBox="0 0 1366 768" style="enable-background:new 0 0 1366 768;" xml:space="preserve">
<style type="text/css">
	.st0{fill:#EBEBEB;}
	.st1{fill:#E0E0E0;}
	.st2{fill:#F5F5F5;}
	.st3{fill:#FAFAFA;}
	.st4{fill:#E6E6E6;}
	.st5{fill:#F0F0F0;}
	.st6{fill:#263238;}
	.st7{opacity:0.2;fill:#FFFFFF;enable-background:new    ;}
	.st8{fill:#FFC3BD;}
	.st9{fill:#407BFF;}
	.st10{opacity:0.7;fill:#FFFFFF;enable-background:new    ;}
	.st11{opacity:0.2;fill:#263238;enable-background:new    ;}
	.st12{fill:#ED893E;}
	.st13{opacity:0.6;fill:#FFFFFF;enable-background:new    ;}
	.st14{opacity:0.4;fill:#FFFFFF;enable-background:new    ;}
	.st15{opacity:0.3;fill:#FFFFFF;enable-background:new    ;}
	.st16{opacity:0.5;fill:#FFFFFF;enable-background:new    ;}
	.st17{fill:#FFFFFF;}
	.st18{opacity:0.2;}
	.st19{opacity:0.1;fill:#FFFFFF;enable-background:new    ;}
	.st20{opacity:0.8;fill:#FFFFFF;enable-background:new    ;}
	.st21{opacity:0.4;}
	.st22{opacity:0.1;enable-background:new    ;}
	.st23{opacity:0.2;enable-background:new    ;}
	.st24{fill:#B55B52;}
	.st25{fill:#A02724;}
	.st26{opacity:0.3;enable-background:new    ;}
	.st27{opacity:0.9;fill:#FFFFFF;enable-background:new    ;}
	.st28{fill:#B97964;}
	.st29{opacity:0.6;enable-background:new    ;}
	.st30{fill:#A24E3F;}
	.st31{fill:#2E353A;}
</style>
<g id="freepik--background-complete--inject-67">
	<rect x="1021.51" y="707.47" class="st0" width="67.67" height="0.51"/>
	<rect x="828.95" y="713.03" class="st0" width="17.75" height="0.51"/>
	<rect x="980.26" y="688.51" class="st0" width="39.21" height="0.51"/>
	<rect x="277.18" y="691.95" class="st0" width="88.24" height="0.51"/>
	<rect x="383.62" y="691.95" class="st0" width="12.93" height="0.51"/>
	<rect x="438.6" y="700.57" class="st0" width="191.39" height="0.51"/>
	<path class="st0" d="M654.21,583.48H259.73c-6.44,0-11.67-5.22-11.67-11.67V17.27c0.06-6.4,5.26-11.56,11.67-11.56h394.47
		c6.44,0,11.67,5.22,11.67,11.67c0,0,0,0,0,0v554.45C665.87,578.26,660.65,583.48,654.21,583.48z M259.73,6.11
		c-6.16,0.01-11.14,5-11.16,11.16v554.55c0.01,6.16,5,11.14,11.16,11.16h394.47c6.16-0.01,11.14-5,11.16-11.16V17.27
		c-0.01-6.16-5-11.14-11.16-11.16H259.73z"/>
	<path class="st0" d="M1096.14,583.48H701.63c-6.44-0.01-11.65-5.23-11.67-11.67V17.27c0.07-6.4,5.27-11.55,11.67-11.56h394.52
		c6.39,0.02,11.57,5.18,11.63,11.56v554.55C1107.77,578.24,1102.57,583.46,1096.14,583.48z M701.63,6.11
		c-6.16,0.01-11.14,5-11.16,11.16v554.55c0.01,6.16,5,11.14,11.16,11.16h394.52c6.16-0.01,11.14-5,11.16-11.16V17.27
		c-0.01-6.16-5-11.14-11.16-11.16H701.63z"/>
	<rect x="170" y="674.6" class="st0" width="1021.53" height="0.51"/>
	<polygon class="st1" points="807.72,674.07 346.7,674.07 342.9,661.04 811.52,661.04 	"/>
	<rect x="321.78" y="483.94" class="st0" width="251.05" height="86.67"/>
	<rect x="321.78" y="570.59" class="st0" width="251.05" height="86.67"/>
	<rect x="321.78" y="488.5" class="st1" width="251.05" height="8.76"/>
	<rect x="321.78" y="574.47" class="st1" width="251.05" height="8.76"/>
	<path class="st2" d="M317.41,480.06v180.97h259.82V480.06H317.41z M568.4,652.27H326.17v-77.08H568.4V652.27z M568.4,566.46H326.17
		v-77.15H568.4V566.46z"/>
	<rect x="581.6" y="483.94" class="st0" width="251.05" height="86.67"/>
	<rect x="581.6" y="570.59" class="st0" width="251.05" height="86.67"/>
	<rect x="581.6" y="488.5" class="st1" width="251.05" height="8.76"/>
	<rect x="581.6" y="574.49" class="st1" width="251.05" height="8.76"/>
	<path class="st2" d="M577.22,480.06v180.97h259.82V480.06H577.22z M828.28,652.27H585.99v-77.08h242.29V652.27z M828.28,566.46
		H585.99v-77.15h242.29V566.46z"/>
	<path class="st1" d="M714.66,535.39c0,4.16-3.38,7.54-7.54,7.54s-7.54-3.38-7.54-7.54s3.38-7.54,7.54-7.54
		S714.66,531.22,714.66,535.39L714.66,535.39z"/>
	<path class="st3" d="M714.66,533.26c0,4.16-3.38,7.54-7.54,7.54s-7.54-3.38-7.54-7.54s3.38-7.54,7.54-7.54
		S714.66,529.1,714.66,533.26L714.66,533.26z"/>
	<path class="st1" d="M714.66,614.98c0,4.16-3.38,7.54-7.54,7.54s-7.54-3.38-7.54-7.54c0-4.16,3.38-7.54,7.54-7.54
		S714.66,610.82,714.66,614.98L714.66,614.98z"/>
	<path class="st3" d="M714.66,612.86c0,4.16-3.38,7.54-7.54,7.54s-7.54-3.38-7.54-7.54s3.38-7.54,7.54-7.54
		S714.66,608.7,714.66,612.86L714.66,612.86z"/>
	<path class="st1" d="M454.84,535.39c0,4.16-3.38,7.54-7.54,7.54s-7.54-3.38-7.54-7.54s3.38-7.54,7.54-7.54
		S454.84,531.22,454.84,535.39L454.84,535.39z"/>
	<path class="st3" d="M454.84,533.26c0,4.16-3.38,7.54-7.54,7.54s-7.54-3.38-7.54-7.54s3.38-7.54,7.54-7.54
		S454.84,529.1,454.84,533.26L454.84,533.26z"/>
	<path class="st1" d="M454.84,614.98c0,4.16-3.38,7.54-7.54,7.54s-7.54-3.38-7.54-7.54c0-4.16,3.38-7.54,7.54-7.54
		S454.84,610.82,454.84,614.98L454.84,614.98z"/>
	<path class="st3" d="M454.84,612.86c0,4.16-3.38,7.54-7.54,7.54s-7.54-3.38-7.54-7.54s3.38-7.54,7.54-7.54
		S454.84,608.7,454.84,612.86L454.84,612.86z"/>
	<path class="st1" d="M929,451.25c4.54-5.05,11.07-10.54,17.94-11.63c21.06-3.37,18.71,39.86,18.51,50.91
		c0,0.85,0.69,1.53,1.53,1.53s1.53-0.69,1.53-1.53c0.25-13.03,2.55-53.92-19.29-54.18c-8.52-0.1-16.96,6.68-22.47,12.73
		c-1.31,1.47,0.86,3.66,2.17,2.17L929,451.25z"/>
	<path class="st1" d="M994.54,424.69c-4.35,0.67-7.76,5.74-9.79,9.13c-9.68,16.34-10.32,38.37-10.95,56.72c0,2.04,3,2.04,3.06,0
		c0.59-17.59,1.14-38.25,9.95-54.12c1.68-3.02,4.6-8.17,8.54-8.76C997.3,427.35,996.46,424.39,994.54,424.69z"/>
	<path class="st0" d="M927.98,450.17c0,0-18.98-31.36-32.89-3.09c-2.18,4.48-3.65,9.27-4.35,14.2c5.82-2.55,18.24-7.25,18.39-0.88
		c0.14,5.13-7.11,13.61-12.71,19.35c-3.14,3.24-4.33,7.91-3.13,12.26c1.81,6.53,4.28,12.87,7.38,18.9c0,0,4.09-1.59,10.22-4.49
		c3.87-1.86,6.62-5.45,7.42-9.66c0.86-4.62,2.35-9.48,4.82-10.93c2.47-1.45,4.47,1.25,5.84,4.39c0.94,2.21,3.5,3.24,5.71,2.3
		c0.3-0.13,0.59-0.29,0.85-0.48c3.07-2.19,6-4.55,8.79-7.09c1.66-1.51,1.88-4.05,0.49-5.82c-3-3.86-5.82-8.46-4.68-11.11
		c1.14-2.66,6.27-2.59,11.24-2.04c4.1,0.5,7.83-2.41,8.33-6.51c0-0.01,0-0.03,0.01-0.04l0,0
		C963.26,428.96,927.98,450.17,927.98,450.17z"/>
	<path class="st4" d="M1001.75,417.95c0,0,18.96-31.36,32.89-3.09c2.19,4.51,3.66,9.34,4.35,14.3c-5.82-2.55-18.24-7.25-18.39-0.88
		c-0.14,5.13,7.11,13.59,12.71,19.33c3.14,3.25,4.32,7.91,3.13,12.26c-1.81,6.53-4.28,12.87-7.38,18.9c0,0-4.09-1.59-10.22-4.52
		c-3.87-1.84-6.63-5.43-7.42-9.64c-0.86-4.62-2.35-9.5-4.82-10.93c-2.47-1.43-4.47,1.25-5.84,4.37c-0.92,2.21-3.45,3.26-5.66,2.34
		c-0.32-0.13-0.62-0.3-0.9-0.51c-3.06-2.2-5.99-4.57-8.79-7.09c-1.66-1.51-1.88-4.05-0.49-5.82c3-3.86,5.82-8.46,4.66-11.11
		s-6.25-2.59-11.22-2.04c-4.1,0.5-7.83-2.41-8.33-6.51c0-0.01,0-0.03-0.01-0.04l0,0C966.41,396.74,1001.75,417.95,1001.75,417.95z"
		/>
	<path class="st4" d="M893.57,639.05c0,13.81,2.17,22.76,5.82,28.48c2.84,4.27,7.66,6.81,12.79,6.74h20
		c5.13,0.07,9.95-2.47,12.79-6.74c3.64-5.72,5.8-14.67,5.8-28.48c0-20.02-8.72-36.06-11.58-48.87c-1.02-4.62,2.39-18.73,2.39-18.73
		h-38.82c0,0,3.43,14.12,2.39,18.73C902.32,603.03,893.57,619.07,893.57,639.05z"/>
	<path class="st5" d="M922.17,558.02c0-17.39,27.27-10.22,34.14-37.16c2.62-10.22-19.57-33.36-19.57-33.36h69.16
		c0,0-22.19,23.15-19.57,33.36c6.86,26.99,34.14,19.78,34.14,37.16c0,19.16-38.47,59.04-40.33,103.95
		c-0.16,4.09,7.25,12.26,7.25,12.26h-32.12c0,0,7.4-8.32,7.23-12.26C960.67,617.07,922.17,577.19,922.17,558.02z"/>
	<path class="st4" d="M1027.66,603.22c-4.09-8.44,4.29-37.18,4.29-37.18H1002c0,0,8.29,28.75,4.29,37.18
		c-2.84,5.97-9.3,9.79-9.3,16.86v42.43c0,10.99,8.99,11.81,19.98,11.81s19.98-0.82,19.98-11.81v-42.43
		C1036.95,613,1030.5,609.2,1027.66,603.22z"/>
	<path class="st1" d="M985.18,479.02c0,0,19.7-14.85,23.21,5.88c0.55,3.24,0.55,6.55,0,9.79c-3.43-2.96-10.93-8.81-12.42-4.9
		c-1.18,3.13,2.04,10.07,4.58,14.93c1.49,2.63,1.3,5.89-0.49,8.34c-2.65,3.63-5.69,6.95-9.07,9.91c0,0-2.51-2.04-6.13-5.21
		c-2.21-1.93-3.33-4.81-3.02-7.72c0.39-3.04,0.41-6.39-0.98-7.89c-1.39-1.49-3.33-0.29-4.92,1.33c-1.36,1.24-3.47,1.14-4.7-0.22
		c-0.06-0.07-0.12-0.14-0.18-0.21c-1.62-2.06-3.12-4.21-4.49-6.44c-0.8-1.21-0.46-2.83,0.74-3.62c0.05-0.03,0.1-0.07,0.16-0.1
		c2.88-1.68,5.78-3.84,5.58-5.76c-0.2-1.92-3.74-3.06-7.27-3.86c-2.83-0.52-4.73-3.18-4.31-6.03l0,0
		C965.59,457.57,985.18,479.02,985.18,479.02z"/>
</g>
<g id="freepik--Shadow--inject-67">
	<ellipse id="freepik--path--inject-67" class="st2" cx="670.92" cy="735.87" rx="396.13" ry="23.13"/>
</g>
<g id="freepik--character-3--inject-67">
	<rect x="939.6" y="213.54" class="st6" width="8.99" height="26.19"/>
	<path class="st6" d="M914.74,198.67c0.79-7.36,7.07-12.9,14.46-12.77c0.9,0,6.97,0,8.07,0c0.96-0.03,1.91,0.03,2.86,0.16
		c2.94,0.41,5.43,0.67,7.78,0.82c2.35,0.14,4.92-0.41,7.99-0.82c1.08-0.14,9.75-0.16,10.5-0.16c7.5,0,12.63,4.7,11.79,12.77v0.41
		c-0.92,8.89-8.87,18.39-17.82,19.63c-5.4,0.85-10.88,1.14-16.34,0.86c-5.42,0.29-10.86,0.01-16.22-0.86
		c-8.64-1.18-14.3-10.75-12.99-19.63L914.74,198.67z"/>
	<path class="st6" d="M976.3,225.43c-1.18,0-6.72-0.1-8.46,0c-1.48,0.08-2.94,0.32-4.37,0.72c-6.8,1.96-13.78,3.24-20.84,3.82
		c-6.75-0.55-13.42-1.83-19.9-3.82c-1.79-0.52-3.65-0.76-5.52-0.74c-1.25,0-6.5,0-7.89,0c-6.66-0.17-12.3,4.9-12.83,11.54
		l-12.38,81.72h76.35c6.91,0.02,13.67-2.02,19.43-5.84c2.38-25.29,4.77-50.58,7.15-75.86C987.78,229.19,983.26,225.17,976.3,225.43z
		"/>
	<path class="st7" d="M927.67,218.71c8.12,1.33,16.4,1.33,24.52,0c8.95-1.18,16.9-10.75,17.82-19.63v-0.41
		c0.92-8.89-5.39-13.77-14.12-12.61c-7.93,1.29-16.02,1.29-23.94,0c-7.93-1.5-15.57,3.71-17.07,11.63
		c-0.06,0.32-0.11,0.65-0.15,0.97v0.41C913.41,207.97,919.03,217.53,927.67,218.71z"/>
	<path class="st7" d="M963.46,226.15c-19.86,5.29-30.36,5.29-48.91,0c-8.89-2.53-16.65,1.43-18.06,10.81l-12.38,81.72h76.35
		c3.7,0,7.37-0.58,10.89-1.72c2.49-26.67,5-53.33,7.52-79.99C979.75,227.58,972.92,223.62,963.46,226.15z"/>
	<polygon class="st8" points="840.92,278.27 826.84,279.62 805.29,274.55 797.47,287.44 802.49,290.01 809.52,287.85 819.22,289.77 
		827.97,288.4 844.58,288.81 	"/>
	<path class="st9" d="M835.22,277.74l3.35,12.03c0,0,24.27,3.29,33.81-0.88c9.54-4.17,2.33-74.61-6.84-73.84
		c-9.17,0.78-4.09,39.74-4.09,51.98C861.41,276.39,835.22,277.74,835.22,277.74z"/>
	<path class="st10" d="M835.22,277.74l3.35,12.03c0,0,24.27,3.29,33.81-0.88c9.54-4.17,2.33-74.61-6.84-73.84
		c-9.17,0.78-4.09,39.74-4.09,51.98C861.41,276.39,835.22,277.74,835.22,277.74z"/>
	<path class="st9" d="M863.72,215.16c-9.19,13.14,11.95,33.79,12.38,103.5h68.22c2.04-18.82,9.03-92.63-0.8-106.57
		C932.23,196.12,872.49,202.61,863.72,215.16z"/>
	<path class="st9" d="M885.79,202.69c0,0-16.34,6.13-1.55,20.59l7.89-3.23l11.34,3.23C903.46,223.29,932.21,191.62,885.79,202.69z"
		/>
	<path class="st10" d="M885.79,202.69c0,0-16.34,6.13-1.55,20.59l7.89-3.23l11.34,3.23C903.46,223.29,932.21,191.62,885.79,202.69z"
		/>
	<path class="st8" d="M888.06,217.47c-4.09-3.29-8.66-8.32-4.72-11.6c8.11-1.92,16.41-2.98,24.74-3.17
		c2.31,1.51,1.02,5.48-11.3,14.89C894.19,219.58,890.58,219.52,888.06,217.47z"/>
	<path class="st8" d="M883.87,196.65l13.69-14.85c1.31,11.4,7.38,20.74,8.6,21.13l-1.49,5.21c-16.59,18.65-20.43,0.76-20.43,0.76
		C888.28,205.49,883.87,196.65,883.87,196.65z"/>
	<path class="st11" d="M892.08,187.74l6.37-0.63c0,0-0.27,19.12-13.36,20.76c2.43-3.86-1.23-11.22-1.23-11.22L892.08,187.74z"/>
	<path class="st8" d="M895.7,165.43c2.96,13.53,5.39,21.25,0.72,30.2c-4.53,8.85-15.37,12.35-24.22,7.82
		c-3.24-1.66-5.9-4.26-7.63-7.45c-6.13-10.99-10.03-31.24,1.31-40.66c7.57-6.62,19.07-5.85,25.69,1.71
		C893.64,159.44,895.07,162.32,895.7,165.43L895.7,165.43z"/>
	<path class="st6" d="M876.9,175.56c0.31,1.08,0,2.04-0.74,2.31s-1.51-0.47-1.82-1.55c-0.31-1.08,0-2.04,0.74-2.29
		C875.82,173.78,876.57,174.5,876.9,175.56z"/>
	<path class="st6" d="M864.81,179.46c0.33,1.08,0,2.04-0.72,2.29c-0.72,0.25-1.51-0.47-1.84-1.55c-0.33-1.08,0-2.04,0.76-2.29
		C863.76,177.67,864.5,178.38,864.81,179.46z"/>
	<path class="st6" d="M879.47,170.43c0.1-0.04,0.2-0.08,0.29-0.14c0.25-0.25,0.25-0.66,0-0.92l0,0c-1.67-1.3-3.88-1.7-5.9-1.06
		c-0.34,0.12-0.51,0.5-0.39,0.84l0,0c0.11,0.33,0.47,0.51,0.8,0.4c0.01,0,0.02-0.01,0.04-0.01l0,0c1.57-0.49,3.29-0.18,4.6,0.82
		C879.07,170.48,879.28,170.51,879.47,170.43z"/>
	<path class="st6" d="M858.51,176.93c0.2-0.08,0.34-0.26,0.37-0.47c0.23-1.71,1.24-3.22,2.74-4.09c0.3-0.21,0.38-0.63,0.18-0.94
		c-0.17-0.22-0.46-0.33-0.74-0.27l0,0c-1.87,1.03-3.15,2.87-3.45,4.99c-0.06,0.36,0.18,0.69,0.53,0.76l0,0
		C858.26,176.97,858.39,176.98,858.51,176.93z"/>
	<path class="st6" d="M877.82,192.6c-0.6,0.17-1.22,0.29-1.84,0.37c-0.19,0.03-0.37-0.09-0.4-0.28c0-0.01,0-0.02,0-0.03l0,0
		c-0.02-0.21,0.12-0.4,0.33-0.43c3.19-0.33,6.02-2.16,7.64-4.92c0.08-0.18,0.28-0.26,0.46-0.18c0.01,0,0.02,0.01,0.03,0.02
		c0.19,0.08,0.27,0.3,0.19,0.49c0,0,0,0,0,0C882.83,190.08,880.53,191.87,877.82,192.6z"/>
	<path class="st12" d="M869.01,178.77c-0.34,3.71-1.17,7.37-2.45,10.87c1.8,0.59,3.76,0.36,5.37-0.63L869.01,178.77z"/>
	<path class="st6" d="M888.34,145.2c-43.56-8.38-30.81,27.11-30.81,27.11s0.33-6.13,6.01-6.13c3.94-0.31,7.67-1.87,10.66-4.45
		c-2.01,2.42-4.66,4.24-7.64,5.25c7.82,0.07,15.13-3.87,19.37-10.44c0.2,1,0.33,2.01,0.39,3.02c0,4.99,4.09,7.68,6.13,14.49
		c2.04,6.8,10.11,0,10.11,0C913.84,145.02,888.34,145.2,888.34,145.2z"/>
	<path class="st8" d="M903.87,175.03c-0.06,3.09-1.29,6.05-3.43,8.27c-2.82,2.88-6.13,0.72-6.8-3.11c-0.67-3.45,0-9.07,3.62-10.5
		C900.87,168.27,903.91,171.19,903.87,175.03z"/>
	<path class="st6" d="M889.16,147.16c0,0-9.21-11.24-15.59-8.17C867.2,142.06,885.07,142.59,889.16,147.16z"/>
	<polygon class="st8" points="888.36,280.62 874.28,281.97 852.73,274.73 842.76,285.48 847.77,288.03 856.96,288.03 866.68,292.1 
		875.41,290.75 892.02,291.16 	"/>
	<path class="st9" d="M940.07,210.95c-4.52-3.09-9.36,0-14.3,28.11c-5.82,33.49-9.68,35-43.15,41l3.64,12.03
		c0,0,28.6,3.53,42.39-5.45C942.44,277.65,952.29,219.28,940.07,210.95z"/>
	<path class="st10" d="M940.07,210.95c-4.52-3.09-9.36,0-14.3,28.11c-5.82,33.49-9.68,35-43.15,41l3.64,12.03
		c0,0,28.6,3.53,42.39-5.45C942.44,277.65,952.29,219.28,940.07,210.95z"/>
	<path class="st6" d="M899.37,295.47H712.66c1.2,3.28,2.89,6.37,5.01,9.15h181.71c2.53,0,4.58-2.04,4.58-4.57
		c0-2.53-2.04-4.58-4.57-4.58C899.38,295.47,899.38,295.47,899.37,295.47z"/>
	<path class="st13" d="M899.37,295.47H712.66c1.2,3.28,2.89,6.37,5.01,9.15h181.71c2.53,0,4.58-2.04,4.58-4.57
		c0-2.53-2.04-4.58-4.57-4.58C899.38,295.47,899.38,295.47,899.37,295.47z"/>
	<path class="st6" d="M745.76,318.66h149.33v-14.04H717.66C724.3,313.46,734.7,318.66,745.76,318.66z"/>
	<path class="st14" d="M745.76,318.66h149.33v-14.04H717.66C724.3,313.46,734.7,318.66,745.76,318.66z"/>
	<path class="st6" d="M870.59,289.52H761.79c-1.64,0.14-2.86,1.58-2.73,3.22c0.12,1.45,1.27,2.61,2.73,2.73h108.79
		c1.64,0.14,3.08-1.08,3.22-2.73c0.14-1.64-1.08-3.08-2.73-3.22C870.92,289.51,870.75,289.51,870.59,289.52z"/>
	<path class="st15" d="M870.59,289.52H761.79c-1.64,0.14-2.86,1.58-2.73,3.22c0.12,1.45,1.27,2.61,2.73,2.73h108.79
		c1.64,0.14,3.08-1.08,3.22-2.73c0.14-1.64-1.08-3.08-2.73-3.22C870.92,289.51,870.75,289.51,870.59,289.52z"/>
	<path class="st6" d="M763.41,293.65h37.18c0.78,0,1.41-0.63,1.41-1.41c0-0.16-0.03-0.32-0.08-0.47l-20.43-58.25
		c-0.55-1.61-2.08-2.69-3.78-2.68h-37.18c-0.77-0.01-1.4,0.6-1.41,1.37c0,0.17,0.03,0.33,0.08,0.49l20.43,58.27
		C760.21,292.56,761.72,293.63,763.41,293.65z"/>
	<path class="st16" d="M763.41,293.65h37.18c0.78,0,1.41-0.63,1.41-1.41c0-0.16-0.03-0.32-0.08-0.47l-20.43-58.25
		c-0.55-1.61-2.08-2.69-3.78-2.68h-37.18c-0.77-0.01-1.4,0.6-1.41,1.37c0,0.17,0.03,0.33,0.08,0.49l20.43,58.27
		C760.21,292.56,761.72,293.63,763.41,293.65z"/>
	<path class="st6" d="M761.61,293.65h37.2c0.79-0.02,1.42-0.67,1.4-1.46c0-0.14-0.03-0.28-0.07-0.42l-20.43-58.25
		c-0.55-1.61-2.08-2.69-3.78-2.68h-37.18c-0.78,0-1.41,0.64-1.4,1.42c0,0.15,0.03,0.3,0.07,0.44l20.43,58.27
		C758.43,292.56,759.92,293.62,761.61,293.65z"/>
	<path class="st10" d="M761.61,293.65h37.2c0.79-0.02,1.42-0.67,1.4-1.46c0-0.14-0.03-0.28-0.07-0.42l-20.43-58.25
		c-0.55-1.61-2.08-2.69-3.78-2.68h-37.18c-0.78,0-1.41,0.64-1.4,1.42c0,0.15,0.03,0.3,0.07,0.44l20.43,58.27
		C758.43,292.56,759.92,293.62,761.61,293.65z"/>
	<path class="st17" d="M765.78,262.25c0.47,2.23,2.04,4.09,3.45,4.09s2.19-1.82,1.72-4.09s-2.04-4.09-3.45-4.09
		C766.08,258.16,765.31,260,765.78,262.25z"/>
	<path class="st7" d="M805.39,295.47c-1.64-0.14-2.86-1.58-2.73-3.22c0.12-1.45,1.27-2.61,2.73-2.73h65.21
		c1.64-0.14,3.08,1.08,3.22,2.73c0.14,1.64-1.08,3.08-2.73,3.22c-0.16,0.01-0.33,0.01-0.49,0H805.39z"/>
	<rect x="731.84" y="197.48" class="st9" width="7.46" height="16.24"/>
	<rect x="821.17" y="197.48" class="st9" width="7.46" height="16.24"/>
	<path class="st9" d="M783.84,166.08h-0.88c1.76-26.09-2.04-34.57-5.68-37.08c-1.13-0.87-2.61-1.13-3.96-0.69l-0.35-0.8
		c1.63-0.58,3.44-0.28,4.8,0.78C781.53,130.88,785.62,139.58,783.84,166.08z"/>
	<path class="st9" d="M778.83,163.45c-0.86-22.19,2.98-30.48,6.37-33.51c1.06-1.11,2.55-1.72,4.09-1.65l-0.12,0.88
		c-1.28-0.01-2.5,0.52-3.35,1.47c-3.21,2.94-6.86,11.01-6.03,32.69L778.83,163.45z"/>
	<path class="st9" d="M782.61,163.45h-0.86c0.9-13.32-0.76-21.25-4.76-22.92c-5.25-2.21-13.08,6.56-13.16,6.66l-0.65-0.59
		c0.33-0.37,8.32-9.32,14.14-6.89C781.77,141.5,783.57,149.51,782.61,163.45z"/>
	<path class="st9" d="M780.41,164.31c0-8.17,1.7-13.26,5.07-15.02c3.78-2.04,8.17,0.94,8.36,1.08l-0.51,0.72
		c0,0-4.09-2.78-7.44-1.02c-3.35,1.76-4.6,6.39-4.6,14.3L780.41,164.31z"/>
	<g class="st18">
		<path d="M783.84,166.08h-0.88c1.76-26.09-2.04-34.57-5.68-37.08c-1.13-0.87-2.61-1.13-3.96-0.69l-0.35-0.8
			c1.63-0.58,3.44-0.28,4.8,0.78C781.53,130.88,785.62,139.58,783.84,166.08z"/>
		<path d="M778.83,163.45c-0.86-22.19,2.98-30.48,6.37-33.51c1.06-1.11,2.55-1.72,4.09-1.65l-0.12,0.88
			c-1.28-0.01-2.5,0.52-3.35,1.47c-3.21,2.94-6.86,11.01-6.03,32.69L778.83,163.45z"/>
		<path d="M782.61,163.45h-0.86c0.9-13.32-0.76-21.25-4.76-22.92c-5.25-2.21-13.08,6.56-13.16,6.66l-0.65-0.59
			c0.33-0.37,8.32-9.32,14.14-6.89C781.77,141.5,783.57,149.51,782.61,163.45z"/>
		<path d="M780.41,164.31c0-8.17,1.7-13.26,5.07-15.02c3.78-2.04,8.17,0.94,8.36,1.08l-0.51,0.72c0,0-4.09-2.78-7.44-1.02
			c-3.35,1.76-4.6,6.39-4.6,14.3L780.41,164.31z"/>
	</g>
	<path class="st6" d="M760.61,161.96l3.76,21.49c0.86,4.9,5.12,8.47,10.09,8.46h14.96c4.98,0.01,9.24-3.56,10.09-8.46l3.84-21.49
		H760.61z"/>
	<path class="st15" d="M760.61,161.96l3.76,21.49c0.86,4.9,5.12,8.47,10.09,8.46h14.96c4.98,0.01,9.24-3.56,10.09-8.46l3.84-21.49
		H760.61z"/>
	<path class="st9" d="M774.87,127.67c0,0,8.89-14.91-6.74-15.12c-2.24-0.02-4.48,0.29-6.64,0.9c2.04,1.39,5.31,3.92,3.62,4.56
		c-1.7,0.63-8.17-0.61-11.16-1.29c-5.09,3.14-9.56,7.18-13.22,11.91c3.16,2.97,6.53,5.7,10.09,8.17c1.55-1.55,3.9-3.49,5.25-2.74
		c1.35,0.76,2.8,4.94,3.68,7.91c2.93,1.42,6.06,2.38,9.28,2.86c0-2.37,0-6.13,1.1-6.84c1.1-0.72,5.29,3.33,7.62,5.72
		C789.68,138.5,774.87,127.67,774.87,127.67z"/>
	<path class="st19" d="M774.87,127.67c0,0,8.89-14.91-6.74-15.12c-2.24-0.02-4.48,0.29-6.64,0.9c2.04,1.39,5.31,3.92,3.62,4.56
		c-1.7,0.63-8.17-0.61-11.16-1.29c-5.09,3.14-9.56,7.18-13.22,11.91c3.16,2.97,6.53,5.7,10.09,8.17c1.55-1.55,3.9-3.49,5.25-2.74
		c1.35,0.76,2.8,4.94,3.68,7.91c2.93,1.42,6.06,2.38,9.28,2.86c0-2.37,0-6.13,1.1-6.84c1.1-0.72,5.29,3.33,7.62,5.72
		C789.68,138.5,774.87,127.67,774.87,127.67z"/>
	<path class="st15" d="M774.87,127.67c0,0,8.89-14.91-6.74-15.12c-2.24-0.02-4.48,0.29-6.64,0.9c2.04,1.39,5.31,3.92,3.62,4.56
		c-1.7,0.63-8.17-0.61-11.16-1.29c-5.09,3.14-9.56,7.18-13.22,11.91C757.75,121.4,774.87,127.67,774.87,127.67z"/>
	<path class="st9" d="M793.36,137.77c1.63-0.47,3.68,2.82,4.74,4.78c3.43-1.53,6.6-3.6,9.38-6.13c-0.76-1.68-1.61-3.96-1.06-4.84
		c0.55-0.88,3.51-0.18,5.64,0.47c1.93-2.02,3.72-4.16,5.37-6.42c-1.62-1.31-3.34-2.5-5.13-3.55c-3.06,0.35-7.4,0.61-8.46-0.45
		s1.29-2.04,2.98-2.35c-2.85-1.26-5.86-2.11-8.95-2.51c-0.41,1.39-1.31,3.53-2.96,3.53c-1.65,0-3.39-1.86-4.54-3.23
		c-12.79,2.76-2.64,11.91-2.64,11.91s-11.01,13.08,2.04,14.81C790.5,141.61,791.81,138.22,793.36,137.77z"/>
	<path class="st7" d="M793.36,137.77c1.63-0.47,3.68,2.82,4.74,4.78c3.43-1.53,6.6-3.6,9.38-6.13c-0.76-1.68-1.61-3.96-1.06-4.84
		c0.55-0.88,3.51-0.18,5.64,0.47c1.93-2.02,3.72-4.16,5.37-6.42c-1.62-1.31-3.34-2.5-5.13-3.55c-3.06,0.35-7.4,0.61-8.46-0.45
		s1.29-2.04,2.98-2.35c-2.85-1.26-5.86-2.11-8.95-2.51c-0.41,1.39-1.31,3.53-2.96,3.53c-1.65,0-3.39-1.86-4.54-3.23
		c-12.79,2.76-2.64,11.91-2.64,11.91s-11.01,13.08,2.04,14.81C790.5,141.61,791.81,138.22,793.36,137.77z"/>
	<path class="st15" d="M803.84,121.69c-1.12-1.12,1.29-2.04,2.98-2.35c-2.85-1.26-5.86-2.11-8.95-2.51
		c-0.41,1.39-1.31,3.53-2.96,3.53c-1.65,0-3.39-1.86-4.54-3.23c-12.79,2.76-2.64,11.91-2.64,11.91s16.61-6.13,29.69-3.35
		c-1.62-1.31-3.34-2.5-5.13-3.55C809.23,122.48,804.9,122.75,803.84,121.69z"/>
	<path class="st9" d="M812.07,149.25c-1.78,0.96-5.19,2.51-6.56,1.14s0.72-7.15,1.76-9.54c-1.58-1.98-3.6-3.57-5.88-4.66
		c-13.89-6.13-9.17,13.81-9.17,13.81s-17.47,4.23-6.23,15.06c0.83,0.74,1.7,1.42,2.62,2.04c0.88-2.04,2.59-5.5,4.31-5.03
		c1.72,0.47,1.06,4.9,0.49,7.66c2.95,1.21,6.06,2.01,9.23,2.37c0.41-2.04,1.18-4.52,2.43-4.45c1.25,0.06,3.06,2.88,4.09,4.82
		c2.63-0.02,5.25-0.26,7.85-0.72C816.43,164.06,814.77,156.48,812.07,149.25z"/>
	<path class="st7" d="M792.22,150c0,0-17.47,4.23-6.23,15.06c0.83,0.74,1.7,1.42,2.62,2.04c0.88-2.04,2.59-5.5,4.31-5.03
		c1.72,0.47,1.06,4.9,0.49,7.66c2.95,1.21,6.06,2.01,9.23,2.37c0.41-2.04,1.18-4.52,2.43-4.45c1.25,0.06,3.06,2.88,4.09,4.82
		c2.63-0.02,5.25-0.26,7.85-0.72C812.08,161.41,803.11,153.54,792.22,150z"/>
	<path class="st9" d="M764.96,145.75c0,0-9.4-15.55-16.34-1.53c-1.08,2.23-1.81,4.6-2.17,7.05c2.88-1.27,9.05-3.6,9.13-0.45
		s-6.52,9.91-8.74,11.97c0.9,4.55,2.43,8.96,4.54,13.1c2.85-1.12,5.63-2.41,8.34-3.84c0.27-2.51,0.98-7.5,2.84-8.6
		s3.29,2.9,3.76,4.74c2.95-1.9,5.69-4.11,8.17-6.58c-1.8-2.04-4.27-5.31-3.53-6.99c0.74-1.68,5.86-1.04,8.68-0.45
		c0.51-1.22,0.86-2.51,1.02-3.82C782.47,135.25,764.96,145.75,764.96,145.75z"/>
	<path class="st7" d="M751.42,175.89c2.85-1.12,5.63-2.41,8.34-3.84c0.27-2.51,0.98-7.5,2.84-8.6s3.29,2.9,3.76,4.74
		c2.95-1.9,5.69-4.11,8.17-6.58c-1.8-2.04-4.27-5.31-3.53-6.99c0.74-1.68,5.86-1.04,8.68-0.45c0.51-1.22,0.86-2.51,1.02-3.82
		c1.74-15.1-15.77-4.6-15.77-4.6S754.6,155.42,751.42,175.89z"/>
	<rect x="722.65" y="190.05" class="st9" width="115.19" height="9.17"/>
	<rect x="722.65" y="190.05" class="st15" width="115.19" height="9.17"/>
	<path class="st9" d="M960.46,48.28H745.76c-24.22,0.03-43.85,19.66-43.89,43.88v191.25c0.02,24.23,19.66,43.86,43.89,43.89h214.71
		c24.23-0.02,43.86-19.66,43.89-43.89V92.16C1004.31,67.94,984.68,48.31,960.46,48.28z M995.7,283.42
		c0,19.46-15.78,35.24-35.24,35.24H745.76c-19.46,0-35.24-15.78-35.24-35.24V92.16c0-19.46,15.78-35.24,35.24-35.24h214.71
		c19.46,0,35.24,15.78,35.24,35.24V283.42z"/>
	<path class="st14" d="M960.46,48.28H745.76c-24.22,0.03-43.85,19.66-43.89,43.88v191.25c0.02,24.23,19.66,43.86,43.89,43.89h214.71
		c24.23-0.02,43.86-19.66,43.89-43.89V92.16C1004.31,67.94,984.68,48.31,960.46,48.28z M995.7,283.42
		c0,19.46-15.78,35.24-35.24,35.24H745.76c-19.46,0-35.24-15.78-35.24-35.24V92.16c0-19.46,15.78-35.24,35.24-35.24h214.71
		c19.46,0,35.24,15.78,35.24,35.24V283.42z"/>
	<path class="st9" d="M907.2,117.83h26.91c2.88,0,5.21,2.33,5.21,5.21v4.74c0,2.88-2.33,5.21-5.21,5.21H907.2
		c-2.88,0-5.21-2.33-5.21-5.21v-4.74C901.99,120.16,904.32,117.83,907.2,117.83z"/>
	<path class="st9" d="M930.65,99.07h26.91c2.88,0,5.21,2.33,5.21,5.21v4.74c0,2.88-2.33,5.21-5.21,5.21h-26.91
		c-2.88,0-5.21-2.33-5.21-5.21v-4.74C925.44,101.4,927.78,99.07,930.65,99.07z"/>
	<path class="st9" d="M922.22,136.58h26.91c2.88,0,5.21,2.33,5.21,5.21v4.74c0,2.88-2.33,5.21-5.21,5.21h-26.91
		c-2.88,0-5.21-2.33-5.21-5.21v-4.74C917.01,138.91,919.34,136.58,922.22,136.58z"/>
	<path class="st9" d="M949.31,117.83h26.91c2.88,0,5.21,2.33,5.21,5.21v4.74c0,2.88-2.33,5.21-5.21,5.21h-26.91
		c-2.88,0-5.21-2.33-5.21-5.21v-4.74C944.1,120.16,946.43,117.83,949.31,117.83z"/>
	<path class="st10" d="M907.2,117.83h26.91c2.88,0,5.21,2.33,5.21,5.21v4.74c0,2.88-2.33,5.21-5.21,5.21H907.2
		c-2.88,0-5.21-2.33-5.21-5.21v-4.74C901.99,120.16,904.32,117.83,907.2,117.83z"/>
	<path class="st20" d="M930.65,99.07h26.91c2.88,0,5.21,2.33,5.21,5.21v4.74c0,2.88-2.33,5.21-5.21,5.21h-26.91
		c-2.88,0-5.21-2.33-5.21-5.21v-4.74C925.44,101.4,927.78,99.07,930.65,99.07z"/>
	<path class="st20" d="M922.22,136.58h26.91c2.88,0,5.21,2.33,5.21,5.21v4.74c0,2.88-2.33,5.21-5.21,5.21h-26.91
		c-2.88,0-5.21-2.33-5.21-5.21v-4.74C917.01,138.91,919.34,136.58,922.22,136.58z"/>
	<path class="st10" d="M949.31,117.83h26.91c2.88,0,5.21,2.33,5.21,5.21v4.74c0,2.88-2.33,5.21-5.21,5.21h-26.91
		c-2.88,0-5.21-2.33-5.21-5.21v-4.74C944.1,120.16,946.43,117.83,949.31,117.83z"/>
	<path class="st9" d="M894.2,97.27H867.3c-2.88,0-5.21-2.33-5.21-5.21v-4.74c0-2.88,2.33-5.21,5.21-5.21h26.91
		c2.88,0,5.21,2.33,5.21,5.21v4.74C899.41,94.94,897.08,97.27,894.2,97.27z"/>
	<path class="st9" d="M879.15,116.03h-26.91c-2.88,0-5.21-2.33-5.21-5.21v-4.74c0-2.88,2.33-5.21,5.21-5.21h26.91
		c2.88,0,5.21,2.33,5.21,5.21v4.74C884.36,113.69,882.02,116.03,879.15,116.03z"/>
	<path class="st9" d="M852.06,97.27h-26.91c-2.88,0-5.21-2.33-5.21-5.21v-4.74c0-2.88,2.33-5.21,5.21-5.21h26.91
		c2.88,0,5.21,2.33,5.21,5.21v4.74C857.27,94.94,854.93,97.27,852.06,97.27z"/>
	<path class="st20" d="M894.2,97.27H867.3c-2.88,0-5.21-2.33-5.21-5.21v-4.74c0-2.88,2.33-5.21,5.21-5.21h26.91
		c2.88,0,5.21,2.33,5.21,5.21v4.74C899.41,94.94,897.08,97.27,894.2,97.27z"/>
	<path class="st20" d="M879.15,116.03h-26.91c-2.88,0-5.21-2.33-5.21-5.21v-4.74c0-2.88,2.33-5.21,5.21-5.21h26.91
		c2.88,0,5.21,2.33,5.21,5.21v4.74C884.36,113.69,882.02,116.03,879.15,116.03z"/>
	<path class="st10" d="M852.06,97.27h-26.91c-2.88,0-5.21-2.33-5.21-5.21v-4.74c0-2.88,2.33-5.21,5.21-5.21h26.91
		c2.88,0,5.21,2.33,5.21,5.21v4.74C857.27,94.94,854.93,97.27,852.06,97.27z"/>
</g>
<g id="freepik--character-2--inject-67">
	<rect x="507.51" y="134.72" class="st6" width="122.3" height="138.13"/>
	<rect x="497.71" y="272.85" class="st6" width="141.89" height="11.13"/>
	<g class="st21">
		<rect x="497.71" y="272.85" class="st17" width="141.89" height="11.13"/>
	</g>
	<rect x="507.51" y="134.72" class="st13" width="122.3" height="138.13"/>
	<rect x="516.16" y="143.36" class="st16" width="105.03" height="120.87"/>
	<g class="st18">
		<polygon class="st17" points="516.16,143.36 516.16,264.21 516.89,264.21 545.78,143.36 		"/>
		<polygon class="st17" points="606.23,143.36 600.82,143.36 571.95,264.21 577.37,264.21 		"/>
		<polygon class="st17" points="593.55,143.36 570.89,143.36 542.02,264.21 564.68,264.21 		"/>
	</g>
	<path class="st9" d="M436.84,246.11c-4.09,0.29-9.38-3.04-11.93-7.38l-2.04-3.37c-5.9-9.64-18.86-16.55-27.79-15.9l-2.23,0.16
		l-6.29,0.45l-2.23,0.16c-8.93,0.65-10.95,8.64-5.66,18.39c0.76,1.35,1.12,2.04,1.84,3.39c2.27,4.35,0.57,8.17-3.58,8.48
		c-7.15,0.51-10.22,7.13-7.4,14.93c9.07,32.18,11.56,59.25,8.17,88.71c6.49,6.03,15.02,9.38,23.88,9.38h72.53
		c2.8-36.78-2.49-67.42-17.12-104.42C453.31,251.3,444.02,245.58,436.84,246.11z"/>
	<path class="st22" d="M436.84,246.11c-4.09,0.29-9.38-3.04-11.93-7.38l-2.04-3.37c-5.9-9.64-18.86-16.55-27.79-15.9l-2.23,0.16
		l-6.29,0.45l-2.23,0.16c-8.93,0.65-10.95,8.64-5.66,18.39c0.76,1.35,1.12,2.04,1.84,3.39c2.27,4.35,0.57,8.17-3.58,8.48
		c-7.15,0.51-10.22,7.13-7.4,14.93c9.07,32.18,11.56,59.25,8.17,88.71c6.49,6.03,15.02,9.38,23.88,9.38h72.53
		c2.8-36.78-2.49-67.42-17.12-104.42C453.31,251.3,444.02,245.58,436.84,246.11z"/>
	<path class="st23" d="M436.84,246.11c-4.09,0.29-9.38-3.04-11.93-7.38l-2.04-3.37c-5.9-9.64-18.86-16.55-27.79-15.9l-2.23,0.16
		c-8.95,0.63-10.87,8.62-5.43,18.39c0.76,1.35,1.12,2.04,1.86,3.39c2.33,4.33,0.67,8.17-3.47,8.48c-7.15,0.51-10.09,7.11-7.23,14.91
		c10.22,34.57,12.65,63.33,8.17,95.51c4.61,2.12,9.62,3.22,14.69,3.23h72.53c2.8-36.78-2.49-67.42-17.12-104.42
		C453.31,251.3,444.02,245.58,436.84,246.11z"/>
	<path class="st24" d="M485.92,282.56c0,0-3.17,41.86,7.33,41.43c10.5-0.43,31.18-0.29,31.18-0.29l17.08-7.62
		c0.91-0.42,1.98-0.22,2.68,0.49l7.74,7.66c0.93,0.96,0.9,2.48-0.06,3.41c-0.46,0.44-1.07,0.68-1.7,0.68l-4.74-0.12
		c-6.37,3.41-13.64,4.8-20.82,3.98c2.45-0.74-43.21,7.74-47.89,1.27c-6.39-8.83-9.21-45.81-9.21-45.81L485.92,282.56z"/>
	<path class="st22" d="M485.92,282.56c0,0-3.17,41.86,7.33,41.43c10.5-0.43,31.18-0.29,31.18-0.29l17.08-7.62
		c0.91-0.42,1.98-0.22,2.68,0.49l7.74,7.66c0.93,0.96,0.9,2.48-0.06,3.41c-0.46,0.44-1.07,0.68-1.7,0.68l-4.74-0.12
		c-6.37,3.41-13.64,4.8-20.82,3.98c2.45-0.74-43.21,7.74-47.89,1.27c-6.39-8.83-9.21-45.81-9.21-45.81L485.92,282.56z"/>
	<path class="st6" d="M476.03,256.49c7.11-0.2,15.14,9.03,11.6,33.57l-19.57,3.72C468.06,293.77,461.71,257,476.03,256.49z"/>
	<path class="st23" d="M476.03,256.49c7.11-0.2,15.14,9.03,11.6,33.57l-19.57,3.72C468.06,293.77,461.71,257,476.03,256.49z"/>
	<path class="st6" d="M403.77,257c-10.71,13.79-8.95,86.34-8.17,106.01c2.02,0.36,4.07,0.54,6.13,0.55h62.19
		c5.31-69.73,27.89-90.36,19.61-103.52C475.48,247.42,416.19,240.9,403.77,257z"/>
	<path class="st24" d="M455.42,265.52c0,0,15.51-9.64,9.21-14.87c-8.12-1.91-16.42-2.97-24.76-3.17
		C437.33,249.15,439.17,253.81,455.42,265.52z"/>
	<path class="st24" d="M464.2,241.45l-13.69-14.87c-1.31,11.4-7.38,20.76-8.6,21.13l1.49,5.23c16.59,18.65,20.43,0.74,20.43,0.74
		C459.69,250.3,464.2,241.45,464.2,241.45z"/>
	<path class="st11" d="M455.89,232.48l-6.37-0.65c0,0,0.27,19.12,13.36,20.78c-2.43-3.86,1.23-11.22,1.23-11.22L455.89,232.48z"/>
	<path class="st24" d="M452.27,210.23c-2.96,13.5-5.39,21.25-0.72,30.18c4.51,8.85,15.33,12.37,24.18,7.86
		c3.26-1.66,5.94-4.28,7.67-7.5c6.13-10.99,10.01-31.24-1.31-40.66c-7.56-6.62-19.04-5.85-25.66,1.7c-2.12,2.42-3.56,5.36-4.17,8.51
		L452.27,210.23z"/>
	<path class="st6" d="M471.09,220.37c-0.31,1.06,0,2.04,0.74,2.29c0.74,0.25,1.51-0.47,1.82-1.53c0.31-1.06,0-2.15-0.74-2.31
		C472.17,218.65,471.39,219.28,471.09,220.37z"/>
	<path class="st6" d="M483.16,224.31c-0.33,1.06,0,2.04,0.72,2.29s1.51-0.47,1.84-1.55c0.33-1.08,0-2.04-0.76-2.31
		C484.2,222.47,483.47,223.17,483.16,224.31z"/>
	<path class="st6" d="M468.49,215.22c-0.11-0.02-0.21-0.07-0.29-0.14c-0.25-0.25-0.25-0.65,0-0.9c0,0,0,0,0,0l0,0
		c1.66-1.32,3.88-1.72,5.9-1.06c0.33,0.11,0.51,0.47,0.4,0.8c0,0.01-0.01,0.02-0.01,0.04l0,0c-0.13,0.33-0.5,0.49-0.84,0.37l0,0
		c-1.57-0.5-3.29-0.2-4.6,0.8C468.9,215.25,468.69,215.29,468.49,215.22z"/>
	<path class="st6" d="M489.54,221.74c-0.2-0.1-0.34-0.28-0.39-0.49c-0.21-1.72-1.23-3.24-2.74-4.09c-0.29-0.21-0.36-0.62-0.16-0.92
		c0.16-0.24,0.46-0.35,0.74-0.27l0,0c1.88,1.02,3.16,2.87,3.45,4.99c0.06,0.36-0.18,0.69-0.53,0.76l0,0
		C489.78,221.75,489.66,221.76,489.54,221.74z"/>
	<path class="st6" d="M470.15,237.39c0.6,0.19,1.21,0.31,1.84,0.37c0.19,0.04,0.37-0.09,0.41-0.28c0,0,0-0.01,0-0.01l0,0
		c0.02-0.2-0.12-0.38-0.32-0.41c0,0,0,0,0,0c-3.18-0.36-6-2.18-7.64-4.92c-0.08-0.19-0.3-0.27-0.49-0.19c0,0,0,0,0,0
		c-0.18,0.1-0.26,0.32-0.18,0.51C465.13,234.9,467.44,236.67,470.15,237.39z"/>
	<path class="st25" d="M478.95,223.55c0.34,3.72,1.17,7.38,2.45,10.89c-1.8,0.58-3.76,0.35-5.37-0.63L478.95,223.55z"/>
	<path class="st6" d="M452.54,217.77c0,0,13.12,0.12,9.36-7.42c0,0,18.2,3.49,15.1-3.37c0,0,12.26,9.68,9.13,0.53
		c0,0,8.4,7.15,8.66,2.55s-4.33-7.52-4.33-7.52s10.22-8.32-4.62-8.29c0,0,3.51-12.5-13.44-2.51c0,0,2.27-12.95-10.38,0
		c0,0-17.12,0.12-13.08,5.78c0,0-10.79,3.51-4.09,7.29c0,0-8.17,7.42-2.23,10.46c0,0-7.76,10.66,3.58,9.34c0,0-4.09,9.87,0.94,7.85
		S452.54,217.77,452.54,217.77z"/>
	<path class="st24" d="M444.1,219.82c0.08,3.06,1.31,5.97,3.43,8.17c2.82,2.9,6.13,0.72,6.8-3.09c0.65-3.45,0-9.09-3.62-10.52
		C447.1,212.95,444.06,215.99,444.1,219.82z"/>
	<path class="st26" d="M466.24,341.5c0.61-4.09,1.29-8.17,2.04-11.83l-6.52-1.31l-36.39-21.31l-12.95-29.95l-5.39-11.58l-5.07,2.7
		c0,0,0,59.94,25.31,70.83C438.03,343.65,451.55,342.19,466.24,341.5z"/>
	<path class="st24" d="M424.69,280.35c0,0,7.42,37,30.65,41.17c23.23,4.17,26.56,4.09,26.56,4.09l18.73-6.13
		c1.12-0.36,2.36,0.01,3.09,0.94l4.74,6.13c0.95,1.22,0.73,2.98-0.49,3.93c-0.45,0.35-0.99,0.55-1.56,0.59l-8.01,0.53
		c-4.44,3.54-10.14,5.07-15.75,4.23c0,0-37.49,4.09-50.55-3.41c-13.06-7.5-23.41-38.25-23.41-38.25L424.69,280.35z"/>
	<path class="st6" d="M408.12,304.36c0,0-13.12-42.01-0.76-48.69s20.43,22.78,23.6,33.94L408.12,304.36z"/>
	<polygon class="st9" points="531.38,331.67 486.14,333.84 486.14,340.25 531.38,340.25 560.51,340.25 560.51,331.67 	"/>
	<polygon class="st15" points="531.38,340.25 486.14,340.25 486.14,333.84 531.38,331.67 	"/>
	<rect x="531.38" y="331.67" class="st13" width="29.13" height="8.58"/>
	<polygon class="st9" points="630.83,318.13 535.26,318.13 544.9,239.55 640.48,239.55 	"/>
	<polygon class="st15" points="630.83,318.13 535.26,318.13 544.9,239.55 640.48,239.55 	"/>
	<polygon class="st9" points="550.42,239.55 540.75,318.13 630.83,318.13 640.48,239.55 	"/>
	<polygon class="st13" points="550.42,239.55 540.75,318.13 630.83,318.13 640.48,239.55 	"/>
	<polygon class="st9" points="599.72,340.03 579.39,340.03 577.35,307.61 593.81,307.61 	"/>
	<polygon class="st15" points="599.72,340.03 579.39,340.03 577.35,307.61 593.81,307.61 	"/>
	<polygon class="st9" points="603.35,340.03 583.03,340.03 580.98,307.61 597.43,307.61 	"/>
	<polygon class="st16" points="603.35,340.03 583.03,340.03 580.98,307.61 597.43,307.61 	"/>
	<polygon class="st9" points="589.26,334.37 585.97,334.37 557.88,334.37 557.88,340.25 585.97,340.25 589.26,340.25 617.35,340.25 
		617.35,334.37 	"/>
	<polygon class="st15" points="589.26,334.37 585.97,334.37 557.88,334.37 557.88,340.25 585.97,340.25 589.26,340.25 
		617.35,340.25 617.35,334.37 	"/>
	<rect x="585.97" y="334.37" class="st9" width="31.38" height="5.88"/>
	<rect x="585.97" y="334.37" class="st13" width="31.38" height="5.88"/>
	<path class="st6" d="M467.67,349.43v14.04h148.57c11.05-0.01,21.45-5.21,28.09-14.04H467.67z"/>
	<path class="st15" d="M467.67,349.43v14.04h148.57c11.05-0.01,21.45-5.21,28.09-14.04H467.67z"/>
	<path class="st6" d="M649.32,340.25h-190.5v9.17h185.51C646.45,346.64,648.13,343.55,649.32,340.25z"/>
	<path class="st16" d="M649.32,340.25h-190.5v9.17h185.51C646.45,346.64,648.13,343.55,649.32,340.25z"/>
	<path class="st9" d="M616.25,93.08H401.54c-24.23,0.02-43.86,19.66-43.89,43.89v191.25c0.02,24.22,19.66,43.85,43.89,43.86h214.71
		c24.22-0.02,43.84-19.65,43.86-43.86V136.97C660.1,112.74,640.47,93.11,616.25,93.08z M651.49,328.22
		c-0.01,19.46-15.78,35.23-35.24,35.24H401.54c-19.47,0-35.25-15.78-35.26-35.24V136.97c0.01-19.47,15.8-35.24,35.26-35.24h214.71
		c19.47,0.01,35.24,15.8,35.24,35.26V328.22z"/>
	<path class="st14" d="M616.25,93.08H401.54c-24.23,0.02-43.86,19.66-43.89,43.89v191.25c0.02,24.22,19.66,43.85,43.89,43.86h214.71
		c24.22-0.02,43.84-19.65,43.86-43.86V136.97C660.1,112.74,640.47,93.11,616.25,93.08z M651.49,328.22
		c-0.01,19.46-15.78,35.23-35.24,35.24H401.54c-19.47,0-35.25-15.78-35.26-35.24V136.97c0.01-19.47,15.8-35.24,35.26-35.24h214.71
		c19.47,0.01,35.24,15.8,35.24,35.26V328.22z"/>
</g>
<g id="freepik--Clock--inject-67">
	<circle class="st9" cx="681.52" cy="156.84" r="56.16"/>
	<circle class="st26" cx="681.52" cy="156.84" r="56.16"/>
	<circle class="st9" cx="681.51" cy="152.93" r="56.16"/>
	
		<ellipse transform="matrix(0.2297 -0.9733 0.9733 0.2297 376.1133 781.0851)" class="st27" cx="681.51" cy="152.93" rx="47.58" ry="47.58"/>
	<path class="st6" d="M679.56,119.46c0,10.52-0.35,21.13,0,31.65c0.12,3.37,1.68,4.31,4.09,6.76L694.78,169
		c1,0.52,2.23,0.14,2.76-0.86c0.31-0.59,0.31-1.3,0-1.9l-10.36-10.34c-1.55-1.29-2.98-2.72-4.27-4.27c1.31,2.04,0.49-0.27,0.49-2.04
		v-30.14c-0.35-1.07-1.51-1.66-2.58-1.3c-0.62,0.2-1.1,0.69-1.3,1.3H679.56z"/>
</g>
<g id="freepik--character-1--inject-67">
	<path class="st6" d="M770.52,728.39L770.52,728.39c-2.6,0.01-4.78-1.97-5.03-4.56L763.88,707V567.22h13.26V707l-1.61,16.83
		C775.28,726.42,773.11,728.4,770.52,728.39z"/>
	<path class="st15" d="M770.52,728.39L770.52,728.39c-2.6,0.01-4.78-1.97-5.03-4.56L763.88,707V567.22h13.26V707l-1.61,16.83
		C775.28,726.42,773.11,728.4,770.52,728.39z"/>
	<rect x="763.88" y="583.01" class="st22" width="13.26" height="16.28"/>
	<path class="st6" d="M781.84,709.33v-5.25c-0.01-2.05-1.67-3.71-3.72-3.72H762.9c-2.05,0.01-3.71,1.67-3.72,3.72v5.25l-37.41,10.22
		c-4.53,1.25-7.68,5.37-7.68,10.07h112.84c-0.01-4.7-3.15-8.82-7.68-10.07L781.84,709.33z"/>
	<path class="st7" d="M781.84,709.33v-5.25c-0.01-2.05-1.67-3.71-3.72-3.72H762.9c-2.05,0.01-3.71,1.67-3.72,3.72v5.25l-37.41,10.22
		c-4.53,1.25-7.68,5.37-7.68,10.07h112.84c-0.01-4.7-3.15-8.82-7.68-10.07L781.84,709.33z"/>
	<path class="st22" d="M781.84,709.21v-5.13c0.01-0.17,0.01-0.34,0-0.51h-22.47c-0.01,0.17-0.01,0.34,0,0.51v5.13H781.84z"/>
	<path class="st6" d="M830.56,430.66c-24.93,0.88-46.48,22.04-49.03,46.99l-9.3,88.53c-0.94,7.07,4.03,13.56,11.1,14.5
		c0.65,0.09,1.31,0.12,1.97,0.11h75.18c8.27-0.18,15.15-6.4,16.16-14.61l9.42-89.61c2.72-25.87-16.51-46.72-42.68-45.81
		L830.56,430.66z"/>
	<path class="st7" d="M830.56,430.66c-24.93,0.88-46.48,22.04-49.03,46.99l-9.3,88.53c-0.94,7.07,4.03,13.56,11.1,14.5
		c0.65,0.09,1.31,0.12,1.97,0.11h75.18c8.27-0.18,15.15-6.4,16.16-14.61l9.42-89.61c2.72-25.87-16.51-46.72-42.68-45.81
		L830.56,430.66z"/>
	<path class="st6" d="M873.24,476.53c2.72-25.87-16.53-46.72-42.68-45.81c-24.93,0.88-46.48,22.04-49.03,46.99l-9.3,88.53
		c-0.94,7.07,4.03,13.56,11.1,14.5c0.65,0.09,1.31,0.12,1.97,0.11h62.42c8.27-0.18,15.15-6.4,16.16-14.61L873.24,476.53z"/>
	<path class="st6" d="M665.83,566.5c14.94-4.13,30.33-6.42,45.83-6.84c15.94-0.43,75.59,0,89.67,0c17.26-0.01,34.44,2.31,51.08,6.91
		c10.5,2.9,7.25,19.35-2.23,19.53c-0.84,0-180.95,0-181.63,0C658.7,586.52,655.08,569.46,665.83,566.5z"/>
	<path class="st6" d="M847.6,585.69c-30.29-8.36-62.28-8.36-92.57,0c-11.44,3.17-16.34-16.02-4.86-19.18
		c33.48-9.23,68.84-9.23,102.32,0C863.91,569.67,859.06,588.85,847.6,585.69L847.6,585.69z"/>
	<g class="st18">
		<path class="st17" d="M847.6,585.69c-30.29-8.36-62.28-8.36-92.57,0c-11.44,3.17-16.34-16.02-4.86-19.18
			c33.48-9.23,68.84-9.23,102.32,0C863.91,569.67,859.06,588.85,847.6,585.69L847.6,585.69z"/>
	</g>
	<polygon class="st28" points="643.13,631.78 630.38,668.98 619.68,665.92 628.34,626.69 	"/>
	<path class="st6" d="M619.88,663.06l13.16,3.98c0.57,0.15,0.97,0.67,0.94,1.27l-0.49,13.08c0,1.13-0.91,2.04-2.04,2.05
		c-0.03,0-0.07,0-0.1,0c-0.15,0.02-0.3,0.02-0.45,0c-5.45-1.53-10.22-3.11-17.08-4.86c-8.05-2.04-6.25-0.61-15.75-2.94
		c-5.72-1.43-5.07-8.17-2.57-7.87c11.44,1.49,15.49-1.53,20.8-4.39C617.41,662.84,618.69,662.73,619.88,663.06z"/>
	<polygon class="st22" points="636.19,652.07 623.48,648.8 628.34,626.69 643.13,631.78 	"/>
	<polygon class="st9" points="645.42,641.73 641.87,648.59 621.48,641.73 621.48,633.82 	"/>
	<polygon class="st15" points="645.42,641.73 641.87,648.59 621.48,641.73 621.48,633.82 	"/>
	<polygon class="st28" points="725.18,677.38 729.43,710.31 717.46,710.62 708.8,678.87 	"/>
	<path class="st6" d="M717.3,708.8h13.67c0.59,0,1.1,0.41,1.23,0.98l2.82,12.79c0.29,1.09-0.36,2.21-1.45,2.5
		c-0.05,0.01-0.1,0.02-0.15,0.03h-0.43c-5.68-0.1-10.71-0.43-17.75-0.45c-8.32,0-6.13,0.98-16,1.1c-5.88,0-6.95-6.64-4.45-6.97
		c11.44-1.41,14.67-4.86,19.1-8.95C714.86,709.09,716.07,708.72,717.3,708.8z"/>
	<polygon class="st22" points="713.82,697.28 708.8,678.87 725.18,677.38 727.63,696.42 	"/>
	<path class="st9" d="M766.43,479.69h-19.35c-3.19,8.68-5.25,17.73-6.13,26.93c-1.02,13.77,25.46,3.58,25.46,3.58l2.33-18.86
		L766.43,479.69z"/>
	<path class="st22" d="M766.43,479.69h-19.35c-3.19,8.68-5.25,17.73-6.13,26.93c-1.02,13.77,25.46,3.58,25.46,3.58l2.33-18.86
		L766.43,479.69z"/>
	<path class="st22" d="M755.19,479.69c5.37,28.21-4.99,26.76-4.99,26.76l5.86,4.09l10.64-2.62l2.04-16.59l-2.33-11.65H755.19z"/>
	<path class="st9" d="M805.03,477.96c0,0,19.7,32.95,16.34,60.47c-3.35,27.52-28.85,42.09-126.67-4.8c0,0-20.06,20.78-53.36,109.79
		l-16.98-5.11c0,0,19.18-102.89,36.35-132.17s93.43,5.11,99.21-0.67c5.15-5.13,0.67-25.48,0.67-25.48L805.03,477.96z"/>
	<path class="st23" d="M683.46,542.86l-5.35-4.09c0,0-18.86,10.22-9.48,39.29l0,0c5.01-10.66,10.57-21.05,16.65-31.14L683.46,542.86
		z"/>
	<path class="st9" d="M765.19,560.68c-17.77-4.25-40.86-12.79-70.57-27.05c0,0-22.94,0.31-24.52,17.37
		c-1.57,17.06,38.82,135.15,38.82,135.15l18.59-1.61c0,0-10.95-117.72-13.5-123.85H765.19z"/>
	<path class="st22" d="M765.19,560.68c-17.77-4.25-40.86-12.79-70.57-27.05c0,0-22.94,0.31-24.52,17.37
		c-1.57,17.06,38.82,135.15,38.82,135.15l18.59-1.61c0,0-10.95-117.72-13.5-123.85H765.19z"/>
	<path class="st22" d="M694.62,533.63c-2.65,0.1-5.29,0.48-7.87,1.12c12.47,10.65,26.45,19.39,41.49,25.93h36.94
		C747.41,556.43,724.39,547.89,694.62,533.63z"/>
	<polygon class="st9" points="729.7,681.47 730.21,689.11 708.55,690.8 705.47,683.53 	"/>
	<polygon class="st15" points="729.7,681.47 730.21,689.11 708.55,690.8 705.47,683.53 	"/>
	<path class="st28" d="M720.01,444.96l-21.86,12.26l-14.63-0.72c-1.31-0.06-2.56,0.59-3.27,1.7l-4.19,6.54
		c-0.58,0.91-0.73,2.03-0.41,3.06l0.1,0.31c0.55,1.87,2.48,2.97,4.37,2.49l6.37-1.53l12.69-2.43l31.03-13.5L720.01,444.96z"/>
	<path class="st6" d="M715.72,445.74c5.04,1.85,8.69,6.28,9.54,11.58c0,0,15.94-5.54,18.71-14.44c2.78-8.91,10.22-52.87-1.8-52.96
		C730.17,389.84,736.68,442.55,715.72,445.74z"/>
	<path class="st13" d="M715.72,445.74c5.04,1.85,8.69,6.28,9.54,11.58c0,0,15.94-5.54,18.71-14.44c2.78-8.91,10.22-52.87-1.8-52.96
		C730.17,389.84,736.68,442.55,715.72,445.74z"/>
	<path class="st6" d="M711.66,446.41c4.03,3.97,7.2,8.71,9.32,13.95l8.42-4.09c0,0-3.39-9.58-10.22-13.46L711.66,446.41z"/>
	<path class="st10" d="M711.66,446.41c4.03,3.97,7.2,8.71,9.32,13.95l8.42-4.09c0,0-3.39-9.58-10.22-13.46L711.66,446.41z"/>
	<path class="st6" d="M745.49,481.74c20.76,1.52,41.62,0.91,62.25-1.82c-4.35-17.02-5.05-34.77-2.04-52.08
		c5.09-28.6,31.93-45.48-34.73-44.31c-9.66,0.16-38.27-1.12-34.98,19.25C739.54,424.53,745.49,481.74,745.49,481.74z"/>
	<path class="st16" d="M745.49,481.74c20.76,1.52,41.62,0.91,62.25-1.82c-4.35-17.02-5.05-34.77-2.04-52.08
		c5.09-28.6,31.93-45.48-34.73-44.31c-9.66,0.16-38.27-1.12-34.98,19.25C739.54,424.53,745.49,481.74,745.49,481.74z"/>
	<path class="st28" d="M785.23,448.43l-31.12,9.19l-13.32-2.33c-1.4-0.24-2.82,0.33-3.68,1.47l-4.47,6.13
		c-0.66,0.89-0.89,2.03-0.63,3.11v0.18c0.45,1.95,2.34,3.2,4.31,2.86l6.37-1.08l12.81-1.55l39.35-9.19L785.23,448.43z"/>
	<path class="st6" d="M780.63,447.92c4.93,2.21,8.31,6.88,8.87,12.26c0,0,16.34-3.62,19.8-12.26s14.08-57.21,2.04-58.19
		C799.3,388.76,801.78,446.19,780.63,447.92z"/>
	<path class="st13" d="M780.63,447.92c4.93,2.21,8.31,6.88,8.87,12.26c0,0,16.34-3.62,19.8-12.26s14.08-57.21,2.04-58.19
		C799.3,388.76,801.78,446.19,780.63,447.92z"/>
	<path class="st6" d="M775.99,448.72c4.07,3.91,7.22,8.68,9.23,13.95l8.58-2.45c0,0-3.51-10.22-10.09-14.63L775.99,448.72z"/>
	<path class="st10" d="M775.99,448.72c4.07,3.91,7.22,8.68,9.23,13.95l8.58-2.45c0,0-3.51-10.22-10.09-14.63L775.99,448.72z"/>
	<path class="st6" d="M783.84,324.09c0,0-9.32-18.61,4.96-16.18c14.28,2.43,5.82,39.47,18.96,44.54
		C807.76,352.45,792.58,356.23,783.84,324.09z"/>
	<path class="st29" d="M781.16,316.25c0.58,2.7,1.48,5.33,2.68,7.82c1.63,6.77,4.4,13.23,8.17,19.08c2.15-6.76,3-17.82-3.35-24.15
		C786.23,316.57,783.67,317.23,781.16,316.25z"/>
	<path class="st9" d="M778.83,320.13c0,0,4.66-5.27,8.68,1.49c4.02,6.76-2.62,8.38-2.62,8.38L778.83,320.13z"/>
	<path class="st6" d="M782.18,355.45c0,0,2.04,7.62,7.56,2.39C795.26,352.61,785.33,358.09,782.18,355.45z"/>
	<path class="st6" d="M771.01,382.93c0,0-13.36-4.6-19.04,6.74l5.27,2.04l-2.92,3.6l10.89,7.91l18.59-6.37l-1.02-2.64l8.95-2.43
		C791.72,391.78,794.12,378.7,771.01,382.93z"/>
	<path class="st10" d="M771.01,382.93c0,0-13.36-4.6-19.04,6.74l5.27,2.04l-2.92,3.6l10.89,7.91l18.59-6.37l-1.02-2.64l8.95-2.43
		C791.72,391.78,794.12,378.7,771.01,382.93z"/>
	<path class="st28" d="M771.4,383.98c0,0-22.25-4.88-6.62,17.28C764.78,401.26,809.27,383.53,771.4,383.98z"/>
	<path class="st28" d="M780.24,358.46l-15.14,14.85c1.35,6.48-0.53,9.83-2.62,11.56v4.8c2.57,0.7,5.24,0.95,7.89,0.72
		c4.9-0.06,9.78-0.65,14.55-1.76C778.32,383.36,779.26,367.32,780.24,358.46z"/>
	<path class="st22" d="M765.25,380.2c0.45-2.28,0.4-4.63-0.14-6.89l13.5-13.26l1.33,1.53C779.94,361.58,777.22,378.48,765.25,380.2z
		"/>
	<path class="st28" d="M781.49,338.72c1.12,14.57,1.9,20.7-4.37,29.11c-9.42,12.69-27.56,10.85-33-3.09
		c-4.9-12.54-5.9-34.26,7.44-41.96c9.5-5.54,21.7-2.34,27.25,7.15C780.39,332.61,781.3,335.62,781.49,338.72z"/>
	<path class="st30" d="M751.76,353.51c-0.67,2.85-1.73,5.6-3.15,8.17c1.33,0.69,2.9,0.78,4.29,0.22L751.76,353.51z"/>
	<path class="st31" d="M762.79,343.56c0.09-0.04,0.17-0.1,0.25-0.16c0.22-0.23,0.22-0.59,0-0.82l0,0c-1.67-1.49-3.96-2.05-6.13-1.51
		c-0.29,0.11-0.45,0.43-0.37,0.74c0.1,0.3,0.42,0.46,0.72,0.37c1.77-0.4,3.63,0.08,4.99,1.29
		C762.4,343.59,762.61,343.63,762.79,343.56z"/>
	<path class="st31" d="M741.26,345.57c0.1-0.02,0.19-0.08,0.25-0.16c1.16-1.41,2.92-2.17,4.74-2.04c0.32,0.05,0.62-0.17,0.67-0.49
		l0,0c0.05-0.31-0.17-0.6-0.48-0.65c-0.01,0-0.02,0-0.03,0c-2.19-0.2-4.35,0.67-5.78,2.35c-0.23,0.22-0.23,0.58-0.01,0.81
		c0,0,0.01,0.01,0.01,0.01c0.16,0.16,0.4,0.21,0.61,0.12L741.26,345.57z"/>
	<path class="st31" d="M759.81,350.41c0.16,1.18-0.35,2.21-1.12,2.33c-0.78,0.12-1.51-0.76-1.65-2.04s0.33-2.21,1.08-2.31
		C758.87,348.28,759.63,349.22,759.81,350.41z"/>
	<path class="st31" d="M746.51,352.25c0.16,1.18-0.33,2.21-1.1,2.33s-1.51-0.76-1.68-1.94c-0.16-1.18,0.33-2.21,1.08-2.31
		C745.57,350.22,746.35,350.98,746.51,352.25z"/>
	<path class="st31" d="M745.16,350.33l-2.92-0.41C742.24,349.92,744.1,351.92,745.16,350.33z"/>
	<path class="st31" d="M758.4,348.49l-2.94-0.41C755.46,348.08,757.28,350.08,758.4,348.49z"/>
	<path class="st6" d="M760.73,362.34c0.23-0.41,0.43-0.84,0.59-1.29c0.06-0.14,0-0.3-0.14-0.37l0,0c-0.15-0.04-0.31,0.04-0.37,0.18
		c-0.81,2.31-2.68,4.09-5.03,4.78c-0.15,0.05-0.23,0.2-0.2,0.35c0.03,0.15,0.18,0.25,0.33,0.22
		C757.97,365.63,759.71,364.23,760.73,362.34z"/>
	<path class="st6" d="M782.18,355.45c0,0-7.97-4.35-8.48-16.34c-0.51-11.99-18.76-14.46-30.01-7.42c0,0-3.21-10.6,8.56-11.54
		c0,0,17.2-12.59,31.28,1.49C795.97,334.06,782.18,355.45,782.18,355.45z"/>
	<path class="st28" d="M786.49,349.73c-0.44,2.79-1.96,5.29-4.23,6.97c-3.04,2.19-5.84-0.22-6.13-3.76c-0.2-3.19,1.12-8.17,4.7-8.95
		c2.62-0.5,5.14,1.22,5.64,3.84c0,0,0,0,0,0.01C786.6,348.46,786.61,349.1,786.49,349.73z"/>
	<path class="st6" d="M744.67,329.81c0,0-3.58,8.01-6.58,0C735.09,321.8,741.69,331.61,744.67,329.81z"/>
</g>
<g id="freepik--Device--inject-67">
	<path class="st9" d="M753.87,467.43H649.49c-1.69,0-3.06,1.37-3.06,3.06s1.37,3.06,3.06,3.06h104.38c1.69,0,3.06-1.37,3.06-3.06
		S755.56,467.43,753.87,467.43z"/>
	<path class="st15" d="M753.87,467.43H649.49c-1.69,0-3.06,1.37-3.06,3.06s1.37,3.06,3.06,3.06h104.38c1.69,0,3.06-1.37,3.06-3.06
		S755.56,467.43,753.87,467.43z"/>
	<path class="st7" d="M694.47,473.56c-1.69,0-3.06-1.37-3.06-3.06s1.37-3.06,3.06-3.06h59.39c1.69,0,3.06,1.37,3.06,3.06
		s-1.37,3.06-3.06,3.06H694.47z"/>
	<path class="st9" d="M651.16,471.72h38.37c0.8,0.02,1.47-0.6,1.49-1.4c0.01-0.22-0.04-0.44-0.13-0.64l-21.04-60.13
		c-0.57-1.66-2.14-2.77-3.9-2.76h-38.31c-0.79-0.01-1.44,0.61-1.46,1.4c0,0.18,0.03,0.35,0.09,0.52l21.04,60.13
		C647.84,470.53,649.39,471.7,651.16,471.72z"/>
	<path class="st9" d="M649.3,471.72h38.39c0.81,0.01,1.48-0.64,1.48-1.46c0-0.2-0.04-0.4-0.12-0.59l-21.04-60.13
		c-0.57-1.66-2.14-2.77-3.9-2.76h-38.39c-0.8,0-1.45,0.65-1.45,1.45c0,0.16,0.03,0.32,0.08,0.47l21.04,60.13
		C645.93,470.56,647.51,471.72,649.3,471.72z"/>
	<path class="st16" d="M649.3,471.72h38.39c0.81,0.01,1.48-0.64,1.48-1.46c0-0.2-0.04-0.4-0.12-0.59l-21.04-60.13
		c-0.57-1.66-2.14-2.77-3.9-2.76h-38.39c-0.8,0-1.45,0.65-1.45,1.45c0,0.16,0.03,0.32,0.08,0.47l21.04,60.13
		C645.93,470.56,647.51,471.72,649.3,471.72z"/>
	<path class="st17" d="M653.59,439.3c0.49,2.31,2.04,4.09,3.55,4.09c1.51,0,2.29-1.86,1.8-4.09c-0.49-2.23-2.04-4.09-3.58-4.09
		C653.84,435.22,653.1,436.99,653.59,439.3z"/>
</g>
<g id="freepik--Plant--inject-67">
	<path class="st9" d="M574.94,437.65c0,0-13.12-12.16-6.13-17.43c6.99-5.27-8.17-13.38-2.76-17.33c5.41-3.94-2.66-14.16,2.04-15.85
		c4.7-1.7-1.14-7.66,2.27-10.54c4.49-3.76,3.58,15.49,8.05,15.81c4.47,0.33-4.41,10.93,1.14,12.26c5.56,1.33-2.04,13.36,3.19,13.59
		C587.97,418.38,583.15,431.46,574.94,437.65z"/>
	<path class="st16" d="M574.94,437.65c0,0-13.12-12.16-6.13-17.43c6.99-5.27-8.17-13.38-2.76-17.33c5.41-3.94-2.66-14.16,2.04-15.85
		c4.7-1.7-1.14-7.66,2.27-10.54c4.49-3.76,3.58,15.49,8.05,15.81c4.47,0.33-4.41,10.93,1.14,12.26c5.56,1.33-2.04,13.36,3.19,13.59
		C587.97,418.38,583.15,431.46,574.94,437.65z"/>
	<g class="st18">
		<path d="M570.56,381.44c1.36,7.97,2.46,15.97,3.29,24.01c1.08,9.85,3.35,22.29,0.27,31.97c-0.33,1.02,1.29,1.47,1.63,0.45
			c3.19-9.97,0.9-22.31-0.2-32.42c-0.9-8.17-2.04-16.34-3.35-24.52c-0.16-1.08-1.8-0.61-1.63,0.45V381.44z"/>
	</g>
	<path class="st9" d="M570.56,435.52c0,0-13.53-6.52-9.3-12.44c4.23-5.92-9.87-8.72-6.48-13.24c3.39-4.52-5.64-10.71-2.27-13.24
		c3.37-2.53-3.84-8.62-0.76-9.01c4.92-0.61,6.68,11.54,10.34,10.71c3.66-0.84-0.84,9.85,3.94,9.58c4.78-0.27,1.7,11.22,5.92,10.22
		C576.2,417.09,575.63,428.62,570.56,435.52z"/>
	<g class="st18">
		<path d="M554.59,393.33c6.48,13.28,13.03,27.68,15.16,42.41c0.16,1.08,1.78,0.61,1.63-0.45c-2.17-14.83-8.81-29.42-15.34-42.9
			c-0.47-0.98-1.94-0.12-1.45,0.86V393.33z"/>
	</g>
	<path class="st9" d="M581.92,435.52c0,0,13.53-6.52,9.3-12.44c-4.23-5.92,9.87-8.72,6.48-13.24c-3.39-4.52,5.64-10.71,2.27-13.24
		c-3.37-2.53,2.82-4.82,0.78-9.01c-2.04-4.19-6.7,11.54-10.36,10.71c-3.66-0.84,0.84,9.85-3.94,9.58
		c-4.78-0.27-1.7,11.22-5.92,10.22C576.28,417.09,576.86,428.62,581.92,435.52z"/>
	<path class="st7" d="M581.92,435.52c0,0,13.53-6.52,9.3-12.44c-4.23-5.92,9.87-8.72,6.48-13.24c-3.39-4.52,5.64-10.71,2.27-13.24
		c-3.37-2.53,2.82-4.82,0.78-9.01c-2.04-4.19-6.7,11.54-10.36,10.71c-3.66-0.84,0.84,9.85-3.94,9.58
		c-4.78-0.27-1.7,11.22-5.92,10.22C576.28,417.09,576.86,428.62,581.92,435.52z"/>
	<g class="st18">
		<path d="M597.78,393.33c-6.48,13.28-13.03,27.68-15.16,42.41c-0.16,1.08-1.78,0.61-1.63-0.45c2.15-14.83,8.81-29.42,15.34-42.9
			c0.47-0.98,2.04-0.12,1.45,0.86V393.33z"/>
	</g>
	<polygon class="st9" points="589.07,473.95 565.03,473.95 560.51,433.46 593.57,433.46 	"/>
	<polygon class="st15" points="589.07,473.95 565.03,473.95 560.51,433.46 593.57,433.46 	"/>
</g>
<g id="freepik--Desk--inject-67">
	<path class="st6" d="M650.28,728.39L650.28,728.39c-2.6,0-4.77-1.97-5.03-4.56L643.66,707V476.26h13.24V707l-1.59,16.83
		C655.06,726.42,652.88,728.4,650.28,728.39z"/>
	<path class="st15" d="M650.28,728.39L650.28,728.39c-2.6,0-4.77-1.97-5.03-4.56L643.66,707V476.26h13.24V707l-1.59,16.83
		C655.06,726.42,652.88,728.4,650.28,728.39z"/>
	<rect x="643.66" y="478.51" class="st22" width="13.26" height="16.28"/>
	<path class="st9" d="M661.6,709.33v-5.25c0.01-2.05-1.64-3.73-3.7-3.74c-0.01,0-0.01,0-0.02,0h-15.2c-2.05,0-3.72,1.66-3.72,3.72
		l0,0v5.25l-37.41,10.22c-4.53,1.25-7.68,5.37-7.68,10.07h112.82c-0.01-4.7-3.15-8.82-7.68-10.07L661.6,709.33z"/>
	<path class="st22" d="M661.6,709.21v-5.13c0.01-0.17,0.01-0.34,0-0.51h-22.47c-0.01,0.17-0.01,0.34,0,0.51v5.13H661.6z"/>
	<path class="st23" d="M661.6,709.33v-5.25c0.01-2.05-1.64-3.73-3.7-3.74c-0.01,0-0.01,0-0.02,0h-15.2c-2.05,0-3.72,1.66-3.72,3.72
		l0,0v5.25l-37.41,10.22c-4.53,1.25-7.68,5.37-7.68,10.07h112.82c-0.01-4.7-3.15-8.82-7.68-10.07L661.6,709.33z"/>
	<rect x="506.66" y="481.35" class="st6" width="287.23" height="7.74"/>
	<rect x="506.66" y="481.35" class="st15" width="287.23" height="7.74"/>
	<rect x="650.67" y="481.35" class="st23" width="143.22" height="7.74"/>
	<rect x="489.33" y="473.58" class="st9" width="321.88" height="7.74"/>
	<rect x="633.35" y="473.58" class="st26" width="177.87" height="7.74"/>
</g>
</svg>
