<?xml version="1.0" encoding="utf-8"?>
<!-- Generator: Adobe Illustrator 23.1.0, SVG Export Plug-In . SVG Version: 6.00 Build 0)  -->
<svg version="1.1" id="Layer_1" xmlns="http://www.w3.org/2000/svg" xmlns:xlink="http://www.w3.org/1999/xlink" x="0px" y="0px"
	 viewBox="0 0 1366 768" style="enable-background:new 0 0 1366 768;" xml:space="preserve">
<style type="text/css">
	.st0{fill:#E0E0E0;}
	.st1{fill:#F5F5F5;}
	.st2{fill:#EBEBEB;}
	.st3{fill:#263238;}
	.st4{fill:#FFFFFF;}
	.st5{fill:#FF725E;}
	.st6{opacity:0.5;}
	.st7{opacity:0.3;}
	.st8{fill:#FAFAFA;}
	.st9{fill:#455A64;}
	.st10{fill:#FFBE9D;}
	.st11{opacity:0.6;}
	.st12{opacity:0.4;}
	.st13{fill:#EB996E;}
</style>
<g id="freepik--background-complete--inject-22">
	<path class="st0" d="M698.6,151.63c1.84-0.65,3.63-1.47,5.33-2.43c4.8-2.96,8.2-7.72,9.45-13.21c0.4-1.87,0.55-3.78,0.47-5.68
		c-0.2-2.1-0.61-4.18-1.23-6.2c-1.15-4.31-2.4-9.01-3.75-14.03l-9.1-34.22l-11-41.48c-0.98-3.73-1.98-7.51-3.02-11.38
		c-0.82-3.86-2.71-7.41-5.46-10.25c-2.84-2.89-6.49-4.86-10.46-5.65c-4.13-0.71-8.38-0.33-12.31,1.12L548.38,36.97
		c-4.67,1.24-8.74,4.12-11.48,8.1c-2.72,3.92-3.93,8.69-3.42,13.43c0.34,2.36,0.87,4.7,1.57,6.98c0.62,2.35,1.22,4.68,1.83,7
		c1.22,4.64,2.43,9.25,3.62,13.81c4.78,18.33,9.38,35.87,13.78,52.66c2.22,8.4,4.35,16.57,6.4,24.52c0.69,3.9,2.37,7.56,4.88,10.63
		c2.48,2.91,5.73,5.05,9.38,6.18c7.3,2.57,14.54-0.92,21.46-2.42l19.99-5.18l60.16-15.53l16.38-4.15l4.26-1.03
		c0.97-0.23,1.47-0.3,1.47-0.3s-0.47,0.18-1.42,0.45l-4.23,1.2l-16.31,4.43l-59.98,16.03l-19.99,5.28l-10.6,2.78
		c-7.94,2.01-16.33-0.65-21.66-6.86c-2.66-3.21-4.46-7.06-5.21-11.16c-2.1-7.93-4.25-16.1-6.46-24.51
		c-4.41-16.78-9.06-34.37-13.86-52.63c-1.2-4.56-2.41-9.17-3.63-13.81c-0.62-2.31-1.24-4.64-1.85-7c-0.74-2.36-1.3-4.77-1.67-7.21
		c-0.55-5.12,0.75-10.27,3.68-14.51c2.97-4.36,7.4-7.5,12.49-8.85L657.12,6.72c4.16-1.48,8.63-1.86,12.98-1.1
		c4.25,0.89,8.13,3.03,11.15,6.15c2.91,3.02,4.91,6.79,5.78,10.9c1,3.85,2,7.65,2.97,11.38c3.88,14.99,7.5,28.82,10.8,41.53
		s6.26,24.17,8.88,34.27c1.3,5.05,2.51,9.74,3.63,14.06c0.62,2.08,1.05,4.21,1.27,6.36c0.07,1.97-0.12,3.94-0.57,5.86
		c-1.33,5.61-4.9,10.42-9.88,13.33c-1.27,0.75-2.62,1.34-4.03,1.77C699.1,151.53,698.6,151.63,698.6,151.63z"/>
	<path class="st0" d="M654.72,108.98c-0.33,0.15-0.67,0.26-1.02,0.35l-2.93,0.83l-10.93,3.02l-36.65,9.86h-0.3l-0.13-0.28
		l-2.53-5.81l-17.74-42.52l0.27,0.12l-9.8,2.5l-2.62,0.63l-0.92,0.18c0.28-0.13,0.58-0.23,0.88-0.3l2.58-0.75l9.76-2.7h0.2v0.18
		l17.98,42.43l2.47,5.88l-0.42-0.22l36.78-9.63l10.98-2.8l2.97-0.72C653.96,109.12,654.34,109.04,654.72,108.98z"/>
	<path class="st0" d="M598.69,112.38c0,0,0.08,0,0.25-0.1l0.75-0.23l2.95-0.83l11.03-3.03l38.12-10.25l-0.25,0.37
		c-0.57-6.66-1.18-13.98-1.83-21.51c-0.32-3.87-0.65-7.66-0.95-11.3l0.45,0.32l-44.98,11.8l-13.33,3.43l-3.6,0.9l-0.93,0.2
		c-0.22,0-0.32,0-0.33,0l0.32-0.1l0.92-0.28l3.58-1.02l13.33-3.63l44.98-12.03l0.4-0.12v0.42c0.3,3.63,0.62,7.43,0.95,11.3
		c0.63,7.53,1.23,14.79,1.8,21.52v0.28h-0.28l-38.18,10l-11.08,2.83l-2.98,0.73l-0.77,0.18L598.69,112.38z"/>
	<path class="st0" d="M619.6,133.28c0,0-0.18-0.43-0.62-1.15c-0.61-1-1.53-1.76-2.62-2.18c-1.6-0.61-3.4-0.39-4.8,0.6
		c-2.1,1.79-2.35,4.95-0.56,7.05c1.79,2.1,4.95,2.35,7.05,0.56c0.14-0.12,0.27-0.24,0.4-0.38c0.73-0.9,1.15-2.02,1.18-3.18
		c0-0.83-0.1-1.3,0-1.32c0.21,0.41,0.32,0.86,0.32,1.32c0.07,1.26-0.31,2.49-1.07,3.5c-1.17,1.56-3.06,2.4-5,2.22
		c-3.12-0.26-5.43-3-5.17-6.12c0.14-1.69,1.04-3.23,2.44-4.19c1.58-1.09,3.61-1.29,5.36-0.52c1.15,0.51,2.09,1.39,2.67,2.52
		C619.42,132.39,619.57,132.83,619.6,133.28z"/>
	<path class="st0" d="M652.92,124.47c0,0-0.18-0.45-0.62-1.15c-0.61-0.99-1.53-1.76-2.62-2.18c-2.58-0.99-5.47,0.3-6.45,2.88
		c-0.99,2.58,0.3,5.47,2.88,6.45c2.01,0.77,4.29,0.16,5.66-1.5c0.73-0.91,1.15-2.03,1.18-3.2c0-0.82-0.1-1.28,0-1.3
		c0.22,0.4,0.32,0.85,0.32,1.3c0.07,1.26-0.31,2.5-1.07,3.5c-1.15,1.53-3,2.37-4.91,2.22c-3.11-0.26-5.41-3-5.15-6.11
		c0.14-1.69,1.04-3.23,2.45-4.19c1.58-1.09,3.62-1.29,5.38-0.52c1.16,0.5,2.1,1.39,2.67,2.52
		C652.83,123.59,652.93,124.03,652.92,124.47z"/>
	<path class="st1" d="M955.59,749.43c-37.4-18.33-51.8-61.01-56.51-100.57c-0.78-6.66-2.58-13.33-0.33-19.66s8.91-11.31,15.23-9.45
		c5.23,1.55,8.23,6.9,11.66,11.16c4.61,5.7,10.74,9.98,17.68,12.36c4.51,1.52,9.9,2.05,13.68-0.87c5.2-4,4.65-11.93,3.62-18.46
		l-5.85-36.5c-1.05-6.53-2.1-13.19-1.02-19.71c1.08-6.51,4.68-12.96,10.63-15.66c5.95-2.7,14.19-0.3,16.48,5.9
		c0.97,2.57,0.85,5.41,1.45,8.1c0.6,2.68,2.32,5.5,5,5.86c2.68,0.37,5-1.9,6.66-4.11c5.73-7.63,9-16.83,11.98-25.94
		c2.98-9.11,5.8-18.41,10.81-26.54c5.01-8.13,12.59-15.14,21.87-17.13c9.28-1.98,20.14,2.28,23.92,11.1
		c3.78,8.81-0.07,19.03-4.8,27.46c-6.97,12.4-15.69,23.72-25.91,33.62c-1.83,1.78-3.83,3.7-4.25,6.25
		c-0.75,4.56,4.05,8.33,8.56,9.03c5.13,0.88,10.33-0.43,15.53-0.63c5.2-0.2,11.05,1.22,13.71,5.75c3.72,6.26-0.8,14.13-5.6,19.56
		c-9.61,10.85-21.01,19.98-33.7,26.97c-4.55,2.48-9.36,4.81-12.73,8.78s-4.78,10.21-1.67,14.46c3.12,4.25,9.28,4.8,14.18,3.08
		c4.9-1.72,8.98-5.13,13.49-7.68c8.46-4.78,20.16-5.95,27.11,0.93c4.56,4.53,5.98,11.58,5,17.96s-4.05,12.19-7.43,17.66
		c-11.8,19.11-28.12,35.54-47.85,45.96s-38.73,15.36-60.59,10.96"/>
	<path class="st0" d="M961.96,723.19c3.23-22.45,7.76-44.7,13.54-66.64c1.5-5.84,2.98-11.61,4.45-17.29
		c1.47-5.66,2.93-11.28,4.7-16.66c3.42-10.38,7.41-20.56,11.95-30.5c4.26-9.51,8.66-18.33,12.83-26.66
		c4.16-8.33,8.25-15.89,12.24-22.69c6.24-10.76,13.32-21,21.19-30.64c2.77-3.33,5-5.98,6.55-7.7l1.77-1.95
		c0.19-0.23,0.4-0.44,0.63-0.63c-0.16,0.25-0.34,0.49-0.53,0.72l-1.67,2.03c-1.47,1.77-3.65,4.38-6.36,7.85
		c-7.7,9.72-14.66,20.01-20.82,30.77c-3.93,6.8-7.93,14.44-12.08,22.71c-4.15,8.26-8.48,17.18-12.71,26.66
		c-4.49,9.92-8.44,20.07-11.83,30.42c-1.75,5.38-3.18,10.95-4.66,16.66c-1.48,5.71-2.93,11.45-4.43,17.28
		c-5.77,21.89-10.32,44.08-13.63,66.47"/>
	<path class="st0" d="M984.98,622.5c-0.44-0.86-0.8-1.75-1.07-2.68c-0.62-1.77-1.43-4.33-2.38-7.51
		c-1.93-6.36-4.28-15.24-6.85-24.99c-2.57-9.75-5-18.63-7.06-24.99c-1-3.17-1.83-5.71-2.43-7.48c-0.37-0.89-0.63-1.82-0.8-2.77
		c0.51,0.82,0.93,1.69,1.25,2.6c0.73,1.67,1.67,4.23,2.8,7.36c2.23,6.28,4.85,15.09,7.41,24.91s4.76,18.43,6.5,25.12
		c0.8,3.02,1.48,5.56,2.03,7.6C984.69,620.58,984.89,621.53,984.98,622.5z"/>
	<path class="st0" d="M1066.6,593.88c-1.08,0.41-2.2,0.71-3.33,0.92c-2.12,0.52-5.2,1.27-8.98,2.3c-7.56,2.02-17.93,5.16-29.2,9.13
		c-11.28,3.97-21.31,8.05-28.49,11.2c-3.6,1.53-6.48,2.87-8.48,3.77c-1.01,0.53-2.07,0.97-3.17,1.32c0.93-0.64,1.92-1.2,2.95-1.67
		c1.95-1.05,4.78-2.5,8.33-4.15c7.11-3.33,17.14-7.55,28.44-11.55c9.64-3.44,19.45-6.39,29.39-8.83c3.82-0.93,6.93-1.55,9.1-1.92
		C1064.28,594.11,1065.43,593.94,1066.6,593.88z"/>
	<path class="st0" d="M962.79,721.49c-0.29-0.27-0.53-0.59-0.73-0.93l-1.92-2.82c-1.67-2.47-3.92-6.08-6.66-10.58
		c-5.53-9-12.79-21.66-20.61-35.77c-7.81-14.11-14.99-26.82-20.27-35.94l-6.45-10.76c-0.68-1.17-1.25-2.13-1.67-2.93
		c-0.23-0.33-0.41-0.7-0.53-1.08c0.28,0.29,0.52,0.61,0.73,0.95c0.52,0.77,1.15,1.67,1.9,2.82c1.67,2.45,3.93,6.06,6.66,10.56
		c5.53,9.01,12.78,21.66,20.61,35.79c7.83,14.13,14.99,26.82,20.27,35.92l6.35,10.76l1.67,2.95
		C962.4,720.75,962.62,721.11,962.79,721.49z"/>
	<path class="st0" d="M1068.86,668.38c-0.31,0.26-0.66,0.48-1.03,0.63l-3.08,1.58l-11.36,5.71c-9.58,4.83-22.76,11.66-37.3,19.19
		c-14.54,7.53-27.79,14.26-37.48,18.89c-4.85,2.32-8.78,4.15-11.53,5.36l-3.18,1.38c-0.36,0.18-0.74,0.31-1.13,0.4
		c0.32-0.25,0.66-0.47,1.03-0.63l3.08-1.58l11.35-5.71c9.6-4.81,22.77-11.66,37.32-19.19c14.54-7.53,27.79-14.26,37.47-18.89
		c4.85-2.32,8.8-4.15,11.55-5.36l3.17-1.37C1068.07,668.6,1068.46,668.46,1068.86,668.38z"/>
	<path class="st2" d="M315.51,146.41c0,0-18.58,4.51-3.83,44.73s25.86,60.59,25.86,60.59s2.37,9.21-5.21,9.68
		c-7.58,0.47-23.54-4.1-27.94,4.55c-4.56,8.98,1.2,18.68,14.09,28.12c12.89,9.45,40.38,31.19,42.9,33.17
		c2.52,1.98,4.56,6.35-0.53,7.5c-5.1,1.15-42.23,0.53-41.47,18.16s40.98,38.07,45.33,40.38s5.21,4.38,4.55,6.85
		s-13.14,1.08-23.71,1.33c-10.56,0.25-22.77,2.42-21.47,12.56s23.72,33.82,83.57,47.08l28.12,4.33l18.33-22.01
		c36.2-49.45,37.43-82.05,31.65-90.53c-5.78-8.48-16.31-2.03-24.42,4.75c-8.11,6.78-16.56,16.04-18.69,14.64
		c-2.13-1.4-2.85-3.53-1.12-8.15c1.73-4.61,18.51-46.51,7.45-60.27c-11.06-13.76-38.55,11.21-43.15,13.73
		c-4.6,2.52-5.9-2.23-5.35-5.3c0.55-3.07,6.86-37.58,10.33-53.19c3.47-15.61,1.37-26.66-7.98-30.42
		c-9.01-3.62-18.01,10.38-24.01,14.99c-6,4.61-10.3-3.83-10.3-3.83s-5.1-22.64-20.56-62.59s-32.8-30.75-32.8-30.75"/>
	<path class="st0" d="M436.42,472.26c-11.25-29.37-30.35-81.93-47-126.96s-31.74-85.76-42.83-115.2
		c-5.55-14.68-10-26.66-13.18-34.84c-1.53-4.1-2.75-7.28-3.57-9.48c-0.4-1.07-0.7-1.88-0.92-2.48c-0.22-0.6-0.28-0.85-0.28-0.85
		s0.13,0.27,0.37,0.82l1,2.45l3.73,9.41c3.22,8.18,7.81,19.99,13.43,34.75c11.25,29.37,26.44,70.09,43.08,115.12
		s35.65,97.61,46.75,127.05"/>
	<path class="st0" d="M326.49,273.26c0.66,0.2,1.3,0.47,1.9,0.8c1.2,0.55,2.92,1.4,5,2.47c4.2,2.15,10,5.28,16.23,8.83l16.03,9.16
		l4.86,2.75c0.59,0.29,1.15,0.65,1.67,1.07c-0.66-0.18-1.3-0.43-1.9-0.77c-1.2-0.55-2.92-1.4-5-2.5c-4.2-2.2-9.9-5.38-16.16-8.95
		l-16.06-9.05l-4.88-2.72C327.56,274.07,327,273.7,326.49,273.26z"/>
	<path class="st0" d="M374.43,296.77c-0.22-0.12,5.7-12.23,13.19-27.07c7.5-14.84,13.78-26.77,13.99-26.66
		c0.22,0.12-5.7,12.23-13.19,27.07C380.93,284.95,374.7,296.87,374.43,296.77z"/>
	<path class="st0" d="M396.87,367.07c0.38-0.61,0.83-1.17,1.35-1.67l3.9-4.16c3.33-3.53,7.81-8.33,12.59-13.99
		s8.98-10.76,11.96-14.54l3.55-4.48c0.41-0.57,0.87-1.1,1.38-1.58c-0.3,0.63-0.67,1.23-1.1,1.78c-0.77,1.12-1.88,2.72-3.33,4.66
		c-2.87,3.88-6.96,9.15-11.78,14.74s-9.41,10.43-12.83,13.84c-1.67,1.67-3.1,3.07-4.1,3.98
		C397.99,366.18,397.45,366.65,396.87,367.07z"/>
	<path class="st0" d="M348.81,355.36c0.65,0,1.3,0.09,1.93,0.27l5.18,1.05c4.35,0.92,10.36,2.25,16.99,3.78
		c6.63,1.53,12.63,2.95,16.94,4.03l5.11,1.32c0.64,0.13,1.26,0.33,1.85,0.6c-0.65,0-1.29-0.09-1.92-0.27l-5.21-0.97
		c-4.36-0.92-10.38-2.25-17.01-3.78c-6.63-1.53-12.61-2.95-16.94-4.03l-5.11-1.32C350,355.89,349.39,355.66,348.81,355.36z"/>
	<path class="st0" d="M360.74,419.93c0.82,0.06,1.64,0.18,2.45,0.37l6.66,1.32c5.6,1.15,13.33,2.8,21.82,4.68
		c8.5,1.88,16.23,3.62,21.77,4.91l6.66,1.67c0.82,0.16,1.62,0.4,2.4,0.7c-0.83-0.04-1.66-0.16-2.47-0.37l-6.66-1.32
		c-5.6-1.15-13.33-2.8-21.82-4.68c-8.5-1.88-16.29-3.73-21.86-4.98l-6.66-1.67C362.25,420.43,361.48,420.22,360.74,419.93z"/>
	<path class="st0" d="M421.03,432.78c0.49-0.75,1.05-1.44,1.67-2.08l4.75-5.46c4.01-4.63,9.51-11.03,15.41-18.33
		c5.9-7.3,11.06-13.93,14.76-18.79l4.4-5.76c0.5-0.73,1.05-1.42,1.67-2.05c-0.4,0.79-0.87,1.54-1.4,2.25
		c-0.97,1.43-2.38,3.47-4.18,5.95c-3.58,5-8.68,11.66-14.58,18.98s-11.5,13.59-15.63,18.13c-2.07,2.25-3.77,4.07-5,5.28
		C422.32,431.56,421.7,432.19,421.03,432.78z"/>
</g>
<g id="freepik--Table--inject-22">
	<path class="st3" d="M1036.33,752.48c0,0.25-160.48,0.43-358.4,0.43s-358.43-0.18-358.43-0.43s160.45-0.43,358.43-0.43
		S1036.33,752.24,1036.33,752.48z"/>
</g>
<g id="freepik--Screen--inject-22">
	<path class="st4" d="M958.79,66.26h-48.31c-6.6,0.17-11.82,5.66-11.66,12.26v8.76c0.16,6.6-5.06,12.09-11.66,12.26h-94.21
		c-6.63-0.16-11.88-5.65-11.75-12.28v-8.85c0.13-6.59-5.07-12.06-11.66-12.26h-16.99h-42.3c-21.01,0-38.05,17.02-38.07,38.03
		l-0.12,610.03c0,21,17.02,38.02,38.02,38.03l248.8,0.15c21,0.02,38.03-16.99,38.05-37.98c0-0.01,0-0.02,0-0.03l0.12-610.05
		c0.03-21.01-16.98-38.06-37.98-38.08C958.97,66.26,958.88,66.26,958.79,66.26z"/>
	<path class="st3" d="M958.79,66.26c0,0,0.43,0,1.3,0c1.29,0,2.57,0.09,3.85,0.28c5.06,0.64,9.93,2.34,14.28,5
		c3.23,1.89,6.15,4.26,8.66,7.03c3.08,3.32,5.53,7.17,7.25,11.36c1.98,4.9,2.95,10.16,2.85,15.44c0,5.61,0,11.66,0,17.93
		c0,50.68,0.08,124,0.13,214.58s0,198.48,0,318.2v57.01c0.09,3.94-0.4,7.87-1.45,11.66c-1.06,3.8-2.7,7.42-4.86,10.73
		c-2.2,3.29-4.87,6.25-7.91,8.78c-6.26,5.07-13.94,8.05-21.97,8.53c-7.96,0.23-15.89,0-23.89,0.1h-48.38h-99.41h-76.52
		c-8.81,0.45-17.52-2-24.81-6.98c-7.2-5.05-12.49-12.39-14.99-20.82c-1.19-4.18-1.72-8.52-1.58-12.86V699.4c0-17.06,0-34.01,0-50.86
		c0-33.65,0-66.79,0-99.43c0-65.19,0-128.06,0-187.97s0-116.82,0-170.1c0-26.66,0-52.34,0-77.07c0-3.1,0-6.18,0-9.23
		c0-1.53,0.13-3.08,0.22-4.61c0.08-1.53,0.38-3.05,0.77-4.53c1.37-5.93,4.12-11.45,8.01-16.13c7.66-9.11,19.11-14.18,31-13.73h33.15
		h23.76c2.66-0.14,5.29,0.59,7.5,2.08c2.14,1.51,3.77,3.64,4.65,6.11c0.73,2.43,0.99,4.98,0.77,7.51v3.83
		c-0.04,1.21,0,2.42,0.12,3.63c0.36,2.38,1.42,4.6,3.05,6.36c1.52,1.78,3.55,3.03,5.81,3.6c1.12,0.27,2.27,0.39,3.42,0.35h17.24
		h50.15h22.11c1.75,0,3.53,0,5.18,0c1.65-0.21,3.24-0.78,4.65-1.67c2.73-1.73,4.66-4.5,5.33-7.66c0.27-1.53,0.37-3.08,0.3-4.63
		c0-1.53,0-3.05,0-4.55c-0.07-1.48,0-2.96,0.2-4.43c0.24-1.43,0.72-2.8,1.43-4.06c1.35-2.39,3.47-4.25,6.01-5.26
		c2.44-0.77,5.01-1.04,7.56-0.8h24.67h15.16h5.18h-5.18h-15.16h-24.67c-2.43,0-5-0.25-7.43,0.82c-2.5,1.01-4.58,2.85-5.88,5.21
		c-0.67,1.24-1.14,2.58-1.38,3.97c-0.18,1.45-0.24,2.91-0.18,4.36c0,1.5,0,3.02,0,4.55c0.06,1.58-0.04,3.16-0.3,4.71
		c-0.69,3.28-2.67,6.14-5.5,7.95c-1.47,0.91-3.13,1.48-4.85,1.67c-1.77,0.15-3.47,0-5.23,0h-89.41c-1.2,0.05-2.41-0.07-3.58-0.35
		c-2.39-0.59-4.54-1.92-6.13-3.8c-1.64-1.88-2.68-4.2-3.02-6.66c-0.1-1.1-0.14-2.2-0.12-3.3v-3.77c0.21-2.45-0.05-4.92-0.75-7.28
		c-0.83-2.34-2.37-4.36-4.4-5.78c-2.1-1.41-4.59-2.1-7.11-1.97h-56.91c-11.68-0.44-22.9,4.54-30.4,13.49
		c-3.8,4.58-6.48,9.99-7.81,15.79c-0.38,1.45-0.5,2.95-0.77,4.43c-0.27,1.48-0.18,3-0.2,4.53v9.23c0,24.72,0,50.41,0,77.07
		c0,53.31,0,110.2,0,170.1v187.97c0,32.59,0,65.73,0,99.43v63.69c-0.14,4.24,0.37,8.48,1.53,12.56c2.46,8.21,7.63,15.34,14.66,20.24
		c7.1,4.82,15.59,7.16,24.16,6.66h25.69h50.83h99.41h48.45c7.98,0,15.98,0.13,23.84-0.1c7.82-0.47,15.3-3.39,21.37-8.33
		c2.97-2.46,5.57-5.34,7.71-8.55c2.1-3.21,3.7-6.73,4.73-10.43c1.02-3.69,1.5-7.5,1.42-11.33c0-3.87,0-7.7,0-11.55
		c0-15.33,0-30.48,0-45.46c0-119.77,0.12-227.66,0.17-318.2s0.17-163.9,0.22-214.58c0-6.33,0-12.31,0-17.93
		c0.11-5.24-0.84-10.46-2.78-15.33c-1.69-4.16-4.11-7.99-7.15-11.3c-5.94-6.55-14-10.81-22.76-12.03c-1.27-0.2-2.55-0.31-3.83-0.35
		C959.22,66.31,958.79,66.26,958.79,66.26z"/>
	<path class="st3" d="M733.53,127.87c0,0.15-6.3,0.35-14.04,0.4s-14.04,0-14.04-0.17s6.28-0.35,14.04-0.42
		C727.25,127.62,733.53,127.7,733.53,127.87z"/>
	<path class="st3" d="M733.58,135.05c0,0.17-6.28,0.35-14.03,0.42c-7.75,0.07-14.04,0-14.04-0.18s6.28-0.35,14.03-0.42
		S733.58,134.88,733.58,135.05z"/>
	<path class="st3" d="M733.65,142.23c0,0.17-6.28,0.35-14.04,0.42s-14.04,0-14.04-0.18s6.28-0.35,14.04-0.42
		C727.37,141.98,733.65,142.06,733.65,142.23z"/>
	<rect x="700.71" y="598.24" class="st1" width="125.03" height="125.03"/>
	<path class="st5" d="M810.99,669.78c-10.18-14.21-31.79-23.94-49.35-21.32c-14.23,2.12-26.82,8.73-33.72,22.86
		c-1.59,3.17-0.31,7.02,2.86,8.61c0.67,0.34,1.39,0.55,2.14,0.64c23.71,2.83,47.67,2.75,71.35-0.23c3.65-0.47,8-1.48,8.25-6
		C812.54,672.68,812,671.07,810.99,669.78z"/>
	<g class="st6">
		<path class="st4" d="M810.99,669.78c-10.18-14.21-31.79-23.94-49.35-21.32c-14.23,2.12-26.82,8.73-33.72,22.86"/>
	</g>
	<path class="st1" d="M754.78,669.06c-0.08,0-0.82-0.65-1.78-1.98c-1.29-1.76-2.21-3.77-2.7-5.9c-0.42-2.12-0.6-4.27-0.53-6.43
		c-0.07-0.89,0-1.78,0.22-2.65c0.28,0.85,0.41,1.74,0.4,2.63c0.11,2.1,0.36,4.18,0.75,6.25c0.49,2.03,1.29,3.97,2.37,5.76
		C754.02,667.46,754.45,668.24,754.78,669.06z"/>
	<path class="st1" d="M769.85,668.38c-0.25,0,0.12-4.03-0.42-8.93c-0.53-4.9-1.67-8.75-1.45-8.83
		C770.44,656.2,771.09,662.41,769.85,668.38z"/>
	<path class="st1" d="M785.45,666.06c-0.25-0.1,0.93-2.78,1.22-6.31c0.28-3.53-0.37-6.38-0.12-6.45
		C788.24,657.49,787.84,662.23,785.45,666.06z"/>
	<g class="st7">
		<path d="M767.09,649.12l0.13,0.25l0,0L767.09,649.12z"/>
	</g>
	<rect x="700.71" y="194.06" class="st1" width="126.48" height="189.6"/>
	<rect x="700.71" y="397.96" class="st1" width="126.48" height="189.6"/>
	<rect x="839.24" y="362.16" class="st1" width="126.48" height="177.03"/>
	<rect x="838.21" y="551.63" class="st1" width="126.48" height="171.63"/>
	<rect x="839.24" y="194.06" class="st1" width="126.48" height="156.6"/>
	<path class="st8" d="M783.83,250.75v52.56c0,2.3-1.85,4.68-5.25,6.48c-4.55,2.14-9.55,3.18-14.58,3.03h-0.08
		c-12.41,0-19.83-4.9-19.83-9.51v-52.66c0-5.13,3.78-10.48,7.58-15.78c2.55-3.53,3.17-8.61,3.33-11.66c0-0.35,0-0.67,0-0.97h-0.35
		c-1.52,0.12-2.84-1.02-2.97-2.53v-2.22c0.12-1.52,1.44-2.67,2.97-2.57h18.64c1.13-0.03,2.18,0.56,2.73,1.55
		c0.15,0.32,0.23,0.66,0.23,1.02v2.22c-0.13,1.51-1.45,2.64-2.97,2.53h-0.43c0,0.3,0,0.62,0,0.97c0.12,3,0.73,8.08,3.33,11.66
		c3.8,5.3,7.56,10.65,7.58,15.78L783.83,250.75z"/>
	<path class="st3" d="M783.83,250.75v-0.53c-0.04-0.53-0.12-1.05-0.22-1.57c-0.45-1.99-1.19-3.9-2.2-5.66
		c-1.63-2.81-3.42-5.52-5.38-8.11c-2.29-3.79-3.45-8.15-3.33-12.58V222h0.17c1.36,0.21,2.66-0.65,3-1.98c0-0.67,0-1.48,0-2.23
		c0.08-0.7-0.2-1.39-0.75-1.83c-0.57-0.46-1.29-0.69-2.02-0.65h-7.51h-10.73c-0.85-0.07-1.68,0.22-2.3,0.8
		c-0.28,0.29-0.46,0.66-0.53,1.05c-0.03,0.46-0.03,0.91,0,1.37c0,0.47,0,1.02,0,1.4c0.05,0.41,0.23,0.79,0.52,1.08
		c0.63,0.63,1.51,0.95,2.4,0.85h0.38v0.42c-0.02,2.15-0.25,4.29-0.7,6.4c-0.43,2.21-1.29,4.31-2.52,6.2
		c-2.8,3.56-5.12,7.49-6.88,11.66c-0.38,1.08-0.62,2.2-0.73,3.33c0,1.12,0,2.35,0,3.53v7.23c0,4.89,0,9.84,0,14.86
		c0,8.83,0,17.46,0,25.79c-0.05,1-0.01,2.01,0.13,3c0.24,0.93,0.72,1.79,1.38,2.48c1.36,1.44,3,2.58,4.83,3.33
		c3.6,1.44,7.43,2.23,11.31,2.32c3.69,0.19,7.39-0.14,11-0.98c3.4-0.67,6.52-2.34,8.96-4.8c0.52-0.6,0.92-1.31,1.17-2.07
		c0.19-0.77,0.25-1.57,0.2-2.37v-4.83c0-3.17,0-6.2,0-9.1c0-11.55,0.1-20.89,0.13-27.42c0-3.2,0-5.7,0-7.46s0.08-2.6,0.08-2.6
		c0.09,0.86,0.12,1.73,0.1,2.6c0,1.77,0,4.26,0.08,7.46c0,6.53,0,15.88,0.13,27.42c0,2.9,0,5.93,0,9.1v4.83
		c0.06,0.86,0,1.73-0.2,2.57c-0.27,0.86-0.71,1.65-1.3,2.33c-2.53,2.57-5.79,4.31-9.33,5c-3.67,0.88-7.44,1.24-11.21,1.05
		c-4-0.08-7.95-0.88-11.66-2.37c-1.94-0.78-3.69-1.97-5.13-3.48c-0.76-0.8-1.3-1.78-1.58-2.85c-0.16-1.06-0.22-2.13-0.17-3.2
		c0-8.33,0-16.96,0-25.79c0-5.03,0-9.98,0-14.86v-7.23c0-1.22,0-2.35,0-3.6c0.11-1.2,0.37-2.39,0.77-3.53
		c1.79-4.25,4.15-8.23,7.01-11.85c2.15-3.67,3.22-7.88,3.1-12.13l0.4,0.4c-1.11,0.09-2.2-0.32-2.97-1.12
		c-0.39-0.41-0.64-0.94-0.72-1.5c0-0.58,0-1,0-1.5c-0.03-0.49-0.03-0.99,0-1.48c0.1-0.55,0.36-1.05,0.75-1.45
		c0.75-0.73,1.78-1.11,2.83-1.03h10.73h7.51c0.88-0.03,1.73,0.26,2.42,0.82c0.67,0.57,1.03,1.43,0.97,2.32c0,0.78,0,1.48,0,2.32
		c-0.38,1.62-1.93,2.69-3.58,2.47l0.28-0.28c-0.16,4.32,0.93,8.6,3.13,12.33c1.93,2.63,3.7,5.38,5.3,8.23c1,1.8,1.69,3.76,2.07,5.78
		c0.09,0.52,0.14,1.05,0.15,1.58C783.7,250.31,783.79,250.53,783.83,250.75z"/>
	<path class="st3" d="M771.89,222.18c-5.54,0.58-11.12,0.58-16.66,0C760.76,221.6,766.35,221.6,771.89,222.18z"/>
	<path class="st5" d="M782.16,257.77c-1.81-0.89-3.95-0.79-5.68,0.25c-1.7,1.04-3.54,1.83-5.46,2.35c-2.35,0.22-4.7-0.37-6.66-1.67
		c-1.96-1.28-4.03-2.4-6.18-3.33c-4.35-1.48-9.17-0.35-12.41,2.92v44.98c0,0,2.48,7.68,19.91,6.48c17.43-1.2,16.04-8.9,16.04-8.9
		L782.16,257.77z"/>
	<path class="st8" d="M916.82,615.48L916.82,615.48v52.13c0,2.3-1.83,4.65-5.23,6.45c-4.52,2.13-9.48,3.17-14.48,3.02l0,0
		c-12.34,0-19.71-4.88-19.71-9.46v-52.06l0,0c0,0,0,0,0-0.12c0-5.1,3.77-10.41,7.53-15.66c2.55-3.52,3.15-8.58,3.33-11.55
		c0-0.35,0-0.67,0-0.95h-0.45c-1.51,0.11-2.82-1.02-2.95-2.53v-2.2c0.12-1.51,1.44-2.65,2.95-2.53h18.53
		c1.12-0.04,2.17,0.55,2.72,1.53c0.15,0.31,0.22,0.65,0.22,1v2.2c-0.12,1.51-1.42,2.64-2.93,2.53H906c0,0.28,0,0.6,0,0.95
		c0.12,2.97,0.72,8.03,3.25,11.55c3.78,5.25,7.51,10.56,7.55,15.66C916.84,615.42,916.82,615.45,916.82,615.48z"/>
	<path class="st3" d="M916.82,615.48c0.01-0.18,0.01-0.36,0-0.53c-0.04-0.53-0.1-1.05-0.2-1.57c-0.45-1.97-1.18-3.86-2.18-5.61
		c-1.61-2.8-3.41-5.49-5.36-8.06c-2.28-3.76-3.44-8.1-3.33-12.49v-0.32h0.28c1.35,0.2,2.64-0.66,2.97-1.98c0-0.65,0-1.47,0-2.22
		c0.06-0.69-0.22-1.37-0.75-1.82c-0.57-0.45-1.28-0.68-2-0.65h-7.46h-10.66c-0.84-0.07-1.67,0.22-2.28,0.8
		c-0.28,0.29-0.47,0.65-0.53,1.05c-0.03,0.45-0.03,0.9,0,1.35c0,0.45,0,1,0,1.38c0.05,0.41,0.23,0.79,0.52,1.08
		c0.62,0.62,1.49,0.93,2.37,0.83h0.4v0.42c-0.02,2.13-0.25,4.26-0.7,6.35c-0.43,2.19-1.28,4.28-2.5,6.15
		c-2.79,3.56-5.09,7.49-6.83,11.66c-0.38,1.08-0.62,2.2-0.72,3.33c0,1.1,0,2.33,0,3.5c0,2.37,0,4.76,0,7.2v14.73
		c0,8.78,0,17.36,0,25.64c-0.05,0.99-0.01,1.98,0.13,2.97c0.25,0.93,0.72,1.78,1.38,2.48c1.35,1.44,2.98,2.57,4.8,3.33
		c3.56,1.4,7.34,2.15,11.16,2.23c3.67,0.19,7.35-0.14,10.93-0.98c3.38-0.66,6.48-2.32,8.9-4.76c0.52-0.6,0.92-1.29,1.17-2.05
		c0.18-0.77,0.24-1.56,0.18-2.35c0-1.67,0-3.23,0-4.8c0-3.15,0-6.15,0-9.03c0-11.48,0.1-20.77,0.13-27.26c0-3.18,0-5.66,0.08-7.4
		c0.08-1.73,0-2.58,0-2.58c0.1,0.86,0.13,1.72,0.1,2.58c0,1.67,0,4.21,0,7.4c0,6.48,0.08,15.78,0.15,27.26c0,2.88,0,5.88,0,9.03
		c0,1.57,0,3.17,0,4.8c0.07,0.86-0.01,1.72-0.22,2.55c-0.27,0.85-0.7,1.64-1.28,2.32c-2.51,2.56-5.74,4.31-9.26,5
		c-3.65,0.88-7.4,1.23-11.15,1.05c-3.95-0.08-7.86-0.88-11.53-2.35c-1.84-0.79-3.5-1.95-4.86-3.42c-0.75-0.8-1.28-1.77-1.57-2.83
		c-0.16-1.05-0.22-2.11-0.17-3.17V618.1c0-1.2,0-2.33,0-3.57c0.11-1.2,0.37-2.39,0.77-3.53c1.78-4.21,4.12-8.16,6.96-11.75
		c2.12-3.65,3.19-7.82,3.08-12.04l0.38,0.38c-1.09,0.09-2.17-0.31-2.93-1.1c-0.39-0.41-0.63-0.94-0.7-1.5c0-0.57,0-0.98,0-1.48
		c-0.03-0.49-0.03-0.99,0-1.48c0.11-0.54,0.37-1.04,0.75-1.43c0.75-0.73,1.77-1.11,2.82-1.03h10.66h7.46
		c0.87-0.03,1.73,0.26,2.4,0.82c0.67,0.57,1.03,1.42,0.97,2.3c0,0.78,0,1.48,0,2.3c-0.42,1.59-1.93,2.63-3.57,2.47l0.28-0.28
		c-0.15,4.29,0.92,8.53,3.1,12.23c1.94,2.61,3.69,5.34,5.26,8.18c0.99,1.79,1.69,3.73,2.07,5.75c0.09,0.52,0.13,1.04,0.13,1.57
		C916.87,615.3,916.86,615.48,916.82,615.48z"/>
	<path class="st3" d="M904.96,587.08c-5.48,0.58-11.01,0.58-16.49,0C893.95,586.5,899.48,586.5,904.96,587.08z"/>
	<path class="st5" d="M915.18,622.45c-1.8-0.89-3.93-0.8-5.65,0.23c-1.69,1.03-3.51,1.82-5.41,2.35c-2.35,0.21-4.69-0.38-6.66-1.67
		c-1.95-1.28-4.01-2.4-6.15-3.33c-4.32-1.46-9.1-0.33-12.31,2.92v44.75c0,0,2.45,7.65,19.76,6.45c17.31-1.2,15.96-8.85,15.96-8.85
		L915.18,622.45z"/>
	<g class="st6">
		<path class="st4" d="M915.18,622.45c-1.8-0.89-3.93-0.8-5.65,0.23c-1.69,1.03-3.51,1.82-5.41,2.35c-2.35,0.21-4.69-0.38-6.66-1.67
			c-1.95-1.28-4.01-2.4-6.15-3.33c-4.32-1.46-9.1-0.33-12.31,2.92v44.75c0,0,2.45,7.65,19.76,6.45c17.31-1.2,15.96-8.85,15.96-8.85
			L915.18,622.45z"/>
	</g>
	<path class="st5" d="M943.95,426.05c-1.16-0.47-2.48-0.32-3.5,0.4c-0.25,0.17-0.52,0.37-0.77,0.57
		c-8.46,6.25-18.74,9.55-29.25,9.38c-20.47,0-37.43-11.48-40.47-26.47v-2.83c0.1-1.13-0.73-2.12-1.86-2.23s-2.12,0.73-2.23,1.86
		c-0.01,0.12-0.01,0.25,0,0.37v7.93c0.01,0.19,0.05,0.37,0.12,0.55c-1.41,3.11-2.15,6.48-2.18,9.9c0,17.31,18.33,31.37,41,31.37
		c19.01,0,34.99-9.88,39.65-23.32c0.06-0.06,0.09-0.14,0.1-0.22c0.54-1.07,0.84-2.25,0.88-3.45
		C945.7,428.4,945.12,426.93,943.95,426.05z"/>
	<g class="st7">
		<path d="M868.43,417.65c0,0,19.31,44.41,71.64,13.33c0,0-13.48,13.99-31.05,17.39C893.08,451.42,869.49,442.44,868.43,417.65z"/>
	</g>
	<path class="st3" d="M945.38,428.28c-0.32,0.77-1.57,0.98-2.78,0.47s-1.95-1.57-1.67-2.33c0.28-0.77,1.57-0.97,2.78-0.45
		S945.71,427.51,945.38,428.28z"/>
	<path class="st3" d="M964.89,141.93c-0.14,0.02-0.28,0.02-0.42,0h-1.18h-4.38l-14.71,0.13h-0.12v-0.12
		c-0.12-0.78-0.23-1.67-0.37-2.43c-1.02-7.13-1.92-13.49-2.52-17.66h0.08h-5c-0.12,0.01-0.23,0.01-0.35,0h0.35h1.05h3.92h0.08v0.08
		c0.62,4.15,1.57,10.51,2.63,17.63c0.12,0.83,0.23,1.67,0.35,2.43l-0.13-0.12h14.71h5.98L964.89,141.93z"/>
	<path class="st3" d="M943.56,137.77c0,0,0,0,0.12,0h0.3h1.18h4.43l15.26-0.15l-0.13,0.12c0.43-2.58,0.92-5.36,1.4-8.23
		c0.25-1.48,0.5-2.95,0.75-4.33l0.13,0.17h-17.99h-7.15c-0.08,0-0.12,0-0.12,0h0.5h1.43h5.33l17.99-0.15h0.17v0.17l-0.73,4.31
		c-0.5,2.88-0.98,5.66-1.42,8.33v0.1h-0.12h-15.26h-6.03L943.56,137.77z"/>
	<path class="st3" d="M949.46,147.63c0,0,0-0.18-0.12-0.5c-0.13-0.43-0.4-0.81-0.77-1.07c-0.54-0.38-1.23-0.47-1.85-0.25
		c-1.01,0.38-1.52,1.5-1.14,2.51c0.2,0.53,0.61,0.94,1.14,1.14c0.62,0.24,1.32,0.14,1.85-0.27c0.36-0.26,0.62-0.64,0.75-1.07
		c0.1-0.32,0.1-0.5,0.12-0.5c0.04,0.17,0.04,0.35,0,0.52c-0.1,0.48-0.37,0.91-0.75,1.22c-0.58,0.45-1.35,0.58-2.05,0.35
		c-1.14-0.39-1.75-1.63-1.36-2.77c0.22-0.64,0.72-1.14,1.36-1.36c0.7-0.25,1.48-0.12,2.07,0.33c0.38,0.3,0.65,0.72,0.75,1.2
		C949.51,147.28,949.51,147.46,949.46,147.63z"/>
	<path class="st3" d="M962.79,147.54c0,0,0-0.18-0.12-0.48c-0.12-0.43-0.39-0.81-0.77-1.07c-0.54-0.39-1.23-0.48-1.85-0.25
		c-1.03,0.33-1.59,1.42-1.27,2.45c0.33,1.03,1.42,1.59,2.45,1.27c0.25-0.08,0.48-0.21,0.68-0.38c0.36-0.27,0.63-0.65,0.77-1.08
		c0.08-0.32,0.08-0.5,0.1-0.5c0.04,0.17,0.04,0.35,0,0.52c-0.1,0.48-0.35,0.91-0.73,1.22c-0.95,0.75-2.32,0.58-3.06-0.36
		c-0.29-0.37-0.46-0.83-0.47-1.3c0-0.93,0.58-1.76,1.45-2.08c0.69-0.25,1.47-0.12,2.05,0.33c0.39,0.29,0.66,0.72,0.75,1.2
		C962.83,147.18,962.83,147.37,962.79,147.54z"/>
	
		<ellipse transform="matrix(0.9775 -0.211 0.211 0.9775 -4.2013 206.5483)" class="st5" cx="965.86" cy="122.96" rx="5.9" ry="5.9"/>
	<path class="st4" d="M966.59,120.72v4.48h-1.05v-3.65h-0.9v-0.83H966.59z"/>
	<path class="st5" d="M748.13,666.03h172.21c12.77,0,23.12,10.35,23.12,23.12v11.1c0,12.77-10.35,23.12-23.12,23.12H748.13
		c-12.77,0-23.12-10.35-23.12-23.12v-11.1C725,676.38,735.36,666.03,748.13,666.03z"/>
	<g class="st7">
		<path d="M748.13,666.03h172.21c12.77,0,23.12,10.35,23.12,23.12v11.1c0,12.77-10.35,23.12-23.12,23.12H748.13
			c-12.77,0-23.12-10.35-23.12-23.12v-11.1C725,676.38,735.36,666.03,748.13,666.03z"/>
	</g>
	<path class="st5" d="M739.65,666.03h172.21c12.77,0,23.12,10.35,23.12,23.12v11.1c0,12.77-10.35,23.12-23.12,23.12H739.65
		c-12.77,0-23.12-10.35-23.12-23.12v-11.1C716.52,676.38,726.88,666.03,739.65,666.03z"/>
	<path class="st4" d="M819.18,691.55c0,2.93-2.13,4.71-5.65,4.71h-3.33v4.11h-1.93v-13.56h5.3
		C817.05,686.82,819.18,688.6,819.18,691.55z M817.25,691.55c0-1.95-1.3-3.05-3.78-3.05h-3.33v6.08h3.33
		C815.95,694.58,817.25,693.48,817.25,691.55L817.25,691.55z"/>
	<path class="st4" d="M829.99,696.98h-7.15l-1.48,3.33h-2l6.15-13.56h1.92l6.15,13.56h-2.03L829.99,696.98z M829.31,695.43
		l-2.92-6.66l-2.93,6.66H829.31z"/>
	<path class="st4" d="M839.91,695.68v4.7h-1.92v-4.73l-5.38-8.83h2.07l4.33,7.15l4.36-7.15h1.92L839.91,695.68z"/>
	<path class="st9" d="M768.17,462.48c2.07-13.38-7.1-25.9-20.47-27.96c-0.06-0.01-0.11-0.02-0.17-0.03
		c-0.98-0.38-2.08,0.1-2.46,1.08c-0.19,0.48-0.17,1.02,0.04,1.49c1.2,12.78,10.5,23.33,23.02,26.12"/>
	<path class="st5" d="M733.83,507.71c6.18,12.74,14.99,21.32,26.07,21.74c2.2,0,3.87-1.37,5.96-1.5c1.23,0.28,2.41,0.73,3.52,1.33
		c0.59,0.25,1.21,0.39,1.85,0.42c11.36-0.62,21.06-8.61,27.59-21.99c9.08-18.74,6.28-38.87-6.26-44.98c-1.65-0.82-3.37-1.49-5.15-2
		c-2.03-0.57-4.13-0.81-6.23-0.73c-4.89,0.31-9.71,1.4-14.26,3.22l-0.62,0.23c-10.2-4.51-18.33-4.53-26.24-0.72
		C727.52,468.84,724.74,488.97,733.83,507.71z"/>
	<path class="st8" d="M734.05,488.74c-0.59-1.17-0.94-2.45-1.03-3.77c-0.76-6.43,1.61-12.83,6.36-17.23
		c0.91-0.94,2.01-1.69,3.23-2.18c0.08,0.12-1.17,0.93-2.82,2.62c-4.3,4.45-6.54,10.49-6.18,16.66
		C733.78,487.25,734.2,488.69,734.05,488.74z"/>
	<path class="st8" d="M736.35,497.63c-0.23,0-0.63-0.83-0.9-1.97c-0.27-1.13-0.28-2.12,0-2.18c0.28-0.07,0.63,0.83,0.9,1.98
		C736.62,496.62,736.58,497.58,736.35,497.63z"/>
	<path class="st3" d="M794.11,431.81c0,0.17-2.37,1.07-5.9,3.18c-2.06,1.25-4.03,2.65-5.88,4.18c-2.22,1.92-4.27,4.03-6.13,6.3
		c-1.88,2.29-3.55,4.75-5,7.33c-1.14,2.12-2.12,4.32-2.93,6.58c-1.38,3.9-1.78,6.43-1.95,6.4c-0.01-0.61,0.06-1.21,0.2-1.8
		c0.09-0.7,0.23-1.4,0.42-2.08c0.2-0.91,0.45-1.81,0.75-2.7c0.73-2.34,1.68-4.61,2.82-6.78c2.8-5.33,6.66-10.04,11.33-13.84
		c1.89-1.54,3.91-2.91,6.03-4.1c0.81-0.47,1.65-0.89,2.52-1.27c0.63-0.32,1.28-0.59,1.95-0.83
		C792.9,432.12,793.49,431.93,794.11,431.81z"/>
	<path class="st5" d="M948.4,257.47c-10.18-14.19-31.79-23.92-49.35-21.31c-14.23,2.12-26.82,8.73-33.72,22.86
		c-1.58,3.18-0.28,7.04,2.9,8.62c0.66,0.33,1.37,0.54,2.1,0.63c23.71,2.83,47.67,2.75,71.35-0.23c3.67-0.47,8-1.48,8.25-6
		C949.95,260.38,949.41,258.77,948.4,257.47z"/>
	<path class="st3" d="M892.19,256.77c-0.08,0-0.82-0.65-1.78-1.98c-1.29-1.76-2.21-3.77-2.7-5.9c-0.42-2.12-0.6-4.27-0.53-6.43
		c-0.06-0.89,0.01-1.79,0.22-2.67c0.28,0.85,0.42,1.74,0.4,2.63c0.12,2.1,0.37,4.19,0.77,6.26c0.48,2.03,1.28,3.98,2.37,5.76
		C891.44,255.16,891.86,255.94,892.19,256.77z"/>
	<path class="st3" d="M907.28,256.07c-0.27,0,0.1-4.03-0.42-8.93c-0.52-4.9-1.67-8.75-1.45-8.83c1.35,2.73,2.13,5.69,2.3,8.73
		C908.17,250.05,908.02,253.12,907.28,256.07z"/>
	<path class="st3" d="M922.81,253.77c-0.23-0.1,0.93-2.8,1.22-6.33c0.28-3.53-0.37-6.38-0.12-6.43
		C925.6,245.19,925.2,249.94,922.81,253.77z"/>
	<g class="st7">
		<path d="M904.48,236.89l0.13,0.25l0,0L904.48,236.89z"/>
	</g>
	<g class="st7">
		<path d="M904.63,237.07c-3.19,5.85-2.18,13.11,2.5,17.86C908.6,248.88,907.71,242.49,904.63,237.07z"/>
	</g>
	<g class="st7">
		<path d="M890.14,254.27c-1.62-2.93-2.58-6.18-2.83-9.51c0.02-1.47-0.2-2.94-0.63-4.35c-1.75,2.18-2.61,4.94-2.42,7.73
			c0.24,2.93,1.61,5.65,3.83,7.58c0.33,0.31,0.73,0.54,1.17,0.67c0.45,0.11,0.92-0.07,1.18-0.45
			C890.74,255.42,890.44,254.78,890.14,254.27z"/>
	</g>
	<g class="st7">
		<path d="M924.22,242.32L924.22,242.32c-0.06-0.58-0.23-1.15-0.5-1.67c-0.29-0.51-0.85-0.81-1.43-0.77
			c-0.78,0.13-1.17,1.02-1.4,1.78c-1.31,3.29-1.71,6.87-1.15,10.36c0.18,0.78,0.7,1.67,1.52,1.67c0.82,0,1.03-0.67,1.32-1.22
			C924.17,249.35,924.75,245.8,924.22,242.32z"/>
	</g>
	<path class="st3" d="M730.35,348.99v1.57h-1.15v-1.55c-1.23-0.03-2.42-0.44-3.42-1.17l0.62-1.4c0.82,0.6,1.79,0.96,2.8,1.05v-2.78
		c-1.55-0.38-3.22-0.88-3.22-2.83c0-1.42,1.03-2.67,3.22-2.87v-1.67h1.15v1.55c1,0.05,1.97,0.34,2.83,0.85l-0.58,1.42
		c-0.69-0.4-1.46-0.66-2.25-0.75v2.82c1.55,0.37,3.23,0.87,3.23,2.8C733.58,347.55,732.53,348.76,730.35,348.99z M729.2,343.01
		v-2.48c-0.98,0.15-1.42,0.67-1.42,1.27S728.39,342.78,729.2,343.01z M731.8,346.25c0-0.68-0.62-1.02-1.45-1.25v2.47
		C731.37,347.31,731.8,346.85,731.8,346.25z"/>
	<path class="st3" d="M741.93,339.12v9.76h-1.82v-8.25h-2.07v-1.52H741.93z"/>
	<path class="st3" d="M746.1,347.81c-0.02,0.42-0.13,0.84-0.32,1.22l-0.72,1.97h-1.13l0.57-2.15c-0.42-0.17-0.68-0.59-0.65-1.03
		c-0.08-0.62,0.37-1.19,0.99-1.26c0.62-0.08,1.19,0.37,1.26,0.99C746.11,347.63,746.11,347.72,746.1,347.81z"/>
	<path class="st3" d="M754.38,345.88c0,1.67-1.23,3.15-3.87,3.15c-1.31,0.02-2.59-0.38-3.67-1.13l0.77-1.42
		c0.83,0.64,1.84,0.98,2.88,0.97c1.28,0,2.07-0.57,2.07-1.5s-0.62-1.52-2.63-1.52h-2.35l0.5-5.31h5.73v1.52h-4.26l-0.22,2.27h0.93
		C753.23,342.9,754.38,344.15,754.38,345.88z"/>
	<path class="st3" d="M755.43,344c0-3.22,1.77-5,4.08-5s4.08,1.82,4.08,5c0,3.18-1.75,5-4.08,5S755.43,347.21,755.43,344z
		 M761.77,344c0-2.37-0.93-3.45-2.27-3.45s-2.25,1.08-2.25,3.45c0,2.37,0.92,3.45,2.25,3.45S761.77,346.35,761.77,344z"/>
	<path class="st3" d="M803.97,361.32c0,0.25-17.91,0.43-39.98,0.43c-22.07,0-39.98-0.18-39.98-0.43s17.91-0.43,39.98-0.43
		C786.06,360.89,803.97,361.09,803.97,361.32z"/>
	<path class="st3" d="M761.21,367.84c0,0.25-8.33,0.43-18.58,0.43s-18.59-0.18-18.59-0.43s8.33-0.43,18.59-0.43
		S761.21,367.6,761.21,367.84z"/>
	<path class="st3" d="M870.58,309.04v1.57h-1.08v-1.55c-1.2-0.05-2.36-0.45-3.33-1.15l0.62-1.42c0.81,0.62,1.78,0.99,2.8,1.07v-2.8
		c-1.55-0.37-3.22-0.88-3.22-2.82c0-1.42,1.03-2.67,3.22-2.88v-1.57h1.15v1.55c1,0.04,1.98,0.33,2.83,0.85l-0.58,1.4
		c-0.69-0.4-1.46-0.66-2.25-0.75v2.82c1.55,0.38,3.23,0.87,3.23,2.82C873.81,307.59,872.83,308.83,870.58,309.04z M869.43,303.08
		v-2.48c-1,0.15-1.42,0.65-1.42,1.27s0.6,0.98,1.48,1.22H869.43z M872.03,306.3c0-0.68-0.62-1-1.45-1.23v2.47
		C871.59,307.38,872.03,306.86,872.03,306.3L872.03,306.3z"/>
	<path class="st3" d="M885.85,307.41v1.53h-7.21v-1.22l3.88-3.68c0.95-0.92,1.12-1.48,1.12-2.03c0-0.88-0.62-1.4-1.82-1.4
		c-0.88-0.05-1.73,0.33-2.28,1.02l-1.27-0.98c0.9-1.11,2.27-1.73,3.7-1.67c2.13,0,3.5,1.07,3.5,2.8c-0.04,1.23-0.66,2.37-1.67,3.08
		l-2.62,2.5L885.85,307.41z"/>
	<path class="st3" d="M889.27,307.88c-0.03,0.42-0.13,0.82-0.32,1.2l-0.72,1.97h-1.13l0.57-2.13c-0.42-0.17-0.69-0.58-0.67-1.03
		c0-0.63,0.5-1.14,1.13-1.14s1.14,0.5,1.14,1.13C889.27,307.87,889.27,307.87,889.27,307.88z"/>
	<path class="st3" d="M897.67,307.41v1.53h-7.21v-1.22l3.88-3.68c0.95-0.92,1.12-1.48,1.12-2.03c0-0.88-0.62-1.4-1.82-1.4
		c-0.88-0.05-1.73,0.33-2.28,1.02l-1.27-0.98c0.9-1.12,2.28-1.73,3.72-1.67c2.12,0,3.48,1.07,3.48,2.8
		c-0.04,1.23-0.66,2.37-1.67,3.08l-2.62,2.5L897.67,307.41z"/>
	<path class="st3" d="M905.81,305.95c0,1.67-1.23,3.13-3.87,3.13c-1.31,0.03-2.6-0.37-3.67-1.13l0.77-1.4
		c0.82,0.63,1.83,0.96,2.87,0.95c1.3,0,2.07-0.57,2.07-1.48s-0.6-1.53-2.62-1.53H899l0.52-5.31h5.73v1.53h-4.2l-0.22,2.25h0.93
		C904.66,302.95,905.81,304.21,905.81,305.95z"/>
	<path class="st3" d="M944.2,321.39c0,0.23-17.91,0.43-39.98,0.43c-22.07,0-39.98-0.2-39.98-0.43s17.93-0.43,39.98-0.43
		S944.2,321.16,944.2,321.39z"/>
	<path class="st3" d="M901.46,327.9c0,0.23-8.33,0.43-18.59,0.43c-10.26,0-18.58-0.2-18.58-0.43c0-0.23,8.33-0.43,18.58-0.43
		C893.12,327.47,901.46,327.67,901.46,327.9z"/>
	<path class="st3" d="M727.15,551.76v1.57H726v-1.57c-1.23-0.03-2.42-0.44-3.42-1.17l0.63-1.4c0.81,0.61,1.77,0.97,2.78,1.05v-2.78
		c-1.55-0.38-3.2-0.88-3.2-2.82c0-1.43,1.03-2.67,3.2-2.88v-1.58h1.15v1.58c1,0.05,1.97,0.34,2.83,0.85l-0.57,1.42
		c-0.7-0.4-1.47-0.66-2.27-0.75v2.82c1.55,0.38,3.23,0.87,3.23,2.8C730.39,550.29,729.35,551.53,727.15,551.76z M726,545.78v-2.48
		c-0.98,0.17-1.4,0.67-1.4,1.28c0,0.62,0.6,0.95,1.4,1.18V545.78z M728.6,549.01c0-0.68-0.62-1-1.45-1.25v2.48
		c1.02-0.15,1.45-0.65,1.45-1.25V549.01z"/>
	<path class="st3" d="M735.35,546.76c0-3.22,1.77-5,4.08-5s4.08,1.8,4.08,5c0,3.2-1.75,5-4.08,5
		C737.1,551.76,735.35,549.96,735.35,546.76z M741.7,546.76c0-2.35-0.93-3.45-2.27-3.45s-2.25,1.1-2.25,3.45
		c0,2.35,0.92,3.45,2.25,3.45C740.76,550.21,741.7,549.11,741.7,546.76z"/>
	<path class="st3" d="M746.81,550.58c-0.03,0.42-0.13,0.82-0.32,1.2l-0.72,1.97h-1.12l0.55-2.13c-0.41-0.18-0.67-0.59-0.65-1.03
		c-0.08-0.62,0.37-1.19,0.99-1.26c0.62-0.08,1.19,0.37,1.26,0.99C746.82,550.39,746.82,550.49,746.81,550.58L746.81,550.58z"/>
	<path class="st3" d="M755.09,548.63c0,1.67-1.23,3.15-3.87,3.15c-1.31,0.03-2.6-0.37-3.67-1.13l0.77-1.42
		c0.82,0.63,1.83,0.97,2.87,0.97c1.3,0,2.07-0.57,2.07-1.5s-0.6-1.52-2.62-1.52h-2.37l0.52-5.31h5.75v1.57h-4.2l-0.22,2.27h0.93
		C753.94,545.65,755.09,546.9,755.09,548.63z"/>
	<path class="st3" d="M756.21,546.76c0-3.22,1.77-5,4.08-5s4.08,1.8,4.08,5c0,3.2-1.75,5-4.08,5S756.21,549.96,756.21,546.76z
		 M762.56,546.76c0-2.35-0.93-3.45-2.27-3.45s-2.25,1.1-2.25,3.45c0,2.35,0.92,3.45,2.25,3.45s2.2-1.1,2.2-3.45H762.56z"/>
	<path class="st3" d="M800.79,564.09c0,0.23-17.93,0.43-39.98,0.43c-22.06,0-39.98-0.2-39.98-0.43s17.91-0.43,39.98-0.43
		C782.88,563.66,800.79,563.84,800.79,564.09z"/>
	<path class="st3" d="M758.04,570.6c0,0.23-8.33,0.43-18.58,0.43s-18.58-0.2-18.58-0.43s8.33-0.43,18.58-0.43
		S758.04,570.35,758.04,570.6z"/>
	<path class="st3" d="M864.08,498.88v1.57h-1.13v-1.55c-1.24-0.03-2.43-0.44-3.43-1.17l0.63-1.4c0.81,0.61,1.78,0.97,2.8,1.05v-2.78
		c-1.55-0.38-3.22-0.88-3.22-2.82c0-1.43,1.03-2.67,3.22-2.88v-1.58h1.13v1.55c1,0.05,1.97,0.34,2.83,0.85l-0.57,1.42
		c-0.69-0.41-1.47-0.66-2.27-0.75v2.82c1.55,0.38,3.23,0.87,3.23,2.8C867.31,497.43,866.28,498.67,864.08,498.88z M862.95,492.9
		v-2.48c-1,0.17-1.42,0.67-1.42,1.28S862.13,492.67,862.95,492.9z M865.53,496.13c0-0.68-0.62-1-1.45-1.25v2.48
		C865.1,497.2,865.53,496.78,865.53,496.13L865.53,496.13z"/>
	<path class="st3" d="M875.66,489v9.76h-1.82v-8.25h-2.07V489L875.66,489z"/>
	<path class="st3" d="M879.84,497.72c-0.03,0.42-0.13,0.82-0.32,1.2l-0.72,1.97h-1.13l0.55-2.13c-0.41-0.18-0.67-0.59-0.65-1.03
		c0-0.63,0.5-1.14,1.13-1.14c0.63,0,1.14,0.5,1.14,1.13C879.84,497.71,879.84,497.71,879.84,497.72L879.84,497.72z"/>
	<path class="st3" d="M880.84,493.88c0-3.22,1.77-5,4.08-5s4.08,1.8,4.08,5c0,3.2-1.67,5-4.08,5S880.84,497.1,880.84,493.88z
		 M887.19,493.88c0-2.35-0.93-3.45-2.27-3.45s-2.25,1.1-2.25,3.45s0.92,3.45,2.25,3.45S887.19,496.25,887.19,493.88z"/>
	<path class="st3" d="M890.24,493.88c0-3.22,1.77-5,4.08-5s4.08,1.8,4.08,5c0,3.2-1.75,5-4.08,5S890.24,497.1,890.24,493.88z
		 M896.58,493.88c0-2.35-0.93-3.45-2.27-3.45s-2.25,1.1-2.25,3.45s0.92,3.45,2.25,3.45S896.58,496.25,896.58,493.88z"/>
	<path class="st3" d="M937.8,511.23c0,0.23-17.93,0.43-39.98,0.43s-39.98-0.2-39.98-0.43c0-0.23,17.91-0.45,39.98-0.45
		C919.89,510.78,937.8,510.98,937.8,511.23z"/>
	<path class="st3" d="M894.97,517.74c0,0.23-8.33,0.43-18.58,0.43s-18.58-0.2-18.58-0.43s8.33-0.45,18.58-0.45
		S894.97,517.49,894.97,517.74z"/>
	<path class="st5" d="M877.42,137.82c0,0.23-19.31,0.43-43.12,0.43s-43.13-0.2-43.13-0.43c0-0.23,19.31-0.43,43.13-0.43
		S877.42,137.57,877.42,137.82z"/>
</g>
<g id="freepik--Character--inject-22">
	<path class="st10" d="M315.72,655.13c-5.3,0.22-9.77,4.03-10.83,9.23c-1.08,4.06-1.93,8.18-2.55,12.34c0,0-9.78,8.8,0,11.15
		c9.78,2.35,13.33-10.83,13.33-10.83l1.5-21.96L315.72,655.13z"/>
	<path class="st5" d="M413.65,486.79c0,0,30.55-102.61,33.67-107.02c5.13-7.31,54.59-29.3,54.59-29.3l13.33-27.06l82.15-13.21
		l20.37,26.22l57.26,42.08l-4,145.14l-2.13,101.34l10.85,126.51l-260.06-0.48l11.76-26.66l12.34-230.1L413.65,486.79z"/>
	<path class="st3" d="M448.89,472.94c-0.08-0.27-0.11-0.55-0.1-0.83c0-0.65,0-1.43-0.13-2.38c0-2.07-0.18-5-0.25-8.75
		c-0.13-7.4-0.13-17.61,0.18-28.89c0.32-11.28,0.92-21.47,1.48-28.85c0.27-3.68,0.53-6.66,0.75-8.71l0.25-2.37
		c0.03-0.28,0.08-0.55,0.15-0.82c0.05,0.28,0.05,0.56,0,0.83c0,0.63,0,1.42-0.1,2.37c-0.12,2.2-0.28,5.15-0.48,8.75
		c-0.4,7.38-0.9,17.56-1.22,28.84c-0.32,11.28-0.42,21.46-0.43,28.85c0,3.6,0,6.55,0,8.75c0,0.95,0,1.67,0,2.38
		C448.99,472.39,448.96,472.67,448.89,472.94z"/>
	<g class="st7">
		<path d="M507.79,443.47c-0.06-1.15,0.27-2.28,0.95-3.22c2.34-2.87,6.3-3.85,9.71-2.4c4.35,2.08,6.51,7.08,7.4,11.83
			c0.95,5.2,0.82,10.56,1.8,15.76s3.33,10.5,7.91,13.18c5.65,3.33,13.06,1.83,18.99,4.63c8.83,4.15,10.88,15.63,11.33,25.39
			c0.83,18.48,0,36.97-0.77,55.44l-5.1,117.98l-4.65,59.19l-23.92,10.16l-31.65-208L507.79,443.47z"/>
	</g>
	<path class="st3" d="M514.64,426.61c-0.18,0.15-0.39,0.27-0.62,0.33c-0.65,0.23-1.35,0.3-2.03,0.2c-2.55-0.45-4.64-2.28-5.43-4.75
		c-0.51-1.66-0.68-3.41-0.48-5.13c0.22-1.93,0.54-3.85,0.97-5.75c0.8-4.03,1.67-8.43,2.6-13.04c1.87-9.25,3.6-17.61,4.9-23.66
		l1.67-7.15c0.16-0.88,0.39-1.75,0.68-2.6c-0.03,0.9-0.15,1.79-0.35,2.67c-0.35,1.85-0.78,4.28-1.32,7.21
		c-1.15,6.06-2.8,14.44-4.66,23.69c-0.95,4.61-1.85,9.01-2.67,13.03c-0.82,4.02-1.67,7.65-0.68,10.55c0.68,2.3,2.56,4.06,4.9,4.6
		C512.96,426.93,513.82,426.87,514.64,426.61z"/>
	<path class="st3" d="M523.07,388.01c0,0.08-0.68,0.08-1.82,0.43c-1.59,0.53-2.99,1.51-4.02,2.83c-1.57,1.91-2.04,4.49-1.23,6.83
		c1.2,3.92,5.35,6.13,9.28,4.93c1.97-0.6,3.6-1.99,4.5-3.84c1.17-2.18,1.12-4.8-0.13-6.93c-0.8-1.47-2.03-2.67-3.52-3.43
		c-1.07-0.53-1.67-0.63-1.67-0.72s0.17,0,0.48,0c0.47,0.06,0.93,0.19,1.37,0.38c1.64,0.69,3.02,1.89,3.92,3.43
		c0.64,1.06,1.03,2.25,1.15,3.48c0.13,1.43-0.16,2.87-0.83,4.13c-1.95,4.09-6.84,5.82-10.93,3.87c-2.1-1-3.68-2.85-4.33-5.08
		c-0.47-1.36-0.53-2.82-0.17-4.21c0.78-2.96,3.11-5.26,6.08-6.01c0.46-0.12,0.94-0.18,1.42-0.17
		C522.77,387.94,522.93,387.96,523.07,388.01z"/>
	<polygon class="st5" points="551.04,494.08 400.84,466.9 330.72,482.29 487.62,510.53 	"/>
	<g class="st11">
		<polygon points="551.04,494.08 400.84,466.9 330.72,482.29 487.62,510.53 		"/>
	</g>
	<path class="st9" d="M455,559.59c2.03-27.69,9.63-98.01,15.33-125.18c1.67-8.13,3.67-16.44,8.33-23.32s12.89-11.91,21.09-10.65
		c7.33,1.13,13.23,7.08,16.19,13.88c2.9,6.88,4.19,14.32,3.78,21.77c-1.42,33.59-4.31,71.2-4.28,102.34"/>
	<path class="st3" d="M505.86,493.65c-1.82,0.68-3.68,1.27-5.56,1.77c-8.97,2.77-17.55,6.66-25.54,11.58c-1.61,1.1-3.28,2.11-5,3.03
		c0,0,0.38-0.42,1.18-1.05s1.98-1.48,3.48-2.5c3.94-2.61,8.08-4.91,12.38-6.86c4.3-1.96,8.76-3.56,13.33-4.78
		c1.75-0.47,3.18-0.8,4.16-0.98C504.81,493.72,505.33,493.65,505.86,493.65z"/>
	<path class="st3" d="M508.36,461.7c0,0.13-2.25,0.63-5.85,1.75c-9.39,2.89-18.17,7.5-25.87,13.59c-2.95,2.33-4.66,3.93-4.76,3.83
		c0.31-0.46,0.67-0.88,1.08-1.25c0.73-0.77,1.85-1.82,3.33-3.05c3.77-3.22,7.89-6.02,12.28-8.33c4.39-2.31,9.02-4.12,13.81-5.41
		c1.44-0.4,2.9-0.73,4.38-0.98C507.28,461.72,507.82,461.67,508.36,461.7z"/>
	<path class="st3" d="M505,435.98c0,0.15-1.78,0.23-4.6,0.75c-3.66,0.68-7.21,1.86-10.55,3.52c-3.33,1.67-6.41,3.79-9.16,6.3
		c-2.12,1.93-3.33,3.33-3.33,3.22s0.2-0.42,0.68-1.07c0.69-0.92,1.44-1.79,2.25-2.6c5.39-5.43,12.41-8.94,19.99-10
		c1.14-0.16,2.28-0.24,3.43-0.23C504.55,435.88,504.98,435.91,505,435.98z"/>
	<path class="st8" d="M486.32,516.08c-0.01,0.05-0.01,0.1,0,0.15v96.13c0,4.21-3.33,8.56-9.65,11.86
		c-6.31,3.3-15.33,5.55-26.66,5.56h-0.15c-22.74,0-36.33-8.98-36.33-17.43v-96.13c0-0.05,0-0.1,0-0.15c0,0,0-0.12,0-0.18
		c0-9.4,6.95-19.21,13.91-28.9c4.66-6.46,5.78-15.79,6-21.26c0-0.67,0-1.25,0-1.78h-0.63c-2.75,0.24-5.17-1.8-5.41-4.55
		c0-0.03-0.01-0.06-0.01-0.1v-4.06c0.16-2.76,2.53-4.86,5.29-4.69c0.04,0,0.08,0.01,0.13,0.01h34.15c2.07-0.07,4,1.03,5,2.85
		c0.27,0.57,0.42,1.2,0.42,1.83v4.06c-0.18,2.75-2.56,4.84-5.32,4.66c-0.04,0-0.08-0.01-0.11-0.01h-0.62c0,0.53,0,1.12,0,1.78
		c0.22,5.46,1.33,14.79,6.01,21.26c6.95,9.7,13.86,19.51,13.91,28.9C486.32,515.96,486.32,516.04,486.32,516.08z"/>
	<path class="st3" d="M486.32,516.08c0.02-0.33,0.02-0.66,0-0.98c-0.06-0.96-0.18-1.92-0.35-2.87c-0.8-3.66-2.14-7.17-3.98-10.43
		c-2.96-5.17-6.24-10.15-9.83-14.91c-2.12-3.14-3.64-6.65-4.46-10.35c-0.99-4.12-1.5-8.34-1.53-12.58v-0.3h0.3
		c1.26,0.08,2.52-0.21,3.62-0.85c1.11-0.64,1.88-1.75,2.1-3.02c0-1.28,0-2.73,0-4.11c0.12-1.35-0.44-2.68-1.48-3.55
		c-1.09-0.88-2.46-1.33-3.87-1.27H453h-19.68c-1.63-0.14-3.25,0.43-4.43,1.57c-0.56,0.58-0.93,1.31-1.07,2.1
		c-0.04,0.85-0.04,1.7,0,2.55c0,0.85,0,1.82,0,2.6c0.12,0.81,0.48,1.56,1.03,2.17c1.21,1.23,2.9,1.84,4.61,1.67h0.4v0.42
		c-0.03,3.92-0.45,7.83-1.27,11.66c-0.81,3.99-2.37,7.79-4.6,11.2c-2.35,3.33-4.76,6.66-7,10.2c-2.31,3.51-4.21,7.27-5.66,11.21
		c-0.71,2-1.16,4.08-1.35,6.2c-0.12,2.08,0,4.31,0,6.48v40.48c0,16.18,0,31.99,0,47.25c-0.09,1.86,0,3.73,0.27,5.58
		c0.47,1.76,1.37,3.37,2.62,4.7c2.51,2.67,5.56,4.78,8.95,6.18c3.32,1.39,6.79,2.42,10.33,3.08c3.47,0.66,6.98,1.05,10.51,1.18
		c6.8,0.35,13.61-0.28,20.22-1.85c3.16-0.77,6.23-1.89,9.15-3.33c2.82-1.35,5.35-3.24,7.43-5.58c0.97-1.15,1.71-2.47,2.18-3.9
		c0.35-1.44,0.47-2.93,0.37-4.41v-8.86c0-5.78,0-11.35,0-16.66c0-21.19,0.1-38.32,0.13-50.25s0.15-18.43,0.15-18.43
		c0.05,0.4,0.05,0.81,0,1.22c0,0.83,0,2.02,0,3.55c0,3.15,0,7.75,0,13.66c0,11.9,0,29.05,0.13,50.25c0,5.3,0,10.86,0,16.66v11.13
		c-0.02,0.8-0.14,1.58-0.37,2.35c-0.49,1.52-1.28,2.93-2.32,4.15c-2.13,2.43-4.73,4.39-7.65,5.78c-2.96,1.44-6.07,2.56-9.28,3.33
		c-6.61,1.58-13.4,2.23-20.19,1.93c-3.57-0.12-7.12-0.52-10.63-1.18c-3.6-0.67-7.13-1.72-10.51-3.13c-3.51-1.41-6.67-3.57-9.26-6.31
		c-1.34-1.4-2.31-3.12-2.82-5c-0.3-1.91-0.4-3.85-0.3-5.78v-87.75c0-2.2,0-4.33,0-6.55c0.2-2.18,0.67-4.33,1.4-6.4
		c1.48-4.01,3.41-7.83,5.76-11.4c2.23-3.55,4.68-6.9,7.03-10.21c2.15-3.33,3.66-7.04,4.45-10.93c0.8-3.77,1.23-7.61,1.28-11.46
		l0.38,0.38c-1.93,0.17-3.83-0.53-5.18-1.92c-0.67-0.71-1.09-1.62-1.22-2.58c0-0.98,0-1.8,0-2.7c-0.05-0.89-0.05-1.79,0-2.68
		c0.17-0.94,0.62-1.8,1.28-2.48c1.33-1.29,3.15-1.94,5-1.8h19.68h13.74c1.55-0.06,3.07,0.45,4.26,1.43c1.18,0.99,1.8,2.5,1.67,4.03
		c0,1.43,0,2.75,0,4.2c-0.24,1.44-1.1,2.7-2.37,3.43c-1.19,0.69-2.56,1-3.93,0.9l0.27-0.27c0.15,8.78,1.85,16.91,5.81,22.67
		c3.57,4.78,6.82,9.79,9.73,14.99c1.83,3.29,3.13,6.85,3.87,10.55c0.16,0.99,0.26,1.98,0.28,2.98
		C486.38,515.43,486.38,515.76,486.32,516.08z"/>
	<path class="st3" d="M464.46,463.71c-5.05,0.44-10.13,0.58-15.19,0.43c-5.07,0.15-10.15,0.01-15.21-0.43
		c5.06-0.43,10.14-0.57,15.21-0.43C454.34,463.14,459.41,463.28,464.46,463.71z"/>
	<path class="st5" d="M483.29,528.92c-3.07-2-7.11-1.12-10.41,0.45s-6.41,3.75-10,4.31c-4.21,0.68-8.46-1-12.21-3.12
		c-3.75-2.12-7.3-4.73-11.33-6.18c-7.98-2.7-16.79-0.61-22.72,5.36v82.53c0,0,4.53,14.08,36.45,11.88s29.4-16.31,29.4-16.31
		L483.29,528.92z"/>
	<path class="st9" d="M398.72,472.74c1.97-12.73-6.75-24.65-19.48-26.62c-0.08-0.01-0.15-0.02-0.23-0.03
		c-0.56-0.14-1.15-0.08-1.67,0.18c-0.68,0.47-0.7,1.45-0.63,2.27c1.14,12.21,10.02,22.3,21.99,24.99"/>
	<path class="st5" d="M365.95,515.91c5.9,12.16,14.38,20.36,24.89,20.76c2.1,0,3.68-1.32,5.68-1.43c1.16,0.27,2.28,0.7,3.33,1.27
		c0.53,0.23,1.09,0.37,1.67,0.4c10.86-0.58,20.11-8.21,26.34-20.99c8.68-17.88,6-37.08-5.98-42.93c-1.57-0.78-3.21-1.43-4.9-1.92
		c-1.94-0.52-3.94-0.76-5.95-0.7c-4.63,0.33-9.18,1.38-13.49,3.1l-0.58,0.22c-9.75-4.3-17.51-4.33-24.99-0.68
		C359.92,478.82,357.26,498.03,365.95,515.91z"/>
	<path class="st8" d="M366.15,497.8c-0.57-1.12-0.91-2.34-1-3.6c-0.72-6.14,1.54-12.25,6.08-16.44c0.88-0.89,1.94-1.6,3.1-2.08
		c0,0.13-1.1,0.9-2.68,2.52c-2.02,2.12-3.59,4.62-4.61,7.36c-1.01,2.75-1.45,5.67-1.27,8.6C365.9,496.38,366.37,497.75,366.15,497.8
		z"/>
	<path class="st8" d="M368.37,506.3c-0.23,0-0.63-0.78-0.88-1.88c-0.25-1.1-0.27-2.02,0-2.07c0.27-0.05,0.62,0.78,0.88,1.88
		C368.64,505.33,368.6,506.25,368.37,506.3z"/>
	<path class="st3" d="M423.48,443.47c0,0.15-2.23,1.02-5.61,3.05c-1.97,1.18-3.84,2.52-5.6,4c-2.14,1.83-4.12,3.83-5.91,6
		c-1.76,2.2-3.33,4.54-4.7,7c-1.1,2.02-2.03,4.12-2.8,6.28c-1.32,3.7-1.67,6.13-1.88,6.1c0-0.56,0.06-1.12,0.18-1.67
		c0.08-0.67,0.22-1.33,0.4-1.98c0.19-0.88,0.43-1.75,0.72-2.6c0.7-2.23,1.6-4.39,2.68-6.46c2.66-5.1,6.34-9.59,10.81-13.21
		c1.81-1.48,3.76-2.79,5.81-3.92c0.85-0.52,1.67-0.87,2.4-1.22c0.6-0.3,1.23-0.56,1.87-0.78
		C422.37,443.8,422.91,443.6,423.48,443.47z"/>
	<path class="st5" d="M330.72,482.29l-18.88,238.1l175.93,42.53c0,0,61.37-20.81,62.21-22.22c0.83-1.42,1.07-246.56,1.07-246.56
		l-63.42,16.44L330.72,482.29z"/>
	<g class="st12">
		<path d="M330.72,482.29l-18.88,238.1l175.93,42.53c0,0,61.37-20.81,62.21-22.22c0.83-1.42,1.07-246.56,1.07-246.56l-63.42,16.44
			L330.72,482.29z"/>
	</g>
	<path class="st10" d="M606.65,204.94l-9.81,138.96c-1.6,22.69-20.47,40.27-43.22,40.27l0,0c-23.92,0.05-43.36-19.3-43.41-43.22
		c0-0.98,0.03-1.95,0.09-2.92c0.87-13.23,1.67-24.07,1.67-24.07s-33.64-5.23-34.05-38.87c-0.23-19.43,3.12-63.51,5.98-97.28
		c1.95-22.87,21.11-40.42,44.07-40.37h20.31c34.32,2.02,60.52,31.48,58.5,65.8C606.74,203.8,606.7,204.37,606.65,204.94z"/>
	<path class="st13" d="M512.04,313.94c0,0,21.21,1.25,43.8-12.94c0,0-10.83,24.47-44.4,21.44L512.04,313.94z"/>
	<path class="st3" d="M490.29,212.48c0.6,0.63,4.23-2.07,9.41-2.05c5.18,0.02,8.95,2.6,9.51,1.97c0.27-0.28-0.33-1.4-1.98-2.62
		c-2.24-1.54-4.9-2.36-7.61-2.35c-2.69,0-5.31,0.85-7.5,2.42C490.54,211.08,490,212.22,490.29,212.48z"/>
	<path class="st3" d="M546.3,218.43c-0.01,2.6,2.04,4.74,4.63,4.85c2.54,0.22,4.77-1.67,4.99-4.21c0-0.04,0.01-0.08,0.01-0.12
		c0.03-2.61-2.03-4.76-4.63-4.85c-2.53-0.22-4.76,1.64-4.99,4.17C546.3,218.33,546.3,218.38,546.3,218.43z"/>
	<path class="st3" d="M494.95,218.43c-0.02,2.6,2.03,4.75,4.63,4.85c2.53,0.22,4.76-1.64,4.99-4.17c0-0.05,0.01-0.11,0.01-0.16
		c0.04-2.6-2.01-4.76-4.61-4.85c-2.52-0.24-4.76,1.6-5,4.12C494.96,218.29,494.95,218.36,494.95,218.43z"/>
	<path class="st3" d="M540.58,212.5c0.6,0.62,4.25-2.08,9.41-2.07c5.16,0.02,8.95,2.6,9.51,1.97c0.27-0.28-0.33-1.4-1.98-2.62
		c-2.24-1.54-4.9-2.36-7.61-2.35c-2.69,0-5.31,0.85-7.5,2.42C540.83,211.08,540.3,212.22,540.58,212.5z"/>
	<path class="st3" d="M521.82,250.82c0-0.28-3.18-0.83-8.33-1.5c-1.32-0.15-2.57-0.4-2.78-1.3c-0.12-1.36,0.18-2.73,0.87-3.92
		l3.92-10c5.41-14.31,9.35-26.07,8.76-26.29c-0.58-0.22-5.45,11.21-10.86,25.52c-1.39,3.48-2.64,6.82-3.75,10.05
		c-0.82,1.6-1.06,3.43-0.68,5.18c0.39,0.95,1.2,1.66,2.18,1.93c0.73,0.2,1.48,0.31,2.23,0.32
		C518.56,251.1,521.81,251.12,521.82,250.82z"/>
	<path class="st3" d="M537.03,254.4c-0.83,0-0.85,5.56-5.65,9.55c-4.8,3.98-10.78,3.33-10.83,4.15c0,0.35,1.33,1.08,3.87,1.17
		c3.29,0.04,6.48-1.07,9.03-3.15c2.44-2.01,4.01-4.88,4.38-8.01C538.05,255.77,537.42,254.37,537.03,254.4z"/>
	<path class="st3" d="M539.25,195.69c0.52,1.4,5.66,0.73,11.66,1.47c6,0.73,10.98,2.38,11.78,1.13c0.37-0.6-0.5-1.93-2.47-3.33
		c-2.63-1.69-5.62-2.74-8.73-3.05c-3.1-0.38-6.25-0.01-9.18,1.08C540.15,193.93,539.03,195.02,539.25,195.69z"/>
	<path class="st3" d="M491,197.69c0.92,1.18,4.48,0,8.76-0.1c4.28-0.1,7.9,0.8,8.75-0.43c0.35-0.6-0.22-1.78-1.8-2.88
		c-4.35-2.74-9.92-2.57-14.09,0.43C491.1,195.91,490.6,197.12,491,197.69z"/>
	<path class="st10" d="M595.31,230.23c0.58-0.25,23.12-6.83,22.39,16.16s-23.67,17.51-23.69,16.86
		C593.99,262.6,595.31,230.23,595.31,230.23z"/>
	<path class="st13" d="M601.27,254.7c0.1,0,0.4,0.3,1.07,0.63c0.94,0.43,2.01,0.49,2.98,0.15c2.47-0.82,4.63-4.6,4.86-8.75
		c0.13-1.97-0.19-3.94-0.93-5.76c-0.39-1.47-1.48-2.66-2.92-3.18c-0.94-0.28-1.96,0.15-2.4,1.03c-0.33,0.63-0.2,1.1-0.32,1.13
		c-0.12,0.03-0.48-0.4-0.27-1.35c0.15-0.56,0.49-1.06,0.95-1.42c0.65-0.46,1.45-0.64,2.23-0.52c1.91,0.45,3.45,1.84,4.08,3.7
		c0.91,2.03,1.32,4.25,1.18,6.46c-0.3,4.63-2.82,8.88-6.16,9.75c-1.26,0.32-2.61,0.05-3.65-0.73
		C601.27,255.22,601.27,254.75,601.27,254.7z"/>
	<path class="st3" d="M608.1,229.39c-3.5-0.85-9.56,2.4-11.06,5.68c-1.5,3.28-1.83,7-3.33,10.28c-1.5,3.28-4.86,6.26-8.33,5.43
		c-2.42-0.76-4.25-2.77-4.78-5.25c-0.48-2.45-0.48-4.97,0-7.41c1.35-10.75,3.6-21.39,4.03-32.2s-1.1-22.06-6.78-31.27
		c-5.68-9.21-16.11-15.99-26.91-15.13c-7.15,0.58-13.69,4.31-20.79,5.3c-8.56,1.13-17.16-1.74-23.32-7.78
		c-0.78-0.77-4.36-3.15-4.36-3.15c0-0.55,0.52-5.35,2.42-7.1c14.08-13.03,39.47-16.66,58.08-11.98
		c18.61,4.68,36.05,17.81,44.05,35.25s5.63,41.65,1.22,59.33"/>
	<path class="st3" d="M480.29,171.73c3.02,6.98,10.71,11.05,18.33,11.81c7.61,0.77,15.13-1.2,22.44-3.33
		c7.31-2.13,26.96-5.33,34.57-5.1c1.13,0,2.5,0,3.12-0.95c0.8-1.28-0.48-2.83-1.67-3.75c-10-7.86-34.27-12.68-47-13.21
		s-26.07,5-32.97,15.64"/>
	<path class="st5" d="M483.6,172.6c0,0,88.3-28.32,126.41,47.96c0,0,5.7-19.11,5.7-29.35c0-6.83-4.08-47.58-46-60.39
		C569.72,130.82,506.56,106.73,483.6,172.6z"/>
	<g class="st12">
		<path d="M483.6,172.6c7.34-7.73,17.4-12.3,28.06-12.73c26.04-1.17,74.75,13.48,98.29,60.69c0,0,5.7-19.11,5.7-29.35
			c0-6.83-4.08-47.58-46-60.39C569.72,130.82,506.56,106.73,483.6,172.6z"/>
	</g>
	<path class="st5" d="M606.27,211.62c-13.38-19.93-30.92-36.72-51.41-49.23c-20.22-12.68-53.76-25.21-76.87-31.35
		c-6.93-1.83-14.16-3.45-21.24-2.22c-7.08,1.23-14.01,5.93-15.76,12.89c-2.2,8.71,13.33,22.16,20.54,27.44
		c7.12,4.75,14.5,9.1,22.09,13.04c0,0-0.2-16.16,25.67-19.49C544.46,158.17,606.27,211.62,606.27,211.62z"/>
	<path class="st8" d="M533.97,145.68c0,0-12.73-7.03-25.49-8.66c2.12-1.68,4.45-3.07,6.93-4.16c6.93,1.15,13.64,3.4,19.86,6.66
		L533.97,145.68z"/>
	<path class="st5" d="M644.82,374.9c0,0-24.12,27.57-21.46,65.94c0.37,5.31,0.63,12.73,1.28,18.03
		c4.07,32.92,10.36,63.47,10.36,63.47h2.3l84.12-20.77c0,0-12.68-73.02-15.59-82.72c-9.31-31.04-41.25-48.11-41.25-48.11
		L644.82,374.9z"/>
	<path class="st3" d="M549.98,740.7c0,0,0-0.42,0-1.23s0-2.07,0-3.67c0-3.23,0-7.96,0-14.08c0-12.28,0-29.99,0.1-52.18
		c0.15-44.3,0.37-105.94,0.62-175.46l0.53,0.42l-31.99,8.33l-31.42,8.15l0.32-0.42c0.43,34.85,0.32,67.74,0.15,97.46
		c-0.17,29.72-0.33,56.26-0.47,78.45c-0.13,22.19,0,39.98,0,52.31c0,6.13,0,10.88,0,14.13v3.67c0,0.82,0,1.23,0,1.23s0-0.42,0-1.23
		s0-2.07,0-3.67c0-3.33-0.12-8-0.22-14.13c-0.15-12.28-0.25-30.12-0.23-52.31c0.02-22.19,0.18-48.75,0.28-78.45
		s0.2-62.61-0.25-97.44v-0.35l0.33-0.08l31.4-8.15l32-8.33l0.55-0.15v0.57c-0.37,69.52-0.68,131.18-0.9,175.46
		c-0.15,22.12-0.28,39.9-0.37,52.18c0,6.11-0.1,10.85-0.13,14.08c0,1.67,0,2.82,0,3.67S549.98,740.7,549.98,740.7z"/>
	<path class="st5" d="M511.03,325.32c0,0-3.33,32,7.43,36.98c12.14,5.6,24.26,0.12,31.65-4.63c19.84-12.66,49.33-47.83,49.33-47.83
		l19.99,25.96c0,0-50.35,60.51-60.46,60.11c-6.66-0.25-16.91-6.66-23.32-11.18c-3.51-2.45-6.64-5.41-9.28-8.78l-8.71-11.08
		c-10.88,5.36-19.68,12.24-25.76,21.06c0,0-2.9-22.41,2.32-32.57c5.21-10.16,15.61-27.71,15.61-27.71L511.03,325.32z"/>
	<path class="st3" d="M493.6,354.23c-0.04,0.19-0.11,0.38-0.2,0.55c-0.15,0.4-0.37,0.92-0.65,1.57c-0.69,2.07-1.19,4.2-1.48,6.36
		c-0.97,7.97-0.97,16.02,0,23.99l-0.6-0.12c2.8-4.73,6.46-8.9,10.8-12.29c4.9-3.99,10.26-7.38,15.96-10.11l0.27-0.13l0.2,0.23
		c3.52,4.08,7.23,8.33,11.15,12.64c3.92,4.52,8.32,8.59,13.14,12.13c2.3,1.63,4.81,2.96,7.45,3.95c1.3,0.47,2.64,0.84,4,1.08
		c1.33,0.22,2.69,0.27,4.03,0.15c5.41-0.5,10-3.6,13.79-6.86l0,0l34.47-36.75l10-10.55l2.68-2.78l0.7-0.72l0.27-0.22l-0.2,0.27
		l-0.67,0.77l-2.58,2.87l-9.83,10.71l-34.22,36.95l0,0c-1.97,1.76-4.13,3.3-6.43,4.6c-2.41,1.37-5.08,2.22-7.83,2.5
		c-1.42,0.12-2.85,0.07-4.26-0.15c-1.41-0.25-2.8-0.62-4.15-1.12c-2.72-1.02-5.3-2.38-7.68-4.05c-4.89-3.57-9.36-7.69-13.33-12.26
		c-3.93-4.33-7.65-8.6-11.15-12.69l0.48,0.1c-5.64,2.71-10.96,6.06-15.83,10c-4.23,3.32-7.81,7.39-10.58,11.99l-0.5,0.87l-0.1-0.98
		c-0.93-8.02-0.84-16.13,0.27-24.12c0.34-2.17,0.9-4.29,1.67-6.35c0.3-0.7,0.57-1.2,0.73-1.55
		C493.45,354.53,493.52,354.38,493.6,354.23z"/>
	<g class="st7">
		<path d="M494.83,381.2c-0.69,1.72-0.19,3.69,1.23,4.88c1.41,0.54,3.01,0.25,4.15-0.75c1.09-1,2.03-2.15,2.8-3.42
			c1.99-2.87,4.39-5.44,7.11-7.63c2.68-2.17,6.36-4,9.45-2.47c1.93,1.27,3.39,3.14,4.16,5.31c4.18,8.55,9.2,17.24,17.38,22.12
			c8.18,4.88,18.69,5.1,27.71,1.92c8.96-3.49,16.84-9.27,22.86-16.78c5.97-7.48,11.26-15.47,15.81-23.89
			c3.77-6.51,7.58-13.23,8.75-20.66c-1.03,0.58-3.47,4.33-4.5,4.91c0,0-38.83,42.77-42.48,44.98c-3.65,2.22-13.71,16.98-42.22-14.99
			l-9.43-10.23C517.61,364.52,499.65,373.23,494.83,381.2z"/>
	</g>
	
		<rect x="569.98" y="455.04" transform="matrix(0.1516 -0.9884 0.9884 0.1516 17.9767 974.2167)" class="st4" width="13.04" height="43.2"/>
	<path class="st10" d="M714.36,503.18l-66.64,16.11l7.7,62.86L527.8,677.99c-5.1,0.72-10.33,1.53-13.23,2.27
		c-6.98,1.67-19.31,19.24-22.79,20.99l-24.87,19.19c0,0-2.18,8.73,9.16,6.98c11.35-1.75,23.99-10.46,25.31-10.46
		s5.28,2.65,3.33,8.33c-1.67,5-8.5,22.19-8.5,22.19l-8.45,15.49c0,0,36.52,1.2,46.65-12.34c6.93-9.2,28.32-35.27,28.32-35.27
		s150.22-73.9,159.23-89.38C734.25,604.92,714.36,503.18,714.36,503.18z"/>
	<path class="st13" d="M683.64,609.24c0.09-2.29-0.01-4.59-0.3-6.86c-1.66-11.34-11.13-19.9-22.57-20.42
		c-2.29-0.06-4.59,0.07-6.86,0.38c0.57-0.27,1.18-0.46,1.8-0.55c1.67-0.36,3.39-0.51,5.1-0.45c11.88,0.2,21.77,9.16,23.14,20.96
		c0.21,1.7,0.21,3.42,0,5.11C683.93,608.03,683.83,608.64,683.64,609.24z"/>
	<path class="st13" d="M517.77,739.5c-0.13,1.43-0.42,2.84-0.87,4.2c-0.85,3.37-2.09,6.63-3.7,9.71c-1.6,3.15-4.03,5.81-7.03,7.68
		c-0.92,0.55-1.91,0.95-2.95,1.2c-0.37,0.13-0.77,0.17-1.17,0.12c1.31-0.51,2.58-1.12,3.8-1.83c2.81-1.95,5.09-4.55,6.66-7.58
		c1.54-3.04,2.8-6.21,3.78-9.48C516.68,742.14,517.17,740.79,517.77,739.5z"/>
	<path class="st13" d="M535.47,733.68c-0.25,1.4-0.68,2.76-1.28,4.05c-1.25,3.19-2.71,6.29-4.36,9.3c-1.66,3-3.51,5.9-5.53,8.66
		c-0.77,1.22-1.69,2.34-2.73,3.33c0.64-1.26,1.39-2.47,2.23-3.62c1.43-2.18,3.33-5.25,5.26-8.73c1.93-3.48,3.48-6.66,4.56-9.11
		C534.12,736.22,534.74,734.92,535.47,733.68z"/>
	<path class="st3" d="M534.98,624.9c0.18,0.7,0.28,1.41,0.3,2.13c0.15,1.37,0.27,3.33,0.33,5.81c0.31,12.86-1.55,25.68-5.5,37.92
		c-0.77,2.33-1.43,4.21-1.97,5.48c-0.23,0.68-0.52,1.33-0.88,1.95c0.11-0.71,0.3-1.4,0.57-2.07c0.43-1.3,1.02-3.2,1.67-5.55
		c1.79-6.12,3.15-12.36,4.06-18.68c0.9-6.31,1.37-12.68,1.4-19.06c0-2.45,0-4.43,0-5.8C534.9,626.33,534.91,625.61,534.98,624.9z"/>
	<path class="st3" d="M498.88,644.91c0.81,1.7,1.51,3.46,2.1,5.25c1.23,3.33,2.95,7.76,5,12.68c2.05,4.91,3.95,9.33,5.36,12.51
		c0.83,1.69,1.56,3.43,2.18,5.21c-1.07-1.57-1.99-3.25-2.73-5c-1.57-3.13-3.58-7.51-5.61-12.44c-2.03-4.93-3.65-9.48-4.73-12.81
		C499.76,648.56,499.24,646.75,498.88,644.91z"/>
	<path class="st3" d="M489.2,688.04c-0.34,0.14-0.69,0.24-1.05,0.3l-3.05,0.73c-1.33,0.32-2.95,0.68-4.86,1s-4.07,0.78-6.5,1.08
		c-2.43,0.3-5,0.72-7.91,0.97s-5.93,0.47-9.15,0.65c-14,0.62-28.03-0.45-41.78-3.18c-3.15-0.68-6.16-1.28-8.93-2.05
		c-2.77-0.77-5.35-1.43-7.68-2.15c-2.33-0.72-4.43-1.43-6.26-2.05c-1.83-0.62-3.33-1.22-4.65-1.67l-2.92-1.17
		c-0.34-0.13-0.68-0.29-1-0.47c0.37,0.05,0.73,0.15,1.07,0.3l2.97,1.02c1.27,0.47,2.85,1.03,4.68,1.67c1.83,0.63,3.93,1.3,6.28,1.92
		c2.35,0.62,4.9,1.4,7.68,2.03c2.78,0.63,5.76,1.32,8.91,1.97c6.85,1.28,13.76,2.2,20.71,2.77c6.95,0.5,13.93,0.63,20.89,0.4
		c3.22-0.17,6.26-0.28,9.11-0.57s5.48-0.55,7.9-0.85c2.42-0.3,4.58-0.67,6.5-0.97s3.55-0.58,4.88-0.85l3.08-0.57
		C488.47,688.17,488.83,688.08,489.2,688.04z"/>
	<path class="st3" d="M482.85,659.07c-2.76-1.01-5.41-2.29-7.91-3.82c-2.64-1.28-5.15-2.81-7.5-4.56c2.76,1,5.41,2.27,7.91,3.82
		C478,655.77,480.51,657.3,482.85,659.07z"/>
	<path class="st3" d="M721.42,501.56l-0.42,0.13l-1.23,0.33l-4.76,1.22l-17.93,4.43l-61.97,14.99l-0.45,0.1v-0.45
		c-1.75-11.45-4.15-23.79-6.46-36.65c-1.52-8.58-2.83-16.99-3.73-25.16c-0.9-8.16-1.3-16.11-1.42-23.67
		c-0.18-7.16,0.23-14.32,1.25-21.41c0.9-6.2,2.74-12.23,5.46-17.88c2.33-4.63,5.44-8.81,9.2-12.38c2.83-2.69,6.07-4.91,9.61-6.56
		c2.25-1.01,4.61-1.75,7.03-2.22l1.9-0.23c0.22-0.02,0.43-0.02,0.65,0c-0.21,0.07-0.43,0.11-0.65,0.13l-1.87,0.33
		c-2.39,0.51-4.7,1.3-6.91,2.33c-3.48,1.71-6.66,3.96-9.43,6.66c-3.67,3.56-6.71,7.72-8.98,12.29c-2.64,5.6-4.43,11.57-5.3,17.71
		c-0.98,7.06-1.37,14.19-1.17,21.31c0.13,7.53,0.57,15.43,1.47,23.57s2.23,16.54,3.75,25.11c2.3,12.84,4.68,25.21,6.43,36.65
		l-0.52-0.35l62.06-14.74l17.98-4.2l4.8-1.08l1.25-0.27C721.18,501.6,721.3,501.58,721.42,501.56z"/>
</g>
</svg>
