<?xml version="1.0" encoding="utf-8"?>
<!-- Generator: Adobe Illustrator 23.1.0, SVG Export Plug-In . SVG Version: 6.00 Build 0)  -->
<svg version="1.1" id="Layer_1" xmlns="http://www.w3.org/2000/svg" xmlns:xlink="http://www.w3.org/1999/xlink" x="0px" y="0px"
	 viewBox="0 0 1366 768" style="enable-background:new 0 0 1366 768;" xml:space="preserve">
<style type="text/css">
	.st0{fill:#F5F5F5;}
	.st1{fill:#EBEBEB;}
	.st2{fill:#E0E0E0;}
	.st3{fill:#FFFFFF;}
	.st4{fill:#455A64;}
	.st5{fill:#263238;}
	.st6{fill:#FF725E;}
	.st7{opacity:0.5;}
	.st8{fill:#FAFAFA;}
	.st9{opacity:0.4;}
	.st10{opacity:0.6;}
	.st11{fill:#FFBE9D;}
	.st12{fill:#EB996E;}
</style>
<g id="freepik--background-complete--inject-387">
	<path class="st0" d="M438.93,206.57c4.98,33.48-18.12,64.67-51.6,69.65c-33.48,4.98-64.67-18.12-69.65-51.6s18.12-64.67,51.6-69.65
		c0.07-0.01,0.14-0.02,0.21-0.03C402.92,150.04,433.99,173.15,438.93,206.57z"/>
	<path class="st1" d="M424.51,208.67c3.72,25.49-13.93,49.16-39.42,52.88c-25.49,3.72-49.16-13.93-52.88-39.42
		c-3.72-25.47,13.9-49.13,39.36-52.87c25.48-3.75,49.18,13.87,52.93,39.36C424.5,208.63,424.5,208.65,424.51,208.67z"/>
	<path class="st2" d="M424.29,207.27c-0.28,0-0.78-1.95-2.03-5.38c-1.77-4.8-4.26-9.29-7.4-13.32c-2.16-2.77-4.62-5.29-7.35-7.51
		c-3.12-2.54-6.55-4.66-10.21-6.31c-4.03-1.83-8.31-3.06-12.69-3.65c-2.31-0.32-4.65-0.46-6.98-0.42c-4.82,0.09-9.6,0.94-14.16,2.52
		c-4.35,1.49-8.45,3.64-12.14,6.38c-1.77,1.28-3.44,2.69-5,4.21c-2.86,2.81-5.36,5.98-7.41,9.43c-1.78,3.03-3.22,6.25-4.3,9.59
		c-1.56,4.88-2.34,9.98-2.33,15.11c0,3.66,0.23,5.7,0,5.75c-0.23,0.05-0.9-1.93-1.35-5.66c-0.55-5.34-0.11-10.73,1.3-15.91
		c0.97-3.59,2.36-7.06,4.15-10.33c2.08-3.76,4.66-7.23,7.66-10.31c1.62-1.67,3.36-3.21,5.21-4.61c1.94-1.48,3.98-2.8,6.13-3.95
		c2.22-1.21,4.53-2.23,6.91-3.06c4.91-1.72,10.06-2.63,15.26-2.7c2.52-0.03,5.05,0.13,7.55,0.48c2.41,0.37,4.78,0.92,7.1,1.67
		c2.23,0.67,4.4,1.52,6.5,2.53c3.87,1.85,7.48,4.21,10.73,7.03c2.81,2.47,5.31,5.27,7.46,8.33c3.1,4.37,5.36,9.28,6.66,14.47
		C424.47,205.08,424.49,207.27,424.29,207.27z"/>
	<path class="st2" d="M387.51,242.24l1.28,8.03l-7.16,1.15l-1.25-7.81c-7.18,0.7-14.36-0.43-18.79-2.88l2.55-9.38
		c4.58,2.21,9.65,3.2,14.72,2.86l-1.97-11.96c-8.33-0.65-17.59-1.88-19.24-12.14c-1.22-7.61,3.33-14.99,14.39-18.12l-1.23-8.04
		l7.18-1.15l1.25,7.81c5.18-0.54,10.42,0.16,15.27,2.05l-2.18,9.39c-3.72-1.43-7.68-2.09-11.66-1.97l2.05,12.18
		c8.33,0.58,17.44,1.85,19.05,11.96C402.97,231.7,398.56,239.03,387.51,242.24z M375.24,211.63l-1.67-10.18
		c-3.66,1.47-4.85,3.78-4.46,6.16S371.91,211.13,375.24,211.63z M390.34,226.95c-0.42-2.52-2.7-3.55-5.96-4.13l1.58,9.89
		c3.5-1.35,4.78-3.46,4.41-5.76L390.34,226.95z"/>
	<path class="st0" d="M886.13,75.07c5.01,33.95-18.44,65.54-52.4,70.56c-33.95,5.01-65.54-18.44-70.56-52.4s18.44-65.54,52.4-70.56
		c0.04-0.01,0.09-0.01,0.14-0.02C849.63,17.68,881.16,41.15,886.13,75.07z"/>
	<path class="st1" d="M871.49,77.2c3.8,25.87-14.09,49.93-39.96,53.74c-25.87,3.8-49.93-14.09-53.74-39.96
		c-3.8-25.87,14.09-49.93,39.96-53.74c0.03,0,0.06-0.01,0.09-0.01c25.84-3.79,49.86,14.09,53.64,39.93
		C871.49,77.17,871.49,77.18,871.49,77.2z"/>
	<path class="st2" d="M871.27,75.68c-0.28,0-0.78-1.98-2.07-5.46c-2.99-8.29-8.17-15.61-14.99-21.19c-3.16-2.57-6.64-4.72-10.36-6.4
		c-1.99-0.92-4.05-1.68-6.16-2.28c-2.18-0.64-4.41-1.12-6.66-1.43c-2.35-0.32-4.71-0.46-7.08-0.42c-2.44,0.07-4.87,0.31-7.28,0.72
		c-2.39,0.44-4.75,1.05-7.06,1.83c-2.24,0.78-4.42,1.72-6.51,2.83c-2.03,1.06-3.98,2.28-5.81,3.65c-1.77,1.3-3.44,2.72-5,4.26
		c-2.91,2.85-5.43,6.07-7.51,9.58c-1.81,3.06-3.28,6.32-4.36,9.71c-1.58,4.95-2.38,10.12-2.37,15.32c0,3.7,0.23,5.78,0,5.83
		c-0.23,0.05-0.92-1.97-1.37-5.76c-0.57-5.41-0.12-10.88,1.32-16.12c0.98-3.65,2.4-7.16,4.21-10.48c2.11-3.79,4.72-7.28,7.76-10.38
		c3.38-3.46,7.26-6.39,11.51-8.69c2.25-1.21,4.59-2.25,7-3.1c4.98-1.74,10.21-2.67,15.49-2.75c2.55-0.03,5.1,0.14,7.63,0.5
		c2.44,0.37,4.85,0.92,7.21,1.67c2.26,0.68,4.46,1.54,6.58,2.57c7.38,3.5,13.73,8.85,18.44,15.52c3.16,4.42,5.46,9.4,6.78,14.67
		C871.46,73.57,871.47,75.68,871.27,75.68z"/>
	<path class="st2" d="M834,111.19l1.3,8.14l-7.26,1.17l-1.28-7.93c-7.26,0.72-14.54-0.43-19.04-2.93l2.58-9.51
		c4.66,2.26,9.83,3.26,14.99,2.91l-2-12.16c-8.33-0.67-17.84-1.92-19.5-12.31c-1.23-7.71,3.33-15.22,14.59-18.32l-1.3-8.08
		l7.28-1.17l1.27,7.93c5.25-0.55,10.55,0.17,15.47,2.08l-2.2,9.53c-3.74-1.44-7.73-2.12-11.74-2l1.98,12.36
		c8.33,0.6,17.69,1.87,19.32,12.13C849.67,100.55,845.19,107.98,834,111.19z M821.62,80.21l-1.67-10.33
		c-3.71,1.48-4.9,3.83-4.51,6.25S818.29,79.7,821.62,80.21z M836.95,95.74c-0.42-2.55-2.75-3.6-6.05-4.18l1.67,9.99
		c3.4-1.35,4.7-3.5,4.33-5.88L836.95,95.74z"/>
	<path class="st0" d="M1049.61,274.36c3.79,25.86-14.11,49.89-39.97,53.68c-25.86,3.79-49.89-14.11-53.68-39.97
		c-3.79-25.86,14.11-49.89,39.97-53.68c0.02,0,0.04-0.01,0.06-0.01c25.82-3.78,49.82,14.08,53.61,39.9
		C1049.6,274.31,1049.61,274.33,1049.61,274.36z"/>
	<path class="st1" d="M1038.47,275.97c2.92,19.7-10.68,38.04-30.38,40.96c-19.7,2.92-38.04-10.68-40.96-30.38
		c-2.92-19.7,10.68-38.04,30.38-40.96c0.03-0.01,0.07-0.01,0.1-0.01C1017.28,242.71,1035.56,256.31,1038.47,275.97z"/>
	<path class="st2" d="M1038.29,274.86c-0.65-1.34-1.17-2.73-1.57-4.16c-1.35-3.72-3.28-7.2-5.7-10.33c-1.67-2.13-3.57-4.08-5.66-5.8
		c-2.41-1.96-5.05-3.6-7.88-4.88c-1.53-0.66-3.09-1.22-4.7-1.67c-3.41-0.99-6.96-1.46-10.51-1.4c-1.85,0.05-3.7,0.22-5.53,0.53
		c-1.83,0.34-3.63,0.81-5.4,1.4c-4.95,1.71-9.45,4.5-13.18,8.18c-2.22,2.17-4.14,4.63-5.73,7.3c-1.38,2.33-2.5,4.8-3.33,7.38
		c-1.2,3.77-1.8,7.7-1.8,11.66c0.17,1.47,0.17,2.96,0,4.43c-0.64-1.37-0.99-2.86-1.03-4.38c-0.43-4.11-0.09-8.27,1-12.26
		c0.74-2.78,1.82-5.46,3.21-7.98c1.59-2.91,3.58-5.58,5.9-7.94c1.25-1.29,2.6-2.48,4.03-3.56c1.49-1.15,3.07-2.17,4.73-3.05
		c1.71-0.93,3.49-1.72,5.33-2.37c1.9-0.66,3.84-1.17,5.81-1.53c1.98-0.34,3.98-0.53,5.98-0.57c1.94-0.02,3.89,0.1,5.81,0.38
		c3.64,0.55,7.17,1.62,10.49,3.2c5.62,2.66,10.46,6.72,14.04,11.81c2.41,3.37,4.16,7.16,5.16,11.18
		C1038.27,271.85,1038.44,273.36,1038.29,274.86z"/>
	<path class="st2" d="M1009.84,301.86l1,6.2l-5.53,0.88l-0.97-6.03c-4.95,0.63-9.97-0.13-14.51-2.22l1.97-7.25
		c3.54,1.71,7.46,2.47,11.38,2.2l-1.48-9.24c-6.38-0.5-13.57-1.45-14.84-9.38c-0.95-5.86,2.52-11.66,11.09-13.99l-0.98-6.15
		l5.55-0.88l0.97,6.03c4-0.38,8.04,0.19,11.78,1.67l-1.67,7.26c-2.85-1.09-5.88-1.61-8.93-1.53l1.52,9.41
		c6.36,0.47,13.46,1.43,14.71,9.24C1021.85,293.74,1018.43,299.41,1009.84,301.86z M1000.39,278.27l-1.27-7.86
		c-2.83,1.13-3.73,2.91-3.43,4.75s2.2,2.73,4.76,3.11L1000.39,278.27z M1012.05,290.08c-0.32-1.93-2.08-2.73-4.6-3.18l1.22,7.65
		c2.83-1.05,3.73-2.68,3.45-4.46L1012.05,290.08z"/>
	<path class="st0" d="M607.46,613.16c-6.51,29.1-35.37,47.41-64.46,40.9c-29.1-6.51-47.41-35.36-40.9-64.46
		c6.51-29.1,35.37-47.41,64.46-40.9c0.03,0.01,0.05,0.01,0.08,0.02c29.06,6.5,47.34,35.33,40.84,64.39
		C607.46,613.13,607.46,613.14,607.46,613.16z"/>
	<path class="st1" d="M594.93,610.35c-4.94,22.18-26.93,36.15-49.11,31.2c-22.18-4.94-36.15-26.93-31.2-49.11
		s26.93-36.15,49.11-31.2c0.03,0.01,0.06,0.01,0.09,0.02c22.14,4.95,36.07,26.91,31.12,49.05
		C594.94,610.32,594.93,610.33,594.93,610.35z"/>
	<path class="st2" d="M595.2,609.08c-0.16-1.66-0.16-3.34,0-5c0.07-4.51-0.56-9.01-1.87-13.32c-0.91-2.96-2.14-5.81-3.66-8.49
		c-1.77-3.04-3.92-5.84-6.41-8.33c-1.33-1.37-2.77-2.64-4.3-3.78c-1.58-1.21-3.25-2.29-5-3.23c-1.8-0.99-3.68-1.84-5.61-2.53
		c-3.99-1.46-8.18-2.27-12.43-2.4c-2.06-0.07-4.12,0.02-6.16,0.27c-1.97,0.24-3.93,0.63-5.85,1.15c-1.84,0.51-3.64,1.15-5.38,1.92
		c-3.25,1.41-6.3,3.24-9.08,5.43c-2.41,1.93-4.61,4.11-6.55,6.51c-2.81,3.52-5.05,7.45-6.66,11.66c-0.46,1.63-1.08,3.21-1.85,4.71
		c-0.18,0-0.13-1.88,0.68-5.1c1.21-4.57,3.27-8.86,6.06-12.68c1.93-2.65,4.17-5.06,6.66-7.18c2.89-2.44,6.09-4.48,9.53-6.06
		c1.87-0.9,3.81-1.65,5.8-2.25c4.2-1.22,8.56-1.78,12.93-1.67c4.58,0.14,9.11,1.01,13.41,2.58c2.08,0.77,4.1,1.7,6.03,2.78
		c1.88,1.04,3.67,2.23,5.35,3.56c1.62,1.26,3.14,2.64,4.55,4.13c2.62,2.74,4.86,5.82,6.66,9.16c1.53,2.9,2.71,5.97,3.51,9.14
		c1.18,4.58,1.5,9.33,0.95,14.02C596.03,607.4,595.38,609.11,595.2,609.08z"/>
	<path class="st2" d="M553.94,626.27l-1.47,7.01l-6.26-1.32l1.43-6.83c-6.11-1.67-11.66-4.86-14.54-8.33l5-6.91
		c3.08,3.26,6.94,5.67,11.23,7l2.18-10.46c-6.66-3.15-13.86-7.1-11.98-16.06c1.38-6.66,7.41-11.33,17.54-10.38l1.45-6.95l6.26,1.32
		l-1.43,6.83c4.42,1.19,8.5,3.41,11.91,6.48l-4.75,7.05c-2.59-2.33-5.61-4.11-8.89-5.26l-2.23,10.64
		c6.66,3.1,13.76,7.01,11.91,15.84C569.96,622.5,564.03,627.13,553.94,626.27z M553.46,597.27l1.87-8.89
		c-3.48,0-5.18,1.67-5.61,3.66C549.28,594.04,550.93,595.82,553.46,597.27z M561.05,614.63c0.45-2.2-1.12-3.76-3.6-5.26l-1.82,8.64
		c3.31-0.03,5.05-1.38,5.46-3.38H561.05z"/>
	<path class="st1" d="M816.03,561.41l-43.31-26.97c-3.44-2.16-7.63-2.77-11.54-1.67l-107.35,30.78
		c-7.62,2.19-12.02,10.14-9.84,17.76c0.01,0.05,0.03,0.09,0.04,0.14l22.52,75.79c2.26,7.6,10.25,11.93,17.85,9.67
		c0.01,0,0.02-0.01,0.04-0.01l106.6-31.9c3.99-1.2,7.26-4.07,8.98-7.86l21.5-47.7C824.44,572.91,822.1,565.21,816.03,561.41z
		 M801.8,579.9c-0.65,6.51-6.45,11.26-12.96,10.61c-6.51-0.65-11.26-6.45-10.61-12.96c0.65-6.51,6.45-11.26,12.96-10.61
		C797.69,567.6,802.44,573.39,801.8,579.9z"/>
	<path class="st3" d="M687.19,596.6c-2.62-9.23,1.33-16.66,9.31-18.95c7.98-2.3,15.16,1.95,17.81,11.24s-1.27,16.66-9.23,18.92
		C697.12,610.08,689.82,605.81,687.19,596.6z M706.49,591.11c-1.67-5.86-4.73-8.03-8.18-7.05c-3.45,0.98-4.95,4.51-3.28,10.29
		c1.67,5.78,4.81,8.01,8.16,7.05C706.54,600.43,708.16,597.02,706.49,591.11z M729.25,569l9.29-2.63l-21.77,65.31l-9.29,2.63
		L729.25,569z M731.68,611.79c-2.62-9.21,1.33-16.66,9.23-18.92s15.26,2,17.89,11.21c2.63,9.21-1.33,16.66-9.31,18.95
		C741.51,625.34,734.34,621.02,731.68,611.79z M750.9,606.33c-1.67-5.78-4.73-8.03-8.18-7.05c-3.45,0.98-4.9,4.43-3.23,10.29
		c1.67,5.86,4.81,7.99,8.18,7.05c3.36-0.95,4.91-4.51,3.26-10.29H750.9z"/>
	<path class="st2" d="M819.11,585.01c0.45,0.1,0.88,0.25,1.3,0.45c0.82,0.35,2.03,0.85,3.58,1.55c1.55,0.7,3.43,1.57,5.6,2.65
		s4.58,2.37,7.18,3.96c2.85,1.73,5.55,3.7,8.06,5.88l1.02,0.9l1,0.97c0.69,0.65,1.34,1.34,1.95,2.07c1.35,1.53,2.39,3.3,3.08,5.21
		c0.34,1.04,0.49,2.13,0.45,3.21c-0.05,1.12-0.32,2.22-0.8,3.23c-0.99,2.06-2.61,3.76-4.63,4.85c-2.07,1.07-4.34,1.68-6.66,1.78
		c-2.33,0.12-4.67-0.04-6.96-0.47c-4.5-0.84-8.83-2.43-12.81-4.71c-1.9-1.06-3.74-2.24-5.5-3.53c-1.67-1.23-3.33-2.5-4.9-3.75
		c-5.63-4.4-10.74-9.43-15.24-14.99c-0.93-1.2-1.78-2.38-2.55-3.51c-0.38-0.57-0.75-1.13-1.08-1.67c-0.35-0.53-0.64-1.08-0.88-1.67
		c-0.52-1.1-0.58-2.36-0.17-3.5c0.37-0.93,1-1.73,1.83-2.3c0.35-0.24,0.71-0.45,1.1-0.62c0.34-0.14,0.68-0.25,1.03-0.33
		c0.54-0.13,1.11-0.17,1.67-0.12c0.35,0.03,0.68,0.12,1,0.27l0.32,0.18c0,0-0.13,0-0.35,0c-0.32-0.08-0.65-0.13-0.98-0.13
		c-0.53,0-1.06,0.08-1.57,0.23c-0.33,0.1-0.64,0.22-0.95,0.37c-0.34,0.18-0.66,0.38-0.97,0.62c-0.71,0.52-1.25,1.25-1.55,2.08
		c-0.32,0.99-0.24,2.07,0.23,3c0.25,0.58,0.55,1.13,0.88,1.67c0.33,0.55,0.72,1.08,1.1,1.67c0.78,1.1,1.67,2.25,2.6,3.41
		c4.55,5.4,9.66,10.29,15.26,14.59c1.57,1.23,3.2,2.47,4.9,3.7c1.71,1.24,3.49,2.38,5.33,3.41c3.85,2.18,8.04,3.72,12.39,4.55
		c2.2,0.4,4.43,0.56,6.66,0.45c2.13-0.11,4.21-0.68,6.1-1.67c1.79-0.94,3.23-2.42,4.13-4.23c0.81-1.74,0.92-3.72,0.32-5.55
		c-0.63-1.77-1.58-3.41-2.8-4.83c-0.6-0.7-1.22-1.38-1.87-2.02l-0.97-0.95l-0.98-0.9c-2.45-2.18-5.06-4.15-7.83-5.91
		c-2.53-1.67-5-2.96-7.03-4.1s-3.96-2.07-5.46-2.83l-3.48-1.77C819.8,585.64,819.43,585.35,819.11,585.01z"/>
	<path class="st1" d="M626.88,64.17l-10.66-28.47c-0.84-2.28-2.6-4.1-4.86-5L549.61,6.48c-4.37-1.75-9.34,0.37-11.09,4.74
		c-0.02,0.05-0.04,0.09-0.05,0.14l-16.82,43.89c-1.68,4.41,0.54,9.35,4.95,11.02c0.02,0.01,0.03,0.01,0.05,0.02l61.79,23.57
		c2.32,0.88,4.9,0.71,7.08-0.47l27.4-14.71C626.68,72.67,628.38,68.17,626.88,64.17z M613.42,67.74c-2.67,2.83-7.13,2.95-9.96,0.28
		c-2.83-2.67-2.95-7.13-0.28-9.96c2.66-2.81,7.09-2.95,9.92-0.31c2.85,2.65,3,7.11,0.35,9.96
		C613.44,67.71,613.43,67.73,613.42,67.74z"/>
	<path class="st3" d="M553.46,34.04c2.1-5.3,6.66-7.38,11.24-5.56s6.45,6.4,4.33,11.66s-6.66,7.4-11.21,5.58
		C553.27,43.9,551.28,39.41,553.46,34.04z M564.53,38.44c1.33-3.33,0.68-5.5-1.3-6.28c-1.98-0.78-3.93,0.35-5.25,3.68
		c-1.32,3.33-0.63,5.51,1.3,6.28c1.93,0.77,3.85-0.25,5.18-3.61L564.53,38.44z M583.27,36.26l5.35,2.12l-34,22.99l-5.35-2.13
		L583.27,36.26z M568.86,57.36c2.12-5.3,6.66-7.38,11.21-5.58s6.48,6.46,4.36,11.76c-2.12,5.3-6.66,7.38-11.24,5.56
		C568.61,67.29,566.78,62.69,568.86,57.36z M579.91,61.74c1.32-3.33,0.68-5.5-1.3-6.28c-1.98-0.78-3.91,0.32-5.25,3.68
		s-0.63,5.51,1.3,6.28s3.93-0.32,5.25-3.65V61.74z"/>
	<path class="st2" d="M619.78,76.42c0.17,0.21,0.32,0.44,0.43,0.68c0.27,0.47,0.67,1.13,1.13,2.03s1.07,1.97,1.67,3.33
		c0.6,1.37,1.32,2.78,1.95,4.46c0.72,1.85,1.27,3.75,1.67,5.7l0.15,0.8c0,0.27,0.08,0.53,0.12,0.82c0.09,0.55,0.15,1.11,0.17,1.67
		c0.08,1.2-0.06,2.41-0.43,3.56c-0.22,0.61-0.54,1.17-0.95,1.67c-0.43,0.51-0.95,0.93-1.55,1.23c-1.21,0.62-2.59,0.83-3.93,0.6
		c-1.36-0.23-2.65-0.76-3.78-1.55c-1.1-0.81-2.11-1.74-3-2.78c-1.82-2.02-3.29-4.34-4.33-6.86c-0.51-1.18-0.94-2.4-1.3-3.63
		c-0.34-1.2-0.66-2.38-0.95-3.55c-1.06-4.11-1.65-8.33-1.77-12.58c0-0.9,0-1.77,0-2.58c0-0.42,0-0.8,0.12-1.18
		c0.03-0.38,0.1-0.76,0.2-1.13c0.17-0.69,0.59-1.28,1.18-1.67c0.5-0.3,1.08-0.44,1.67-0.42c0.25,0.02,0.49,0.06,0.73,0.12
		c0.21,0.05,0.42,0.12,0.62,0.22c0.31,0.13,0.59,0.32,0.83,0.55c0.16,0.14,0.29,0.31,0.38,0.5c0,0.12,0.08,0.18,0,0.18
		c-0.08,0,0,0-0.13-0.15c-0.13-0.15-0.27-0.29-0.42-0.42c-0.25-0.2-0.53-0.35-0.83-0.45c-0.18-0.08-0.37-0.13-0.57-0.17
		c-0.23-0.03-0.46-0.03-0.68,0c-0.49-0.05-0.98,0.05-1.42,0.27c-0.51,0.36-0.87,0.9-0.98,1.52c-0.08,0.35-0.13,0.71-0.15,1.07
		c0,0.37,0,0.75-0.08,1.17c0,0.8,0,1.67,0,2.55c0.18,4.19,0.82,8.34,1.9,12.39c0.3,1.15,0.62,2.33,0.98,3.51
		c0.35,1.21,0.78,2.39,1.28,3.55c1.02,2.44,2.43,4.69,4.18,6.66c0.9,0.96,1.91,1.82,3,2.57c1.04,0.72,2.22,1.22,3.46,1.45
		c1.18,0.2,2.39,0.02,3.46-0.52c1.02-0.52,1.8-1.41,2.17-2.5c0.36-1.07,0.5-2.2,0.43-3.33c-0.01-0.56-0.06-1.11-0.15-1.67
		c0-0.27,0-0.53-0.12-0.8l-0.13-0.77c-0.36-1.92-0.88-3.8-1.55-5.63c-0.6-1.67-1.25-3.18-1.83-4.48c-0.58-1.3-1.12-2.42-1.55-3.33
		l-1-2.1C619.96,76.82,619.86,76.62,619.78,76.42z"/>
</g>
<g id="freepik--Device--inject-387">
	<path class="st4" d="M422.76,473.02l0.18-355.61c0.06-11,8.99-19.89,19.99-19.89l527.65,0.27c11,0.05,19.89,8.99,19.89,19.99
		l-0.18,355.61c0,10.98-8.9,19.89-19.89,19.89c-0.03,0-0.07,0-0.1,0L442.66,493C431.65,492.96,422.76,484.02,422.76,473.02z"/>
	<rect x="477.19" y="109.39" class="st3" width="473.9" height="370.48"/>
	<path class="st5" d="M451.36,310.4c-8.38-0.01-15.17-6.81-15.16-15.19c0.01-8.38,6.81-15.17,15.19-15.16
		c8.37,0.01,15.16,6.8,15.16,15.17c0,8.38-6.79,15.17-15.17,15.17C451.37,310.4,451.36,310.4,451.36,310.4z"/>
	<path class="st5" d="M974,237.97L973.94,353c0,1.12-0.91,2.03-2.03,2.03l-2.2,0c-1.12,0-2.03-0.91-2.03-2.03l0.06-115.03
		c0-1.12,0.91-2.03,2.03-2.03l2.2,0C973.09,235.94,974,236.85,974,237.97z"/>
	<path class="st2" d="M512.63,120.3h403.8c11.59,0,20.99,9.4,20.99,20.99l0,0v266.65l0,0H491.65l0,0V141.29
		C491.65,129.7,501.04,120.3,512.63,120.3L512.63,120.3z"/>
	<path class="st1" d="M903.32,429.01c0,5.28-85.86,9.54-191.78,9.54s-191.8-4.26-191.8-9.54s85.86-9.54,191.8-9.54
		C817.47,419.47,903.32,423.8,903.32,429.01z"/>
	<path class="st5" d="M901.42,150.5c-0.06-0.06-0.13-0.1-0.22-0.1l-16.29-0.1h-6.18l-0.13-0.93l-0.25-1.83
		c-0.02-0.13-0.13-0.23-0.27-0.23h-4.53c-0.35,0-0.58,0-0.58,0.3s0.23,0.28,0.58,0.3l4.15,0.08l2.32,17.86
		c0.02,0.14,0.13,0.24,0.27,0.25h13.32h5c0.42,0,0.63,0,0.63-0.28c0-0.28-0.22-0.3-0.63-0.32l-17.84-0.23l-0.43-3.16l18.75,0.27l0,0
		c0.14,0,0.25-0.1,0.27-0.23l1.4-7.46l0.73-4.01C901.49,150.6,901.46,150.54,901.42,150.5z M878.8,150.9l21.77,0.28l-1.92,10.44
		h-13.32h-5L878.8,150.9z"/>
	<path class="st5" d="M885.25,170.27c-0.09-0.49-0.36-0.93-0.75-1.23c-0.59-0.48-1.38-0.63-2.1-0.38c-1.17,0.42-1.77,1.71-1.35,2.88
		c0.23,0.63,0.72,1.13,1.35,1.35c0.25,0.08,0.51,0.13,0.77,0.13c0.49,0,0.96-0.17,1.35-0.47c0.4-0.31,0.67-0.76,0.78-1.25
		c0.03-0.17,0.03-0.35,0-0.52C885.31,170.62,885.29,170.44,885.25,170.27z M882.62,172.15c-0.76-0.3-1.14-1.15-0.85-1.92
		c0.15-0.39,0.46-0.7,0.85-0.85c0.16-0.05,0.33-0.08,0.5-0.08c0.33-0.01,0.64,0.1,0.9,0.3c0.27,0.21,0.48,0.49,0.58,0.82v0.32v0.1
		c-0.02,0.11-0.05,0.21-0.08,0.32c-0.09,0.33-0.3,0.62-0.58,0.82C883.54,172.23,883.06,172.3,882.62,172.15L882.62,172.15z"/>
	<path class="st5" d="M897.19,170.37c-0.1-0.49-0.36-0.93-0.75-1.25c-0.97-0.76-2.37-0.6-3.14,0.37c-0.76,0.97-0.6,2.37,0.37,3.14
		c0.19,0.15,0.4,0.26,0.62,0.35c0.24,0.09,0.49,0.13,0.75,0.13c1.02,0.01,1.91-0.68,2.15-1.67c0.02-0.17,0.02-0.34,0-0.52
		C897.22,170.74,897.22,170.55,897.19,170.37z M894.56,172.29c-0.57-0.22-0.94-0.77-0.93-1.38c0.02-0.61,0.4-1.15,0.97-1.37
		c0.17-0.03,0.33-0.03,0.5,0c0.33-0.01,0.64,0.1,0.9,0.3c0.27,0.21,0.48,0.49,0.58,0.82c0,0.13,0,0.25,0,0.32v0.1
		c-0.02,0.11-0.05,0.21-0.08,0.32c-0.1,0.33-0.3,0.62-0.58,0.82C895.5,172.45,895,172.48,894.56,172.29z"/>
	<path class="st5" d="M525.84,177.93l0.58-1.13c1.27,1.1,2.9,1.69,4.58,1.67c2.6,0,3.73-1.08,3.73-2.47c0-3.8-8.54-1.47-8.54-6.66
		c0-2.03,1.67-3.8,5.11-3.8c1.52-0.02,3.01,0.4,4.3,1.22l-0.5,1.18c-1.13-0.74-2.45-1.14-3.8-1.15c-2.55,0-3.66,1.12-3.66,2.52
		c0,3.8,8.54,1.5,8.54,6.56c0,2.03-1.67,3.78-5.18,3.78C529.13,179.74,527.29,179.13,525.84,177.93z"/>
	<path class="st5" d="M539.25,173.69v-7.94h1.47v7.88c0,3.33,1.55,4.8,4.25,4.8s4.26-1.5,4.26-4.8v-7.88h1.43v7.94
		c0,3.98-2.15,6.05-5.7,6.05C541.42,179.73,539.25,177.67,539.25,173.69z"/>
	<path class="st5" d="M565.93,170.49c0,2.96-2.13,4.75-5.66,4.75h-3.73v4.38h-1.42v-13.87h5.2
		C563.8,165.74,565.93,167.52,565.93,170.49z M564.47,170.49c0-2.22-1.47-3.48-4.23-3.48h-3.7v6.95h3.7
		C563,173.95,564.47,172.67,564.47,170.49z"/>
	<path class="st5" d="M578.92,178.35v1.27h-9.81v-13.87h9.51v1.27h-8.04v5h7.18v1.25h-7.18v5.16L578.92,178.35z"/>
	<path class="st5" d="M591.87,179.62l-3.18-4.46c-0.35,0-0.72,0-1.12,0h-3.71v4.4h-1.47v-13.87h5.18c3.53,0,5.68,1.78,5.68,4.75
		c0.1,2.02-1.23,3.84-3.18,4.36l3.33,4.76L591.87,179.62z M591.78,170.49c0-2.22-1.47-3.48-4.25-3.48h-3.68v6.95h3.68
		c2.78,0,4.23-1.28,4.23-3.46H591.78z"/>
	<path class="st5" d="M613.75,170.77c0,3.1-2.32,5-6.03,5h-2.8v3.83h-3.16v-13.87h6.01C611.44,165.74,613.75,167.66,613.75,170.77z
		 M610.51,170.77c0-1.53-1-2.42-2.96-2.42h-2.62v4.81h2.62C609.51,173.17,610.51,172.29,610.51,170.77z"/>
	<path class="st5" d="M624.88,179.62l-2.68-3.86h-2.95v3.86h-3.21v-13.87h6.01c3.7,0,6.01,1.92,6.01,5
		c0.08,1.92-1.06,3.67-2.85,4.38l3.2,4.5H624.88z M621.86,168.36h-2.61v4.83h2.61c1.97,0,2.95-0.92,2.95-2.42
		S623.83,168.36,621.86,168.36z"/>
	<path class="st5" d="M630.61,165.74h3.21v13.87h-3.21V165.74z"/>
	<path class="st5" d="M636.24,172.67c0.19-4.21,3.76-7.46,7.97-7.27c2.06,0.09,3.99,1.02,5.35,2.56l-2.07,1.9
		c-0.85-1.05-2.13-1.67-3.48-1.67c-2.45-0.15-4.56,1.72-4.71,4.17c-0.15,2.45,1.72,4.56,4.17,4.71c0.18,0.01,0.36,0.01,0.54,0
		c1.36,0.01,2.64-0.6,3.48-1.67l2.07,1.9c-2.8,3.15-7.62,3.44-10.77,0.64c-1.54-1.36-2.46-3.29-2.56-5.34V172.67z"/>
	<path class="st5" d="M662.39,177.04v2.58h-10.66v-13.87h10.49v2.57h-7.3v3.01h6.43v2.5h-6.43v3.21L662.39,177.04z"/>
	<path class="st5" d="M537.57,225.59v5.13h-3.76v-5.13c-4.03-0.11-7.94-1.43-11.21-3.8l2.07-4.61c2.66,1.99,5.83,3.19,9.14,3.46
		v-9.14c-5-1.23-10.51-2.88-10.51-9.24c0-4.66,3.33-8.73,10.51-9.43v-5.16h3.76v5.08c3.27,0.17,6.44,1.15,9.23,2.86l-1.88,4.63
		c-2.27-1.33-4.78-2.17-7.4-2.47V207c5,1.25,10.61,2.85,10.61,9.19C548.18,220.84,544.75,224.85,537.57,225.59z M533.8,206.02v-8.14
		c-3.25,0.5-4.61,2.15-4.61,4.16S531.16,205.23,533.8,206.02L533.8,206.02z M542.31,216.58c0-2.23-2.02-3.33-4.75-4.06v8.08
		C540.9,220.11,542.31,218.54,542.31,216.58L542.31,216.58z"/>
	<path class="st5" d="M574.98,220.19v5h-23.6v-3.98l12.73-12.08c3.1-2.96,3.65-4.85,3.65-6.66c0-2.93-2.02-4.61-5.95-4.61
		c-2.89-0.15-5.67,1.08-7.5,3.33l-4.16-3.2c2.98-3.6,7.49-5.57,12.16-5.31c6.96,0,11.44,3.53,11.44,9.19
		c0,3.11-0.87,5.95-5.31,10.11l-8.54,8.14L574.98,220.19z"/>
	<path class="st5" d="M603.84,215.29c0,6.36-5.16,10.39-11.66,10.39c-8.73,0-13.86-5.63-13.86-15.92c0-10.98,6.4-17.02,15.69-17.02
		c2.94-0.1,5.85,0.61,8.41,2.07l-2.18,4.48c-1.84-1.1-3.96-1.64-6.1-1.55c-6.03,0-9.83,3.75-9.83,11.01l0,0
		c2.22-2.31,5.35-3.53,8.54-3.33C599.13,205.47,603.84,209.3,603.84,215.29z M598.08,215.58c0-3.33-2.52-5.45-6.4-5.45
		c-3.88,0-6.5,2.33-6.5,5.5s2.38,5.4,6.66,5.4c3.66,0,6.23-2.1,6.23-5.43V215.58z"/>
	<path class="st5" d="M607.24,221.76c0-2.07,1.68-3.75,3.75-3.75c2.07,0,3.75,1.68,3.75,3.75c0,2.07-1.68,3.75-3.75,3.75
		C608.92,225.5,607.24,223.83,607.24,221.76z"/>
	<path class="st5" d="M618.03,209.21c0-10.53,5.76-16.47,13.32-16.47s13.32,5.95,13.32,16.47s-5.76,16.47-13.32,16.47
		S618.03,219.74,618.03,209.21z M638.8,209.21c0-7.73-3.03-11.29-7.41-11.29s-7.36,3.56-7.36,11.29c0,7.73,3.01,11.29,7.36,11.29
		S638.8,216.94,638.8,209.21z"/>
	<path class="st5" d="M648.81,209.21c0-10.53,5.76-16.47,13.32-16.47s13.32,5.95,13.32,16.47s-5.76,16.47-13.32,16.47
		S648.81,219.74,648.81,209.21z M669.58,209.21c0-7.73-3.01-11.29-7.41-11.29c-4.4,0-7.36,3.56-7.36,11.29
		c0,7.73,3.01,11.29,7.36,11.29C666.52,220.51,669.58,216.94,669.58,209.21z"/>
	<path class="st5" d="M679.61,209.21c0-10.53,5.76-16.47,13.32-16.47c7.56,0,13.32,5.95,13.32,16.47s-5.76,16.47-13.32,16.47
		C685.37,225.69,679.61,219.74,679.61,209.21z M700.37,209.21c0-7.73-3.01-11.29-7.4-11.29c-4.38,0-7.38,3.56-7.38,11.29
		c0,7.73,3.03,11.29,7.38,11.29S700.37,216.94,700.37,209.21z"/>
	<rect x="522.54" y="243.83" class="st6" width="57.06" height="28.37"/>
	<path class="st3" d="M542.53,253.34v10.56h-1.67l-5.73-7.15v7.15h-1.95v-10.56h1.67l5.81,7.15v-7.15H542.53z"/>
	<path class="st3" d="M553.26,262.23v1.67h-7.91v-10.56h7.71V255h-5.75v2.75h5.1v1.67h-5.1v2.81H553.26z"/>
	<path class="st3" d="M570.71,253.34l-3.5,10.56h-2.1l-2.62-7.81l-2.63,7.81h-2.1l-3.5-10.56h2.05l2.62,8.03l2.73-8.03h1.78
		l2.68,8.06l2.7-8.06H570.71z"/>
	<path class="st2" d="M848.82,392.03c0,0.23-70.29,0.43-156.98,0.43s-157.02-0.2-157.02-0.43c0-0.23,70.29-0.43,157.02-0.43
		S848.82,391.78,848.82,392.03z"/>
	<rect x="526.66" y="337.38" class="st6" width="370.6" height="54.38"/>
	<g class="st7">
		<rect x="526.66" y="337.38" width="370.6" height="54.38"/>
	</g>
	<path class="st5" d="M540.72,390.88c-0.29,19.74,15.47,35.98,35.21,36.27c19.74,0.29,35.98-15.47,36.27-35.21
		c0.29-19.74-15.47-35.98-35.21-36.27c-0.01,0-0.02,0-0.03,0C557.23,355.4,541.02,371.16,540.72,390.88z"/>
	<path class="st5" d="M540.73,390.8c0,0.03,0,0.06,0,0.08c-0.6,19.73,14.91,36.22,34.64,36.82c19.73,0.6,36.22-14.91,36.82-34.64
		c0.01-0.38,0.02-0.76,0.02-1.15v-0.08L540.73,390.8z"/>
	<path class="st8" d="M551.36,391.05c-0.2,13.86,10.87,25.26,24.73,25.46c13.86,0.2,25.26-10.87,25.46-24.73
		c0.2-13.86-10.87-25.26-24.73-25.46c-0.02,0-0.03,0-0.05,0C562.93,366.13,551.55,377.2,551.36,391.05z"/>
	<path class="st2" d="M576.78,366.32c-13.86-0.19-25.25,10.88-25.45,24.73l50.19,0.72C601.71,377.91,590.63,366.52,576.78,366.32z"
		/>
	<path class="st5" d="M561.17,391.18c-0.16,8.44,6.55,15.42,14.99,15.59c8.44,0.16,15.42-6.55,15.59-14.99
		c0.16-8.44-6.55-15.42-14.99-15.59c-0.03,0-0.05,0-0.08,0C568.27,376.08,561.34,382.78,561.17,391.18z"/>
	<path class="st5" d="M813.98,390.88c-0.29,19.74,15.47,35.98,35.21,36.27c19.74,0.29,35.98-15.47,36.27-35.21
		c0.29-19.74-15.47-35.98-35.21-36.27c0,0-0.01,0-0.01,0C830.51,355.39,814.28,371.15,813.98,390.88z"/>
	<path class="st5" d="M813.99,390.8c0,0.03,0,0.06,0,0.08c-0.6,19.73,14.91,36.22,34.64,36.82c19.73,0.6,36.22-14.91,36.82-34.64
		c0.01-0.38,0.02-0.76,0.02-1.15v-0.08L813.99,390.8z"/>
	<path class="st8" d="M824.64,391.05c-0.19,13.85,10.88,25.24,24.73,25.43c13.85,0.19,25.24-10.88,25.43-24.73
		c0.19-13.85-10.88-25.23-24.73-25.43C836.22,366.12,824.83,377.19,824.64,391.05C824.64,391.05,824.64,391.05,824.64,391.05z"/>
	<path class="st2" d="M850.07,366.32c-13.85-0.19-25.24,10.88-25.43,24.73c0,0,0,0,0,0l50.17,0.72
		C875,377.91,863.93,366.52,850.07,366.32z"/>
	<path class="st5" d="M834.43,391.18c-0.16,8.44,6.55,15.42,14.99,15.59c8.44,0.16,15.42-6.55,15.59-14.99
		c0.16-8.44-6.55-15.42-14.99-15.59c-0.03,0-0.05,0-0.08,0C841.53,376.08,834.6,382.78,834.43,391.18z"/>
	<path class="st6" d="M623.3,306.8c0,0-52.62,3.88-72.12,8.33c-13.76,3.08-40.26,8.33-39.97,25.08l2.1,11.96
		c-6,3.05-9.8,9.2-9.83,15.94c0,11.46-2.4,29.23,20.55,29.98c3.78,0.12,10.96,0,10.96,0s-4.4-48.87,40.49-50.3
		c45.69-1.47,42.66,49.85,42.66,49.85h190.68c0,0-7.83-49.97,41.36-50.07c49.19-0.1,41.64,50.4,41.64,50.4s18.09,1.57,26.52-13.64
		c8.43-15.21,6.21-26.03,6.21-26.03l-0.27-9.59c-0.09-3.27-2.71-5.92-5.98-6.05l0,0c0,0,3.33-24.2-1.77-28.32
		s-32.68-29.45-32.68-29.45l1.32-0.83c1.45-0.9,1.9-2.81,1-4.27c-0.38-0.61-0.95-1.07-1.63-1.3c-10.49-3.6-31.25-10.74-36.11-12.44
		c-0.73-0.26-1.49-0.42-2.27-0.48c-2.91-0.22-11.16-0.75-26.28-0.9c-18.44-0.2-91.61,0-91.61,0s-25.17,2.07-39.21,8.24
		C674.36,279.24,623.3,306.8,623.3,306.8z"/>
	<g class="st9">
		<path d="M516.81,366.72c-1.92-0.4-4.83-0.43-6.3,0.87c-0.97,1.09-1.52,2.49-1.53,3.95c-0.3,1.97-0.25,3.98,0.13,5.93
			c0.41,1.96,1.62,3.67,3.33,4.71c1.78,1.01,4,0.75,5.5-0.65c1.09-1.48,1.57-3.31,1.35-5.13c0.1-2.44,0-4.88-0.32-7.3
			c-0.1-0.53-0.32-1.03-0.65-1.47c-0.34-0.53-0.91-0.87-1.53-0.92"/>
	</g>
	<path class="st8" d="M513.33,352.17c5.6,0,11.01-0.32,16.66-0.68c0.6,0.01,1.18-0.17,1.67-0.52c0.45-0.57,0.66-1.3,0.58-2.03
		c0-3-0.13-6.4-2.4-8.33c-1.49-1.07-3.28-1.65-5.11-1.67c-4.53-0.49-9.11-0.03-13.46,1.35L513.33,352.17z"/>
	<path class="st3" d="M629.34,396c-0.01-0.16-0.01-0.31,0-0.47l-0.1-1.4c0-1.25-0.17-3.06-0.28-5.4s-0.28-5.21-0.63-8.51
		c-0.33-3.75-0.99-7.47-1.97-11.11c-1.21-4.41-3.02-8.63-5.38-12.54c-2.65-4.54-6.18-8.51-10.39-11.66
		c-9.01-6.41-21.19-9.99-33.93-10.19c-12.09-0.26-23.93,3.47-33.7,10.61c-4.21,3.12-7.89,6.89-10.93,11.16
		c-2.64,3.73-4.8,7.77-6.41,12.04c-1.31,3.53-2.22,7.2-2.7,10.94c-0.37,2.82-0.48,5.66-0.33,8.49c0.11,1.79,0.33,3.58,0.67,5.35
		c0.1,0.6,0.18,1.07,0.25,1.38c0.07,0.32,0,0.48,0,0.48l-0.1-0.47c0-0.32-0.17-0.78-0.28-1.38c-0.36-1.76-0.61-3.55-0.73-5.35
		c-0.17-2.85-0.08-5.71,0.28-8.54c0.45-3.76,1.35-7.45,2.66-10.99c1.59-4.3,3.74-8.38,6.4-12.13c3.03-4.31,6.74-8.11,10.98-11.24
		c9.8-7.21,21.72-10.97,33.88-10.69c12.81,0.15,24.98,3.8,34.11,10.28c4.23,3.15,7.79,7.11,10.46,11.66
		c2.36,3.94,4.17,8.18,5.36,12.61c0.96,3.65,1.61,7.38,1.93,11.14c0.32,3.33,0.45,6.2,0.57,8.53c0.12,2.33,0.17,4.16,0.23,5.4
		c0,0.62,0,1.08,0,1.42C629.26,395.75,629.34,396,629.34,396z"/>
	<path class="st5" d="M631.36,396.83c-0.01-0.13-0.01-0.27,0-0.4v-1.18c0-1.05,0-2.6-0.13-4.61c-0.12-4.05-0.28-9.99-0.5-17.52
		c-0.22-7.53-0.47-16.66-0.75-27.18c0-2.63-0.15-5.33-0.22-8.11c-0.05-1.42,0.01-2.84,0.18-4.25l0.3-2.15l0.45-2.17
		c1.43-6.04,4.11-11.71,7.86-16.66l0,0l33.01-20.8l8.93-5.61c3-2,6.15-3.76,9.43-5.26c3.33-1.57,6.76-2.94,10.26-4.1
		c1.75-0.62,3.55-1.12,5.35-1.67s3.61-0.97,5.48-1.33c7-1.51,14.12-2.41,21.27-2.7c7.03-0.31,13.9-0.31,20.6,0h0.2v0.2
		c-3.16,14.14-6.13,27.47-8.86,39.68l0,0l0,0c-1.63,2.69-2.96,5.55-3.98,8.53c-1.01,2.83-1.46,5.83-1.33,8.83
		c0.22,2.93,0.3,5.8,0.38,8.58c0.08,2.78,0.1,5.5,0.15,8.11c0.15,10.49,0.2,19.64,0.22,27.17s0,13.46,0,17.51c0,2.02,0,3.56,0,4.61
		v1.18c0.01,0.13,0.01,0.27,0,0.4c0,0,0-0.13,0-0.4v-1.18c0-1.05,0-2.6,0-4.61c0-4.05,0-9.99-0.1-17.51
		c-0.1-7.51-0.12-16.66-0.3-27.17c0-2.62-0.12-5.31-0.17-8.09c-0.05-2.78-0.17-5.65-0.4-8.58c-0.13-3.03,0.33-6.07,1.35-8.93
		c1.01-3,2.35-5.89,4-8.59l0,0c2.71-12.21,5.68-25.55,8.84-39.69l0.15,0.22c-6.85-0.36-13.72-0.36-20.57,0
		c-7.14,0.29-14.24,1.19-21.22,2.68c-1.85,0.37-3.65,0.88-5.46,1.35c-1.82,0.47-3.58,1.03-5.33,1.67
		c-3.48,1.16-6.89,2.52-10.21,4.06c-3.26,1.5-6.4,3.25-9.39,5.25l-9.13,5.65l-33.03,20.77l0,0c-3.73,4.92-6.39,10.55-7.83,16.56
		c-1.5,5.73-0.75,11.38-0.73,16.66c0.25,10.49,0.48,19.64,0.67,27.18c0.18,7.55,0.32,13.47,0.42,17.52c0,2.02,0.08,3.56,0.1,4.61
		v1.58L631.36,396.83z"/>
	<path class="st5" d="M752.63,272.23h0.3h0.92l3.55-0.08l13.16-0.27l44.34-0.75h0.07l0,0l6.21,7.6l17.82,21.82
		c0.67,0.83,1.35,1.67,2.02,2.47c0.65,0.82,1.21,1.72,1.67,2.67c1.68,3.55,1.78,7.65,0.25,11.28c-0.7,1.67-1.37,3.21-2.02,4.71
		l-6.13,14.17l-1.67,3.85c-0.2,0.43-0.33,0.77-0.45,1c-0.05,0.12-0.1,0.23-0.17,0.33l0.13-0.35l0.42-1c0.38-0.9,0.92-2.22,1.67-3.88
		l6.01-14.22c1.17-3.03,3.18-6.2,3.05-9.99c-0.03-1.97-0.48-3.9-1.32-5.68c-0.46-0.92-1.02-1.8-1.67-2.6l-2.03-2.48l-17.76-21.65
		l-6.21-7.61h0.13l-44.34,0.63l-13.16,0.15h-3.55h-1.22L752.63,272.23z"/>
	<path class="st5" d="M730.25,331.24c0,0,0.18,0,0.53,0c0.5-0.09,0.98-0.29,1.4-0.57c0.68-0.44,1.18-1.1,1.43-1.87
		c0.15-0.47,0.21-0.97,0.18-1.47c-0.01-0.58-0.15-1.15-0.42-1.67c-0.61-1.14-1.79-1.86-3.08-1.88h-14.82
		c-1.77,0.01-3.26,1.34-3.46,3.1c-0.11,0.81,0.03,1.64,0.42,2.37c0.38,0.67,0.96,1.2,1.67,1.52c0.71,0.25,1.47,0.34,2.22,0.27h6.11
		h5.68h1.55h0.55c-0.18,0.02-0.37,0.02-0.55,0h-1.55h-5.68h-7.26c-0.41-0.03-0.8-0.12-1.18-0.27c-0.79-0.33-1.45-0.92-1.88-1.67
		c-0.42-0.78-0.59-1.68-0.48-2.57c0.23-1.93,1.87-3.4,3.81-3.41h14.82c1.4,0.01,2.68,0.8,3.33,2.05c0.27,0.52,0.41,1.09,0.42,1.67
		c0.02,0.52-0.05,1.04-0.22,1.53c-0.28,0.8-0.83,1.47-1.55,1.92c-0.45,0.27-0.95,0.45-1.47,0.52
		C730.61,330.98,730.44,331.12,730.25,331.24z"/>
	<path class="st5" d="M829.05,331.24c0,0,0.18,0,0.53,0c0.5-0.09,0.98-0.29,1.4-0.57c0.68-0.44,1.18-1.1,1.43-1.87
		c0.15-0.47,0.21-0.97,0.18-1.47c-0.01-0.58-0.15-1.15-0.42-1.67c-0.61-1.14-1.79-1.86-3.08-1.88h-14.82
		c-0.87,0-1.71,0.33-2.35,0.92c-0.63,0.57-1.03,1.34-1.12,2.18c-0.11,0.81,0.05,1.64,0.43,2.37c0.38,0.67,0.96,1.2,1.67,1.52
		c0.72,0.25,1.48,0.34,2.23,0.27h6.11h5.68h1.55h0.53c-0.18,0.03-0.36,0.03-0.53,0h-1.55h-5.68h-7.26c-0.41-0.03-0.81-0.12-1.2-0.27
		c-0.79-0.33-1.45-0.92-1.88-1.67c-0.42-0.79-0.58-1.68-0.47-2.57c0.1-0.92,0.54-1.77,1.22-2.4c0.7-0.65,1.62-1.02,2.58-1.02h14.84
		c2.05,0.04,3.69,1.7,3.7,3.75c0.02,0.52-0.05,1.04-0.22,1.53c-0.28,0.79-0.82,1.47-1.53,1.92c-0.45,0.27-0.95,0.45-1.47,0.52
		C829.41,331,829.24,331.13,829.05,331.24z"/>
	<path class="st8" d="M915.7,315.11h-19.77c-2.71,0-5.19,1.5-6.45,3.9l0,0c-1.03,1.97-1.12,4.3-0.23,6.35l7.76,17.61l19.8-0.2
		C916.81,342.76,921.01,320.53,915.7,315.11z"/>
	<path class="st5" d="M641.1,312.63l102.02-1.88l66.41-1.22l21.89-12.64c1.62-0.88,2.21-2.9,1.33-4.52
		c-0.09-0.17-0.2-0.33-0.32-0.48l-13.64-17.92c-1.42-1.87-3.62-2.97-5.96-2.98l-74.27-0.6c0,0-27.97-1.67-49.97,10.71
		C672.14,290.64,656.28,301.17,641.1,312.63z"/>
	<path class="st4" d="M688.64,272.91c0,0,4.33,1.67,1.02,3.81c-3.31,2.15-54.97,34.74-54.97,34.74l-11.34-4.66
		C644.35,295.08,665.84,283.65,688.64,272.91z"/>
	<path class="st5" d="M636.31,312.28h-0.32l-0.95,0.22l-3.61,0.75c-3.16,0.62-7.73,1.5-13.32,2.48
		c-11.33,1.95-27.07,4.21-44.56,5.73c-4.36,0.38-8.64,0.68-12.78,0.97c-4.13,0.28-8.09,0.52-11.88,0.87
		c-6.71,0.46-13.36,1.57-19.85,3.33c-4.36,1.23-8.56,2.98-12.51,5.21c-1.42,0.75-2.43,1.48-3.15,1.93l-0.82,0.52l-0.28,0.17
		l0.27-0.2l0.78-0.55c0.72-0.45,1.67-1.22,3.13-1.98c3.93-2.29,8.13-4.08,12.51-5.33c6.49-1.83,13.16-3,19.89-3.48
		c3.78-0.37,7.76-0.62,11.89-0.9c4.13-0.28,8.33-0.58,12.76-0.97c17.47-1.52,33.21-3.75,44.54-5.63c5.68-0.95,10.24-1.78,13.32-2.37
		l3.65-0.7l0.93-0.17L636.31,312.28z"/>
	<path class="st5" d="M923.61,357.97c0,0.1-6.8,0.18-15.19,0.18c-8.39,0-15.19-0.08-15.19-0.18c0-0.1,6.8-0.17,15.19-0.17
		C916.81,357.8,923.61,357.87,923.61,357.97z"/>
	<path class="st5" d="M799.2,375.33c0,0.1-38.31,0.17-85.71,0.17c-47.4,0-85.73,0-85.73-0.17s38.31-0.17,85.73-0.17
		C760.91,375.16,799.2,375.23,799.2,375.33z"/>
	<path class="st5" d="M530.46,358.55c0,0-5.43,0.17-12.11,0.17s-12.13-0.08-12.13-0.17s5.43-0.18,12.13-0.18
		C525.04,358.37,530.46,358.45,530.46,358.55z"/>
	<path class="st4" d="M883.37,284.02c0,0-4.56,5.1-2.76,8.84c1.8,3.75,20.29,16.84,20.29,16.84l13.44,2.52L883.37,284.02z"/>
	<polygon class="st4" points="755.65,274.89 752.62,307.5 806.68,305.97 828.47,293.3 814.36,274.89 	"/>
	<path class="st4" d="M653.91,309.17c0,0,32.6-23.55,45.47-28.32c12.41-4.51,18.89-5.65,30.55-5.98c11.16-0.32,17.94,0,17.94,0
		l-8.61,33.16L653.91,309.17z"/>
	<path class="st6" d="M649.13,309.29L649.13,309.29c-0.01-2.07,1.11-3.99,2.91-5l7.5-4.21c2.14-1.2,4.55-1.83,7-1.83l0,0
		c1.51,0,3.01,0.24,4.45,0.72c3.2,1.11,5.37,4.08,5.46,7.46l0,0c0.13,4.6-3.49,8.43-8.09,8.56c-0.08,0-0.16,0-0.24,0h-13.32
		C651.67,314.95,649.15,312.41,649.13,309.29z"/>
	<path class="st5" d="M649.13,309.29c0,0,0,0.25,0.1,0.72c0.09,0.69,0.31,1.36,0.65,1.97c0.53,0.96,1.33,1.74,2.3,2.25
		c0.6,0.32,1.26,0.53,1.93,0.62c0.7,0,1.48,0,2.3,0h11.43c1.08,0.04,2.16-0.14,3.18-0.52c1.05-0.4,2.01-1.01,2.81-1.8
		c0.85-0.81,1.5-1.8,1.92-2.9c0.42-1.13,0.59-2.33,0.5-3.53c-0.16-2.39-1.39-4.58-3.33-5.98c-0.93-0.63-1.98-1.07-3.08-1.3
		c-1.09-0.26-2.21-0.39-3.33-0.38c-2.02,0-4.02,0.42-5.86,1.25c-0.85,0.38-1.67,0.88-2.43,1.3l-2.23,1.23l-3.83,2.13
		c-0.97,0.52-1.76,1.31-2.3,2.27c-0.33,0.61-0.56,1.27-0.67,1.95c-0.01,0.25-0.04,0.49-0.08,0.73c-0.03-0.24-0.03-0.49,0-0.73
		c0.07-0.71,0.28-1.39,0.62-2.02c0.53-0.99,1.33-1.81,2.32-2.37l3.81-2.17l2.22-1.27c0.78-0.43,1.57-0.92,2.45-1.32
		c1.87-0.87,3.91-1.32,5.98-1.32c1.12-0.01,2.24,0.11,3.33,0.37c1.15,0.24,2.24,0.7,3.21,1.35c2.04,1.46,3.34,3.74,3.53,6.25
		c0.09,1.25-0.09,2.51-0.53,3.68c-0.43,1.14-1.11,2.17-1.98,3.01c-0.85,0.82-1.85,1.45-2.95,1.87c-1.07,0.38-2.2,0.56-3.33,0.53
		h-11.43c-0.78,0.04-1.56,0.04-2.33,0c-0.7-0.09-1.38-0.31-2-0.65c-0.98-0.56-1.78-1.38-2.32-2.37c-0.33-0.63-0.53-1.31-0.62-2.02
		C649.08,309.85,649.09,309.57,649.13,309.29z"/>
	<path class="st3" d="M900.37,396.31c0,0,0-0.17,0-0.47s0-0.77,0-1.37c0-0.6,0.12-1.33,0.15-2.2c0.03-0.87,0-1.88,0.1-3.01
		c0.1-1.13,0-2.4,0-3.78s-0.08-2.86-0.28-4.46c-0.3-3.63-0.94-7.23-1.93-10.74c-0.57-2.04-1.28-4.05-2.12-6
		c-2.91-6.8-7.64-12.67-13.67-16.96c-4.54-3.3-9.61-5.8-14.99-7.4c-5.75-1.62-11.71-2.42-17.69-2.37
		c-6.02-0.06-12.02,0.81-17.77,2.58c-2.73,0.88-5.37,2-7.91,3.33c-2.42,1.29-4.72,2.79-6.86,4.5c-4,3.13-7.57,6.78-10.59,10.86
		c-1.33,1.87-2.51,3.84-3.53,5.9c-0.93,2.02-1.77,3.96-2.43,5.88c-2.13,6.04-3.43,12.35-3.85,18.74c-0.1,2.27-0.1,4.03,0,5.21
		c0,0.6,0,1.05,0,1.37s0,0.47,0,0.47v-0.47c0-0.32,0-0.77-0.12-1.35c0-1.2-0.1-2.96,0-5.23c0.37-6.42,1.63-12.76,3.76-18.82
		c0.69-2.02,1.5-3.99,2.42-5.91c1.01-2.08,2.19-4.07,3.53-5.95c3.03-4.11,6.6-7.79,10.61-10.94c2.16-1.72,4.48-3.23,6.91-4.53
		c2.56-1.33,5.22-2.45,7.96-3.33c5.78-1.82,11.81-2.72,17.87-2.68c6.05-0.07,12.08,0.74,17.91,2.4c5.38,1.61,10.45,4.13,14.99,7.45
		c2.12,1.55,4.09,3.29,5.91,5.18c1.72,1.78,3.26,3.74,4.58,5.83c1.26,1.94,2.34,3.98,3.23,6.11c0.84,1.96,1.55,3.97,2.12,6.03
		c0.98,3.53,1.61,7.14,1.9,10.79c0.18,1.67,0.17,3.1,0.25,4.48s0,2.65,0,3.78c0,1.13-0.1,2.15-0.15,3.01
		c-0.05,0.87-0.13,1.67-0.17,2.22c-0.03,0.55-0.1,1.03-0.13,1.35V396.31z"/>
	<path class="st3" d="M737.82,312.63h-0.6h-1.75l-6.4,0.12c-5.41,0.1-12.89,0.3-21.14,0.53s-15.74,0.38-21.15,0.42h-8.59h0.45h1.75
		l6.4-0.12c5.41-0.1,12.89-0.3,21.14-0.52c8.24-0.22,15.74-0.38,21.15-0.43h6.4h1.75L737.82,312.63L737.82,312.63z"/>
	<path class="st3" d="M728.98,322.68c-3.88,0.22-7.78,0.22-11.66,0C721.2,322.43,725.1,322.43,728.98,322.68z"/>
	<path class="st3" d="M731.13,286.93c0,0-7.23,3.11-16.22,6.66c-8.99,3.55-16.32,6.53-16.36,6.43c-0.03-0.1,7.21-3.11,16.22-6.75
		C723.78,289.65,731.08,286.83,731.13,286.93z"/>
	<path class="st3" d="M716.4,289.21c0,0.08-6.88,3.13-15.46,6.8c-8.58,3.66-15.54,6.58-15.57,6.5s6.88-3.15,15.44-6.81
		C709.38,292.03,716.37,289.11,716.4,289.21z"/>
	<path class="st3" d="M809.76,285.67c0,0.08-7.23,3.11-16.22,6.75c-8.99,3.63-16.32,6.53-16.36,6.45
		c-0.03-0.08,7.21-3.11,16.22-6.76S809.73,285.55,809.76,285.67z"/>
	<path class="st3" d="M794.97,287.95c0,0.08-6.88,3.13-15.46,6.8c-8.58,3.66-15.54,6.58-15.57,6.5c-0.03-0.08,6.88-3.15,15.44-6.81
		C787.94,290.76,794.97,287.85,794.97,287.95z"/>
	<path class="st3" d="M811.18,312.62c0,0.1-14.44,0.27-32.26,0.37c-17.82,0.1-32.28,0.12-32.28,0s14.44-0.25,32.28-0.37
		S811.18,312.53,811.18,312.62z"/>
	<path class="st3" d="M827.17,322.19c0,0.1-4.05,0.22-9.04,0.27c-5,0.05-9.04,0-9.04-0.1s4.05-0.2,9.04-0.25
		C823.12,322.06,827.17,322.01,827.17,322.19z"/>
	<path class="st3" d="M550.54,317.2h-0.4l-1.13,0.15c-0.48,0-1.08,0.13-1.78,0.25c-0.7,0.12-1.5,0.2-2.37,0.38
		c-1.67,0.3-3.8,0.77-6.06,1.37c-2.44,0.67-4.85,1.46-7.21,2.38c-2.36,0.94-4.67,1.99-6.93,3.16c-2.07,1.1-3.88,2.17-5.38,3.11
		c-0.75,0.47-1.4,0.93-1.98,1.33c-0.58,0.4-1.08,0.73-1.48,1.03l-0.93,0.67l-0.33,0.2c0,0,0.08-0.1,0.3-0.27l0.88-0.72
		c0.38-0.3,0.87-0.68,1.45-1.08s1.22-0.88,1.97-1.37c1.48-1,3.33-2.08,5.36-3.2c2.26-1.19,4.57-2.26,6.95-3.2
		c2.38-0.92,4.8-1.71,7.26-2.38c2.28-0.58,4.35-1.02,6.11-1.3c0.87-0.15,1.67-0.23,2.37-0.33c0.7-0.1,1.32-0.15,1.8-0.18h1.15
		C550.27,317.19,550.41,317.18,550.54,317.2z"/>
	<path class="st3" d="M669.82,301.42c-0.2-0.22-0.41-0.43-0.63-0.63c-0.64-0.49-1.41-0.8-2.22-0.88c-1.2-0.1-2.41,0.03-3.56,0.38
		c-1.44,0.36-2.84,0.84-4.2,1.43c-2.48,1.07-4.78,2.5-6.85,4.25c-1.58,1.33-2.43,2.32-2.48,2.27c0.16-0.25,0.35-0.49,0.57-0.7
		c0.55-0.58,1.14-1.14,1.75-1.67c2.04-1.82,4.36-3.29,6.86-4.38c1.38-0.61,2.81-1.09,4.28-1.43c1.19-0.34,2.43-0.45,3.66-0.32
		c0.84,0.12,1.63,0.47,2.27,1.03c0.17,0.16,0.32,0.33,0.45,0.52C669.8,301.34,669.83,301.41,669.82,301.42z"/>
	<path class="st5" d="M884.92,283.77c-0.93,0.23-1.88,0.33-2.83,0.3c-1.12-0.03-2.24-0.17-3.33-0.42c-1.45-0.33-2.88-0.77-4.26-1.32
		c-1.53-0.58-3.18-1.32-5-2.07l-2.76-1.13c-0.97-0.37-1.97-0.7-2.98-1.07c-4.46-1.52-9-2.76-13.61-3.71
		c-8.38-1.75-16.89-2.81-25.45-3.16c-1.67-0.1-3.13-0.1-4.43-0.13h-3.33h-2.12h-0.55c-0.12,0-0.18,0-0.18,0h0.18h0.55l2.12-0.12
		h3.33c1.32,0,2.8,0,4.45,0c8.57,0.28,17.11,1.3,25.5,3.06c4.62,0.97,9.18,2.22,13.64,3.75c1.02,0.38,2.03,0.72,2.98,1.1l2.78,1.15
		c1.78,0.77,3.41,1.52,5,2.12c1.37,0.55,2.77,1,4.2,1.35c1.09,0.26,2.21,0.41,3.33,0.47c0.7,0.02,1.4-0.01,2.1-0.08h0.55
		L884.92,283.77z"/>
	<circle class="st1" cx="711.53" cy="458.26" r="17.32"/>
	<path class="st5" d="M711.97,465.82c-0.24,0-0.47-0.1-0.63-0.28l-8.66-10.19c-0.3-0.35-0.26-0.88,0.09-1.17
		c0.35-0.3,0.88-0.26,1.17,0.09l7.99,9.39l7.16-9.36c0.26-0.38,0.78-0.48,1.16-0.22s0.48,0.78,0.22,1.16
		c-0.02,0.03-0.04,0.06-0.06,0.08l-7.78,10.13c-0.15,0.2-0.38,0.32-0.63,0.32L711.97,465.82z"/>
</g>
<g id="freepik--Character--inject-387">
	<path class="st4" d="M435.05,692.16l-1.07,29.21c0,0,29.33,10.91,29.66,16.32h-56.73l-0.2-45.59L435.05,692.16z"/>
	<path class="st2" d="M416.44,718.89c-1.15,0.32-1.87,1.47-1.67,2.65c0.28,1.17,1.44,1.91,2.62,1.67c1.19-0.38,1.9-1.59,1.67-2.81
		c-0.44-1.16-1.72-1.77-2.9-1.37"/>
	<path class="st5" d="M406.88,737.65l0.17-4.6l54.32,1.77c0,0,2.53,1.1,2.25,2.88L406.88,737.65z"/>
	<path class="st3" d="M434.9,721.09c0,0.27-1.4,0.4-2.76,1.28c-1.37,0.88-2.08,2.05-2.35,1.95c-0.27-0.1,0.17-1.67,1.83-2.76
		S434.95,720.83,434.9,721.09z"/>
	<path class="st3" d="M440.85,723.61c0,0.27-1.13,0.73-2.08,1.9s-1.22,2.42-1.48,2.4s-0.45-1.58,0.75-3.01
		C439.23,723.46,440.85,723.29,440.85,723.61z"/>
	<path class="st3" d="M444.21,730.67c-0.25,0-0.63-1.32,0-2.83c0.63-1.52,2.02-2.13,2.13-1.9c0.12,0.23-0.68,1.05-1.25,2.3
		C444.53,729.49,444.49,730.65,444.21,730.67z"/>
	<path class="st3" d="M434.4,714.4c-0.12,0.25-1.38-0.13-2.95,0s-2.78,0.6-2.93,0.35c-0.15-0.25,1.03-1.22,2.88-1.32
		C433.25,713.33,434.53,714.18,434.4,714.4z"/>
	<path class="st4" d="M369.96,694.83l-2.25,35.31l6.26,28.45c0.43,1.96-0.82,3.89-2.78,4.32c-0.08,0.02-0.16,0.03-0.24,0.04l0,0
		c-1.15,0.17-2.32-0.23-3.13-1.07c-5.18-5.4-24.15-25.33-23.83-27.9c0.35-2.98-0.1-37.39-0.1-37.39L369.96,694.83z"/>
	<path class="st5" d="M370.96,762.93l-26.87-31.36v1.5c-0.05,1.3,0.35,2.57,1.15,3.6c2.13,2.73,8.19,10.13,22.54,25.2
		c0.85,0.9,2.11,1.3,3.33,1.07H370.96z"/>
	<g class="st10">
		<path class="st3" d="M351.8,720.48c0.88,0.7,1.08,1.94,0.48,2.88c-0.66,0.9-1.92,1.12-2.85,0.5c-0.93-0.74-1.14-2.05-0.5-3.05
			c0.79-0.84,2.09-0.93,2.98-0.2"/>
	</g>
	<path class="st3" d="M363.58,747.16c0.9-1.07,1.99-1.96,3.21-2.63c1.32-0.46,2.71-0.66,4.1-0.6c0-0.08-0.4-0.38-1.22-0.53
		c-2.21-0.33-4.42,0.64-5.66,2.5C363.58,746.61,363.43,747.13,363.58,747.16z"/>
	<path class="st3" d="M365.84,751.92c1.04-0.52,2.11-0.98,3.2-1.38c1.15-0.17,2.3-0.27,3.46-0.32c-1.08-0.72-2.44-0.89-3.66-0.45
		C366.74,750.37,365.66,751.92,365.84,751.92z"/>
	<path class="st3" d="M359.08,740.9c1.53-0.94,3.13-1.77,4.78-2.48c1.74-0.46,3.51-0.8,5.3-1
		C365.41,736.51,361.47,737.87,359.08,740.9z"/>
	<path class="st3" d="M358.86,730.1c0.1,0.22,2.08-0.52,4.63-0.5c2.55,0.02,4.53,0.7,4.61,0.48c-1.35-0.95-2.99-1.4-4.63-1.27
		C361.84,728.7,360.21,729.15,358.86,730.1z"/>
	<path class="st3" d="M359.26,719.73c1.56-0.43,3.18-0.65,4.8-0.65c1.6,0.24,3.17,0.7,4.65,1.37c0,0-0.32-0.53-1.12-1.03
		c-2.14-1.3-4.77-1.5-7.08-0.53C359.65,719.26,359.23,719.66,359.26,719.73z"/>
	<path class="st3" d="M364.08,717.09c0.14-0.43,0.17-0.89,0.1-1.33c-0.06-1.23-0.37-2.44-0.92-3.55c-0.32-0.84-0.9-1.56-1.67-2.03
		c-0.55-0.28-1.22-0.18-1.67,0.25c-0.42,0.45-0.64,1.05-0.63,1.67c0.11,2.42,1.89,4.44,4.28,4.85c2.38,0.34,4.74-0.79,5.96-2.86
		c0.28-0.51,0.34-1.11,0.17-1.67c-0.26-0.56-0.85-0.89-1.47-0.82c-0.88,0.16-1.7,0.55-2.38,1.12c-0.97,0.71-1.82,1.57-2.5,2.57
		c-0.28,0.35-0.48,0.76-0.6,1.2c0.98-1.27,2.13-2.39,3.43-3.33c0.61-0.48,1.33-0.79,2.1-0.92c0.33-0.05,0.66,0.13,0.8,0.43
		c0.1,0.38,0.03,0.79-0.18,1.12c-1.1,1.76-3.13,2.71-5.18,2.43c-2.05-0.34-3.59-2.05-3.71-4.13c-0.01-0.41,0.13-0.81,0.4-1.12
		c0.24-0.24,0.6-0.3,0.9-0.15c0.65,0.39,1.16,0.97,1.47,1.67C363.48,713.93,363.92,715.49,364.08,717.09z"/>
	<path class="st5" d="M459.9,445.2c3.03,12.05,4.25,24.48,3.61,36.89c-0.42,7.86-25.67,235.02-25.67,235.02l-32.13-2.88l5.55-212.4
		l-1.35,1.22c0,0-19.14,89.34-20.4,103.47c-1.13,12.71-16.42,114.71-16.42,114.71l-31.16-1.5l7.06-128.95l9.44-117.01l3.78-34.1
		L459.9,445.2z"/>
	<path class="st4" d="M405.07,483.51c0.47,0.33,0.98,0.59,1.52,0.8c1.41,0.69,2.91,1.18,4.46,1.45c1.1,0.2,2.23,0.2,3.33,0
		c1.25-0.23,2.4-0.8,3.33-1.67c0.98-1.04,1.67-2.31,2.02-3.7c0.38-1.4,0.58-2.85,0.85-4.33c1-5.91,1.67-11.31,2.02-15.22
		c0.18-1.95,0.3-3.53,0.35-4.63c0.06-0.55,0.06-1.11,0-1.67c-0.16,0.54-0.26,1.1-0.3,1.67c-0.15,1.25-0.35,2.78-0.58,4.61
		c-0.5,3.88-1.23,9.26-2.23,15.16c-0.5,2.91-0.83,5.88-2.6,7.65c-1.68,1.48-3.94,2.12-6.15,1.75c-1.51-0.22-2.99-0.61-4.41-1.18
		C406.16,483.91,405.62,483.68,405.07,483.51z"/>
	<path class="st4" d="M415.21,455.58c0,0-0.23-0.17-0.73-0.2c-0.72,0.01-1.43,0.26-2,0.7c-0.89,0.66-1.42,1.69-1.43,2.8
		c0.17,1.94,1.89,3.38,3.83,3.2c0.86-0.08,1.66-0.46,2.25-1.09c0.67-0.88,0.9-2.01,0.62-3.08c-0.17-0.7-0.57-1.33-1.13-1.78
		c-0.4-0.3-0.68-0.33-0.7-0.3c0.66,0.58,1.11,1.35,1.3,2.2c0.17,0.89-0.05,1.81-0.62,2.52c-0.76,0.8-1.93,1.05-2.95,0.63
		c-1.06-0.31-1.81-1.24-1.9-2.33c-0.01-0.91,0.39-1.77,1.08-2.35C413.51,455.94,414.34,455.62,415.21,455.58z"/>
	<path class="st4" d="M358.86,471.62c0.4,0.11,0.82,0.16,1.23,0.15c1.11,0.08,2.22,0.08,3.33,0c3.7-0.29,7.33-1.22,10.71-2.75
		c3.39-1.52,6.49-3.6,9.18-6.16c0.81-0.77,1.56-1.6,2.25-2.48c0.29-0.3,0.52-0.65,0.7-1.03c-0.1-0.08-1.22,1.27-3.33,3.11
		c-5.48,4.85-12.31,7.91-19.57,8.78C360.61,471.53,358.88,471.48,358.86,471.62z"/>
	<path class="st4" d="M445.48,455.54c0.47,1.28,1.12,2.49,1.93,3.6c3.64,5.55,8.58,10.12,14.39,13.32c1.16,0.72,2.42,1.29,3.73,1.67
		c-1.11-0.78-2.27-1.49-3.46-2.13c-2.77-1.71-5.37-3.69-7.76-5.9c-2.38-2.23-4.54-4.67-6.46-7.3
		C447.11,457.68,446.32,456.59,445.48,455.54z"/>
	<path class="st11" d="M438.75,216.24c-2.24-14.49-15.23-24.83-29.85-23.77l-1.45,0.1c-15.61,2.07-22.57,16.46-20.09,32l5.43,55.13
		l0.27,11.41l37.14,3.33l-0.8-24.07c0,0,14.89-3.43,13.99-18.51C442.94,244.63,440.83,229.72,438.75,216.24z"/>
	<path class="st12" d="M429.54,270.38c-6.99,0.51-13.99-0.99-20.15-4.33c0,0,5.43,10.49,20.35,8.04L429.54,270.38z"/>
	<path class="st5" d="M436.56,230.22c0.1,1.16-0.75,2.19-1.92,2.32c-1.13,0.18-2.18-0.6-2.36-1.72c0-0.01,0-0.03-0.01-0.04
		c-0.1-1.17,0.75-2.2,1.92-2.33c1.14-0.17,2.2,0.62,2.36,1.76C436.56,230.2,436.56,230.21,436.56,230.22z"/>
	<path class="st5" d="M436.03,223.92c-0.23,0.3-1.95-0.78-4.26-0.62c-2.32,0.17-3.93,1.47-4.2,1.2c-0.27-0.27,0.1-0.65,0.8-1.23
		c0.95-0.77,2.11-1.22,3.33-1.3c1.2-0.1,2.41,0.19,3.43,0.83C435.88,223.22,436.16,223.71,436.03,223.92z"/>
	<path class="st5" d="M414.73,232.8c0.1,1.16-0.75,2.19-1.92,2.32c-1.13,0.17-2.18-0.62-2.34-1.74c0-0.01,0-0.03-0.01-0.04
		c-0.1-1.16,0.75-2.19,1.92-2.32c1.12-0.17,2.17,0.59,2.34,1.71C414.72,232.75,414.73,232.78,414.73,232.8z"/>
	<path class="st5" d="M413.33,225.92c-0.25,0.3-1.97-0.78-4.28-0.6c-2.32,0.18-3.91,1.45-4.2,1.18c-0.28-0.27,0.1-0.63,0.8-1.23
		c0.95-0.76,2.12-1.21,3.33-1.3c1.17-0.07,2.33,0.22,3.33,0.83C413.16,225.3,413.45,225.79,413.33,225.92z"/>
	<path class="st5" d="M422.97,242.48c1.19-0.47,2.44-0.79,3.71-0.95c0.58-0.1,1.13-0.27,1.2-0.68c0-0.59-0.18-1.18-0.52-1.67
		c-0.67-1.38-1.35-2.85-2.08-4.38c-2.88-6.21-5-11.36-4.78-11.48c0.22-0.12,2.8,4.85,5.7,11.08l2,4.4c0.43,0.68,0.61,1.5,0.48,2.3
		c-0.15,0.43-0.48,0.78-0.92,0.93c-0.29,0.11-0.59,0.18-0.9,0.22C425.59,242.49,424.28,242.57,422.97,242.48z"/>
	<path class="st5" d="M416.28,244.58c0.38,0,0.57,2.47,2.85,4.08c2.28,1.62,5,1.17,5,1.5s-0.57,0.53-1.67,0.65
		c-1.47,0.13-2.93-0.27-4.13-1.12c-1.16-0.81-1.96-2.04-2.23-3.43C415.88,245.21,416.11,244.58,416.28,244.58z"/>
	<path class="st5" d="M413.26,216.81c-0.18,0.65-2.52,0.52-5.2,1.05s-4.83,1.42-5.25,0.88c-0.17-0.25,0.17-0.88,1-1.55
		c1.12-0.85,2.43-1.42,3.81-1.67c1.38-0.27,2.8-0.21,4.15,0.18C412.8,216.06,413.35,216.51,413.26,216.81z"/>
	<path class="st5" d="M434.7,217.26c-0.37,0.55-2,0.12-3.91,0.23s-3.51,0.62-3.93,0c-0.18-0.25,0-0.8,0.7-1.35
		c0.91-0.67,2-1.05,3.13-1.08c1.13-0.07,2.25,0.23,3.2,0.83C434.6,216.41,434.87,216.94,434.7,217.26z"/>
	<path class="st11" d="M390.84,239.05c-0.24-2.25-2.26-3.88-4.51-3.64c-0.06,0.01-0.13,0.01-0.19,0.02c-2.78,0.47-5.8,2.3-5.18,8.08
		c1.08,10.28,11.16,7.08,11.14,6.78C392.09,249.99,391.34,243.34,390.84,239.05z"/>
	<path class="st12" d="M389.48,246.66c0,0-0.17,0.15-0.45,0.32c-0.41,0.22-0.88,0.28-1.33,0.17c-1.44-0.72-2.38-2.16-2.47-3.76
		c-0.11-0.88-0.03-1.77,0.23-2.62c0.13-0.67,0.59-1.24,1.22-1.52c0.41-0.15,0.87,0.01,1.1,0.38c0.17,0.28,0.12,0.48,0.18,0.5
		s0.2-0.2,0-0.62c-0.08-0.25-0.24-0.46-0.47-0.6c-0.31-0.18-0.67-0.23-1.02-0.15c-0.83,0.27-1.45,0.94-1.67,1.78
		c-0.35,0.93-0.46,1.94-0.32,2.93c0.09,1.88,1.3,3.52,3.06,4.16c0.6,0.13,1.21-0.04,1.67-0.45
		C389.48,246.91,389.51,246.67,389.48,246.66z"/>
	<path class="st11" d="M479.8,327.19c4.78,13.92,6.38,14.16,10.73,54.37c0.83,7.81-1.27,19.69-8.19,23.32
		c-6.93,3.63-19.22-0.37-23.32-7.05l-4.61-29.63L479.8,327.19z"/>
	<path class="st12" d="M462.75,386.35c0.76-2.04,1.63-4.03,2.6-5.98c1.13-1.86,2.35-3.65,3.66-5.38c-0.55,0.36-1.02,0.81-1.42,1.33
		c-1.03,1.17-1.93,2.45-2.68,3.81c-0.75,1.37-1.35,2.82-1.78,4.31C462.91,385.06,462.78,385.7,462.75,386.35z"/>
	<path class="st6" d="M362.18,402.71l0.18-33.1l-0.12-3.25l-33.65-7.85c0,0,6.66-21.65,12.64-45.07
		c3.5-13.49,15.12-20.27,17.92-21.65l0,0l0.62-0.28l0,0l32.93-12.63c6.53,6.96,15.51,11.39,24.67,8.71
		c4.97-1.37,9.41-4.21,12.73-8.16l22.37,6.56l0,0c6.28,2.17,11.59,6.5,14.99,12.21c4.56,8.06,19.12,44.97,19.39,45.87l-27,2.43
		c0,0,4.8,87.53,3.1,103.17c0,0-6.55,4.53-23.09,5.31c-33.53,1.58-83.45-0.8-83.45-0.8c0.78-5,1.67-13.49,2.07-17.76L362.18,402.71z
		"/>
	<path class="st5" d="M459,313.87c-0.13,0,0.58,20.87,1.67,46.64c1.08,25.77,1.95,46.64,2.08,46.64c0.13,0-0.57-20.89-1.67-46.64
		C459.98,334.75,459.15,313.87,459,313.87z"/>
	<path class="st5" d="M489.7,331.34l-10.43,43.41c-0.58,2.4-2.71,4.1-6.18,5l-59.15,0.2c-2.91-1.19-4.67-4.17-4.31-7.3l7.75-41.46
		c0.48-2.49,2.63-4.32,5.16-4.38l62.34-1.43c2.68-0.05,4.89,2.07,4.94,4.75C489.84,330.53,489.79,330.94,489.7,331.34z"/>
	<path class="st11" d="M493.6,340.03c1.06-1.39,1.02-3.33-0.08-4.68c-1.13-1.3-2.78-2.04-4.5-2c-1.7,0.04-3.37,0.43-4.91,1.13
		c-1.94,0.8-3.79,1.78-5.55,2.93c-1.33,0.68-2.31,1.89-2.71,3.33c-0.22,1.47,1.42,3.08,2.68,2.33c-1.81,0.82-3.13,2.45-3.53,4.4
		c-0.22,1.85,0.78,2.81,2.58,3.33c-1.4,0.59-2.07,2.19-1.52,3.6c0.9,1.35,2.66,1.82,4.11,1.1c1.37-0.7,2.55-1.74,3.41-3.01
		c-0.88,2.11-1.04,4.45-0.47,6.66c3.91-1.43,7.76-5.8,6.66-9.99c1.98-1.6,2.63-4.34,1.58-6.66c1.83-0.86,3.04-2.65,3.15-4.66"/>
	<path class="st12" d="M482.87,359.17c0.47-0.42,0.98-0.79,1.53-1.1c1.25-0.83,2.37-1.83,3.33-2.98c0.92-1.17,1.5-2.57,1.67-4.05
		c0.01-0.63,0.05-1.26,0.12-1.88c0.24,0.61,0.32,1.27,0.25,1.92c-0.08,1.58-0.66,3.1-1.67,4.33c-1,1.21-2.21,2.21-3.58,2.96
		C484.02,358.73,483.46,359,482.87,359.17z"/>
	<path class="st12" d="M477.62,350.79c0.58-0.41,1.14-0.85,1.67-1.33c1.29-1.12,2.81-1.95,4.45-2.42c0.9-0.2,1.83-0.2,2.73,0
		c0.73,0.16,1.42,0.49,2.02,0.95c0.54,0.48,1,1.04,1.35,1.67c-0.01-0.2-0.07-0.39-0.17-0.57c-0.24-0.49-0.57-0.93-0.98-1.28
		c-0.61-0.53-1.33-0.91-2.12-1.1c-0.96-0.23-1.97-0.23-2.93,0c-1.71,0.47-3.27,1.37-4.55,2.6
		C478.53,349.73,478.04,350.23,477.62,350.79z"/>
	<path class="st12" d="M477.87,343.26c0.72-0.2,1.41-0.51,2.05-0.9c0.71-0.38,1.45-0.72,2.2-1.02c0.91-0.34,1.86-0.61,2.81-0.8
		c0.95-0.21,1.92-0.24,2.88-0.1c0.77,0.13,1.51,0.43,2.15,0.88c0.6,0.44,1.08,1.01,1.43,1.67c-0.02-0.21-0.08-0.42-0.18-0.6
		c-0.25-0.5-0.62-0.94-1.07-1.28c-0.66-0.52-1.44-0.87-2.27-1.02c-1-0.19-2.03-0.19-3.03,0c-0.98,0.2-1.95,0.49-2.88,0.87
		c-0.75,0.32-1.48,0.69-2.18,1.12C479.12,342.43,478.48,342.83,477.87,343.26z"/>
	<path class="st5" d="M382.62,228.59c0.85,2.93,0.55,7.83,3.18,7.16c5.23-1.32,3.96,9.39,6.48,8.33s4.66-4.08,4.81-10.68
		c0.2-8.33-3.16-14.39,0.12-23.97c2.13-3.89,6.15-6.38,10.58-6.56c4.47-0.1,8.67,2.13,11.09,5.88c0.47-2.93,1.9-7.33,4.5-8.73
		c2.66-1.48,5.95-1.21,8.33,0.68c2.32,2.01,2.79,5.43,1.1,7.99c1.25,0.39,2.61-0.09,3.33-1.18c0.1,1.37-0.37,2.73-1.3,3.75
		c1.07-0.28,2.01-0.93,2.65-1.83c-0.27,1.2-0.52,2.42-0.78,3.61c4.4,0.12,8.71-4.15,9.99-7.94c1.85-5.75,0.42-11.54-2.8-16.66
		c-3.2-5.24-8.85-8.51-14.99-8.66c-5.82-0.26-11.18,3.13-13.44,8.49c-3.91-2.78-11.86-3.73-16.24-1.67
		c-4.44,2.08-7.48,6.31-8.03,11.18c-2.87-0.98-6.05-0.34-8.33,1.67c-0.18,0.17-0.38,0.32-0.55,0.48c-3.15,2.99-4.53,7.4-3.65,11.66
		c0.32,1.67,0.9,3.33,1.23,4.75C380.77,220.14,382.62,228.59,382.62,228.59z"/>
	<path class="st4" d="M436.73,207.27c0.13-0.08,0.25-0.17,0.35-0.28c0.32-0.29,0.61-0.61,0.87-0.95c0.94-1.28,1.51-2.8,1.67-4.38
		c0.3-2.39-0.45-4.78-2.05-6.58c-1.97-2.22-4.91-3.34-7.86-2.98c-1.49,0.24-2.92,0.81-4.16,1.67c-1.16,0.77-2.19,1.71-3.06,2.8
		c-1.49,1.82-2.57,3.95-3.16,6.23c-0.4,1.53-0.57,3.1-0.5,4.68c0.02,0.43,0.06,0.86,0.12,1.28c0.01,0.15,0.05,0.29,0.1,0.43
		c-0.16-2.12,0.04-4.26,0.6-6.31c0.62-2.22,1.7-4.28,3.16-6.05c1.73-2.23,4.21-3.74,6.98-4.25c2.8-0.35,5.59,0.69,7.48,2.78
		c1.54,1.71,2.28,3.99,2.05,6.28c-0.15,1.54-0.68,3.03-1.55,4.31C437.18,206.83,436.7,207.27,436.73,207.27z"/>
	<path class="st4" d="M438.75,211.86c0.12-0.16,0.22-0.33,0.32-0.5c0.18-0.35,0.47-0.83,0.8-1.48c0.99-1.84,1.8-3.76,2.43-5.75
		c0.4-1.39,0.62-2.82,0.67-4.26c0.04-1.67-0.26-3.33-0.88-4.88c-0.75-1.72-1.98-3.18-3.55-4.21c-1.68-1.08-3.6-1.72-5.6-1.85
		c-1.98-0.1-3.96,0.22-5.81,0.93c-1.71,0.66-3.32,1.58-4.76,2.71c-2.52,1.88-4.35,4.53-5.21,7.55c-0.53,2.04-0.42,4.2,0.32,6.18
		c0.2,0.53,0.46,1.04,0.77,1.52c0.22,0.32,0.35,0.48,0.37,0.47c-0.39-0.65-0.71-1.34-0.97-2.05c-0.66-1.95-0.71-4.05-0.17-6.03
		c0.88-2.93,2.68-5.49,5.15-7.3c2.9-2.37,6.55-3.62,10.29-3.51c1.92,0.11,3.77,0.72,5.38,1.77c1.47,0.98,2.63,2.36,3.33,3.98
		c0.63,1.5,0.94,3.11,0.9,4.73c-0.02,1.41-0.22,2.82-0.6,4.18c-0.58,1.98-1.34,3.9-2.27,5.75l-0.73,1.52
		C438.84,211.49,438.78,211.67,438.75,211.86z"/>
	<path class="st4" d="M386.25,221.92c0,0-0.95-0.77-2.2-2.27c-3.34-3.91-4.45-9.26-2.93-14.17c0.55-1.85,1.2-2.9,1.12-2.95
		c-0.19,0.22-0.35,0.46-0.48,0.72c-0.37,0.68-0.69,1.4-0.95,2.13c-0.83,2.47-1,5.11-0.48,7.66c0.54,2.55,1.74,4.9,3.5,6.83
		c0.5,0.61,1.05,1.17,1.67,1.67C385.72,221.71,385.97,221.83,386.25,221.92z"/>
	<path class="st4" d="M395.62,221.62c0,0-0.52-0.22-1.33-0.78c-1.14-0.78-2.04-1.86-2.6-3.11l-0.43-1l0.1,1.08
		c0.13,1.45,0.28,3.11,0.45,4.91l0.33-0.2c-2.98-2.02-5.02-5.16-5.66-8.69c-0.29-1.6-0.29-3.24,0-4.85c0.31-1.47,0.8-2.9,1.45-4.25
		c-0.08,0.07-0.15,0.16-0.2,0.25c-0.16,0.25-0.31,0.51-0.45,0.78c-0.51,1-0.89,2.06-1.12,3.16c-0.36,1.64-0.4,3.34-0.13,5
		c0.63,3.67,2.74,6.92,5.83,8.99l0.38,0.25v-0.45c-0.2-1.8-0.38-3.46-0.53-4.91l-0.33,0.08c0.6,1.31,1.58,2.4,2.81,3.15
		c0.33,0.2,0.67,0.38,1.03,0.52C395.35,221.6,395.49,221.63,395.62,221.62z"/>
	<path class="st4" d="M398.56,199.97c0.6-1.13,1.41-2.15,2.38-2.98c1.09-0.83,2.35-1.4,3.7-1.67c1.68-0.32,3.4-0.16,5,0.45
		c1.58,0.6,3,1.55,4.15,2.8c0.93,1.03,1.68,2.21,2.23,3.48c0.47,1.2,0.84,2.43,1.12,3.68c0.06-0.35,0.06-0.7,0-1.05
		c-0.15-0.95-0.4-1.87-0.75-2.76c-0.53-1.33-1.28-2.56-2.23-3.63c-1.17-1.31-2.65-2.33-4.3-2.95c-1.66-0.62-3.46-0.77-5.2-0.43
		c-1.41,0.31-2.72,0.96-3.81,1.9c-0.8,0.57-1.47,1.3-1.98,2.13c-0.12,0.23-0.23,0.47-0.32,0.72
		C398.56,199.87,398.46,199.95,398.56,199.97z"/>
	<path class="st4" d="M400.89,192.11c0.9-0.46,1.85-0.83,2.83-1.08c2.4-0.53,4.9-0.17,7.06,1c2.13,1.21,3.87,3.02,5,5.2
		c0.9,1.67,1.18,2.81,1.27,2.78c-0.01-0.28-0.06-0.56-0.17-0.82c-0.2-0.73-0.47-1.44-0.82-2.12c-1.07-2.29-2.81-4.19-5-5.45
		c-2.25-1.22-4.88-1.55-7.36-0.92c-0.74,0.19-1.45,0.49-2.1,0.9C401.34,191.73,401.09,191.9,400.89,192.11z"/>
	<path class="st5" d="M365.88,319.76c0.23,0-0.43,18.54-1.52,41.37c-1.08,22.84-2.15,41.34-2.45,41.32
		c-0.3-0.02,0.43-18.52,1.52-41.37C364.51,338.23,365.64,319.75,365.88,319.76z"/>
	<path class="st11" d="M328.5,374.28c1.08-8.21,2-15.47,2-15.47l26.87,6.23l-1.15,4.33l20.69-21.09l3.33,0.28l10.44,10.86
		c0,0-9.11,19.25-14.41,26.75c-6.9,9.74-17.74,24.6-32.58,23.32C330,408.37,326.53,389.02,328.5,374.28z"/>
	<path class="st12" d="M343.04,379.19c1.66-2.11,3.66-3.92,5.91-5.36c2.1-1.69,4.47-3,7.01-3.88c0.12,0.22-2.96,2.02-6.51,4.58
		S343.22,379.37,343.04,379.19z"/>
	<path class="st11" d="M413.23,320.74l-9.23-4.71l-11.98,3.8l-5.93,5.48l-9.19,22.97l-7.3,9.24l12.89,16.79l8.14-14.89
		c0,0,6.93-3.01,9.69-7.4s4.01-6.66,4.01-6.66s4.01-1.93,4.75-3.76c0.44-1.06,0.67-2.19,0.7-3.33l-2.02-2.95
		c0.13-1.29-0.08-2.59-0.62-3.76c-0.4-0.57-0.95-1.01-1.58-1.28c0,0,0.58-2.48-0.35-3.33c-1.75-1.03-3.6-1.88-5.53-2.53l0,0
		l4.03-2.28C403.74,322.13,412.73,324.83,413.23,320.74z"/>
	<path class="st12" d="M399.52,329.07c0,0.12,1.42,0.17,3.11,0.52c1.7,0.35,3,0.9,3.05,0.78c-0.89-0.61-1.9-1-2.96-1.17
		C401.68,328.93,400.58,328.88,399.52,329.07z"/>
	<path class="st12" d="M402.3,334.24c0.88,0.16,1.77,0.27,2.66,0.33c0.87,0.2,1.76,0.36,2.65,0.47
		C405.99,334.18,404.11,333.89,402.3,334.24z"/>
	<path class="st12" d="M406.2,342.31c0.12,0,0.18-0.53,0.18-1.18s-0.12-1.17-0.23-1.17c-0.12,0-0.18,0.53-0.17,1.18
		C406,341.8,406.1,342.31,406.2,342.31z"/>
	<path class="st12" d="M404.43,344.8c0.16-1.58,1.22-2.93,2.71-3.46c0,0-0.3-0.08-0.73,0c-0.57,0.2-1.06,0.56-1.43,1.03
		c-0.38,0.48-0.61,1.06-0.67,1.67C404.28,344.53,404.38,344.81,404.43,344.8z"/>
	<path class="st12" d="M397.22,337.43c0.1,0,0.5-0.98,1.67-1.67c0.69-0.32,1.44-0.5,2.2-0.53c0,0-0.25-0.18-0.7-0.22
		c-0.58-0.02-1.16,0.12-1.67,0.42c-0.52,0.28-0.95,0.7-1.23,1.22C397.21,337.18,397.17,337.42,397.22,337.43z"/>
	<path class="st12" d="M393.01,332.32c0.12,0,0.47-0.9,1.48-1.53c0.63-0.33,1.31-0.56,2.02-0.68c0,0-0.25-0.15-0.67-0.13
		c-1.12,0.03-2.15,0.67-2.67,1.67C392.99,332.05,392.98,332.32,393.01,332.32z"/>
	<path class="st12" d="M390.23,329.82c0,0,0-0.32,0.1-0.78c0.14-1.25,0.94-2.33,2.1-2.83c0.25-0.09,0.5-0.19,0.73-0.32
		c0,0-0.33-0.08-0.83,0c-0.66,0.21-1.25,0.61-1.67,1.17c-0.4,0.56-0.63,1.23-0.63,1.92C390.03,329.54,390.23,329.84,390.23,329.82z"
		/>
	<path class="st12" d="M394.11,323.86c0,0.13,1.93,0.17,4.26,0.52s4.08,1.18,4.13,1.07c-1.23-0.79-2.63-1.29-4.08-1.45
		c-1.01-0.16-2.03-0.24-3.05-0.23C394.95,323.72,394.52,323.76,394.11,323.86z"/>
</g>
<g id="freepik--Floor--inject-387">
	<path class="st5" d="M1045.7,738.28c0,0.25-160,0.43-357.31,0.43s-357.34-0.12-357.34-0.43s159.9-0.43,357.34-0.43
		S1045.7,738.05,1045.7,738.28z"/>
</g>
<g id="freepik--Plant--inject-387">
	<path class="st6" d="M902.02,594.17c-6.63-4.16-14.13-6.74-21.92-7.55c-3.6-0.37-7.51-0.27-10.38,1.9
		c-0.68,0.39-1.09,1.12-1.07,1.9c0.17,0.54,0.53,1,1.02,1.3C879.16,598.49,891.62,599.44,902.02,594.17"/>
	<path class="st6" d="M901.47,593.56c-5.08-3.73-9.82-7.9-14.17-12.46c-4.36-4.6-7.42-10.27-8.88-16.44
		c-0.58-1.85-0.32-3.85,0.7-5.5C890.41,567.99,899.29,579.4,901.47,593.56"/>
	<path class="st6" d="M901.9,594.09c-1.04-6.17-0.95-12.47,0.27-18.6c1.27-6.17,4.8-11.65,9.91-15.34
		c1.95,4.56,1.12,9.81-0.27,14.57c-2.12,7.39-5.44,14.38-9.83,20.69"/>
	<path class="st6" d="M912.98,613.93c-6.64,1.07-12.79,4.18-17.59,8.89c-5.02,4.6-8.51,10.63-9.99,17.27
		c6.66-0.4,12.18-5,16.24-10.26c4.06-5.26,6.86-10.93,11.31-15.81"/>
	<path class="st6" d="M915.38,617.09c-5.39-13.64-3.51-29.08,5-41.02C924.21,589.68,922.81,605.07,915.38,617.09"/>
	<path class="st6" d="M930,634.51c-12.56-0.79-24.37,6.01-29.98,17.27c-0.5,0.68-0.58,1.58-0.22,2.35c0.53,0.5,1.28,0.72,2,0.58
		c5.91-0.38,11.14-3.95,15.47-7.99c4.33-4.05,8.09-8.73,12.86-12.23"/>
	<path class="st6" d="M929.54,633.56c-3.14-10.14-3.33-20.97-0.55-31.21c1.1-4.01,2.95-8.24,6.66-10.13
		c0.3-0.19,0.67-0.25,1.02-0.17c0.3,0.15,0.53,0.42,0.65,0.73c1.24,2.82,1.78,5.89,1.57,8.96c-0.22,3.05-0.69,6.08-1.4,9.06
		c-1.18,5.55-1.8,11.49-4.83,16.27c-0.73,1.14-1.37,2.33-1.93,3.56c-0.58,1.22-0.58,1.67-1.12,2.62"/>
	<path class="st6" d="M968.2,639.33c-2.63-11.53-0.05-23.62,7.05-33.08c0.52-0.65,1.18-1.37,2.02-1.28c1.27,0.12,1.58,1.8,1.53,3.06
		C978.27,619.25,974.6,630.1,968.2,639.33"/>
	<path class="st6" d="M971.74,641.73c13.71,3.22,28.14,0.27,39.49-8.06c-6.62-3.31-14.17-4.23-21.39-2.6
		c-7.15,1.67-13.67,4.83-18.12,10.66"/>
	<path class="st6" d="M974.69,634.45c7.43-12.09,21.65-19.99,35.84-20.72c-1.67,5.78-6.38,10.26-11.66,12.96
		c-5.47,2.46-11.27,4.14-17.21,5c-2.28,0.45-5.43,0.93-6.91,2.73"/>
	<path class="st6" d="M969,599.2c2.25-6.82,3.78-13.85,4.58-20.99c0.79-7.19-0.67-14.45-4.18-20.77c-6.93,13.42-7.63,29.1-0.6,42.47
		"/>
	<path class="st6" d="M992.35,587.39c8.11-14.72,24.65-26.5,41.39-28.15C1027.28,575.32,1009.67,587.74,992.35,587.39"/>
	<path class="st6" d="M987.25,590.36c12.09,1.83,22.39,9.56,33.7,14.24c2.37,1.14,4.99,1.64,7.61,1.47
		c3.29-0.04,5.93-2.74,5.89-6.03c-0.02-1.75-0.8-3.39-2.15-4.51c-1.61-1.47-3.49-2.61-5.55-3.33c-12.31-5.13-25.5-5.25-38.48-2.15"
		/>
	<path class="st6" d="M980.24,598.77c2.75,0.78,3.68,2.2,5.85,4.05c7.39,6.28,16.14,10.77,25.55,13.13
		c0.98,0.25,2.27,0.35,2.75-0.53c0.48-0.88-0.12-1.67-0.67-2.4c-4.11-4.81-9.43-8.43-15.42-10.48c-5.9-2.18-11.01-4.83-18.06-4.26"
		/>
	<path class="st6" d="M972.34,547.53c10.03,9.24,23.49,13.82,37.08,12.63c0.61,0,1.2-0.22,1.67-0.62c0.93-1.02-0.18-2.58-1.28-3.43
		c-10.89-8.49-24.1-12.03-37.49-8.58"/>
	<path class="st6" d="M981.7,544.1c13.31-9.8,30.52-12.64,46.27-7.63c-6.05,5.61-13.81,9.02-22.04,9.68
		C997.8,546.9,989.6,546.2,981.7,544.1"/>
	<path class="st6" d="M977.99,520.57c-1.07-10.88-0.38-19.47-1.13-30.4c0-0.88-0.25-1.93-1.07-2.25c-1.13-0.43-2.08,0.97-2.47,2.13
		c-3.23,10.29-1.51,21.5,4.65,30.35"/>
	<path class="st6" d="M977.21,521.77c7.11-4.59,13.24-10.54,18.02-17.52c3.56-4.86,6.56-10.69,5.75-16.66
		c-5.07,0.13-9.82,2.49-12.99,6.45c-3.12,3.93-5.38,8.47-6.66,13.32c-1.45,4.78-2.45,9.71-4.15,14.41"/>
	<path class="st6" d="M994.85,516.85c16.23-6.01,31.25-14.87,44.36-26.17c-5.3-2.13-11.36-0.85-16.66,1.28
		c-12,4.58-21.91,13.39-27.87,24.77"/>
	<path class="st6" d="M982.19,527.73c8.17,1.15,16.46,1.19,24.63,0.12c7.98-1.33,15.52-4.5,22.99-7.65
		c0.65-0.19,1.21-0.61,1.57-1.18c0.25-0.71,0.02-1.5-0.57-1.97c-0.56-0.46-1.23-0.78-1.95-0.92c-8.11-2.28-16.87-1.22-24.85,1.48
		C996.4,520.21,989.08,523.6,982.19,527.73"/>
	<path class="st6" d="M935.43,547.92c-5.6-11.29-5.23-24.45-0.4-36.06c3.33,5.16,3.81,11.76,3.18,17.92
		c-0.63,6.16-2.5,12.51-2.62,18.69"/>
	<path class="st6" d="M913.11,536.66c-14.14-0.18-27.71,5.6-37.38,15.92c7.06,0.81,14.19-0.54,20.47-3.86
		c6.22-3.28,12.09-7.19,17.52-11.66"/>
	<path class="st6" d="M898.11,531.63c-6.83-0.55-13.32-1.4-19.99,0.62c-6.7,1.89-12.25,6.59-15.21,12.89
		c6.43,0.51,12.87-0.71,18.67-3.53c5.78-2.83,11.28-6.17,16.46-9.99"/>
	<path class="st6" d="M920.33,531.86c-6.15-4.01-12.44-8.11-19.6-9.78c-7.16-1.67-15.42-0.43-20.4,5c5.78,3.33,12.81,3.8,19.5,3.8
		c6.7,0,14.99-0.08,21.27,2.15"/>
	<path class="st6" d="M920.36,532.19c-10.49-10.31-14.47-28.82-10.26-42.91C918.39,501.97,922.02,517.14,920.36,532.19"/>
	<path class="st6" d="M949.21,503c1.98-4.61,3.33-9.44,5.15-14.12c1.63-4.75,4.12-9.16,7.35-13.01c3.29-3.83,7.96-6.23,12.99-6.66
		c-3.26,14.35-12.41,26.67-25.22,33.93"/>
	<path class="st6" d="M943.99,509.08c-3.33-4.51-7.06-10.63-11.51-13.99c-4.45-3.36-10.23-5.4-15.64-4.11
		C922.53,500.95,932.6,507.66,943.99,509.08"/>
	<path class="st6" d="M945.04,503.36c-2.35-5.37-4.08-10.99-5.16-16.76c-1.08-5.82-0.16-11.83,2.62-17.06
		c5.76,10.89,7.63,22.59,2.85,33.95"/>
	<path class="st6" d="M949.27,469.55c3.25-10.79,13.14-18.74,23.82-22.39c1.32-0.55,2.75-0.76,4.16-0.63
		c1.45,0.15,2.67,1.17,3.08,2.57c0.4,1.85-1.13,3.48-2.55,4.71C969.44,460.93,959.74,466.28,949.27,469.55"/>
	<path class="st6" d="M949.39,460.72c0.42-6.96,0.85-14.02,3.11-20.62s6.66-12.78,12.98-15.66c1.07,7.03-2.03,14.01-5.76,20.07
		c-3.73,6.06-8.33,11.76-10.51,18.5"/>
	<path class="st6" d="M949.21,465.52c-2.7-7.88-2.96-17.87-7.68-24.72c-3.33-4.8-8.56-8.06-11.41-13.13
		c-1.71,4.86-1.47,10.2,0.67,14.89c2.14,4.64,5.09,8.87,8.71,12.48C943,458.77,945.98,461.57,949.21,465.52"/>
	<path class="st5" d="M949.27,697.21c-0.22,0-0.4-52.48-0.42-117.21s0.15-117.23,0.35-117.23c0.2,0,0.4,52.47,0.42,117.23
		S949.47,697.21,949.27,697.21z"/>
	<path class="st5" d="M995.13,539.99c-0.63,0.31-1.29,0.56-1.97,0.75l-5.43,1.83c-4.58,1.55-10.88,3.81-17.71,6.66
		c-6.83,2.85-13.13,5.25-16.76,8.33c-1.44,1.21-2.58,2.74-3.33,4.46c-0.52,1.23-0.6,1.98-0.68,1.97c-0.03-0.18-0.03-0.37,0-0.55
		c0.08-0.52,0.2-1.04,0.38-1.53c0.7-1.83,1.84-3.47,3.33-4.75c2.19-1.85,4.64-3.38,7.28-4.51c2.91-1.37,6.13-2.78,9.56-4.18
		c6.85-2.81,13.19-5,17.82-6.43c2.32-0.72,4.2-1.25,5.51-1.67C993.79,540.18,994.46,540.06,995.13,539.99z"/>
	<path class="st5" d="M1010.17,503.06c-0.17,0.21-0.35,0.42-0.55,0.6l-1.67,1.57l-6.28,5.71l-20.92,18.64
		c-8.18,7.28-15.24,14.22-20.12,19.45c-2.45,2.62-4.38,4.78-5.7,6.28c-0.62,0.7-1.12,1.28-1.53,1.67c-0.42,0.38-0.53,0.6-0.57,0.58
		c0.12-0.24,0.27-0.46,0.45-0.67c0.32-0.43,0.78-1.05,1.42-1.83c1.25-1.67,3.13-3.8,5.53-6.46c6.31-6.9,12.98-13.46,19.99-19.65
		c8.19-7.25,15.66-13.77,21.09-18.47l6.45-5.53l1.77-1.47C1009.72,503.32,1009.94,503.18,1010.17,503.06z"/>
	<path class="st5" d="M971.89,537.06c-0.22-0.1,1.5-4.03,3.2-9.03c1.7-5,2.52-9.18,2.73-9.14c-0.18,3.22-0.86,6.39-2.02,9.39
		c-0.73,2.15-1.58,4.26-2.55,6.31C972.93,535.48,972.47,536.31,971.89,537.06z"/>
	<path class="st5" d="M949.31,568.7c-0.47-0.44-0.88-0.94-1.25-1.47l-3.18-4.1c-2.7-3.5-6.45-8.33-10.64-13.62
		s-8.06-9.99-10.86-13.46l-3.33-4.08c-0.43-0.48-0.81-1.01-1.13-1.57c0.5,0.41,0.96,0.86,1.37,1.37c0.83,0.92,2.03,2.25,3.48,3.93
		c2.9,3.33,6.83,8.04,11.04,13.32c4.21,5.28,7.88,10.18,10.48,13.77c1.3,1.78,2.33,3.25,3.03,4.28
		C948.7,567.59,949.04,568.13,949.31,568.7z"/>
	<path class="st5" d="M939.26,555.83c-2.04-2.24-3.48-4.96-4.21-7.9c-0.79-2.57-1.12-5.26-0.97-7.95h0.35
		c-0.15,0.6-0.27,0.92-0.33,0.92c-0.07,0,0-0.35,0-0.98h0.33c0.16,2.62,0.61,5.22,1.33,7.75
		C936.73,550.47,937.9,553.2,939.26,555.83z"/>
	<path class="st5" d="M926.27,539.49c-0.9-0.67-1.89-1.23-2.93-1.67c-2.65-0.79-5.44-1.01-8.18-0.65c-2.77,0.21-5.52,0.66-8.21,1.33
		c-1.09,0.35-2.2,0.61-3.33,0.8c1.01-0.59,2.11-1.03,3.25-1.32c2.71-0.84,5.5-1.36,8.33-1.57c2.84-0.39,5.73-0.08,8.43,0.9
		C924.72,537.73,925.66,538.49,926.27,539.49z"/>
	<path class="st5" d="M923.22,535.54c0,0.12-1.67-0.68-4.5-1.67c-7.31-2.48-15.13-3.05-22.72-1.67c-2.9,0.53-4.66,1.07-4.7,0.95
		c0.37-0.23,0.78-0.41,1.2-0.52c1.09-0.38,2.2-0.7,3.33-0.95c7.67-1.68,15.67-1.08,23,1.75c1.1,0.42,2.18,0.91,3.21,1.47
		C922.82,535.26,923.22,535.49,923.22,535.54z"/>
	<path class="st5" d="M949.21,518.74c-1.35-3.73-2.46-7.54-3.33-11.41c-1.1-3.83-1.95-7.72-2.55-11.66
		c1.35,3.73,2.46,7.54,3.33,11.41C947.77,510.9,948.62,514.8,949.21,518.74z"/>
	<path class="st5" d="M949.42,518.74c-1.05-2.36-2.27-4.64-3.65-6.83c-1.53-2.07-3.34-3.93-5.36-5.53c0.77,0.17,1.49,0.54,2.08,1.07
		c1.53,1.11,2.85,2.47,3.91,4.03C948.03,513.59,949.07,516.09,949.42,518.74z"/>
	<path class="st5" d="M949.27,669.22c-0.08,0-0.25-1.27-0.83-3.5c-0.89-3.14-2.08-6.18-3.56-9.08c-5.05-9.5-11.3-18.31-18.6-26.22
		c-4.15-4.75-8.18-9.23-11.66-13.51c-3.07-3.78-5.86-7.78-8.33-11.98c-1.65-2.83-3.05-5.8-4.18-8.88c-0.4-1.1-0.68-1.95-0.83-2.55
		c-0.1-0.29-0.17-0.59-0.22-0.9c0,0,0.45,1.2,1.32,3.33c1.24,3.01,2.7,5.92,4.38,8.71c2.48,4.13,5.27,8.07,8.33,11.79
		c3.43,4.25,7.48,8.71,11.66,13.46c7.35,7.95,13.58,16.86,18.52,26.48c1.44,2.95,2.56,6.05,3.33,9.24c0.2,0.87,0.36,1.75,0.47,2.63
		C949.16,668.58,949.23,668.9,949.27,669.22z"/>
	<path class="st5" d="M990.72,622.42c-0.7,0.45-1.43,0.85-2.18,1.22c-1.96,1.11-3.84,2.35-5.63,3.71c-2.64,2.06-5.11,4.32-7.4,6.76
		c-2.6,2.73-5.28,5.93-8.01,9.33c-5.45,6.86-10.56,12.93-13.61,17.76c-1.57,2.4-2.68,4.43-3.43,5.85c-0.34,0.75-0.74,1.48-1.18,2.18
		c0,0,0-0.22,0.2-0.62s0.38-0.98,0.72-1.67c0.96-2.06,2.04-4.06,3.23-6c4.15-6.23,8.66-12.22,13.49-17.94
		c2.73-3.33,5.45-6.66,8.09-9.36c2.33-2.43,4.87-4.66,7.58-6.66c1.83-1.36,3.77-2.55,5.81-3.56c0.72-0.37,1.32-0.58,1.67-0.75
		C990.42,622.5,990.7,622.39,990.72,622.42z"/>
	<path class="st5" d="M991.52,637.59c-1.51,0.34-3.05,0.56-4.6,0.67c-3.69,0.39-7.33,1.11-10.89,2.15
		c-3.51,1.14-6.81,2.87-9.74,5.11c-2.25,1.75-3.33,3.18-3.41,3.1c0.16-0.39,0.39-0.75,0.68-1.07c0.72-0.89,1.51-1.71,2.38-2.45
		c2.91-2.42,6.26-4.26,9.86-5.41c3.61-1.07,7.32-1.73,11.08-1.97C988.41,637.55,989.97,637.5,991.52,637.59z"/>
	<path class="st5" d="M964.22,646.99c-0.23-0.15,1.83-3.33,3.45-7.56c1.62-4.23,1.85-8.04,2.12-7.99c0.14,0.82,0.14,1.65,0,2.47
		c-0.23,1.97-0.68,3.92-1.33,5.8c-0.71,1.86-1.6,3.65-2.66,5.33C964.87,646.26,964.32,646.99,964.22,646.99z"/>
	<path class="st5" d="M1004.14,581.65c-0.23,0.15-0.48,0.27-0.73,0.38l-2.17,0.98c-0.95,0.4-2.1,0.92-3.33,1.67
		c-1.23,0.75-2.81,1.37-4.4,2.32l-2.5,1.42c-0.87,0.5-1.67,1.1-2.65,1.67c-1.83,1.12-3.68,2.5-5.66,3.91
		c-4.2,3.17-8.16,6.65-11.84,10.41c-3.62,3.81-6.96,7.88-9.99,12.18c-1.35,2.03-2.67,3.93-3.71,5.81c-0.53,0.93-1.1,1.8-1.57,2.7
		l-1.35,2.55c-0.88,1.67-1.52,3.15-2.15,4.46s-1.12,2.48-1.48,3.43l-0.9,2.2c-0.1,0.26-0.22,0.5-0.37,0.73
		c0.03-0.28,0.11-0.54,0.22-0.8c0.2-0.58,0.47-1.33,0.77-2.23c0.4-1.19,0.86-2.36,1.38-3.5c0.58-1.35,1.2-2.91,2.07-4.55l1.3-2.58
		c0.45-0.9,1.02-1.8,1.55-2.73c1.03-1.92,2.33-3.85,3.66-5.88c3.01-4.36,6.35-8.48,9.99-12.33c3.71-3.79,7.71-7.28,11.96-10.44
		c2-1.4,3.88-2.78,5.75-3.88c0.93-0.57,1.8-1.15,2.68-1.67l2.55-1.4c1.67-0.92,3.15-1.58,4.46-2.22s2.48-1.12,3.45-1.48l2.22-0.85
		C1003.59,581.8,1003.86,581.7,1004.14,581.65z"/>
	<path class="st5" d="M971.33,603.68c0.31-1.06,0.95-2,1.82-2.68c2.02-1.76,4.59-2.74,7.26-2.78c2.62-0.01,5.22,0.49,7.65,1.48
		c1.03,0.32,2.01,0.8,2.9,1.42c-1.05-0.21-2.08-0.51-3.08-0.9c-2.39-0.83-4.91-1.25-7.45-1.25c-2.51,0.06-4.93,0.91-6.93,2.43
		C972.72,602.11,972,602.88,971.33,603.68z"/>
	<path class="st5" d="M966.43,608.68c0.98-2.12,1.67-4.36,2.07-6.66c0.14-2.35-0.01-4.7-0.47-7.01c0.44,0.57,0.73,1.24,0.85,1.95
		c0.45,1.68,0.57,3.42,0.37,5.15c-0.19,1.75-0.71,3.44-1.53,5C967.06,608.13,966.53,608.68,966.43,608.68z"/>
	<path class="st4" d="M913.01,676.75c1.13,19.99,7.18,40.44,16.47,61.08h40.37c8.88-20.42,14.49-40.79,15.49-61.08H913.01z"/>
	<path class="st8" d="M978.86,709.2c0,0.22-13.32,0.38-29.73,0.38c-16.41,0-29.71-0.17-29.71-0.38c0-0.22,13.32-0.38,29.71-0.38
		C965.51,708.82,978.86,709,978.86,709.2z"/>
	<path class="st8" d="M977.96,716.46c0,0.22-12.48,0.38-27.87,0.38s-27.87-0.17-27.87-0.38c0-0.22,12.48-0.37,27.87-0.37
		S977.96,716.26,977.96,716.46z"/>
</g>
</svg>
