<?xml version="1.0" encoding="utf-8"?>
<!-- Generator: Adobe Illustrator 23.1.0, SVG Export Plug-In . SVG Version: 6.00 Build 0)  -->
<svg version="1.1" id="Layer_1" xmlns="http://www.w3.org/2000/svg" xmlns:xlink="http://www.w3.org/1999/xlink" x="0px" y="0px"
	 viewBox="0 0 1366 768" style="enable-background:new 0 0 1366 768;" xml:space="preserve">
<style type="text/css">
	.st0{fill:#407BFF;}
	.st1{opacity:0.7;fill:#FFFFFF;enable-background:new    ;}
	.st2{fill:none;stroke:#263238;stroke-linecap:round;stroke-linejoin:round;}
	.st3{fill:#263238;}
	.st4{fill:#FFFFFF;}
	.st5{clip-path:url(#SVGID_2_);}
	.st6{opacity:0.4;fill:#FFFFFF;enable-background:new    ;}
	.st7{fill:#FFFFFF;stroke:#263238;stroke-linecap:round;stroke-linejoin:round;}
	.st8{fill:#263238;stroke:#263238;stroke-linecap:round;stroke-linejoin:round;}
	.st9{fill:#407BFF;stroke:#263238;stroke-linecap:round;stroke-linejoin:round;}
	.st10{fill:none;stroke:#FFFFFF;stroke-width:2;stroke-miterlimit:10;}
	.st11{fill:none;stroke:#263238;stroke-width:2;stroke-linecap:round;stroke-linejoin:round;}
	.st12{fill:#263238;stroke:#FFFFFF;stroke-linecap:round;stroke-linejoin:round;}
</style>
<g id="freepik--background-simple--inject-15">
	<path class="st0" d="M979.84,525.07c0,0,107.51-124.62,79.89-283.99C1032.12,81.72,889.68-1.72,794.14,7.72
		S603.47,110.81,510.11,122.38s-234.08,93.95-205.63,250.67c28.44,156.73,114.88,172.06,254.79,177.82
		C699.19,556.63,897.17,628.4,979.84,525.07z"/>
	<path class="st1" d="M979.84,525.07c0,0,107.51-124.62,79.89-283.99C1032.12,81.72,889.68-1.72,794.14,7.72
		S603.47,110.81,510.11,122.38s-234.08,93.95-205.63,250.67c28.44,156.73,114.88,172.06,254.79,177.82
		C699.19,556.63,897.17,628.4,979.84,525.07z"/>
</g>
<g id="freepik--Desk--inject-15">
	<line class="st2" x1="319.62" y1="385.46" x2="1066.69" y2="385.46"/>
</g>
<g id="freepik--Plant--inject-15">
	<ellipse class="st3" cx="412.62" cy="431.7" rx="63.47" ry="23.56"/>
	<path class="st4" d="M375.56,357.49l8.85,71.83c0,11.51,21.49,20.85,48,20.85s48-9.34,48-20.85l8.85-71.83H375.56z"/>
	<g>
		<defs>
			<path id="SVGID_1_" d="M375.56,357.49l8.85,71.83c0,11.51,21.49,20.85,48,20.85s48-9.34,48-20.85l8.85-71.83H375.56z"/>
		</defs>
		<clipPath id="SVGID_2_">
			<use xlink:href="#SVGID_1_"  style="overflow:visible;"/>
		</clipPath>
		<g class="st5">
			<path class="st0" d="M424.09,357.49h-48.53l8.85,71.83c0,11.51,21.49,20.85,48,20.85c1.72,0,3.42-0.04,5.09-0.12
				C422.38,423.24,422.12,383.9,424.09,357.49z"/>
			<path class="st6" d="M424.09,357.49h-48.53l8.85,71.83c0,11.51,21.49,20.85,48,20.85c1.72,0,3.42-0.04,5.09-0.12
				C422.38,423.24,422.12,383.9,424.09,357.49z"/>
		</g>
	</g>
	<path class="st2" d="M375.56,357.49l8.85,71.83c0,11.51,21.49,20.85,48,20.85s48-9.34,48-20.85l8.85-71.83H375.56z"/>
	<ellipse class="st7" cx="432.41" cy="357.49" rx="56.85" ry="24.7"/>
	<ellipse class="st8" cx="432.41" cy="356.83" rx="50.8" ry="21.49"/>
	<path class="st2" d="M436.27,359.06c0,0-4.53-41.83-32.78-73.48s-21.33-27.77-21.33-27.77"/>
	<path class="st2" d="M487.17,234.7c0,0-33.9,33.92-39.56,72.36s-1.97,44.65-1.97,44.65"/>
	<path class="st2" d="M441.83,356.76c0,0-6.62-23.65-13.4-71.18c-6.78-47.52-3.39-72.34-3.39-72.34"/>
	<path class="st0" d="M385.1,270.73c0,0-9.48,10.29-24.07-9.86c-14.59-20.15-9.74-43.64-9.74-43.64s7.43,11.33,18.69,16.1
		C381.24,238.11,397.68,265.22,385.1,270.73z"/>
	<path class="st0" d="M424.96,224.53c0,0-13.56,3.39-14.69-21.47s15.77-41.83,15.77-41.83s0,13.56,6.78,23.65
		C439.6,194.98,438.54,226.8,424.96,224.53z"/>
	<path class="st0" d="M480.92,247.26c0,0-13.21-4.59-0.53-26c12.67-21.41,36.15-26.33,36.15-26.33s-7.43,11.35-7.33,23.65
		C509.31,230.88,491.11,256.58,480.92,247.26z"/>
	<path class="st0" d="M440.79,353.41c0,0,9.05-40.7,28.27-59.9c11.4-11.42,26.82-17.91,42.95-18.1c0,0-22.61,9.05-29.39,27.12
		c-6.78,18.08-18.13,57.66-18.13,57.66h-56.45c0,0-6.8-14.69-26.02-31.66c-19.22-16.97-50.88-28.25-50.88-28.25
		s35.05-12.44,59.92-2.27c24.88,10.17,42.95,53.22,42.95,53.22L440.79,353.41z"/>
	<path class="st0" d="M449.5,353.31c0,0-22.43-15.39-46.91-12.83c-24.48,2.56-26.51,22.45-27.6,28.23
		c-0.6,3.39-0.94,6.83-1.01,10.27c0,0,31.54-9.62,50.97-12.83C444.39,362.93,452.56,371.91,449.5,353.31z"/>
	<path class="st0" d="M441.14,353.31c0,0,14.11-15.39,29.57-12.83c15.45,2.56,16.68,22.45,17.31,28.23
		c0.39,3.41,0.61,6.84,0.65,10.27c0,0-19.89-9.62-32.07-12.83C444.41,362.93,439.21,371.91,441.14,353.31z"/>
</g>
<g id="freepik--Device--inject-15">
	<path class="st8" d="M525.82,105.79H952.5c8.86,0,16.05,7.18,16.05,16.05c0,0,0,0,0,0v298.28l0,0H509.78l0,0v-298.3
		C509.79,112.96,516.97,105.79,525.82,105.79z"/>
	<polygon class="st7" points="1037.34,559.06 440.96,559.06 509.78,420.11 968.53,420.11 	"/>
	<rect x="537.57" y="130.66" class="st9" width="403.18" height="264.55"/>
	<circle class="st3" cx="609.29" cy="277.53" r="56.99"/>
	<circle class="st3" cx="740.99" cy="277.53" r="56.99"/>
	<circle class="st3" cx="872.69" cy="277.51" r="56.99"/>
	<path class="st7" d="M570.14,263.01c0,0,25.11-68.6,39.88-68.6s40.76,67.79,40.76,67.79l-4.4,0.39c0,0-25.53-59.41-33.1-63.08
		s-21.54,17.94-38.69,63.41L570.14,263.01z"/>
	<path class="st7" d="M572.68,259.01h75.48c4.7,0,8.52,3.81,8.52,8.52v0v40.49c0,3.77-3.05,6.82-6.82,6.82l0,0H571
		c-3.77,0-6.82-3.05-6.82-6.82v0v-40.47C564.17,262.84,567.98,259.02,572.68,259.01L572.68,259.01z"/>
	<line class="st2" x1="564.95" y1="288.93" x2="648.69" y2="288.93"/>
	<path class="st7" d="M652.29,261c0,0-1.97,2.4-1.97,9.19c0,6.78-2.39,42.68-1.97,44.25c0.41,1.58,2.8,0.41,2.8,0.41"/>
	<rect x="603.63" y="280.95" class="st7" width="6.39" height="14.35"/>
	<path class="st7" d="M691.13,244.2c0,0,26.63-2.33,57.89-2.33s45.95,1.97,46.32,3.94c0.37,1.97-4.24,27.02-4.24,29.33
		c0,2.31,0,34.75-0.77,36.68c-0.77,1.93-4.26,3.47-5.8,3.84c-1.54,0.37-82.61,1.16-84.92,1.16c-2.41-0.2-4.27-2.21-4.26-4.63
		c0-2.31,1.16-27.79-0.77-37.06C692.66,265.89,691.13,244.2,691.13,244.2z"/>
	<path class="st7" d="M719.77,256.94c0,0-0.39-30.49,2.7-40.92c2.72-9.06,11-15.3,20.46-15.43c12.27,0.83,22.64,9.38,25.78,21.27
		c3.94,15.04,0.77,33.96,0.39,35.89s-4.63,7.33-5.42-3.09s0.79-34.73-2.31-41.69c-3.64-7.51-11.88-11.63-20.07-10.03
		c-8.12,1.97-12.36,5.4-13.9,15.43c-1.54,10.03,1.54,33.21-0.39,38.22C725.09,261.59,720.46,263.87,719.77,256.94z"/>
	<path class="st7" d="M698.46,244.58c0,0-1.97,20.46-1.97,28.19s-0.39,12.73-0.39,12.73"/>
	<path class="st2" d="M788.76,244.97c0,0,0.79,20.46,0.79,32.43"/>
	<path class="st7" d="M888.3,241.05c-0.99,0.01-1.83-0.72-1.97-1.7c-3.8-23.79-8.57-50.03-11.02-58.54
		c-3.61,8.04-11.53,33.65-18.1,56.93c-0.3,1.09-1.42,1.73-2.51,1.43c-1.09-0.3-1.73-1.42-1.43-2.51c0-0.16,4.22-15,8.79-29.8
		c9.52-30.87,11.31-31.54,12.73-31.99c0.72-0.25,1.51-0.13,2.13,0.32c1.04,0.77,2.48,1.81,8.16,33.19
		c2.74,15.14,5.14,30.2,5.16,30.36c0.19,1.07-0.52,2.1-1.59,2.29c-0.03,0.01-0.06,0.01-0.09,0.01
		C888.49,241.05,888.39,241.05,888.3,241.05z"/>
	<path class="st7" d="M824.34,234.43c0,0,39.25-2.4,52.77-1.87c13.52,0.53,37.55,1.97,37.45,3.53c-0.1,1.56-0.57,51.25-1.97,61.11
		c-1.4,9.86-8.44,22.23-14.55,24.5c-6.11,2.27-26.65,1.44-37.18,1.01s-20.01-1.81-24.74-8.54c-4.73-6.72-8.12-34.95-8.12-34.95
		L824.34,234.43z"/>
	<path class="st7" d="M855.52,245.23c0.05-2.18-1.67-3.98-3.85-4.03c-2.18-0.05-3.98,1.67-4.03,3.85c-0.05,2.12,1.59,3.9,3.7,4.03
		c2.17,0.13,4.04-1.52,4.17-3.7C855.52,245.33,855.52,245.28,855.52,245.23z"/>
	<circle class="st7" cx="889.04" cy="247.08" r="4"/>
	<path class="st7" d="M831.2,300.46c0,0,28.19-2.39,79.77,0.22"/>
	<rect x="543.82" y="138.47" class="st3" width="389.32" height="31.66"/>
	<line class="st10" x1="732.64" y1="156.51" x2="771.23" y2="156.51"/>
	<line class="st10" x1="815.88" y1="156.51" x2="854.48" y2="156.51"/>
	<path class="st4" d="M920.94,146.71c-0.15-0.21-0.39-0.34-0.65-0.34h-21.15l-0.81-2.44c-0.12-0.33-0.43-0.56-0.79-0.55h-5.36
		c-0.45,0-0.81,0.36-0.81,0.81l0,0c-0.01,0.45,0.34,0.82,0.79,0.83c0.01,0,0.01,0,0.02,0h4.77l5.16,15.51
		c0.12,0.33,0.43,0.56,0.79,0.55h0.3c-0.29,0.45-0.45,0.98-0.45,1.52c-0.13,1.56,1.03,2.93,2.59,3.06c1.56,0.13,2.93-1.03,3.07-2.59
		c0.01-0.16,0.01-0.32,0-0.47c0-0.54-0.16-1.07-0.45-1.52h3.94c-0.28,0.46-0.43,0.98-0.43,1.52c-0.13,1.56,1.03,2.93,2.59,3.06
		c1.56,0.13,2.93-1.03,3.07-2.59c0.01-0.16,0.01-0.32,0-0.47c-0.01-0.54-0.17-1.06-0.45-1.52h0.63c0.46,0,0.83-0.37,0.83-0.83v0
		c0-0.45-0.36-0.81-0.81-0.81c-0.01,0-0.01,0-0.02,0h-13.8l-0.91-2.72h15.38c0.37,0,0.69-0.24,0.79-0.59l2.35-8.71
		C921.16,147.17,921.1,146.91,920.94,146.71z M905.57,163.8c-0.66,0.01-1.21-0.52-1.22-1.18c-0.01-0.66,0.52-1.21,1.18-1.22
		c0.66-0.01,1.21,0.52,1.22,1.18c0,0.01,0,0.01,0,0.02C906.75,163.25,906.22,163.79,905.57,163.8z M914.26,163.8
		c-0.66,0.01-1.21-0.52-1.22-1.18c-0.01-0.66,0.52-1.21,1.18-1.22c0.66-0.01,1.21,0.52,1.22,1.18c0,0.01,0,0.01,0,0.02
		c0.01,0.65-0.51,1.19-1.16,1.2C914.27,163.8,914.27,163.8,914.26,163.8z M916.45,155.09h-3.04v-7.06h3.04V155.09z M908.72,148.03
		h3.06v7.06h-3.06V148.03z M907.09,155.09h-3.06v-7.06h3L907.09,155.09z M899.67,148.03h2.72v7.06h-0.37L899.67,148.03z
		 M918.1,152.19v-4.16h1.1L918.1,152.19z"/>
	<path class="st4" d="M927.31,146.2c0.05-3.32-2.59-6.06-5.91-6.11c-3.32-0.05-6.06,2.59-6.11,5.91c-0.05,3.32,2.59,6.06,5.91,6.11
		c0.03,0,0.07,0,0.1,0C924.58,152.1,927.25,149.47,927.31,146.2z"/>
	<path class="st3" d="M918.85,149.9c-0.15-0.11-0.24-0.27-0.28-0.45c-0.09-0.4,0.03-0.81,0.32-1.1l2.76-2.7
		c0.32-0.24,0.52-0.61,0.55-1.01c0-0.25-0.11-0.48-0.32-0.63c-0.22-0.16-0.48-0.25-0.75-0.24h-0.32h-0.35l-0.28,0.12l-0.3,0.18
		l-0.26,0.14c-0.11,0.04-0.23,0.04-0.34,0c-0.13-0.03-0.25-0.11-0.34-0.22c-0.08-0.11-0.15-0.24-0.2-0.37
		c-0.05-0.13-0.05-0.28,0-0.41c0.06-0.15,0.17-0.28,0.32-0.35c0.73-0.45,1.58-0.68,2.44-0.65c0.67-0.01,1.32,0.23,1.81,0.69
		c0.45,0.4,0.7,0.98,0.69,1.58c0,0.43-0.11,0.85-0.32,1.22c-0.25,0.45-0.58,0.85-0.99,1.16l-2.11,1.68h2.76
		c0.16,0,0.3,0.08,0.37,0.22c0.09,0.15,0.14,0.32,0.14,0.49c0,0.19-0.05,0.37-0.14,0.53c-0.08,0.13-0.22,0.21-0.37,0.22h-3.94
		C919.25,150.04,919.03,150.01,918.85,149.9z"/>
	<path class="st4" d="M700.84,163.8H558.33c-5.24,0-9.48-4.24-9.48-9.48c0-0.01,0-0.01,0-0.02l0,0c0-5.24,4.24-9.48,9.48-9.48
		h142.52c5.24,0,9.48,4.24,9.48,9.48l0,0c0.01,5.24-4.23,9.49-9.46,9.5C700.86,163.8,700.85,163.8,700.84,163.8z"/>
	<line class="st11" x1="580.03" y1="352.26" x2="638.38" y2="352.26"/>
	<line class="st11" x1="580.03" y1="363.32" x2="638.38" y2="363.32"/>
	<line class="st11" x1="711.8" y1="352.26" x2="770.17" y2="352.26"/>
	<line class="st11" x1="711.8" y1="363.32" x2="770.17" y2="363.32"/>
	<line class="st11" x1="843.59" y1="352.26" x2="901.94" y2="352.26"/>
	<line class="st11" x1="843.59" y1="363.32" x2="901.94" y2="363.32"/>
	<polygon class="st12" points="720.02,464.11 720.81,447.17 696.59,447.17 694.97,464.11 	"/>
	<polygon class="st12" points="770.13,464.11 769.3,447.17 745.06,447.17 745.08,464.11 	"/>
	<polygon class="st12" points="900.6,482.2 926.5,482.2 920.43,464.11 895.38,464.11 	"/>
	<polygon class="st12" points="694.97,464.11 696.59,447.17 672.34,447.17 669.94,464.11 	"/>
	<polygon class="st12" points="644.88,464.11 648.09,447.17 623.87,447.17 619.83,464.11 	"/>
	<polygon class="st12" points="870.32,464.11 866.26,447.17 842.02,447.17 845.27,464.11 	"/>
	<polygon class="st12" points="895.38,464.11 890.49,447.17 866.26,447.17 870.32,464.11 	"/>
	<polygon class="st12" points="619.83,464.11 623.87,447.17 599.62,447.17 594.77,464.11 	"/>
	<polygon class="st12" points="795.18,464.11 793.55,447.17 769.3,447.17 770.13,464.11 	"/>
	<polygon class="st12" points="920.43,464.11 914.73,447.17 890.49,447.17 895.38,464.11 	"/>
	<polygon class="st12" points="845.27,464.11 842.02,447.17 817.77,447.17 820.22,464.11 	"/>
	<polygon class="st12" points="820.22,464.11 817.77,447.17 793.55,447.17 795.18,464.11 	"/>
	<polygon class="st12" points="745.08,464.11 745.06,447.17 720.81,447.17 720.02,464.11 	"/>
	<polygon class="st12" points="569.72,464.11 544.67,464.11 537.75,482.2 563.67,482.2 	"/>
	<polygon class="st12" points="575.38,447.17 551.15,447.17 544.67,464.11 569.72,464.11 	"/>
	<polygon class="st12" points="594.77,464.11 599.62,447.17 575.38,447.17 569.72,464.11 	"/>
	<polygon class="st12" points="530.34,501.6 522.37,522.45 550.23,522.45 557.18,501.6 	"/>
	<polygon class="st12" points="563.67,482.2 537.75,482.2 530.34,501.6 557.18,501.6 	"/>
	<polygon class="st12" points="557.18,501.6 550.23,522.45 578.08,522.45 584.03,501.6 	"/>
	<polygon class="st12" points="669.94,464.11 672.34,447.17 648.09,447.17 644.88,464.11 	"/>
	<polygon class="st12" points="667.33,482.2 669.94,464.11 644.88,464.11 641.43,482.2 	"/>
	<polygon class="st12" points="641.43,482.2 644.88,464.11 619.83,464.11 615.51,482.2 	"/>
	<polygon class="st12" points="693.25,482.2 694.97,464.11 669.94,464.11 667.33,482.2 	"/>
	<polygon class="st12" points="594.77,464.11 569.72,464.11 563.67,482.2 589.59,482.2 	"/>
	<polygon class="st12" points="906.18,501.6 933.03,501.6 926.5,482.2 900.6,482.2 	"/>
	<polygon class="st12" points="615.51,482.2 619.83,464.11 594.77,464.11 589.59,482.2 	"/>
	<polygon class="st12" points="563.67,482.2 557.18,501.6 584.03,501.6 589.59,482.2 	"/>
	<polygon class="st12" points="848.76,482.2 845.27,464.11 820.22,464.11 822.84,482.2 	"/>
	<polygon class="st12" points="822.84,482.2 820.22,464.11 795.18,464.11 796.92,482.2 	"/>
	<polygon class="st12" points="900.6,482.2 895.38,464.11 870.32,464.11 874.68,482.2 	"/>
	<polygon class="st12" points="745.1,482.2 745.08,464.11 720.02,464.11 719.18,482.2 	"/>
	<polygon class="st12" points="796.92,482.2 795.18,464.11 770.13,464.11 771.02,482.2 	"/>
	<polygon class="st12" points="771.02,482.2 770.13,464.11 745.08,464.11 745.1,482.2 	"/>
	<polygon class="st12" points="719.18,482.2 720.02,464.11 694.97,464.11 693.25,482.2 	"/>
	<polygon class="st12" points="796.92,482.2 798.81,501.6 825.64,501.6 822.84,482.2 	"/>
	<polygon class="st12" points="822.84,482.2 825.64,501.6 852.48,501.6 848.76,482.2 	"/>
	<polygon class="st12" points="589.59,482.2 584.03,501.6 610.88,501.6 615.51,482.2 	"/>
	<polygon class="st12" points="848.76,482.2 852.48,501.6 879.33,501.6 874.68,482.2 	"/>
	<polygon class="st12" points="745.1,482.2 745.12,501.6 771.96,501.6 771.02,482.2 	"/>
	<polygon class="st12" points="874.68,482.2 879.33,501.6 906.18,501.6 900.6,482.2 	"/>
	<polygon class="st12" points="771.02,482.2 771.96,501.6 798.81,501.6 796.92,482.2 	"/>
	<polygon class="st12" points="641.43,482.2 637.73,501.6 664.57,501.6 667.33,482.2 	"/>
	<polygon class="st12" points="615.51,482.2 610.88,501.6 637.73,501.6 641.43,482.2 	"/>
	<polygon class="st12" points="719.18,482.2 718.27,501.6 745.12,501.6 745.1,482.2 	"/>
	<polygon class="st12" points="693.25,482.2 691.42,501.6 718.27,501.6 719.18,482.2 	"/>
	<polygon class="st12" points="667.33,482.2 664.57,501.6 691.42,501.6 693.25,482.2 	"/>
	<polygon class="st12" points="874.68,482.2 870.32,464.11 845.27,464.11 848.76,482.2 	"/>
	<polygon class="st12" points="575.38,447.17 581.17,429.83 557.76,429.83 551.15,447.17 	"/>
	<polygon class="st12" points="551.15,447.17 528.76,447.17 521.55,464.11 544.67,464.11 	"/>
	<polygon class="st12" points="557.76,429.83 536.15,429.83 528.76,447.17 551.15,447.17 	"/>
	<polygon class="st12" points="544.67,464.11 521.55,464.11 513.84,482.2 537.75,482.2 	"/>
	<polygon class="st12" points="537.75,482.2 513.84,482.2 505.56,501.6 530.34,501.6 	"/>
	<polygon class="st12" points="530.34,501.6 505.56,501.6 496.67,522.45 522.37,522.45 	"/>
	<polygon class="st12" points="945.46,464.11 952.42,482.2 975.35,482.2 967.64,464.11 	"/>
	<polygon class="st12" points="959.87,501.6 983.63,501.6 975.35,482.2 952.42,482.2 	"/>
	<polygon class="st12" points="967.88,522.45 992.52,522.45 983.63,501.6 959.87,501.6 	"/>
	<polygon class="st12" points="769.3,447.17 768.45,429.83 745.04,429.83 745.06,447.17 	"/>
	<polygon class="st12" points="945.46,464.11 967.64,464.11 960.43,447.17 938.98,447.17 	"/>
	<polygon class="st12" points="933.03,501.6 959.87,501.6 952.42,482.2 926.5,482.2 	"/>
	<polygon class="st12" points="599.62,447.17 604.59,429.83 581.17,429.83 575.38,447.17 	"/>
	<polygon class="st12" points="914.73,447.17 920.43,464.11 945.46,464.11 938.98,447.17 	"/>
	<polygon class="st12" points="960.43,447.17 953.03,429.83 932.32,429.83 938.98,447.17 	"/>
	<polygon class="st12" points="938.98,447.17 932.32,429.83 908.92,429.83 914.73,447.17 	"/>
	<polygon class="st12" points="852.48,501.6 856.51,522.45 884.34,522.45 879.33,501.6 	"/>
	<polygon class="st12" points="940.02,522.45 967.88,522.45 959.87,501.6 933.03,501.6 	"/>
	<polygon class="st12" points="914.73,447.17 908.92,429.83 885.5,429.83 890.49,447.17 	"/>
	<polygon class="st12" points="906.18,501.6 912.19,522.45 940.02,522.45 933.03,501.6 	"/>
	<polygon class="st12" points="879.33,501.6 884.34,522.45 912.19,522.45 906.18,501.6 	"/>
	<polygon class="st12" points="926.5,482.2 952.42,482.2 945.46,464.11 920.43,464.11 	"/>
	<polygon class="st12" points="696.59,447.17 698.22,429.83 674.8,429.83 672.34,447.17 	"/>
	<polygon class="st12" points="890.49,447.17 885.5,429.83 862.08,429.83 866.26,447.17 	"/>
	<polygon class="st12" points="672.34,447.17 674.8,429.83 651.41,429.83 648.09,447.17 	"/>
	<polygon class="st12" points="745.06,447.17 745.04,429.83 721.64,429.83 720.81,447.17 	"/>
	<polygon class="st12" points="648.09,447.17 651.41,429.83 627.99,429.83 623.87,447.17 	"/>
	<polygon class="st12" points="623.87,447.17 627.99,429.83 604.59,429.83 599.62,447.17 	"/>
	<polygon class="st12" points="720.81,447.17 721.64,429.83 698.22,429.83 696.59,447.17 	"/>
	<polygon class="st12" points="866.26,447.17 862.08,429.83 838.69,429.83 842.02,447.17 	"/>
	<polygon class="st12" points="842.02,447.17 838.69,429.83 815.27,429.83 817.77,447.17 	"/>
	<polygon class="st12" points="793.55,447.17 791.85,429.83 768.45,429.83 769.3,447.17 	"/>
	<polygon class="st12" points="852.48,501.6 825.64,501.6 798.81,501.6 771.96,501.6 745.12,501.6 718.27,501.6 691.42,501.6 
		664.57,501.6 637.73,501.6 610.88,501.6 584.03,501.6 578.08,522.45 605.91,522.45 633.76,522.45 661.6,522.45 689.45,522.45 
		717.28,522.45 745.14,522.45 772.97,522.45 800.82,522.45 828.65,522.45 856.51,522.45 	"/>
	<polygon class="st12" points="817.77,447.17 815.27,429.83 791.85,429.83 793.55,447.17 	"/>
	<rect x="440.96" y="559.06" class="st8" width="596.65" height="8.48"/>
</g>
<g id="freepik--credit-card--inject-15">
	<path class="st9" d="M837.5,708.43l-216.1,1.71c-4.61,0-7.88-2.72-7.31-6.13l13.8-81.01c0.43-2.56,3.94-4.63,7.88-4.65l185.15-0.85
		c3.94,0,7.43,1.97,7.88,4.55l15.77,80.21C845.19,705.61,841.98,708.41,837.5,708.43z"/>
	<line class="st2" x1="735.04" y1="632.05" x2="802.83" y2="632.05"/>
	<line class="st2" x1="700.07" y1="637.78" x2="802.83" y2="637.78"/>
	<path class="st8" d="M697.28,687.3c-41.12,13.09-67.45,15.41-82.79,14.65l-0.49,2.92c-0.49,2.94,2.33,5.32,6.29,5.28l218.4-1.71
		c3.94,0,6.6-2.42,6.03-5.34l-9.44-48.29C778.23,653.34,761.75,666.8,697.28,687.3z"/>
	<path class="st7" d="M661.95,652.69l-17.05,0.1c-1.6,0-2.76-0.87-2.6-1.97l1.46-10.84c0.16-1.03,1.52-1.87,3.06-1.87l16.64-0.1
		c1.54,0,2.7,0.83,2.6,1.85l-1.04,10.82C664.91,651.78,663.53,652.67,661.95,652.69z"/>
	<path class="st7" d="M656.14,647.62h-4.22c-0.77,0-1.34-0.41-1.28-0.93l0.34-2.68c0-0.51,0.73-0.93,1.48-0.93h4.24
		c0.77,0,1.34,0.41,1.28,0.91l-0.3,2.68C657.58,647.15,656.91,647.62,656.14,647.62z"/>
	<path class="st2" d="M643.8,639.74h6.54c1.26,0,2.21,0.67,2.11,1.54l-0.22,1.81"/>
	<path class="st2" d="M666.09,639.74h-6.45c-1.28,0-2.39,0.69-2.48,1.54l-0.2,1.83"/>
	<path class="st2" d="M642.24,651.25h6.66c1.3,0,2.44-0.73,2.54-1.62l0.22-1.85"/>
	<path class="st2" d="M664.97,651.11h-6.56c-1.3,0-2.29-0.69-2.19-1.58l0.22-1.87"/>
	<line class="st2" x1="643.03" y1="645.73" x2="650.76" y2="645.69"/>
	<line class="st2" x1="657.56" y1="645.65" x2="665.26" y2="645.61"/>
	<path class="st4" d="M640.47,675.53c-0.34-0.11-0.65-0.29-0.93-0.51c-0.22-0.23-0.4-0.49-0.51-0.79c-0.11-0.31-0.18-0.64-0.2-0.97
		c-0.04-0.35-0.04-0.71,0-1.06c0.02-1.97,1.64-3.55,3.61-3.53c0.11,0,0.22,0.01,0.34,0.02c2.25,0,3.23,1.14,2.94,3.47
		c-0.04,0.36-0.11,0.72-0.22,1.06c-0.11,0.33-0.26,0.65-0.45,0.95c-0.2,0.31-0.44,0.58-0.73,0.81c-0.32,0.24-0.67,0.42-1.04,0.53
		c-0.46,0.13-0.94,0.2-1.42,0.2C641.38,675.72,640.91,675.66,640.47,675.53z M642.61,674.84c0.19-0.07,0.38-0.15,0.55-0.26
		c0.15-0.11,0.28-0.23,0.39-0.37c0.13-0.14,0.23-0.3,0.32-0.47c0.08-0.16,0.15-0.34,0.2-0.51c0-0.2,0.1-0.37,0.14-0.53
		c0.01-0.18,0.01-0.36,0-0.53c0-0.2,0-0.37,0-0.53v-0.53c0.01-0.18,0.01-0.36,0-0.53c-0.04-0.15-0.1-0.3-0.18-0.43
		c-0.08-0.14-0.19-0.27-0.32-0.37c-0.15-0.1-0.31-0.17-0.47-0.22c-0.21-0.04-0.44-0.04-0.65,0c-0.23-0.03-0.46-0.03-0.69,0
		c-0.19,0.05-0.37,0.13-0.53,0.24c-0.15,0.1-0.28,0.23-0.39,0.37c-0.12,0.13-0.22,0.27-0.3,0.43c-0.09,0.17-0.16,0.35-0.22,0.53
		c-0.06,0.17-0.11,0.35-0.14,0.53c-0.01,0.18-0.01,0.37,0,0.55v0.51v0.53c-0.01,0.18-0.01,0.36,0,0.53c0.04,0.16,0.1,0.31,0.18,0.45
		c0.07,0.14,0.17,0.27,0.3,0.37c0.15,0.1,0.3,0.18,0.47,0.24c0.22,0.04,0.45,0.04,0.67,0C642.17,674.87,642.39,674.87,642.61,674.84
		z"/>
	<path class="st4" d="M649.95,675.45c-0.35-0.09-0.66-0.27-0.93-0.51c-0.24-0.22-0.42-0.49-0.53-0.79c-0.12-0.3-0.2-0.62-0.22-0.95
		c-0.04-0.35-0.04-0.71,0-1.06c-0.01-1.94,1.56-3.51,3.5-3.52c0.1,0,0.21,0,0.31,0.01c2.27,0,3.25,1.12,3,3.47
		c-0.03,0.36-0.1,0.72-0.2,1.06c-0.11,0.33-0.26,0.65-0.45,0.95c-0.19,0.3-0.42,0.57-0.69,0.81c-0.31,0.23-0.67,0.41-1.04,0.51
		c-0.46,0.15-0.94,0.22-1.42,0.22C650.82,675.66,650.37,675.59,649.95,675.45z M652.08,674.76c0.19-0.05,0.38-0.13,0.55-0.24
		c0.15-0.11,0.28-0.24,0.39-0.39c0.12-0.14,0.22-0.29,0.3-0.45c0.08-0.16,0.15-0.34,0.2-0.51c0-0.2,0.1-0.37,0.14-0.53v-0.53
		c0-0.2,0-0.37,0-0.53c0.01-0.18,0.01-0.37,0-0.55c0.01-0.17,0.01-0.34,0-0.51c-0.04-0.15-0.11-0.3-0.2-0.43
		c-0.08-0.15-0.18-0.27-0.32-0.37c-0.15-0.1-0.31-0.17-0.47-0.22c-0.21-0.04-0.44-0.04-0.65,0c-0.23-0.03-0.46-0.03-0.69,0
		c-0.18,0.05-0.36,0.13-0.51,0.24c-0.16,0.1-0.3,0.22-0.41,0.37c-0.11,0.14-0.21,0.28-0.3,0.43c0,0.16-0.14,0.34-0.2,0.53
		c-0.06,0.2,0,0.37-0.14,0.53c-0.14,0.16,0,0.35,0,0.55c-0.01,0.17-0.01,0.34,0,0.51v0.59c-0.01,0.18-0.01,0.36,0,0.53
		c0.04,0.16,0.11,0.31,0.2,0.45c0.08,0.14,0.18,0.27,0.3,0.37c0.15,0.11,0.32,0.19,0.49,0.24c0.22,0.03,0.45,0.03,0.67,0
		C651.65,674.86,651.87,674.83,652.08,674.76z"/>
	<path class="st4" d="M659.41,675.39c-0.34-0.1-0.66-0.27-0.93-0.51c-0.24-0.22-0.42-0.49-0.53-0.79c-0.14-0.3-0.22-0.62-0.24-0.95
		c-0.04-0.35-0.04-0.71,0-1.06c-0.05-1.89,1.44-3.47,3.34-3.52c0.14,0,0.27,0,0.41,0.01c2.25,0,3.27,1.12,3.06,3.47
		c-0.03,0.36-0.1,0.72-0.2,1.06c-0.1,0.33-0.24,0.65-0.41,0.95c-0.19,0.3-0.43,0.57-0.71,0.79c-0.31,0.24-0.65,0.42-1.03,0.53
		c-0.45,0.15-0.92,0.22-1.4,0.22C660.31,675.6,659.85,675.54,659.41,675.39z M661.54,674.7c0.19-0.05,0.37-0.13,0.53-0.24
		c0.16-0.11,0.3-0.24,0.41-0.39c0.11-0.14,0.2-0.29,0.28-0.45c0.08-0.17,0.14-0.34,0.2-0.51c0-0.2,0.04-0.37,0.12-0.53v-0.53
		c0-0.2,0-0.37,0-0.53c0.01-0.18,0.01-0.37,0-0.55c-0.01-0.17-0.04-0.35-0.1-0.51c-0.04-0.15-0.11-0.3-0.2-0.43
		c-0.07-0.15-0.18-0.28-0.32-0.37c-0.14-0.1-0.3-0.17-0.47-0.22c-0.22-0.07-0.44-0.1-0.67-0.1c-0.23,0.01-0.45,0.04-0.67,0.1
		c-0.18,0.05-0.36,0.13-0.51,0.24c-0.15,0.1-0.28,0.22-0.39,0.35c-0.11,0.14-0.21,0.29-0.3,0.45c-0.08,0.17-0.14,0.34-0.2,0.51
		c-0.06,0.18-0.1,0.36-0.12,0.55c-0.01,0.18-0.01,0.37,0,0.55c0,0.18,0,0.35,0,0.51c-0.01,0.18-0.01,0.35,0,0.53
		c-0.01,0.18-0.01,0.36,0,0.53c0.05,0.16,0.12,0.31,0.2,0.45c0.08,0.14,0.19,0.26,0.32,0.35c0.15,0.11,0.32,0.2,0.49,0.26
		c0.22,0.03,0.45,0.03,0.67,0C661.05,674.76,661.3,674.75,661.54,674.7z"/>
	<path class="st4" d="M668.87,675.34c-0.34-0.1-0.66-0.27-0.93-0.51c-0.24-0.22-0.43-0.49-0.55-0.79c-0.13-0.3-0.22-0.62-0.26-0.95
		c-0.02-0.35-0.02-0.71,0-1.06c-0.07-1.87,1.38-3.45,3.25-3.52c0.15-0.01,0.3,0,0.45,0.01c2.25,0,3.29,1.12,3.09,3.47
		c-0.02,0.35-0.08,0.71-0.18,1.04c-0.08,0.34-0.22,0.66-0.39,0.97c-0.18,0.3-0.42,0.57-0.69,0.79c-0.31,0.24-0.66,0.42-1.03,0.53
		c-0.45,0.14-0.93,0.21-1.4,0.22C669.78,675.54,669.32,675.48,668.87,675.34z M671,674.65c0.19-0.05,0.37-0.14,0.53-0.26
		c0.15-0.1,0.28-0.23,0.39-0.37c0.1-0.16,0.2-0.3,0.28-0.45l0.18-0.51c0-0.2,0.04-0.37,0.12-0.53v-0.53c0-0.2,0-0.37,0-0.55
		c0.01-0.18,0.01-0.35,0-0.53c-0.03-0.17-0.07-0.34-0.12-0.51c-0.04-0.16-0.1-0.3-0.2-0.43c-0.08-0.15-0.19-0.27-0.32-0.37
		c-0.15-0.11-0.31-0.18-0.49-0.22c-0.22-0.03-0.43-0.03-0.65,0c-0.23-0.03-0.46-0.03-0.69,0c-0.18,0.05-0.36,0.13-0.51,0.24
		c-0.15,0.1-0.28,0.22-0.39,0.35c-0.1,0.16-0.2,0.3-0.28,0.45l-0.18,0.51c-0.06,0.18-0.1,0.36-0.12,0.55c0,0.16,0,0.34,0,0.53
		c0,0.2,0,0.37,0,0.53c-0.01,0.18-0.01,0.35,0,0.53c0.02,0.17,0.05,0.34,0.1,0.51c0.05,0.16,0.11,0.31,0.2,0.45
		c0.09,0.15,0.2,0.27,0.34,0.37c0.14,0.11,0.3,0.19,0.47,0.24c0.22,0.07,0.44,0.11,0.67,0.1C670.56,674.74,670.78,674.71,671,674.65
		z"/>
	<path class="st4" d="M689.02,675.22c-0.35-0.1-0.67-0.27-0.95-0.51c-0.24-0.22-0.44-0.49-0.57-0.79c-0.15-0.3-0.25-0.62-0.3-0.95
		c-0.04-0.35-0.04-0.71,0-1.06c-0.15-1.79,1.18-3.36,2.97-3.51c0.2-0.02,0.4-0.02,0.6,0.01c2.25,0,3.31,1.14,3.21,3.47
		c-0.01,0.36-0.06,0.71-0.14,1.06c-0.08,0.33-0.21,0.65-0.37,0.95c-0.17,0.3-0.39,0.57-0.65,0.79c-0.3,0.23-0.64,0.41-1.01,0.53
		c-0.45,0.15-0.92,0.22-1.4,0.22C689.94,675.43,689.47,675.36,689.02,675.22z M691.11,674.53c0.19-0.05,0.37-0.13,0.53-0.24
		c0.14-0.12,0.27-0.25,0.37-0.39c0.11-0.14,0.19-0.29,0.26-0.45c0.07-0.17,0.13-0.34,0.18-0.51c0-0.2,0-0.37,0-0.53
		c0.01-0.18,0.01-0.35,0-0.53c0.01-0.18,0.01-0.35,0-0.53c0.01-0.18,0.01-0.35,0-0.53c0-0.2,0-0.37-0.12-0.51
		c-0.06-0.16-0.13-0.31-0.22-0.45c-0.1-0.14-0.22-0.26-0.35-0.35c-0.15-0.11-0.31-0.19-0.49-0.24c-0.22-0.03-0.43-0.03-0.65,0
		c-0.23,0-0.45,0.03-0.67,0.1c-0.18,0.05-0.35,0.13-0.51,0.22c-0.14,0.1-0.27,0.23-0.37,0.37c-0.11,0.14-0.2,0.29-0.26,0.45
		c-0.08,0.16-0.14,0.34-0.18,0.51c0,0.2,0,0.37-0.1,0.53c-0.01,0.18-0.01,0.37,0,0.55c-0.01,0.17-0.01,0.34,0,0.51
		c-0.01,0.18-0.01,0.35,0,0.53c0.02,0.18,0.06,0.36,0.12,0.53c0.05,0.16,0.13,0.31,0.22,0.45c0.09,0.14,0.2,0.27,0.34,0.37
		c0.15,0.11,0.31,0.19,0.49,0.24c0.22,0.03,0.45,0.03,0.67,0c0.25,0,0.51-0.04,0.75-0.12V674.53z"/>
	<path class="st4" d="M698.46,675.22c-0.35-0.1-0.68-0.28-0.97-0.51c-0.24-0.22-0.44-0.49-0.57-0.79c-0.16-0.29-0.26-0.61-0.3-0.95
		c-0.04-0.35-0.04-0.71,0-1.06c-0.22-1.75,1.01-3.35,2.76-3.57c0.22-0.03,0.44-0.03,0.67-0.01c2.25,0,3.33,1.14,3.25,3.47
		c0.01,0.69-0.16,1.36-0.47,1.97c-0.17,0.3-0.39,0.57-0.65,0.79c-0.29,0.24-0.63,0.42-0.99,0.53c-0.45,0.14-0.93,0.21-1.4,0.22
		C699.35,675.34,698.9,675.31,698.46,675.22z M700.55,674.53c0.19-0.05,0.36-0.14,0.51-0.26c0.15-0.1,0.28-0.23,0.37-0.37
		c0.11-0.14,0.19-0.29,0.26-0.45c0.06-0.17,0.12-0.34,0.16-0.51c0-0.2,0-0.37,0-0.53s0-0.34,0-0.53v-0.59
		c0.01-0.18,0.01-0.35,0-0.53c-0.02-0.17-0.06-0.35-0.12-0.51c-0.06-0.16-0.14-0.31-0.24-0.45c-0.09-0.14-0.2-0.26-0.34-0.35
		c-0.15-0.11-0.32-0.19-0.49-0.24c-0.22-0.03-0.45-0.03-0.67,0c-0.22-0.03-0.45-0.03-0.67,0c-0.17,0.06-0.34,0.14-0.49,0.24
		c-0.15,0.1-0.28,0.23-0.37,0.37c-0.11,0.13-0.19,0.28-0.26,0.43c-0.07,0.17-0.12,0.35-0.16,0.53c0,0.2,0,0.37-0.1,0.53
		c-0.1,0.16,0,0.35,0,0.55v0.51c-0.02,0.18-0.02,0.36,0,0.53c0.02,0.18,0.06,0.36,0.12,0.53c0.05,0.16,0.12,0.3,0.22,0.43
		c0.09,0.14,0.2,0.27,0.34,0.37c0.15,0.11,0.32,0.19,0.49,0.24c0.22,0.07,0.44,0.11,0.67,0.1c0.26,0,0.52-0.04,0.77-0.12V674.53z"/>
	<path class="st4" d="M707.94,675.08c-0.35-0.11-0.68-0.28-0.97-0.51c-0.26-0.21-0.46-0.48-0.59-0.79c-0.15-0.3-0.26-0.62-0.32-0.95
		c-0.03-0.35-0.03-0.71,0-1.06c-0.21-1.73,1.03-3.3,2.76-3.5c0.24-0.03,0.47-0.03,0.71,0c2.25,0,3.35,1.14,3.31,3.47
		c0,0.36-0.03,0.71-0.1,1.06c-0.07,0.33-0.19,0.65-0.35,0.95c-0.15,0.3-0.37,0.57-0.63,0.79c-0.29,0.24-0.62,0.42-0.99,0.53
		c-0.45,0.14-0.91,0.21-1.38,0.2C708.91,675.27,708.41,675.21,707.94,675.08z M709.91,674.39c0.18-0.06,0.36-0.14,0.51-0.26
		c0.14-0.1,0.27-0.23,0.37-0.37c0.09-0.14,0.17-0.29,0.24-0.45c0.06-0.17,0.12-0.34,0.16-0.51c0-0.2,0-0.37,0-0.53s0-0.34,0-0.53
		c0.01-0.18,0.01-0.35,0-0.53c0.02-0.18,0.02-0.37,0-0.55c-0.03-0.17-0.07-0.34-0.12-0.51c-0.06-0.15-0.14-0.3-0.24-0.43
		c-0.1-0.14-0.22-0.26-0.35-0.35c-0.15-0.11-0.32-0.19-0.49-0.24c-0.22-0.03-0.45-0.03-0.67,0c-0.22-0.03-0.45-0.03-0.67,0
		c-0.18,0.05-0.34,0.13-0.49,0.24c-0.14,0.1-0.27,0.23-0.37,0.37c-0.09,0.14-0.17,0.28-0.24,0.43c-0.07,0.17-0.12,0.35-0.16,0.53
		c0,0.18,0,0.37,0,0.53c-0.01,0.18-0.01,0.37,0,0.55c-0.02,0.17-0.02,0.34,0,0.51c-0.02,0.18-0.02,0.36,0,0.53
		c0.01,0.18,0.05,0.35,0.12,0.51c0.06,0.16,0.14,0.31,0.24,0.45c0.19,0.31,0.49,0.53,0.85,0.61c0.22,0.07,0.44,0.1,0.67,0.1
		C709.48,674.49,709.7,674.45,709.91,674.39z"/>
	<path class="st4" d="M717.32,675.02c-0.35-0.11-0.68-0.28-0.97-0.51c-0.26-0.22-0.46-0.49-0.61-0.79c-0.15-0.3-0.26-0.62-0.32-0.95
		c-0.06-0.35-0.1-0.71-0.1-1.06c-0.24-1.69,0.94-3.26,2.63-3.5c0.26-0.04,0.52-0.04,0.78-0.01c2.25,0,3.37,1.14,3.37,3.47
		c0.01,0.35-0.02,0.7-0.1,1.04c-0.06,0.34-0.16,0.66-0.32,0.97c-0.16,0.3-0.37,0.57-0.63,0.79c-0.28,0.24-0.61,0.42-0.97,0.53
		c-0.45,0.13-0.91,0.2-1.38,0.2C718.25,675.2,717.78,675.14,717.32,675.02z M719.39,674.33c0.18-0.07,0.35-0.15,0.51-0.26
		c0.14-0.1,0.26-0.23,0.35-0.37c0.09-0.14,0.17-0.29,0.24-0.45c0.07-0.17,0.12-0.35,0.14-0.53c0-0.18,0-0.35,0-0.51s0-0.34,0-0.53
		s0-0.37,0-0.53c0-0.16,0-0.35,0-0.55c-0.03-0.17-0.08-0.35-0.14-0.51c-0.06-0.15-0.14-0.3-0.24-0.43c-0.1-0.14-0.22-0.26-0.35-0.35
		c-0.15-0.11-0.32-0.19-0.49-0.24c-0.22-0.03-0.45-0.03-0.67,0c-0.22-0.03-0.45-0.03-0.67,0c-0.18,0.05-0.34,0.13-0.49,0.24
		c-0.14,0.1-0.26,0.23-0.35,0.37c-0.11,0.13-0.19,0.28-0.26,0.43c0,0.16-0.1,0.34-0.14,0.53c-0.01,0.18-0.01,0.35,0,0.53
		c0,0.16,0,0.35,0,0.53c0,0.18,0,0.37,0,0.53c0,0.16,0,0.34,0,0.53c0.03,0.17,0.08,0.35,0.14,0.51c0.06,0.16,0.14,0.31,0.24,0.45
		c0.09,0.15,0.21,0.27,0.35,0.37c0.16,0.11,0.33,0.19,0.51,0.24c0.22,0.07,0.44,0.1,0.67,0.1
		C718.96,674.43,719.18,674.39,719.39,674.33z"/>
	<path class="st4" d="M737.51,674.88c-0.37-0.1-0.71-0.27-1.01-0.51c-0.26-0.22-0.47-0.49-0.63-0.79c-0.16-0.3-0.28-0.62-0.35-0.95
		c-0.08-0.35-0.12-0.71-0.12-1.06c0-2.33,1.04-3.49,3.29-3.49c1.71-0.21,3.26,1.01,3.47,2.72c0.03,0.24,0.03,0.49,0,0.73
		c0.04,0.35,0.04,0.71,0,1.06c-0.04,0.33-0.14,0.65-0.3,0.95c-0.13,0.31-0.34,0.58-0.59,0.79c-0.28,0.24-0.6,0.42-0.95,0.53
		c-0.9,0.25-1.86,0.25-2.76,0L737.51,674.88z M739.48,674.19c0.35-0.11,0.64-0.33,0.85-0.63c0.09-0.14,0.16-0.29,0.22-0.45
		c0.06-0.16,0.1-0.34,0.12-0.51c0-0.2,0-0.37,0-0.53v-0.51c0-0.2,0-0.39,0-0.55c0-0.16,0-0.34,0-0.53s-0.1-0.35-0.16-0.51
		l-0.26-0.45c-0.11-0.13-0.24-0.25-0.37-0.35c-0.15-0.11-0.32-0.19-0.49-0.24c-0.22-0.02-0.45-0.02-0.67,0
		c-0.23,0-0.45,0.03-0.67,0.1c-0.18,0.05-0.34,0.13-0.49,0.24c-0.13,0.1-0.24,0.22-0.34,0.35c-0.09,0.14-0.17,0.29-0.24,0.45
		c0,0.14,0,0.32-0.12,0.51c-0.02,0.18-0.02,0.36,0,0.53v0.55c-0.01,0.17-0.01,0.34,0,0.51c-0.02,0.18-0.02,0.36,0,0.53
		c0.03,0.18,0.08,0.36,0.14,0.53c0.08,0.15,0.16,0.29,0.26,0.43c0.1,0.15,0.23,0.28,0.37,0.37c0.16,0.11,0.33,0.19,0.51,0.24
		c0.22,0.04,0.45,0.04,0.67,0C739.03,674.28,739.26,674.25,739.48,674.19L739.48,674.19z"/>
	<path class="st4" d="M746.81,674.82c-0.36-0.11-0.71-0.28-1.01-0.51c-0.26-0.22-0.48-0.49-0.63-0.79c-0.17-0.3-0.29-0.62-0.37-0.95
		c-0.08-0.35-0.13-0.71-0.14-1.06c-0.1-2.33,0.99-3.49,3.23-3.49c1.74-0.2,3.32,1.04,3.52,2.78c0.03,0.22,0.03,0.44,0.01,0.67
		c0.03,0.35,0.03,0.71,0,1.06c-0.05,0.33-0.14,0.65-0.28,0.95c-0.15,0.3-0.35,0.56-0.59,0.79c-0.28,0.24-0.6,0.42-0.95,0.53
		c-0.45,0.14-0.91,0.21-1.38,0.2C747.75,675.01,747.27,674.95,746.81,674.82z M748.78,674.13c0.18-0.06,0.34-0.14,0.49-0.26
		c0.13-0.11,0.24-0.23,0.34-0.37c0.09-0.14,0.16-0.29,0.22-0.45c0.06-0.17,0.1-0.34,0.12-0.51c0-0.2,0-0.37,0-0.53v-0.53
		c0-0.2,0-0.37,0-0.53c-0.01-0.18-0.05-0.36-0.1-0.53c-0.07-0.35-0.21-0.68-0.41-0.97c-0.1-0.14-0.23-0.26-0.37-0.35
		c-0.16-0.11-0.33-0.19-0.51-0.24c-0.22-0.02-0.45-0.02-0.67,0c-0.22-0.03-0.43-0.03-0.65,0c-0.18,0.05-0.34,0.13-0.49,0.24
		c-0.13,0.1-0.24,0.22-0.34,0.35c-0.1,0.14-0.17,0.29-0.22,0.45c-0.06,0.16-0.1,0.34-0.12,0.51c0,0.2,0,0.37,0,0.53
		c-0.02,0.18-0.02,0.37,0,0.55c-0.01,0.17-0.01,0.34,0,0.51c0,0.16,0,0.34,0,0.53c0.03,0.18,0.09,0.35,0.16,0.51
		c0.07,0.16,0.17,0.31,0.28,0.45c0.09,0.15,0.21,0.27,0.35,0.37c0.16,0.11,0.33,0.19,0.51,0.24c0.22,0.06,0.46,0.1,0.69,0.1
		c0.27,0.02,0.53-0.01,0.79-0.08L748.78,674.13z"/>
	<path class="st4" d="M756.21,674.76c-0.36-0.11-0.71-0.28-1.01-0.51c-0.26-0.22-0.48-0.49-0.65-0.79c-0.17-0.3-0.3-0.61-0.39-0.95
		c-0.09-0.35-0.14-0.71-0.16-1.06c-0.12-2.33,0.95-3.49,3.17-3.49c1.76-0.21,3.36,1.04,3.57,2.8c0.03,0.21,0.03,0.43,0.01,0.64
		c0.03,0.35,0.03,0.7,0,1.04c-0.04,0.33-0.12,0.66-0.26,0.97c-0.14,0.29-0.34,0.56-0.57,0.79c-0.28,0.24-0.6,0.42-0.95,0.53
		c-0.44,0.13-0.9,0.2-1.36,0.2C757.15,674.95,756.68,674.89,756.21,674.76z M758.18,674.07c0.17-0.07,0.34-0.15,0.49-0.26
		c0.14-0.1,0.25-0.23,0.34-0.37c0.09-0.14,0.16-0.3,0.22-0.45c0.01-0.17,0.01-0.34,0-0.51c0-0.2,0-0.37,0-0.53
		c0.01-0.18,0.01-0.35,0-0.53v-0.53c-0.02-0.18-0.06-0.36-0.1-0.53c-0.03-0.18-0.09-0.35-0.18-0.51c-0.07-0.16-0.16-0.31-0.26-0.45
		c-0.11-0.13-0.24-0.25-0.37-0.35c-0.16-0.1-0.33-0.18-0.51-0.24c-0.22-0.02-0.45-0.02-0.67,0c-0.23,0-0.45,0.03-0.67,0.1
		c-0.17,0.05-0.33,0.13-0.47,0.24c-0.13,0.1-0.24,0.22-0.34,0.35c-0.09,0.14-0.16,0.29-0.22,0.45c-0.01,0.17-0.01,0.34,0,0.51
		c-0.02,0.18-0.02,0.36,0,0.53v0.55v0.51c0.02,0.18,0.05,0.36,0.1,0.53c0.04,0.18,0.09,0.35,0.16,0.51
		c0.07,0.16,0.17,0.31,0.28,0.45c0.1,0.15,0.23,0.28,0.37,0.37c0.16,0.11,0.33,0.19,0.51,0.24c0.22,0.06,0.44,0.1,0.67,0.1
		c0.24-0.02,0.47-0.08,0.69-0.18L758.18,674.07z"/>
	<path class="st4" d="M765.62,674.69c-0.36-0.1-0.7-0.27-1.01-0.49c-0.27-0.22-0.5-0.49-0.67-0.79c-0.18-0.3-0.32-0.61-0.41-0.95
		c-0.08-0.35-0.14-0.71-0.16-1.06c-0.18-2.33,0.87-3.49,3.11-3.49c1.8-0.2,3.41,1.1,3.61,2.89c0.02,0.19,0.03,0.37,0.01,0.56
		c0.04,0.35,0.04,0.7,0,1.04c-0.04,0.33-0.12,0.66-0.26,0.97c-0.13,0.3-0.32,0.56-0.55,0.79c-0.27,0.24-0.58,0.42-0.93,0.51
		c-0.44,0.15-0.9,0.22-1.36,0.22C766.54,674.89,766.07,674.83,765.62,674.69z M767.59,674.01c0.17-0.07,0.34-0.15,0.49-0.26
		c0.13-0.11,0.25-0.23,0.34-0.37c0.08-0.15,0.14-0.3,0.2-0.45c0.01-0.18,0.01-0.36,0-0.53c0.01-0.17,0.01-0.34,0-0.51
		c0.01-0.18,0.01-0.35,0-0.53v-0.53c-0.02-0.18-0.06-0.36-0.12-0.53c-0.03-0.18-0.09-0.35-0.18-0.51c-0.07-0.16-0.16-0.32-0.28-0.45
		c-0.1-0.14-0.23-0.26-0.37-0.35c-0.16-0.11-0.33-0.19-0.51-0.24c-0.22-0.03-0.45-0.03-0.67,0c-0.23,0-0.45,0.03-0.67,0.1
		c-0.17,0.05-0.33,0.13-0.47,0.24c-0.25,0.21-0.43,0.49-0.53,0.81c-0.05,0.17-0.08,0.34-0.1,0.51c0,0.2,0,0.37,0,0.53s0,0.35,0,0.55
		c-0.01,0.17-0.01,0.34,0,0.51c0,0.16,0,0.34,0.12,0.53c0.04,0.18,0.09,0.35,0.18,0.51c0.07,0.16,0.16,0.32,0.28,0.45
		c0.1,0.15,0.23,0.28,0.37,0.37c0.16,0.11,0.33,0.19,0.51,0.24c0.23,0.04,0.46,0.04,0.69,0c0.25,0.02,0.51-0.01,0.75-0.08H767.59z"
		/>
	<path class="st4" d="M785.62,674.57c-0.37-0.11-0.73-0.28-1.04-0.51c-0.27-0.23-0.5-0.49-0.69-0.79c-0.19-0.29-0.34-0.61-0.43-0.95
		c-0.1-0.35-0.17-0.7-0.2-1.06c-0.24-2.31,0.75-3.47,3-3.49c1.87-0.19,3.54,1.18,3.73,3.06c0.01,0.13,0.02,0.26,0.02,0.39
		c0.04,0.35,0.04,0.71,0,1.06c-0.03,0.32-0.1,0.64-0.22,0.95c-0.11,0.3-0.29,0.57-0.51,0.79c-0.27,0.24-0.58,0.42-0.93,0.53
		c-0.44,0.13-0.9,0.2-1.36,0.2C786.52,674.75,786.07,674.69,785.62,674.57z M787.59,673.88c0.17-0.06,0.33-0.15,0.47-0.26
		c0.13-0.1,0.24-0.23,0.32-0.37c0.08-0.14,0.14-0.3,0.18-0.45c0.05-0.17,0.08-0.34,0.1-0.51v-0.53c0.01-0.17,0.01-0.34,0-0.51
		c0-0.2,0-0.37,0-0.55c0-0.18,0-0.34-0.14-0.53c-0.05-0.18-0.12-0.35-0.2-0.51c-0.08-0.15-0.17-0.3-0.28-0.43
		c-0.11-0.14-0.24-0.26-0.39-0.35c-0.17-0.1-0.35-0.18-0.53-0.24c-0.22-0.03-0.45-0.03-0.67,0c-0.22-0.03-0.43-0.03-0.65,0
		c-0.17,0.05-0.33,0.13-0.47,0.24c-0.12,0.11-0.23,0.23-0.32,0.37c-0.09,0.13-0.15,0.28-0.2,0.43c-0.01,0.17-0.01,0.34,0,0.51
		c-0.01,0.18-0.01,0.35,0,0.53c0,0.18,0,0.35,0,0.55v0.51c0.04,0.18,0.08,0.36,0.14,0.53c0.04,0.18,0.1,0.35,0.18,0.51
		c0.08,0.16,0.18,0.31,0.3,0.45c0.11,0.15,0.24,0.28,0.39,0.37c0.16,0.11,0.34,0.19,0.53,0.24c0.22,0.06,0.44,0.1,0.67,0.1
		C787.22,673.97,787.41,673.93,787.59,673.88z"/>
	<path class="st4" d="M794.99,674.51c-0.37-0.12-0.71-0.29-1.02-0.51c-0.28-0.22-0.52-0.49-0.71-0.79
		c-0.19-0.29-0.34-0.61-0.45-0.95c-0.11-0.35-0.18-0.7-0.22-1.06c-0.28-2.31,0.71-3.47,2.94-3.49c1.91-0.18,3.6,1.21,3.79,3.12
		c0.01,0.11,0.02,0.22,0.02,0.33c0.03,0.35,0.03,0.71,0,1.06c-0.02,0.32-0.08,0.64-0.2,0.95c-0.12,0.29-0.29,0.56-0.51,0.79
		c-0.26,0.24-0.57,0.42-0.91,0.51c-0.44,0.15-0.9,0.22-1.36,0.22C795.89,674.69,795.43,674.63,794.99,674.51z M796.96,673.82
		c0.17-0.06,0.33-0.15,0.47-0.26c0.12-0.11,0.23-0.23,0.32-0.37c0.16-0.3,0.24-0.63,0.24-0.97c0.02-0.18,0.02-0.36,0-0.53
		c0.01-0.17,0.01-0.34,0-0.51c-0.02-0.19-0.05-0.37-0.1-0.55c-0.02-0.18-0.07-0.36-0.14-0.53c-0.05-0.18-0.12-0.35-0.2-0.51
		c-0.08-0.16-0.18-0.3-0.3-0.43c-0.11-0.14-0.24-0.27-0.39-0.37c-0.17-0.09-0.35-0.16-0.53-0.22c-0.22-0.03-0.45-0.03-0.67,0
		c-0.22-0.03-0.43-0.03-0.65,0c-0.17,0.05-0.33,0.13-0.47,0.24c-0.12,0.1-0.22,0.22-0.3,0.35c-0.09,0.14-0.16,0.29-0.2,0.45
		c-0.01,0.17-0.01,0.34,0,0.51c-0.01,0.18-0.01,0.35,0,0.53v0.55c-0.01,0.17-0.01,0.34,0,0.51c0.03,0.18,0.08,0.36,0.14,0.53
		c0.05,0.18,0.11,0.35,0.2,0.51c0.08,0.16,0.18,0.31,0.3,0.45c0.11,0.15,0.24,0.28,0.39,0.37c0.16,0.11,0.34,0.19,0.53,0.24
		c0.22,0.03,0.45,0.03,0.67,0C796.5,673.84,796.73,673.84,796.96,673.82z"/>
	<path class="st4" d="M804.37,674.43c-0.38-0.1-0.73-0.28-1.04-0.51c-0.29-0.18-0.55-0.41-0.77-0.67c-0.19-0.29-0.34-0.61-0.45-0.95
		c-0.11-0.35-0.19-0.7-0.24-1.06c-0.32-2.31,0.65-3.47,2.88-3.49c1.95-0.22,3.7,1.18,3.92,3.13c0.01,0.11,0.02,0.21,0.02,0.32
		c0.02,0.35,0.02,0.7,0,1.04c-0.02,0.33-0.08,0.66-0.2,0.97c-0.11,0.29-0.28,0.56-0.49,0.79c-0.25,0.24-0.57,0.42-0.91,0.51
		c-0.43,0.15-0.88,0.22-1.34,0.22C805.28,674.7,804.81,674.6,804.37,674.43z M806.34,673.74c0.17-0.05,0.33-0.13,0.47-0.24
		c0.12-0.11,0.22-0.23,0.3-0.37c0.16-0.3,0.24-0.63,0.24-0.97v-0.53v-0.51c0-0.2,0-0.39-0.1-0.55c-0.04-0.18-0.09-0.36-0.16-0.53
		c-0.05-0.18-0.12-0.35-0.2-0.51c-0.09-0.16-0.19-0.3-0.32-0.43c-0.11-0.14-0.24-0.27-0.39-0.37c-0.17-0.09-0.35-0.16-0.53-0.22
		c-0.22-0.03-0.45-0.03-0.67,0c-0.22-0.03-0.43-0.03-0.65,0c-0.17,0.05-0.33,0.13-0.47,0.24c-0.12,0.1-0.22,0.22-0.3,0.35
		c-0.08,0.14-0.14,0.3-0.18,0.45c-0.02,0.17-0.02,0.34,0,0.51c-0.02,0.18-0.02,0.36,0,0.53c-0.02,0.18-0.02,0.37,0,0.55
		c0,0.18,0,0.35,0,0.51c0,0.16,0,0.34,0.14,0.53c0.05,0.18,0.13,0.35,0.22,0.51c0.08,0.16,0.18,0.31,0.3,0.45
		c0.11,0.15,0.25,0.28,0.41,0.37c0.16,0.11,0.34,0.19,0.53,0.24c0.22,0.04,0.45,0.04,0.67,0c0.22,0.04,0.45,0.03,0.67-0.02H806.34z"
		/>
	<path class="st4" d="M813.73,674.37c-0.38-0.1-0.73-0.28-1.04-0.51c-0.29-0.21-0.54-0.47-0.73-0.77c-0.2-0.29-0.37-0.61-0.49-0.95
		c-0.1-0.35-0.18-0.7-0.24-1.06c-0.35-2.31,0.59-3.47,2.82-3.49c1.97-0.2,3.73,1.24,3.93,3.21c0.01,0.08,0.01,0.16,0.02,0.24
		c0.03,0.35,0.03,0.7,0,1.04c0,0.33-0.06,0.66-0.18,0.97c-0.1,0.3-0.27,0.57-0.49,0.79c-0.25,0.24-0.55,0.42-0.89,0.51
		c-0.89,0.28-1.85,0.28-2.74,0L813.73,674.37z M815.7,673.68c0.17-0.05,0.33-0.13,0.47-0.24c0.12-0.11,0.22-0.23,0.3-0.37
		c0.08-0.14,0.13-0.29,0.16-0.45c0.02-0.18,0.02-0.36,0-0.53c0.01-0.17,0.01-0.34,0-0.51c0.02-0.18,0.02-0.36,0-0.53
		c0-0.2,0-0.37-0.1-0.53c-0.1-0.16-0.1-0.34-0.16-0.53c-0.06-0.18-0.13-0.35-0.22-0.51c-0.09-0.16-0.19-0.3-0.32-0.43
		c-0.11-0.15-0.25-0.28-0.41-0.37c-0.17-0.09-0.35-0.17-0.53-0.22c-0.22-0.03-0.45-0.03-0.67,0c-0.22-0.03-0.43-0.03-0.65,0
		c-0.16,0.05-0.32,0.13-0.45,0.24c-0.12,0.1-0.22,0.22-0.3,0.35c-0.08,0.14-0.14,0.3-0.18,0.45c0,0.16,0,0.32,0,0.51
		c-0.01,0.18-0.01,0.35,0,0.53v0.55c0,0.18,0,0.35,0,0.51c0,0.16,0.1,0.34,0.16,0.53c0.06,0.18,0.13,0.35,0.22,0.51
		c0.08,0.16,0.18,0.31,0.3,0.45c0.12,0.14,0.26,0.27,0.41,0.37c0.17,0.1,0.35,0.18,0.53,0.24c0.23,0.03,0.46,0.03,0.69,0
		c0.24,0.05,0.48,0.04,0.71-0.02H815.7z"/>
	<path class="st7" d="M806.97,691.56c0.63,4.59-3.94,8.4-10.27,8.44c-6.33,0.04-11.83-3.69-12.28-8.26
		c-0.45-4.57,4.16-8.18,10.31-8.22C800.88,683.48,806.34,687.04,806.97,691.56z"/>
	<path class="st7" d="M822.27,691.46c0.75,4.57-3.75,8.38-10.05,8.42s-11.83-3.67-12.48-8.26c-0.65-4.59,3.94-8.16,10.09-8.2
		C815.98,683.38,821.54,687.04,822.27,691.46z"/>
</g>
<g id="freepik--Hands--inject-15">
	<path class="st7" d="M493.65,768c0,0,44.08-92.41,50.86-110.21s101.73-62.74,106.82-71.28c5.09-8.54,11.83-34.75,16.97-45.77
		c5.14-11.02,0.85-15.28,4.24-24.6c3.39-9.32,9.32-20.34,0.85-20.34c-8.48,0-19.49,9.32-23.75,24.58
		c-4.26,15.26-21.19,27.99-21.19,27.99l0.85-10.17c0.85-10.19,11.02-41.55,15.26-48.33c4.24-6.78,29.69-33.9,33.08-34.75
		c3.39-0.85,11.02,6.78,18.65,6.78s9.32-5.91,5.09-9.32c-4.24-3.41-7.63-14.43-17.74-21.21c-10.11-6.78-21.19,0-21.19,0
		c-2.83-4.71-5.94-9.24-9.32-13.56c-4.26-5.09-12.73-13.56-23.75-16.1c-6.54-1.49-13.4,0.07-18.65,4.24
		c-3.9-0.81-7.85-1.38-11.83-1.7c-8.48-0.85-14.41,4.24-22.89,17.74c-8.48,13.5-22.06,39.86-22.06,39.86s3.39-24.6,3.39-34.77
		c0-10.17,0.85-21.19-3.39-25.43c-4.24-4.24-8.48,0.85-10.17,16.1c-1.7,15.26-21.19,68.68-23.65,83.08
		c-2.46,14.41-29.67,94.1-44.09,114.47c-14.43,20.36-92.41,109.36-92.41,109.36 M615.73,467.89c0,0,11.83-33.92,15.26-33.92
		s16.1,9.32,16.1,9.32L615.73,467.89z"/>
	<path class="st0" d="M513.11,537.67c0,0,14.45-45.2,16.85-56.83c1.71-8.2,7.79,1.36,7.79,1.36s11.83-8.46,11.83-1.36
		c0.13,4.51,1.69,8.86,4.44,12.44c0,0-2.66-12.44,9.86-15.99c12.52-3.55,17.74,1.77,15.1,15.99c-2.64,14.21,1.77,8.87,4.44,5.32
		c2.66-3.55-0.89-12.44,15.1-18.65c15.99-6.21,24.88,0,22.2,13.33c-2.68,13.33-7.1,24.86-7.1,44.39s3.55,37.29,7.1,37.29
		s23.1-20.42,26.65-7.1s-3.55,13.33-22.2,29.29c-18.65,15.97-67.49,29.31-75.48,45.34c-7.98,16.03-13.33,25.74-18.65,26.63
		c-5.32,0.89-14.21-31.07-39.98-27.6c-25.76,3.47-52.39,29.31-46.16,18.65s29.29-27.6,42.62-57.72
		C500.83,572.34,513.11,537.67,513.11,537.67z"/>
	<path class="st6" d="M513.11,537.67c0,0,14.45-45.2,16.85-56.83c1.71-8.2,7.79,1.36,7.79,1.36s11.83-8.46,11.83-1.36
		c0.13,4.51,1.69,8.86,4.44,12.44c0,0-2.66-12.44,9.86-15.99c12.52-3.55,17.74,1.77,15.1,15.99c-2.64,14.21,1.77,8.87,4.44,5.32
		c2.66-3.55-0.89-12.44,15.1-18.65c15.99-6.21,24.88,0,22.2,13.33c-2.68,13.33-7.1,24.86-7.1,44.39s3.55,37.29,7.1,37.29
		s23.1-20.42,26.65-7.1s-3.55,13.33-22.2,29.29c-18.65,15.97-67.49,29.31-75.48,45.34c-7.98,16.03-13.33,25.74-18.65,26.63
		c-5.32,0.89-14.21-31.07-39.98-27.6c-25.76,3.47-52.39,29.31-46.16,18.65s29.29-27.6,42.62-57.72
		C500.83,572.34,513.11,537.67,513.11,537.67z"/>
	<path class="st7" d="M610.64,406c0,0-23.65,40.7-28.82,49.18s-9.32,16.1-15.28,19.49c-5.95,3.39-10.17,11.02-8.48,13.56"/>
	<path class="st7" d="M553.83,461.96c-2.62,4.8-6.06,9.1-10.17,12.71c-6.78,5.91-14.41,11.02-16.1,17.74
		c-1.16,4.3-3.17,8.32-5.91,11.83"/>
	<path class="st7" d="M615.73,467.89c0,0-16.95,11.02-21.19,14.41c-4.24,3.39-5.91,11.02-5.91,11.02"/>
	<line class="st2" x1="662.37" y1="431.42" x2="647.09" y2="443.29"/>
	<path class="st7" d="M1074.69,714.86c0,0-77.15-75.44-83.08-90.67s-4.24-18.65-9.32-29.57c-5.09-10.92-20.34-29.78-21.19-43.37
		s-7.63-45.79-7.63-56.81s-2.54-27.12-5.91-29.67c-3.37-2.54-22.06-6.8-22.06-6.8s-10.17-32.21-17.74-33.9
		c-7.57-1.7-22.96,6.72-22.96,6.72s-3.39-5.91-7.63-15.26s-11.83-9.32-21.19-5.91s-27.99,11.02-27.99,11.02s-21.19-16.1-27.97-5.91
		c-6.78,10.19-15.26,28.82-16.95,35.6c-1.7,6.78,10.03,6.54,12.58,4.85c2.54-1.7,12.08-8.71,12.08-8.71s18.57,14.03,21.96,21.68
		c3.39,7.65,10.17,43.23,11.02,50.01c0.85,6.78-2.54,27.97-2.54,27.97s-16.1-28.82-23.65-37.29c-7.55-8.48-18.65-13.56-27.12-13.56
		c-8.48,0-14.41,9.32-7.63,13.56c6.78,4.24,14.41,9.32,16.1,15.26c1.7,5.93,18.65,36.47,20.34,47.49s13.56,33.06,24.58,39.84
		c11.02,6.78,51.72,15.26,59.35,22.9c7.63,7.65,61.89,115.29,61.89,115.29 M843.24,436.71h13.58l14.41,27.99L843.24,436.71z"/>
	<path class="st0" d="M950.89,506.58c0,0-9.86-27.6-21.31-22.2s-13.33,8-13.33,8s-6.23-9.86-16.87-6.23
		c-10.64,3.63-14.21-3.55-14.21-3.55s-14.21-8.87-23.08-1.77c-8.87,7.1-1.77,26.63,1.77,42.62c3.55,15.99-4.44,47.07-6.21,49.73
		c-1.77,2.66-25.76-7.98-28.42,1.77c-2.66,9.76,7.98,31.09,29.31,38.18s37.29,10.66,45.34,18.65c8.04,7.98,28.42,65.72,46.18,70.15
		c17.76,4.44,37.29-21.31,55.94-19.53c18.65,1.77,42.62,15.1,32.86,3.55c-9.76-11.55-50.62-53.22-53.22-68.36
		c-2.6-15.14-12.44-25.76-16.87-32.86s-12.46-49.73-15.22-61.3C952.1,517.92,951.21,512.28,950.89,506.58z"/>
	<path class="st6" d="M950.89,506.58c0,0-9.86-27.6-21.31-22.2s-13.33,8-13.33,8s-6.23-9.86-16.87-6.23
		c-10.64,3.63-14.21-3.55-14.21-3.55s-14.21-8.87-23.08-1.77c-8.87,7.1-1.77,26.63,1.77,42.62c3.55,15.99-4.44,47.07-6.21,49.73
		c-1.77,2.66-25.76-7.98-28.42,1.77c-2.66,9.76,7.98,31.09,29.31,38.18s37.29,10.66,45.34,18.65c8.04,7.98,28.42,65.72,46.18,70.15
		c17.76,4.44,37.29-21.31,55.94-19.53c18.65,1.77,42.62,15.1,32.86,3.55c-9.76-11.55-50.62-53.22-53.22-68.36
		c-2.6-15.14-12.44-25.76-16.87-32.86s-12.46-49.73-15.22-61.3C952.1,517.92,951.21,512.28,950.89,506.58z"/>
	<path class="st7" d="M884.79,430.79l11.83,22.04c0,0,4.83,11.57,9.72,16.44c4.89,4.87,9.15,8.54,10.98,14.65
		c1.83,6.11,2.42,9.15,2.42,9.15"/>
	<line class="st2" x1="925.48" y1="457.98" x2="937.36" y2="482.58"/>
	<line class="st2" x1="827.98" y1="420.68" x2="843.24" y2="436.79"/>
	<path class="st7" d="M940.54,488.23c0.26,5.12,0.87,10.22,1.83,15.26"/>
	<path class="st7" d="M879.55,474.16c0,0,7.31,5.48,8.54,12.79"/>
	<path class="st7" d="M807.72,446.56c0,0-6.7-2.68-6.7-8.04"/>
	<path class="st7" d="M856.82,436.71c0,0-4.85-3.73-4.85-8.42"/>
</g>
</svg>
