<?xml version="1.0" encoding="utf-8"?>
<!-- Generator: Adobe Illustrator 23.1.0, SVG Export Plug-In . SVG Version: 6.00 Build 0)  -->
<svg version="1.1" id="Layer_1" xmlns="http://www.w3.org/2000/svg" xmlns:xlink="http://www.w3.org/1999/xlink" x="0px" y="0px"
	 viewBox="0 0 1366 768" style="enable-background:new 0 0 1366 768;" xml:space="preserve">
<style type="text/css">
	.st0{fill:#F5F5F5;}
	.st1{fill:#E0E0E0;}
	.st2{fill:#455A64;}
	.st3{fill:#37474F;}
	.st4{fill:#BA68C8;}
	.st5{fill:#263238;}
	.st6{opacity:0.8;fill:#FFFFFF;enable-background:new    ;}
	.st7{opacity:0.15;enable-background:new    ;}
	.st8{opacity:0.3;enable-background:new    ;}
	.st9{opacity:0.5;enable-background:new    ;}
	.st10{opacity:0.35;enable-background:new    ;}
	.st11{opacity:0.23;enable-background:new    ;}
	.st12{opacity:0.15;}
	.st13{opacity:0.4;enable-background:new    ;}
	.st14{opacity:0.6;fill:#FFFFFF;enable-background:new    ;}
	.st15{opacity:0.3;fill:#FFFFFF;enable-background:new    ;}
	.st16{opacity:0.1;enable-background:new    ;}
	.st17{opacity:0.2;enable-background:new    ;}
	.st18{fill:#FFFFFF;}
	.st19{clip-path:url(#SVGID_2_);}
	.st20{fill:#FFA8A7;}
	.st21{opacity:0.45;enable-background:new    ;}
	.st22{fill:#F28F8F;}
	.st23{fill:#FAFAFA;}
	.st24{fill:#B16668;}
</style>
<g id="freepik--Floor--inject-33">
	<ellipse id="freepik--floor--inject-33" class="st0" cx="680.86" cy="518.02" rx="420.86" ry="242.98"/>
</g>
<g id="freepik--Shadows--inject-33">
	<path id="freepik--Shadow--inject-33" class="st1" d="M984.25,561.15c-0.07-0.16-0.16-0.31-0.27-0.46
		c-0.08-0.1-0.16-0.19-0.25-0.28c-0.07-0.12-0.16-0.24-0.27-0.34l-0.32-0.3c-0.35-0.3-0.73-0.57-1.13-0.8L588.56,331.82
		c-3.99-2-8.7-2-12.69,0L371.12,449.71c-0.26,0.14-0.51,0.3-0.74,0.48c0,0-0.19,0.12-0.27,0.19c-0.41,0.34-0.77,0.75-1.06,1.2
		c-0.07,0.09-0.13,0.19-0.18,0.3c-0.09,0.16-0.16,0.32-0.21,0.49c-0.04,0.13-0.07,0.26-0.09,0.39c-0.03,0.21-0.03,0.42,0,0.64
		c-0.01,0.15-0.01,0.29,0,0.44c0.03,0.17,0.07,0.33,0.12,0.49c0.06,0.16,0.13,0.32,0.21,0.48c0.51,0.93,1.28,1.69,2.21,2.19
		l393.49,227.14c1.17,0.64,2.45,1.07,3.76,1.29c0.85,0.13,1.72,0.2,2.58,0.21c0.85,0,1.7-0.07,2.54-0.19
		c0.28-0.03,0.56-0.09,0.83-0.16c0.78-0.18,1.55-0.44,2.28-0.78c0.25-0.11,0.46-0.25,0.69-0.37l204.73-117.87
		C984.43,564.89,985.1,562.91,984.25,561.15z"/>
	<ellipse id="freepik--shadow--inject-33" class="st1" cx="959.15" cy="449.81" rx="87.51" ry="50.53"/>
	<path class="st1" d="M498.85,711.54c-3.55,0.05-7.06-0.82-10.18-2.53L313.4,607.84l-0.16-0.12c-3.2-1.75-5.22-5.07-5.3-8.71
		c0.18-3.76,2.36-7.14,5.72-8.83l115.63-66.75c6.38-3.32,13.98-3.32,20.35,0l175.01,101.16c3.35,1.7,5.53,5.08,5.71,8.83
		c-0.1,3.53-2.03,6.76-5.11,8.5c-0.23,0.17-0.46,0.32-0.71,0.46l-87.5,50.48l-28.06,16.2c-3.12,1.7-6.63,2.56-10.18,2.51
		L498.85,711.54z"/>
</g>
<g id="freepik--Device--inject-33">
	<g id="freepik--device--inject-33">
		<g id="freepik--Mobile--inject-33">
			<path class="st2" d="M967.18,535.1c-0.07-0.16-0.17-0.32-0.28-0.46c-0.07-0.1-0.15-0.19-0.23-0.28
				c-0.08-0.12-0.17-0.24-0.28-0.34l-0.3-0.28c-0.35-0.31-0.74-0.58-1.15-0.81L582.25,311.94c-3.99-2-8.7-2-12.69,0L381.85,420.27
				l-0.76,0.48l-0.25,0.21c-0.42,0.33-0.78,0.73-1.06,1.18c-0.18,0.25-0.31,0.52-0.39,0.81c-0.01,0.13-0.01,0.26,0,0.39
				c-0.03,0.21-0.03,0.42,0,0.64c-0.01,0.15-0.01,0.29,0,0.44c0.03,0.17,0.07,0.33,0.12,0.49c0.05,0.16,0.12,0.32,0.19,0.48
				c0.53,0.93,1.31,1.7,2.26,2.19l382.64,221c1.17,0.64,2.44,1.07,3.76,1.27c0.85,0.15,1.71,0.22,2.58,0.23
				c0.85,0,1.7-0.07,2.54-0.21c0.28-0.03,0.56-0.09,0.83-0.16c0.79-0.17,1.55-0.43,2.28-0.78c0.25-0.11,0.46-0.23,0.69-0.35
				l187.65-108.35C967.43,538.85,968.1,536.87,967.18,535.1z M925.96,527.26l-12,6.94l-159.89,92.23c-0.41,0.24-0.84,0.46-1.29,0.64
				c-2.64,1.1-5.6,1.1-8.23,0c-0.45-0.18-0.88-0.39-1.29-0.64L439.69,451.17l-14.7-8.46c-0.51-0.29-0.98-0.66-1.38-1.1
				c-1.52-1.66-1.04-3.78,1.38-5.19l171.81-99.19c1.96-1.33,4.3-1.98,6.66-1.86c0.57,0.07,1.12,0.22,1.64,0.44
				c0.29,0.11,0.58,0.25,0.85,0.41l320,184.75c1.74,1.01,2.32,3.24,1.31,4.98C926.96,526.49,926.51,526.94,925.96,527.26z"/>
			<path class="st3" d="M381.1,420.77c-3.31,2.52-5.35,6.36-5.58,10.51v8.38c0.23,4.47,2.59,8.56,6.34,11.01l382.69,220.97
				c1.44,0.79,3.03,1.28,4.66,1.43c0.57,0,1.11,0.09,1.77,0.11l0,0v-23.08l0,0c-0.86-0.02-1.73-0.09-2.58-0.21
				c-1.33-0.22-2.61-0.66-3.78-1.31L381.85,427.59C378.61,425.73,378.35,422.78,381.1,420.77z"/>
			<path class="st4" d="M865.82,580.1c-7.14-3.53-15.51-3.53-22.65,0c-1.38,0.73-2.54,1.79-3.39,3.09
				c-2.03,3.53,1.77,6.18,3.39,7.17c7.14,3.53,15.51,3.53,22.65,0c1.36-0.74,2.53-1.8,3.39-3.09
				C871.24,583.74,867.5,581.09,865.82,580.1z"/>
			<path class="st5" d="M491.02,376.05c0.98-0.37,1.47-1.46,1.09-2.44c-0.19-0.5-0.59-0.9-1.09-1.09c-1.95-0.99-4.25-0.99-6.2,0
				c-0.98,0.37-1.47,1.46-1.09,2.44c0.19,0.5,0.59,0.9,1.09,1.09C486.77,377.03,489.07,377.03,491.02,376.05z"/>
			<path class="st5" d="M481.29,393.01c0.88-0.43,1.25-1.48,0.82-2.36c-0.17-0.36-0.46-0.65-0.82-0.82c-1.74-0.87-3.78-0.87-5.51,0
				c-0.88,0.43-1.25,1.48-0.82,2.36c0.17,0.36,0.46,0.65,0.82,0.82C477.51,393.89,479.56,393.89,481.29,393.01z"/>
			<path class="st5" d="M490.6,387.76l30.81-17.79c1.77-0.97,1.77-2.51,0.18-3.43c-1.88-0.91-4.08-0.86-5.92,0.12l-30.81,17.78
				c-1.68,0.99-1.77,2.51-0.18,3.43C486.56,388.78,488.76,388.74,490.6,387.76z"/>
			<path class="st5" d="M965.79,533.49c2.61,2.03,2.33,4.91-0.85,6.75L777.28,648.59c-1.95,1.04-4.13,1.56-6.34,1.5v23.06
				c2.2,0.04,4.38-0.48,6.33-1.52L964.92,563.3c3.75-2.44,6.11-6.52,6.34-10.99v-8.39C971.03,539.82,969.03,536.01,965.79,533.49z"
				/>
			<path class="st2" d="M471.36,485.75c1.9,1.19,3.11,3.21,3.29,5.44c0.08,0.76-0.28,1.5-0.92,1.91c-0.39,0.23-1.87,1.11-2.3,1.34
				c-0.78,0.33-1.68,0.23-2.37-0.27l-42.67-24.74c-1.89-1.2-3.1-3.21-3.27-5.44c-0.06-0.73,0.25-1.43,0.83-1.87l2.37-1.38
				c0.78-0.33,1.68-0.23,2.37,0.27L471.36,485.75z"/>
			<path class="st5" d="M469.06,487.04l-42.67-24.63c-1.77-1.04-3.27-0.3-3.27,1.66c0.17,2.23,1.38,4.25,3.27,5.44l42.67,24.74
				c1.77,1.04,3.29,0.3,3.29-1.66C472.21,490.32,470.98,488.25,469.06,487.04z"/>
			<path class="st2" d="M414.23,452.76c1.9,1.19,3.12,3.22,3.29,5.46c0.07,0.75-0.27,1.48-0.9,1.91c-0.41,0.21-1.89,1.11-2.3,1.34
				c-0.78,0.33-1.68,0.22-2.37-0.28l-20.13-11.61c-1.89-1.2-3.1-3.21-3.27-5.44c-0.08-0.73,0.24-1.44,0.83-1.87
				c0.39-0.27,1.94-1.15,2.37-1.38c0.78-0.34,1.68-0.24,2.37,0.27L414.23,452.76z"/>
			<path class="st5" d="M411.95,454.09l-20.13-11.61c-1.77-1.04-3.27-0.3-3.27,1.66c0.17,2.23,1.38,4.25,3.27,5.44l20.13,11.61
				c1.77,1.04,3.27,0.3,3.27-1.66C415.05,457.3,413.84,455.28,411.95,454.09z"/>
		</g>
		<g id="freepik--Window--inject-33">
			<path class="st4" d="M925.96,527.17l-12,6.93l-159.89,92.25c-0.42,0.24-0.85,0.45-1.29,0.64c-2.64,1.1-5.6,1.1-8.23,0
				c-0.44-0.19-0.87-0.4-1.29-0.64L439.69,451.09l-14.68-8.48c-0.52-0.28-0.98-0.64-1.38-1.08c-1.52-1.66-1.04-3.8,1.38-5.21
				l171.81-99.18c1.97-1.3,4.31-1.92,6.66-1.77c0.57,0.07,1.12,0.22,1.64,0.44c0.29,0.11,0.58,0.25,0.85,0.41l319.99,184.75
				c1.71,1.05,2.25,3.29,1.19,5.01C926.86,526.46,926.45,526.87,925.96,527.17z"/>
			<path class="st6" d="M925.96,527.17l-12,6.93l-159.89,92.25c-0.42,0.24-0.85,0.45-1.29,0.64c-2.64,1.1-5.6,1.1-8.23,0
				c-0.44-0.19-0.87-0.4-1.29-0.64L439.69,451.09l-14.68-8.48c-0.52-0.28-0.98-0.64-1.38-1.08c-1.52-1.66-1.04-3.8,1.38-5.21
				l171.81-99.18c1.97-1.3,4.31-1.92,6.66-1.77c0.57,0.07,1.12,0.22,1.64,0.44c0.29,0.11,0.58,0.25,0.85,0.41l319.99,184.75
				c1.71,1.05,2.25,3.29,1.19,5.01C926.86,526.46,926.45,526.87,925.96,527.17z"/>
			<path class="st2" d="M461.29,429.64c-0.09-0.02-0.17-0.05-0.25-0.09l-0.83-0.49l-2.03,1.18c-0.11,0.07-0.25,0.07-0.35,0
				l-0.3-0.16l-0.14-0.11c0-0.04,0-0.08,0-0.12l-0.85-2.99c-0.01-0.04-0.01-0.08,0-0.12c0.03-0.04,0.06-0.08,0.11-0.11l0.28-0.16
				c0.09-0.02,0.18-0.02,0.27,0c0.09,0.01,0.18,0.04,0.27,0.09l2.93,1.77l0.46-0.25c0.07-0.03,0.16-0.03,0.23,0
				c0.09,0.01,0.19,0.04,0.27,0.09l0.19,0.11c0.09,0,0.14,0.11,0.14,0.14c0,0.04,0,0.09-0.12,0.14l-0.44,0.27l0.85,0.48
				c0.06,0.03,0.11,0.08,0.14,0.14c0,0,0,0.09-0.14,0.14l-0.34,0.21C461.5,429.77,461.38,429.72,461.29,429.64z M459.52,428.58
				l-2.08-1.22l0.62,2.07L459.52,428.58z"/>
			<path class="st2" d="M463.19,427.94c-0.9-0.05-1.77-0.32-2.54-0.78c-0.83-0.49-1.29-0.97-1.34-1.47
				c-0.05-0.49,0.28-0.95,0.99-1.38c0.29-0.16,0.6-0.3,0.92-0.41c0.31-0.1,0.62-0.16,0.94-0.19c0,0,0.11,0,0.14,0s0,0,0,0l0.18,0.34
				l0,0h-0.12c-0.47,0.05-0.92,0.19-1.33,0.42c-0.48,0.28-0.71,0.6-0.67,0.95c0.04,0.35,0.39,0.69,1.04,1.06
				c0.53,0.34,1.14,0.55,1.77,0.62c0.55,0.03,1.09-0.1,1.57-0.37l0.46-0.32c0.1-0.09,0.19-0.19,0.27-0.3l-1.38-0.8l-0.85,0.48
				c-0.08,0.03-0.17,0.03-0.25,0c-0.09-0.01-0.17-0.04-0.25-0.09l-0.19-0.11c0,0-0.14-0.11-0.14-0.14s0-0.09,0.12-0.14l1.34-0.78
				c0.09-0.02,0.19-0.02,0.28,0c0.11,0,0.21,0.04,0.3,0.11l1.96,1.13c0.06,0.02,0.11,0.06,0.14,0.11c0,0,0,0,0,0.11
				c-0.23,0.52-0.65,0.94-1.17,1.17C464.74,427.62,463.98,427.89,463.19,427.94z"/>
			<path class="st2" d="M480,417.87c0.65,0.39,0.65,0.99,0,1.36c-0.73,0.39-1.62,0.39-2.35,0c-0.65-0.37-0.65-0.97,0-1.36
				C478.39,417.5,479.26,417.5,480,417.87z"/>
			<path class="st2" d="M475.72,416.75c-1.18,0.69-1.55,1.68-1.1,2.54c0.17,0.21,0.44,0.31,0.71,0.27l0,0
				c0.39,0,0.67-0.27,0.55-0.48c-0.34-0.62,0-1.31,0.76-1.77c0.95-0.5,2.04-0.65,3.09-0.44c0.39,0,0.78,0,0.83-0.32l0,0
				c0-0.19-0.16-0.35-0.46-0.42C478.61,415.87,477.08,416.08,475.72,416.75z"/>
			<path class="st2" d="M473.83,415.68c-1.77,1.01-2.4,2.44-1.89,3.76c0,0.19,0.37,0.32,0.71,0.3l0,0c0.39,0,0.64-0.25,0.55-0.46
				c-0.41-1.08,0.11-2.24,1.54-3.07c1.63-0.83,3.48-1.15,5.3-0.9c0.39,0,0.76,0,0.8-0.32l0,0c0-0.19-0.19-0.37-0.53-0.41
				C478.08,414.26,475.82,414.65,473.83,415.68z"/>
			<path class="st2" d="M508.59,398.86c-0.06,0.02-0.13,0.02-0.19,0c0,0,0,0,0-0.12l0.35-1.77c0,0,0-0.09,0-0.12l0.11-0.11
				l0.62-0.35c0.06-0.02,0.13-0.02,0.19,0c0.07-0.02,0.14-0.02,0.21,0l5.05,2.92c0.02,0.03,0.02,0.07,0,0.11
				c0.02,0.04,0.02,0.09,0,0.12l-0.64,0.37c-0.07,0.02-0.14,0.02-0.21,0c-0.07,0.02-0.14,0.02-0.21,0l-3.85-2.23l-0.21,1.02
				c0,0,0,0-0.11,0.11c-0.08,0.02-0.15,0.02-0.23,0L508.59,398.86z"/>
			<path class="st2" d="M512.54,396.58c-0.07,0.02-0.14,0.02-0.21,0c-0.02-0.04-0.02-0.08,0-0.12l0.37-1.77
				c-0.01-0.04-0.01-0.08,0-0.12l0.09-0.11l0.62-0.35c0.07-0.02,0.14-0.02,0.21,0c0.07-0.02,0.14-0.02,0.21,0l5.04,2.92
				c0,0,0,0,0,0.12c0.02,0.03,0.02,0.07,0,0.11l-0.64,0.37c-0.07,0.02-0.14,0.02-0.21,0h-0.21l-3.85-2.23l-0.23,1.15
				c-0.03,0.05-0.07,0.09-0.12,0.11c-0.07,0.02-0.14,0.02-0.21,0L512.54,396.58z"/>
			<path class="st2" d="M517.49,393.4c0.07-0.02,0.14-0.02,0.21,0c0.07-0.02,0.14-0.02,0.21,0l0.78,0.44c0.02,0.03,0.02,0.07,0,0.11
				c0.02,0.04,0.02,0.08,0,0.12l-0.72,0.42h-0.21c-0.07,0.02-0.14,0.02-0.21,0l-0.78-0.44c-0.02-0.04-0.02-0.08,0-0.12
				c-0.02-0.04-0.02-0.08,0-0.12L517.49,393.4z M520.23,394.97c0.13-0.07,0.29-0.07,0.42,0l0.76,0.44c0,0,0.09,0,0.09,0.12
				c-0.01,0.05-0.04,0.1-0.09,0.12l-0.72,0.41c-0.13,0.07-0.29,0.07-0.42,0l-0.76-0.44c0,0-0.09,0-0.09-0.12
				c0.01-0.05,0.04-0.09,0.09-0.11L520.23,394.97z"/>
			<path class="st2" d="M525.58,393.4c-0.13,0.07-0.29,0.07-0.42,0l-0.94-0.53l-2.42,1.4h-0.21c-0.07,0.02-0.14,0.02-0.21,0
				l-0.55-0.32c-0.09,0-0.12-0.09-0.14-0.14c-0.02-0.06-0.02-0.12,0-0.18l-0.6-3.09c-0.03-0.12,0.02-0.24,0.12-0.3l0.6-0.35h0.21
				h0.19l3.13,1.77l0.67-0.39h0.21h0.21l0.55,0.34c0.05,0.01,0.08,0.06,0.09,0.11c0,0,0,0.09-0.09,0.12l-0.67,0.39l0.95,0.55
				c0,0,0.09,0,0,0.12c0.02,0.04,0.02,0.08,0,0.12L525.58,393.4z M523.23,392.3l-1.66-0.97l0.34,1.77L523.23,392.3z"/>
			<path class="st2" d="M523.46,388.48c-0.01-0.04-0.01-0.08,0-0.12c0,0,0,0,0-0.12l2.93-1.77c0.13-0.07,0.29-0.07,0.42,0l0.55,0.32
				c0,0,0.09,0,0.09,0.12s0,0.09-0.09,0.12l-2.19,1.25l0.92,0.64c0.09-0.12,0.2-0.22,0.32-0.3l0.32-0.21
				c0.3-0.17,0.61-0.3,0.94-0.39c0.32-0.1,0.65-0.16,0.99-0.18c0.33-0.04,0.66-0.04,0.99,0c0.33,0.07,0.64,0.19,0.94,0.35
				c0.28,0.14,0.52,0.34,0.69,0.6c0.12,0.17,0.17,0.38,0.14,0.58c-0.03,0.22-0.14,0.42-0.3,0.57c-0.21,0.2-0.45,0.38-0.71,0.53
				c-0.33,0.19-0.68,0.34-1.04,0.46c-0.32,0.09-0.64,0.15-0.97,0.18c-0.29,0.03-0.59,0.03-0.88,0c-0.25-0.05-0.49-0.13-0.72-0.25
				c0,0-0.09,0-0.09-0.12c0-0.12,0-0.09,0.09-0.12l0.64-0.37h0.19h0.21c0.14,0.04,0.29,0.07,0.44,0.09h0.42l0.39-0.12l0.35-0.18
				c0.3-0.18,0.46-0.35,0.48-0.57c0.02-0.21-0.11-0.37-0.39-0.53c-0.26-0.15-0.55-0.21-0.85-0.18c-0.34,0.01-0.67,0.1-0.97,0.27
				c-0.12,0.07-0.23,0.14-0.34,0.23c-0.05,0.05-0.1,0.11-0.14,0.18c0.01,0.05,0.01,0.09,0,0.14c-0.03,0.05-0.08,0.1-0.14,0.12
				l-0.72,0.42h-0.21h-0.19L523.46,388.48z"/>
			<polygon class="st2" points="439.48,442.94 437.86,442 440.01,440.75 441.64,441.69 			"/>
			<polygon class="st2" points="442.73,441.07 439.48,439.19 441.64,437.94 444.89,439.81 			"/>
			<polygon class="st2" points="445.98,439.19 441.11,436.37 443.26,435.13 448.16,437.94 			"/>
			<polygon class="st2" points="449.24,437.32 442.73,433.56 444.91,432.3 451.39,436.07 			"/>
			<path class="st2" d="M596.21,346.36c-0.43-0.05-0.87,0.02-1.27,0.19l-8.11,4.66c-0.53,0.3-0.39,0.87,0.3,1.27l2.97,1.77
				c0.44,0.24,0.93,0.39,1.43,0.42c0.21,0.03,0.42,0.03,0.64,0c0.22-0.02,0.44-0.08,0.64-0.18l8.11-4.66
				c0.51-0.32,0.39-0.87-0.32-1.27l-2.95-1.77C597.2,346.56,596.71,346.4,596.21,346.36z M591.44,354.31
				c-0.21-0.02-0.42-0.1-0.6-0.21l-2.97-1.77c-0.51-0.3-0.62-0.74-0.23-0.97l8.11-4.66c0.1-0.06,0.22-0.09,0.34-0.11h0.19
				c0.22,0.02,0.43,0.09,0.62,0.21l2.95,1.77c0.51,0.3,0.62,0.74,0.25,0.95l-8.11,4.68C591.81,354.29,591.62,354.32,591.44,354.31z"
				/>
			<path class="st2" d="M589.69,350.85l3.53,2.01l-1.27,0.74c-0.14,0.04-0.3,0.04-0.44,0l-2.6-1.5c-0.37-0.21-0.46-0.55-0.18-0.72
				L589.69,350.85z"/>
			<polygon class="st2" points="590.29,350.51 591.81,349.63 595.3,351.64 593.77,352.53 			"/>
			<polygon class="st2" points="592.41,349.29 593.91,348.41 597.43,350.44 595.91,351.33 			"/>
			<path class="st2" d="M596.26,347.33l2.53,1.47c0.46,0.27,0.37,0.65-0.27,1.01l-0.51,0.3l-3.53-2.03l1.22-0.69
				C595.87,347.29,596.07,347.27,596.26,347.33z"/>
			<path class="st2" d="M597.96,346.61c0.53-0.05,1.07,0.09,1.5,0.41l0.55,0.32c0.6,0.35,0.94,0.74,0.71,0.88l-0.37,0.25l-2.79-1.61
				L597.96,346.61z"/>
			<polygon class="st2" points="575.55,360 581.84,354.54 585.16,359.26 580.82,358.08 			"/>
		</g>
		<g id="freepik--Button--inject-33">
			<path class="st4" d="M709.46,589.61v1.55c0.14,2.72,1.58,5.21,3.87,6.7l30.32,17.49c2.43,1.24,5.31,1.24,7.74,0l149.43-86.31
				c2.29-1.49,3.72-3.99,3.87-6.71v-1.54c-0.15-2.73-1.58-5.22-3.87-6.71l-30.32-17.49c-2.43-1.24-5.31-1.24-7.74,0l-149.43,86.33
				C711.05,584.4,709.62,586.89,709.46,589.61z"/>
			<path class="st7" d="M901.26,514.43c1.61,1.22,1.43,3-0.51,4.12l-149.43,86.33c-1.19,0.63-2.52,0.95-3.87,0.94v10.46
				c1.35,0.03,2.69-0.28,3.89-0.92l149.41-86.31c2.28-1.5,3.71-3.99,3.87-6.71v-1.54C904.48,518.28,903.26,515.96,901.26,514.43z"/>
			<path class="st8" d="M712.68,583.32c-1.94,1.53-3.14,3.82-3.29,6.29v1.55c0.14,2.73,1.59,5.22,3.89,6.7l30.3,17.49
				c1.19,0.64,2.52,0.95,3.87,0.92v-10.46c-1.35,0.01-2.68-0.31-3.87-0.94l-30.32-17.49C711.34,586.29,711.23,584.56,712.68,583.32z
				"/>
			<path class="st2" d="M757.54,572.29c0.24-0.14,0.5-0.21,0.78-0.21c0.23,0.01,0.46,0.04,0.69,0.09l15.9,4.45l0.35,0.12
				c0.1,0.05,0.16,0.14,0.16,0.25c0,0,0,0.16-0.16,0.23l-2.37,1.36c-0.21,0.13-0.44,0.2-0.69,0.21c-0.17,0.03-0.34,0.03-0.51,0
				l-2.08-0.6l-4.98,2.88l1.04,1.2c0.07,0.08,0.11,0.19,0.11,0.3c0,0.12-0.12,0.25-0.37,0.39l-2.37,1.36
				c-0.12,0.07-0.26,0.11-0.41,0.11c-0.15,0-0.3-0.03-0.42-0.11c-0.08-0.05-0.15-0.11-0.19-0.19l-7.74-9.19
				c-0.09-0.11-0.14-0.25-0.14-0.39c0-0.16,0.12-0.3,0.37-0.44L757.54,572.29z M762.7,578.78l3.04-1.77l-6.03-1.77L762.7,578.78z"/>
			<path class="st2" d="M769.54,565.37c0.87-0.5,1.79-0.88,2.76-1.15c0.95-0.25,1.93-0.4,2.92-0.44c0.97-0.04,1.94,0.05,2.88,0.27
				c0.91,0.19,1.79,0.5,2.61,0.92l0.72,0.41l0.64,0.37l0.62,0.35l0.67,0.41c0.65,0.38,1.21,0.9,1.64,1.52
				c0.32,0.48,0.49,1.05,0.46,1.63c-0.08,0.62-0.33,1.2-0.74,1.68c-0.55,0.64-1.22,1.17-1.96,1.57l-5.05,2.92
				c-0.16,0.09-0.33,0.13-0.51,0.12c-0.17,0.01-0.35-0.03-0.49-0.12l-12.12-6.98c-0.14-0.09-0.21-0.18-0.21-0.3
				c0.01-0.13,0.09-0.24,0.21-0.28L769.54,565.37z M777.15,566.92c-1.49-0.78-3.29-0.69-4.7,0.23l-1.91,1.11l7.07,4.12l2-1.17
				c1.57-0.9,1.68-1.77,0.3-2.67l-0.72-0.44l-0.67-0.39l-0.65-0.37L777.15,566.92z"/>
			<path class="st2" d="M783.09,557.54c0.87-0.5,1.79-0.88,2.76-1.15c0.96-0.25,1.94-0.4,2.93-0.44c0.96-0.03,1.92,0.06,2.86,0.27
				c0.91,0.19,1.79,0.49,2.62,0.92l0.74,0.41l0.62,0.37l0.62,0.35l0.69,0.41c0.64,0.39,1.19,0.91,1.63,1.52
				c0.33,0.47,0.49,1.05,0.46,1.63c-0.06,0.62-0.31,1.21-0.72,1.68c-0.55,0.64-1.22,1.17-1.96,1.57l-5.07,2.92
				c-0.15,0.09-0.32,0.13-0.49,0.12c-0.18,0.01-0.36-0.03-0.51-0.12L778.13,561c-0.12-0.06-0.2-0.17-0.21-0.3
				c0.01-0.13,0.09-0.24,0.21-0.28L783.09,557.54z M790.71,559.1c-1.49-0.78-3.29-0.69-4.7,0.23l-1.91,1.11l7.07,4.12l2.01-1.17
				c1.57-0.9,1.66-1.77,0.3-2.67l-0.72-0.44c-0.23-0.12-0.46-0.25-0.67-0.39l-0.67-0.37L790.71,559.1z"/>
			<path class="st2" d="M804.35,545.35c0.15-0.09,0.32-0.13,0.49-0.12c0.18-0.01,0.36,0.03,0.51,0.12l2,1.15
				c0.11,0.05,0.19,0.16,0.19,0.28c0,0.13-0.08,0.25-0.19,0.3l-3.3,1.8l9.61,5.55c0.14,0,0.21,0.18,0.21,0.3
				c-0.01,0.13-0.09,0.24-0.21,0.28l-2.46,1.41c-0.15,0.09-0.32,0.13-0.49,0.12c-0.18,0.01-0.36-0.03-0.51-0.12l-9.61-5.55
				l-3.3,1.91c-0.16,0.08-0.33,0.12-0.51,0.12c-0.17,0-0.34-0.04-0.49-0.12l-2-1.15c-0.14-0.09-0.21-0.18-0.21-0.3
				c0.01-0.13,0.09-0.24,0.21-0.28L804.35,545.35z"/>
			<path class="st2" d="M810.78,547.22c-0.59-0.37-1.11-0.85-1.52-1.41c-0.34-0.46-0.51-1.02-0.48-1.59
				c0.07-0.62,0.33-1.2,0.72-1.68c0.58-0.66,1.26-1.22,2.03-1.64c0.89-0.51,1.85-0.9,2.84-1.17c0.95-0.25,1.92-0.39,2.9-0.42
				c0.93-0.02,1.85,0.07,2.76,0.28c0.85,0.18,1.67,0.47,2.44,0.87l1.77,0.95l1.61,0.97c0.59,0.37,1.11,0.85,1.52,1.41
				c0.34,0.46,0.51,1.02,0.48,1.59c-0.04,0.65-0.29,1.28-0.72,1.77c-0.57,0.67-1.26,1.22-2.03,1.63c-0.89,0.53-1.85,0.93-2.84,1.2
				c-0.95,0.25-1.92,0.38-2.9,0.41c-0.93,0.02-1.85-0.07-2.76-0.28c-0.85-0.19-1.66-0.48-2.44-0.87c-0.55-0.28-1.1-0.6-1.77-0.94
				L810.78,547.22z M822.25,544.34l-0.71-0.46l-0.81-0.49l-0.87-0.48l-0.76-0.39c-0.34-0.17-0.69-0.3-1.06-0.39
				c-0.37-0.09-0.75-0.14-1.13-0.14c-0.4,0-0.8,0.06-1.18,0.16c-0.41,0.11-0.81,0.27-1.18,0.48c-0.32,0.17-0.6,0.4-0.83,0.69
				c-0.16,0.19-0.26,0.44-0.27,0.69c0,0.24,0.08,0.47,0.23,0.65c0.19,0.24,0.41,0.44,0.67,0.6c0.21,0.16,0.44,0.31,0.67,0.44
				c0.27,0.16,0.53,0.34,0.83,0.49l0.85,0.48c0.26,0.15,0.52,0.28,0.8,0.41c0.69,0.34,1.44,0.52,2.21,0.53
				c0.83,0.01,1.65-0.22,2.35-0.65c0.78-0.44,1.13-0.88,1.1-1.34C823.06,545.07,822.73,544.6,822.25,544.34z"/>
			<path class="st2" d="M831.75,535.21l0.65,0.41l0.88,0.51l0.9,0.53l0.72,0.37c0.31,0.16,0.65,0.29,0.99,0.37
				c0.36,0.1,0.74,0.16,1.11,0.18c0.4,0,0.8-0.05,1.18-0.14c0.44-0.1,0.87-0.28,1.25-0.51c0.33-0.17,0.63-0.41,0.88-0.69
				c0.15-0.17,0.26-0.38,0.32-0.6c0.05-0.17,0.05-0.35,0-0.51c-0.07-0.15-0.17-0.28-0.28-0.41c-0.1-0.11-0.17-0.23-0.21-0.37
				c0,0,0.11-0.19,0.32-0.32l2.46-1.41c0.26-0.12,0.55-0.12,0.81,0c0.56,0.3,1.03,0.75,1.34,1.31c0.26,0.47,0.34,1.03,0.23,1.55
				c-0.15,0.61-0.45,1.17-0.87,1.64c-0.55,0.62-1.21,1.14-1.94,1.54c-0.88,0.51-1.83,0.89-2.81,1.15c-0.94,0.26-1.92,0.4-2.9,0.42
				c-0.93,0.02-1.87-0.07-2.77-0.28c-0.84-0.17-1.66-0.46-2.42-0.87c-0.55-0.27-1.1-0.58-1.77-0.92c-0.67-0.34-1.13-0.67-1.64-1.01
				c-0.6-0.35-1.12-0.82-1.52-1.38c-0.32-0.47-0.48-1.04-0.46-1.61c0.06-0.62,0.31-1.2,0.71-1.68c0.56-0.67,1.24-1.22,2.01-1.63
				c0.84-0.48,1.74-0.86,2.67-1.11c0.92-0.26,1.87-0.43,2.83-0.51c0.9-0.06,1.81-0.01,2.7,0.14c0.79,0.12,1.56,0.38,2.26,0.76
				c0.1,0.04,0.17,0.14,0.18,0.25c0,0.11-0.07,0.2-0.18,0.23l-2.46,1.43c-0.16,0.11-0.35,0.17-0.55,0.18
				c-0.21-0.03-0.42-0.07-0.62-0.12c-0.23-0.08-0.47-0.13-0.71-0.16c-0.29-0.04-0.59-0.04-0.88,0c-0.35,0.03-0.7,0.09-1.04,0.18
				c-0.42,0.13-0.82,0.3-1.2,0.53c-0.34,0.17-0.65,0.42-0.88,0.72c-0.16,0.19-0.24,0.43-0.25,0.67c0.02,0.24,0.12,0.47,0.28,0.65
				C831.3,534.89,831.52,535.06,831.75,535.21z"/>
			<path class="st2" d="M843.63,522.59c0.24-0.14,0.5-0.21,0.78-0.21c0.23,0.01,0.46,0.04,0.69,0.09l15.9,4.45l0.35,0.12
				c0.12,0,0.18,0.14,0.18,0.25s0,0.16-0.18,0.23l-2.35,1.36c-0.21,0.13-0.46,0.2-0.71,0.21c-0.16,0.02-0.33,0.02-0.49,0l-2.08-0.6
				l-5,2.88l1.04,1.2c0.07,0.08,0.11,0.19,0.11,0.3c0,0.12-0.12,0.25-0.37,0.39l-2.37,1.38c-0.26,0.12-0.55,0.12-0.81,0
				c-0.09-0.05-0.16-0.12-0.21-0.21l-7.72-9.19c-0.09-0.11-0.14-0.25-0.14-0.39c0-0.16,0.11-0.3,0.35-0.46L843.63,522.59z
				 M848.78,529.08l3.04-1.77l-6.03-1.77L848.78,529.08z"/>
			<path class="st2" d="M855.75,515.6c0.79-0.45,1.61-0.82,2.47-1.11c0.79-0.27,1.61-0.44,2.44-0.51c0.81-0.06,1.61,0,2.4,0.18
				c0.79,0.18,1.56,0.47,2.26,0.88c0.77,0.37,1.39,1,1.77,1.77c0.25,0.59,0.16,1.26-0.23,1.77l6.78,1.24
				c0.09,0.01,0.18,0.04,0.27,0.09c0.12,0,0.18,0.14,0.18,0.25s0,0.16-0.18,0.23l-2.54,1.47c-0.21,0.15-0.45,0.22-0.71,0.21h-0.58
				l-6.1-1.11l-1.77,0.99l4.01,2.31c0.14,0,0.21,0.18,0.21,0.3c-0.01,0.13-0.09,0.24-0.21,0.28l-2.46,1.41
				c-0.15,0.09-0.32,0.13-0.49,0.12c-0.18,0.01-0.36-0.03-0.51-0.12l-12.12-6.98c-0.12-0.05-0.19-0.17-0.19-0.3
				c0.01-0.13,0.08-0.24,0.19-0.3L855.75,515.6z M859.28,520.1l2.14-1.25c0.42-0.2,0.77-0.52,1.01-0.92c0.14-0.32,0-0.64-0.57-0.94
				c-0.48-0.29-1.05-0.4-1.61-0.32c-0.57,0.08-1.11,0.27-1.61,0.57l-2.12,1.24L859.28,520.1z"/>
			<path class="st2" d="M872.71,505.81c0.32-0.16,0.7-0.16,1.02,0l1.98,1.15c0.12,0.05,0.2,0.16,0.21,0.28c0,0.12,0,0.21-0.21,0.3
				l-3.3,1.91l9.63,5.55c0.12,0.05,0.19,0.17,0.19,0.3c0,0.12-0.08,0.23-0.19,0.28l-2.46,1.43c-0.33,0.14-0.7,0.14-1.02,0
				l-9.61-5.57l-3.3,1.91c-0.15,0.08-0.32,0.12-0.49,0.12c-0.18,0-0.35-0.04-0.51-0.12l-2-1.15c-0.11-0.06-0.19-0.17-0.19-0.3
				c0.01-0.12,0.08-0.23,0.19-0.28L872.71,505.81z"/>
			<path class="st2" d="M734.2,582.45c-4.75,2.74-4.75,7.17,0,9.89c5.39,2.74,11.77,2.74,17.16,0c4.74-2.72,4.74-7.16,0-9.89
				C745.97,579.72,739.59,579.72,734.2,582.45z M748.34,585.69l-3.18,1.77l3.18,1.77c0.34,0.1,0.53,0.45,0.43,0.79
				c-0.06,0.21-0.22,0.37-0.43,0.43c-0.66,0.34-1.44,0.34-2.1,0l-3.2-1.77l-3.18,1.77c-0.66,0.34-1.44,0.34-2.1,0
				c-0.34-0.1-0.53-0.45-0.43-0.79c0.06-0.21,0.22-0.37,0.43-0.43l3.18-1.77l-3.18-1.77c-0.34-0.1-0.53-0.45-0.43-0.79
				c0.06-0.21,0.22-0.37,0.43-0.43c0.66-0.34,1.44-0.34,2.1,0l3.18,1.77l3.2-1.77c0.66-0.34,1.44-0.34,2.1,0
				c0.35,0.04,0.6,0.36,0.57,0.71s-0.36,0.6-0.71,0.57L748.34,585.69z"/>
		</g>
	</g>
</g>
<g id="freepik--Cart--inject-33">
	<g id="freepik--cart--inject-33">
		<path class="st3" d="M766.36,466.95c-0.4-8.37-4.77-16.06-11.77-20.67c-3.43-2.01-6.52-2.1-8.71-0.67l0,0l-8.04,4.52l16.87,29.1
			l7.97-4.52l0,0C764.91,473.49,766.32,470.82,766.36,466.95z"/>
		<path class="st2" d="M746.23,451.01c6.99,4.63,11.36,12.3,11.77,20.67c0,7.6-5.41,10.6-11.94,6.8
			c-6.99-4.63-11.36-12.3-11.77-20.67C734.34,450.22,739.7,447.18,746.23,451.01z"/>
		<path class="st5" d="M742.13,462.41c0-2.97,1.77-4.33,4.05-3.02c2.48,1.79,3.96,4.66,3.98,7.72c0,2.97-1.77,4.31-4.05,3.02
			C743.64,468.33,742.17,465.47,742.13,462.41z"/>
		<path class="st7" d="M758,471.69c-0.04-2.73-0.59-5.43-1.63-7.95l-20.41-11.86c-1.15,1.76-1.73,3.83-1.66,5.94
			c0,0.09,0,0.18,0,0.28l23.68,13.75C757.98,471.85,758,471.74,758,471.69z"/>
		<path class="st2" d="M681.76,531.6c-4.32,0.33-8.65-0.45-12.58-2.26l-111.31-64.16c-6.73-3.39-14.29-12.19-14.77-20.53
			l-3.41-79.35l6.2-0.35l3.43,79.37c0.32,5.65,6.24,12.76,11.33,15.3l111.4,64.17c6.07,2.53,12.96,2.13,18.69-1.08l74.21-42.79
			c1.77-1.17,2.81-2.56,2.74-3.75c-0.07-1.18-1.18-2.35-3.07-3.3l-119.25-69.23c-6.71-3.37-14.24-12.19-14.72-20.53l-1.66-44.01
			l6.2-0.34l1.66,44c0.32,5.69,6.24,12.77,11.31,15.32l119.25,69.24c3.98,2,6.27,5.02,6.48,8.5c0.21,3.48-1.77,6.86-5.53,9.29
			l-74.21,42.79C690.4,530.17,686.13,531.45,681.76,531.6z"/>
		<path class="st3" d="M661.76,529.82c-0.4-8.37-4.77-16.06-11.77-20.67c-3.43-2.01-6.52-2.12-8.69-0.67l0,0l-8.06,4.52l16.87,29.1
			l7.97-4.52l0,0C660.27,536.36,661.76,533.69,661.76,529.82z"/>
		<path class="st2" d="M641.6,513.88c7,4.62,11.38,12.31,11.77,20.69c0,7.58-5.39,10.6-11.94,6.78
			c-6.99-4.62-11.35-12.3-11.75-20.67C629.72,513.1,635.06,510.01,641.6,513.88z"/>
		<path class="st5" d="M637.5,525.28c0-2.97,1.77-4.33,4.05-3.02c2.49,1.79,3.96,4.66,3.98,7.72c0,2.95-1.77,4.31-4.03,3
			C639.01,531.19,637.53,528.33,637.5,525.28z"/>
		<path class="st3" d="M579.46,482.38c-0.38-8.37-4.73-16.06-11.71-20.69c-3.45-2.01-6.52-2.12-8.71-0.69l0,0l-8.06,4.51
			l16.82,29.14l7.99-4.52l0,0C578.01,488.91,579.42,486.25,579.46,482.38z"/>
		<path class="st2" d="M559.37,466.42c6.97,4.62,11.32,12.27,11.73,20.62c0,7.58-5.42,10.6-11.96,6.77
			c-6.98-4.63-11.34-12.32-11.71-20.69C547.47,465.59,552.83,462.57,559.37,466.42z"/>
		<path class="st5" d="M555.25,477.78c0-2.95,1.77-4.31,4.05-3c2.48,1.8,3.95,4.66,3.98,7.72c0,2.97-1.77,4.31-4.06,3.02
			C556.74,483.71,555.27,480.84,555.25,477.78z"/>
		<path class="st2" d="M526.38,269.15c-2.16-8.27,0.99-17.02,7.93-22.02l74.05-41.86c6.73-4.42,14.14-1.34,16.47,6.34l5.14,16.66
			l-5.09,2.97l-5.53-16.84c-0.75-3-3.79-4.83-6.79-4.08c-0.74,0.19-1.44,0.52-2.04,0.98l-72.11,40.73
			c-4.42,3.24-6.46,8.81-5.18,14.14l4.35,15.99l-6.06,3.53L526.38,269.15z"/>
		<polygon class="st4" points="640.87,349.44 541.4,406.88 686.78,490.81 786.25,433.36 		"/>
		<polygon class="st9" points="640.87,349.44 541.4,406.88 686.78,490.81 786.25,433.36 		"/>
		<polygon class="st4" points="531.52,285.81 629.97,228.3 640.87,349.44 541.4,406.88 		"/>
		<polygon class="st10" points="531.52,285.81 629.97,228.3 640.87,349.44 541.4,406.88 		"/>
		<path class="st4" d="M629.95,228.3l10.9,121.14l145.38,83.93l22.97-101.61L629.95,228.3z M680.79,344.77
			c-4.37,1.35-9.01-1.06-10.42-5.41l-24.03-62.35c-2.05-3.82-0.62-8.57,3.19-10.62c3.82-2.05,8.57-0.62,10.62,3.19
			c0.32,0.6,0.57,1.24,0.72,1.9l24.03,62.35c1.84,4.15,0.02,9.02-4.1,10.94H680.79z M726.18,366.12c-4.37,1.38-9.02-1.03-10.42-5.39
			l-23.96-62.35c-2.05-3.82-0.62-8.57,3.19-10.63c3.82-2.05,8.57-0.62,10.63,3.19c0.31,0.58,0.55,1.2,0.71,1.83l24.03,62.35
			c1.88,4.18,0.02,9.1-4.15,10.99H726.18z M771.57,387.48c-4.34,1.38-8.99-0.98-10.42-5.3l-24.01-62.35
			c-2.01-3.83-0.54-8.56,3.28-10.57s8.56-0.54,10.57,3.28c0.28,0.54,0.5,1.1,0.65,1.69l24.03,62.35c1.83,4.14,0.02,8.98-4.08,10.9
			H771.57z"/>
		<path class="st11" d="M629.95,228.3l10.9,121.14l145.38,83.93l22.97-101.61L629.95,228.3z M680.79,344.77
			c-4.37,1.35-9.01-1.06-10.42-5.41l-24.03-62.35c-2.05-3.82-0.62-8.57,3.19-10.62c3.82-2.05,8.57-0.62,10.62,3.19
			c0.32,0.6,0.57,1.24,0.72,1.9l24.03,62.35c1.84,4.15,0.02,9.02-4.1,10.94H680.79z M726.18,366.12c-4.37,1.38-9.02-1.03-10.42-5.39
			l-23.96-62.35c-2.05-3.82-0.62-8.57,3.19-10.63c3.82-2.05,8.57-0.62,10.63,3.19c0.31,0.58,0.55,1.2,0.71,1.83l24.03,62.35
			c1.88,4.18,0.02,9.1-4.15,10.99H726.18z M771.57,387.48c-4.34,1.38-8.99-0.98-10.42-5.3l-24.01-62.35
			c-2.01-3.83-0.54-8.56,3.28-10.57s8.56-0.54,10.57,3.28c0.28,0.54,0.5,1.1,0.65,1.69l24.03,62.35c1.83,4.14,0.02,8.98-4.08,10.9
			H771.57z"/>
		<path class="st4" d="M531.52,285.81l9.88,121.07l145.38,83.93l22.97-101.6L531.52,285.81z M588.91,404.99
			c-4.37,1.35-9.01-1.06-10.42-5.41l-24.01-62.35c-2.02-3.82-0.56-8.56,3.26-10.58c3.82-2.02,8.56-0.56,10.58,3.26
			c0.29,0.55,0.52,1.13,0.67,1.74l24.03,62.34C594.9,398.15,593.07,403.07,588.91,404.99L588.91,404.99z M634.3,426.33
			c-4.37,1.38-9.02-1.03-10.42-5.39l-23.96-62.35c-2.05-3.82-0.62-8.57,3.19-10.63c3.82-2.05,8.57-0.62,10.63,3.19
			c0.31,0.58,0.55,1.2,0.71,1.83l24.01,62.35C640.33,419.52,638.48,424.44,634.3,426.33L634.3,426.33z M679.69,447.69
			c-4.36,1.38-9.01-1.03-10.41-5.39l-24.03-62.35c-2.05-3.82-0.62-8.57,3.19-10.63c3.82-2.05,8.57-0.62,10.63,3.19
			c0.31,0.58,0.55,1.2,0.71,1.83l24.01,62.35C685.68,440.87,683.85,445.78,679.69,447.69L679.69,447.69z"/>
		<g class="st12">
			<path d="M531.52,285.81l9.88,121.07l145.38,83.93l22.97-101.6L531.52,285.81z M588.91,404.99c-4.37,1.35-9.01-1.06-10.42-5.41
				l-24.01-62.35c-2.02-3.82-0.56-8.56,3.26-10.58c3.82-2.02,8.56-0.56,10.58,3.26c0.29,0.55,0.52,1.13,0.67,1.74l24.03,62.34
				C594.9,398.15,593.07,403.07,588.91,404.99L588.91,404.99z M634.3,426.33c-4.37,1.38-9.02-1.03-10.42-5.39l-23.96-62.35
				c-2.05-3.82-0.62-8.57,3.19-10.63c3.82-2.05,8.57-0.62,10.63,3.19c0.31,0.58,0.55,1.2,0.71,1.83l24.01,62.35
				C640.33,419.52,638.48,424.44,634.3,426.33L634.3,426.33z M679.69,447.69c-4.36,1.38-9.01-1.03-10.41-5.39l-24.03-62.35
				c-2.05-3.82-0.62-8.57,3.19-10.63c3.82-2.05,8.57-0.62,10.63,3.19c0.31,0.58,0.55,1.2,0.71,1.83l24.01,62.35
				C685.68,440.87,683.85,445.78,679.69,447.69L679.69,447.69z"/>
		</g>
		<polygon class="st4" points="709.73,389.21 809.21,331.77 786.25,433.38 686.78,490.81 		"/>
		<polygon class="st13" points="709.73,389.21 809.21,331.77 786.25,433.38 686.78,490.81 		"/>
	</g>
</g>
<g id="freepik--Arrow--inject-33">
	<g id="freepik--arrow--inject-33">
		<polygon class="st3" points="745.56,169.85 734.08,176.58 734.11,141.79 727.15,137.78 695.63,155.98 695.58,198.9 677.2,209.3 
			718.33,235.98 752.52,173.86 		"/>
		<polygon class="st2" points="702.59,159.99 702.54,202.91 684.16,213.33 718.33,235.98 752.52,173.86 734.06,184.71 
			734.11,141.79 		"/>
		<polygon class="st5" points="695.63,155.98 702.59,159.99 702.54,202.91 695.58,198.9 		"/>
	</g>
</g>
<g id="freepik--Bag--inject-33">
	<g id="freepik--bag--inject-33">
		<polygon class="st4" points="553.22,196.86 652.84,139.35 644.53,19.52 553.22,72.24 		"/>
		<polygon class="st14" points="553.22,196.86 652.84,139.35 644.53,19.52 553.22,72.24 		"/>
		<polygon class="st4" points="553.22,72.24 553.22,62.65 528.3,57.86 619.62,5.14 627.92,19.52 644.53,19.52 		"/>
		<polygon class="st15" points="553.22,72.24 553.22,62.65 528.3,57.86 619.62,5.14 627.92,19.52 644.53,19.52 		"/>
		<polygon class="st4" points="619.62,5.14 619.62,33.9 627.92,29.11 627.92,19.52 		"/>
		<polygon class="st16" points="619.62,5.14 619.62,33.9 627.92,29.11 627.92,19.52 		"/>
		<polygon class="st4" points="644.53,19.52 627.92,19.52 627.92,29.11 		"/>
		<polygon class="st17" points="644.53,19.52 627.92,19.52 627.92,29.11 		"/>
		<polygon class="st4" points="528.3,57.86 520,177.69 553.22,196.86 553.22,72.24 553.22,62.65 		"/>
		<polygon class="st16" points="528.3,57.86 520,177.69 553.22,196.86 553.22,72.24 553.22,62.65 		"/>
		<polygon class="st4" points="553.22,62.65 536.61,187.27 553.22,196.86 		"/>
		<polygon class="st17" points="553.22,62.65 536.61,187.27 553.22,196.86 		"/>
		<polygon class="st4" points="553.22,196.86 537.99,176.88 520,177.69 		"/>
		<path class="st3" d="M555.23,56.59c0,1.63,1.13,2.3,2.54,1.48c1.51-0.99,2.46-2.63,2.56-4.43c0-1.63-1.15-2.3-2.56-1.48
			C556.27,53.14,555.33,54.79,555.23,56.59z"/>
		<path class="st3" d="M589.21,37.42c0,1.63,1.15,2.3,2.56,1.47c1.51-0.98,2.46-2.62,2.56-4.42c0-1.63-1.15-2.3-2.56-1.48
			C590.26,33.97,589.31,35.62,589.21,37.42z"/>
		<path class="st3" d="M557.78,54.73c-0.46-0.01-0.84-0.38-0.85-0.85V32.95c0-9.13,7.81-21.06,17.42-26.61
			c5.3-3.09,10.42-3.69,13.94-1.66c2.81,1.61,4.35,4.75,4.35,8.83v21.2c-0.01,0.47-0.39,0.85-0.87,0.85c-0.47,0-0.85-0.38-0.85-0.85
			v-21.2c0-3.53-1.22-6.08-3.53-7.39c-2.97-1.77-7.44-1.11-12.23,1.66c-9.13,5.3-16.57,16.54-16.57,25.13v20.97
			C558.58,54.34,558.23,54.71,557.78,54.73z"/>
		<path class="st2" d="M580.48,70.97c0,1.63,1.15,2.28,2.56,1.47c1.51-0.98,2.46-2.62,2.56-4.42c0-1.63-1.15-2.3-2.56-1.48
			C581.53,67.52,580.58,69.17,580.48,70.97z"/>
		<path class="st2" d="M614.51,51.8c0,1.63,1.15,2.28,2.56,1.47c1.51-0.98,2.46-2.62,2.56-4.42c0-1.64-1.15-2.3-2.56-1.48
			C615.56,48.35,614.61,50,614.51,51.8z"/>
		<path class="st2" d="M583.08,69.12c-0.45-0.01-0.82-0.38-0.83-0.83V47.31c0-9.12,7.81-21.04,17.42-26.5
			c5.3-3.09,10.42-3.69,13.94-1.66c2.79,1.61,4.33,4.75,4.33,8.83v21.2c0.01,0.47-0.36,0.86-0.83,0.87c-0.01,0-0.01,0-0.02,0
			c-0.48,0-0.87-0.39-0.87-0.87l0,0v-21.2c0-3.53-1.2-6.06-3.53-7.37c-2.97-1.77-7.42-1.11-12.23,1.66
			c-9.13,5.3-16.56,16.54-16.56,25.11v20.9C583.89,68.74,583.53,69.1,583.08,69.12z"/>
	</g>
</g>
<g id="freepik--credit-card--inject-33">
	<g id="freepik--Card--inject-33">
		<path class="st4" d="M506.5,702.94l115.61-66.75c1.86-0.87,3.07-2.72,3.13-4.77c0-1.77,0-8.2,0-8.2s-3.09,4.42-3.15,4.45
			l-87.55,50.53l-28.08,16.2c-4.78,2.44-10.44,2.44-15.21,0l-175.1-101.08c0,0-2.97-3.53-3.04-3.53s-0.16,6.04,0,8.06
			c0.26,1.78,1.41,3.3,3.04,4.05l175.12,101.07C496.05,705.4,501.72,705.39,506.5,702.94z"/>
		<path class="st7" d="M506.5,702.94l115.61-66.75c1.86-0.87,3.07-2.72,3.13-4.77c0-1.77,0-8.2,0-8.2s-3.09,4.42-3.15,4.45
			l-87.55,50.53l-28.08,16.2c-4.78,2.44-10.44,2.44-15.21,0l-175.1-101.08c0,0-2.97-3.53-3.04-3.53s-0.16,6.04,0,8.06
			c0.26,1.78,1.41,3.3,3.04,4.05l175.12,101.07C496.05,705.4,501.72,705.39,506.5,702.94z"/>
		<path class="st3" d="M588.79,646.89L588.79,646.89v8.53l33.32-19.24c1.86-0.87,3.07-2.72,3.13-4.77c0-1.77,0-8.2,0-8.2
			s-3.09,4.42-3.15,4.45L588.79,646.89z"/>
		<path class="st4" d="M622.13,627.67c0.06-0.03,0.12-0.08,0.16-0.14c4.03-2.39,3.96-6.27-0.16-8.66l-175.14-101.1
			c-4.78-2.42-10.43-2.42-15.21,0l-115.63,66.75c-4.17,2.4-4.19,6.27-0.16,8.68l0.16,0.12l175.1,101.08
			c4.78,2.44,10.44,2.44,15.21,0l28.08-16.2L622.13,627.67z"/>
		<path class="st2" d="M588.79,646.89l33.34-19.22c0.06-0.03,0.12-0.08,0.16-0.14c4.03-2.39,3.96-6.27-0.16-8.66l-175.14-101.1
			c-4.78-2.42-10.43-2.42-15.21,0l-33.29,19.24L588.79,646.89z"/>
		<path class="st7" d="M313.11,589.82c0,0-0.16,6.04,0,8.06c0.27,1.76,1.42,3.27,3.04,4.01l175.12,101.07
			c2.95,1.58,6.33,2.19,9.65,1.77v-8.53c-3.33,0.41-6.7-0.21-9.66-1.77l-175.1-101.1C316.15,593.32,313.18,589.86,313.11,589.82z"/>
		<path class="st18" d="M369.8,578.37l-3.39-1.96c-0.12-0.06-0.22-0.17-0.25-0.3c0-0.12,0-0.21,0.18-0.3
			c0.16-0.08,0.34-0.11,0.51-0.11c0.19,0.01,0.37,0.06,0.53,0.14l1.13,0.65l4.89-2.88c0.23-0.1,0.37-0.33,0.35-0.58
			c0-0.25-0.19-0.44-0.49-0.64l0,0c-0.13-0.06-0.23-0.18-0.27-0.32c0-0.12,0.08-0.23,0.19-0.28c0.19-0.06,0.39-0.04,0.57,0.05
			c0.19,0,0.37,0.05,0.53,0.14l0,0c0.52,0.23,0.91,0.7,1.02,1.25c0.05,0.51-0.24,0.99-0.71,1.18l-4.96,2.72l1.13,0.65
			c0.16,0.09,0.25,0.19,0.25,0.32s0,0.21-0.18,0.3c-0.17,0.05-0.35,0.05-0.51,0C370.15,578.46,369.96,578.44,369.8,578.37z"/>
		<path class="st18" d="M380.06,580.92l-2.26-1.31c-0.33-0.18-0.7-0.28-1.08-0.28c-0.35-0.03-0.71,0.05-1.02,0.21l-0.72,0.41
			c0,0-0.11,0.09,0,0.16c0.11,0.07,0,0.11,0.12,0.16l4.81,2.77c0.12,0.06,0.22,0.17,0.25,0.3c0.02,0.13-0.06,0.25-0.18,0.3
			c-0.16,0.08-0.33,0.12-0.51,0.11c-0.19-0.01-0.38-0.07-0.55-0.16l-5.64-3.25c-0.13-0.06-0.23-0.18-0.27-0.32
			c-0.01-0.12,0.06-0.24,0.18-0.28l1.47-0.85c0.63-0.34,1.34-0.48,2.05-0.42c0.76,0.02,1.51,0.22,2.17,0.58l2.24,1.31
			c0.34,0.18,0.71,0.29,1.1,0.3c0.36,0.03,0.71-0.04,1.02-0.21l0.97-0.55c0.24-0.1,0.39-0.34,0.37-0.6
			c-0.08-0.28-0.27-0.51-0.53-0.64l-2.24-1.29c-0.34-0.19-0.71-0.29-1.1-0.3c-0.35-0.03-0.71,0.05-1.02,0.21
			c-0.15,0.08-0.32,0.11-0.49,0.11c-0.19,0-0.38-0.06-0.55-0.16c-0.13-0.05-0.23-0.17-0.27-0.3c-0.01-0.13,0.07-0.25,0.19-0.3
			c0.62-0.34,1.33-0.49,2.03-0.42c0.76,0.01,1.51,0.22,2.17,0.6l2.26,1.31c0.52,0.23,0.91,0.7,1.02,1.25
			c0.04,0.5-0.26,0.98-0.72,1.17l-0.97,0.57c-0.63,0.34-1.34,0.48-2.05,0.42C381.53,581.51,380.75,581.31,380.06,580.92z"/>
		<path class="st18" d="M390.86,587.76l-0.49,0.28c-0.63,0.32-1.33,0.46-2.03,0.41c-0.78-0.04-1.54-0.28-2.21-0.69l-2.26-1.31
			c-0.52-0.23-0.91-0.7-1.02-1.25c-0.03-0.51,0.26-0.98,0.72-1.18c0.16-0.08,0.34-0.11,0.51-0.09c0.19,0,0.38,0.05,0.55,0.14
			c0.13,0.06,0.22,0.18,0.25,0.32c0.02,0.12-0.06,0.24-0.18,0.28c-0.24,0.1-0.38,0.34-0.35,0.6c0.06,0.28,0.25,0.51,0.51,0.62
			l2.24,1.31c0.34,0.19,0.71,0.29,1.1,0.3c0.35,0.03,0.7-0.04,1.01-0.21l0.49-0.28c0.23-0.1,0.37-0.33,0.35-0.58
			c-0.05-0.29-0.24-0.53-0.51-0.64l-0.55-0.32c-0.16-0.11-0.25-0.19-0.27-0.32s0-0.21,0.18-0.3c0.33-0.18,0.73-0.18,1.06,0
			l0.57,0.32c0.33,0.19,0.7,0.29,1.08,0.3c0.36,0.03,0.71-0.04,1.02-0.21l0.49-0.28c0.23-0.1,0.37-0.33,0.35-0.58
			c-0.06-0.28-0.25-0.52-0.51-0.64l-2.26-1.29c-0.33-0.19-0.7-0.29-1.08-0.3c-0.35-0.03-0.71,0.05-1.02,0.21
			c-0.16,0.08-0.34,0.11-0.51,0.09c-0.19,0-0.38-0.05-0.55-0.14c-0.12-0.06-0.21-0.17-0.25-0.3c-0.01-0.13,0.06-0.25,0.18-0.3
			c0.63-0.34,1.34-0.48,2.05-0.42c0.76,0.02,1.51,0.23,2.17,0.6l2.24,1.29c0.52,0.23,0.91,0.7,1.02,1.25
			c0.05,0.51-0.25,0.99-0.72,1.18l-0.48,0.28c-0.32,0.18-0.67,0.3-1.02,0.35c-0.41,0.04-0.81,0.04-1.22,0
			c0.09,0.23,0.09,0.48,0,0.71C391.38,587.28,391.15,587.56,390.86,587.76z"/>
		<path class="st18" d="M397.41,594.15c-0.19,0-0.38-0.05-0.55-0.14c-0.13-0.06-0.22-0.18-0.25-0.32c-0.01-0.12,0.06-0.24,0.18-0.28
			l2.72-1.57c-0.49-0.09-0.96-0.25-1.4-0.49l-2.26-1.31c-0.52-0.23-0.91-0.7-1.02-1.25c-0.04-0.5,0.26-0.98,0.72-1.17l2.44-1.41
			c0.16-0.08,0.34-0.11,0.51-0.11c0.19,0,0.38,0.05,0.55,0.14c0.13,0.06,0.22,0.18,0.25,0.32c0,0.12,0,0.21-0.18,0.3l-2.44,1.41
			c-0.23,0.1-0.38,0.33-0.37,0.58c0.07,0.27,0.26,0.5,0.51,0.62l2.26,1.31c0.33,0.18,0.7,0.29,1.08,0.3
			c0.36,0.03,0.71-0.04,1.02-0.21l2.44-1.41c0.16-0.07,0.34-0.11,0.51-0.11c0.19,0.01,0.38,0.06,0.55,0.14
			c0.13,0.06,0.22,0.18,0.25,0.32c0.02,0.13-0.06,0.25-0.18,0.3l-6.84,3.96C397.77,594.14,397.59,594.17,397.41,594.15z"/>
		<path class="st18" d="M414.97,598.53c0,0,0,0,0,0.16c0.02,0.07,0.07,0.12,0.12,0.16l3.11,1.77c0.52,0.23,0.91,0.7,1.02,1.25
			c0.04,0.51-0.25,0.99-0.72,1.18l-0.97,0.57c-0.63,0.32-1.34,0.46-2.05,0.41c-0.75-0.02-1.49-0.22-2.16-0.58l-2.26-1.31
			c-0.52-0.23-0.91-0.7-1.02-1.25c-0.04-0.51,0.25-0.99,0.72-1.18c0.16-0.08,0.34-0.11,0.51-0.11c0.19,0.02,0.38,0.07,0.55,0.16
			c0.13,0.06,0.22,0.18,0.25,0.32c0.01,0.12-0.06,0.24-0.18,0.28c-0.24,0.09-0.4,0.34-0.37,0.6c0.07,0.27,0.26,0.5,0.51,0.62
			l2.26,1.31c0.33,0.18,0.7,0.28,1.08,0.28c0.35,0.04,0.71-0.03,1.02-0.19l0.97-0.57c0.24-0.1,0.39-0.34,0.37-0.6
			c-0.07-0.27-0.26-0.5-0.51-0.62l-3.39-1.96c-0.26-0.12-0.44-0.35-0.51-0.62c-0.02-0.26,0.13-0.5,0.37-0.58l2.44-1.41
			c0.15-0.09,0.33-0.13,0.51-0.11c0.19,0,0.37,0.05,0.53,0.14l5.65,3.25c0.13,0.06,0.22,0.18,0.25,0.32c0,0.12,0,0.21-0.18,0.3
			c-0.16,0.08-0.34,0.11-0.51,0.11c-0.19-0.01-0.37-0.07-0.53-0.16l-4.81-2.77h-0.27c-0.09-0.03-0.18-0.03-0.27,0L414.97,598.53z"/>
		<path class="st18" d="M424.89,604.54l2.26,1.31c0.52,0.23,0.91,0.7,1.02,1.25c0.04,0.51-0.25,0.99-0.72,1.18l-0.97,0.57
			c-0.63,0.32-1.34,0.47-2.05,0.41c-0.76-0.02-1.51-0.23-2.17-0.6l-2.24-1.29c-0.52-0.23-0.91-0.7-1.02-1.25
			c-0.05-0.51,0.24-0.99,0.71-1.18l3.92-2.26c0.63-0.32,1.33-0.46,2.03-0.41c0.76,0.02,1.51,0.22,2.17,0.58l2.26,1.31
			c0.52,0.23,0.91,0.7,1.02,1.25c0.04,0.51-0.25,0.99-0.72,1.18c-0.15,0.09-0.33,0.13-0.51,0.11c-0.19-0.01-0.37-0.06-0.53-0.16
			c-0.13-0.05-0.23-0.16-0.27-0.3c0-0.12,0-0.21,0.18-0.3c0.18-0.09,0.41-0.35,0.37-0.58c-0.06-0.29-0.26-0.52-0.53-0.64l-2.24-1.31
			c-0.34-0.18-0.71-0.28-1.1-0.28c-0.35-0.03-0.69,0.04-1.01,0.19l-1.25,0.72C423.98,604.14,424.45,604.3,424.89,604.54z
			 M420.82,605.58c-0.23,0.1-0.37,0.33-0.35,0.58c0.06,0.28,0.25,0.52,0.51,0.64l2.26,1.31c0.33,0.18,0.7,0.29,1.08,0.3
			c0.36,0.03,0.71-0.04,1.02-0.21l0.99-0.57c0.23-0.1,0.37-0.33,0.35-0.58c-0.06-0.29-0.26-0.52-0.53-0.64l-2.24-1.31
			c-0.34-0.19-0.71-0.29-1.1-0.3c-0.35-0.03-0.7,0.04-1.01,0.21L420.82,605.58z"/>
		<path class="st18" d="M437.91,612.33l-6.7,0.94h-0.92h-0.14c-0.13-0.07-0.22-0.17-0.28-0.3c0-0.11,0.07-0.21,0.21-0.32
			c0.25-0.08,0.51-0.11,0.78-0.11c2.14-0.3,4.21-0.62,6.2-0.94c0.2-0.02,0.4-0.07,0.58-0.16l0.48-0.18l0.16-0.09
			c0.24-0.1,0.38-0.34,0.35-0.6c-0.06-0.28-0.25-0.51-0.51-0.62l-1.13-0.65l-0.55-0.32l-2.26-1.31c-0.13-0.06-0.23-0.18-0.27-0.32
			c-0.01-0.12,0.06-0.24,0.18-0.28c0.15-0.09,0.33-0.13,0.51-0.11c0.19,0,0.38,0.05,0.55,0.14l2.26,1.31l0.57,0.32l1.13,0.65
			c0.52,0.23,0.89,0.7,1.01,1.25c0.05,0.51-0.24,0.99-0.71,1.18c-0.26,0.13-0.52,0.24-0.8,0.34
			C438.39,612.25,438.15,612.3,437.91,612.33z"/>
		<path class="st18" d="M445.01,618.98l-0.49,0.28c-0.62,0.34-1.33,0.49-2.03,0.42c-0.76-0.01-1.51-0.22-2.17-0.6l-2.26-1.29
			c-0.52-0.23-0.91-0.7-1.02-1.25c-0.03-0.51,0.26-0.98,0.72-1.18l0.49-0.28c0.31-0.17,0.65-0.29,1.01-0.35
			c0.4-0.05,0.81-0.05,1.22,0c-0.08-0.23-0.08-0.48,0-0.71c0.16-0.24,0.37-0.44,0.62-0.58l0.48-0.28c0.63-0.32,1.34-0.46,2.05-0.41
			c0.76,0.02,1.5,0.22,2.17,0.58l2.24,1.31c0.52,0.23,0.91,0.7,1.02,1.25c0.05,0.51-0.24,0.99-0.71,1.18l-0.49,0.28
			c-0.32,0.17-0.67,0.28-1.02,0.34c-0.4,0.05-0.81,0.05-1.22,0c0.09,0.23,0.09,0.48,0,0.71
			C445.47,618.64,445.26,618.84,445.01,618.98z M447.31,616.36c0.24-0.1,0.38-0.34,0.35-0.6c-0.06-0.28-0.25-0.51-0.51-0.62
			l-2.26-1.31c-0.33-0.19-0.7-0.29-1.08-0.3c-0.35-0.01-0.7,0.06-1.02,0.21l-0.48,0.28c-0.24,0.09-0.4,0.34-0.37,0.6
			c0.07,0.27,0.26,0.5,0.51,0.62l2.26,1.31c0.33,0.18,0.7,0.28,1.08,0.28c0.35,0.03,0.71-0.04,1.02-0.19L447.31,616.36z
			 M443.88,618.32c0.24-0.09,0.39-0.33,0.35-0.58c-0.06-0.28-0.25-0.51-0.51-0.62l-2.24-1.31c-0.34-0.19-0.71-0.29-1.1-0.3
			c-0.35-0.03-0.7,0.04-1.01,0.21l-0.49,0.28c-0.23,0.1-0.37,0.33-0.35,0.58c0.05,0.29,0.24,0.53,0.51,0.64l2.24,1.29
			c0.33,0.19,0.71,0.3,1.1,0.3c0.35,0.03,0.7-0.04,1.01-0.21L443.88,618.32z"/>
		<path class="st18" d="M458.37,629.51l-2.26-1.31c-0.52-0.22-0.9-0.68-1.02-1.24c-0.05-0.51,0.25-0.99,0.72-1.18
			c0.16-0.08,0.34-0.11,0.51-0.11c0.19,0.01,0.38,0.06,0.55,0.16c0.12,0.06,0.21,0.17,0.25,0.3c0.01,0.13-0.06,0.25-0.18,0.3
			c-0.23,0.1-0.38,0.33-0.37,0.58c0.06,0.28,0.25,0.52,0.51,0.64l2.26,1.29c0.34,0.19,0.71,0.29,1.1,0.3
			c0.35,0.02,0.71-0.04,1.02-0.19l1.24-0.72c-0.5-0.09-0.97-0.26-1.41-0.51l-2.24-1.29c-0.52-0.23-0.91-0.7-1.02-1.25
			c-0.04-0.51,0.25-0.99,0.72-1.18l0.97-0.57c0.63-0.32,1.34-0.46,2.05-0.41c0.75,0.02,1.49,0.22,2.16,0.58l2.26,1.31
			c0.52,0.23,0.91,0.7,1.02,1.25c0.05,0.51-0.24,0.99-0.71,1.18l-3.92,2.24c-0.62,0.34-1.33,0.49-2.03,0.42
			C459.78,630.09,459.03,629.89,458.37,629.51z M465.44,626.79c0.24-0.1,0.38-0.34,0.35-0.6c-0.06-0.28-0.25-0.51-0.51-0.62
			l-2.26-1.31c-0.33-0.18-0.7-0.29-1.08-0.3c-0.36-0.03-0.71,0.04-1.02,0.21l-0.97,0.57c-0.23,0.1-0.38,0.33-0.37,0.58
			c0.06,0.28,0.25,0.52,0.51,0.64l2.26,1.29c0.33,0.19,0.7,0.3,1.08,0.3c0.36,0.04,0.72-0.03,1.04-0.19L465.44,626.79z"/>
		<path class="st18" d="M466.82,634.4l-3.37-1.96c-0.13-0.06-0.23-0.18-0.27-0.32c-0.02-0.12,0.06-0.24,0.18-0.28
			c0.15-0.09,0.33-0.13,0.51-0.11c0.19,0,0.38,0.05,0.55,0.14l1.13,0.65l4.88-2.83c0.23-0.1,0.38-0.33,0.37-0.58
			c-0.06-0.27-0.24-0.5-0.49-0.62l0,0c-0.13-0.05-0.23-0.16-0.27-0.3c0-0.12,0-0.21,0.18-0.3c0.16-0.08,0.34-0.11,0.51-0.11
			c0.19,0,0.39,0.05,0.55,0.16l0,0c0.52,0.22,0.9,0.68,1.02,1.24c0.04,0.51-0.25,0.99-0.72,1.18l-4.88,2.83l1.11,0.65
			c0.13,0.05,0.23,0.16,0.27,0.3c0.01,0.13-0.07,0.25-0.19,0.3c-0.15,0.08-0.32,0.12-0.49,0.11
			C467.18,634.55,466.99,634.5,466.82,634.4z"/>
		<path class="st18" d="M474.17,638.62l-2.26-1.29c-0.52-0.23-0.91-0.7-1.02-1.25c-0.04-0.51,0.25-0.99,0.72-1.18l3.9-2.26
			c0.63-0.32,1.34-0.46,2.05-0.41c0.75,0.02,1.49,0.22,2.16,0.58l2.26,1.31c0.52,0.23,0.91,0.7,1.02,1.25
			c0.04,0.51-0.25,0.99-0.72,1.18l-3.9,2.24c-0.63,0.34-1.34,0.48-2.05,0.42C475.56,639.21,474.82,639,474.17,638.62z
			 M472.88,636.77l2.26,1.31c0.21,0.1,0.43,0.18,0.65,0.23l0.76-4.96l-3.85,2.21c-0.23,0.1-0.38,0.33-0.37,0.58
			C472.4,636.42,472.6,636.66,472.88,636.77L472.88,636.77z M481,634.68l-2.26-1.31c-0.21-0.11-0.43-0.19-0.65-0.23l-0.76,4.96
			l3.82-2.21c0.24-0.1,0.39-0.34,0.37-0.6C481.45,635.03,481.26,634.8,481,634.68L481,634.68z"/>
		<path class="st18" d="M482.61,643.52l-3.39-1.96c-0.13-0.06-0.22-0.18-0.25-0.32c-0.02-0.12,0.06-0.24,0.18-0.28
			c0.15-0.09,0.33-0.13,0.51-0.11c0.19,0,0.38,0.05,0.55,0.14l1.13,0.65l4.88-2.83c0.23-0.1,0.38-0.33,0.37-0.58
			c-0.07-0.27-0.26-0.5-0.51-0.62l0,0c-0.12-0.06-0.21-0.17-0.25-0.3c0-0.12,0-0.21,0.18-0.3c0.33-0.18,0.73-0.18,1.06,0l0,0
			c0.52,0.22,0.9,0.68,1.02,1.24c0.05,0.51-0.25,0.99-0.72,1.18l-4.89,2.83l1.13,0.65c0.13,0.06,0.23,0.18,0.27,0.32
			c0,0.12-0.08,0.23-0.19,0.28c-0.16,0.09-0.33,0.12-0.51,0.11C482.97,643.63,482.78,643.59,482.61,643.52z"/>
		<path class="st18" d="M498.41,652.64l-3.39-1.96c-0.12-0.06-0.21-0.17-0.25-0.3c-0.02-0.13,0.06-0.25,0.18-0.3
			c0.16-0.08,0.34-0.11,0.51-0.11c0.19,0.01,0.38,0.06,0.55,0.14l1.13,0.65l4.88-2.83c0.23-0.1,0.38-0.33,0.37-0.58
			c-0.06-0.27-0.24-0.5-0.49-0.62l0,0c-0.16-0.11-0.25-0.19-0.27-0.32c-0.02-0.12,0-0.21,0.18-0.3c0.16-0.08,0.34-0.11,0.51-0.11
			c0.19,0.01,0.38,0.07,0.55,0.16l0,0c0.52,0.23,0.91,0.7,1.02,1.25c0.03,0.5-0.26,0.97-0.72,1.17l-4.89,2.83l1.13,0.65
			c0.13,0.06,0.23,0.18,0.27,0.32c0,0.12-0.08,0.23-0.19,0.28c-0.15,0.09-0.33,0.13-0.51,0.11
			C498.76,652.78,498.57,652.73,498.41,652.64z"/>
		<path class="st18" d="M508.67,655.18l-2.24-1.31c-0.34-0.19-0.71-0.29-1.1-0.3c-0.35-0.03-0.7,0.04-1.01,0.21l-0.74,0.42
			c-0.03,0.04-0.03,0.1,0,0.14c0.01,0.07,0.06,0.13,0.12,0.16l4.81,2.77c0.16,0,0.25,0.19,0.25,0.32c0,0.12,0,0.21-0.18,0.3
			c-0.16,0.08-0.34,0.11-0.51,0.11c-0.19-0.01-0.37-0.07-0.53-0.16l-5.65-3.25c-0.13-0.06-0.22-0.18-0.25-0.32
			c0-0.12,0-0.21,0.18-0.3l1.47-0.85c0.63-0.32,1.33-0.46,2.03-0.41c0.76,0.02,1.51,0.22,2.17,0.58l2.26,1.31
			c0.33,0.19,0.7,0.29,1.08,0.3c0.36,0.03,0.71-0.04,1.02-0.21l0.99-0.57c0.23-0.1,0.37-0.33,0.35-0.58
			c-0.06-0.28-0.25-0.52-0.51-0.64l-2.26-1.31c-0.33-0.18-0.7-0.27-1.08-0.28c-0.36-0.03-0.71,0.04-1.02,0.21
			c-0.17,0.05-0.34,0.05-0.51,0c-0.19,0-0.38-0.05-0.55-0.14c-0.13-0.06-0.22-0.18-0.25-0.32c-0.02-0.12,0.06-0.24,0.18-0.28
			c0.63-0.34,1.34-0.49,2.05-0.42c0.76,0.02,1.5,0.22,2.16,0.6l2.26,1.29c0.52,0.23,0.91,0.7,1.02,1.25
			c0.05,0.51-0.23,0.99-0.71,1.18l-0.99,0.57c-0.62,0.34-1.33,0.49-2.03,0.42C510.16,655.71,509.38,655.53,508.67,655.18z"/>
		<path class="st18" d="M514.2,661.75l-3.39-1.96c-0.12-0.06-0.21-0.17-0.25-0.3c-0.02-0.13,0.06-0.25,0.18-0.3
			c0.16-0.08,0.34-0.11,0.51-0.11c0.19,0.01,0.38,0.06,0.55,0.14l1.13,0.65l4.88-2.81c0.23-0.1,0.37-0.33,0.35-0.58
			c-0.05-0.28-0.23-0.52-0.49-0.64l0,0c-0.13-0.06-0.22-0.18-0.25-0.32c0-0.12,0-0.21,0.18-0.28c0.16-0.09,0.33-0.13,0.51-0.12
			c0.19,0.02,0.38,0.07,0.55,0.16l0,0c0.52,0.23,0.91,0.7,1.02,1.25c0.04,0.5-0.26,0.98-0.72,1.17l-4.89,2.83l1.13,0.65
			c0.13,0.06,0.23,0.18,0.27,0.32c0,0.12-0.08,0.23-0.19,0.28c-0.15,0.09-0.33,0.13-0.51,0.11
			C514.56,661.9,514.37,661.85,514.2,661.75z"/>
		<path class="st18" d="M526.24,665.89l-0.48,0.28c-0.63,0.32-1.34,0.46-2.05,0.41c-0.75-0.02-1.49-0.22-2.16-0.58l-2.26-1.31
			c-0.52-0.23-0.91-0.7-1.02-1.25c-0.04-0.51,0.25-0.99,0.72-1.18c0.15-0.08,0.32-0.11,0.49-0.09c0.19,0,0.38,0.05,0.55,0.14
			c0.13,0.06,0.23,0.18,0.27,0.32c0,0.12-0.07,0.23-0.18,0.28c-0.24,0.09-0.4,0.34-0.37,0.6c0.06,0.28,0.25,0.51,0.51,0.62
			l2.26,1.31c0.33,0.19,0.7,0.29,1.08,0.3c0.36,0.03,0.71-0.04,1.02-0.21l0.49-0.28c0.24-0.1,0.38-0.34,0.35-0.6
			c-0.06-0.28-0.25-0.51-0.51-0.62l-0.57-0.32c-0.13-0.07-0.22-0.18-0.27-0.32c0-0.13,0.08-0.25,0.19-0.3
			c0.15-0.08,0.32-0.11,0.49-0.11c0.19,0.01,0.38,0.07,0.55,0.16l0.57,0.32c0.34,0.19,0.71,0.29,1.1,0.3
			c0.35,0.03,0.71-0.05,1.02-0.21l0.48-0.28c0.23-0.1,0.38-0.33,0.37-0.58c-0.07-0.28-0.25-0.51-0.51-0.64l-2.26-1.29
			c-0.33-0.19-0.71-0.3-1.1-0.3c-0.35-0.03-0.7,0.04-1.01,0.21c-0.16,0.07-0.34,0.11-0.51,0.11c-0.19-0.01-0.38-0.07-0.55-0.16
			c-0.13-0.06-0.23-0.18-0.27-0.32c0-0.12,0.08-0.23,0.19-0.28c0.62-0.34,1.33-0.49,2.03-0.42c0.76,0.01,1.51,0.22,2.17,0.6
			l2.26,1.29c0.52,0.23,0.91,0.7,1.02,1.25c0.04,0.51-0.25,0.99-0.72,1.18l-0.49,0.28c-0.31,0.17-0.65,0.29-1.01,0.35
			c-0.41,0.04-0.81,0.04-1.22,0c0.08,0.22,0.08,0.47,0,0.69C526.78,665.52,526.54,665.75,526.24,665.89z"/>
		<path class="st18" d="M489.33,665.5l-1.98-1.15c0,0-0.14-0.11-0.14-0.18c0-0.07,0-0.12,0-0.18c0.1-0.02,0.2-0.02,0.3,0
			c0.11,0,0.22,0.03,0.32,0.09l0.67,0.37l2.84-1.64c0.14-0.05,0.22-0.19,0.21-0.34c-0.04-0.16-0.14-0.29-0.28-0.37l0,0
			c-0.08-0.04-0.13-0.11-0.16-0.19c0.01-0.07,0.05-0.13,0.11-0.16c0.1-0.03,0.2-0.03,0.3,0c0.11,0.01,0.22,0.04,0.32,0.09l0,0
			c0.31,0.14,0.53,0.41,0.6,0.74c0.02,0.3-0.15,0.57-0.42,0.69l-2.84,1.64l0.65,0.37c0.08,0.04,0.13,0.11,0.16,0.19
			c0,0.08-0.05,0.14-0.12,0.16c-0.09,0.03-0.19,0.03-0.28,0C489.48,665.61,489.4,665.56,489.33,665.5z"/>
		<path class="st18" d="M495.32,667l-1.31-0.76c-0.2-0.11-0.41-0.17-0.64-0.18c-0.21-0.01-0.41,0.03-0.6,0.12l-0.42,0.25
			c-0.02,0.03-0.02,0.06,0,0.09c-0.01,0.03-0.01,0.06,0,0.09l2.81,1.63c0.09,0,0.14,0.11,0.14,0.18s0,0.12-0.11,0.18
			c-0.1,0.04-0.2,0.04-0.3,0c-0.1,0.03-0.2,0.03-0.3,0l-3.3-1.89c-0.08-0.04-0.13-0.11-0.14-0.19c-0.01-0.07,0.02-0.13,0.09-0.16
			l0.87-0.49c0.36-0.2,0.77-0.28,1.18-0.25c0.45,0,0.88,0.12,1.27,0.34l1.33,0.76c0.19,0.12,0.41,0.18,0.64,0.18
			c0.2,0.03,0.41-0.01,0.58-0.12l0.58-0.32c0.14-0.06,0.22-0.2,0.21-0.35c0-0.14-0.12-0.25-0.32-0.37l-1.31-0.76
			c-0.2-0.1-0.41-0.16-0.64-0.16c-0.21-0.03-0.42,0.01-0.6,0.12c-0.1,0.02-0.2,0.02-0.3,0c-0.11,0-0.21-0.03-0.3-0.09
			c-0.08-0.03-0.13-0.1-0.16-0.18c0-0.07,0.04-0.14,0.11-0.18c0.37-0.19,0.79-0.28,1.2-0.25c0.44,0.01,0.87,0.13,1.25,0.35
			l1.33,0.76c0.3,0.13,0.53,0.4,0.6,0.72c0.03,0.3-0.14,0.58-0.42,0.69l-0.57,0.34c-0.37,0.19-0.79,0.28-1.2,0.25
			C496.13,667.33,495.7,667.21,495.32,667z"/>
		<path class="st18" d="M503.23,671.56l-1.33-0.76c-0.19-0.11-0.41-0.17-0.64-0.16c-0.2-0.02-0.4,0.01-0.58,0.11l-0.44,0.25
			c0,0,0,0,0,0.09c0.03,0.01,0.06,0.01,0.09,0l2.79,1.63c0.08,0.03,0.13,0.1,0.16,0.18c0,0.07-0.04,0.14-0.11,0.18
			c-0.1,0.03-0.2,0.03-0.3,0c-0.11-0.01-0.22-0.04-0.32-0.09l-3.36-1.75c-0.09,0-0.14-0.11-0.14-0.18c-0.02-0.08,0.02-0.15,0.1-0.17
			c0,0,0.01,0,0.01,0l0.85-0.49c0.37-0.19,0.79-0.28,1.2-0.25c0.44,0.01,0.87,0.13,1.25,0.35l1.33,0.76
			c0.2,0.11,0.41,0.17,0.64,0.18c0.21,0.01,0.41-0.03,0.6-0.12l0.57-0.34c0.16,0,0.23-0.19,0.21-0.34c-0.04-0.16-0.15-0.3-0.3-0.37
			l-1.33-0.76c-0.2-0.11-0.41-0.17-0.64-0.18c-0.2-0.02-0.41,0.03-0.58,0.12c-0.1,0.03-0.2,0.03-0.3,0c-0.11,0.02-0.21,0.02-0.32,0
			c-0.08-0.04-0.13-0.11-0.16-0.19c0-0.07,0.04-0.14,0.11-0.18c0.37-0.19,0.79-0.27,1.2-0.23c0.45,0.01,0.88,0.12,1.27,0.34
			l1.31,0.76c0.31,0.14,0.53,0.41,0.6,0.74c0.02,0.3-0.15,0.57-0.42,0.69l-0.57,0.32c-0.36,0.2-0.77,0.28-1.18,0.25
			C504.05,671.92,503.62,671.79,503.23,671.56z"/>
		<path class="st18" d="M509.52,675.53l-0.28,0.16c-0.36,0.2-0.77,0.28-1.18,0.25c-0.45-0.01-0.88-0.13-1.27-0.35l-1.31-0.76
			c-0.31-0.12-0.54-0.4-0.6-0.72c-0.03-0.3,0.14-0.58,0.42-0.69c0.09-0.03,0.19-0.03,0.28,0c0.1-0.03,0.21-0.03,0.32,0
			c0.08,0.04,0.13,0.11,0.16,0.19c0,0.07-0.04,0.14-0.11,0.18c-0.16,0.09-0.23,0.19-0.21,0.34c0.04,0.16,0.15,0.3,0.3,0.37
			l1.31,0.76c0.2,0.1,0.41,0.16,0.64,0.18c0.21,0.01,0.41-0.03,0.6-0.12l0.28-0.18c0.16,0,0.23-0.19,0.21-0.34
			c-0.04-0.16-0.15-0.3-0.3-0.37l-0.34-0.19c0,0-0.14-0.11-0.14-0.18s0-0.12,0.11-0.18c0.1-0.02,0.2-0.02,0.3,0
			c0.1-0.03,0.21-0.03,0.32,0l0.32,0.19c0.2,0.11,0.41,0.16,0.64,0.16c0.21,0.03,0.42-0.01,0.6-0.12l0.28-0.16
			c0.14-0.05,0.22-0.19,0.21-0.34c-0.04-0.16-0.15-0.3-0.3-0.37l-1.31-0.76c-0.2-0.1-0.41-0.16-0.64-0.18
			c-0.21-0.01-0.41,0.03-0.6,0.12c-0.1,0.04-0.2,0.04-0.3,0c-0.11,0.02-0.21,0.02-0.32,0c-0.08-0.04-0.13-0.11-0.14-0.19
			c0,0,0-0.12,0.11-0.18c0.37-0.18,0.78-0.26,1.18-0.23c0.45,0.01,0.88,0.12,1.27,0.34l1.31,0.76c0.31,0.14,0.53,0.41,0.6,0.74
			c0.02,0.3-0.15,0.57-0.42,0.69l-0.28,0.16c-0.18,0.1-0.38,0.16-0.58,0.19c-0.24,0.04-0.48,0.04-0.72,0c0.05,0.14,0.05,0.29,0,0.42
			C509.85,675.31,509.7,675.45,509.52,675.53z"/>
		<path class="st18" d="M495.76,670.02L495.76,670.02c-0.04-0.11,0.02-0.23,0.12-0.28l5.72-2.39c0.11-0.05,0.23,0,0.28,0.11
			c0,0,0,0.01,0,0.01c0.05,0.11,0,0.23-0.1,0.28c0,0,0,0,0,0l-5.72,2.39C495.94,670.19,495.81,670.14,495.76,670.02
			C495.76,670.02,495.76,670.02,495.76,670.02z"/>
		<path class="st4" d="M564.3,643.43l-19.15,11.06c-1.63,0.83-3.56,0.83-5.19,0l-23.38-13.32c-0.82-0.27-1.27-1.16-1-1.99
			c0.16-0.47,0.53-0.84,1-1l19.15-11.06c1.63-0.83,3.56-0.83,5.19,0c6.33,3.66,17.03,9.65,23.36,13.32
			c0.83,0.27,1.28,1.15,1.01,1.98C565.14,642.9,564.77,643.27,564.3,643.43z"/>
		<g>
			<defs>
				<path id="SVGID_1_" d="M564.3,643.43l-19.15,11.06c-1.63,0.83-3.56,0.83-5.19,0l-23.38-13.32c-0.82-0.27-1.27-1.16-1-1.99
					c0.16-0.47,0.53-0.84,1-1l19.15-11.06c1.63-0.83,3.56-0.83,5.19,0c6.33,3.66,17.03,9.65,23.36,13.32
					c0.83,0.27,1.28,1.15,1.01,1.98C565.14,642.9,564.77,643.27,564.3,643.43z"/>
			</defs>
			<clipPath id="SVGID_2_">
				<use xlink:href="#SVGID_1_"  style="overflow:visible;"/>
			</clipPath>
			<g class="st19">
				<path class="st6" d="M564.3,643.43l-19.15,11.06c-1.63,0.83-3.56,0.83-5.19,0l-23.38-13.32c-0.82-0.27-1.27-1.16-1-1.99
					c0.16-0.47,0.53-0.84,1-1l19.15-11.06c1.63-0.83,3.56-0.83,5.19,0c6.33,3.66,17.03,9.65,23.36,13.32
					c0.83,0.27,1.28,1.15,1.01,1.98C565.14,642.9,564.77,643.27,564.3,643.43z"/>
				<polygon class="st4" points="563.59,649.14 565.34,648.78 527.05,626.86 525.28,627.19 				"/>
				<polygon class="st4" points="539.22,645.99 540.99,646.33 550.74,640.69 548.98,640.36 				"/>
				<polygon class="st4" points="530.11,640.94 531.87,641.27 541.61,635.66 539.86,635.32 				"/>
				<polygon class="st4" points="553.8,654.77 555.57,654.44 517.28,632.49 515.51,632.85 				"/>
			</g>
		</g>
		<path class="st2" d="M442.11,641.03l-91.49-52.81c-1.81-0.92-3.95-0.92-5.76,0l-0.41,0.23c-0.92,0.33-1.39,1.35-1.06,2.26
			c0.18,0.49,0.57,0.88,1.06,1.06l91.51,52.83c1.81,0.92,3.95,0.92,5.76,0l0.39-0.23c2.07,0,3.74,0.4,3.74-1.67
			S444.18,638.96,442.11,641.03z"/>
		<path class="st4" d="M433.62,539.64c0.18-0.03,0.36-0.03,0.53,0c0.16,0.01,0.32,0.05,0.46,0.12l1.43,0.83
			c0.14,0.09,0.21,0.18,0.21,0.28s0,0.21-0.21,0.28c-0.56,0.28-1.15,0.5-1.77,0.64c-0.75,0.16-1.51,0.23-2.28,0.21
			c-0.87-0.03-1.74-0.16-2.58-0.39c-0.96-0.26-1.88-0.64-2.74-1.15c-0.67-0.38-1.27-0.87-1.77-1.47c-0.36-0.43-0.56-0.96-0.58-1.52
			c0.01-0.54,0.19-1.06,0.53-1.48c0.43-0.55,0.95-1.02,1.54-1.4l1.47-0.88l1.54-0.85c0.77-0.39,1.58-0.69,2.42-0.88
			c0.84-0.21,1.71-0.32,2.58-0.32c0.88,0.01,1.76,0.12,2.62,0.34c0.89,0.23,1.75,0.59,2.54,1.06c0.76,0.4,1.43,0.93,2,1.57
			c0.36,0.43,0.59,0.95,0.65,1.5c0.03,0.47-0.1,0.93-0.37,1.31c-0.3,0.41-0.66,0.77-1.08,1.06c-0.14,0.09-0.31,0.13-0.48,0.12
			c-0.17-0.01-0.34-0.05-0.49-0.12l-1.45-0.85c-0.11-0.05-0.18-0.14-0.21-0.25c0-0.11,0.05-0.21,0.16-0.32
			c0.19-0.15,0.34-0.34,0.44-0.55c0.06-0.21,0.06-0.44,0-0.65c-0.08-0.28-0.22-0.55-0.42-0.76c-0.3-0.32-0.65-0.59-1.04-0.8
			c-0.44-0.26-0.93-0.45-1.43-0.57c-0.47-0.12-0.95-0.18-1.43-0.18c-0.47,0.01-0.94,0.06-1.4,0.18c-0.44,0.11-0.87,0.28-1.27,0.49
			l-1.54,0.83l-1.45,0.88c-0.32,0.21-0.6,0.46-0.85,0.74c-0.18,0.23-0.29,0.5-0.3,0.8c-0.01,0.3,0.09,0.6,0.28,0.83
			c0.27,0.34,0.62,0.63,1.01,0.83c0.43,0.26,0.89,0.46,1.38,0.6c0.42,0.13,0.85,0.21,1.29,0.25c0.39,0.05,0.78,0.05,1.17,0
			C433.03,539.94,433.33,539.81,433.62,539.64z"/>
		<path class="st4" d="M451.74,540.28c1.48,0.87,2.28,1.77,2.35,2.56s-0.48,1.61-1.77,2.31c-0.87,0.5-1.83,0.82-2.83,0.94
			c-1.04,0.12-2.1,0.05-3.11-0.23l-1.94,3.98l-0.14,0.14c-0.13,0.06-0.27,0.09-0.41,0.09c-0.13,0-0.27-0.03-0.39-0.09l-1.52-0.88
			c-0.23-0.12-0.35-0.27-0.35-0.39c-0.03-0.11-0.03-0.23,0-0.34l1.77-3.75l-2.37-1.36l-4.15,2.4c-0.15,0.07-0.31,0.11-0.48,0.11
			c-0.17,0-0.34-0.03-0.49-0.11l-1.43-0.83c-0.11-0.05-0.19-0.16-0.19-0.28c0-0.12,0.08-0.23,0.19-0.28l11.5-6.64
			c0.15-0.09,0.32-0.13,0.49-0.12c0.17-0.01,0.33,0.04,0.48,0.12L451.74,540.28z M443.46,542.05l2.58,1.5
			c0.61,0.36,1.28,0.61,1.98,0.72c0.68,0.08,1.37-0.07,1.96-0.42c0.67-0.39,0.92-0.76,0.74-1.13c-0.32-0.49-0.77-0.88-1.29-1.13
			l-2.58-1.48L443.46,542.05z"/>
		<path class="st4" d="M456.67,554.96c0.15,0.04,0.24,0.19,0.2,0.34c-0.03,0.1-0.1,0.18-0.2,0.2l-1.27,0.74
			c-0.3,0.14-0.65,0.14-0.95,0l-7.83-4.52c-0.11-0.05-0.19-0.16-0.19-0.28c0.01-0.12,0.08-0.23,0.19-0.28l11.52-6.64
			c0.15-0.08,0.31-0.11,0.48-0.11c0.17,0,0.33,0.03,0.48,0.11l7.69,4.43c0.11,0.05,0.19,0.16,0.19,0.28
			c-0.01,0.12-0.09,0.23-0.19,0.28l-1.27,0.72c-0.3,0.14-0.65,0.14-0.95,0l-5.76-3.32l-2.84,1.63l5.3,3.11
			c0.11,0.05,0.19,0.16,0.19,0.28c0,0.12-0.08,0.23-0.19,0.27l-1.25,0.74c-0.15,0.07-0.32,0.11-0.49,0.11
			c-0.17,0.01-0.33-0.03-0.48-0.11l-5.3-3.11l-2.95,1.77L456.67,554.96z"/>
		<path class="st4" d="M474.47,553.41c0.73,0.39,1.39,0.91,1.94,1.54c0.37,0.42,0.6,0.94,0.64,1.5c-0.01,0.54-0.21,1.06-0.57,1.47
			c-0.45,0.56-0.99,1.04-1.61,1.41c-0.83,0.55-1.77,1.04-2.63,1.54c-0.78,0.39-1.61,0.7-2.46,0.92c-0.83,0.23-1.69,0.34-2.54,0.34
			c-0.87-0.01-1.74-0.12-2.58-0.35c-0.91-0.25-1.78-0.62-2.6-1.1l-4.49-2.6c-0.15-0.04-0.24-0.19-0.2-0.34
			c0.03-0.1,0.1-0.18,0.2-0.2l11.52-6.66c0.15-0.07,0.31-0.11,0.48-0.11c0.17,0,0.34,0.03,0.49,0.11L474.47,553.41z M472.47,557.95
			c0.31-0.2,0.59-0.45,0.83-0.74c0.19-0.23,0.29-0.52,0.3-0.81c-0.01-0.32-0.13-0.62-0.34-0.87c-0.32-0.36-0.7-0.66-1.13-0.88
			l-2.39-1.38l-8.02,4.63l2.47,1.43c0.89,0.52,1.9,0.8,2.93,0.81c0.47-0.01,0.94-0.06,1.4-0.18c0.45-0.11,0.88-0.28,1.29-0.49
			c0.97-0.48,1.86-0.99,2.69-1.52H472.47z"/>
		<path class="st4" d="M470.17,565.32c-0.11-0.04-0.19-0.14-0.19-0.27c0-0.13,0.08-0.24,0.19-0.28l11.5-6.64
			c0.15-0.09,0.32-0.13,0.49-0.12c0.17-0.01,0.33,0.04,0.48,0.12l1.45,0.83c0.15,0.04,0.24,0.19,0.2,0.34
			c-0.03,0.1-0.1,0.18-0.2,0.2l-11.52,6.66c-0.15,0.07-0.31,0.11-0.48,0.11c-0.17,0-0.34-0.03-0.49-0.11L470.17,565.32z"/>
		<path class="st4" d="M495.67,565.63c0.11,0.05,0.19,0.16,0.19,0.28c0,0.11-0.07,0.19-0.21,0.27l-1.25,0.74
			c-0.15,0.07-0.31,0.11-0.48,0.11c-0.17,0-0.34-0.03-0.49-0.11l-3.2-1.77l-9.77,5.64c-0.15,0.07-0.31,0.11-0.48,0.12
			c-0.17-0.01-0.34-0.05-0.49-0.12l-1.43-0.83c-0.11-0.05-0.19-0.16-0.21-0.28c0.02-0.12,0.1-0.22,0.21-0.27l9.77-5.65l-3.22-1.86
			c-0.11-0.04-0.19-0.14-0.19-0.27c0-0.13,0.08-0.24,0.19-0.28l1.27-0.74c0.15-0.08,0.31-0.11,0.48-0.11c0.17,0,0.33,0.03,0.48,0.11
			L495.67,565.63z"/>
		<path class="st4" d="M500.69,578.37c0.17-0.07,0.35-0.1,0.53-0.09c0.15,0.01,0.31,0.05,0.44,0.12l1.45,0.83
			c0.12,0.04,0.21,0.15,0.21,0.28c0,0.11-0.07,0.19-0.21,0.27c-0.56,0.28-1.15,0.5-1.77,0.64c-0.75,0.16-1.51,0.23-2.28,0.21
			c-0.87-0.03-1.74-0.15-2.58-0.37c-0.96-0.26-1.89-0.65-2.74-1.17c-0.68-0.36-1.28-0.86-1.77-1.47c-0.36-0.42-0.56-0.95-0.58-1.5
			c-0.01-0.55,0.18-1.08,0.53-1.5c0.43-0.55,0.95-1.02,1.54-1.4l1.47-0.88c0.55-0.32,1.06-0.58,1.54-0.83
			c0.77-0.39,1.58-0.7,2.42-0.9c0.84-0.21,1.71-0.32,2.58-0.3c0.88,0,1.76,0.11,2.62,0.34c0.9,0.22,1.75,0.57,2.54,1.04
			c0.76,0.4,1.44,0.94,2,1.59c0.36,0.42,0.59,0.93,0.65,1.48c0.04,0.47-0.09,0.94-0.37,1.33c-0.29,0.41-0.66,0.77-1.08,1.04
			c-0.15,0.1-0.32,0.14-0.49,0.12c-0.17,0-0.33-0.05-0.48-0.12l-1.45-0.83c-0.1-0.06-0.18-0.15-0.21-0.27c0-0.11,0-0.21,0.14-0.32
			c0.19-0.14,0.35-0.32,0.46-0.53c0.06-0.22,0.06-0.45,0-0.67c-0.08-0.28-0.22-0.53-0.42-0.74c-0.3-0.32-0.65-0.59-1.04-0.8
			c-0.45-0.26-0.93-0.46-1.43-0.58c-0.47-0.11-0.95-0.17-1.43-0.16c-0.47,0-0.94,0.06-1.4,0.18c-0.44,0.12-0.87,0.28-1.27,0.48
			l-1.54,0.85l-1.45,0.88c-0.32,0.2-0.61,0.45-0.85,0.74c-0.18,0.23-0.29,0.51-0.32,0.8c0.01,0.3,0.12,0.59,0.3,0.83
			c0.28,0.34,0.62,0.62,1.01,0.83c0.44,0.25,0.9,0.45,1.38,0.6c0.42,0.12,0.85,0.2,1.29,0.25c0.39,0.04,0.78,0.04,1.17,0
			C500.1,578.61,500.4,578.51,500.69,578.37z"/>
		<path class="st4" d="M519.49,579.38c0.18,0.11,0.28,0.23,0.27,0.34c-0.02,0.15-0.09,0.3-0.19,0.41l-6.91,9.03c0,0,0,0-0.11,0
			c-0.3,0.14-0.65,0.14-0.95,0l-1.29-0.74c-0.23-0.14-0.35-0.27-0.35-0.37c0.01-0.11,0.05-0.21,0.11-0.3l1.2-1.57l-5.64-3.25
			l-2.74,0.69c-0.16,0.02-0.33,0.02-0.49,0c-0.23,0-0.46-0.06-0.65-0.19l-1.27-0.74c-0.12-0.04-0.2-0.16-0.19-0.28
			c0.01-0.12,0.09-0.22,0.19-0.27h0.14l15.64-3.98c0.23-0.07,0.47-0.11,0.71-0.12c0.2,0,0.41,0.06,0.58,0.16L519.49,579.38z
			 M512.63,584.47l3.13-4.06l-7.07,1.77L512.63,584.47z"/>
		<path class="st4" d="M531.25,586.18c1.48,0.85,2.26,1.77,2.35,2.54c0.09,0.78-0.49,1.63-1.77,2.33c-0.87,0.5-1.83,0.82-2.83,0.94
			c-1.04,0.12-2.1,0.05-3.11-0.23l-1.94,3.96c-0.03,0.06-0.08,0.11-0.14,0.14c-0.12,0.07-0.26,0.11-0.41,0.11
			c-0.14,0-0.27-0.03-0.39-0.11l-1.5-0.87c-0.25-0.14-0.37-0.28-0.37-0.41c-0.02-0.11-0.02-0.21,0-0.32l1.77-3.75l-2.37-1.36
			l-4.15,2.39c-0.14,0.09-0.31,0.13-0.48,0.12c-0.17,0.01-0.34-0.03-0.48-0.12l-1.45-0.83c-0.12-0.04-0.2-0.16-0.19-0.28
			c0-0.12,0.08-0.23,0.19-0.27l11.71-6.66c0.3-0.14,0.65-0.14,0.95,0L531.25,586.18z M522.95,587.95l2.58,1.48
			c0.62,0.36,1.29,0.62,2,0.74c0.68,0.08,1.37-0.07,1.94-0.44c0.67-0.39,0.92-0.76,0.74-1.11c-0.31-0.49-0.76-0.89-1.29-1.13
			l-2.58-1.5L522.95,587.95z"/>
		<path class="st4" d="M543.18,593.06c0.73,0.39,1.39,0.9,1.94,1.52c0.38,0.41,0.61,0.94,0.64,1.5c-0.01,0.54-0.21,1.06-0.55,1.48
			c-0.47,0.55-1.01,1.03-1.63,1.41c-0.83,0.53-1.77,1.04-2.63,1.52c-0.78,0.4-1.61,0.71-2.46,0.94c-0.83,0.21-1.67,0.32-2.53,0.32
			c-0.88,0-1.75-0.12-2.6-0.35c-0.9-0.25-1.77-0.61-2.58-1.08l-4.49-2.6c-0.11-0.05-0.19-0.16-0.19-0.28c0-0.12,0.08-0.23,0.19-0.28
			l11.5-6.64c0.15-0.08,0.32-0.12,0.49-0.11c0.17-0.01,0.33,0.02,0.48,0.11L543.18,593.06z M541.18,597.58
			c0.32-0.2,0.61-0.45,0.85-0.74c0.19-0.23,0.29-0.52,0.3-0.81c-0.02-0.32-0.14-0.62-0.35-0.87c-0.31-0.36-0.69-0.65-1.11-0.87
			l-2.39-1.38l-8.02,4.63l2.47,1.43c0.46,0.27,0.95,0.47,1.47,0.6c0.48,0.13,0.97,0.2,1.47,0.19c0.47,0,0.94-0.06,1.4-0.18
			c0.45-0.12,0.88-0.28,1.29-0.49c0.92-0.41,1.8-0.92,2.63-1.45V597.58z"/>
	</g>
</g>
<g id="freepik--Character--inject-33">
	<g id="freepik--character--inject-33">
		<path class="st20" d="M923.68,137.37c-5.14,11.06-13.94,29.37-18.76,39.51l-18.87-22.23h-15.9c0,0,19.08,40.64,30.46,50.14
			c3.61,3.39,9.29,3.21,12.69-0.4c0.12-0.12,0.23-0.25,0.33-0.38c4.64-5.61,8.9-11.51,12.77-17.67
			c9.01-13.92,13.04-19.93,13.04-19.93l11.34-47.71C940.93,117.97,930.82,122.02,923.68,137.37z"/>
		<path class="st4" d="M952.68,118.66c-6.06-0.23-12.65-0.99-18.43,4.06c-5.53,4.82-9.85,10.88-12.62,17.67
			c-3.9,9.19-9.95,20.83-9.95,20.83c3.11,4.52,6.93,8.5,11.31,11.8c3.95,3.05,8.64,5.02,13.59,5.71L952.68,118.66z"/>
		<path class="st21" d="M952.68,118.66c-6.06-0.23-12.65-0.99-18.43,4.06c-5.53,4.82-9.85,10.88-12.62,17.67
			c-3.9,9.19-9.95,20.83-9.95,20.83c3.11,4.52,6.93,8.5,11.31,11.8c3.95,3.05,8.64,5.02,13.59,5.71L952.68,118.66z"/>
		<path class="st22" d="M904.92,176.88c2.13,2.49,4.07,5.14,5.81,7.92c0,0-2.03-7.49-4.79-10.05L904.92,176.88z"/>
		<path class="st2" d="M865.43,125.13L865.43,125.13l1.5-1.57l0,0c0.47-0.38,1.09-0.51,1.68-0.35l18.27,3.11
			c1.87,0.42,3.47,1.64,4.36,3.34l16.43,35.71c0.38,0.59,0.38,1.34,0,1.93l0,0l-1.55,1.63l0,0c-0.49,0.41-1.16,0.55-1.77,0.35
			l-18.2-3.09c-1.88-0.43-3.47-1.65-4.36-3.36l-16.43-35.71C864.95,126.22,864.95,125.52,865.43,125.13z"/>
		<path class="st5" d="M906.12,166.97l-16.43-35.73c-0.9-1.7-2.49-2.91-4.36-3.34l-18.27-3.07c-1.77-0.28-2.47,0.74-1.77,2.31
			l16.43,35.71c0.89,1.7,2.49,2.93,4.36,3.36l18.27,3.09C906.05,169.57,906.85,168.52,906.12,166.97z"/>
		<path class="st3" d="M887.37,128.73c0.99,0.62,1.8,1.49,2.33,2.53l16.43,35.69c0.36,0.57,0.36,1.3,0,1.87l1.47-1.52l0,0
			c0.37-0.58,0.37-1.33,0-1.91l-16.43-35.71c-0.49-0.97-1.24-1.8-2.16-2.39L887.37,128.73z"/>
		<path class="st20" d="M874.07,160.45c-7.56-8.68-7.35-19.54-3.87-22.69l2.3,5.02c0,0,11.57,2.58,17.14,2.16
			c5.57-0.42,10.11-1.77,11.63-0.67c3.23,2.28,4.17,11.96-5.09,15.5C888.31,162.74,874.07,160.45,874.07,160.45z"/>
		<g id="freepik--Botom--inject-33">
			<path class="st20" d="M1007.03,445.54c-4.89,2.63-10.85,2.42-16.64,0l-2.42-31.66l19.06,2.49V445.54z"/>
			<path class="st20" d="M948.6,426.61c-4.12,8.92-11.57,6.45-19.97,0.74l1.48-31.8h20.23L948.6,426.61z"/>
			<path class="st5" d="M971.37,475.5c-0.5,1.61-0.42,3.34,0.21,4.89c0.64,0.99,4.28,4.12,10.88,4.58
				c6.31,0.46,11.94-0.39,15.64-2.74c3.69-2.35,5.49-4.95,5.85-8.53c0.35-3.59,0-7.07,1.66-9.84s4.1-5.42,4.65-6.8
				c0.65-2.39,0.65-4.92,0-7.32L971.37,475.5z"/>
			<path class="st3" d="M988.63,444.14c-0.1,1.36-0.35,2.7-0.76,3.99c-0.97,2.78-2.27,5.44-3.87,7.92c-0.8,1.29-1.68,2.53-2.63,3.71
				c-1.91,2.26-4.28,4.12-6.29,6.31c-2.16,2.05-3.54,4.78-3.9,7.74c-0.27,4.95,5.11,6.63,9.24,7.37c4.47,0.78,9.06,0.55,13.43-0.67
				c4.69-1.23,8.22-5.08,9.05-9.86c0.23-1.38,0.14-2.79,0.32-4.17c0.55-3.16,1.87-6.13,3.83-8.66c1.15-1.45,2.14-3.03,2.95-4.7
				c1.29-3.07,0.27-6.52-0.57-9.56c-0.71-2.63-1.52-5.62-2.44-5.3c0.06,0.54-0.02,1.09-0.23,1.59c-0.3,0.49-0.55,1.01-0.72,1.55
				c-0.19,0.7-0.43,1.38-0.74,2.03c-0.46,1.02-1.24,1.87-2.21,2.42c0-1.77-0.12-3.73-0.18-5.6c0.05-0.58-0.1-1.16-0.42-1.64
				c-0.44-0.4-1-0.64-1.59-0.69c-3.47-0.83-7.04-1.13-10.6-0.87c-0.54-0.02-1.06,0.21-1.41,0.62c-0.21,0.38-0.3,0.82-0.25,1.25
				C988.73,440.67,988.73,442.41,988.63,444.14z"/>
			<path class="st0" d="M983.33,457c1.77-1.38,5.97-1.4,8.23-1.15c2.29,0.2,4.5,0.97,6.41,2.24c0.58,0.42,1.38,0.36,1.89-0.14l0,0
				c0.55-0.54,0.55-1.43,0.01-1.97c-0.05-0.05-0.1-0.09-0.15-0.13c-2.11-1.56-4.61-2.49-7.23-2.69c-5.55-0.39-7.17,0.57-7.17,0.57
				S982.82,455.43,983.33,457z"/>
			<path class="st0" d="M979.13,462.15c2.33-1.36,6.86-1.17,9.12-0.94c2.25,0.24,4.4,1.06,6.24,2.39c0.58,0.42,1.39,0.36,1.89-0.16
				l0,0c0.55-0.51,0.58-1.37,0.06-1.92c-0.06-0.07-0.13-0.13-0.21-0.18c-2.14-1.63-4.69-2.62-7.37-2.88
				c-5.55-0.39-7.07,0.74-7.07,0.74C980.51,459.72,979.52,460.81,979.13,462.15z"/>
			<path class="st0" d="M994.75,447.94c-2.34-0.42-4.74-0.22-6.98,0.58c-0.97,0.55-1.63,2.08-0.99,2.47
				c1.96-0.78,4.08-1.07,6.18-0.85c2.08,0.21,4.11,0.77,6.01,1.66c0.48,0.21,1.04,0.49,1.54,0.78c0.64,0.33,1.43,0.08,1.76-0.56
				c0,0,0-0.01,0-0.01l0,0c0.28-0.57,0.07-1.27-0.48-1.59C999.65,449.11,997.25,448.26,994.75,447.94z"/>
			<path class="st5" d="M895.48,446.97c-0.48,1.44-0.39,3.02,0.25,4.4c0.62,1.29,7.35,5.09,16.43,4.47
				c6.73-0.46,13.21-2.73,18.76-6.56c3.53-2.3,7.07-2.72,11.56-2.99c4.49-0.27,10.41-2.49,11.38-4.59c0.52-1.88,0.47-3.87-0.14-5.72
				L895.48,446.97z"/>
			<path class="st3" d="M931.97,419.05l-2.35-0.92c-0.41-0.21-0.89-0.26-1.34-0.14c-0.58,0.21-0.81,0.9-0.97,1.5
				c-0.21,1.34-0.54,2.66-0.99,3.94c-0.67,1.04-1.53,1.95-2.54,2.67c-2.25,1.81-4.68,3.38-7.26,4.68c-2.97,1.59-5.87,2.83-8.94,4.21
				c-3.07,1.38-7.26,2.26-9.7,3.92c-3.53,2.4-4.03,8.43,0,10.81c3.53,2.05,12.7,4.28,22.37,1.54c5.3-1.48,11.1-7.07,18-7.65
				c4.4-0.34,12.7-1.57,15.53-4.91c1.04-1.48-0.35-6.17-1.48-10.21c-1.25-4.43-1.77-11.34-3.2-10.95c-0.11,1.47-1.38,2.33-2.16,3.53
				c-0.61,1.14-1.13,2.32-1.57,3.53c-0.44,1.22-1.24,2.27-2.3,3.02c-1.09,0.74-2.53,0.66-3.53-0.19c-1.29-1.34-0.53-3.69-1.47-5.3
				c-0.76-1.02-1.86-1.74-3.09-2.03L931.97,419.05z"/>
			<path class="st0" d="M920.61,428.45c0.65-1.23,1.87-2.04,3.25-2.17c2-0.37,5.53,1.1,7.72,2.92c0.7,0.56,0.82,1.58,0.26,2.28
				c-0.14,0.17-0.31,0.31-0.5,0.42l0,0c-0.61,0.34-1.36,0.25-1.87-0.21C927.04,429.5,923.87,428.34,920.61,428.45z"/>
			<path class="st0" d="M914.43,431.91c0.89-1.25,2.32-1.99,3.85-1.98c3.08,0.14,6.03,1.25,8.45,3.16c0.68,0.55,0.79,1.55,0.23,2.24
				c-0.12,0.15-0.27,0.28-0.44,0.38l0,0c-0.57,0.32-1.28,0.24-1.77-0.19C922.03,432.81,918.23,431.48,914.43,431.91z"/>
			<path class="st0" d="M907.57,435.04c1.02-1.14,2.47-1.78,3.99-1.77c2.97,0.18,5.8,1.3,8.09,3.2c0.68,0.55,0.79,1.55,0.23,2.24
				c-0.12,0.15-0.27,0.28-0.44,0.38l0,0c-0.58,0.3-1.28,0.22-1.77-0.21C915.1,436.07,911.35,434.65,907.57,435.04z"/>
			<path class="st3" d="M1004.54,207.2c1.13,34.65,1.04,118.38,1.04,118.38c0.37,4.31,2.12,13.16,3.53,30.41
				c1.87,22.46-2.17,71.81-2.17,71.81c-5.76,2.51-12.3,2.55-18.09,0.11c0,0-10.81-70.27-14.17-92.46
				c-3.02-19.44-8.94-63.33-8.94-63.33l-6.84,56.96c0.94,9.49,0.71,19.05-0.69,28.48c-1.59,10.21-8.66,52.19-8.66,52.19
				c-6.63,1.67-13.59,1.4-20.07-0.76c0,0-0.65-72.74-0.85-82.2c-0.19-10.8,4.79-128.15,4.79-128.15L1004.54,207.2z"/>
			<path class="st5" d="M965.67,272.12l-5.12-28.39c0,0-14.14-1.24-22.05-9.15c0,0,1.4,7.76,19.26,12.37l5.11,28.73l-4.03,53.36
				L965.67,272.12z"/>
		</g>
		<path class="st23" d="M935.17,145.34c1.52-11.1,2.99-26.01,20.18-26.7l22.19,1.06c5.46,1.43,26.7,3.94,26.7,3.94l0.41,48.13
			c0,0,1.34,34.7,0.94,53.27c-15.9,10.07-50.45,13.34-72.16-3.15C932.77,206.58,933.65,156.33,935.17,145.34z"/>
		<path class="st3" d="M938.01,61.55c-5.98,10.55-2.28,23.95,8.27,29.94c0.47,0.27,0.96,0.52,1.45,0.75L943.74,95l39.9,3.53
			l-0.51,9.61c1.78-0.48,3.31-1.64,4.26-3.22c1.43-2.56,5.3-18.29,5.3-18.29c3.75-8.59,5.58-17.42,2.9-20.35
			c-1.05-1.16-2.44-1.97-3.98-2.3l5.3-2.67c-0.95-2.15-3.46-3.13-5.61-2.18c-0.06,0.02-0.11,0.05-0.16,0.08
			c-0.45,0.23-0.86,0.53-1.2,0.9c0.14-0.58,0.22-1.17,0.27-1.77c0.18-1.75-0.24-3.51-1.18-5c-0.76-1-1.72-1.83-2.81-2.46
			c-4.49-2.81-9.81-3.85-14.81-5.62c-2.83-1.01-5.57-2.24-8.36-3.37c-1.81-0.91-3.85-1.28-5.87-1.06c-2.12,0.35-3.55,2.35-3.2,4.47
			c-2.24-2.04-5.49-2.53-8.23-1.25c-2.6,1.08-4.22,3.69-4.03,6.5c-1.81-0.45-3.72-0.26-5.41,0.53c-1.71,0.82-2.75,2.6-2.63,4.49
			C934.36,58.02,935.9,60.14,938.01,61.55z"/>
		<path class="st20" d="M966.11,67.17c3.68-0.44,7.32-1.04,10.95-1.61c0.33-0.1,0.68-0.05,0.97,0.12c0.16,0.15,0.26,0.34,0.3,0.55
			c2.4,7.07,2.33,14.58,4.24,21.7c0.18,0.65,0.58,1.77,1.36,1.77c1.41,0.16,2.39-1.1,2.99-2.19l1.36-2.46
			c0.28-0.46,0.62-0.88,1.01-1.25c1.77-1.57,6.77-3.53,9.12,1.87c2.35,5.41-2.69,12.69-6.75,13.82c-7.07,1.96-7.93-2.54-7.93-2.54
			l-1.34,25.09c-6.22,6.5-26.66,4.24-22.62-1.41l0.27-7.63c-3.12,0.4-6.27,0.46-9.4,0.18c-5.09-0.95-8.16-5.09-9.54-10.6
			c-2.21-8.98-1.96-19.95-0.23-33.57c0.21-1.61,0.63-3.19,1.25-4.7C949.27,68.29,957.98,68.14,966.11,67.17z"/>
		<path class="st22" d="M960.03,113.08c0,0,11.5-1.93,15.57-3.92c2.39-1.15,4.37-3,5.69-5.3c-0.68,2.32-1.82,4.47-3.34,6.34
			c-3.04,3.64-18,5.9-18,5.9L960.03,113.08z"/>
		<path class="st5" d="M961.67,84.77c0.01,1.36,1.12,2.45,2.47,2.44c1.36-0.01,2.45-1.12,2.44-2.47c-0.01-1.32-1.06-2.4-2.39-2.44
			C962.82,82.29,961.69,83.39,961.67,84.77z"/>
		<path class="st5" d="M965.08,74.56l5.14,2.21c0.59-1.45-0.08-3.11-1.5-3.76c-1.39-0.59-3,0.05-3.59,1.44
			C965.11,74.48,965.1,74.52,965.08,74.56z"/>
		<path class="st24" d="M964.64,98.11l-8.06,2.74c0.64,2.21,2.95,3.49,5.16,2.85c0.05-0.01,0.09-0.03,0.14-0.04
			C964.15,102.86,965.37,100.4,964.64,98.11z"/>
		<path class="st22" d="M961.9,103.62c1.39-0.48,2.45-1.64,2.79-3.07c-1.76-0.84-3.87-0.09-4.71,1.67
			c-0.22,0.47-0.34,0.98-0.34,1.49C960.39,103.9,961.17,103.87,961.9,103.62z"/>
		<path class="st5" d="M941.25,76.63l5.12-1.96c-0.49-1.38-2-2.1-3.38-1.61c-0.05,0.02-0.1,0.04-0.15,0.06
			C941.46,73.67,940.76,75.22,941.25,76.63z"/>
		<path class="st5" d="M943.05,84.77c0.01,1.37,1.13,2.47,2.49,2.45c1.37-0.01,2.47-1.13,2.45-2.49c-0.01-1.33-1.07-2.42-2.4-2.45
			C944.2,82.27,943.07,83.38,943.05,84.77z"/>
		<path class="st22" d="M955.06,84.01l-0.37,13.57l-7.56-2.19l7.07-11.48C954.49,83.88,954.79,83.91,955.06,84.01z"/>
		<path class="st4" d="M932.47,159.14c0.58-14.05,1.77-26.5,6.93-33.06c5.16-6.56,8.04-7.85,20.44-7.65v0.85
			c-1.43,0.09-2.74,0.84-3.53,2.03c-4.29,6.51-7.51,13.67-9.54,21.2c-3.53,13.66-4.22,44.17-4.42,60.59s0,29.67,0,29.67
			s-8.3-1.94-10.87-6.1C931.48,226.67,931.86,173.2,932.47,159.14z"/>
		<path class="st10" d="M932.47,159.14c0.58-14.05,1.77-26.5,6.93-33.06c5.16-6.56,8.04-7.85,20.44-7.65v0.85
			c-1.43,0.09-2.74,0.84-3.53,2.03c-4.29,6.51-7.51,13.67-9.54,21.2c-3.53,13.66-4.22,44.17-4.42,60.59s0,29.67,0,29.67
			s-8.3-1.94-10.87-6.1C931.48,226.67,931.86,173.2,932.47,159.14z"/>
		<path class="st4" d="M975.35,136.77c1.77-7.49,5.42-12.37,7.07-16.24l15.51,2.19c5.71,2.63,13.13,8.83,12.58,15.2l-4.06,46.05
			l1.13,43.61c-8.83,13.76-35.34,11.22-35.34,11.22s-0.76-19.61,0.09-57.49C972.86,160.06,973.1,146.31,975.35,136.77z"/>
		<path class="st10" d="M975.35,136.77c1.77-7.49,5.42-12.37,7.07-16.24l15.51,2.19c5.71,2.63,13.13,8.83,12.58,15.2l-4.06,46.05
			l1.13,43.61c-8.83,13.76-35.34,11.22-35.34,11.22s-0.76-19.61,0.09-57.49C972.86,160.06,973.1,146.31,975.35,136.77z"/>
		<path class="st3" d="M974.62,140.46c1.02-4.81,1.57-13.75,2.42-15.55c0.85-1.8,5.46-5.3,5.64-7.79v-1.57
			c1.46,0.28,2.81,0.97,3.89,2c1.45,1.29,5.72,4.28,5.72,4.28c-0.42,2.97-1.52,5.8-3.22,8.27c-2.54,3.66-6.08,6.04-6.63,5.14
			c-0.55-0.9-0.46-2.28-1.4-4.4c-1.17-2.67-1.45-3.8-2.69-1.17C977.45,131.77,974.62,140.46,974.62,140.46z"/>
		<path class="st3" d="M948.17,137.83c-1.25,4.06,2.05-14.03,4.21-17.21c2.16-3.18,7.63-4.43,7.63-4.43l-0.23,3.9
			c-1.44,0.34-2.7,1.21-3.53,2.44C952.9,127.26,950.18,132.4,948.17,137.83z"/>
		<path class="st4" d="M974.06,144.26c11.87,1.21,23.67,3.06,35.34,5.53l-0.12,1.31c-11.7-2.48-23.53-4.34-35.43-5.55
			C973.97,145.16,974.01,144.72,974.06,144.26z"/>
		<path class="st4" d="M933.56,144.02c3.87-0.46,8.27-0.87,13.09-1.1l-0.32,1.33c-4.77,0.23-9.12,0.64-12.92,1.1
			C933.45,144.9,933.51,144.44,933.56,144.02z"/>
		<path class="st20" d="M1039.45,184.8c-16.57-42.09-20.2-55.18-31.89-60.07c-3.08-1.18-6.33-1.88-9.63-2.05
			c-2.88,5.3-7.07,25.66,6.75,39.83c0,0,10.04,24.74,15.09,36.43c-0.16,11.77,0.69,21.57-2.9,37.48c-0.73,2.15-2.13,4.01-3.99,5.3
			c-4.21,2.31-4.91,4.93-8.02,7.92c-2.42,2.33-4.54,2.88-4.19,3.66c1.13,1.77,3.31,2.54,5.3,1.87c2.27-0.93,4.46-2.07,6.52-3.41
			c0.41,0.48-3.53,6.75-7.62,11.33c-6.06,6.73-7.53,11.59,4.58,12.07c7.58,0.3,15.76-5.92,20.9-21.03c1.01-2.99,2.07-7.3,3.15-11.5
			c0.78-1.77,6.33-30.14,7.49-38.87C1042.54,192.96,1042.15,191.63,1039.45,184.8z"/>
		<path class="st4" d="M995.86,122.72c5.04-0.72,10.19,0.18,14.68,2.58c6.56,3.96,8.83,7.42,16.73,25.83s9.45,21.96,9.45,21.96
			s-3.53,10.5-24.63,11.7l-9.45-21.56c0,0-7.85-9.77-8.57-21.84S995.86,122.72,995.86,122.72z"/>
		<path class="st21" d="M995.86,122.72c5.04-0.72,10.19,0.18,14.68,2.58c6.56,3.96,8.83,7.42,16.73,25.83s9.45,21.96,9.45,21.96
			s-3.53,10.5-24.63,11.7l-9.45-21.56c0,0-7.85-9.77-8.57-21.84S995.86,122.72,995.86,122.72z"/>
	</g>
</g>
</svg>
