<?xml version="1.0" encoding="utf-8"?>
<!-- Generator: Adobe Illustrator 23.1.0, SVG Export Plug-In . SVG Version: 6.00 Build 0)  -->
<svg version="1.1" id="Layer_1" xmlns="http://www.w3.org/2000/svg" xmlns:xlink="http://www.w3.org/1999/xlink" x="0px" y="0px"
	 viewBox="0 0 1366 768" style="enable-background:new 0 0 1366 768;" xml:space="preserve">
<style type="text/css">
	.st0{fill:#EBEBEB;}
	.st1{fill:#E6E6E6;}
	.st2{fill:#F0F0F0;}
	.st3{fill:#E0E0E0;}
	.st4{fill:#FAFAFA;}
	.st5{fill:#F5F5F5;}
	.st6{fill:#FFFFFF;}
	.st7{fill:#263238;}
	.st8{fill:#407BFF;}
	.st9{opacity:0.8;fill:#FFFFFF;enable-background:new    ;}
	.st10{opacity:0.4;fill:#FFFFFF;enable-background:new    ;}
	.st11{fill:#FFB573;}
	.st12{opacity:0.5;}
	.st13{opacity:0.3;enable-background:new    ;}
	.st14{opacity:0.2;enable-background:new    ;}
	.st15{fill:#ED893E;}
	.st16{opacity:0.5;fill:#FFFFFF;enable-background:new    ;}
	.st17{opacity:0.6;fill:#FFFFFF;enable-background:new    ;}
	.st18{opacity:0.7;fill:#FFFFFF;enable-background:new    ;}
	.st19{opacity:0.2;fill:#407BFF;enable-background:new    ;}
	.st20{opacity:0.3;fill:#407BFF;enable-background:new    ;}
</style>
<g id="freepik--background-complete--inject-13">
	<rect x="179.73" y="670.52" class="st0" width="1010.27" height="0.51"/>
	<rect x="285.73" y="689.76" class="st0" width="42.86" height="0.51"/>
	<rect x="525.53" y="684.28" class="st0" width="171.68" height="0.51"/>
	<rect x="316.46" y="708.53" class="st0" width="77" height="0.51"/>
	<rect x="1001.5" y="705.14" class="st0" width="87.27" height="0.51"/>
	<rect x="970.71" y="705.14" class="st0" width="24.19" height="0.51"/>
	<rect x="882.66" y="696.61" class="st0" width="46.47" height="0.51"/>
	<rect x="761.42" y="696.61" class="st0" width="97.87" height="0.51"/>
	<path class="st0" d="M658.6,580.41H268.45c-6.36-0.01-11.52-5.17-11.52-11.54V20.44c0.06-6.32,5.19-11.43,11.52-11.44H658.6
		c6.37,0,11.54,5.17,11.54,11.54c0,0,0,0,0,0v548.33C670.14,575.24,664.97,580.41,658.6,580.41z M268.45,9.4
		c-6.08,0.01-11.01,4.95-11.01,11.03v548.43c0,6.08,4.93,11.02,11.01,11.03H658.6c6.09-0.01,11.02-4.94,11.03-11.03V20.44
		c-0.01-6.09-4.94-11.02-11.03-11.03H268.45z"/>
	<path class="st0" d="M1095.66,580.41H705.5c-6.37-0.01-11.53-5.17-11.54-11.54V20.44c0.07-6.33,5.21-11.43,11.54-11.44h390.17
		c6.32,0.02,11.44,5.12,11.5,11.44v548.43C1107.16,575.23,1102.02,580.39,1095.66,580.41z M705.5,9.4
		c-6.09,0.01-11.02,4.94-11.03,11.03v548.43c0.01,6.09,4.94,11.02,11.03,11.03h390.17c6.09-0.01,11.02-4.94,11.03-11.03V20.44
		c-0.01-6.09-4.94-11.02-11.03-11.03H705.5z"/>
	<rect x="288.07" y="385.67" class="st1" width="68.21" height="284.86"/>
	<polygon class="st2" points="299.41,670.52 288.05,670.52 288.05,644.88 311.31,644.88 	"/>
	<rect x="739.8" y="385.67" class="st1" width="68.21" height="284.86"/>
	<rect x="288.07" y="385.67" class="st2" width="461.63" height="275.02"/>
	<rect x="296.88" y="397.85" class="st1" width="444.01" height="75.43"/>
	<rect x="296.88" y="397.87" class="st3" width="444.01" height="10.26"/>
	<polygon class="st2" points="738.35,670.52 749.7,670.52 749.7,644.88 726.43,644.88 	"/>
	<rect x="296.88" y="485.46" class="st1" width="444.01" height="75.43"/>
	<rect x="296.88" y="485.48" class="st3" width="444.01" height="10.26"/>
	<rect x="296.88" y="573.05" class="st1" width="444.01" height="75.43"/>
	<rect x="296.88" y="573.07" class="st3" width="444.01" height="10.26"/>
	<polygon class="st1" points="903.12,670.52 1061.29,670.52 1075.33,173.71 917.17,173.71 	"/>
	<polygon class="st2" points="898.3,670.52 1056.46,670.52 1070.51,173.71 912.34,173.71 	"/>
	<polygon class="st4" points="1046.99,656.4 1060.22,187.84 921.81,187.84 908.58,656.4 	"/>
	<rect x="343.72" y="53.92" class="st2" width="456.2" height="254.43"/>
	<rect x="327.31" y="53.92" class="st5" width="464.95" height="254.43"/>
	<rect x="350.29" y="75.05" class="st6" width="418.94" height="212.12"/>
	<circle class="st2" cx="349.23" cy="358.55" r="15.72"/>
	<circle class="st1" cx="374.59" cy="365.78" r="15.72"/>
	<circle class="st2" cx="396.59" cy="354.89" r="15.72"/>
	<path class="st1" d="M423.29,364.41c0,0-1.37,21.26-54.55,21.26s-54.55-21.26-54.55-21.26H423.29z"/>
</g>
<g id="freepik--Shadow--inject-13">
	<ellipse id="freepik--path--inject-13" class="st5" cx="684.87" cy="738.9" rx="391.76" ry="22.87"/>
</g>
<g id="freepik--Smartphone--inject-13">
	<path class="st7" d="M942,738.9H731.22c-14.21,0.07-25.78-11.39-25.85-25.59c0-0.43,0.01-0.85,0.03-1.28l23.52-607.01
		c0.75-14.92,12.97-26.69,27.9-26.87H967.6c14.22-0.06,25.79,11.42,25.85,25.64c0,0.41-0.01,0.83-0.02,1.24L969.9,712.03
		C969.16,726.95,956.94,738.71,942,738.9z"/>
	<path class="st8" d="M707.58,140.88h-2.02l1.41-36.07c0.88-18.72,16.22-33.49,34.96-33.66v2.02c-17.65,0.17-32.1,14.09-32.93,31.72
		L707.58,140.88z"/>
	<rect x="756.25" y="71.07" class="st8" width="17.17" height="2.02"/>
	<path class="st8" d="M927.11,738.9H716.33c-14.21,0.07-25.78-11.39-25.85-25.59c0-0.43,0.01-0.85,0.03-1.28l23.52-607.01
		c0.75-14.92,12.97-26.69,27.9-26.87h210.78c14.22-0.06,25.79,11.42,25.85,25.64c0,0.41-0.01,0.83-0.02,1.24l-23.52,607.01
		C954.27,726.95,942.05,738.71,927.11,738.9z"/>
	<path class="st9" d="M933.82,669.07H715.03c-7.93,0.05-14.41-6.34-14.46-14.27c0-0.25,0-0.49,0.01-0.74l20.41-526.63
		c0.41-8.36,7.25-14.95,15.62-15.03h218.76c7.95-0.04,14.42,6.37,14.46,14.31c0,0.24,0,0.48-0.01,0.72l-20.41,526.63
		C949.01,662.4,942.17,668.98,933.82,669.07z"/>
	<polygon class="st10" points="840.93,669.07 786.38,669.07 878.39,112.39 932.95,112.39 	"/>
	<polygon class="st10" points="776.78,669.07 749.5,669.07 841.52,112.39 868.8,112.39 	"/>
	<path class="st8" d="M876.03,506.29H768.46c-4.97,0-8.91-5.44-9.13-12.59l-3.05-99.88c-0.24-8.22,4.49-15.36,10.2-15.36h121.23
		c5.72,0,9.9,7.13,9.03,15.36l-10.63,99.88C885.34,500.86,880.98,506.29,876.03,506.29z"/>
	<path class="st8" d="M876.03,510.09H768.46c-7.09,0-12.63-7.01-12.91-16.27l-3.05-99.88c-0.29-5.64,1.65-11.17,5.42-15.38
		c2.21-2.4,5.3-3.81,8.57-3.88h121.23c3.26,0.08,6.33,1.55,8.43,4.04c3.54,4.37,5.12,10.01,4.36,15.58l-10.63,99.88
		C888.94,503.2,882.88,510.09,876.03,510.09z M766.48,382.25c-1.21,0.1-2.34,0.67-3.13,1.6c-2.33,2.74-3.51,6.27-3.29,9.86
		l3.05,99.88c0.14,4.93,2.55,8.93,5.35,8.93h107.57c2.57,0,5.74-3.7,6.32-9.21l10.63-99.88c0.51-3.43-0.38-6.93-2.47-9.7
		c-0.67-0.88-1.7-1.42-2.81-1.47H766.48z"/>
	<path class="st8" d="M886.11,497.48h-0.4c-2.07-0.22-3.58-2.08-3.35-4.16c0,0,0,0,0,0l11.68-109.78
		c1.82-17.15,12.63-30.09,25.14-30.09h8.16c2.09,0,3.78,1.69,3.78,3.78c0,2.09-1.69,3.78-3.78,3.78h-8.08
		c-8.49,0-16.16,10.24-17.62,23.34l-11.68,109.78C889.74,496.08,888.07,497.54,886.11,497.48z"/>
	<path class="st8" d="M790.58,543.45c-4.25-0.07-8.28-1.9-11.13-5.05c-4.93-5.13-7.68-13.52-7.35-22.43
		c0.59-15.09,9.74-27.36,20.43-27.36c4.25,0.06,8.29,1.89,11.13,5.05c4.93,5.13,7.68,13.52,7.35,22.43
		C810.42,531.19,801.27,543.45,790.58,543.45z M792.6,491.91c-8.93,0-16.63,10.85-17.13,24.25c-0.3,8.08,2.02,15.52,6.45,20.02
		c2.23,2.5,5.4,3.96,8.75,4.04c8.93,0,16.63-10.85,17.13-24.25l0,0c0.3-8.08-2.02-15.52-6.45-20.02c-2.25-2.52-5.45-3.98-8.83-4.04
		H792.6z"/>
	<path class="st8" d="M849.36,543.45c-4.24-0.07-8.27-1.9-11.11-5.05c-4.95-5.13-7.7-13.52-7.35-22.43
		c0.57-15.09,9.74-27.36,20.43-27.36c4.25,0.06,8.27,1.89,11.11,5.05c4.95,5.13,7.7,13.52,7.35,22.43l0,0
		C869.22,531.19,860.05,543.45,849.36,543.45z M851.38,491.91c-8.95,0-16.63,10.85-17.13,24.25c-0.3,8.08,2.02,15.52,6.43,20.02
		c2.23,2.5,5.4,3.96,8.75,4.04c8.95,0,16.63-10.85,17.13-24.25c0.3-8.08-2.02-15.52-6.43-20.02c-2.25-2.51-5.44-3.98-8.81-4.04
		H851.38z M868.21,516.03L868.21,516.03z"/>
	
		<ellipse transform="matrix(0.0722 -0.9974 0.9974 0.0722 493.7279 1084.929)" class="st8" cx="830.01" cy="277.09" rx="63.89" ry="44.03"/>
	<path class="st6" d="M827.62,344.71c-10.43-0.18-20.33-4.68-27.32-12.43c-12.12-12.65-18.95-33.34-18.18-55.3
		c1.41-37.2,23.96-67.45,50.27-67.45c10.43,0.16,20.33,4.66,27.32,12.41c12.12,12.67,18.97,33.34,18.18,55.32l0,0
		C876.47,314.44,853.92,344.71,827.62,344.71z M832.36,217.12c-22.23,0-41.46,26.99-42.71,60.17c-0.77,19.96,5.23,38.57,16.02,49.79
		c5.58,6.24,13.49,9.9,21.86,10.1c22.23,0,41.46-26.99,42.71-60.17c0.77-19.96-5.21-38.57-16-49.79
		C848.66,220.97,840.74,217.31,832.36,217.12z M874.03,277.15L874.03,277.15z"/>
	<path class="st6" d="M800.04,275.71c0,0,16.77,16.16,23.56,36.94c5.86-16.16,14.61-38.81,35.44-64.17
		c-25.2,16.73-34.79,37.72-34.79,37.72C817.22,280.66,808.88,277.04,800.04,275.71z"/>
	<path class="st6" d="M822.48,720.09c-3.6-0.03-7.03-1.56-9.46-4.22c-3.87-4.33-5.83-10.04-5.44-15.84c0.44-11.03,7.78-20,16.37-20
		c3.6,0.04,7.03,1.58,9.46,4.24c3.85,4.31,5.8,9.99,5.42,15.76l0,0C838.43,711.12,831.07,720.09,822.48,720.09z M823.96,682.16
		c-7.46,0-13.84,8.08-14.14,17.94c-0.38,5.21,1.36,10.35,4.83,14.26c2.03,2.24,4.9,3.54,7.92,3.58c7.46,0,13.84-8.08,14.14-17.92
		c0.38-5.22-1.36-10.37-4.83-14.29C829.85,683.49,826.98,682.2,823.96,682.16z M837.78,700.06L837.78,700.06z"/>
	<path class="st6" d="M846.39,103.2c-1.67-0.04-3.25-0.77-4.36-2.02c-1.71-1.92-2.58-4.45-2.4-7.01c0.18-4.89,3.5-8.87,7.37-8.87
		c1.67,0.04,3.25,0.77,4.36,2.02c1.72,1.91,2.6,4.44,2.42,7.01C853.6,99.22,850.27,103.2,846.39,103.2z M846.99,87.52
		c-2.75,0-5.11,3.05-5.25,6.81c-0.13,1.98,0.52,3.93,1.82,5.44c0.72,0.81,1.75,1.28,2.83,1.29c2.75,0,5.11-3.05,5.25-6.81
		c0.14-1.99-0.51-3.95-1.82-5.46C849.1,87.99,848.07,87.53,846.99,87.52z"/>
</g>
<g id="freepik--Character--inject-13">
	<path class="st7" d="M561.01,148.92c-23.14-3.09-35.64,10.93-29.06,36.37c6.2,23.96-5.8,20.77-8.08,43.46
		c-2.28,22.69,16.43,23.62,22.51,42.15c6.08,18.53,39.68,39.58,52.82,30.09s39.2-7.31,41.58-38.67
		c2.38-31.36-22.43-33.06-13.92-50.19c11.07-22.23-13.46-16.81-13.46-45.14C613.46,144.17,580.38,119.46,561.01,148.92z"/>
	<path class="st11" d="M531.89,269.65c-0.51,9.68-1.39,19.03-2.81,28.55c-1.24,9.84-3.4,19.54-6.45,28.97
		c-0.95,2.75-2.15,5.41-3.6,7.94c-0.99,1.72-2.21,3.29-3.62,4.69l-0.71,0.65l-0.38,0.3l-0.22,0.18l-0.85,0.59l-1.68,1.17
		c-4.27,2.74-8.77,5.12-13.44,7.11c-8.85,3.88-18.04,6.93-27.46,9.09l-3.25-8.95c7.98-4.42,16.16-8.95,23.64-13.64
		c3.65-2.23,7.16-4.69,10.51-7.35l1.09-0.95l0.57-0.46v-0.1l0,0l0,0c0,0,0.22-0.38,0.51-0.97c0.72-1.6,1.32-3.26,1.8-4.95
		c1.15-4.11,2.05-8.29,2.71-12.51c0.77-4.36,1.39-8.83,1.92-13.34c1.03-8.97,1.92-18.18,2.61-27.14L531.89,269.65z"/>
	<path class="st11" d="M473.38,350.15l-15.44-4.77l2.89,18.67c0,0,10.1-1.25,14.97-6.89L473.38,350.15z"/>
	<path class="st11" d="M445.33,357.4l0.85,2.44c1,2.85,3.75,4.7,6.77,4.57l7.88-0.36l-2.89-18.67l-8.67,3.39
		C445.86,350.13,444.12,353.93,445.33,357.4z"/>
	<path class="st8" d="M550.14,251.61c0,5.84-2.83,17.34-5.23,25.98c-1.78,6.22-3.27,10.95-3.27,10.95l-3.54-0.89l-29.2-7.4
		c-0.46-14.99,0.12-31.48,15.03-41.34C533.33,232.73,550.06,241.22,550.14,251.61z"/>
	<g class="st12">
		<path d="M550.14,251.61c0,5.84-2.83,17.34-5.23,25.98c-1.78,6.22-3.27,10.95-3.27,10.95l-3.54-0.89l-29.2-7.4
			c-0.46-14.99,0.12-31.48,15.03-41.34C533.33,232.73,550.06,241.22,550.14,251.61z"/>
	</g>
	<path class="st13" d="M550.1,252.62c-1.9-2.02-6.22-2.36-15.64,0.63c-13.5,4.26-17.28,19.05-17.46,29.08l21.09,5.33l1.82,0.46
		l1.72,0.42c0,0,0.75-2.36,1.8-5.96l0,0c0.42-1.47,0.95-3.17,1.45-4.99C547.19,269.43,549.85,258.68,550.1,252.62z"/>
	<polygon class="st11" points="490.21,720.77 472.39,714.53 483.58,675.94 501.38,682.2 	"/>
	<polygon class="st11" points="728.27,675.05 713.78,685.84 684.1,655.75 698.59,644.94 	"/>
	<path class="st7" d="M707.84,681.45l15.66-12.95c0.54-0.48,1.36-0.48,1.9,0l12.02,10.91c1.15,1.11,1.18,2.94,0.08,4.09
		c-0.08,0.08-0.17,0.16-0.26,0.24c-5.54,4.42-8.45,6.28-15.32,11.96c-4.24,3.5-13.09,11.86-18.95,16.69s-10.95-0.69-8.93-3.23
		c8.97-11.36,11.05-18.83,12.12-24.97C706.38,683.1,706.98,682.14,707.84,681.45z"/>
	<path class="st7" d="M471.17,708.97l19.8,8.26c0.72,0.32,1.15,1.08,1.05,1.86l-2.24,17.46c-0.18,1.46-1.51,2.5-2.97,2.33
		c-0.26-0.03-0.51-0.1-0.75-0.2c-7.01-2.85-10.3-4.26-18.99-7.9l-26.69-11.11c-7.23-3.03-5.68-10.97-2.4-10.39
		c14.65,2.65,24.08,1.78,29.86-0.4C468.92,708.47,470.12,708.51,471.17,708.97z"/>
	<polygon class="st14" points="483.58,675.96 477.82,695.84 495.16,703.68 501.4,682.2 	"/>
	<polygon class="st14" points="698.61,644.94 684.1,655.75 699.39,671.27 713.9,660.46 	"/>
	<path class="st8" d="M604.93,345.96l-73.41,1.05c-10.1-56.82-12.43-83.95-12.43-96.99c-0.02-6.71,4.72-12.48,11.29-13.78
		c4.49-0.87,10.1-1.88,15.66-2.65c1.92-0.26,3.86-0.51,5.76-0.71c11.08-0.96,22.22-1.12,33.32-0.48c1.66,0,3.29,0.14,4.93,0.24
		c7.44,0.48,14.43,1.43,19.34,2.2c3.67,0.58,6.17,4.03,5.59,7.7c-0.02,0.13-0.04,0.25-0.07,0.38c-2.14,10.1-3.9,18.97-5.31,26.91
		c-2.24,12.63-3.66,22.83-4.49,31.78C603.87,316.38,603.81,331.21,604.93,345.96z"/>
	<g class="st12">
		<path d="M604.93,345.96l-73.41,1.05c-10.1-56.82-12.43-83.95-12.43-96.99c-0.02-6.71,4.72-12.48,11.29-13.78
			c4.49-0.87,10.1-1.88,15.66-2.65c1.92-0.26,3.86-0.51,5.76-0.71c11.08-0.96,22.22-1.12,33.32-0.48c1.66,0,3.29,0.14,4.93,0.24
			c7.44,0.48,14.43,1.43,19.34,2.2c3.67,0.58,6.17,4.03,5.59,7.7c-0.02,0.13-0.04,0.25-0.07,0.38c-2.14,10.1-3.9,18.97-5.31,26.91
			c-2.24,12.63-3.66,22.83-4.49,31.78C603.87,316.38,603.81,331.21,604.93,345.96z"/>
	</g>
	<path class="st13" d="M605.12,301.69c-3.7-11.07-3.5-34.07,0.48-41.52l4.04,9.74C607.36,282.54,605.94,292.74,605.12,301.69z"/>
	<path class="st11" d="M579.66,209.72c-0.34,9.01,0.73,18.37,5.5,22.77c0,0-7.88,10.28-26.43,20.39c-9.82-9.46-6.91-19.9-6.91-19.9
		c11.92-3.03,12.12-10.97,8.63-24.15l9.46-3.84c2.44-2.15,6.15-1.91,8.3,0.52C579.22,206.67,579.74,208.18,579.66,209.72z"/>
	<path class="st14" d="M569.92,204.99c2.45-2.14,6.16-1.88,8.3,0.56c0.81,0.92,1.3,2.08,1.42,3.3
		c-4.17,6.43-10.27,11.38-17.42,14.14c0.3-4.82-0.3-9.66-1.78-14.26L569.92,204.99z"/>
	<path class="st11" d="M596.73,183.25c-6.38,16.77-8.75,23.98-20.21,30.07c-17.11,9.13-36.37-2.38-35.04-20.73
		c1.13-16.51,11.4-41.14,30.31-42.71c13.46-1.21,25.35,8.73,26.55,22.19C598.69,175.87,598.14,179.7,596.73,183.25z"/>
	<path class="st7" d="M564.62,149.79c-11.9,16.79,22.23,12.67,20.53,24.51c-0.99,7.19-11.25,20.59,6.77,23.09
		s22.49-26.91,13.21-37.97S576.32,141.2,564.62,149.79z"/>
	<path class="st7" d="M568.4,149.29c-2.47,6.06-15.58,14.37-20.37,12.83C549.49,154.86,561.71,147.97,568.4,149.29z"/>
	<path class="st11" d="M595.64,200.37c-1.81,2.96-4.71,5.09-8.08,5.92c-4.49,1.05-6.53-2.99-5.13-7.13c1.25-3.7,5.11-8.73,9.52-7.94
		c3.19,0.62,5.27,3.7,4.66,6.89C596.44,198.91,596.12,199.69,595.64,200.37z"/>
	<path class="st8" d="M531.53,347.02c0,0-12.43,106.85-23.88,173.36C498.67,572.49,476,680.99,476,680.99l29.42,10.43
		c0,0,33.7-113.15,39.6-161.4c23.76-69.63,40.84-183.59,40.84-183.59L531.53,347.02z"/>
	<polygon class="st7" points="471.21,688.32 505.28,700.33 509.83,689.4 472.89,675.27 	"/>
	<path class="st13" d="M568.73,378.76l-10.99,21.07c-4.04,15.88-3.07,54.55,2.02,78.98c9.15-36.83,16.47-75.59,21.01-101.59
		L568.73,378.76z"/>
	<path class="st8" d="M547.47,347.02c0,0,13.15,119.58,37.7,185.89c12.31,33.32,103.65,132.02,103.65,132.02l20.61-16.49
		c0,0-57.93-99.59-83.25-125.62c-10.32-57.85,2.65-144.47-21.34-176.9L547.47,347.02z"/>
	<polygon class="st7" points="690.58,672.08 714.75,652.26 708.22,641.55 681.75,664.58 	"/>
	<path class="st7" d="M606.06,341.66l3.39,6.51c0.26,0.51-0.32,1.05-1.17,1.05l-77,1.11c-0.67,0-1.21-0.32-1.27-0.73l-0.75-6.57
		c0-0.44,0.53-0.85,1.23-0.85l74.36-1.07C605.32,341.07,605.78,341.28,606.06,341.66z"/>
	<path class="st8" d="M596.1,350.11h2.02c0.38,0,0.69-0.22,0.67-0.46l-1.07-8.53c0-0.26-0.36-0.44-0.77-0.44h-2.02
		c-0.38,0-0.69,0.22-0.65,0.46l1.05,8.53C595.36,349.9,595.72,350.11,596.1,350.11z"/>
	<path class="st8" d="M536.8,350.96h2.02c0.4,0,0.69-0.22,0.67-0.46l-1.05-8.53c0-0.26-0.38-0.46-0.79-0.44h-2.02
		c-0.4,0-0.71,0.22-0.67,0.46l1.05,8.53C536.05,350.75,536.42,350.96,536.8,350.96z"/>
	<path class="st8" d="M566.46,350.47h2.02c0.4,0,0.71-0.22,0.67-0.46l-1.05-8.53c0-0.26-0.38-0.46-0.77-0.44h-2.02
		c-0.4,0-0.69,0.22-0.67,0.46l1.05,8.53C565.65,350.33,566.06,350.47,566.46,350.47z"/>
	<path class="st7" d="M567.23,179.15c-0.42,1.39-1.52,2.28-2.42,2.02s-1.29-1.64-0.87-3.03c0.42-1.39,1.54-2.3,2.44-2.02
		C567.29,176.4,567.67,177.76,567.23,179.15z"/>
	<path class="st7" d="M551.51,174.22c-0.44,1.39-1.54,2.28-2.44,2.02c-0.91-0.26-1.29-1.64-0.85-3.03c0.44-1.39,1.52-2.28,2.42-2.02
		S551.93,172.83,551.51,174.22z"/>
	<path class="st7" d="M551.03,171.39l-3.03-2.02C547.99,169.37,548.88,172.52,551.03,171.39z"/>
	<path class="st15" d="M555.39,177.9c-2.23,2.79-4.83,5.26-7.74,7.33c1.12,1.47,2.82,2.38,4.67,2.49L555.39,177.9z"/>
	<path class="st7" d="M556.97,195.43c-0.15-0.11-0.2-0.3-0.14-0.46c0.08-0.23,0.32-0.35,0.55-0.28c3.48,1.18,7.32,0.63,10.32-1.5
		c0.18-0.15,0.46-0.12,0.61,0.06c0.15,0.18,0.12,0.46-0.06,0.61c-3.22,2.32-7.37,2.94-11.13,1.66L556.97,195.43z"/>
	<path class="st7" d="M573.27,175.39c-0.12-0.1-0.21-0.22-0.26-0.36c-0.67-2.07-2.29-3.7-4.36-4.36c-0.46-0.11-0.75-0.57-0.65-1.03
		c0.11-0.46,0.57-0.75,1.03-0.65c2.64,0.81,4.72,2.84,5.6,5.46c0.16,0.45-0.06,0.94-0.51,1.11
		C573.83,175.65,573.51,175.58,573.27,175.39z"/>
	<path class="st7" d="M546.82,165.19c0,0,0-0.1,0-0.14c-0.09-0.46,0.22-0.9,0.68-0.99c0,0,0,0,0.01,0c2.7-0.55,5.51,0.25,7.52,2.14
		c0.33,0.33,0.34,0.87,0.01,1.2c0,0-0.01,0.01-0.01,0.01c-0.34,0.33-0.87,0.33-1.21,0c-1.63-1.5-3.9-2.11-6.06-1.64
		C547.34,165.83,546.95,165.58,546.82,165.19z"/>
	<path class="st8" d="M477.11,245c-2.99-4.83-5.58-14.26-0.46-19.6s9.09-6.85,7.82-16.16c-1.27-9.31,12.95-9.05,14.14-16.16
		c7.09,6.06,14.61,20.21,10.59,26.69c-4.02,6.49-1.86,11.36-2.73,19.22C505.6,246.84,488.43,263.3,477.11,245z"/>
	<path class="st16" d="M477.11,245c-2.99-4.83-5.58-14.26-0.46-19.6s9.09-6.85,7.82-16.16c-1.27-9.31,12.95-9.05,14.14-16.16
		c7.09,6.06,14.61,20.21,10.59,26.69c-4.02,6.49-1.86,11.36-2.73,19.22C505.6,246.84,488.43,263.3,477.11,245z"/>
	<path class="st8" d="M499.2,208.04c-3.43,21.58-9.76,46.78-18.83,65.51c2.21-0.18,4.28-1.14,5.84-2.71
		C486.21,270.84,500.57,231.82,499.2,208.04z"/>
	<path class="st8" d="M470.3,255.61c-4.55-3.39-10.41-11.21-7.64-18.06c2.77-6.85,5.94-9.72,1.31-17.92
		c-4.63-8.2,8.73-13.21,7.21-20.21c8.87,3.11,21.05,13.48,19.66,20.91s2.44,11.25,4.53,18.87S487.58,268.46,470.3,255.61z"/>
	<path class="st17" d="M470.3,255.61c-4.55-3.39-10.41-11.21-7.64-18.06c2.77-6.85,5.94-9.72,1.31-17.92
		c-4.63-8.2,8.73-13.21,7.21-20.21c8.87,3.11,21.05,13.48,19.66,20.91s2.44,11.25,4.53,18.87S487.58,268.46,470.3,255.61z"/>
	<path class="st8" d="M502.78,262.11c4.77-0.34,12.51-3.23,13.66-9.38s0.2-9.62,7.23-13.36c7.03-3.74-0.2-13.36,4.04-17.64
		c-7.72-1.82-21.09,0-23.52,5.94c-2.42,5.94-6.85,6.87-11.8,11.36C487.44,243.52,484.63,263.41,502.78,262.11z"/>
	<path class="st18" d="M502.78,262.11c4.77-0.34,12.51-3.23,13.66-9.38s0.2-9.62,7.23-13.36c7.03-3.74-0.2-13.36,4.04-17.64
		c-7.72-1.82-21.09,0-23.52,5.94c-2.42,5.94-6.85,6.87-11.8,11.36C487.44,243.52,484.63,263.41,502.78,262.11z"/>
	<path class="st8" d="M476.2,221.94c3.62,18.89,5.35,41.38,2.02,58.92c2.15-0.43,4.08-1.64,5.39-3.39
		C483.62,277.47,485.74,241.81,476.2,221.94z"/>
	<path class="st8" d="M513.97,232.27c-12.65,13.86-26.17,31.58-33.86,47.7c-1.06-1.58-1.52-3.48-1.31-5.37
		C478.79,274.6,497.28,244.07,513.97,232.27z"/>
	<path class="st8" d="M456.91,251.22c-5.72-3.13-17.01,5.62-11.07,15.78c5.94,10.16,18.18,14.87,23.84,9.42
		c7.8-1.39,11.19-14,6.51-24.79C471.5,240.84,457.78,244.76,456.91,251.22z"/>
	<path class="st7" d="M456.91,251.22c0,0-2.02-6.57,1.31-8.67c0.45,0.57,0.87,1.16,1.25,1.78
		C459.47,244.33,457.21,244.96,456.91,251.22z"/>
	<path class="st8" d="M521.55,234.09c-0.69,13.88-14.95,24.43-30.45,27.82c-0.95,0.98-1.65,2.18-2.02,3.5
		c-0.27,0.62-0.07,1.35,0.48,1.74c1.17,0.97,2.56,1.66,4.04,2.02c8.19,0.2,16.17-2.57,22.47-7.8c8.08-6.18,15.46-18.43,13.13-24.1
		s-4.16-3.78-5.05-8.08c-0.49-1.75-0.71-3.56-0.63-5.37c0,0-2.02,0.95-2.53,2.18C521.67,227.72,521.77,229.56,521.55,234.09z"/>
	<path class="st14" d="M529.28,237.32c-0.53-1.52-1.4-2.91-2.55-4.04c0.16,4.57-1.01,10.1-6.06,18.18
		c-5.27,8.45-19.42,15.96-31.62,15.21c0.1,0.2,0.24,0.36,0.42,0.48c1.17,0.97,2.56,1.66,4.04,2.02c8.19,0.2,16.17-2.57,22.47-7.8
		C524.09,255.26,531.53,243.02,529.28,237.32z"/>
	<path class="st7" d="M521.59,228.83c-0.3-1.04-0.65-2.07-1.05-3.07c0.83-1.07,1.95-1.88,3.23-2.32v3.33
		C523.77,226.77,522.66,228.69,521.59,228.83z"/>
	<path class="st7" d="M489.56,264.03c-0.31,0.34-0.6,0.7-0.87,1.07c-0.28,0.82-0.01,1.74,0.69,2.26c0.25,0.27,0.6,0.42,0.97,0.42
		c-0.39-0.62-0.68-1.3-0.85-2.02C489.49,265.19,489.51,264.61,489.56,264.03z"/>
	<path class="st8" d="M532.66,240.35c-3.58,13.42-19.72,20.75-35.6,20.83c-1.16,0.74-2.11,1.76-2.77,2.97
		c-0.43,0.53-0.43,1.29,0,1.82c0.96,1.24,2.2,2.24,3.62,2.91c1.62,0.42,11.17,3.07,23.6-2.91c9.11-4.4,18.95-14.81,17.88-20.83
		c-1.07-6.02-3.29-4.57-3.25-8.93c-0.14-1.81,0.03-3.62,0.51-5.37c-1.1,0.24-2.12,0.79-2.93,1.58
		C534.09,234.13,533.81,235.97,532.66,240.35z"/>
	<path class="st14" d="M539.49,245.14c-0.19-1.61-0.75-3.16-1.64-4.53c-0.81,4.51-3.11,9.74-9.68,16.51
		c-6.91,7.15-22.23,11.58-34.09,8.28c0.05,0.21,0.16,0.4,0.3,0.57c0.96,1.24,2.2,2.23,3.62,2.91c1.62,0.42,11.17,3.05,23.6-2.93
		C530.72,261.57,540.56,251.16,539.49,245.14z"/>
	<path class="st7" d="M533.79,235.3c0,0-0.18-2.36-0.38-3.21c1.04-0.87,2.3-1.42,3.64-1.6l-0.73,3.25
		C536.32,233.74,534.86,235.3,533.79,235.3z"/>
	<path class="st7" d="M495.12,262.94c0,0-0.71,0.53-1.07,0.87c-0.44,0.74-0.36,1.69,0.2,2.34c0.48,0.61,0.87,0.63,0.87,0.63
		c-0.26-0.69-0.4-1.41-0.42-2.14C494.81,263.95,495.12,262.94,495.12,262.94z"/>
	
		<rect x="450.53" y="261.65" transform="matrix(0.9907 -0.1361 0.1361 0.9907 -38.5287 71.0237)" class="st8" width="99.55" height="111.43"/>
	
		<rect x="450.53" y="261.65" transform="matrix(0.9907 -0.1361 0.1361 0.9907 -38.5287 71.0237)" class="st9" width="99.55" height="111.43"/>
	
		<rect x="520.38" y="256.88" transform="matrix(0.9907 -0.1361 0.1361 0.9907 -37.5569 75.709)" class="st19" width="29.38" height="111.43"/>
	<polygon class="st19" points="557.23,365.79 541.21,357.18 527.51,257.4 542.05,255.4 	"/>
	<polygon class="st20" points="541.21,357.18 528.11,369.79 557.23,365.79 	"/>
	<path class="st11" d="M573.13,350.31l-15.03-5.9l1.47,18.83c0,0,10.1-0.48,15.46-5.76L573.13,350.31z"/>
	<path class="st11" d="M620.55,256.46c4.04,11.32,7.52,22.55,10.51,34.19c1.5,5.8,2.91,11.64,4.04,17.7
		c0.55,3.01,1.03,6.06,1.39,9.25c0.4,3.35,0.54,6.73,0.42,10.1c-0.07,2.19-0.41,4.36-1.01,6.47c-0.82,2.59-2.2,4.97-4.04,6.97
		c-2.69,2.88-5.89,5.23-9.44,6.95c-5.79,2.82-11.9,4.95-18.18,6.36c-11.76,2.73-23.76,4.33-35.82,4.79l-1.17-9.46
		c5.5-1.31,11.13-2.77,16.61-4.3c5.48-1.54,10.93-3.23,16.16-5.15c4.99-1.71,9.81-3.91,14.37-6.57c1.66-0.97,3.14-2.21,4.38-3.68
		c0.32-0.51,0.32-0.65,0.26-0.65c0.05-0.74,0.05-1.48,0-2.22c-0.09-2.44-0.35-4.87-0.77-7.27c-0.4-2.63-0.95-5.31-1.56-8.08
		c-1.27-5.39-2.67-10.89-4.24-16.39c-3.15-10.91-6.69-22-10.24-32.77L620.55,256.46z"/>
	<path class="st11" d="M544.16,353.7l1.17,4.36c0.77,2.85,3.32,4.85,6.26,4.93l8.08,0.22l-1.47-18.83l-8.24,0.95
		c-3.68,0.37-6.36,3.65-5.99,7.32C544,353.01,544.07,353.36,544.16,353.7z"/>
	<path class="st8" d="M611.99,235.4c8.45,3.43,15.36,31.2,15.36,31.2L604,284.78c0,0-16.53-25.88-13.15-37.12
		C593.72,238.19,601.24,231.06,611.99,235.4z"/>
	<g class="st12">
		<path d="M611.99,235.4c8.45,3.43,15.36,31.2,15.36,31.2L604,284.78c0,0-16.53-25.88-13.15-37.12
			C593.72,238.19,601.24,231.06,611.99,235.4z"/>
	</g>
	<path class="st7" d="M702.12,689.29h-0.3c-0.86-0.05-1.63-0.55-2.02-1.31c-0.3-0.43-0.35-1-0.12-1.48
		c1.03-2.02,7.52-2.83,8.24-2.91c0.17-0.03,0.35,0.06,0.42,0.22c0.09,0.14,0.09,0.32,0,0.46
		C706.97,686.12,704.34,689.13,702.12,689.29z M707.03,684.59c-2.59,0.38-6.06,1.21-6.55,2.3c-0.12,0.2-0.12,0.45,0,0.65
		c0.24,0.52,0.74,0.86,1.31,0.89c1.25,0.06,3.27-1.35,5.29-3.84L707.03,684.59z"/>
	<path class="st7" d="M707.62,684.51c-2.2,0.14-6.57-0.77-7.5-2.47c-0.33-0.62-0.17-1.39,0.36-1.84c0.45-0.48,1.1-0.74,1.76-0.71
		c2.63,0,5.96,4.04,6.06,4.26c0.08,0.12,0.08,0.28,0,0.4c-0.04,0.15-0.17,0.26-0.32,0.28L707.62,684.51z M702.04,680.34
		c-0.35,0.03-0.68,0.19-0.93,0.44c-0.38,0.4-0.32,0.67-0.22,0.85c0.59,1.11,4.04,2.02,6.24,2.02c-1.19-1.27-3.35-3.27-4.91-3.33
		L702.04,680.34z"/>
	<path class="st7" d="M461.03,708.57c-1.38-0.46-2.59-1.33-3.48-2.49c-0.42-0.7-0.49-1.56-0.2-2.32c0.14-0.44,0.5-0.77,0.95-0.87
		c2.3-0.44,7.76,5.42,8.83,6.61c0.1,0.15,0.1,0.34,0,0.48c-0.09,0.17-0.28,0.25-0.46,0.22C464.74,709.85,462.85,709.3,461.03,708.57
		z M459.31,703.84c-0.26-0.13-0.56-0.19-0.85-0.16c0,0-0.22,0-0.3,0.3c-0.21,0.53-0.16,1.13,0.14,1.62
		c0.79,1.35,3.48,2.63,7.29,3.46C463.78,707.01,461.66,705.25,459.31,703.84z"/>
	<path class="st7" d="M466.65,710.13c-0.05-0.02-0.1-0.06-0.14-0.1c-1.86-1.84-4.85-7.33-3.82-9.09c0.24-0.38,0.73-0.79,1.8-0.48
		c4.04,1.17,2.81,9.01,2.75,9.36c-0.02,0.16-0.14,0.29-0.3,0.32C466.84,710.17,466.74,710.17,466.65,710.13z M464.63,701.36h-0.28
		c-0.42-0.12-0.71-0.1-0.81,0c-0.61,1.03,1.31,5.17,3.07,7.37C466.65,706.79,466.89,702.35,464.63,701.36z"/>
	<path class="st7" d="M566.77,176.32l-3.05-2.02C563.71,174.3,564.62,177.45,566.77,176.32z"/>
</g>
</svg>
