<?xml version="1.0" encoding="utf-8"?>
<!-- Generator: Adobe Illustrator 23.1.0, SVG Export Plug-In . SVG Version: 6.00 Build 0)  -->
<svg version="1.1" id="Layer_1" xmlns="http://www.w3.org/2000/svg" xmlns:xlink="http://www.w3.org/1999/xlink" x="0px" y="0px"
	 viewBox="0 0 1366 768" style="enable-background:new 0 0 1366 768;" xml:space="preserve">
<style type="text/css">
	.st0{fill:#EBEBEB;}
	.st1{fill:#E6E6E6;}
	.st2{fill:#FFFFFF;}
	.st3{fill:#F5F5F5;}
	.st4{fill:#FF81AE;}
	.st5{opacity:0.2;fill:#FFFFFF;enable-background:new    ;}
	.st6{opacity:0.5;fill:#FFFFFF;enable-background:new    ;}
	.st7{fill:#DD8C6A;}
	.st8{opacity:0.1;enable-background:new    ;}
	.st9{opacity:0.2;fill:#C13B37;enable-background:new    ;}
	.st10{fill:#263238;}
	.st11{fill:#C13B37;}
	.st12{opacity:0.4;fill:#FFFFFF;enable-background:new    ;}
	.st13{opacity:0.4;}
	.st14{opacity:0.9;}
	.st15{fill:#FFB573;}
	.st16{opacity:0.2;enable-background:new    ;}
	.st17{fill:#FF5652;}
	.st18{fill:#EFB69A;}
	.st19{opacity:0.3;}
	.st20{fill:#ED893E;}
	.st21{fill:#EA6B3F;}
	.st22{opacity:0.1;fill:#FFFFFF;enable-background:new    ;}
	.st23{opacity:0.2;}
	.st24{fill:#B25B52;}
	.st25{fill:#9D2724;}
	.st26{opacity:0.3;enable-background:new    ;}
	.st27{opacity:0.5;enable-background:new    ;}
	.st28{opacity:0.5;}
	.st29{fill:#4F0F1A;}
	.st30{opacity:0.7;fill:#FFFFFF;enable-background:new    ;}
</style>
<g id="freepik--background-complete--inject-41">
	<rect x="1020.45" y="702.71" class="st0" width="67.08" height="0.51"/>
	<rect x="829.55" y="708.21" class="st0" width="17.6" height="0.51"/>
	<rect x="979.55" y="683.91" class="st0" width="38.87" height="0.51"/>
	<rect x="282.55" y="687.31" class="st0" width="87.48" height="0.51"/>
	<rect x="388.07" y="687.31" class="st0" width="12.82" height="0.51"/>
	<rect x="442.58" y="695.86" class="st0" width="189.74" height="0.51"/>
	<path class="st0" d="M656.32,579.78H265.23c-6.38-0.01-11.54-5.19-11.54-11.57V18.46c0.06-6.34,5.2-11.45,11.54-11.46h391.08
		c6.39,0,11.57,5.18,11.57,11.57c0,0,0,0,0,0v549.65C667.88,574.61,662.71,579.78,656.32,579.78z M265.23,7.41
		c-6.1,0.01-11.04,4.96-11.04,11.06v549.75c0,6.1,4.94,11.05,11.04,11.06h391.08c6.1-0.01,11.05-4.96,11.06-11.06V18.46
		c-0.01-6.1-4.96-11.05-11.06-11.06H265.23z"/>
	<path class="st0" d="M1094.43,579.78H703.33c-6.38-0.01-11.55-5.18-11.57-11.57V18.46c0.07-6.34,5.22-11.45,11.57-11.46h391.11
		c6.33,0.02,11.47,5.13,11.52,11.46v549.75C1105.96,574.59,1100.81,579.76,1094.43,579.78z M703.33,7.41
		c-6.1,0.01-11.05,4.96-11.06,11.06v549.75c0.01,6.1,4.96,11.05,11.06,11.06h391.11c6.1-0.01,11.05-4.96,11.06-11.06V18.46
		c-0.01-6.1-4.96-11.05-11.06-11.06H703.33z"/>
	<rect x="176.3" y="670.12" class="st0" width="1012.7" height="0.51"/>
	<path class="st0" d="M973.82,277.7c0,10.87,8.45,19.86,19.3,20.54c0.43,0,55.17,0,55.7,0c11.33-0.93,19.75-10.87,18.82-22.2
		c-0.82-9.93-8.64-17.85-18.56-18.8c-1.13-16.21-15.19-28.44-31.4-27.31c-14.76,1.03-26.47,12.86-27.33,27.64
		C980.75,259.49,973.84,267.91,973.82,277.7z"/>
	<path class="st0" d="M404.24,537.96c0,10.87,8.46,19.85,19.3,20.52c0.41,0,55.17,0,55.68,0c11.35-0.63,20.04-10.34,19.41-21.69
		c-0.58-10.36-8.77-18.67-19.12-19.39c-1.13-16.21-15.19-28.44-31.4-27.31c-14.76,1.03-26.47,12.86-27.33,27.64
		C411.13,519.66,404.21,528.13,404.24,537.96z"/>
	<path class="st0" d="M292.01,109.3c0.01,17.48,13.61,31.93,31.05,33.01c0.69,0,88.75,0,89.58,0c18.22-1.44,31.83-17.37,30.39-35.59
		c-1.27-16.06-13.91-28.87-29.95-30.35c-1.46-26.1-23.81-46.07-49.91-44.61c-24.26,1.36-43.55,20.87-44.64,45.14
		C303.11,80.01,292.02,93.56,292.01,109.3z"/>
	<circle class="st1" cx="1026.08" cy="72.58" r="41.44"/>
	<path class="st2" d="M1026.18,114.95c-23.41-0.51-41.97-19.9-41.45-43.31c0.5-22.69,18.77-40.96,41.45-41.45v1.86
		c-22.37,0-40.51,18.14-40.51,40.51s18.14,40.51,40.51,40.51V114.95z"/>
	<path class="st2" d="M1026.18,114.95v-1.86c22.37,0,40.51-18.14,40.51-40.51s-18.14-40.51-40.51-40.51v-1.86
		c23.41-0.51,42.8,18.05,43.31,41.45c0.51,23.41-18.05,42.8-41.45,43.31c-0.62,0.01-1.24,0.01-1.85,0V114.95z"/>
	<path class="st2" d="M1047.85,72.58h-1.86c0-13.73-6.99-32.12-20.25-40.67l0.99-1.56C1040.58,39.26,1047.85,58.34,1047.85,72.58z"
		/>
	<path class="st2" d="M1026.68,113.56l-0.99-1.58c13.31-8.55,20.25-26.92,20.25-40.67h1.86
		C1047.85,85.57,1040.58,104.64,1026.68,113.56z"/>
	<path class="st2" d="M1006.39,72.56h-1.86c0-14.18,7.27-33.32,21.17-42.23l0.99,1.58C1013.36,40.46,1006.39,58.83,1006.39,72.56z"
		/>
	<path class="st2" d="M1025.69,113.54c-13.89-8.91-21.17-27.99-21.17-42.23h1.86c0,13.73,6.97,32.12,20.25,40.67L1025.69,113.54z"/>
	<rect x="1025.25" y="31.12" class="st2" width="1.86" height="82.9"/>
	<rect x="991.1" y="49.55" class="st2" width="70.16" height="1.86"/>
	<rect x="984.76" y="72.34" class="st2" width="82.86" height="1.86"/>
	<rect x="992.03" y="95.1" class="st2" width="68.32" height="1.86"/>
	<path class="st1" d="M778.21,72.95v46.58c0,2.43,1.97,4.4,4.4,4.4l0,0h69.01l17.01,13.17c1.45,1.07,3.49,0.77,4.56-0.67
		c0.42-0.56,0.64-1.24,0.64-1.94v-10.55h2.65c2.43,0,4.4-1.97,4.4-4.4v0V72.95c0-2.42-1.96-4.37-4.37-4.37c-0.01,0-0.01,0-0.02,0
		h-93.9C780.17,68.57,778.21,70.53,778.21,72.95L778.21,72.95z"/>
	<path class="st1" d="M868.01,137.78l-16.75-12.94H782.6c-2.97-0.01-5.37-2.42-5.37-5.39V72.87c0-2.95,2.39-5.35,5.35-5.35l0,0
		h93.92c2.96,0,5.36,2.39,5.37,5.35v46.58c-0.01,2.97-2.42,5.38-5.39,5.39h-1.66v9.56c0.01,2.34-1.87,4.24-4.21,4.25
		C869.67,138.66,868.76,138.35,868.01,137.78L868.01,137.78z M876.48,69.56h-93.9c-1.87,0-3.38,1.51-3.38,3.38c0,0,0,0,0,0v46.58
		c0,1.88,1.52,3.4,3.4,3.4h69.33l17.28,13.37c0.39,0.3,0.87,0.46,1.36,0.47c1.26-0.01,2.28-1.03,2.29-2.29v-11.54h3.63
		c1.88,0,3.41-1.52,3.42-3.4V72.95c-0.02-1.87-1.54-3.37-3.4-3.38L876.48,69.56z"/>
	<path class="st1" d="M528.05,150.34v-34.61c0-1.81,1.47-3.28,3.28-3.28h51.36l12.66-9.78c1.06-0.81,2.57-0.6,3.38,0.46
		c0.34,0.45,0.52,1,0.49,1.57v7.84h2.03c1.81,0.01,3.27,1.47,3.28,3.28v34.63c-0.02,1.8-1.48,3.24-3.28,3.24h-69.94
		c-1.8,0-3.26-1.46-3.26-3.26C528.05,150.39,528.05,150.37,528.05,150.34z"/>
	<path class="st1" d="M596.81,101.44c1.74,0,3.16,1.41,3.16,3.16v7.11h1.24c2.24,0,4.05,1.81,4.05,4.05v34.63
		c0,2.24-1.81,4.05-4.05,4.05h-69.9c-2.24,0-4.05-1.81-4.05-4.05v-34.67c0-2.24,1.81-4.05,4.05-4.05h51.1l12.48-9.64
		C595.45,101.63,596.13,101.43,596.81,101.44z M601.23,152.83c1.39-0.01,2.51-1.14,2.51-2.53v-34.57c0-1.4-1.13-2.53-2.53-2.53
		h-2.71v-8.59c0.01-0.93-0.73-1.69-1.66-1.7c-0.01,0-0.01,0-0.02,0c-0.37,0-0.72,0.12-1.01,0.34l-12.86,9.94h-51.61
		c-1.4-0.01-2.54,1.11-2.55,2.51c0,0.01,0,0.01,0,0.02v34.61c0,1.4,1.13,2.53,2.53,2.53h69.92V152.83z"/>
	<path class="st1" d="M1030.67,327.01v46.58c0,2.43-1.97,4.4-4.4,4.4l0,0h-69.01l-17.01,13.17c-0.58,0.44-1.3,0.67-2.03,0.65
		c-1.8,0-3.26-1.46-3.26-3.26v-10.55h-2.65c-2.43,0-4.4-1.97-4.4-4.4c0,0,0,0,0,0v-46.58c0.01-2.42,1.98-4.37,4.4-4.35c0,0,0,0,0,0
		h93.9c2.42-0.04,4.41,1.88,4.46,4.29C1030.67,326.97,1030.67,326.99,1030.67,327.01z"/>
	<path class="st1" d="M938.32,392.64c-2.34-0.01-4.23-1.91-4.23-4.25v-9.56h-1.68c-2.97-0.01-5.38-2.42-5.39-5.39v-46.42
		c0.02-2.95,2.42-5.34,5.37-5.35h93.92c2.96,0,5.36,2.39,5.37,5.35v46.58c0,2.98-2.41,5.39-5.39,5.39l0,0h-68.66l-16.75,12.84
		C940.13,392.37,939.23,392.65,938.32,392.64z M932.38,323.55c-1.87,0-3.38,1.51-3.38,3.38v0v46.58c0,1.88,1.52,3.41,3.4,3.42h3.65
		v11.52c0,1.26,1.01,2.28,2.27,2.29c0.49,0,0.97-0.16,1.36-0.47l17.28-13.35h69.33c1.89,0,3.42-1.53,3.42-3.42l0,0v-46.5
		c-0.01-1.87-1.53-3.38-3.4-3.38h-93.92L932.38,323.55z"/>
	<path class="st1" d="M305.58,355.73V305.1c0.01-2.63,2.15-4.76,4.78-4.76h74.94l18.49-14.3c0.58-0.44,1.29-0.69,2.03-0.71
		c1.95-0.01,3.53,1.56,3.54,3.5c0,0.01,0,0.01,0,0.02v11.48h2.9c2.63,0,4.77,2.13,4.78,4.76v50.64c-0.03,2.62-2.16,4.73-4.78,4.74
		H310.34C307.72,360.47,305.59,358.35,305.58,355.73z"/>
	<path class="st1" d="M405.94,284.36c2.54,0,4.61,2.06,4.62,4.6v10.41h1.82c3.22,0,5.83,2.61,5.83,5.83l0,0v50.64
		c-0.01,3.21-2.61,5.8-5.81,5.81H310.34c-3.21-0.01-5.81-2.62-5.81-5.83v-50.64c0-3.22,2.61-5.83,5.83-5.83h0h74.56l18.23-14.08
		C403.95,284.67,404.93,284.35,405.94,284.36z M412.4,359.42c2.03,0,3.68-1.64,3.69-3.67v-50.64c0-2.05-1.66-3.71-3.71-3.71l0,0
		h-4.05v-12.54c-0.01-1.37-1.12-2.47-2.49-2.47c-0.53,0-1.04,0.18-1.46,0.51l-18.78,14.5h-75.24c-2.05,0-3.71,1.66-3.71,3.71l0,0
		v50.64c0.02,2.02,1.66,3.66,3.69,3.67H412.4z"/>
</g>
<g id="freepik--Shadow--inject-41">
	<ellipse id="freepik--path--inject-41" class="st3" cx="682.65" cy="737.54" rx="392.71" ry="22.93"/>
</g>
<g id="freepik--Earth--inject-41">
	
		<ellipse transform="matrix(0.7071 -0.7071 0.7071 0.7071 -60.5336 589.0441)" class="st4" cx="680.77" cy="367.59" rx="209.08" ry="209.08"/>
	
		<ellipse transform="matrix(0.7071 -0.7071 0.7071 0.7071 -60.5336 589.0441)" class="st5" cx="680.77" cy="367.59" rx="209.08" ry="209.08"/>
	<path class="st6" d="M706.95,173.57l26.33,15.82v25.18c0,0-19.99-2.73-26.33-13.63c0,0,5.45-2.31-10.01-11.54
		C681.49,180.15,685.22,169.03,706.95,173.57z"/>
	<path class="st6" d="M692.49,373.6l-15.15,7.29c0,0-4.56,8.77-3.65,8.47c0.91-0.3-3.32,18.23-2.43,18.49
		c0.89,0.26-8.77,8.1-8.77,8.1l-4.56,11.22v13.02l21.89,29.69l15.98,9.09l-13.93,76.36l5.75,2.03l72.73-53.33l4.84-13.04l21.53-8.47
		l11.5-30.02l13.04-15.15c0,0,1.19-15.15,0-14.85c-1.2,0.3-6.99,2.43-6.99,2.43l-10.9-8.1c0,0-23.03-4.25-24.3-3.04
		c-1.28,1.22-4.84-14.18-4.84-14.18l-21.23-5.89l-22.12-14.54l-15.98,3.24L692.49,373.6z"/>
	<path class="st6" d="M651.24,336.15h11.71l16.67,8.73l31.11,7.8l1.46,2.49l-30.83-0.51l5.71-3.56l-4.58-2.9l-12.42-0.3l1.5-1.52
		l-12.84-6.58c0,0-8.1-1.9-8.36-0.99l-3.32,0.41L651.24,336.15z"/>
	<polygon class="st6" points="675.32,355.17 672.48,352.39 667.82,352.63 669.77,355.17 	"/>
	<path class="st6" d="M748.86,173.57h-3.65l25.9,15.53l4.05,4.44l25.46,14.66l5,6.36l4.05,14.18l13.63,10.92l-6.36,4.54l14.54,18.23
		h5.08l1.82-7.27l-10.92-22.73l15.11,8.47C842.6,240.89,810.25,190.32,748.86,173.57z"/>
	<path class="st6" d="M855.44,257.28h-3.93l-6.56-8.63l-7.01,19.08c0,0,4.33,22.28,4.66,23.64c0.32,1.36-2.03,4.56-2.03,4.56
		l2.03,24.55l5.04,8.63l3.87,20.9l17.13,23.6l13.83-19.85l2.29,4.86C884.76,358.61,887.05,308.2,855.44,257.28z"/>
	<polygon class="st6" points="753.4,193.54 748.86,193.54 748.86,199.11 753.4,201.82 757.49,201.82 757.49,197.69 	"/>
	<polygon class="st6" points="781.12,204.56 787.95,211.83 789.75,217.93 796.58,224.55 799.31,220.48 804.3,224.55 804.3,220.01 
		800.67,214.56 	"/>
	<path class="st6" d="M734.62,251.95c0,0-31.82,11.81-43.65,19.08s-9.9,22.81-9.9,22.81l-19.18,10.9l4.56,20.84l-4.54,2.73
		l-7.27-17.28c0,0-25.46-3.63-36.09-1.82c-10.63,1.8-13,22.73-13,22.73l6.36,17.28l14.54,0.91l1.82-9.99l15.45,0.89l-10.01,19.1
		l18.23,2.73l1.78,13.41l18.23,13.85c0,0,3.65,4.54,0,6.36s-89.99-49.99-98.17-62.79c-8.18-12.8-18.63-47.72-10.45-72.27
		c6.64-19.93,18.98-38.48,22.91-50.43l0,0l0.12-0.41l0,0c0.13-0.32,0.23-0.65,0.3-0.99c0.75-3.91-1.73-7.71-5.61-8.59
		c-3.18-0.91-9.09,2.73-9.09,2.73h-11.61l12.15-6.89l4.98-5.27l3.2-2.86l11.81-5l-0.45-3.63c6.85-4.14,14.4-7,22.28-8.43l-8.63,6.6
		h9.09l1.82,10.29h18.23c0,0-4.54-1.19,6.38-7.21c10.92-6.02,46.36-8.61,46.36-8.61l-10.92,15.82l23.64,13.35l-2.73,10.01
		l-16.2-4.56v-5.45l-10.13-6.08l-0.91,10.65l-3.65,4.56l-4.54-3.65l-12.82,12.74l22.81,22.28l3.65-28.58l32.73,7.27L734.62,251.95z"
		/>
	<path class="st6" d="M477.72,365.5v18.84l5.77,32.53l7.94,15.72l4.58-12.15c0,0-6.08-9.58-6.08-13.12s2.17-18.39,2.17-18.39
		l-5.31-4.64l-5.91-13.12L477.72,365.5z"/>
	<path class="st6" d="M852.11,402.48c0.53-2.03-3.1-4.84-3.1-4.84l-4.64,3.38l-8.1,12.46l6.83,6.32c1.3-1.89,3.48-2.98,5.77-2.9
		C848.73,414.73,852.11,402.48,852.11,402.48z"/>
</g>
<g id="freepik--character-6--inject-41">
	<path class="st4" d="M913.89,454.61c-0.39,0-0.77-0.11-1.09-0.32l-66.74-43c-0.97-0.55-1.31-1.79-0.76-2.76
		c0.55-0.97,1.79-1.31,2.76-0.76c0.06,0.04,0.12,0.07,0.18,0.12l66.74,43c0.94,0.61,1.21,1.86,0.6,2.8
		C915.21,454.26,914.58,454.61,913.89,454.61L913.89,454.61z"/>
	<path class="st4" d="M1058.48,503.32c-7.65,20.08-23.48,35.95-43.55,43.65c-6.68,2.62-13.7,4.25-20.84,4.86
		c-0.73,0-1.48,0.14-2.21,0.16h-0.3c-41.73,2.1-77.26-30.02-79.36-71.75c-0.38-7.48,0.36-14.98,2.19-22.25
		c0.47-1.92,1.03-3.81,1.68-5.71l0,0c0.32-0.93,0.65-1.86,1.01-2.82c14.89-39.04,58.61-58.62,97.64-43.73
		c39.04,14.89,58.62,58.61,43.73,97.64V503.32z"/>
	<path class="st5" d="M1058.48,503.32c-7.65,20.08-23.48,35.95-43.55,43.65c-6.68,2.62-13.7,4.25-20.84,4.86
		c-0.73,0-1.48,0.14-2.21,0.16h-0.3c-41.73,2.1-77.26-30.02-79.36-71.75c-0.38-7.48,0.36-14.98,2.19-22.25
		c0.47-1.92,1.03-3.81,1.68-5.71l0,0c0.32-0.93,0.65-1.86,1.01-2.82c14.89-39.04,58.61-58.62,97.64-43.73
		c39.04,14.89,58.62,58.61,43.73,97.64V503.32z"/>
	<path class="st7" d="M1005.4,484.99l-5.37,11.38c-3.34,0.82-6.64,1.82-9.88,2.98l0,0c-0.27,0.1-0.52,0.22-0.77,0.36l-2.21,2.88
		l-0.65,0.81l-1.38,1.8c0,0-2.82-1.26-5.55-2.53l-2.61-1.19c-0.34-0.14-0.67-0.29-0.99-0.47h-0.1l-0.77-0.36l-0.34-0.14l0,0
		l-0.69-0.32h-0.18l-0.87-0.43c-1.26-0.57-2.48-1.2-3.67-1.9c-1.4-0.7-2.7-1.59-3.87-2.63c-0.22-0.24-0.4-0.5-0.55-0.79
		c-0.25-0.42-0.42-0.88-0.51-1.36c-0.13-1.69-0.02-3.4,0.32-5.06c0.49-2.77,1.24-5.41,1.24-5.41l6.52-8.57
		c0.7,0.65,1.57,1.08,2.51,1.26c0,0,0.26-0.57,0.32,0c0.98,0.13,1.98-0.02,2.88-0.43c0.6-0.33,1.11-0.78,1.5-1.34l0,0l0.18-0.24
		c0.32-0.45,0.67-0.99,1.01-1.54l0.61-1.07l0.22-0.45c0.15-0.26,0.29-0.53,0.41-0.81c0.28-0.55,0.51-1.05,0.73-1.52
		c0.22-0.47,0.22-0.45,0.3-0.67c0.41-0.93,0.67-1.6,0.67-1.6l15.19-2.39l0,0h0.41h0.12c0,0,0,0.24,0,0.67l0,0
		c0,0.41-0.14,0.97-0.24,1.66c0,0.3,0,0.63-0.14,0.97c-0.02,0.17-0.02,0.34,0,0.51v0.28l0,0c0,0.85-0.2,1.78-0.32,2.73l0,0
		c0,0.03,0,0.07,0,0.1c-0.12,1.11-0.2,2.31-0.24,3.48l0,0c-0.37,2.81-0.03,5.66,0.99,8.3c0.56,0.78,1.36,1.35,2.27,1.64l0.34,0.14
		C1003.32,484.08,1004.38,484.5,1005.4,484.99z"/>
	<path class="st8" d="M983.83,465.61c-1.07,2.78-2.46,5.42-4.15,7.88c11.38,3.56,17.54-5.87,19.75-10.35L983.83,465.61z"/>
	<path class="st7" d="M1009.65,446.07c-3.79,12.33-5.14,17.62-13.02,22.48c-11.85,7.35-26.15,0-26.11-13.23
		c0-11.89,6.3-30.1,19.73-32.02c9.58-1.49,18.56,5.08,20.04,14.66c0,0.01,0,0.03,0.01,0.04
		C1010.72,440.71,1010.5,443.47,1009.65,446.07z"/>
	<path class="st9" d="M993.1,445.05c3.58-0.43,6.83,2.11,7.26,5.69c0.2,1.63-0.23,3.27-1.18,4.6c-1.33,1.87-3.57,2.87-5.85,2.61
		c-3.58-0.38-6.18-3.58-5.81-7.17c0.17-1.64,0.96-3.15,2.2-4.24C990.64,445.68,991.84,445.15,993.1,445.05z"/>
	<path class="st9" d="M973.17,442.1c-0.23-0.12-0.46-0.21-0.71-0.28c-1.17,4.14-1.85,8.4-2.03,12.7c3.54,0.33,6.68-2.27,7.01-5.81
		c0.28-2.95-1.5-5.71-4.3-6.68L973.17,442.1z"/>
	<path class="st10" d="M990.51,445.11c-0.28,0.99-1.05,1.66-1.68,1.48s-0.97-1.13-0.71-2.13s1.03-1.66,1.68-1.5
		C990.45,443.13,990.63,444.14,990.51,445.11z"/>
	<path class="st10" d="M979.13,442.06c-0.28,1.01-1.03,1.66-1.68,1.48s-0.95-1.13-0.69-2.03c0.26-0.89,1.03-1.66,1.68-1.48
		S979.39,441.04,979.13,442.06z"/>
	<path class="st10" d="M978.7,440.05l-2.21-1.34C976.49,438.71,977.2,440.92,978.7,440.05z"/>
	<path class="st11" d="M980.38,444.18c-1.47,2.07-3.2,3.94-5.16,5.55c0.87,0.97,2.12,1.53,3.42,1.54L980.38,444.18z"/>
	<path class="st10" d="M982.08,456.98c-0.51-0.04-1.02-0.12-1.52-0.26c-0.16-0.03-0.27-0.18-0.24-0.34l0,0
		c0.05-0.15,0.21-0.24,0.36-0.2c2.52,0.69,5.22,0.11,7.25-1.54c0.12-0.12,0.32-0.12,0.45,0c0.12,0.12,0.12,0.31,0,0.43
		C986.62,456.51,984.36,457.21,982.08,456.98z"/>
	<path class="st10" d="M993.39,440.07c-0.27,0.04-0.53-0.1-0.65-0.34c-1.12-1.66-2.88-2.77-4.86-3.08
		c-0.33-0.04-0.57-0.34-0.53-0.68c0,0,0-0.01,0-0.01c0.04-0.32,0.34-0.55,0.66-0.51c0,0,0.01,0,0.01,0l0,0
		c2.38,0.35,4.5,1.72,5.79,3.75c0.15,0.3,0.02,0.66-0.28,0.81l0,0L993.39,440.07z"/>
	<path class="st10" d="M975.22,435.43c-0.22-0.02-0.41-0.16-0.51-0.36c-0.15-0.3-0.02-0.66,0.28-0.81c1.76-0.92,3.85-0.92,5.61,0
		c0.28,0.15,0.38,0.49,0.24,0.77c0,0.01-0.01,0.02-0.01,0.02l0,0c-0.16,0.28-0.52,0.38-0.8,0.22c-0.01-0.01-0.02-0.01-0.03-0.02l0,0
		c-1.38-0.7-3.01-0.7-4.4,0C975.5,435.36,975.37,435.42,975.22,435.43z"/>
	<path class="st10" d="M989.98,443.21l-2.21-1.36C987.78,441.85,988.49,444,989.98,443.21z"/>
	<path class="st10" d="M1033.04,463.24c5.51,15.15-11.87,8.1-11.87,8.1c-2.61,6.28-5.65,7.03-8.1,6.08
		c-1.95-0.94-3.61-2.39-4.8-4.19c-5.49,7.43-8.85,4.44-9.9,0.36l0,0c-0.3-1.2-0.4-2.44-0.28-3.67c0,0,0-0.16,0-0.24
		c0.07-0.86,0.36-1.7,0.85-2.41l0,0c0.18-0.19,0.34-0.4,0.49-0.63l0,0c0.5-0.64,0.95-1.32,1.36-2.03l0,0
		c0.82-1.42,1.45-2.94,1.88-4.52c0.1-0.41,0.22-0.79,0.3-1.19c0.08-0.41,0.24-1.09,0.34-1.64c0.45-2.35,0.69-4.86,0.99-7.62
		c0.3-2.41,0.61-5,1.15-7.86c2.17-11.46-13.98-8.79-18.76-11.4c-1.5-0.79-2.8-1.56-3.95-2.27l0,0l-1.03-0.69
		c-0.05-0.02-0.1-0.06-0.14-0.1c-1.05-0.68-2.05-1.43-3-2.25c-0.53-0.47-0.97-0.89-1.36-1.3l0,0c-6.64-7.19,5.95-9.15,5.95-9.15
		c-0.85-13.71,10.55-10.01,10.55-10.01c0.41-1.16,0.93-2.29,1.54-3.36c15.29,1.55,29.75,7.68,41.48,17.6
		c-0.19,1.93-0.62,3.84-1.26,5.67c18.35,8.91,3.34,21.89,3.34,21.89C1049.49,456.82,1033.04,463.24,1033.04,463.24z"/>
	<path class="st7" d="M1008.96,455.85c-1.32,2.06-3.4,3.52-5.79,4.05c-3.18,0.65-4.56-2.27-3.48-5.16c1.07-2.9,3.83-6.08,6.93-5.47
		c2.2,0.4,3.66,2.51,3.26,4.71c-0.13,0.71-0.44,1.37-0.91,1.91L1008.96,455.85z"/>
	<path class="st10" d="M1005.52,455.24c0,1.28-0.24,2.84-1.44,3.3c-1.2,0.47-4.05,0.16-4.92,0.97c-0.64,0.75-0.64,1.86,0,2.61
		c0.63,0.71,1.17,1.49,1.6,2.33c0.3,0.91-0.18,2.17-1.11,2.15c-0.63,0-1.13-0.57-1.76-0.63c-1.01-0.1-1.64,1.28-1.26,2.23
		c0.51,0.92,1.32,1.63,2.29,2.03c-1.71-0.41-3.24-1.35-4.4-2.67c-0.34-0.33-0.53-0.78-0.55-1.26c0.2-0.71,0.9-1.15,1.62-1.03
		c0.68,0.12,1.36,0.29,2.03,0.49c0.7,0.2,1.45-0.08,1.84-0.69c0.43-0.87-0.45-1.78-1.11-2.49c-0.95-1.03-1.58-2.73-0.65-3.79
		c0.93-1.05,2.15-1.24,3.89-1.19c1.43,0.11,2.68-0.95,2.79-2.38c0-0.05,0.01-0.1,0.01-0.15c0.12-2.19-0.28-2.17,0-5.65
		C1006.17,449.98,1005.44,453.7,1005.52,455.24z"/>
	<path class="st10" d="M963.13,441.25c-0.06,0.57,0.13,1.13,0.51,1.56c1.23,1.73,2.97,3.02,4.98,3.71c-1.11-0.58-1.99-1.5-2.51-2.63
		c-0.38-1.2-0.77-2.03,0.47-1.78c0.73,0.14,2.55,0.1,3.3,0.18c1.13,0.12,1.86-1.34,1.58-2.45c-0.42-1.07-0.98-2.08-1.66-3
		c-0.53-1.01-0.67-2.47,0.24-3.14c0.91-0.67,4.64-0.26,6.08-0.65c1.44-0.38,2.03-2.27,2.03-3.81c0-1.07,0.49-3.02,0.45-4.64h0.1
		c0.38-0.19,0.84-0.1,1.11,0.22c0.27,0.3,0.51,0.63,0.69,0.99c0.38,0.71,2.03,2.8,2.82,2.03c-0.19-0.49-0.42-0.96-0.69-1.42
		c-0.65-1.59-1.74-2.96-3.14-3.95c-0.66-0.21-1.37-0.21-2.03,0c0,0,0,0.1-0.12,0.14c0,0.36,0,0.73-0.14,0.99
		c-0.32,2.69,0,3.02-0.32,5.27c-0.19,1.73-1.75,2.98-3.49,2.79c-0.05-0.01-0.09-0.01-0.14-0.02c-2.03-0.26-3.3-0.45-4.84,1.01
		c-1.54,1.46-0.65,3.28,0.38,4.62c0.73,0.93,1.68,2.03,1.07,3.14c-0.55,0.67-1.47,0.92-2.29,0.61c-0.83-0.22-1.58-0.69-2.43-0.83
		C964.28,440.05,963.29,440.44,963.13,441.25z"/>
	<path class="st7" d="M910.18,466.22c0.88-2.3,2.01-4.49,3.36-6.54c3.93-6.95,3.06-11.04,0-18.45c-2.43-0.83-9.22,3.54-9.22,3.54
		c-0.86,1.43-1.62,2.92-2.27,4.46c-3.32,8.1,0.36,17.24,0.36,17.24c-2.17,13.17-4.05,40.63-3.16,43.42
		c2.03,6.64,13.29,10.29,12.72,1.03C911.42,501.66,908.93,469.89,910.18,466.22z"/>
	<path class="st4" d="M956.71,492.49c-4.95,10.7-12.26,20.15-21.37,27.65c-4.44,3.67-9.58,6.93-15.31,7.29
		c-6.83,0.77-13.5-2.36-17.28-8.1c-4.42-6.08-6.08-10.71-6.3-22.72c-0.14-3.51,0.03-7.02,0.51-10.49c1.68-4.5,4.64-4.54,7.92-4.33
		c2.59,0.16,2.84-0.43,5.31,0.32c5,1.54,6.58,6.76,7.25,12.35c1.58,13.25,12.01,0,15.03-4.05c6.48-8.45,15.03-18.53,27.14-20.25
		c1.78-0.26,1.17,0,2.65,1.11c1.46,1.29,2.21,3.19,2.03,5.12c0.02,5.02-1.69,9.89-4.84,13.79L956.71,492.49z"/>
	<path class="st12" d="M956.71,492.49c-4.95,10.7-12.26,20.15-21.37,27.65c-4.44,3.67-9.58,6.93-15.31,7.29
		c-6.83,0.77-13.5-2.36-17.28-8.1c-4.42-6.08-6.08-10.71-6.3-22.72c-0.14-3.51,0.03-7.02,0.51-10.49c1.68-4.5,4.64-4.54,7.92-4.33
		c2.59,0.16,2.84-0.43,5.31,0.32c5,1.54,6.58,6.76,7.25,12.35c1.58,13.25,12.01,0,15.03-4.05c6.48-8.45,15.03-18.53,27.14-20.25
		c1.78-0.26,1.17,0,2.65,1.11c1.46,1.29,2.21,3.19,2.03,5.12c0.02,5.02-1.69,9.89-4.84,13.79L956.71,492.49z"/>
	<path class="st8" d="M950.77,483.46l-7.25,10.13c-5.46,7.73-8.3,17.01-8.1,26.47l0,0c0,0,10.53-8.1,13.61-14.42
		C952.11,499.31,950.77,483.46,950.77,483.46z"/>
	<path class="st4" d="M1023.04,498.75l-8.81,19.57l-1.28,1.7l-13.77,18.39l0,0l-1.24,1.66c-2.21,2.94-4,6.18-5.31,9.62
		c-0.24,0.65-0.47,1.32-0.67,2.03l-0.12,0.28c-0.16,0.55-0.3,1.11-0.45,1.66c0.08-0.5,0.14-1.05,0.18-1.64
		c-19.4,0.96-38.43-5.57-53.17-18.23c0.67-4.96,1.6-12.31,2.37-18.23c0-0.12,0-0.24,0-0.36c0.55-4.27,1.01-7.72,1.24-8.85
		c1.8-7.99,4.73-15.69,8.71-22.85c2.27-4.51,4.98-8.79,8.1-12.76l0,0l0.3-0.24l0.18-0.18l0,0h0.18l1.05,0.1H961h0.49
		c1.03,0.1,2.03,0.22,3.36,0.45l2.29,0.43h0.53l4.72,1.01c0.71,0.12,1.5,0.3,2.31,0.49l0.2,2.35l0.55,5.89
		c0.03,0.35,0.09,0.71,0.16,1.05c0,2.15,0.12,4.44,0.14,6.56c0,0.59,0,1.15,0,1.72c0,1.48,0,2.8,0,3.93c0,0.28,0,0.57,0,0.83
		s0,0.45,0,0.63v0.85l0,0v0.83l0.24-0.12l0,0l0,0l0,0h0.16l0,0l0.16-0.12l0,0l0.71-0.38l0.49-0.26l0,0l0.53-0.28l0.61-0.34h0.18l0,0
		l0.73-0.41l0.77-0.41l2.03-1.13l0.87-0.47l0.89-0.49l4.78-2.57l0.97-0.53l0.93-0.51l1.05-0.55l4.05-2.13
		c0.53-0.3,1.05-0.59,1.58-0.83l0,0l0.87-0.43l0.83-0.45l2.23-1.15l2.19-1.07c6.4,3.06,12.27,7.12,17.38,12.03l0.24,0.22
		c0.12,0.14,0.26,0.26,0.38,0.43l0.32,0.32c0.11,0.1,0.22,0.22,0.3,0.34l0,0c0.13,0.19,0.23,0.41,0.3,0.63l0,0c0,0,0,0.14,0,0.22
		l0,0l0,0l0,0c-0.01,0.11-0.01,0.22,0,0.32c0.02,0.1,0.02,0.2,0,0.3v0.12l0,0c0.01,0.14,0.01,0.28,0,0.43
		C1022.73,498.34,1022.9,498.53,1023.04,498.75z"/>
	<g class="st13">
		<path class="st2" d="M1023.04,498.75l-8.81,19.57l-1.28,1.7l-13.77,18.39l0,0l-1.24,1.66c-2.21,2.94-4,6.18-5.31,9.62
			c-0.24,0.65-0.47,1.32-0.67,2.03c-0.02,0.09-0.02,0.19,0,0.28c-0.18,0.55-0.34,1.09-0.49,1.66c0.08-0.5,0.14-1.05,0.18-1.64
			c-19.4,0.96-38.43-5.57-53.17-18.23c0.67-4.96,1.6-12.31,2.37-18.23c0-0.12,0-0.24,0-0.36c0.55-4.27,1.01-7.72,1.24-8.85
			c1.8-7.99,4.73-15.69,8.71-22.85c2.27-4.51,4.98-8.79,8.1-12.76l0,0l0.3-0.24l0.18-0.18l0,0h0.18l1.05,0.1h0.45h0.49
			c1.03,0.1,2.03,0.22,3.36,0.45l2.29,0.43h0.53l4.72,1.01c0.71,0.12,1.5,0.3,2.31,0.49l0.2,2.35l0.55,5.89
			c0.03,0.35,0.09,0.71,0.16,1.05c0,2.15,0.12,4.44,0.14,6.56c0,0.59,0,1.15,0,1.72c0,1.48,0,2.8,0,3.93c0,0.28,0,0.57,0,0.83
			s0,0.45,0,0.63v1.72l0.24-0.12l0,0l0,0l0,0h0.16l0,0h0.14l0.71-0.38l0.49-0.26l0,0l0.53-0.28l0.61-0.34h0.18l0,0l0.73-0.41
			l0.77-0.41l2.03-1.13l0.87-0.47l0.89-0.49l4.78-2.57l0.97-0.53l0.93-0.51l1.05-0.55l4.05-2.13c0.53-0.3,1.05-0.59,1.58-0.83l0,0
			l0.87-0.43l0.83-0.45l2.23-1.15l2.19-1.07c6.4,3.06,12.27,7.12,17.38,12.03l0.24,0.22c0.12,0.14,0.26,0.26,0.38,0.43l0.32,0.32
			c0.11,0.1,0.22,0.22,0.3,0.34l0,0c0.13,0.19,0.23,0.41,0.3,0.63l0,0c0,0,0,0.14,0,0.22l0,0l0,0l0,0c-0.01,0.11-0.01,0.22,0,0.32
			c0.02,0.1,0.02,0.2,0,0.3v0.12l0,0c0.01,0.14,0.01,0.28,0,0.43C1022.76,498.46,1022.91,498.6,1023.04,498.75z"/>
	</g>
	<g class="st14">
		<path class="st2" d="M975.91,497.25h-0.12c0,0-1.11-0.91-2.75-2.31c-2.25-1.9-5.49-4.66-8.3-7.01l-2.57-2.23l-3.06-2.59
			c-0.73-0.65,0.14-10.82,0.32-12.86l0,0c0.01-0.11,0.01-0.23,0-0.34l5.47,0.95l2.29,0.41l0.53,0.1l6.99,1.19v0.3l0.2,2.35
			l0.55,5.87c0,0.36,0.1,0.73,0.16,1.07c0,2.15,0.12,4.44,0.16,6.56c0,0.59,0,1.15,0,1.7c0,1.48,0,2.82,0,3.95c0,0.53,0,1.03,0,1.46
			v1.46L975.91,497.25z"/>
		<path class="st2" d="M1023.08,496.62L1023.08,496.62c-6.48,0.61-18.59,4.86-18.59,4.86l-28.15-4.17
			c2.69-1.5,18.39-10.01,25.6-13.63l2.19-1.09c6.4,3.05,12.27,7.11,17.38,12.03c0.22,0.2,0.43,0.42,0.63,0.65
			c0.22,0.2,0.43,0.43,0.61,0.67l0,0C1022.9,496.14,1023.01,496.37,1023.08,496.62z"/>
	</g>
	<path class="st8" d="M1012.95,520.01l-13.77,18.39l0,0l-1.24,1.66c-2.21,2.94-4,6.18-5.31,9.62c-0.24,0.65-0.47,1.32-0.67,2.03
		c-0.02,0.09-0.02,0.19,0,0.28c-0.18,0.55-0.34,1.09-0.49,1.66c0.08-0.5,0.14-1.05,0.18-1.64c0.1-1.4,0.1-2.88,0.28-3.81
		c1.38-7.15,3.92-14.03,7.53-20.36c1.36-2.41,6.08-10.8,10.65-14.72c2.15-1.86,4.25-2.73,5.95-1.54
		C1015.45,514.53,1014.39,517.37,1012.95,520.01z"/>
	<path class="st4" d="M1022.13,532.45c-2.75,4.66-5.16,9.51-7.19,14.52c-6.68,2.62-13.7,4.25-20.84,4.86
		c1.32-3.61,3.08-8.28,5.08-13.37c3.3-8.22,7.23-17.58,10.88-25.34c3.65-7.76,6.89-13.67,9.09-15.82c0.69-0.67,1.26-0.95,1.7-0.81
		l0,0c0.25,0.06,0.5,0.16,0.73,0.28c0.04-0.02,0.08-0.02,0.12,0c0.54,0.26,1.05,0.57,1.52,0.93c1.24,0.95,2.32,2.09,3.2,3.38
		c1.5,3.05,2.24,6.42,2.17,9.82C1027.89,518.46,1025.7,525.78,1022.13,532.45z"/>
	<g class="st13">
		<path class="st2" d="M1022.13,532.45c-2.75,4.66-5.16,9.51-7.19,14.52c-6.68,2.62-13.7,4.25-20.84,4.86
			c1.32-3.61,3.08-8.28,5.08-13.37c3.3-8.22,7.23-17.58,10.88-25.34c3.65-7.76,6.89-13.67,9.09-15.82c0.69-0.67,1.26-0.95,1.7-0.81
			l0,0c0.25,0.06,0.5,0.16,0.73,0.28c0.04-0.02,0.08-0.02,0.12,0c0.53,0.21,1.04,0.48,1.52,0.81c1.34,0.88,2.45,2.09,3.2,3.5
			c1.5,3.05,2.24,6.42,2.17,9.82C1027.89,518.46,1025.7,525.78,1022.13,532.45z"/>
	</g>
	<g class="st14">
		<path class="st4" d="M975.91,497.25h-0.12c0,0-1.11-0.91-2.75-2.31c-2.25-1.9-5.49-4.66-8.3-7.01l-2.57-2.23l-3.06-2.59
			c-0.73-0.65,0.14-10.82,0.32-12.86l0,0c0.01-0.11,0.01-0.23,0-0.34l5.47,0.95l2.29,0.41l0.53,0.1l6.99,1.19v0.3l0.2,2.35
			l0.55,5.87c0,0.36,0.1,0.73,0.16,1.07c0,2.15,0.12,4.44,0.16,6.56c0,0.59,0,1.15,0,1.7c0,1.48,0,2.82,0,3.95c0,0.53,0,1.03,0,1.46
			v1.46L975.91,497.25z"/>
		<path class="st4" d="M1023.08,496.62L1023.08,496.62c-6.48,0.61-18.59,4.86-18.59,4.86l-28.15-4.17
			c2.69-1.5,18.39-10.01,25.6-13.63l2.19-1.09c6.4,3.05,12.27,7.11,17.38,12.03c0.22,0.2,0.43,0.42,0.63,0.65
			c0.22,0.2,0.43,0.43,0.61,0.67l0,0C1022.9,496.14,1023.01,496.37,1023.08,496.62z"/>
	</g>
	<path class="st10" d="M975.7,482.12l0.2,15.13h0.43l16-8.67C992.33,488.58,979.86,490.95,975.7,482.12z"/>
	<path class="st10" d="M975.75,496.24l-0.16-0.1l-14.97-13.45c-0.1-0.09-0.16-0.23-0.16-0.36l0.2-12.01c0-0.26,0.21-0.47,0.47-0.47
		c0,0,0,0,0,0c0.26,0,0.47,0.21,0.47,0.47c0,0.01,0,0.01,0,0.02l-0.18,11.79l14.81,13.33c0.18,0.18,0.19,0.47,0.01,0.66
		c0,0-0.01,0.01-0.01,0.01C976.09,496.23,975.91,496.28,975.75,496.24z"/>
	<path class="st10" d="M977.95,496.48c-0.25-0.06-0.41-0.32-0.34-0.57c0.06-0.25,0.32-0.41,0.57-0.34l25.97,3.61
		c5.79-2.14,11.81-3.58,17.95-4.29c0.25-0.02,0.47,0.16,0.51,0.41c0.04,0.25-0.14,0.49-0.4,0.53c0,0-0.01,0-0.01,0
		c-6.08,0.71-12.06,2.14-17.8,4.27c-0.08,0.02-0.16,0.02-0.24,0l-26.09-3.54L977.95,496.48z"/>
	<path class="st10" d="M987.72,506.83c0.39-1.43,0.18-2.96-0.59-4.23c-0.67-1.22-1.72-2.2-2.98-2.8c-1.07-0.49-2.19-0.86-3.34-1.11
		c-0.98-0.23-1.94-0.53-2.88-0.91l-0.65-0.32l0,0c-0.18-0.12-0.36-0.2-0.55-0.34l0,0l-0.77-0.43l0,0l-0.77-0.49
		c-0.71-0.45-1.44-0.89-2.03-1.26c-0.41-0.26-0.85-0.48-1.3-0.67h-0.24c-2.09-1-4.54-0.94-6.58,0.16c-0.77,0.5-1.4,1.2-1.8,2.03
		c-1.88,3.38-0.75,5.21,0,5.97c1.18,0.86,2.72,1.02,4.05,0.43c2.2-0.53,4.33-1.29,6.36-2.27l0,0c0.15-0.05,0.29-0.13,0.43-0.22
		c0.56-0.29,1.11-0.62,1.62-0.99c0.02,0.63,0.09,1.25,0.2,1.86c-0.01,0.06-0.01,0.12,0,0.18l0,0c0.23,1.16,0.56,2.29,0.99,3.38
		c0.89,2.41,2.33,5.37,4.56,6.22l0.36,0.12C984.43,511.61,987.03,509.3,987.72,506.83z M966.98,501.77
		c-1.5,0.41-2.51,0.34-3.12-0.22c-1.11-1.03-1.09-2.75,0-4.82c0.35-0.67,0.88-1.23,1.54-1.6c1.88-0.89,4.06-0.89,5.93,0
		c1.12,0.54,2.19,1.15,3.22,1.84l1.34,0.81c-0.05-0.02-0.1-0.02-0.14,0c-0.88,0.69-1.82,1.29-2.82,1.78
		C971.02,500.49,969.03,501.23,966.98,501.77z M982.04,510.01c-2.15-0.57-3.58-3.85-4.27-5.73c-0.33-0.91-0.61-1.85-0.83-2.8
		c-0.26-1.07-0.38-2.16-0.36-3.26l0,0l1.01,0.51c0.98,0.4,1.99,0.73,3.02,0.97c1.09,0.24,2.16,0.58,3.18,1.03
		c1.2,0.57,2.16,1.54,2.71,2.75c0.5,0.98,0.63,2.11,0.36,3.18C986.26,508.61,984.03,510.56,982.04,510.01z"/>
	<path class="st10" d="M964.59,515.54L964.59,515.54c-0.23-0.11-0.33-0.39-0.22-0.62c0-0.01,0.01-0.02,0.01-0.03
		c3.01-5.85,6.64-11.36,10.82-16.45c0.25-0.29,0.68-0.32,0.97-0.07c0.19,0.16,0.27,0.41,0.22,0.66c-1.21,5.91-2.04,11.89-2.49,17.9
		c0,0.26-0.21,0.46-0.47,0.46c-0.26,0-0.46-0.21-0.46-0.46c0.44-5.7,1.2-11.38,2.29-16.99c-3.88,4.81-7.28,9.99-10.13,15.47
		C964.99,515.57,964.78,515.62,964.59,515.54z"/>
</g>
<g id="freepik--character-5--inject-41">
	<path class="st4" d="M999.16,149.59c16.05,26.11,7.9,60.29-18.2,76.34c-0.01,0-0.02,0.01-0.02,0.01
		c-9.71,5.98-21.03,8.81-32.41,8.1c-1.36-0.07-2.71-0.2-4.05-0.41c-30.36-4.12-51.63-32.08-47.5-62.44
		c1.94-14.25,9.33-27.19,20.62-36.1c1.68-1.34,3.43-2.57,5.27-3.69c6.1-3.76,12.88-6.3,19.95-7.47h0.3
		c1.64-0.26,3.28-0.47,4.92-0.57l0,0c19.38-1.37,38.07,7.49,49.28,23.37C997.94,147.68,998.61,148.62,999.16,149.59z"/>
	<path class="st5" d="M999.16,149.59c16.05,26.11,7.9,60.29-18.2,76.34c-0.01,0-0.02,0.01-0.02,0.01
		c-9.71,5.98-21.03,8.81-32.41,8.1c-1.36-0.07-2.71-0.2-4.05-0.41c-30.36-4.12-51.63-32.08-47.5-62.44
		c1.94-14.25,9.33-27.19,20.62-36.1c1.68-1.34,3.43-2.57,5.27-3.69c6.1-3.76,12.88-6.3,19.95-7.47h0.3
		c1.64-0.26,3.28-0.47,4.92-0.57l0,0c19.38-1.37,38.07,7.49,49.28,23.37C997.94,147.68,998.61,148.62,999.16,149.59z"/>
	<path class="st4" d="M829.55,253.21c-1.12,0.01-2.03-0.89-2.04-2.01c-0.01-0.73,0.39-1.41,1.03-1.78l126.69-73.14
		c0.96-0.55,2.19-0.23,2.75,0.73c0.57,0.97,0.24,2.21-0.72,2.77c0,0,0,0-0.01,0L830.5,252.92
		C830.21,253.1,829.89,253.19,829.55,253.21z"/>
	<path class="st15" d="M934.02,206.89c0.28,0.45,0.57,0.93,0.83,1.4c1.44,2.6,2.69,5.31,3.73,8.1c2.39,6.44,4.68,13.57,10.13,17.68
		c-1.36-0.07-2.71-0.2-4.05-0.41c-6.47-0.86-12.73-2.84-18.51-5.87c-0.49-1.58-0.87-3.19-1.15-4.82c-0.49-2.8-2.13-13.02-0.85-18.47
		c0.08-0.39,0.2-0.78,0.34-1.15c0.26-0.95,0.92-1.74,1.8-2.17c1.66-0.46,3.44,0.11,4.54,1.44
		C932.07,203.9,933.14,205.33,934.02,206.89z"/>
	<path class="st10" d="M922.17,196.05c-0.63,2.39-0.37,4.94,0.75,7.15c1.74,2.15,4.16,3.62,6.87,4.17c2.8,0.91,6.28,1.68,8.32-0.41
		c2.05-2.09,1.34-5.33,0.45-7.98c-1.36-4.06-2.95-8.05-4.76-11.93C928.74,176.08,923.13,190.79,922.17,196.05z"/>
	<path class="st4" d="M1001.77,203.04c-9.83,20.11-30.76,32.35-53.11,31.05c-1.36-0.07-2.71-0.2-4.05-0.41
		c-4.76-8.17-8.82-16.73-12.15-25.58c-0.26-0.71-0.49-1.42-0.71-2.03c-0.41-1.22-0.75-2.33-1.05-3.38
		c-1.34-4.52-2.03-7.8-2.84-10.78c-0.1-0.28-0.16-0.57-0.2-0.87c-0.83-4.01,0.75-8.13,4.05-10.55c0.69-0.51,1.42-1.01,2.19-1.54
		s2.03-1.38,3.24-2.03l1.17-0.73c5.85-3.21,11.88-6.09,18.05-8.65l0,0l1.48-0.61l1.68-0.69c1.38-0.55,2.75-1.03,4.05-1.48l0,0
		c0.31-0.12,0.63-0.22,0.95-0.3l0,0l0.73-0.26c0.12,0,2.31-1.34,2.41-1.38c3.26-0.93,6.77,0.11,8.99,2.67l0,0
		c0.47,0.56,0.88,1.17,1.22,1.82c0.24,0.49,0.44,0.99,0.59,1.52l1.44,1.82l0.77,0.99l0.55,0.71l0,0l3.89,5.16l0.43,0.59l0.3,0.43
		l0.45,0.59C992,186.73,997.18,194.71,1001.77,203.04z"/>
	<path class="st6" d="M1001.77,203.04c-9.83,20.11-30.76,32.35-53.11,31.05c-1.36-0.07-2.71-0.2-4.05-0.41
		c-4.76-8.17-8.82-16.73-12.15-25.58c-0.26-0.71-0.49-1.42-0.71-2.03c-0.41-1.22-0.75-2.33-1.05-3.38
		c-1.34-4.52-2.03-7.8-2.84-10.78c-0.1-0.28-0.16-0.57-0.2-0.87c-0.83-4.01,0.75-8.13,4.05-10.55c0.69-0.51,1.42-1.01,2.19-1.54
		s2.03-1.38,3.24-2.03l1.17-0.73c5.85-3.21,11.88-6.09,18.05-8.65l0,0l1.48-0.61l1.68-0.69c1.38-0.55,2.75-1.03,4.05-1.48l0,0
		c0.31-0.12,0.63-0.22,0.95-0.3l0,0l0.73-0.26c0.12,0,2.31-1.34,2.41-1.38c3.26-0.93,6.77,0.11,8.99,2.67l0,0
		c0.47,0.56,0.88,1.17,1.22,1.82c0.24,0.49,0.44,0.99,0.59,1.52l1.44,1.82l0.77,0.99l0.55,0.71l0,0l3.89,5.16l0.43,0.59l0.3,0.43
		l0.45,0.59C992,186.73,997.18,194.71,1001.77,203.04z"/>
	<path class="st10" d="M934.89,176.04c-0.71,1.22-1.04,2.64-0.93,4.05c0.1,5.15,1.7,10.16,4.62,14.4c-0.77-2.87,0.93-5.83,3.8-6.6
		c1.38-0.37,2.84-0.18,4.08,0.53c1.56,0.89,3.26,2.61,4.8,1.66c0.55-0.45,0.95-1.04,1.15-1.72l6.08-14.66
		c0.86-1.73,1.36-3.62,1.48-5.55c0.09-1.98-1.01-3.83-2.8-4.7c-0.88-0.19-1.79-0.19-2.67,0c-5.86,0.84-11.26,3.65-15.31,7.96
		L934.89,176.04z"/>
	<path class="st15" d="M946.9,153.6c8.45,10.63,12.01,14.64,8.41,18.53c-3.02,3.24-5.1,7.21-8.1,10.47
		c-2.29,2.46-6.13,2.6-8.59,0.31c-0.18-0.17-0.35-0.34-0.51-0.53c-0.93-1.13-1.29-2.62-0.97-4.05c0.61-5.95-1.2-8.32-0.99-14.18
		l6.08-11.2c0.65-1.23,2.17-1.7,3.39-1.05C946.28,152.25,946.75,152.87,946.9,153.6z"/>
	<path class="st16" d="M945.24,154.63c-0.3-1.35-1.65-2.2-3-1.9c-0.71,0.16-1.31,0.62-1.66,1.25l-6.08,11.2
		c1.76,1.78,2.03,6.22,2.67,8.63c2.15-0.69,5.06-4.05,6.64-5.69c2.06-2.03,3.48-4.63,4.05-7.47
		C946.88,158.69,946,156.69,945.24,154.63z"/>
	<path class="st15" d="M949.35,139.46c0.43,1.44,0.85,2.8,1.24,4.05c2.03,6.72,3,11.28,0.16,16.67c-5.06,9.68-18.9,10.13-24.59,2.15
		c-5.1-7.19-8.61-20.9-0.12-28.05c6.89-5.81,16.2-4.76,20.88,0.71C948.06,136.28,948.89,137.81,949.35,139.46z"/>
	<path class="st10" d="M934.16,145.29c0.12,0.83-0.2,1.58-0.75,1.66s-1.09-0.53-1.22-1.36c-0.12-0.83,0.2-1.56,0.75-1.64
		C933.5,143.88,934.04,144.48,934.16,145.29z"/>
	<path class="st10" d="M925.56,148.58c0.12,0.83-0.2,1.56-0.73,1.66s-1.09-0.53-1.22-1.36c-0.12-0.83,0.2-1.58,0.75-1.66
		C924.91,147.14,925.45,147.77,925.56,148.58z"/>
	<path class="st10" d="M935.62,142.2c-0.18,0.06-0.38,0.01-0.51-0.12c-0.87-0.9-2.12-1.32-3.36-1.13c-0.26,0.06-0.52-0.1-0.59-0.36
		c0,0,0,0,0-0.01l0,0c-0.06-0.26,0.1-0.52,0.36-0.59c0,0,0,0,0.01,0l0,0c1.56-0.24,3.14,0.28,4.25,1.4c0.19,0.2,0.19,0.51,0,0.71
		L935.62,142.2z"/>
	<path class="st10" d="M920.03,146.35c-0.25,0.08-0.52-0.05-0.61-0.3c-0.04-0.1-0.04-0.21,0-0.3c0.4-1.54,1.54-2.78,3.04-3.32
		c0.26-0.08,0.53,0.07,0.61,0.32c0,0,0,0,0,0l0,0c0.07,0.26-0.09,0.53-0.34,0.61l0,0c-1.17,0.43-2.06,1.41-2.39,2.61
		C920.3,146.13,920.19,146.28,920.03,146.35z"/>
	<path class="st17" d="M926.79,149.49c-0.36,2.33-1.04,4.6-2.03,6.74c1.12,0.47,2.39,0.44,3.48-0.1L926.79,149.49z"/>
	<path class="st10" d="M927.72,159.45c3.61-2.51,7.43-4.71,11.42-6.56c0.1,2.9-0.89,5.79-5.33,8
		C929.38,163.1,927.72,159.45,927.72,159.45z"/>
	<path class="st17" d="M935.06,157.97c-1.74,0.76-3.23,2.01-4.29,3.58c1.05,0.09,2.11-0.13,3.04-0.63c1.75-0.74,3.24-1.98,4.29-3.56
		C937.04,157.27,935.99,157.49,935.06,157.97z"/>
	<path class="st2" d="M928.15,159.19c0.49,0.51,1.22,0.71,1.9,0.51c2.56-1.3,5.03-2.79,7.37-4.46c0.78-0.46,1.29-1.25,1.4-2.15
		C935.13,154.87,931.56,156.91,928.15,159.19z"/>
	<path class="st10" d="M941.9,123.06c-2.13-2.51-5.53-3.53-8.69-2.61c0.59,1.96,2.21,3.43,4.21,3.83c-2.68-0.97-5.5-1.5-8.34-1.56
		c-0.78-0.12-1.57,0.13-2.15,0.67c-0.5,0.8-0.3,1.85,0.47,2.41c0.75,0.51,1.64,0.77,2.55,0.75c-3.56-1.94-7.97-1.27-10.8,1.64
		c0.14,1.39,1.38,2.41,2.77,2.27c0.3-0.03,0.59-0.11,0.85-0.24c-1.32-0.04-2.63,0.2-3.85,0.71c-1.23,0.55-2,1.79-1.92,3.14
		c0.18,1.1,1.22,1.85,2.33,1.67c0.21-0.03,0.4-0.1,0.59-0.19c-1.24,0.14-2.14,1.27-1.99,2.51c0.02,0.14,0.05,0.29,0.09,0.42
		c0.57,1.29,2.05,1.93,3.38,1.46c1.29-0.55,2.1-1.84,2.03-3.24c-0.76,1.05-0.53,2.52,0.52,3.28c0.03,0.02,0.06,0.04,0.09,0.06
		c1.17,0.64,2.63,0.32,3.42-0.75c0.73-1.1,0.67-2.54-0.14-3.58c0.11,1.11,1.11,1.92,2.22,1.81s1.92-1.11,1.81-2.22
		c-0.05-0.46-0.25-0.88-0.57-1.21c1.62,2.57,4.61,3.93,7.62,3.46c-0.37-1.49-1.45-2.69-2.9-3.2c1.73,1.43,4.13,1.75,6.18,0.81
		l-1.3-2.03c1.73,2.27,4.81,3.03,7.39,1.82c-0.41-1.12-1.36-1.95-2.53-2.19c1.05,0.97,2.69,0.9,3.66-0.16
		c0.15-0.17,0.28-0.35,0.39-0.55c0.61-1.59,0.19-3.39-1.05-4.56c-1.23-1.13-2.68-1.99-4.25-2.53c1.33-0.81,3.03-0.63,4.17,0.43
		c0.5-1.38-0.2-2.9-1.58-3.4c-1.38-0.5-2.9,0.2-3.4,1.58c-0.1,0.29-0.16,0.59-0.16,0.89c-0.56-1.01-1.58-1.69-2.73-1.8L941.9,123.06
		z"/>
	<path class="st16" d="M949.35,139.46c0.43,1.44,0.85,2.8,1.24,4.05c-1.51,1.16-2.34,2.99-2.23,4.88c-0.16-2.35-2.55-5.59-3.75-7.53
		c-1.19-1.94-3.18-2.84-4.05-4.35c-2.23-3.63,3.08-2.98,6.42-1.52C948.1,136.28,948.91,137.81,949.35,139.46z"/>
	<path class="st15" d="M974.06,181.33l1.58-0.43l1.46-0.41c0.93-0.28,1.84-0.61,2.75-0.91c1.82-0.65,3.61-1.34,5.39-2.03
		c3.56-1.5,7.01-3.26,10.31-5.27c3.4-2.03,6.6-4.36,9.58-6.97c3.07-3.02,5.93-6.23,8.59-9.62c0.95-4.82,3.67,0.77-9.54-45.17
		c-0.55-2.19-2.86,1.22-5.06,1.76c-1.74,0.43-1.66,2.45-1.74,4.25l1.68,22.81c0,1.54-0.1,3.04-0.18,4.52l-0.16,2.15
		c0,0.69-0.14,1.3-0.22,2.03l1.48-3.85c-4.04,4.47-8.84,8.19-14.18,10.98c-2.79,1.51-5.67,2.86-8.61,4.05
		c-1.46,0.63-2.94,1.22-4.4,1.74l-2.25,0.77l-1.09,0.36l-0.97,0.28l-0.47,0.16c-4.32,1.18-6.86,5.63-5.68,9.95
		c0.02,0.06,0.03,0.12,0.05,0.18c1.26,4.33,7.37,9.96,11.73,8.73l0,0L974.06,181.33z"/>
	<path class="st10" d="M991.97,168.79c0.57,1.2,0.84,2.52,0.79,3.85c-0.49,1.99-1.77,3.69-3.54,4.72c-3.7,2.82-8.15,4.5-12.8,4.82
		c-4.69,0.26-9.21-1.75-12.15-5.41c-2.89-3.79-2.89-9.05,0-12.84c2.02-1.98,4.46-3.46,7.15-4.33c3.36-1.4,10.47-6.08,14.18-4.35
		S990.65,165.31,991.97,168.79z"/>
	<path class="st15" d="M953.49,145.56c-0.39,1.92-1.5,3.61-3.1,4.74c-2.03,1.34-3.58-0.69-3.5-3.34c0.08-2.65,1.28-5.91,3.54-6.08
		S954.05,143.09,953.49,145.56z"/>
	<path class="st15" d="M1004.34,111.49l-2.69-8.47l-9.94,6.22c0,0,3.16,7.49,8.1,6.74L1004.34,111.49z"/>
	<path class="st15" d="M1001.65,103.02l-2.47-6.6c-0.42-1.1-1.65-1.67-2.75-1.26l-4.8,1.82c-0.95,0.35-1.52,1.31-1.38,2.31
		l1.46,9.94C991.71,109.24,998.19,111.83,1001.65,103.02z"/>
</g>
<g id="freepik--character-4--inject-41">
	<path class="st4" d="M680.42,179.85c-1.12,0-2.03-0.91-2.03-2.03v-65.04c0-1.12,0.91-2.03,2.03-2.03c1.12,0,2.03,0.91,2.03,2.03
		v65.04C682.45,178.94,681.54,179.85,680.42,179.85z"/>
	<circle class="st4" cx="679.89" cy="84.98" r="55.7"/>
	<circle class="st5" cx="679.89" cy="84.98" r="55.7"/>
	<path class="st4" d="M639.79,116.78c2.03,2.41,4.19,4.84,6.3,7.27c2.71,3.5,5.96,6.53,9.64,8.99l5.08,2.23l1.11,0.47
		c5.08,2.35,11.09,0.13,13.44-4.94c0.69-1.5,1.01-3.15,0.92-4.8c-0.27-10.95-1.38-21.85-3.32-32.63c-0.62-3.84-1.79-7.58-3.46-11.1
		c-2.35-4.05-5.55,0-8.97,4.44c-2.31,2.92-3.14,16.65,0,29c-5.63-4.05-12.86-11.04-19.22-13.89c-1.32-0.59-6.83,3.26-6.36,6.52
		C635.74,111.54,637.42,114.47,639.79,116.78z"/>
	<path class="st4" d="M655.73,133.04c1.56,1.01,3.28,1.76,5.08,2.23L655.73,133.04z"/>
	<path class="st12" d="M639.79,116.78c2.03,2.41,4.19,4.84,6.3,7.27c2.71,3.5,5.96,6.53,9.64,8.99l5.08,2.23l1.11,0.47
		c5.08,2.35,11.09,0.13,13.44-4.94c0.69-1.5,1.01-3.15,0.92-4.8c-0.27-10.95-1.38-21.85-3.32-32.63c-0.62-3.84-1.79-7.58-3.46-11.1
		c-2.35-4.05-5.55,0-8.97,4.44c-2.31,2.92-3.14,16.65,0,29c-5.63-4.05-12.86-11.04-19.22-13.89c-1.32-0.59-6.83,3.26-6.36,6.52
		C635.74,111.54,637.42,114.47,639.79,116.78z"/>
	<path class="st12" d="M655.73,133.04c1.56,1.01,3.28,1.76,5.08,2.23L655.73,133.04z"/>
	<path class="st18" d="M640.22,103.98v-9.11l-9.9,3.75c0,0,2.45,6.08,6.08,8.1L640.22,103.98z"/>
	<polygon class="st18" points="634.24,85.71 628.53,91.54 630.37,98.57 640.26,94.8 	"/>
	<path class="st10" d="M665.27,108.27c1.9,7.21,7.49,16.65,11.91,28.68c0.04,0.12,0.11,0.24,0.18,0.34l1.52,0.28l0,0l1.34,0.26
		l28.36-5.31l0,0c0.38-0.22,0.75-0.49,1.11-0.73l0,0c1.28-0.87,2.55-1.76,3.81-2.67c-2.61-13.77-3.87-26.88-2.25-55.37
		c0.17-2.74-1.9-5.09-4.64-5.26c-0.01,0-0.01,0-0.02,0c-0.36-0.03-0.72-0.03-1.07,0c-2.94,0.47-6.64,1.17-10.35,2.15
		c-5.87,1.41-11.63,3.23-17.24,5.45c-4.78,2.03-9.92,4.54-12.9,6.08c-1.72,0.93-2.75,2.77-2.63,4.72
		C662.46,94.1,663.43,101.29,665.27,108.27z"/>
	<path class="st12" d="M680.97,96.56c0.17,0.76-0.31,1.52-1.07,1.7c-0.76,0.17-1.52-0.31-1.7-1.07c-0.17-0.76,0.31-1.52,1.07-1.7
		c0,0,0.01,0,0.01,0c0.74-0.18,1.48,0.27,1.67,1.01C680.96,96.52,680.96,96.54,680.97,96.56z"/>
	<path class="st12" d="M685.1,111.45c0.09,0.78-0.47,1.48-1.25,1.57c-0.67,0.08-1.3-0.33-1.51-0.96c-0.17-0.75,0.3-1.5,1.05-1.68
		c0.01,0,0.02,0,0.03-0.01C684.18,110.22,684.92,110.7,685.1,111.45z"/>
	<path class="st4" d="M700.55,69.44l-0.89,2.37c-3.34,8.85-12.29,20.86-16.2,22.5c-1.29-2.05-3.04-3.76-5.12-5
		c-2.05,1.41-3.42,3.61-3.79,6.08c-3.53-4.54-5.23-10.23-4.76-15.96l0,0c2.03-0.93,4.05-1.9,6.08-2.73
		c5.62-2.21,11.39-4.03,17.26-5.45C695.56,70.49,698.04,69.89,700.55,69.44z"/>
	<g class="st19">
		<path class="st2" d="M700.55,69.44l-0.89,2.37c-3.34,8.85-12.29,20.86-16.2,22.5c-1.29-2.05-3.04-3.76-5.12-5
			c-2.05,1.41-3.42,3.61-3.79,6.08c-3.53-4.54-5.23-10.23-4.76-15.96l0,0c2.03-0.93,4.05-1.9,6.08-2.73
			c5.62-2.21,11.39-4.03,17.26-5.45C695.56,70.49,698.04,69.89,700.55,69.44z"/>
	</g>
	<path class="st10" d="M648.87,49.41c2.17,6.79,1.76,14.14-1.13,20.66c-4.7,11.87,11.99,15.09,22.02,12.15
		c8.85-2.63,26.92-15.96,28.76-24.08s-7.39-6.08-13.17-18.82s-15.37-8.59-23.56-6.81C650,32.42,645.89,41.43,648.87,49.41z"/>
	<path class="st18" d="M674.65,70.35c3.1,2.71,5.71,6.08,2.88,11.26c-0.61,1.07-0.84,2.32-0.65,3.54c0.38,2.03,1.92,3.56,7.39-1.5
		c7.92-7.35,5.83-13.25,5.83-13.25c-5.1-0.41-10.13-9.82-12.54-15.33L674.65,70.35z"/>
	<path class="st16" d="M678.94,63.83c1.26,2.29-0.49,6.76-2.03,8.73c-0.65-0.81-1.38-1.55-2.17-2.23l1.74-9.01
		C677.47,61.98,678.31,62.84,678.94,63.83z"/>
	<path class="st18" d="M676.37,39.61c-4.9-5.3-13.16-5.62-18.46-0.72c0,0-0.01,0.01-0.01,0.01c-7.49,6.85-3.81,20.62,1.11,27.97
		c5.41,8.1,17.32,6.79,21.59-2.67c2.88-6.32,1.5-10.13-1.26-19.32C678.78,42.91,677.76,41.11,676.37,39.61z"/>
	<path class="st10" d="M658.22,56.6c-0.11-0.21-0.3-0.37-0.53-0.43c-0.23-0.03-0.47,0.02-0.67,0.14c-0.43,0.3-0.64,0.83-0.53,1.34
		l-0.79,0.12c-0.13-0.79,0.22-1.59,0.89-2.03l0.24-0.14c0.75-0.37,1.65-0.06,2.03,0.69L658.22,56.6z"/>
	<path class="st10" d="M667.24,52.47c0.22,0.75,0,1.48-0.45,1.64c-0.45,0.16-1.09-0.32-1.34-1.05c-0.24-0.73,0-1.48,0.45-1.64
		S666.97,51.78,667.24,52.47z"/>
	<path class="st10" d="M666.16,51.56h-2.03C664.14,51.56,665.56,52.57,666.16,51.56z"/>
	<path class="st20" d="M663.02,61.69c-0.82,0.56-1.84,0.74-2.8,0.49c0.56-1.83,0.86-3.73,0.89-5.65L663.02,61.69z"/>
	<path class="st21" d="M670.11,59.78c0.04-0.12-0.03-0.24-0.15-0.28c-0.01,0-0.01,0-0.02,0c-0.13-0.03-0.25,0.06-0.28,0.18
		c-0.56,1.9-2.01,3.42-3.89,4.05c-0.11,0.05-0.16,0.17-0.12,0.28l0,0c0.05,0.11,0.17,0.16,0.28,0.12c0.35-0.12,0.69-0.27,1.01-0.45
		C668.49,62.86,669.63,61.46,670.11,59.78z"/>
	<path class="st10" d="M649.27,42.95c-2.31,4.76,4.21,8.32,4.44,5.61c0.34-4.46,3.71-6.22,2.92-9.7
		C655.39,33.33,651.58,38.19,649.27,42.95z"/>
	<path class="st10" d="M666.45,47.51L666.45,47.51c0.1-0.23,0-0.5-0.22-0.61c-1.72-0.6-3.61-0.41-5.19,0.51
		c-0.21,0.12-0.28,0.4-0.16,0.61c0.12,0.22,0.4,0.3,0.63,0.18c1.3-0.78,2.87-0.96,4.31-0.49c0.16,0.11,0.37,0.11,0.53,0
		L666.45,47.51z"/>
	<path class="st10" d="M653.36,53.42c0.41-1.1,1.32-1.93,2.45-2.23l0,0c0.25-0.05,0.4-0.29,0.35-0.54s-0.29-0.4-0.54-0.35l0,0
		c-1.43,0.37-2.59,1.4-3.12,2.77l0,0c-0.08,0.23,0.03,0.49,0.26,0.59c0.14,0.08,0.31,0.08,0.45,0
		C653.28,53.59,653.33,53.51,653.36,53.42z"/>
	<path class="st10" d="M662.6,40.68c2.97-0.09,5.82,1.15,7.78,3.38c0.78,1.14,1.69,2.19,2.71,3.12c1.09,0.79,4.92,4.17,6.08,4.74
		c1.15,0.57,0.16-2.49,1.03-3.3c0.95-0.71,1.84-1.5,2.65-2.37c0.93-1.38,1.16-3.12,0.61-4.7c-0.56-1.56-1.51-2.95-2.75-4.05
		c-7.01-6.56-18-6.2-24.56,0.81c-0.07,0.07-0.14,0.15-0.21,0.23c-1.01,1.11-2.55,3.87,0.95,4.17c0.95,0,0.83-0.63,1.7-1.05
		C659.84,41.04,661.21,40.71,662.6,40.68z"/>
	<path class="st10" d="M686.21,45.81c-3.79-2.35-7.66-1.5-11.1-0.75c-1.6,0.49-3.28,0.67-4.94,0.51c-3.79-0.75-6.99-5.21-7.72-6.74
		c-0.74-1.22-2.05-1.98-3.48-2.03c-1.12,0.19-2.09,0.89-2.61,1.9c-0.34,1.36,0.05,2.8,1.03,3.81l-0.45,0.3
		c-1.1-1.14-1.52-2.78-1.09-4.31c0.61-1.18,1.73-2,3.04-2.23c1.68,0.01,3.23,0.92,4.05,2.39c0.67,1.4,3.81,5.73,7.33,6.44
		c1.6,0.13,3.21-0.04,4.74-0.51c3.36-0.73,7.51-1.66,11.48,0.81L686.21,45.81z"/>
	<path class="st22" d="M686.21,45.81c-3.79-2.35-7.66-1.5-11.1-0.75c-1.6,0.49-3.28,0.67-4.94,0.51c-3.79-0.75-6.99-5.21-7.72-6.74
		c-0.74-1.22-2.05-1.98-3.48-2.03c-1.12,0.19-2.09,0.89-2.61,1.9c-0.34,1.36,0.05,2.8,1.03,3.81l-0.45,0.3
		c-1.1-1.14-1.52-2.78-1.09-4.31c0.61-1.18,1.73-2,3.04-2.23c1.68,0.01,3.23,0.92,4.05,2.39c0.67,1.4,3.81,5.73,7.33,6.44
		c1.6,0.13,3.21-0.04,4.74-0.51c3.36-0.73,7.51-1.66,11.48,0.81L686.21,45.81z"/>
	<path class="st18" d="M684.31,49.92c-0.57-1.63-2.35-2.48-3.98-1.91c-0.03,0.01-0.05,0.02-0.08,0.03
		c-2.25,0.85-2.63,4.21-2.19,6.26c0.45,2.05,2.55,3.56,4.31,1.84c1.31-1.31,2.04-3.09,2.03-4.94
		C684.48,50.77,684.44,50.33,684.31,49.92z"/>
	<path class="st4" d="M678.01,137.42c-1.5,4.5,1.13,3.12,2.35,3.32c0.18,0,0.53,0,0.71,0c9.75,0.11,19.3-2.71,27.42-8.1l0.22-0.16
		c0.38-0.22,0.75-0.49,1.11-0.73l-13.29,2.51l-1.19,0.24l-5.08,0.95l-1.22,0.24L678.01,137.42z"/>
	<g class="st13">
		<path class="st2" d="M678.01,137.42c-1.5,4.5,1.13,3.12,2.35,3.32c0.18,0,0.53,0,0.71,0c9.75,0.11,19.3-2.71,27.42-8.1l0.22-0.16
			c0.38-0.22,0.75-0.49,1.11-0.73l-13.29,2.51l-1.19,0.24l-5.08,0.95l-1.22,0.24L678.01,137.42z"/>
	</g>
	<path class="st4" d="M687.49,84.11c1.9,6.34,13.21,29.43,26.33,27.28c2.08-0.39,3.94-1.55,5.21-3.24l0,0
		c9.03-8.57-5.81-37.19-8.28-38.48c-3.55-1.92-7.99-0.6-9.91,2.95c-0.5,0.93-0.8,1.95-0.87,3c-0.48-0.9-0.92-1.83-1.3-2.77
		c-1.26-3.18-4.74-10.45-8.1-10.29c-2.03,0-6.2,0.81-7.03,2.71C682.71,67.17,684.33,73.62,687.49,84.11z"/>
	<path class="st12" d="M687.49,84.11c1.9,6.34,13.21,29.43,26.33,27.28c2.08-0.39,3.94-1.55,5.21-3.24l0,0
		c9.03-8.57-5.81-37.19-8.28-38.48c-3.55-1.92-7.99-0.6-9.91,2.95c-0.5,0.93-0.8,1.95-0.87,3c-0.48-0.9-0.92-1.83-1.3-2.77
		c-1.26-3.18-4.74-10.45-8.1-10.29c-2.03,0-6.2,0.81-7.03,2.71C682.71,67.17,684.33,73.62,687.49,84.11z"/>
	<g class="st23">
		<path d="M680.3,48.03v0.59l0.63,5.71l1.58,7.21l-2.03-4.05c-0.5-1.06-0.8-2.2-0.91-3.36l-0.49-5.53L680.3,48.03z"/>
	</g>
	<path class="st18" d="M690.55,63.89l-0.91-11.59l-9.38,2.03c0,0,2.63,8.26,5.59,10.61L690.55,63.89z"/>
	<polygon class="st18" points="686.32,45 679.65,47.73 680.3,54.25 689.64,52.31 	"/>
</g>
<g id="freepik--character-3--inject-41">
	<path class="st4" d="M505.79,252.28c-0.36,0-0.71-0.1-1.01-0.28l-56.14-32.41c-0.99-0.52-1.37-1.74-0.86-2.73
		c0.52-0.99,1.74-1.37,2.73-0.86c0.05,0.03,0.1,0.05,0.15,0.09l56.14,32.41c0.97,0.55,1.32,1.79,0.76,2.76
		C507.21,251.89,506.53,252.28,505.79,252.28z"/>
	<path class="st4" d="M464.31,200.67l-0.14,0.87c-0.6,3.28-1.41,6.52-2.41,9.7c-0.41,1.26-0.85,2.51-1.32,3.75
		c-0.63,1.68-1.34,3.36-2.03,4.96c0,0.22-0.18,0.43-0.26,0.63c-17.91,37.73-63.02,53.8-100.75,35.89
		c-9.22-4.38-17.45-10.57-24.22-18.21c-27.72-31.26-24.84-79.07,6.42-106.79c15.11-13.4,34.95-20.2,55.09-18.89
		c2.58,0.17,5.15,0.48,7.7,0.91l0.79,0.14l0,0c1.36,0.26,2.69,0.55,4.05,0.87l0,0c8.15,1.92,15.92,5.19,22.99,9.68
		c22.09,14.03,35.36,38.48,35.1,64.65l0,0c-0.05,3.29-0.3,6.57-0.75,9.82C464.53,199.41,464.43,200.02,464.31,200.67z"/>
	<path class="st5" d="M464.31,200.67l-0.14,0.87c-0.6,3.28-1.41,6.52-2.41,9.7c-0.41,1.26-0.85,2.51-1.32,3.75
		c-0.63,1.68-1.34,3.36-2.03,4.96c0,0.22-0.18,0.43-0.26,0.63c-17.91,37.73-63.02,53.8-100.75,35.89
		c-9.22-4.38-17.45-10.57-24.22-18.21c-27.72-31.26-24.84-79.07,6.42-106.79c15.11-13.4,34.95-20.2,55.09-18.89
		c2.58,0.17,5.15,0.48,7.7,0.91l0.79,0.14l0,0c1.36,0.26,2.69,0.55,4.05,0.87l0,0c8.15,1.92,15.92,5.19,22.99,9.68
		c22.09,14.03,35.36,38.48,35.1,64.65l0,0c-0.05,3.29-0.3,6.57-0.75,9.82C464.53,199.41,464.43,200.02,464.31,200.67z"/>
	<path class="st24" d="M499.94,138.12c-0.91-8.65-6.74-11.08-8.97-10.01c-2.23,1.07-5.89,3.26-5.89,3.26
		c-0.57,3.46-2.27,11.22-2.03,14.42c0.14,2.91,1.27,5.69,3.2,7.88c1.67,1.88,4.25,2.67,6.68,2.03c2.43-0.93,4.05-4.74,4.7-7.19
		C498.34,145.66,500.36,141.71,499.94,138.12z"/>
	<path class="st10" d="M480.94,203.32c-1.52,4.48-3,8.75-4.35,12.52c0,0.22-0.14,0.43-0.24,0.65c-0.1,0.3-0.21,0.59-0.34,0.87
		c-0.42,1.21-1.11,2.32-2.03,3.22c-0.13,0.12-0.27,0.23-0.43,0.32c-2.23,0.3-4.49,0.43-6.74,0.38c-1.48,0-2.96-0.1-4.5-0.24h-0.18
		c-2.55-0.24-5.19-0.61-7.84-1.07c-3-0.53-6.08-1.17-9.09-2.03c-5.08-1.22-10.13-2.65-15.27-4.05h-0.16
		c-3.32-0.93-6.58-1.86-9.78-2.73c-2.82-0.77-4.05-10.92-4.82-13.49c-0.27-1.01-0.47-1.94-0.61-2.8c-0.32-1.33-0.32-2.72,0-4.05
		c0.49-1.48,1.74-2.39,4.05-2.61c3.87-0.03,7.72,0.53,11.42,1.66c4.74,1.22,11.71,2.96,18.98,4.78l4.35,1.09l1.26,0.32l4.15,1.05
		l3.28,0.81h0.24c4.82,1.26,9.18,2.35,12.48,3.24C476.87,201.73,478.94,202.45,480.94,203.32z"/>
	<path class="st16" d="M462.22,221.04h-0.16c-2.55-0.22-5.19-0.61-7.86-1.07c-2.98-0.53-6.08-1.17-9.07-2.03
		c-5.08-1.22-10.13-2.65-15.27-4.05h-0.16c0.38-5.21-0.16-15.74-0.16-15.74C443.51,217.3,461.54,220.92,462.22,221.04z"/>
	<path class="st16" d="M476.5,217.5l-0.51-0.14c-9.11-2.57-19.48-7.07-22.28-16.06c-0.23-1.76,0.08-3.55,0.89-5.12l4.15,1.05
		l3.28,0.81h0.24c0.17,0.51,0.39,1.01,0.65,1.48l8.49,14.18c1.01,1.7,4.05,1.56,4.86,2.75C476.52,216.74,476.6,217.13,476.5,217.5z"
		/>
	<path class="st10" d="M492.26,170.69c-3.34,9.32-7.43,21.61-11.22,32.63c-1.52,4.48-3,8.75-4.35,12.52
		c-0.48,1.78-1.4,3.41-2.67,4.74c-0.13,0.12-0.27,0.23-0.43,0.32c-2.02,1.31-4.59,1.46-6.74,0.38c-1.59-0.65-3.02-1.66-4.15-2.96
		c-4.47-5.39-4.87-13.08-0.97-18.9c0.14-0.47,0.32-0.93,0.49-1.4c3.24-9.28,8.34-23.13,12.27-31.58c1.38-2.98,4.76-11.81,7.03-14.18
		c4.92-2.03,8.63-1.11,13.31,4.58C498.18,161.07,493.78,166.18,492.26,170.69z"/>
	<path class="st10" d="M430.24,212.03c-0.14,0.65-0.26,1.28-0.41,2.03c-2.39,11.69-5.16,25.86-8.47,42.8
		c-24.1,11.05-52.22,8.69-74.15-6.22c-0.51-3.06-1.03-6.3-1.58-9.62c0,0,0,0,0-0.16c0-0.03,0-0.07,0-0.1
		c-0.83-5.06-1.66-10.31-2.45-15.37c-1.64-10.29-3.04-19.89-3.5-25.78c0-1.09-0.14-2.03-0.16-2.88c-0.03-0.5-0.03-1,0-1.5l0,0
		c0.22-5,2.03-13.69,6.08-17.88c0.79-0.83,1.75-1.48,2.82-1.9c5.27-2.03,11.14-1.64,16.95-0.53l0,0c4.05,0.79,8.24,2.03,12.15,2.73
		c0.2,0.03,0.39,0.07,0.59,0.12c7.17,1.46,14.36,2.21,21.49,3.71l0,0c2.86,0.57,5.68,1.31,8.45,2.21c1.13,0.36,2.25,0.77,3.36,1.19
		l0,0c2.51,0.98,4.95,2.14,7.29,3.48l0,0c4.46,2.23,8.22,5.63,10.88,9.84C432.01,202.8,431.16,207.39,430.24,212.03z"/>
	<path class="st4" d="M408.96,188.37c2.89,0.59,5.51,2.11,7.45,4.33c-9.92,11.67-22.28,18.63-22.68,18.13
		c-11.69-6.26-25.48-16.2-31.98-27.99c1.73-1.11,3.65-1.87,5.67-2.25c-3.02-6.08-3.58-11.91,1.03-16.2c3.06-2.9,8.1-3.36,12.33-2.37
		c4.22,1.24,8.3,2.93,12.15,5.06c10.25,4.81,21.34,7.56,32.65,8.1C418.59,177.35,412.66,182.06,408.96,188.37z"/>
	<path class="st6" d="M408.96,188.37c2.89,0.59,5.51,2.11,7.45,4.33c-9.92,11.67-22.28,18.63-22.68,18.13
		c-11.69-6.26-25.48-16.2-31.98-27.99c1.73-1.11,3.65-1.87,5.67-2.25c-3.02-6.08-3.58-11.91,1.03-16.2c3.06-2.9,8.1-3.36,12.33-2.37
		c4.22,1.24,8.3,2.93,12.15,5.06c10.25,4.81,21.34,7.56,32.65,8.1C418.59,177.35,412.66,182.06,408.96,188.37z"/>
	<path class="st24" d="M387.47,153.64l16.41,16.2c-4.05,4.84-7.01,10.31-2.15,15.09c2.71,2.71,2.71,7.11,0,9.82
		c-0.12,0.1-0.22,0.22-0.36,0.32c-2.98,2.61-10.01,9.34-10.01,9.34s-13.19-15.15-15.7-20.62c-1.01-2.27,1.3-3.69,2.29-6.08
		C381.63,169.74,385.95,161.42,387.47,153.64z"/>
	<path class="st16" d="M395.87,158.66l8.1,11.24c-1.15,1.33-2.17,2.77-3.04,4.29c-4.9,0-10.45-6.28-9.26-10.13
		C392.71,162.01,394.14,160.17,395.87,158.66z"/>
	<path class="st24" d="M387.57,135.78c-2.59,12.15-4.7,19.2-0.3,26.98c6.6,11.67,22.97,10.13,29.13-1.09
		c5.55-10.13,8.79-28.36-1.66-36.21c-7.56-5.71-18.32-4.21-24.04,3.34C389.14,130.86,388.08,133.24,387.57,135.78z"/>
	<path class="st10" d="M385.73,126.34c-1.7,4.88-3.38,10.29-1.44,15.09c1.15,2.84,3.56,5.45,3.12,8.51
		c2.86-5.23,8.43-14.5,7.84-20.66C394.8,124.33,387.87,120.08,385.73,126.34z"/>
	<path class="st24" d="M380.09,145.46c0.65,2.89,2.37,5.43,4.82,7.09c3.12,2.03,5.49-1.01,5.31-4.92c-0.2-3.54-2.03-8.89-5.49-9.22
		C381.27,138.08,379.22,141.77,380.09,145.46z"/>
	<path class="st10" d="M402.5,143.15c-0.36,0.75-0.06,1.64,0.67,2.03c0.65,0.18,1.38-0.47,1.64-1.46c0.26-0.99,0-1.9-0.67-2.03
		C403.47,141.57,402.76,142.18,402.5,143.15z"/>
	<path class="st10" d="M415.8,146.57c-0.26,0.97,0,2.03,0.67,2.03s1.38-0.47,1.64-1.44c0.26-0.97,0-1.9-0.67-2.03
		C416.77,145.01,416.07,145.6,415.8,146.57z"/>
	<path class="st25" d="M413.27,146.75c0.37,3.29,1.18,6.51,2.41,9.58c-1.61,0.62-3.42,0.49-4.92-0.36L413.27,146.75z"/>
	<path class="st10" d="M410.03,137.29c0.03,0.1,0.03,0.2,0,0.3c-0.05,0.31-0.33,0.54-0.65,0.53c-1.92-0.14-3.65-1.21-4.64-2.86
		c-0.15-0.27-0.05-0.62,0.22-0.77c0.01-0.01,0.03-0.01,0.04-0.02l0,0c0.3-0.14,0.65-0.02,0.81,0.26l0,0
		c0.81,1.29,2.18,2.13,3.71,2.25C409.74,136.98,409.94,137.1,410.03,137.29z"/>
	<path class="st10" d="M411.43,140.92c-0.09-0.06-0.15-0.14-0.18-0.24c-0.06-0.32,0.14-0.64,0.47-0.71
		c1.87-0.41,3.83,0.08,5.29,1.34c0.23,0.23,0.23,0.6,0,0.83l0,0c-0.24,0.23-0.61,0.23-0.85,0l0,0c-1.16-0.98-2.71-1.35-4.19-1.01
		C411.75,141.16,411.55,141.08,411.43,140.92z"/>
	
		<rect x="392.26" y="132.51" transform="matrix(0.0105 -0.9999 0.9999 0.0105 250.0465 530.2574)" class="st10" width="1.36" height="12.56"/>
	<path class="st10" d="M411.02,143.33c-0.08-0.07-0.13-0.16-0.14-0.26c-0.06-0.32,0.14-0.64,0.47-0.71
		c1.87-0.41,3.83,0.08,5.29,1.34c0.23,0.23,0.23,0.6,0,0.83l0,0c-0.24,0.22-0.61,0.22-0.85,0l0,0c-1.16-0.98-2.71-1.35-4.19-1.01
		C411.38,143.57,411.16,143.5,411.02,143.33z"/>
	<path class="st10" d="M424.25,139.36c-0.2,0-0.38-0.1-0.49-0.26c-0.73-1.33-2.07-2.21-3.58-2.35c-0.32-0.01-0.58-0.28-0.57-0.61
		c0,0,0,0,0,0c0-0.31,0.25-0.57,0.57-0.57c0.01,0,0.03,0,0.04,0c1.91,0.14,3.63,1.23,4.58,2.9c0.12,0.3,0,0.64-0.28,0.79
		C424.44,139.32,424.35,139.36,424.25,139.36z"/>
	<path class="st10" d="M412.3,139.7c1.58,0.81,0,14.32-8.99,11.97c-7.51-2.03-8.26-9.92-6.66-11.85
		C401.12,134.4,410.03,138.65,412.3,139.7z"/>
	<path class="st10" d="M416.01,140.88c-1.26,0.26-3.54,14.46,2.96,15.15c5.53,0.59,7.19-6.99,7.17-9.64
		C424.55,140.53,417.81,140.45,416.01,140.88z"/>
	<g class="st23">
		<path class="st2" d="M409.22,138.77l1.68,9.86c-0.87,1.48-2.25,2.59-3.89,3.1l-2.29-13.65
			C406.24,138.21,407.74,138.44,409.22,138.77z"/>
		<path class="st2" d="M402.64,137.88l2.39,13.96c-0.56-0.03-1.12-0.13-1.66-0.28c-0.36-0.08-0.72-0.2-1.05-0.36l-2.27-13.27
			C400.91,137.84,401.77,137.82,402.64,137.88z"/>
		<path class="st2" d="M423.6,142.86l1.5,8.73c-0.48,1.24-1.25,2.34-2.25,3.22l-2.25-13.31
			C421.65,141.85,422.65,142.31,423.6,142.86z"/>
		<path class="st2" d="M421.7,155.58c-0.5,0.24-1.04,0.39-1.6,0.43l-2.57-15.17c0.59,0,1.15,0.18,1.72,0.3L421.7,155.58z"/>
	</g>
	<path class="st10" d="M409.5,160.59L409.5,160.59c-3.61-0.33-6.84-2.39-8.65-5.53c-0.09-0.19-0.02-0.42,0.16-0.53l0,0
		c0.19-0.1,0.42-0.02,0.52,0.17c0,0.01,0.01,0.01,0.01,0.02c1.72,2.91,4.74,4.81,8.1,5.1c0.21,0.03,0.36,0.23,0.33,0.44
		c0,0,0,0.01,0,0.01c-0.02,0.2-0.2,0.35-0.4,0.32c0,0,0,0,0,0H409.5z"/>
	<path class="st10" d="M390.18,115.7c1.31-2.17,3.71-3.44,6.24-3.32c2.48,0.16,4.93,0.63,7.29,1.4c4.9,1.22,9.97,1.55,14.99,0.99
		c2.07-0.34,4.18-0.49,6.28-0.45c2.14,0.05,4.14,1.04,5.49,2.69c1.67,2.92,1.05,6.61-1.48,8.83c-2.52,2.11-5.55,3.51-8.79,4.05
		c-7.09,1.66-15.27,2.59-22.02-0.87C394.11,126.88,387.71,120.73,390.18,115.7z"/>
	<path class="st16" d="M340.8,199.51c16-11.04,17.22,14.42,14.89,25.44c0,0.12,0,0.26,0,0.41c-2.96,13.51-10.13,15.64-10.13,15.64
		s-8.1-42.11-7.09-42.13C338.72,198.87,339.73,200.24,340.8,199.51z"/>
	<path class="st10" d="M353.97,214.18c-4.02,3.34-7.67,7.09-10.9,11.2l-0.36,0.43c-1.34,1.56-2.82,3.36-4.48,5.37
		c-1.44,1.7-2.79,3.48-4.05,5.33c-0.43,0.61-0.81,1.19-1.17,1.76c-5.76-6.48-10.36-13.91-13.59-21.96c3.67-7.76,7.8-17.6,13.29-25.4
		c2.03-2.96,5.87-8.1,5.89-8.1c1.84-2.3,4.15-4.18,6.76-5.53l0,0c0.99-0.55,2.05-0.98,3.14-1.3c2.94-0.47,6.85,17.54,7.33,28.88
		c0,0.87,0,1.72,0,2.51v0.38c0.1,1.81-0.2,3.62-0.87,5.31c-0.08,0.15-0.17,0.28-0.28,0.41c-0.15,0.16-0.32,0.29-0.51,0.41l0,0
		L353.97,214.18z"/>
</g>
<g id="freepik--character-2--inject-41">
	<path class="st4" d="M415.4,455.32c0.02,20.8-11.81,39.79-30.48,48.95l-0.28,0.14c-0.49,0.22-0.95,0.47-1.46,0.67l0,0h-0.16
		c-0.89,0.41-1.8,0.77-2.71,1.11l-0.87,0.3c-5.89,2.12-12.09,3.2-18.35,3.2l0,0c-6.28-0.01-12.5-1.1-18.41-3.22
		c-2.95-1.08-5.8-2.4-8.53-3.95c-1.4-0.81-2.75-1.66-4.05-2.61l-0.99-0.71c-12.22-8.91-20.18-22.51-21.96-37.53
		c-0.18-1.41-0.29-2.83-0.32-4.25l0,0c0-0.71,0-1.44,0-2.17c-0.58-30.06,23.32-54.9,53.38-55.48c30.06-0.58,54.9,23.32,55.48,53.38
		c0.01,0.7,0.01,1.4,0,2.1L415.4,455.32z"/>
	<path class="st5" d="M415.4,455.32c0.02,20.8-11.81,39.79-30.48,48.95l-0.28,0.14c-0.49,0.22-0.95,0.47-1.46,0.67l0,0h-0.16
		c-0.89,0.41-1.8,0.77-2.71,1.11l-0.87,0.3c-5.89,2.12-12.09,3.2-18.35,3.2l0,0c-6.28-0.01-12.5-1.1-18.41-3.22
		c-2.95-1.08-5.8-2.4-8.53-3.95c-1.4-0.81-2.75-1.66-4.05-2.61l-0.99-0.71c-12.22-8.91-20.18-22.51-21.96-37.53
		c-0.18-1.41-0.29-2.83-0.32-4.25l0,0c0-0.71,0-1.44,0-2.17c-0.58-30.06,23.32-54.9,53.38-55.48c30.06-0.58,54.9,23.32,55.48,53.38
		c0.01,0.7,0.01,1.4,0,2.1L415.4,455.32z"/>
	<path class="st4" d="M407.4,442.46c-1.12,0.01-2.03-0.89-2.04-2.01c-0.01-0.73,0.39-1.41,1.03-1.78l76.56-44.19
		c0.94-0.6,2.2-0.32,2.8,0.62c0.6,0.94,0.32,2.2-0.62,2.8c-0.05,0.03-0.1,0.06-0.15,0.09l-76.56,44.19
		C408.1,442.36,407.75,442.46,407.4,442.46z"/>
	<path class="st15" d="M401.6,392.94c-3.56-4.96-7.96-4.4-8.95-2.98c-0.99,1.42-2.45,4.05-2.45,4.05c1.02,3.24,2.29,6.4,3.81,9.44
		c1.1,1.73,2.76,3.03,4.7,3.69c1.66,0.58,3.5,0.15,4.74-1.09c1.17-1.42,0.87-4.31,0.38-6.08
		C403.25,398.06,403.14,394.99,401.6,392.94z"/>
	<path class="st10" d="M412.7,439.2c0.63,3.24,1.19,6.36,1.7,9.13c0,0.14,0,0.28,0,0.47c0.01,0.22,0.01,0.43,0,0.65
		c0.16,0.89,0.11,1.8-0.14,2.67c-0.04,0.12-0.1,0.24-0.16,0.34c-1.27,0.98-2.63,1.85-4.05,2.59c-0.89,0.51-1.82,0.95-2.82,1.42l0,0
		l0,0c-1.64,0.75-3.36,1.42-5.14,2.03c-1.78,0.61-4.05,1.38-6.2,2.03c-3.52,1.03-7.13,2.03-10.71,2.84h-0.12l-6.89,1.74
		c-2.03,0.51-6.32-5.21-7.62-6.54c-0.49-0.46-0.93-0.96-1.34-1.5c-0.65-0.68-1.12-1.51-1.38-2.41c-0.2-1.07,0.24-2.03,1.62-3.02
		c2.34-1.37,4.87-2.38,7.51-2.98l13.21-3.67l3.02-0.87l0.89-0.22l2.9-0.81l2.27-0.65h0.18c3.36-0.91,6.38-1.76,8.71-2.37
		C409.64,439.65,411.16,439.36,412.7,439.2z"/>
	<path class="st16" d="M402.27,457.83L402.27,457.83c-1.62,0.75-3.36,1.44-5.14,2.03s-4.05,1.38-6.2,2.03
		c-3.5,1.01-7.13,1.92-10.69,2.82h-0.12c-1.58-3.3-5.57-9.52-5.57-9.52C383.18,459.32,393.01,460.26,402.27,457.83z"/>
	<path class="st16" d="M414.93,449.35l-0.36,0.1c-6.44,1.6-14.32,2.47-19.1-2.03c-0.75-0.99-1.18-2.18-1.24-3.42l2.9-0.81l2.27-0.65
		h0.18c0.28,0.25,0.58,0.47,0.89,0.67l10.13,5.67c1.22,0.67,3.04-0.49,3.91,0C414.71,448.97,414.86,449.14,414.93,449.35z"/>
	<path class="st10" d="M408.19,415.44c1.19,6.83,2.98,15.74,4.52,23.76c0.63,3.24,1.19,6.36,1.7,9.13c0.3,1.24,0.3,2.54,0,3.79
		c-0.04,0.12-0.1,0.24-0.16,0.34c-0.78,1.53-2.33,2.52-4.05,2.59c-1.19,0.16-2.41,0.03-3.54-0.36c-4.59-1.73-7.5-6.27-7.17-11.16
		l-0.18-1.01c-1.26-6.76-2.96-16.97-3.5-23.47c-0.18-2.29-1.22-8.83-0.63-11.04c2.31-2.88,4.86-3.67,9.68-1.84
		C408.49,407.5,407.6,412.08,408.19,415.44z"/>
	<path class="st4" d="M380.2,506.28l-0.87,0.3c-5.89,2.12-12.09,3.2-18.35,3.2l0,0c-0.53-18.88-4.05-36.46-12.01-49.85l0,0
		c-2.15-3.65-2.75-6.28-2.31-8.1c1.34-0.43,2.73-0.79,4.15-1.09c3.34-0.66,6.73-1.02,10.13-1.07c0.59,0,1.3,0,2.03,0h0.97h0.22
		l0.77,0.3c0.59,0.2,1.16,0.47,1.7,0.79c0.75,0.51,1.43,1.12,2.03,1.8c1.63,1.95,2.95,4.15,3.91,6.5c0.36,0.84,0.71,1.71,1.03,2.61
		c0.04,0.07,0.08,0.14,0.1,0.22C377.16,471.87,379.63,487.22,380.2,506.28z"/>
	<path class="st6" d="M380.2,506.28l-0.87,0.3c-5.89,2.12-12.09,3.2-18.35,3.2l0,0c-0.53-18.88-4.05-36.46-12.01-49.85l0,0
		c-2.15-3.65-2.75-6.28-2.31-8.1c1.34-0.43,2.73-0.79,4.15-1.09c3.34-0.66,6.73-1.02,10.13-1.07c0.59,0,1.3,0,2.03,0h0.97h0.22
		l0.77,0.3c0.59,0.2,1.16,0.47,1.7,0.79c0.75,0.51,1.43,1.12,2.03,1.8c1.63,1.95,2.95,4.15,3.91,6.5c0.36,0.84,0.71,1.71,1.03,2.61
		c0.04,0.07,0.08,0.14,0.1,0.22C377.16,471.87,379.63,487.22,380.2,506.28z"/>
	<path class="st10" d="M384.92,489.73c0,5.85,0,10.41,0,14.54l-0.28,0.14c-0.49,0.22-0.95,0.47-1.46,0.67l0,0h-0.16
		c-0.89,0.41-1.8,0.77-2.71,1.11l-0.87,0.3c-0.59-17.32-2.61-31.64-5.81-41.48c-0.58-1.79-1.26-3.55-2.03-5.27
		c-0.91-2.25-2.12-4.37-3.61-6.3c-0.68-0.89-1.5-1.66-2.43-2.29c-0.44-0.29-0.91-0.53-1.4-0.71l-1.3-0.49h1.15h0.71
		c2.1,0.1,4.2,0.36,6.26,0.79c2.75,0.63,5.08,1.64,5.89,3.26c0.43,0.87,0.83,1.76,1.22,2.63c1.08,2.53,2.02,5.12,2.82,7.76l0,0
		C383.38,472.64,384.73,481.15,384.92,489.73z"/>
	<path class="st10" d="M329.56,497.98c-2.53-15.23-6.64-25.88-6.6-31.66c-0.02-0.88,0.13-1.76,0.45-2.59
		c3.79-9.22,14.7-9.24,23.07-11.87l0,0c-0.45,1.82,0.16,4.46,2.31,8.1l0,0c7.9,13.37,11.48,30.97,12.01,49.85
		c-6.28-0.01-12.5-1.1-18.41-3.22c-2.95-1.08-5.8-2.4-8.53-3.95c-1.4-0.81-2.75-1.66-4.05-2.61L329.56,497.98z"/>
	<path class="st4" d="M345.54,455.55c0.47,1.31,1.27,2.47,2.33,3.36c4.25,4.29,8.51,8.59,12.78,12.9c2.03-1.76,3.69-3.18,6.56-5.59
		c1.78,0.87,3.69,1.44,5.65,1.7c0.16-2.73,4.05-5.02-5.43-15.45c-2.03-2.31-6.95-3.79-10.13-4.05
		C347.38,447.44,344.93,453.2,345.54,455.55z"/>
	<path class="st15" d="M348.46,434.52c2.03,5.57,1.52,15.07,3.12,21.33c1.09,4.29,16.47,9.5,16.47,9.5s5.85-5.95,0.55-9.52
		c-4.44-2.98-5.37-6.85-4.88-11.67L348.46,434.52z"/>
	<path class="st16" d="M354.72,438.41l9.03,5.69c-0.16,1.34-0.2,2.7-0.12,4.05c-3.1,0-7.76-2.71-8.53-5.83
		C354.73,441.05,354.6,439.73,354.72,438.41z"/>
	<path class="st10" d="M364.2,428.57c1.26-10.23-1.48-14.74,1.07-20.88c1.9-1.86,7.43,0.87,7.41,9.01
		C372.66,424.84,364.2,428.57,364.2,428.57z"/>
	<path class="st15" d="M375.01,431.08c0.05,0.88,0.05,1.76,0,2.63c-0.91,9.96-12.15,16.1-20.58,9.7c-1.81-1.33-3.29-3.07-4.31-5.06
		c-1.9-3.63-2.63-8.2-3.93-14.42c-0.48-2-0.48-4.08,0-6.08c1.8-7.13,9.03-11.45,16.15-9.65c0.02,0,0.03,0.01,0.05,0.01
		C371.39,410.38,375.05,422.21,375.01,431.08z"/>
	<path class="st10" d="M348.46,431.59l6.6,1.22l-2.55-8.97l3.48-4.15l-0.14-6.52c0,0-12.94,0.89-16.61,1.7
		c-1.28,0.28-1.78,1.64-1.9,3.26c-0.22,4.63,2.22,8.98,6.28,11.22C345.15,430.25,346.77,431,348.46,431.59z"/>
	<path class="st10" d="M368.14,435.33L368.14,435.33c-2.29,0.38-4.62-0.38-6.26-2.03c-0.1-0.09-0.1-0.25,0-0.34c0,0,0,0,0,0
		c0.08-0.06,0.2-0.06,0.28,0c1.54,1.52,3.71,2.22,5.85,1.88c0.13-0.02,0.26,0.07,0.28,0.2c0,0.01,0,0.02,0,0.02l0,0
		c0.01,0.12-0.08,0.23-0.2,0.24c-0.01,0-0.01,0-0.02,0L368.14,435.33z"/>
	<path class="st15" d="M352.69,432.86c0.89,2.59-0.14,5.12-2.57,5.16l0,0c-0.35,0-0.69-0.04-1.03-0.12
		c-2.38-0.6-4.44-2.11-5.71-4.21c-1.32-1.89-0.85-4.49,1.04-5.81c0.48-0.33,1.02-0.56,1.59-0.67c3.04-0.53,5.67,2.8,6.62,5.39
		C352.66,432.68,352.68,432.77,352.69,432.86z"/>
	<path class="st10" d="M359.78,424.54c0,0.79,0.61,1.36,1.13,1.3s0.83-0.77,0.71-1.56c-0.12-0.79-0.63-1.36-1.13-1.3
		S359.66,423.75,359.78,424.54z"/>
	<path class="st10" d="M368.71,423.26c0,0.79,0.63,1.36,1.13,1.28c0.51-0.08,0.83-0.75,0.71-1.56c-0.12-0.81-0.61-1.34-1.13-1.28
		C368.89,421.76,368.53,422.47,368.71,423.26z"/>
	<path class="st17" d="M367.21,424.05c1.29,2.23,2.88,4.27,4.72,6.08c-1.03,0.91-2.43,1.3-3.79,1.05L367.21,424.05z"/>
	<path class="st10" d="M357.94,422.07c0.18,0,0.34-0.09,0.43-0.24c0.53-1.08,1.55-1.84,2.73-2.03c0.26-0.02,0.45-0.25,0.43-0.5
		c0,0,0,0,0,0c-0.02-0.26-0.25-0.45-0.5-0.43c0,0,0,0,0,0l0,0c-1.48,0.2-2.78,1.12-3.46,2.45c-0.13,0.21-0.07,0.48,0.14,0.61
		c0.01,0,0.01,0.01,0.02,0.01C357.77,422.01,357.85,422.05,357.94,422.07z"/>
	<path class="st10" d="M373.35,419.66c0.09,0.02,0.18,0.02,0.26,0c0.22-0.14,0.28-0.43,0.14-0.64c-0.01-0.01-0.01-0.02-0.02-0.02
		c-0.83-1.25-2.23-2-3.73-2.03c-0.25,0.01-0.46,0.21-0.47,0.47c0,0.26,0.21,0.47,0.47,0.47c0.01,0,0.01,0,0.02,0l0,0
		c1.18,0.07,2.26,0.7,2.9,1.7C373.05,419.68,373.21,419.7,373.35,419.66z"/>
	<path class="st16" d="M375.01,431.08c0.05,0.88,0.05,1.76,0,2.63c-0.91,9.96-12.15,16.1-20.58,9.72c-1.84-1.32-3.35-3.03-4.42-5.02
		c-0.01-0.11-0.01-0.22,0-0.32l0,0c2.43,0,3.46-2.57,2.57-5.16c0.01-0.09,0.01-0.18,0-0.26c2.23-1.92,8.57-1.38,10.98-1.24
		C367.44,431.63,371.53,432.33,375.01,431.08z"/>
	<path class="st10" d="M336.77,412.08c-0.47,1.86,0.36,3.81,2.03,4.76c1.63,0.92,3.48,1.35,5.35,1.24
		c4.71-0.01,9.34-1.23,13.45-3.52c2.31-1.59,4.83-2.87,7.47-3.81c2.71-0.65,6.08,0.22,7.17,2.84c2.05-4.23,0.28-9.32-3.94-11.37
		c-0.65-0.31-1.33-0.54-2.03-0.69c-4.76-0.97-9.32,2.17-14.18,2.94c-2.36,0.24-4.72,0.33-7.09,0.28c-2.38-0.01-4.71,0.69-6.68,2.03
		C336.47,408.13,336.77,412.08,336.77,412.08z"/>
	<path class="st16" d="M327.7,475.13c9.64-9.62,13.69,7.78,13.47,15.66v0.28c-0.32,9.68-4.86,12.15-4.86,12.15
		s-10.9-27.99-10.13-28.13C326.18,474.87,327.05,475.78,327.7,475.13z"/>
	<path class="st10" d="M338.63,483.6c-2.49,2.91-4.63,6.1-6.38,9.5c-0.71,1.26-1.54,2.67-2.43,4.29l-0.34,0.69
		c-0.26,0.45-0.49,0.89-0.69,1.32c-4.98-3.7-9.29-8.23-12.74-13.39c1.23-5.4,2.92-10.69,5.06-15.8c0.51-1.11,1.24-2.63,1.86-3.89
		c0.63-1.26,1.17-2.39,1.2-2.41c1.4-2.54,3.51-4.61,6.08-5.95c2.03-0.71,6.93,11.2,8.71,18.96c0.12,0.59,0.24,1.17,0.34,1.74v0.26
		c0.25,1.24,0.25,2.51,0,3.75c-0.04,0.12-0.09,0.22-0.16,0.32c-0.08,0.13-0.17,0.24-0.28,0.34l0,0
		C338.77,483.41,338.69,483.5,338.63,483.6z"/>
</g>
<g id="freepik--character-1--inject-41">
	<path class="st2" d="M607.41,284.82c0,0-16.95,33.24-17.66,31.84l-21.12-40.51l-9.22,5.69c0,0,18.88,59.06,30.38,63.86
		c11.5,4.8,37.41-50.21,37.41-50.21C626.69,277.37,607.41,284.82,607.41,284.82z"/>
	<path class="st8" d="M607.41,284.82c0,0-16.95,33.24-17.66,31.84l-21.12-40.51l-9.22,5.69c0,0,18.88,59.06,30.38,63.86
		c11.5,4.8,37.41-50.21,37.41-50.21C626.69,277.37,607.41,284.82,607.41,284.82z"/>
	<path class="st4" d="M587.46,279.94l-10.29,1.8c-3.11,0.54-6.07-1.53-6.62-4.64l-5.95-34.21c-0.47-2.7,1.04-5.35,3.61-6.32
		l10.29-1.8c3.1-0.54,6.06,1.54,6.6,4.64l5.97,34.23C591.53,276.34,590.01,278.98,587.46,279.94z"/>
	<path class="st10" d="M587.46,279.94c-0.34,0.14-0.69,0.24-1.05,0.3l-10.69,1.86c-3.1,0.54-6.06-1.54-6.6-4.64l-5.95-34.21
		c-0.55-3.11,1.52-6.07,4.63-6.62c0,0,0.01,0,0.01,0h0.41l10.29-1.8c3.1-0.54,6.06,1.54,6.6,4.64l5.97,34.23
		C591.5,276.38,589.99,278.99,587.46,279.94z"/>
	<path class="st10" d="M564.18,237.13l3.74-0.71c1.18-0.22,2.31,0.55,2.53,1.73l0.71,3.74c0.22,1.18-0.55,2.31-1.73,2.53l-3.74,0.71
		c-1.18,0.22-2.31-0.55-2.53-1.73l-0.71-3.74C562.23,238.49,563,237.36,564.18,237.13z"/>
	<path class="st6" d="M564.64,234.76l3.45-0.67c1.25-0.24,2.46,0.57,2.7,1.82l0.67,3.45c0.24,1.25-0.57,2.46-1.82,2.7l-3.45,0.67
		c-1.25,0.24-2.46-0.57-2.7-1.82l-0.67-3.45C562.58,236.22,563.39,235.01,564.64,234.76z"/>
	<path class="st10" d="M568.38,240.39c0.22,1.1-0.5,2.16-1.59,2.38c-1.1,0.22-2.16-0.5-2.38-1.59s0.5-2.16,1.59-2.38
		c0.01,0,0.02,0,0.03-0.01C567.12,238.59,568.16,239.3,568.38,240.39z"/>
	<path class="st26" d="M567.44,240.55c0.11,0.58-0.26,1.13-0.83,1.26c-0.58,0.1-1.13-0.28-1.26-0.85c-0.11-0.57,0.26-1.12,0.84-1.23
		c0,0,0.01,0,0.01,0c0.56-0.12,1.11,0.23,1.23,0.79C567.44,240.52,567.44,240.54,567.44,240.55z"/>
	<path class="st24" d="M558.59,274.7l1.36-8.81c0.18-1.15,0.95-2.11,2.03-2.55l11.02-4.96c1.69-0.76,3.68,0,4.44,1.7
		c0.13,0.28,0.21,0.57,0.26,0.88l0.79,5.31c0.21,1.43-0.59,2.82-1.92,3.36c-2.8,1.11-4.87,3.54-5.53,6.48
		c-1.44,4.98-0.43,6.93-4.86,8.49S558.09,284.66,558.59,274.7z"/>
	<g id="freepik--group--inject-41">
		<path class="st2" d="M697.17,384.33l-69.57,11.95c-2.17-22.21-6.56-44.16-13.08-65.5c-14.04-47.72-5.41-47.09-5.41-47.09
			c6.26-2.84,12.75-5.18,19.38-6.99c9.76-2.27,18.11-5.33,28.05-6.44c8.18-0.81,16.41-1.11,24.63-0.91
			c0.97,5.69,1.92,11.69,2.86,17.86c1.88,12.15,3.73,25.05,5.41,37.33C693.3,352.78,696.34,377.83,697.17,384.33z"/>
		<path class="st4" d="M619.86,279.38c6.97,0.82,13.68-2.95,16.61-9.34c0.59-1.72,0.7-3.57,0.32-5.35
			C629.01,266.37,622.62,271.91,619.86,279.38z"/>
		<path class="st2" d="M619.86,279.38c6.97,0.82,13.68-2.95,16.61-9.34c0.59-1.72,0.7-3.57,0.32-5.35
			C629.01,266.37,622.62,271.91,619.86,279.38z"/>
		<path class="st4" d="M650.95,260.18c1.38,3.5,2.65,7.94,6.08,9.56c1.65,0.67,3.42,1.02,5.21,1.01c4.26,0.01,8.52-0.35,12.72-1.07
			c0.54-3.23,0.08-6.55-1.32-9.52c-1.52-2.68-4.23-4.48-7.29-4.82c-2.54,0-5.05,0.61-7.31,1.76
			C656.32,258.15,653.63,259.04,650.95,260.18z"/>
		<path class="st2" d="M650.95,260.18c1.38,3.5,2.65,7.94,6.08,9.56c1.65,0.67,3.42,1.02,5.21,1.01c4.26,0.01,8.52-0.35,12.72-1.07
			c0.54-3.23,0.08-6.55-1.32-9.52c-1.52-2.68-4.23-4.48-7.29-4.82c-2.54,0-5.05,0.61-7.31,1.76
			C656.32,258.15,653.63,259.04,650.95,260.18z"/>
		<g class="st23">
			<path d="M636.07,265.83c-4.09,1.66-6.7,5.71-6.52,10.13c1.8-1.12,3.44-2.48,4.86-4.05c1.38-1.59,2.02-3.68,1.78-5.77
				C636.19,266.13,636.19,265.81,636.07,265.83z"/>
		</g>
		<path class="st16" d="M658.55,268.42c-2.36-1.6-4.21-3.85-5.33-6.48c-0.07-0.25-0.12-0.5-0.16-0.75c1.63-0.04,3.24-0.36,4.76-0.93
			c1.55-0.58,3.29-0.2,4.48,0.95C663.1,262.2,662.4,266.94,658.55,268.42z"/>
		<path class="st24" d="M656.93,273.04c-4.32,4.36-9.43,7.85-15.07,10.27c-2.47,1.15-5.32,1.09-7.74-0.16l-0.71-0.38
			c-1.92-1.09-3.1-3.14-3.08-5.35v-0.12c0.02-0.61,0.13-1.22,0.32-1.8c2.31-1.18,4.1-3.17,5.04-5.59c0.18-0.42,0.3-0.86,0.36-1.32
			c0.45-3.88-0.31-7.81-2.17-11.24l15.51-18.63c-0.16,6.26,0.45,16.2,3.81,23.23c1.11,2.63,2.96,4.88,5.33,6.48
			C659.5,269.8,657.62,272.19,656.93,273.04z"/>
		<path class="st16" d="M644.17,251.41c0.3,4.31-4.44,13.69-8.47,11c-0.45-1.73-1.05-3.41-1.8-5.02l9.18-11.02
			C643.74,247.96,644.11,249.67,644.17,251.41z"/>
		<path class="st24" d="M645.44,216.49c-5.25-8.36-16.27-10.88-24.63-5.63c0,0,0,0,0,0c-11.73,7.29-10.23,26.72-5.47,37.83
			c5.29,12.31,22.28,15.49,30.28,3.87c5.39-7.74,3.89-15.27,2.47-28.36C647.82,221.46,646.92,218.82,645.44,216.49z"/>
		<path class="st24" d="M655.02,230.6l-7.96,9.32c0,0-2.57-1.64-3.44-10.55c-0.3-2.31-2.84-2.9-3.54-5.25
			c-0.71-2.35,0.14-10.13,2.23-10.31c2.09-0.18,12.76-0.67,12.76-0.67L655.02,230.6z"/>
		<path class="st16" d="M655.02,230.6l-7.96,9.32c0,0-2.57-1.64-3.44-10.55c-0.3-2.31-2.84-2.9-3.54-5.25
			c-0.71-2.35,0.14-10.13,2.23-10.31c2.09-0.18,12.76-0.67,12.76-0.67L655.02,230.6z"/>
		<path class="st24" d="M660.65,492.1c-1.11,16.71-6.76,76.11-6.76,76.11c4.33,64.45-6.48,152.29-6.48,152.29l-13.98,0.63
			c0,0-7.96-209.81-6.99-231.12L660.65,492.1z"/>
		<path class="st24" d="M660.65,492.1c-0.36,5.31-1.15,14.93-2.03,25.56c-0.18,2.03-0.36,3.95-0.53,5.95
			c-2.03,21.47-4.05,44.56-4.05,44.56c4.33,64.45-6.48,152.29-6.48,152.29l-13.98,0.63c0,0-8.1-209.77-7.17-231.08L660.65,492.1z"/>
		<path class="st4" d="M679.1,387.41l-8.75,48.41c-7.53,87.9-14.44,158.39-14.44,158.39c0,1.34,0.22,2.71,0.38,4.15
			c2.56,24.33,2.46,48.87-0.3,73.18l-3.42,30.64l-22.28,0.45c0.67-20.86-4.6-80.79-5.12-136.13c-0.89-91.57,2.03-172.6,2.03-172.6
			L679.1,387.41z"/>
		<path class="st27" d="M679.1,387.41l-8.75,48.41c-7.53,87.9-14.44,158.39-14.44,158.39c0,1.34,0.22,2.71,0.38,4.15
			c2.56,24.33,2.46,48.87-0.3,73.18l-3.42,30.64l-22.28,0.45c0.67-20.86-4.6-80.79-5.12-136.13c-0.89-91.57,2.03-172.6,2.03-172.6
			L679.1,387.41z"/>
		<path class="st26" d="M672.08,419.68l-6.26,68.01c-4.27-26.94-8.99-60.96-5.69-89.12L672.08,419.68z"/>
		<path class="st24" d="M778.82,695.64c-7.7-15.35-19.06-34.63-19.06-34.63l21.87,7.62c0,0,8.32,17.5,10.13,22.72
			C787.81,692.56,782.58,694.14,778.82,695.64z"/>
		<polygon class="st16" points="686.92,508.06 690.14,518.41 718.8,508.67 716.78,499.9 		"/>
		<path class="st24" d="M708.41,465.21c4.56,19.71,16.02,65.54,19.99,78.67c23.94,32.77,37.39,86.48,56.29,131.33l-12.25,8.43
			c0,0-53.59-93.98-69.47-133.23c-4.05-10.13-22.4-58.05-27.26-75.32L708.41,465.21z"/>
		<path class="st4" d="M763,673.72c0,0-42.86-79.66-54.08-98.68c-25.07-42.53-56.02-183.79-56.02-183.79l44.28-6.93
			c0,0,35.59,166.18,38.08,169.91c23.05,34.76,47.68,109.94,47.68,109.94L763,673.72z"/>
		<g class="st28">
			<path d="M763,673.72c0,0-42.86-79.66-54.08-98.68c-25.07-42.53-56.02-183.79-56.02-183.79l44.28-6.93
				c0,0,35.59,166.18,38.08,169.91c23.05,34.76,47.68,109.94,47.68,109.94L763,673.72z"/>
		</g>
		<path class="st10" d="M627.19,232.33c-0.67,0.12-1.07,1.05-0.89,2.03c0.18,0.97,0.85,1.82,1.54,1.7c0.69-0.12,1.11-1.05,0.93-2.03
			C628.59,233.06,627.96,232.2,627.19,232.33z"/>
		<path class="st10" d="M614.11,234.25c-0.71,0.1-1.11,1.05-0.93,2.03c0.18,0.97,0.89,1.8,1.58,1.7c0.69-0.1,1.09-1.07,0.91-2.13
			C615.49,234.8,614.8,234.13,614.11,234.25z"/>
		<path class="st29" d="M622.88,243.02c-1.64,0.77-3.54,0.77-5.18,0c1.6-3.11,2.77-6.42,3.48-9.84L622.88,243.02z"/>
		<path class="st10" d="M632.44,226.59L632.44,226.59c0.24-0.23,0.25-0.62,0.01-0.86c0,0-0.01-0.01-0.01-0.01
			c-1.42-1.43-3.47-2.06-5.45-1.68l0,0c-0.32,0.07-0.51,0.39-0.44,0.71c0,0.01,0.01,0.03,0.01,0.04c0.07,0.33,0.39,0.54,0.72,0.47
			c0.01,0,0.02,0,0.03-0.01c1.57-0.25,3.16,0.26,4.29,1.38c0.15,0.13,0.35,0.19,0.55,0.16
			C632.27,226.76,632.37,226.69,632.44,226.59z"/>
		<path class="st10" d="M611.76,229.63c0.49-1.52,1.68-2.71,3.2-3.2l0,0c0.26-0.1,0.42-0.35,0.41-0.63
			c-0.04-0.35-0.34-0.6-0.69-0.59c-1.92,0.62-3.43,2.13-4.05,4.05l0,0c-0.12,0.26,0,0.58,0.26,0.7c0.13,0.06,0.27,0.06,0.41,0.01
			C611.49,229.93,611.66,229.8,611.76,229.63z"/>
		<path class="st24" d="M630.09,724.15c-4.05,3.65-11.77,7.49-24.45,10.27c-2.84,0.63-1.92,7.45,4.98,7.45s19.81-1.76,24.79-2.03
			c8.1-0.57,20.92-2.03,17.05-9.22c0,0-1.78-1.2-4.98-12.15l-14.18,1.24C632.33,721.26,631.25,722.74,630.09,724.15z"/>
		<path class="st16" d="M689.43,324.54c0,0-0.12,0-0.22-0.14c-0.1-0.14-4.05-4.82-9.26-17.9c-6.97-17.4-8.1-22.97-8.1-22.97
			c1.58-4.94,8.93-4.05,11.02,0.57c0.43,0.99,0.85,2.03,1.26,3.12C685.91,299.43,687.75,312.27,689.43,324.54z"/>
		<path class="st24" d="M714.49,361.24l-2.57,7.47c-0.8,2.31-0.68,4.84,0.34,7.07l3.95,8.51c0.48,1.03,1.63,1.55,2.71,1.24
			l6.08-1.78c1.1-0.33,1.78-1.42,1.6-2.55l-1.62-9.64l-2.43-10.53C722.55,361.02,715.5,358.37,714.49,361.24z"/>
		<path class="st2" d="M673.01,272.65c0,0-6.52,12.72,6.74,22.64c10.84,8.16,22.14,15.69,33.84,22.56c2.22,1.3,3.51,3.75,3.34,6.32
			l-2.55,37.11l0.79,1.09c1.88,2.63,5.24,3.75,8.32,2.77l0,0c0.65-2.37,12.35-46.36,9.15-54.69c-1.58-4.15-6.72-10.78-22.87-23.88
			c-5.08-4.05-9.84-5.37-11.34-7.15C687.51,266.45,677.22,267.87,673.01,272.65z"/>
		<path class="st10" d="M627.3,246.42c-0.67,0.12-1.07,1.05-0.89,2.03c0.18,0.97,0.85,1.82,1.56,1.7c0.71-0.12,1.09-1.05,0.91-2.13
			C628.69,246.95,627.96,246.3,627.3,246.42z"/>
	</g>
	<path class="st24" d="M649.23,226.51c-3.77,0.99-5.23,6.81-5.04,10.51c0.18,4.05,3.12,6.87,6.34,4.25c2.46-2.05,4.08-4.93,4.56-8.1
		C655.65,229.07,653,225.5,649.23,226.51z"/>
	<path class="st4" d="M621.12,722.62c-2.49-0.14-4.88-0.69-5.55-2.03c-0.4-0.7-0.35-1.58,0.14-2.23c0.33-0.57,0.89-0.96,1.54-1.07
		c3.26-0.77,9.78,4.05,10.13,4.17c0.16,0.13,0.24,0.34,0.2,0.55c-0.04,0.2-0.19,0.35-0.38,0.41
		C625.18,722.7,623.14,722.76,621.12,722.62z M618.28,718.2c-0.3-0.04-0.61-0.04-0.91,0c-0.38,0.08-0.71,0.31-0.91,0.65
		c-0.36,0.63-0.26,0.93-0.16,1.13c0.83,1.46,5.73,1.8,9.34,1.5c-2.2-1.61-4.71-2.73-7.37-3.3L618.28,718.2z"/>
	<path class="st4" d="M626.99,722.43h-0.2c-2.27-1.34-6.66-6.3-6.08-8.69c0.18-0.83,0.94-1.4,1.78-1.34
		c0.93-0.09,1.85,0.23,2.51,0.89c2.37,2.45,2.57,8.26,2.59,8.51c0.04,0.18-0.01,0.36-0.14,0.49L626.99,722.43z M622.74,713.38
		l-0.28-0.1c-0.81,0-0.87,0.41-0.91,0.53c-0.41,1.38,2.67,5.29,4.98,7.07c-0.09-2.43-0.86-4.79-2.23-6.81
		C623.89,713.64,623.33,713.39,622.74,713.38z"/>
	<path class="st10" d="M630.31,718.67l18.73,0.18c0.84,0.04,1.52,0.69,1.62,1.52l3.61,17.34c0.26,1.76-2.75,3.75-2.94,3.75
		c-11.44,1.13-36.07,1.46-44.21,1.2c-8.14-0.26-8.97-9.26-5.63-9.97c14.99-3.16,20.72-8.1,25.56-12.64
		C627.9,719.15,629.08,718.65,630.31,718.67z"/>
	<path class="st4" d="M770.19,696.26c-1.88,1.38-3.91,2.39-5.16,1.86c-0.69-0.3-1.16-0.95-1.22-1.7c-0.09-0.6,0.08-1.21,0.47-1.68
		c1.9-2.49,9.42-2.92,9.72-2.94c0.2,0,0.38,0.1,0.49,0.26c0.1,0.16,0.1,0.37,0,0.53C773.19,693.97,771.75,695.2,770.19,696.26z
		 M765.55,694.77c-0.23,0.16-0.44,0.35-0.63,0.57c-0.23,0.29-0.32,0.65-0.26,1.01c0.1,0.67,0.34,0.83,0.55,0.93
		c1.46,0.55,5.21-2.03,7.62-4.44c-2.54,0.15-5.02,0.84-7.27,2.03V694.77z"/>
	<path class="st4" d="M774.32,692.68h-0.18c-2.41,0.38-8.51-0.59-9.58-2.61c-0.36-0.71-0.14-1.57,0.51-2.03
		c0.62-0.62,1.48-0.92,2.35-0.83c3.14,0.36,6.72,4.44,6.89,4.6c0.14,0.1,0.21,0.26,0.18,0.43L774.32,692.68z M765.89,688.63h-0.26
		c-0.55,0.51-0.38,0.81-0.34,0.91c0.55,1.24,5.06,2.25,7.78,2.17c-1.5-1.7-3.45-2.95-5.63-3.61c-0.57-0.04-1.13,0.17-1.54,0.57
		V688.63z"/>
	<path class="st10" d="M774.48,688l13.61-10.96c0.62-0.44,1.47-0.38,2.03,0.14l12.84,10.37c1.24,1.11,0.24,4.31,0.12,4.42
		c-7.6,7.6-25.16,22.38-31.17,27s-11.95-1.36-9.97-3.83c8.93-11.16,10.13-18.03,10.98-24.3C773.02,689.72,773.59,688.69,774.48,688z
		"/>
	<path class="st2" d="M691.76,378.84l-64.49,8.57c0,0-3.73-1.64-6.99-11.02c-3.26-9.38,0.34-22.6,0.34-22.6l55.07-8.55
		c0,12.8,5.7,24.94,15.56,33.12L691.76,378.84z"/>
	<path class="st8" d="M691.76,378.84l-64.49,8.57c0,0-3.73-1.64-6.99-11.02c-3.26-9.38,0.34-22.6,0.34-22.6l55.07-8.55
		c0,12.8,5.7,24.94,15.56,33.12L691.76,378.84z"/>
	<path d="M587.76,279.88h-0.41c2.56-0.96,4.07-3.61,3.61-6.3l-5.97-34.23c-0.55-3.1-3.5-5.18-6.6-4.64l-10.29,1.8
		c0.34-0.14,0.69-0.25,1.05-0.3l10.67-1.88c3.11-0.53,6.07,1.55,6.62,4.66l5.95,34.23c0.57,3.1-1.48,6.08-4.58,6.65
		C587.8,279.88,587.78,279.88,587.76,279.88z"/>
	<path class="st30" d="M587.76,279.88h-0.41c2.56-0.96,4.07-3.61,3.61-6.3l-5.97-34.23c-0.55-3.1-3.5-5.18-6.6-4.64l-10.29,1.8
		c0.34-0.14,0.69-0.25,1.05-0.3l10.67-1.88c3.11-0.53,6.07,1.55,6.62,4.66l5.95,34.23c0.57,3.1-1.48,6.08-4.58,6.65
		C587.8,279.88,587.78,279.88,587.76,279.88z"/>
	<path class="st10" d="M655.1,213.59c-0.38,0.26-12.52,1.52-17.26,3.12c-0.32-1.49-1.5-2.63-3-2.9c-1.47-0.22-2.98-0.06-4.37,0.45
		c-3.34,0.88-6.51,2.33-9.36,4.29c-0.65-0.8-1.47-1.45-2.39-1.9c-0.96-0.44-2.09-0.22-2.82,0.55c-0.27,0.45-0.51,0.93-0.71,1.42
		c-0.25,0.5-0.78,0.79-1.34,0.73c0-0.65-3.93-6.22,2.45-13.75c6.38-7.53,18.92-5.61,28.36-3.67c2.97,0.5,5.79,1.62,8.3,3.28
		c2.54,1.68,4.27,4.32,4.8,7.31c0.47,3.34-0.89,7.27,1.34,9.84C656.15,220.49,654.58,217.05,655.1,213.59z"/>
	<rect x="626.97" y="695.09" class="st4" width="29.19" height="7.53"/>
	
		<rect x="756.3" y="662.18" transform="matrix(0.9028 -0.43 0.43 0.9028 -211.4588 396.2365)" class="st4" width="29.19" height="7.53"/>
	<path class="st16" d="M691.76,378.84l-0.51-0.43c-9.87-8.19-15.57-20.35-15.56-33.18L691.76,378.84z"/>
</g>
</svg>
