<?xml version="1.0" encoding="utf-8"?>
<!-- Generator: Adobe Illustrator 23.1.0, SVG Export Plug-In . SVG Version: 6.00 Build 0)  -->
<svg version="1.1" id="Layer_1" xmlns="http://www.w3.org/2000/svg" xmlns:xlink="http://www.w3.org/1999/xlink" x="0px" y="0px"
	 viewBox="0 0 1366 768" style="enable-background:new 0 0 1366 768;" xml:space="preserve">
<style type="text/css">
	.st0{fill:#F5F5F5;}
	.st1{fill:#E0E0E0;}
	.st2{fill:#BA68C8;}
	.st3{opacity:0.4;enable-background:new    ;}
	.st4{opacity:0.6;enable-background:new    ;}
	.st5{opacity:0.7;enable-background:new    ;}
	.st6{fill:#FFFFFF;}
	.st7{fill:#37474F;}
	.st8{fill:#455A64;}
	.st9{fill:#263238;}
	.st10{opacity:0.2;enable-background:new    ;}
	.st11{fill:#FFA8A7;}
	.st12{opacity:0.2;fill:#FFFFFF;enable-background:new    ;}
	.st13{opacity:0.5;fill:#FFFFFF;enable-background:new    ;}
	.st14{fill:#F28F8F;}
	.st15{fill:#EBEBEB;}
	.st16{fill:#F0F0F0;}
	.st17{fill:#945959;}
	.st18{opacity:0.3;fill:#FFFFFF;enable-background:new    ;}
	.st19{opacity:0.3;}
	.st20{fill:#FAFAFA;}
	.st21{opacity:0.3;enable-background:new    ;}
	.st22{fill:#703838;}
	.st23{opacity:0.2;}
	.st24{opacity:0.6;fill:#FFFFFF;enable-background:new    ;}
</style>
<g id="freepik--Floor--inject-59">
	<ellipse class="st0" cx="682.05" cy="546.54" rx="362.31" ry="213.46"/>
</g>
<g id="freepik--Shadows--inject-59">
	<ellipse class="st1" cx="432.97" cy="547.83" rx="43.04" ry="25.36"/>
	<ellipse class="st1" cx="555.51" cy="614.43" rx="73.06" ry="43.04"/>
	<ellipse class="st1" cx="760.32" cy="491.64" rx="73.06" ry="43.04"/>
	<ellipse class="st1" cx="838.11" cy="533.34" rx="61.3" ry="36.13"/>
	<ellipse class="st1" cx="915.87" cy="584.56" rx="73.06" ry="43.04"/>
	<ellipse class="st1" cx="638.63" cy="415.11" rx="61.3" ry="36.13"/>
</g>
<g id="freepik--table-1--inject-59">
	<path class="st2" d="M668.58,430.01c-16.54,9.56-43.36,9.56-59.89,0s-16.54-25.03,0-34.59c16.54-9.56,43.36-9.54,59.89,0
		C685.12,404.96,685.12,420.47,668.58,430.01z"/>
	<path class="st3" d="M668.58,430.01c-16.54,9.56-43.36,9.56-59.89,0s-16.54-25.03,0-34.59c16.54-9.56,43.36-9.54,59.89,0
		C685.12,404.96,685.12,420.47,668.58,430.01z"/>
	<path class="st2" d="M668.58,430.01c-16.54,9.56-43.36,9.56-59.89,0c-8.2-4.77-12.39-11.03-12.39-17.29l0,0v5.13l0,0
		c0.15,6.15,4.28,12.26,12.38,16.93c16.54,9.56,43.35,9.56,59.89,0c8.47-4.92,12.59-11.33,12.39-17.72v-3.9
		C680.77,419.27,676.66,425.35,668.58,430.01z"/>
	<path class="st4" d="M668.58,430.01c-16.54,9.56-43.36,9.56-59.89,0c-8.2-4.77-12.39-11.03-12.39-17.29l0,0v5.13l0,0
		c0.15,6.15,4.28,12.26,12.38,16.93c16.54,9.56,43.35,9.56,59.89,0c8.47-4.92,12.59-11.33,12.39-17.72v-3.9
		C680.77,419.27,676.66,425.35,668.58,430.01z"/>
	<path class="st2" d="M632.93,253.61v155.93c0,7.34,11.47,7.34,11.47,0V253.61C644.4,246.26,632.93,246.25,632.93,253.61z"/>
	<path class="st2" d="M625.36,229.68v34.68l0,0c0,1.97,1.29,3.92,3.88,5.43c5.91,3,12.89,3,18.8,0c2.59-1.51,3.88-3.46,3.88-5.43
		v-34.68H625.36z"/>
	<path class="st5" d="M625.36,229.68v34.68l0,0c0,1.97,1.29,3.92,3.88,5.43c5.91,3,12.89,3,18.8,0c2.59-1.51,3.88-3.46,3.88-5.43
		v-34.68H625.36z"/>
	<ellipse class="st2" cx="638.63" cy="186.01" rx="77.78" ry="44.91"/>
	<ellipse class="st3" cx="638.63" cy="186.01" rx="77.78" ry="44.91"/>
	<path class="st2" d="M693.64,217.76c-30.37,17.54-79.63,17.54-110,0c-15.19-8.77-22.78-20.26-22.78-31.77l0,0v9.44l0,0
		c0.28,11.26,7.85,22.49,22.75,31.14c30.37,17.54,79.63,17.54,110,0c15.54-8.97,23.11-20.8,22.75-32.55v-7.15
		C716.05,198.09,708.48,209.2,693.64,217.76z"/>
	<path class="st4" d="M693.64,217.76c-30.37,17.54-79.63,17.54-110,0c-15.19-8.77-22.78-20.26-22.78-31.77l0,0v9.44l0,0
		c0.28,11.26,7.85,22.49,22.75,31.14c30.37,17.54,79.63,17.54,110,0c15.54-8.97,23.11-20.8,22.75-32.55v-7.15
		C716.05,198.09,708.48,209.2,693.64,217.76z"/>
</g>
<g id="freepik--Plant--inject-59">
	<path class="st2" d="M435.02,492.64c0,0-23.87-23.29-10.29-62.29c7.62-21.88,32.78-37.95,47.21-39.45
		c-4.76,5.65-8.55,12.05-11.23,18.93l-18.03,12.01l16.64-5.2l-3.61,14.19c0,0-15.47,9.36-17.77,11.39l16.69-4.36
		C454.62,437.88,453.43,478.17,435.02,492.64z"/>
	<path class="st3" d="M435.02,492.64c0,0-23.87-23.29-10.29-62.29c7.62-21.88,32.78-37.95,47.21-39.45
		c-4.76,5.65-8.55,12.05-11.23,18.93l-18.03,12.01l16.64-5.2l-3.61,14.19c0,0-15.47,9.36-17.77,11.39l16.69-4.36
		C454.62,437.88,453.43,478.17,435.02,492.64z"/>
	<path class="st6" d="M435.02,492.64c0,0-12.36-48.76,5.92-77.2C440.94,415.44,419.51,440.53,435.02,492.64z"/>
	<path class="st7" d="M462.33,499.25l-29.19-0.36h-0.31l-29.19,0.36c0,0-0.33,35.98,10.75,50.62l0,0
		c3.07,3.88,10.23,6.56,18.59,6.56c8.36,0,15.57-2.75,18.62-6.65C462.65,535.19,462.33,499.25,462.33,499.25z"/>
	<ellipse class="st8" cx="432.97" cy="499.25" rx="29.34" ry="15.75"/>
	<path class="st9" d="M432.97,495.07c10.1,0,18.65,3.28,21.67,7.72c0.74-1.03,1.15-2.27,1.16-3.54c0-6.21-10.21-11.26-22.83-11.26
		s-22.82,5.05-22.82,11.26c0.02,1.27,0.42,2.51,1.16,3.54C414.33,498.31,422.87,495.07,432.97,495.07z"/>
	<path class="st1" d="M432.97,495.07c-10.1,0-18.64,3.28-21.65,7.72c3.02,4.49,11.47,7.74,21.65,7.74s18.65-3.28,21.67-7.74
		C451.62,498.31,443.07,495.07,432.97,495.07z"/>
	<path class="st2" d="M433.33,504.74c0,0-11.31-0.44-21.01-15.46c-4-6.2-5.92-9.46-5.92-9.46l15.75-1.16l-17.65-4.41l-8.34-12.77
		l14.75-1.08c0,0-10.93-3.84-18.72-3.88c0,0-13.52-23.88-17.49-27.29c20.63,1.3,39.86,10.87,53.34,26.54
		C450.26,482.05,436.64,505.41,433.33,504.74z"/>
	<path class="st6" d="M433.33,504.74c0,0,7.08-42.62-38.06-68.24C395.27,436.5,442.12,459.01,433.33,504.74z"/>
	<path class="st2" d="M433.33,504.74c0,0,10.24,0.67,20.42-11.97c4.2-5.21,6.23-7.97,6.23-7.97l-14.1-2.54l16.39-2.33l8.72-10.72
		l-13.11-2.38c0,0,10.21-2.41,17.24-1.64c0,0,14.44-20.28,18.34-22.95c-18.76-0.8-37.04,6.03-50.7,18.92
		C420.2,482.68,430.3,505.03,433.33,504.74z"/>
	<path class="st10" d="M433.33,504.74c0,0,10.24,0.67,20.42-11.97c4.2-5.21,6.23-7.97,6.23-7.97l-14.1-2.54l16.39-2.33l8.72-10.72
		l-13.11-2.38c0,0,10.21-2.41,17.24-1.64c0,0,14.44-20.28,18.34-22.95c-18.76-0.8-37.04,6.03-50.7,18.92
		C420.2,482.68,430.3,505.03,433.33,504.74z"/>
	<path class="st6" d="M433.33,504.74c0,0-2.36-39.11,40.78-57.98C474.11,446.76,429.72,462.66,433.33,504.74z"/>
</g>
<g id="freepik--character-2--inject-59">
	<path class="st9" d="M767.89,463.63c0,0-2.92,1.64-3.46,7.85c-0.54,6.21-6.13,17.85,7.21,18.37c13.34,0.52,11.47,1.16,16.95,3.36
		c5.47,2.2,17.21,7.11,26.59,0.49s-1.44-10.15-5.34-11.47c-3.9-1.33-13.92-5.16-19.67-9.57c-5.75-4.41-6.56-5.82-6.56-5.82
		L767.89,463.63z"/>
	<path class="st9" d="M724.85,479.15c0,0-2.29,0.66-2.41,5.25s-3.72,11.47,1.2,15.67c4.92,4.2,5.65,3.61,8.64,9.95
		c2.98,6.34,9.83,14.95,24.14,11.79s5.29-11.75,4.07-13.01s-15.16-15.1-16.7-19.67c-0.82-2.52-1.87-4.96-3.11-7.29L724.85,479.15z"
		/>
	<path class="st11" d="M724.77,473.46v8.43c0,0,1.02,3.98,8.87,3.98c4.2,0,6.95-2.51,7.03-3.98v-9.26L724.77,473.46z"/>
	<path class="st11" d="M767.75,458.35v8.44c0,0,1.02,3.97,8.85,3.97c4.21,0,6.97-2.51,7.03-3.98v-9.26L767.75,458.35z"/>
	<path class="st8" d="M791.71,261.26l6.05,97.58c0.28,4.6,0.11,9.22-0.52,13.79l-12.44,90.28c0,0-10,4.44-18.44-2.57l-4.92-72.12
		c-0.4-6.11,0.44-12.24,2.49-18.01l1.92-5.46l-17.46-96.71L791.71,261.26z"/>
	<path class="st7" d="M779.74,286.8c0,0-2.95,11.47-17.7,18.67l-2.97,21.75l-6.39-35.41L779.74,286.8z"/>
	<path class="st8" d="M784.53,265.2c0,0,2.08,18.49-12.2,30.44c-3.95,3.51-8.79,5.86-13.98,6.8l-4.7,68.58l-11.47,107.15
		c0,0-6.92,5.79-19.67,0l-6.05-80.32c-0.68-9,0.95-18.03,4.74-26.23l0.28-0.57c-3.22-35.65-4.37-71.45-3.44-107.23L784.53,265.2z"/>
	<path class="st11" d="M804.07,194.24l5.18,10.28c0,0,23.21,8.2,36.91,7.93l5.95,14.42c-11,0.82-22.04,0.94-33.06,0.36
		c-16.15-1.03-18.54-1.44-23.31-7.57c-4.77-6.13-11.87-17.39-11.87-17.39L804.07,194.24z"/>
	<path class="st11" d="M846.16,212.45c1.26-0.86,2.43-1.83,3.49-2.92c1.44-1.54,2.29-3.11,8.31-4.59c3.88-0.97,4.62-4.02,6.72-3
		s-1.52,7.9-5.69,9.05c3,0.33,6.03-0.08,8.83-1.18c3.52-1.79,9.06-4.23,11.29-3.46c2.23,0.77,2.56,13.11-5.52,17.75
		c-8.08,4.64-24.77,2.46-24.77,2.46L846.16,212.45z"/>
	<path class="st2" d="M767.94,148L767.94,148c7.47-1.49,15.03,2.08,18.62,8.8l19.67,36.7c0,0-5.31,11.15-22.36,11.75L767.94,148z"/>
	<path class="st12" d="M767.94,148L767.94,148c7.47-1.49,15.03,2.08,18.62,8.8l19.67,36.7c0,0-5.31,11.15-22.36,11.75L767.94,148z"
		/>
	<path class="st11" d="M718.8,212.4l-5.87,15.08l-6.15,51.01l-14.75,4.67c0,0-1.25-30.68-0.62-51.3c0.16-5.52,1.19-10.98,3.05-16.18
		l4.13-11.62L718.8,212.4z"/>
	<path class="st2" d="M740.27,153.23l-18.62,5.33l-3.61,52.01v53.22c0,0,11.57,10.03,39.06,10.03c12.63-0.26,24.82-4.67,34.68-12.56
		v-67.02c0-6,2.39-40.36-23.77-46.24l-4.47,0.89L740.27,153.23z"/>
	<path class="st13" d="M740.27,153.23l-18.62,5.33l-3.61,52.01v53.22c0,0,11.57,10.03,39.06,10.03
		c12.63-0.26,24.82-4.67,34.68-12.56v-67.02c0-6,2.39-40.36-23.77-46.24l-4.47,0.89L740.27,153.23z"/>
	<path class="st2" d="M732.08,155.47c0,0,6.21,6.15,1.74,23.41c-3.66,13.07-8.07,25.91-13.21,38.47
		c-9.49,1.79-19.21-1.78-25.28-9.29l13.23-36.62c2.32-6.37,7.56-11.25,14.08-13.11L732.08,155.47z"/>
	<path class="st12" d="M732.08,155.47c0,0,6.21,6.15,1.74,23.41c-3.66,13.07-8.07,25.91-13.21,38.47
		c-9.49,1.79-19.21-1.78-25.28-9.29l13.23-36.62c2.32-6.37,7.56-11.25,14.08-13.11L732.08,155.47z"/>
	<path class="st11" d="M706.79,278.49c0.77,1.3,1.67,2.53,2.69,3.66c1.44,1.56,2.95,2.49,4.05,8.61c0.7,3.93,3.7,4.92,2.56,6.9
		s-7.79-2.03-8.67-6.28c-0.51,2.98-0.3,6.04,0.62,8.92c1.56,3.62,3.62,9.31,2.72,11.47c-0.9,2.16-13.24,1.64-17.36-6.67
		c-4.11-8.31-0.85-24.87-0.85-24.87L706.79,278.49z"/>
	<path class="st9" d="M784.88,87.79c0,0,4.36,4.46,4.36,16.13s-9.62,21.83-9.62,21.83v-37.4L784.88,87.79z"/>
	<path class="st9" d="M784.88,90.84c3.84-2.19,6.35-6.13,6.72-10.54c0.62-7.46-3.75-4.79-5.28-4.13c-1.52,0.66-6.02,2.29-6.02,2.29
		s4.16-4.33,1.64-7.21c-1.84-2.15-10.65,4.59-21.83,5.9c-11.18,1.31-21.87,1.21-25,11.2c0,0-10.79,2.18-8.2,21.08
		c2.59,18.9,9.83,29.8,13.24,29.64L784.88,90.84z"/>
	<path class="st11" d="M740.27,153.23l9.74,6.16c4.39,2.79,9.97,2.9,14.47,0.3l0,0c2.8-1.63,3.76-5.22,2.13-8.02
		c-0.45-0.77-1.07-1.43-1.81-1.93l-1.26-0.85V122h-23.28V153.23z"/>
	<path class="st14" d="M763.47,148.92c-10.31-1.45-18.72-8.97-21.31-19.05V122h21.31V148.92z"/>
	<path class="st11" d="M768.89,83.86c0,0,22.14,0.84,18.15,36.49c-1.87,16.77-3.28,26.05-17.6,26.05s-35.52-10.82-34.08-39.6
		S768.89,83.86,768.89,83.86z"/>
	<polygon class="st14" points="771.12,113.25 771.12,125.75 778.45,123.51 	"/>
	<path class="st9" d="M760.42,115.41c0,1.41,1.14,2.56,2.56,2.56c1.41,0,2.56-1.14,2.56-2.56s-1.14-2.56-2.56-2.56l0,0
		c-1.4-0.01-2.55,1.12-2.56,2.52C760.42,115.39,760.42,115.4,760.42,115.41z"/>
	<path class="st9" d="M777.19,113.62c-0.01,1.41,1.13,2.56,2.54,2.57c1.41,0.01,2.56-1.13,2.57-2.54c0.01-1.41-1.13-2.56-2.54-2.57
		c-0.01,0-0.01,0-0.02,0C778.34,111.08,777.2,112.22,777.19,113.62z"/>
	<path class="st9" d="M782.89,108.33l-4.92-2.97c0,0,1.92-1.98,3.82-0.79C782.9,105.48,783.33,106.97,782.89,108.33z"/>
	<path class="st9" d="M761.58,107.46l-4.49,3.66c0,0-1.21-2.48,0.56-3.85C758.88,106.51,760.44,106.59,761.58,107.46z"/>
	<path class="st14" d="M769.96,131.7c0,0-9.08-2.34-6.87-1.84c0,0-0.46,3.62,2.57,4.31C767.5,134.48,769.3,133.45,769.96,131.7z"/>
	<path class="st9" d="M784.88,90.84c0,0-7.06,6.56-25.18,5.26c-18.11-1.29-16.56,3.64-14.51,12.15c1.36,5.84,1.48,21.31-3.03,13.75
		h-8.97v-17.92c0-12.67,10.27-22.95,22.95-22.95l0,0h18.54L784.88,90.84z"/>
	<path class="st11" d="M742.31,121.05c0,0-0.9-8.57-6.85-8.74c-6.56-0.18-7.43,6.11-7.34,8.34c0.25,5.88,5,12.24,13.87,12.49
		L742.31,121.05z"/>
	<path class="st9" d="M735.16,88.35c0,0-4.59-6.08-1.64-8.61c2.95-2.52,4.29,7.93,4.29,7.93L735.16,88.35z"/>
	<path class="st9" d="M735.54,90.37c0,0-7.62-0.1-7.8-3.97c-0.18-3.87,8.9,1.44,8.9,1.44L735.54,90.37z"/>
</g>
<g id="freepik--table-2--inject-59">
	<ellipse class="st2" cx="838.11" cy="522.08" rx="42.36" ry="24.46"/>
	<ellipse class="st3" cx="838.11" cy="522.08" rx="42.36" ry="24.46"/>
	<path class="st2" d="M868.13,539.37c-16.54,9.56-43.36,9.56-59.89,0c-8.28-4.77-12.41-11.03-12.41-17.29l0,0v5.13l0,0
		c0.15,6.15,4.28,12.24,12.39,16.93c16.54,9.56,43.36,9.56,59.89,0c8.46-4.92,12.57-11.33,12.38-17.72v-3.9
		C880.26,528.64,876.13,534.72,868.13,539.37z"/>
	<path class="st4" d="M868.13,539.37c-16.54,9.56-43.36,9.56-59.89,0c-8.28-4.77-12.41-11.03-12.41-17.29l0,0v5.13l0,0
		c0.15,6.15,4.28,12.24,12.39,16.93c16.54,9.56,43.36,9.56,59.89,0c8.46-4.92,12.57-11.33,12.38-17.72v-3.9
		C880.26,528.64,876.13,534.72,868.13,539.37z"/>
	<path class="st2" d="M832.41,362.97v156c0,7.33,11.47,7.34,11.47,0v-156C843.88,355.63,832.41,355.61,832.41,362.97z"/>
	<path class="st2" d="M824.82,339.05v34.68l0,0c0,1.97,1.29,3.92,3.9,5.43c5.91,2.98,12.88,2.98,18.78,0
		c2.59-1.51,3.88-3.46,3.88-5.43v-34.68H824.82z"/>
	<path class="st5" d="M824.82,339.05v34.68l0,0c0,1.97,1.29,3.92,3.9,5.43c5.91,2.98,12.88,2.98,18.78,0
		c2.59-1.51,3.88-3.46,3.88-5.43v-34.68H824.82z"/>
	<ellipse class="st2" cx="838.11" cy="295.37" rx="77.78" ry="44.91"/>
	<ellipse class="st3" cx="838.11" cy="295.37" rx="77.78" ry="44.91"/>
	<path class="st2" d="M893.11,327.14c-30.37,17.54-79.63,17.54-110,0c-15.18-8.77-22.78-20.28-22.78-31.77l0,0v9.44l0,0
		c0.28,11.26,7.85,22.49,22.75,31.14c30.37,17.54,79.63,17.54,110,0c15.56-8.97,23.11-20.8,22.75-32.55v-7.15
		C915.51,307.4,907.94,318.57,893.11,327.14z"/>
	<path class="st4" d="M893.11,327.14c-30.37,17.54-79.63,17.54-110,0c-15.18-8.77-22.78-20.28-22.78-31.77l0,0v9.44l0,0
		c0.28,11.26,7.85,22.49,22.75,31.14c30.37,17.54,79.63,17.54,110,0c15.56-8.97,23.11-20.8,22.75-32.55v-7.15
		C915.51,307.4,907.94,318.57,893.11,327.14z"/>
	<path class="st2" d="M818.33,247.26h-34.96l3.15,37l0,0c0.42,2.38,1.97,4.41,4.16,5.43c6.38,3.23,13.92,3.23,20.31,0
		c2.19-1.02,3.75-3.05,4.18-5.43l0,0L818.33,247.26z"/>
	<path class="st1" d="M820.59,245.31v-2.97h-0.69c-1.14-2.18-2.91-3.95-5.08-5.1c-7.7-4.44-20.18-4.44-27.87,0
		c-2.17,1.14-3.94,2.92-5.08,5.1h-0.69v2.95c0,2.92,1.93,5.84,5.77,8.05c7.7,4.44,20.18,4.44,27.87,0
		C818.64,251.15,820.59,248.23,820.59,245.31z"/>
	<ellipse class="st15" cx="800.86" cy="242.56" rx="19.7" ry="11.38"/>
	<path class="st1" d="M816.64,241.33v-2.26h-0.56c-0.9-1.75-2.32-3.17-4.07-4.08c-7.02-3.56-15.32-3.56-22.34,0
		c-1.75,0.91-3.17,2.33-4.07,4.08h-0.56v2.36c0,2.34,1.54,4.67,4.62,6.46c7.02,3.56,15.32,3.56,22.34,0
		C815.12,246.02,816.66,243.67,816.64,241.33z"/>
	<path class="st0" d="M812.02,245.62c-7.02,3.56-15.32,3.56-22.34,0c-6.16-3.57-6.16-9.34,0-12.9c7.02-3.56,15.32-3.56,22.34,0
		C818.18,236.23,818.18,242,812.02,245.62z"/>
	<path class="st16" d="M809.45,243.69c-5.4,2.74-11.79,2.74-17.19,0c-4.59-2.66-4.75-6.88-0.48-9.64l0.48-0.3
		c1.04-0.58,2.14-1.04,3.28-1.36c4.63-1.29,9.58-0.8,13.87,1.36C814.2,236.49,814.2,240.95,809.45,243.69z"/>
	<path class="st1" d="M792.25,235.17c5.4-2.74,11.79-2.74,17.19,0c1.74,0.84,3.02,2.39,3.51,4.26c0.34-2.02-0.82-4.11-3.51-5.67
		c-5.4-2.74-11.79-2.74-17.19,0c-2.69,1.64-3.85,3.66-3.49,5.67C789.23,237.56,790.51,235.99,792.25,235.17z"/>
	<path class="st1" d="M798.76,235.64l-3.54,2.25l-3.44-2.48v-1.36l0.48-0.3c1.04-0.58,2.14-1.04,3.28-1.36v1.03L798.76,235.64z"/>
	<path class="st2" d="M891.93,267.8h-34.95l3.13,37l0,0c0.42,2.38,1.97,4.4,4.16,5.41c6.39,3.24,13.94,3.24,20.33,0
		c2.19-1.01,3.74-3.03,4.16-5.41l0,0L891.93,267.8z"/>
	<path class="st1" d="M894.16,265.77v-2.93h-0.69c-1.13-2.17-2.91-3.95-5.08-5.08c-7.69-4.44-20.18-4.44-27.87,0
		c-2.18,1.13-3.95,2.9-5.08,5.08h-0.7v2.97c0,2.9,1.93,5.82,5.79,8.05c7.69,4.44,20.18,4.44,27.87,0
		C892.25,271.62,894.17,268.69,894.16,265.77z"/>
	<ellipse class="st15" cx="874.45" cy="263.02" rx="19.7" ry="11.38"/>
	<path class="st1" d="M890.24,261.8v-2.36h-0.54c-0.92-1.74-2.34-3.17-4.08-4.08c-7.02-3.56-15.31-3.56-22.32,0
		c-1.74,0.92-3.17,2.34-4.08,4.08h-0.56v2.38c0,2.33,1.56,4.66,4.64,6.44c7.02,3.56,15.31,3.56,22.32,0
		C888.71,266.47,890.26,264.13,890.24,261.8z"/>
	<path class="st0" d="M885.62,266.03c-7.02,3.56-15.31,3.56-22.32,0c-6.18-3.56-6.18-9.33,0-12.9c7.02-3.56,15.31-3.56,22.32,0
		C891.78,256.7,891.78,262.47,885.62,266.03z"/>
	<path class="st16" d="M883.04,264.15c-5.4,2.75-11.79,2.75-17.19,0c-4.59-2.64-4.75-6.88-0.48-9.62c0.15-0.11,0.31-0.21,0.48-0.3
		c1.03-0.59,2.13-1.04,3.28-1.36c4.63-1.31,9.58-0.82,13.87,1.36C887.8,256.97,887.8,261.41,883.04,264.15z"/>
	<path class="st1" d="M865.85,255.64c5.4-2.74,11.79-2.74,17.19,0c1.74,0.84,3.02,2.39,3.51,4.26c0.34-2.03-0.82-4.11-3.51-5.67
		c-5.4-2.74-11.79-2.74-17.19,0c-2.67,1.56-3.84,3.64-3.49,5.67C862.84,258.04,864.12,256.48,865.85,255.64z"/>
	<path class="st1" d="M872.36,256.11l-3.54,2.25l-3.44-2.48v-1.36c0.15-0.11,0.31-0.21,0.48-0.3c1.03-0.59,2.13-1.04,3.28-1.36v0.95
		L872.36,256.11z"/>
</g>
<g id="freepik--character-3--inject-59">
	<path class="st17" d="M983.9,283.85l10.85,30.62c2.2,6.23,1.21,13.15-2.66,18.51l-16.47,22.87l-11.77-17.16l10.82-16.98l-9.62-20.7
		v-8.05L983.9,283.85z"/>
	<path class="st2" d="M958.28,247.26c0,0,8.2-0.82,12.46,5.74c4.26,6.56,13.11,30.78,13.11,30.78
		c-5.29,6.26-12.71,10.35-20.83,11.47L958.28,247.26z"/>
	<path class="st18" d="M958.28,247.26c0,0,8.2-0.82,12.46,5.74c4.26,6.56,13.11,30.78,13.11,30.78
		c-5.29,6.26-12.71,10.35-20.83,11.47L958.28,247.26z"/>
	<path class="st9" d="M972.08,580.43c-1.33,2.52-3.95,4.11-6.8,4.13c-5.24-0.21-9.8-3.62-11.47-8.59c-1.74-4.34-4.52-8.19-8.1-11.21
		c-1.72-1.84-8.33-7.79-9.02-14.1c-0.03,0.41-0.03,0.82,0,1.23c0,6.7,7.26,13.24,9.08,15.18c3.59,3.04,6.36,6.92,8.08,11.29
		c1.68,4.96,6.24,8.37,11.47,8.57c2.85-0.01,5.47-1.59,6.8-4.11c0.49-1.08,0.63-2.3,0.38-3.46
		C972.4,579.74,972.26,580.09,972.08,580.43z"/>
	<path class="st2" d="M970.88,563.48l0.34,0.38c0.89,0.97,1.32,2.27,1.21,3.57c-0.13,1.43-0.26,3.47-0.26,5.69
		c0,4.13,0.93,5.05-0.1,7.31c-1.33,2.52-3.95,4.11-6.8,4.13c-5.24-0.21-9.8-3.62-11.47-8.59c-1.74-4.34-4.52-8.19-8.1-11.21
		c-1.82-1.93-9.08-8.47-9.08-15.16c-0.14-4.86,3.68-8.92,8.54-9.06c0.11,0,0.21,0,0.32,0c3.28,0,7.74,1.93,11.16,6.9
		C960.07,552.4,970.88,563.48,970.88,563.48z"/>
	<g class="st19">
		<path d="M970.88,563.48l0.34,0.38c0.89,0.97,1.32,2.27,1.21,3.57c-0.13,1.43-0.26,3.47-0.26,5.69c0,4.13,0.93,5.05-0.1,7.31
			c-1.33,2.52-3.95,4.11-6.8,4.13c-5.24-0.21-9.8-3.62-11.47-8.59c-1.74-4.34-4.52-8.19-8.1-11.21c-1.82-1.93-9.08-8.47-9.08-15.16
			c-0.14-4.86,3.68-8.92,8.54-9.06c0.11,0,0.21,0,0.32,0c3.28,0,7.74,1.93,11.16,6.9C960.07,552.4,970.88,563.48,970.88,563.48z"/>
	</g>
	<path class="st15" d="M948.35,556.04c-0.15,0-0.3-0.04-0.43-0.13c-0.38-0.24-0.49-0.73-0.26-1.11c0.18-0.26,4.16-6.43,10.95-5.74
		c0.45,0.05,0.78,0.45,0.74,0.9c-0.05,0.45-0.45,0.78-0.9,0.74l0,0c-5.82-0.61-9.38,4.92-9.41,4.92
		C948.89,555.87,948.63,556.03,948.35,556.04z"/>
	<path class="st15" d="M952.35,559.99c-0.43,0.01-0.8-0.33-0.81-0.76c-0.01-0.19,0.06-0.38,0.19-0.53
		c0.16-0.26,4.13-6.44,10.95-5.75c0.44,0.05,0.76,0.44,0.72,0.89c-0.04,0.44-0.44,0.76-0.88,0.72c0,0-0.01,0-0.01,0
		c-5.82-0.59-9.39,4.92-9.42,5C952.95,559.83,952.66,560.01,952.35,559.99z"/>
	<path class="st20" d="M955.85,546.36c-2.39-3.39-6.18-5.53-10.33-5.82c-4.86-0.03-8.83,3.89-8.86,8.75c0,0.11,0,0.21,0,0.32
		c0.29,3.54,1.7,6.9,4.03,9.59c0.19-4.94,3.22-9.33,7.77-11.26C950.83,546.99,953.32,546.46,955.85,546.36z"/>
	<path class="st17" d="M978.74,473.79l-2.29-7.2l4.13-60.48l-37.04,12.36l1.52,52.88c0.08,2.8,0.31,5.59,0.7,8.36l7.61,53.75
		c1.33,1.31,5.06,4.21,12.18,4.21c3.8,0.05,7.45-1.52,10.02-4.33l5.16-32.96C982.13,491.48,981.45,482.38,978.74,473.79z"/>
	<path class="st2" d="M965.61,537.67c-7.11,0-10.85-2.9-12.18-4.21l4.57,32.36c8.92,6.1,12.52,0,12.52,0l5.1-32.47
		C973.05,536.14,969.41,537.72,965.61,537.67z"/>
	<path class="st13" d="M965.61,537.67c-7.11,0-10.85-2.9-12.18-4.21l4.57,32.36c8.92,6.1,12.52,0,12.52,0l5.1-32.47
		C973.05,536.14,969.41,537.72,965.61,537.67z"/>
	<path class="st2" d="M910.99,580.3l-6.7,4.92c0,0-17.01,1.33-21.82,1.64c-4.8,0.31-10.83,2.49-12.15,7.69
		c-1.15,4.52,1.34,9.21,13.23,10.72c11.88,1.51,15.98-1.26,24.59,0.2c8.2,1.39,19.67,5.15,25.31-4.39c0.61-1.01,0.77-2.22,0.46-3.36
		c-0.64-2.44-1.8-6.93-2.08-8.52c-0.38-2.21-0.7-9.61-2.8-9.61S910.99,580.3,910.99,580.3z"/>
	<path class="st21" d="M910.99,580.3l-6.7,4.92c0,0-17.01,1.33-21.82,1.64c-4.8,0.31-10.83,2.49-12.15,7.69
		c-1.15,4.52,1.34,9.21,13.23,10.72c11.88,1.51,15.98-1.26,24.59,0.2c8.2,1.39,19.67,5.15,25.31-4.39c0.61-1.01,0.77-2.22,0.46-3.36
		c-0.64-2.44-1.8-6.93-2.08-8.52c-0.38-2.21-0.7-9.61-2.8-9.61S910.99,580.3,910.99,580.3z"/>
	<path class="st7" d="M933.95,599.68c-0.08,0.49-0.25,0.97-0.51,1.39c-5.66,9.54-17.16,5.79-25.32,4.39
		c-8.59-1.46-12.69,1.31-24.59-0.2c-9.46-1.21-12.95-4.41-13.42-7.95c-0.52,4.2,2.41,8.31,13.42,9.72
		c11.88,1.51,15.98-1.26,24.59,0.2c8.2,1.38,20.23,5.7,25.88-3.84C934.42,602.19,934.4,600.87,933.95,599.68z"/>
	<path class="st2" d="M907.47,549.65l3.47,30.65c0,0,0.69,6.56,9.33,6.56c8.64,0,8.7-7.36,8.7-7.36l2.23-29.9L907.47,549.65z"/>
	<path class="st13" d="M907.47,549.65l3.47,30.65c0,0,0.69,6.56,9.33,6.56c8.64,0,8.7-7.36,8.7-7.36l2.23-29.9L907.47,549.65z"/>
	<path class="st17" d="M898.39,429.21v28.14c0,4.62,0.25,9.23,0.74,13.82l8.34,78.48c0,0,13.34,10.1,23.73,0l4.13-47.35
		c0.94-10.67-0.35-21.41-3.77-31.55l0,0l8.2-41.6L898.39,429.21z"/>
	<path class="st20" d="M888.17,586.43c-2.38,0.18-4.46,0.33-5.7,0.39c-4.79,0.29-10.83,2.49-12.15,7.69
		c-1.15,4.52,1.34,9.21,13.23,10.72C881.39,591.2,888.17,586.45,888.17,586.43z"/>
	<path class="st15" d="M890.75,594.76c-0.44,0.01-0.81-0.34-0.82-0.79c0-0.01,0-0.01,0-0.02c0.16-3.33,1.68-6.44,4.2-8.62
		c0.34-0.28,0.85-0.23,1.13,0.11c0,0,0,0,0,0c0.28,0.35,0.23,0.86-0.11,1.15c-2.13,1.88-3.42,4.53-3.59,7.36
		C891.55,594.4,891.19,594.76,890.75,594.76z"/>
	<path class="st15" d="M897.78,594.38c-0.44,0-0.8-0.36-0.8-0.8c0.16-3.32,1.67-6.43,4.18-8.61c0.33-0.29,0.82-0.25,1.11,0.07
		c0.01,0.01,0.01,0.02,0.02,0.02c0.29,0.34,0.25,0.84-0.08,1.13c-0.01,0-0.01,0.01-0.02,0.01c-2.13,1.88-3.43,4.52-3.61,7.36
		C898.58,594.02,898.22,594.38,897.78,594.38z"/>
	<path class="st8" d="M907.35,331.58c0,0-8.97,19.83-8.97,38.47v58.91c14.23,10.6,32.14,15.01,49.67,12.21
		c29.26-4.82,34.85-14.51,34.85-14.51v-42.62c0-17.49-4.53-34.69-13.15-49.91l-3.92-6.93L907.35,331.58z"/>
	<path class="st2" d="M907.35,321.02v10.57c0,0,7.93,7.06,28.95,7.06c21.01,0,29.5-11.47,29.5-11.47l-4.25-6.88L907.35,321.02z"/>
	<path class="st21" d="M907.35,321.02v10.57c0,0,7.93,7.06,28.95,7.06c21.01,0,29.5-11.47,29.5-11.47l-4.25-6.88L907.35,321.02z"/>
	<path class="st2" d="M921.63,254.87l-7.61,2.67l-13.11,28.31v20.98l6.34,14.18c8.36,5.97,18.4,9.14,28.67,9.03
		c17.72,0,25.49-9.74,25.49-9.74s4.82-21.46,8.2-35.18c3.38-13.72-2.48-32.78-11.47-37.8l-11.88,1.95L921.63,254.87z"/>
	<path class="st17" d="M910.83,300.35c0,0-17.92,28.37-20.7,33.23s-10.77,9.02-27.77-8.2c-17-17.21-22.1-22.95-22.1-22.95
		s-22.32-7.8-27.54-14.1c-5.21-6.29-7.28-15.47-2.98-14.01c4.29,1.46,27.64,9.83,30.27,2.72c-1.02-2.13-1.58-4.46-1.64-6.82
		c0-3.54,1.54-6.44,3.52-6.44s1.41,3.56,2.8,6.44c1.39,2.88,10.06,14.75,8.59,20.29l24.67,19.93l12.18-23.69L910.83,300.35z"/>
	<path class="st17" d="M940.63,255.15c-8.59,2.74-19-0.28-19-0.28v-29.05h24.8v23.46C945.61,252.09,943.43,254.3,940.63,255.15z"/>
	<polygon class="st22" points="903.78,207.91 903.78,221.04 896.11,218.68 	"/>
	<path class="st9" d="M944.26,173.76c-5.11-1.34-22.95-4.92-38.9,8.31c-3.52,2.93-7.56,10.75-8.85,20.52
		c2.01,1.47,4.22,2.66,6.56,3.52L944.26,173.76z"/>
	<path class="st17" d="M933.07,179.16c-7.82-0.87-24.9,1.64-29.06,21.9c-4.16,20.26-4.07,36.29,6.33,38.98
		c10.39,2.69,35.72-2.28,41.9-28.37C958.41,185.57,940.69,180.06,933.07,179.16z"/>
	<path class="st9" d="M911.47,184.07c0,0-2.7,10.61,1.44,18.92c2.2,4.27,2.52,9.27,0.89,13.79c-0.82,2.26-2.03,4.37-3.57,6.21
		c0,0,8.56-1.18,8.56-8.2c1.52,3.95,2.68,8.02,3.47,12.18c0.7,4.92,3.69,9.15,12.95,11.72c4.51,1.25,10.26,0.67,13.23-1.18
		c0,0,9.08-6.18,12.72-11.23c3.64-5.05,11.47-22.95,3.28-37.03C956.23,175.17,935.58,163.49,911.47,184.07z"/>
	<path class="st17" d="M918.78,214.81c0,0,1.03-8.61,7.02-8.69c6.56-0.1,7.38,6.25,7.26,8.49c-0.31,5.9-3.9,11.67-14.28,8.38V214.81
		z"/>
	<path class="st2" d="M960.38,233.43c0,3.77-3.05,6.82-6.82,6.82c-3.77,0-6.82-3.05-6.82-6.82c0-3.77,3.05-6.82,6.82-6.82
		S960.38,229.66,960.38,233.43L960.38,233.43z"/>
	<path class="st9" d="M954.15,239.07c-1.36-1.07-2.33-2.55-2.75-4.23c-0.56-1.89-0.08-3.94,1.25-5.39c1.11-1.09,2.61-1.68,4.16-1.64
		c2.56-0.01,5.1,0.38,7.54,1.15c7.2,2.49,12.8,13.01,5.29,29.5c-2.23,4.92-2.85,12.16,1.39,14.75c0.27,0.14,0.38,0.48,0.23,0.75
		c-0.1,0.19-0.31,0.31-0.53,0.3c-6.28,0-19.9-1.75-15.93-16.15C958.28,245.38,956.21,240.71,954.15,239.07z"/>
	<path class="st9" d="M911.47,184.07c0,0-6.9,5.15-5.74,22.85c2.21,1.1,4.68,1.58,7.15,1.39c0,0-0.7-9.59,3.1-17L911.47,184.07z"/>
	<path class="st2" d="M914.02,257.54c-5.84,2.44-10.81,6.57-14.28,11.87c-3.9,6.05-9.65,17.36-9.65,17.36
		c4.79,7.13,12.25,12.03,20.7,13.59c0,0,5.95-10.1,7.65-12.59c1.7-2.49,9.2-21.08-1.88-31.14L914.02,257.54z"/>
	<path class="st18" d="M914.02,257.54c-5.84,2.44-10.81,6.57-14.28,11.87c-3.9,6.05-9.65,17.36-9.65,17.36
		c4.79,7.13,12.25,12.03,20.7,13.59c0,0,5.95-10.1,7.65-12.59c1.7-2.49,9.2-21.08-1.88-31.14L914.02,257.54z"/>
</g>
<g id="freepik--character-1--inject-59">
	<path class="st9" d="M550.73,579.7v0.31c-0.04,3.14-0.7,6.25-1.92,9.15c-0.91,2.29-1.36,4.74-1.33,7.21v10.11
		c0,0.91-0.73,1.64-1.64,1.64l0,0c-0.91,0-1.64-0.73-1.64-1.64v-15.59L550.73,579.7z"/>
	<path class="st9" d="M545.55,569.37c0,0-5.43,4-5.43,14.57c0,10.57-7.85,19.85-11.83,22.24c-3.98,2.39-12.82-3.28-12.82-3.28
		s-9.39,7.97-9.39,11.57c0,3.61,4.59,6.56,15.21,5.05c10.62-1.51,19.44-3,21.1-14.49c1.93-13.44,2-15.16,6.05-19.59
		S550.94,571.81,545.55,569.37z"/>
	<path class="st17" d="M547.2,541.77l-1.74,25.73c0,0-1.41,39.93-20.57,39.93h-9.97c-0.44,0,0-6.44,0-6.44s11-16.01,11.82-31.91
		l-0.98-27.31L547.2,541.77z"/>
	<path class="st7" d="M545.46,567.5c0,0-4.38,3.16-5.51,14.56c-1.25,12.74-7.97,19.87-12.01,22.24s-13.01-3.28-13.01-3.28
		s-9.54,7.98-9.54,11.57c0,3.59,4.67,6.56,15.44,5.06c10.77-1.49,17.85-3.39,19.83-14.75c1.98-11.36,2.03-14.13,6.15-18.55
		C550.92,579.92,553.59,575.7,545.46,567.5z"/>
	<path class="st8" d="M534.24,343.97l-9.83,88.87c-1.76,15.78-2.26,31.68-1.49,47.53l2.92,61.4c0,0,11.47,8.08,21.44,0l7.95-44.99
		c1.37-7.78,0.81-15.78-1.64-23.29l0,0l18.15-56.27l-8.75-71.45L534.24,343.97z"/>
	<path class="st7" d="M539.37,371.02c0,0,4.92,14.21,18.85,18.78l6,50.45l7.43-23.05l-5.65-46.19H539.37z"/>
	<path class="st9" d="M607.64,604.36v0.23c-0.04,3.14-0.69,6.25-1.92,9.15c-0.91,2.29-1.36,4.74-1.33,7.21v10.11
		c0,0.91-0.73,1.64-1.64,1.64l0,0c-0.91,0-1.64-0.73-1.64-1.64v-15.59L607.64,604.36z"/>
	<path class="st9" d="M602.46,594.04c0,0-5.41,4-5.41,14.57c0,10.57-7.87,19.85-11.85,22.24c-3.98,2.39-12.8-3.28-12.8-3.28
		s-9.41,7.97-9.41,11.57c0,3.61,4.61,6.56,15.21,5.05c10.61-1.51,19.47-3.03,21.11-14.52c1.93-13.44,2-15.16,6.05-19.59
		C609.41,605.66,607.85,596.5,602.46,594.04z"/>
	<path class="st17" d="M604.13,566.43l-1.75,25.73c0,0-1.41,39.93-20.57,39.93h-9.97c-0.44,0,0-6.44,0-6.44s11.01-16.01,11.82-31.91
		l-0.98-27.31L604.13,566.43z"/>
	<path class="st7" d="M602.37,592.17c0,0-4.38,3.16-5.49,14.56c-1.25,12.74-7.98,19.87-12.03,22.24
		c-4.05,2.38-13.01-3.28-13.01-3.28s-9.54,7.98-9.54,11.57c0,3.59,4.67,6.56,15.46,5.06c10.79-1.49,17.83-3.39,19.82-14.75
		c1.98-11.36,2.05-14.13,6.15-18.55C607.82,604.59,610.52,600.37,602.37,592.17z"/>
	<path class="st8" d="M591.8,343.48c0,0,21.83,24.08,21.83,51.42c0,27.34-6.13,85.82-6.13,85.82l1.74,4.33
		c2.76,6.89,3.71,14.38,2.74,21.73l-7.88,59.75c0,0-8.93,8.2-21.46,0L576.08,486l-15.82-102.27c-8.02-2.18-15.25-6.59-20.85-12.72
		v-28.13L591.8,343.48z"/>
	<path class="st7" d="M533.91,333.3l0.33,10.64c0,0,6.74,5.92,27.34,5.92c20.6,0,30.23-5.88,30.23-5.88V332.5L533.91,333.3z"/>
	<path class="st17" d="M547.35,262.84c-4.43,0.51-17-1.28-24.28,16.98c-7.28,18.26-13.77,36.55-13.77,36.55l-13.36-13.85
		c0,0-15.64-23.46-19.34-20.83c-3.7,2.62-2.38,6.82-1.33,9.83s4.92,12.42,6.25,15s17.29,39.34,31.67,39.34
		c9.62,0,20.18-32.44,20.18-32.44L547.35,262.84z"/>
	<path class="st2" d="M597.26,296.52c-0.11,0.75-0.21,1.51-0.33,2.26c-3.28,23.49-5.13,33.63-5.13,33.63
		c-10.68,4.28-22.08,6.51-33.59,6.56c-18.85,0-24.31-5.65-24.31-5.65l-1.8-19.31c0,0-7.46-5.64-7.46-18.75
		c0-13.11,22.75-32.16,22.75-32.16l6.82-0.33l23.44,0.84l16.11,1.43l2.26,0.26C596.03,265.29,600.77,271.41,597.26,296.52z"/>
	<path class="st9" d="M585.54,194.81c1.77-2.05,2.58-4.76,2.23-7.44c-0.38-4.92,4.33-1.36,4.7,1.49s-2.52,7.1-5.23,8.03
		L585.54,194.81z"/>
	<path class="st9" d="M587.26,195.73c2.7,0.13,5.32-0.9,7.21-2.84c3.69-3.36,3.75,2.56,1.74,4.64s-7.13,2.38-9.54,0.82
		L587.26,195.73z"/>
	<path class="st9" d="M603.54,240.71c-2.7-2.55-4.21-6.12-4.15-9.83c0.26-8.06-0.79-20.08-7.54-30.18
		c-11.33-16.97-25.85-15.87-37.7-14.75c-11.85,1.11-25.23-3.79-28.91,2.59c-6.56,11.47,2.08,14.75,2.08,14.75
		c-5.74,13.28,7.95,16.54,7.95,16.54l6.93,18.69c-1.29-0.49-2.66-0.68-4.03-0.56c-4.96,0.55-8.63,4.85-8.39,9.83
		c0.26,5.06,4.58,8.95,9.64,8.69c0.98-0.05,1.94-0.26,2.85-0.61c1.55,3.12,4.71,5.1,8.2,5.13c1.54,0,3.07-0.38,4.43-1.11
		c3.23-1.88,6.87-2.91,10.61-3h3.88c3.72,0.09,7.36,1.12,10.59,2.98c4.47,2.44,10.08,0.8,12.52-3.68c0.12-0.23,0.24-0.46,0.34-0.7
		c2.14,1.11,4.63,1.3,6.92,0.54c4.86-1.55,7.54-6.74,6-11.59c-0.45-1.41-1.23-2.69-2.28-3.73H603.54z"/>
	<path class="st17" d="M554.17,249.69v13.11c0,0-15,18.13-0.38,19.44s23.82-18.59,23.82-18.59V236.3L554.17,249.69z"/>
	<path class="st22" d="M578.36,228.2v0.89c-5.47,21.6-19.67,26.31-24.29,27.41l-0.18-33.44l23.77-0.11L578.36,228.2z"/>
	<path class="st17" d="M558.33,189.66c-7.77,0.62-23.95,6.31-24.18,26.82c-0.23,20.51,2.88,36.06,13.51,36.77
		c10.62,0.7,34.42-8.93,35.47-35.54C584.18,191.11,565.92,189.04,558.33,189.66z"/>
	<polygon class="st22" points="550.35,224.71 550.53,236.74 543.45,234.69 	"/>
	<path class="st9" d="M559.07,224.32c0.03,1.36-1.05,2.48-2.41,2.51c-1.36,0.03-2.48-1.05-2.51-2.41c-0.03-1.36,1.05-2.48,2.41-2.51
		c0.01,0,0.02,0,0.03,0C557.94,221.9,559.04,222.97,559.07,224.32z"/>
	<path class="st9" d="M542.92,222.91c0.02,1.36-1.07,2.47-2.43,2.49c-1.36,0.02-2.47-1.07-2.49-2.43c-0.02-1.36,1.07-2.47,2.43-2.49
		c1.35-0.03,2.46,1.04,2.49,2.39C542.92,222.88,542.92,222.89,542.92,222.91z"/>
	<path class="st2" d="M537.42,217.87l4.75-2.92c0,0-1.87-1.88-3.69-0.7C537.4,215.11,536.97,216.56,537.42,217.87z"/>
	<path class="st22" d="M552.81,240.56c2.06-0.98,4.06-2.07,6-3.28c0,0,1.26,3.28-1.41,4.62
		C555.74,242.6,553.82,242.04,552.81,240.56z"/>
	<path class="st9" d="M539.19,198.19c0,0,5.23,27.87,43.49,25.59c0,0,9.24-28.85-14.29-36.06S539.19,198.19,539.19,198.19z"/>
	<path class="st9" d="M537.42,217.87l4.75-2.92c0,0-1.87-1.88-3.69-0.7C537.4,215.11,536.97,216.56,537.42,217.87z"/>
	<path class="st17" d="M576.87,226.36c0,0,1.89-8.08,7.59-7.52c6.26,0.61,6.34,6.72,6,8.85c-0.92,5.59-6.23,11.08-14.75,10.26
		L576.87,226.36z"/>
	<path class="st9" d="M571.8,222.97c0,0-0.93,7.75,4.64,7.75l1.36-6.95L571.8,222.97z"/>
	<path class="st22" d="M509.3,316.37c2.62,2.62,4.83,5.61,6.56,8.88c0,0,0-5.2-5.47-11.93L509.3,316.37z"/>
	<path class="st9" d="M489.34,305.57l-18.03-34.18c-0.46-0.78-0.2-1.78,0.57-2.25c0.32-0.19,0.7-0.26,1.06-0.21l20.47,1.9
		c1.01,0.09,1.89,0.72,2.31,1.64l17.74,35.88c0.44,0.89,0.07,1.97-0.82,2.41c-0.34,0.17-0.72,0.22-1.1,0.16l-19.49-3.28
		C490.88,307.41,489.88,306.65,489.34,305.57z"/>
	<path class="st7" d="M513.53,308.3l-17.74-35.88c-0.42-0.92-1.3-1.54-2.31-1.64l-20.39-1.85c-0.9-0.1-1.71,0.55-1.81,1.45
		c-0.01,0.06-0.01,0.13-0.01,0.19c0.22-0.08,0.46-0.1,0.69-0.08l20.47,1.89c1,0.1,1.88,0.73,2.31,1.64l17.69,35.86
		c0.13,0.28,0.19,0.59,0.16,0.9c0.92-0.38,1.37-1.43,0.99-2.35C513.57,308.39,513.55,308.35,513.53,308.3z"/>
	<path class="st17" d="M478.65,285.24l9.23,17.54c0,0,20,1.64,19.37-7.41c-0.62-9.05-4.62-8.87-4.62-8.87
		S489.24,289.6,478.65,285.24z"/>
	<path class="st17" d="M638.29,332.19c0,6.98-13.2,48.26-13.2,48.26l-12.49-7.08c1.76-6.93,2.71-14.04,2.84-21.19
		c0.03-6.63,0.84-13.23,2.39-19.67c0,0-7.06-13.11-20.9-33.72v-0.1c-13.11-19.44-4.28-32.19-3.16-33.65l2.26,0.26
		c14.6,1.79,19.77,17,25.03,26.23C626.32,300.75,638.35,325.22,638.29,332.19z"/>
	<path class="st17" d="M612.6,373.36c-1.21,0.91-2.51,1.69-3.87,2.34c-1.93,0.89-3.69,1.18-7.05,6.39
		c-2.16,3.36-5.29,3.08-4.92,5.39c0.38,2.31,7.97,1.11,10.41-2.46c-0.66,2.94-2.03,5.68-3.98,7.98c-2.84,2.75-6.92,7.21-6.92,9.57
		s11.57,6.64,18.59,0.49c7.02-6.15,10.31-22.64,10.31-22.64L612.6,373.36z"/>
</g>
<g id="freepik--speech-bubbles--inject-59">
	<path class="st1" d="M877.49,47.08L810.13,8.2c-5.52-3.18-10,0.2-10,7.57v39.22c0,7.36,4.47,15.93,10,19.13l6.21,3.57l-10.51,22.29
		l27.06-12.75L877.52,113c5.52,3.28,10.02-0.2,10.02-7.57V66.22C887.5,58.85,883.01,50.27,877.49,47.08z"/>
	<path class="st2" d="M873.55,66.04c-0.14,0-0.28-0.04-0.39-0.11l-59.5-34.34c-0.39-0.23-0.52-0.74-0.3-1.13
		c0.22-0.39,0.71-0.52,1.09-0.31c0.01,0,0.01,0.01,0.02,0.01l59.5,34.42c0.39,0.23,0.52,0.73,0.29,1.12
		c-0.15,0.25-0.42,0.4-0.71,0.4V66.04z"/>
	<path class="st2" d="M873.55,78.58c-0.14,0-0.27-0.03-0.39-0.1l-59.5-34.42c-0.39-0.22-0.52-0.71-0.31-1.09
		c0-0.01,0.01-0.01,0.01-0.02c0.22-0.39,0.72-0.53,1.11-0.31l59.5,34.42c0.39,0.23,0.52,0.73,0.29,1.12
		C874.12,78.43,873.84,78.58,873.55,78.58z"/>
	<path class="st2" d="M846.16,75.32c-0.14,0-0.29-0.04-0.41-0.11l-32.09-18.54c-0.41-0.19-0.6-0.67-0.41-1.08s0.67-0.6,1.08-0.41
		c0.05,0.02,0.1,0.05,0.14,0.08l32.09,18.52c0.39,0.23,0.52,0.73,0.31,1.13C846.73,75.16,846.46,75.32,846.16,75.32z"/>
	<path class="st1" d="M947.43,112.46l-26.85-15.47c-3.28-1.92-6.03,0.11-6.03,4.57v23.65c0,4.44,2.7,9.62,6.03,11.47l6.2,3.57
		l5.08,21.87l4.13-16.49l11.47,6.56c3.28,1.92,6.03-0.13,6.03-4.57V124C953.46,119.56,950.76,114.38,947.43,112.46z"/>
	<path class="st2" d="M942.95,130.13c0,6.43-4.52,9.03-10.08,5.82c-5.96-3.88-9.71-10.37-10.1-17.47c0-6.43,4.52-9.03,10.1-5.82
		C938.82,116.54,942.57,123.03,942.95,130.13z"/>
	<g class="st23">
		<path class="st6" d="M942.95,130.13c0,6.43-4.52,9.03-10.08,5.82c-5.96-3.88-9.71-10.37-10.1-17.47c0-6.43,4.52-9.03,10.1-5.82
			C938.82,116.54,942.57,123.03,942.95,130.13z"/>
	</g>
	<path class="st6" d="M926.27,118.92c-0.21-0.13-0.37-0.32-0.44-0.56c-0.11-0.34,0-0.64,0.23-0.64h2.57l-2.57-2.98
		c-0.23-0.23-0.32-0.57-0.23-0.89c0.13-0.21,0.43-0.15,0.66,0.13l3.46,4c0.17,0.18,0.26,0.41,0.28,0.66c0,0.21-0.11,0.34-0.28,0.34
		h-3.46C926.4,118.99,926.33,118.96,926.27,118.92z"/>
	<path class="st6" d="M938.89,126.21c-0.11-0.05-0.21-0.14-0.28-0.25l-3.46-4c-0.16-0.18-0.25-0.41-0.26-0.66
		c0-0.21,0.1-0.36,0.26-0.36h3.46c0.25,0,0.54,0.3,0.66,0.64s0,0.64-0.21,0.64h-2.59l2.59,2.98c0.24,0.23,0.32,0.57,0.21,0.89
		C939.25,126.31,939.07,126.33,938.89,126.21z"/>
	<path class="st6" d="M932.87,131c-3.25-2.07-5.72-5.16-7.03-8.79c-0.08-0.18-0.08-0.39,0-0.57c0.08-0.11,0.25-0.13,0.43,0
		l13.11,7.62c0.2,0.12,0.35,0.3,0.43,0.52c0.08,0.18,0.08,0.39,0,0.57C938.45,132.52,935.81,132.7,932.87,131z M927.14,123.26
		c1.21,2.7,3.19,4.99,5.7,6.56c2.29,1.33,4.36,1.29,5.69,0L927.14,123.26z"/>
	<path class="st2" d="M462.41,283.62l-25.82-8.72c-4.82-30.21-33.22-50.79-63.42-45.97c-30.21,4.82-50.79,33.22-45.97,63.42
		c4.82,30.21,33.22,50.79,63.42,45.97c23.65-3.77,42.19-22.32,45.97-45.97L462.41,283.62z"/>
	<path class="st24" d="M462.41,283.62l-25.82-8.72c-4.82-30.21-33.22-50.79-63.42-45.97c-30.21,4.82-50.79,33.22-45.97,63.42
		c4.82,30.21,33.22,50.79,63.42,45.97c23.65-3.77,42.19-22.32,45.97-45.97L462.41,283.62z"/>
	<path class="st8" d="M426.18,316.83c-18.32,24.35-52.92,29.23-77.26,10.9c-1.05-0.79-2.07-1.61-3.06-2.48l19.49-7.1l26.36-5.43
		l8.44-2.41C409.37,307.72,419.27,310.2,426.18,316.83z"/>
	<path class="st9" d="M418.32,259.03c0,0,4.29-21.6-15.7-30.36c-20-8.75-51.11-5.47-57.94,21.87s10.75,44.54,20.65,48.22
		L418.32,259.03z"/>
	<path class="st11" d="M365.32,318.17l2.97,4.69c4.55,7.19,12.73,11.24,21.21,10.51l0,0c4.56-0.44,7.9-4.49,7.46-9.05
		c-0.1-1.06-0.41-2.1-0.9-3.05l-4.44-8.54v-33.96h-26.29V318.17z"/>
	<path class="st14" d="M391.68,310.68c-10.88-4.05-19.63-12.38-24.21-23.05v-8.87h24.21V310.68z"/>
	<path class="st11" d="M397.83,235.56c0,0,25.08,0.95,20.55,41.34c-2.13,19-3.69,29.5-19.95,29.5c-16.26,0-40.24-12.26-38.68-44.86
		C361.31,228.94,397.83,235.56,397.83,235.56z"/>
	<polygon class="st14" points="400.91,271.1 400.91,285.27 409.22,282.72 	"/>
	<circle class="st9" cx="391.68" cy="273.55" r="2.88"/>
	<path class="st9" d="M407.78,271.54c-0.01,1.6,1.28,2.91,2.88,2.92s2.91-1.28,2.92-2.88c0.01-1.6-1.28-2.91-2.88-2.92
		c-0.01,0-0.01,0-0.02,0c-1.59-0.01-2.89,1.28-2.9,2.87C407.78,271.53,407.78,271.53,407.78,271.54z"/>
	<path class="st9" d="M414.19,265.52l-5.64-3.28c0,0,2.16-2.26,4.33-0.9C414.12,262.34,414.64,263.99,414.19,265.52z"/>
	<path class="st9" d="M390.17,264.56l-5.1,4.15c0,0-1.36-2.82,0.66-4.38C387.12,263.48,388.88,263.57,390.17,264.56z"/>
	<path class="st14" d="M404.81,291.01c-2.75,0.2-5.49-0.53-7.77-2.08c0,0-0.52,4.1,2.9,4.92
		C403.37,294.67,404.81,291.01,404.81,291.01z"/>
	<path class="st9" d="M410.68,241.28c0,0-2.74,9.69-23.28,8.2c-20.54-1.49-18.74,4.15-16.51,13.74c1.54,6.56,1.64,24.21-3.43,15.59
		h-10.16v-20.33c-0.01-14.33,11.6-25.95,25.93-25.96c0.01,0,0.01,0,0.02,0h10.15c6.82,0,13.24,3.25,17.28,8.75V241.28z"/>
	<path class="st11" d="M367.72,277.73c0,0-1.03-9.72-7.77-9.83c-7.41-0.21-8.41,6.92-8.31,9.46c0.26,6.67,5.65,13.87,15.7,14.15
		L367.72,277.73z"/>
	<path class="st2" d="M506.29,146.1c-3.69-18.29-16.34-33.5-33.65-40.47c-1.61-0.64-3.25-1.18-4.92-1.64
		c-8.56-2.53-17.61-2.94-26.36-1.18c-2.26,0.45-4.49,1.03-6.67,1.75c-1.64,0.54-3.16,1.13-4.66,1.79l0,0
		c-0.43,0.18-0.84,0.36-1.23,0.56c-27.63,12.89-39.58,45.74-26.69,73.37c1.76,3.77,3.94,7.32,6.49,10.6
		c1.03,1.31,2.08,2.56,3.28,3.77c3.97,4.23,8.58,7.8,13.65,10.61c0.9,0.49,1.82,0.97,2.75,1.41c2.59,1.26,5.29,2.3,8.05,3.13
		c5.84,1.75,11.94,2.52,18.03,2.28l19.05,41.24l-1.92-44.65c2.14-0.79,4.22-1.71,6.25-2.75c4.2-2.16,8.1-4.88,11.59-8.06
		c1.81-1.63,3.5-3.38,5.06-5.25C505.26,179.73,509.64,162.6,506.29,146.1z"/>
	<path class="st24" d="M506.29,146.1c-3.69-18.29-16.34-33.5-33.65-40.47c-1.61-0.64-3.25-1.18-4.92-1.64
		c-8.56-2.53-17.61-2.94-26.36-1.18c-2.26,0.45-4.49,1.03-6.67,1.75c-1.64,0.54-3.16,1.13-4.66,1.79l0,0
		c-0.43,0.18-0.84,0.36-1.23,0.56c-27.63,12.89-39.58,45.74-26.69,73.37c1.76,3.77,3.94,7.32,6.49,10.6
		c1.03,1.31,2.08,2.56,3.28,3.77c3.97,4.23,8.58,7.8,13.65,10.61c0.9,0.49,1.82,0.97,2.75,1.41c2.59,1.26,5.29,2.3,8.05,3.13
		c5.84,1.75,11.94,2.52,18.03,2.28l19.05,41.24l-1.92-44.65c2.14-0.79,4.22-1.71,6.25-2.75c4.2-2.16,8.1-4.88,11.59-8.06
		c1.81-1.63,3.5-3.38,5.06-5.25C505.26,179.73,509.64,162.6,506.29,146.1z"/>
	<path class="st9" d="M483.19,192.19c0,3.28-2.26,6.97-6.11,10.41c-4.5,3.85-9.7,6.79-15.33,8.64c-8.49,1.52-17.23,1.02-25.49-1.48
		c-2.76-0.83-5.45-1.87-8.05-3.13c-0.93-0.44-1.85-0.92-2.75-1.41c-5.08-2.8-9.68-6.38-13.65-10.61c-1.13-1.21-2.18-2.46-3.28-3.77
		c-1.2-11.1,6.56-22.19,8.2-26.69c2.18-6.41,3.49-29.75,3.75-34.78c0,0,0-0.16,0-0.25c0-0.46,0-0.7,0-0.7
		c5.22-1.08,10.52-1.7,15.85-1.85c0.49,0,1,0,1.54,0c9.83-0.13,21.67,1.49,28.54,8.7c2.17,2.25,3.77,4.98,4.67,7.97
		c0.65,2.1,1.02,4.27,1.11,6.46c0.1,1.64,0.2,3.28,0.33,4.79c0,0.97,0.16,1.9,0.28,2.8c0,0.28,0,0.56,0,0.8
		c0.41,3.95,1.13,7.86,2.13,11.7c0.41,1.55,0.9,3.07,1.46,4.57c1.87,4.92,3.9,7.67,5.21,10.72
		C482.65,187.31,483.19,189.73,483.19,192.19z"/>
	<path class="st17" d="M494.26,192.57c-1.56,1.87-3.25,3.62-5.06,5.25c-3.49,3.19-7.39,5.9-11.59,8.06l-0.52-3.28l-4.47-28.49
		c1.32-0.05,2.64,0.02,3.95,0.23c5.38,0.75,14.59,3.75,17.08,15.41L494.26,192.57z"/>
	<path class="st7" d="M489.19,197.81c-3.49,3.19-7.39,5.9-11.59,8.06c-4.61,2.41-9.55,4.14-14.65,5.15
		c-0.39,0.09-0.79,0.16-1.2,0.21c-8.49,1.52-17.23,1.02-25.49-1.48c-2.76-0.83-5.45-1.87-8.05-3.13c-0.93-0.44-1.85-0.92-2.75-1.41
		c-0.57-19.05,2.84-27.42,2.84-27.42l1.84-0.49c0.11-0.02,0.23-0.02,0.34,0c4.67-1.13,11.47-2.29,11.47-2.29l21.73-0.48l8.98-0.34
		c3.29,3.44,6.35,7.1,9.16,10.95C484.77,189.07,487.24,193.32,489.19,197.81z"/>
	<path class="st9" d="M435.1,103.94c0,0-1.13-8.65-2.66-8.7c-1.52-0.05-2.26,7.31-2.26,7.31s-6.9-1.51-6.43,0.59
		c0.48,2.1,8.36,5.18,8.36,5.18L435.1,103.94z"/>
	<path class="st9" d="M420.46,131.74c0.18,24.08,21.49,28.47,21.49,28.47l42.85-14.87c2.67-2.19,4.53-5.21,5.29-8.57
		c0.71-2.56,1.05-5.2,1.02-7.85l0,0c0-10.13-6.13-21.8-21.93-27.16c-3.47-1.17-7.04-1.98-10.67-2.43c-1.74-0.23-3.49-0.37-5.25-0.41
		c-12.82-0.38-22.36,4.38-27.75,12.98c-1.21,1.94-2.18,4.02-2.9,6.2C421.14,122.49,420.41,127.1,420.46,131.74z"/>
	<path class="st17" d="M441.95,174.93l0.98,1.64c4.73,8.19,11.69,14.86,20.08,19.23l2.72,1.41c1.35,0.66,2.98,0.1,3.64-1.25
		c0.18-0.36,0.27-0.75,0.28-1.15l0,0c-0.03-6.57-1.77-13.03-5.06-18.72l-0.97-1.64v-31.14h-21.67V174.93z"/>
	<path class="st22" d="M441.95,147.96v0.79c3.61,11.08,11.41,20.3,21.73,25.7v-31.14h-21.19L441.95,147.96z"/>
	<path class="st17" d="M463.26,107.07c7.69,0.98,23.49,7.38,22.8,27.73c-0.69,20.36-4.52,35.75-15.11,35.91
		c-10.59,0.16-33.72-10.44-33.6-36.91S455.8,106.1,463.26,107.07z"/>
	<polygon class="st22" points="471.19,143.08 469.67,154.95 476.88,153.7 	"/>
	<path class="st9" d="M460.98,141.52c-0.08,1.36,0.95,2.52,2.31,2.61s2.52-0.95,2.61-2.31c0.08-1.36-0.95-2.52-2.31-2.61
		C462.23,139.13,461.06,140.17,460.98,141.52L460.98,141.52z"/>
	<path class="st9" d="M477.1,140.72c-0.09,1.35,0.93,2.51,2.28,2.6c1.35,0.09,2.51-0.93,2.6-2.28s-0.93-2.51-2.28-2.6
		c-0.01,0-0.02,0-0.02,0C478.33,138.37,477.18,139.38,477.1,140.72z"/>
	<path class="st9" d="M482.8,136.05l-4.59-3.11c0,0,1.93-1.79,3.69-0.54C482.94,133.3,483.3,134.76,482.8,136.05z"/>
	<path class="st22" d="M471.56,159.68c-2.32,0.17-4.63-0.45-6.56-1.75c0,0-0.44,3.46,2.46,4.11
		C469.21,162.33,470.92,161.34,471.56,159.68z"/>
	<path class="st9" d="M481.93,116.41c0,0-6.46,27.42-44.35,23.44c0,0-7.87-29.08,15.83-35.16
		C477.11,98.61,481.93,116.41,481.93,116.41z"/>
	<path class="st17" d="M443.23,142.69c0,0-1.52-8.2-7.21-7.82c-6.25,0.33-6.56,6.39-6.36,8.52c0.67,5.59,5.69,11.29,14.16,10.85
		L443.23,142.69z"/>
	<path class="st17" d="M436.23,208.86v0.9c-2.76-0.83-5.45-1.87-8.05-3.13c-0.93-0.44-1.85-0.92-2.75-1.41
		c-5.08-2.8-9.68-6.38-13.65-10.61c1.92-11.75,11.01-16.1,18.33-17.31c0.11-0.02,0.23-0.02,0.34,0
		C430.45,177.31,439.2,182.57,436.23,208.86z"/>
</g>
</svg>
