<?xml version="1.0" encoding="utf-8"?>
<!-- Generator: Adobe Illustrator 23.1.0, SVG Export Plug-In . SVG Version: 6.00 Build 0)  -->
<svg version="1.1" id="Layer_1" xmlns="http://www.w3.org/2000/svg" xmlns:xlink="http://www.w3.org/1999/xlink" x="0px" y="0px"
	 viewBox="0 0 1366 768" style="enable-background:new 0 0 1366 768;" xml:space="preserve">
<style type="text/css">
	.st0{fill:#EBEBEB;}
	.st1{fill:#E0E0E0;}
	.st2{fill:#F5F5F5;}
	.st3{fill:#263238;}
	.st4{fill:#455A64;}
	.st5{fill:#FFFFFF;}
	.st6{fill:#FF725E;}
	.st7{opacity:0.6;}
	.st8{opacity:0.3;}
	.st9{fill:#FFD6BD;}
	.st10{fill:#FFB394;}
	.st11{opacity:0.3;enable-background:new    ;}
	.st12{fill:#C78976;}
	.st13{fill:#8B5D54;}
	.st14{fill:#FFBE9D;}
	.st15{opacity:0.3;fill:#FFFFFF;enable-background:new    ;}
	.st16{fill:#EB996E;}
</style>
<g id="freepik--background-complete--inject-400">
	<path class="st0" d="M352.56,571.45c0,0-10.16,4.1,1.63,25.67c11.79,21.56,19.72,32.17,19.72,32.17s2.1,5.02-2.15,5.91
		c-4.25,0.9-13.68-0.36-15.44,4.89c-1.76,5.24,2.23,10.47,10.33,14.76c8.09,4.28,25.47,14.28,27.05,15.2
		c1.58,0.91,3.11,3.26,0.33,4.3c-2.78,1.04-23.88,3.83-21.97,13.75c1.91,9.92,26.4,18.14,29.07,19.09c2.67,0.94,3.26,2.05,3.14,3.5
		c-0.11,1.45-7.36,1.63-13.32,2.74c-5.96,1.11-12.7,3.26-11.12,8.91c1.58,5.65,16.29,17.17,51.29,19.69l16.29,0.1l8.52-13.97
		c16.29-31.04,14.35-49.62,10.39-53.94c-3.96-4.32-9.4,0.21-13.44,4.72s-8.03,10.47-9.36,9.77c-1.34-0.7-1.91-1.76-1.3-4.51
		c0.6-2.75,6.51-27.9-0.81-34.77c-7.33-6.87-20.91,9.58-23.31,11.4s-3.52-0.77-3.47-2.56c0.05-1.79,0.75-21.87,1.4-30.94
		c0.65-9.07-1.45-15.24-7.05-16.58c-5.6-1.34-9.33,7.39-12.35,10.52c-3.01,3.13-6.16-1.32-6.16-1.32s-4.77-12.39-16.87-33.73
		c-12.1-21.34-21.17-14.66-21.17-14.66"/>
	<path class="st1" d="M448.25,745.94c-8.83-15.7-24.04-43.88-37.21-68c-13.18-24.12-25.15-45.94-33.89-61.69l-10.37-18.63
		l-2.82-5.07c-0.31-0.57-0.55-1.01-0.72-1.34c-0.11-0.16-0.21-0.32-0.29-0.49l0.28,0.44l0.77,1.3l2.9,5.02
		c2.51,4.36,6.11,10.7,10.5,18.57c8.83,15.7,20.83,37.46,34.02,61.61c13.19,24.15,28.35,52.33,37.08,68.08"/>
	<path class="st1" d="M369.36,642.39c0.39,0.06,0.77,0.16,1.14,0.29c0.73,0.21,1.78,0.55,3.06,0.98c2.56,0.86,6.07,2.15,9.92,3.65
		l9.77,3.84l2.98,1.16c0.38,0.11,0.74,0.27,1.09,0.46c-0.39-0.05-0.78-0.14-1.16-0.28c-0.72-0.21-1.76-0.55-3.05-0.99
		c-2.56-0.9-6.06-2.23-9.9-3.71l-9.87-3.78l-2.92-1.16C370.06,642.74,369.7,642.59,369.36,642.39z"/>
	<path class="st1" d="M398.48,651.71c-0.13,0,2.21-7.41,5.23-16.43s5.55-16.29,5.68-16.29s-2.2,7.41-5.21,16.43
		C401.17,644.44,398.63,651.74,398.48,651.71z"/>
	<path class="st1" d="M417.07,689.65c0.17-0.37,0.38-0.71,0.64-1.03l1.86-2.69c1.63-2.28,3.73-5.42,5.98-8.97
		c2.25-3.55,4.19-6.86,5.55-9.25l1.63-2.83c0.18-0.35,0.4-0.69,0.64-1.01c-0.11,0.39-0.27,0.76-0.47,1.11
		c-0.34,0.7-0.85,1.63-1.5,2.92c-1.29,2.44-3.26,5.77-5.44,9.33c-2.18,3.57-4.46,6.69-6.11,8.92c-0.83,1.11-1.5,1.99-1.99,2.59
		C417.62,689.07,417.36,689.38,417.07,689.65z"/>
	<path class="st1" d="M388.88,687.03c0.37-0.04,0.74-0.04,1.11,0l3.01,0.16c2.56,0.16,6.07,0.42,9.95,0.73
		c3.88,0.31,7.39,0.62,9.93,0.86l3.01,0.33c0.37,0.02,0.74,0.08,1.09,0.18c-0.37,0.04-0.74,0.04-1.11,0l-3.01-0.16
		c-2.56-0.16-6.07-0.41-9.95-0.72s-7.39-0.62-9.93-0.88l-3.01-0.31C389.6,687.2,389.23,687.14,388.88,687.03z"/>
	<path class="st1" d="M401.01,722.65c0.48-0.04,0.96-0.04,1.43,0l3.86,0.2c3.26,0.18,7.78,0.47,12.77,0.83
		c4.98,0.36,9.48,0.68,12.74,0.96l3.86,0.36c0.48,0.03,0.95,0.09,1.42,0.2c-0.47,0.04-0.95,0.04-1.42,0l-3.88-0.2
		c-3.26-0.18-7.78-0.47-12.77-0.81c-4.98-0.34-9.48-0.7-12.74-0.98l-3.86-0.36C401.95,722.83,401.47,722.76,401.01,722.65z"/>
	<path class="st1" d="M436.24,724.85c0.22-0.46,0.47-0.89,0.77-1.3l2.25-3.5c1.89-2.95,4.46-7.04,7.2-11.63
		c2.74-4.59,5.1-8.81,6.79-11.89c0.81-1.47,1.5-2.69,2-3.63c0.23-0.45,0.5-0.89,0.8-1.3c-0.17,0.48-0.37,0.95-0.62,1.4
		c-0.42,0.88-1.06,2.15-1.86,3.71c-1.63,3.11-3.94,7.36-6.68,11.97c-2.74,4.61-5.37,8.66-7.35,11.56c-0.98,1.45-1.79,2.62-2.38,3.4
		C436.9,724.08,436.59,724.48,436.24,724.85z"/>
	
		<ellipse transform="matrix(0.7071 -0.7071 0.7071 0.7071 119.8743 564.4728)" class="st0" cx="741.32" cy="137.54" rx="73.06" ry="73.06"/>
	<path class="st2" d="M680.53,137.53c0-33.59,27.23-60.81,60.81-60.81s60.81,27.23,60.81,60.81s-27.23,60.81-60.81,60.81l0,0
		C707.77,198.31,680.57,171.1,680.53,137.53z M690.94,137.53c0,27.84,22.57,50.41,50.41,50.41c27.84,0,50.41-22.57,50.41-50.41
		s-22.57-50.41-50.41-50.41c-27.83,0.03-50.39,22.57-50.44,50.41H690.94z"/>
	<path class="st2" d="M719.32,135.92c0-12.37,10.03-22.39,22.39-22.39s22.39,10.03,22.39,22.39s-10.03,22.39-22.39,22.39l0,0
		C729.36,158.3,719.34,148.28,719.32,135.92z M729.73,135.92c0,6.62,5.37,11.99,11.99,11.99c6.62,0,11.99-5.37,11.99-11.99
		c0-6.62-5.37-11.99-11.99-11.99l0,0C735.1,123.94,729.74,129.3,729.73,135.92L729.73,135.92z"/>
	<polygon class="st1" points="741.72,135.92 770.02,135.92 765.09,144.67 831.71,175.2 829.47,178.95 762.61,148.75 758.04,157.44 	
		"/>
	<path class="st1" d="M831.71,175.2l0.7-0.7c3.5-3.39,8.56-4.64,13.24-3.26l26.56,7.74l-14.79,6.51l5.94,15.81l-24.87-8.94
		c-5.62-2.01-9.26-7.46-8.97-13.42l0,0L831.71,175.2z"/>
	<path class="st1" d="M394.45,270.61c3.16-1.92,6.56-3.4,10.11-4.4l2.08-10.02l16.91-0.29l2.44,9.93c3.58,0.89,7.02,2.25,10.24,4.06
		l8.55-5.6l12.17,11.74l-5.29,8.75c1.9,3.16,3.38,6.56,4.4,10.11l10,2.08l0.31,16.89l-9.92,2.44c-0.89,3.58-2.25,7.03-4.04,10.26
		l5.6,8.55l-11.76,12.17l-8.73-5.29c-3.17,1.9-6.57,3.37-10.11,4.4l-2.08,10l-16.92,0.31l-2.43-9.93
		c-3.59-0.88-7.04-2.24-10.26-4.04l-8.55,5.6L375,336.57l5.29-8.73c-1.91-3.16-3.39-6.56-4.4-10.11l-10.02-2.08l-0.29-16.92
		l9.93-2.43c0.88-3.59,2.24-7.04,4.04-10.26l-5.6-8.55l11.79-12.17l8.75,5.29H394.45z M403.45,293.13
		c-6.97,7.21-6.78,18.71,0.43,25.68s18.71,6.78,25.68-0.43s6.78-18.71-0.43-25.68c0,0-0.01-0.01-0.01-0.01
		C421.91,285.73,410.42,285.93,403.45,293.13z"/>
	<path class="st0" d="M364.41,368.1c1.89-1.15,3.93-2.04,6.06-2.64l1.25-5.99l10.11-0.18l1.47,5.94c2.14,0.52,4.21,1.32,6.14,2.38
		l5.11-3.26l7.3,7.02l-3.26,5.24c1.15,1.89,2.03,3.92,2.62,6.04l5.99,1.25l0.18,10.13l-5.94,1.45c-0.53,2.15-1.34,4.21-2.41,6.14
		l3.44,5.07l-6.95,7.3l-5.23-3.26c-1.93,1.18-4,2.09-6.17,2.72l-1.25,5.99l-10.11,0.16l-1.47-5.94c-2.15-0.53-4.21-1.34-6.14-2.41
		l-5.11,3.35l-7.28-7.04l3.16-5.23c-1.14-1.89-2.02-3.93-2.62-6.06l-5.99-1.24l-0.18-10.13l5.94-1.47c0.54-2.12,1.36-4.17,2.44-6.07
		l-3.35-5.11l7.04-7.28l5.23,3.26L364.41,368.1z M369.82,381.58c-4.17,4.32-4.04,11.19,0.27,15.36c4.32,4.17,11.19,4.04,15.36-0.27
		c4.17-4.32,4.04-11.19-0.27-15.36c0,0,0,0,0,0C380.86,377.14,373.99,377.27,369.82,381.58z"/>
	<path class="st0" d="M369.82,381.58c0.57-0.7,1.25-1.3,2.02-1.78c2.1-1.35,4.61-1.93,7.08-1.63c1.73,0.15,3.41,0.71,4.89,1.63
		c1.66,1.09,3.01,2.6,3.89,4.38c0.48,0.96,0.82,2,0.99,3.06c0.16,1.08,0.16,2.18,0,3.26c-0.58,4.9-4.32,8.84-9.19,9.67
		c-1.08,0.17-2.18,0.17-3.26,0c-1.06-0.14-2.1-0.43-3.08-0.88c-3.45-1.55-5.87-4.76-6.4-8.5c-0.37-2.47,0.13-4.99,1.42-7.13
		C368.62,382.89,369.17,382.18,369.82,381.58c-0.54,0.7-1.04,1.44-1.5,2.2c-1.16,2.12-1.58,4.57-1.21,6.95
		c0.57,3.56,2.91,6.58,6.21,8.03c0.93,0.43,1.92,0.7,2.93,0.81c1.05,0.17,2.11,0.17,3.16,0c2.21-0.38,4.25-1.46,5.81-3.06
		c1.56-1.62,2.56-3.69,2.85-5.91c0.17-1.05,0.17-2.11,0-3.16c-0.15-1.01-0.47-1.99-0.93-2.9c-1.56-3.25-4.66-5.48-8.24-5.91
		c-2.4-0.31-4.83,0.19-6.91,1.43C371.25,380.53,370.52,381.04,369.82,381.58z"/>
	<path class="st0" d="M364.41,368.08c-0.11-0.04-0.22-0.1-0.33-0.16l-1.01-0.59l-3.94-2.33h0.13l-7,7.33v-0.2l3.39,5.1v0.1v0.1
		c-1.06,1.92-1.86,3.96-2.38,6.09v0.13h-0.11l-5.94,1.47l0.16-0.21c0,3.26,0.13,6.51,0.21,10.11l-0.2-0.23l5.99,1.24h0.15v0.15
		c0.6,2.1,1.47,4.11,2.61,5.98l0.1,0.15l-0.1,0.15l-3.16,5.23v-0.34l7.3,7.02h-0.36l5.11-3.35l0.15-0.1l0.16,0.08
		c1.91,1.06,3.95,1.86,6.07,2.38h0.16v0.18l1.47,5.94l-0.31-0.23l10.13-0.18l-0.29,0.24l1.24-5.99v-0.2h0.18
		c2.09-0.59,4.1-1.46,5.96-2.59l0,0l0.16-0.1l0.16,0.1l5.23,3.18h-0.39l7.04-7.3v0.39l-3.29-5l-0.1-0.16l0.08-0.16
		c1.07-1.9,1.87-3.94,2.39-6.06v-0.18h0.18l5.99-1.58l-0.23,0.29c0-3.45-0.11-6.84-0.16-10.13l0.23,0.28l-5.99-1.25h-0.16v-0.16
		c-0.59-2.1-1.46-4.12-2.59-5.99v-0.13v-0.15l3.26-5.23v0.33l-7.28-7.05h0.29l-5.11,3.26h-0.11h-0.13
		c-1.91-1.07-3.95-1.88-6.07-2.41h-0.13v-0.11c-0.52-2.17-0.99-4.1-1.45-5.94l0.2,0.13l-10.13,0.15l0.13-0.11
		c-0.5,2.38-0.93,4.35-1.29,5.98l0,0l0,0c-1.59,0.45-3.14,1.04-4.63,1.78l-1.09,0.57c-0.12,0.08-0.24,0.14-0.37,0.18l0.34-0.23
		l1.07-0.6c1.46-0.79,3.01-1.43,4.61-1.89l0,0c0.33-1.63,0.73-3.62,1.21-6.01v-0.1h0.11l10.11-0.21h0.15v0.13l1.48,5.94l-0.15-0.15
		c2.17,0.52,4.25,1.34,6.21,2.41h-0.39l5.1-3.37l0.16-0.1l0.13,0.13l7.31,7.26l0.15,0.15l-0.11,0.18l-3.16,5.23v-0.28
		c1.15,1.92,2.05,3.98,2.67,6.12l-0.21-0.2l5.99,1.24h0.23v0.31c0.07,3.26,0.12,6.63,0.18,10.11v0.24h-0.23l-5.94,1.47l0.21-0.21
		c-0.53,2.17-1.35,4.26-2.44,6.21v-0.31l3.35,5.11l0.13,0.21l-0.18,0.18l-7.02,7.28l-0.18,0.18l-0.21-0.13l-5.23-3.18h0.31
		c-1.91,1.16-3.97,2.05-6.12,2.65l0.23-0.23c-0.44,2.05-0.86,4.09-1.25,5.98v0.24h-0.24l-10.13,0.16h-0.24v-0.23
		c-0.49-2.05-0.99-4.09-1.45-5.94l0.23,0.21c-2.17-0.53-4.27-1.36-6.22-2.44h0.31l-5.21,3.37l-0.2,0.13l-0.18-0.16l-7.26-7.05
		l-0.16-0.15l0.11-0.2c1.11-1.81,2.2-3.6,3.26-5.23v0.28c-1.15-1.91-2.04-3.97-2.64-6.12l0.18,0.2l-6.06-1.24h-0.2v-0.2
		c0-3.55-0.11-6.94-0.16-10.13v-0.18h0.18l5.94-1.45l-0.15,0.15c0.54-2.15,1.36-4.23,2.44-6.17v0.07l-3.34-5.13v-0.1v-0.1l7.08-7.25
		l0,0l0,0l3.86,2.39l0.99,0.62L364.41,368.08z"/>
	<polygon class="st2" points="940.88,347.85 941.08,321.13 966.86,327.37 	"/>
	
		<rect x="963.25" y="328.34" transform="matrix(0.7853 -0.6191 0.6191 0.7853 -13.721 678.0358)" class="st2" width="15.06" height="60.93"/>
	<polygon class="st0" points="907.18,413.31 910.8,359.21 962.26,374.92 	"/>
	
		<rect x="951.19" y="377.24" transform="matrix(0.8205 -0.5717 0.5717 0.8205 -77.4938 631.3876)" class="st0" width="30.59" height="123.66"/>
</g>
<g id="freepik--Floor--inject-400">
	<path class="st3" d="M1038.32,742.97c0,0.23-159.12,0.42-355.35,0.42s-355.4-0.2-355.4-0.42s159.08-0.42,355.4-0.42
		S1038.32,742.75,1038.32,742.97z"/>
</g>
<g id="freepik--Plant--inject-400">
	<path class="st4" d="M863.21,672.44c3.4,1.28,6.13,3.89,7.56,7.23c1.4,3.32,2.03,6.91,1.82,10.5c-0.21,6.94-3.52,14.2-7.26,20.05
		c-6.21-4.56-8.29-13.26-9.06-17.74C855.05,685.42,857.12,671.88,863.21,672.44"/>
	<path class="st4" d="M873.02,721.02c-1.14-3.93-0.09-8.17,2.75-11.11c2.87-2.86,6.78-4.45,10.83-4.41
		c1.87-0.18,3.73,0.47,5.07,1.79c1.03,1.42,1.22,3.29,0.49,4.89c-0.75,1.57-1.9,2.92-3.34,3.91c-4.74,3.57-9.98,6.14-15.8,4.89"/>
	<path class="st3" d="M867.38,742.68c-0.04-0.48-0.04-0.96,0-1.43c0.1-1.01,0.23-2.31,0.37-3.88c0.29-4.3,1.28-8.52,2.92-12.51
		c1.71-3.99,4.46-7.45,7.95-10.03c1.07-0.76,2.22-1.39,3.44-1.89c0.42-0.18,0.78-0.26,1.01-0.34l0.36-0.08
		c-1.61,0.71-3.15,1.58-4.59,2.59c-3.36,2.62-6.01,6.04-7.7,9.95c-1.61,3.95-2.63,8.11-3.01,12.36c-0.21,1.63-0.39,2.95-0.54,3.86
		C867.55,741.75,867.49,742.22,867.38,742.68z"/>
	<path class="st3" d="M862.54,682.89c0.07,0.19,0.1,0.4,0.11,0.6c0,0.46,0.16,1.04,0.26,1.76c0.21,1.53,0.49,3.75,0.81,6.51
		c0.64,5.49,1.43,13.03,2.1,21.48c0.67,8.45,1.11,16.04,1.35,21.56c0.11,2.75,0.2,5,0.23,6.51c0,0.73,0,1.32,0,1.79
		c0,0.47,0,0.62,0,0.62c-0.02-0.21-0.02-0.41,0-0.62c0-0.46,0-1.04-0.13-1.78c-0.1-1.63-0.23-3.83-0.39-6.51
		c-0.33-5.52-0.83-13.13-1.5-21.53c-0.67-8.4-1.4-15.99-1.95-21.5c-0.26-2.7-0.49-4.89-0.65-6.51l-0.16-1.78
		C862.57,683.31,862.55,683.1,862.54,682.89z"/>
	<path class="st4" d="M863.36,726.02c-2.13-8.32-8.14-15.11-16.14-18.24c-2.02-0.75-4.59-1.14-6.06,0.42c-1.47,1.56-0.9,4.14,0,6.06
		c4.2,8.18,12.9,13.05,22.07,12.33"/>
	<path class="st3" d="M848.7,714.23c0.44,0.1,0.86,0.24,1.27,0.42c0.5,0.18,0.98,0.38,1.45,0.62c0.63,0.29,1.25,0.61,1.86,0.96
		c0.74,0.41,1.46,0.86,2.15,1.35c0.81,0.54,1.58,1.14,2.31,1.78c3.42,2.9,6.07,6.59,7.74,10.75c0.36,0.91,0.66,1.83,0.91,2.77
		c0.24,0.81,0.43,1.64,0.57,2.48c0.13,0.69,0.21,1.39,0.26,2.08c0.07,0.54,0.1,1.08,0.1,1.63c0.04,0.45,0.04,0.9,0,1.35
		c-0.11,0-0.08-1.92-0.68-4.89c-0.16-0.75-0.33-1.63-0.6-2.43c-0.27-0.92-0.58-1.82-0.94-2.7c-1.69-4.07-4.29-7.69-7.61-10.59
		c-0.78-0.65-1.51-1.27-2.26-1.78c-0.67-0.5-1.37-0.96-2.08-1.38C850.46,714.96,848.65,714.33,848.7,714.23z"/>
</g>
<g id="freepik--speech-bubble--inject-400">
	<path class="st5" d="M879.3,283.16l19.04-10.8c23.99,14.79,55.42,7.33,70.21-16.66c14.79-23.99,7.33-55.42-16.66-70.21
		c-23.99-14.79-55.42-7.33-70.21,16.66c-11.15,18.09-9.92,41.19,3.08,58l0,0L879.3,283.16z"/>
	<path class="st3" d="M879.3,283.16c0.34-1.45,1.94-8.53,5.23-23.08v-0.33l0.26,0.21l0,0l-0.29,0.29
		c-5.55-7.08-9.12-15.51-10.34-24.43c-0.39-2.7-0.53-5.42-0.42-8.14c0.08-1.4,0.11-2.82,0.24-4.23s0.42-2.87,0.64-4.32
		c2.53-12.85,9.85-24.25,20.47-31.9c5.88-4.25,12.6-7.19,19.71-8.63c7.55-1.48,15.34-1.27,22.8,0.6
		c7.77,1.93,14.96,5.68,20.99,10.94c6.18,5.35,10.99,12.09,14.04,19.67c2.87,7.24,4.07,15.03,3.52,22.8
		c-0.51,7.37-2.63,14.53-6.21,20.99c-6.43,11.66-17.1,20.4-29.8,24.41c-5.39,1.58-10.98,2.32-16.6,2.21
		c-8.96-0.27-17.68-2.9-25.29-7.64h0.2l-19.14,10.62l18.94-10.98h0.1h0.11c7.58,4.62,16.23,7.17,25.1,7.41
		c5.54,0.07,11.07-0.69,16.38-2.26c12.47-3.95,22.96-12.52,29.32-23.96c3.52-6.37,5.59-13.43,6.07-20.68
		c0.54-7.67-0.65-15.36-3.49-22.51c-3-7.46-7.74-14.09-13.81-19.35c-5.93-5.17-13.01-8.86-20.65-10.77
		c-7.31-1.85-14.94-2.05-22.34-0.6c-7,1.4-13.62,4.28-19.41,8.45c-10.49,7.53-17.72,18.76-20.24,31.42
		c-0.23,1.43-0.44,2.85-0.67,4.25s-0.16,2.8-0.24,4.19c-0.11,2.67,0.02,5.34,0.37,7.98c1.17,8.84,4.65,17.21,10.08,24.28l1.01,1.3
		l-1.3-1.01l0,0l0.33-0.11L879.3,283.16z"/>
	<path class="st6" d="M916.68,224.29h2.98l6.51-9.06v-5.93c0,0,4.61-0.29,4.06,7.49s0,5.81,0,5.81s9.77,0,10.59,0.88
		s0.86,10.33,0.96,15.6c0.13,2.61-1.53,4.98-4.04,5.73c-0.34,0.1-0.69,0.15-1.04,0.15c-2.44,0-14.9-1.99-14.9-1.99h-5.11V224.29z"/>
	<polygon class="st6" points="908.18,222.68 910.02,243.05 915.12,243.05 915.12,223.09 	"/>
</g>
<g id="freepik--Characters--inject-400">
	<path class="st6" d="M506.67,314.13l-24.43,8.96l-12.88,27.13c-0.6,5.6-14.66,62.16-14.66,62.16l-14.09,50.34
		c26.97,12.33,62.73,29.92,98.55,28.5l4.56-43.19l24.56-93.86l-18.75-37.23l-6.42-0.86L506.67,314.13z"/>
	<path class="st4" d="M393.04,682.15l-18.42,24.01c0,0,18.24,26.77,15.26,31.55l-47.83-34.01l27.13-38.6L393.04,682.15z"/>
	<g class="st7">
		<path class="st5" d="M361.32,693.56c-1.16-0.39-2.43,0.16-2.95,1.27c-0.41,1.15,0.12,2.43,1.24,2.93c1.23,0.4,2.57-0.19,3.09-1.37
			c0.33-1.25-0.39-2.53-1.63-2.9"/>
	</g>
	<g class="st7">
		<path class="st5" d="M342.05,703.69l2.88-3.84l44.79,34.04c0,0,1.48,2.44,0.16,3.76L342.05,703.69z"/>
	</g>
	<path class="st3" d="M375.59,706.46c-0.18,0.23-1.42-0.49-3.11-0.55c-1.69-0.07-2.98,0.47-3.14,0.23s1.16-1.35,3.26-1.22
		C374.69,705.04,375.78,706.36,375.59,706.46z"/>
	<path class="st3" d="M379.12,712.11c-0.1,0.26-1.4,0-2.9,0.36c-1.5,0.36-2.46,1.3-2.69,1.14c-0.23-0.16,0.57-1.63,2.43-2.1
		C377.82,711.04,379.23,711.88,379.12,712.11z"/>
	<path class="st3" d="M377.7,720.14c-0.24-0.1,0.26-1.5,1.78-2.35c1.51-0.85,2.96-0.59,2.92-0.33c-0.05,0.26-1.21,0.47-2.43,1.19
		C378.75,719.38,377.95,720.29,377.7,720.14z"/>
	<path class="st3" d="M379.23,700.53c-0.24,0.13-1.09-0.94-2.48-1.79c-1.38-0.85-2.7-1.17-2.69-1.45c0.02-0.28,1.63-0.42,3.26,0.6
		C378.96,698.92,379.41,700.42,379.23,700.53z"/>
	<g class="st8">
		<polygon points="384.67,693.76 381.4,698.04 358.03,681.1 360.81,677.13 		"/>
	</g>
	<path class="st3" d="M382.8,695.61c0,0.1-1.11-0.41-2.39-1.63c-0.75-0.77-1.41-1.63-1.95-2.56c-0.32-0.52-0.61-1.07-0.86-1.63
		c-0.16-0.34-0.27-0.7-0.33-1.07c-0.07-0.57,0.25-1.11,0.78-1.32c0.47-0.15,0.99-0.08,1.4,0.2c0.31,0.21,0.59,0.47,0.81,0.77
		c1.09,1.27,1.86,2.78,2.23,4.41c0.3,0.96,0.3,1.99,0,2.95c-0.16,0-0.18-1.11-0.72-2.75c-0.47-1.53-1.27-2.95-2.35-4.14
		c-0.41-0.49-0.85-0.8-1.14-0.67c-0.29,0.13-0.13,0.08-0.13,0.31c0.04,0.27,0.12,0.54,0.24,0.78c0.21,0.56,0.46,1.1,0.75,1.63
		c0.47,0.89,1.01,1.74,1.63,2.54C382.04,694.78,382.88,695.48,382.8,695.61z"/>
	<path class="st3" d="M382.25,695.73c0.05-1,0.4-1.96,1.01-2.75c0.59-0.92,1.33-1.73,2.2-2.39c0.51-0.39,1.05-0.74,1.63-1.03
		c0.72-0.46,1.63-0.51,2.39-0.13c0.43,0.32,0.63,0.86,0.52,1.38c-0.08,0.37-0.2,0.72-0.37,1.06c-0.81,1.58-2.2,2.78-3.88,3.35
		c-0.94,0.39-2,0.39-2.95,0c0.91-0.2,1.82-0.44,2.7-0.73c0.9-0.4,1.7-0.98,2.36-1.71c0.37-0.43,0.69-0.91,0.94-1.42
		c0.28-0.57,0.37-1.11,0.16-1.19c-0.47-0.16-0.99-0.09-1.4,0.18c-0.53,0.25-1.04,0.54-1.51,0.88c-0.84,0.58-1.59,1.29-2.21,2.1
		C382.77,694.73,382.49,695.79,382.25,695.73z"/>
	<path class="st4" d="M538.56,698.22l-10.6,26.68c0,0,30.46,11.03,30.85,16.63L500.18,742l9.15-43.63L538.56,698.22z"/>
	<g class="st7">
		<path class="st5" d="M509.78,722.55c-1.16,0.38-1.85,1.56-1.63,2.75c0.34,1.17,1.53,1.88,2.72,1.63c1.24-0.38,1.98-1.65,1.71-2.92
			c-0.47-1.22-1.84-1.83-3.06-1.37"/>
	</g>
	<g class="st7">
		<path class="st5" d="M500.09,742.05l0.99-4.74l55.37,1.3c0,0,2.62,1.12,2.35,2.96L500.09,742.05z"/>
	</g>
	<path class="st3" d="M528.9,724.65c0,0.28-1.45,0.42-2.85,1.35s-2.13,2.15-2.41,2.04c-0.28-0.11,0.16-1.78,1.87-2.87
		S528.95,724.38,528.9,724.65z"/>
	<path class="st3" d="M535.08,727.14c0,0.28-1.17,0.78-2.13,1.99s-1.24,2.51-1.51,2.51c-0.28,0-0.49-1.63,0.75-3.13
		S535.08,726.87,535.08,727.14z"/>
	<path class="st3" d="M538.63,734.49c-0.26,0-0.67-1.37,0-2.95c0.67-1.58,2.05-2.21,2.18-1.97c0.13,0.24-0.7,1.07-1.27,2.38
		C538.97,733.25,538.92,734.46,538.63,734.49z"/>
	<path class="st3" d="M531.17,719.2c-0.11,0.26-1.43-0.11-3.06,0c-1.63,0.11-2.87,0.65-3.03,0.41c-0.16-0.24,1.06-1.29,2.96-1.4
		C529.95,718.09,531.3,718.97,531.17,719.2z"/>
	<path class="st3" d="M531.72,715.69c-0.96,0.26-1.97,0.26-2.93,0c-1.06-0.18-2.09-0.49-3.08-0.91c-0.59-0.25-1.16-0.55-1.71-0.9
		c-0.33-0.18-0.63-0.41-0.88-0.68c-0.39-0.41-0.45-1.04-0.15-1.51c0.29-0.4,0.76-0.65,1.25-0.67c0.37-0.01,0.74,0.04,1.09,0.15
		c0.63,0.14,1.25,0.34,1.84,0.6c0.99,0.44,1.91,1.04,2.72,1.76c1.38,1.25,1.86,2.33,1.76,2.38c-0.1,0.05-0.8-0.8-2.2-1.82
		c-0.81-0.59-1.7-1.08-2.64-1.45c-0.53-0.22-1.07-0.39-1.63-0.52c-0.62-0.15-1.14-0.15-1.3,0.13c-0.16,0.28,0,0.15,0,0.33
		c0.2,0.19,0.41,0.36,0.65,0.5c0.53,0.32,1.07,0.61,1.63,0.86c0.91,0.45,1.87,0.81,2.85,1.07
		C529.93,715.17,530.83,715.4,531.72,715.69z"/>
	<path class="st3" d="M531.66,715.69c-0.57-0.83-0.85-1.83-0.8-2.83c-0.07-1.1,0.06-2.2,0.37-3.26c0.18-0.62,0.43-1.22,0.73-1.79
		c0.31-0.79,1.02-1.36,1.86-1.5c0.54,0,1.02,0.32,1.24,0.81c0.16,0.34,0.26,0.7,0.31,1.07c0.11,0.65,0.11,1.32,0,1.97
		c-0.14,1.1-0.56,2.15-1.22,3.05c-1.14,1.53-2.33,1.89-2.36,1.79s0.9-0.7,1.78-2.17c0.5-0.85,0.8-1.79,0.9-2.77
		c0.09-0.57,0.09-1.14,0-1.71c-0.1-0.62-0.33-1.12-0.57-1.06c-0.24,0.07-0.78,0.47-1.01,0.98c-0.3,0.52-0.54,1.06-0.72,1.63
		c-0.32,0.95-0.51,1.93-0.55,2.93C531.49,714.51,531.8,715.65,531.66,715.69z"/>
	<path class="st9" d="M607.24,217.24l-9.02,61.35l-41.35,39.64l15.33,26.4l46.92-43.79c3.54-2.69,6.03-6.53,7.04-10.86v-63.47
		l-0.31-20.65L607.24,217.24z"/>
	<path class="st3" d="M441.71,457.95c-1.21,2.49-23.39,117.75-23.39,117.75l-62.07,100.97l32.26,23.5l76.69-99.95l41.92-127.03
		L441.71,457.95z"/>
	<path class="st3" d="M525.99,469.94c1.81,1.21,49.3,100.29,48.7,107.49s-36.4,139.49-36.4,139.49l-36.46-6.71l22.59-129.04
		l-42.85-60.16l13.99-54.74L525.99,469.94z"/>
	<polygon class="st6" points="575.73,296.36 552.19,315.9 547.8,316.6 565.52,355.74 598.19,329.37 	"/>
	<path class="st6" d="M506.67,314.13l-24.43,8.96l-12.88,27.13c-0.6,5.6-14.66,62.16-14.66,62.16l-14.09,50.34
		c26.97,12.33,62.73,29.92,98.55,28.5l4.56-43.19l24.79-94.7l-18.97-36.38l-6.42-0.86L506.67,314.13z"/>
	<path class="st9" d="M542.54,321.52c0.59-4.53,1.09-8.29,1.17-8.75c0,0,15.47,0.57,18.55-14.41c1.5-7.25,3.35-22.39,4.89-36.14
		c1.62-14.75-8.35-28.27-22.91-31.09l-1.45-0.28c-15.8-2.1-26.42,10.13-28.09,25.98l-7.59,57.86c0,0,14.66,13.03,23.18,17.28
		C541.3,337.4,542.54,321.52,542.54,321.52z"/>
	<path class="st10" d="M543.72,312.56c-6.96-1.22-13.4-4.47-18.5-9.35c0,0,2.54,11.69,17.78,13.24L543.72,312.56z"/>
	<path class="st3" d="M563.45,269.27c-0.31,0.26-2.35-0.62-5.16-0.42c-2.82,0.2-4.89,1.32-5.18,1.11s0.16-0.55,1.06-1.07
		c1.27-0.7,2.68-1.1,4.12-1.17c1.4-0.12,2.82,0.1,4.12,0.64C563.27,268.75,563.61,269.16,563.45,269.27z"/>
	<path class="st3" d="M539.83,267.29c-0.39,0.1-1.82-1.63-4.43-2.64c-2.61-1.01-4.89-0.98-5.1-1.32c-0.21-0.34,0.37-0.41,1.4-0.47
		c1.44-0.05,2.87,0.22,4.2,0.78c1.3,0.52,2.47,1.33,3.4,2.38C539.93,266.76,540.03,267.25,539.83,267.29z"/>
	<path class="st3" d="M538.42,271.18c-0.14,0.89-0.97,1.5-1.86,1.36c-0.02,0-0.04-0.01-0.07-0.01c-0.89-0.11-1.53-0.92-1.42-1.81
		c0,0,0-0.01,0-0.01c0.14-0.89,0.97-1.5,1.86-1.36c0.02,0,0.04,0.01,0.07,0.01C537.89,269.46,538.53,270.28,538.42,271.18
		C538.42,271.17,538.42,271.18,538.42,271.18z"/>
	<path class="st3" d="M561.17,275.25c-0.13,0.89-0.95,1.51-1.84,1.38c-0.03,0-0.05-0.01-0.08-0.01c-0.89-0.11-1.53-0.92-1.42-1.81
		c0,0,0-0.01,0-0.01c0.13-0.89,0.95-1.51,1.84-1.38c0.03,0,0.05,0.01,0.08,0.01C560.64,273.54,561.28,274.35,561.17,275.25
		C561.17,275.24,561.17,275.25,561.17,275.25z"/>
	<path class="st3" d="M544.8,283.75c1.29-0.17,2.59-0.17,3.88,0c0.6,0,1.17,0,1.35-0.34c0.19-0.59,0.19-1.23,0-1.82
		c-0.28-1.53-0.57-3.14-0.88-4.89c-1.19-6.86-1.92-12.44-1.63-12.49s1.47,5.47,2.64,12.33c0.29,1.63,0.55,3.26,0.8,4.89
		c0.24,0.78,0.19,1.63-0.13,2.38c-0.26,0.38-0.68,0.63-1.14,0.67c-0.34,0.04-0.69,0.04-1.03,0
		C547.35,284.4,546.05,284.16,544.8,283.75z"/>
	<path class="st3" d="M540.58,255.71c-0.31,0.52-2.28-0.13-4.72-0.29c-2.44-0.16-4.51,0.13-4.74-0.44c0-0.28,0.36-0.75,1.24-1.16
		c1.16-0.49,2.43-0.68,3.68-0.57c1.25,0.09,2.46,0.47,3.53,1.12C540.37,254.91,540.73,255.45,540.58,255.71z"/>
	<path class="st3" d="M564.1,263.25c-0.31,0.44-2.23-0.31-4.63-0.67c-2.39-0.36-4.41-0.29-4.61-0.8c-0.08-0.24,0.36-0.6,1.24-0.86
		c1.18-0.32,2.41-0.38,3.62-0.18c1.22,0.19,2.38,0.63,3.42,1.29C563.92,262.56,564.25,263.05,564.1,263.25z"/>
	<path class="st9" d="M513.77,268.26c-0.24-0.16-9.77-5.05-11.4,5.28c-1.63,10.33,9.06,9.85,9.12,9.56
		C511.56,282.81,513.77,268.26,513.77,268.26z"/>
	<path class="st10" d="M508.99,278.62c0,0-0.21,0.1-0.54,0.2c-0.46,0.11-0.94,0.04-1.35-0.2c-1.22-1.08-1.76-2.74-1.42-4.33
		c0.12-0.89,0.44-1.74,0.93-2.49c0.31-0.64,0.92-1.08,1.63-1.16c0.45-0.06,0.88,0.23,0.99,0.67c0.08,0.31,0,0.5,0,0.52
		s0.26-0.13,0.24-0.57c-0.02-0.27-0.13-0.52-0.31-0.72c-0.24-0.26-0.59-0.42-0.94-0.42c-0.89,0.04-1.7,0.53-2.13,1.3
		c-0.59,0.82-0.97,1.78-1.09,2.78c-0.41,1.86,0.35,3.79,1.91,4.89c0.52,0.24,1.11,0.24,1.63,0
		C508.92,278.87,509.02,278.65,508.99,278.62z"/>
	<path class="st3" d="M541.49,290.64c0.15-0.24-1.82-1.09-3.01-3.26c-0.5-0.9-0.88-1.87-1.12-2.88c-0.21-0.78-0.39-1.29-0.5-1.25
		c-0.11,0.03-0.15,0.52,0,1.37c0.07,1.15,0.41,2.26,0.98,3.26c0.57,0.99,1.41,1.8,2.41,2.35
		C540.92,290.64,541.46,290.72,541.49,290.64z"/>
	<path class="st3" d="M588.84,251.03c-0.09-0.65-0.45-1.24-0.98-1.63c-1.15-0.68-2.46-1.05-3.79-1.07
		c-4.03-0.56-7.82-2.22-10.96-4.8c-1.32-2.47-2.84-4.83-4.54-7.05c-4.02-5.28-7.41-8.94-11.12-10.98
		c-5.75-2.89-12.18-4.15-18.6-3.65c-5.42,0.75-10.65,4.46-12.04,9.77c-2.65-2.85-7.08-3.35-10.85-2.33h-0.1
		c-4.17,0.94-6.94,4.89-8.62,8.86c-1.68,3.97-2.69,8.24-5.28,11.64c-0.55,0.72-1.19,1.63-0.9,2.41c0.28,0.64,0.93,1.03,1.63,0.98
		c0.69-0.06,1.37-0.27,1.97-0.62c-0.57,1.03-1.16,2.04-1.73,3.05c1.43,0.42,2.93,0.5,4.4,0.23c0.32,3.73,0.86,7.44,1.63,11.11
		c1.53,0.02,2.99,0.6,4.12,1.63c1.25,1.43,1.63,3.88,4.04,3.26c1.24-0.33,2.62-2.69,3.16-3.84c3.61-7.78,5.49-16.25,5.52-24.82
		c1.87-1.58,4.04-2.78,6.37-3.53l-0.21,0.13c4.41-0.96,9.36-1.84,13.14,0.62c2.93,1.91,4.38,5.36,6.4,8.14
		c3.78,5.29,9.56,8.82,15.99,9.77c-0.28,4.28-1.35,10.26-1.63,14.54l4.4-6.4l0,0c0.34-0.47,0.65-0.94,0.94-1.42l0.1-0.15l0,0
		c0.47-0.77,0.93-1.63,1.5-2.3l0,0c1.04,1.06,2.74,1.07,3.8,0.03c0.83-0.82,1.04-2.08,0.52-3.13c-0.3-0.54-0.69-1.03-1.14-1.45
		c0.94,1.15,2.42,1.72,3.89,1.51c1.49-0.25,2.62-1.49,2.72-3c0-1.01-0.53-1.93-1.4-2.44c1.86,0.36,3.79,0.17,5.54-0.55
		C587.88,253.28,589.05,252.42,588.84,251.03z"/>
	<path class="st4" d="M531.36,233.92c-0.57,0.37-1.12,0.77-1.63,1.22c-1.37,1.3-2.37,2.93-2.92,4.74c-0.41,1.24-0.69,2.52-0.85,3.81
		c-0.18,1.38-0.24,2.9-0.31,4.48c-0.06,1.67-0.23,3.33-0.49,4.98c-0.15,0.87-0.37,1.73-0.65,2.57c-0.24,0.91-0.71,1.74-1.37,2.41
		c-0.6,0.54-1.45,0.72-2.21,0.47c-0.73-0.23-1.36-0.69-1.79-1.32c-0.69-1.23-1.04-2.62-1.01-4.02l0.31,0.08
		c-0.59,1.09-1.34,2.08-2.21,2.95c-0.84,0.81-1.96,1.26-3.13,1.25c-0.54-0.01-1.07-0.16-1.53-0.46c-0.42-0.29-0.75-0.7-0.94-1.17
		c-0.17-0.44-0.22-0.92-0.16-1.38c0.07-0.43,0.3-0.82,0.64-1.11l0.15,0.16c-1.02,0.93-2.24,1.63-3.55,2.05
		c-0.34,0.11-0.69,0.19-1.04,0.26c-0.12,0.02-0.25,0.02-0.37,0l0.36-0.1c0.23,0,0.59-0.16,1.03-0.33c1.27-0.46,2.44-1.18,3.44-2.1
		l0.15,0.16c-0.59,0.59-0.74,1.48-0.37,2.23c0.17,0.42,0.47,0.79,0.85,1.04c0.42,0.26,0.9,0.39,1.38,0.39
		c1.09-0.01,2.13-0.43,2.92-1.19c0.85-0.86,1.57-1.84,2.15-2.9l0.28-0.46v0.54c-0.02,1.34,0.3,2.67,0.94,3.84
		c0.4,0.56,0.97,0.97,1.63,1.17c0.66,0.2,1.37,0.06,1.89-0.39c0.61-0.64,1.04-1.42,1.27-2.26c0.27-0.82,0.49-1.67,0.64-2.52
		c0.27-1.62,0.43-3.25,0.49-4.89c0.1-1.63,0.18-3.09,0.36-4.51c0.17-1.31,0.47-2.6,0.9-3.84c0.58-1.83,1.64-3.48,3.06-4.77
		C530.14,234.56,530.73,234.19,531.36,233.92z"/>
	<path class="st4" d="M576.44,254.21h-0.13l-0.41,0.23c-0.22,0.14-0.46,0.25-0.7,0.34c-0.32,0.14-0.64,0.27-0.98,0.37
		c-2.14,0.68-4.41,0.82-6.61,0.39c-3.28-0.61-6.31-2.15-8.73-4.45c-2.91-2.83-5.22-6.23-6.78-9.98c-0.9-1.95-1.63-3.94-2.35-5.8
		c-0.71-1.8-1.66-3.48-2.83-5.02c-1.07-1.37-2.46-2.46-4.06-3.16c-0.72-0.3-1.48-0.48-2.26-0.54c-0.72-0.05-1.44,0.01-2.15,0.16
		c-1.22,0.26-2.38,0.78-3.39,1.51c-0.76,0.56-1.43,1.24-1.97,2.02c-0.43,0.68-0.78,1.42-1.04,2.18c0,0,0,0,0-0.16l0.11-0.46
		c0.2-0.57,0.47-1.11,0.78-1.63c0.54-0.8,1.2-1.51,1.97-2.1c1.61-1.26,3.62-1.9,5.67-1.79c0.81,0.05,1.61,0.23,2.36,0.54
		c1.65,0.71,3.09,1.83,4.19,3.26c1.21,1.54,2.19,3.26,2.92,5.08c0.78,1.86,1.47,3.84,2.35,5.78c1.53,3.71,3.8,7.07,6.66,9.89
		c2.37,2.27,5.34,3.82,8.57,4.45c2.16,0.43,4.4,0.34,6.51-0.28C575.68,254.63,576.43,254.16,576.44,254.21z"/>
	<path class="st4" d="M578.61,247.71c0,0-0.2,0.15-0.59,0.33c-0.53,0.25-1.07,0.45-1.63,0.62c-0.87,0.25-1.76,0.43-2.65,0.54
		c-1.08,0.09-2.17,0.09-3.26,0c-1.1-0.11-2.19-0.32-3.26-0.62c-0.87-0.25-1.71-0.58-2.52-0.98c-0.57-0.26-1.11-0.56-1.63-0.91
		c-0.19-0.11-0.37-0.25-0.52-0.41c0,0,0.81,0.47,2.2,1.09c0.81,0.36,1.64,0.66,2.49,0.9c1.07,0.27,2.16,0.46,3.26,0.57
		c1.08,0.09,2.17,0.09,3.26,0c0.88-0.09,1.76-0.24,2.62-0.46C577.73,248.04,578.59,247.66,578.61,247.71z"/>
	<path class="st11" d="M475.78,363.57c0,0,20.44,29.59,35.11,29.32h5.15l2.44-4.4c0,0,32.57,6.51,39.8,3.94l-40.29-14.95l-7.75,4.51
		L475.78,363.57z"/>
	<path class="st9" d="M500.94,377.12c0,0,73.29,21.35,81.92,19.36s62.16-44.88,62.16-44.88l-12.08-14.54l-55.29,30.55l-66.35-21.06
		L500.94,377.12z"/>
	<path class="st6" d="M482.54,322.97c0,0-12.25,2.7-14.06,22.8c-2.15,24.02,45.29,42.82,45.29,42.82l23.44-39.18L482.54,322.97z"/>
	<path class="st3" d="M507.9,338.64c0.19,0.04,0.37,0.11,0.54,0.2l1.48,0.67l5.59,2.62l19.89,9.54l0.36,0.16l-0.2,0.34
		c-4.63,8.01-10.1,17.49-15.96,27.69l-5.18,8.92l-0.18,0.29l-0.33-0.11c-6.53-2.18-12.83-5.02-18.79-8.47
		c-4.76-2.81-9.18-6.17-13.16-10c-3.63-3.42-6.9-7.19-9.77-11.27c0.26,0.22,0.5,0.47,0.7,0.75l1.91,2.25
		c2.38,2.76,4.91,5.39,7.57,7.88c4.02,3.73,8.43,7.01,13.16,9.77c5.95,3.37,12.21,6.15,18.7,8.31l-0.49,0.2l5.16-8.94
		c5.9-10.1,11.4-19.54,16.06-27.56l0.16,0.5l-19.76-9.77l-5.5-2.8l-1.43-0.77L507.9,338.64z"/>
	<path class="st3" d="M564.9,344.63c-0.24,0.08-2.26-4.89-5.23-10.7c-2.96-5.81-5.72-10.41-5.5-10.54c0.82,0.84,1.53,1.79,2.08,2.82
		c3.04,4.75,5.58,9.8,7.61,15.06C564.34,342.34,564.7,343.47,564.9,344.63z"/>
	<path class="st4" d="M388.48,700.19c0.09-0.18,0.2-0.35,0.33-0.5l1.03-1.42c0.96-1.25,2.3-3.06,4.02-5.37l14.92-19.66l49.49-64.69
		c2.25-2.93,4.46-5.83,6.51-8.55v0.11l23.39-70.42l7.07-20.98c0.83-2.43,1.48-4.32,1.94-5.67l0.54-1.45
		c0.04-0.17,0.11-0.34,0.2-0.49c-0.02,0.17-0.07,0.34-0.13,0.5c-0.11,0.37-0.26,0.86-0.44,1.5c-0.42,1.34-1.03,3.26-1.81,5.7
		c-1.63,5-3.94,12.17-6.82,21.07l-23.16,70.49v0.13l0,0l-6.51,8.57l-49.67,64.53l-15.15,19.54l-4.23,5.24l-1.11,1.35
		C388.76,699.9,388.63,700.05,388.48,700.19z"/>
	<path class="st4" d="M538.17,574.44c-2.28,1.25-4.69,2.25-7.18,2.98c-2.4,1-4.9,1.74-7.46,2.18c2.27-1.27,4.68-2.29,7.17-3.05
		C533.11,575.6,535.61,574.89,538.17,574.44z"/>
	<path class="st4" d="M537.72,584.74c-2.17-0.18-4.3-0.63-6.35-1.35c-2.12-0.46-4.18-1.19-6.11-2.18c2.16,0.18,4.29,0.63,6.34,1.35
		C533.72,583.02,535.78,583.75,537.72,584.74z"/>
	<path class="st3" d="M538.84,440.9c-0.58,0.49-1.21,0.92-1.87,1.29c-1.22,0.81-3.05,1.87-5.36,3.09c-6,3.18-12.31,5.74-18.83,7.64
		c-6.56,1.87-13.29,3.05-20.1,3.52c-2.61,0.18-4.72,0.23-6.19,0.2c-0.76,0.03-1.51-0.01-2.26-0.11c0.75-0.15,1.5-0.22,2.26-0.21
		c1.45,0,3.55-0.21,6.14-0.46c6.74-0.66,13.4-1.92,19.92-3.75c6.5-1.87,12.83-4.32,18.89-7.31c2.35-1.14,4.2-2.12,5.47-2.83
		C537.52,441.54,538.16,441.19,538.84,440.9z"/>
	<path class="st4" d="M780.38,699.21l10.9,26.58c0,0-30.34,11.4-30.68,16.94l58.63-0.15l-9.61-43.52L780.38,699.21z"/>
	<g class="st7">
		<path class="st5" d="M809.42,723.2c1.16,0.37,1.86,1.54,1.63,2.74c-0.33,1.16-1.5,1.87-2.69,1.63c-1.24-0.38-1.99-1.64-1.74-2.92
			c0.45-1.2,1.77-1.82,2.98-1.42"/>
	</g>
	<g class="st7">
		<path class="st5" d="M819.3,742.6l-1.04-4.74l-55.37,1.89c0,0-2.61,1.14-2.31,2.98L819.3,742.6z"/>
	</g>
	<path class="st3" d="M790.31,725.5c0,0.28,1.45,0.41,2.87,1.34c1.42,0.93,2.17,2.12,2.43,2c0.26-0.11-0.16-1.78-1.91-2.85
		C791.96,724.91,790.25,725.24,790.31,725.5z"/>
	<path class="st3" d="M784.17,728.06c0,0.28,1.17,0.77,2.15,1.97c0.98,1.21,1.25,2.49,1.63,2.48c0.37-0.02,0.46-1.63-0.78-3.11
		C785.93,727.91,784.17,727.78,784.17,728.06z"/>
	<path class="st3" d="M780.69,735.43c0.26,0,0.65-1.37-0.08-2.93s-2.08-2.2-2.2-1.95c-0.11,0.24,0.7,1.07,1.29,2.38
		C780.28,734.23,780.41,735.4,780.69,735.43z"/>
	<path class="st3" d="M788.02,720.08c0.11,0.26,1.43-0.13,3.05,0c1.61,0.13,2.88,0.62,3.05,0.37c0.16-0.24-1.07-1.27-2.98-1.37
		S787.86,719.85,788.02,720.08z"/>
	<path class="st3" d="M787.4,716.57c0.96,0.27,1.97,0.27,2.93,0c1.06-0.18,2.1-0.5,3.08-0.94c0.56-0.27,1.1-0.56,1.63-0.9
		c0.33-0.19,0.62-0.43,0.88-0.7c0.39-0.42,0.45-1.05,0.13-1.53c-0.3-0.4-0.76-0.64-1.25-0.65c-0.37,0.01-0.75,0.06-1.11,0.16
		c-1.68,0.42-3.24,1.25-4.53,2.41c-1.37,1.27-1.82,2.35-1.73,2.39c0.1,0.05,0.78-0.8,2.17-1.84c0.81-0.6,1.69-1.11,2.62-1.5
		c0.53-0.21,1.07-0.39,1.63-0.52c0.62-0.16,1.14-0.16,1.3,0.11c0.16,0.28,0,0.15,0,0.33c-0.19,0.2-0.41,0.37-0.65,0.5
		c-0.5,0.33-1.02,0.62-1.55,0.9c-0.91,0.45-1.86,0.82-2.83,1.09C789.2,716.05,788.29,716.28,787.4,716.57z"/>
	<path class="st3" d="M787.48,716.57c0.55-0.84,0.82-1.84,0.77-2.85c0.06-1.1-0.08-2.2-0.41-3.26c-0.2-0.62-0.46-1.22-0.77-1.79
		c-0.33-0.78-1.03-1.34-1.87-1.48c-0.53,0.01-1.01,0.34-1.22,0.83c-0.15,0.34-0.25,0.7-0.31,1.07c-0.24,1.77,0.21,3.57,1.27,5.02
		c1.16,1.51,2.35,1.86,2.38,1.76c0.03-0.1-0.91-0.68-1.79-2.15c-0.51-0.85-0.83-1.79-0.94-2.77c-0.07-0.54-0.07-1.09,0-1.63
		c0.08-0.62,0.31-1.12,0.55-1.06c0.24,0.07,0.78,0.46,1.03,0.96c0.29,0.52,0.54,1.06,0.73,1.63c0.33,0.94,0.53,1.93,0.57,2.93
		C787.63,715.45,787.32,716.53,787.48,716.57z"/>
	<path class="st3" d="M818.8,478.86c-1.63,0.85-61.89,85.18-79.3,108.38c-3.31,4.2-4.54,9.67-3.35,14.89
		c7.7,29.97,39.31,122.07,39.31,122.07l42.34-8.79l-26.53-110.01l65.7-70.47l-7.43-56.01L818.8,478.86z"/>
	<path class="st4" d="M790.62,607.02c-1.94-0.64-3.79-1.54-5.49-2.67c-1.84-0.89-3.54-2.04-5.07-3.4c1.94,0.64,3.79,1.54,5.49,2.67
		C787.4,604.51,789.1,605.65,790.62,607.02z"/>
	<path class="st12" d="M644.18,282.38c0.28,0.16,2.74,1.38,5.05,2.52c2.68,1.34,4.92,3.43,6.42,6.03c1.74,3.01,3.88,6.66,4.06,6.81
		l8.71,6.76l-11.86,16.29l-3.26-2.64c0,0-11.82-0.62-16.29-2.78c-4.46-2.17-8.58-5.68-8.06-7.23l0.68-2.04
		c-1.04-1.56-1.45-3.46-1.14-5.31c0,0-2.7-3.13-2.21-5.34c0.44-2.08,2.08-3.69,4.17-4.09c0,0-1.32-3.63,0-5.59
		c1.01-1.26,2.42-2.14,3.99-2.51l11.09,4.79L644.18,282.38z"/>
	<path class="st4" d="M945.62,703.55l19.36,23.24c0,0-17.12,27.49-13.96,32.13l46.42-35.93l-28.7-37.46L945.62,703.55z"/>
	<g class="st7">
		<path class="st5" d="M977.79,713.66c1.14-0.44,2.43,0.06,2.98,1.16c0.47,1.13-0.01,2.42-1.11,2.96c-1.21,0.46-2.58-0.07-3.16-1.24
			c-0.38-1.23,0.28-2.54,1.5-2.96"/>
	</g>
	<g class="st7">
		<path class="st5" d="M997.44,722.99l-3.05-3.6l-43.37,35.83c0,0-1.37,2.51,0,3.78L997.44,722.99z"/>
	</g>
	<path class="st3" d="M964.06,727.13c0.18,0.23,1.38-0.55,3.06-0.68s3.01,0.36,3.16,0.1c0.15-0.26-1.22-1.29-3.26-1.09
		C964.98,725.65,963.91,726.96,964.06,727.13z"/>
	<path class="st3" d="M960.73,732.91c0.13,0.26,1.4-0.11,2.92,0.24c1.51,0.36,2.52,1.21,2.74,1.03s-0.64-1.63-2.52-1.99
		S960.65,732.7,960.73,732.91z"/>
	<path class="st3" d="M962.49,740.87c0.23-0.1-0.33-1.48-1.87-2.26c-1.55-0.78-2.98-0.47-2.93-0.21c0.05,0.26,1.22,0.42,2.48,1.09
		S962.28,741.04,962.49,740.87z"/>
	<path class="st3" d="M960.23,721.35c0.24,0.13,1.04-0.99,2.39-1.89c1.35-0.9,2.65-1.27,2.62-1.63c-0.03-0.36-1.63-0.36-3.26,0.73
		C960.36,719.65,959.97,721.25,960.23,721.35z"/>
	<g class="st8">
		<polygon points="954.45,714.8 957.9,718.95 980.54,701.09 977.61,697.21 		"/>
	</g>
	<path class="st3" d="M956.4,716.57c0,0.1,1.07-0.46,2.31-1.81c0.73-0.79,1.35-1.67,1.86-2.62c0.3-0.56,0.56-1.14,0.78-1.74
		c0.15-0.34,0.25-0.71,0.28-1.09c0.06-0.57-0.29-1.11-0.83-1.29c-0.47-0.13-0.98-0.04-1.38,0.24c-0.3,0.23-0.56,0.5-0.78,0.8
		c-0.4,0.51-0.76,1.05-1.06,1.63c-0.5,0.96-0.86,1.99-1.06,3.06c-0.27,0.97-0.24,2,0.1,2.95c0.16,0,0.13-1.11,0.59-2.78
		c0.27-0.97,0.66-1.9,1.17-2.77c0.3-0.51,0.64-1,1.03-1.45c0.39-0.5,0.8-0.83,1.09-0.72c0.29,0.11,0.15,0,0.15,0.29
		c-0.03,0.27-0.09,0.54-0.2,0.8c-0.21,0.59-0.43,1.13-0.68,1.63c-0.46,0.92-1.01,1.79-1.63,2.61
		C957.13,715.73,956.3,716.46,956.4,716.57z"/>
	<path class="st3" d="M956.96,716.67c-0.09-1-0.49-1.95-1.14-2.72c-0.62-0.89-1.39-1.67-2.28-2.3c-0.51-0.37-1.06-0.69-1.63-0.94
		c-0.74-0.43-1.65-0.43-2.39,0c-0.42,0.33-0.6,0.88-0.47,1.4c0.09,0.37,0.23,0.72,0.42,1.04c0.31,0.6,0.72,1.15,1.21,1.63
		c0.8,0.77,1.78,1.33,2.85,1.63c0.95,0.39,2.02,0.39,2.96,0c-0.92-0.16-1.84-0.36-2.74-0.62c-0.92-0.36-1.75-0.91-2.43-1.63
		c-0.4-0.41-0.73-0.88-0.99-1.38c-0.31-0.54-0.44-1.09-0.21-1.17c0.23-0.08,0.91-0.11,1.4,0.13c0.54,0.22,1.06,0.49,1.55,0.81
		c0.84,0.54,1.6,1.21,2.25,1.97C956.39,715.69,956.79,716.74,956.96,716.67z"/>
	<path class="st3" d="M903.91,476.92c0.91,2.54,11.69,132.72,11.69,132.72l72.57,96.17l-30.78,21.51l-82.03-84.23
		c-3.93-3.99-6.64-9.03-7.8-14.51l-30.32-144.21L903.91,476.92z"/>
	<polygon class="st6" points="732.29,340.54 796.18,341.93 800.58,342.61 782.86,381.76 717.61,372.38 653.54,324.99 670.66,301.01 
			"/>
	<path class="st6" d="M834.39,338.91l24.53,6.37c6.25,1.85,11.25,6.56,13.48,12.69l6.89,24.92l14.43,55.52l14.09,50.34
		c-25.08,11.4-44.97,27.1-76.45,28.08c-4.4,0.15-8.78-0.67-12.83-2.39l-20.59-8.75l6.71-31.63l-24.56-93.86l18.75-37.25l6.4-0.86
		L834.39,338.91z"/>
	<path class="st3" d="M742.6,308.36c-0.15-0.96,0.04-1.95,0.54-2.78c1.33-1.81,3.22-3.13,5.37-3.76c0.29-2.96,0.09-5.95-0.6-8.84
		c-0.98,0.41-2.07,0.51-3.11,0.29c-0.17,0.02-0.35,0.02-0.52,0c-2.35-0.15-3.7-3.05-3.13-5.34c0.8-2.23,2.22-4.18,4.1-5.62
		c-1.47,0.68-2.36,2.17-3.63,3.26c-1.27,1.09-3.49,1.29-4.23-0.15c-0.2-0.45-0.3-0.94-0.29-1.43c0-0.99-0.11-1.99-0.18-2.98
		c-0.14-0.8,0.02-1.63,0.46-2.31c0.43-0.37,0.89-0.69,1.38-0.96c1.51-1.09,1.63-3.49,3.09-4.59c1.23-0.63,2.59-0.94,3.97-0.9
		c1.37-0.18,2.92-1.07,2.83-2.44c-2.02-0.2-3.96-0.87-5.67-1.97c-1.74-1.16-2.42-3.39-1.63-5.33c0.95-1.28,2.33-2.16,3.89-2.49
		c1.63-0.57,3.88-0.98,4.89,0.44c2.07-1.45,4.92-0.95,6.37,1.12c0.05,0.07,0.1,0.14,0.14,0.21l4.07-2.07
		c-1.63-0.81-3.65-0.94-5.23-1.95s-2.35-3.62-0.78-4.64c0.57-0.37,1.32-0.42,1.82-0.9c0.5-0.47,0.57-0.85,1.01-1.04
		c0.35-0.11,0.71-0.11,1.06,0l11.2,2.39l-4.59-4.69c-1.42-1.45-2.9-3.6-1.78-5.28c1.12-1.68,3.86-0.96,4.89,0.72
		c1.44-0.96,3.38-0.57,4.34,0.87c0.09,0.14,0.17,0.28,0.24,0.43c1.26-1.21,3.26-1.17,4.47,0.08c0.81,0.84,1.09,2.06,0.73,3.17
		c1.52-0.55,3.17-0.68,4.76-0.37c-0.41-1.46,0.44-2.98,1.91-3.39c0.51-0.14,1.05-0.14,1.56,0.02c-0.4-0.88-0.51-1.86-0.33-2.8
		c0.26-0.91,1.38-1.63,2.2-1.14c-0.99-1.5-0.57-3.52,0.93-4.51c0.83-0.54,1.85-0.68,2.8-0.38l0.78-2.35
		c1.49-0.74,3.27-0.54,4.56,0.5c0.97,0.95,0.98,2.51,0.03,3.48c-0.2,0.2-0.44,0.37-0.7,0.5c1.04-0.42,1.47,1.37,1.17,2.46
		c-0.39,1.53-0.8,3.08-1.21,4.61c0.71-1.5,2.36-2.31,3.97-1.95c0.6-1.4,2.22-2.04,3.61-1.45c0.03,0.01,0.07,0.03,0.1,0.04
		c0.29-1.21,1.5-1.95,2.71-1.66c0.51,0.12,0.97,0.42,1.28,0.85c0-0.78,0.93-1.21,1.63-1.4c1.07-0.42,2.25-0.46,3.35-0.13
		c1.04,0.46,1.63,2.02,0.78,2.77c0.7-0.86,2.26-0.31,2.67,0.72c0.32,1.1,0.15,2.29-0.47,3.26c-0.6,0.94-1.03,1.97-1.27,3.06
		c0.68-0.9,1.65-1.53,2.75-1.78c1.83-0.82,3.83-1.17,5.83-1.01c0-0.86,1.04-1.29,1.89-1.42c2.65-0.44,5.37-0.09,7.82,1.01
		c1.14,0.52,2.36,1.5,2.2,2.74c-0.13,0.56-0.4,1.08-0.78,1.51c-1.45,1.92-2.92,3.84-4.36,5.78c3.52-0.23,7.01,0.65,10,2.52
		c1.42-0.04,2.84,0.01,4.25,0.16c1.35,0.42,2.12,2.65,0.8,3.16c1.09,0.37,1.82,1.4,1.79,2.56c-0.04,0.49-0.22,0.95-0.52,1.34
		c-0.07,0.34-0.19,0.66-0.36,0.96c-0.31,0.54-0.73,1.02-1.22,1.4c-0.31,1.03-1.1,1.84-2.12,2.17c1.44,0.49,2.79,1.23,3.99,2.18
		c1.59,1.25,2.37,3.28,2.02,5.28c0,0.11-0.08,0.2-0.11,0.31c0.11,0.71-0.07,1.43-0.49,2c0.39,0.35,0.65,0.82,0.75,1.34
		c3.32-0.02,6.03,2.65,6.05,5.97c0.01,1.2-0.34,2.37-1,3.36c-0.96,1.45-3.49,2.21-4.23,0.65c-0.13,1.55-1.02,2.94-2.38,3.7
		c1.84,1.69,1.97,4.55,0.28,6.4c-0.09,0.1-0.18,0.19-0.28,0.28c2.46,1.11,3.55,4.01,2.44,6.47c-0.24,0.54-0.59,1.03-1.01,1.45
		c1.32,1.56,1.12,3.89-0.44,5.21s-3.89,1.12-5.21-0.44c-0.03,1.51-0.49,2.98-1.34,4.23c-0.9,1.2-2.6,1.45-3.81,0.55
		c-0.05-0.03-0.09-0.07-0.13-0.11c-0.05,2.81-2.37,5.04-5.17,4.99c-0.31-0.01-0.61-0.04-0.92-0.1c0.8,1.62,0.13,3.58-1.5,4.38
		c-1.62,0.8-3.58,0.13-4.38-1.5l-7.95,2.98c-1.74,0.7-3.54,1.25-5.37,1.63c-2.38,0.41-4.82,0.24-7.12-0.47
		c-0.71-0.3-1.48-0.44-2.25-0.41c-0.86,0.24-1.64,0.68-2.28,1.3c-3.81,2.86-8.83,3.55-13.27,1.82c-0.66-0.33-1.37-0.56-2.1-0.67
		c-0.85,0.03-1.68,0.22-2.46,0.57c-1.96,0.72-4,1.19-6.07,1.4c-1.77,0.35-3.61-0.05-5.08-1.11c-1.34-1.19-1.34-3.83,0.34-4.43
		c-0.22-1.16-0.98-2.15-2.04-2.67c-1.1-0.49-2.39-0.05-2.96,1.01c-0.46,1.06,0.55,2.52,1.63,2.25c-1.32,1.92-4.76,1.25-5.65-0.9
		c-0.71-2.31,0.49-4.78,2.75-5.65c-1.03-1.4-1.71-3.02-1.97-4.74c-0.65,1.88-2.66,2.93-4.58,2.39c-0.31,1.77-1.33,3.34-2.83,4.33
		c-1.57,0.97-3.61,0.71-4.89-0.64c-0.95-1.23-0.72-3,0.52-3.95c0.2-0.16,0.43-0.29,0.67-0.38c-1.37-1.25-1.46-3.37-0.21-4.74
		c0.35-0.38,0.78-0.68,1.26-0.86c-1.15-2.08-0.75-4.67,0.98-6.3c-0.99,1.16-2.72,1.29-3.88,0.31c-0.11-0.09-0.21-0.2-0.31-0.31
		c-0.41,1.97-3,2.54-5,2.2C744.27,311.17,742.91,309.97,742.6,308.36z"/>
	<path class="st4" d="M742.6,308.36c0.03,0.23,0.08,0.46,0.16,0.68c0.23,0.68,0.69,1.26,1.3,1.63c1.03,0.55,2.18,0.82,3.34,0.78
		c0.75,0,1.49-0.15,2.18-0.44c0.82-0.33,1.43-1.04,1.63-1.91h-0.18c1.03,1.21,2.84,1.35,4.04,0.32c0.12-0.1,0.22-0.21,0.32-0.32
		l-0.18-0.16c-1.8,1.68-2.22,4.36-1.03,6.51l0.08-0.21c-1.12,0.38-1.94,1.34-2.15,2.51c-0.33,1.23,0.08,2.54,1.06,3.35v-0.29
		c-1.26,0.44-2.05,1.69-1.89,3.01c0.13,1.41,1.2,2.56,2.61,2.77c1.42,0.29,2.88-0.12,3.94-1.11c1.07-1.03,1.8-2.37,2.08-3.83
		l-0.26,0.15c2.04,0.59,4.18-0.52,4.89-2.52h-0.42c0.26,1.77,0.94,3.45,2,4.89l0.1-0.33c-1.07,0.44-1.96,1.23-2.52,2.23
		c-0.62,1.03-0.78,2.28-0.44,3.44c0.42,1.2,1.44,2.09,2.69,2.35c1.28,0.36,2.65-0.09,3.47-1.14l0.36-0.54l-0.62,0.16
		c-0.64,0.18-1.32-0.44-1.47-1.14c-0.1-0.74,0.36-1.43,1.07-1.63c0.76-0.27,1.61-0.12,2.23,0.41c0.65,0.55,1.1,1.29,1.29,2.12
		l0.16-0.29c-0.61,0.23-1.08,0.72-1.29,1.34c-0.21,0.59-0.25,1.23-0.11,1.84c0.13,0.62,0.43,1.18,0.88,1.63
		c0.47,0.43,1.02,0.76,1.63,0.96c1.17,0.35,2.4,0.45,3.62,0.29c1.21-0.11,2.42-0.3,3.6-0.59c2.41-0.39,4.66-2.31,6.92-0.8
		c2.42,1,5.08,1.29,7.65,0.83c1.31-0.23,2.58-0.64,3.78-1.21c1.18-0.63,2.3-1.37,3.34-2.21c0.47-0.33,1.05-0.49,1.63-0.44
		c0.64,0.14,1.27,0.31,1.89,0.52c1.34,0.37,2.72,0.57,4.1,0.59c2.81-0.09,5.58-0.72,8.14-1.87l7.98-2.98l-0.39-0.13
		c0.9,1.8,3.09,2.53,4.89,1.63s2.53-3.09,1.63-4.89l-0.39,0.44c2.92,0.61,5.79-1.26,6.4-4.18c0.08-0.36,0.11-0.72,0.11-1.09
		l-0.59,0.24c0.6,0.58,1.45,0.83,2.26,0.65c0.82-0.11,1.58-0.51,2.13-1.12c0.94-1.31,1.47-2.88,1.5-4.49l-0.6,0.2
		c1.44,1.7,4,1.92,5.7,0.47c1.7-1.44,1.92-4,0.47-5.7l0,0v0.49c1.29-1.12,1.88-2.85,1.55-4.53c-0.21-1.8-1.39-3.33-3.08-3.99
		l0.11,0.6c1.99-1.82,2.13-4.91,0.31-6.9c-0.1-0.11-0.2-0.21-0.31-0.31v0.59c1.46-0.82,2.43-2.31,2.57-3.97l-0.67,0.11
		c0.19,0.41,0.52,0.73,0.93,0.91c0.4,0.15,0.83,0.19,1.25,0.13c0.8-0.12,1.54-0.48,2.13-1.03c1.12-1.18,1.7-2.77,1.63-4.4
		c-0.04-1.64-0.74-3.2-1.94-4.32c-1.2-1.15-2.8-1.8-4.46-1.79l0.36,0.29c-0.1-0.59-0.4-1.13-0.85-1.53v0.49
		c0.49-0.65,0.69-1.47,0.57-2.28v0.16c0.55-1.85,0.06-3.86-1.29-5.24c-1.33-1.38-2.98-2.39-4.8-2.96v0.68
		c1.14-0.36,2.03-1.27,2.36-2.43l-0.11,0.18c0.82-0.64,1.4-1.54,1.63-2.56v0.13c0.57-0.72,0.73-1.67,0.44-2.54
		c-0.29-0.91-1-1.62-1.91-1.91v0.68c0.43-0.16,0.75-0.52,0.86-0.96c0.09-0.4,0.06-0.82-0.08-1.21c-0.26-0.77-0.86-1.37-1.63-1.63
		c-1.43-0.17-2.86-0.23-4.3-0.18h0.15c-3.06-1.9-6.63-2.81-10.23-2.59l0.33,0.59c0.62-0.83,1.3-1.74,2-2.64l1.51-2
		c0.54-0.67,1.04-1.38,1.48-2.12c0.22-0.45,0.28-0.96,0.18-1.45c-0.16-0.47-0.43-0.89-0.8-1.22c-0.64-0.62-1.4-1.09-2.25-1.37
		c-1.59-0.64-3.28-0.97-4.98-0.99c-0.85-0.01-1.7,0.06-2.54,0.2c-0.45,0.09-0.88,0.25-1.27,0.47c-0.47,0.26-0.79,0.75-0.83,1.29
		l0.42-0.34c-1.62-0.17-3.25,0.03-4.77,0.6c-0.75,0.24-1.48,0.49-2.23,0.8c-0.82,0.3-1.51,0.88-1.95,1.63l0.68,0.21
		c0.15-1.53,1.45-2.8,1.82-4.58c0.27-0.94,0.01-1.94-0.67-2.64c-0.37-0.33-0.83-0.54-1.32-0.6c-0.53-0.06-1.07,0.15-1.42,0.55
		l0.5,0.49c0.37-0.33,0.57-0.82,0.54-1.32c-0.04-0.45-0.2-0.88-0.46-1.25c-0.26-0.37-0.63-0.66-1.06-0.81
		c-0.39-0.16-0.81-0.23-1.24-0.23c-0.8,0.03-1.58,0.16-2.35,0.39c-0.4,0.11-0.79,0.28-1.14,0.5c-0.43,0.26-0.7,0.72-0.72,1.22
		l0.67-0.16c-0.81-1.17-2.41-1.47-3.58-0.66c-0.55,0.38-0.93,0.95-1.06,1.61l0.52-0.28c-1.53-0.75-3.39-0.12-4.14,1.42
		c-0.03,0.07-0.07,0.14-0.09,0.21l0.44-0.23c-1.78-0.4-3.6,0.49-4.38,2.13l0.65,0.24l1.03-3.89c0.24-0.68,0.32-1.4,0.23-2.12
		c-0.05-0.39-0.18-0.77-0.41-1.09c-0.14-0.2-0.34-0.35-0.57-0.42c-0.23-0.07-0.48-0.07-0.72,0l0.23,0.67
		c0.92-0.31,1.57-1.15,1.63-2.12c0.12-0.92-0.19-1.85-0.85-2.51c-1.39-1.1-3.29-1.3-4.89-0.52h-0.15v0.15l-0.78,2.36l0.44-0.23
		c-1.85-0.65-3.88,0.33-4.52,2.18c-0.37,1.05-0.22,2.22,0.4,3.14l0.46-0.49c-0.55-0.3-1.22-0.26-1.73,0.1
		c-0.48,0.29-0.84,0.76-0.99,1.3c-0.19,1-0.07,2.03,0.34,2.96l0.46-0.42c-1.61-0.53-3.35,0.35-3.89,1.96
		c-0.2,0.6-0.21,1.24-0.02,1.85l0.37-0.46c-1.63-0.31-3.32-0.18-4.89,0.37l0.44,0.41c0.53-1.85-0.55-3.78-2.4-4.31
		c-1.18-0.34-2.46-0.03-3.35,0.82l0.54,0.11c-0.77-1.74-2.8-2.52-4.53-1.76c-0.19,0.08-0.38,0.19-0.55,0.31h0.47
		c-0.45-0.75-1.15-1.32-1.97-1.63c-0.81-0.33-1.71-0.33-2.52,0c-0.81,0.42-1.32,1.24-1.35,2.15c-0.09,0.91,0.11,1.82,0.57,2.61
		c0.87,1.27,1.89,2.43,3.03,3.47l3.13,3.26l0.29-0.52l-6.92-1.47l-3.39-0.72c-0.58-0.17-1.17-0.26-1.78-0.28
		c-0.36,0.06-0.68,0.24-0.91,0.52c-0.2,0.24-0.34,0.49-0.5,0.65c-0.43,0.3-0.91,0.54-1.42,0.68c-0.6,0.24-1.07,0.73-1.27,1.35
		c-0.27,1.2,0.08,2.46,0.93,3.35c0.82,0.81,1.84,1.37,2.96,1.63c1.03,0.26,2.04,0.59,3.01,1.01v-0.52l-4.07,2.07l0.37,0.11
		c-1.43-2.29-4.45-2.98-6.73-1.55c-0.07,0.05-0.15,0.1-0.22,0.15h0.37c-0.71-0.83-1.8-1.23-2.88-1.06
		c-0.98,0.11-1.95,0.35-2.87,0.72c-0.93,0.29-1.8,0.75-2.57,1.34c-0.8,0.63-1.28,1.57-1.34,2.59c0.01,1.94,1.09,3.72,2.8,4.64
		c1.58,0.8,3.29,1.32,5.05,1.53l-0.2-0.23c-0.02,0.7-0.43,1.33-1.06,1.63c-0.63,0.37-1.34,0.57-2.07,0.6
		c-0.76,0.04-1.51,0.14-2.25,0.29c-0.77,0.15-1.46,0.58-1.94,1.21c-0.94,1.22-1.19,2.7-2.1,3.66c-0.42,0.5-1.09,0.67-1.63,1.19
		c-0.49,0.55-0.73,1.28-0.65,2.02c0,1.34,0.15,2.65,0.23,3.92c0,0.7,0.31,1.37,0.86,1.81c0.56,0.36,1.24,0.51,1.91,0.41
		c0.63-0.09,1.23-0.31,1.76-0.65c0.49-0.35,0.94-0.76,1.35-1.21c0.71-0.87,1.57-1.6,2.54-2.17l-0.2-0.29
		c-1.04,0.91-1.99,1.92-2.83,3.01c-0.8,1.02-1.3,2.24-1.43,3.53c-0.07,1.21,0.29,2.4,1.03,3.35c0.67,0.93,1.78,1.42,2.92,1.29l0,0
		c1.09,0.23,2.23,0.13,3.26-0.29l-0.18-0.1c0.69,2.88,0.91,5.85,0.65,8.79v-0.08c-1.34,0.5-2.62,1.18-3.78,2.02
		c-0.81,0.61-1.45,1.41-1.87,2.33c-0.22,0.55-0.33,1.14-0.31,1.73c0.01,0.19,0.04,0.38,0.08,0.57c-0.09-0.76,0.02-1.54,0.33-2.25
		c0.41-0.9,1.05-1.68,1.86-2.26c1.16-0.82,2.43-1.47,3.76-1.95l0,0l0,0c0.3-2.97,0.1-5.96-0.59-8.86v-0.15h-0.13
		c-0.97,0.39-2.03,0.48-3.05,0.26l0,0c-1.04,0.12-2.05-0.34-2.65-1.19c-0.68-0.91-1.01-2.03-0.94-3.16c0.14-1.23,0.62-2.39,1.4-3.35
		c0.83-1.07,1.77-2.05,2.8-2.93l0.83-0.77l-1.03,0.46c-1.02,0.57-1.92,1.33-2.65,2.23c-0.39,0.42-0.83,0.8-1.3,1.14
		c-0.49,0.31-1.05,0.51-1.63,0.59c-0.57,0.1-1.15-0.03-1.63-0.34c-0.45-0.37-0.7-0.93-0.68-1.51c0-1.27-0.15-2.57-0.23-3.89
		c-0.06-0.62,0.13-1.24,0.54-1.71c0.44-0.41,1.17-0.62,1.63-1.19c1.03-1.11,1.29-2.61,2.13-3.68c0.85-1.07,2.41-1.21,3.89-1.32
		c0.8-0.04,1.57-0.27,2.26-0.67c0.8-0.39,1.3-1.2,1.3-2.08v-0.18h-0.18c-1.7-0.2-3.36-0.7-4.89-1.48c-1.55-0.82-2.53-2.43-2.54-4.19
		c0.05-0.87,0.47-1.67,1.16-2.2c0.73-0.55,1.55-0.98,2.43-1.25c0.88-0.33,1.8-0.56,2.74-0.67c0.89-0.15,1.8,0.17,2.39,0.85
		l0.18,0.23l0.21-0.18c1.97-1.36,4.66-0.88,6.03,1.09c0.04,0.05,0.07,0.11,0.11,0.17l0.13,0.23l0.24-0.11l4.07-2.05l0.52-0.26
		l-0.52-0.26c-1.01-0.42-2.04-0.77-3.09-1.04c-1.01-0.22-1.95-0.72-2.7-1.43c-0.71-0.74-1.01-1.78-0.81-2.78
		c0.16-0.46,0.51-0.82,0.96-0.99c0.59-0.16,1.14-0.43,1.63-0.8c0.46-0.49,0.67-0.98,1.07-0.99c0.55,0.03,1.1,0.12,1.63,0.26
		l3.37,0.73l6.92,1.48l1.01,0.21l-0.72-0.73l-3.13-3.26c-1.1-1-2.09-2.13-2.93-3.35c-0.38-0.59-0.59-1.28-0.6-1.99
		c0.01-0.68,0.39-1.31,0.99-1.63c1.37-0.5,2.9,0.03,3.66,1.27l0.2,0.31l0.28-0.21c1.28-0.85,3.01-0.5,3.86,0.79
		c0.08,0.12,0.15,0.25,0.21,0.38l0.18,0.46l0.36-0.34c1.15-1.06,2.94-1,4,0.15c0.67,0.72,0.92,1.74,0.65,2.68l-0.18,0.64l0.6-0.23
		c1.47-0.53,3.05-0.65,4.58-0.36l0.64,0.13l-0.26-0.59c-0.33-1.3,0.46-2.62,1.76-2.95c0.41-0.1,0.85-0.1,1.26,0.02l0.7,0.33
		l-0.24-0.73c-0.35-0.81-0.46-1.7-0.33-2.57c0.18-0.73,1.12-1.35,1.71-0.98l1.35,0.85l-0.88-1.34c-0.85-1.33-0.46-3.11,0.87-3.96
		c0.71-0.45,1.58-0.57,2.39-0.32l0.33,0.11l0.11-0.34c0.26-0.78,0.52-1.55,0.78-2.35l-0.18,0.2c1.34-0.66,2.94-0.5,4.12,0.41
		c1.03,0.88,0.83,3.06-0.47,3.42l0.23,0.67c0.17-0.08,0.37-0.02,0.46,0.15c0.15,0.23,0.25,0.49,0.29,0.77
		c0.07,0.62,0,1.25-0.23,1.84l-1.03,3.89l0.67,0.24c0.65-1.32,2.11-2.04,3.55-1.76l0.33,0.1l0.1-0.31c0.53-1.22,1.94-1.79,3.17-1.26
		c0.03,0.01,0.06,0.03,0.09,0.04l0.5,0.28v-0.52c0.3-1,1.35-1.56,2.35-1.26c0.35,0.11,0.67,0.31,0.9,0.6l0.8,1.63l-0.11-1.79
		c0-0.47,0.67-0.85,1.34-1.03c0.69-0.22,1.41-0.34,2.13-0.37c0.67-0.06,1.32,0.22,1.73,0.75c0.41,0.47,0.41,1.16,0,1.63l0.52,0.5
		c0.34-0.46,1.21-0.33,1.63,0.13c0.49,0.52,0.66,1.27,0.44,1.95c-0.26,1.51-1.63,2.77-1.84,4.64l-0.23,1.78l0.91-1.63
		c0.68-1.17,2.35-1.51,3.78-2.04c1.41-0.52,2.93-0.72,4.43-0.57h0.42v-0.41c0-0.55,0.78-0.94,1.5-1.07c2.4-0.4,4.86-0.14,7.12,0.75
		c0.74,0.25,1.42,0.66,1.99,1.21c0.53,0.47,0.7,1.22,0.42,1.87c-0.43,0.69-0.91,1.35-1.42,1.99l-1.51,2l-2,2.64l-0.49,0.64h0.8
		c3.44-0.21,6.85,0.65,9.77,2.48l0,0l0,0c1.4-0.04,2.79,0.01,4.19,0.15c0.55,0.21,0.97,0.66,1.16,1.22c0.2,0.57,0.08,1.12-0.36,1.25
		l-1.11,0.36l1.12,0.34c0.68,0.22,1.21,0.75,1.43,1.43c0.22,0.65,0.09,1.36-0.34,1.89l0,0v0.08c-0.21,0.87-0.72,1.63-1.45,2.15h-0.1
		v0.11c-0.26,0.91-0.96,1.63-1.86,1.92l-1.06,0.29l1.03,0.39c1.71,0.55,3.26,1.5,4.53,2.77c1.18,1.19,1.62,2.92,1.16,4.53v0.08v0.1
		c0.1,0.61-0.05,1.24-0.41,1.74l-0.21,0.26l0.24,0.23c0.33,0.29,0.55,0.68,0.64,1.11v0.31h0.31c1.48,0.02,2.9,0.6,3.96,1.63
		c1.06,0.99,1.68,2.37,1.71,3.83c0.08,1.41-0.4,2.79-1.34,3.84c-0.48,0.45-1.09,0.75-1.74,0.85c-0.57,0.15-1.17-0.12-1.45-0.64
		l-0.57-1.27l-0.1,1.4c-0.13,1.43-0.95,2.7-2.2,3.4l-0.47,0.24l0.41,0.33c1.7,1.57,1.8,4.22,0.22,5.91
		c-0.07,0.08-0.15,0.15-0.22,0.22l-0.49,0.41l0.6,0.2c1.44,0.56,2.45,1.88,2.62,3.42c0.29,1.44-0.21,2.92-1.3,3.89l-0.28,0.23
		l0.23,0.26c1.2,1.41,1.03,3.53-0.38,4.73s-3.53,1.03-4.73-0.38l0,0l-0.5-0.62l-0.1,0.8c-0.01,1.48-0.47,2.91-1.32,4.12
		c-0.8,1.03-2.29,1.21-3.31,0.41c-0.01-0.01-0.03-0.02-0.04-0.03l-0.65-0.78v1.01c0.02,1.46-0.68,2.85-1.86,3.71
		c-1.07,0.87-2.48,1.21-3.83,0.9l-0.64-0.18l0.26,0.62c0.62,1.52-0.11,3.25-1.62,3.86c-1.37,0.56-2.94,0.02-3.69-1.26l-0.13-0.23
		l-0.26,0.1l-7.98,2.98c-2.5,1.13-5.19,1.75-7.93,1.84c-1.33,0-2.66-0.19-3.94-0.55c-0.65-0.22-1.31-0.4-1.99-0.54
		c-0.74-0.09-1.48,0.11-2.08,0.55c-1.01,0.83-2.1,1.55-3.26,2.17c-1.15,0.55-2.37,0.94-3.63,1.16c-2.47,0.45-5.01,0.18-7.33-0.77
		c-0.58-0.28-1.2-0.48-1.84-0.6c-0.66-0.07-1.34,0.03-1.95,0.28c-1.13,0.44-2.29,0.81-3.47,1.11c-1.16,0.27-2.33,0.47-3.52,0.59
		c-1.14,0.15-2.29,0.05-3.39-0.28c-1.06-0.28-1.88-1.12-2.13-2.18c-0.33-1.01,0.12-2.11,1.06-2.59h0.21v-0.23
		c-0.22-0.94-0.73-1.78-1.47-2.41c-0.76-0.63-1.79-0.81-2.72-0.47c-0.97,0.28-1.57,1.25-1.38,2.25c0.15,0.98,1.07,1.66,2.05,1.51
		l-0.26-0.37c-0.7,0.89-1.86,1.26-2.95,0.94c-1.09-0.21-1.99-0.98-2.36-2.02c-0.5-2.14,0.65-4.31,2.69-5.11l0.28-0.11l-0.18-0.23
		c-1.01-1.37-1.68-2.96-1.94-4.64l-0.13-0.93l-0.28,0.9c-0.62,1.77-2.51,2.76-4.32,2.26h-0.21v0.23c-0.27,1.37-0.94,2.63-1.94,3.62
		c-0.97,0.92-2.32,1.31-3.63,1.04c-1.24-0.18-2.2-1.18-2.33-2.43c-0.15-1.16,0.52-2.27,1.63-2.67l0.31-0.08l-0.26-0.21
		c-1.29-1.25-1.32-3.32-0.07-4.61c0.3-0.31,0.65-0.55,1.04-0.72h0.18l-0.1-0.16c-1.12-2.02-0.73-4.55,0.94-6.14l-0.18-0.18
		c-0.95,1.11-2.61,1.23-3.72,0.29c-0.1-0.09-0.2-0.18-0.29-0.29l-0.15-0.2v0.24c-0.19,0.81-0.77,1.47-1.55,1.78
		c-0.67,0.29-1.39,0.44-2.12,0.46c-1.13,0.04-2.25-0.21-3.26-0.73c-0.6-0.34-1.06-0.87-1.3-1.51
		C742.64,308.6,742.61,308.36,742.6,308.36z"/>
	<path class="st12" d="M834.97,340.59l-19.38-55.93c-4.61-15.23-17.31-25.23-32.39-20.21l-1.37,0.55
		c-13.76,5.49-20.99,20.63-16.61,34.79c4.06,13.18,8.71,27.69,11.53,34.48c5.83,14.1,20.88,10.65,20.88,10.65s1.22,3.26,2.7,7.56
		l0,0c0,0,2.41,14.19,13.5,10.78S834.97,340.59,834.97,340.59z"/>
	<path class="st13" d="M797.53,344.95c6.54-2.63,12.19-7.08,16.29-12.82c0,0,0,12.54-14.66,16.91L797.53,344.95z"/>
	<path class="st3" d="M773,309.61c0.43,1.1,1.65,1.67,2.77,1.27c1.1-0.34,1.71-1.51,1.37-2.61c0-0.01-0.01-0.03-0.01-0.04
		c-0.43-1.1-1.65-1.67-2.77-1.27c-1.1,0.34-1.71,1.51-1.37,2.61C772.99,309.59,773,309.6,773,309.61z"/>
	<path class="st3" d="M770.48,304.48c0.36,0.16,1.45-1.63,3.62-2.44c2.17-0.81,4.22-0.41,4.35-0.77s-0.37-0.54-1.27-0.78
		c-1.21-0.27-2.47-0.17-3.62,0.29c-1.13,0.45-2.09,1.25-2.74,2.28C770.35,303.85,770.32,304.42,770.48,304.48z"/>
	<path class="st3" d="M793.3,303.12c0.43,1.1,1.65,1.67,2.77,1.27c1.1-0.34,1.71-1.51,1.37-2.61c0-0.01-0.01-0.03-0.01-0.04
		c-0.43-1.1-1.65-1.67-2.77-1.27c-1.1,0.34-1.71,1.51-1.37,2.61C793.29,303.09,793.29,303.1,793.3,303.12z"/>
	<path class="st3" d="M792.17,296.86c0.36,0.16,1.43-1.63,3.62-2.46s4.22-0.41,4.35-0.77s-0.37-0.54-1.29-0.77
		c-1.2-0.28-2.46-0.18-3.6,0.29c-1.14,0.44-2.1,1.24-2.75,2.28C792.04,296.21,792.01,296.78,792.17,296.86z"/>
	<path class="st3" d="M791.03,316.71c-1.29,0.1-2.56,0.35-3.78,0.77c-0.59,0.16-1.16,0.26-1.4-0.08c-0.27-0.55-0.38-1.18-0.29-1.79
		c0-1.54,0-3.17,0-4.89c-0.11-6.95-0.44-12.56-0.72-12.56c-0.28,0-0.41,5.64-0.29,12.57c0,1.63,0.08,3.26,0.13,4.89
		c-0.08,0.81,0.13,1.62,0.59,2.3c0.32,0.33,0.78,0.49,1.24,0.44c0.34-0.04,0.67-0.12,0.99-0.24
		C788.73,317.79,789.91,317.32,791.03,316.71z"/>
	<path class="st3" d="M788.72,289.7c0.46,0.5,2.51-0.64,5.2-1.34c2.69-0.7,5.02-0.83,5.15-1.5c0-0.31-0.52-0.73-1.63-0.98
		c-2.82-0.53-5.73,0.27-7.88,2.17C788.8,288.8,788.51,289.44,788.72,289.7z"/>
	<path class="st3" d="M768.47,296.81c0.57,0.36,1.89-0.73,3.7-1.43s3.49-0.91,3.65-1.63c0-0.33-0.36-0.73-1.22-0.94
		c-1.09-0.23-2.23-0.13-3.26,0.31c-1.06,0.42-1.96,1.15-2.59,2.1C768.2,296.05,768.18,296.63,768.47,296.81z"/>
	<path class="st13" d="M791.1,323.15c0.56,0.76,1.23,1.43,1.99,1.99c0.77,0.57,1.75,0.77,2.69,0.55c0.99-0.28,1.75-1.06,2.02-2.05
		c0.24-0.98,0.16-2.02-0.23-2.95c-0.33-0.85-1.06-1.74-1.94-1.55c-0.37,0.1-0.7,0.3-0.96,0.57l-3.89,3.26"/>
	<path class="st3" d="M794.11,326.26c0.83-0.22,1.6-0.59,2.3-1.09c0.69-0.57,1.14-1.37,1.27-2.25c0.13-1.07-0.2-2.14-0.91-2.95
		c-0.18-0.2-0.39-0.39-0.62-0.54c-0.24-0.13-0.21-0.13-0.39,0c-0.18,0.13-0.41,0.36-0.62,0.52l-0.65,0.55
		c-0.83,0.7-1.63,1.34-2.23,1.84c-0.65,0.63-1.39,1.15-2.2,1.55c-0.08,0,0.62-0.85,1.81-1.99c0.59-0.57,1.3-1.25,2.12-1.99
		l0.62-0.57c0.23-0.2,0.39-0.37,0.7-0.6c0.2-0.14,0.44-0.22,0.68-0.21c0.22,0.02,0.43,0.1,0.62,0.23c0.29,0.2,0.55,0.43,0.78,0.68
		c0.88,1,1.27,2.34,1.06,3.65c-0.19,1.04-0.77,1.97-1.63,2.59c-0.56,0.41-1.23,0.66-1.92,0.72
		C794.37,326.39,794.11,326.31,794.11,326.26z"/>
	<path class="st3" d="M756.88,289.44c-0.22-0.74-0.39-1.49-0.5-2.25c0.01-1.19,0.31-2.36,0.88-3.4c1.63-3.71,3.49-7.57,6.51-9.77
		c1.89-1.34,4.14-1.97,6.03-3.26c1.13-0.89,2.22-1.83,3.26-2.83c4.55-3.72,10-6.17,15.8-7.1c3.2-0.75,6.51-0.93,9.77-0.52
		c3.7,0.75,7.25,2.12,10.49,4.07c5.26,2.69,10.01,6.28,14.04,10.6c3.29,3.52,5.49,7.92,6.32,12.67c0.65,4.79-0.93,9.92-4.49,11.99
		l-2-1.29l-3.14-1.86c0.75,0.93,0.37,0.98-0.33,1.84c-0.72,0.79-1.95,0.85-2.74,0.13c-0.04-0.04-0.09-0.08-0.13-0.13
		c-0.42,1.16-2.33,0.65-2.48-0.65c-0.73,0.75-2.23-0.1-2.26-1.29c-0.91,0.7-1.99-0.77-2.85-1.63c-0.48-0.5-0.99-0.96-1.53-1.38
		c-1.66-1.5-2.86-3.45-3.45-5.62c-1.72-1.42-3-3.3-3.68-5.42c-0.55-1.3-1.11-2.61-1.63-3.89l-1.03-0.72
		c0.29,0.93-0.05,1.94-0.83,2.52c-0.75,0.44-1.59,0.67-2.46,0.67l-2.56,0.24l-1.37,0.88c0.68,1.24,0.93,2.66,0.72,4.06
		c0.05,0.93-0.21,1.85-0.75,2.61c-0.5,0.43-1.25,0.37-1.68-0.13c-0.15-0.18-0.25-0.39-0.28-0.62c-0.39,0.63-1.21,0.82-1.84,0.42
		c-0.08-0.05-0.15-0.1-0.21-0.16c-0.65-0.63-1.1-1.44-1.27-2.33c-0.56-2.11-0.49-4.34,0.21-6.42l-3.03,5.08
		c-0.18,0.39-0.47,0.72-0.85,0.93c0.28,0.56,0.05,1.25-0.51,1.53c-0.1,0.05-0.2,0.08-0.3,0.1c-0.67,0.02-1.32-0.18-1.86-0.59
		c-1.34-0.77-2.95-2.28-2.39-3.75c-0.5,0-0.99-0.68-0.8-1.22l-3.68,5.02c0.39-0.41,1.12,0.18,1.21,0.81
		c0.01,0.62-0.19,1.22-0.57,1.71c0.61,0.55,1.03,1.28,1.21,2.08c0.64-1.01,2.33,0,2.41,1.34c0.03,1.23-0.75,2.33-1.92,2.7
		c-0.96,0.47-2.12,0.07-2.59-0.9c-0.99,0.54-2.41-0.6-2.39-1.89c-0.6,0.72-1.63-0.44-2-1.45c-0.6-1.78-0.87-3.65-0.8-5.52
		c0,0.16-0.2,0.29-0.36,0.23c-0.07-0.04-0.12-0.1-0.16-0.16c-0.23,2.28-0.47,4.56-0.7,6.84c-0.32,1.95-0.28,3.93,0.13,5.86
		c0.21,0.78,0.44,1.89-0.2,2.15c-0.18,0.05-0.37,0.05-0.55,0c-2.29-0.54-4.32-1.86-5.75-3.73c-0.56-0.62-1.01-1.33-1.34-2.1
		C757.24,292.87,756.99,291.16,756.88,289.44z"/>
	<path class="st4" d="M776.41,279.66c-0.41-0.22-0.73-0.56-0.94-0.98c-0.24-0.47-0.24-1.02,0-1.48c0.31-0.61,0.95-0.98,1.63-0.94
		h0.41l-0.26-0.33c-0.48-0.62-0.53-1.47-0.11-2.13c0.52-0.73,1.48-0.97,2.28-0.59l0.21-0.36c-0.07-0.05-0.13-0.12-0.18-0.2
		c-0.17-0.26-0.22-0.6-0.11-0.9c0.11-0.29,0.32-0.53,0.6-0.67c0.28-0.16,0.6-0.24,0.93-0.23c0.35,0.07,0.72,0.07,1.07,0
		c0.41-0.21,0.5-0.59,0.68-0.8c0.17-0.23,0.36-0.44,0.57-0.64c0.41-0.33,0.87-0.59,1.37-0.75c0.72-0.25,1.5-0.29,2.25-0.11
		c0.54,0.13,0.8,0.29,0.83,0.26c-0.23-0.19-0.49-0.34-0.78-0.42c-0.78-0.24-1.61-0.24-2.39,0c-0.54,0.16-1.04,0.42-1.48,0.77
		c-0.25,0.2-0.48,0.44-0.67,0.7c-0.2,0.26-0.33,0.57-0.54,0.65c-0.31,0.05-0.62,0.05-0.93,0c-0.39-0.01-0.77,0.08-1.11,0.26
		c-0.38,0.19-0.67,0.51-0.81,0.91c-0.14,0.43-0.08,0.89,0.16,1.27c0.09,0.12,0.19,0.22,0.31,0.31l0.21-0.37
		c-1.09-0.49-2.37-0.01-2.87,1.08c-0.32,0.71-0.24,1.55,0.23,2.18l0.15-0.31c-0.8,0.01-1.54,0.47-1.89,1.19
		c-0.41,0.92-0.05,1.99,0.83,2.48C776.26,279.66,776.41,279.66,776.41,279.66z"/>
	<path class="st4" d="M767.06,285.14c-0.43-0.21-0.81-0.51-1.11-0.9c-0.32-0.48-0.45-1.06-0.34-1.63c0.13-0.71,0.6-1.32,1.25-1.63
		l0.28-0.11l-0.26-0.16c-0.74-0.42-1.24-1.17-1.34-2.02c0-0.45,0.2-0.87,0.55-1.14c0.33-0.31,0.82-0.39,1.24-0.2l1.51,0.9
		l-1.27-1.22c-0.46-0.45-0.68-1.09-0.62-1.73c0.05-0.68,0.44-1.3,1.04-1.63c0.42-0.24,0.92-0.34,1.4-0.26l0.54,0.1l-0.34-0.44
		c-0.36-0.68-0.1-1.51,0.58-1.87c0.03-0.02,0.07-0.04,0.11-0.05c0.74-0.25,1.55-0.25,2.3,0l0.46,0.1l-0.24-0.39
		c-0.31-0.5-0.31-1.13,0-1.63c0.3-0.45,0.71-0.81,1.21-1.03c0.82-0.39,1.71-0.63,2.62-0.7c0.81-0.03,1.61,0.02,2.41,0.15
		c-0.2-0.09-0.4-0.16-0.62-0.2c-1.52-0.35-3.12-0.19-4.54,0.46c-0.56,0.23-1.04,0.62-1.38,1.12c-0.39,0.6-0.43,1.36-0.08,1.99
		l0.2-0.29c-0.84-0.27-1.74-0.24-2.56,0.08c-0.45,0.22-0.79,0.6-0.98,1.06c-0.23,0.49-0.17,1.07,0.15,1.51l0.2-0.34
		c-0.56-0.08-1.13,0.02-1.63,0.29c-0.72,0.4-1.2,1.13-1.27,1.95c-0.07,0.76,0.22,1.52,0.77,2.05l0.24-0.33
		c-0.57-0.25-1.23-0.16-1.71,0.24c-0.44,0.36-0.69,0.9-0.67,1.47c0.11,0.97,0.69,1.82,1.55,2.28v-0.29
		c-0.74,0.36-1.26,1.06-1.38,1.87c-0.13,1.01,0.41,1.99,1.34,2.41C766.85,285.14,767.06,285.15,767.06,285.14z"/>
	<path class="st4" d="M745.8,293.34c-0.1-0.43-0.03-0.88,0.21-1.25c0.27-0.44,0.71-0.75,1.21-0.88c0.68-0.16,1.38-0.19,2.07-0.1
		h0.24l-0.1-0.24c-0.23-0.84,0.15-1.72,0.93-2.12c0.95-0.41,1.99-0.54,3.01-0.37l1.4,0.11l-1.32-0.49
		c-0.72-0.43-0.94-1.36-0.51-2.08c0.01-0.01,0.02-0.02,0.02-0.04c0.57-0.75,1.43-1.22,2.36-1.32h0.11l0.83-0.16l-0.8-0.24
		c-0.81-0.4-1.14-1.38-0.74-2.18c0.05-0.11,0.12-0.21,0.2-0.31c0.71-0.69,1.76-0.89,2.67-0.5l1.03,0.41l-0.81-0.73
		c-0.97-0.91-1.36-2.28-1.03-3.57c0.28-1,1-1.83,1.95-2.23c0.62-0.28,1.31-0.39,1.99-0.31c0.47,0,0.72,0.16,0.73,0.13l-0.18-0.1
		c-0.17-0.07-0.35-0.13-0.54-0.16c-0.69-0.12-1.4-0.06-2.05,0.18c-1.06,0.4-1.86,1.28-2.18,2.36c-0.4,1.42,0.01,2.94,1.07,3.96
		l0.2-0.34c-1.07-0.47-2.31-0.23-3.13,0.6c-0.41,0.47-0.58,1.11-0.46,1.73c0.1,0.66,0.55,1.21,1.17,1.45v-0.42h-0.13
		c-1.07,0.13-2.04,0.73-2.64,1.63c-0.27,0.46-0.35,1-0.23,1.51c0.1,0.52,0.45,0.96,0.93,1.17l0.1-0.39
		c-1.11-0.18-2.24-0.02-3.26,0.46c-0.92,0.49-1.35,1.57-1.03,2.56l0.15-0.21c-0.73-0.07-1.46-0.01-2.17,0.18
		c-0.54,0.16-1,0.53-1.27,1.03c-0.18,0.3-0.25,0.66-0.2,1.01C745.67,293.26,745.8,293.36,745.8,293.34z"/>
	<path class="st4" d="M751.21,269.29c0.19,0.04,0.39,0.04,0.59,0c0.56-0.06,1.1-0.19,1.63-0.37c0.75-0.3,1.57-0.41,2.38-0.31
		c0.46,0.07,0.86,0.35,1.09,0.75c0.27,0.41,0.24,0.95-0.08,1.32l0.34,0.11c0-0.55,0.49-1.06,0.96-1.63c0.48-0.54,1.02-1,1.63-1.38
		c0.61-0.36,1.34-0.45,2.02-0.26c0.63,0.15,1.13,0.64,1.29,1.27l0.08,0.52l0.28-0.46c0.56-0.86,1.38-1.51,2.35-1.86
		c0.76-0.29,1.57-0.41,2.38-0.34c0.72,0.09,1.42,0.29,2.07,0.62c0,0-0.15-0.16-0.47-0.36c-0.51-0.27-1.06-0.44-1.63-0.5
		c-0.85-0.11-1.72-0.02-2.52,0.26c-1.05,0.35-1.95,1.04-2.56,1.97l0.36,0.08c-0.15-0.8-0.76-1.43-1.55-1.63
		c-0.79-0.24-1.64-0.14-2.35,0.28c-0.66,0.39-1.26,0.89-1.78,1.47c-0.26,0.26-0.5,0.54-0.72,0.83c-0.26,0.3-0.38,0.7-0.34,1.09v0.41
		l0.28-0.29c0.45-0.49,0.49-1.23,0.11-1.78c-0.28-0.49-0.77-0.83-1.34-0.91c-0.86-0.09-1.74,0.06-2.52,0.42
		c-0.5,0.2-1.02,0.36-1.55,0.47C751.42,269.27,751.21,269.26,751.21,269.29z"/>
	<path class="st4" d="M769.16,255.59c0.37-0.11,0.74-0.16,1.12-0.16c0.43,0.02,0.84,0.14,1.21,0.36c0.47,0.26,0.84,0.67,1.04,1.17
		l0.08,0.21l0.2-0.13c0.6-0.29,1.32-0.12,1.73,0.41c0.45,0.66,0.7,1.43,0.73,2.23l0.11,0.83l0.31-0.8v-0.13
		c0.23-0.5,0.68-0.86,1.22-0.98c0.51-0.14,1.05-0.07,1.51,0.2c0.79,0.48,1.34,1.26,1.51,2.17c0.1,0.63,0.1,1.26,0,1.89
		c-0.03,0.24-0.03,0.48,0,0.72c0,0,0.13-0.23,0.23-0.68c0.15-0.65,0.18-1.31,0.08-1.97c-0.15-1.02-0.74-1.93-1.63-2.46
		c-1.12-0.65-2.56-0.26-3.2,0.86c-0.02,0.03-0.04,0.07-0.05,0.1v0.16h0.41c-0.04-0.87-0.33-1.72-0.85-2.43
		c-0.54-0.68-1.49-0.87-2.25-0.44h0.28c-0.25-0.57-0.69-1.03-1.25-1.3c-0.41-0.21-0.87-0.32-1.34-0.31c-0.3,0.01-0.59,0.08-0.86,0.2
		C769.24,255.51,769.16,255.58,769.16,255.59z"/>
	<path class="st4" d="M790.59,262.81c0.18-0.05,0.35-0.15,0.49-0.28c0.41-0.33,0.75-0.75,0.98-1.22c0.36-0.72,0.48-1.54,0.34-2.33
		c-0.12-0.39-0.12-0.8,0-1.19c0.15-0.36,0.59-0.68,0.77-1.24c0.31-1.08-0.27-2.22-1.32-2.61l0.1,0.29c0.57-0.88,0.93-1.89,1.04-2.93
		c0.09-0.39,0.09-0.8,0-1.19c0,0,0,0.44-0.2,1.16c-0.18,0.98-0.56,1.92-1.12,2.75l-0.15,0.21l0.24,0.08
		c0.83,0.33,1.28,1.24,1.04,2.1c-0.11,0.41-0.5,0.7-0.73,1.21c-0.17,0.46-0.17,0.97,0,1.43c0.13,0.71,0.05,1.45-0.23,2.12
		C791.53,261.79,791.1,262.34,790.59,262.81z"/>
	<path class="st4" d="M796.88,264.88c0.12,0.02,0.24,0.02,0.36,0c0.33-0.1,0.64-0.22,0.94-0.37c1.1-0.57,1.98-1.48,2.51-2.59
		l-0.26,0.08c0.81,0.55,1.81,0.75,2.77,0.57c0.53-0.1,1.03-0.31,1.47-0.62c0.51-0.32,0.87-0.82,1.01-1.4c0-0.24,0-0.47,0-0.64
		c0-0.16,0.05-0.32,0.15-0.46c0.22-0.28,0.5-0.51,0.81-0.68c0.35-0.19,0.66-0.44,0.93-0.73c0.3-0.31,0.4-0.76,0.28-1.17l-0.2,0.24
		c0.89,0.09,1.78-0.15,2.51-0.67c0.56-0.38,1.02-0.89,1.34-1.5c0.2-0.39,0.33-0.81,0.37-1.24c0.04-0.16,0.04-0.32,0-0.47
		c-0.08,0.57-0.27,1.12-0.54,1.63c-0.33,0.55-0.78,1.01-1.32,1.35c-0.67,0.44-1.48,0.64-2.28,0.55h-0.31l0.1,0.28
		c0.07,0.29-0.02,0.59-0.23,0.8c-0.24,0.26-0.53,0.47-0.85,0.64c-0.37,0.2-0.69,0.48-0.94,0.81c-0.13,0.2-0.21,0.44-0.23,0.68
		c0.02,0.19,0.02,0.38,0,0.57c-0.13,0.46-0.43,0.86-0.83,1.12c-0.39,0.28-0.83,0.47-1.3,0.55c-0.85,0.19-1.74,0.02-2.48-0.46
		l-0.18-0.13l-0.08,0.2c-0.49,1.06-1.29,1.96-2.3,2.56C797.35,264.71,796.86,264.83,796.88,264.88z"/>
	<path class="st4" d="M832.77,268.08c0,0,0,0,0-0.16c0.02-0.15,0.02-0.29,0-0.44c-0.11-0.58-0.34-1.13-0.67-1.63
		c-0.49-0.74-1.09-1.41-1.76-1.99c-0.4-0.38-0.83-0.72-1.29-1.03c-0.26-0.17-0.56-0.28-0.86-0.34c-0.36-0.07-0.74,0.04-1.01,0.29
		l0.31,0.1c-0.29-1.54-1.77-2.55-3.31-2.26c-0.73,0.14-1.38,0.56-1.81,1.17l0.37,0.08c-0.17-0.61-0.62-1.1-1.21-1.32
		c-0.61-0.22-1.29-0.11-1.81,0.29c-0.29,0.21-0.5,0.51-0.62,0.85h0.41c-0.09-0.38-0.36-0.7-0.72-0.85
		c-0.32-0.14-0.68-0.18-1.03-0.11c-0.61,0.18-1.17,0.51-1.63,0.96h0.28c-0.59-0.5-1.35-0.76-2.12-0.72c-0.7,0.02-1.39,0.22-2,0.57
		c-1.01,0.65-1.9,1.47-2.64,2.43l0.26,0.13c0.04-0.26-0.07-0.52-0.28-0.68c-0.18-0.14-0.39-0.22-0.62-0.24
		c-0.39-0.05-0.78,0-1.14,0.15c-0.54,0.25-1.04,0.58-1.48,0.98c-0.29,0.23-0.54,0.5-0.77,0.8c-0.08,0.11-0.15,0.22-0.21,0.34
		c0.34-0.36,0.7-0.69,1.07-1.01c0.45-0.36,0.95-0.65,1.48-0.88c0.32-0.12,0.66-0.15,0.99-0.1c0.36,0,0.7,0.26,0.64,0.6l-0.08,0.52
		l0.36-0.39c0.73-0.9,1.61-1.69,2.59-2.31c0.56-0.32,1.18-0.49,1.82-0.5c0.67-0.03,1.33,0.2,1.84,0.64l0.13,0.11l0.15-0.11
		c0.4-0.4,0.89-0.7,1.43-0.86c0.51-0.13,1.05,0.14,1.24,0.64l0.15,0.73l0.26-0.7c0.3-0.75,1.12-1.14,1.89-0.9
		c0.45,0.18,0.8,0.56,0.94,1.03l0.11,0.44l0.26-0.37c0.76-1.11,2.28-1.4,3.4-0.64c0.53,0.36,0.89,0.92,1.02,1.55v0.34l0.24-0.24
		c0.36-0.39,0.99-0.2,1.45,0c0.45,0.28,0.87,0.6,1.25,0.96c0.67,0.54,1.27,1.17,1.78,1.87
		C832.33,266.52,832.64,267.28,832.77,268.08z"/>
	<path class="st4" d="M833.96,280.71c0,0,0-0.1,0.13-0.31c0.1-0.32,0.18-0.64,0.24-0.96c0.11-0.54,0.07-1.11-0.11-1.63
		c-0.13-0.32-0.32-0.61-0.57-0.85c-0.3-0.28-0.7-0.43-1.11-0.42l0.15,0.2c0.23-0.72,0.04-1.52-0.5-2.05
		c-0.65-0.6-1.6-0.72-2.38-0.29l0.28,0.24c0.21-0.67-0.02-1.39-0.59-1.81c-0.58-0.39-1.31-0.51-1.99-0.31
		c-0.3,0.11-0.6,0.2-0.91,0.26c-0.28,0.03-0.55-0.1-0.7-0.33c-0.23-0.28-0.5-0.52-0.8-0.72c-0.33-0.21-0.72-0.3-1.11-0.26
		c-0.75,0.12-1.49,0.31-2.2,0.59c-0.61,0.26-1.3,0.26-1.91,0c-0.26-0.15-0.5-0.41-0.8-0.62c-0.3-0.22-0.64-0.36-1.01-0.41
		c-0.69-0.08-1.39,0.17-1.87,0.67l0.31,0.18c0.18-0.71-0.13-1.44-0.77-1.81c-0.52-0.33-1.15-0.45-1.76-0.33
		c-0.92,0.21-1.79,0.59-2.57,1.11c-0.5,0.33-0.98,0.7-1.42,1.11c-0.29,0.29-0.44,0.46-0.42,0.47c0.02,0.02,0.65-0.6,1.95-1.38
		c0.77-0.48,1.62-0.81,2.51-0.99c0.52-0.1,1.07,0.01,1.51,0.29c0.48,0.29,0.73,0.86,0.6,1.42l-0.24,0.77l0.55-0.57
		c0.43-0.43,1.03-0.62,1.63-0.52c0.3,0.03,0.59,0.15,0.83,0.33c0.26,0.23,0.53,0.45,0.81,0.65c0.35,0.17,0.73,0.26,1.12,0.26
		c0.38-0.04,0.76-0.11,1.12-0.21c0.67-0.26,1.37-0.45,2.08-0.57c0.31-0.02,0.61,0.05,0.88,0.2c0.27,0.19,0.5,0.41,0.7,0.67
		c0.26,0.31,0.66,0.47,1.06,0.44c0.33-0.07,0.65-0.16,0.96-0.28c0.55-0.16,1.14-0.08,1.63,0.23c0.43,0.3,0.62,0.83,0.47,1.34
		l-0.2,0.52l0.47-0.28c0.62-0.38,1.42-0.3,1.95,0.2c0.42,0.43,0.59,1.04,0.46,1.63v0.21h0.21c0.65,0.03,1.22,0.45,1.45,1.06
		c0.18,0.47,0.23,0.98,0.16,1.48C834.06,280.25,833.93,280.71,833.96,280.71z"/>
	<path class="st4" d="M843.49,301.73c0.13-0.07,0.25-0.15,0.36-0.24c0.3-0.29,0.54-0.63,0.72-1.01c0.27-0.61,0.33-1.29,0.18-1.94
		c-0.21-0.85-0.75-1.59-1.5-2.04v0.21c0.32-0.74,0.48-1.54,0.47-2.35c-0.03-0.46-0.19-0.9-0.47-1.27c-0.29-0.41-0.75-0.68-1.25-0.73
		l0.15,0.34c0.55-0.68,0.7-1.61,0.39-2.43c-0.15-0.47-0.43-0.88-0.8-1.21c-0.37-0.31-0.82-0.5-1.3-0.54c-0.44,0-0.68-0.2-0.81-0.59
		c-0.13-0.41-0.34-0.79-0.62-1.12c-0.54-0.57-1.23-0.98-1.99-1.19l-1.86-0.65c-0.91-0.34-1.88-0.49-2.85-0.44
		c-0.26,0.02-0.52,0.07-0.77,0.15c-0.16,0-0.24,0.11-0.24,0.13c0.34-0.06,0.68-0.1,1.03-0.11c0.94,0.01,1.87,0.21,2.74,0.57
		l1.82,0.7c0.7,0.19,1.33,0.58,1.82,1.11c0.24,0.3,0.42,0.64,0.54,1.01c0.08,0.24,0.23,0.45,0.42,0.6c0.2,0.14,0.44,0.22,0.68,0.24
		c1.2,0.17,2.04,1.28,1.88,2.48c-0.05,0.36-0.19,0.71-0.41,1.01l-0.28,0.33h0.42c0.8,0.13,1.38,0.82,1.37,1.63
		c0.01,0.75-0.13,1.5-0.42,2.2v0.15h0.11c0.69,0.4,1.19,1.04,1.4,1.81c0.16,0.59,0.13,1.21-0.1,1.78
		C844.13,300.83,843.85,301.31,843.49,301.73z"/>
	<path class="st4" d="M796.81,279.66c0.41-0.21,0.78-0.49,1.07-0.85c0.37-0.35,0.65-0.79,0.81-1.27c0.24-0.62,0.2-1.31-0.11-1.89
		c-0.08-0.14-0.18-0.26-0.29-0.37v0.31c0.44-0.42,0.67-1.02,0.62-1.63c-0.05-0.49-0.28-0.94-0.65-1.25
		c-0.64-0.52-1.19-0.42-1.17-0.39c0.36,0.14,0.69,0.35,0.98,0.6c0.66,0.61,0.69,1.65,0.08,2.3c-0.02,0.03-0.05,0.05-0.08,0.08
		l-0.15,0.15l0.15,0.16c0.09,0.08,0.16,0.17,0.21,0.28c0.27,0.5,0.31,1.09,0.11,1.63c-0.14,0.44-0.37,0.84-0.67,1.19
		C797.14,279.19,796.76,279.55,796.81,279.66z"/>
	<path class="st4" d="M786.03,278.03c-0.38-0.38-0.63-0.88-0.72-1.42c-0.11-0.61,0.12-1.23,0.59-1.63c0.6-0.49,1.43-0.58,2.12-0.21
		l0.33,0.16v-0.36c-0.04-0.45,0-0.9,0.11-1.34c0.12-0.44,0.41-0.81,0.81-1.03c0.62-0.28,1.53,0.11,1.51,0.7h0.41
		c-0.14-0.82,0.05-1.67,0.52-2.36c0.41-0.55,0.98-0.97,1.63-1.19c0.59-0.18,1.2-0.24,1.81-0.18c-0.15-0.09-0.32-0.14-0.49-0.16
		c-0.47-0.07-0.95-0.03-1.4,0.1c-0.71,0.2-1.33,0.63-1.76,1.22c-0.56,0.76-0.8,1.71-0.65,2.64h0.41c-0.01-0.47-0.31-0.89-0.75-1.06
		c-0.42-0.19-0.91-0.19-1.34,0c-0.53,0.25-0.91,0.72-1.04,1.29c-0.15,0.48-0.19,1-0.11,1.5l0.28-0.2c-0.82-0.37-1.77-0.22-2.44,0.37
		c-0.51,0.47-0.74,1.16-0.62,1.84c0.07,0.43,0.28,0.83,0.59,1.14C785.87,277.9,786.02,278.03,786.03,278.03z"/>
	<path class="st12" d="M818.54,295.66c0.2-0.21,8.58-6.78,12.13,3.05c3.55,9.82-7.02,11.4-7.13,11.07
		C823.42,309.45,818.54,295.66,818.54,295.66z"/>
	<path class="st13" d="M825.18,304.97c0,0,0.21,0,0.55,0.1c0.47,0.02,0.93-0.14,1.29-0.44c0.99-1.29,1.21-3.02,0.57-4.51
		c-0.28-0.85-0.74-1.63-1.35-2.28c-0.42-0.55-1.08-0.86-1.78-0.83c-0.44,0.04-0.79,0.39-0.83,0.83c0,0.33,0.1,0.49,0,0.52
		c-0.1,0.03-0.26,0-0.33-0.52c-0.04-0.26,0.02-0.53,0.16-0.75c0.19-0.3,0.5-0.52,0.85-0.59c0.88-0.14,1.77,0.19,2.35,0.86
		c0.74,0.7,1.3,1.56,1.63,2.52c0.74,1.75,0.36,3.78-0.96,5.15c-0.47,0.33-1.07,0.45-1.63,0.31
		C825.28,305.2,825.15,305,825.18,304.97z"/>
	<path class="st11" d="M797.25,445.78c0,0,19.54,2.33,32.57-6.27c13.03-8.6,29.32-42.05,29.32-42.05s-32.65,37.72-63.52,42.57
		L797.25,445.78z"/>
	<path class="st6" d="M834.32,365.35c-11.12,14.48-32.08,41.82-32.08,41.82l-77.57,11.4l4.06,25.7l77.07-4.41
		c11.35-1.02,21.9-6.32,29.49-14.82c9.43-10.55,22.26-25.18,30.28-35.32c6.78-8.57,5.32-21.02-3.25-27.79
		c-0.49-0.38-0.99-0.74-1.51-1.08l0,0C852.15,355.2,840.62,357.16,834.32,365.35z"/>
	<path class="st4" d="M867.5,628.58c-0.23,0-5.23-22.8-11.16-51.02c-5.93-28.22-10.55-51.14-10.33-51.19
		c0.23-0.05,5.23,22.8,11.16,51.02C863.1,605.62,867.72,628.53,867.5,628.58z"/>
	<path class="st4" d="M913.5,610c0.18,0.16-0.98,1.63-2.56,3.26c-1.58,1.63-3.03,2.87-3.26,2.7c0.64-1.24,1.51-2.35,2.57-3.26
		C911.92,611.06,913.42,609.83,913.5,610z"/>
	<path class="st3" d="M846.78,350.67c0,0-0.24,0.37-0.77,1.06l-2.31,3.03l-8.91,11.4l-32.28,41.22v0.11h-0.15l-77.56,11.4l0.36-0.47
		c0.77,4.72,1.63,9.77,2.41,14.82c0.6,3.78,1.22,7.54,1.82,11.24l-0.46-0.36l82.13-5.1l0,0c5.02-1.13,9.81-3.12,14.15-5.88
		c3.92-2.47,7.46-5.5,10.49-9.01l14.82-17.07l9.53-10.91l2.52-2.85c0.57-0.64,0.9-0.94,0.9-0.94s-0.26,0.36-0.81,1.03l-2.44,2.92
		l-9.38,11.03c-4.09,4.76-9.02,10.54-14.66,17.18c-6.48,7.61-15.22,12.93-24.95,15.2l0,0l-82.12,5.24h-0.39v-0.39
		c-0.6-3.7-1.21-7.46-1.82-11.24c-0.81-5.08-1.63-10.1-2.41-14.82v-0.42h0.42l77.59-11.3l-0.23,0.13l32.57-40.99l9.06-11.4
		l2.39-2.96C846.49,351,846.78,350.67,846.78,350.67z"/>
	<path class="st3" d="M856.42,438.28c-0.25,0.6-0.58,1.18-0.96,1.71c-0.67,1.07-1.63,2.57-3.06,4.35
		c-7.21,9.33-16.52,16.82-27.17,21.87c-1.59,0.77-3.22,1.46-4.89,2.07c-0.6,0.26-1.22,0.45-1.86,0.59c0-0.15,2.52-1.16,6.51-3.26
		c10.4-5.29,19.58-12.68,26.97-21.71C854.79,440.51,856.24,438.19,856.42,438.28z"/>
	<path class="st3" d="M863.49,449.81c0.11,0.2-6.79,4.33-15.41,9.23c-8.62,4.9-15.72,8.71-15.83,8.52s6.78-4.35,15.41-9.25
		C856.29,453.41,863.37,449.59,863.49,449.81z"/>
	<path class="st3" d="M786.06,404.12c-0.24-0.52-0.43-1.07-0.55-1.63c-0.36-1.25-0.8-2.75-1.32-4.53
		c-1.12-4.02-2.57-9.22-4.19-14.95s-3.03-11.14-4.02-15l-1.12-4.56c-0.16-0.53-0.26-1.08-0.31-1.63c0.28,0.51,0.49,1.06,0.62,1.63
		c0.36,1.06,0.83,2.59,1.4,4.49c1.12,3.81,2.64,9.09,4.25,14.95c1.61,5.86,3,11.16,3.96,15.02
		C785.4,399.94,785.83,402.02,786.06,404.12z"/>
	<g class="st8">
		<path d="M826.08,473.94c7.64-0.8,15.42-0.99,22.54-3.88c7.12-2.88,13.68-7.95,16.73-15C852.83,462.49,839.69,468.8,826.08,473.94z
			"/>
	</g>
	<path class="st14" d="M690.98,452.07c-0.16,0.18-1.63,1.63-2.93,2.87c-1.54,1.47-2.66,3.33-3.26,5.37
		c-0.64,2.3-1.04,4.09-1.14,4.23l-3.13,10.08l11.73,8.6l1.87-8.49c2.71-1.08,5.23-2.57,7.48-4.43c2.59-2.49,3.76-3.62,4.43-5.77
		c0.26-0.81,0.14-1.7-0.33-2.41c0,0-0.15-4.63-1.82-4.77c0.48-1.18,0.6-2.47,0.33-3.71c-1.07-2.33-4.32-2.15-4.32-2.15
		c0.48-0.36,0.58-1.04,0.22-1.53c-0.09-0.12-0.21-0.22-0.34-0.3c-0.7-0.43-1.62-0.27-2.13,0.37l-6.51,5.81L690.98,452.07z"/>
	<path class="st6" d="M597.09,481.38c-4.8,7.56-3.36,17.5,3.39,23.39c15.46,13.49,57.33,36.94,63.61,35.83
		c9.07-1.51,32.82-54.36,32.82-54.36l-17.67-14.56l-22.08,35.83c0,0-18.24-17.21-32.57-28.5c-8.66-6.86-21.63-7-27.57,2.33
		L597.09,481.38z"/>
	<path class="st3" d="M623.8,478.36c0.22,0.15,0.44,0.31,0.64,0.49l1.76,1.48l6.73,5.78l24.43,21.17l-0.49,0.08l22.02-35.83
		l0.24-0.39l0.36,0.29l17.67,14.54l0.24,0.21l-0.13,0.29c-1.87,4.14-3.92,8.49-6.06,12.87c-3.73,7.67-7.54,15.1-11.51,22.1
		c-2,3.5-4.04,6.89-6.21,10.11c-1.09,1.63-2.2,3.26-3.42,4.66c-1.16,1.52-2.53,2.87-4.07,4.01c-0.81,0.6-1.81,0.89-2.82,0.83
		c-0.93-0.1-1.85-0.31-2.74-0.6c-1.74-0.54-3.4-1.21-5.02-1.87c-3.26-1.4-6.29-2.88-9.22-4.38c-5.86-3-11.2-6.03-16.03-8.86
		c-9.63-5.7-17.15-10.75-22.18-14.46c-2.51-1.86-4.41-3.37-5.67-4.43c-0.64-0.52-1.11-0.96-1.42-1.24
		c-0.16-0.13-0.32-0.28-0.46-0.44c0.19,0.11,0.36,0.23,0.52,0.37l1.45,1.17c1.29,1.01,3.26,2.48,5.77,4.3
		c5.08,3.62,12.64,8.58,22.3,14.2c4.89,2.8,10.18,5.78,16.03,8.75c2.93,1.48,5.99,2.96,9.2,4.32c1.63,0.67,3.26,1.32,4.89,1.84
		c0.84,0.28,1.7,0.47,2.57,0.57c0.84,0.04,1.66-0.21,2.33-0.72c1.46-1.1,2.77-2.4,3.88-3.86c1.19-1.45,2.28-3.01,3.37-4.59
		c2.13-3.26,4.17-6.51,6.16-10.08c3.96-6.99,7.74-14.4,11.4-22.05c2.13-4.38,4.19-8.73,6.06-12.85l0.11,0.49l-17.64-14.56l0.59-0.1
		l-22.15,35.83l-0.21,0.33l-0.29-0.26l-24.25-21.45l-6.6-5.91c-0.73-0.67-1.3-1.17-1.63-1.63
		C624.13,478.72,623.96,478.54,623.8,478.36z"/>
	<path class="st9" d="M603.32,191.59c-0.17,0.58-0.43,1.13-0.77,1.63c-1.95,3.37-1.84,7.55,0.28,10.81l3.71,5.67l0.44,8.73
		l18.92,4.53l-0.88-15.37c0,0,3.13-6.51,3.16-10.88c0.03-4.36-1.12-9.04-2.57-9.23l-1.87-0.26c-0.83-1.44-2.17-2.51-3.76-3
		c0,0-1.14-5.67-3.09-6.16c-1.95-0.49-3.7,1.51-3.7,1.51s-2.43-4.63-4.48-4.32c-2.43,0.34-4.23,2.43-4.2,4.89l-1.25,11.99
		L603.32,191.59z"/>
	<path class="st1" d="M559.16,12.28c-0.84-2.52-3.57-3.87-6.08-3.02c-2.44,0.82-3.8,3.42-3.09,5.89l228.25,727.05l9.98,0.41
		L559.16,12.28z"/>
	<path class="st6" d="M565.06,21.9c0,0-60.65,41.35-107.49,45.08c-46.84,3.73-100.08,7.31-127.99,38.65
		c0,0,103.11,16.17,108.91,29.89c0,0-61.63,48.96-70.96,77.05c0,0,44.33-15.7,53.48-19.54c30.39-12.88,89.48-7.15,111.98-15.26
		c24.92-9.01,48.52-34.3,69.04-38.22L565.06,21.9z"/>
	<polygon class="st15" points="494.87,74.65 514.04,93.92 540.78,89.07 528.37,113.25 541.25,137.18 514.43,132.86 495.63,152.5 
		491.46,125.64 466.97,113.85 491.22,101.59 	"/>
	<path class="st3" d="M546.43,64.15c-0.09,0.38-0.21,0.75-0.36,1.11l-1.19,3.13c-0.5,1.35-1.17,3.01-2.02,4.89
		c-0.85,1.87-1.74,4.06-2.93,6.35c-1.19,2.3-2.39,4.89-3.91,7.54c-1.51,2.65-3.13,5.47-4.89,8.42c-4,6.29-8.35,12.36-13.03,18.16
		c-4.71,5.76-9.75,11.23-15.1,16.4c-2.52,2.33-4.89,4.58-7.23,6.51c-2.35,1.94-4.53,3.76-6.51,5.36c-1.99,1.6-3.96,2.95-5.64,4.15
		c-1.68,1.21-3.14,2.2-4.36,2.98l-2.82,1.79c-0.32,0.22-0.66,0.42-1.01,0.59c0.27-0.28,0.58-0.52,0.91-0.72l2.74-1.94
		c1.19-0.81,2.64-1.82,4.27-3.08c1.63-1.25,3.55-2.59,5.54-4.25c1.99-1.66,4.22-3.39,6.51-5.42s4.67-4.22,7.17-6.51
		c5.3-5.18,10.32-10.65,15.02-16.38c4.67-5.77,9.02-11.79,13.03-18.05c1.79-2.92,3.52-5.67,4.97-8.34s2.8-5.15,3.97-7.46
		s2.15-4.43,3.03-6.29s1.63-3.49,2.15-4.89l1.34-3.06C546.16,64.8,546.28,64.47,546.43,64.15z"/>
	<path class="st3" d="M580.78,127.16c-0.16-0.28-0.28-0.58-0.36-0.9l-0.86-2.57c-0.75-2.38-1.78-5.62-3.05-9.58
		c-2.52-8.14-5.96-19.28-9.67-31.66s-6.99-23.63-9.27-31.81c-1.14-4.07-2.02-7.39-2.59-9.77c-0.28-1.16-0.47-2.05-0.57-2.67
		c-0.06-0.24-0.09-0.48-0.1-0.72c0,0,0-0.21,0.1-0.16l0,0c-0.13-0.16,0,0.16,0.13,0.77l0.73,2.62l2.83,9.63
		c2.48,8.14,5.81,19.38,9.51,31.73l9.43,31.74c1.16,3.97,2.1,7.25,2.8,9.64c0.29,1.06,0.52,1.94,0.72,2.62
		C580.67,126.42,580.74,126.79,580.78,127.16z"/>
	<g class="st8">
		<path d="M559.54,53.59c0.68,14.9,1.38,29.89,4.72,44.43s9.46,28.73,19.77,39.51c-9.32-27.63-17.49-55.62-24.53-83.97"/>
	</g>
	<path class="st12" d="M684.34,411.16c0.44,0,7.75,0,12.1,0c2.05,0,4.03,0.75,5.55,2.12l9.22,8.29l13.45-1.53l3.75,22.23l-18.57-0.7
		c-4.21,1.23-8.55,1.97-12.93,2.23c-4.89,0-10.2-1.5-10.37-3.13c-0.18-1.63-0.24-2.13-0.24-2.13c-1.59-0.97-2.76-2.52-3.26-4.32
		c0,0-6.38-1.43-6.89-3.66s1.81-4.14,1.81-4.14s-5.13-2.83-4.77-5.16c0.35-1.5,1.3-2.79,2.62-3.58l10.08-1.35L684.34,411.16z"/>
	<path class="st3" d="M654.55,402.2c4.43,6.07,5.62,13.93,3.18,21.04c-1.21,3.39-3.26,7.07-1.63,10.31c1.63,3.24,5.9,4.32,7.3,7.59
		c1.63,3.83-1.73,7.96-1.89,12.15c-0.04,4.06,2.87,7.54,6.87,8.22c-5.41,2.41-11.39,3.29-17.26,2.52l-2.82-6.73
		c0.91,2.56-0.04,5.41-2.3,6.92c-2.24,1.41-4.84,2.13-7.49,2.08c-12.79,0.43-25.05-5.14-33.14-15.05"/>
	<path class="st3" d="M581.39,415.1c1.79-2.26,3.47-4.61,5.02-7.04c2.83-5.52,1.78-12.88,6.04-17.38c3.03-3.26,7.83-3.86,12.25-4.01
		c4.41-0.15,9.07,0,12.91-2.2c2.82-1.63,4.89-4.25,7.72-5.85c4.01-2.28,8.96-2.07,13.48-1.14c4.69,0.8,9.1,2.79,12.78,5.8
		c3.71,3.07,5.74,7.73,5.46,12.54c-0.52,2.25-0.86,4.54-1.03,6.84c0.13,2.54,1.47,4.89,2,7.33c1.04,5.44-1.74,10.89-6.74,13.26
		l-42.34,31.95c-7.25,0.7-22.38-6.64-26.14-12.88C579.05,436.09,577.39,421.19,581.39,415.1z"/>
	<path class="st14" d="M651.87,417.88c1.21-9.53-2.83-22.28-12.41-23.08l-30.73,1.82c-2.91-0.24-5.52,1.78-6.01,4.66l-10.34,71.28
		h-0.2c0,0,2.82,21.17,23.37,18.86c4.07-0.47,5.42,1.25,7.02-2.92l0,0l0.1-0.5c1.25-5.28,3.6-16.17,3.6-16.17l0,0
		c1.14-5.7,1.63-8.05,1.63-7.98s12.43,0.29,17.91-14.93C648.48,441.37,650.53,428.49,651.87,417.88z"/>
	<path class="st3" d="M625.71,427.35c-0.21,1.08-1.24,1.8-2.33,1.63c-1.07-0.12-1.85-1.08-1.73-2.15c0-0.02,0-0.04,0.01-0.06
		c0.21-1.08,1.24-1.8,2.33-1.63c1.07,0.12,1.85,1.08,1.73,2.15C625.72,427.31,625.71,427.33,625.71,427.35z"/>
	<path class="st3" d="M646.33,430.43c-0.22,1.07-1.24,1.79-2.33,1.63c-1.08-0.12-1.86-1.09-1.75-2.17c0-0.01,0-0.03,0.01-0.04
		c0.22-1.07,1.24-1.79,2.33-1.63c1.08,0.12,1.86,1.09,1.75,2.17C646.33,430.4,646.33,430.41,646.33,430.43z"/>
	<path class="st3" d="M648.59,424.45c-0.31,0.29-1.84-1.35-4.23-1.63s-4.28,0.88-4.51,0.5s0.24-0.73,1.07-1.29
		c2.25-1.48,5.25-1.07,7.04,0.94C648.56,423.67,648.74,424.32,648.59,424.45z"/>
	<path class="st3" d="M626.59,421.13c-0.36,0.24-1.81-1.55-4.32-2.12s-4.63,0.36-4.89,0c-0.26-0.36,0.33-0.7,1.25-1.14
		c1.24-0.55,2.63-0.68,3.96-0.37c1.31,0.3,2.49,1.04,3.34,2.08C626.64,420.36,626.78,421.01,626.59,421.13z"/>
	<path class="st3" d="M631.23,437.93c1.21-0.14,2.44-0.14,3.65,0c0.57,0,1.11,0,1.27-0.31c0.18-0.56,0.18-1.15,0-1.71
		c-0.26-1.45-0.54-2.95-0.83-4.53c-0.86-3.86-1.41-7.78-1.63-11.73c1.15,3.78,1.99,7.65,2.51,11.56c0.28,1.63,0.52,3.09,0.77,4.54
		c0.22,0.74,0.17,1.53-0.13,2.23c-0.24,0.36-0.63,0.59-1.06,0.64c-0.32,0.04-0.64,0.04-0.96,0
		C633.59,438.55,632.39,438.32,631.23,437.93z"/>
	<path class="st16" d="M627.84,463.88c-7.42-1.3-14.33-4.63-19.97-9.63c0,0,3.06,11.76,19.05,13.29L627.84,463.88z"/>
	<path class="st6" d="M629.33,442.98c-0.65-1.22-1.88-2.02-3.26-2.12c-0.99-0.1-1.97,0.21-2.72,0.86c-0.74,0.62-1,1.64-0.65,2.54
		c0.56,0.93,1.63,1.44,2.7,1.27c1.09-0.17,2.14-0.56,3.08-1.14c0.28-0.12,0.54-0.3,0.75-0.52c0.21-0.21,0.27-0.53,0.15-0.8"/>
	<path class="st3" d="M624.57,438.23c0.36,0,0,2.39,1.63,4.45c1.63,2.05,4.25,2.28,4.2,2.61c-0.05,0.33-0.64,0.36-1.71,0.18
		c-1.38-0.24-2.63-0.96-3.53-2.04c-0.86-1.04-1.29-2.37-1.19-3.71C624.05,438.71,624.42,438.18,624.57,438.23z"/>
	<path class="st3" d="M628.41,413.83c-0.33,0.55-2.43-0.15-5.03-0.33c-2.61-0.18-4.79,0.13-5.03-0.47c-0.1-0.28,0.36-0.77,1.3-1.17
		c2.51-0.99,5.34-0.77,7.67,0.6C628.12,413.02,628.49,413.57,628.41,413.83z"/>
	<path class="st3" d="M648.2,417.59c-0.52,0.41-2.13-0.42-4.19-0.85c-2.05-0.42-3.84-0.39-4.15-0.98c-0.13-0.28,0.24-0.72,1.09-1.04
		c2.34-0.74,4.9-0.19,6.73,1.47C648.3,416.84,648.45,417.4,648.2,417.59z"/>
	<path class="st3" d="M601.9,397.15c2.2-1.6,4.84-2.48,7.56-2.51c11.6-1.21,23.31-1.03,34.87,0.54c0.77,2.67-1.37,5.44-3.91,6.51
		c-2.63,0.85-5.38,1.28-8.14,1.29c-2.75,0.26-5.72,1.01-7.43,3.26c-1.71,2.25-1.73,5.68-3.42,8.14c-2.9,4.15-9.77,3.89-12.62,8.14
		c-2.18,3.14-1.17,7.41-1.63,11.22c-0.96,7.52-7.83,12.84-15.35,11.89c-0.59-0.07-1.17-0.19-1.75-0.34
		c2.83-13.43,5.66-26.86,8.49-40.29C599.1,402.05,599.77,399.06,601.9,397.15z"/>
	<path class="st3" d="M566.18,423.32c2.61-1.3,5.65-2.2,7.21-4.66c2.28-3.57,0.39-9.01,3.37-12.02c2.72-2.74,8.14-1.09,10.7-3.94
		c2.04-2.23,1.12-4.89,2.25-7.07c1.62-2.23,4.49-3.17,7.12-2.35l10.96,31.07c-0.7,9.23-0.28,14.36-3.57,18.99
		c-1.97,2.4-3.68,5.01-5.1,7.78c-1.42,2.84-1.19,6.23,0.59,8.86c-11.03-2.08-19.54-10.49-27.49-18.48l-8.32-8.47
		c-0.94-0.81-1.66-1.84-2.1-3C561,427.25,563.59,424.61,566.18,423.32z"/>
	<path class="st4" d="M572.68,438.8c0.34,0.22,0.71,0.4,1.09,0.54c1.1,0.42,2.26,0.64,3.44,0.67c5.94,0.1,10.84-4.64,10.94-10.58
		c0-0.13,0-0.25,0-0.38c-0.11-1.55-0.41-3.09-0.91-4.56c-0.55-1.52-0.87-3.11-0.94-4.72c-0.09-1.67,0.58-3.29,1.82-4.41
		c1.34-1.06,3.26-0.88,5.13-1.11c2.12-0.08,3.89-1.63,4.27-3.71c0.29-1.97,0.39-3.97,0.31-5.96c0.03-0.96,0.27-1.9,0.72-2.75
		c0.48-0.83,1.25-1.47,2.17-1.78c1.91-0.52,3.93-0.52,5.85,0c1.98,0.45,4.05,0.41,6.01-0.13c1.88-0.57,3.57-1.64,4.89-3.09
		c1.17-1.44,2.12-3.05,2.82-4.77c0.63-1.6,1.42-3.14,2.36-4.58c0.96-1.29,2.18-2.36,3.58-3.14c4.77-2.61,10.69-1.87,14.66,1.86
		c1.33,1.23,2.43,2.69,3.26,4.3c0.71,1.39,1.25,2.86,1.63,4.38c0.01-0.1,0.01-0.21,0-0.31c0-0.2,0-0.5-0.16-0.9
		c-0.25-1.13-0.64-2.22-1.16-3.26c-0.81-1.67-1.91-3.17-3.26-4.45c-1.81-1.72-4.07-2.9-6.51-3.4c-2.98-0.55-6.05-0.08-8.73,1.34
		c-1.48,0.8-2.77,1.91-3.78,3.26c-0.97,1.47-1.8,3.03-2.46,4.66c-0.67,1.67-1.58,3.23-2.72,4.63c-1.26,1.37-2.87,2.38-4.66,2.9
		c-1.87,0.52-3.83,0.56-5.72,0.1c-2.03-0.55-4.16-0.55-6.19,0c-1.05,0.36-1.93,1.09-2.49,2.05c-0.51,0.94-0.78,1.98-0.81,3.05
		c0.08,1.95-0.01,3.91-0.28,5.85c-0.31,1.84-1.87,3.2-3.73,3.26c-0.91,0.13-1.84,0.13-2.77,0.24c-0.95,0.09-1.86,0.43-2.64,0.98
		c-1.38,1.24-2.13,3.03-2.02,4.89c0.09,1.67,0.42,3.32,0.99,4.89c0.5,1.43,0.81,2.91,0.93,4.41c0.04,1.38-0.2,2.76-0.7,4.06
		c-0.84,2.25-2.45,4.14-4.54,5.33c-1.59,0.87-3.38,1.33-5.2,1.32C575.62,439.71,574.1,439.39,572.68,438.8z"/>
	<path class="st3" d="M563.27,416.27c-0.25,0.22-0.46,0.49-0.6,0.8c-0.42,0.87-0.52,1.87-0.26,2.8c0.37,1.53,1.59,2.72,3.13,3.06
		c2.02,0.51,4.16-0.15,5.54-1.71c0.78-0.89,1.34-1.95,1.63-3.09c0.3-1.23,0.37-2.51,0.21-3.76c-0.21-2.57-1.16-5.28-0.46-8.01
		c0.27-1.38,1.09-2.6,2.26-3.37c1.35-0.61,2.88-0.67,4.27-0.16c1.54,0.55,3.17,0.82,4.8,0.78c0.88-0.11,1.71-0.49,2.36-1.09
		c0.63-0.61,1.12-1.35,1.43-2.17c0.51-1.58,0.81-3.23,0.91-4.89c0.17-1.55,0.67-3.04,1.47-4.38c1.52-2.55,3.95-4.42,6.81-5.23
		c2.64-0.55,5.37-0.44,7.95,0.33c2.32,0.63,4.73,0.9,7.13,0.78c1.99-0.2,3.91-0.79,5.67-1.74c1.32-0.7,2.53-1.61,3.57-2.69
		c0.92-0.88,1.67-1.93,2.21-3.08c-0.7,1.04-1.51,2.01-2.39,2.9c-1.05,1.02-2.26,1.88-3.57,2.54c-1.71,0.91-3.59,1.47-5.52,1.63
		c-2.36,0.09-4.72-0.2-6.99-0.85c-2.67-0.79-5.49-0.92-8.22-0.37c-3.01,0.84-5.59,2.81-7.2,5.49c-0.87,1.41-1.42,2.98-1.63,4.63
		c-0.1,1.61-0.39,3.21-0.88,4.76c-0.47,1.48-1.73,2.59-3.26,2.87c-1.56,0.01-3.11-0.25-4.58-0.77c-1.55-0.54-3.24-0.45-4.72,0.24
		c-1.32,0.85-2.24,2.21-2.52,3.76c-0.32,1.41-0.36,2.87-0.11,4.3c0.2,1.35,0.47,2.65,0.6,3.91c0.17,1.19,0.12,2.41-0.15,3.58
		c-0.28,1.08-0.8,2.08-1.53,2.92c-1.27,1.45-3.24,2.07-5.11,1.63c-0.76-0.18-1.45-0.56-2-1.11c-1.1-1.17-1.43-2.87-0.83-4.36
		C562.86,416.84,563.06,416.55,563.27,416.27z"/>
	<path class="st3" d="M675.38,453.62c0.05,1-0.23,1.99-0.8,2.82c-0.67,0.94-1.72,1.53-2.87,1.63c-1.53,0.03-2.95-0.81-3.66-2.17
		c-0.41-0.77-0.52-1.66-0.33-2.51c0.22-0.94,0.61-1.83,1.16-2.62c1.07-1.63,2.78-3.34,3.26-5.77c0.48-2.5-0.11-5.09-1.63-7.13
		c-0.78-1.07-1.76-1.98-2.88-2.69c-1.16-0.7-2.4-1.25-3.7-1.63c-1.25-0.36-2.47-0.83-3.63-1.42c-1.09-0.55-1.94-1.47-2.41-2.59
		c-0.38-1.12-0.45-2.33-0.2-3.49c0.24-1.14,0.64-2.23,1.19-3.26c1.14-1.9,2.05-3.94,2.69-6.06c0.4-1.93,0.23-3.94-0.5-5.77
		c-0.65-1.47-1.58-2.81-2.72-3.94c-0.83-0.84-1.59-1.74-2.28-2.7c-0.56-0.84-0.95-1.77-1.16-2.75c0,0,0,0,0,0.2
		c-0.02,0.2-0.02,0.4,0,0.6c0.16,0.75,0.46,1.46,0.88,2.1c0.66,0.99,1.41,1.93,2.23,2.8c1.07,1.12,1.93,2.43,2.54,3.86
		c0.68,1.75,0.82,3.66,0.41,5.49c-0.64,2.07-1.54,4.05-2.69,5.9c-0.57,1.07-1,2.22-1.25,3.4c-0.29,1.27-0.23,2.59,0.2,3.83
		c0.52,1.27,1.48,2.31,2.7,2.93c1.19,0.61,2.44,1.1,3.73,1.47c1.24,0.35,2.44,0.86,3.55,1.51c1.06,0.66,1.98,1.52,2.72,2.52
		c1.42,1.9,1.97,4.3,1.51,6.63c-0.39,2.23-1.99,3.84-3.11,5.6c-0.57,0.86-0.97,1.81-1.19,2.82c-0.21,0.96-0.06,1.97,0.41,2.83
		c0.8,1.49,2.4,2.39,4.09,2.3c1.26-0.12,2.38-0.82,3.05-1.89c0.44-0.64,0.69-1.39,0.7-2.17
		C675.42,454.08,675.42,453.85,675.38,453.62z"/>
	<path class="st6" d="M463.6,694l31.69-6.73l5.28,26.06l-23.29,0.52l0.23,21.01c10.46,2.95,11.92,8.24,11.92,8.24l-21.86-0.5
		l-19.02-38.68L463.6,694z"/>
	<g class="st7">
		<polygon class="st5" points="448.55,703.85 467.57,742.53 489.43,743.04 487.05,739.7 469.28,738.32 451.74,701.75 		"/>
	</g>
	<path class="st3" d="M477.59,725.17c-0.16,0.23-1.42-0.52-3.11-0.5s-2.95,0.68-3.11,0.46s1.06-1.45,3.13-1.42
		S477.78,725.01,477.59,725.17z"/>
	<path class="st3" d="M477.34,719.96c-0.21,0.15-1.16-1.16-2.9-1.63c-1.74-0.47-3.14,0.39-3.26,0.16c-0.11-0.23,0.2-0.46,0.81-0.78
		c0.83-0.41,1.78-0.52,2.69-0.31c0.9,0.2,1.71,0.7,2.3,1.42C477.37,719.39,477.46,719.9,477.34,719.96z"/>
	<path class="st3" d="M477.64,713.27c-0.24,0.13-0.96-1.16-2.46-1.73s-2.9-0.08-3-0.33c-0.1-0.24,0.23-0.42,0.83-0.64
		c1.67-0.54,3.5,0.13,4.41,1.63C477.73,712.88,477.75,713.24,477.64,713.27z"/>
	<path class="st3" d="M479.25,713.27c-0.26,0-0.1-1.45-0.77-2.93c-0.67-1.48-1.71-2.33-1.63-2.57c0.08-0.24,1.63,0.37,2.48,2.2
		S479.48,713.38,479.25,713.27z"/>
	<path class="st3" d="M481.84,710.79c-0.33-0.94-0.51-1.93-0.52-2.93c-0.1-1.04-0.2-2.12-0.29-3.26c-0.1-0.68-0.1-1.37,0-2.05
		c0.12-0.45,0.41-0.84,0.81-1.07c0.45-0.29,1.03-0.29,1.48,0c0.59,0.51,1.03,1.19,1.25,1.94c0.22,0.64,0.35,1.31,0.39,1.99
		c0.06,1.12-0.13,2.23-0.57,3.26c-0.78,1.78-1.89,2.43-1.92,2.35c0.47-0.84,0.9-1.7,1.29-2.59c0.31-0.97,0.42-1.99,0.33-3
		c-0.06-0.59-0.19-1.17-0.41-1.73c-0.17-0.56-0.48-1.06-0.9-1.47c-0.14-0.1-0.32-0.1-0.46,0c-0.18,0.12-0.3,0.3-0.36,0.5
		c-0.07,0.58-0.07,1.16,0,1.74c0,1.09,0,2.17,0,3.26C482.09,708.75,482.05,709.79,481.84,710.79z"/>
	<path class="st3" d="M482.2,711.75c-0.1,0,0.55-1.01,2.23-1.63c2.33-0.74,4.87,0.17,6.21,2.21c0.1,0.28,0.06,0.59-0.1,0.85
		c-0.13,0.22-0.33,0.38-0.57,0.47c-0.33,0.12-0.68,0.19-1.03,0.2c-1.59,0.15-3.2-0.1-4.67-0.73c-1.63-0.68-2.28-1.48-2.21-1.63
		c0.84,0.26,1.66,0.57,2.46,0.93c0.88,0.28,1.8,0.44,2.72,0.49c0.54,0.04,1.09,0.04,1.63,0c0.26-0.01,0.51-0.06,0.75-0.15
		c0.18-0.11,0.13-0.08,0.13-0.15c0-0.07-0.23-0.33-0.44-0.52c-0.19-0.19-0.41-0.36-0.64-0.5c-0.43-0.3-0.9-0.53-1.4-0.68
		c-0.85-0.27-1.76-0.32-2.64-0.15C483.79,711.04,482.98,711.37,482.2,711.75z"/>
	<g class="st7">
		<path class="st5" d="M466.01,703.58c-0.02,1.44-1.2,2.59-2.64,2.57s-2.59-1.2-2.57-2.64c0.02-1.44,1.2-2.59,2.64-2.57
			c0.01,0,0.02,0,0.03,0C464.89,700.98,466.03,702.15,466.01,703.58z"/>
	</g>
	<path class="st6" d="M704.13,696.85l-0.31,28.63c0,0,30.49,11.4,30.94,16.63h-57l-1.37-44.62L704.13,696.85z"/>
	<g class="st7">
		<path class="st5" d="M686.59,723.51c-1.09,0.37-1.73,1.5-1.5,2.62c0.32,1.12,1.46,1.79,2.59,1.51c1.19-0.36,1.89-1.57,1.63-2.78
			c-0.45-1.13-1.72-1.69-2.87-1.27"/>
	</g>
	<g class="st7">
		<path class="st5" d="M677.76,742.19v-4.51l53.22,0.33c0,0,3.99,2.44,3.75,4.19L677.76,742.19z"/>
	</g>
	<path class="st3" d="M704.71,725.17c0,0.28-1.35,0.42-2.67,1.34c-1.32,0.91-1.99,2.07-2.23,1.95s0.1-1.63,1.71-2.74
		C703.13,724.62,704.76,724.93,704.71,725.17z"/>
	<path class="st3" d="M710.61,727.44c0,0.26-1.11,0.75-1.99,1.92s-1.12,2.39-1.4,2.38c-0.28-0.02-0.49-1.53,0.65-2.96
		C709.01,727.34,710.59,727.18,710.61,727.44z"/>
	<path class="st3" d="M714.1,734.33c-0.24,0-0.67-1.29,0-2.78c0.67-1.5,1.91-2.13,2.02-1.91s-0.64,1.03-1.16,2.28
		S714.36,734.29,714.1,734.33z"/>
	<path class="st3" d="M704.06,718.64c-0.11,0.24-1.37-0.1-2.9,0c-1.53,0.1-2.7,0.65-2.85,0.42c-0.15-0.23,0.98-1.22,2.78-1.37
		S704.19,718.43,704.06,718.64z"/>
	<g class="st8">
		<polygon points="704.06,702.52 704.01,707.62 676.72,708.07 676.56,703.48 		"/>
	</g>
	<path class="st3" d="M704.01,712.88c-0.91,0.25-1.87,0.25-2.78,0c-1.01-0.15-1.99-0.43-2.93-0.83c-0.56-0.23-1.1-0.5-1.63-0.8
		c-0.32-0.17-0.61-0.38-0.86-0.64c-0.37-0.39-0.44-0.97-0.16-1.43c0.26-0.39,0.7-0.63,1.17-0.65c0.36-0.02,0.71,0.02,1.06,0.11
		c0.6,0.13,1.18,0.31,1.74,0.55c0.95,0.41,1.83,0.96,2.61,1.63c1.32,1.16,1.78,2.17,1.63,2.21c-0.15,0.05-0.77-0.73-2.12-1.63
		c-0.77-0.55-1.62-1-2.51-1.34c-0.53-0.19-1.07-0.34-1.63-0.44c-0.59-0.15-1.09-0.13-1.24,0.13c-0.15,0.26,0,0.15,0,0.31
		c0.19,0.18,0.4,0.33,0.64,0.46c0.5,0.31,1.01,0.57,1.5,0.81c0.87,0.4,1.78,0.72,2.7,0.96
		C702.15,712.42,703.09,712.61,704.01,712.88z"/>
	<path class="st3" d="M703.67,713.27c-0.54-0.78-0.82-1.72-0.8-2.67c-0.13-1.64,0.2-3.29,0.96-4.76c0.28-0.76,0.94-1.31,1.74-1.45
		c0.5-0.01,0.96,0.28,1.17,0.73c0.16,0.32,0.26,0.67,0.31,1.03c0.1,0.62,0.1,1.25,0,1.87c-0.14,1.04-0.52,2.04-1.12,2.9
		c-1.04,1.47-2.17,1.82-2.2,1.73s0.85-0.68,1.63-2.08c0.47-0.81,0.74-1.71,0.81-2.64c0.06-0.54,0.03-1.09-0.08-1.63
		c-0.11-0.59-0.34-1.06-0.55-0.98c-0.21,0.08-0.73,0.46-0.96,0.93c-0.25,0.5-0.47,1.01-0.65,1.53c-0.28,0.9-0.43,1.84-0.46,2.78
		C703.51,712.21,703.82,713.22,703.67,713.27z"/>
	<path class="st3" d="M552.89,636.33c1.95,0,11.3,38.13,11.3,38.13l-86.45,12.88l5.49,34.48c0,0,102.07-6.82,109.12-8.42
		c12.44-2.83,21.86-14.87,21.45-30.67c-0.47-18.19-11.11-61.04-11.11-61.04L552.89,636.33z"/>
	<path class="st11" d="M607.24,642.55l-50.16,3.63c0,0,4.17,8.66,18.29,9.67c14.12,1.01,34.72,0,34.72,0L607.24,642.55z"/>
	<path class="st3" d="M714.26,607.16c-1.34-15.66-14.5-27.65-30.21-27.54h-15.37l-83.06,4.3l-45.15-13.73
		c0,0-15.68,28.03-6.66,51.45c5.4,14.32,18.03,24.67,33.13,27.17c18.78,3.26,104.79-14.9,104.79-14.9v76.55l39.09-1.01l3.53-100.8
		C714.32,608.16,714.29,607.67,714.26,607.16z"/>
	<path class="st4" d="M671.75,633.91l-0.5,0.13l-1.51,0.31l-5.83,1.09l-21.45,3.86l-31.82,5.64l-18.81,3.26
		c-6.76,1.25-13.65,1.64-20.5,1.16c-3.48-0.24-6.94-0.79-10.33-1.63c-3.31-0.78-6.52-1.97-9.54-3.52
		c-5.67-3.13-10.42-7.68-13.78-13.21c-3.09-4.93-5.24-10.39-6.34-16.11c-0.96-4.97-1.15-10.06-0.55-15.08
		c1.05-7.22,2.95-14.28,5.65-21.06c0.96-2.39,1.82-4.2,2.44-5.41c0.33-0.6,0.57-1.06,0.75-1.35s0.28-0.46,0.29-0.44
		c-0.06,0.16-0.13,0.32-0.21,0.47c-0.18,0.36-0.39,0.81-0.67,1.4c-0.57,1.22-1.38,3.05-2.3,5.44c-2.57,6.78-4.36,13.83-5.36,21.01
		c-0.55,4.96-0.33,9.97,0.64,14.87c1.11,5.62,3.25,10.99,6.32,15.83c3.3,5.42,7.97,9.88,13.53,12.93c2.97,1.51,6.12,2.67,9.36,3.44
		c3.35,0.84,6.76,1.38,10.2,1.63c6.79,0.46,13.61,0.08,20.31-1.14l18.81-3.26l31.86-5.44l21.5-3.6l5.85-0.94l1.53-0.21
		C671.43,633.93,671.59,633.91,671.75,633.91z"/>
	<path class="st4" d="M569.28,715.86h-0.42l-1.24,0.11l-4.89,0.41l-17.91,1.35l-61.59,4.38h-0.37v-0.36
		c-1.42-8.88-2.93-18.35-4.49-28.11l-1.01-6.37v-0.42h0.42l86.48-12.7l0,0l0,0c4.63,2.26,8.96,5.1,12.87,8.45
		c1.35,1.17,2.33,2.15,2.96,2.82l0.72,0.78c0.15,0.18,0.23,0.28,0.21,0.28c-0.02,0-0.1,0-0.26-0.23l-0.77-0.73
		c-0.67-0.64-1.63-1.63-3.03-2.72c-3.96-3.23-8.3-5.96-12.91-8.14h0.15l-86.41,13.03l0.36-0.49l1.01,6.37
		c1.55,9.77,3.05,19.23,4.46,28.11l-0.44-0.36l61.61-4.07l17.91-1.11l4.89-0.26h1.24L569.28,715.86z"/>
	<path class="st4" d="M680.42,624.54c-1.92,1.06-3.69,2.35-5.29,3.84c-1.39,1.68-2.57,3.53-3.5,5.5c-0.1,0,0-0.8,0.34-1.97
		c1.13-3.1,3.49-5.59,6.51-6.91C679.62,624.54,680.38,624.44,680.42,624.54z"/>
	<path class="st4" d="M610.6,582.88c-0.76,0.19-1.54,0.31-2.33,0.34c-1.5,0.18-3.66,0.34-6.35,0.49
		c-5.37,0.31-12.82,0.46-21.03,0.54c-8.21,0.08-15.63,0.21-20.99,0.52c-2.69,0.13-4.89,0.29-6.35,0.42
		c-0.77,0.11-1.55,0.15-2.33,0.13c0.75-0.24,1.52-0.39,2.3-0.46c1.5-0.23,3.66-0.49,6.35-0.7c5.36-0.46,12.8-0.67,21.03-0.77
		s15.62-0.13,20.99-0.29l6.37-0.21C609.03,582.82,609.82,582.82,610.6,582.88z"/>
	<path class="st6" d="M593.97,461.66l-0.86,1.03c-11.57,2.44-20.81,11.12-23.97,22.51c-3.16,11.17-4.14,31.82-10.6,59.82
		c0,0-15.88,14.36-18.84,25.18l45.88,13.83l25.03-1.4l9.67-30.03c9.36,0,13.35-4.69,16.73-12.38c4.48-10.23-10.29-57.15-10.29-57.15
		l1.06,8.01L593.97,461.66z"/>
	<path class="st11" d="M633.3,501.24l11.19,22.72l-6.86,1.04C637.63,525,633.4,502.93,633.3,501.24z"/>
	<path class="st3" d="M624.78,552.59c0-0.08,0.8-0.26,2.15-0.86c1.9-0.87,3.62-2.1,5.05-3.63c2.11-2.28,3.69-5,4.61-7.96
		c1.07-3.66,1.43-7.49,1.06-11.29c-0.35-3.84-0.98-7.65-1.87-11.4c-0.77-3.45-1.47-6.6-1.91-9.25c-0.35-2.1-0.57-4.22-0.65-6.35
		c-0.07-0.77-0.04-1.55,0.08-2.31c0.13,0.77,0.21,1.54,0.24,2.31c0.2,2.11,0.51,4.2,0.93,6.27c0.5,2.64,1.25,5.73,2.07,9.2
		c0.95,3.74,1.6,7.55,1.95,11.4c0.37,3.9-0.02,7.84-1.16,11.6c-0.98,3.05-2.65,5.84-4.89,8.14c-1.52,1.54-3.34,2.75-5.36,3.53
		c-0.53,0.2-1.07,0.36-1.63,0.47C624.99,552.59,624.78,552.62,624.78,552.59z"/>
	<path class="st11" d="M571.59,504.98c0,0,15.5,53.45,25.63,61.59c5.36,4.81,13.51,4.75,18.79-0.15l1.87-9.2L571.59,504.98z"/>
	<path class="st14" d="M717.99,500.72c-1.78-1.63-2.8-1.01-2.8-1.01s0.94-4.33-1.32-5.85c-0.68-0.47-1.07-0.72-1.27-0.83
		c-0.23-0.57-1.63-3.68-3.96-4.2c0,0-0.31-4.07-2.02-4.45c-3.26-0.72-4.61,2.75-4.61,2.75l-5.85,11.17l-2.78,11.4l-47.88,22.23
		l5.11,21.95l53.74-27.69l9.58-9.19C713.93,517.02,719.75,502.3,717.99,500.72z"/>
	<path class="st6" d="M575.14,488.88c0,1.71,27.02,72.23,39.8,77.15c4.87,1.91,78.61-25.78,78.61-25.78l-8.97-27.18
		c0,0-51.56,17.33-53.29,17.26c-1.73-0.07-17.83-44.67-17.83-44.67s-10.11-21.17-25.31-14.58
		C578.41,475.33,575.14,488.88,575.14,488.88z"/>
	<path class="st3" d="M631.28,530.36l0.96-0.36l2.8-0.96l10.73-3.58l38.68-12.69l0.34-0.11l0.11,0.33
		c2.72,8.24,5.77,17.41,9.01,27.17l0.11,0.36l-0.36,0.15c-11.56,4.45-24.23,9.22-37.46,13.94c-8.14,2.88-16.07,5.62-23.83,8.03
		c-3.89,1.17-7.7,2.35-11.55,3.26c-0.95,0.24-1.91,0.42-2.88,0.54l-1.47,0.21c-0.55,0.06-1.1,0.02-1.63-0.13
		c-1.82-0.74-3.42-1.92-4.67-3.44c-2.4-2.77-4.53-5.75-6.38-8.91c-1.82-3.05-3.47-6.06-5-9.01c-3.06-5.9-5.67-11.51-7.96-16.66
		c-4.59-10.31-7.96-18.79-10.24-24.67c-1.14-2.95-2-5.24-2.56-6.81c-0.28-0.75-0.49-1.34-0.64-1.78c-0.08-0.2-0.14-0.41-0.2-0.62
		c0.11,0.19,0.21,0.38,0.28,0.59l0.7,1.76l2.72,6.73c2.38,5.85,5.83,14.3,10.49,24.56c2.33,5.13,4.89,10.72,8.03,16.58
		c1.53,2.93,3.26,5.93,5.02,8.94c1.84,3.11,3.95,6.04,6.32,8.76c1.16,1.42,2.64,2.54,4.33,3.26c0.89,0.15,1.81,0.12,2.69-0.1
		c0.95-0.12,1.89-0.31,2.82-0.55c3.79-0.83,7.61-2.02,11.4-3.26c7.74-2.41,15.67-5.16,23.78-8.03c13.27-4.72,25.94-9.46,37.46-13.89
		l-0.24,0.49c-3.26-9.77-6.21-18.94-8.92-27.18l0.46,0.23l-38.78,12.41l-10.8,3.39l-2.83,0.86
		C631.67,530.29,631.28,530.36,631.28,530.36z"/>
	<path class="st3" d="M592.4,470.49c0.24-0.07,0.5-0.11,0.75-0.1c0.72-0.04,1.44-0.04,2.17,0c2.69,0.1,5.31,0.86,7.64,2.21
		c1.58,0.98,3,2.2,4.2,3.62c1.41,1.57,2.69,3.25,3.84,5.02c2.51,4.11,4.69,8.41,6.51,12.87c4.07,9.38,7.04,18.16,9.12,24.43
		c1.04,3.26,1.84,5.77,2.38,7.56c0.33,0.91,0.58,1.85,0.75,2.8c-0.41-0.88-0.77-1.78-1.06-2.7l-2.64-7.46
		c-2.23-6.3-5.28-15.03-9.33-24.43c-1.84-4.42-4.02-8.69-6.51-12.77c-1.11-1.75-2.36-3.41-3.71-4.98c-1.13-1.39-2.48-2.59-3.99-3.57
		c-2.23-1.36-4.74-2.18-7.35-2.41C593.45,470.52,592.4,470.57,592.4,470.49z"/>
	<path class="st16" d="M708.62,488.97c0.21,0.11-0.39,1.63-1.34,3.26c-0.94,1.63-1.89,2.92-2.08,2.8s0.39-1.63,1.34-3.26
		C707.48,490.15,708.43,488.86,708.62,488.97z"/>
	<path class="st16" d="M711.95,492.88c0.2,0.13-0.5,1.42-1.42,2.96s-1.63,2.78-1.91,2.69c-0.28-0.1,0.24-1.53,1.17-3.11
		S711.77,492.74,711.95,492.88z"/>
	<path class="st16" d="M715.19,499.67c0.21,0.1,0,1.11-0.62,2.26c-0.62,1.16-1.17,1.99-1.38,1.87c-0.21-0.11,0.08-1.11,0.64-2.25
		S714.99,499.53,715.19,499.67z"/>
	<path class="st3" d="M631.39,529.66c0.21,0.15-1.38,2.61-2.56,5.98c-1.17,3.37-1.51,6.27-1.78,6.25c-0.23-2.22,0.11-4.46,0.98-6.51
		C628.65,533.21,629.8,531.24,631.39,529.66z"/>
	<path class="st12" d="M646.33,283.93l-12.83-5.2c-1.22,2.14-0.66,4.86,1.32,6.34c2.29,2.02,4.86,3.71,7.62,5
		c0,0,1.47,6.51,4.76,9.77c3.29,3.26,10.72-1.92,10.72-1.92S657.84,288.25,646.33,283.93z"/>
	<path class="st9" d="M665.53,325.67c-1.53-2.15-3.06-0.86-3.06-0.86s1.82-4.56-0.37-6.63c-0.67-0.64-1.04-0.98-1.24-1.14
		c-0.16-0.67-1.12-4.32-3.58-5.33c0,0,0-4.28-1.82-4.98c-2.88-1.09-6.11,2.2-6.11,2.2l-7.43,10.93l-11.04,18.32l6.16,19.54
		l17.52-10.9l3.49-3.39C658.04,343.44,667.32,328.18,665.53,325.67z"/>
	<path class="st10" d="M657.42,311.54c0.2,0.13-0.34,1.37-1.21,2.77s-1.73,2.44-1.94,2.31c-0.21-0.13,0.34-1.35,1.22-2.75
		C656.38,312.46,657.22,311.41,657.42,311.54z"/>
	<path class="st10" d="M660.82,316.57c-0.04,1.56-0.62,3.06-1.63,4.25c-1.47,2.12-3.26,3.18-3.42,2.98
		c-0.16-0.2,1.37-1.48,2.72-3.47C659.85,318.34,660.59,316.49,660.82,316.57z"/>
	<path class="st10" d="M662.39,324.09c0.2,0.1-0.16,1.37-1.16,2.64s-2.13,1.92-2.26,1.74c-0.13-0.18,0.68-1.09,1.63-2.26
		C661.54,325.04,662.16,323.99,662.39,324.09z"/>
	<path class="st12" d="M628.85,300.95c2.1,2.51,4.77,4.49,7.78,5.78c1.19,0.61,2.54,0.84,3.86,0.65c1.35-0.24,2.33-1.42,2.33-2.78
		c-0.22-0.96-0.76-1.81-1.55-2.41l-5.81-5.6c0.62,1.05,1.4,1.99,2.31,2.8c0.92,0.83,2.16,1.21,3.39,1.03
		c1.24-0.25,2.12-1.35,2.08-2.61c-0.17-0.74-0.53-1.42-1.04-1.97l-7.57-9.61"/>
	<path class="st13" d="M642.78,305.23c0,0,0.1,0.29-0.1,0.73c-0.31,0.62-0.81,1.12-1.42,1.45c-0.88,0.51-1.88,0.78-2.9,0.8
		c-1.24-0.04-2.45-0.41-3.5-1.06c-2.7-1.46-4.87-3.74-6.19-6.51c1.95,2.2,4.17,4.15,6.61,5.8c0.93,0.58,2,0.93,3.09,1.01
		c0.89,0.02,1.78-0.17,2.59-0.54C641.74,306.56,642.37,305.97,642.78,305.23z"/>
	<path class="st13" d="M643.07,298.78c0,0,0,0.28-0.26,0.68c-0.38,0.56-0.97,0.96-1.63,1.11c-2.22,0.3-4.46-0.33-6.21-1.74
		c-1.65-1.41-2.96-3.17-3.84-5.15c-0.46-0.76-0.78-1.59-0.94-2.46c0.11,0,0.64,0.8,1.47,2.18c1,1.79,2.29,3.4,3.83,4.76
		c1.59,1.25,3.57,1.89,5.59,1.81C642.57,299.78,642.97,298.67,643.07,298.78z"/>
	<path class="st13" d="M640.9,307.35c0,0,0.33,0,0.73,0.39c0.57,0.54,0.92,1.27,0.99,2.05c0.07,1.21-0.53,2.36-1.55,3.01
		c-1.28,0.68-2.81,0.71-4.12,0.1c-2.29-0.85-4.31-2.28-5.88-4.15c-0.71-0.72-1.23-1.59-1.53-2.56c0.11,0,0.72,0.88,1.97,2.15
		c1.61,1.66,3.57,2.94,5.73,3.76c1.08,0.52,2.33,0.52,3.4,0c0.82-0.49,1.34-1.37,1.37-2.33c-0.01-0.67-0.23-1.31-0.64-1.84
		C641.1,307.56,640.87,307.35,640.9,307.35z"/>
	<path class="st13" d="M649.59,300.93c-1.52-0.13-2.93-0.87-3.91-2.05c-1.12-1.2-1.95-2.63-2.43-4.2c-0.29-0.91-0.5-1.85-0.64-2.8
		c-0.03-0.44-0.15-0.87-0.36-1.25c-0.26-0.34-0.62-0.59-1.03-0.72c-1.83-0.75-3.56-1.72-5.16-2.88c-1.26-1.04-2.21-2.4-2.77-3.94
		c-0.45-1.02-0.57-2.16-0.36-3.26c0.06-0.41,0.24-0.79,0.52-1.09c0,0-0.11,0.41-0.2,1.14c-0.07,1.03,0.13,2.06,0.59,2.98
		c0.62,1.4,1.58,2.62,2.8,3.55c1.57,1.09,3.25,2.01,5.02,2.74c0.57,0.19,1.06,0.56,1.4,1.04c0.27,0.5,0.43,1.06,0.47,1.63
		c0.11,0.9,0.28,1.8,0.54,2.67c0.72,2.94,2.8,5.36,5.6,6.51L649.59,300.93z"/>
	<path class="st14" d="M690.15,452.43l9.98-7.74c1.64,1.56,1.82,4.1,0.42,5.88c-1.52,2.34-3.36,4.46-5.47,6.29
		c0,0,0.33,6.07-1.74,9.77c-2.07,3.7-9.89,0.98-9.89,0.98S681.05,459.07,690.15,452.43z"/>
	<path class="st14" d="M705.5,462.49c-1.22,2.02-2.89,3.73-4.89,5c-0.98,0.39-2.06,0.48-3.09,0.28c-0.98-0.1-1.76-0.89-1.84-1.87
		c0.12-0.7,0.47-1.34,0.99-1.82l3.86-4.35c-0.4,0.79-0.91,1.51-1.51,2.15c-0.62,0.64-1.49,0.98-2.38,0.93
		c-0.9-0.11-1.59-0.85-1.63-1.76c0.08-0.54,0.3-1.05,0.64-1.48l4.89-7.33"/>
	<path class="st14" d="M705.5,465.93c-1.04,2.1-2.72,3.81-4.8,4.89c-0.79,0.48-1.73,0.65-2.64,0.47c-0.77-0.26-1.35-0.91-1.51-1.71
		c-0.12-0.81,0.2-1.62,0.85-2.12"/>
	<path class="st16" d="M697.39,467.41c0.11,0.08-0.65,0.65-0.57,1.82c0.08,0.65,0.48,1.22,1.07,1.5c0.78,0.28,1.64,0.2,2.35-0.23
		c1.49-0.71,2.81-1.72,3.89-2.96c0.83-0.98,1.24-1.63,1.37-1.63c0.13,0-0.13,0.85-0.9,1.97c-1.02,1.46-2.4,2.63-4.01,3.39
		c-0.94,0.53-2.07,0.58-3.06,0.15c-0.81-0.43-1.31-1.27-1.32-2.18c-0.02-0.61,0.21-1.19,0.64-1.63
		C697.14,467.43,697.37,467.36,697.39,467.41z"/>
	<path class="st16" d="M695.92,465.99c0.38,0.45,0.88,0.8,1.43,1.01c0.59,0.22,1.22,0.29,1.84,0.21c0.77-0.12,1.49-0.42,2.12-0.88
		c1.63-1.35,3.13-2.83,4.49-4.45c-0.7,2.13-2.12,3.96-4.02,5.15c-0.74,0.54-1.6,0.87-2.51,0.96c-0.75,0.05-1.5-0.1-2.17-0.44
		c-0.47-0.21-0.86-0.56-1.11-1.01C695.84,466.22,695.87,466.01,695.92,465.99z"/>
	<path class="st16" d="M695.32,461.84c0.13-0.1,0.5,0.64,1.63,0.65c1.42-0.08,2.77-0.66,3.81-1.63c1.02-1.05,1.86-2.26,2.49-3.58
		c0.54-1.03,0.9-1.63,0.99-1.63s0,0.75-0.44,1.86c-0.52,1.49-1.36,2.85-2.48,3.97c-1.19,1.13-2.8,1.72-4.45,1.63
		c-0.52-0.06-1-0.33-1.32-0.75C695.32,462.07,695.28,461.86,695.32,461.84z"/>
	<path class="st16" d="M691.38,468.19c1-0.84,1.82-1.87,2.43-3.03c0.57-1.28,0.87-2.66,0.86-4.06c-0.01-0.83-0.07-1.67-0.18-2.49
		c-0.11-0.5-0.11-1.02,0-1.51c0.19-0.52,0.53-0.97,0.98-1.29c1.37-1.07,2.62-2.28,3.73-3.62c0.85-1.11,1.41-2.41,1.63-3.79
		c0.16-0.93,0.08-1.88-0.23-2.77c-0.23-0.6-0.49-0.9-0.44-0.94s0.37,0.18,0.75,0.81c0.46,0.91,0.64,1.95,0.5,2.96
		c-0.13,1.51-0.66,2.96-1.55,4.19c-1.12,1.42-2.39,2.7-3.81,3.81c-0.33,0.21-0.59,0.52-0.73,0.88c-0.07,0.38-0.07,0.77,0,1.16
		c0.12,0.87,0.17,1.75,0.15,2.62c-0.04,1.5-0.42,2.98-1.11,4.32C693.78,466.72,692.7,467.72,691.38,468.19z"/>
	<path class="st10" d="M619.13,185.48c0.38,1.42,0.57,2.88,0.55,4.35c0.07,1.62-0.13,3.25-0.59,4.8c-0.27,0.96-0.75,1.85-1.4,2.61
		c-0.39,0.42-0.9,0.71-1.45,0.86c-0.62,0.16-1.27,0.06-1.81-0.28c-0.86-0.72-1.44-1.72-1.63-2.82c-0.23-0.97-0.41-1.89-0.54-2.78
		c-0.24-1.58-0.36-3.17-0.34-4.77c-0.08-1.47,0.09-2.95,0.5-4.36c0.13,0,0,1.63,0.1,4.35c0.08,1.56,0.24,3.12,0.5,4.66
		c0.16,0.88,0.34,1.78,0.59,2.7c0.14,0.89,0.59,1.71,1.27,2.31c0.74,0.39,1.66,0.2,2.18-0.46c0.58-0.65,1.01-1.43,1.25-2.26
		c0.47-1.48,0.71-3.01,0.73-4.56C619.01,188.38,619.03,186.93,619.13,185.48z"/>
	<path class="st10" d="M624.99,189.55c0.22,0.77,0.29,1.58,0.2,2.38c0.02,1.97-0.45,3.91-1.35,5.65c-0.29,0.51-0.64,0.97-1.06,1.38
		c-0.43,0.44-1.01,0.69-1.63,0.7c-1.02-0.08-1.89-0.76-2.21-1.73c-0.33-0.77-0.37-1.63-0.11-2.43c0.16,0,0.15,0.94,0.67,2.18
		c0.28,0.67,0.91,1.12,1.63,1.19c0.73,0,1.43-0.81,1.95-1.73c0.83-1.64,1.33-3.43,1.48-5.26
		C624.58,191.1,624.73,190.31,624.99,189.55z"/>
	<path class="st9" d="M607.24,215.79c5.18-3.26,0.85-20.86-2.38-25c3.53-3.58,5.15-7.61,2.64-11.97c-3.26,3.26-8.81,7.31-9.77,16.29
		l1.01,6.86L607.24,215.79z"/>
	<path class="st10" d="M608.54,208.48c0.26-1.55,0.44-3.11,0.54-4.67c0.03-3.77-1.23-7.43-3.57-10.39c-0.53-0.67-1.11-1.3-1.74-1.87
		l-0.37-0.36l0.42-0.29c2.59-1.83,4.16-4.78,4.25-7.95c-0.03-1.29-0.18-2.57-0.44-3.83c0.22,0.28,0.38,0.6,0.47,0.94
		c0.32,0.93,0.5,1.9,0.52,2.88c0.04,1.49-0.25,2.97-0.85,4.33c-0.76,1.71-1.95,3.2-3.47,4.3v-0.65c0.67,0.6,1.29,1.26,1.84,1.97
		c2.47,3.1,3.71,6.99,3.49,10.94c-0.06,1.18-0.26,2.34-0.62,3.47C608.94,207.72,608.78,208.12,608.54,208.48z"/>
</g>
</svg>
