<?xml version="1.0" encoding="utf-8"?>
<!-- Generator: Adobe Illustrator 23.1.0, SVG Export Plug-In . SVG Version: 6.00 Build 0)  -->
<svg version="1.1" id="Layer_1" xmlns="http://www.w3.org/2000/svg" xmlns:xlink="http://www.w3.org/1999/xlink" x="0px" y="0px"
	 viewBox="0 0 1366 768" style="enable-background:new 0 0 1366 768;" xml:space="preserve">
<style type="text/css">
	.st0{opacity:0.7;fill:#FFFFFF;enable-background:new    ;}
	.st1{fill:#92E3A9;}
	.st2{fill:none;stroke:#263238;stroke-linecap:round;stroke-linejoin:round;}
	.st3{fill:none;stroke:#263238;stroke-width:2;stroke-linecap:round;stroke-linejoin:round;}
	.st4{fill:#999999;}
	.st5{clip-path:url(#SVGID_2_);}
	.st6{opacity:0.3;fill-opacity:0.7;enable-background:new    ;}
	.st7{clip-path:url(#SVGID_4_);}
	.st8{fill:#BFBFBF;stroke:#263238;stroke-linecap:round;stroke-linejoin:round;}
	.st9{fill:#FFFFFF;stroke:#263238;stroke-linecap:round;stroke-linejoin:round;}
	.st10{fill:#92E3A9;stroke:#263238;stroke-linecap:round;stroke-linejoin:round;}
	.st11{clip-path:url(#SVGID_6_);}
	.st12{opacity:0.2;enable-background:new    ;}
	.st13{fill:#263238;}
	.st14{clip-path:url(#SVGID_8_);}
	.st15{fill:none;stroke:#FFFFFF;stroke-linecap:round;stroke-linejoin:round;}
	.st16{fill:none;stroke:#263238;stroke-miterlimit:10;}
	.st17{clip-path:url(#SVGID_10_);}
	.st18{fill:none;stroke:#263238;stroke-width:0.5;stroke-linecap:round;stroke-linejoin:round;}
	.st19{clip-path:url(#SVGID_12_);}
	.st20{fill:#999999;stroke:#263238;stroke-linecap:round;stroke-linejoin:round;}
	.st21{clip-path:url(#SVGID_14_);}
	.st22{opacity:0.5;fill:#FFFFFF;enable-background:new    ;}
	.st23{opacity:0.2;fill:#FFFFFF;enable-background:new    ;}
	.st24{opacity:0.3;fill:#FFFFFF;enable-background:new    ;}
	.st25{fill:#757575;stroke:#263238;stroke-linecap:round;stroke-linejoin:round;}
	.st26{fill:none;stroke:#999999;stroke-linecap:round;stroke-linejoin:round;}
	.st27{fill:none;stroke:#92E3A9;stroke-linecap:round;stroke-linejoin:round;}
	.st28{fill:none;stroke:#BFBFBF;stroke-linecap:round;stroke-linejoin:round;}
	.st29{fill:none;stroke:#757575;stroke-linecap:round;stroke-linejoin:round;}
</style>
<g id="freepik--background-simple--inject-17">
	<path class="st0" d="M375.84,239.2c0,0-48.34,124.83,19.59,250.52s207.83,192.09,319.81,248.87
		c111.98,56.78,228.26,29.13,283.51-63.87s-20.53-159.38-20.63-291.99s19.85-167.72-52.01-279.75S678.09-33.85,544.87,49.24
		S375.84,239.2,375.84,239.2z"/>
	<path class="st1" d="M409.39,725.04c0,0-154.99-212.19-58.95-375.27s286.8-51.16,323.12-203.36
		c36.32-152.2,168.9-177.15,294.62,13.18s95.65,455.01,29.07,565.46H409.39z"/>
	<path class="st0" d="M408.71,725.04c0,0-155.01-212.19-58.95-375.27s286.8-51.16,323.11-203.36s168.9-177.15,294.62,13.18
		s95.63,455.01,29.13,565.46H408.71z"/>
</g>
<g id="freepik--Floor--inject-17">
	<line class="st2" x1="313.56" y1="725.87" x2="1069.38" y2="725.87"/>
</g>
<g id="freepik--speech-bubble--inject-17">
	<path class="st2" d="M913.23,133.12c43.14-7.32,84.05,21.72,91.37,64.86c5.06,29.83-7.31,59.94-31.88,77.6"/>
	<path class="st2" d="M880.19,146.92c7.35-5.3,15.56-9.3,24.27-11.82"/>
	<path class="st2" d="M888.14,280.48c-38.26-21.2-52.09-69.39-30.9-107.65c3.48-6.28,7.8-12.06,12.83-17.17"/>
	<polyline class="st2" points="884.35,305.48 879.61,309.66 886.98,284.47 	"/>
	<path class="st2" d="M939.81,289.33c-11.66,2.01-23.61,1.36-34.99-1.89l-14.93,13.18"/>
	<path class="st2" d="M957.98,283.93c-2.95,1.27-5.98,2.36-9.07,3.26"/>
	<path class="st2" d="M933.64,172.68c21.71,3.71,36.3,24.32,32.59,46.02c-3.71,21.71-24.32,36.3-46.02,32.59
		c-21.71-3.71-36.3-24.32-32.59-46.02c2.81-16.43,15.54-29.37,31.91-32.46"/>
	<path class="st2" d="M919.54,255.52c-24.05-4.1-40.22-26.91-36.13-50.95"/>
	<path class="st2" d="M968.5,226.91c-5.54,15.32-19.06,26.35-35.18,28.71"/>
	<path class="st2" d="M886.81,193.56c10.2-22.16,36.43-31.86,58.6-21.66c18.13,8.34,28.42,27.81,25.09,47.49"/>
	<line class="st3" x1="953.45" y1="196.07" x2="953.97" y2="195.52"/>
	<line class="st3" x1="946.38" y1="203.7" x2="949.91" y2="199.9"/>
	<polyline class="st3" points="903.21,209.28 920.22,231.89 943.29,207.03 	"/>
</g>
<g id="freepik--Character--inject-17">
	<rect x="777.52" y="579.98" class="st4" width="204.54" height="145.89"/>
	<g>
		<defs>
			<rect id="SVGID_1_" x="777.52" y="579.98" width="204.54" height="145.89"/>
		</defs>
		<clipPath id="SVGID_2_">
			<use xlink:href="#SVGID_1_"  style="overflow:visible;"/>
		</clipPath>
		<g class="st5">
			<polygon class="st6" points="777.52,725.88 883.51,725.88 883.51,642.56 982.07,638.3 982.07,632.99 777.52,632.99 			"/>
		</g>
	</g>
	<rect x="777.52" y="579.98" class="st2" width="204.54" height="145.89"/>
	<rect x="772.66" y="577.9" class="st4" width="214.27" height="54.63"/>
	<g>
		<defs>
			<rect id="SVGID_3_" x="772.66" y="577.9" width="214.27" height="54.63"/>
		</defs>
		<clipPath id="SVGID_4_">
			<use xlink:href="#SVGID_3_"  style="overflow:visible;"/>
		</clipPath>
		<g class="st7">
			<rect x="772.66" y="577.9" class="st6" width="113.59" height="54.63"/>
		</g>
	</g>
	<rect x="772.66" y="577.9" class="st2" width="214.27" height="54.63"/>
	<path class="st2" d="M886.25,618.33v7.61"/>
	<path class="st2" d="M886.25,603.21v8.44"/>
	<path class="st2" d="M886.25,577.9v19.28"/>
	<line class="st2" x1="883.51" y1="716.47" x2="883.51" y2="719.63"/>
	<line class="st2" x1="883.51" y1="669.83" x2="883.51" y2="709.62"/>
	<line class="st2" x1="883.51" y1="632.98" x2="883.51" y2="655.77"/>
	<rect x="938.96" y="620.91" class="st8" width="10.28" height="27.22"/>
	<path class="st9" d="M798.98,395.08c-10.92,4.54-59.38,9.83-59.38,9.83c7.66-16.78,17-32.73,27.88-47.62l-14.27-9.54
		c0,0-37.69,40.55-46.97,69.12c0,0-2.77,12.92-0.94,14.75c1.84,1.84,17.34,7.56,46.62,9.73c29.28,2.17,50.28,2.7,50.28,2.7"/>
	<path class="st10" d="M743.15,356.18c0,0,11.15,10.78,20.06,10.23l6.93-10.9c0,0,22.24-11.08,19.69-16.63s-4.82-1.73-4.82-1.73
		l9.85-6.64c0,0-12.33-7.33-14.94-7.32c-2.62,0.02-9.31-1.25-13.77,0.59c-4.46,1.84-12.59,21.46-12.59,21.46L743.15,356.18z"/>
	<path class="st10" d="M767.77,351.98c0,0,4.78-1.87,6.35-5.2s0-9.6,0-9.6"/>
	<path class="st10" d="M772.12,333.31c1.95,2.8,5.75,3.6,8.67,1.84"/>
	<path class="st10" d="M775.73,330.47c3.2,2.04,6.28,4.25,9.22,6.64"/>
	<path class="st10" d="M789.22,334.23l-7.25-6"/>
	<path class="st2" d="M739.57,404.91c-0.32,6.95-2.31,13.73-5.81,19.75"/>
	<path class="st1" d="M824.41,388.89c0,0-36.41,3.22-43.24,7.33c-6.83,4.11-22.42,5.65-22.42,5.65s6.93,19.54,0,39.96l6.4,5.58
		c0,0,11.89-1.13,14.63,0c2.74,1.13,31.03,9.34,31.03,9.34"/>
	<g>
		<defs>
			<path id="SVGID_5_" d="M824.41,388.89c0,0-36.41,3.22-43.24,7.33c-6.83,4.11-22.42,5.65-22.42,5.65s6.93,19.54,0,39.96l6.4,5.58
				c0,0,11.89-1.13,14.63,0c2.74,1.13,31.03,9.34,31.03,9.34"/>
		</defs>
		<clipPath id="SVGID_6_">
			<use xlink:href="#SVGID_5_"  style="overflow:visible;"/>
		</clipPath>
		<g class="st11">
			<path class="st12" d="M799.26,453.38c-8.15-2.41-17.91-5.32-19.47-5.96c-2.74-1.13-14.63,0-14.63,0l-3.59-3.14
				c5.2-7.66,8.3-17.34,10.4-17.34c1.13,0,3.57,3.14,5.86,6.69c-1.73-11.01,2.17-25.54,4.11-13.18
				C783.38,429.55,792.04,443.33,799.26,453.38z"/>
		</g>
	</g>
	<path class="st2" d="M824.41,388.89c0,0-36.41,3.22-43.24,7.33c-6.83,4.11-22.42,5.65-22.42,5.65s6.93,19.54,0,39.96l6.4,5.58
		c0,0,11.89-1.13,14.63,0c2.74,1.13,31.03,9.34,31.03,9.34"/>
	<path class="st8" d="M796.31,671.52c0,0,13.52,39.32,12.93,51.66c0,0-22.02,5.5-33.25,4.13s-33.63,0.43-45.53,0.21
		c-11.89-0.23-13.26-2.96-13.26-2.96s-0.92-5.03,6.93-9.59c7.85-4.56,39.32-6.93,42.06-29.75S796.31,671.52,796.31,671.52z"/>
	<path class="st13" d="M956.59,523.37c0,0,11.95,32.33,5.31,52.81c-6.64,20.47-54.16,35.61-64.72,35.61
		c-10.56,0-94.99-21.12-94.99-21.12l-4.23,4.63l-13-5.29l20.47,94.38c0,0,9.9,5.29,0,8.58c-9.9,3.29-47.52,3.31-48.18,0
		c-0.36-2.85-0.36-5.73,0-8.58l-5.58-10.56c0,0,1.02-18.48,0-21.12c-1.02-2.64-43.26-90.46-25.5-111.58
		c17.75-21.12,123.09-3.97,123.09-3.97l13.44-13.87L956.59,523.37z"/>
	<g>
		<defs>
			<path id="SVGID_7_" d="M956.59,523.37c0,0,11.95,32.33,5.31,52.81c-6.64,20.47-54.16,35.61-64.72,35.61
				c-10.56,0-94.99-21.12-94.99-21.12l-4.23,4.63l-13-5.29l20.47,94.38c0,0,9.9,5.29,0,8.58c-9.9,3.29-47.52,3.31-48.18,0
				c-0.36-2.85-0.36-5.73,0-8.58l-5.58-10.56c0,0,1.02-18.48,0-21.12c-1.02-2.64-43.26-90.46-25.5-111.58
				c17.75-21.12,123.09-3.97,123.09-3.97l13.44-13.87L956.59,523.37z"/>
		</defs>
		<clipPath id="SVGID_8_">
			<use xlink:href="#SVGID_7_"  style="overflow:visible;"/>
		</clipPath>
		<g class="st14">
			<path class="st12" d="M787.55,590.99l10.4,4.23l4.23-4.63c0,0,84.43,21.2,94.99,21.2c10.56,0,58.1-15.17,64.72-35.64
				c0.51-1.58,0.91-3.2,1.2-4.84c-7.26,7.18-21.34,19.49-36.13,23.72c0,0,4.32-4.52-7.16-6.93s-46.69-58.23-46.69-58.23l-15.43-1.21
				l-8.43,8.6c0,0-16.24-2.65-37.05-4.58C805.1,552.56,796.87,572.03,787.55,590.99z"/>
			<path class="st12" d="M751.67,652.69c1.02,2.64,0,21.12,0,21.12l5.58,10.56c-0.36,2.85-0.36,5.73,0,8.58
				c0.66,3.29,38.28,3.29,48.18,0c9.9-3.29,0-8.58,0-8.58l-19.54-90.03c-10.4,20.44-23.06,40.64-36.67,52.95
				C750.63,650.4,751.53,652.32,751.67,652.69z"/>
			<path class="st15" d="M784.95,589.98c0,0,5.98-10.8,2.65-18.59"/>
			<path class="st15" d="M782.25,573.65c0.4,3.18,0.54,6.39,0.43,9.59"/>
			<path class="st15" d="M779.53,561.2c0.75,2.3,1.36,4.65,1.84,7.02"/>
			<path class="st15" d="M769.32,605.05c0,0-0.55,31.45-17.65,47.64"/>
			<path class="st15" d="M775.42,665.31c-4.63,6.93-10.3,15.43-18.17,19.07"/>
			<path class="st15" d="M781.12,655.86c-0.88,1.63-1.82,3.22-2.77,4.82"/>
			<path class="st12" d="M961.67,541.77c-1.27-6.24-2.97-12.39-5.08-18.39h-4.11l-19.4,11.27
				C933.08,534.64,929.56,543.08,961.67,541.77z"/>
			<path class="st15" d="M953.02,547.49c0,0-10.06-4.52-19.94-2.6"/>
		</g>
	</g>
	<path class="st16" d="M956.59,523.37c0,0,11.95,32.33,5.31,52.81c-6.64,20.47-54.16,35.61-64.72,35.61
		c-10.56,0-94.99-21.12-94.99-21.12l-4.23,4.63l-13-5.29l20.47,94.38c0,0,9.9,5.29,0,8.58c-9.9,3.29-47.52,3.31-48.18,0
		c-0.36-2.85-0.36-5.73,0-8.58l-5.58-10.56c0,0,1.02-18.48,0-21.12c-1.02-2.64-43.26-90.46-25.5-111.58
		c17.75-21.12,123.09-3.97,123.09-3.97l13.44-13.87L956.59,523.37z"/>
	<path class="st8" d="M879.06,692.13c0,0,1.84,11.37,0,13.44s-5.53,26.3-5.53,26.3s-47.85,7.44-62.1,6.41
		c-19.07-1.37-23.53-6.93-23.53-6.93s-0.33-7.32,17.61-13.05c22.14-7.07,39.2-30.72,39.2-30.72L879.06,692.13z"/>
	<path class="st1" d="M791.28,440.81c16.14,27.96,57.63,71.58,57.63,71.58s-2.6,3.95,3.16,11.22c-1.78,1.81-2.9,4.17-3.16,6.69
		c-0.35,3.95,33.77,23.75,66.12,18.48c32.35-5.27,46.2-14.53,46.81-21.13s-32.73-94.83-55.17-121.9
		c-17.86-12.7-39.21-19.58-61.13-19.68c-25.9-0.14-46.1,8.41-55.27,21.12"/>
	<g>
		<defs>
			<path id="SVGID_9_" d="M791.28,440.81c16.14,27.96,57.63,71.58,57.63,71.58s-2.6,3.95,3.16,11.22c-1.78,1.81-2.9,4.17-3.16,6.69
				c-0.35,3.95,33.77,23.75,66.12,18.48c32.35-5.27,46.2-14.53,46.81-21.13s-32.73-94.83-55.17-121.9
				c-17.86-12.7-39.21-19.58-61.13-19.68c-25.9-0.14-46.1,8.41-55.27,21.12"/>
		</defs>
		<clipPath id="SVGID_10_">
			<use xlink:href="#SVGID_9_"  style="overflow:visible;"/>
		</clipPath>
		<g class="st17">
			<path class="st12" d="M920.65,547.64c-1.73,0.35-3.68,0.69-5.62,1.01c-32.35,5.2-66.47-14.53-66.12-18.48
				c0.28-2.49,1.39-4.82,3.16-6.61c-0.21-0.28-0.42-0.54-0.59-0.8c15.79-3.05,30.25-11.53,23.61-11.23
				c-9.1,0.42-14.68-0.94-4.75-6.85c9.93-5.91,7.44-41.09,7.44-41.09s20.15-15.6,41.19,25.29
				C938.84,527.5,930.13,537.12,920.65,547.64z"/>
		</g>
	</g>
	<path class="st2" d="M791.28,440.81c16.14,27.96,57.63,71.58,57.63,71.58s-2.6,3.95,3.16,11.22c-1.78,1.81-2.9,4.17-3.16,6.69
		c-0.35,3.95,33.77,23.75,66.12,18.48c32.35-5.27,46.2-14.53,46.81-21.13s-32.73-94.83-55.17-121.9
		c-17.86-12.7-39.21-19.58-61.13-19.68c-25.9-0.14-46.1,8.41-55.27,21.12"/>
	<path class="st8" d="M870.34,391.23c0,0-12.47-19.16-25.85-16.64c-13.38,2.51-51.14-38.99-54.72-44.12
		c-3.57-5.13-8.37,6.64-8.37,6.64s-5.84,4.59-7.21,9.6c-1.37,5.01,2.41,29.35,0,34.5c-1.5,3.78-2.2,7.84-2.05,11.91l9.93-7.14
		c0,0,7.3,17.53,12.57,23.01c5.27,5.48,18.43-8.43,28.48-15.86c10.06-7.44,24.45-10.9,32.33,1.96"/>
	<path class="st2" d="M782.08,385.98l5.2-1.33c0,0-6.17-24.18-5.2-27.36c0.97-3.17,5.1-19.89,5.2-23.98"/>
	<path class="st2" d="M797.45,397c3.12,3.47,12.59-3.88,15.6-5.77"/>
	<path class="st2" d="M791.59,382.68c0.67,2.83,1.53,5.62,2.57,8.34"/>
	<path class="st9" d="M803.12,387.64c3.55,0.69,6.61,4.28,8.67,7.44c1.07,1.66,2,3.4,2.79,5.2c0,0-5.2,17.15,11.98,13.87
		c17.18-3.28,22.78-20.8,22.78-20.8c-10.25-7.59-9.26-17.74-9.26-17.74c-10.96-3.83-31.85,5.2-36.82,9.76
		C801.94,386.41,801.75,387.38,803.12,387.64z"/>
	<path class="st13" d="M803.12,387.64c3.55,0.69,6.61,4.28,8.67,7.44c7.32-5.6,7.7-12.4,7.7-12.4l-16.19,2.58
		C801.94,386.41,801.75,387.38,803.12,387.64z"/>
	<path class="st2" d="M855.46,511.24c0,0,31.31-2.25,39.25-20.23"/>
	<path class="st2" d="M929.65,530c-23.92,2.48-49.29,1.82-72.03-6.67"/>
	<path class="st2" d="M947.3,527.39c-3.8,0.78-7.63,1.37-11.48,1.87"/>
	<path class="st9" d="M836.81,377.14c0,0,7.8-9.67,9.95-16.47c9.21-29.13,10.82-47.82-22.19-54.98
		c-23.32-5.05-35.3,26.21-34.76,37.52c0.31,6.38-2.83,12.6-4.4,17.67c-1.73,5.65,1.6,27.74,8.82,29.63c9.24,2.31,24.5-0.88,26.89-6"
		/>
	<path class="st13" d="M809.16,351.46c-0.42,1.53,0.09,3,1.14,3.29c1.06,0.29,2.25-0.71,2.67-2.24c0.42-1.53-0.09-3-1.14-3.29
		C810.77,348.93,809.57,350,809.16,351.46z"/>
	<path class="st13" d="M793.21,346.17c-0.42,1.53,0.09,3,1.14,3.29c1.06,0.29,2.25-0.71,2.67-2.24c0.42-1.53-0.09-3-1.14-3.28
		C794.82,343.68,793.62,344.65,793.21,346.17z"/>
	<path class="st2" d="M798.98,350.13c0,0-8.25,7.26-8.67,8.67c-0.42,1.4,4.63,5.39,4.63,5.39"/>
	<path class="st2" d="M792.04,369.82c4.1,2.24,8.9,2.83,13.42,1.65"/>
	<path class="st2" d="M810.82,337.43c0,0,3.71-1.84,8.67,3.19"/>
	<path class="st2" d="M798.98,335.15c0,0-4.52-4.13-5.89,0"/>
	<path class="st13" d="M826.56,328.28c0,0,4.13,7.32,3.47,14.63c-0.61,5.31-1.77,10.54-3.47,15.6l1.73,1.37c0,0,7.02-3.66,8.84,0
		c1.82,3.66-5.05,13.26-5.05,13.26s4,8.67,10.02,9.59c0,0-0.35-3.19,1.73-4.11c2.08-0.92,9.69-7.47,9.69-14.35c0,0,1.6,2.15,0,6.93
		c0,0,12.14-24.53,0.71-42.82S826.56,328.28,826.56,328.28z"/>
	<path class="st9" d="M832.16,360.58c0,0,8.77-7.4,9.9,0c1.13,7.4-11.22,17.82-14.18,14.2c-2.96-3.62,0-4.3,0-4.3"/>
	<path class="st13" d="M790.31,387.21c0,0,5.37-0.69,8.39,1.73c3.02,2.43-0.54,6.1-5.67,3.12
		C787.9,389.08,790.31,387.21,790.31,387.21z"/>
	<path class="st13" d="M798.03,388.89c0,0,26.23,0.19,42.18-58.43h2.7c0,0-0.9,49.53-43.13,60.77L798.03,388.89z"/>
	<path class="st10" d="M795.36,315.09c0,0-8.67,3.68-8.11,5.51c0.55,1.84,14.96,11.89,44,12.14c21.5,0.17,32.45,19.07,32.45,19.07
		c2.06-5.84-1.86-13.04-1.86-13.04s2.77-19.56-7.06-28.02c0,0-2.1-8.43-15.31-13.71c-17.74-7.09-23.09,2.76-23.09,2.76
		C806.94,300.21,798.66,306.23,795.36,315.09z"/>
	<path class="st2" d="M834.42,325.51c10.56,0.95,21.06,4.26,27.43,13.28"/>
	<path class="st2" d="M818.52,324.97c3.33,0,6.66,0,9.99,0.19"/>
	<path class="st2" d="M795.36,315.09c2.06,8.67,9.67,9.5,17.2,9.76"/>
	<path class="st2" d="M837.71,304.27c6.38-0.48,12.63,1.9,17.08,6.5"/>
	<path class="st2" d="M816.32,299.81c-9.07,13.87,9.26,7.07,15.95,5.37"/>
	<path class="st18" d="M826.56,347.44c0,0.83-1.92,3.21-0.59,4.39c1.33,1.18,2.39-2.51,1.47-6.54"/>
	<path class="st18" d="M824.98,336.53c0,0.83-2.65,4.73-1.32,5.89c1.33,1.16,2.36-1.51,1.73-3.47"/>
	<path class="st9" d="M914.56,464.13c0,0-40.26-9.47-38.14,4.84c2.12,14.3,11.67,43.13,11.67,43.13s-53.17,32.56-56.17,34.97
		c-0.94,0.75,11.04,12.33,11.04,12.33c9.73-5.5,77.84-22,80.48-33.88C926.08,513.65,914.56,464.13,914.56,464.13z"/>
	<path class="st10" d="M893.22,401.88c0,0,18.48,17.16,17.82,29.7s7.92,36.22,7.92,36.22l-3.97,4.04c0,0-26.4,1.32-38.94,8.67
		c0,0-5.51,3.47-3.95-9.24c-0.27-6.89-3.29-13.38-8.37-18.03c-4.63-4.11-4.18-27.51-4.18-27.51"/>
	<path class="st13" d="M924.9,584.71c-2.64,12.53-12.53,30.08-16.49,37.34c-3.95,7.26-20.47,64.72-20.47,64.72
		s0.66,10.56-14.51,13.19c-15.17,2.64-43.95-7.25-36.3-11.89c7.65-4.65,15.9-57.85,15.9-57.85s-4.04-7.25,3.35-17.94
		c7.39-10.7,7.99-71.57,22.36-75.76c25.09-7.25,54.39,8.37,54.39,8.37s8.29,2.6,11.03,10.14"/>
	<g>
		<defs>
			<path id="SVGID_11_" d="M924.9,584.71c-2.64,12.53-12.53,30.08-16.49,37.34c-3.95,7.26-20.47,64.72-20.47,64.72
				s0.66,10.56-14.51,13.19c-15.17,2.64-43.95-7.25-36.3-11.89c7.65-4.65,15.9-57.85,15.9-57.85s-4.04-7.25,3.35-17.94
				c7.39-10.7,7.99-71.57,22.36-75.76c25.09-7.25,54.39,8.37,54.39,8.37s8.29,2.6,11.03,10.14"/>
		</defs>
		<clipPath id="SVGID_12_">
			<use xlink:href="#SVGID_11_"  style="overflow:visible;"/>
		</clipPath>
		<g class="st19">
			<path class="st15" d="M919.35,558.62c-4.54-9.33-12.14-17.67-22.66-19.69"/>
			<path class="st15" d="M923.81,571.15c-0.55-2.48-1.27-4.92-2.17-7.3"/>
			<path class="st15" d="M859,630.34c-1.98,0.25-3.99,0.22-5.96-0.1"/>
			<path class="st15" d="M902.45,599.45c-9.92,11.95-22.88,24.71-37.92,29.63"/>
		</g>
	</g>
	<path class="st16" d="M924.9,584.71c-2.64,12.53-12.53,30.08-16.49,37.34c-3.95,7.26-20.47,64.72-20.47,64.72
		s0.66,10.56-14.51,13.19c-15.17,2.64-43.95-7.25-36.3-11.89c7.65-4.65,15.9-57.85,15.9-57.85s-4.04-7.25,3.35-17.94
		c7.39-10.7,7.99-71.57,22.36-75.76c25.09-7.25,54.39,8.37,54.39,8.37s8.29,2.6,11.03,10.14"/>
	<path class="st8" d="M857.18,585.66c0.29-1.39,1.64-2.28,3.03-1.99c0,0,0,0,0,0l8.22,1.73c-0.32-5.26-4.84-9.26-10.1-8.93
		c-3.06,0.19-5.84,1.83-7.48,4.43l-61.41-12.66c-0.82-5.2-5.7-8.76-10.9-7.94c-3.03,0.48-5.64,2.38-7.03,5.11l8.22,1.73
		c1.39,0.29,2.28,1.65,1.99,3.03c-0.29,1.39-1.65,2.28-3.03,1.99l0,0l-8.22-1.73c0.32,5.26,4.84,9.26,10.1,8.93
		c3.06-0.19,5.84-1.83,7.48-4.43l61.41,12.57c0.83,5.2,5.71,8.75,10.91,7.92c3.02-0.48,5.63-2.38,7.01-5.11l-8.22-1.73
		C857.84,588.3,856.96,587.01,857.18,585.66z"/>
	<path class="st10" d="M845.36,535.51c-5.18,3.16-9.98,6.92-14.29,11.2c-3.28,2.58-21.84,18.08-21.6,20.42
		c0.24,2.34-1.4,18.01,0,19.43c1.4,1.42,7.28-3.22,7.28-3.22s1.65,4.23,3.47,4.47c1.81,0.09,3.62,0,5.41-0.24
		c0,0,3.05,4.7,5.86,4.23c2.81-0.47,6.59-5.88,3.83-6.1c-1.48-0.23-2.97,0.4-3.83,1.63v-5.86c2.36-1.77,4.56-3.74,6.59-5.88
		c3.05-3.29,4.75-14.03,4.75-14.03c1.27-0.71,9.73-4.63,12.59-5.65L845.36,535.51z"/>
	<line class="st2" x1="816.75" y1="583.36" x2="813.89" y2="572.42"/>
	<line class="st2" x1="825.68" y1="587.59" x2="823.16" y2="580.97"/>
	<line class="st2" x1="815.31" y1="577.9" x2="812.92" y2="582.18"/>
	<path class="st2" d="M822.19,587.52c-2.44-1.73-4.16-9.69-4.16-9.69"/>
	<path class="st8" d="M853.33,375.52c0,0,17.89,5.81,17.82,21.32c0,6.81-19.07,49.95-15.69,70.94c3.38,20.99,3.8,23.13,3.8,23.13
		s-8.18,0.33-11.13,0c-2.95-0.33-1.89,5.2-1.89,5.2l-10.4,1.98c0,0-3.1-34.4-3.47-49.32s17.01-61.3,17.01-61.3
		c0.36-2.93-0.88-5.83-3.24-7.59"/>
	<path class="st2" d="M846.85,456.76c-1.13,10.4-1.89,20.8-2.36,31.33"/>
	<path class="st2" d="M850.04,433.83c-0.92,5.37-1.73,10.77-2.39,16.18"/>
	<path class="st2" d="M857.61,399.66c-2.5,8.99-4.61,18.08-6.33,27.27"/>
	<path class="st2" d="M859.26,382.68c1.53,3.57,0.14,7.65-0.5,11.27"/>
	<path class="st2" d="M771.02,423.43c1.35,5.71,3.54,11.18,6.5,16.24"/>
	<path class="st2" d="M767.77,404.11c0.21,2.98,0.59,5.95,1.04,8.91"/>
	<path class="st2" d="M887.88,446.61c-2.82,2.7-6.31,4.61-10.11,5.51"/>
	<path class="st2" d="M902.45,422.82c-2.32,6.78-5.71,13.14-10.06,18.85"/>
</g>
<g id="freepik--Machine--inject-17">
	<polygon class="st20" points="661.39,343.55 661.39,214.45 650.42,223.12 650.42,343.55 	"/>
	<path class="st1" d="M603.82,251.18h-30.96l1.47-31.21c0.15-3.03,2.64-5.4,5.67-5.41h16.68c3.03,0.01,5.52,2.38,5.67,5.41
		L603.82,251.18z"/>
	<g>
		<defs>
			<path id="SVGID_13_" d="M603.82,251.18h-30.96l1.47-31.21c0.15-3.03,2.64-5.4,5.67-5.41h16.68c3.03,0.01,5.52,2.38,5.67,5.41
				L603.82,251.18z"/>
		</defs>
		<clipPath id="SVGID_14_">
			<use xlink:href="#SVGID_13_"  style="overflow:visible;"/>
		</clipPath>
		<g class="st21">
			<path class="st22" d="M602.24,226.91c0.01,5.07-4.09,9.18-9.15,9.19c-5.07,0.01-9.18-4.09-9.19-9.15
				c-0.01-5.07,4.09-9.18,9.15-9.19c0.01,0,0.01,0,0.02,0C598.13,217.76,602.23,221.85,602.24,226.91z"/>
			<path class="st22" d="M600.78,226.91c0,4.26-3.45,7.71-7.71,7.71c-4.26,0-7.71-3.45-7.71-7.71c0-4.26,3.45-7.71,7.71-7.71l0,0
				C597.33,219.2,600.78,222.65,600.78,226.91z"/>
			<circle class="st23" cx="578.18" cy="227.69" r="4.14"/>
			<circle class="st23" cx="578.18" cy="227.69" r="2.38"/>
			<path class="st23" d="M592.9,240.78c0,4.39-3.55,7.94-7.94,7.94s-7.94-3.55-7.94-7.94s3.55-7.94,7.94-7.94
				C589.34,232.85,592.89,236.4,592.9,240.78z"/>
			<path class="st24" d="M591.06,240.78c0,3.37-2.73,6.1-6.1,6.1c-3.37,0-6.1-2.73-6.1-6.1c0-3.37,2.73-6.1,6.1-6.1
				S591.06,237.41,591.06,240.78C591.06,240.78,591.06,240.78,591.06,240.78z"/>
		</g>
	</g>
	<path class="st2" d="M603.82,251.18h-30.96l1.47-31.21c0.15-3.03,2.64-5.4,5.67-5.41h16.68c3.03,0.01,5.52,2.38,5.67,5.41
		L603.82,251.18z"/>
	<polygon class="st20" points="617.67,264.62 559,264.62 565.94,248.81 610.74,248.81 	"/>
	<path class="st20" d="M661.39,491.84v145.51c0,8.72-7.07,15.79-15.79,15.79h-27.27V641h25.23c3.83,0,6.93-3.1,6.93-6.93V491.84
		H661.39z"/>
	<path class="st20" d="M385.36,339.05V235.91c0-6.18,5.01-11.18,11.18-11.18h8.89v8.67H398c-2.68-0.01-4.86,2.16-4.87,4.84
		c0,0.01,0,0.01,0,0.02v100.07L385.36,339.05z"/>
	<rect x="419.54" y="239.29" class="st20" width="6.87" height="27.77"/>
	<rect x="471.56" y="239.29" class="st20" width="6.87" height="27.77"/>
	<path class="st8" d="M408.52,174.07h80.95c3.53,0,6.4,2.86,6.4,6.4v57.61c0,3.53-2.86,6.4-6.4,6.4h-80.95c-3.53,0-6.4-2.86-6.4-6.4
		v-57.61C402.12,176.93,404.99,174.07,408.52,174.07z"/>
	<rect x="410.81" y="183.88" class="st13" width="76.35" height="50.75"/>
	<path class="st20" d="M385.36,398.1v68.45c0,6.18,5,11.19,11.18,11.2h8.89v-8.67H398c-2.69,0-4.87-2.18-4.87-4.87v-65.38
		L385.36,398.1z"/>
	<path class="st20" d="M381.35,322.87h24.08l0,0v94.97l0,0h-24.08c-3.83,0-6.93-3.1-6.93-6.93v-81.07c-0.02-3.83,3.07-6.95,6.9-6.97
		C381.33,322.87,381.34,322.87,381.35,322.87z"/>
	<path class="st25" d="M405.05,262.89h224.51c3.79,0,6.87,3.07,6.87,6.87v431.77c0,3.79-3.07,6.87-6.87,6.87H405.05
		c-3.79,0-6.87-3.07-6.87-6.87V269.75C398.19,265.96,401.26,262.89,405.05,262.89z"/>
	<rect x="416.55" y="284.64" class="st20" width="201.52" height="401.96"/>
	<rect x="421.75" y="289.86" class="st13" width="191.12" height="391.55"/>
	<path class="st25" d="M513.08,629.51h-5.95v-86.2c0-1.64,1.32-2.97,2.96-2.98l0,0c1.65,0,2.98,1.34,2.98,2.98l0,0V629.51z"/>
	<path class="st25" d="M523.93,629.51h-5.95v-86.2c0-1.64,1.32-2.97,2.96-2.98l0,0c1.65,0,2.98,1.34,2.98,2.98l0,0V629.51z"/>
	<path class="st25" d="M534.78,629.51h-5.95v-86.2c0-1.64,1.32-2.97,2.96-2.98l0,0c1.65,0,2.98,1.34,2.98,2.98l0,0L534.78,629.51z"
		/>
	<path class="st25" d="M545.64,629.51h-5.95v-86.2c0-1.64,1.32-2.97,2.96-2.98l0,0c1.65,0,2.98,1.34,2.98,2.98l0,0V629.51z"/>
	<path class="st25" d="M556.49,629.51h-5.95v-86.2c0-1.64,1.32-2.97,2.96-2.98l0,0c1.65,0,2.98,1.34,2.98,2.98l0,0V629.51z"/>
	<path class="st25" d="M567.34,629.51h-5.88v-86.2c0-1.64,1.32-2.97,2.96-2.98l0,0c1.65,0,2.98,1.34,2.98,2.98l0,0L567.34,629.51z"
		/>
	<path class="st25" d="M431.23,523.2h59.9c5.55,0,10.06,4.5,10.06,10.06v96.25l0,0h-69.95l0,0V523.2L431.23,523.2z"/>
	<rect x="431.23" y="545.36" class="st20" width="53.73" height="26.53"/>
	<line class="st2" x1="476.95" y1="552.79" x2="476.95" y2="564.44"/>
	<line class="st2" x1="471.69" y1="552.79" x2="471.69" y2="564.44"/>
	<line class="st2" x1="466.44" y1="552.79" x2="466.44" y2="564.44"/>
	<line class="st2" x1="461.17" y1="552.79" x2="461.17" y2="564.44"/>
	<line class="st2" x1="455.92" y1="552.79" x2="455.92" y2="564.44"/>
	<path class="st8" d="M496.45,606.09h-15.6c-0.96,0-1.73-0.78-1.73-1.73c0-0.96,0.78-1.73,1.73-1.73h15.6
		c11.22,0,15.6-10.25,20.16-21.12c3.62-8.58,7.39-17.46,14.93-21.01c8.5-4.22,18.55-3.86,26.73,0.95c5.95,3.63,9.58,10.1,9.57,17.08
		c0,0.96-0.78,1.73-1.73,1.73c-0.96,0-1.73-0.78-1.73-1.73c0.04-5.79-2.99-11.17-7.96-14.15c-7.18-4.18-15.98-4.46-23.4-0.75
		c-6.35,3.09-9.69,10.89-13.16,19.23C514.97,594.28,509.96,606.09,496.45,606.09z"/>
	<path class="st20" d="M546.49,572.78h44.99c7.84,0,14.2,6.36,14.2,14.2v24.77c0,7.84-6.36,14.2-14.2,14.2h-44.99
		c-7.84,0-14.2-6.36-14.2-14.2v-24.77C532.29,579.14,538.64,572.78,546.49,572.78z"/>
	<path class="st20" d="M435.2,576.54h34.83c11.91,0,21.57,9.66,21.57,21.57l0,0v21.58c0,3.45-2.79,6.24-6.24,6.24h0H435.2
		c-3.45,0-6.24-2.79-6.24-6.24l0,0V582.8c-0.01-3.45,2.78-6.25,6.22-6.26C435.19,576.54,435.19,576.54,435.2,576.54z"/>
	<path class="st20" d="M573.2,531.43h27.1c2.02,0,3.66,1.64,3.66,3.66v27.1c0,2.02-1.64,3.66-3.66,3.66h-27.1
		c-2.02,0-3.66-1.64-3.66-3.66v-27.1C569.54,533.07,571.18,531.43,573.2,531.43z"/>
	<path class="st8" d="M594.4,548.63c0.01,4.2-3.39,7.62-7.59,7.63s-7.62-3.39-7.63-7.59s3.39-7.62,7.59-7.63c0.01,0,0.01,0,0.02,0
		C590.99,541.04,594.4,544.44,594.4,548.63z"/>
	<rect x="466.44" y="597.51" class="st8" width="10.52" height="32"/>
	<path class="st8" d="M570.29,587.9h19.89c2.31,0,4.18,1.87,4.18,4.18l0,0v37.43l0,0h-28.24l0,0v-37.43
		C566.11,589.77,567.98,587.9,570.29,587.9L570.29,587.9z"/>
	<polygon class="st8" points="438.91,582.6 436.24,582.6 434.91,584.92 436.24,587.24 438.91,587.24 440.26,584.92 	"/>
	<polygon class="st8" points="438.91,614.25 436.24,614.25 434.91,616.58 436.24,618.9 438.91,618.9 440.26,616.58 	"/>
	<polygon class="st8" points="588.09,546.31 585.41,546.31 584.07,548.63 585.41,550.96 588.09,550.96 589.43,548.63 	"/>
	<polygon class="st20" points="438.91,528.19 436.24,528.19 434.91,530.52 436.24,532.84 438.91,532.84 440.26,530.52 	"/>
	<polygon class="st20" points="492.93,528.19 490.24,528.19 488.91,530.52 490.24,532.84 492.93,532.84 494.27,530.52 	"/>
	<rect x="431.26" y="634.17" class="st25" width="174.39" height="39.32"/>
	<rect x="542.65" y="639.2" class="st20" width="56.78" height="28.35"/>
	<polygon class="st8" points="551.88,643.9 549.21,643.9 547.87,646.2 549.21,648.53 551.88,648.53 553.23,646.2 	"/>
	<polygon class="st8" points="551.88,658.11 549.21,658.11 547.87,660.44 549.21,662.76 551.88,662.76 553.23,660.44 	"/>
	<polygon class="st8" points="593.49,643.9 590.82,643.9 589.48,646.2 590.82,648.53 593.49,648.53 594.84,646.2 	"/>
	<polygon class="st8" points="593.49,658.11 590.82,658.11 589.48,660.44 590.82,662.76 593.49,662.76 594.84,660.44 	"/>
	<rect x="440.26" y="660.11" class="st20" width="6.67" height="6.67"/>
	<rect x="452.92" y="660.11" class="st20" width="6.67" height="6.67"/>
	<rect x="465.59" y="660.11" class="st20" width="6.67" height="6.67"/>
	<path class="st20" d="M484.94,663.44c0.01,1.85-1.48,3.35-3.33,3.36c-1.85,0.01-3.35-1.48-3.36-3.33
		c-0.01-1.85,1.48-3.35,3.33-3.36c0.01,0,0.01,0,0.02,0c1.84-0.01,3.34,1.47,3.35,3.31C484.94,663.43,484.94,663.43,484.94,663.44z"
		/>
	<path class="st20" d="M497.6,663.44c0.01,1.85-1.48,3.35-3.33,3.36c-1.85,0.01-3.35-1.48-3.36-3.33c-0.01-1.85,1.48-3.35,3.33-3.36
		c0.01,0,0.02,0,0.03,0C496.11,660.11,497.6,661.6,497.6,663.44L497.6,663.44z"/>
	<path class="st26" d="M433.17,505.55c57,0,116.16-47.73,168.17-47.73"/>
	<path class="st27" d="M433.17,314.64c32.32,0,97.8,71.6,168.17,71.6"/>
	<path class="st28" d="M601.34,314.64c-38.47,0-110.87,119.33-168.17,119.33"/>
	<path class="st29" d="M434.91,457.82c37.03,0,127.67-95.96,166.43-95.46"/>
	<path class="st27" d="M433.17,386.24c65.24,0,120.21,119.31,168.17,119.31"/>
	<path class="st29" d="M433.17,481.76c25.45,0,116.16-47.73,168.17-47.73"/>
	<path class="st28" d="M601.34,481.76c-32.52,0-116.82-143.19-168.17-143.19"/>
	<path class="st27" d="M433.17,362.37c26.82,0,95.53-23.86,168.17-23.86"/>
	<path class="st26" d="M433.17,410.09c33.69,0,66.33,15.6,87.72,15.6c21.39,0,56.73-15.6,80.44-15.6"/>
	<rect x="599.43" y="308.93" class="st25" width="3.9" height="11.42"/>
	<rect x="599.43" y="332.79" class="st25" width="3.9" height="11.42"/>
	<rect x="599.43" y="356.66" class="st25" width="3.9" height="11.42"/>
	<rect x="599.43" y="380.52" class="st25" width="3.9" height="11.42"/>
	<rect x="599.43" y="404.39" class="st25" width="3.9" height="11.42"/>
	<rect x="599.43" y="428.25" class="st25" width="3.9" height="11.42"/>
	<rect x="599.43" y="452.12" class="st25" width="3.9" height="11.42"/>
	<rect x="599.43" y="475.97" class="st25" width="3.9" height="11.42"/>
	<rect x="599.43" y="499.85" class="st25" width="3.9" height="11.42"/>
	<rect x="431.26" y="308.93" class="st25" width="3.9" height="11.42"/>
	<rect x="431.26" y="332.79" class="st25" width="3.9" height="11.42"/>
	<rect x="431.26" y="356.66" class="st25" width="3.9" height="11.42"/>
	<rect x="431.26" y="380.52" class="st25" width="3.9" height="11.42"/>
	<rect x="431.26" y="404.39" class="st25" width="3.9" height="11.42"/>
	<rect x="431.26" y="428.25" class="st25" width="3.9" height="11.42"/>
	<rect x="431.26" y="452.12" class="st25" width="3.9" height="11.42"/>
	<rect x="431.26" y="475.97" class="st25" width="3.9" height="11.42"/>
	<rect x="431.26" y="499.85" class="st25" width="3.9" height="11.42"/>
	<path class="st20" d="M386.83,697.45h260.95c3.95,0,7.16,3.21,7.16,7.16l0,0v23.08l0,0H379.67l0,0V704.6
		C379.68,700.65,382.88,697.45,386.83,697.45z"/>
	<path class="st8" d="M370.31,723.16h293.98c2.66,0,4.82,2.16,4.82,4.82v12.26l0,0H365.56l0,0v-12.29
		C365.58,725.33,367.69,723.2,370.31,723.16z"/>
	<path class="st1" d="M422.77,196.71h5.98c3.8,0,5.65,2.1,5.65,5.96v12.14c0,3.85-1.86,5.95-5.65,5.95h-5.98V196.71z M426.55,200.18
		v17.23h2.13c1.21,0,1.94-0.62,1.94-2.34v-12.53c0-1.73-0.73-2.36-1.94-2.36H426.55z"/>
	<path class="st1" d="M436.64,202.5c0-3.87,2.03-6.07,5.76-6.07c3.73,0,5.76,2.2,5.76,6.07v12.53c0,3.85-2.05,6.05-5.76,6.05
		c-3.71,0-5.76-2.2-5.76-6.05V202.5z M440.44,215.28c0,1.73,0.75,2.38,1.96,2.38c1.21,0,1.96-0.66,1.96-2.38v-13.02
		c0-1.73-0.76-2.38-1.96-2.38c-1.2,0-1.96,0.64-1.96,2.38V215.28z"/>
	<path class="st1" d="M453.98,203.35L453.98,203.35v17.46h-3.47v-24.1h4.75l3.81,14.42l0,0v-14.42h3.47v24.1h-3.9L453.98,203.35z"/>
	<path class="st1" d="M469.01,206.87h5.2v3.47h-5.2v7.06h6.55v3.47h-10.4v-24.1h10.4v3.47h-6.55V206.87z"/>
	<path class="st8" d="M649.54,304.81h12.74c2.8,0,5.06,2.27,5.06,5.06v308.89c0,2.8-2.27,5.06-5.06,5.06h-12.74
		c-2.8,0-5.06-2.27-5.06-5.06V309.87C644.47,307.07,646.74,304.81,649.54,304.81z"/>
	<path class="st13" d="M648.41,310.86c-1.17,0-2.12,0.95-2.12,2.12s0.95,2.12,2.12,2.12c1.17,0,2.12-0.95,2.12-2.12
		S649.58,310.86,648.41,310.86L648.41,310.86z"/>
	<path class="st13" d="M648.41,324.55c-1.17,0-2.12,0.95-2.12,2.12c0,1.17,0.95,2.12,2.12,2.12c1.17,0,2.12-0.95,2.12-2.12
		C650.52,325.5,649.58,324.55,648.41,324.55L648.41,324.55z"/>
	<path class="st13" d="M648.41,338.25c-1.17,0-2.12,0.95-2.12,2.12c0,1.17,0.95,2.12,2.12,2.12c1.17,0,2.12-0.95,2.12-2.12
		C650.52,339.2,649.58,338.25,648.41,338.25L648.41,338.25z"/>
	<path class="st13" d="M648.41,351.95c-1.17,0-2.12,0.95-2.12,2.12s0.95,2.12,2.12,2.12c1.17,0,2.12-0.95,2.12-2.12
		S649.58,351.95,648.41,351.95L648.41,351.95z"/>
	<path class="st13" d="M648.41,365.61c-1.16,0.11-2.02,1.13-1.92,2.3c0.09,1.02,0.9,1.82,1.92,1.92c1.16,0.11,2.19-0.75,2.3-1.92
		c0.11-1.16-0.75-2.19-1.92-2.3C648.66,365.6,648.54,365.6,648.41,365.61z"/>
	<path class="st13" d="M648.41,379.36c-1.16,0.11-2.02,1.13-1.92,2.3c0.09,1.02,0.9,1.82,1.92,1.92c1.16,0.11,2.19-0.75,2.3-1.92
		c0.11-1.16-0.75-2.19-1.92-2.3C648.66,379.34,648.54,379.34,648.41,379.36z"/>
	<path class="st13" d="M648.41,393.05c-1.16,0.11-2.02,1.13-1.92,2.3c0.09,1.02,0.9,1.82,1.92,1.92c1.16,0.11,2.19-0.75,2.3-1.92
		c0.11-1.16-0.75-2.19-1.92-2.3C648.66,393.04,648.54,393.04,648.41,393.05L648.41,393.05z"/>
	<path class="st13" d="M648.41,406.75c-1.16,0.11-2.02,1.13-1.92,2.3c0.09,1.02,0.9,1.82,1.92,1.92c1.16,0.11,2.19-0.75,2.3-1.92
		c0.11-1.16-0.75-2.19-1.92-2.3C648.66,406.74,648.54,406.74,648.41,406.75z"/>
	<path class="st13" d="M648.41,420.44c-1.17,0-2.12,0.95-2.11,2.12c0,1.17,0.95,2.12,2.12,2.12s2.12-0.95,2.12-2.12
		c0-0.01,0-0.01,0-0.02c0-1.16-0.94-2.1-2.1-2.1C648.42,420.44,648.41,420.44,648.41,420.44z"/>
	<path class="st13" d="M648.41,434.14c-1.17,0-2.12,0.95-2.12,2.12s0.95,2.12,2.12,2.12c1.17,0,2.12-0.95,2.12-2.12
		S649.58,434.14,648.41,434.14L648.41,434.14z"/>
	<path class="st13" d="M648.41,447.84c-1.17,0-2.12,0.95-2.12,2.12s0.95,2.12,2.12,2.12c1.17,0,2.12-0.95,2.12-2.12
		S649.58,447.84,648.41,447.84L648.41,447.84z"/>
	<path class="st13" d="M648.41,461.53c-1.17,0-2.12,0.95-2.12,2.12s0.95,2.12,2.12,2.12c1.17,0,2.12-0.95,2.12-2.12
		S649.58,461.53,648.41,461.53L648.41,461.53z"/>
	<path class="st13" d="M648.41,475.23c-1.17,0-2.12,0.95-2.12,2.12s0.95,2.12,2.12,2.12c1.17,0,2.12-0.95,2.12-2.12
		S649.58,475.23,648.41,475.23L648.41,475.23z"/>
	<path class="st13" d="M648.41,488.94c-1.16,0.11-2.02,1.13-1.92,2.3c0.09,1.02,0.9,1.82,1.92,1.92c1.16,0.11,2.19-0.75,2.3-1.92
		c0.11-1.16-0.75-2.19-1.92-2.3C648.66,488.93,648.54,488.93,648.41,488.94z"/>
	<path class="st13" d="M648.41,502.57c-1.16,0.11-2.02,1.13-1.92,2.3c0.09,1.02,0.9,1.82,1.92,1.92c1.16,0.11,2.19-0.75,2.3-1.92
		c0.11-1.16-0.75-2.19-1.92-2.3C648.66,502.56,648.54,502.56,648.41,502.57z"/>
	<path class="st13" d="M648.41,516.33c-1.16,0.11-2.02,1.13-1.92,2.3c0.09,1.02,0.9,1.82,1.92,1.92c1.16,0.11,2.19-0.75,2.3-1.92
		c0.11-1.16-0.75-2.19-1.92-2.3C648.66,516.32,648.54,516.32,648.41,516.33z"/>
	<path class="st13" d="M648.41,530.03c-1.16,0.11-2.02,1.13-1.92,2.3c0.09,1.02,0.9,1.82,1.92,1.92c1.16,0.11,2.19-0.75,2.3-1.92
		c0.11-1.16-0.75-2.19-1.92-2.3C648.66,530.02,648.54,530.02,648.41,530.03z"/>
	<path class="st13" d="M648.41,543.73c-1.17,0-2.12,0.95-2.11,2.12c0,1.17,0.95,2.12,2.12,2.12s2.12-0.95,2.12-2.12
		c0-0.01,0-0.01,0-0.02c0-1.16-0.94-2.1-2.1-2.1C648.42,543.73,648.41,543.73,648.41,543.73z"/>
	<path class="st13" d="M648.41,557.42c-1.17,0-2.12,0.95-2.12,2.12s0.95,2.12,2.12,2.12c1.17,0,2.12-0.95,2.12-2.12
		c0.01-1.16-0.92-2.11-2.08-2.12C648.43,557.42,648.42,557.42,648.41,557.42z"/>
	<path class="st13" d="M648.41,571.12c-1.17,0-2.12,0.95-2.12,2.12s0.95,2.12,2.12,2.12c1.17,0,2.12-0.95,2.12-2.12
		S649.58,571.12,648.41,571.12L648.41,571.12z"/>
	<path class="st13" d="M648.41,584.81c-1.17,0-2.12,0.95-2.12,2.12s0.95,2.12,2.12,2.12c1.17,0,2.12-0.95,2.12-2.12
		S649.58,584.81,648.41,584.81L648.41,584.81z"/>
	<path class="st13" d="M648.41,598.51c-1.17,0-2.12,0.95-2.12,2.12s0.95,2.12,2.12,2.12c1.17,0,2.12-0.95,2.12-2.12
		S649.58,598.51,648.41,598.51L648.41,598.51z"/>
	<path class="st13" d="M648.41,612.22c-1.16,0.01-2.09,0.96-2.08,2.12s0.96,2.09,2.12,2.08c1.15-0.01,2.08-0.95,2.08-2.1
		c0-1.16-0.94-2.1-2.1-2.1C648.42,612.22,648.41,612.22,648.41,612.22z"/>
	<circle class="st13" cx="655.9" cy="319.82" r="2.1"/>
	<path class="st13" d="M655.9,331.4c-1.17,0-2.12,0.95-2.12,2.12c0,1.17,0.95,2.12,2.12,2.12c1.17,0,2.12-0.95,2.12-2.12
		C658.01,332.35,657.07,331.4,655.9,331.4L655.9,331.4z"/>
	<circle class="st13" cx="655.9" cy="347.21" r="2.1"/>
	<circle class="st13" cx="655.9" cy="360.91" r="2.1"/>
	<path class="st13" d="M655.9,372.54c-1.17,0-2.12,0.95-2.11,2.12c0,1.17,0.95,2.12,2.12,2.12c1.17,0,2.12-0.95,2.11-2.12
		c0-0.01,0-0.01,0-0.02c0-1.16-0.94-2.1-2.1-2.1C655.91,372.54,655.9,372.54,655.9,372.54z"/>
	<circle class="st13" cx="655.9" cy="388.3" r="2.1"/>
	<path class="st13" d="M655.9,399.9c-1.17,0-2.12,0.95-2.11,2.12c0,1.17,0.95,2.12,2.12,2.12c1.17,0,2.12-0.95,2.11-2.12
		c0-0.01,0-0.01,0-0.02c0-1.16-0.94-2.1-2.1-2.1C655.91,399.9,655.9,399.9,655.9,399.9z"/>
	<circle class="st13" cx="655.9" cy="415.69" r="2.1"/>
	<circle class="st13" cx="655.9" cy="429.41" r="2.1"/>
	<path class="st13" d="M655.9,440.99c-1.17,0-2.12,0.95-2.12,2.12s0.95,2.12,2.12,2.12c1.17,0,2.12-0.95,2.12-2.12
		S657.07,440.99,655.9,440.99L655.9,440.99z"/>
	<circle class="st13" cx="655.9" cy="456.8" r="2.1"/>
	<circle class="st13" cx="655.9" cy="470.5" r="2.1"/>
	<circle class="st13" cx="655.9" cy="484.19" r="2.1"/>
	<circle class="st13" cx="655.9" cy="497.89" r="2.1"/>
	<path class="st13" d="M655.9,509.5c-1.17,0-2.12,0.95-2.11,2.12c0,1.17,0.95,2.12,2.12,2.12c1.17,0,2.12-0.95,2.11-2.12
		c0-0.01,0-0.01,0-0.02c0-1.16-0.94-2.1-2.1-2.1C655.91,509.5,655.9,509.5,655.9,509.5z"/>
	<circle class="st13" cx="655.9" cy="525.28" r="2.1"/>
	<path class="st13" d="M655.9,536.88c-1.17,0-2.12,0.95-2.11,2.12c0,1.17,0.95,2.12,2.12,2.12c1.17,0,2.12-0.95,2.11-2.12
		c0-0.01,0-0.01,0-0.02c0-1.16-0.94-2.1-2.1-2.1C655.91,536.88,655.9,536.88,655.9,536.88z"/>
	<path class="st13" d="M655.9,550.57c-1.17,0-2.12,0.95-2.12,2.12s0.95,2.12,2.12,2.12c1.17,0,2.12-0.95,2.12-2.12
		c0.01-1.16-0.92-2.11-2.08-2.12C655.92,550.57,655.91,550.57,655.9,550.57z"/>
	<circle class="st13" cx="655.9" cy="566.39" r="2.1"/>
	<path class="st13" d="M655.9,577.97c-1.17,0-2.12,0.95-2.12,2.12s0.95,2.12,2.12,2.12c1.17,0,2.12-0.95,2.12-2.12
		S657.07,577.97,655.9,577.97L655.9,577.97z"/>
	<circle class="st13" cx="655.9" cy="593.78" r="2.1"/>
	<circle class="st13" cx="655.9" cy="607.47" r="2.1"/>
	<path class="st13" d="M663.41,315.07c1.17,0,2.12-0.95,2.11-2.12c0-1.17-0.95-2.12-2.12-2.12c-1.17,0-2.12,0.95-2.12,2.12
		c0,0.01,0,0.01,0,0.02c0,1.16,0.94,2.1,2.1,2.1C663.39,315.07,663.4,315.07,663.41,315.07z"/>
	<circle class="st13" cx="663.41" cy="326.67" r="2.1"/>
	<circle class="st13" cx="663.41" cy="340.36" r="2.1"/>
	<path class="st13" d="M663.41,351.95c-1.17-0.01-2.12,0.93-2.13,2.1c-0.01,1.17,0.93,2.12,2.1,2.13c1.17,0.01,2.12-0.93,2.13-2.1
		c0-0.01,0-0.01,0-0.02C665.5,352.9,664.57,351.96,663.41,351.95z"/>
	<circle class="st13" cx="663.41" cy="367.76" r="2.1"/>
	<path class="st13" d="M663.41,379.36c-1.17-0.01-2.12,0.93-2.13,2.1c-0.01,1.17,0.93,2.12,2.1,2.13c1.17,0.01,2.12-0.93,2.13-2.1
		c0-0.01,0-0.02,0-0.03C665.5,380.29,664.56,379.36,663.41,379.36L663.41,379.36z"/>
	<path class="st13" d="M663.41,393.05c-1.17-0.02-2.13,0.91-2.15,2.08s0.91,2.13,2.08,2.15c1.17,0.02,2.13-0.91,2.15-2.08
		c0-0.04,0-0.08,0-0.12C665.45,393.96,664.53,393.06,663.41,393.05z"/>
	<circle class="st13" cx="663.41" cy="408.85" r="2.1"/>
	<path class="st13" d="M663.41,420.44c-1.17-0.01-2.12,0.93-2.13,2.1c-0.01,1.17,0.93,2.12,2.1,2.13s2.12-0.93,2.13-2.1
		c0-0.01,0-0.02,0-0.03C665.5,421.38,664.56,420.44,663.41,420.44z"/>
	<circle class="st13" cx="663.41" cy="436.26" r="2.1"/>
	<path class="st13" d="M663.41,447.84c-1.17-0.01-2.12,0.93-2.13,2.1c-0.01,1.17,0.93,2.12,2.1,2.13c1.17,0.01,2.12-0.93,2.13-2.1
		c0-0.01,0-0.01,0-0.02C665.5,448.79,664.57,447.85,663.41,447.84z"/>
	<path class="st13" d="M663.41,461.53c-1.17-0.01-2.12,0.93-2.13,2.1c-0.01,1.17,0.93,2.12,2.1,2.13c1.17,0.01,2.12-0.93,2.13-2.1
		c0-0.01,0-0.01,0-0.02C665.5,462.49,664.57,461.54,663.41,461.53z"/>
	<circle class="st13" cx="663.41" cy="477.34" r="2.1"/>
	<path class="st13" d="M663.41,488.94c-1.17-0.01-2.12,0.93-2.13,2.1c-0.01,1.17,0.93,2.12,2.1,2.13c1.17,0.01,2.12-0.93,2.13-2.1
		c0-0.01,0-0.02,0-0.03C665.5,489.88,664.56,488.94,663.41,488.94z"/>
	<path class="st13" d="M663.41,502.57c-1.17-0.01-2.12,0.93-2.13,2.1c-0.01,1.17,0.93,2.12,2.1,2.13s2.12-0.93,2.13-2.1
		c0-0.01,0-0.02,0-0.03C665.5,503.51,664.56,502.57,663.41,502.57z"/>
	<circle class="st13" cx="663.41" cy="518.43" r="2.1"/>
	<path class="st13" d="M663.41,530.03c-1.17-0.01-2.12,0.93-2.13,2.1c-0.01,1.17,0.93,2.12,2.1,2.13s2.12-0.93,2.13-2.1
		c0-0.01,0-0.02,0-0.03C665.5,530.97,664.56,530.03,663.41,530.03z"/>
	<circle class="st13" cx="663.41" cy="545.82" r="2.1"/>
	<path class="st13" d="M663.41,557.42c-1.17-0.01-2.12,0.93-2.13,2.1s0.93,2.12,2.1,2.13s2.12-0.93,2.13-2.1c0-0.01,0-0.01,0-0.02
		c0.01-1.16-0.92-2.11-2.08-2.12C663.42,557.42,663.41,557.42,663.41,557.42z"/>
	<circle class="st13" cx="663.41" cy="573.23" r="2.1"/>
	<circle class="st13" cx="663.41" cy="586.93" r="2.1"/>
	<path class="st13" d="M663.41,598.51c-1.17-0.01-2.12,0.93-2.13,2.1s0.93,2.12,2.1,2.13c1.17,0.01,2.12-0.93,2.13-2.1
		c0-0.01,0-0.01,0-0.02C665.5,599.46,664.57,598.52,663.41,598.51z"/>
	<circle class="st13" cx="663.41" cy="614.32" r="2.1"/>
	<path class="st2" d="M638.53,160.1c-4.29-0.03-7.79,3.43-7.81,7.72c-0.01,2.3,0.99,4.49,2.75,5.97c-3.27,2.77-3.68,7.67-0.91,10.95
		c1.49,1.76,3.67,2.76,5.97,2.75h0.17c1.32,3.04,4.31,5.01,7.63,5.01c1.98,0,3.9-0.73,5.39-2.03l0,0c0.62,0.16,1.25,0.24,1.89,0.24"
		/>
	<path class="st2" d="M665.8,170.06c0-4.59-3.72-8.3-8.3-8.3c-0.31,0.02-0.63,0.05-0.94,0.1c-1.22-4.12-5.56-6.47-9.68-5.25
		c-2.19,0.65-3.98,2.23-4.9,4.31"/>
	<path class="st2" d="M659.73,187.97c4.39-1.2,6.98-5.72,5.78-10.11c-0.28-1.02-0.75-1.98-1.39-2.82"/>
	<path class="st2" d="M700.26,166.82L700.26,166.82c0.73,0.17,1.48,0.27,2.24,0.28c2.77-0.01,5.4-1.18,7.26-3.22
		c5.22-1.43,8.29-6.81,6.87-12.03c-0.33-1.22-0.9-2.36-1.66-3.36"/>
	<path class="st2" d="M675.26,153.99c0,5.13,4.16,9.29,9.29,9.29l0,0h0.21c1.55,3.63,5.12,5.98,9.07,5.98"/>
	<path class="st2" d="M717.03,142.55c0-5.46-4.42-9.88-9.88-9.88l0,0c-0.4,0-0.76,0-1.13,0.1c-1.46-4.9-6.62-7.68-11.52-6.22
		c-2.59,0.78-4.72,2.65-5.82,5.13c-1.27-0.65-2.68-1-4.11-1.01c-5.11-0.02-9.28,4.1-9.3,9.22c-0.01,2.73,1.18,5.33,3.26,7.1"/>
	<path class="st2" d="M629.6,118.14c0.32,6.51,5.85,11.54,12.36,11.22c2.59-0.13,5.07-1.1,7.05-2.78c0.33-0.31,0.64-0.63,0.94-0.97"
		/>
	<path class="st2" d="M626.7,91.42c-2.54,2.13-4.06,5.23-4.18,8.55c-3,4.36-2.73,10.19,0.66,14.25"/>
	<path class="st2" d="M664.25,91.37c1.01-6.04-3.06-11.76-9.11-12.78c-3.21-0.54-6.5,0.36-8.99,2.46l-0.17,0.17
		c-5.8-2.95-12.9-0.64-15.85,5.16c-0.56,1.1-0.94,2.29-1.14,3.51l0,0"/>
	<path class="st2" d="M654.44,127.33c3.14,0.5,6.34-0.4,8.77-2.44c3.36-2.85,4.72-7.41,3.47-11.63c1.67-0.39,3.22-1.16,4.54-2.25
		c4.67-3.94,5.28-10.91,1.37-15.6"/>
</g>
</svg>
