<?xml version="1.0" encoding="utf-8"?>
<!-- Generator: Adobe Illustrator 23.1.0, SVG Export Plug-In . SVG Version: 6.00 Build 0)  -->
<svg version="1.1" id="Layer_1" xmlns="http://www.w3.org/2000/svg" xmlns:xlink="http://www.w3.org/1999/xlink" x="0px" y="0px"
	 viewBox="0 0 1366 768" style="enable-background:new 0 0 1366 768;" xml:space="preserve">
<style type="text/css">
	.st0{fill:#E0E0E0;}
	.st1{fill:#FFFFFF;}
	.st2{fill:#EBEBEB;}
	.st3{fill:#FAFAFA;}
	.st4{fill:#263238;}
	.st5{fill:#37474F;}
	.st6{fill:#BA68C8;}
	.st7{opacity:0.2;enable-background:new    ;}
	.st8{opacity:0.1;enable-background:new    ;}
	.st9{fill:#455A64;}
	.st10{opacity:0.05;enable-background:new    ;}
	.st11{opacity:0.15;enable-background:new    ;}
	.st12{fill:#FFA8A7;}
	.st13{fill:#F28F8F;}
	.st14{fill:#B16668;}
	.st15{opacity:0.45;fill:#FFFFFF;enable-background:new    ;}
	.st16{opacity:0.3;enable-background:new    ;}
	.st17{fill:#F0F0F0;}
	.st18{opacity:0.6;}
	.st19{opacity:0.4;enable-background:new    ;}
	.st20{opacity:0.5;fill:#FFFFFF;enable-background:new    ;}
	.st21{opacity:0.65;fill:#FFFFFF;enable-background:new    ;}
	.st22{opacity:0.2;fill:#FFFFFF;enable-background:new    ;}
</style>
<g id="freepik--Plants--inject-3">
	<g id="freepik--plants--inject-3">
		<path class="st0" d="M409.32,474.91c0,0,2.13-28.08-3.66-54.99c-5.79-26.92-19.84-47.64-37.07-55.73s-37.88,2.93-23,21.36
			s45.73,51.27,45.55,99.28L409.32,474.91z"/>
		<path class="st1" d="M400.47,473.92h0.21c0.56-0.02,1.01-0.48,1-1.05c-1.61-58.8-21.21-88.24-43.84-103.15
			c-0.47-0.31-1.09-0.18-1.4,0.29c-0.31,0.45-0.2,1.08,0.26,1.39c0.01,0,0.01,0.01,0.02,0.01c22.32,14.78,41.33,43.61,42.92,101.54
			C399.64,473.44,399.99,473.84,400.47,473.92z"/>
		<path class="st2" d="M321.75,422.14c0.32,3.22,2.95,5.74,5.46,7.85c2.51,2.11,5.24,4.37,5.92,7.56
			c1.39,6.45-6.27,12.41-4.61,18.79c0.89,2.66,2.84,4.83,5.38,6.01c2.06,1.01,4.18,1.92,6.33,2.71c1.06,0.32,2.14,0.58,3.22,0.77
			c3.23,0.29,6.27,1.63,8.66,3.82c3.51,3.82,3.08,9.67,4.32,14.76c1.52,6.04,5.11,9.67,13.35,12.48l28.21-15.99
			c7.03-7.16,9.51-19.34,3.03-27.74c-3.88-5-11.15-5.63-14.83-10.64c-3.22-4.48-1.39-10.96-3.4-16.12
			c-2.01-5.16-7.38-6.96-12.44-7.85c-5.06-0.89-10.44,1.21-15.38-0.6s-9.53-4.72-14.65-6c-5.04-1.5-10.49-0.58-14.76,2.48
			C323.07,416.21,321.64,419.1,321.75,422.14z"/>
		<path class="st1" d="M374.32,447.52c-0.05-0.11-0.13-0.21-0.23-0.29c-13.25-18.79-34.04-27.72-41.05-29.29
			c-0.38-0.14-0.81,0.06-0.95,0.44c-0.14,0.38,0.06,0.81,0.44,0.95c0.06,0.02,0.12,0.04,0.19,0.04c6.66,1.48,25.95,9.67,38.94,26.98
			c-10.7-3.61-22.43-2.59-32.35,2.8c-0.34,0.22-0.44,0.67-0.23,1.02c0.14,0.2,0.36,0.32,0.6,0.34c0.15,0,0.3-0.04,0.42-0.13
			c10.18-5.5,22.27-6.23,33.04-1.98c7.74,11.08,11.62,24.4,11.04,37.91c-0.02,0.38,0.26,0.72,0.64,0.76l0,0
			c0.4,0.01,0.74-0.31,0.76-0.71C386.21,472.53,382.25,458.88,374.32,447.52z"/>
	</g>
	<g>
		<path class="st0" d="M988.1,493.81c-0.27-20.95,0.11-40.29,10.75-70.05c8.91-25,31.83-50.21,47.31-49.14
			c14.43,1,17.62,18.71,4.64,34.48c-12.97,15.76-41.23,45.92-42.97,67.69l-5.53,24.71L988.1,493.81z"/>
		<path class="st1" d="M994.5,488.53c0.4-0.1,0.69-0.46,0.71-0.87c2.26-48.74,29.48-89.36,52.19-101.85
			c0.45-0.25,0.6-0.81,0.35-1.26s-0.81-0.6-1.26-0.35c-23.08,12.68-50.85,53.96-53.19,103.38c-0.03,0.51,0.36,0.94,0.87,0.97
			c0,0,0,0,0,0L994.5,488.53z"/>
		<path class="st2" d="M1007.62,504.45c0.89-7.35,7.62-20.32,19.97-32.14c13.67-13.06,32.33-21.03,35.46-30.01
			c3.8-10.77-5.72-16.52-21.47-13.15c-18.94,4.05-39.92,25.71-43.52,69.97L1007.62,504.45z"/>
		<path class="st1" d="M1003.38,497.57c0.35-0.08,0.63-0.37,0.69-0.73c7.24-38.68,33.09-55.98,45.76-59.73
			c0.48-0.15,0.76-0.66,0.61-1.14c-0.13-0.48-0.62-0.77-1.1-0.64c-0.01,0-0.03,0.01-0.04,0.01c-13.99,4.14-39.65,21.68-47.05,61.15
			c-0.1,0.5,0.23,0.98,0.73,1.08c0,0,0.01,0,0.01,0C1003.12,497.6,1003.25,497.6,1003.38,497.57z"/>
	</g>
</g>
<g id="freepik--Floor--inject-3">
	<path id="freepik--floor--inject-3" class="st3" d="M438.68,708.68c-137-79.09-137-207.34,0-286.44s359.13-79.09,496.13,0
		s137,207.35,0,286.44S575.68,787.78,438.68,708.68z"/>
</g>
<g id="freepik--Shadows--inject-3">
	<path id="freepik--Shadow--inject-3" class="st0" d="M708.31,650.33l37.51-21.66c0.64-0.22,0.98-0.91,0.77-1.55
		c-0.12-0.36-0.41-0.65-0.77-0.77l-9.19-5.3c-1.27-0.65-2.76-0.65-4.03,0l-37.51,21.66c-0.64,0.22-0.98,0.91-0.77,1.55
		c0.12,0.36,0.41,0.65,0.77,0.77l4.59,2.64l-47.1,27.19c-1.11,0.64-0.64,0.85-0.13,1.16c0.52,0.31,0.9,0.56,2.01,0l47.08-27.17
		l2.71,1.61C705.56,651.07,707.07,651.02,708.31,650.33z"/>
	<path id="freepik--shadow--inject-3" class="st0" d="M694.15,608.76c-2.93,0.06-5.82-0.64-8.4-2.03l-0.76-0.48l-1.39-0.98
		l11.81-1.72l1.06-2.22l-3.22-1.87l-11.28,1.61l0.37-1.06c0.68-1.61,1.9-2.92,3.47-3.71c2.54-1.35,5.38-2.02,8.25-1.97
		c1.27,0,2.54,0.11,3.79,0.35l38.49-22.21c-0.47-0.97-0.58-2.07-0.32-3.11c0.58-1.81,1.87-3.3,3.58-4.13
		c2.55-1.34,5.39-2.02,8.27-1.97c2.93-0.06,5.83,0.64,8.4,2.05c0.26,0.15,0.51,0.31,0.76,0.48l1.39,0.97l-11.81,1.72l-1.06,2.24
		l3.22,1.87l11.28-1.61l-0.37,1.05c-0.68,1.61-1.9,2.93-3.47,3.72c-2.54,1.34-5.38,2.02-8.25,1.97c-1.27,0-2.54-0.12-3.79-0.37
		l-38.49,22.23c0.46,0.96,0.58,2.06,0.32,3.09c-0.57,1.81-1.87,3.3-3.58,4.13C699.87,608.15,697.03,608.82,694.15,608.76z"/>
	<ellipse class="st0" cx="531.96" cy="621.63" rx="122.96" ry="71"/>
	<polygon class="st0" points="733.18,625.7 896.36,531.5 987.52,584.12 824.35,678.33 	"/>
	<path class="st0" d="M691.08,570.81l-63.65-36.75c-2.3-1.32-2.3-3.5,0-4.84l102.93-59.41c2.63-1.34,5.75-1.34,8.38,0l63.65,36.73
		c2.3,1.34,2.3,3.51,0,4.84l-102.93,59.43C696.83,572.14,693.72,572.14,691.08,570.81z"/>
</g>
<g>
	<g id="freepik--tool-box--inject-3">
		<polygon class="st4" points="695.28,564.68 695.28,511.77 629.81,473.96 636.35,530.66 		"/>
		<polygon class="st5" points="695.28,564.68 793.48,507.98 800.02,451.28 695.28,511.77 		"/>
		<path class="st6" d="M625.71,462.62c0.1-1.06,0.76-1.98,1.72-2.42l102.93-59.43c2.63-1.34,5.75-1.34,8.38,0l63.65,36.75
			c0.97,0.43,1.63,1.36,1.72,2.42v15.12c-0.09,1.06-0.75,2-1.72,2.43l-102.93,59.41c-2.63,1.34-5.75,1.34-8.38,0l-63.65-36.75
			c-0.97-0.44-1.62-1.36-1.72-2.42V462.62z"/>
		<path class="st7" d="M627.44,460.21l67.84-39.17v96.88c-1.46,0.03-2.9-0.32-4.19-1.02l-63.65-36.75
			c-0.97-0.44-1.62-1.36-1.72-2.42v-15.13C625.81,461.56,626.47,460.64,627.44,460.21z"/>
		<path class="st8" d="M695.28,421.04l35.09-20.26c2.63-1.34,5.75-1.34,8.38,0l63.65,36.75c0.97,0.43,1.63,1.36,1.72,2.42v15.12
			c-0.09,1.06-0.75,2-1.72,2.43l-102.93,59.41c-1.29,0.69-2.73,1.04-4.19,1.02V421.04z"/>
		<path class="st6" d="M691.08,501.79l-63.65-36.75c-2.3-1.34-2.3-3.5,0-4.84l102.93-59.43c2.63-1.34,5.75-1.34,8.38,0l63.65,36.75
			c2.3,1.34,2.3,3.5,0,4.84l-102.93,59.43C696.83,503.13,693.72,503.13,691.08,501.79z"/>
		<path class="st7" d="M783.66,441.83c1.81,1.05,1.71,2.79-0.23,3.9l-71.58,41.34c-2.11,1.12-4.62,1.16-6.77,0.11
			c-1.81-1.03-1.71-2.79,0.23-3.9l71.58-41.33C779,440.84,781.52,440.79,783.66,441.83z"/>
		<path class="st7" d="M711.86,487.08c-2.11,1.12-4.62,1.16-6.77,0.11l-0.35-0.24c0.18-0.15,0.38-0.29,0.58-0.4l71.58-41.33
			c2.11-1.12,4.62-1.17,6.77-0.13l0.35,0.26c-0.18,0.15-0.38,0.27-0.58,0.39L711.86,487.08z"/>
		<path class="st7" d="M731.28,411.6c1.82,1.03,1.72,2.79-0.21,3.9l-71.59,41.33c-2.1,1.12-4.61,1.17-6.75,0.13
			c-1.81-1.05-1.71-2.79,0.21-3.9l71.59-41.34C726.63,410.59,729.14,410.55,731.28,411.6z"/>
		<path class="st7" d="M659.48,456.82c-2.1,1.12-4.61,1.17-6.75,0.13c-0.13-0.07-0.25-0.16-0.35-0.26c0.18-0.14,0.37-0.27,0.56-0.39
			l71.59-41.33c2.1-1.13,4.61-1.18,6.75-0.13c0.12,0.07,0.24,0.15,0.35,0.24c-0.18,0.15-0.36,0.29-0.56,0.4L659.48,456.82z"/>
		<path class="st7" d="M665.8,460.82c-1.81,1.05-1.71,2.79,0.23,3.9l25.79,14.86c2.1,1.12,4.61,1.17,6.75,0.13
			c1.81-1.05,1.71-2.79-0.21-3.9l-25.79-14.86C670.46,459.83,667.94,459.78,665.8,460.82z"/>
		<path class="st7" d="M691.79,479.5c2.1,1.12,4.61,1.17,6.75,0.13c0.12-0.07,0.24-0.15,0.35-0.24c-0.18-0.15-0.36-0.29-0.56-0.4
			l-25.79-14.86c-2.11-1.12-4.62-1.17-6.77-0.13c-0.12,0.08-0.23,0.16-0.34,0.26c0.17,0.15,0.36,0.28,0.56,0.39L691.79,479.5z"/>
		<path class="st7" d="M652.72,468.3c-1.81,1.03-1.71,2.79,0.21,3.9l25.79,14.86c2.11,1.12,4.62,1.17,6.77,0.13
			c1.81-1.05,1.71-2.8-0.23-3.92l-25.79-14.86C657.37,467.3,654.86,467.25,652.72,468.3z"/>
		<path class="st7" d="M678.71,487.06c2.11,1.12,4.62,1.17,6.77,0.13c0.13-0.08,0.23-0.18,0.34-0.26c-0.18-0.15-0.36-0.29-0.56-0.4
			l-25.79-14.86c-2.1-1.12-4.61-1.16-6.75-0.11c-0.13,0.07-0.25,0.15-0.35,0.24c0.18,0.15,0.36,0.29,0.56,0.4L678.71,487.06z"/>
		<path class="st7" d="M744.37,415.38c-1.81,1.05-1.72,2.79,0.21,3.9l25.79,14.86c2.1,1.12,4.61,1.17,6.75,0.13
			c1.82-1.05,1.72-2.79-0.21-3.9l-25.79-14.86C749.02,414.39,746.51,414.34,744.37,415.38z"/>
		<path class="st7" d="M770.35,434.15c2.11,1.12,4.62,1.17,6.77,0.13c0.12-0.08,0.23-0.16,0.34-0.26c-0.18-0.15-0.36-0.27-0.56-0.39
			l-25.79-14.86c-2.1-1.12-4.61-1.17-6.75-0.13c-0.12,0.07-0.24,0.15-0.35,0.24c0.18,0.15,0.36,0.29,0.56,0.4L770.35,434.15z"/>
		<path class="st7" d="M731.28,422.93c-1.81,1.05-1.71,2.8,0.21,3.92l25.79,14.86c2.11,1.11,4.62,1.16,6.77,0.13
			c1.81-1.05,1.71-2.8-0.23-3.92l-25.79-14.86C735.93,421.95,733.43,421.9,731.28,422.93z"/>
		<path class="st7" d="M757.26,441.7c2.11,1.11,4.62,1.16,6.77,0.13l0.35-0.26c-0.18-0.15-0.38-0.29-0.58-0.4l-25.79-14.86
			c-2.11-1.11-4.62-1.16-6.77-0.13l-0.35,0.26c0.18,0.15,0.37,0.28,0.56,0.4L757.26,441.7z"/>
		<path class="st9" d="M688.73,448.01v14.62l6.54,3.79l6.54-3.79v-11.09c0.13-2.45,1.43-4.7,3.48-6.04l16.12-9.33l3.06-1.76
			c1.92-1.11,3.48-0.21,3.48,2.01v11.09l6.54-3.79V429.1c0.02-0.29,0.02-0.58,0-0.87c-0.01-0.22-0.05-0.44-0.1-0.66
			c-0.05-0.25-0.11-0.5-0.19-0.74c-0.07-0.19-0.14-0.38-0.23-0.56c-0.09-0.18-0.19-0.36-0.31-0.53c-0.11-0.17-0.22-0.32-0.35-0.47
			c-0.12-0.14-0.26-0.27-0.4-0.39l0,0c-0.14-0.11-0.29-0.21-0.45-0.29l-0.21-0.11l-6.3-3.64c-1.6-0.75-3.49-0.57-4.92,0.48
			l-25.32,14.62C691.6,438.61,689,443.1,688.73,448.01z"/>
		<path class="st4" d="M721.45,436.16L721.45,436.16v7.54l6.54,3.79V436.4c0-2.22-1.61-3.13-3.48-2.01L721.45,436.16z"/>
		<path class="st5" d="M695.28,451.78v14.63l6.54-3.79v-11.09c0.13-2.45,1.43-4.7,3.48-6.04l16.12-9.32l0,0l3.06-1.76
			c1.92-1.11,3.48-0.21,3.48,2.01v11.09l6.54-3.77v-14.63c0.02-0.29,0.02-0.58,0-0.87c-0.01-0.22-0.05-0.44-0.1-0.66
			c-0.05-0.25-0.11-0.5-0.19-0.74c-0.07-0.19-0.14-0.38-0.23-0.56c-0.09-0.18-0.19-0.36-0.31-0.53c-0.11-0.17-0.22-0.32-0.35-0.47
			c-0.12-0.14-0.26-0.27-0.4-0.39l0,0c-0.14-0.11-0.29-0.21-0.45-0.29l-0.21-0.11c-1.56-0.58-3.31-0.35-4.67,0.61l-25.32,14.62
			C698.16,442.4,695.56,446.88,695.28,451.78z"/>
		<polygon class="st9" points="728.01,515.54 725.59,514.15 719.03,517.92 721.47,519.33 		"/>
		<polygon class="st4" points="721.47,519.33 719.05,550.97 719.03,517.92 		"/>
		<polygon class="st5" points="728.01,515.54 725.59,547.18 726.38,546.81 		"/>
		<polygon class="st9" points="673.21,521.71 675.63,520.31 682.17,524.08 679.75,525.48 		"/>
		<polygon points="673.21,521.71 675.63,553.34 674.84,552.96 		"/>
		<polygon class="st9" points="647.02,506.58 649.45,505.19 656,508.96 653.56,510.37 		"/>
		<polygon class="st5" points="682.17,557.12 679.75,525.48 682.17,524.08 		"/>
		<polygon class="st5" points="656,508.96 656,542 653.56,510.37 		"/>
		<polygon points="647.02,506.58 649.44,538.22 648.65,537.85 		"/>
		<polygon class="st9" points="773.83,489.09 771.42,487.69 764.87,491.46 767.29,492.86 		"/>
		<polygon class="st4" points="767.29,492.86 764.87,524.5 764.87,491.46 		"/>
		<polygon class="st5" points="773.83,489.09 771.42,520.73 772.22,520.34 		"/>
		<polygon class="st5" points="715.52,510.17 715.54,502.61 728.62,495.05 730.81,496.31 730.8,503.87 717.7,511.43 		"/>
		<polygon class="st9" points="730.81,496.31 730.8,503.87 717.7,511.43 717.73,503.87 		"/>
		<polygon class="st4" points="717.73,503.87 715.54,502.61 715.52,510.17 717.7,511.43 		"/>
		<polygon class="st5" points="761.7,483.53 761.73,475.97 774.82,468.41 777.01,469.67 776.98,477.23 763.89,484.79 		"/>
		<polygon class="st9" points="777.01,469.67 776.98,477.23 763.89,484.79 763.9,477.23 		"/>
		<polygon class="st4" points="763.9,477.23 761.73,475.97 761.7,483.53 763.89,484.79 		"/>
	</g>
</g>
<g id="freepik--Tools--inject-3">
	<g id="freepik--Wrench--inject-3">
		<path class="st5" d="M686.38,595.82c-0.89,0.5-2.55,0.48-3.08,1.08v2.18l10.12-1.47l3.82,2.24l-1.45,3.05l-10.22-0.69v2.18
			c0.22,0.16,0.44,0.31,0.68,0.45c4.9,2.48,10.7,2.48,15.6,0c1.82-0.81,3.05-2.55,3.22-4.53l0,0v-2.18l-0.6,0.1
			c-0.01-0.04-0.01-0.08,0-0.11l38.3-22.11c3.89,0.86,7.97,0.35,11.52-1.45c1.38-0.67,2.47-1.82,3.08-3.22v-2.19l-10.12,3.66
			l-3.82-2.24l1.45-3.05l10.22-1.48v-2.19c0,0-11.94-0.79-16.29,1.61c-1.1,0.58-2.03,1.44-2.69,2.5l-0.58-0.21v2.16l0,0
			c-0.01,0.81,0.22,1.6,0.66,2.27l-38.3,22.11C694,593.44,689.93,593.99,686.38,595.82z"/>
		<polygon class="st5" points="742.77,576.06 742.77,573.89 704.48,596 704.48,598.17 		"/>
		<path class="st9" d="M736.2,570.08l-38.3,22.11c-3.89-0.86-7.96-0.36-11.52,1.43c-1.38,0.67-2.47,1.82-3.08,3.22l10.12-1.47
			l3.82,2.24l-1.45,3.03l-10.22,1.5c0.22,0.16,0.44,0.31,0.68,0.45c4.9,2.48,10.7,2.48,15.6,0c3.22-1.81,4.06-4.45,2.63-6.72
			l38.3-22.11c3.89,0.86,7.96,0.34,11.52-1.45c1.38-0.67,2.47-1.82,3.08-3.22l-10.12,1.48l-3.82-2.24l1.45-3.05l10.22-1.5
			l-0.68-0.44c-4.9-2.48-10.7-2.48-15.6,0C735.71,565.17,734.76,567.81,736.2,570.08z"/>
		<polygon class="st4" points="744.24,568.87 743.44,568.41 744.89,565.36 755.1,563.86 755.1,566.05 744.89,567.53 		"/>
		<polygon class="st4" points="696.44,599.37 697.24,597.67 693.42,595.42 683.3,596.9 683.3,599.09 693.42,597.61 		"/>
	</g>
	<g id="freepik--Screwdriver--inject-3">
		<path class="st6" d="M709.81,627.99l8.06,13.86l27.01-15.59c1.28-0.79,1.98-2.25,1.81-3.74c-0.21-3.99-2.32-7.64-5.67-9.82
			c-1.16-0.85-2.69-1-4-0.39l0,0L709.81,627.99z"/>
		<path class="st6" d="M708.2,630.86L708.2,630.86c-0.11,2.11-3.09,2.56-3.09,2.56l5.66,9.82c0,0,1.89-2.32,3.77-1.4l0,0
			c2.79,1.21,4.96-0.29,4.96-3.63c-0.22-3.98-2.33-7.63-5.67-9.8C710.93,626.72,708.54,627.85,708.2,630.86z"/>
		<path class="st10" d="M708.2,630.86L708.2,630.86c-0.11,2.11-3.09,2.56-3.09,2.56l5.66,9.82c0,0,1.89-2.32,3.77-1.4l0,0
			c2.79,1.21,4.96-0.29,4.96-3.63c-0.22-3.98-2.33-7.63-5.67-9.8C710.93,626.72,708.54,627.85,708.2,630.86z"/>
		<path class="st10" d="M706.45,633c-0.43,0.2-0.89,0.34-1.35,0.42l5.66,9.82c0.31-0.36,0.66-0.67,1.05-0.95
			C711.47,638.56,709.51,635.16,706.45,633z"/>
		<path class="st6" d="M699.19,634.12l0.47,0.82c-0.16,0.57-0.24,1.16-0.24,1.76c0.22,3.99,2.33,7.63,5.67,9.82
			c0.5,0.3,1.04,0.52,1.61,0.66l0.47,0.82l1.89-1.08l0,0c1.16-0.84,1.78-2.25,1.61-3.67c-0.21-3.99-2.31-7.63-5.66-9.82
			c-1.17-0.85-2.7-0.99-4.01-0.39l0,0L699.19,634.12z"/>
		<path class="st6" d="M708.86,644.34c-0.21-3.99-2.31-7.63-5.66-9.82c-3.13-1.81-5.67-0.34-5.67,3.22
			c0.22,3.99,2.33,7.63,5.67,9.82C706.33,649.4,708.86,647.95,708.86,644.34z"/>
		<path class="st11" d="M708.86,644.34c-0.21-3.99-2.31-7.63-5.66-9.82c-3.13-1.81-5.67-0.34-5.67,3.22
			c0.22,3.99,2.33,7.63,5.67,9.82C706.33,649.4,708.86,647.95,708.86,644.34z"/>
		<path class="st11" d="M701,645.8c0.42,0.47,0.89,0.89,1.4,1.26l1.32-3.77l-1.61-1.18L701,645.8z"/>
		<path class="st7" d="M742.02,618.64L742.02,618.64c0.4,0.75,0.14,1.68-0.58,2.13l-19.34,11.14c-0.75,0.41-1.69,0.16-2.14-0.56l0,0
			c-0.4-0.75-0.14-1.68,0.58-2.13l19.34-11.14C740.62,617.67,741.57,617.92,742.02,618.64z"/>
		<path class="st7" d="M738.54,614.5L738.54,614.5c0.45,0.22,0.62,0.77,0.4,1.21c-0.09,0.17-0.23,0.31-0.4,0.4l-19.66,11.28
			c-0.74,0.36-1.63,0.26-2.27-0.26l0,0c-0.45-0.22-0.62-0.77-0.4-1.21c0.09-0.17,0.23-0.31,0.4-0.4l19.65-11.28
			C736.99,613.88,737.89,613.98,738.54,614.5z"/>
		<path class="st7" d="M743.87,623.74L743.87,623.74c-0.02-0.51-0.44-0.91-0.95-0.89c-0.17,0.01-0.33,0.06-0.47,0.15l-19.66,11.28
			c-0.68,0.47-1.04,1.28-0.92,2.1l0,0c0.02,0.51,0.44,0.91,0.95,0.89c0.17-0.01,0.33-0.06,0.47-0.15l19.66-11.28
			C743.63,625.36,743.99,624.55,743.87,623.74z"/>
		<path class="st9" d="M653.51,667.21v3.77l9.44-3.06c0.93-1.76,2.22-3.31,3.77-4.56l35.88-20.71l1.1-3.14l-1.1-0.63l-35.88,20.71
			c-1.2,0.61-2.64,0.53-3.77-0.21L653.51,667.21z"/>
		<path class="st5" d="M654.63,667.85v3.77l9.44-3.06c0.93-1.77,2.21-3.32,3.77-4.56l35.88-20.71v-3.79l-35.88,20.71
			c-1.2,0.62-2.64,0.54-3.77-0.19L654.63,667.85z"/>
		<polygon class="st4" points="654.63,671.62 653.53,670.98 653.53,667.21 654.63,667.85 		"/>
		<polygon class="st9" points="653.53,667.21 654.63,667.85 664.07,660.02 662.98,659.37 		"/>
	</g>
</g>
<g id="freepik--Character--inject-3">
	<g id="freepik--character--inject-3">
		<g id="freepik--Top--inject-3">
			<path class="st5" d="M787.98,181.89h-83.07c-0.67,0-1.21-0.54-1.21-1.21s0.54-1.21,1.21-1.21h83.07c0.67,0,1.21,0.54,1.21,1.21
				S788.65,181.89,787.98,181.89L787.98,181.89z"/>
			<g id="freepik--Arm--inject-3">
				<path class="st12" d="M597.1,235.61c-7.98-15.23-20.86-48.14-20.86-48.14l0.27-44.18c-0.32,0,5.96,1.9,7.88,2.35
					c12.44,4.59,15.88,6.79,21.21,17.73c4.24,8.72,18.52,48.48,23.6,61.94l30.38-21.61c7.66-6.45,9.44-15.63,14.12-21.36
					c4.67-5.72,9.98-7.3,15.26-12.15c5.29-4.85,7.29-8.46,9.32-4.58c2.03,3.88-3.74,11.02-4.74,12.75c-0.69,1.22-2.45,2.13-2.85,3.5
					c-0.66,2.35,2.84,1.98,4.34,1.61c7.41-1.61,14.15-7.87,18.73-13.59c1.79-2.24,8.32-10.94,9.98-3.92
					c1.35,5.72-3.35,9.38-3.69,14.65c-0.16,2.92-0.93,5.77-2.26,8.38c-1.11,2.39-0.6,5.16-1.39,7.66
					c-2.43,7.77-8.61,10.43-15.78,12.89s-14.92,4.16-20.87,8.74c-7.22,5.58-24.68,24.37-35.3,35.67
					c-13.49,14.36-22.39,17.73-30.29,9.27C606.27,254.76,600.12,241.25,597.1,235.61z"/>
				<path class="st9" d="M723.79,166.04c-1.61-7.03-8.19,1.61-9.98,3.92c-4.58,5.72-11.28,11.98-18.73,13.59
					c-1.5,0.32-5,0.69-4.34-1.61c0.4-1.37,2.16-2.27,2.85-3.5c1-1.72,6.77-8.88,4.74-12.75c-2.03-3.87-4.01-0.29-9.32,4.58
					c-5.3,4.87-10.59,6.45-15.26,12.15c-4.67,5.71-6.45,14.92-14.12,21.36l-2.08,1.48c1.26,8.49,6.45,16.81,13.97,20.63
					c3.32-3.22,6.22-5.92,8.27-7.51c5.95-4.58,13.89-6.45,20.87-8.74c6.98-2.29,13.35-5.09,15.78-12.89
					c0.79-2.5,0.27-5.27,1.39-7.66c1.32-2.61,2.09-5.46,2.26-8.38C720.44,175.42,725.14,171.77,723.79,166.04z"/>
				<path class="st6" d="M661.2,202.29c-0.15,2.8,1.42,10.28,4.98,14.26c2.42,2.57,5.35,4.61,8.59,6l1.29-1c0,0,1.22,0.13-2.06,3.43
					c-3.29,3.3-4.06,4.53-5.9,4.26c-1.84-0.27-7.03-3.22-10.54-8.69c-2.56-3.85-4.07-8.29-4.4-12.89c0.1-1.61,2.35-2.77,4.4-4.26
					s4.17-3.95,5.32-2.97L661.2,202.29z"/>
				<path class="st7" d="M661.2,202.29c-0.15,2.8,1.42,10.28,4.98,14.26c2.42,2.57,5.35,4.61,8.59,6l1.29-1c0,0,1.22,0.13-2.06,3.43
					c-3.29,3.3-4.06,4.53-5.9,4.26c-1.84-0.27-7.03-3.22-10.54-8.69c-2.56-3.85-4.07-8.29-4.4-12.89c0.1-1.61,2.35-2.77,4.4-4.26
					s4.17-3.95,5.32-2.97L661.2,202.29z"/>
				<path class="st0" d="M580.44,144.01c8.14,1.89,14.51,4.96,18.37,8.25c5.96,5.16,8.69,13.2,12.75,24.18
					c4.06,10.98,14.51,37.72,14.51,37.72c-12.09,3.85-22.39,11.92-29.01,22.74l-27.66-57.56L580.44,144.01z"/>
				<path class="st13" d="M629.34,225.34c-5.36,2.7-9.71,7.07-12.39,12.44c0,0,0-8.88,11.28-15.52L629.34,225.34z"/>
			</g>
			<g id="freepik--Chest--inject-3">
				<path class="st3" d="M486.89,148.65c0,0-9.46,8.32-11.88,17.31c-1.18,4.42-2.27,8.06,1.47,32.62
					c3.56,23.42,6.09,23.42,7.91,41.28l-2.61,44.69c14.01,16.41,79.41,24.76,112.13,2.66c0,0,1.42-67.86-0.89-95.8
					c-1.61-19-9.59-38.49-12.59-47.4c-8.9-1.61-17.46-2.58-17.46-2.58l-32.72-1.9L486.89,148.65z"/>
			</g>
			<g id="freepik--Head--inject-3">
				<path class="st5" d="M578.39,81.67c4.29-9.86,0.08-22.95-5.06-29.09c-7.43-8.88-18.99-12.72-36.43-11.64
					c-13.25,0.82-26.29,6.33-28.77,19.94c-10.64,3.22-9.43,20.66-6.79,28.38c5.38,15.67,15.96,29.29,16.12,37.3L578.39,81.67z"/>
				<path class="st12" d="M578.37,118.5c-2.1,7.56-6.45,13.1-13.46,14.2c-3.67,0.35-7.37,0.35-11.04,0l0.27,9.67
					c14.51,18.36-19.44,22.08-36.2,1.97l-1-32.51c0,0-4.27,4.84-11.28,0.26c-5.88-4.34-7.9-12.21-4.84-18.84
					c3.5-7.37,10.49-4.32,12.65-2.08c2.16,2.24,4.66,6.45,6.45,5.87c2.1-0.65,3.73-2.32,4.34-4.43c1.63-4.59,2.4-9.43,2.27-14.3
					c2.07-1.06,3.93-2.49,5.48-4.22c2.83-2.98,4.54-6.85,4.84-10.94c15.1-4.72,32.48-2.5,38.68,2.37
					c3.61,6.37,3.76,21.16,4.35,29.69C580.55,104.46,580.13,112.18,578.37,118.5z"/>
				<path class="st13" d="M553.88,132.74c-7.74-0.44-23.29-4.05-27.4-8.35c-4.11-4.3-5.9-13.15-5.9-13.15s0.61,11.15,3.82,16.12
					c3.21,4.96,11.28,7.08,16.12,8.3c4.45,0.92,8.94,1.6,13.46,2.03L553.88,132.74z"/>
				<path class="st4" d="M548.98,90.26c0,1.74-1.37,3.16-3.11,3.22c-1.78,0.06-3.27-1.33-3.33-3.11c-0.06-1.78,1.33-3.27,3.11-3.33
					c1.78-0.06,3.27,1.33,3.33,3.11C548.97,90.18,548.98,90.22,548.98,90.26z"/>
				<path class="st4" d="M544.61,80.27l-6.33,4.27c-1.16-1.81-0.68-4.21,1.08-5.45c1.71-1.14,4.02-0.68,5.16,1.03
					C544.55,80.17,544.58,80.22,544.61,80.27z"/>
				<path class="st4" d="M575.34,82.26l-6.95-3.32c0.78-1.88,2.95-2.77,4.83-1.99c0.06,0.03,0.12,0.05,0.18,0.08
					C575.33,78,576.18,80.29,575.34,82.26z"/>
				<path class="st4" d="M572.93,89.15c-0.05,1.73-1.5,3.08-3.22,3.03c-1.73-0.05-3.08-1.5-3.03-3.22c0.05-1.69,1.44-3.03,3.12-3.03
					C571.54,85.98,572.93,87.4,572.93,89.15z"/>
				<polygon class="st13" points="556.16,83.54 558.42,106.01 570.49,102.36 				"/>
				<path class="st14" d="M548.96,111.24l12.89,2.87c-0.57,3.51-3.89,5.9-7.4,5.33c-0.12-0.02-0.25-0.04-0.37-0.07
					C550.48,118.46,548.23,114.89,548.96,111.24z"/>
				<path class="st13" d="M554.13,119.37c0.27,0.05,0.54,0.08,0.81,0.1c-0.07-3.27-2.74-5.88-6.01-5.87
					C549.3,116.41,551.37,118.71,554.13,119.37z"/>
			</g>
			<g id="freepik--Helmet--inject-3">
				<path class="st6" d="M498.79,80.27c0.4,3.94,1.37,7.8,2.87,11.46c0.85-1.08,1.84-2.14,2.84-3.22
					c5.83-5.72,12.63-10.36,20.08-13.72l0,0c17.23-8.06,38.33-10.77,55.22-6.08c-0.62-3.35-1.68-6.6-3.14-9.67
					c-9.44-20.53-33.73-29.52-54.25-20.08C506.5,46.26,497.01,62.86,498.79,80.27z"/>
				<path class="st6" d="M516.51,39.55c2.05-1,12.35-4.08,13.18-4.34c5.33-1.61,13.93-1.52,22.74,5.74
					c6.88,5.75,11.72,13.57,13.8,22.29l-10.96,3.43l-3.5,0.34c-1.29-8.06-11.91-25.42-26.84-26.06c-0.7-0.05-1.4-0.05-2.1,0
					c-1.98,0.1-3.93,0.5-5.79,1.18c-2.03,1.42-3.96,2.97-5.79,4.64C511.65,43.62,513.63,40.89,516.51,39.55z"/>
				<path class="st15" d="M516.51,39.55c2.05-1,12.35-4.08,13.18-4.34c5.33-1.61,13.93-1.52,22.74,5.74
					c6.88,5.75,11.72,13.57,13.8,22.29l-10.96,3.43l-3.5,0.34c-1.29-8.06-11.91-25.42-26.84-26.06c-0.7-0.05-1.4-0.05-2.1,0
					c-1.98,0.1-3.93,0.5-5.79,1.18c-2.03,1.42-3.96,2.97-5.79,4.64C511.65,43.62,513.63,40.89,516.51,39.55z"/>
				<path class="st6" d="M551.81,67.03c-1.61-9.38-15.83-31.57-34.72-24.89c-2.03,1.42-3.97,2.97-5.8,4.64
					c0.37-3.15,2.35-5.89,5.22-7.24c4.92-2.37,14.78-3.53,24.98,4.84c6.88,5.74,11.71,13.56,13.78,22.27L551.81,67.03z"/>
				<path class="st16" d="M551.81,67.03c-1.61-9.38-15.83-31.57-34.72-24.89c-2.03,1.42-3.97,2.97-5.8,4.64
					c0.37-3.15,2.35-5.89,5.22-7.24c4.92-2.37,14.78-3.53,24.98,4.84c6.88,5.74,11.71,13.56,13.78,22.27L551.81,67.03z"/>
				<path class="st6" d="M524.27,71.56c0.79-0.69,4.61-8.91,18.21-16.12c8.4-4.48,25.61-4.71,33.33-4.58
					c13.52,0.23,16.75,3.09,16.92,5.09c0,0.47,0.23,2.66,0.29,3.14c0.06,0.45-0.04,0.91-0.29,1.29c-2.01,3.06-12.89,8.38-12.89,8.38
					c-16.89-4.69-37.99-1.98-55.22,6.08L524.27,71.56z"/>
				<path class="st11" d="M524.27,71.56c0.79-0.69,4.61-8.91,18.21-16.12c8.4-4.48,25.61-4.71,33.33-4.58
					c13.52,0.23,16.75,3.09,16.92,5.09c0,0.47,0.23,2.66,0.29,3.14c0.06,0.45-0.04,0.91-0.29,1.29c-2.01,3.06-12.89,8.38-12.89,8.38
					c-16.89-4.69-37.99-1.98-55.22,6.08L524.27,71.56z"/>
				<path class="st6" d="M524.57,74.79c17.23-8.06,38.33-10.77,55.22-6.08c0,0,10.93-5.32,12.89-8.38c1.1-1.69,0.11-6.03-16.6-6.3
					c-7.74-0.13-24.95,0.1-33.35,4.58C529.18,65.94,525.36,74.09,524.57,74.79z"/>
				<path class="st16" d="M524.57,74.79c17.23-8.06,38.33-10.77,55.22-6.08c0,0,10.93-5.32,12.89-8.38c1.1-1.69,0.11-6.03-16.6-6.3
					c-7.74-0.13-24.95,0.1-33.35,4.58C529.18,65.94,525.36,74.09,524.57,74.79z"/>
			</g>
		</g>
		<g id="freepik--Bottom--inject-3">
			<path class="st12" d="M576.62,568.71c0.52-8.56,5.11-94.77,5.11-94.77l-41.91,29.54c7.3,49.29,8.91,64.15,9.22,72.37l0,0
				c-0.17,0.69-0.24,1.4-0.19,2.11c0.23,9.77,11.93,14.86,21.1,21.24c7.82,5.63,16.1,10.59,24.76,14.83
				c6.62,3.05,19.97,3.14,21.55-0.9c-11.15-7.83-24.06-16.38-32.99-25.37C579.05,583.46,575.99,578.96,576.62,568.71z"/>
			<path class="st4" d="M635.27,623.38c0.56,0,1.53,5.88-1.5,8.45c-3.48,2.95-13.78,7.87-27.53,6.37
				c-13.75-1.5-21.26-5.42-26.84-9.67c-5.58-4.26-13.39-10.35-19.63-11.56c-5.79-1.13-12.09-3.53-13.97-5.19
				c-1.89-1.66-1.76-9.22-1.76-9.22L635.27,623.38z"/>
			<path class="st5" d="M592.4,591c-0.9-0.84-1.77-1.61-2.63-2.55c-2.88-3.14-5.11-6.81-6.56-10.81c-0.89-1.91-1.58-3.91-2.06-5.96
				c-0.44-2.37-0.71-4.84-1.11-7.14c-0.15-0.89,0-2.84-1.1-3.22c-1.28-0.14-2.57,0.1-3.71,0.69c-2.79,1.19-5.71,2.11-8.57,3.13
				c-1.61,0.56-4.92,1.43-5.4,3.22c-0.48,1.79,0.32,4.01,0,5.95c-0.15,0.76-0.47,1.61-1.35,1.52c-1.61,0-2.01-2.32-2.43-3.45
				c-0.9-2.37-1.61-3.48-4.17-4.17c-1.34-0.37-3.95-0.55-4.84-1.74l-0.34-3.22c-1.49,0.3-2.74,1.28-3.4,2.64
				c-1.11,2.3-0.37,5.51,0,7.96c0.45,2.43,0.66,4.91,0.61,7.38c-0.19,2.12-0.53,4.22-1.02,6.29c-0.68,3.61-1.02,7.28-1.02,10.96
				c-0.03,1.71,0.1,3.41,0.39,5.09c0.25,1.39,1.03,2.64,2.16,3.48c1.73,1.52,3.72,2.71,5.88,3.51c2.95,1.18,6,2.08,8.99,3.13
				c6.17,2.13,13.36,6.61,19.68,11.4c6.32,4.79,20.16,9.82,29.11,9.82c13.67,0,23.21-4.51,25.79-9.22c0.24-3.22,0.44-6.45-1.03-8.74
				c-4.84-7.38-15.42-9.77-23.95-13.83c-3.71-1.87-7.3-3.98-10.73-6.32C597.03,595.06,594.63,593.13,592.4,591z"/>
			<path class="st9" d="M615.61,605.33c-16.75,4.74-22.56,16.04-25.03,25.18c6.01,2.56,12.42,4.05,18.94,4.38
				c13.67,0,23.21-4.51,25.79-9.22c0.24-3.22,0.44-6.45-1.03-8.74C630.48,610.97,622.89,608.26,615.61,605.33z"/>
			<path class="st9" d="M560.68,613.62l0.71,0.27c-0.66-12.89-5.98-21.44-17.63-23.16c-0.34,2.54-0.5,5.11-0.5,7.67
				c-0.03,1.71,0.1,3.41,0.39,5.09c0.25,1.39,1.03,2.64,2.16,3.48c1.73,1.52,3.72,2.71,5.88,3.51
				C554.63,611.66,557.68,612.57,560.68,613.62z"/>
			<path class="st12" d="M507.57,499.32l-43.68-9.49c-1.14,27.03-0.45,63.6-1.37,88.97c-0.18,4.84-2.64,37.07-1.27,46.97
				c2.06,14.91,22.03,13.94,23.68,5.17c1.64-8.77,3.09-46.26,3.43-50.14c0.92-16.25,10.2-43.52,16.7-72.53
				C505.38,506.93,507.26,500.71,507.57,499.32z"/>
			<path class="st4" d="M491.98,637.52c-0.16,8.69-1.43,14.51-4.69,19.7s-9.75,7.06-16.47,5.82s-15.44-4.84-17.73-12.31
				c-2.29-7.48-2.1-12.54-0.95-20.63L491.98,637.52z"/>
			<path class="st5" d="M462.88,563.86c-2.72,0.29-3.22,23.87-4.32,35.57c-1.13,12.54-5.11,17.86-6.16,28.16
				c-1.19,11.77-0.26,16.96,4.71,23.85c4.96,6.9,21.74,13.23,29.38,2.8c6.22-8.51,6.08-17.73,4.95-29.33
				c-1.18-12.04-1.22-31.35-1.08-40.54c0.13-8.77,2.79-18.04,0.35-18.92c-0.52,2.35-0.84,4.37-1.11,5.63
				c-0.6,2.77-1.26,6.12-2.1,5.5c0,0,0.24-2.47,0.27-3.59s0.27-1.87-0.48-2.59s-4.05-1.18-5.17-1.32c-2.72-0.39-5.45-0.69-8.2-0.82
				c-1.37,0-2.76,0-4.13,0c-1.17,0.03-2.33,0.22-3.45,0.56c-0.64,0.2-1.16,0.65-1.43,1.26c-0.09,0.44-0.09,0.9,0,1.34
				c0.04,0.81-0.04,1.62-0.23,2.4c-0.1,0.35-0.34,0.79-0.74,0.73c-0.4-0.06-0.64-0.29-0.76-1.08c-0.19-1.6-0.28-3.22-0.26-4.84
				c0-0.76,0-1.81,0-2.56C462.92,565.29,462.86,564.6,462.88,563.86z"/>
			<path class="st9" d="M451.95,634.39c-0.15,7.29,0.56,12.23,4.45,17.63c4.96,6.9,23.06,13.2,30.62,2.77
				c3.8-5.19,4.61-11.19,4.84-17.28C486.76,629.89,459.31,627.46,451.95,634.39z"/>
			<path class="st9" d="M595.68,210.64c0,0-33.15,7.46-82.86,4.05c0,32.85,3.47,70.53-12.27,70.32l-18.78-0.45
				c-1.05,49.19-9.36,151.75-9.36,151.75c-0.74,6.04-9.49,31.74-9.82,53.59c-0.5,34.28-1.22,60.26-1.22,60.26s19.15,7.58,33.22,2.32
				c0,0,18.29-72.87,23.44-95.61c6.11-27.09,18.73-77.16,18.73-77.16l1.53,71.29c-1.79,14.37-1.98,28.88-0.58,43.29
				c1.61,14.51,7.49,54.65,7.49,54.65s17.62,3.55,32.9-0.98c0,0,9.2-86.34,9.96-99.64c0.82-14.51,5.4-147.75,5.82-160.18l0,0
				C598.07,225.5,595.68,210.64,595.68,210.64z"/>
			<path class="st9" d="M512.82,214.69c-2.32-29.75-2.26-54.2-13.41-68.66l14.25-3c0,0,12.33,27.3,12.33,72.67L512.82,214.69z"/>
			<path class="st9" d="M582.6,213.91c0-32.41-7.14-60.2-18.45-72.34l16.29,2.43c0,0,15.25,24.53,15.25,69.9H582.6z"/>
			<path class="st5" d="M530.73,221.49c0,0,26.19,1.61,48.19-2.56l1,22.29l-21.95,13.76l-27.24-8.9V221.49z"/>
			<path class="st6" d="M488.55,286.18c12.62,5.24,43.26,8.38,67.86,8.06c24.6-0.32,37.47-6.11,37.47-6.11l-0.4,14.99
				c0,0-43.65,18.31-106.8-3.22L488.55,286.18z"/>
			<path class="st16" d="M488.55,286.18c12.62,5.24,43.26,8.38,67.86,8.06c24.6-0.32,37.47-6.11,37.47-6.11l-0.4,14.99
				c0,0-43.65,18.31-106.8-3.22L488.55,286.18z"/>
			<path class="st5" d="M536.76,379.72l11.7-47.29c0,0,17.54,0.23,29.01-10.49c0,0-1.61,12.07-22.45,18.52l-10.83,37.57l-6.14,71.64
				L536.76,379.72z"/>
			<path class="st6" d="M518.13,141.01l0.1,3.22c2.52,7.15,4.35,14.53,5.46,22.03c3.38,20.42,3.96,47.19,3.96,77.36v83.13
				c0,0-37.8,2.42-49.8-26.43l4.84-60.47c0,0-6.93-31.27-8.82-49.14c-1.89-17.87-5.25-30.4,11.46-44.07L518.13,141.01z"/>
			<path class="st17" d="M479.2,222.96c1.89,9.57,3.51,16.91,3.51,16.91l-0.18,2.37c11.69,7.64,29.01,12.54,45.13,11.8v-16.89
				C510.07,237.94,490.73,231.95,479.2,222.96z"/>
			<path class="st17" d="M527.64,287.59v-16.96c-16.57,0.76-34.64-4.51-46.32-12.62l-1.22,16
				C491.69,282.67,510.47,288.36,527.64,287.59z"/>
			<path class="st6" d="M554.75,140.63c10.57,6.37,18.22,16.64,21.29,28.59c5.09,20.02,5.85,35.81,6.56,61.52
				s-0.34,97.43-0.34,97.43s11.28-4.95,13.76-10.32c0,0,3.22-91.08-0.34-123.36s-15.25-50.48-15.25-50.48
				S572.09,140.59,554.75,140.63z"/>
			<path class="st17" d="M582.87,250.79c4.88-0.14,9.73-0.72,14.51-1.74c0-5.64,0-11.28,0-16.88c-4.86,1.02-9.81,1.59-14.78,1.71
				C582.77,238.75,582.84,244.54,582.87,250.79z"/>
			<path class="st17" d="M597.1,282.69c0.1-5.19,0.21-10.93,0.27-16.96c-4.74,0.97-9.57,1.51-14.41,1.61c0,5.72,0,11.44,0,16.91
				C587.72,284.14,592.44,283.61,597.1,282.69z"/>
		</g>
		<g id="freepik--hand-with-bulb--inject-3">
			<path class="st12" d="M493.77,146.99c-9.67,0-20.95-0.42-27.29,13.54c-2.06,4.55-8.43,31.27-15.51,55.91
				c-12.67-16.12-23.48-32.64-24.89-35.57c-3.76-7.85-3.8-13.15-7.64-21.26c-2.21-4.44-3.92-9.11-5.09-13.93
				c-0.92-3.22-3.79-0.85-4.84,0.6c-1.68,2.45-2.6,5.33-2.66,8.3c0,2.1,0,4.24-0.16,6.3c-0.16,2.06-0.85,1.98-2.53,1.05
				c-3.45-1.93-6.45-5.27-9.25-7.95c-2.8-2.68-6.64-5.19-9.67-8.06s-4.56-5.79-7.03-8.69c-1.85-2.18-5.01-5-7.45-1.89
				c-1.45,1.89-0.11,4.08,0.53,5.96c0.74,2.14,0,3.72-0.4,5.83c-0.71,2.29-0.64,4.76,0.19,7.01c1.16,2.27,2.19,3.67,1.89,6.35
				c-0.24,2.21-1.03,4.32-0.71,6.59c0.26,1.87,1.61,3.22,2.55,4.84c1.65,2.86,3.7,5.48,6.08,7.77c2.8,2.84,5.84,5.44,9.07,7.78
				c7.75,6.03,10.64,7.91,13.23,9.93c3.88,3,7.9,10.69,10.15,14.92c4.4,8.32,13.89,31.49,26.56,48.08
				c7.33,9.56,17.31,12.6,26.11,1.81c4.61-5.67,8.53-14.67,11.07-21.47c9.78-26.06,16.86-47.5,16.86-47.5
				S500.86,168.91,493.77,146.99z"/>
			<path class="st9" d="M430.78,188.43c-2.51-3.8-4.19-6.56-4.69-7.59c-3.76-7.85-3.8-13.15-7.64-21.26
				c-2.21-4.43-3.92-9.09-5.09-13.89c-0.92-3.22-3.79-0.85-4.84,0.6c-1.68,2.45-2.6,5.33-2.66,8.3c0,2.1,0,4.24-0.16,6.3
				c-0.16,2.06-0.85,1.98-2.53,1.05c-3.45-1.93-6.45-5.27-9.25-7.95c-2.8-2.68-6.64-5.19-9.67-8.06s-4.56-5.79-7.03-8.69
				c-1.85-2.18-5.01-5-7.45-1.89c-1.45,1.89-0.11,4.08,0.53,5.96c0.74,2.14,0,3.72-0.4,5.83c-0.71,2.29-0.64,4.76,0.19,7.01
				c1.16,2.27,2.19,3.67,1.89,6.35c-0.24,2.21-1.03,4.32-0.71,6.59c0.26,1.87,1.61,3.22,2.55,4.84c1.65,2.86,3.7,5.48,6.08,7.77
				c2.8,2.84,5.84,5.44,9.07,7.78c7.75,6.03,10.64,7.91,13.23,9.93c3.69,2.85,7.49,9.93,9.8,14.25
				C419.71,206.74,426.69,197.26,430.78,188.43z"/>
			<path class="st6" d="M428.33,184.68l-1.21-1.81c0,0,0.48-2.11,2.45,0.9c1.77,2.51,3.3,5.18,4.56,7.98
				c0.24,1.14-1.71,11.01-7.83,15.91c-6.12,4.9-11.51,6.37-13.22,6.16c-1.71-0.21-2.19-1.76-3.22-3.8s-3.42-4.56-2.69-6.45
				l1.39,1.95c5.5-1.41,10.43-4.48,14.12-8.8C428.11,189.8,428.33,184.68,428.33,184.68z"/>
			<path class="st7" d="M428.33,184.68l-1.21-1.81c0,0,0.48-2.11,2.45,0.9c1.77,2.51,3.3,5.18,4.56,7.98
				c0.24,1.14-1.71,11.01-7.83,15.91c-6.12,4.9-11.51,6.37-13.22,6.16c-1.71-0.21-2.19-1.76-3.22-3.8s-3.42-4.56-2.69-6.45
				l1.39,1.95c5.5-1.41,10.43-4.48,14.12-8.8C428.11,189.8,428.33,184.68,428.33,184.68z"/>
			<path class="st13" d="M450.98,216.44c4.64,8.77,7.44,18.4,8.24,28.29c1.61-14.68-2.85-28.11-6.98-32.64L450.98,216.44z"/>
			<path class="st2" d="M495.37,144.91c-9.22,1.45-11.19,1.61-17.07,3.64c-5.88,2.03-10.11,4.05-15.54,21.76
				c-5.22,17.08-10.09,36.52-10.09,36.52s5.16,13.51,30.62,16.12l13.49-37.62C496.79,185.34,500.95,162.64,495.37,144.91z"/>
			<g id="freepik--Light--inject-3">
				<path class="st4" d="M404.77,165.66c0.34,2.83-1.67,5.4-4.5,5.74c-2.83,0.34-5.4-1.67-5.74-4.5c-0.34-2.82,1.66-5.39,4.49-5.74
					c2.82-0.36,5.39,1.64,5.75,4.45C404.77,165.63,404.77,165.64,404.77,165.66z"/>
				<path class="st5" d="M699.8,181.89h-5.71c-3.06,0-5.54,2.48-5.54,5.54l0,0v60.31c0,15.13-12.27,27.4-27.4,27.4H425.79
					c-15.13,0-27.4-12.27-27.4-27.4v-78.53c0-0.67,0.54-1.21,1.21-1.21c0.67,0,1.21,0.54,1.21,1.21v77.96
					c0,14.07,11.41,25.48,25.48,25.48c0.01,0,0.01,0,0.02,0h234.33c14.07,0.01,25.49-11.39,25.5-25.47c0-0.01,0-0.01,0-0.02v-59.75
					c0-4.4,3.56-7.96,7.96-7.96l0,0h9.82C702.61,180.39,701.24,181.2,699.8,181.89z"/>
				<path class="st5" d="M393.54,167.37c-3.63-1.61-4.01-4.72-0.85-7.09c3.62-2.44,8.19-3,12.3-1.5c3.63,1.61,4.01,4.72,0.85,7.09
					C402.21,168.3,397.64,168.86,393.54,167.37z"/>
				<path class="st4" d="M393.12,165.54c-3.74-1.61-4.14-4.84-0.89-7.32c3.73-2.53,8.44-3.13,12.68-1.61
					c3.74,1.61,4.14,4.84,0.89,7.32C402.07,166.46,397.36,167.06,393.12,165.54z"/>
				<path class="st5" d="M392.7,163.66c-3.87-1.61-4.27-5.03-0.92-7.54c3.85-2.6,8.71-3.2,13.07-1.61c3.85,1.61,4.27,5.03,0.92,7.54
					C401.92,164.65,397.06,165.24,392.7,163.66z"/>
				<path class="st4" d="M392.26,161.71c-3.98-1.61-4.42-5.17-0.95-7.77c3.97-2.65,8.97-3.25,13.46-1.61
					c3.98,1.61,4.42,5.17,0.95,7.78C401.75,162.76,396.75,163.35,392.26,161.71z"/>
				<path class="st5" d="M391.88,159.66c-4.06-1.72-4.5-5.27-0.97-7.93c4.06-2.7,9.16-3.3,13.73-1.61c4.06,1.72,4.5,5.29,0.97,7.93
					C401.55,160.75,396.45,161.35,391.88,159.66z"/>
				<path class="st6" d="M391.46,99.11c-13.49,1.64-23.09,13.91-21.45,27.4c2.37,19.34,18.76,20.66,19.71,28.48
					c0.31,1.52,1.41,2.75,2.89,3.22c3.98,1.44,8.41,0.9,11.93-1.45c1.32-0.8,2.1-2.25,2.05-3.79l0,0
					c-0.95-7.82,14.65-12.99,12.3-32.38c-1.63-13.49-13.89-23.12-27.38-21.49C391.48,99.1,391.47,99.11,391.46,99.11z"/>
				<g class="st18">
					<path class="st1" d="M391.46,99.11c-13.49,1.64-23.09,13.91-21.45,27.4c2.37,19.34,18.76,20.66,19.71,28.48
						c0.31,1.52,1.41,2.75,2.89,3.22c3.98,1.44,8.41,0.9,11.93-1.45c1.32-0.8,2.1-2.25,2.05-3.79l0,0
						c-0.95-7.82,14.65-12.99,12.3-32.38c-1.63-13.49-13.89-23.12-27.38-21.49C391.48,99.1,391.47,99.11,391.46,99.11z"/>
				</g>
				<path class="st6" d="M394.02,156.89c-2.64-1.13-2.93-3.45-0.63-5.17c2.64-1.77,5.97-2.18,8.96-1.1
					c2.64,1.13,2.93,3.45,0.63,5.17C400.34,157.57,397.01,157.98,394.02,156.89z"/>
				<path class="st1" d="M401.31,152.75c-0.45,0.06-0.86-0.26-0.92-0.71c-0.57-4.71-0.57-9.46,0-14.17c0.16-1.36,0.41-2.7,0.74-4.03
					c-0.78-0.18-1.54-0.44-2.27-0.77c-1.3-0.6-2.5-1.38-3.56-2.34c-0.8,1.18-1.78,2.23-2.89,3.13c-0.62,0.5-1.29,0.93-2,1.29
					c0.65,1.21,1.21,2.46,1.69,3.74c1.68,4.43,2.83,9.05,3.42,13.75c0.04,0.46-0.29,0.86-0.74,0.92c-0.46,0.04-0.87-0.3-0.92-0.76
					c-0.58-4.56-1.69-9.03-3.32-13.33c-0.47-1.28-1.04-2.52-1.69-3.71c-1.64,0.55-3.45,0.25-4.84-0.79
					c-1.05-0.79-1.38-2.22-0.77-3.38c0.42-0.8,1.28-1.27,2.18-1.18c1.34,0.11,2.79,1.29,4.14,3.35c0.65-0.31,1.25-0.7,1.81-1.16
					c1.08-0.85,2.02-1.87,2.77-3.03c-1.18-1.2-1.81-2.83-1.77-4.51c0.21-1.27,1.42-2.13,2.69-1.92c0.78,0.13,1.44,0.65,1.76,1.37
					c0.47,1.63,0.24,3.38-0.63,4.84c1,0.95,2.16,1.72,3.42,2.29c0.65,0.3,1.33,0.54,2.03,0.69c0.82-2.32,1.93-3.82,3.22-4.24
					c0.85-0.27,1.78-0.01,2.37,0.66c0.85,1,0.85,2.47,0,3.47c-1.08,1.33-2.74,2.05-4.45,1.92c-0.36,1.32-0.62,2.67-0.77,4.03
					c-0.52,4.56-0.52,9.16,0,13.72c0.07,0.46-0.25,0.88-0.71,0.95c0,0,0,0,0,0L401.31,152.75z M385.17,132.02
					c-0.13,0-0.29,0.1-0.44,0.37c-0.34,0.6,0.21,1.13,0.39,1.29c0.8,0.57,1.81,0.77,2.77,0.55c-1.08-1.52-2.03-2.18-2.59-2.21
					H385.17z M403.37,132.34c0.99,0.01,1.93-0.44,2.55-1.21c0.13-0.18,0.55-0.84,0.08-1.34c-0.14-0.21-0.4-0.3-0.64-0.23
					c-0.53,0.19-1.29,1.06-1.98,2.79V132.34z M394.58,124.73c-0.42,0-0.53,0.24-0.58,0.52c0,0.97,0.34,1.9,0.97,2.64
					c0.43-0.87,0.54-1.86,0.31-2.8c-0.1-0.28-0.41-0.43-0.69-0.34V124.73z"/>
			</g>
			<path class="st0" d="M407.22,91.31c-0.83-0.32-1.24-1.26-0.92-2.09c0.01-0.01,0.01-0.03,0.02-0.04l3.22-7.87
				c0.34-0.82,1.28-1.2,2.1-0.87l0,0c0.83,0.33,1.24,1.26,0.91,2.09c0,0.01-0.01,0.01-0.01,0.02l-3.22,7.88
				c-0.32,0.83-1.26,1.24-2.09,0.92c-0.01-0.01-0.03-0.01-0.04-0.02L407.22,91.31z"/>
			<path class="st0" d="M388.59,88.99c-0.54-0.21-0.92-0.7-1-1.27l-1.18-8.41c-0.12-0.89,0.5-1.71,1.39-1.84
				c0.89-0.12,1.71,0.5,1.84,1.39l1.16,8.41c0.13,0.88-0.47,1.7-1.35,1.83c-0.01,0-0.02,0-0.03,0
				C389.13,89.13,388.85,89.09,388.59,88.99z"/>
			<path class="st0" d="M371.29,96.3c-0.26-0.11-0.49-0.28-0.66-0.5l-5.22-6.7c-0.55-0.71-0.42-1.74,0.29-2.29
				c0.71-0.55,1.74-0.42,2.29,0.29l0,0l5.22,6.69c0.55,0.7,0.44,1.71-0.26,2.26c-0.01,0.01-0.02,0.02-0.03,0.02
				C372.46,96.44,371.84,96.53,371.29,96.3z"/>
			<path class="st0" d="M352.11,108.08c-0.83-0.34-1.23-1.3-0.89-2.13c0.34-0.83,1.3-1.23,2.13-0.89l7.87,3.22l0,0
				c0.83,0.34,1.23,1.29,0.89,2.12c-0.34,0.83-1.29,1.23-2.12,0.89l-7.87-3.22H352.11z"/>
			<path class="st0" d="M349.26,131.07c-0.53-0.22-0.91-0.7-0.98-1.27c-0.13-0.88,0.47-1.7,1.35-1.83c0.01,0,0.02,0,0.03,0
				l8.41-1.18c0.89-0.12,1.71,0.5,1.84,1.39s-0.5,1.71-1.39,1.84l-8.41,1.18C349.83,131.23,349.53,131.19,349.26,131.07z"/>
			<path class="st0" d="M429.48,119.9c-0.84-0.3-1.28-1.22-0.99-2.06c0.21-0.6,0.75-1.02,1.39-1.07l8.41-1.18
				c0.88-0.13,1.7,0.48,1.83,1.36c0,0.02,0,0.03,0.01,0.05c0.13,0.88-0.47,1.7-1.35,1.83c-0.01,0-0.02,0-0.03,0l-8.41,1.16
				C430.05,120.05,429.75,120.01,429.48,119.9z"/>
			<path class="st0" d="M422.19,102.62c-0.27-0.11-0.5-0.29-0.68-0.52c-0.56-0.69-0.47-1.7,0.22-2.27c0.02-0.02,0.04-0.04,0.07-0.05
				l6.7-5.22c0.71-0.55,1.74-0.42,2.29,0.29c0.55,0.71,0.42,1.74-0.29,2.29l-6.7,5.22C423.36,102.73,422.74,102.83,422.19,102.62z"
				/>
		</g>
		<path class="st9" d="M477.83,288.49l-8.54,4.71c-1.13,0.7-1.84,1.9-1.93,3.22c-0.21,7.62-0.92,37.6,0.31,51.93
			c0.18,1.33,0.93,2.51,2.06,3.22c4.84,2.72,17.96,9.91,23.97,11.57c1.37,0.23,2.78,0.08,4.08-0.44l6.06-2.43
			c1.15-0.54,1.91-1.67,1.98-2.93c0-15.22,2.77-35.77,5.29-52.33c0.14-1.25-0.5-2.46-1.61-3.05l-27.9-13.6
			C480.37,287.87,479.01,287.92,477.83,288.49z"/>
		<path class="st5" d="M467.66,348.29c-1.22-14.33-0.52-44.31-0.31-51.93c-0.09-0.69,0.4-1.32,1.09-1.4
			c0.32-0.04,0.63,0.04,0.89,0.23l25.98,12.89c1.11,0.62,1.77,1.81,1.72,3.08c-0.55,6.75-2.21,32.15-1.37,50.09
			c0.11,0.88-0.51,1.69-1.39,1.81c-0.2,0.03-0.4,0.01-0.59-0.03c-6.01-1.61-19.12-8.85-23.97-11.57
			C468.61,350.74,467.86,349.59,467.66,348.29z"/>
		<path class="st4" d="M493.95,363.1c1.28,0.14,2.57-0.04,3.76-0.52l6.08-2.43c1.13-0.56,1.87-1.68,1.95-2.93
			c1.19-15.62,2.77-35.75,5.3-52.32c0.07-0.56-0.03-1.12-0.31-1.61l-14.05,6.45c0.23,0.46,0.34,0.98,0.31,1.5
			c-0.56,6.79-2.21,32.24-1.37,50.11c0.08,0.89-0.57,1.67-1.46,1.75C494.08,363.1,494.02,363.1,493.95,363.1z"/>
		<path class="st4" d="M470.98,301.26l22.76,10.62l-1.1,19.34l-22.27-9.56C470.37,321.66,470.58,307.83,470.98,301.26z"/>
		<path class="st6" d="M492.73,330.04l-21.34-9.14c0,0,0.19-12.64,0.55-19.16l21.76,10.14L492.73,330.04z"/>
		<path class="st19" d="M492.73,330.04l-21.34-9.14c0,0,0.19-12.64,0.55-19.16l21.76,10.14L492.73,330.04z"/>
		<polygon class="st3" points="483.2,308.69 478.43,315.58 481.43,316.62 479.09,322.71 484.42,315.52 481.43,314.39 		"/>
		<path class="st4" d="M491.21,335.65l-0.15,1.92c0.01,0.4-0.31,0.73-0.71,0.74c-0.12,0-0.25-0.03-0.36-0.08l-3.45-1.42
			c-0.57-0.27-0.93-0.85-0.92-1.48l0.11-1.95c-0.02-0.39,0.28-0.73,0.67-0.75c0.13-0.01,0.26,0.02,0.38,0.09l3.5,1.45
			C490.86,334.44,491.22,335.02,491.21,335.65z"/>
		<path class="st4" d="M491.23,341.89l-0.1,1.92c0.02,0.4-0.3,0.74-0.7,0.75c-0.12,0-0.24-0.02-0.35-0.08l-3.48-1.37
			c-0.57-0.26-0.93-0.83-0.93-1.45v-1.97c-0.03-0.39,0.27-0.73,0.66-0.75c0.13-0.01,0.26,0.02,0.37,0.08l3.51,1.4
			C490.81,340.66,491.21,341.24,491.23,341.89z"/>
		<path class="st4" d="M491.26,348.13v1.92c0.02,0.4-0.28,0.74-0.68,0.77c-0.13,0.01-0.25-0.02-0.37-0.07l-3.48-1.31
			c-0.58-0.25-0.97-0.82-0.98-1.45v-1.97c-0.03-0.39,0.27-0.73,0.66-0.75c0.13-0.01,0.26,0.02,0.37,0.08l3.53,1.34
			C490.88,346.93,491.25,347.5,491.26,348.13z"/>
		<path class="st4" d="M491.29,354.44v1.92c0.03,0.4-0.27,0.75-0.67,0.78c-0.12,0.01-0.25-0.01-0.36-0.07l-3.51-1.26
			c-0.58-0.24-0.97-0.79-1-1.42v-1.97c-0.04-0.39,0.24-0.74,0.63-0.78c0.13-0.01,0.26,0.01,0.38,0.07l3.56,1.29
			C490.9,353.26,491.27,353.82,491.29,354.44z"/>
		<path class="st4" d="M483.47,332.12l-0.1,2c0.02,0.39-0.28,0.73-0.67,0.75c-0.13,0.01-0.26-0.02-0.38-0.09l-3.42-1.42
			c-0.58-0.26-0.96-0.84-0.95-1.48v-2.03c-0.03-0.38,0.25-0.72,0.63-0.75c0.14-0.01,0.28,0.02,0.4,0.09l3.48,1.45
			C483.08,330.88,483.47,331.47,483.47,332.12z"/>
		<path class="st4" d="M483.46,338.33l-0.1,2c0.02,0.39-0.28,0.73-0.67,0.75c-0.13,0.01-0.26-0.02-0.38-0.09l-3.42-1.4
			c-0.59-0.26-0.97-0.84-0.97-1.48v-2.03c-0.03-0.38,0.25-0.72,0.63-0.75c0.14-0.01,0.28,0.02,0.4,0.09l3.48,1.43
			C483.05,337.08,483.45,337.67,483.46,338.33z"/>
		<path class="st4" d="M483.43,344.51v2c0.03,0.39-0.27,0.73-0.66,0.75c-0.13,0.01-0.26-0.02-0.37-0.08l-3.45-1.39
			c-0.58-0.26-0.96-0.84-0.95-1.48v-2.03c-0.04-0.38,0.24-0.72,0.63-0.76c0.13-0.01,0.27,0.01,0.39,0.08l3.48,1.43
			C483.06,343.31,483.43,343.89,483.43,344.51z"/>
		<path class="st4" d="M483.39,350.72v2c0.02,0.39-0.29,0.72-0.68,0.74c-0.12,0.01-0.24-0.02-0.35-0.08l-3.45-1.37
			c-0.58-0.25-0.96-0.82-0.97-1.45v-2.05c-0.03-0.39,0.27-0.73,0.66-0.75c0.13-0.01,0.26,0.02,0.37,0.08l3.48,1.42
			C483.03,349.52,483.39,350.09,483.39,350.72z"/>
		<path class="st4" d="M475.75,328.65v2.08c0.02,0.38-0.27,0.71-0.65,0.73c-0.13,0.01-0.26-0.02-0.38-0.09l-3.4-1.42
			c-0.58-0.26-0.96-0.84-0.95-1.48v-2.13c-0.03-0.37,0.25-0.7,0.62-0.73c0.13-0.01,0.26,0.02,0.37,0.08l3.45,1.47
			C475.39,327.44,475.76,328.02,475.75,328.65z"/>
		<path class="st4" d="M475.79,334.63v2.08c0.03,0.37-0.24,0.7-0.61,0.73c-0.14,0.01-0.28-0.02-0.4-0.09l-3.4-1.42
			c-0.59-0.26-0.97-0.84-0.97-1.48v-2.13c-0.03-0.37,0.24-0.7,0.61-0.73c0.14-0.01,0.28,0.02,0.4,0.09l3.45,1.47
			C475.44,333.42,475.8,334,475.79,334.63z"/>
		<path class="st4" d="M475.8,340.66v2.08c0.02,0.38-0.27,0.71-0.65,0.73c-0.13,0.01-0.26-0.02-0.38-0.09l-3.4-1.42
			c-0.57-0.28-0.95-0.85-0.97-1.48v-2.13c-0.03-0.37,0.24-0.7,0.61-0.73c0.14-0.01,0.28,0.02,0.4,0.09l3.45,1.47
			C475.44,339.45,475.81,340.03,475.8,340.66z"/>
		<path class="st4" d="M475.82,346.69v2.08c0.03,0.37-0.24,0.7-0.61,0.73c-0.14,0.01-0.28-0.02-0.4-0.09l-3.42-1.42
			c-0.58-0.26-0.96-0.84-0.95-1.48v-2.13c-0.03-0.37,0.25-0.7,0.62-0.73c0.13-0.01,0.26,0.02,0.37,0.08l3.45,1.45
			C475.45,345.48,475.81,346.06,475.82,346.69z"/>
	</g>
</g>
<g>
	<g id="freepik--fuse-box--inject-3">
		<g>
			<path class="st6" d="M865.03,600.24l-14.88-5.06c-1.27-14.25,0.56-48.77,23.73-69.03c23.52-20.57,38.86-7.38,38.41,1.61
				c-0.48,9.82-21.58,19.02-32.24,32.24C868.41,574.37,864.78,584.2,865.03,600.24z"/>
			<path class="st20" d="M865.03,600.24l-14.88-5.06c-1.27-14.25,0.56-48.77,23.73-69.03c23.52-20.57,38.86-7.38,38.41,1.61
				c-0.48,9.82-21.58,19.02-32.24,32.24C868.41,574.37,864.78,584.2,865.03,600.24z"/>
			<path class="st1" d="M854.99,597.61L854.99,597.61c-0.44-0.01-0.79-0.37-0.79-0.81c0.21-38.33,28.67-71.87,42.86-74.04
				c0.45-0.07,0.86,0.24,0.93,0.68s-0.24,0.86-0.68,0.93c-13.89,2.13-41.29,36.25-41.49,72.45
				C855.8,597.27,855.43,597.62,854.99,597.61C854.99,597.61,854.99,597.61,854.99,597.61z"/>
			<path class="st6" d="M900.37,565.87c-12.89-4.24-40.94,9.86-46.37,30.62l11.02,3.72c8.9-7.28,19.68-11.88,31.09-13.3
				C914.28,585.1,913.22,570.11,900.37,565.87z"/>
			<path class="st21" d="M900.37,565.87c-12.89-4.24-40.94,9.86-46.37,30.62l11.02,3.72c8.9-7.28,19.68-11.88,31.09-13.3
				C914.28,585.1,913.22,570.11,900.37,565.87z"/>
			<path class="st1" d="M859.03,599.3c-0.13,0-0.26-0.02-0.37-0.08c-0.39-0.21-0.54-0.7-0.34-1.1
				c11.04-21.32,35.01-27.63,44.76-25.01c0.42,0.11,0.68,0.54,0.57,0.96c0,0.01,0,0.02-0.01,0.02c-0.12,0.43-0.55,0.68-0.98,0.58
				c-9.32-2.5-32.24,3.63-42.91,24.18C859.62,599.13,859.34,599.31,859.03,599.3z"/>
		</g>
		<g id="freepik--Box--inject-3">
			<path class="st9" d="M846.59,361.34v238.35l0,0c0.15,1.62,1.16,3.02,2.64,3.67c4,2.05,8.75,2.05,12.75,0
				c1.48-0.66,2.49-2.06,2.64-3.67l0,0V361.34H846.59z"/>
			<polygon class="st5" points="846.59,406.02 864.62,395.61 864.62,361.34 846.59,361.34 			"/>
			<polygon class="st6" points="821.4,402.18 945.79,330.36 945.79,107.73 821.4,179.55 			"/>
			<polygon class="st6" points="945.79,107.73 889.82,75.41 765.42,147.23 821.4,179.55 			"/>
			<polygon class="st22" points="945.79,107.73 889.82,75.41 765.42,147.23 821.4,179.55 			"/>
			<polygon class="st6" points="765.42,147.23 765.42,369.87 821.4,402.18 821.4,179.55 			"/>
			<polygon class="st7" points="765.42,147.23 765.42,369.87 821.4,402.18 821.4,179.55 			"/>
			<polygon class="st3" points="900.71,165.61 854.58,285.6 883.59,262.14 861.03,346.98 912.61,217.98 883.59,240.6 			"/>
			<path class="st5" d="M830.81,181.34c1.71-0.98,3.11-0.18,3.11,1.81c-0.12,2.19-1.28,4.19-3.11,5.38c-1.72,1-3.11,0.19-3.11-1.79
				C827.82,184.55,828.97,182.54,830.81,181.34z"/>
			<path class="st5" d="M830.81,382.46c1.71-1,3.11-0.19,3.11,1.79c-0.12,2.19-1.28,4.19-3.11,5.38c-1.72,1-3.11,0.19-3.11-1.79
				C827.81,385.65,828.97,383.65,830.81,382.46z"/>
			<path class="st5" d="M936.46,120.3c1.72-1,3.11-0.19,3.11,1.79c-0.11,2.19-1.27,4.19-3.11,5.38c-1.71,1-3.09,0.19-3.09-1.79
				C933.48,123.5,934.63,121.5,936.46,120.3z"/>
			<path class="st5" d="M936.46,321.4c1.72-1,3.11-0.19,3.11,1.79c-0.11,2.19-1.27,4.19-3.11,5.38c-1.71,1-3.09,0.19-3.09-1.79
				C933.48,324.6,934.63,322.6,936.46,321.4z"/>
			<polygon class="st6" points="945.79,107.73 945.79,265.73 1014.21,226.23 1014.21,3.59 889.82,75.41 			"/>
			<polygon class="st6" points="1014.21,3.59 889.82,75.41 883.59,71.82 1007.99,0 			"/>
			<polygon class="st22" points="1014.21,3.59 889.82,75.41 883.59,71.82 1007.99,0 			"/>
			<polygon class="st6" points="883.59,79.01 883.59,71.82 889.82,75.41 			"/>
			<polygon class="st7" points="883.59,79.01 883.59,71.82 889.82,75.41 			"/>
			<polygon class="st7" points="889.82,75.41 969.92,97.4 969.92,251.81 945.79,265.73 945.79,107.73 			"/>
		</g>
	</g>
</g>
</svg>
