<?xml version="1.0" encoding="utf-8"?>
<!-- Generator: Adobe Illustrator 23.1.0, SVG Export Plug-In . SVG Version: 6.00 Build 0)  -->
<svg version="1.1" id="Layer_1" xmlns="http://www.w3.org/2000/svg" xmlns:xlink="http://www.w3.org/1999/xlink" x="0px" y="0px"
	 viewBox="0 0 1366 768" style="enable-background:new 0 0 1366 768;" xml:space="preserve">
<style type="text/css">
	.st0{opacity:0.7;fill:#F5F5F5;enable-background:new    ;}
	.st1{fill:#E0E0E0;}
	.st2{fill:#EBEBEB;}
	.st3{fill:#F5F5F5;}
	.st4{fill:#E6E6E6;}
	.st5{fill:#FAFAFA;}
	.st6{fill:#F0F0F0;}
	.st7{fill:#BA68C8;}
	.st8{opacity:0.1;enable-background:new    ;}
	.st9{fill:none;stroke:#FFFFFF;stroke-width:1.0259;stroke-linecap:round;stroke-miterlimit:10;}
	.st10{fill:none;stroke:#FFFFFF;stroke-linecap:round;stroke-miterlimit:10;}
	.st11{fill:#263238;}
	.st12{fill:#FFFFFF;}
	.st13{fill:#37474F;}
	.st14{opacity:0.1;}
	.st15{fill:#455A64;}
</style>
<g id="freepik--Floor--inject-111">
	<path id="freepik--floor--inject-111" class="st0" d="M385.5,703.95c167.35,83.83,438.64,83.83,605.99,0s167.33-219.74,0-303.57
		s-438.64-83.83-605.99,0S218.17,620.12,385.5,703.95z"/>
</g>
<g id="freepik--Cabinet--inject-111">
	<g id="freepik--cabinet--inject-111">
		<polygon class="st1" points="978.67,416.73 911.55,377.98 911.55,234.04 978.67,272.81 		"/>
		<polygon class="st2" points="978.67,272.81 1074.56,217.44 1074.56,361.38 978.67,416.73 		"/>
		<polygon class="st3" points="1074.56,217.44 978.67,272.81 911.55,234.04 1007.43,178.69 		"/>
		<polygon class="st4" points="988.25,278.34 1064.97,234.04 1066.72,235.07 1066.72,288.39 990.02,332.68 988.25,331.65 		"/>
		<path class="st4" d="M1020.08,271.04l13.05-7.53c1.7-0.97,3.06-0.54,3.06,0.99c-0.25,1.91-1.38,3.59-3.06,4.53l-13.05,7.64
			c-1.68,0.97-3.06,0.52-3.06-1.01C1017.25,273.72,1018.38,272,1020.08,271.04z"/>
		<polygon class="st1" points="986.49,345.81 1063.21,301.51 1063.19,354.82 1064.97,355.84 988.25,400.13 986.49,399.12 		"/>
		<polygon class="st3" points="988.25,346.82 1064.97,302.53 1064.97,355.84 988.25,400.13 		"/>
		<path class="st4" d="M1018.32,338.49l13.05-7.53c1.68-0.97,3.06-0.54,3.06,0.99c-0.25,1.91-1.38,3.59-3.06,4.55l-13.05,7.53
			c-1.7,0.97-3.08,0.54-3.08-0.99C1015.5,341.12,1016.64,339.44,1018.32,338.49z"/>
		<polygon class="st1" points="988.25,278.34 1064.97,234.04 1064.97,287.37 988.25,331.65 		"/>
		<polygon class="st4" points="1103.32,260.39 1061.34,236.14 1061.34,283.11 1103.32,307.36 		"/>
		<polygon class="st2" points="1017.02,339.23 1017.02,272.79 1033.48,263.26 1036.19,267.27 1084.15,239.58 1084.15,300.48 		"/>
		<polygon class="st5" points="1017.02,339.23 1021.82,281.11 1088.93,242.35 1084.15,300.48 		"/>
		<polygon class="st4" points="1026.62,304.68 990.01,283.55 990.01,330.52 1026.6,351.65 		"/>
		<polygon class="st3" points="1026.62,300.48 1103.32,256.19 1103.32,309.5 1026.6,353.79 		"/>
		<path class="st4" d="M1056.67,292.17l13.05-7.53c1.68-0.97,3.06-0.54,3.06,0.99c-0.25,1.91-1.38,3.59-3.06,4.55l-13.05,7.53
			c-1.7,0.97-3.06,0.54-3.06-0.99C1053.87,294.81,1055,293.12,1056.67,292.17z"/>
		<polygon class="st1" points="1026.62,300.48 1024.06,299.01 1024.06,352.32 1026.62,353.79 		"/>
		<polygon class="st6" points="1024.06,299.01 1100.76,254.72 1103.32,256.19 1026.62,300.48 		"/>
	</g>
</g>
<g id="freepik--Plants--inject-111">
	<g id="freepik--Plant--inject-111">
		<path class="st7" d="M934.29,428.31c0.46-11.03,9.15-34.28,21.17-48.15c12.02-13.87,30.9-22.6,43.53-17.71
			c11.73,4.57,9.82,20.14-5.04,29.9c-14.87,9.76-37.13,21.92-44.2,39.55l-14.22,21.44L934.29,428.31z"/>
		<path class="st8" d="M934.29,428.31c0.46-11.03,9.15-34.28,21.17-48.15c12.02-13.87,30.9-22.6,43.53-17.71
			c11.73,4.57,9.82,20.14-5.04,29.9c-14.87,9.76-37.13,21.92-44.2,39.55l-14.22,21.44L934.29,428.31z"/>
		<path class="st9" d="M994.32,367.84c-14.29,3.32-55.41,32.16-59.23,73.41"/>
		<path class="st7" d="M937.92,472.13c0.67-11.46,10.43-19.72,23.29-27.27c15.29-8.94,28.47-12.97,33.11-21.78
			c4.64-8.81-3.67-18.76-19.43-13.51c-13.38,4.45-39.19,27.36-39.36,43.78L937.92,472.13z"/>
		<path class="st10" d="M984.35,416.56c-21.11,4.83-44.71,24.04-47.88,44.16"/>
	</g>
</g>
<g id="freepik--Folder--inject-111">
	<g id="freepik--folder--inject-111">
		<polygon class="st11" points="347.5,298.15 347.5,630.23 687.37,433.99 687.37,132.1 434.65,278.01 425.92,252.86 		"/>
		<polygon class="st12" points="347.5,630.23 364.92,328.32 704.8,132.1 687.37,433.99 		"/>
		<polygon class="st13" points="347.5,630.23 373.64,333.37 713.51,137.13 687.37,433.99 		"/>
	</g>
</g>
<g id="freepik--Resumes--inject-111">
	<g>
		<polygon class="st7" points="438.3,362.66 438.3,694.74 778.19,498.5 778.19,196.61 525.45,342.52 516.74,317.37 		"/>
		<g class="st14">
			<polygon points="438.3,362.66 438.3,694.74 778.19,498.5 778.19,196.61 525.45,342.52 516.74,317.37 			"/>
		</g>
		<g id="freepik--Document--inject-111">
			<path class="st2" d="M561.74,578.79c-2.13-1.43-3.44-3.8-3.53-6.36V158.11c0.15-2.65,1.58-5.07,3.82-6.5L822.12,1.4
				c3.3-2.07,7.65-1.08,9.72,2.22c0.75,1.2,1.13,2.59,1.08,4.01v414.28c-0.16,2.65-1.58,5.07-3.82,6.5L569.02,578.6
				C566.76,579.82,564.05,579.89,561.74,578.79z"/>
			<path class="st2" d="M565.25,166.06L670.9,96.92l-7.03-4.05l-101.9,58.83c-2.25,1.42-3.67,3.84-3.82,6.5v3.82L565.25,166.06z"/>
			<path class="st1" d="M600.47,178.17l-41.16-23.77c-0.68,1.12-1.06,2.4-1.11,3.71v414.26c-0.14,3.89,2.9,7.16,6.79,7.3
				c1.41,0.05,2.81-0.32,4.01-1.08l31.47-18.15V178.17z"/>
			<path class="st4" d="M569.02,578.6l260.14-150.19c2.24-1.43,3.66-3.84,3.82-6.5V7.63c0-2.39-1.68-3.36-3.82-2.16L569,155.66
				c-2.24,1.44-3.66,3.86-3.82,6.52v414.26C565.25,578.79,566.93,579.8,569.02,578.6z"/>
			<path class="st3" d="M586.85,257.77l62.46-36.06c4.15-2.39,7.51-0.69,7.51,3.82c-0.37,5.11-3.16,9.74-7.51,12.46l-62.46,36.13
				c-4.15,2.39-7.51,0.69-7.51-3.82C579.7,265.17,582.49,260.52,586.85,257.77z"/>
			<path class="st5" d="M582.34,323.79l8.08-4.66c1.66-0.96,3-0.19,3,1.72v9.34c-0.11,2.11-1.23,4.04-3,5.2l-8.08,4.66
				c-1.64,0.96-3,0.19-3-1.74v-9.32C579.46,326.88,580.57,324.95,582.34,323.79z"/>
			<path class="st3" d="M604.23,315.23l48.84-28.2c2.06-1.2,3.82-0.34,3.82,1.91c-0.2,2.57-1.62,4.89-3.82,6.23l-48.84,28.18
				c-2.08,1.2-3.82,0.34-3.82-1.91C600.61,318.88,602.03,316.57,604.23,315.23z"/>
			<path class="st5" d="M582.34,356.33l8.08-4.68c1.66-0.96,3-0.17,3,1.74v9.34c-0.11,2.11-1.23,4.04-3,5.2l-8.08,4.66
				c-1.64,0.96-3,0.17-3-1.74v-9.32C579.46,359.42,580.57,357.49,582.34,356.33z"/>
			<path class="st3" d="M604.23,347.75l48.84-28.18c2.06-1.2,3.82-0.36,3.82,1.91c-0.21,2.57-1.63,4.88-3.82,6.23l-48.84,28.18
				c-2.08,1.2-3.82,0.34-3.82-1.91C600.62,351.42,602.04,349.1,604.23,347.75z"/>
			<path class="st5" d="M582.34,388.86l8.08-4.66c1.66-0.96,3-0.19,3,1.74v9.42c-0.11,2.11-1.23,4.04-3,5.2l-8.08,4.66
				c-1.64,0.97-3,0.19-3-1.72v-9.34C579.43,392,580.54,390.03,582.34,388.86z"/>
			<path class="st3" d="M604.23,380.3l48.84-28.2c2.06-1.2,3.82-0.34,3.82,1.91c-0.2,2.57-1.62,4.9-3.82,6.25l-48.84,28.17
				c-2.08,1.2-3.82,0.36-3.82-1.91C600.61,383.94,602.03,381.63,604.23,380.3z"/>
			<path class="st5" d="M582.34,421.47l8.08-4.66c1.66-0.96,3-0.17,3,1.74v9.29c-0.11,2.11-1.23,4.04-3,5.2l-8.08,4.66
				c-1.64,0.97-3,0.19-3-1.72v-9.34C579.47,424.54,580.58,422.62,582.34,421.47z"/>
			<path class="st3" d="M604.23,412.91l48.84-28.2c2.06-1.2,3.82-0.34,3.82,1.91c-0.2,2.57-1.62,4.9-3.82,6.25l-48.84,28.17
				c-2.08,1.2-3.82,0.36-3.82-1.91C600.62,416.56,602.04,414.25,604.23,412.91z"/>
			<path class="st3" d="M583.1,489.5l34.7-20.06c2.06-1.2,3.82-0.34,3.82,1.91c-0.2,2.57-1.62,4.89-3.82,6.23l-34.76,20.08
				c-2.08,1.18-3.82,0.34-3.82-1.91C579.43,493.16,580.88,490.84,583.1,489.5z"/>
			<path class="st6" d="M583.1,505.76l69.97-40.39c2.06-1.2,3.82-0.34,3.82,1.91c-0.2,2.57-1.62,4.9-3.82,6.25l-69.97,40.3
				c-2.08,1.2-3.82,0.34-3.82-1.91C579.51,509.37,580.92,507.09,583.1,505.76z"/>
			<path class="st5" d="M583.1,505.76l48.84-28.24c2.06-1.18,3.82-0.34,3.82,1.91c-0.21,2.57-1.63,4.88-3.82,6.23l-48.84,28.17
				c-2.08,1.2-3.82,0.34-3.82-1.91C579.51,509.37,580.92,507.09,583.1,505.76z"/>
			<path class="st3" d="M583.1,522.02l34.7-20.08c2.06-1.18,3.82-0.34,3.82,1.91c-0.21,2.57-1.63,4.88-3.82,6.23l-34.76,20.06
				c-2.08,1.2-3.82,0.34-3.82-1.91C579.43,525.65,580.88,523.34,583.1,522.02z"/>
			<path class="st3" d="M583.1,456.98l34.7-20.06c2.06-1.18,3.82-0.34,3.82,1.91c-0.21,2.57-1.63,4.88-3.82,6.23l-34.76,20.06
				c-2.08,1.2-3.82,0.34-3.82-1.91C579.44,460.63,580.88,458.31,583.1,456.98z"/>
			<path class="st6" d="M583.1,473.26l69.97-40.41c2.06-1.18,3.82-0.34,3.82,1.91c-0.21,2.57-1.63,4.88-3.82,6.23l-69.97,40.36
				c-2.08,1.2-3.82,0.34-3.82-1.91C579.49,476.88,580.91,474.58,583.1,473.26z"/>
			<path class="st5" d="M583.1,473.26l24.84-14.33c2.08-1.2,3.82-0.34,3.82,1.91c-0.2,2.57-1.62,4.9-3.82,6.25L583.1,481.4
				c-2.08,1.2-3.82,0.34-3.82-1.91C579.47,476.91,580.9,474.59,583.1,473.26z"/>
			<path class="st6" d="M583.1,538.28l69.97-40.39c2.06-1.2,3.82-0.34,3.82,1.91c-0.2,2.57-1.62,4.89-3.82,6.23l-69.97,40.41
				c-2.08,1.18-3.82,0.34-3.82-1.91C579.48,541.95,580.9,539.63,583.1,538.28z"/>
			<path class="st5" d="M583.1,538.28l62.92-36.31c2.08-1.18,3.82-0.34,3.82,1.91c-0.21,2.56-1.63,4.88-3.82,6.23l-62.92,36.31
				c-2.08,1.18-3.82,0.34-3.82-1.91C579.48,541.94,580.9,539.63,583.1,538.28z"/>
			<path class="st3" d="M829.15,5.55L670.9,96.83v422.94l158.25-91.36c2.24-1.43,3.66-3.84,3.82-6.5V7.63
				C832.92,5.24,831.24,4.27,829.15,5.55z"/>
			<polygon class="st2" points="670.9,113.11 670.9,145.63 656.82,161.91 670.9,161.91 670.9,194.43 818.82,109.04 818.82,27.69 			
				"/>
			<path class="st5" d="M690.26,114.24l59.92-34.6c2.9-1.66,5.25-0.31,5.25,3.04l0,0c-0.2,3.7-2.15,7.09-5.25,9.11l-59.92,34.59
				c-2.9,1.68-5.25,0.32-5.25-3.02l0,0C685.2,119.65,687.15,116.26,690.26,114.24z"/>
			<path class="st5" d="M686.88,140.49l115.99-66.97c1.03-0.59,1.91-0.17,1.91,0.96c-0.1,1.28-0.81,2.44-1.91,3.11l-115.99,66.97
				c-1.03,0.59-1.91,0.17-1.91-0.96C685.06,142.32,685.78,141.16,686.88,140.49z"/>
			<path class="st5" d="M686.88,152.68L802.86,85.8c1.03-0.61,1.91-0.17,1.91,0.94c-0.1,1.29-0.81,2.45-1.91,3.13l-115.99,66.88
				c-1.03,0.59-1.91,0.17-1.91-0.96C685.07,154.51,685.78,153.36,686.88,152.68z"/>
			<path class="st5" d="M686.88,164.89l115.99-66.88c1.03-0.59,1.91-0.17,1.91,0.96c-0.1,1.28-0.81,2.44-1.91,3.11l-115.99,66.97
				c-1.03,0.59-1.91,0.17-1.91-0.96C685.03,166.78,685.75,165.58,686.88,164.89z"/>
			<path class="st12" d="M691.23,199l8.08-4.66c1.66-0.96,3.02-0.19,3.02,1.74v9.32c-0.12,2.11-1.24,4.04-3.02,5.2l-8.08,4.66
				c-1.64,0.96-3,0.19-3-1.72v-9.27C688.33,202.13,689.44,200.17,691.23,199z"/>
			<path class="st1" d="M713.13,190.44l48.84-28.2c2.06-1.2,3.82-0.34,3.82,1.91c-0.2,2.57-1.62,4.9-3.82,6.25l-48.84,28.15
				c-2.08,1.2-3.82,0.36-3.82-1.91C709.51,194.07,710.94,191.77,713.13,190.44z"/>
			<path class="st1" d="M690.12,228.14l123.02-71.04c1.05-0.61,1.91-0.17,1.91,0.94c-0.09,1.29-0.81,2.45-1.91,3.11l-123.02,71.06
				c-1.05,0.59-1.91,0.17-1.91-0.96C688.31,229.97,689.02,228.8,690.12,228.14z"/>
			<path class="st1" d="M690.12,240.33l123.02-71.04c1.05-0.59,1.91-0.17,1.91,0.96c-0.09,1.29-0.81,2.45-1.91,3.11L690.12,244.4
				c-1.05,0.59-1.91,0.17-1.91-0.96C688.32,242.16,689.03,241,690.12,240.33z"/>
			<path class="st1" d="M690.12,252.54l123.02-71.04c1.05-0.61,1.91-0.19,1.91,0.94c-0.09,1.29-0.81,2.45-1.91,3.11l-123.02,71.04
				c-1.05,0.61-1.91,0.19-1.91-0.94C688.31,254.37,689.02,253.21,690.12,252.54z"/>
			<path class="st1" d="M690.12,264.77l123.02-71.04c1.05-0.61,1.91-0.17,1.91,0.96c-0.11,1.28-0.82,2.44-1.91,3.11l-123.02,71.04
				c-1.05,0.59-1.91,0.17-1.91-0.96C688.31,266.6,689.02,265.43,690.12,264.77z"/>
			<path class="st12" d="M691.23,288.46l8.08-4.66c1.66-0.96,3.02-0.17,3.02,1.74v9.32c-0.12,2.11-1.24,4.04-3.02,5.2l-8.08,4.68
				c-1.64,0.96-3,0.17-3-1.74v-9.32C688.35,291.56,689.46,289.63,691.23,288.46z"/>
			<path class="st1" d="M713.13,279.9l48.84-28.2c2.06-1.18,3.82-0.34,3.82,1.91c-0.21,2.57-1.63,4.88-3.82,6.23l-48.84,28.2
				c-2.08,1.18-3.82,0.34-3.82-1.91C709.51,283.56,710.93,281.25,713.13,279.9z"/>
			<path class="st1" d="M690.12,317.6l123.02-71.04c1.05-0.59,1.91-0.17,1.91,0.96c-0.11,1.28-0.82,2.44-1.91,3.11l-123.02,71.04
				c-1.05,0.59-1.91,0.17-1.91-0.96C688.31,319.43,689.02,318.27,690.12,317.6z"/>
			<path class="st1" d="M690.12,329.79l123.02-71.04c1.05-0.59,1.91-0.17,1.91,0.96c-0.09,1.29-0.81,2.45-1.91,3.11l-123.02,71.04
				c-1.05,0.61-1.91,0.17-1.91-0.94C688.31,331.64,689.02,330.47,690.12,329.79z"/>
			<path class="st1" d="M690.12,342l123.02-71.04c1.05-0.61,1.91-0.17,1.91,0.94c-0.1,1.29-0.81,2.45-1.91,3.13l-123.02,71.04
				c-1.05,0.59-1.91,0.17-1.91-0.96C688.31,343.83,689.02,342.67,690.12,342z"/>
			<path class="st1" d="M690.12,354.23l123.02-71.04c1.05-0.59,1.91-0.17,1.91,0.96c-0.09,1.29-0.81,2.45-1.91,3.11L690.12,358.3
				c-1.05,0.59-1.91,0.17-1.91-0.96C688.32,356.06,689.03,354.91,690.12,354.23z"/>
			<path class="st12" d="M702.75,372.08l8.06-4.66c1.66-0.97,3.02-0.19,3.02,1.72v9.34c-0.12,2.11-1.24,4.04-3.02,5.2l-8.06,4.66
				c-1.66,0.96-3.02,0.19-3.02-1.74v-9.32C699.86,375.16,700.98,373.23,702.75,372.08z"/>
			<path class="st1" d="M690.12,403.78l33.34-19.26c1.03-0.59,1.91-0.17,1.91,0.96c-0.1,1.28-0.81,2.44-1.91,3.11l-33.34,19.24
				c-1.05,0.61-1.91,0.17-1.91-0.94C688.31,405.61,689.02,404.45,690.12,403.78z"/>
			<path class="st12" d="M747.6,346.17l8.06-4.66c1.66-0.97,3.02-0.19,3.02,1.72v9.34c-0.12,2.11-1.24,4.04-3.02,5.2l-8.06,4.66
				c-1.66,0.96-3.02,0.17-3.02-1.74v-9.29C744.69,349.28,745.81,347.33,747.6,346.17z"/>
			<path class="st1" d="M734.97,377.85l33.34-19.24c1.03-0.59,1.91-0.17,1.91,0.96c-0.1,1.28-0.81,2.44-1.91,3.11l-33.34,19.3
				c-1.05,0.61-1.91,0.17-1.91-0.94C733.14,379.73,733.85,378.54,734.97,377.85z"/>
			<path class="st12" d="M792.45,320.26l8.06-4.68c1.66-0.96,3.02-0.17,3.02,1.74v9.25c-0.12,2.12-1.24,4.06-3.02,5.22l-8.06,4.66
				c-1.66,0.96-3.02,0.17-3.02-1.74v-9.32C789.57,323.29,790.69,321.4,792.45,320.26z"/>
			<path class="st1" d="M779.8,351.94l33.34-19.24c1.05-0.59,1.91-0.17,1.91,0.96c-0.09,1.29-0.81,2.45-1.91,3.11l-33.34,19.24
				c-1.03,0.61-1.91,0.17-1.91-0.96C778,353.77,778.7,352.62,779.8,351.94z"/>
			<path class="st1" d="M690.12,411.71l33.34-19.24c1.03-0.59,1.91-0.17,1.91,0.96c-0.11,1.28-0.82,2.44-1.91,3.11l-33.34,19.24
				c-1.05,0.59-1.91,0.17-1.91-0.96C688.31,413.54,689.02,412.38,690.12,411.71z"/>
			<path class="st1" d="M734.97,385.8l33.34-19.24c1.03-0.61,1.91-0.17,1.91,0.94c-0.1,1.29-0.81,2.45-1.91,3.13l-33.34,19.24
				c-1.05,0.59-1.91,0.17-1.91-0.96C733.15,387.63,733.87,386.47,734.97,385.8z"/>
			<path class="st1" d="M779.8,359.89l33.34-19.24c1.05-0.61,1.91-0.17,1.91,0.94c-0.1,1.29-0.81,2.45-1.91,3.13l-33.34,19.24
				c-1.03,0.59-1.91,0.17-1.91-0.96C777.99,361.72,778.7,360.56,779.8,359.89z"/>
			<path class="st1" d="M690.12,419.66l33.34-19.26c1.03-0.59,1.91-0.17,1.91,0.96c-0.1,1.28-0.81,2.44-1.91,3.11l-33.34,19.26
				c-1.05,0.59-1.91,0.17-1.91-0.96C688.31,421.49,689.02,420.32,690.12,419.66z"/>
			<path class="st1" d="M734.97,393.75l33.34-19.26c1.03-0.59,1.91-0.17,1.91,0.96c-0.1,1.28-0.81,2.44-1.91,3.11l-33.34,19.26
				c-1.05,0.59-1.91,0.17-1.91-0.96C733.15,395.58,733.87,394.41,734.97,393.75z"/>
			<path class="st1" d="M779.8,367.84l33.34-19.26c1.05-0.59,1.91-0.17,1.91,0.96c-0.09,1.29-0.81,2.45-1.91,3.11l-33.34,19.24
				c-1.03,0.61-1.91,0.19-1.91-0.94C777.99,369.67,778.7,368.51,779.8,367.84z"/>
			<path class="st12" d="M702.75,438.86l8.06-4.66c1.66-0.96,3.02-0.17,3.02,1.74v9.32c-0.12,2.11-1.24,4.04-3.02,5.2l-8.06,4.66
				c-1.66,0.97-3.02,0.19-3.02-1.72v-9.34C699.86,441.94,700.98,440.01,702.75,438.86z"/>
			<path class="st1" d="M690.12,470.56l33.34-19.24c1.03-0.61,1.91-0.17,1.91,0.94c-0.1,1.28-0.81,2.44-1.91,3.11l-33.34,19.26
				c-1.05,0.59-1.91,0.17-1.91-0.96C688.31,472.39,689.02,471.23,690.12,470.56z"/>
			<path class="st12" d="M747.6,412.95l8.06-4.66c1.66-0.96,3.02-0.19,3.02,1.74v9.32c-0.12,2.11-1.24,4.04-3.02,5.2l-8.06,4.66
				c-1.66,0.97-3.02,0.19-3.02-1.72v-9.34C744.7,416.03,745.82,414.1,747.6,412.95z"/>
			<path class="st1" d="M734.97,444.65l33.34-19.24c1.03-0.61,1.91-0.19,1.91,0.94c-0.1,1.28-0.81,2.44-1.91,3.11l-33.34,19.26
				c-1.05,0.59-1.91,0.17-1.91-0.96C733.15,446.48,733.87,445.32,734.97,444.65z"/>
			<path class="st12" d="M792.45,387.04l8.06-4.66c1.66-0.96,3.02-0.19,3.02,1.74v9.32c-0.12,2.11-1.24,4.04-3.02,5.2l-8.06,4.66
				c-1.66,0.96-3.02,0.19-3.02-1.72v-9.34C789.55,390.12,790.67,388.19,792.45,387.04z"/>
			<path class="st1" d="M779.8,418.74l33.34-19.26c1.05-0.59,1.91-0.17,1.91,0.96c-0.09,1.29-0.81,2.45-1.91,3.11l-33.34,19.26
				c-1.03,0.59-1.91,0.17-1.91-0.96C777.99,420.57,778.7,419.41,779.8,418.74z"/>
			<path class="st1" d="M690.12,478.51l33.34-19.26c1.03-0.59,1.91-0.17,1.91,0.96c-0.1,1.28-0.81,2.44-1.91,3.11l-33.34,19.24
				c-1.05,0.61-1.91,0.17-1.91-0.94C688.31,480.34,689.02,479.18,690.12,478.51z"/>
			<path class="st1" d="M734.97,452.68l33.34-19.24c1.03-0.59,1.91-0.17,1.91,0.96c-0.1,1.28-0.81,2.44-1.91,3.11l-33.34,19.24
				c-1.05,0.61-1.91,0.17-1.91-0.94C733.16,454.52,733.87,453.36,734.97,452.68z"/>
			<path class="st1" d="M779.8,426.67l33.34-19.24c1.05-0.59,1.91-0.17,1.91,0.96c-0.09,1.29-0.81,2.45-1.91,3.11l-33.34,19.24
				c-1.03,0.61-1.91,0.17-1.91-0.94C777.99,428.52,778.7,427.35,779.8,426.67z"/>
			<path class="st1" d="M690.12,486.44l33.34-19.24c1.03-0.59,1.91-0.17,1.91,0.96c-0.11,1.28-0.82,2.44-1.91,3.11l-33.34,19.24
				c-1.05,0.59-1.91,0.17-1.91-0.96C688.32,488.27,689.03,487.12,690.12,486.44z"/>
			<path class="st1" d="M734.97,460.53l33.34-19.32c1.03-0.59,1.91-0.17,1.91,0.96c-0.11,1.28-0.82,2.44-1.91,3.11l-33.34,19.24
				c-1.05,0.59-1.91,0.17-1.91-0.96C733.18,462.31,733.89,461.18,734.97,460.53z"/>
			<path class="st1" d="M779.8,434.62l33.34-19.24c1.05-0.61,1.91-0.17,1.91,0.94c-0.1,1.29-0.81,2.45-1.91,3.13l-33.34,19.24
				c-1.03,0.59-1.91,0.17-1.91-0.96C777.99,436.45,778.7,435.29,779.8,434.62z"/>
			<path class="st5" d="M614.55,145.74c19.51-11.25,35.31-2.14,35.31,20.39s-15.8,49.87-35.31,61.15
				c-19.51,11.27-35.29,2.14-35.29-20.37S595.06,157,614.55,145.74z"/>
			<path class="st1" d="M614.55,163.46c6.32-3.65,11.46-0.69,11.46,6.61c-0.44,8.06-4.7,15.43-11.46,19.83
				c-6.32,3.65-11.46,0.69-11.46-6.61C603.52,175.23,607.78,167.86,614.55,163.46z"/>
			<path class="st1" d="M636.91,202.36c0-12-8.43-16.85-18.82-10.85l-6.5,3.82c-10.39,6-18.82,20.6-18.82,32.6v3.23
				c6.02,1.91,13.57,0.9,21.8-3.82c9.04-5.58,16.68-13.16,22.34-22.15V202.36z"/>
			<path class="st3" d="M593.67,285.25l48.84-28.2c2.06-1.2,3.82-0.34,3.82,1.91c-0.2,2.57-1.62,4.89-3.82,6.23l-48.84,28.2
				c-2.08,1.2-3.82,0.34-3.82-1.91C590.04,288.91,591.46,286.59,593.67,285.25z"/>
		</g>
		<polygon class="st7" points="438.32,694.74 500.4,425.85 840.28,229.63 778.19,498.5 		"/>
		<polygon class="st8" points="609.07,596.14 609.07,363.12 839.38,230.79 778.19,498.5 		"/>
	</g>
	<polygon id="freepik--Shadow--inject-111" class="st1" points="667.63,629.98 609.07,596.14 718.14,533.64 	"/>
	<g id="freepik--document--inject-111">
		<path class="st2" d="M667.63,629.98c-2.12-1.44-3.42-3.8-3.52-6.36V209.34c0.17-2.65,1.58-5.06,3.82-6.5L928.02,52.63
			c3.3-2.07,7.65-1.08,9.72,2.22c0.76,1.2,1.13,2.61,1.07,4.03v414.26c-0.16,2.65-1.58,5.07-3.82,6.5L674.91,629.85
			C672.65,631.04,669.94,631.09,667.63,629.98z"/>
		<path class="st15" d="M671.15,217.21l105.67-69.13l-7.05-4.07l-101.9,58.83c-2.24,1.43-3.66,3.85-3.82,6.5v3.82L671.15,217.21z"/>
		<path class="st11" d="M706.37,229.4l-41.16-23.75c-0.67,1.12-1.05,2.39-1.09,3.69v414.28c-0.14,3.89,2.9,7.16,6.79,7.3
			c1.41,0.05,2.81-0.32,4.01-1.08l31.45-18.17L706.37,229.4z"/>
		<path class="st13" d="M674.91,629.85l260.08-150.21c2.24-1.43,3.66-3.84,3.82-6.5V58.88c0-2.41-1.68-3.36-3.82-2.18L674.91,206.91
			c-2.25,1.42-3.67,3.84-3.82,6.5v414.26C671.15,630.08,672.83,631.03,674.91,629.85z"/>
		<path class="st1" d="M692.74,309.1l62.46-36.04c4.15-2.39,7.51-0.69,7.51,3.82c-0.38,5.12-3.17,9.75-7.51,12.48l-62.46,36.06
			c-4.15,2.39-7.51,0.69-7.51-3.82C685.59,316.47,688.38,311.82,692.74,309.1z"/>
		<path class="st7" d="M688.25,375.02l8.08-4.66c1.64-0.96,3-0.17,3,1.74v9.32c-0.12,2.12-1.23,4.05-3,5.22l-8.08,4.66
			c-1.66,0.96-3,0.17-3-1.74v-9.32C685.36,378.12,686.47,376.18,688.25,375.02z"/>
		<path class="st1" d="M710.13,366.46l48.84-28.2c2.06-1.18,3.82-0.34,3.82,1.91c-0.21,2.57-1.63,4.88-3.82,6.23l-48.84,28.2
			c-2.08,1.18-3.82,0.34-3.82-1.91C706.51,370.12,707.93,367.81,710.13,366.46z"/>
		<path class="st7" d="M688.25,407.56l8.08-4.57c1.64-0.96,3-0.19,3,1.74v9.32c-0.12,2.11-1.23,4.04-3,5.2l-8.08,4.66
			c-1.66,0.96-3,0.19-3-1.72v-9.34C685.33,410.71,686.45,408.73,688.25,407.56z"/>
		<path class="st1" d="M710.13,399l48.84-28.2c2.06-1.2,3.82-0.34,3.82,1.91c-0.2,2.57-1.62,4.9-3.82,6.25l-48.84,28.18
			c-2.08,1.2-3.82,0.36-3.82-1.91C706.5,402.66,707.93,400.34,710.13,399z"/>
		<path class="st7" d="M688.25,440.1l8.08-4.62c1.64-0.96,3-0.17,3,1.74v9.32c-0.11,2.12-1.23,4.05-3,5.22l-8.08,4.66
			c-1.66,0.96-3,0.17-3-1.74v-9.32C685.34,443.23,686.46,441.27,688.25,440.1z"/>
		<path class="st1" d="M710.13,431.52l48.84-28.2c2.06-1.18,3.82-0.34,3.82,1.91c-0.21,2.57-1.63,4.88-3.82,6.23l-48.84,28.2
			c-2.08,1.2-3.82,0.34-3.82-1.91C706.51,435.19,707.93,432.87,710.13,431.52z"/>
		<path class="st7" d="M688.25,472.72l8.08-4.76c1.64-0.96,3-0.17,3,1.74v9.34c-0.12,2.11-1.23,4.04-3,5.2l-8.08,4.74
			c-1.66,0.96-3,0.17-3-1.74v-9.32C685.36,475.81,686.48,473.87,688.25,472.72z"/>
		<path class="st1" d="M710.13,464.14l48.84-28.18c2.06-1.2,3.82-0.36,3.82,1.91c-0.21,2.57-1.63,4.88-3.82,6.23l-48.84,28.2
			c-2.08,1.2-3.82,0.34-3.82-1.91C706.51,467.82,707.93,465.49,710.13,464.14z"/>
		<path class="st1" d="M689,540.73l34.76-20.06c2.06-1.18,3.82-0.34,3.82,1.91c-0.21,2.57-1.63,4.88-3.82,6.23L689,548.87
			c-2.06,1.2-3.82,0.34-3.82-1.91C685.38,544.39,686.8,542.08,689,540.73z"/>
		<path class="st5" d="M689,557.01l69.97-40.41c2.06-1.18,3.82-0.34,3.82,1.91c-0.21,2.57-1.63,4.88-3.82,6.23L689,565.13
			c-2.06,1.2-3.82,0.34-3.82-1.91C685.38,560.65,686.8,558.35,689,557.01z"/>
		<path class="st7" d="M689,557.01l48.84-28.2c2.08-1.2,3.82-0.34,3.82,1.91c-0.2,2.57-1.62,4.9-3.82,6.25L689,565.15
			c-2.06,1.2-3.82,0.34-3.82-1.91C685.37,560.67,686.8,558.35,689,557.01z"/>
		<path class="st1" d="M689,573.25l34.76-20.06c2.06-1.2,3.82-0.34,3.82,1.91c-0.2,2.57-1.62,4.9-3.82,6.25L689,581.41
			c-2.06,1.18-3.82,0.34-3.82-1.91C685.38,576.92,686.8,574.6,689,573.25z"/>
		<path class="st1" d="M689,508.22l34.76-20.06c2.06-1.2,3.82-0.34,3.82,1.91c-0.2,2.57-1.62,4.89-3.82,6.23L689,516.36
			c-2.06,1.2-3.82,0.36-3.82-1.91C685.37,511.88,686.8,509.57,689,508.22z"/>
		<path class="st5" d="M689,524.48l69.97-40.39c2.06-1.2,3.82-0.34,3.82,1.91c-0.2,2.57-1.62,4.89-3.82,6.23L689,532.64
			c-2.06,1.18-3.82,0.34-3.82-1.91C685.38,528.16,686.8,525.84,689,524.48z"/>
		<path class="st7" d="M689,524.48l24.84-14.33c2.06-1.18,3.82-0.34,3.82,1.91c-0.21,2.57-1.63,4.88-3.82,6.23L689,532.62
			c-2.06,1.18-3.82,0.34-3.82-1.91C685.38,528.15,686.8,525.83,689,524.48z"/>
		<path class="st5" d="M689,589.51l69.97-40.39c2.06-1.2,3.82-0.34,3.82,1.91c-0.21,2.57-1.63,4.88-3.82,6.23L689,597.65
			c-2.06,1.2-3.82,0.34-3.82-1.91C685.38,593.17,686.8,590.86,689,589.51z"/>
		<path class="st7" d="M689,589.51l62.92-36.31c2.08-1.2,3.82-0.34,3.82,1.91c-0.2,2.57-1.62,4.9-3.82,6.25L689,597.67
			c-2.06,1.2-3.82,0.34-3.82-1.91C685.38,593.18,686.8,590.86,689,589.51z"/>
		<path class="st5" d="M934.99,56.7l-158.23,91.37v422.94l158.23-91.37c2.24-1.43,3.66-3.84,3.82-6.5V58.88
			C938.82,56.47,937.13,55.52,934.99,56.7z"/>
		<polygon class="st7" points="776.82,164.34 776.82,196.88 762.72,213.14 776.8,213.14 776.82,245.68 924.73,160.27 924.73,78.94 
					"/>
		<path class="st5" d="M796.15,165.46l59.92-34.59c2.9-1.68,5.25-0.32,5.25,3.04l0,0c-0.16,3.74-2.12,7.17-5.25,9.21l-59.92,34.6
			c-2.9,1.68-5.25,0.32-5.25-3.04l0,0C791.06,170.95,793.02,167.51,796.15,165.46z"/>
		<path class="st5" d="M792.77,191.72l115.99-66.88c1.05-0.61,1.91-0.17,1.91,0.94c-0.1,1.29-0.81,2.46-1.91,3.13l-115.99,66.88
			c-1.03,0.59-1.91,0.17-1.91-0.96C790.97,193.55,791.68,192.4,792.77,191.72z"/>
		<path class="st5" d="M792.77,203.93l115.99-66.88c1.05-0.59,1.91-0.17,1.91,0.96c-0.09,1.29-0.8,2.45-1.91,3.11L792.77,208
			c-1.03,0.59-1.91,0.17-1.91-0.96C790.96,205.76,791.67,204.6,792.77,203.93z"/>
		<path class="st5" d="M792.77,216.12l115.99-66.88c1.05-0.61,1.91-0.17,1.91,0.94c-0.09,1.29-0.8,2.45-1.91,3.11l-115.99,66.97
			c-1.03,0.59-1.91,0.17-1.91-0.96C790.95,218,791.66,216.81,792.77,216.12z"/>
		<path class="st7" d="M797.15,250.25l8.08-4.68c1.64-0.96,3-0.17,3,1.74v9.32c-0.11,2.12-1.23,4.05-3,5.22l-8.08,4.66
			c-1.66,0.96-3,0.17-3-1.74v-9.32C794.26,253.33,795.37,251.4,797.15,250.25z"/>
		<path class="st15" d="M819.03,241.67l48.84-28.2c2.08-1.18,3.82-0.34,3.82,1.91c-0.2,2.57-1.62,4.89-3.82,6.23l-48.84,28.2
			c-2.08,1.18-3.82,0.34-3.82-1.91C815.41,245.33,816.83,243.01,819.03,241.67z"/>
		<path class="st15" d="M796.02,279.37l123.04-71.04c1.03-0.59,1.91-0.17,1.91,0.96c-0.1,1.28-0.81,2.44-1.91,3.11l-123.04,71.04
			c-1.03,0.59-1.91,0.17-1.91-0.96C794.22,281.2,794.93,280.04,796.02,279.37z"/>
		<path class="st15" d="M796.02,291.58l123.04-71.04c1.03-0.61,1.91-0.19,1.91,0.94c-0.1,1.28-0.81,2.44-1.91,3.11l-123.04,71.04
			c-1.03,0.61-1.91,0.19-1.91-0.94C794.21,293.41,794.92,292.25,796.02,291.58z"/>
		<path class="st15" d="M796.02,303.77l123.04-71.04c1.03-0.59,1.91-0.17,1.91,0.96c-0.11,1.28-0.82,2.44-1.91,3.11l-123.04,71.04
			c-1.03,0.59-1.91,0.17-1.91-0.96C794.21,305.6,794.92,304.44,796.02,303.77z"/>
		<path class="st15" d="M796.02,316l123.04-71.04c1.03-0.59,1.91-0.17,1.91,0.96c-0.1,1.28-0.81,2.44-1.91,3.11l-123.04,71.04
			c-1.03,0.61-1.91,0.17-1.91-0.94C794.21,317.84,794.92,316.68,796.02,316z"/>
		<path class="st7" d="M797.15,339.71l8.08-4.66c1.64-0.96,3-0.19,3,1.72v9.34c-0.12,2.11-1.23,4.04-3,5.2l-8.08,4.66
			c-1.66,0.96-3,0.19-3-1.74v-9.32C794.26,342.79,795.37,340.86,797.15,339.71z"/>
		<path class="st15" d="M819.03,331.13l48.84-28.18c2.08-1.2,3.82-0.34,3.82,1.91c-0.19,2.57-1.61,4.89-3.82,6.23l-48.84,28.2
			c-2.08,1.2-3.82,0.34-3.82-1.91C815.41,334.8,816.83,332.48,819.03,331.13z"/>
		<path class="st15" d="M796.02,368.83l123.04-71.04c1.03-0.59,1.91-0.17,1.91,0.96c-0.1,1.28-0.81,2.44-1.91,3.11L796.02,372.9
			c-1.03,0.61-1.91,0.17-1.91-0.94C794.21,370.68,794.92,369.51,796.02,368.83z"/>
		<path class="st15" d="M796.02,381.04L919.06,310c1.03-0.61,1.91-0.17,1.91,0.94c-0.1,1.29-0.81,2.45-1.91,3.13l-123.04,71.04
			c-1.03,0.59-1.91,0.17-1.91-0.96C794.21,382.87,794.92,381.71,796.02,381.04z"/>
		<path class="st15" d="M796.02,393.23l123.04-71.04c1.03-0.59,1.91-0.17,1.91,0.96c-0.1,1.28-0.81,2.44-1.91,3.11l-123.04,71.01
			c-1.03,0.61-1.91,0.17-1.91-0.96C794.23,395.04,794.94,393.9,796.02,393.23z"/>
		<path class="st15" d="M796.02,405.48l123.04-71.04c1.03-0.61,1.91-0.19,1.91,0.94c-0.1,1.28-0.81,2.44-1.91,3.11l-123.04,71.04
			c-1.03,0.61-1.91,0.19-1.91-0.94C794.21,407.31,794.92,406.15,796.02,405.48z"/>
		<path class="st7" d="M808.65,423.31l8.08-4.66c1.66-0.96,3-0.17,3,1.74v9.36c-0.11,2.11-1.23,4.04-3,5.2l-8.08,4.68
			c-1.66,0.96-3,0.17-3-1.74v-9.34C805.75,426.42,806.87,424.47,808.65,423.31z"/>
		<path class="st15" d="M796.02,455.01l33.34-19.24c1.03-0.61,1.91-0.17,1.91,0.94c-0.1,1.28-0.81,2.44-1.91,3.11l-33.34,19.26
			c-1.03,0.59-1.91,0.17-1.91-0.96C794.21,456.84,794.92,455.68,796.02,455.01z"/>
		<path class="st7" d="M853.5,397.4l8.08-4.66c1.66-0.96,3-0.19,3,1.74v9.32c-0.11,2.11-1.23,4.04-3,5.2l-8.08,4.66
			c-1.66,0.97-3,0.19-3-1.72v-9.34C850.61,400.48,851.72,398.55,853.5,397.4z"/>
		<path class="st15" d="M840.87,429.1l33.34-19.24c1.03-0.61,1.91-0.17,1.91,0.94c-0.1,1.28-0.81,2.44-1.91,3.11l-33.34,19.26
			c-1.03,0.59-1.91,0.17-1.91-0.96C839.06,430.93,839.77,429.77,840.87,429.1z"/>
		<path class="st7" d="M898.34,371.49l8.08-4.66c1.66-0.96,3-0.19,3,1.74v9.32c-0.11,2.11-1.23,4.04-3,5.2l-8.08,4.62
			c-1.66,0.96-3,0.19-3-1.72v-9.34C895.47,374.55,896.58,372.63,898.34,371.49z"/>
		<path class="st15" d="M885.71,403.19l33.34-19.3c1.03-0.61,1.91-0.19,1.91,0.94c-0.1,1.28-0.81,2.44-1.91,3.11l-33.34,19.26
			c-1.03,0.59-1.91,0.17-1.91-0.96C883.92,404.98,884.63,403.85,885.71,403.19z"/>
		<path class="st15" d="M796.02,462.96l33.34-19.26c1.03-0.59,1.91-0.17,1.91,0.96c-0.1,1.28-0.81,2.44-1.91,3.11l-33.34,19.24
			c-1.03,0.61-1.91,0.19-1.91-0.94C794.21,464.79,794.92,463.63,796.02,462.96z"/>
		<path class="st15" d="M840.87,437.05l33.34-19.26c1.03-0.59,1.91-0.17,1.91,0.96c-0.1,1.28-0.81,2.44-1.91,3.11l-33.34,19.24
			c-1.03,0.61-1.91,0.17-1.91-0.94C839.06,438.88,839.77,437.72,840.87,437.05z"/>
		<path class="st15" d="M885.71,411.12l33.34-19.24c1.03-0.59,1.91-0.17,1.91,0.96c-0.1,1.28-0.81,2.44-1.91,3.11l-33.34,19.24
			c-1.03,0.61-1.91,0.17-1.91-0.94C883.91,412.96,884.62,411.8,885.71,411.12z"/>
		<path class="st15" d="M796.02,470.89l33.34-19.24c1.03-0.59,1.91-0.17,1.91,0.96c-0.11,1.28-0.82,2.44-1.91,3.11l-33.34,19.24
			c-1.03,0.59-1.91,0.17-1.91-0.96C794.22,472.72,794.93,471.56,796.02,470.89z"/>
		<path class="st15" d="M840.87,445.03l33.34-19.24c1.03-0.59,1.91-0.17,1.91,0.96c-0.11,1.28-0.82,2.44-1.91,3.11l-33.34,19.18
			c-1.03,0.59-1.91,0.17-1.91-0.96C839.08,446.83,839.79,445.7,840.87,445.03z"/>
		<path class="st15" d="M885.71,419.07l33.34-19.24c1.03-0.61,1.91-0.17,1.91,0.94c-0.1,1.29-0.81,2.45-1.91,3.13l-33.34,19.24
			c-1.03,0.59-1.91,0.17-1.91-0.96C883.9,420.9,884.61,419.74,885.71,419.07z"/>
		<path class="st7" d="M808.65,490.11l8.08-4.68c1.66-0.96,3-0.17,3,1.74v9.34c-0.11,2.11-1.23,4.04-3,5.2l-8.08,4.66
			c-1.66,0.96-3,0.17-3-1.74v-9.32C805.76,493.19,806.88,491.26,808.65,490.11z"/>
		<path class="st15" d="M796.02,521.79l33.34-19.24c1.03-0.59,1.91-0.17,1.91,0.96c-0.1,1.28-0.81,2.44-1.91,3.11l-33.34,19.24
			c-1.03,0.61-1.91,0.17-1.91-0.94C794.21,523.64,794.92,522.47,796.02,521.79z"/>
		<path class="st7" d="M853.5,464.14l8.08-4.68c1.66-0.96,3-0.17,3,1.74v9.32c-0.11,2.12-1.22,4.06-3,5.22l-8.08,4.66
			c-1.66,0.96-3,0.17-3-1.74v-9.32C850.61,467.23,851.72,465.29,853.5,464.14z"/>
		<path class="st15" d="M840.87,495.88l33.34-19.24c1.03-0.59,1.91-0.17,1.91,0.96c-0.11,1.28-0.82,2.44-1.91,3.11l-33.34,19.24
			c-1.03,0.59-1.91,0.17-1.91-0.96C839.07,497.71,839.77,496.56,840.87,495.88z"/>
		<path class="st7" d="M898.34,438.27l8.08-4.66c1.66-0.96,3-0.17,3,1.74v9.32c-0.11,2.12-1.23,4.06-3,5.22l-8.08,4.7
			c-1.66,0.96-3,0.17-3-1.74v-9.32C895.44,441.39,896.56,439.44,898.34,438.27z"/>
		<path class="st15" d="M885.71,469.97l33.34-19.2c1.03-0.59,1.91-0.17,1.91,0.96c-0.11,1.28-0.82,2.44-1.91,3.11l-33.34,19.24
			c-1.03,0.59-1.91,0.17-1.91-0.96C883.9,471.83,884.61,470.66,885.71,469.97z"/>
		<path class="st15" d="M796.02,529.74l33.34-19.24c1.03-0.61,1.91-0.17,1.91,0.94c-0.1,1.29-0.81,2.45-1.91,3.13l-33.34,19.24
			c-1.03,0.59-1.91,0.17-1.91-0.96C794.21,531.57,794.92,530.41,796.02,529.74z"/>
		<path class="st15" d="M840.87,503.83l33.34-19.24c1.03-0.61,1.91-0.17,1.91,0.94c-0.1,1.28-0.81,2.44-1.91,3.11l-33.34,19.26
			c-1.03,0.59-1.91,0.17-1.91-0.96C839.06,505.66,839.77,504.5,840.87,503.83z"/>
		<path class="st15" d="M885.71,477.92l33.34-19.24c1.03-0.61,1.91-0.17,1.91,0.94c-0.1,1.28-0.81,2.44-1.91,3.11l-33.34,19.26
			c-1.03,0.59-1.91,0.17-1.91-0.96C883.9,479.75,884.61,478.59,885.71,477.92z"/>
		<path class="st15" d="M796.02,537.69l33.34-19.26c1.03-0.59,1.91-0.17,1.91,0.96c-0.1,1.28-0.81,2.44-1.91,3.11l-33.34,19.26
			c-1.03,0.59-1.91,0.17-1.91-0.96C794.21,539.52,794.92,538.36,796.02,537.69z"/>
		<path class="st15" d="M840.87,511.78l33.34-19.26c1.03-0.59,1.91-0.17,1.91,0.96c-0.1,1.28-0.81,2.44-1.91,3.11l-33.34,19.24
			c-1.03,0.61-1.91,0.19-1.91-0.94C839.06,513.61,839.77,512.45,840.87,511.78z"/>
		<path class="st15" d="M885.71,485.87l33.34-19.26c1.03-0.59,1.91-0.17,1.91,0.96c-0.1,1.28-0.81,2.44-1.91,3.11l-33.34,19.24
			c-1.03,0.61-1.91,0.17-1.91-0.94C883.9,487.7,884.61,486.54,885.71,485.87z"/>
		<path class="st1" d="M720.47,196.97c19.49-11.25,35.29-2.12,35.29,20.39s-15.8,49.89-35.29,61.15
			c-19.49,11.25-35.31,2.12-35.31-20.39C685.16,235.61,700.96,208.23,720.47,196.97z"/>
		<path class="st5" d="M720.47,214.71c6.32-3.67,11.46-0.71,11.46,6.61c-0.44,8.06-4.7,15.43-11.46,19.83
			c-6.32,3.65-11.46,0.69-11.46-6.61C709.44,226.48,713.7,219.11,720.47,214.71z"/>
		<path class="st5" d="M742.79,253.65c0-12-8.43-16.87-18.82-10.87l-6.5,3.82c-10.39,6-18.8,20.6-18.8,32.6v3.23
			c6,1.91,13.57,0.92,21.8-3.82c9.03-5.56,16.66-13.12,22.32-22.09V253.65z"/>
		<path class="st1" d="M699.56,336.48l48.84-28.2c2.06-1.18,3.82-0.34,3.82,1.91c-0.21,2.57-1.63,4.88-3.82,6.23l-48.84,28.2
			c-2.08,1.18-3.82,0.34-3.82-1.91C695.95,340.14,697.37,337.83,699.56,336.48z"/>
	</g>
</g>
</svg>
