<?xml version="1.0" encoding="utf-8"?>
<!-- Generator: Adobe Illustrator 23.1.0, SVG Export Plug-In . SVG Version: 6.00 Build 0)  -->
<svg version="1.1" id="Layer_1" xmlns="http://www.w3.org/2000/svg" xmlns:xlink="http://www.w3.org/1999/xlink" x="0px" y="0px"
	 viewBox="0 0 1366 768" style="enable-background:new 0 0 1366 768;" xml:space="preserve">
<style type="text/css">
	.st0{fill:#92E3A9;}
	.st1{opacity:0.7;fill:#FFFFFF;enable-background:new    ;}
	.st2{fill:#263238;}
	.st3{fill:#FFFFFF;}
	.st4{fill:#FFFFFF;stroke:#263238;stroke-linecap:round;stroke-linejoin:round;}
	.st5{fill:#263238;stroke:#263238;stroke-linecap:round;stroke-linejoin:round;}
	.st6{fill:#FFFFFF;stroke:#263238;stroke-miterlimit:10;}
	.st7{fill:#263238;stroke:#263238;stroke-miterlimit:10;}
	.st8{fill:none;stroke:#263238;stroke-miterlimit:10;}
	.st9{fill:#92E3A9;stroke:#263238;stroke-linecap:round;stroke-linejoin:round;}
	.st10{fill:none;stroke:#263238;stroke-linecap:round;stroke-linejoin:round;}
	.st11{fill:none;stroke:#263238;stroke-width:2;stroke-linecap:round;stroke-linejoin:round;}
	.st12{fill:#999999;stroke:#263238;stroke-linecap:round;stroke-linejoin:round;}
</style>
<g id="freepik--background-simple--inject-19">
	<path class="st0" d="M514.82,64.32c0,0-131.98,67.25-197.8,170.88s-60.62,236.89,19.37,335.79s232.87,86,360.88,148.7
		s269.24,49.78,329.77-83.02c60.53-132.8-30.74-182.49-46.42-336.14C964.93,146.89,826.4-78.07,514.82,64.32z"/>
	<path class="st1" d="M514.82,64.32c0,0-131.98,67.25-197.8,170.88s-60.62,236.89,19.37,335.79s232.87,86,360.88,148.7
		s269.24,49.78,329.77-83.02c60.53-132.8-30.74-182.49-46.42-336.14C964.93,146.89,826.4-78.07,514.82,64.32z"/>
</g>
<g id="freepik--Icons--inject-19">
	<path class="st2" d="M1040.87,408.77h-7.23v-1.24c-0.01-7.03-5.7-12.72-12.73-12.73h-4.89c-7.04,0-12.74,5.7-12.75,12.73v1.24
		h-7.21c-4.04-0.01-7.32,3.26-7.33,7.3c0,0.01,0,0.02,0,0.03v33.41c0,4.05,3.28,7.33,7.33,7.33h44.82c4.05-0.01,7.32-3.29,7.33-7.33
		v-33.41C1048.21,412.06,1044.92,408.77,1040.87,408.77z M1006.75,407.54c0.01-5.11,4.16-9.25,9.27-9.25h4.89
		c5.11,0,9.25,4.14,9.25,9.25v1.24h-23.41L1006.75,407.54z"/>
	<polygon class="st3" points="1031.82,429.4 1022.58,429.4 1022.58,420.18 1014.33,420.18 1014.33,429.4 1005.1,429.4 
		1005.1,437.67 1014.33,437.67 1014.33,446.89 1022.58,446.89 1022.58,437.67 1031.82,437.67 	"/>
	<path class="st4" d="M1026.59,209.68L1026.59,209.68c-6.03,0-10.92-4.89-10.92-10.92c0-0.01,0-0.01,0-0.02v-29.47
		c-0.01-6.03,4.87-10.93,10.9-10.94c0.01,0,0.01,0,0.02,0l0,0c6.03,0,10.92,4.89,10.92,10.92c0,0.01,0,0.01,0,0.02v29.42
		c0.04,6.03-4.82,10.95-10.85,10.99C1026.64,209.68,1026.61,209.68,1026.59,209.68z"/>
	<path class="st5" d="M1026.59,209.68L1026.59,209.68c-6.03,0-10.92-4.89-10.92-10.92c0-0.01,0-0.01,0-0.02v-14.72h21.84v14.72
		c0.01,6.03-4.87,10.93-10.9,10.94C1026.6,209.68,1026.6,209.68,1026.59,209.68z"/>
	<path class="st4" d="M971.65,166.27L971.65,166.27c-3.76-4.7-3-11.56,1.7-15.33c0.02-0.01,0.03-0.02,0.05-0.04l22.94-18.43
		c4.73-3.76,11.61-2.98,15.38,1.74l0,0c3.76,4.72,2.98,11.6-1.74,15.36L987.02,168c-4.71,3.77-11.58,3-15.35-1.71
		C971.66,166.28,971.66,166.28,971.65,166.27z"/>
	<path class="st5" d="M971.65,166.27L971.65,166.27c-3.76-4.7-3-11.56,1.7-15.33c0.02-0.01,0.03-0.02,0.05-0.04l11.48-9.21
		l13.67,17.05l-11.48,9.2c-4.69,3.8-11.56,3.08-15.36-1.61C971.69,166.32,971.67,166.3,971.65,166.27z"/>
	<path class="st2" d="M862.42,86.08c-1.36,0-2.69,0.43-3.8,1.22l-25.38-19.7c2.54-4.69,2.23-10.41-0.8-14.81l15.5-19.82
		c3.39,1.31,7.2-0.38,8.51-3.77c1.31-3.39-0.38-7.2-3.77-8.51c-3.39-1.31-7.2,0.38-8.51,3.77c-0.29,0.76-0.44,1.57-0.44,2.38
		c-0.01,1.36,0.41,2.68,1.2,3.78l-15.08,19.32c-6.01-5.06-14.99-4.29-20.05,1.72c-1.99,2.36-3.15,5.3-3.32,8.38h-17.63
		c-0.44-3.61-3.73-6.17-7.34-5.73c-3.61,0.44-6.17,3.73-5.73,7.34s3.73,6.17,7.34,5.73c2.16-0.27,4.05-1.59,5.05-3.52h18.64
		c1.66,7.69,9.24,12.59,16.93,10.93c2.8-0.6,5.35-2.03,7.32-4.1l25.24,19.63c-1.29,3.39,0.41,7.18,3.8,8.47
		c3.39,1.29,7.18-0.41,8.47-3.8c1.29-3.39-0.41-7.18-3.8-8.47C864.01,86.22,863.22,86.08,862.42,86.08z"/>
	<path class="st4" d="M346.89,209.89L346.89,209.89c-4.39-0.01-7.95-3.57-7.96-7.96v-66.19h15.92v66.19
		C354.85,206.33,351.28,209.89,346.89,209.89L346.89,209.89z"/>
	<path class="st5" d="M346.89,209.89L346.89,209.89c-4.39-0.01-7.95-3.57-7.96-7.96v-40.71h15.92v40.71
		C354.85,206.33,351.28,209.89,346.89,209.89L346.89,209.89z"/>
	<rect x="336.66" y="131.87" class="st4" width="20.47" height="5.8"/>
	<path class="st4" d="M322.76,209.89L322.76,209.89c-4.39-0.01-7.95-3.57-7.96-7.96v-66.19h15.92v66.19
		C330.72,206.33,327.16,209.89,322.76,209.89C322.76,209.89,322.76,209.89,322.76,209.89z"/>
	<path class="st5" d="M322.76,209.89L322.76,209.89c-4.39-0.01-7.95-3.57-7.96-7.96v-40.71h15.92v40.71
		C330.72,206.33,327.16,209.89,322.76,209.89C322.76,209.89,322.76,209.89,322.76,209.89z"/>
	<rect x="312.54" y="131.87" class="st4" width="20.47" height="5.8"/>
	<path class="st2" d="M552.42,66.62l6.34-15.22c0.22-0.5,0.72-0.82,1.27-0.8c0.55,0.03,1.02,0.4,1.18,0.92l7.68,25.33l5.85-18.66
		c0.17-0.54,0.66-0.91,1.22-0.92c0.55,0.02,1.05,0.36,1.25,0.87l3.26,9.37h17.61c3.6-3.77,5.7-8.73,5.89-13.93
		c0.08-10.9-8.7-19.8-19.6-19.87c-9.27-0.06-17.34,6.33-19.38,15.38c-2.49-10.61-13.11-17.19-23.72-14.7
		c-8.92,2.09-15.22,10.05-15.22,19.21c0.19,4.82,2,9.44,5.14,13.12L552.42,66.62z"/>
	<path class="st2" d="M579.56,70.12c-0.56,0-1.05-0.35-1.24-0.87l-2.26-6.51l-5.94,18.93c-0.17,0.55-0.68,0.92-1.25,0.92l0,0
		c-0.58,0-1.08-0.39-1.24-0.94l-7.86-25.9l-5.23,12.68c-0.2,0.48-0.68,0.8-1.2,0.8H533.3c4.3,4.81,9.67,9.06,13.67,13.01
		c6.06,5.99,12,12.19,18.18,17.98c7.93-7.82,15.9-15.68,23.76-23.5c2.18-2.18,4.55-4.34,6.74-6.6H579.56z"/>
	
		<rect x="280.52" y="443.09" transform="matrix(0.3277 -0.9448 0.9448 0.3277 -224.8243 579.2712)" class="st6" width="28.2" height="9.04"/>
	
		<rect x="286.48" y="456.48" transform="matrix(0.3277 -0.9448 0.9448 0.3277 -243.4795 584.7481)" class="st6" width="5.31" height="13.95"/>
	
		<rect x="278.93" y="408.02" transform="matrix(0.3277 -0.9448 0.9448 0.3277 -191.3465 569.4818)" class="st6" width="51.09" height="22.35"/>
	
		<rect x="294.13" y="400.15" transform="matrix(0.3277 -0.9448 0.9448 0.3277 -178.6255 565.7686)" class="st7" width="28.2" height="16.5"/>
	
		<rect x="287.85" y="421.97" transform="matrix(0.3277 -0.9448 0.9448 0.3277 -199.9396 572.0001)" class="st7" width="28.2" height="9.04"/>
	
		<rect x="293.97" y="427.55" transform="matrix(0.3277 -0.9448 0.9448 0.3277 -216.2228 576.782)" class="st6" width="6.39" height="25.54"/>
	
		<rect x="310.86" y="381.89" transform="matrix(0.3277 -0.9448 0.9448 0.3277 -155.2378 558.9366)" class="st6" width="8.52" height="13.31"/>
	
		<rect x="310.19" y="380.79" transform="matrix(0.3277 -0.9448 0.9448 0.3277 -161.1417 560.6634)" class="st6" width="6.39" height="25.54"/>
	<line class="st8" x1="316.65" y1="383.43" x2="326.75" y2="354.27"/>
</g>
<g id="freepik--character-3--inject-19">
	<ellipse class="st5" cx="878.36" cy="725.27" rx="91.15" ry="20.55"/>
	<path class="st4" d="M808.08,260.68c0,0-12.33,7.54-12.19,10.85s-4.6,63.66-5.14,71.21c-0.54,7.54-7.72,23.11-8.27,30.19
		c-0.56,7.07,1.22,14.16,3.29,17.42c2.07,3.26,9.68,13.67,9.68,13.67l20.47-31.61c0.5-6.9,0.61-13.83,0.31-20.75
		C815.91,336.59,808.08,260.68,808.08,260.68z"/>
	<path class="st5" d="M886.82,111.13c0,0-21.77-1.39-34.18,13.71s-9.74,38.2-9.82,45.29c-0.09,7.09-21.15,27.87-18.81,36.34
		c2.33,8.47,8.54,9.42,6.55,16.5c-1.99,7.07-14.95,11.32-13.06,20.29s8.71,21.69,8.71,21.69l125.41,0.85c0,0,4.48-13.2-0.3-23.11
		c-4.77-9.91-11.55-13.19-10.45-17.91c1.1-4.72,7.16-16.04,4.82-24.53c-2.33-8.48-10.45-10.83-11.3-25.94
		c-0.85-15.1-3.08-40.06-15.07-52.26S886.82,111.13,886.82,111.13z"/>
	<path class="st4" d="M848.26,693.1c-3.85,7.42-8.53,14.39-13.93,20.76c-8.01,8.97-15.78,13.69-15.52,18.41
		c0.26,4.72,17.75,5.64,27,2.33s15.97-9.91,17.84-10.45c1.86-0.54,7.07,0,7.19-6.62s-0.89-25.47-0.89-25.47L848.26,693.1z"/>
	<path class="st4" d="M845.77,734.6c9.27-3.31,15.97-9.91,17.84-10.45c1.86-0.54,7.07,0,7.19-6.62c0-3.48-0.19-10.45-0.44-16.15
		c-2.79,5.23-8.18,8.56-14.11,8.71c0,0-0.17-3.31-5.23-8.95c-3.26-3.69-6.55-0.78-8.47,1.74l-1.55,2.33l-0.12,0.23l0,0
		c-2.01,2.97-4.21,5.8-6.58,8.48c-8.01,8.97-15.78,13.69-15.52,18.41S836.52,737.91,845.77,734.6z"/>
	<path class="st4" d="M912.8,693.06c4.68,7.45,10.11,14.4,16.2,20.75c8.97,8.95,17.24,13.66,17.42,18.38s-17.14,5.66-26.75,2.37
		s-17.04-9.89-18.93-10.36s-7.09,0-7.91-6.58c-0.82-6.58-1.85-25.47-1.85-25.47L912.8,693.06z"/>
	<path class="st4" d="M919.73,734.55c-9.6-3.29-17.04-9.89-18.93-10.36c-1.9-0.47-7.09,0-7.91-6.58
		c-0.44-3.48-0.92-10.45-1.29-16.16c3.27,5.19,8.9,8.41,15.03,8.6c0,0-0.17-3.31,4.23-8.97c2.87-3.68,6.48-0.78,8.71,1.74
		c0.57,0.77,1.17,1.53,1.74,2.33l0.16,0.23l0,0c2.34,2.96,4.84,5.79,7.49,8.48c8.97,8.95,17.24,13.66,17.42,18.38
		S929.34,737.84,919.73,734.55z"/>
	<path class="st9" d="M810.37,444.13c0,0,2.91,98.08,6.78,117.42c3.87,19.33,21.13,130.15,21.13,130.15
		c5.28,2.23,10.96,3.35,16.69,3.27h18.86l1.74-82.53l0.64-119.79l9.46,202.77c0,0,25.99,0.92,28.79,0.45
		c2.8-0.47,5.14-0.94,5.14-0.94l16.7-128.29l9.56-85.35l0.52-33.95c0,0-79.85-2.77-103.05-4.65s-32.75-2.35-32.75-2.35
		L810.37,444.13z"/>
	<path class="st10" d="M918.19,617.31c-0.21,1.64-0.42,3.15-0.66,4.55"/>
	<path class="st10" d="M920.34,499.23c0,0,1.62,69.88-1.22,107.82"/>
	<path class="st10" d="M834.73,493.62c0,0,2,46.23,3.99,56.59"/>
	<path class="st5" d="M909.15,464.17v35.29c4.52,1.22,9.15,2.02,13.81,2.39c7.16,0.47,20.52,0,20.52,0l0.96-13.36L909.15,464.17z"/>
	<path class="st5" d="M811.85,491.34c0,0,18.13,5.73,25.76,6.2c7.63,0.47,14.77,1.43,14.77,1.43l-0.94-9.53l-40.55-3.81
		L811.85,491.34z"/>
	<path class="st9" d="M866.9,223.39l-14.23,16.04l-39.47,28.79l8.41,174.52c0,0,31.46,8.47,58.46,10.82
		c27,2.35,61.71-3.83,61.71-3.83l-5.1-182.89c0,0-15.36-22.64-23.24-28.76c-7.87-6.11-11.48-11.77-21.91-12.72
		C881.09,224.42,866.9,223.39,866.9,223.39z"/>
	<path class="st4" d="M850.38,231.98l-42.31,28.79l6.64,106.1l-2.25,10.66l-17.78,20.48l7.58,35.99l-3.38,50.77
		c0,0,16.81,5.66,28.2,7.05c8.48,0.91,17.01,1.38,25.54,1.41l1.46-69.33c0,0,5.63-115.08,6.29-120.19s6.53-80.13,6.53-80.13
		L850.38,231.98z"/>
	<polyline class="st10" points="851.06,236.31 830.58,287.68 852.68,296.86 831.82,300.66 850.3,373.07 	"/>
	<path class="st4" d="M863.34,209.72c0,0,7.35,49.03,13.13,60.36c5.78,11.32,7.42,15.08,7.42,15.08s12.58-38.22,15.1-43.88
		c2.53-5.66,5.23-25.94,5.23-25.94S879.16,223.37,863.34,209.72z"/>
	<path class="st5" d="M863.34,209.72c0,0,0.66,4.46,1.74,10.99c3.68,2.8,13.41,9.74,20.61,10.1c5.49,0.28,12.45-3.27,17.09-6.11
		c0.84-5.14,1.41-9.35,1.41-9.35S879.16,223.37,863.34,209.72z"/>
	<path class="st4" d="M853.36,175.82c0,0-5.02-7.14-8.4,0c-3.38,7.14,5.23,17.71,7.63,19.16c6.83,4.06,5.02-3.48,5.02-3.48
		L853.36,175.82z"/>
	<path class="st4" d="M915.67,178.9c0,0,4.23-7.39,8.38-0.42s-3.33,17.92-5.56,19.47c-6.38,4.41-5.36-3.15-5.36-3.15L915.67,178.9z"
		/>
	<path class="st4" d="M852.18,169.51c0,0,18.18-4.25,27.35-9.67c5.61-3.39,10.51-7.85,14.41-13.12c0,0,7.87,14.88,14.81,20.9
		c6.93,6.03,8.38,6.38,8.38,6.38s-3.33,26.04-7.09,35.1c-3.76,9.06-16.04,17.87-27.5,15.33c-6.51-1.43-17.8-6.13-21.08-14.06
		C858.17,202.45,852.18,169.51,852.18,169.51z"/>
	<path class="st9" d="M898.58,189.53c-5.64,0.14-24.54,0.17-34.3-5.71c-3.91-2.28-7.57-4.96-10.92-8c0.35,1.74,0.77,3.92,1.22,6.18
		l2.13,1.55l5.33,20.14l-2.49,0.54c0.53,2.06,1.16,4.09,1.9,6.08c3.27,7.93,14.56,12.63,21.08,14.06
		c11.44,2.53,23.69-6.24,27.49-15.28c-0.9-1.76-1.16-3.77-0.75-5.7c1.1-5.7,2.46-15.68,2.46-15.68l3.88-3.48
		c0.21-1.27,0.38-2.49,0.56-3.61C911.45,183.88,902.64,189.42,898.58,189.53z"/>
	<path class="st10" d="M877.84,181.11c0,0-6.08-7.39-14.06-6.71"/>
	<path class="st10" d="M893.5,182.58c3.94-4.14,9.67-6.06,15.31-5.12"/>
	<path class="st10" d="M860.28,170.72c0,0,8.71-3.48,16.43-1.85"/>
	<path class="st10" d="M894.21,170.77c4.7-2.4,10.4-1.61,14.27,1.99"/>
	<path class="st2" d="M871.98,178.69c0.17,1.12-0.61,2.17-1.73,2.33c0,0-0.01,0-0.01,0c-1.13-0.13-1.97-1.11-1.92-2.25
		c-0.17-1.11,0.59-2.15,1.7-2.33c0.01,0,0.03,0,0.04-0.01C871.19,176.58,872.03,177.56,871.98,178.69z"/>
	<path class="st2" d="M903.53,180.96c0.19,1.09-0.54,2.13-1.63,2.32c-0.04,0.01-0.08,0.01-0.11,0.02c-1.13-0.12-1.97-1.1-1.92-2.23
		c-0.19-1.09,0.54-2.13,1.63-2.32c0.04-0.01,0.08-0.01,0.11-0.02C902.74,178.85,903.58,179.82,903.53,180.96z"/>
	<path class="st4" d="M950.44,250.68c0,0,10.15,4.7,13.93,12.19c3.78,7.49,34,88.64,33.86,94.77c-0.14,6.13-10.14,13.2-19.51,14.16
		c-9.37,0.96-23.03-16.03-25.07-18.85c-2.04-2.82-2.4-35.85-2.4-35.85L950.44,250.68z"/>
	<path class="st4" d="M902.57,229.02l4.95,162.24l1.74,102.33c9.48,2.33,19.2,3.59,28.97,3.74c8.15,0.17,16.24-1.27,23.83-4.25
		c0,0-2.96-63.66-3.48-74.05s-3.97-30.19-3.97-30.19l-4.11-138.16C950.49,250.68,912.22,232.78,902.57,229.02z"/>
	<polyline class="st4" points="913.44,237.97 930.98,295.19 914.99,299.53 930.54,307.07 911.14,368.71 	"/>
	<path class="st5" d="M925.67,290.31l-21.76,104.23c0,0,14.88,4.7,25.74,5.23c10.87,0.52,33.51,0.45,33.51,0.45l22.64-97.16
		C985.81,303.06,941.24,298.79,925.67,290.31z"/>
	<path class="st4" d="M933.24,387.45l0.71-32.57l17.26,3.64C951.22,358.52,939.81,383.66,933.24,387.45z"/>
	<path class="st4" d="M946.47,343.11c0,0-4.6-6.58-6.08-8.01c-1.48-1.43-8.8-5.64-10.21-5.64s-8.99-0.47-10.45-0.47
		s-3.12,3.31-1.62,4.72c1.5,1.41,6.71,1.88,6.71,1.88l3.57,5.23l-16.11-1.41c0,0-2.68,2.84-2.07,5.23c0.46,1.62,1.04,3.19,1.74,4.72
		c-0.06,3.46,0.12,6.93,0.54,10.36c0.63,2.84,3.48,3.78,7.4,6.13c3.92,2.35,17.04,0.94,17.04,0.94h6.06L946.47,343.11z"/>
	<path class="st4" d="M985.74,346.38l-41.8-5.63c0,0-3.26,26.89-6.55,35.85c-3.29,8.95-4.15,10.85-4.15,10.85s43.81-0.98,54.14-1.92
		s16.13-7.09,15.68-15.57c-0.45-8.48-5.63-16.98-5.63-16.98"/>
	<path class="st4" d="M811.42,375.75c0,0,9.75,6.11,12.19,8.01s2.65,14.14,4.2,16.5s-0.28,3.78-3.1,3.78
		c-2.82,0-7.09-8.95-7.09-8.95l-0.17-3.31l-19.93,6.62l-5.23-8.95C792.29,389.44,798.22,375.75,811.42,375.75z"/>
</g>
<g id="freepik--character-2--inject-19">
	<ellipse class="st5" cx="666.25" cy="725.27" rx="91.15" ry="20.55"/>
	<path class="st4" d="M737.44,236.84c0,0,11.95,59.97,14.07,71.07s6.03,37.47,10.45,49.03s2.98,26.37,0.77,30.53
		c-2.22,3.62-4.77,7.02-7.61,10.17l-14.84-19.35c0,0-8.83-94.83-9.16-108.26C730.79,256.61,737.44,236.84,737.44,236.84z"/>
	<path class="st4" d="M745.32,375.92c0,0,9.41,5.87,11.06,8.36c1.65,2.49,2.84,5.66,1.55,8.36c-1.29,2.7-8.31,10.85-10.09,12.44
		c-1.78,1.59-3.27-4.74-3.48-10.17C744.15,389.47,745.32,375.92,745.32,375.92z"/>
	<path class="st4" d="M694.73,704.78c0,0,29.49,14.34,31.35,17.12s-4.86,6.5-22.44,6.5s-18.1-2.32-25.08-4.16
		c-6.98-1.85-20.9-0.47-22.78-4.63c-1.88-4.16,1.39-18.5,1.39-18.5L694.73,704.78z"/>
	<path class="st4" d="M655.58,712.19c0,0,24.39,14.81,22.24,19.89c-2.14,5.09-19.77,5.09-29.05,3.69
		c-9.28-1.39-29.02-13.93-30.06-18.5c-1.05-4.56,1.57-11.57,15.87-12.94S655.58,712.19,655.58,712.19z"/>
	<path class="st4" d="M729.6,470.26c0,0-13.93,107.32-16.36,123.04c-2.42,15.73-10.1,40.71-14.25,59.68
		c-2.35,11.16-4.09,22.43-5.23,33.77c-0.42,3.23-0.35,6.5,0.23,9.7c0.59,4.63,0.68,8.33,0.68,8.33c-6.2,1.56-12.51,2.64-18.88,3.24
		c-7.86,0.47-18.5,0.47-18.5,0.47l-3.48-30.06c0,0,2.6-44.42,4.13-57.36c1.53-12.94,3.17-114.72,3.1-117.51
		c-0.07-2.79-0.68-27.29-0.68-27.29l47.47-5.09c0,0,6.48-18.5,16.22-17.58C733.79,454.53,729.6,470.26,729.6,470.26z"/>
	<path class="st5" d="M724.12,453.61c-9.74-0.92-16.22,17.58-16.22,17.58l-47.52,5.09c0,0,0.16,6.51,0.31,13.2
		c5.07,0.45,9.75,0.71,13.76,0.71c15.22-0.02,30.44-0.88,45.57-2.56l2.04-21.32l3.19,21.72l2.19-0.71
		c1.36-10.35,2.23-17.09,2.23-17.09S733.85,454.53,724.12,453.61z"/>
	<path class="st4" d="M610.81,473.5c0,0,0,0.66,0.1,1.86c0.64,12.65,4.48,85.93,5.64,99.44c1.31,14.81-5.23,30.99-4.89,44.4
		c0.33,13.41,3.48,86.05,3.48,86.05l3.48,12.02c0,0,8.19-5.54,16.04-5.54s20.9,0.45,20.9,0.45s0.68-9.72,0.61-12.94
		s-0.37-14.81-0.37-14.81s13.29-60.6,14.09-65.69s11.11-92.98,11.04-95.8s2.18-42.1,2.18-42.1L610.81,473.5z"/>
	<path class="st5" d="M682.64,490.1c0.3-5.36,0.51-9.2,0.51-9.2l-72.34-7.4c0,0,0,0.66,0.1,1.86c0,1.53,0.19,3.95,0.37,6.97
		c16.91,3.03,46.26,7.8,63.18,7.8C677.24,490.19,679.96,490.15,682.64,490.1z"/>
	<path class="st4" d="M664.11,189.48c0,0-7.65,1.29-10.56,4.7c-2.92,3.32-5.54,6.89-7.84,10.66c-0.4,1.29-45.38,28.58-45.38,28.58
		l3.24,130.15c0,0,1.34,20.05-1.05,26.88c-4.03,13.43-5.99,27.39-5.8,41.4c0.42,16.63,1.5,43.55,1.5,43.55s51.47,10.24,76.22,10.24
		c15.22-0.04,30.44-0.9,45.57-2.6l2.04-21.34l3.1,21.77l10.57-3.48l8.71-64.45c0,0,6.06-13.66,5.99-16.65
		c-0.07-3,1.53-6.83-0.23-9.39s-4.89-7.68-4.89-7.68s-7.87-141.14-7.87-144.99s-23.29-26.44-25.01-27.29
		c-1.72-0.85-12.35-16.65-26.13-20.9C672.52,184.39,664.11,189.48,664.11,189.48z"/>
	<polyline class="st10" points="650.09,209.11 644.93,255.98 666.11,265.82 660.82,281.72 713.79,374.81 	"/>
	<polyline class="st10" points="709.26,214.37 725.15,251.45 718.34,260.53 729.69,276.41 725.15,378.59 	"/>
	<path class="st9" d="M662.14,195.89c0.39,9.14,2.05,18.19,4.93,26.88c4.58,12.8,34.94,101.13,34.94,101.13l19.63,69.12
		c0,0-2.6-70.41-2.67-73.38c-0.07-2.98-14.88-100.71-14.88-100.71s-2.53-15.78-6.51-21.76C693.6,191.18,666.86,180.09,662.14,195.89
		z"/>
	<path class="st11" d="M660.26,189.06c0,0-12.35,1.27-10.17,20.05s5.05,31.58,5.05,31.58"/>
	<path class="st10" d="M653.63,265.44c0,0,5.23,21.76,8.8,27.73c3.57,5.97,14.37,11.95,22.05,11.95"/>
	<path class="st10" d="M670.14,260.32c0,0,5.75,25.17,6.71,29.87c0.96,4.7-2.21,13.64-7.54,22.64"/>
	<path class="st2" d="M667.77,315.81L667.77,315.81c-1.14-0.63-1.56-2.06-0.94-3.2l0.61-1.11c0.62-1.11,2.02-1.5,3.13-0.88
		c0.01,0.01,0.03,0.01,0.04,0.02l0,0c1.14,0.63,1.57,2.05,0.96,3.21l-0.61,1.1c-0.62,1.12-2.04,1.52-3.15,0.89
		C667.79,315.83,667.78,315.82,667.77,315.81z"/>
	<path class="st2" d="M687.33,305.59L687.33,305.59c0,1.26-1.02,2.28-2.28,2.28c-0.03,0-0.06,0-0.09,0h-1.27
		c-1.3-0.03-2.34-1.1-2.33-2.4l0,0c-0.01-1.25,0.99-2.27,2.25-2.28c0.04,0,0.07,0,0.11,0h1.27
		C686.28,303.22,687.32,304.28,687.33,305.59z"/>
	<path class="st11" d="M653.66,267.14l-2.93-18.55c-0.68-3.97,1.85-7.78,5.77-8.71l0,0c4.23-0.96,8.46,1.59,9.58,5.78l5,18.46"/>
	
		<ellipse transform="matrix(0.995 -0.0997 0.0997 0.995 -23.4096 73.2724)" class="st4" cx="721.64" cy="270.93" rx="7.63" ry="8.8"/>
	<path class="st11" d="M701.09,196.88c0,0,16.77,23.6,22.12,71.71"/>
	
		<ellipse transform="matrix(0.9957 -0.0925 0.0925 0.9957 -21.8205 68.0846)" class="st4" cx="723.21" cy="269.32" rx="4.16" ry="4.86"/>
	<path class="st4" d="M748.17,379.6c-1.03,3.19-1.87,6.43-2.53,9.72c0,1.39-0.33,5.56-3.59,4.62c-3.26-0.94-2.28-17.58-1.86-19.42
		c0.42-1.85,8.34,4.13,8.34,4.13"/>
	<path class="st4" d="M642.44,364.86c2.9,1.6,6.13,2.47,9.44,2.56c5.12,0,14.47-1.74,17.91-0.85s12.19,11.93,12.19,11.93
		s2.61,2.56,1.38,3.85c-1.24,1.29-3.76,3.48-5.5,2.13c-1.74-1.36-10.45-8.54-10.45-8.54l-21.96,8.97l-9.02-4.7L642.44,364.86z"/>
	<path class="st4" d="M608.81,230.44c0,0-14.47,1.74-16.93,5.54c-2.46,3.8-42.12,90.89-42.03,94.74
		c0.09,3.85,79.31,66.19,79.31,66.19l17.1-32.56l-42.8-39.68l18.57-43.09"/>
	<polyline class="st10" points="635.51,412.64 677.35,413.49 677.14,387.47 	"/>
	<line class="st10" x1="645.49" y1="384.91" x2="634.43" y2="389.04"/>
	<path class="st4" d="M658.1,170.7c0,0,4.76,37.14,7.89,42.68c3.14,5.54,25.43,27.73,25.43,27.73s6.97-25.59,7.75-31.56
		s1.39-29.87,1.39-29.87l-42.55-11.95L658.1,170.7z"/>
	<path class="st5" d="M658.1,170.7c0,0,0.56,4.35,1.41,10.29c3.34,3.11,7.15,5.66,11.29,7.56c5.49,2.42,20.12,3.78,29.37,2.7
		c0.24-6.25,0.4-11.58,0.4-11.58l-42.55-11.95L658.1,170.7z"/>
	<path class="st4" d="M645.77,138.28c0,0-5.7-5.97-8.52,0.84c-2.82,6.81,3.48,17.07,6.85,17.51c1.99,0.26,4.02,0.11,5.96-0.44
		c0,0,2.39,9.82,4.58,12.8c4.32,5.46,9.85,9.84,16.16,12.79c7.77,3.48,33.77,4.72,37.07,0c3.29-4.72,3.1-29.87,3.05-32
		s-0.42-32.54-0.42-32.54s2.33-10.56-0.84-17.82c-3.17-7.26-34.99-17.42-42.99-13.22s-17.21,11.51-17.84,20.9
		s-0.24,24.75-0.24,24.75L645.77,138.28z"/>
	<path class="st10" d="M692.8,125.04c0,0,5.31,24.39,4.09,27.31c-1.22,2.93-5.03,2.98-9.81,0.42c-4.77-2.56-2.28-5.97-2.28-5.97"/>
	<path class="st10" d="M674.3,153.21c0,0,2.3,6.39,6.57,6.83c4.27,0.44,14.98,1.27,14.98,1.27"/>
	<path class="st10" d="M659.06,125.9l0.68,10.24c0,0,3.9,2.14,12.85,2.14s11.9-2.14,11.9-2.14l-0.24-10.24
		C684.25,125.9,671.25,118.22,659.06,125.9z"/>
	<path class="st10" d="M692.83,125.9l3.24,10.68c0,0,1.32,1.74,10.29,1.74s11.91-2.14,11.91-2.14l-0.26-10.24
		C718.02,125.93,705.01,118.22,692.83,125.9z"/>
	<line class="st10" x1="684.3" y1="125.9" x2="692.83" y2="125.9"/>
	<line class="st10" x1="659.11" y1="125.9" x2="642.29" y2="135.72"/>
	<path class="st10" d="M663.26,120.78c0,0,4.56-5.12,14.91-0.85"/>
	<path class="st10" d="M694.4,120.78c3.14-2.52,7.44-3.01,11.06-1.27"/>
	<path class="st2" d="M674.16,130.6c0,1.88-0.68,3.48-1.62,3.48c-0.94,0-1.74-1.53-1.74-3.48s0.68-3.48,1.64-3.48
		C673.4,127.12,674.13,128.7,674.16,130.6z"/>
	<path class="st2" d="M701.47,130.17c0,1.88-0.68,3.48-1.62,3.48c-0.94,0-1.74-1.53-1.74-3.48c0-1.95,0.68-3.48,1.62-3.48
		C700.67,126.68,701.42,128.28,701.47,130.17z"/>
	<path class="st5" d="M672.25,90.69c0,0,4.11,9.08-0.99,12.38c-3.21,1.85-7.16,1.85-10.36,0c2.78,3.84,2.91,8.99,0.33,12.96
		c-2.5,4.17-5.42,8.07-8.71,11.65c0,0,0.92,11.03-0.99,12.31c-1.92,1.29-7.14-0.64-7.23-3.88c-0.09-3.24-2.18-9.72-2.26-12.96
		s-1.59-11.67-1.59-11.67s-13.1-5.84-6.15-12.96c6.95-7.12,21.7-12.96,21.7-12.96s0.33-12.96,9.3-16.84
		c8.97-3.88,28.27-9.72,28.43-3.24c0.25,3.33-0.35,6.68-1.74,9.72c0,0,16.18-0.64,27.47,10.45c11.29,11.1,10.9,21.39,5.07,21.39
		s-7.73,1.29-7.73,1.29s11.17,6.48,5.42,9.72c-5.75,3.24-11.67-0.64-11.67-0.64s2.47-4.53-4.81-10.45
		C698.44,101.04,672.25,90.69,672.25,90.69z"/>
</g>
<g id="freepik--character-1--inject-19">
	<ellipse class="st5" cx="451.22" cy="725.27" rx="91.15" ry="20.55"/>
	<path class="st12" d="M511.25,300.14v16.65l24.21,11.1c0,0,2.53-11.1,0.51-30.78L511.25,300.14z"/>
	<path class="st4" d="M391.08,699.73c-5.54,4.76-10.78,9.86-15.68,15.28c-6.97,7.86-8.33,15.68-1.85,19.42
		c6.48,3.74,16.65,2.77,27.75-4.16c11.1-6.93,10.64-9.72,17.12-12.02c6.48-2.3,10.64-6.97,10.64-14.35s-23.6-8.33-28.69-8.71
		C395.29,694.8,391.08,699.73,391.08,699.73z"/>
	<path class="st10" d="M429.01,703.9c0,0-10.45,4.63-15.52,8.85c-5.07,4.22-15.17,19.39-26.98,19.39
		c-6.01,0.01-11.93-1.54-17.17-4.48c0.02,2.86,1.62,5.47,4.16,6.78c6.48,3.69,16.65,2.77,27.75-4.16
		c11.1-6.93,10.64-9.72,17.12-12.02C424.85,715.95,429.01,711.3,429.01,703.9z"/>
	<path class="st4" d="M508.46,699.73c5.54,4.76,10.78,9.86,15.68,15.28c6.97,7.86,8.33,15.68,1.85,19.42
		c-6.48,3.74-16.65,2.77-27.75-4.16c-11.1-6.93-10.64-9.72-17.12-12.02c-6.48-2.3-10.64-6.97-10.64-14.35s23.6-8.33,28.69-8.71
		C504.24,694.8,508.46,699.73,508.46,699.73z"/>
	<path class="st10" d="M470.52,703.9c0,0,10.45,4.63,15.52,8.85c5.07,4.22,15.17,19.39,26.98,19.39c6.01,0.01,11.93-1.54,17.17-4.48
		c-0.02,2.86-1.62,5.47-4.16,6.78c-6.48,3.69-16.65,2.77-27.75-4.16c-11.1-6.93-10.64-9.72-17.12-12.02
		C474.68,715.95,470.52,711.3,470.52,703.9z"/>
	<path class="st9" d="M377.66,436.99c0,0,2.77,104.08,4.16,119.35s5.5,49.96,5.5,51.87c0,1.92,2.3,78.64,2.3,78.64l-4.16,6.97
		l1.39,9.72l18.5,3.69c9.25,1.85,21.29,4.63,23.13,2.79c1.85-1.85,2.32-5.56,3.24-10.64c0.92-5.09,2.77-14.35,0.92-21.74
		c-1.85-7.39,2.32-86.05,2.79-87.89c0.47-1.85,11.11-77.83,11.11-77.83s6.97,62.46,12.02,81.41c5.05,18.95,3.24,47.19,5.09,58.28
		c1.85,11.1,5.56,48.58,6.03,51.35s1.38,6.97,1.38,6.97s23.13-3.24,27.29-5.1c4.22-1.55,8.55-2.79,12.96-3.69
		c0,0,1.38-26.37-0.47-37.01c-1.35-7.48-2.12-15.05-2.32-22.64c0-3.24,2.32-105.92,2.32-105.92l-2.32-99.46
		c0,0-62.45,6.48-86.5,1.85c-24.05-4.63-43.89-7.4-43.89-7.4L377.66,436.99z"/>
	<path class="st5" d="M422.06,437.92c-24.05-4.62-43.93-7.37-43.93-7.37l-0.47,6.46c0,0,0.16,5.97,0.42,15.24
		c11.03,3.08,33.43,8.5,55.08,8.5c22.89,0,59.34-6.97,75.75-10.29l-0.35-14.37C508.56,436.09,446.12,442.55,422.06,437.92z"/>
	<path class="st10" d="M502.42,672.3c0.3,3.19,0.49,5.02,0.49,5.02"/>
	<path class="st10" d="M495.33,461.41c0,0,1.74,89.39,1.74,123.13c0,23.34,2.82,58.77,4.56,78.38"/>
	<line class="st10" x1="401.7" y1="456.36" x2="405.92" y2="553.35"/>
	<line class="st10" x1="405.06" y1="560.92" x2="405.06" y2="576.95"/>
	<path class="st9" d="M426.99,192.68c-4.62,0.02-8.95,2.27-11.62,6.04c-2.88,3.8-6.09,7.34-9.58,10.59l-41.37,22.21l4.04,157.92
		l1.52,54c0,0,31.77,10.59,62.04,10.59c30.27,0,84.25-12.19,84.25-12.19s-4.53-210.38-3.01-210.38c1.52,0-29.77-27.17-43.89-34.31
		C455.25,190,426.99,192.68,426.99,192.68z"/>
	<path class="st10" d="M415.2,211.77c0,0,16.03,29.52,22.78,43.02c6.76,13.5,19.37,32.92,19.37,32.92l21.09-56.51"/>
	<path class="st10" d="M427.05,399.04l-0.82-23.57l-47.6-2.77c0,0,0.47,34.7,1.39,36.58"/>
	<line class="st10" x1="427.62" y1="415.72" x2="427.39" y2="409.11"/>
	<path class="st10" d="M484.06,412.01l-1.39-38.84c0,0,16.65,1.38,30.53-7.87"/>
	<path class="st10" d="M412.68,280.61c1.46,4.62,5.92,7.33,9.95,6.04c4.02-1.29,6.06-6.08,4.58-10.69s-5.92-7.33-9.95-6.04
		C413.23,271.2,411.19,275.99,412.68,280.61z"/>
	<path class="st11" d="M413.15,199.79c0,0-5.35,20.55,6.81,76.35"/>
	<path class="st10" d="M423.7,278.05c-1.03,2.09-3.56,2.94-5.65,1.9c-2.09-1.03-2.94-3.56-1.9-5.65c0.93-1.87,3.08-2.78,5.06-2.14
		C423.51,273.11,424.62,275.73,423.7,278.05z"/>
	<path class="st9" d="M511.25,228.49c0,0,7.56,5.56,8.06,7.58s26.23,63.56,26.23,63.56l-37.33,5.5l0.51-36.33"/>
	<path class="st9" d="M369.48,229.5c0,0-8.59,1.01-10.61,7.56s-16.63,73.16-16.63,73.16l53.47-5.09l-5.05-49.96"/>
	<path class="st11" d="M472.77,196.65c0,0,13.26,7.56,14.56,26.37s0,23.58,0,23.58"/>
	<path class="st10" d="M493.32,270.7c0,0-1.18,22.24-3.61,28.67c-2.42,6.43-12,14.04-19.6,15.26"/>
	<path class="st10" d="M476.17,268.29c0,0-1.06,25.66-1.17,30.43c-0.1,4.77,4.7,13.08,11.6,21.04"/>
	<path class="st2" d="M488.78,322.4l-0.2,0.16c-0.95,0.77-2.34,0.62-3.11-0.32l-0.98-1.2c-0.77-0.95-0.62-2.34,0.32-3.11l0.2-0.16
		c0.95-0.77,2.34-0.62,3.11,0.32l0.98,1.2C489.87,320.23,489.73,321.63,488.78,322.4z"/>
	<path class="st2" d="M467.44,315.7l-0.05-0.26c-0.23-1.2,0.56-2.36,1.76-2.59l1.52-0.29c1.2-0.23,2.36,0.56,2.59,1.76l0.05,0.26
		c0.23,1.2-0.56,2.36-1.76,2.59l-1.52,0.29C468.83,317.69,467.67,316.9,467.44,315.7z"/>
	<path class="st11" d="M493.58,272.39l-0.51-18.69c-0.1-4.04-3.25-7.34-7.28-7.63l0,0c-4.3-0.32-8.05,2.89-8.4,7.19l-1.57,18.95"/>
	<path class="st12" d="M536.97,315.27l-12.04-2.53l-42.38-7.05l-59.43-11.32l-14.09-6.22c0,0-13.33-17.42-14.47-19.16
		c-1.15-1.74-16.22,4.34-15.68,6.65c0.54,2.32,2.32,25.47,3.48,26.93c1.17,1.46,14.18,1.45,14.18,1.45s62.08,29.96,64.66,31.06
		c35.83,15.1,53.11,14.96,59.22,15.96c6.11,0.99,10.1-1.48,13.62-5.52C537.57,341.47,536.97,315.27,536.97,315.27z"/>
	<path class="st12" d="M392.75,268.75c0,0-7.23,0.3-17.94,7.52c-3.99,2.7-6.08,4.63-6.08,5.8c0.23,1.39,0.62,2.74,1.17,4.04
		c6.95-3.34,14.22-5.96,21.7-7.8"/>
	<path class="st12" d="M395.64,287.28c0,0-19.67,4.91-22.85,5.5c-3.19,0.59-3.76-2.61-3.76-3.76s0.87-2.91,4.34-4.63
		c3.47-1.72,20.9-6.38,20.9-6.38"/>
	<path class="st12" d="M397.68,296.25c0,0-22.87,2.32-24.61,0.87c-1.08-1.17-1.6-2.75-1.45-4.34l20.55-4.35"/>
	<path class="st12" d="M391.3,297.4l-17.64,0.87c0,0,0.85,2.61,1.74,2.89c4.18,1.03,8.44,1.71,12.73,2.04
		c2.82,0.09,5.62,0.38,8.4,0.87"/>
	<path class="st12" d="M353.33,309.21c0,0,8.06,34.84,10.09,37.35s18.67,0,35.32-5.05c16.65-5.05,87.28-35.31,87.28-35.31l10.09,2
		c0,0-4.04-12.61-11.1-13.12s-89.3,10.05-89.3,10.05L353.33,309.21z"/>
	<path class="st12" d="M423.91,170.47c0,0,0,0.75,0,2.02c0.16,6.64,0.8,27.71,2.49,32.8c2.02,6.04,29.26,57.01,31.35,52.97
		c2.09-4.04,14.63-59.03,14.63-59.03v-21.69c0,0-6.57,5.54-18.67,5.54C441.61,183.08,423.91,170.47,423.91,170.47z"/>
	<path class="st5" d="M464.32,200.36c2.82-1.73,5.53-3.65,8.08-5.75v-17.07c0,0-6.57,5.54-18.67,5.54
		c-12.11,0-29.82-12.61-29.82-12.61s0,0.75,0,2.02c0,2.33,0.17,6.46,0.38,11.06c0.48,0.77,1.01,1.49,1.6,2.18
		c3.48,4.02,20.17,14.13,24.21,15.14C454.15,201.88,459.77,202.87,464.32,200.36z"/>
	<path class="st12" d="M484.51,141.21c0,0,8.06-4.55,8.06,4.04s-7.56,18.67-7.56,18.67L484.51,141.21z"/>
	<path class="st12" d="M412.36,141.71c0,0-11.11-3.03-11.11,7.07s10.1,16.63,10.1,16.63h6.97c0,0,4.04,10.1,7.58,14.13
		s20.17,14.13,24.21,15.14c4.04,1.01,9.58,2.02,14.13-0.51c5.71-3.56,10.98-7.79,15.68-12.61c2.02-2.51,5.56-19.67,5.56-19.67
		s1.01-30.78-1.01-41.37c-2.02-10.59-15.14-27.24-33.3-29.26s-35.32,12.61-37.83,24.21S412.36,141.71,412.36,141.71z"/>
	<path class="st10" d="M445.14,149.8c0,0-3.48,7.05,2.53,9.08c6.01,2.02,13.62,1.52,15.14-1.52s-1.01-6.55-1.01-6.55"/>
	<path class="st10" d="M439.1,162.41c0,0,12.61,10.59,29.77,0.51"/>
	<path class="st10" d="M446.15,171.99c0,0,10.61,6.06,17.66-1.01"/>
	<ellipse class="st2" cx="440.11" cy="139.69" rx="2.53" ry="4.04"/>
	<path class="st2" d="M467.35,139.19c0,2.23-1.13,4.04-2.53,4.04c-1.39,0-2.53-1.74-2.53-4.04s1.13-4.02,2.53-4.02
		C466.22,135.16,467.35,136.96,467.35,139.19z"/>
	<path class="st10" d="M433.04,134.15c0,0,2.53-4.04,12.19-2.53"/>
	<path class="st10" d="M460.79,132.13c0,0,4.55-7.07,11.62,0"/>
	<path class="st5" d="M484.51,120.5c-0.66-3-1.79-5.87-3.36-8.5c-0.59,2.79-0.79,5.65-0.61,8.5c0.73,3.69,3.33,8.85,3.33,11.43
		s-0.38,12.91,1.46,11.44c0.18-0.19,0.33-0.42,0.44-0.66C485.88,135.28,485.46,127.86,484.51,120.5z"/>
	<path class="st5" d="M459.15,99.6c3.24-0.17,6.46-0.56,9.65-1.17c-5.15-3.85-11.21-6.29-17.59-7.07
		c-18.17-2.02-35.32,12.61-37.83,24.21s-1.01,26.23-1.01,26.23s4.01,2.79,5.49-0.16c1.48-2.94,0-7.75,1.48-12.91
		c1.48-5.16,3.68-7.75,4.04-11.81c0.37-4.06-2.21-9.95-0.73-13.27c1.48-3.33,10.69-9.58,16.6-7.37
		C445.59,98.69,452.36,99.82,459.15,99.6z"/>
</g>
</svg>
