<?xml version="1.0" encoding="utf-8"?>
<!-- Generator: Adobe Illustrator 23.1.0, SVG Export Plug-In . SVG Version: 6.00 Build 0)  -->
<svg version="1.1" id="Layer_1" xmlns="http://www.w3.org/2000/svg" xmlns:xlink="http://www.w3.org/1999/xlink" x="0px" y="0px"
	 viewBox="0 0 1366 768" style="enable-background:new 0 0 1366 768;" xml:space="preserve">
<style type="text/css">
	.st0{fill:#EBEBEB;}
	.st1{fill:#E0E0E0;}
	.st2{fill:#F5F5F5;}
	.st3{fill:#FAFAFA;}
	.st4{fill:#FFFFFF;}
	.st5{fill:#263238;}
	.st6{fill:#FF725E;}
	.st7{fill:#FFBE9D;}
	.st8{fill:#EB996E;}
	.st9{fill:#455A64;}
	.st10{opacity:0.4;}
	.st11{fill:#AA6550;}
	.st12{opacity:0.3;}
</style>
<g id="freepik--background-complete--inject-8">
	<path class="st0" d="M621.55,421.19c0,0-12.56,5.07,1.93,31.75s24.38,39.79,24.38,39.79s2.6,6.21-2.65,7.32
		c-5.26,1.12-16.91-0.44-19.11,6.07c-2.2,6.51,2.77,12.97,12.78,18.24s31.52,17.69,33.44,18.82c1.93,1.13,3.87,3.97,0.41,5.31
		s-29.52,4.73-27.17,17.01s32.67,22.42,35.96,23.67c3.3,1.25,4.11,2.54,3.89,4.33s-9.1,2.11-16.47,3.38
		c-7.37,1.27-15.71,4.04-13.76,11.01c1.94,6.97,20.12,21.25,63.42,24.36l20.15,0.14l10.52-17.3c20.29-38.4,17.75-61.38,12.87-66.72
		c-4.89-5.34-11.63,0.27-16.62,5.85c-4.99,5.58-9.94,12.95-11.58,12.19c-1.64-0.76-2.37-2.18-1.69-5.6s8.15-34.51-1.01-43
		c-9.16-8.49-25.85,11.84-28.74,14.07c-2.89,2.23-4.36-0.95-4.29-3.14c0.07-2.2,0.93-27.05,1.69-38.35
		c0.76-11.29-1.79-18.84-8.72-20.49c-6.93-1.66-11.55,9.13-15.22,13c-3.67,3.87-7.61-1.69-7.61-1.69s-5.9-15.34-20.88-41.73
		c-14.98-26.39-26.16-18.16-26.16-18.16"/>
	<path class="st1" d="M739.93,637.03c-10.91-19.41-29.72-54.28-46.04-84.1c-16.32-29.83-31.09-56.81-41.92-76.29l-12.82-23.06
		l-3.5-6.27l-0.88-1.69c-0.2-0.37-0.29-0.56-0.29-0.56l0.34,0.52l0.95,1.69l3.58,6.21c3.11,5.39,7.56,13.24,13,22.96
		c10.92,19.43,25.77,46.38,42.07,76.21c16.3,29.83,35.07,64.73,45.89,84.2"/>
	<path class="st1" d="M642.35,508.96c0.48,0.06,0.95,0.18,1.4,0.36c0.9,0.25,2.2,0.68,3.79,1.2c3.16,1.08,7.51,2.67,12.28,4.51
		l12.17,4.77l3.7,1.42c0.47,0.13,0.92,0.32,1.34,0.57c-0.48-0.07-0.96-0.19-1.42-0.36c-0.9-0.25-2.18-0.68-3.77-1.23
		c-3.16-1.1-7.49-2.74-12.24-4.58l-12.21-4.68l-3.7-1.4C643.22,509.39,642.77,509.2,642.35,508.96z"/>
	<path class="st1" d="M678.36,520.46c-0.15,0,2.74-9.15,6.46-20.29s6.88-20.19,7.03-20.14s-2.72,9.16-6.44,20.29
		C681.69,511.45,678.53,520.53,678.36,520.46z"/>
	<path class="st1" d="M701.36,567.42c0.2-0.46,0.46-0.88,0.78-1.27l2.3-3.38c1.94-2.81,4.6-6.76,7.39-11.11
		c2.79-4.35,5.17-8.45,6.86-11.43l2.03-3.5c0.21-0.45,0.49-0.87,0.81-1.25c-0.16,0.47-0.35,0.93-0.59,1.37
		c-0.42,0.86-1.05,2.1-1.86,3.6c-1.61,3.03-3.94,7.14-6.76,11.55c-2.82,4.41-5.51,8.29-7.56,11.02c-1.01,1.37-1.86,2.47-2.45,3.21
		C702.03,566.66,701.71,567.05,701.36,567.42z"/>
	<path class="st1" d="M666.48,564.17c0.45-0.06,0.92-0.06,1.37,0l3.74,0.2c3.14,0.2,7.51,0.51,12.31,0.9
		c4.8,0.39,9.15,0.76,12.29,1.07l3.7,0.41c0.47,0.02,0.93,0.1,1.37,0.24c-0.46,0.04-0.93,0.04-1.39,0l-3.74-0.19
		c-3.14-0.2-7.49-0.52-12.29-0.9c-4.8-0.37-9.15-0.78-12.29-1.08l-3.72-0.39C667.37,564.4,666.91,564.31,666.48,564.17z"/>
	<path class="st1" d="M681.49,608.18c0.56-0.04,1.13-0.04,1.69,0l4.79,0.24c4.04,0.24,9.62,0.59,15.79,1.03
		c6.17,0.44,11.73,0.86,15.76,1.2l4.77,0.44c0.57,0.02,1.14,0.1,1.69,0.24c-0.59,0.05-1.18,0.05-1.78,0l-4.79-0.24
		c-4.04-0.24-9.62-0.59-15.78-1.01c-6.15-0.42-11.73-0.86-15.78-1.22l-4.77-0.42C682.55,608.4,682.02,608.32,681.49,608.18z"/>
	<path class="st1" d="M725.06,610.96c0.26-0.59,0.58-1.16,0.95-1.69l2.77-4.33c2.33-3.65,5.53-8.71,8.91-14.39
		c3.38-5.68,6.31-10.91,8.45-14.69c1-1.83,1.84-3.38,2.49-4.5c0.27-0.56,0.6-1.1,0.96-1.61c-0.21,0.58-0.47,1.15-0.76,1.69
		c-0.52,1.1-1.3,2.65-2.3,4.58c-2,3.86-4.87,9.11-8.27,14.81c-3.4,5.7-6.64,10.72-9.06,14.3c-1.22,1.79-2.23,3.25-2.94,4.23
		C725.91,609.93,725.51,610.46,725.06,610.96z"/>
	<rect x="1052.86" y="2.29" class="st1" width="8.49" height="182.58"/>
	<path class="st2" d="M929.81,3.71h121.66c0.07,0,0.12,0.05,0.12,0.12V185c0,0.07-0.05,0.12-0.12,0.12H929.81
		c-0.07,0-0.12-0.05-0.12-0.12V3.83C929.69,3.76,929.74,3.71,929.81,3.71z"/>
	<path class="st0" d="M1052.92,186.52H928.4c-0.07,0-0.12-0.05-0.12-0.12v0v-184c0-0.07,0.05-0.12,0.12-0.12l0,0h124.51
		c0.07,0,0.13,0.05,0.14,0.12v184C1053.04,186.47,1052.98,186.52,1052.92,186.52z M931.18,183.7h118.87c0.07,0,0.12-0.05,0.12-0.12
		v0V5.23c0-0.07-0.05-0.12-0.12-0.12l0,0H931.18c-0.07,0-0.12,0.05-0.12,0.12c0,0,0,0,0,0v178.35
		C931.06,183.65,931.11,183.7,931.18,183.7z"/>
	<path class="st3" d="M942.08,14.89h97.32c0.07,0,0.12,0.05,0.12,0.12v158.67c0,0.07-0.05,0.12-0.12,0.12h-97.32
		c-0.07,0-0.12-0.05-0.12-0.12V15C941.96,14.94,942.02,14.89,942.08,14.89z"/>
	<path class="st0" d="M963.35,59.95h54.58c0.06,0,0.1,0.05,0.1,0.1v64c0,0.06-0.05,0.1-0.1,0.1h-54.58c-0.06,0-0.1-0.05-0.1-0.1v-64
		C963.25,59.99,963.3,59.95,963.35,59.95z"/>
	<path class="st1" d="M1013.69,116.29c0,0.2-2.64,1.39-7.78,0.79c-3.18-0.41-6.2-1.61-8.79-3.5c-3.49-2.61-5.9-6.41-6.76-10.69
		c-1.03-5.45,0.96-11.04,5.21-14.61c1.18-0.98,2.51-1.76,3.94-2.3c1.57-0.58,3.26-0.78,4.92-0.57c1.83,0.18,3.55,0.94,4.92,2.16
		c1.58,1.46,2.31,3.62,1.94,5.73c-0.37,1.88-1.32,3.6-2.71,4.92c-1.22,1.21-2.61,2.24-4.13,3.04c-3.02,1.68-6.39,2.64-9.84,2.82
		c-3.65,0.2-7.28-0.63-10.48-2.4c-3.31-1.84-6-4.62-7.73-8c-1.79-3.45-2.28-7.43-1.39-11.21c0.88-3.65,2.96-6.9,5.9-9.23
		c1.48-1.13,3.16-1.98,4.95-2.5c1.82-0.49,3.73-0.54,5.58-0.17c1.96,0.37,3.74,1.37,5.07,2.86c1.29,1.51,2,3.43,2,5.41
		c0,1.78-0.45,3.52-1.32,5.07c-0.81,1.43-1.87,2.7-3.13,3.75c-2.27,1.91-4.91,3.31-7.76,4.13c-2.65,0.78-5.43,1-8.17,0.63
		c-2.55-0.35-4.98-1.28-7.1-2.72c-3.7-2.43-6.17-6.35-6.76-10.74c-0.37-3.28,0.53-6.57,2.5-9.22c1.18-1.64,2.79-2.93,4.65-3.72
		c1.29-0.49,2.01-0.47,2.05-0.34c0.03,0.14-0.57,0.46-1.69,1.15c-1.48,1-2.71,2.33-3.6,3.87c-1.43,2.36-1.96,5.16-1.49,7.88
		c0.74,3.54,2.93,6.61,6.04,8.45c3.78,2.19,8.32,2.63,12.44,1.18c2.3-0.74,4.41-1.94,6.22-3.53c1.79-1.41,2.86-3.55,2.91-5.83
		c-0.01-2.13-1.62-3.91-3.74-4.14c-1.19-0.21-2.42-0.16-3.58,0.17c-1.22,0.35-2.37,0.92-3.38,1.69c-2.13,1.72-3.63,4.1-4.26,6.76
		c-0.64,2.75-0.26,5.65,1.05,8.15c1.32,2.58,3.36,4.7,5.88,6.12c2.48,1.37,5.29,2.03,8.12,1.89c2.79-0.12,5.52-0.86,7.98-2.18
		c1.15-0.55,2.23-1.25,3.2-2.08c0.81-0.68,1.4-1.6,1.69-2.62c0.17-0.77-0.07-1.58-0.64-2.13c-0.74-0.64-1.66-1.05-2.64-1.15
		c-1.04-0.16-2.11-0.08-3.11,0.25c-1.05,0.36-2.02,0.9-2.89,1.59c-3.35,2.68-5.03,6.93-4.41,11.18c0.61,3.58,2.46,6.83,5.24,9.16
		c2.18,1.81,4.74,3.09,7.49,3.75C1010.86,116.44,1013.65,115.9,1013.69,116.29z"/>
	<rect x="303.07" y="74.78" class="st1" width="121.98" height="201.9"/>
	<rect x="299.01" y="74.78" class="st0" width="121.98" height="201.9"/>
	<rect x="304.2" y="78.87" class="st3" width="111.58" height="193.72"/>
	<rect x="325.43" y="104.04" class="st0" width="68.61" height="143.37"/>
	<path class="st1" d="M325.43,196.68c-0.15-13.39,11.84-26.48,25.16-28.34c6.32-0.9,13.04,0.36,18.94-2.06
		c10.55-4.33,13.92-18.35,24.53-22.49l0.47,103.61h-69.1V196.68z"/>
</g>
<g id="freepik--Screen--inject-8">
	<rect x="465.42" y="15.09" class="st4" width="388.23" height="388.23"/>
	<path class="st5" d="M853.65,403.34c0-3.26-0.15-155.47-0.37-388.25l0.37,0.39h-388.2l0,0l0.44-0.44c0,142.18,0,275.4,0,388.25
		l-0.37-0.39l388.23,0.39l-388.23,0.37h-0.39v-0.37c0-112.85,0-246.07,0-388.25v-0.39h0.47h388.2h0.39v0.51
		C853.8,247.87,853.65,400.09,853.65,403.34z"/>
	<rect x="457.84" y="10.57" class="st5" width="403.31" height="22.35"/>
	<path class="st6" d="M576.19,125.31c-6.69,0-12.11-5.42-12.11-12.11s5.42-12.11,12.11-12.11c6.69,0,12.11,5.42,12.11,12.11
		c0,0.01,0,0.01,0,0.02C588.27,119.9,582.86,125.31,576.19,125.31z M576.19,102.79c-5.75,0-10.42,4.66-10.42,10.42
		s4.66,10.42,10.42,10.42c5.75,0,10.41-4.65,10.42-10.4C586.59,107.47,581.94,102.81,576.19,102.79z"/>
	<circle class="st6" cx="786.76" cy="148.5" r="11.26"/>
	<path class="st6" d="M758.12,340.39c-6.69,0-12.11-5.42-12.11-12.11c0-6.69,5.42-12.11,12.11-12.11c6.69,0,12.11,5.42,12.11,12.11
		c0,0.01,0,0.01,0,0.02C770.22,334.98,764.8,340.39,758.12,340.39z M758.12,317.88c-5.75,0-10.42,4.66-10.42,10.42
		c0,5.75,4.66,10.42,10.42,10.42c5.75,0,10.42-4.66,10.42-10.42c0.04-5.75-4.6-10.45-10.35-10.48c-0.02,0-0.05,0-0.07,0V317.88z"/>
	<path class="st6" d="M574,72.17c-0.03,2.51-2.09,4.53-4.6,4.5c-2.51-0.03-4.53-2.09-4.5-4.6c0.03-2.5,2.07-4.51,4.56-4.5
		c2.5,0,4.53,2.03,4.53,4.53C574,72.13,574,72.15,574,72.17z"/>
	<path class="st6" d="M594.19,310.51c0,2.5-2.03,4.53-4.53,4.53c-2.5,0-4.53-2.03-4.53-4.53c0-2.49,2.01-4.51,4.5-4.53
		c2.5-0.02,4.55,1.99,4.57,4.5C594.19,310.49,594.19,310.5,594.19,310.51z"/>
	<polygon class="st6" points="632.79,84.26 625.83,77.28 635.35,74.72 644.88,72.17 642.33,81.71 639.78,91.24 	"/>
	<polygon class="st6" points="692.72,317.6 683.45,320.98 685.16,311.26 686.87,301.55 694.43,307.89 701.98,314.23 	"/>
	<rect x="508.21" y="138.06" class="st6" width="12.16" height="12.16"/>
	<path class="st6" d="M637.53,366.48l-21.58-21.61l21.58-21.58l21.58,21.58L637.53,366.48z M618.37,344.87l19.19,19.17l19.14-19.17
		l-19.17-19.19L618.37,344.87z"/>
	<path class="st5" d="M788.93,264.72c0.19-0.02,0.38-0.02,0.57,0h1.83v0.15c-10.99,0.2-64.44,0.37-128.67,0.37l-92.67-0.14
		l-28.1-0.14h-7.63h-2c-0.23,0.01-0.45,0.01-0.68,0h0.68h2h7.63l28.1-0.14l92.67-0.12c64.25,0,117.68,0.15,128.67,0.36v0.15h-1.83
		L788.93,264.72z"/>
	<path class="st5" d="M743.02,280.14c0,0,0.12,0,0.37,0h1.17v0.15c-7.03,0.2-41.24,0.37-82.33,0.37l-59.31-0.14l-17.97-0.14h-4.89
		h-1.27h-0.44h0.44h1.27h4.89l17.97-0.14l59.31-0.14c41.09,0,75.29,0.17,82.33,0.37v0.15h-1.17L743.02,280.14z"/>
</g>
<g id="freepik--Floor--inject-8">
	<path class="st5" d="M1080.63,641.93c0,0.24-177.45,0.44-396.3,0.44S288,642.17,288,641.93s177.42-0.44,396.33-0.44
		S1080.63,641.68,1080.63,641.93z"/>
</g>
<g id="freepik--Plant--inject-8">
	<path class="st6" d="M357.07,500.31c-6.53-4.08-13.91-6.62-21.58-7.42c-3.52-0.36-7.37-0.25-10.14,1.88
		c-0.66,0.38-1.06,1.1-1.05,1.86c0.16,0.54,0.51,1,1,1.29c9.33,6.66,21.59,7.58,31.82,2.4"/>
	<path class="st6" d="M356.51,499.7c-5-3.66-9.66-7.77-13.93-12.26c-4.29-4.52-7.3-10.09-8.74-16.15c-0.57-1.82-0.32-3.79,0.69-5.41
		C345.64,474.56,354.37,485.78,356.51,499.7"/>
	<path class="st6" d="M356.95,500.22c-1.03-6.06-0.95-12.25,0.25-18.28c1.25-6.07,4.72-11.46,9.74-15.1
		c1.93,4.48,1.1,9.65-0.25,14.34c-2.1,7.24-5.36,14.09-9.65,20.29"/>
	<path class="st6" d="M367.84,519.74c-6.54,1.04-12.59,4.1-17.3,8.76c-4.95,4.49-8.41,10.39-9.91,16.91
		c6.49-0.41,11.99-4.97,15.98-10.15s6.76-10.75,11.13-15.54"/>
	<path class="st6" d="M370.19,522.85c-5.27-13.42-3.42-28.59,4.94-40.34C378.88,495.89,377.51,511.01,370.19,522.85"/>
	<path class="st6" d="M384.58,539.97c-12.33-0.77-23.93,5.88-29.49,16.91c-0.37,0.74-0.69,1.69-0.2,2.32
		c0.52,0.51,1.25,0.72,1.96,0.57c5.8-0.37,10.96-3.87,15.22-7.85c4.26-3.97,7.96-8.59,12.66-12.04"/>
	<path class="st6" d="M384.12,539.04c-3.09-9.97-3.28-20.61-0.56-30.69c1.08-3.94,2.91-8.1,6.56-9.96c0.29-0.19,0.66-0.26,1-0.17
		c0.3,0.15,0.52,0.41,0.63,0.73c1.23,2.76,1.77,5.79,1.56,8.81c-0.22,3-0.68,5.98-1.39,8.91c-1.15,5.44-1.69,11.29-4.75,16
		c-0.71,1.13-1.34,2.3-1.89,3.52c-0.56,1.18-0.57,1.69-1.08,2.57"/>
	<path class="st6" d="M422.24,544.73c-2.57-11.31-0.05-23.18,6.9-32.46c0.49-0.66,1.15-1.35,1.96-1.27c1.25,0.1,1.57,1.78,1.52,3.01
		C432.1,525.01,428.5,535.66,422.24,544.73"/>
	<path class="st6" d="M425.62,547.06c13.49,3.19,27.71,0.3,38.89-7.9c-6.5-3.26-13.92-4.17-21.02-2.57
		c-7.02,1.61-13.53,4.75-17.8,10.47"/>
	<path class="st6" d="M428.53,539.92c7.81-12.04,20.91-19.61,35.24-20.37c-1.69,5.66-6.27,10.14-11.53,12.73
		c-5.38,2.42-11.07,4.09-16.91,4.95c-2.25,0.44-5.34,0.91-6.76,2.69"/>
	<path class="st6" d="M422.91,505.26c2.21-6.71,3.73-13.63,4.51-20.65c0.78-7.06-0.66-14.19-4.11-20.41
		c-6.76,13.19-7.51,28.61-0.61,41.75"/>
	<path class="st6" d="M445.91,493.66c7.98-14.49,24.25-26.07,40.72-27.7C480.23,481.83,462.92,493.98,445.91,493.66"/>
	<path class="st6" d="M440.83,496.49c11.84,1.81,21.98,9.42,33.14,14.02c2.33,1.12,4.91,1.62,7.49,1.44
		c3.24-0.04,5.83-2.7,5.79-5.94c-0.02-1.72-0.8-3.34-2.12-4.44c-1.58-1.45-3.43-2.57-5.44-3.3c-12.11-5.07-25.09-5.16-37.84-2.11"/>
	<path class="st6" d="M434.07,504.84c2.69,0.76,3.6,2.16,5.73,3.97c7.27,6.19,15.88,10.61,25.14,12.92
		c0.95,0.24,2.21,0.32,2.69-0.54c0.47-0.86-0.12-1.69-0.64-2.35c-4.05-4.74-9.31-8.29-15.22-10.3c-5.87-2.16-10.94-4.73-17.7-4.21"
		/>
	<path class="st6" d="M426.21,454.45c9.86,9.09,23.11,13.6,36.47,12.41c0.62,0.01,1.22-0.2,1.69-0.59c0.91-1.01-0.19-2.55-1.25-3.38
		c-10.72-8.35-23.67-11.84-36.88-8.45"/>
	<path class="st6" d="M435.42,451.09c13.09-9.64,30.01-12.43,45.5-7.51c-5.96,5.51-13.6,8.86-21.69,9.5
		c-7.99,0.72-16.05,0.04-23.81-2.01"/>
	<path class="st6" d="M431.75,427.94c-1.05-10.7-0.37-19.16-1.1-29.91c0-0.85-0.25-1.89-1.05-2.2c-1.13-0.42-2.06,0.95-2.42,2.08
		c-3.17,10.11-1.49,21.11,4.55,29.81"/>
	<path class="st6" d="M430.99,429.11c6.99-4.51,13.01-10.36,17.72-17.21c3.5-4.8,6.46-10.53,5.66-16.42
		c-4.99,0.14-9.67,2.46-12.8,6.36c-3.05,3.87-5.27,8.33-6.51,13.1C433.65,419.65,432.65,424.49,430.99,429.11"/>
	<path class="st6" d="M448.41,424.34c15.95-5.91,30.73-14.62,43.62-25.72c-5.22-2.1-11.18-0.85-16.38,1.27
		c-11.83,4.48-21.6,13.13-27.48,24.33"/>
	<path class="st6" d="M435.88,434.97c8.03,1.15,16.19,1.19,24.23,0.12c7.85-1.32,15.22-4.43,22.61-7.52
		c0.64-0.18,1.19-0.6,1.54-1.17c0.26-0.69,0.04-1.47-0.54-1.93c-0.57-0.45-1.24-0.76-1.94-0.91c-7.96-2.23-16.59-1.18-24.43,1.47
		C449.85,427.58,442.66,430.91,435.88,434.97"/>
	<path class="st6" d="M389.91,454.77c-5.26-11.22-5.4-24.17-0.39-35.51c3.38,5.07,3.75,11.58,3.13,17.64s-2.45,12.29-2.57,18.38"/>
	<path class="st6" d="M367.96,443.75c-13.91-0.18-27.25,5.51-36.76,15.66c6.94,0.83,13.96-0.47,20.14-3.74
		c6.12-3.26,11.9-7.12,17.25-11.53"/>
	<path class="st6" d="M353.2,438.81c-6.76-0.54-13.15-1.37-19.61,0.61c-6.59,1.85-12.05,6.48-14.95,12.68
		c6.33,0.5,12.67-0.7,18.38-3.48C342.69,445.84,348.11,442.56,353.2,438.81"/>
	<path class="st6" d="M375.04,439.03c-6.04-3.94-12.22-7.93-19.26-9.62c-7.03-1.69-15.22-0.42-20.07,4.87
		c5.68,3.38,12.6,3.74,19.19,3.74s14.68,0,20.9,2.11"/>
	<path class="st6" d="M375.09,439.35c-10.33-10.14-14.24-28.34-10.14-42.19C373.12,409.63,376.71,424.54,375.09,439.35"/>
	<path class="st6" d="M403.47,410.64c1.94-4.51,3.38-9.27,5.07-13.88c1.6-4.67,4.05-9,7.22-12.78c3.22-3.81,7.81-6.19,12.78-6.63
		c-3.21,14.11-12.21,26.22-24.8,33.36"/>
	<path class="st6" d="M398.33,416.63c-3.21-4.43-6.93-10.45-11.31-13.76c-4.38-3.31-10.04-5.31-15.39-4.04
		C377.23,408.63,387.12,415.22,398.33,416.63"/>
	<path class="st6" d="M399.36,411.01c-2.31-5.28-4.01-10.82-5.07-16.49c-1.06-5.72-0.15-11.64,2.59-16.77
		c5.68,10.72,7.49,22.22,2.81,33.38"/>
	<path class="st6" d="M403.52,377.76c3.21-10.6,12.93-18.43,23.42-21.98c1.3-0.53,2.71-0.74,4.11-0.61
		c1.43,0.15,2.62,1.14,3.03,2.52c0.39,1.81-1.1,3.38-2.5,4.63c-8.21,7-17.75,12.27-28.05,15.47"/>
	<path class="st6" d="M403.64,369.08c0.41-6.76,0.83-13.78,3.06-20.29c2.23-6.51,6.51-12.56,12.75-15.4
		c1.07,6.92-1.98,13.78-5.66,19.73c-3.69,5.95-8.1,11.57-10.31,18.19"/>
	<path class="st6" d="M403.47,373.8c-2.65-7.74-2.93-17.57-7.56-24.31c-3.25-4.7-8.45-7.91-11.21-12.9
		c-1.69,4.79-1.46,10.04,0.64,14.66c2.11,4.55,5.01,8.69,8.57,12.22c3.38,3.67,6.36,6.43,9.55,10.3"/>
	<path class="st5" d="M403.52,601.62c-0.2,0-0.39-51.6-0.41-115.25c-0.02-63.64,0.15-115.28,0.36-115.28
		c0.2,0,0.39,51.6,0.39,115.28S403.72,601.62,403.52,601.62z"/>
	<path class="st5" d="M448.61,447.03c-0.62,0.3-1.26,0.55-1.93,0.73l-5.34,1.81c-4.51,1.52-10.69,3.75-17.4,6.51
		c-6.71,2.76-12.92,5.16-16.49,8.25c-1.45,1.18-2.61,2.68-3.38,4.38c-0.52,1.22-0.61,1.96-0.68,1.94c-0.07-0.02,0-0.19,0-0.54
		c0.08-0.51,0.21-1.02,0.39-1.5c0.67-1.8,1.78-3.41,3.23-4.67c2.15-1.82,4.56-3.32,7.15-4.45c2.86-1.34,6.04-2.72,9.4-4.11
		c6.76-2.76,12.97-4.92,17.52-6.32c2.28-0.71,4.13-1.23,5.43-1.57C447.2,447.27,447.9,447.11,448.61,447.03z"/>
	<path class="st5" d="M463.41,410.71c0,0-0.17,0.22-0.54,0.59l-1.69,1.56l-6.19,5.61l-20.58,18.33
		c-8.03,7.14-14.98,13.98-19.78,19.12c-2.42,2.57-4.31,4.7-5.6,6.17c-0.61,0.69-1.1,1.27-1.5,1.69c-0.16,0.21-0.35,0.41-0.56,0.57
		c0.12-0.23,0.27-0.46,0.44-0.66l1.39-1.81c1.23-1.54,3.08-3.72,5.44-6.34c6.22-6.81,12.8-13.28,19.72-19.38
		c8.05-7.14,15.39-13.53,20.71-18.16l6.34-5.44l1.69-1.45C462.92,410.96,463.16,410.82,463.41,410.71z"/>
	<path class="st5" d="M425.77,444.07c-0.2-0.1,1.47-3.97,3.14-8.88c1.67-4.9,2.47-9.03,2.69-9c-0.16,3.16-0.83,6.28-1.98,9.23
		c-0.72,2.11-1.55,4.18-2.5,6.21C426.78,442.5,426.33,443.32,425.77,444.07z"/>
	<path class="st5" d="M403.64,475.3c-0.47-0.42-0.89-0.91-1.23-1.44l-3.18-4.06c-2.67-3.38-6.34-8.2-10.47-13.41
		c-4.13-5.21-7.93-9.86-10.69-13.24l-3.23-4.01c-0.43-0.47-0.8-0.98-1.12-1.54c0.49,0.41,0.93,0.86,1.34,1.35
		c0.83,0.9,2,2.21,3.38,3.86c2.86,3.3,6.76,7.91,10.86,13.12c4.09,5.21,7.76,10.01,10.31,13.53c1.29,1.69,2.3,3.2,2.98,4.21
		C402.99,474.18,403.34,474.72,403.64,475.3z"/>
	<path class="st5" d="M393.68,462.6c-1.99-2.2-3.42-4.86-4.14-7.74c-0.77-2.53-1.09-5.18-0.95-7.83h0.34
		c-0.15,0.59-0.25,0.91-0.32,0.9c-0.07-0.02,0-0.34,0-0.95h0.34c0.17,2.58,0.61,5.13,1.32,7.61
		C391.19,457.34,392.34,460.02,393.68,462.6z"/>
	<path class="st5" d="M380.91,446.54c-0.89-0.67-1.87-1.24-2.89-1.69c-2.6-0.77-5.34-0.99-8.03-0.64c-2.72,0.22-5.43,0.65-8.08,1.3
		c-1.11,0.34-2.24,0.61-3.38,0.81c0.98-0.61,2.06-1.05,3.18-1.32c2.66-0.81,5.41-1.33,8.18-1.54c2.79-0.36,5.62-0.05,8.27,0.9
		C379.3,444.74,380.28,445.51,380.91,446.54z"/>
	<path class="st5" d="M377.88,442.65c0,0.12-1.69-0.68-4.43-1.61c-3.58-1.21-7.29-1.98-11.06-2.28c-3.77-0.27-7.56-0.07-11.28,0.57
		c-2.86,0.51-4.58,1.05-4.63,0.93c0.37-0.23,0.77-0.4,1.18-0.51c1.11-0.38,2.24-0.69,3.38-0.93c7.54-1.68,15.4-1.09,22.61,1.69
		c1.09,0.41,2.15,0.88,3.18,1.42C377.21,442.14,377.56,442.38,377.88,442.65z"/>
	<path class="st5" d="M403.47,426.2c-1.31-3.67-2.38-7.42-3.21-11.23c-1.07-3.75-1.91-7.56-2.52-11.41
		c1.32,3.67,2.41,7.42,3.25,11.23C402.05,418.53,402.88,422.35,403.47,426.2z"/>
	<path class="st5" d="M403.64,426.2c-1.03-2.34-2.23-4.6-3.58-6.76c-1.51-2.03-3.29-3.86-5.28-5.43c0-0.08,0.88,0.22,2.05,1.05
		c1.5,1.09,2.79,2.43,3.84,3.96C402.27,421.1,403.3,423.58,403.64,426.2z"/>
	<path class="st5" d="M403.52,574.11c-0.08,0-0.24-1.23-0.81-3.38c-0.83-3.08-1.97-6.07-3.38-8.93
		c-4.99-9.37-11.16-18.07-18.36-25.87c-4.09-4.67-8.05-9.06-11.41-13.29c-3.02-3.73-5.76-7.69-8.17-11.84
		c-1.61-2.78-2.99-5.68-4.13-8.69c-0.37-1.08-0.64-1.93-0.81-2.5c-0.08-0.29-0.13-0.58-0.15-0.88c0,0,0.44,1.18,1.29,3.28
		c1.2,2.95,2.63,5.81,4.26,8.56c2.46,4.07,5.21,7.95,8.23,11.62c3.38,4.16,7.36,8.45,11.45,13.22c7.23,7.81,13.35,16.57,18.21,26.04
		c1.41,2.91,2.5,5.96,3.25,9.1c0.2,0.85,0.36,1.72,0.47,2.59C403.5,573.46,403.53,573.78,403.52,574.11z"/>
	<path class="st5" d="M444.22,528.09c-0.68,0.44-1.4,0.85-2.13,1.2c-1.93,1.08-3.79,2.3-5.55,3.65c-2.59,2.02-5.02,4.24-7.27,6.64
		c-2.55,2.69-5.19,5.82-7.86,9.18c-5.38,6.76-10.4,12.7-13.41,17.45c-1.52,2.37-2.62,4.35-3.38,5.75c-0.35,0.74-0.74,1.46-1.18,2.15
		c0.04-0.21,0.11-0.41,0.2-0.61c0.15-0.37,0.37-0.96,0.71-1.69c0.94-2.03,2-3.99,3.18-5.88c4.08-6.13,8.5-12.03,13.26-17.65
		c2.69-3.38,5.36-6.49,7.96-9.18c2.29-2.41,4.79-4.62,7.46-6.59c1.8-1.33,3.71-2.5,5.71-3.5c0.71-0.36,1.29-0.57,1.69-0.73
		C444.01,528.12,444.22,528.05,444.22,528.09z"/>
	<path class="st5" d="M445.06,543.02c-1.49,0.33-3,0.55-4.51,0.66c-3.62,0.37-7.21,1.07-10.7,2.1c-3.46,1.14-6.7,2.86-9.59,5.07
		c-2.2,1.69-3.25,3.11-3.38,3.04c0.16-0.39,0.38-0.74,0.66-1.05c0.71-0.87,1.5-1.68,2.37-2.4c2.85-2.39,6.14-4.21,9.69-5.34
		c3.54-1.05,7.19-1.69,10.87-1.91C441.99,542.99,443.53,542.93,445.06,543.02z"/>
	<path class="st5" d="M418.23,552.22c-0.24-0.14,1.79-3.25,3.38-7.42c1.59-4.18,1.83-7.93,2.08-7.88c0.15,0.8,0.15,1.62,0,2.42
		c-0.23,1.95-0.67,3.86-1.32,5.72c-0.69,1.83-1.56,3.58-2.62,5.22C419.36,551,418.85,551.66,418.23,552.22z"/>
	<path class="st5" d="M457.47,488c-0.23,0.15-0.47,0.27-0.73,0.37l-2.11,0.96c-0.93,0.41-2.06,0.91-3.38,1.57s-2.77,1.34-4.31,2.27
		l-2.47,1.4c-0.85,0.49-1.69,1.08-2.6,1.69c-1.81,1.1-3.62,2.45-5.56,3.84c-4.13,3.13-8.02,6.55-11.65,10.25
		c-3.57,3.74-6.86,7.75-9.82,11.99c-1.32,1.98-2.62,3.84-3.65,5.7c-0.54,0.91-1.08,1.78-1.56,2.65l-1.32,2.5
		c-0.86,1.59-1.49,3.09-2.11,4.4c-0.63,1.3-1.08,2.43-1.45,3.38l-0.9,2.15c-0.08,0.26-0.2,0.5-0.36,0.73
		c0.05-0.27,0.12-0.53,0.22-0.78l0.76-2.21c0.32-0.95,0.76-2.11,1.35-3.38s1.17-2.86,2.03-4.46l1.27-2.54c0.46-0.9,1-1.69,1.52-2.71
		c1.03-1.88,2.32-3.75,3.62-5.78c5.9-8.62,13.21-16.19,21.63-22.37c1.98-1.39,3.82-2.74,5.66-3.82c0.91-0.56,1.69-1.13,2.64-1.61
		l2.5-1.37c1.57-0.91,3.08-1.56,4.38-2.18s2.45-1.1,3.38-1.47l2.18-0.83C456.89,488.17,457.17,488.06,457.47,488z"/>
	<path class="st5" d="M425.21,509.61c0.28-1.04,0.87-1.96,1.69-2.65c1.99-1.72,4.52-2.69,7.15-2.74c2.58,0,5.14,0.5,7.52,1.47
		c1.01,0.32,1.97,0.79,2.84,1.39c-1.03-0.2-2.05-0.5-3.03-0.88c-2.36-0.81-4.83-1.23-7.32-1.23c-2.45,0.07-4.82,0.91-6.76,2.4
		C426.55,508.05,425.85,508.8,425.21,509.61z"/>
	<path class="st5" d="M420.39,514.58c2.17-4.16,2.73-8.98,1.57-13.53c0.44,0.56,0.73,1.22,0.85,1.93c0.44,1.65,0.56,3.37,0.36,5.07
		c-0.2,1.69-0.71,3.33-1.5,4.84C421.02,514.04,420.54,514.63,420.39,514.58z"/>
	<path class="st5" d="M367.87,581.59c1.12,19.73,7.05,39.79,16.2,60.08h39.75c8.72-20.09,14.25-40.11,15.22-60.08H367.87z"/>
	<path class="st3" d="M432.62,613.42c0,0.2-13.09,0.37-29.23,0.37s-29.23-0.17-29.23-0.37s13.09-0.37,29.23-0.37
		S432.62,613.22,432.62,613.42z"/>
	<path class="st3" d="M431.72,620.58c0,0.2-12.26,0.37-27.39,0.37c-15.13,0-27.41-0.17-27.41-0.37s12.26-0.37,27.41-0.37
		C419.48,620.2,431.72,620.36,431.72,620.58z"/>
</g>
<g id="freepik--character-4--inject-8">
	<path class="st5" d="M852.96,94.83c5.29-2.06,11.31,2.38,16.79,0.9c3.38-0.91,5.7-3.79,8.57-5.7c4.59-2.95,10.3-3.57,15.42-1.69
		c4.75,2.01,7.9,4.28,8.89,9.35c4.01-2.71,11.36,2.05,14.12,6.97s2.52,10.14,1.57,15.72c-1.65,9.57-5.17,18.72-10.35,26.93
		c-0.46,0.73-1.22,1.56-2.01,1.23c-0.79-0.32-0.78-0.86-0.91-1.44c-0.89-4.98-1.17-10.05-0.83-15.1c0.34-5.06-0.35-10.13-2.03-14.91
		c-1.94-4.67-6-8.76-11.02-9.38c-3.76-0.25-7.48,0.84-10.52,3.08c-3.11,2.05-5.8,4.7-8.74,7c-2.83,2.46-6.29,4.09-9.99,4.72
		c-3.78,0.59-7.55-1.09-9.65-4.28c-1.83-3.26-0.39-8.17,3.2-9.22c-4.05-0.1-7.26-3.46-7.16-7.51c0.07-2.96,1.91-5.58,4.66-6.66
		V94.83z"/>
	<path class="st7" d="M910.62,122.47l-1.32,56.64c-0.22,9.64-9.69,17.79-19.31,17.09l0,0c-8.96-0.66-14.61-8.91-14.39-17.89
		c0.1-4.28,0.17-7.83,0.15-8.27c0,0-14.39-1.69-15.1-15.98c-0.34-6.92,0.12-21.2,0.68-34.14c0.61-13.88,11.77-24.97,25.65-25.48
		h1.37C903.28,94.73,911.34,107.56,910.62,122.47z"/>
	<path class="st8" d="M875.73,169.85c6.61-0.12,13.03-2.21,18.45-6c0,0-4.02,10.47-18.35,9.71L875.73,169.85z"/>
	<path class="st5" d="M866.92,130.67c0.03,1.11,0.94,1.99,2.05,1.98c1.08,0.04,1.99-0.81,2.03-1.89c0-0.01,0-0.01,0-0.02
		c-0.03-1.11-0.94-2-2.05-2c-1.08-0.04-1.99,0.81-2.03,1.89C866.92,130.65,866.92,130.66,866.92,130.67z"/>
	<path class="st5" d="M864.66,126.85c0.25,0.25,1.69-0.95,3.96-1.03c2.27-0.08,3.86,0.96,4.09,0.69c0.24-0.27-0.17-0.59-0.9-1.08
		c-0.98-0.62-2.12-0.93-3.28-0.88c-1.14,0.04-2.25,0.44-3.14,1.15C864.74,126.24,864.52,126.75,864.66,126.85z"/>
	<path class="st5" d="M887.94,130.67c0.05,1.11,0.96,1.98,2.06,1.98c1.07,0.05,1.98-0.78,2.03-1.86c0-0.02,0-0.04,0-0.05
		c-0.03-1.11-0.94-2-2.05-2c-1.08-0.05-2,0.79-2.04,1.87C887.94,130.64,887.94,130.66,887.94,130.67z"/>
	<path class="st5" d="M886.28,126.45c0.25,0.25,1.69-0.95,3.96-1.01c2.27-0.07,3.86,0.96,4.09,0.68c0.24-0.29-0.17-0.59-0.9-1.08
		c-0.98-0.62-2.12-0.92-3.28-0.86c-1.14,0.03-2.24,0.43-3.14,1.13C886.37,125.84,886.15,126.35,886.28,126.45z"/>
	<path class="st5" d="M878.91,143.05c-1.18-0.31-2.39-0.48-3.6-0.51c-0.56,0-1.1-0.14-1.2-0.51c-0.07-0.58,0.03-1.17,0.3-1.69
		c0.49-1.39,0.98-2.82,1.5-4.35c1.43-3.67,2.56-7.46,3.38-11.31c-1.7,3.56-3.11,7.24-4.21,11.02c-0.51,1.52-0.98,2.98-1.44,4.36
		c-0.33,0.69-0.4,1.48-0.2,2.21c0.18,0.39,0.53,0.67,0.95,0.78c0.32,0.07,0.64,0.11,0.96,0.1
		C876.55,143.28,877.74,143.24,878.91,143.05z"/>
	<path class="st5" d="M885.39,117.86c0.24,0.59,2.42,0.22,5.07,0.44c2.65,0.22,4.7,0.85,5.07,0.29c0.14-0.25-0.24-0.81-1.1-1.35
		c-1.15-0.68-2.44-1.08-3.77-1.17c-1.33-0.11-2.66,0.1-3.89,0.61C885.74,117.1,885.29,117.57,885.39,117.86z"/>
	<path class="st5" d="M865.23,120.46c0.41,0.47,1.89-0.1,3.72-0.19c1.83-0.08,3.38,0.2,3.7-0.32c0.32-0.52-0.12-0.76-0.81-1.2
		c-0.91-0.55-1.98-0.8-3.04-0.71c-1.07,0.06-2.1,0.45-2.94,1.12C865.23,119.7,865.05,120.23,865.23,120.46z"/>
	<path class="st7" d="M909.84,133.11c0.24-0.12,9.72-3.28,9.77,6.51s-9.79,7.83-9.81,7.54
		C909.79,146.87,909.84,133.11,909.84,133.11z"/>
	<path class="st8" d="M912.78,143.44c0,0,0.17,0.12,0.46,0.25c0.41,0.16,0.87,0.16,1.29,0c1.28-0.82,2.02-2.28,1.93-3.8
		c0.02-0.84-0.15-1.67-0.49-2.43c-0.19-0.62-0.68-1.11-1.3-1.3c-0.4-0.1-0.82,0.1-1,0.47c-0.14,0.27,0,0.47-0.12,0.49
		c-0.12,0.02-0.2-0.17-0.14-0.57c0.05-0.24,0.19-0.46,0.39-0.61c0.26-0.21,0.6-0.31,0.93-0.25c0.82,0.15,1.5,0.72,1.79,1.5
		c0.43,0.84,0.64,1.78,0.61,2.72c0.11,1.78-0.86,3.46-2.47,4.24c-0.53,0.16-1.1,0.07-1.56-0.25
		C912.8,143.66,912.75,143.46,912.78,143.44z"/>
	<path class="st5" d="M858.18,117.08c6.49,1.42,13.26-0.38,18.19-4.82c3.38-3.08,5.9-7.42,10.14-8.93c2.97-0.91,6.19-0.59,8.93,0.88
		c2.71,1.49,5.09,3.51,6.98,5.95c-2.49,7.37-0.32,15.42,1.84,22.89c0.14,0.85,0.57,1.64,1.22,2.21c1.18,0.85,2.89,0,3.87-1.01
		c1.41-1.88,2.25-4.13,2.4-6.48c0.83-5.28,0.6-10.67-0.68-15.86c-1.31-5.2-4.1-9.9-8.05-13.53c-5.12-4.38-11.74-6.6-18.46-6.19
		c-6.69,0.44-13.07,2.99-18.23,7.29c-2.48,1.87-4.46,4.33-5.75,7.15"/>
	<path class="st9" d="M848.97,98.43c-0.01,0.29,0.03,0.57,0.12,0.85c0.27,0.79,0.78,1.47,1.45,1.96c1.09,0.74,2.39,1.12,3.7,1.08
		c0.81,0.01,1.62-0.07,2.42-0.24c0.91-0.19,1.76-0.63,2.45-1.25c0.76-0.73,1.14-1.77,1.05-2.82c-0.2-1.16-1.05-2.1-2.18-2.42
		c-0.54-0.18-1.12-0.24-1.69-0.17c-0.63,0.1-1.22,0.39-1.69,0.83c-0.9,0.89-1.38,2.12-1.32,3.38c0.07,1.36,0.68,2.63,1.69,3.53
		c1.02,0.93,2.27,1.58,3.62,1.88c2.83,0.57,5.76,0.18,8.34-1.12c2.53-1.27,4.9-2.82,7.07-4.63c2.03-1.65,4.19-3.13,6.46-4.43
		c2.01-1.17,4.28-1.83,6.61-1.93c2.04-0.01,4.05,0.42,5.9,1.27c2.7,1.28,5.03,3.23,6.76,5.66c0.47,0.65,0.91,1.33,1.32,2.03
		c0.13,0.25,0.28,0.49,0.44,0.73c-0.02-0.07-0.05-0.14-0.08-0.2c-0.08-0.2-0.17-0.39-0.27-0.57c-1.76-3.42-4.54-6.19-7.96-7.95
		c-1.9-0.9-3.97-1.37-6.07-1.37c-2.41,0.06-4.77,0.71-6.86,1.89c-2.3,1.31-4.49,2.82-6.54,4.5c-2.15,1.78-4.49,3.31-6.98,4.57
		c-2.46,1.28-5.28,1.71-8.01,1.2c-1.25-0.26-2.42-0.85-3.38-1.69c-0.92-0.82-1.48-1.98-1.56-3.21c-0.09-1.17,0.34-2.32,1.17-3.14
		c0.82-0.74,1.97-0.96,3.01-0.59c0.95,0.25,1.69,1.01,1.93,1.96c0.07,0.95-0.3,1.88-1,2.52c-0.64,0.6-1.43,1.02-2.28,1.2
		c-0.77,0.18-1.55,0.27-2.33,0.27c-1.27,0.06-2.53-0.27-3.6-0.96c-0.66-0.46-1.16-1.1-1.45-1.84
		C849.1,98.94,849.03,98.69,848.97,98.43z"/>
	<path class="st9" d="M918.8,112.99c-0.96,0.39-1.95,0.68-2.96,0.88c-1.1,0.15-2.21,0.08-3.28-0.2c-1.32-0.38-2.58-0.95-3.74-1.69
		c-2.1-1.34-3.71-3.33-4.58-5.66c-0.31-0.98-0.57-1.98-0.76-2.99c-0.05,0.28-0.05,0.57,0,0.85c0.06,0.77,0.21,1.53,0.46,2.27
		c0.81,2.47,2.46,4.58,4.65,5.97c1.2,0.76,2.5,1.33,3.87,1.69c1.13,0.29,2.32,0.33,3.47,0.12c0.76-0.14,1.49-0.39,2.18-0.74
		C918.36,113.34,918.59,113.18,918.8,112.99z"/>
	<path class="st9" d="M918.65,120.09c0-0.1-1.15,0.2-3.01,0.17c-4.88-0.07-9.34-2.75-11.68-7.03c-0.88-1.69-1.15-2.77-1.23-2.74
		c0.01,0.27,0.06,0.54,0.14,0.79c0.19,0.72,0.46,1.43,0.79,2.1c1.09,2.24,2.8,4.12,4.92,5.43c2.13,1.28,4.58,1.93,7.07,1.88
		c0.75,0,1.5-0.1,2.23-0.27C918.14,120.34,918.4,120.23,918.65,120.09z"/>
	<path class="st8" d="M893.98,135.53c0.14,0.01,0.26-0.08,0.29-0.22c0-0.13-0.11-0.24-0.24-0.24c-0.13,0-0.24,0.11-0.24,0.24
		c0,0,0,0,0,0C893.8,135.41,893.88,135.5,893.98,135.53z"/>
	<path class="st8" d="M889.7,134.73c0.14,0,0.25-0.1,0.29-0.27c0.03-0.14-0.05-0.29-0.19-0.34c-0.15,0-0.28,0.12-0.29,0.27
		C889.47,134.54,889.55,134.69,889.7,134.73C889.7,134.73,889.7,134.73,889.7,134.73z"/>
	<path class="st8" d="M886.86,134.77c0.14,0,0.27-0.15,0.29-0.37c0.02-0.22,0-0.41-0.2-0.42s-0.27,0.15-0.29,0.37
		S886.74,134.75,886.86,134.77z"/>
	<path class="st8" d="M891.97,138.23c0.14,0,0.24,0,0.24-0.15c0-0.15-0.12-0.15-0.25-0.15s-0.24,0-0.24,0.17
		C891.75,138.2,891.86,138.26,891.97,138.23z"/>
	<path class="st8" d="M888.08,137.49c0.14-0.01,0.25-0.13,0.25-0.27c0-0.13-0.11-0.24-0.24-0.24c-0.13,0-0.24,0.11-0.24,0.24
		c0,0,0,0,0,0c-0.02,0.13,0.07,0.25,0.2,0.27C888.06,137.49,888.07,137.49,888.08,137.49z"/>
	<path class="st8" d="M867.94,135.85c0.14,0.01,0.27-0.09,0.29-0.24c0.03-0.14-0.05-0.27-0.19-0.3c-0.14-0.01-0.27,0.09-0.29,0.24
		C867.72,135.68,867.8,135.82,867.94,135.85z"/>
	<path class="st8" d="M865.06,135.7c0.15-0.02,0.27-0.15,0.27-0.3c0.03-0.14-0.06-0.27-0.2-0.3c-0.01,0-0.02,0-0.02,0
		c-0.14,0-0.25,0.12-0.27,0.29C864.83,135.52,864.92,135.66,865.06,135.7z"/>
	<path class="st8" d="M870.47,135.81c0.11,0,0.2-0.09,0.2-0.21c0-0.11-0.09-0.2-0.21-0.2c-0.1,0-0.18,0.07-0.2,0.17
		C870.26,135.7,870.35,135.8,870.47,135.81C870.47,135.81,870.47,135.81,870.47,135.81z"/>
	<path class="st8" d="M868.46,138.76c0.13,0.07,0.3,0.03,0.37-0.1c0.07-0.13,0.03-0.3-0.1-0.37s-0.3-0.03-0.37,0.1
		c-0.01,0.01-0.01,0.02-0.01,0.03c-0.07,0.11-0.03,0.26,0.09,0.32C868.44,138.75,868.45,138.75,868.46,138.76z"/>
	<path class="st8" d="M865.99,138.37c0.12-0.02,0.2-0.14,0.17-0.26c0,0,0-0.01,0-0.01c-0.05-0.11-0.18-0.17-0.29-0.12c0,0,0,0,0,0
		c-0.12,0.02-0.2,0.14-0.17,0.26c0,0,0,0.01,0,0.01C865.76,138.36,865.88,138.41,865.99,138.37z"/>
	<path class="st8" d="M877.93,149.78c2.74,8.94,10.75,0.95,5.85-2.6c-2.12,0.59-4.18,1.36-6.17,2.28"/>
	<path class="st5" d="M879.93,153.92c2.93,0.68,6.85-2.72,4.35-6.21c-1.22-0.36-3.65,1.39-4.89,1.61c-3.48,1.32-3.62,1.01-0.25-0.59
		c1.54-0.51,3.48-2.1,5.28-2.01C888.4,149.61,883.83,156.36,879.93,153.92z"/>
	<polygon class="st2" points="875.34,176.38 887.48,188.62 909.09,175.04 915.42,186.34 904.68,313.32 860.58,313.67 863.51,197.41 
			"/>
	<path class="st6" d="M805.43,313.67l-2.54-27.27l25.23-87.48l8.2,31.53c0,0,5.24,55.24,5.24,56.32c0,1.08-6.39,11.65-6.39,11.65
		l1.98,15.22L805.43,313.67z"/>
	<path class="st6" d="M876.16,175.79l-13.53,10.79l-34.54,12.39l6.71,35.22l6.09,54.38l0.98,25.11h27.76l2.05-45.65
		c0,0-5.07-65.35-2.5-77.37L876.16,175.79z"/>
	<path class="st6" d="M909.09,175.03l12.83,8.86l16.54,7.14c0,0,17.8,3.92,17.04,5.07c-0.76,1.15-5.73,62.9-5.73,62.9l1.69,54.68
		h-58.45v-24.6l18.13-95.73L909.09,175.03z"/>
	<path class="st6" d="M955.05,196.08c2.47,0.68,16.64,26.88,16.64,26.88l13.65,11.33l7.86-14.56l18.72,0.22l2.11,24.48
		c0,0-11.09,24.04-15.49,26.6s-18.26-2.55-25.19-5.07s-25.99-25.18-25.99-25.18L955.05,196.08z"/>
	<path class="st5" d="M835.05,298.64c-0.98-1.07-1.9-2.2-2.74-3.38c-2.1-2.75-4.58-5.2-7.37-7.25c-2.81-2-6.1-3.24-9.54-3.58
		c-2.64-0.22-4.28,0.25-4.29,0c-0.02-0.25,0.37-0.22,1.12-0.41c1.05-0.24,2.13-0.35,3.21-0.3c3.6,0.18,7.07,1.39,9.99,3.5
		c2.88,2.08,5.38,4.65,7.39,7.59C833.74,295.97,834.49,297.26,835.05,298.64z"/>
	<path class="st5" d="M836.95,290.14c-2.34-2.63-4.99-4.96-7.91-6.93c-3.07-1.73-6.35-3.05-9.76-3.94c1.06-0.11,2.13-0.01,3.14,0.3
		c2.5,0.56,4.9,1.53,7.08,2.87c2.18,1.36,4.12,3.08,5.75,5.07C835.98,288.27,836.56,289.16,836.95,290.14z"/>
	<path class="st5" d="M869.75,292.99c-0.25-0.32-0.47-0.67-0.66-1.03c-0.42-0.71-1.03-1.69-1.69-3.08
		c-1.49-2.69-3.58-6.61-5.85-11.6c-2.67-5.86-4.93-11.89-6.76-18.06c-2.25-7.57-3.65-15.37-4.19-23.25
		c-0.52-8.52-0.55-17.06-0.08-25.58c0.08-1.93,0.15-3.82,0.24-5.63c0-1.79,0.26-3.56,0.76-5.28c0.27-0.82,0.69-1.59,1.23-2.27
		c0.54-0.64,1.22-1.15,1.98-1.5c1.43-0.74,3.16-0.58,4.43,0.41l-0.34,0.46l-2.81-1.79l-0.22-0.15l0.14-0.2
		c0.95-1.37,2.03-2.63,3.25-3.77c1.03-1.01,1.89-1.86,2.59-2.59s1.17-1.29,1.49-1.69c0.15-0.22,0.31-0.43,0.49-0.63
		c-0.09,0.25-0.21,0.48-0.37,0.69c-0.42,0.64-0.89,1.24-1.4,1.81c-0.66,0.76-1.5,1.69-2.5,2.69c-1.15,1.14-2.19,2.4-3.09,3.75
		l-0.08-0.36l2.84,1.69l-0.34,0.47c-1.1-0.82-2.58-0.92-3.79-0.25c-0.65,0.32-1.23,0.78-1.69,1.34c-0.47,0.62-0.84,1.32-1.08,2.06
		c-0.46,1.65-0.68,3.36-0.66,5.07c-0.07,1.8-0.14,3.68-0.2,5.63c-0.4,8.49-0.34,17,0.17,25.48c1.13,14.23,4.75,28.15,10.7,41.12
		c2.2,5.07,4.21,8.96,5.6,11.7c0.66,1.3,1.2,2.33,1.61,3.14C869.58,292.19,869.68,292.59,869.75,292.99z"/>
	<path class="st5" d="M894.54,293.89c0.11-0.4,0.25-0.79,0.44-1.17c0.34-0.85,0.81-1.94,1.39-3.38c1.2-2.87,2.93-7.03,4.99-12.22
		c4.07-10.36,9.23-24.87,14.32-41.09c3.06-9.71,5.82-18.89,8.25-26.97c0.61-2.01,1.18-3.96,1.69-5.83c0.6-1.74,0.94-3.56,1.01-5.39
		c0.15-3.38-2.71-6.39-5.33-5.92v-0.52l4.16-0.34l-0.2,0.17c0.38-1.92-0.22-3.91-1.59-5.31c-0.48-0.47-1.02-0.88-1.61-1.22
		c0.67,0.19,1.29,0.55,1.78,1.05c1.51,1.43,2.21,3.53,1.84,5.58v0.15h-0.17l-4.16,0.42v-0.52c3.08-0.57,6.21,2.72,6.09,6.44
		c-0.05,1.9-0.38,3.79-0.98,5.6c-0.54,1.88-1.12,3.84-1.69,5.85c-2.37,8.1-5.07,17.31-8.17,27.05
		c-5.07,16.23-10.35,30.74-14.58,41.05c-2.13,5.07-3.94,9.3-5.26,12.12l-1.54,3.25C895.05,293.15,894.82,293.54,894.54,293.89z"/>
	<path class="st5" d="M904.12,301.3c-2.68,0.82-5.5,1.08-8.29,0.76c1.29-0.55,2.69-0.83,4.09-0.81
		C901.32,300.97,902.74,300.99,904.12,301.3z"/>
	<path class="st5" d="M865.67,299.39c0,0.15-0.83,0.15-1.47,1.12c-0.35,0.49-0.48,1.1-0.36,1.69c0.42,1.03,1.59,1.53,2.62,1.11
		c0.35-0.14,0.66-0.38,0.88-0.69c0.28-0.56,0.31-1.21,0.08-1.79c-0.41-1.08-1.23-1.3-1.17-1.42c0.07-0.12,1.03-0.12,1.69,1.17
		c0.38,0.77,0.38,1.67,0,2.43c-0.54,0.96-1.62,1.48-2.71,1.3c-1.09-0.08-2.01-0.85-2.28-1.91c-0.18-0.84,0.06-1.72,0.64-2.35
		C864.69,299.03,865.74,299.3,865.67,299.39z"/>
	<path class="st5" d="M940.17,243.93c-3.82,1.44-7.75,2.6-11.73,3.48c-3.92,1.16-7.91,2.05-11.95,2.64
		c7.73-2.6,15.65-4.65,23.67-6.12H940.17z"/>
	<path class="st5" d="M948.69,242.37c-0.29-0.53-0.51-1.1-0.66-1.69c-0.46-1.63-0.77-3.3-0.95-4.99c-0.5-5.54-0.54-11.12-0.1-16.67
		c0.1-3.08,0.49-6.14,1.18-9.15c0.59-2.45,1.48-4.82,2.65-7.05c0.8-1.5,1.76-2.91,2.87-4.19c0.37-0.5,0.83-0.94,1.35-1.29
		c-1.38,1.81-2.61,3.74-3.67,5.77c-1.08,2.22-1.89,4.56-2.42,6.97c-0.63,2.96-1,5.97-1.1,9c-0.42,5.51-0.48,11.05-0.15,16.57
		C948.08,239.82,948.83,242.32,948.69,242.37z"/>
	<path class="st5" d="M970.22,223.54c-5.49,1.08-10.19,4.58-12.82,9.52c0.07-0.85,0.36-1.66,0.83-2.37c2.01-3.6,5.46-6.17,9.49-7.05
		C968.53,223.39,969.39,223.35,970.22,223.54z"/>
	<path class="st5" d="M973.8,257.84c0.35-1.58,0.86-3.12,1.52-4.6c1.07-2.79,2.69-6.59,4.7-10.69c2.01-4.09,4.04-7.71,5.58-10.26
		c0.77-1.43,1.68-2.77,2.72-4.01c-0.6,1.5-1.33,2.95-2.18,4.33c-1.4,2.62-3.38,6.26-5.33,10.33c-1.94,4.07-3.7,7.83-4.92,10.55
		C975.32,255,974.62,256.45,973.8,257.84z"/>
	<path class="st5" d="M968.19,254.8c0.11-1.35,0.41-2.68,0.88-3.96c0.94-3.17,2.4-6.16,4.31-8.86c1.99-2.67,4.55-4.86,7.51-6.39
		c1.18-0.7,2.46-1.19,3.8-1.45c0,0.14-1.39,0.74-3.5,2.01c-2.76,1.63-5.18,3.79-7.1,6.36c-1.85,2.61-3.34,5.45-4.43,8.45
		C969.28,252.28,968.79,253.57,968.19,254.8z"/>
	<path class="st5" d="M1000.5,260.46c0,0-0.32,0.3-1.05,0.44c-1.05,0.16-2.12-0.01-3.06-0.49c-1.39-0.73-2.56-1.81-3.38-3.14
		c-2.89-4.38-4.33-9.57-4.11-14.81c-0.02-1.39,0.21-2.78,0.69-4.09c0.15,0-0.12,1.59,0,4.09c0.06,3.27,0.66,6.5,1.79,9.57
		c1.37,3.52,3.16,6.68,5.33,7.83C997.87,260.48,999.2,260.69,1000.5,260.46z"/>
	<path class="st6" d="M893.28,197.41c0,0-0.69-6.43-3.7-6.76c-3.01-0.34-8.83,0.2-9.03,6.76l3.01,4.82c0,0-5.61,13.63-6.76,18.04
		c-1.15,4.41-4.8,89.88-4.8,89.88l9.45,19.38l10.15-19.68l1.69-92.23l-3.91-14.59L893.28,197.41z"/>
	<path class="st5" d="M910.63,193.12c-0.27,0.43-0.59,0.82-0.96,1.17c-0.66,0.71-1.69,1.69-2.91,2.89c-3.33,3.1-6.91,5.93-10.7,8.45
		l-0.64,0.44v-0.78v-0.39c-0.06-2.51-0.35-5.01-0.86-7.47c-0.39-1.98-1.27-3.84-2.55-5.39c-1.27-1.39-2.78-2.53-4.46-3.38
		c0.52,0.06,1.03,0.21,1.49,0.46c1.29,0.59,2.44,1.43,3.38,2.49c1.42,1.6,2.41,3.54,2.87,5.63c0.56,2.5,0.88,5.05,0.95,7.61v0.39
		l-0.68-0.34c3.74-2.5,7.34-5.22,10.77-8.13C907.69,195.46,909.13,194.25,910.63,193.12z"/>
	<path class="st5" d="M887.21,188.62c0,0.14-1.69,0.73-3.82,2.47c-2.83,2.3-4.93,5.39-6.02,8.88c-0.18,0.63-0.32,1.28-0.42,1.93
		l-0.17,0.91l-0.61-0.71c-2.49-2.96-4.67-5.61-6.19-7.56c-0.89-0.98-1.68-2.06-2.33-3.21c1.02,0.85,1.95,1.8,2.77,2.84
		c1.69,1.83,3.91,4.41,6.43,7.37l-0.78,0.22c0.11-0.68,0.27-1.36,0.46-2.03c1.12-3.67,3.4-6.87,6.49-9.13
		c0.93-0.68,1.93-1.25,2.99-1.69C886.84,188.65,887.21,188.55,887.21,188.62z"/>
	<path class="st5" d="M888.9,201.4c0,0.24-1.29,0.46-2.87,0.49c-1.59,0.03-2.87-0.14-2.87-0.39s1.27-0.46,2.86-0.49
		C887.6,200.98,888.9,201.15,888.9,201.4z"/>
	<path class="st5" d="M891.68,192.85c-2.04,3.4-5.12,6.05-8.78,7.57c1.38-1.35,2.86-2.61,4.41-3.75
		C888.69,195.3,890.14,194.03,891.68,192.85z"/>
	<path class="st5" d="M883.95,214.03c-0.16-2.21-0.01-4.43,0.44-6.59c0.15-2.2,0.6-4.38,1.34-6.46c0.13,2.2-0.02,4.41-0.46,6.58
		C885.11,209.76,884.67,211.94,883.95,214.03z"/>
	<path class="st5" d="M886.27,225.58c-0.3-4.01-0.3-8.04,0-12.06c-0.03-4.03,0.25-8.05,0.83-12.04c0.28,4.01,0.28,8.04,0,12.06
		C887.11,217.57,886.83,221.59,886.27,225.58z"/>
	<g class="st10">
		<path d="M893.28,197.41c0,0-0.69-6.43-3.7-6.76c-3.01-0.34-8.83,0.2-9.03,6.76l3.01,4.82c0,0-5.61,13.63-6.76,18.04
			c-1.15,4.41-4.8,89.88-4.8,89.88l9.45,19.38l10.15-19.68l1.69-92.23l-3.91-14.59L893.28,197.41z"/>
	</g>
	<path class="st5" d="M841.82,313.67c-0.08-0.36-0.12-0.72-0.12-1.08c0-0.81-0.08-1.84-0.14-3.13c-0.08-2.69-0.25-6.61-0.51-11.45
		c-0.51-9.65-1.54-22.98-3.23-37.64c-1.69-14.66-3.69-27.9-5.21-37.45c-0.76-4.7-1.39-8.45-1.84-11.31
		c-0.19-1.27-0.36-2.28-0.47-3.08c-0.08-0.36-0.11-0.73-0.1-1.1c0.11,0.35,0.21,0.7,0.27,1.07c0.17,0.78,0.39,1.79,0.64,3.04
		c0.56,2.65,1.29,6.51,2.11,11.28c1.69,9.54,3.77,22.76,5.48,37.45c1.71,14.69,2.62,28.03,2.96,37.72
		c0.19,4.84,0.25,8.76,0.24,11.46c0,1.29,0,2.32,0,3.13C841.9,312.95,841.87,313.32,841.82,313.67z"/>
	<g class="st10">
		<path d="M850.98,204.53c-1.56,15.22-3.09,30.59-1.88,45.86s5.43,30.64,14.41,43.07c0.56,0.88,1.31,1.63,2.18,2.2
			c0.91,0.56,2.07,0.52,2.94-0.1c1.37-1.17,0.57-3.38-0.3-4.95C854.02,264.3,847.97,234.31,850.98,204.53"/>
	</g>
	<g class="st10">
		<path d="M895.09,292.84c-0.2,1.69,1.89,2.96,3.57,2.57c1.64-0.57,3.04-1.69,3.96-3.16c8.45-10.94,13.26-24.3,15.88-37.86
			c2.62-13.56,3.14-24.69,3.65-38.5c-6.76,28.03-19.39,63.37-27.86,78.57"/>
	</g>
	<g class="st10">
		<path d="M947.09,224.57c0,0-0.61,18.14,3.97,21.12l-1.37,13.53c0,0,0.22,12.06,0.46,16.27c-3.66-7.64-5.52-16.01-5.44-24.48
			c0.05-8.44,0.75-16.86,2.08-25.19"/>
	</g>
	<g class="st10">
		<path d="M992.28,221.44c0.96,4.1,3.53,7.63,7.14,9.81c1.13,0.69,2.4,1.1,3.72,1.2c2.86-0.09,5.45-1.73,6.76-4.28
			c1.19-2.57,1.85-5.35,1.94-8.18l-18.65-0.24L992.28,221.44z"/>
	</g>
	<g class="st10">
		<path d="M834.97,298.74c-4.43-9.02-14.03-14.31-24.03-13.24c-0.7,0.14-1.43,0.14-2.13,0c-0.73-0.16-1.24-0.8-1.25-1.54
			c0.12-0.51,0.42-0.96,0.85-1.27c4.73-4.07,12.26-3.77,17.35-0.17c5.26,3.82,8.62,9.72,9.22,16.2"/>
	</g>
	<g class="st10">
		<path d="M984.45,234.24c-8.95,2.53-16.21,9.1-19.63,17.75c-0.37,0.95-0.64,2.15,0,2.86c0.82,0.61,1.97,0.5,2.65-0.25
			c0.62-0.77,1.07-1.66,1.3-2.62c2.63-7.71,8.32-13.99,15.72-17.36"/>
	</g>
	<path class="st7" d="M993.6,224.97l0.32-11.02c0-0.33,0.07-0.65,0.2-0.95l2.49-5.97c0,0-10.15-11.53-10.65-12.95
		c-0.51-1.42-0.22-2.93,2.3-1.89c2.52,1.03,10.65,8.57,10.65,8.57l3.14-5.56c0,0-7.34-7.81-8.07-8.64c-0.73-0.83-0.3-5.24,2.42-3.77
		c3.38,2.35,6.6,4.93,9.62,7.73l1.88-1.88l-5.43-8.35c0,0-1.89-2.93,0.41-3.77c2.3-0.85,3.38,0.85,5.07,2.72
		c1.54,1.9,2.96,3.89,4.26,5.95l1.69-0.12l2.5-0.61l-0.2-2.91c0,0-3.38-4.84-3.91-5.92c-0.52-1.08-1.89-2.96,0-3.8
		c1.89-0.85,3.09-1,4.11,0.71c0.57,0.83,1.26,1.58,2.05,2.21c1.01-0.92,2.15-1.69,3.38-2.28c1.49-0.47,3.25,1.25,1.52,6
		c-0.29,0.79-2,9.57-2,9.57l-0.57,4.65l-2,4.11l-9,15.72l0.34,10.74c0.21,2.38-0.39,4.76-1.69,6.76c-1.65,2.1-4.45,2.92-6.97,2.05
		C998.02,230.84,995.18,228.29,993.6,224.97z"/>
	<path class="st8" d="M1009.7,199.59c-0.26-0.78-0.47-1.58-0.61-2.38l-0.71-2.59c-0.14-0.47-0.27-1-0.39-1.54
		c-0.01-0.09-0.01-0.18,0-0.27c-0.01-0.07-0.01-0.14,0-0.2l0,0c0.08-0.14,0.23-0.22,0.39-0.22c0.12,0,0.22,0.05,0.3,0.14l0,0l0,0
		v0.12v0.12c0.02,0.09,0.02,0.19,0,0.29l0,0c-0.03,0.15-0.14,0.27-0.29,0.32c-0.11,0.05-0.24,0.05-0.36,0l0,0l-0.1-0.1l0,0l0,0
		l-0.1-0.19c-0.13-0.23-0.27-0.44-0.44-0.64c-1.31-1.45-2.74-2.8-4.26-4.02c-1.17-1-1.86-1.69-1.78-1.69
		c0.78,0.3,1.5,0.72,2.15,1.25c1.69,1.13,3.23,2.46,4.58,3.97c0.19,0.25,0.37,0.51,0.52,0.78l0.1,0.2l0,0c0,0-0.17,0.14-0.24,0.15
		c-0.07,0.02,0,0.12-0.15,0.1c-0.54,0.08-0.34,0-0.39,0l0,0l0,0c0,0,0.19,0,0.22-0.1c0.03-0.1,0.15-0.12,0.17-0.1s0.12,0,0.3,0h0.1
		l0,0v0.1l0.32,1.54c0.24,0.98,0.42,1.88,0.54,2.64C1009.83,198.02,1009.87,198.82,1009.7,199.59z"/>
	<path class="st8" d="M1014.64,194.06c0.01-1.79-0.23-3.57-0.71-5.29c-1.05-2.76-2.77-4.58-2.55-4.79c1.62,1.05,2.82,2.65,3.38,4.5
		c0.48,1.28,0.64,2.65,0.47,4.01C1015.06,193.52,1014.74,194.1,1014.64,194.06z"/>
	<path class="st8" d="M1000.01,210.92c-1.59-1.17-3.01-2.58-4.19-4.16c-1.41-1.4-2.6-3-3.53-4.75c1.6,1.18,3.01,2.59,4.19,4.18
		C997.88,207.59,999.07,209.18,1000.01,210.92z"/>
	<path class="st8" d="M1003.7,205.66c-1.58-0.93-2.99-2.1-4.19-3.48c-1.4-1.18-2.61-2.57-3.6-4.11c1.59,0.92,3.01,2.1,4.21,3.48
		C1001.52,202.72,1002.73,204.11,1003.7,205.66z"/>
	<path class="st8" d="M997.22,221.1c0,0-0.95-0.24-1.94-1.39c-1.28-1.51-1.94-3.45-1.86-5.43c0.04-1.09,0.33-2.15,0.85-3.11
		c0.46-0.86,0.93-1.56,1.29-2.16c0.71-1.2,0.78-2.08,0.91-2.08s0.27,0.98-0.36,2.35c-0.96,1.54-1.58,3.27-1.81,5.07
		c-0.06,1.8,0.45,3.58,1.47,5.07C996.54,220.47,997.3,220.96,997.22,221.1z"/>
	<path class="st8" d="M1009.78,212.48c-1.03,2.35-2.25,4.61-3.64,6.76c-0.5,0.89-1.14,1.71-1.88,2.42
		c-0.63,0.59-1.36,1.05-2.16,1.35c-1.39,0.51-2.32,0.25-2.3,0.15c0.02-0.1,0.88-0.14,2.06-0.73c1.51-0.85,2.74-2.12,3.53-3.67
		C1007.52,215.13,1009.55,212.29,1009.78,212.48z"/>
	<path class="st8" d="M1016.07,186.52c-0.35-1.49-0.49-3.03-0.41-4.57v0.24c-0.42-0.59-0.86-1.27-1.29-1.98
		c-0.95-1.69-1.69-3.23-2.25-4.31c-0.56-1.08-0.93-1.79-0.83-1.86s0.66,0.49,1.37,1.54c0.71,1.05,1.54,2.57,2.47,4.19
		c0.42,0.69,0.83,1.35,1.22,1.94v0.12v0.12C1016.49,183.48,1016.4,185.02,1016.07,186.52z"/>
	<path class="st8" d="M1020.54,193.15c-0.08,0,0.14-0.68,0.2-1.84c0.09-1.59,0.09-3.19,0-4.79l0,0c0.27-1.42,0.54-2.93,0.83-4.51
		v-0.34l0,0c-0.17-1.33-0.76-2.57-1.69-3.53c-0.71-0.98-1.37-1.93-2.01-2.84c-0.69-0.83-1.26-1.75-1.69-2.74
		c0.82,0.69,1.55,1.5,2.16,2.38l2.16,2.72c0.44,0.54,0.85,1.1,1.23,1.69c0.44,0.7,0.67,1.52,0.66,2.35l0,0l0,0v0.34
		c-0.32,1.59-0.61,3.09-0.9,4.51l0,0c0.01,1.63-0.12,3.26-0.39,4.87C1021.01,192.58,1020.6,193.2,1020.54,193.15z"/>
	<path class="st8" d="M1002.8,202.21c-0.24,0,0.08-1.69-0.14-3.58s-0.86-3.38-0.63-3.53c0.24-0.15,1.27,1.29,1.49,3.38
		C1003.75,200.57,1003.02,202.32,1002.8,202.21z"/>
	<path class="st8" d="M1009.51,196.08c-0.38-1.22-0.67-2.47-0.86-3.74c-0.48-1.18-0.87-2.4-1.18-3.64c0.17-0.15,1.44,1.23,2.03,3.38
		C1010,193.37,1010,194.79,1009.51,196.08z"/>
	<rect x="794.54" y="313.67" class="st5" width="235.36" height="328.26"/>
	<path class="st5" d="M759.13,316.46c-1.51-26.8,6.41-53.28,22.37-74.85l1.01,0.76c-15.78,21.34-23.6,47.53-22.12,74.02
		L759.13,316.46z"/>
	<path class="st5" d="M788.81,232.72l0.23,0.17c2.14,1.54,2.62,4.52,1.09,6.66l-6.71,9.33c-1.54,2.14-4.52,2.62-6.66,1.09
		l-0.23-0.17c-2.14-1.54-2.62-4.52-1.09-6.66l6.71-9.33C783.69,231.67,786.67,231.18,788.81,232.72z"/>
	<rect x="743.1" y="313.67" class="st9" width="235.36" height="328.26"/>
	<path class="st5" d="M810.13,313.72c0,0,0,0.3-0.24,0.9l-0.71,2.57c-0.17,0.56-0.34,1.18-0.54,1.84c-0.2,0.66-0.51,1.39-0.79,2.15
		c-0.6,1.77-1.32,3.49-2.13,5.17c-0.44,0.93-0.9,1.91-1.39,2.93s-1.13,2.01-1.69,3.08c-1.29,2.25-2.7,4.43-4.23,6.53
		c-3.54,4.77-7.57,9.15-12.02,13.09c-4.53,3.85-9.45,7.2-14.69,10.01c-2.3,1.21-4.66,2.29-7.07,3.25c-1.13,0.42-2.2,0.91-3.28,1.25
		l-3.11,0.96c-1.78,0.56-3.58,1.01-5.41,1.37c-0.79,0.17-1.54,0.36-2.23,0.47l-1.91,0.25l-2.64,0.34c-0.61,0.08-0.93,0.1-0.93,0.1
		l0.91-0.17l2.64-0.41l1.89-0.29c0.69-0.12,1.42-0.32,2.23-0.49c1.82-0.38,3.61-0.86,5.38-1.42l3.09-0.98
		c1.07-0.34,2.13-0.85,3.26-1.27c2.39-0.97,4.74-2.06,7.02-3.26c5.21-2.82,10.11-6.17,14.63-9.99c4.44-3.91,8.46-8.27,11.99-13.02
		c1.52-2.09,2.93-4.25,4.23-6.48c0.59-1.05,1.23-2.05,1.69-3.04c0.46-1,0.95-2,1.4-2.93c0.81-1.65,1.54-3.35,2.18-5.07
		c0.29-0.76,0.59-1.47,0.81-2.13l0.56-1.84c0.32-1.01,0.57-1.86,0.78-2.54S810.13,313.72,810.13,313.72z"/>
	<path class="st5" d="M786.31,314.43c0,0,0,0.24-0.08,0.68l-0.3,1.93c-0.14,1.03-0.35,2.04-0.63,3.04c-0.3,1.34-0.67,2.66-1.1,3.96
		c-0.24,0.73-0.49,1.47-0.76,2.27c-0.27,0.79-0.64,1.56-0.98,2.4c-0.74,1.73-1.57,3.43-2.49,5.07c-2.12,3.82-4.64,7.41-7.51,10.7
		c-2.92,3.25-6.17,6.2-9.69,8.79c-1.69,1.13-3.23,2.25-4.8,3.09c-0.79,0.44-1.52,0.91-2.27,1.29l-2.15,1.03
		c-1.35,0.69-2.67,1.13-3.79,1.59c-0.96,0.39-1.94,0.72-2.94,0.98l-1.88,0.56c-0.22,0.06-0.44,0.11-0.66,0.15l0.64-0.24l1.86-0.59
		c0.99-0.3,1.96-0.65,2.91-1.05c1.27-0.5,2.52-1.06,3.74-1.69c0.69-0.32,1.4-0.68,2.15-1.05c0.74-0.37,1.45-0.85,2.23-1.29
		c1.64-0.95,3.22-1.98,4.75-3.09c7.05-5.14,12.9-11.76,17.13-19.39c0.91-1.65,1.74-3.34,2.49-5.07c0.34-0.83,0.73-1.61,1-2.38
		l0.78-2.25c0.45-1.29,0.83-2.6,1.15-3.92c0.29-0.99,0.51-1.99,0.68-3.01c0.15-0.74,0.27-1.39,0.37-1.93
		S786.31,314.43,786.31,314.43z"/>
	<path class="st5" d="M853.4,352.43c-0.4,0.11-0.76,0.33-1.05,0.63c-0.36,0.38-0.61,0.86-0.73,1.37c-0.18,0.73-0.01,1.5,0.46,2.1
		l0,0c2.99,0.57,6.02,0.83,9.06,0.78c2.09-0.08,4.14-0.57,6.04-1.44c2.17-1.12,3.87-2.98,4.8-5.24c0.52-1.23,0.74-2.57,0.64-3.91
		c-0.1-1.41-0.7-2.73-1.69-3.74c-2.1-2.1-5.44-2.47-8.61-2.28c-7.04,0.52-13.93,2.36-20.29,5.43c-3.54,1.68-6.87,3.75-9.94,6.17
		c-3.3,2.53-5.79,5.97-7.15,9.89c-1.35,4.28,0.4,8.92,4.24,11.24c4.04,2.15,8.6,3.14,13.17,2.86c9.28-0.24,19.17-1.49,28.1-6.07
		c4.54-2.29,8.57-5.48,11.84-9.38c3.34-3.99,5.46-8.85,6.1-14.02c0.81-6.02-0.82-12.1-4.53-16.91c-3.89-4.48-9.32-7.33-15.22-8
		c-5.62-0.74-11.32-0.43-16.82,0.91c-2.69,0.71-5.33,1.52-7.93,2.27c-2.6,0.74-5.07,1.91-7.49,2.93
		c-9.15,4.19-17.85,9.28-25.97,15.22c-7.69,5.48-14.63,10.91-21.05,15.72c-6.43,4.82-12.33,9.08-17.65,12.61
		c-4.57,2.99-9.3,5.73-14.17,8.2l-5.39,2.57c-1.61,0.66-2.98,1.17-4.07,1.59c-2.22,0.86-3.38,1.29-3.38,1.29l3.38-1.35
		c1.1-0.44,2.47-0.95,4.07-1.61l5.36-2.6c4.85-2.5,9.57-5.25,14.14-8.25c5.29-3.53,11.23-7.74,17.6-12.63
		c6.37-4.89,13.34-10.28,21.03-15.78c8.13-5.93,16.85-11.03,26.01-15.22c2.45-1.01,4.99-1.94,7.52-2.94c2.54-1,5.26-1.56,7.95-2.27
		c5.53-1.35,11.26-1.66,16.91-0.93c5.95,0.69,11.43,3.58,15.35,8.12c3.78,4.89,5.44,11.09,4.62,17.21
		c-0.66,5.22-2.81,10.15-6.19,14.19c-3.26,3.93-7.29,7.15-11.84,9.47c-9,4.62-18.94,5.87-28.25,6.1c-4.63,0.28-9.25-0.74-13.34-2.93
		c-1.92-1.18-3.4-2.96-4.21-5.07c-0.76-2.08-0.81-4.36-0.15-6.48c1.38-3.99,3.91-7.48,7.25-10.04c3.09-2.43,6.45-4.51,10.01-6.19
		c6.39-3.06,13.3-4.9,20.37-5.41c3.18-0.19,6.59,0.2,8.78,2.37c1.04,1.04,1.67,2.41,1.79,3.87c0.1,1.37-0.14,2.73-0.68,3.99
		c-0.95,2.3-2.69,4.19-4.9,5.33c-1.92,0.87-3.98,1.35-6.09,1.42c-3.05,0.04-6.1-0.24-9.1-0.83l0,0c-0.47-0.61-0.64-1.41-0.44-2.16
		c0.12-0.52,0.37-1,0.74-1.39C852.65,352.85,853,352.57,853.4,352.43z"/>
	<path class="st5" d="M948.63,314.05l-2.25,0.96c-2.12,0.99-4.13,2.21-5.99,3.64c-2.88,2.33-5.38,5.09-7.44,8.17
		c-2.5,3.53-5.07,7.79-8.23,12.22c-3.16,4.43-6.58,9.35-10.33,14.56c-3.92,5.61-8.33,10.87-13.17,15.71
		c-2.68,2.56-5.54,4.92-8.57,7.05c-3.18,2.19-6.52,4.15-9.98,5.87c-7.32,3.53-15.03,6.17-22.98,7.88
		c-16.33,3.64-32.35,3.8-46.75,3.89c-14.41,0.08-27.44,0-38.31,0.95c-8.63,0.58-16.97,3.33-24.25,8c-1.96,1.29-3.8,2.75-5.51,4.35
		l-1.69,1.69c0,0,0.57-0.63,1.69-1.78c1.7-1.62,3.53-3.09,5.48-4.4c7.28-4.73,15.65-7.52,24.31-8.12c10.89-0.98,23.91-1,38.33-1.03
		c14.42-0.03,30.43-0.29,46.67-3.91c7.92-1.7,15.61-4.33,22.91-7.85c3.45-1.71,6.77-3.66,9.94-5.83c2.99-2.13,5.81-4.47,8.45-7.02
		c4.83-4.82,9.24-10.05,13.15-15.64c3.77-5.19,7.14-10.14,10.36-14.54s5.75-8.64,8.27-12.17c2.07-3.1,4.61-5.86,7.52-8.18
		c1.9-1.41,3.95-2.61,6.12-3.57L948.63,314.05z"/>
	<path class="st5" d="M743.1,470.87c0,0,0.24-0.96,0.73-2.81c0.22-0.93,0.54-2.06,1-3.38c0.46-1.32,0.93-2.86,1.69-4.53
		c1.6-4.11,3.66-8.02,6.14-11.67c3.29-4.85,7.28-9.18,11.84-12.87c12.08-9.29,26.25-15.48,41.27-18.04
		c8.45-1.61,17.4-2.5,26.68-3.38c9.58-0.77,19.11-2.08,28.54-3.94c9.45-1.87,18.46-5.47,26.6-10.62
		c7.45-4.98,14.08-11.09,19.66-18.09c5.05-6.35,9.77-12.95,14.14-19.78c4.18-6.37,8.01-12.34,11.72-17.67
		c1.88-2.65,3.64-5.17,5.46-7.46c0.9-1.15,1.69-2.3,2.62-3.38l2.6-3.03c1.54-1.83,3.18-3.58,4.9-5.24c0.78-0.78,1.49-1.56,2.23-2.23
		l2.18-1.88c1.4-1.15,2.55-2.28,3.72-3.06l2.89-2.03l2.4-1.69l-2.35,1.69c-0.79,0.56-1.69,1.23-2.87,2.05
		c-1.18,0.81-2.3,1.93-3.69,3.08l-2.16,1.88c-0.74,0.68-1.45,1.47-2.23,2.25c-1.54,1.57-3.26,3.25-4.89,5.24l-2.59,3.04
		c-0.88,1.05-1.69,2.21-2.59,3.38c-1.81,2.28-3.58,4.82-5.44,7.47c-3.69,5.31-7.51,11.29-11.68,17.69
		c-4.36,6.83-9.07,13.43-14.12,19.77c-5.59,7.05-12.25,13.18-19.73,18.18c-8.16,5.18-17.21,8.8-26.7,10.67
		c-9.45,1.86-18.99,3.18-28.59,3.96c-9.28,0.9-18.24,1.78-26.65,3.38c-15.02,2.54-29.18,8.71-41.27,17.97
		c-7.99,6.45-14.18,14.86-17.97,24.4c-0.71,1.69-1.22,3.2-1.69,4.51c-0.47,1.32-0.79,2.45-1.03,3.38
		C743.39,469.99,743.1,470.87,743.1,470.87z"/>
	<path class="st5" d="M953.83,442.48c-0.04,1.47-0.18,2.94-0.44,4.4c-0.28,1.78-0.79,3.51-1.5,5.16c-0.92,2.32-2.81,4.11-5.17,4.9
		c-1.42,0.42-2.93,0.39-4.33-0.1c-1.52-0.55-2.91-1.43-4.04-2.59c-1.25-1.24-2.32-2.64-3.18-4.18c-0.46-0.81-0.86-1.65-1.2-2.52
		c-0.34-0.88-0.76-1.69-1.03-2.69c-2.72-8.51-3.14-17.6-1.22-26.33c1.03-5.06,2.55-10.01,4.53-14.78c1.01-2.56,2.24-5.03,3.69-7.37
		c1.47-2.48,3.57-4.54,6.07-5.97c2.72-1.42,5.99-1.25,8.56,0.44c2.46,1.87,4.37,4.36,5.53,7.22c2.41,5.88,4.4,11.93,5.95,18.09
		c3.4,13.23,5.07,26.84,4.97,40.5c0,3.55-0.15,7.12-0.44,10.72c-0.23,3.64-0.83,7.25-1.79,10.77c-0.98,3.58-2.71,6.92-5.07,9.79
		c-2.42,2.94-5.73,5.01-9.43,5.9c-3.71,0.76-7.56,0.54-11.16-0.64c-3.53-1.14-6.84-2.85-9.81-5.07c-2.91-2.2-5.68-4.56-8.32-7.07
		c-2.64-2.45-5.26-4.89-7.74-7.44c-4.9-5.07-9.25-10.82-11.23-17.45c-1.71-6.55-1.78-13.42-0.2-20c0.64-3.2,1.45-6.32,2.38-9.35
		c0.93-3.03,1.81-6.05,2.87-8.94c0.52-1.45,1.03-2.91,1.54-4.35l1.69-4.21c1.07-2.79,2.32-5.46,3.5-8.12
		c4.46-9.79,9.74-19.19,15.79-28.08c8.75-12.85,19.01-24.61,30.57-35.02c4.13-3.65,7.41-6.41,9.72-8.15l3.5-2.71
		c0,0-1.18,0.96-3.47,2.76c-2.28,1.79-5.56,4.53-9.67,8.2c-11.5,10.48-21.72,22.29-30.43,35.19c-6.02,8.89-11.29,18.28-15.74,28.05
		c-1.17,2.65-2.42,5.33-3.47,8.12c-0.55,1.39-1.12,2.79-1.69,4.21c-0.51,1.42-1.01,2.87-1.52,4.33c-1.08,2.89-1.93,5.9-2.87,8.93
		c-0.95,3.03-1.69,6.14-2.38,9.33c-1.54,6.49-1.48,13.27,0.17,19.73c1.94,6.54,6.27,12.24,11.16,17.3c2.47,2.54,5.07,4.97,7.73,7.42
		c2.63,2.5,5.4,4.85,8.3,7.03c2.92,2.22,6.2,3.94,9.69,5.07c3.54,1.18,7.32,1.39,10.97,0.63c3.63-0.87,6.87-2.89,9.25-5.77
		c2.36-2.83,4.09-6.12,5.07-9.67c0.93-3.49,1.5-7.08,1.69-10.69c0.27-3.6,0.42-7.16,0.46-10.7c0.11-13.63-1.56-27.21-4.95-40.41
		c-1.54-6.14-3.52-12.17-5.9-18.04c-1.14-2.81-3.02-5.26-5.43-7.1c-2.47-1.63-5.62-1.8-8.25-0.44c-2.46,1.42-4.51,3.44-5.97,5.87
		c-1.44,2.33-2.67,4.78-3.67,7.32c-1.99,4.75-3.51,9.68-4.55,14.73c-1.92,8.69-1.51,17.73,1.17,26.21c0.3,0.91,0.64,1.8,1.03,2.67
		c0.33,0.86,0.72,1.7,1.18,2.5c0.84,1.53,1.89,2.93,3.13,4.16c1.12,1.14,2.48,2.01,3.97,2.57c1.37,0.48,2.85,0.51,4.24,0.1
		c2.32-0.77,4.18-2.54,5.07-4.82c0.73-1.62,1.24-3.32,1.54-5.07c0.25-1.42,0.34-2.52,0.42-3.26
		C953.75,442.95,953.83,442.48,953.83,442.48z"/>
	<path class="st5" d="M890.6,418.35c0,0-0.47,0.41-1.37,1.12c-1.32,1.04-2.7,2-4.14,2.87c-5.29,3.23-11.06,5.62-17.09,7.07
		c-8.95,2.06-18.09,3.13-27.27,3.18c-10.33,0.34-21.76,0.08-33.56,1.86c-11.1,1.68-21.78,5.5-31.43,11.24
		c-7.87,4.7-14.83,10.77-20.56,17.92c-3.83,4.84-7.03,10.16-9.52,15.81c-0.96,1.98-1.44,3.62-1.89,4.67
		c-0.46,1.05-0.64,1.69-0.64,1.69s0.19-0.57,0.57-1.69s0.9-2.72,1.84-4.7c2.44-5.7,5.61-11.05,9.45-15.91
		c5.73-7.25,12.72-13.4,20.65-18.16c9.68-5.78,20.4-9.61,31.55-11.29c11.84-1.79,23.28-1.52,33.6-1.84
		c9.16-0.04,18.29-1.08,27.22-3.09c6.02-1.4,11.79-3.71,17.11-6.86c1.44-0.85,2.83-1.79,4.16-2.81
		C890.11,418.71,890.6,418.35,890.6,418.35z"/>
	<path class="st5" d="M744.25,622.62l4.23-0.15c2.76-0.14,6.76-0.29,12.06-0.95c6.31-0.73,12.54-2.05,18.6-3.94
		c8.05-2.57,15.8-5.97,23.15-10.15c9.02-4.84,17.39-10.81,24.91-17.77c4.17-3.88,8.08-8.05,11.68-12.46
		c3.85-4.66,7.38-9.57,10.57-14.71c13.39-20.97,21.98-47.5,25.9-75.82c1.73-12.67,2.8-25.43,3.21-38.21l0.17,0.17
		c-24.06,0.32-46.67,4.23-65.67,11.58c-16.8,6.26-32.09,16-44.87,28.58c-4.79,4.79-9.11,10.04-12.9,15.66
		c-2.99,4.11-5.72,8.4-8.17,12.85c-1.55,2.79-2.69,5.79-3.38,8.91c-0.16,0.81-0.26,1.63-0.3,2.45c0,0.56,0,0.85,0,0.85
		s0-0.29,0-0.85c0.03-0.83,0.12-1.65,0.27-2.47c0.65-3.13,1.76-6.15,3.28-8.96c2.45-4.46,5.17-8.76,8.15-12.88
		c3.77-5.64,8.09-10.91,12.88-15.71c12.77-12.64,28.08-22.44,44.91-28.74c19.04-7.39,41.7-11.31,65.79-11.63h0.19v0.17
		c-0.4,12.8-1.47,25.57-3.21,38.26c-3.97,28.36-12.53,54.95-25.95,75.95c-3.21,5.14-6.75,10.06-10.62,14.73
		c-3.61,4.42-7.53,8.58-11.72,12.46c-13.97,12.53-30.37,22.05-48.19,27.95c-6.11,1.89-12.38,3.19-18.73,3.89
		c-5.21,0.64-9.3,0.78-12.06,0.88L744.25,622.62z"/>
	<path class="st5" d="M798.9,524.5c0.78-1.14,1.62-2.23,2.52-3.28c1.07-1.3,2.32-2.44,3.72-3.38c0.9-0.58,1.89-1.02,2.93-1.29
		c1.2-0.26,2.44-0.26,3.64,0c1.34,0.31,2.56,1.02,3.5,2.03c1.04,1.15,1.45,2.73,1.12,4.24c-0.41,1.59-1.15,3.08-2.18,4.36
		c-1,1.37-2.05,2.79-3.2,4.21c-5.18,6.46-11.15,12.24-17.77,17.21c-3.84,2.91-7.89,5.52-12.12,7.83c-4.41,2.28-9.11,4.94-14.59,5.43
		c-2.79,0.35-5.61-0.39-7.86-2.08c-2.23-1.88-3.58-4.6-3.72-7.51c-0.54-5.85,1.69-11.62,4.13-17.13
		c5.64-11.45,13.72-21.52,23.67-29.52c5.18-4.29,10.63-8.25,16.32-11.84c5.79-3.82,11.96-7.02,18.41-9.55
		c6.46-2.63,13.46-3.67,20.41-3.04c3.41,0.36,6.69,1.52,9.57,3.38c2.82,1.91,4.89,4.73,5.88,7.98c0.87,3.2,0.99,6.55,0.36,9.81
		c-0.56,3.18-1.46,6.28-2.69,9.27c-2.32,5.78-5.05,11.39-8.18,16.77c-5.8,9.95-12.78,19.16-20.8,27.43
		c-6.97,7.21-14.64,13.72-22.88,19.44c-11.94,8.27-24.84,15.06-38.42,20.21c-4.8,1.84-8.59,3.06-11.18,3.89s-3.94,1.18-3.94,1.18
		l3.92-1.25c2.57-0.85,6.36-2.08,11.14-3.96c13.55-5.18,26.43-11.99,38.33-20.29c8.21-5.72,15.85-12.24,22.79-19.44
		c8-8.26,14.97-17.45,20.75-27.39c3.11-5.37,5.84-10.96,8.15-16.72c1.21-2.97,2.1-6.05,2.67-9.2c0.61-3.2,0.49-6.51-0.37-9.65
		c-0.97-3.18-3-5.93-5.75-7.79c-2.82-1.85-6.04-3.01-9.4-3.38c-6.91-0.61-13.86,0.43-20.29,3.03c-6.38,2.59-12.48,5.83-18.19,9.67
		c-5.67,3.6-11.11,7.55-16.28,11.84c-10.15,8.45-18.51,18.38-23.67,29.4c-2.4,5.5-4.65,11.21-4.13,16.91
		c0.11,2.81,1.37,5.45,3.5,7.29c2.19,1.65,4.94,2.38,7.66,2.01c5.39-0.47,10.15-3.08,14.49-5.38c11.5-6.26,21.64-14.72,29.86-24.91
		c1.15-1.42,2.2-2.84,3.21-4.19c1-1.27,1.74-2.73,2.16-4.29c0.32-1.46-0.08-2.99-1.07-4.11c-0.91-0.98-2.08-1.67-3.38-2
		c-1.17-0.26-2.39-0.26-3.57,0c-1.03,0.26-2.01,0.68-2.91,1.25c-1.39,0.92-2.64,2.03-3.72,3.3c-0.88,1.01-1.5,1.84-1.93,2.4
		L798.9,524.5z"/>
	<path class="st5" d="M977.39,514.8l-2.25-1.27l-6.39-3.7c-2.79-1.57-6.22-3.5-10.28-5.58c-4.57-2.4-9.3-4.46-14.17-6.17
		c-5.93-1.99-12.14-3.03-18.4-3.08c-3.48-0.01-6.94,0.37-10.33,1.13c-3.59,0.84-7.04,2.19-10.25,4.02
		c-6.78,4.16-12.38,9.98-16.28,16.91c-4.22,7.42-7.38,15.38-9.42,23.67c-2.32,8.45-4.07,16.82-6.46,24.74
		c-4.37,14.55-11.5,28.11-21.02,39.95c-3.97,4.85-8.26,9.42-12.85,13.68c-6.7,6.12-13.94,11.62-21.64,16.42
		c-2.71,1.69-4.87,2.94-6.34,3.77s-2.27,1.27-2.27,1.27s0.76-0.47,2.21-1.32s3.64-2.1,6.32-3.84c7.65-4.84,14.86-10.35,21.54-16.47
		c4.57-4.27,8.85-8.85,12.8-13.7c9.48-11.81,16.58-25.35,20.9-39.87c2.38-7.9,4.14-16.27,6.46-24.74
		c2.05-8.29,5.23-16.25,9.45-23.67c3.95-6.97,9.6-12.81,16.43-16.99c3.23-1.84,6.71-3.2,10.33-4.04c3.41-0.76,6.9-1.14,10.4-1.12
		c6.29,0.05,12.53,1.11,18.48,3.13c4.88,1.73,9.62,3.81,14.19,6.24c4.04,2.1,7.46,4.04,10.25,5.63
		C974.36,512.94,977.39,514.8,977.39,514.8z"/>
	<path class="st5" d="M975.93,559.96c0,0-0.37-0.49-1.05-1.45c-0.42-0.59-0.87-1.16-1.35-1.69c-0.63-0.76-1.31-1.48-2.03-2.15
		c-4.63-4.28-10.35-7.2-16.54-8.45c-4.25-0.91-8.61-1.16-12.93-0.73c-4.93,0.52-9.75,1.87-14.24,3.97
		c-9.55,4.46-18.43,12.38-25.72,22.07c-7.29,9.69-12.61,20.12-17.57,29.4s-9.47,17.7-14.39,24.03c-3.82,5.03-8.35,9.48-13.44,13.22
		c-3.58,2.64-5.72,3.89-5.72,3.89s0.49-0.36,1.47-1.01c0.98-0.66,2.4-1.69,4.16-2.99c5.05-3.77,9.54-8.23,13.34-13.26
		c4.87-6.31,9.35-14.73,14.29-24.03s10.25-19.68,17.57-29.45c7.32-9.77,16.25-17.69,25.87-22.15c4.53-2.16,9.4-3.54,14.39-4.07
		c4.35-0.41,8.73-0.15,13,0.78c6.22,1.28,11.96,4.27,16.57,8.64c0.72,0.68,1.4,1.41,2.03,2.18c0.48,0.53,0.92,1.1,1.32,1.69
		C975.59,559.44,975.93,559.96,975.93,559.96z"/>
	<path class="st5" d="M953.16,606.85c0.43-0.04,0.86-0.04,1.29,0c1.25,0.07,2.46,0.45,3.53,1.1c1.7,1.05,3.07,2.55,3.96,4.33
		c1.21,2.36,1.43,5.12,0.61,7.64c-1.07,3.03-3.22,5.56-6.04,7.1c-3.2,1.86-7.03,2.3-10.57,1.22c-3.87-1.27-7.14-3.92-9.18-7.44
		c-1.09-1.84-1.86-3.85-2.27-5.95c-0.38-2.16-0.41-4.37-0.1-6.54c1.41-8.37,6.75-15.56,14.36-19.33c3.25-1.65,6.85-2.5,10.5-2.47
		c1.65,0.04,3.29,0.28,4.89,0.73c1.45,0.46,2.84,1.09,4.14,1.88c3.98,2.39,6.85,6.26,8,10.75c0.29,1.21,0.41,2.45,0.36,3.69
		c0,0.86-0.12,1.3-0.12,1.3c0.14-1.66,0.01-3.33-0.37-4.95c-1.17-4.44-4.05-8.23-8-10.57c-1.29-0.77-2.66-1.38-4.09-1.83
		c-1.56-0.44-3.18-0.68-4.8-0.71c-3.6-0.01-7.15,0.84-10.36,2.47c-7.49,3.74-12.74,10.83-14.14,19.09c-0.31,2.13-0.28,4.3,0.08,6.43
		c0.4,2.06,1.15,4.03,2.21,5.83c2.01,3.45,5.21,6.06,9,7.32c3.46,1.05,7.2,0.63,10.33-1.17c2.76-1.5,4.87-3.97,5.93-6.93
		c0.81-2.47,0.61-5.15-0.56-7.47c-0.85-1.76-2.18-3.25-3.84-4.29c-1.05-0.66-2.24-1.05-3.47-1.15
		C953.6,606.81,953.16,606.95,953.16,606.85z"/>
	<path class="st5" d="M1011.91,219.93c0.12,0.43,0.18,0.89,0.15,1.34c0.04,1.21-0.06,2.43-0.3,3.62c-0.38,1.81-1.2,3.5-2.4,4.9
		c-1.45,1.81-3.59,2.95-5.9,3.14c-2.31,0-4.54-0.82-6.29-2.32c-1.39-1.21-2.48-2.71-3.21-4.4c-0.51-1.1-0.96-2.23-1.35-3.38
		c-0.27-0.81-0.39-1.27-0.32-1.29c0.07-0.02,0.83,1.69,2.23,4.36c0.77,1.55,1.84,2.94,3.16,4.06c1.63,1.32,3.65,2.05,5.75,2.06
		c2.08-0.18,4-1.19,5.33-2.81c1.15-1.29,1.98-2.83,2.42-4.5C1011.85,221.86,1011.73,219.92,1011.91,219.93z"/>
</g>
<g id="freepik--character-3--inject-8">
	<path class="st11" d="M931.34,649.4l-43.54,2.35l2.37-37.37c0,0-3.01-0.44-4.29-16.54c-1.29-16.1-3.86-43.45-3.86-43.45l0,0
		c18.13-9.24,39.85-7.95,56.76,3.38l2.52,1.69L931.34,649.4z"/>
	<path class="st11" d="M937.53,578.85c0.25-0.14,10.86-4.02,11.24,7.02s-10.84,9.25-10.84,8.84
		C937.94,594.3,937.53,578.85,937.53,578.85z"/>
	<path class="st11" d="M885.62,580.01c-0.29-0.1-10.28-2.08-9.2,8.91c1.08,10.99,11.92,7.63,11.84,7.3
		C888.18,595.91,885.62,580.01,885.62,580.01z"/>
	<path class="st5" d="M941.02,577.38c-1.03,9.35-0.37,14.17-1.49,20.44c-1.69,9.93-6.1,17.74-14.56,23.2s-20.37,6.17-28.37,0
		c-5.55-4.26-9.6-9.22-10.86-16.1c-1.25-6.88-2.84-19.11-3.38-26.07c-0.93-12.58-2.57-24.55-2.57-24.55l35.51-8.91l21.29,10.84
		L941.02,577.38z"/>
	<path class="st5" d="M883.83,569.28c-2.1,0.54-4.33,0.08-6.04-1.25c-1.69-1.22-2.55-6.09-2.55-6.09s-4.58-2.28-5.21-4.5
		c-0.74-2.23-0.17-4.69,1.47-6.37c-2.1-6.19,1.21-12.91,7.4-15.01c2.25-0.76,4.67-0.83,6.96-0.2c2.74-5.84,9.7-8.35,15.54-5.61
		c1.07,0.5,2.06,1.17,2.94,1.97c4.22-7.18,13.46-9.59,20.64-5.37c3.79,2.23,6.42,6,7.21,10.32c3.14-2.65,7.83-2.25,10.48,0.88
		c1.85,2.19,2.28,5.25,1.1,7.86c3.2-0.79,6.44,1.16,7.23,4.36c0.48,1.93-0.04,3.97-1.38,5.44c-0.95,1.05-2.33,1.86-2.64,3.25
		c0,1.28,0.28,2.55,0.83,3.7c0.51,2.91-0.69,5.86-3.09,7.57c-2.39,1.62-5.06,2.77-7.88,3.38c-3.09,1.16-6.41,1.61-9.71,1.3
		c-3.25-0.54-6.43-3.03-6.61-6.31c-6.73,5-16.16,4.02-21.73-2.25c-1.88,4.27-6.87,6.22-11.14,4.34c-1.33-0.58-2.48-1.49-3.35-2.65"
		/>
	<path class="st5" d="M907.15,627.8c2.06,0.63,4.26,0.68,6.34,0.14c2.13-0.25,4.15-1.07,5.85-2.38c-0.12-0.27-2.72,0.74-6.07,1.32
		C909.92,627.44,907.18,627.51,907.15,627.8z"/>
	<path class="st6" d="M830.96,701.84c0,0,2.82-38.62,9.4-44.25c6.58-5.63,48.22-18.09,48.22-18.09l44.08-1.96
		c0,0,25.63,8.12,27.51,9.15c1.88,1.03,16.45,4.79,23.03,17.96c6.58,13.17,14.14,39.58,14.14,39.58L830.96,701.84z"/>
	<path class="st9" d="M936.82,571.54c0.16,0.66-0.05,1.36-0.56,1.81c-0.53,0.59-1.21,1.01-1.98,1.22c-0.99,0.21-1.99,0.35-2.99,0.42
		c-1.17,0.15-2.27,0.61-3.2,1.34c-1.11,0.92-2.35,1.67-3.69,2.23c-3.28,1.21-6.94,0.67-9.74-1.42l0.59-0.08
		c-1.2,1.52-2.83,2.65-4.67,3.25c-2.53,0.84-5.29,0.57-7.61-0.74c-2.08-1.16-3.67-3.04-4.46-5.29l0.68,0.12
		c-1.53,1.79-3.81,2.75-6.15,2.59c-1.78-0.15-3.43-0.97-4.62-2.3c-0.8-0.82-1.38-1.82-1.69-2.93c-0.12-0.38-0.16-0.77-0.12-1.17
		c0.35,1.41,1.05,2.71,2.05,3.77c1.14,1.19,2.7,1.9,4.35,1.98c2.11,0.09,4.14-0.81,5.5-2.43l0.44-0.52l0.24,0.64
		c0.75,2.04,2.22,3.75,4.13,4.8c2.12,1.19,4.63,1.42,6.93,0.64c1.67-0.54,3.15-1.56,4.26-2.93l0.27-0.34l0.34,0.25
		c2.57,1.93,5.93,2.46,8.96,1.4c1.28-0.52,2.48-1.22,3.57-2.08c1.02-0.76,2.23-1.22,3.5-1.34c0.99-0.04,1.98-0.13,2.96-0.29
		c0.7-0.16,1.34-0.51,1.86-1C936.43,572.73,936.73,572.16,936.82,571.54z"/>
	<path class="st9" d="M889.89,565.79c-0.38-0.51-0.67-1.08-0.86-1.69c-0.57-1.7-0.77-3.51-0.59-5.29c0.23-2.69,1.28-5.23,3.01-7.3
		c2.19-2.51,5.23-4.11,8.54-4.48c2.1-0.26,4.24-0.01,6.22,0.73l-0.51,0.17c1.36-2.19,3.52-3.77,6.02-4.41
		c1.97-0.49,4.05-0.33,5.92,0.46c1.22,0.49,2.32,1.24,3.23,2.2c0.35,0.32,0.63,0.7,0.83,1.13c-1.21-1.22-2.65-2.18-4.24-2.82
		c-1.77-0.66-3.7-0.74-5.53-0.25c-2.29,0.64-4.25,2.12-5.5,4.14l-0.19,0.3l-0.34-0.12c-1.86-0.68-3.85-0.9-5.82-0.64
		c-3.09,0.35-5.95,1.82-8.03,4.14c-1.64,1.91-2.68,4.26-2.99,6.76C888.81,561.17,889.09,563.56,889.89,565.79z"/>
	<path class="st9" d="M909.19,568.77c0,0-0.25-0.36-0.54-1.07c-0.39-1-0.67-2.05-0.83-3.11c-0.28-1.61-0.16-3.27,0.36-4.82
		c0.7-1.95,2.2-3.52,4.13-4.29c1-0.39,2.09-0.47,3.13-0.22l-0.54,0.44c-0.02-1.68,0.5-3.31,1.49-4.67c0.75-1.08,1.75-1.96,2.91-2.57
		c0.76-0.4,1.59-0.67,2.45-0.78c0.59,0,0.93,0,0.93,0c-1.08,0.28-2.12,0.69-3.09,1.22c-1.04,0.63-1.91,1.48-2.57,2.5
		c-0.84,1.24-1.27,2.71-1.25,4.21v0.61l-0.56-0.12c-0.87-0.2-1.78-0.13-2.6,0.2c-1.69,0.69-3.02,2.05-3.67,3.75
		c-0.5,1.43-0.67,2.96-0.51,4.46C908.74,567.15,909.36,568.72,909.19,568.77z"/>
	<path class="st9" d="M917.16,593.1c0,0-0.49,1.12-2.2,1.91c-1.01,0.45-2.12,0.65-3.23,0.57c-1.39-0.06-2.73-0.58-3.8-1.47h0.59
		c-0.23,0.23-0.47,0.45-0.73,0.64c-1.23,0.89-2.73,1.32-4.24,1.22c-1.23-0.08-2.41-0.53-3.38-1.3c-0.94-0.61-1.59-1.57-1.81-2.67
		c0.63,0.81,1.37,1.54,2.18,2.16c0.89,0.62,1.94,0.96,3.03,1c1.32,0.05,2.61-0.35,3.67-1.13c0.22-0.16,0.44-0.34,0.64-0.52
		l0.29-0.29l0.3,0.25c1.75,1.41,4.11,1.79,6.22,1.01C915.55,594.1,916.38,593.64,917.16,593.1z"/>
	<path class="st9" d="M919.51,601.74c0.1,0,0,0.73-0.41,1.69c-1.37,2.76-4.57,4.09-7.49,3.11c-1.08-0.36-1.57-0.86-1.52-0.95
		c0.05-0.08,0.66,0.17,1.69,0.36c2.62,0.52,5.29-0.59,6.76-2.82C919.15,602.33,919.34,601.71,919.51,601.74z"/>
	<path class="st5" d="M856.86,702.53c-0.64-3.01-0.99-6.07-1.03-9.15c-0.34-3.05-0.39-6.13-0.15-9.2c0.64,3.01,0.99,6.07,1.03,9.15
		C857.05,696.39,857.1,699.47,856.86,702.53z"/>
	<path class="st5" d="M967.44,673.6c0.52-2.15,1.32-4.22,2.38-6.15c0.79-2.06,1.86-4,3.18-5.77
		C971.69,665.88,969.82,669.89,967.44,673.6L967.44,673.6z"/>
	<path class="st5" d="M962.03,703.6c-0.03-3.04,0.22-6.08,0.76-9.08c0.28-3.03,0.85-6.03,1.69-8.96c0.04,3.04-0.22,6.08-0.76,9.08
		C963.46,697.67,962.89,700.67,962.03,703.6z"/>
	<path class="st3" d="M848.98,697.19c-0.95-1.61-1.75-3.31-2.38-5.07c-0.79-1.7-1.43-3.47-1.89-5.29c0.95,1.62,1.74,3.31,2.38,5.07
		C847.87,693.6,848.5,695.37,848.98,697.19z"/>
	<path class="st3" d="M862.44,673.94c0.08-1.91,0.32-3.8,0.73-5.66c0.23-1.9,0.65-3.76,1.25-5.58c-0.08,1.91-0.32,3.8-0.73,5.66
		C863.46,670.26,863.04,672.12,862.44,673.94z"/>
	<path class="st3" d="M882.01,690.49c-1.2-1.59-2.26-3.29-3.16-5.07c-1.04-1.69-1.94-3.46-2.69-5.29c1.21,1.59,2.27,3.29,3.16,5.07
		C880.37,686.88,881.27,688.65,882.01,690.49z"/>
	<path class="st3" d="M883.19,655.98c-2.02-0.7-3.98-1.57-5.85-2.6c-1.95-0.87-3.83-1.89-5.61-3.06c2.02,0.7,3.98,1.56,5.85,2.59
		C879.53,653.77,881.41,654.8,883.19,655.98z"/>
	<path class="st3" d="M895.36,669.05c0.88-2.16,1.92-4.25,3.09-6.26c1.04-2.09,2.23-4.1,3.57-6c-0.86,2.17-1.9,4.26-3.09,6.26
		C897.9,665.14,896.7,667.15,895.36,669.05z"/>
	<path class="st3" d="M914.61,648.95c-2-0.2-3.98-0.56-5.92-1.08c-1.98-0.36-3.93-0.9-5.82-1.61c2,0.2,3.98,0.56,5.92,1.08
		C910.77,647.7,912.72,648.24,914.61,648.95z"/>
	<path class="st3" d="M919.2,686.98c-0.14-2.01-0.1-4.02,0.1-6.02c0.02-2.01,0.22-4.01,0.61-5.99c0.18,2,0.18,4.02,0,6.02
		C919.86,683,919.62,685.01,919.2,686.98z"/>
	<path class="st3" d="M902.09,697.97c-0.57-2.04-0.99-4.12-1.23-6.22c-0.41-2.08-0.65-4.19-0.71-6.31c0.59,2.04,1,4.12,1.23,6.22
		C901.8,693.74,902.04,695.85,902.09,697.97z"/>
	<path class="st3" d="M873.18,701.63c-1.26-0.47-2.45-1.1-3.55-1.88c-1.19-0.62-2.3-1.4-3.28-2.32c1.26,0.47,2.45,1.1,3.55,1.86
		C871.09,699.93,872.2,700.72,873.18,701.63z"/>
	<path class="st3" d="M940.15,694.87c0.08,0.14-2.25,1.69-4.9,3.77c-2.65,2.08-4.7,4.01-4.8,3.91c1.27-1.64,2.78-3.09,4.46-4.31
		C936.49,696.88,938.26,695.74,940.15,694.87z"/>
	<path class="st3" d="M954.2,682.63c-0.14,0.1-1.94-2.28-4.35-5.07c-2.4-2.79-4.45-5.07-4.35-5.07c1.77,1.4,3.36,3,4.75,4.77
		C951.77,678.89,953.09,680.7,954.2,682.63z"/>
	<path class="st3" d="M939.46,652.6c-1.55,1.47-3.22,2.8-4.99,3.99c-1.67,1.33-3.44,2.53-5.31,3.57c1.55-1.46,3.22-2.8,4.99-3.99
		C935.82,654.84,937.6,653.64,939.46,652.6z"/>
	<path class="st3" d="M960.29,661.7c-0.77-2.45-1.37-4.95-1.78-7.49c-0.6-2.5-1.03-5.03-1.27-7.59c0.75,2.46,1.34,4.96,1.78,7.49
		C959.62,656.6,960.04,659.14,960.29,661.7z"/>
	<path class="st3" d="M983.12,686.42c-1.22-1.72-2.18-3.61-2.87-5.6c-0.86-1.94-1.42-3.99-1.69-6.09c0.15,0,0.9,2.67,2.15,5.88
		C981.95,683.83,983.25,686.42,983.12,686.42z"/>
	<path class="st3" d="M976.08,701.5c0.4-1.7,0.96-3.36,1.69-4.95c0.55-1.65,1.27-3.25,2.15-4.75c-0.4,1.7-0.96,3.36-1.69,4.95
		C977.68,698.4,976.96,699.99,976.08,701.5z"/>
	<path class="st9" d="M846.4,688.02h127.05c14.33-0.05,25.99,11.54,26.04,25.87c0,0.03,0,0.06,0,0.08v52.42l0,0H820.46l0,0v-52.42
		C820.46,699.65,832.07,688.03,846.4,688.02z"/>
	<path class="st5" d="M961.17,718.75c-0.27,0.25-0.57,0.48-0.88,0.68l-2.64,1.81c-2.28,1.57-5.66,3.72-9.91,6.26
		s-9.4,5.41-15.22,8.45s-12.39,5.97-19.39,8.83c-7,2.86-13.81,5.19-20.05,7.17c-6.24,1.98-11.95,3.48-16.77,4.6
		c-4.82,1.12-8.74,1.94-11.48,2.4l-3.14,0.54c-0.36,0.08-0.73,0.12-1.1,0.12c0.34-0.14,0.7-0.24,1.07-0.3l3.11-0.69
		c2.71-0.56,6.61-1.45,11.4-2.67s10.45-2.81,16.67-4.77c6.22-1.96,12.99-4.4,19.99-7.22c7-2.82,13.53-5.83,19.34-8.72
		s11.02-5.72,15.3-8.18c4.28-2.47,7.69-4.55,10.03-6.02l2.72-1.69C960.5,719.09,960.83,718.9,961.17,718.75z"/>
	<path class="st5" d="M863.54,688.29c-0.33,0.07-0.67,0.1-1.01,0.08l-2.89,0.14c-3.54,0.19-7.05,0.67-10.52,1.42
		c-2.36,0.52-4.64,1.36-6.76,2.5c-2.45,1.3-4.56,3.14-6.17,5.39c-1.69,2.56-2.84,5.43-3.38,8.45c-0.57,3.27-0.87,6.59-0.91,9.91
		c-0.42,13.7-0.79,26.09-1.07,35.2c-0.19,4.41-0.32,8.03-0.42,10.65c0,1.18-0.12,2.15-0.17,2.91c0,0.34-0.04,0.67-0.12,1
		c-0.04-0.34-0.04-0.68,0-1.01c0-0.74,0-1.69,0-2.89c0-2.64,0.08-6.26,0.15-10.67c0.2-9.11,0.49-21.51,0.81-35.2
		c0.03-3.4,0.35-6.8,0.95-10.15c0.57-3.13,1.78-6.11,3.55-8.76c1.7-2.34,3.92-4.25,6.49-5.56c2.21-1.16,4.57-1.99,7.02-2.47
		c3.5-0.7,7.06-1.09,10.64-1.15c1.27,0,2.25,0,2.91,0C862.94,688.14,863.24,688.21,863.54,688.29z"/>
</g>
<g id="freepik--character-2--inject-8">
	<path class="st6" d="M624.05,693.99c0,0,2.82-24.91,9.4-30.54c6.58-5.63,31.06-12.88,31.06-12.88l55.8-3.57
		c0,0,31.01,4.53,32.89,5.55c1.88,1.01,16.45,4.8,23.03,17.96c4.17,8.77,7.02,18.11,8.45,27.71L624.05,693.99z"/>
	<path class="st7" d="M673.21,660.02l42.27,0.61l-3.96-38.16c0,0,3.13,1.57,3.74-14.07c0.61-15.64,2.06-42.17,2.06-42.17l0,0
		c-17.89-8.27-38.84-6.21-54.78,5.38l-2.37,1.69L673.21,660.02z"/>
	<path class="st7" d="M664.5,592.69c-0.25-0.12-10.65-3.47-10.6,7.22c0.05,10.69,10.77,8.45,10.79,8.13
		C664.7,607.73,664.5,592.69,664.5,592.69z"/>
	<path class="st7" d="M714.75,591.83c0.27-0.12,9.87-2.42,9.25,8.25c-0.63,10.67-11.23,7.85-11.23,7.54S714.75,591.83,714.75,591.83
		z"/>
	<path class="st5" d="M689.67,547.5c0,0-14.57-0.52-19.78,2.13c-8.66,4.43-15.37,16.76-15.5,31.99
		c-0.14,15.23,6.76,35.9,17.96,46.11c11.19,10.21,20.02,12.09,20.02,12.09s23.67-12.93,26.33-31.8c2.65-18.87,4.45-37.08-2.96-46.24
		C708.32,552.6,695.05,547.77,689.67,547.5z"/>
	<path class="st5" d="M656.36,591.44c-0.86-9.69-1.69-19.68,1.35-28.91c3.04-9.23,10.97-17.58,20.7-17.94
		c3.11-0.12,6.26,0.57,9.33,0c2.6-0.67,5.13-1.6,7.54-2.79c4.27-1.87,9.06-2.16,13.53-0.83c4.49,1.46,7.69,5.44,8.13,10.15
		c-0.23,1.87-0.15,3.77,0.24,5.61c0.68,1.83,2.4,2.99,3.6,4.51c1.81,2.51,2.58,5.63,2.15,8.69c-0.43,3.03-1.26,5.99-2.47,8.81
		c-2.64,7.1-5.29,14.2-7.95,21.29"/>
	<path class="st5" d="M680.76,596.8c9.53-4.67,21.05-0.73,25.72,8.8c0.99,2.01,1.61,4.19,1.85,6.42c0.68,6.32,0.69,7.34,4.77,12.21
		c2.54,3.01,4.95,2.84,7.93,5.41c3.88,3.52,4.98,9.18,2.71,13.9c7.66-0.37,14.81-0.86,17.43,6.34c-11.45-2.37-22.88,8.32-34.31,5.95
		c-3.67-0.48-7.19-1.77-10.31-3.77c-3.38-2.55-5.21-6.61-6.92-10.48c-3.08-6.97-6.14-13.94-9.2-20.92
		c-2.06-4.68-4.18-9.57-4.07-14.69s3.04-10.58,8-11.84"/>
	<path class="st6" d="M676.15,603.85c-2.12-6.52,0.1-13.66,5.55-17.82c5.78-3.71,13.26-3.41,18.73,0.74
		c4.23,3.06,6.64,8.04,6.41,13.26c-0.36,5.04-4.37,9.05-9.42,9.4"/>
	<path class="st5" d="M701.22,593.42c-6.66-5.19-16.11-4.71-22.22,1.12c-5.46,5.44-6,16.71-4.35,24.25
		c1.78,8.12,6.76,15.96,5.07,24.11c-1,4.95-4.41,9.99-2.43,14.66c1.59,3.77,6.07,5.41,8.45,8.72c3.55,4.85,1.79,11.67-0.59,17.2
		s-5.34,11.5-3.67,17.28c1.28,4.5,5.07,7.73,8.08,11.29s5.44,8.57,3.38,12.78c5.26,3.95,12.74,2.89,16.69-2.37
		c2.07-2.75,2.84-6.26,2.13-9.63c2.4,2.47,3.82,5.73,4.01,9.16c10.57-0.93,18.38-10.24,17.46-20.81c-0.27-3.08-1.28-6.04-2.93-8.64
		c-2.57-4.06-6.76-7.34-7.63-12.06c-1.05-5.61,3.03-11.13,2.5-16.82c-0.47-5.07-4.5-9.13-8.62-12.17
		c-4.13-3.04-8.74-5.8-11.41-10.15c-4.31-7.08-2.32-16.13-0.64-24.26c1.67-8.13,2.47-17.72-3.38-23.67"/>
	<path class="st5" d="M676.55,598.49c-5.78,3.91-6.15,12.17-5.36,19.11s1.93,14.69-2.33,20.29c-2.87,3.72-7.9,5.88-9.37,10.35
		c-1.69,5.43,2.69,10.89,3.2,16.59c0.37,4.13-1.35,8.13-3.38,11.84s-4.29,7.15-5.26,11.18c-0.96,4.02-0.27,8.78,2.93,11.4
		c2.15,1.49,4.66,2.39,7.27,2.6c9.23,1.42,18.61,1.39,27.83-0.08c2.76-11.33,5.51-22.78,5.51-34.43c0-23.13-10.94-45.18-11.23-68.33
		"/>
	<path class="st9" d="M692.77,717.11c-0.36-0.31-0.67-0.66-0.95-1.05l-2.59-3.09c-3.23-3.78-6.27-7.73-9.08-11.84
		c-1.95-2.87-3.46-6.01-4.48-9.32c-1.21-3.87-1.12-8.02,0.25-11.84c1.62-4.04,3.59-7.94,5.88-11.65c2.08-3.91,4.19-8.27,3.67-12.9
		s-3.53-8.45-4.92-12.87c-0.35-1.1-0.56-2.23-0.63-3.38c-0.01-1.15,0.18-2.29,0.56-3.38c0.86-2.01,2.09-3.85,3.62-5.41
		c1.39-1.42,2.63-2.98,3.7-4.65c0.98-1.58,1.52-3.4,1.57-5.26c-0.05-3.38-0.67-6.72-1.83-9.89c-0.92-2.69-1.49-5.48-1.69-8.32
		c-0.12-2.18,0.33-4.36,1.3-6.32c0.61-1.23,1.51-2.3,2.62-3.11c0.39-0.28,0.81-0.5,1.27-0.64c-1.54,0.93-2.76,2.31-3.52,3.94
		c-0.85,1.92-1.22,4.01-1.07,6.1c0.29,2.78,0.93,5.51,1.89,8.13c1.24,3.24,1.93,6.67,2.01,10.15c-0.04,1.99-0.59,3.93-1.59,5.65
		c-1.1,1.73-2.37,3.35-3.79,4.84c-1.43,1.47-2.58,3.19-3.38,5.07c-0.41,0.95-0.64,1.97-0.69,3.01c0.07,1.07,0.26,2.13,0.59,3.14
		c1.29,4.16,4.48,8.01,4.97,13.07c0.24,2.44-0.06,4.9-0.9,7.2c-0.8,2.18-1.77,4.3-2.91,6.32c-2.27,3.66-4.24,7.5-5.88,11.48
		c-1.33,3.62-1.44,7.57-0.3,11.26c0.96,3.24,2.39,6.32,4.24,9.15c3.38,5.24,6.76,9.13,8.78,11.92c1.07,1.39,1.89,2.49,2.42,3.23
		C692.26,716.24,692.54,716.66,692.77,717.11z"/>
	<path class="st9" d="M670.04,636.67c1.05-2.51,1.8-5.13,2.23-7.81c0.36-2.93,0.47-5.88,0.34-8.83c-0.08-3.38-0.34-7.05-0.12-10.96
		c0.11-3.73,1.03-7.39,2.69-10.74c1.47-2.7,3.67-4.94,6.34-6.46c1.8-1.03,3.85-1.54,5.92-1.47c0.57,0.03,1.14,0.12,1.69,0.27
		c0.37,0.1,0.56,0.17,0.54,0.2c-0.02,0.03-0.79-0.08-2.18,0c-1.96,0.09-3.86,0.67-5.53,1.69c-2.48,1.52-4.5,3.68-5.85,6.26
		c-1.54,3.23-2.39,6.75-2.49,10.33c-0.22,3.82,0,7.51,0,10.87c0.09,3-0.1,6-0.57,8.96c-0.35,2-0.96,3.95-1.81,5.8
		C670.95,635.48,670.55,636.12,670.04,636.67z"/>
	<path class="st9" d="M731.4,711.42c0.01-0.45,0.06-0.89,0.14-1.34c0.12-1.27,0.12-2.55,0-3.82c-0.43-4.64-1.53-9.2-3.28-13.53
		c-1.2-2.65-3.08-5.41-4.48-8.67c-0.79-1.69-1.35-3.48-1.69-5.31c-0.28-1.95-0.25-3.94,0.08-5.88c0.3-1.98,0.76-3.96,1.01-5.97
		c0.28-2.05,0.24-4.12-0.14-6.15c-0.76-4.28-2.87-8.21-6.02-11.21c-3.18-3.11-7.63-4.51-10.89-7.59c-3.02-3.03-5-6.94-5.66-11.16
		c-0.63-3.73-0.76-7.53-0.37-11.29c0.29-3.52,0.71-6.76,0.9-9.72c0.23-2.66,0.2-5.33-0.1-7.98c-0.21-1.98-0.98-3.86-2.22-5.43
		c-1.08-1.34-2.59-2.25-4.28-2.59c0.46-0.03,0.92,0.03,1.35,0.17c1.26,0.4,2.38,1.14,3.25,2.13c1.34,1.6,2.21,3.55,2.5,5.61
		c0.37,2.69,0.46,5.41,0.25,8.12c-0.14,3.01-0.51,6.26-0.76,9.76c-0.34,3.68-0.19,7.4,0.46,11.04c0.66,4,2.55,7.7,5.41,10.57
		c3.03,2.87,7.47,4.28,10.91,7.57c3.32,3.17,5.53,7.32,6.32,11.84c0.38,2.13,0.42,4.3,0.12,6.44c-0.29,2.1-0.74,4.07-1.05,5.99
		c-0.34,1.85-0.38,3.75-0.14,5.61c0.28,1.75,0.78,3.45,1.5,5.07c1.34,3.21,3.14,5.92,4.35,8.72c1.72,4.44,2.74,9.13,3.01,13.88
		c0.08,1.29,0.03,2.59-0.17,3.87c-0.04,0.33-0.12,0.66-0.24,0.98C731.45,711.32,731.42,711.42,731.4,711.42z"/>
	<path class="st9" d="M723.2,652.47c0.37-0.84,0.68-1.7,0.91-2.59c0.5-2.44,0.35-4.96-0.44-7.32c-1.32-3.45-3.91-6.27-7.24-7.88
		c-2.16-0.78-4.11-2.05-5.68-3.72c-1.44-1.96-2.64-4.09-3.57-6.34c-1.96-4.73-1.69-9.62-1.69-13.8c0.23-3.71-0.22-7.43-1.32-10.97
		c-0.81-2.35-2.27-4.43-4.19-6c-1.4-1.08-2.38-1.35-2.33-1.45s0.25,0,0.71,0.15c0.66,0.24,1.28,0.57,1.86,0.96
		c2.13,1.51,3.75,3.63,4.67,6.07c1.27,3.6,1.84,7.41,1.69,11.23c0,4.21-0.14,8.98,1.69,13.39c0.89,2.15,2.02,4.19,3.38,6.07
		c0.7,0.82,1.53,1.52,2.45,2.08c0.9,0.56,1.88,0.93,2.87,1.45c3.49,1.75,6.16,4.78,7.46,8.45c0.77,2.49,0.8,5.15,0.1,7.66
		c-0.2,0.67-0.49,1.32-0.85,1.93C723.32,652.3,723.2,652.48,723.2,652.47z"/>
	<path class="st9" d="M673.21,596.01c-1.57-0.6-3.02-1.47-4.28-2.59c-3.18-2.55-5.77-5.75-7.61-9.38
		c-1.86-3.63-2.93-7.61-3.13-11.68c-0.17-1.67-0.02-3.36,0.46-4.97c0.19,0,0,1.91,0.32,4.92c0.82,7.9,4.55,15.22,10.45,20.54
		C671.67,594.86,673.31,595.84,673.21,596.01z"/>
	<path class="st9" d="M671.26,598.87c-0.12,0.25-3.58-1.18-7.34-3.82s-6.34-5.34-6.14-5.55c0.2-0.2,3.04,2.1,6.76,4.67
		C668.27,596.74,671.4,598.58,671.26,598.87z"/>
	<path class="st9" d="M716.93,571.44c0.25,0-0.2,5.99-3.75,12.34s-8.3,9.98-8.45,9.76c-0.15-0.22,4.13-4.11,7.49-10.28
		C715.58,577.09,716.59,571.44,716.93,571.44z"/>
	<path class="st9" d="M720.33,579.78c0.27,0-0.71,4.73-3.2,10.04c-2.49,5.31-5.39,9.08-5.61,8.93c-0.22-0.15,2.22-4.16,4.63-9.38
		C718.57,584.14,720.02,579.69,720.33,579.78z"/>
	<path class="st9" d="M715.43,552.74c-0.75-1.28-1.43-2.61-2.01-3.97c-0.71-1.39-1.67-2.64-2.82-3.69c-1.38-1.26-3.2-1.95-5.07-1.91
		c-3.48,0.3-6.73,1.9-9.08,4.48c-0.99,1.11-2.07,2.14-3.23,3.06c0.7-1.34,1.61-2.55,2.69-3.6c1.1-1.24,2.36-2.32,3.75-3.21
		c1.75-1.13,3.78-1.76,5.87-1.81c2.13-0.04,4.19,0.77,5.73,2.25c1.22,1.16,2.18,2.55,2.84,4.09
		C714.78,549.78,715.23,551.24,715.43,552.74z"/>
	<path class="st9" d="M711.22,715.72c-0.36-0.26-0.69-0.54-1-0.86c-0.61-0.59-1.52-1.47-2.62-2.69c-1.36-1.46-2.58-3.04-3.65-4.72
		c-1.46-2.25-2.36-4.82-2.62-7.49c-0.08-1.58,0.13-3.15,0.63-4.65c0.56-1.59,1.28-3.11,2.15-4.55c1.69-2.94,3.79-6.05,3.89-9.82
		c0-3.94-1.14-7.8-3.26-11.13c-2.08-3.57-4.9-6.86-7.41-10.6c-2.54-3.61-4.23-7.74-4.95-12.09c-0.58-4.03-0.65-8.11-0.2-12.16
		c0.78-7.71,2.28-14.47,2.52-20.29c0.38-4.55-0.07-9.13-1.32-13.53c-0.98-3.08-1.94-4.62-1.84-4.67c0.28,0.34,0.51,0.71,0.71,1.1
		c0.6,1.08,1.12,2.21,1.54,3.38c1.43,4.42,2,9.08,1.69,13.71c-0.15,5.87-1.59,12.7-2.3,20.29c-0.41,3.94-0.33,7.92,0.25,11.84
		c0.71,4.2,2.36,8.19,4.82,11.67c2.43,3.65,5.28,6.97,7.41,10.65c2.23,3.5,3.4,7.57,3.38,11.72c-0.15,4.09-2.42,7.36-4.11,10.14
		c-0.86,1.38-1.57,2.84-2.13,4.36c-0.48,1.39-0.7,2.86-0.64,4.33c0.2,2.56,1.01,5.04,2.37,7.22c0.99,1.68,2.12,3.28,3.38,4.77
		c1.03,1.25,1.89,2.16,2.45,2.81C710.69,714.84,710.99,715.26,711.22,715.72z"/>
	<path class="st9" d="M637.8,688.02h127.12c14.32,0.02,25.92,11.63,25.92,25.95v52.42l0,0H611.85l0,0v-52.42
		C611.85,699.64,623.47,688.02,637.8,688.02z"/>
	<path class="st5" d="M749.82,718.75c-0.27,0.25-0.57,0.48-0.88,0.68l-2.64,1.81c-2.28,1.57-5.66,3.72-9.91,6.26
		s-9.4,5.41-15.22,8.45s-12.39,5.97-19.39,8.83c-7,2.86-13.81,5.19-20.05,7.17c-6.24,1.98-11.95,3.48-16.77,4.6
		c-4.82,1.12-8.74,1.94-11.48,2.4l-3.14,0.54c-0.36,0.08-0.73,0.12-1.1,0.12c0.34-0.14,0.7-0.24,1.07-0.3l3.11-0.69
		c2.71-0.56,6.61-1.45,11.4-2.67c4.79-1.22,10.45-2.81,16.67-4.77s12.99-4.4,19.99-7.22c7-2.82,13.53-5.83,19.34-8.72
		s11.02-5.72,15.3-8.18c4.28-2.47,7.69-4.55,10.03-6.02l2.72-1.69C749.15,719.09,749.47,718.9,749.82,718.75z"/>
	<path class="st5" d="M652.19,688.29c-0.33,0.07-0.67,0.1-1.01,0.08l-2.89,0.14c-3.54,0.19-7.05,0.67-10.52,1.42
		c-2.36,0.52-4.64,1.36-6.76,2.5c-2.45,1.3-4.56,3.14-6.17,5.39c-1.69,2.56-2.84,5.43-3.38,8.45c-0.57,3.27-0.87,6.59-0.91,9.91
		c-0.42,13.7-0.79,26.09-1.07,35.2c-0.19,4.41-0.32,8.03-0.42,10.65c0,1.18-0.12,2.15-0.17,2.91c0,0.34-0.04,0.67-0.12,1
		c-0.04-0.34-0.04-0.68,0-1.01c0-0.74,0-1.69,0-2.89c0-2.64,0.08-6.26,0.15-10.67c0.2-9.11,0.49-21.51,0.81-35.2
		c0.03-3.4,0.35-6.8,0.95-10.15c0.57-3.13,1.78-6.11,3.55-8.76c1.7-2.34,3.92-4.25,6.49-5.56c2.21-1.16,4.57-1.99,7.02-2.47
		c3.5-0.7,7.06-1.09,10.64-1.15c1.27,0,2.25,0,2.91,0C651.58,688.14,651.89,688.21,652.19,688.29z"/>
</g>
<g id="freepik--character-1--inject-8">
	<path class="st7" d="M462.82,631.53l43.61-0.56l-4.87-37.2c0,0,2.98-0.63,3.18-16.79c0.2-16.16,0.95-43.61,0.95-43.61l0,0
		c-18.71-8.03-40.29-5.31-56.42,7.1l-2.4,1.84L462.82,631.53z"/>
	<path class="st7" d="M451.96,562.24c-0.27-0.12-11.11-3.28-10.75,7.76s11.38,8.45,11.38,8.1S451.96,562.24,451.96,562.24z"/>
	<path class="st7" d="M503.83,559.94c0.27-0.12,10.14-2.77,9.76,8.27c-0.39,11.04-11.36,8.45-11.36,8.1S503.83,559.94,503.83,559.94
		z"/>
	<path class="st5" d="M516.23,528.04c0.23-2.03-0.6-4.05-2.2-5.33c-1.68-1.24-4.02-1.07-5.5,0.41c0.61-2.65-1.05-5.29-3.7-5.89
		c-0.18-0.04-0.36-0.07-0.54-0.09c-2.62-0.17-4.87,1.83-7.42,2.52c-2.54,0.53-5.19,0.22-7.54-0.88c-2.38-0.96-4.62-2.28-7.05-3.16
		c-10.64-3.9-22.43,1.51-26.41,12.12c-3.7-0.9-7.57,0.56-9.74,3.69c-2.04,3.13-2.86,6.91-2.3,10.6c0.35,2.47,0.97,4.9,1.84,7.24
		c0,0.22,0,0.42,0,0.63c0.17,8.88,4.8,36.96,8.59,37.01c6.61,0.1,1.4-29.98,1.4-29.98c8.12-3.13,5.07-15.22,7.12-17.13
		s6.27-6.12,23.25,2.55c6.58,3.38,15.35,3.26,20.14,2.18l0.42-0.08h0.08h0.15c1.54-0.38,3-1,4.35-1.84c1.6-0.91,2.85-2.31,3.58-3.99
		c0.73-1.72,0.37-3.71-0.91-5.07C515.16,531.98,515.99,530.06,516.23,528.04z"/>
	<path class="st5" d="M448.38,561.01c1.69,9.25,1.34,14.12,2.86,20.29c2.42,9.77,7.27,17.28,16.08,22.17s20.73,4.79,28.3-1.86
		c5.26-4.62,8.98-9.82,9.76-16.77c0.78-6.95,1.56-19.26,1.69-26.26c0-12.6,0.93-24.65,0.93-24.65l-36.1-6.44l-20.51,12.19
		L448.38,561.01z"/>
	<path class="st5" d="M485.54,609.04c0,0.27-2.77,0.96-6.31,0.56c-2.16-0.07-4.25-0.73-6.05-1.91c0.12-0.27,2.77,0.56,6.15,0.91
		C482.72,608.96,485.49,608.76,485.54,609.04z"/>
	<path class="st9" d="M494.94,525.79c-0.54,0.21-1.11,0.32-1.69,0.32c-1.6,0.02-3.19-0.36-4.62-1.08c-2.08-1.09-4.03-2.4-5.83-3.91
		c-2.17-1.84-4.8-3.05-7.61-3.52c-2.82-0.38-5.68,0.12-8.2,1.44c-2.07,1.09-3.82,2.7-5.07,4.68c-1.12,1.83-1.85,3.88-2.15,6
		c0.01-0.57,0.07-1.13,0.19-1.69c0.3-1.56,0.87-3.05,1.69-4.41c1.23-2.04,2.98-3.72,5.07-4.85c2.59-1.39,5.55-1.92,8.45-1.5
		c2.87,0.46,5.57,1.71,7.78,3.6c1.77,1.51,3.69,2.83,5.73,3.96c1.39,0.73,2.93,1.14,4.5,1.18
		C493.77,525.97,494.36,525.9,494.94,525.79z"/>
	<path class="st9" d="M460.3,530.34c-0.83-0.4-1.7-0.72-2.59-0.96c-4.44-1.13-8.96,1.56-10.09,6.01c-0.02,0.08-0.04,0.16-0.06,0.25
		c-0.18,0.91-0.27,1.83-0.27,2.76c-0.1-0.23-0.15-0.49-0.14-0.74c-0.05-0.69-0.01-1.39,0.14-2.06c0.87-4.5,5.22-7.45,9.72-6.58
		c0.24,0.05,0.49,0.11,0.73,0.17c0.67,0.18,1.31,0.44,1.91,0.79C459.89,530.05,460.1,530.18,460.3,530.34z"/>
	<path class="st9" d="M459.23,569.75c-2.3-3.62-4.01-7.58-5.07-11.73c1.3,1.72,2.32,3.63,3.03,5.66
		C458.18,565.58,458.87,567.63,459.23,569.75z"/>
	<path class="st9" d="M468.67,576.07c-4.12-2.69-6.91-6.98-7.71-11.84c0.29-0.08,1.32,2.94,3.38,6.17
		C466.4,573.64,468.87,575.84,468.67,576.07z"/>
	<path class="st9" d="M478.03,578.2c-1.64-0.51-3.12-1.43-4.31-2.67c-2.11-1.84-3.38-3.74-3.21-3.91c0.17-0.17,1.83,1.37,3.89,3.16
		C476.46,576.58,478.15,577.87,478.03,578.2z"/>
	<path class="st9" d="M494.43,563.14c0.17,3.83-1.36,7.54-4.18,10.14c0.67-1.7,1.42-3.36,2.27-4.97
		C493.07,566.56,493.71,564.83,494.43,563.14z"/>
	<path class="st9" d="M500.01,554.41c0.54,4.61-0.92,9.23-3.99,12.7c-0.24-0.17,1.32-2.74,2.38-6.22
		C499.47,557.41,499.71,554.41,500.01,554.41z"/>
	<path class="st9" d="M504.29,532.1c-0.42,0.44-0.9,0.82-1.44,1.12c-1.45,0.85-3.08,1.35-4.75,1.45c-2.48,0.19-4.97-0.19-7.27-1.12
		c-2.79-1.13-5.49-2.47-8.07-4.02c-2.57-1.52-5.33-2.71-8.2-3.53c-2.35-0.64-4.82-0.64-7.17,0c-1.59,0.44-3.03,1.27-4.21,2.42
		c-0.83,0.83-1.13,1.4-1.18,1.37c0.28-0.54,0.64-1.05,1.07-1.49c1.17-1.2,2.63-2.09,4.24-2.57c2.39-0.71,4.93-0.76,7.34-0.12
		c2.91,0.8,5.7,1.99,8.3,3.53c2.57,1.54,5.25,2.89,8.01,4.04c2.26,0.9,4.69,1.31,7.12,1.18C500.34,534.25,502.5,533.46,504.29,532.1
		z"/>
	<path class="st9" d="M507.5,537.34c-0.18,0.15-0.38,0.28-0.59,0.39c-0.54,0.32-1.11,0.6-1.69,0.85c-3.93,1.64-8.27,2.04-12.43,1.13
		c-0.63-0.13-1.24-0.31-1.84-0.52c-0.23-0.06-0.44-0.15-0.64-0.27c0,0,0.96,0.24,2.54,0.51c2.05,0.36,4.13,0.46,6.21,0.27
		c2.07-0.19,4.11-0.65,6.05-1.39C506.59,537.74,507.47,537.27,507.5,537.34z"/>
	<path class="st6" d="M396.87,718.71c0,0,8.01-63.14,13.53-70.02c5.51-6.88,46.6-20.73,46.6-20.73l2.87-8.83l46.55-1.69l3.5,10.01
		c0,0,34.8,8.45,44.25,16.45c9.45,8,21.44,67.53,21.44,67.53L396.87,718.71z"/>
	<path class="st5" d="M505.69,627.88c0,0.25-10.53,0.71-23.54,1.03c-13,0.32-23.55,0.39-23.55,0.15s10.53-0.71,23.54-1.03
		C495.14,627.71,505.68,627.64,505.69,627.88z"/>
	<path class="st5" d="M432.46,696.38c-0.24,0-1.69-7.69-3.16-17.26s-2.54-17.35-2.3-17.38c1.34,5.69,2.4,11.45,3.16,17.25
		C431.67,688.55,432.7,696.33,432.46,696.38z"/>
	<path class="st5" d="M549.94,693.52c-0.24,0-0.81-8.1-1.25-18.11s-0.63-18.13-0.39-18.14s0.81,8.1,1.27,18.11
		C550.03,685.39,550.18,693.5,549.94,693.52z"/>
	<g class="st12">
		<path d="M457.32,629.06c7.4,5.14,16.4,7.45,25.36,6.51c8.91-0.88,17.7-4.73,26.14-7.69c-16.91,0.29-34.51,0.9-51.49,1.18"/>
	</g>
	<path class="st3" d="M465.05,628.93c-0.03-1.71,0.17-3.42,0.59-5.07c0.24-1.67,0.71-3.3,1.4-4.84c-0.18,1.67-0.48,3.33-0.9,4.95
		C465.91,625.65,465.54,627.31,465.05,628.93z"/>
	<path class="st3" d="M490.19,627.61c-0.64-1.49-1.04-3.07-1.17-4.68c-0.31-1.59-0.36-3.23-0.15-4.84c0.31,1.58,0.54,3.17,0.68,4.77
		C489.86,624.43,490.07,626.02,490.19,627.61z"/>
	<path class="st3" d="M508.47,623.45h-0.51h-1.45l-5.36,0.1l-17.69,0.37l-17.69,0.57l-5.36,0.17h-1.47h-0.51c0,0,0.17,0,0.51-0.08
		l1.45-0.14l5.36-0.34c4.51-0.27,10.77-0.54,17.69-0.73c6.92-0.19,13.17-0.24,17.7-0.22h5.36h1.45L508.47,623.45z"/>
	<path class="st3" d="M411.53,696.17c-0.01-0.17-0.01-0.34,0-0.51c0-0.44,0-0.93-0.12-1.47c-0.1-1.27-0.2-3.13-0.29-5.41
		c-0.17-4.57-0.17-10.89,0.29-17.86c0.46-6.97,1.27-13.24,2.03-17.75c0.37-2.27,0.71-4.07,0.98-5.33c0.12-0.54,0.22-1.01,0.32-1.44
		c0.1-0.42,0.12-0.51,0.15-0.49c0.02,0.17,0.02,0.34,0,0.51c0,0.44-0.14,0.91-0.22,1.45l-0.9,5.34c-0.66,4.51-1.42,10.79-1.88,17.74
		c-0.46,6.95-0.51,13.26-0.44,17.82l0.12,5.39c0,0.56,0,1.03,0,1.47C411.59,695.83,411.57,696,411.53,696.17z"/>
	<path class="st3" d="M427.31,682.11c0,0.14-5.88,1.15-13.19,2.23s-13.24,1.86-13.27,1.69c-0.03-0.17,5.88-1.13,13.19-2.23
		C421.34,682.7,427.19,681.95,427.31,682.11z"/>
	<path class="st3" d="M426.04,665.84c0,0-1.12-0.56-2.91-1.44c-2.34-1.13-4.78-2.04-7.29-2.72c-2.51-0.67-5.07-1.11-7.66-1.32
		c-2-0.15-3.25-0.14-3.25-0.22c0.28-0.09,0.58-0.13,0.88-0.12c0.56,0,1.37,0,2.38,0c2.63,0.1,5.24,0.5,7.78,1.18
		c2.54,0.68,5,1.66,7.32,2.91c0.7,0.37,1.39,0.77,2.05,1.22C425.82,665.62,426.06,665.81,426.04,665.84z"/>
	<path class="st3" d="M450.66,695.73c-0.09-0.2-0.15-0.4-0.19-0.61c-0.1-0.48-0.24-1.05-0.41-1.69c-0.37-1.69-0.86-3.79-1.45-6.36
		c-1.23-5.36-3.03-12.75-5.24-20.85s-4.43-15.39-6.09-20.63c-0.79-2.5-1.47-4.58-1.98-6.21c-0.2-0.66-0.39-1.22-0.54-1.69
		c-0.06-0.19-0.11-0.39-0.14-0.59c0.1,0.17,0.18,0.36,0.24,0.56l0.63,1.69c0.54,1.44,1.27,3.55,2.15,6.15
		c1.69,5.22,4.02,12.5,6.24,20.61s3.96,15.52,5.07,20.92c0.57,2.69,1.01,4.87,1.29,6.39l0.32,1.69
		C450.62,695.32,450.65,695.53,450.66,695.73z"/>
	<path class="st3" d="M477.07,693.05c-0.08-0.21-0.13-0.42-0.15-0.64c0-0.54-0.17-1.15-0.29-1.88c-0.25-1.78-0.61-4.09-1.01-6.86
		c-0.9-5.8-2.21-13.8-3.94-22.57c-1.72-8.78-3.53-16.69-4.9-22.39c-0.68-2.72-1.23-4.99-1.69-6.76c-0.17-0.71-0.32-1.32-0.44-1.84
		c-0.07-0.21-0.11-0.42-0.12-0.64c0.09,0.2,0.16,0.41,0.22,0.63c0.15,0.51,0.32,1.12,0.54,1.81c0.46,1.57,1.07,3.87,1.81,6.76
		c1.47,5.68,3.38,13.53,5.07,22.37c1.69,8.84,2.99,16.81,3.77,22.62c0.41,2.91,0.69,5.26,0.86,6.9c0,0.73,0.15,1.34,0.2,1.88
		C477.04,692.63,477.06,692.84,477.07,693.05z"/>
	<path class="st3" d="M503.23,694.13c-0.1-0.2-0.17-0.42-0.22-0.64l-0.49-1.88c-0.44-1.69-1-3.99-1.69-6.93
		c-1.27-5.87-2.77-14.07-3.82-23.18c-1.05-9.11-1.47-17.45-1.57-23.45c0-3.01,0-5.44,0-7.14v-1.93c-0.02-0.22-0.02-0.45,0-0.68
		c0.03,0.22,0.03,0.45,0,0.68c0,0.54,0,1.18,0,1.93c0,1.69,0,4.11,0.15,7.12c0.2,6,0.68,14.29,1.69,23.4
		c1.01,9.11,2.49,17.28,3.67,23.18c0.59,2.94,1.1,5.33,1.47,6.97c0.15,0.73,0.29,1.35,0.39,1.89
		C502.98,693.67,503.12,693.89,503.23,694.13z"/>
	<path class="st3" d="M526,691.49c-0.09-0.18-0.15-0.37-0.2-0.56l-0.52-1.69c-0.44-1.42-1-3.5-1.61-6.09
		c-3.17-13.52-3.95-27.49-2.32-41.27c0.32-2.64,0.66-4.77,0.93-6.22c0.14-0.64,0.24-1.18,0.34-1.69c0.03-0.2,0.08-0.39,0.15-0.57
		c0.02,0.2,0.02,0.4,0,0.59c0,0.49-0.14,1.05-0.24,1.69c-0.22,1.47-0.49,3.6-0.76,6.22c-1.4,13.76-0.63,27.65,2.3,41.17
		c0.57,2.59,1.07,4.67,1.45,6.1c0.15,0.63,0.3,1.17,0.42,1.69C526,691.07,526.01,691.28,526,691.49z"/>
	<path class="st3" d="M548.35,660.94c-0.21-3.02-0.24-6.05-0.1-9.08c-0.02-3.03,0.13-6.05,0.44-9.06
		C548.94,648.84,548.83,654.9,548.35,660.94L548.35,660.94z"/>
	<path class="st3" d="M548.35,642.08c0,0-0.47,0.1-1.37,0.24l-3.94,0.57c-3.38,0.51-8.37,1.15-14.51,1.86
		c-12.28,1.45-29.27,3.01-48.1,3.86c-18.84,0.85-35.91,0.76-48.27,0.42c-6.17-0.19-11.16-0.39-14.61-0.59l-3.97-0.22l-1.39-0.12
		c0,0,0.49,0,1.39,0l3.97,0.12c3.38,0.14,8.45,0.29,14.63,0.41c12.34,0.27,29.4,0.27,48.22-0.56s35.83-2.35,48.09-3.7
		c6.14-0.66,11.11-1.25,14.52-1.69l3.96-0.47C547.86,642.1,548.35,642.08,548.35,642.08z"/>
	<path class="st3" d="M546.88,671.69c0,0-0.41,0-1.2,0h-16.2c-10.74,0-25.58,0.24-41.98,0.79c-16.4,0.56-31.21,1.37-41.93,2.06
		l-12.72,0.85l-3.38,0.22c-0.79,0-1.2,0-1.2,0s0.41,0,1.2-0.14l3.38-0.32c2.99-0.27,7.32-0.63,12.68-1.01
		c10.72-0.78,25.55-1.69,41.95-2.21s31.26-0.69,42-0.64c5.38,0,9.74,0.08,12.73,0.15l3.38,0.08
		C546.48,671.64,546.88,671.69,546.88,671.69z"/>
	<path class="st3" d="M567.07,679.42c-2.63,0.62-5.3,1.06-8,1.32c-2.66,0.43-5.35,0.69-8.05,0.78c2.63-0.61,5.29-1.05,7.98-1.3
		C561.68,679.78,564.37,679.52,567.07,679.42z"/>
	<path class="st3" d="M561.07,691.98c-0.2-0.55-0.36-1.12-0.47-1.69c-0.29-1.08-0.64-2.64-1.03-4.58
		c-2.04-10.15-2.87-20.51-2.45-30.86c0-1.98,0.19-3.58,0.29-4.68c0.04-0.57,0.11-1.13,0.22-1.69c0.04,0.56,0.04,1.13,0,1.69
		c0,1.3,0,2.86-0.14,4.68c0,3.96,0,9.42,0.47,15.44s1.29,11.43,1.98,15.34c0.34,1.78,0.63,3.38,0.86,4.6
		C560.96,690.8,561.05,691.39,561.07,691.98z"/>
	<path class="st9" d="M418.13,689.63h136.35c14.33,0,25.95,11.62,25.95,25.95l0,0V768l0,0H392.17l0,0v-52.42
		C392.17,701.25,403.79,689.63,418.13,689.63L418.13,689.63z"/>
	<path class="st5" d="M532.61,720.44c-0.26,0.26-0.56,0.49-0.88,0.68l-2.64,1.81c-2.27,1.57-5.65,3.72-9.91,6.27
		s-9.4,5.41-15.22,8.45s-12.39,5.95-19.39,8.81c-7,2.86-13.81,5.21-20.05,7.17s-11.95,3.48-16.77,4.6
		c-4.82,1.12-8.74,1.94-11.48,2.42l-3.14,0.52c-0.36,0.09-0.73,0.13-1.1,0.12c0.35-0.12,0.7-0.21,1.07-0.29l3.11-0.69
		c2.71-0.57,6.61-1.47,11.4-2.69c4.79-1.22,10.45-2.79,16.67-4.75c6.22-1.96,12.99-4.41,19.99-7.22c7-2.81,13.53-5.85,19.36-8.72
		s11.01-5.72,15.22-8.2c4.21-2.49,7.69-4.53,10.03-6.02l2.72-1.69C531.91,720.79,532.25,720.6,532.61,720.44z"/>
	<path class="st5" d="M434.92,690c-0.33,0.07-0.67,0.09-1.01,0.08l-2.89,0.12c-3.54,0.19-7.05,0.67-10.52,1.42
		c-2.36,0.51-4.64,1.36-6.76,2.5c-2.45,1.3-4.57,3.14-6.19,5.39c-1.69,2.56-2.85,5.43-3.38,8.45c-0.57,3.27-0.87,6.59-0.91,9.91
		c-0.42,13.68-0.79,26.07-1.07,35.19c-0.19,4.41-0.32,8.03-0.42,10.67c0,1.18-0.12,2.13-0.17,2.89c0.01,0.34-0.03,0.68-0.12,1.01
		c-0.03-0.34-0.03-0.68,0-1.01c0-0.76,0-1.69,0-2.91c0-2.64,0-6.26,0.15-10.67c0.2-9.11,0.49-21.51,0.81-35.2
		c0.04-3.37,0.35-6.73,0.95-10.04c0.56-3.13,1.77-6.12,3.55-8.76c1.7-2.34,3.92-4.25,6.49-5.58c2.21-1.15,4.57-1.99,7.02-2.47
		c3.5-0.7,7.06-1.09,10.64-1.15c1.27,0,2.25,0,2.91,0C434.3,689.86,434.61,689.91,434.92,690z"/>
</g>
</svg>
