<?xml version="1.0" encoding="utf-8"?>
<!-- Generator: Adobe Illustrator 23.1.0, SVG Export Plug-In . SVG Version: 6.00 Build 0)  -->
<svg version="1.1" id="Layer_1" xmlns="http://www.w3.org/2000/svg" xmlns:xlink="http://www.w3.org/1999/xlink" x="0px" y="0px"
	 viewBox="0 0 1366 768" style="enable-background:new 0 0 1366 768;" xml:space="preserve">
<style type="text/css">
	.st0{fill:#EBEBEB;}
	.st1{fill:#E6E6E6;}
	.st2{fill:#F0F0F0;}
	.st3{fill:#FAFAFA;}
	.st4{fill:#E0E0E0;}
	.st5{fill:#FFFFFF;}
	.st6{opacity:0.4;fill:#E6E6E6;enable-background:new    ;}
	.st7{fill:#F5F5F5;}
	.st8{fill:#407BFF;}
	.st9{fill:#B55B52;}
	.st10{fill:#263238;}
	.st11{opacity:0.2;enable-background:new    ;}
	.st12{fill:#A02724;}
</style>
<g id="freepik--background-complete--inject-1">
	<rect x="178" y="638.74" class="st0" width="956" height="0.48"/>
	<rect x="932.61" y="669.5" class="st0" width="105.6" height="0.48"/>
	<rect x="793.3" y="659.48" class="st0" width="16.62" height="0.48"/>
	<rect x="890.16" y="651.76" class="st0" width="36.69" height="0.48"/>
	<rect x="278.3" y="654.97" class="st0" width="82.58" height="0.48"/>
	<rect x="589.71" y="667.32" class="st0" width="87.42" height="0.48"/>
	<rect x="446.56" y="659.24" class="st0" width="179.12" height="0.48"/>
	<path class="st0" d="M642.08,542.55c0,6.03-4.89,10.92-10.92,10.92c-0.01,0-0.01,0-0.02,0H261.96c-6.02-0.01-10.9-4.9-10.9-10.92
		V23.57c0.05-5.98,4.91-10.81,10.9-10.82h369.19c6.03,0,10.92,4.89,10.92,10.92c0,0,0,0,0,0 M641.58,23.67
		c0.04-5.78-4.61-10.49-10.38-10.53c-0.02,0-0.04,0-0.06,0H261.96c-5.76,0.01-10.42,4.68-10.42,10.44v518.97
		c0,5.76,4.66,10.43,10.42,10.44h369.19c5.76-0.01,10.43-4.68,10.44-10.44"/>
	<path class="st0" d="M1044.73,553.46H675.52c-6.03-0.01-10.91-4.89-10.92-10.92V23.57c0.06-5.99,4.93-10.81,10.92-10.82h369.21
		c5.98,0.02,10.83,4.84,10.88,10.82v518.97C1055.61,548.56,1050.74,553.44,1044.73,553.46z M675.52,13.13
		c-5.76,0.01-10.43,4.68-10.44,10.44v518.97c0.01,5.76,4.68,10.43,10.44,10.44h369.21c5.76-0.01,10.43-4.68,10.44-10.44V23.57
		c-0.01-5.76-4.68-10.43-10.44-10.44H675.52z"/>
	<rect x="313.1" y="397.12" class="st1" width="115.01" height="241.62"/>
	<polygon class="st2" points="324.69,638.74 313.12,638.74 313.12,605.83 336.81,605.83 	"/>
	<rect x="617.21" y="397.12" class="st1" width="115.01" height="241.62"/>
	<rect x="313.1" y="397.12" class="st2" width="314.18" height="221.43"/>
	<rect x="322.07" y="406.93" class="st1" width="296.25" height="60.73"/>
	<path class="st2" d="M449.24,425.74h41.95c18.21,0.02,35.64-7.45,48.18-20.65H401.07C413.61,418.3,431.03,425.77,449.24,425.74z"/>
	<polygon class="st2" points="615.73,638.74 627.3,638.74 627.3,605.83 603.59,605.83 	"/>
	<rect x="322.07" y="477.46" class="st1" width="296.25" height="60.73"/>
	<path class="st2" d="M449.24,496.35h41.95c18.22,0,35.65-7.5,48.18-20.73H401.07C413.6,488.86,431.02,496.35,449.24,496.35z"/>
	<rect x="322.07" y="548" class="st1" width="296.25" height="60.73"/>
	<path class="st2" d="M449.24,566.89h41.95c18.22,0.01,35.64-7.47,48.18-20.69H401.07C413.6,559.42,431.02,566.9,449.24,566.89z"/>
	<path class="st0" d="M338.32,317.73h8.2c0.62,0,1.13,0.51,1.13,1.13v77.13c0,0.62-0.51,1.13-1.13,1.13h-8.2
		c-0.62,0-1.13-0.51-1.13-1.13v-77.13C337.19,318.24,337.7,317.73,338.32,317.73z"/>
	<rect x="337.19" y="325.92" class="st3" width="10.46" height="28.89"/>
	<rect x="337.19" y="363.72" class="st3" width="10.46" height="17.82"/>
	<path class="st4" d="M348.78,317.73h42.31c0.62,0,1.13,0.51,1.13,1.13v77.13c0,0.62-0.51,1.13-1.13,1.13h-42.31
		c-0.62,0-1.13-0.51-1.13-1.13v-77.13C347.65,318.24,348.16,317.73,348.78,317.73z"/>
	<path class="st0" d="M354.15,309.55h9.06c0.69,0,1.24,0.56,1.24,1.24v85.08c0,0.69-0.56,1.24-1.24,1.24h-9.06
		c-0.69,0-1.24-0.56-1.24-1.24v-85.08C352.91,310.11,353.47,309.55,354.15,309.55z"/>
	<rect x="352.89" y="321" class="st3" width="11.55" height="7.82"/>
	<rect x="352.89" y="343.68" class="st3" width="11.55" height="7.82"/>
	<rect x="352.89" y="366.38" class="st3" width="11.55" height="7.82"/>
	<path class="st4" d="M365.78,309.55h46.67c0.69,0,1.24,0.56,1.24,1.24v85.08c0,0.69-0.56,1.24-1.24,1.24h-46.67
		c-0.69,0-1.24-0.56-1.24-1.24v-85.08C364.53,310.11,365.09,309.55,365.78,309.55z"/>
	<path class="st0" d="M370.83,317.73h8.2c0.62,0,1.13,0.51,1.13,1.13v77.13c0,0.62-0.51,1.13-1.13,1.13h-8.2
		c-0.62,0-1.13-0.51-1.13-1.13v-77.13C369.7,318.24,370.2,317.73,370.83,317.73z"/>
	<rect x="369.7" y="333.34" class="st3" width="10.46" height="14.82"/>
	<rect x="369.7" y="352.72" class="st3" width="10.46" height="9.14"/>
	<path class="st4" d="M381.3,317.73h42.31c0.62,0,1.13,0.51,1.13,1.13v77.13c0,0.62-0.51,1.13-1.13,1.13H381.3
		c-0.62,0-1.13-0.51-1.13-1.13v-77.13C380.17,318.24,380.68,317.73,381.3,317.73z"/>
	<path class="st0" d="M385.36,328.82h9.06c0.69,0,1.24,0.56,1.24,1.24v65.83c0,0.69-0.56,1.24-1.24,1.24h-9.06
		c-0.69,0-1.24-0.56-1.24-1.24v-65.83C384.11,329.38,384.67,328.82,385.36,328.82z"/>
	<rect x="384.09" y="344.18" class="st3" width="11.55" height="12.64"/>
	<rect x="384.09" y="385.63" class="st3" width="11.55" height="3"/>
	<rect x="384.09" y="359.63" class="st3" width="11.55" height="12.64"/>
	<path class="st4" d="M396.98,328.82h46.67c0.69,0,1.24,0.56,1.24,1.24v65.83c0,0.69-0.56,1.24-1.24,1.24h-46.67
		c-0.69,0-1.24-0.56-1.24-1.24v-65.83C395.74,329.38,396.29,328.82,396.98,328.82z"/>
	<path class="st0" d="M401.57,315.5h8.16c0.63,0,1.15,0.51,1.15,1.15v79.35c0,0.63-0.51,1.15-1.15,1.15h-8.16
		c-0.63,0-1.15-0.51-1.15-1.15v-79.35C400.42,316.01,400.94,315.5,401.57,315.5z"/>
	<rect x="400.42" y="323.91" class="st3" width="10.46" height="29.71"/>
	<rect x="400.42" y="362.76" class="st3" width="10.46" height="18.32"/>
	<path class="st4" d="M412.03,315.5h42.27c0.63,0,1.15,0.51,1.15,1.15v79.35c0,0.63-0.51,1.15-1.15,1.15h-42.27
		c-0.63,0-1.15-0.51-1.15-1.15v-79.35C410.88,316.01,411.4,315.5,412.03,315.5z"/>
	<path class="st0" d="M417.27,324.12h9.25c0.63,0,1.15,0.51,1.15,1.15v70.71c0,0.63-0.51,1.15-1.15,1.15h-9.25
		c-0.63,0-1.15-0.51-1.15-1.15v-70.71C416.12,324.63,416.63,324.12,417.27,324.12z"/>
	<rect x="416.12" y="333.66" class="st3" width="11.55" height="6.52"/>
	<rect x="416.12" y="352.57" class="st3" width="11.55" height="6.52"/>
	<rect x="416.12" y="371.48" class="st3" width="11.55" height="6.52"/>
	<path class="st4" d="M428.91,324.12h46.86c0.63,0,1.15,0.51,1.15,1.15v70.71c0,0.63-0.51,1.15-1.15,1.15h-46.86
		c-0.63,0-1.15-0.51-1.15-1.15v-70.71C427.76,324.63,428.28,324.12,428.91,324.12z"/>
	<path class="st0" d="M434.06,317.73h8.2c0.62,0,1.13,0.51,1.13,1.13v77.13c0,0.62-0.51,1.13-1.13,1.13h-8.2
		c-0.62,0-1.13-0.51-1.13-1.13v-77.13C432.93,318.24,433.43,317.73,434.06,317.73z"/>
	<rect x="432.93" y="333.34" class="st3" width="10.46" height="14.82"/>
	<rect x="432.93" y="352.72" class="st3" width="10.46" height="9.14"/>
	<path class="st4" d="M444.51,317.73h42.31c0.62,0,1.13,0.51,1.13,1.13v77.13c0,0.62-0.51,1.13-1.13,1.13h-42.31
		c-0.62,0-1.13-0.51-1.13-1.13v-77.13C443.39,318.24,443.89,317.73,444.51,317.73z"/>
	<path class="st0" d="M448.59,328.82h9.06c0.69,0,1.24,0.56,1.24,1.24v65.83c0,0.69-0.56,1.24-1.24,1.24h-9.06
		c-0.69,0-1.24-0.56-1.24-1.24v-65.83C447.34,329.38,447.9,328.82,448.59,328.82z"/>
	<rect x="447.32" y="344.18" class="st3" width="11.55" height="12.64"/>
	<rect x="447.32" y="385.63" class="st3" width="11.55" height="3"/>
	<rect x="447.32" y="359.63" class="st3" width="11.55" height="12.64"/>
	<path class="st4" d="M460.21,328.82h46.67c0.69,0,1.24,0.56,1.24,1.24v65.83c0,0.69-0.56,1.24-1.24,1.24h-46.67
		c-0.69,0-1.24-0.56-1.24-1.24v-65.83C458.97,329.38,459.52,328.82,460.21,328.82z"/>
	<rect x="310.79" y="99.71" class="st1" width="418.33" height="125.94"/>
	<rect x="301.92" y="99.71" class="st2" width="423.05" height="125.94"/>
	<rect x="310.79" y="225.67" class="st1" width="418.33" height="16.48"/>
	<rect x="287.14" y="225.67" class="st2" width="423.05" height="16.48"/>
	<rect x="314.33" y="112.14" class="st3" width="398.21" height="101.11"/>
	<polygon class="st5" points="607.17,213.24 534.26,112.14 459.66,112.14 532.56,213.24 	"/>
	<path class="st2" d="M706.78,203.55c0.5,0,0.9-0.4,0.9-0.9l0,0v-82.43c-0.07-0.49-0.53-0.83-1.02-0.76
		c-0.39,0.06-0.7,0.37-0.76,0.76v82.43C705.9,203.14,706.29,203.54,706.78,203.55z"/>
	<polygon class="st5" points="504.51,213.24 431.59,112.14 405.78,112.14 478.68,213.24 	"/>
	<rect x="314.33" y="112.14" class="st1" width="1.59" height="101.11"/>
	<polygon class="st6" points="298.97,124.66 717.3,124.66 718.45,116.97 300.12,116.97 	"/>
	<polygon class="st6" points="298.97,137.36 717.3,137.36 718.45,129.67 300.12,129.67 	"/>
	<polygon class="st6" points="298.97,150.07 717.3,150.07 718.45,142.38 300.12,142.38 	"/>
	<polygon class="st6" points="298.97,162.77 717.3,162.77 718.45,155.08 300.12,155.08 	"/>
	<polygon class="st6" points="298.97,175.48 717.3,175.48 718.45,167.78 300.12,167.78 	"/>
	<polygon class="st6" points="298.97,188.18 717.3,188.18 718.45,180.49 300.12,180.49 	"/>
	<rect x="796.91" y="99.71" class="st1" width="161.39" height="286"/>
	<path class="st2" d="M816.82,107.55c0.24,0,0.48-0.06,0.69-0.19c0.38-0.23,38.35-22.81,50.32-22.81s48.16,22.56,48.53,22.79
		c0.61,0.42,1.44,0.27,1.86-0.34c0.02-0.03,0.03-0.05,0.05-0.08c0.41-0.64,0.23-1.49-0.41-1.9c0,0-0.01-0.01-0.01-0.01
		c-1.53-0.94-37.25-23.19-49.96-23.19s-50.11,22.24-51.62,23.19c-0.63,0.38-0.84,1.2-0.46,1.84c0.24,0.4,0.68,0.65,1.15,0.65
		L816.82,107.55z"/>
	<rect x="779.42" y="99.71" class="st2" width="166.71" height="286"/>
	<rect x="793.42" y="113.69" class="st5" width="138.77" height="258.06"/>
	<rect x="874.96" y="518.23" class="st4" width="100.57" height="120.51"/>
	<polygon class="st4" points="975.51,518.23 874.94,518.23 895.13,482.28 995.71,482.28 	"/>
	<polygon class="st7" points="776.91,482.28 676.34,482.28 696.53,518.23 797.11,518.23 	"/>
	<rect x="696.52" y="518.23" class="st7" width="178.43" height="120.51"/>
	<rect x="818.81" y="550.42" class="st2" width="56.14" height="56.14"/>
	<rect x="720.59" y="550.42" class="st2" width="32.29" height="32.29"/>
	<rect x="720.59" y="590.4" class="st2" width="32.29" height="32.29"/>
	<rect x="874.96" y="550.41" class="st1" width="28.97" height="56.14"/>
</g>
<g id="freepik--Shadow--inject-1">
	<ellipse id="freepik--path--inject-1" class="st7" cx="656" cy="703.44" rx="370.72" ry="21.64"/>
</g>
<g id="freepik--Icons--inject-1">
	<circle class="st8" cx="488.57" cy="164.14" r="28.7"/>
	<path class="st5" d="M485.83,161.66l-16.06-6.84c0.34-0.22,0.74-0.33,1.15-0.33h35.51c0.41,0,0.8,0.11,1.15,0.33l-16.06,6.84
		C489.69,162.42,487.65,162.42,485.83,161.66z"/>
	<path class="st5" d="M508.64,157.37v15.58c0,1.28-1.04,2.31-2.31,2.31h0h-35.51c-1.28,0-2.31-1.04-2.31-2.31v0v-15.58
		c-0.01-0.1-0.01-0.19,0-0.29l16.42,6.98c1.14,0.48,2.37,0.73,3.61,0.75c1.25-0.01,2.49-0.26,3.65-0.75l16.4-6.98
		C508.63,157.18,508.64,157.28,508.64,157.37z"/>
	
		<ellipse transform="matrix(0.284 -0.9588 0.9588 0.284 417.8923 624.3308)" class="st8" cx="626.99" cy="32.35" rx="28.7" ry="28.7"/>
	<path class="st5" d="M640.7,19.29h-27.36c-2.84,0.05-5.12,2.36-5.14,5.2v14.09c0.01,2.88,2.34,5.21,5.22,5.22h20.02l-0.15,4.93
		l5.07-4.93h2.35c2.87-0.02,5.2-2.35,5.22-5.22V24.49C645.9,21.62,643.58,19.3,640.7,19.29z M612.81,25.29
		c0-0.81,0.65-1.46,1.45-1.47h6.27c0.81,0.01,1.45,0.67,1.45,1.47c-0.01,0.8-0.66,1.43-1.45,1.43h-6.27
		c-0.8,0.04-1.49-0.57-1.53-1.37c0-0.02,0-0.04,0-0.06L612.81,25.29z M639.16,38.91H628.3c-0.79,0-1.43-0.64-1.43-1.43
		s0.64-1.43,1.43-1.43l0,0h10.86c0.79,0,1.43,0.64,1.43,1.43S639.95,38.91,639.16,38.91z M639.16,32.83h-23.52
		c-0.8-0.01-1.43-0.66-1.43-1.45c0-0.79,0.64-1.43,1.43-1.43h23.44c0.79,0,1.43,0.64,1.43,1.43c0,0.8-0.64,1.44-1.43,1.45H639.16z
		 M639.16,26.73h-13.88c-0.79,0-1.43-0.64-1.43-1.43l0,0c-0.01-0.8,0.63-1.46,1.43-1.47c0,0,0,0,0,0h13.88
		c0.8,0.02,1.43,0.67,1.43,1.47c-0.01,0.8-0.67,1.44-1.47,1.44c-0.01,0-0.03,0-0.04,0H639.16z"/>
	
		<ellipse transform="matrix(0.4871 -0.8733 0.8733 0.4871 210.0008 507.8307)" class="st8" cx="537.36" cy="75.13" rx="28.7" ry="28.7"/>
	<path class="st5" d="M549.75,62.98h-24.86c-2.5,0-4.52,2.02-4.53,4.51v15.3c0,2.5,2.03,4.53,4.53,4.53c0.01,0,0.03,0,0.04,0h24.86
		c2.5,0,4.52-2.02,4.53-4.51v-15.3c0-2.5-2.03-4.53-4.53-4.53C549.78,62.98,549.76,62.98,549.75,62.98z M533.38,81.58V68.75
		l11.05,6.37L533.38,81.58z"/>
	
		<ellipse transform="matrix(0.9045 -0.4264 0.4264 0.9045 47.6617 315.541)" class="st8" cx="728.5" cy="51.33" rx="28.7" ry="28.7"/>
	<path class="st5" d="M741.2,55.01c4.45-4.51,4.4-11.77-0.11-16.22c-4.51-4.45-11.77-4.4-16.22,0.11
		c-4.05,4.1-4.42,10.58-0.87,15.12c-0.78,0.61-1.53,1.24-2.28,1.91c-1.09,0.92-2.14,1.91-3.17,2.79s-2.06,1.91-3.08,2.91l-1.51,1.49
		c-0.26,0.24-0.48,0.52-0.63,0.84c-0.09,0.18-0.16,0.37-0.19,0.57c-0.04,0.23-0.04,0.46,0,0.69c0.06,0.87,0.75,1.57,1.63,1.63
		c0.23,0.03,0.47,0.03,0.71,0l0.55-0.19c0.32-0.16,0.61-0.38,0.84-0.65c0.5-0.5,1.01-0.99,1.49-1.51c0.99-0.99,1.91-2.03,2.91-3.06
		c0.99-1.03,1.91-2.1,2.79-3.19c0.65-0.75,1.26-1.49,1.91-2.28C730.54,59.56,737.1,59.15,741.2,55.01z M726.59,53.29
		c-3.56-3.56-3.57-9.33-0.01-12.9c3.56-3.56,9.33-3.57,12.9-0.01c3.56,3.56,3.57,9.33,0.01,12.9c0,0-0.01,0.01-0.01,0.01
		C735.92,56.84,730.15,56.84,726.59,53.29L726.59,53.29z"/>
	
		<ellipse transform="matrix(0.8253 -0.5647 0.5647 0.8253 69.2909 471.4041)" class="st8" cx="796.55" cy="123.71" rx="28.7" ry="28.7"/>
	<path class="st5" d="M814.94,123.65c0,0,0,0,0-0.11c-0.01-0.95-0.09-1.89-0.23-2.83c-1.42-8.75-8.88-15.24-17.74-15.43h-0.92
		c-0.81,0.01-1.62,0.08-2.43,0.21c-8.9,1.45-15.44,9.14-15.45,18.16c0,0,0,0,0,0.1c0,0.1,0,0,0,0.11c0,0.95,0.07,1.89,0.21,2.83
		c1.46,8.88,9.11,15.41,18.11,15.45l0,0c0.97,0,1.94-0.08,2.91-0.23c8.85-1.46,15.36-9.08,15.43-18.05
		C814.83,123.86,814.94,123.76,814.94,123.65z M810.11,130.91h-3.21c0.48-1.88,0.77-3.8,0.86-5.74h4.11
		c-0.18,2.04-0.78,4.02-1.76,5.81V130.91z M783,116.38h3.21c-0.48,1.88-0.76,3.8-0.86,5.74h-4.11c0.21-1.98,0.81-3.91,1.76-5.66
		V116.38z M804.68,121.08c0,0.36,0,0.71,0,1.07h-6.71v-5.74h5.74c0.48,1.55,0.8,3.13,0.98,4.74V121.08z M798.04,113.44v-4.88
		c0.44,0.16,0.85,0.38,1.24,0.63c1.46,1.11,2.61,2.57,3.35,4.24H798.04z M795.06,108.58v4.86h-4.61c0.86-2.14,2.51-3.86,4.61-4.82
		V108.58z M795.06,116.42v5.74h-6.71c0.11-1.94,0.44-3.87,0.98-5.74H795.06z M781.35,126.15c0-0.33,0-0.65-0.11-0.98h4.13
		c0,0.46,0,0.9,0,1.36c0.14,1.49,0.4,2.97,0.76,4.42h-3.23c-0.78-1.49-1.31-3.1-1.55-4.76V126.15z M788.43,126.27
		c0-0.36,0-0.73,0-1.09h6.71v5.74h-5.74c-0.47-1.5-0.8-3.04-0.98-4.61V126.27z M795.06,133.91v5.03c-0.44-0.16-0.86-0.37-1.24-0.63
		c-1.46-1.11-2.61-2.57-3.35-4.24L795.06,133.91z M798.04,138.79v-4.82h4.61c-0.84,2.19-2.49,3.97-4.61,4.97V138.79z M798.04,130.93
		v-5.74h6.71c-0.11,1.94-0.44,3.87-0.98,5.74H798.04z M807.74,122.17c0-0.44,0-0.9,0-1.36c-0.15-1.49-0.4-2.96-0.76-4.42h3.23
		c0.8,1.5,1.35,3.12,1.63,4.8c0,0.33,0,0.65,0.11,0.98L807.74,122.17z M808.04,113.42h-2.14c-0.41-1.04-0.92-2.05-1.51-3
		c0.4,0.23,0.79,0.49,1.17,0.76c0.91,0.67,1.74,1.44,2.49,2.29L808.04,113.42z M788.69,110.43c-0.59,0.95-1.1,1.95-1.51,2.98h-2.12
		c1.06-1.15,2.28-2.14,3.63-2.93L788.69,110.43z M785.08,133.91h2.12c0.42,1.05,0.93,2.06,1.53,3.02c-1.37-0.79-2.6-1.79-3.65-2.96
		V133.91z M804.41,137.03c0.59-0.95,1.1-1.96,1.51-3h2.12C806.98,135.2,805.76,136.21,804.41,137.03z"/>
	
		<ellipse transform="matrix(0.8253 -0.5647 0.5647 0.8253 14.7638 496.4346)" class="st8" cx="809.74" cy="224.36" rx="28.7" ry="28.7"/>
	<path class="st5" d="M809.74,207.12c-8.44,0.24-15.09,7.28-14.85,15.73c0.19,6.77,4.82,12.61,11.37,14.35l3.48,4.44l3.48-4.44l0,0
		c8.17-2.16,13.03-10.54,10.87-18.7C822.36,211.95,816.52,207.32,809.74,207.12z M809.74,228.71c-3.51-0.01-6.34-2.86-6.33-6.37
		c0.01-3.51,2.86-6.34,6.37-6.33c3.5,0.01,6.33,2.85,6.33,6.35c0.05,3.51-2.75,6.39-6.25,6.44c-0.04,0-0.08,0-0.12,0V228.71z"/>
</g>
<g id="freepik--Character--inject-1">
	<polygon class="st9" points="638.85,686.96 624.11,686.96 623.48,652.81 638.22,652.81 	"/>
	<polygon class="st9" points="727.39,686.96 712.65,686.96 706.08,652.81 720.82,652.81 	"/>
	<path class="st10" d="M711.64,685.26h16.58c0.6,0,1.11,0.42,1.22,1.01l2.6,13.1c0.22,1.22-0.58,2.38-1.8,2.6
		c-0.14,0.03-0.28,0.04-0.42,0.04c-5.74-0.11-8.58-0.44-15.87-0.44c-4.49,0-13.73,0.46-19.92,0.46c-6.19,0-6.84-6.12-4.3-6.67
		c11.47-2.49,15.79-5.91,19.5-9.18C709.89,685.59,710.75,685.26,711.64,685.26z"/>
	<path class="st10" d="M624.24,685.26h16.12c0.6,0,1.11,0.42,1.22,1.01l2.58,13.1c0.24,1.19-0.52,2.35-1.71,2.59
		c-0.15,0.03-0.31,0.05-0.47,0.04c-5.74-0.11-14.19-0.44-21.49-0.44c-8.55,0-15.93,0.46-25.95,0.46c-6.04,0-7.65-6.12-5.03-6.67
		c11.61-2.52,21.03-2.79,31.15-8.95C621.73,685.7,622.97,685.31,624.24,685.26z"/>
	<path class="st9" d="M623.8,224.12l-15.74-14.11c0,0-38.64,35.49-46.21,35.37c-10.32-0.17-31.78-1.24-43.75-3.82
		c-2.14,1.3-6.54,6.25-6.98,8.47c13.71,10.84,49.43,18.6,58.39,15.58C589.94,258.77,623.8,224.12,623.8,224.12z"/>
	<path class="st10" d="M632.64,215.94c-0.11,14.09-37.57,42.22-37.57,42.22l-21.78-25.01c8.48-9.88,17.97-18.85,28.32-26.77
		C616.94,195.23,632.75,200.47,632.64,215.94z"/>
	<path class="st11" d="M595.06,258.16c0,0,34.59-25.96,37.38-40.5C628.03,213.13,604.38,226.09,595.06,258.16z"/>
	<path class="st9" d="M520.46,242.32L507.4,230.3l-11.72,15.03c5.87,3.19,12.18,5.47,18.74,6.75L520.46,242.32z"/>
	<polygon class="st9" points="491.84,223.22 487.8,234.56 495.68,245.33 507.4,230.3 	"/>
	<polygon class="st11" points="623.48,652.83 623.8,670.42 638.56,670.42 638.24,652.83 	"/>
	<polygon class="st11" points="720.84,652.83 706.08,652.83 709.48,670.42 724.22,670.42 	"/>
	<path class="st10" d="M613.52,201.06c0,0-18.51,44.55-4,127.47h78.87c0.84-12.1-5.32-71.16,7.76-128.22
		c-8.69-1.68-17.49-2.8-26.33-3.35c-11.16-0.64-22.35-0.64-33.52,0C628.62,197.75,621,199.12,613.52,201.06z"/>
	<path class="st11" d="M678.68,214.39c-1.55,9.41,0.86,31.85,9.18,57.82c0.4-22.24,2.76-44.39,7.06-66.21v-0.13
		C689.73,205.35,680.15,205.6,678.68,214.39z"/>
	<path class="st9" d="M666.21,165.71c-2.37,10.78-3.82,24.17,3.61,31.36c0,0-4.59,10.96-24.65,10.96c-18.32,0-8.87-10.96-8.87-10.96
		c12.08-2.87,11.84-17.74,9.94-26.12L666.21,165.71z"/>
	<path class="st8" d="M644.22,207.05l-4.34,4.82c-0.3,0.34-0.4,0.81-0.27,1.24l1.4,4.23c0.15,0.49,0.6,0.83,1.11,0.84l4.67,0.23
		c0.46,0.02,0.89-0.2,1.15-0.57l2.79-4.09c0.35-0.46,0.35-1.09,0-1.55l-4.53-5.14c-0.45-0.54-1.26-0.62-1.8-0.17
		C644.33,206.93,644.27,206.99,644.22,207.05z"/>
	<path class="st5" d="M645.2,206c2.22,3.73,3.45,7.96,3.58,12.29c0,0,25.31-8.87,24.47-21.84c0,0-3.52-2.12-5.74-3.82
		C667.47,192.61,666.46,200.8,645.2,206z"/>
	<path class="st5" d="M645.2,206c-2.39,3.49-4.14,7.37-5.18,11.47c0,0-11.19-7.65-7.46-20.53c2.1-0.84,4.27-1.52,6.48-2.03
		C639.04,194.91,637.34,203.22,645.2,206z"/>
	<path class="st8" d="M643.13,217.51c0,0-7.17,52.79-7.32,61.97c0.1,8.69,1.46,17.32,4.05,25.62c0,0,4.91-9.33,5.74-26
		c0.82-16.67-0.17-52.24,0.19-61.59H643.13z"/>
	<path class="st11" d="M646.23,170.85c1.13,4.91,1.68,12.06-0.52,17.71c1.88-0.28,3.71-0.83,5.43-1.64
		c6.86-3.19,10.32-8.22,13.98-15.7c0.33-1.91,0.69-3.82,1.09-5.6L646.23,170.85z"/>
	<path class="st9" d="M630.02,156.63c0.64,3.58,2.71,6.74,5.74,8.76c4.05,2.64,7.65-0.69,7.78-5.32c0.13-4.17-1.78-10.55-6.46-11.32
		c-3.51-0.46-6.72,2.01-7.19,5.52C629.78,155.06,629.83,155.86,630.02,156.63z"/>
	<path class="st11" d="M630.02,156.63c0.64,3.58,2.71,6.74,5.74,8.76c4.05,2.64,7.65-0.69,7.78-5.32
		c0.13-4.17-1.78-10.55-6.46-11.32c-3.51-0.46-6.72,2.01-7.19,5.52C629.78,155.06,629.83,155.86,630.02,156.63z"/>
	<path class="st10" d="M649.79,128.43c-7.9,0.36-19.12,18.09-12.16,25.7C644.59,161.73,664.7,127.74,649.79,128.43z"/>
	<path class="st9" d="M676.59,156.65c-6.23,13.38-9.22,21.53-18.83,26.02c-14.49,6.73-28.68-5.74-26.63-20.69
		c1.91-13.38,11.8-33.04,27.23-33.54c10.77-0.42,19.85,7.97,20.27,18.74C678.75,150.46,678.05,153.72,676.59,156.65z"/>
	<path class="st10" d="M687.01,139.44c7.65,4.93-3.19,26.77-13.02,26.18c-4.34-0.27-3.54-10.86,0.8-19.98
		c-7.92-0.34-34-6.12-33.13-18.45c0.27-3.98,4.34-6.39,10.17-9.41c3.28-1.38,4.98-5.03,3.92-8.43c2.65,2.6,3.51,6.53,2.2,10
		c-2.22,6.04,9.89,3.65,16.86,3.48C687.28,122.48,694.43,131.79,687.01,139.44z"/>
	<path class="st10" d="M685.29,139.44c0,0,6.14-2.31,8.22,3.06C691.06,140.83,688.24,139.78,685.29,139.44z"/>
	<path class="st9" d="M676.76,174.05c-2.95,2.23-6.66,3.22-10.32,2.75c-4.82-0.67-5.18-5.45-2.12-9.01
		c2.73-3.19,8.57-6.69,12.56-4.23C680.88,166.04,680.4,171.26,676.76,174.05z"/>
	<path class="st8" d="M609.52,328.54c0,0-4.74,110.27-4.24,155.24c0.54,46.79,13.12,183.25,13.12,183.25h24.99
		c0,0,4.59-133.73,6.83-179.73c2.45-50.08,11.17-158.81,11.17-158.81L609.52,328.54z"/>
	<path class="st10" d="M645.22,659.37c0.11,0-0.21,8.16-0.21,8.16h-28.79l-0.99-9.18L645.22,659.37z"/>
	<path class="st11" d="M643.3,357.73c-0.86,54.7,1.63,87.95,7.65,114.72c1.51-26.1,3.98-60.61,6.14-89.27L643.3,357.73z"/>
	<path class="st8" d="M637.49,328.54c0,0,13.98,112.81,22.14,154.87c8.91,46.23,43.06,183.55,43.06,183.55h27
		c0,0-21.3-133.51-25.89-179.31c-5.01-49.71-15.3-159.12-15.3-159.12H637.49z"/>
	<path class="st10" d="M729.86,659.98c0.11,0,1.17,7.55,1.17,7.55h-29.69l-2.41-8.68L729.86,659.98z"/>
	<path class="st11" d="M719.19,651.05c-0.12,0-0.22-0.09-0.23-0.21c-0.19-1.36-19.43-120.34-23.57-161.47
		c-4.49-44.63-13.86-143.59-13.96-144.59c-0.02-0.14,0.07-0.26,0.21-0.28c0.01,0,0.02,0,0.02,0c0.14-0.01,0.26,0.09,0.27,0.23
		c0,0,0,0,0,0c0.1,0.99,9.46,99.94,13.96,144.59c4.15,41.11,23.38,160.09,23.57,161.45c0.02,0.14-0.07,0.26-0.2,0.29c0,0,0,0-0.01,0
		L719.19,651.05z"/>
	<path class="st10" d="M654.47,152.8c-0.44,1.13-1.38,1.8-2.1,1.53c-0.73-0.27-0.94-1.38-0.5-2.5c0.44-1.13,1.38-1.8,2.1-1.53
		C654.7,150.57,654.91,151.7,654.47,152.8z"/>
	<path class="st10" d="M641.99,148.16c-0.44,1.11-1.4,1.8-2.1,1.53c-0.71-0.27-0.96-1.4-0.52-2.5s1.38-1.91,2.1-1.55
		S642.42,147.03,641.99,148.16z"/>
	<path class="st12" d="M645.73,150.19c-2.65,2.95-5.7,5.52-9.04,7.65c1.1,1.68,2.9,2.77,4.89,2.98L645.73,150.19z"/>
	<path class="st10" d="M643.59,165c-0.17-0.06-0.26-0.24-0.2-0.41c0-0.01,0.01-0.02,0.01-0.03c0.08-0.18,0.27-0.27,0.46-0.21
		c2.8,1.08,5.94,0.79,8.49-0.78c0.14-0.13,0.36-0.13,0.5,0c0.13,0.14,0.13,0.36,0,0.5C650.1,165.88,646.64,166.23,643.59,165z"/>
	<path class="st10" d="M659.82,150.15c-0.2-0.09-0.35-0.25-0.42-0.46c-0.38-1.75-1.62-3.18-3.29-3.82
		c-0.37-0.12-0.57-0.51-0.46-0.88c0.13-0.36,0.51-0.57,0.88-0.48c2.1,0.76,3.69,2.52,4.23,4.68c0.1,0.37-0.12,0.76-0.5,0.86
		C660.13,150.13,659.98,150.17,659.82,150.15z"/>
	<path class="st10" d="M638.12,141.58c-0.34-0.14-0.51-0.53-0.37-0.87c0.05-0.12,0.13-0.22,0.23-0.29c1.7-1.49,4.01-2.07,6.21-1.57
		c0.36,0.11,0.57,0.49,0.47,0.85c0,0.01-0.01,0.02-0.01,0.03c-0.13,0.36-0.51,0.56-0.88,0.46l0,0c-1.75-0.36-3.57,0.13-4.91,1.3
		C638.66,141.66,638.37,141.7,638.12,141.58z"/>
	<path class="st9" d="M683.27,224.58l20.53-6.67c0,0,18.85,48.07,25.85,50.84c9.56,3.82,28.81,13.92,40.82,16.33
		c1.38,2.03,3.21,8.26,2.64,10.46c-17.21,4.47-52.24-4.95-59.14-11.15C698.2,270.28,683.27,224.58,683.27,224.58z"/>
	<path class="st10" d="M696.15,200.32c13.9,2.03,28.68,50.38,28.68,50.38l-29.71,16.54c0,0-12.33-22.94-18.28-40.15
		C670.63,209.29,681.24,198.21,696.15,200.32z"/>
	<path class="st8" d="M706.71,687.84c-0.99,0.08-1.99-0.18-2.81-0.75c-0.56-0.47-0.82-1.2-0.69-1.91c0.02-0.42,0.26-0.8,0.63-0.99
		c1.63-0.82,6.33,2.08,6.86,2.43c0.11,0.07,0.17,0.21,0.15,0.34c-0.03,0.14-0.13,0.25-0.27,0.29
		C709.32,687.59,708.02,687.79,706.71,687.84z M704.58,684.78c-0.14-0.03-0.29-0.03-0.44,0c-0.1,0-0.21,0.13-0.23,0.4
		c-0.09,0.47,0.08,0.96,0.44,1.28c1.64,0.75,3.51,0.84,5.22,0.25C708.05,685.75,706.36,685.1,704.58,684.78L704.58,684.78z"/>
	<path class="st8" d="M710.49,687.32h-0.15c-1.51-0.84-4.38-4.07-4.03-5.74c0.13-0.52,0.59-0.9,1.13-0.92
		c0.54-0.07,1.08,0.1,1.49,0.46c1.66,1.4,1.91,5.74,1.91,5.83c0,0.13-0.06,0.25-0.17,0.33
		C710.61,687.31,710.55,687.33,710.49,687.32z M707.62,681.34h-0.15c-0.46,0-0.5,0.25-0.52,0.34c-0.21,0.98,1.61,3.4,3.1,4.57
		c-0.06-1.67-0.63-3.29-1.63-4.63C708.2,681.44,707.92,681.33,707.62,681.34z"/>
	<path class="st8" d="M618.05,687.84c-1.25,0.11-2.51-0.2-3.56-0.9c-0.48-0.43-0.71-1.07-0.61-1.7c0.02-0.39,0.25-0.75,0.59-0.94
		c1.82-1.01,7.65,1.91,8.34,2.35c0.13,0.07,0.2,0.22,0.17,0.36c-0.02,0.15-0.14,0.27-0.29,0.29
		C621.16,687.63,619.61,687.81,618.05,687.84z M615.45,684.78c-0.22-0.01-0.45,0.03-0.65,0.13c-0.13,0.07-0.22,0.21-0.23,0.36
		c-0.06,0.42,0.09,0.84,0.4,1.13c0.88,0.8,3.31,0.96,6.58,0.4C619.64,685.79,617.58,685.1,615.45,684.78L615.45,684.78z"/>
	<path class="st8" d="M622.64,687.32h-0.15c-1.76-0.8-5.2-3.98-4.89-5.74c0-0.38,0.36-0.88,1.32-0.98c0.7-0.07,1.39,0.15,1.91,0.61
		c1.91,1.53,2.14,5.51,2.14,5.74c0.02,0.12-0.04,0.24-0.15,0.31C622.76,687.3,622.7,687.33,622.64,687.32z M619.17,681.34h-0.21
		c-0.63,0-0.67,0.31-0.69,0.38c-0.19,0.99,2.14,3.5,3.94,4.61c-0.14-1.68-0.81-3.27-1.91-4.55
		C619.98,681.51,619.59,681.36,619.17,681.34z"/>
	<path class="st9" d="M771.75,295.86l14.03,0.67l-7.46-15.3c0,0-12.29-0.19-14.32,9.27L771.75,295.86z"/>
	<polygon class="st9" points="797.16,289.13 789.73,275.61 778.33,281.23 785.79,296.53 	"/>
</g>
</svg>
